<?xml version='1.0' encoding='utf-8'?>
<mlt LC_NUMERIC="en_US.UTF-8" producer="main_bin" root="/FanEdits/FanMixes/Alien Resurrection (1997) - UnJossed Edition" version="7.33.0">
 <profile colorspace="709" description="1920x820 30.00fps" display_aspect_den="41" display_aspect_num="96" frame_rate_den="1" frame_rate_num="30" height="820" progressive="1" sample_aspect_den="1" sample_aspect_num="1" width="1920"/>
 <chain id="chain5" out="01:48:48.533">
  <property name="length">195857</property>
  <property name="eof">pause</property>
  <property name="resource">/Horror and SciFi/Alien Movie Collection/Alien Resurrection (1997) [1080p]/Alien Resurrection 1997 Theatrical Cut BluRay 1080p DDP 5 1 x264/Alien Resurrection 1997 Theatrical Cut BluRay 1080p DDP 5 1 x264.mkv</property>
  <property name="mlt_service">avformat-novalidate</property>
  <property name="meta.media.nb_streams">3</property>
  <property name="meta.media.0.stream.type">video</property>
  <property name="meta.media.0.stream.frame_rate">30</property>
  <property name="meta.media.0.stream.sample_aspect_ratio">1</property>
  <property name="meta.media.0.codec.width">1920</property>
  <property name="meta.media.0.codec.height">820</property>
  <property name="meta.media.0.codec.rotate">0</property>
  <property name="meta.media.0.codec.pix_fmt">yuv420p</property>
  <property name="meta.media.0.codec.sample_aspect_ratio">1</property>
  <property name="meta.media.0.codec.colorspace">709</property>
  <property name="meta.media.0.codec.color_trc">1</property>
  <property name="meta.media.0.codec.name">h264</property>
  <property name="meta.media.0.codec.long_name">H.264 / AVC / MPEG-4 AVC / MPEG-4 part 10</property>
  <property name="meta.media.0.codec.bit_rate">4591101</property>
  <property name="meta.attr.0.stream.creation_time.markup">2025-06-23T00:43:18.000000Z</property>
  <property name="meta.attr.0.stream.handler_name.markup">VideoHandler</property>
  <property name="meta.attr.0.stream.vendor_id.markup">[0][0][0][0]</property>
  <property name="meta.media.1.stream.type">audio</property>
  <property name="meta.media.1.codec.sample_fmt">fltp</property>
  <property name="meta.media.1.codec.sample_rate">48000</property>
  <property name="meta.media.1.codec.channels">2</property>
  <property name="meta.media.1.codec.layout">stereo</property>
  <property name="meta.media.1.codec.name">aac</property>
  <property name="meta.media.1.codec.long_name">AAC (Advanced Audio Coding)</property>
  <property name="meta.media.1.codec.bit_rate">161858</property>
  <property name="meta.attr.1.stream.creation_time.markup">2025-06-23T00:43:18.000000Z</property>
  <property name="meta.attr.1.stream.language.markup">eng</property>
  <property name="meta.attr.1.stream.handler_name.markup">Stereo</property>
  <property name="meta.attr.1.stream.vendor_id.markup">[0][0][0][0]</property>
  <property name="meta.attr.major_brand.markup">mp42</property>
  <property name="meta.attr.minor_version.markup">512</property>
  <property name="meta.attr.compatible_brands.markup">mp42iso2avc1mp41</property>
  <property name="meta.attr.creation_time.markup">2025-06-23T00:43:18.000000Z</property>
  <property name="meta.attr.encoder.markup">HandBrake 1.9.2 2025022300</property>
  <property name="seekable">1</property>
  <property name="meta.media.sample_aspect_num">1</property>
  <property name="meta.media.sample_aspect_den">1</property>
  <property name="audio_index">1</property>
  <property name="video_index">0</property>
  <property name="vstream">0</property>
  <property name="meta.media.frame_rate_num">30</property>
  <property name="meta.media.frame_rate_den">1</property>
  <property name="meta.media.colorspace">709</property>
  <property name="meta.media.color_trc">1</property>
  <property name="meta.media.has_b_frames">2</property>
  <property name="meta.media.width">1920</property>
  <property name="meta.media.height">820</property>
  <property name="meta.media.aspect_ratio">1</property>
  <property name="meta.media.color_range">mpeg</property>
  <property name="astream">0</property>
  <property name="meta.media.top_field_first">0</property>
  <property name="meta.media.progressive">1</property>
  <property name="kdenlive:control_uuid">{494b7f9e-b413-4c17-8097-c58c8040ca1a}</property>
  <property name="kdenlive:id">4</property>
  <property name="kdenlive:clip_type">0</property>
  <property name="kdenlive:file_size">3886013278</property>
  <property name="kdenlive:file_hash">aa8ea8f373aa152e3089d9aeb2c3985d</property>
  <property name="kdenlive:folderid">-1</property>
  <property name="kdenlive:monitorPosition">0</property>
  <property name="mute_on_pause">0</property>
 </chain>
 <producer id="producer0" in="00:00:00.000" out="01:38:45.633">
  <property name="length">2147483647</property>
  <property name="eof">continue</property>
  <property name="resource">black</property>
  <property name="aspect_ratio">1</property>
  <property name="mlt_service">color</property>
  <property name="kdenlive:playlistid">black_track</property>
  <property name="mlt_image_format">rgba</property>
  <property name="set.test_audio">0</property>
 </producer>
 <chain id="chain0" out="01:48:48.533">
  <property name="length">195857</property>
  <property name="eof">pause</property>
  <property name="resource">/Horror and SciFi/Alien Movie Collection/Alien Resurrection (1997) [1080p]/Alien Resurrection 1997 Theatrical Cut BluRay 1080p DDP 5 1 x264/Alien Resurrection 1997 Theatrical Cut BluRay 1080p DDP 5 1 x264.mkv</property>
  <property name="mlt_service">avformat-novalidate</property>
  <property name="seekable">1</property>
  <property name="audio_index">1</property>
  <property name="video_index">0</property>
  <property name="vstream">0</property>
  <property name="astream">0</property>
  <property name="kdenlive:control_uuid">{494b7f9e-b413-4c17-8097-c58c8040ca1a}</property>
  <property name="kdenlive:id">4</property>
  <property name="kdenlive:clip_type">0</property>
  <property name="kdenlive:file_size">3886013278</property>
  <property name="kdenlive:file_hash">aa8ea8f373aa152e3089d9aeb2c3985d</property>
  <property name="kdenlive:folderid">-1</property>
  <property name="kdenlive:monitorPosition">0</property>
  <property name="meta.media.nb_streams">11</property>
  <property name="meta.media.0.stream.type">video</property>
  <property name="meta.media.0.stream.frame_rate">23.976</property>
  <property name="meta.media.0.stream.sample_aspect_ratio">1</property>
  <property name="meta.media.0.codec.width">1920</property>
  <property name="meta.media.0.codec.height">820</property>
  <property name="meta.media.0.codec.rotate">0</property>
  <property name="meta.media.0.codec.pix_fmt">yuv420p</property>
  <property name="meta.media.0.codec.sample_aspect_ratio">0</property>
  <property name="meta.media.0.codec.colorspace">709</property>
  <property name="meta.media.0.codec.color_trc">1</property>
  <property name="meta.media.0.codec.name">h264</property>
  <property name="meta.media.0.codec.long_name">H.264 / AVC / MPEG-4 AVC / MPEG-4 part 10</property>
  <property name="meta.media.0.codec.bit_rate">0</property>
  <property name="meta.attr.0.stream.creation_time.markup">2025-06-23T00:43:18.000000Z</property>
  <property name="meta.attr.0.stream.handler_name.markup">VideoHandler</property>
  <property name="meta.attr.0.stream.vendor_id.markup">[0][0][0][0]</property>
  <property name="meta.media.1.stream.type">audio</property>
  <property name="meta.media.1.codec.sample_fmt">fltp</property>
  <property name="meta.media.1.codec.sample_rate">48000</property>
  <property name="meta.media.1.codec.channels">6</property>
  <property name="meta.media.1.codec.layout">5.1(side)</property>
  <property name="meta.media.1.codec.name">eac3</property>
  <property name="meta.media.1.codec.long_name">ATSC A/52B (AC-3, E-AC-3)</property>
  <property name="meta.media.1.codec.bit_rate">640000</property>
  <property name="meta.attr.1.stream.creation_time.markup">2025-06-23T00:43:18.000000Z</property>
  <property name="meta.attr.1.stream.language.markup">eng</property>
  <property name="meta.attr.1.stream.handler_name.markup">Stereo</property>
  <property name="meta.attr.1.stream.vendor_id.markup">[0][0][0][0]</property>
  <property name="meta.attr.major_brand.markup">mp42</property>
  <property name="meta.attr.minor_version.markup">512</property>
  <property name="meta.attr.compatible_brands.markup">mp42iso2avc1mp41</property>
  <property name="meta.attr.creation_time.markup">2025-04-17T00:49:22.000000Z</property>
  <property name="meta.attr.encoder.markup">libebml v1.4.5 + libmatroska v1.7.1</property>
  <property name="meta.media.sample_aspect_num">1</property>
  <property name="meta.media.sample_aspect_den">1</property>
  <property name="meta.media.frame_rate_num">24000</property>
  <property name="meta.media.frame_rate_den">1001</property>
  <property name="meta.media.colorspace">709</property>
  <property name="meta.media.color_trc">1</property>
  <property name="meta.media.has_b_frames">2</property>
  <property name="meta.media.width">1920</property>
  <property name="meta.media.height">820</property>
  <property name="meta.media.aspect_ratio">1</property>
  <property name="meta.media.color_range">mpeg</property>
  <property name="xml">was here</property>
  <property name="mute_on_pause">0</property>
  <property name="meta.media.top_field_first">0</property>
  <property name="meta.media.progressive">1</property>
  <property name="set.test_audio">0</property>
  <property name="set.test_image">1</property>
  <property name="meta.media.2.codec.name">srt</property>
  <property name="meta.media.2.codec.long_name">SubRip subtitle</property>
  <property name="meta.media.2.codec.bit_rate">0</property>
  <property name="meta.attr.2.stream.language.markup">eng</property>
  <property name="meta.media.3.codec.name">pgssub</property>
  <property name="meta.media.3.codec.long_name">HDMV Presentation Graphic Stream subtitles</property>
  <property name="meta.media.3.codec.bit_rate">0</property>
  <property name="meta.attr.3.stream.language.markup">eng</property>
  <property name="meta.attr.3.stream.title.markup">English</property>
  <property name="meta.media.4.codec.name">pgssub</property>
  <property name="meta.media.4.codec.long_name">HDMV Presentation Graphic Stream subtitles</property>
  <property name="meta.media.4.codec.bit_rate">0</property>
  <property name="meta.attr.4.stream.language.markup">eng</property>
  <property name="meta.attr.4.stream.title.markup">English (SDH)</property>
  <property name="meta.media.5.codec.name">pgssub</property>
  <property name="meta.media.5.codec.long_name">HDMV Presentation Graphic Stream subtitles</property>
  <property name="meta.media.5.codec.bit_rate">0</property>
  <property name="meta.attr.5.stream.language.markup">chi</property>
  <property name="meta.attr.5.stream.title.markup">Chinese (Traditional)</property>
  <property name="meta.media.6.codec.name">pgssub</property>
  <property name="meta.media.6.codec.long_name">HDMV Presentation Graphic Stream subtitles</property>
  <property name="meta.media.6.codec.bit_rate">0</property>
  <property name="meta.attr.6.stream.language.markup">dut</property>
  <property name="meta.attr.6.stream.title.markup">Dutch</property>
  <property name="meta.media.7.codec.name">pgssub</property>
  <property name="meta.media.7.codec.long_name">HDMV Presentation Graphic Stream subtitles</property>
  <property name="meta.media.7.codec.bit_rate">0</property>
  <property name="meta.attr.7.stream.language.markup">fre</property>
  <property name="meta.attr.7.stream.title.markup">French</property>
  <property name="meta.media.8.codec.name">pgssub</property>
  <property name="meta.media.8.codec.long_name">HDMV Presentation Graphic Stream subtitles</property>
  <property name="meta.media.8.codec.bit_rate">0</property>
  <property name="meta.attr.8.stream.language.markup">ger</property>
  <property name="meta.attr.8.stream.title.markup">German</property>
  <property name="meta.media.9.codec.name">pgssub</property>
  <property name="meta.media.9.codec.long_name">HDMV Presentation Graphic Stream subtitles</property>
  <property name="meta.media.9.codec.bit_rate">0</property>
  <property name="meta.attr.9.stream.language.markup">jpn</property>
  <property name="meta.attr.9.stream.title.markup">Japanese</property>
  <property name="meta.media.10.codec.name">pgssub</property>
  <property name="meta.media.10.codec.long_name">HDMV Presentation Graphic Stream subtitles</property>
  <property name="meta.media.10.codec.bit_rate">0</property>
  <property name="meta.attr.10.stream.language.markup">spa</property>
  <property name="meta.attr.10.stream.title.markup">Spanish (Latin American)</property>
 </chain>
 <playlist id="playlist0">
  <property name="kdenlive:audio_track">1</property>
  <blank length="00:20:22.133"/>
  <entry in="00:20:55.367" out="00:20:59.967" producer="chain0">
   <property name="kdenlive:id">4</property>
   <filter id="filter0" in="00:20:59.667" out="00:20:59.967">
    <property name="window">75</property>
    <property name="max_gain">20dB</property>
    <property name="mlt_service">volume</property>
    <property name="kdenlive_id">fadeout</property>
    <property name="gain">1</property>
    <property name="end">0</property>
    <property name="kdenlive:collapsed">0</property>
   </filter>
  </entry>
 </playlist>
 <playlist id="playlist1">
  <property name="kdenlive:audio_track">1</property>
 </playlist>
 <tractor id="tractor0" in="00:00:00.000" out="00:20:26.733">
  <property name="kdenlive:audio_track">1</property>
  <property name="kdenlive:trackheight">84</property>
  <property name="kdenlive:timeline_active">1</property>
  <property name="kdenlive:collapsed">0</property>
  <property name="kdenlive:thumbs_format"/>
  <property name="kdenlive:audio_rec"/>
  <track hide="video" producer="playlist0"/>
  <track hide="video" producer="playlist1"/>
  <filter id="filter1">
   <property name="window">75</property>
   <property name="max_gain">20dB</property>
   <property name="mlt_service">volume</property>
   <property name="internal_added">237</property>
   <property name="disable">1</property>
  </filter>
  <filter id="filter2">
   <property name="channel">-1</property>
   <property name="mlt_service">panner</property>
   <property name="internal_added">237</property>
   <property name="start">0.5</property>
   <property name="disable">1</property>
  </filter>
  <filter id="filter3">
   <property name="iec_scale">0</property>
   <property name="mlt_service">audiolevel</property>
   <property name="dbpeak">1</property>
   <property name="disable">1</property>
  </filter>
 </tractor>
 <chain id="chain1" out="01:48:48.533">
  <property name="length">195857</property>
  <property name="eof">pause</property>
  <property name="resource">/Horror and SciFi/Alien Movie Collection/Alien Resurrection (1997) [1080p]/Alien Resurrection 1997 Theatrical Cut BluRay 1080p DDP 5 1 x264/Alien Resurrection 1997 Theatrical Cut BluRay 1080p DDP 5 1 x264.mkv</property>
  <property name="mlt_service">avformat-novalidate</property>
  <property name="seekable">1</property>
  <property name="audio_index">1</property>
  <property name="video_index">0</property>
  <property name="vstream">0</property>
  <property name="astream">0</property>
  <property name="kdenlive:control_uuid">{494b7f9e-b413-4c17-8097-c58c8040ca1a}</property>
  <property name="kdenlive:id">4</property>
  <property name="kdenlive:clip_type">0</property>
  <property name="kdenlive:file_size">3886013278</property>
  <property name="kdenlive:file_hash">aa8ea8f373aa152e3089d9aeb2c3985d</property>
  <property name="kdenlive:folderid">-1</property>
  <property name="kdenlive:monitorPosition">0</property>
  <property name="meta.media.nb_streams">11</property>
  <property name="meta.media.0.stream.type">video</property>
  <property name="meta.media.0.stream.frame_rate">23.976</property>
  <property name="meta.media.0.stream.sample_aspect_ratio">1</property>
  <property name="meta.media.0.codec.width">1920</property>
  <property name="meta.media.0.codec.height">820</property>
  <property name="meta.media.0.codec.rotate">0</property>
  <property name="meta.media.0.codec.pix_fmt">yuv420p</property>
  <property name="meta.media.0.codec.sample_aspect_ratio">0</property>
  <property name="meta.media.0.codec.colorspace">709</property>
  <property name="meta.media.0.codec.color_trc">1</property>
  <property name="meta.media.0.codec.name">h264</property>
  <property name="meta.media.0.codec.long_name">H.264 / AVC / MPEG-4 AVC / MPEG-4 part 10</property>
  <property name="meta.media.0.codec.bit_rate">0</property>
  <property name="meta.attr.0.stream.creation_time.markup">2025-06-23T00:43:18.000000Z</property>
  <property name="meta.attr.0.stream.handler_name.markup">VideoHandler</property>
  <property name="meta.attr.0.stream.vendor_id.markup">[0][0][0][0]</property>
  <property name="meta.media.1.stream.type">audio</property>
  <property name="meta.media.1.codec.sample_fmt">fltp</property>
  <property name="meta.media.1.codec.sample_rate">48000</property>
  <property name="meta.media.1.codec.channels">6</property>
  <property name="meta.media.1.codec.layout">5.1(side)</property>
  <property name="meta.media.1.codec.name">eac3</property>
  <property name="meta.media.1.codec.long_name">ATSC A/52B (AC-3, E-AC-3)</property>
  <property name="meta.media.1.codec.bit_rate">640000</property>
  <property name="meta.attr.1.stream.creation_time.markup">2025-06-23T00:43:18.000000Z</property>
  <property name="meta.attr.1.stream.language.markup">eng</property>
  <property name="meta.attr.1.stream.handler_name.markup">Stereo</property>
  <property name="meta.attr.1.stream.vendor_id.markup">[0][0][0][0]</property>
  <property name="meta.attr.major_brand.markup">mp42</property>
  <property name="meta.attr.minor_version.markup">512</property>
  <property name="meta.attr.compatible_brands.markup">mp42iso2avc1mp41</property>
  <property name="meta.attr.creation_time.markup">2025-04-17T00:49:22.000000Z</property>
  <property name="meta.attr.encoder.markup">libebml v1.4.5 + libmatroska v1.7.1</property>
  <property name="meta.media.sample_aspect_num">1</property>
  <property name="meta.media.sample_aspect_den">1</property>
  <property name="meta.media.frame_rate_num">24000</property>
  <property name="meta.media.frame_rate_den">1001</property>
  <property name="meta.media.colorspace">709</property>
  <property name="meta.media.color_trc">1</property>
  <property name="meta.media.has_b_frames">2</property>
  <property name="meta.media.width">1920</property>
  <property name="meta.media.height">820</property>
  <property name="meta.media.aspect_ratio">1</property>
  <property name="meta.media.color_range">mpeg</property>
  <property name="xml">was here</property>
  <property name="mute_on_pause">0</property>
  <property name="meta.media.top_field_first">0</property>
  <property name="meta.media.progressive">1</property>
  <property name="set.test_audio">0</property>
  <property name="set.test_image">1</property>
  <property name="meta.media.2.codec.name">srt</property>
  <property name="meta.media.2.codec.long_name">SubRip subtitle</property>
  <property name="meta.media.2.codec.bit_rate">0</property>
  <property name="meta.attr.2.stream.language.markup">eng</property>
  <property name="meta.media.3.codec.name">pgssub</property>
  <property name="meta.media.3.codec.long_name">HDMV Presentation Graphic Stream subtitles</property>
  <property name="meta.media.3.codec.bit_rate">0</property>
  <property name="meta.attr.3.stream.language.markup">eng</property>
  <property name="meta.attr.3.stream.title.markup">English</property>
  <property name="meta.media.4.codec.name">pgssub</property>
  <property name="meta.media.4.codec.long_name">HDMV Presentation Graphic Stream subtitles</property>
  <property name="meta.media.4.codec.bit_rate">0</property>
  <property name="meta.attr.4.stream.language.markup">eng</property>
  <property name="meta.attr.4.stream.title.markup">English (SDH)</property>
  <property name="meta.media.5.codec.name">pgssub</property>
  <property name="meta.media.5.codec.long_name">HDMV Presentation Graphic Stream subtitles</property>
  <property name="meta.media.5.codec.bit_rate">0</property>
  <property name="meta.attr.5.stream.language.markup">chi</property>
  <property name="meta.attr.5.stream.title.markup">Chinese (Traditional)</property>
  <property name="meta.media.6.codec.name">pgssub</property>
  <property name="meta.media.6.codec.long_name">HDMV Presentation Graphic Stream subtitles</property>
  <property name="meta.media.6.codec.bit_rate">0</property>
  <property name="meta.attr.6.stream.language.markup">dut</property>
  <property name="meta.attr.6.stream.title.markup">Dutch</property>
  <property name="meta.media.7.codec.name">pgssub</property>
  <property name="meta.media.7.codec.long_name">HDMV Presentation Graphic Stream subtitles</property>
  <property name="meta.media.7.codec.bit_rate">0</property>
  <property name="meta.attr.7.stream.language.markup">fre</property>
  <property name="meta.attr.7.stream.title.markup">French</property>
  <property name="meta.media.8.codec.name">pgssub</property>
  <property name="meta.media.8.codec.long_name">HDMV Presentation Graphic Stream subtitles</property>
  <property name="meta.media.8.codec.bit_rate">0</property>
  <property name="meta.attr.8.stream.language.markup">ger</property>
  <property name="meta.attr.8.stream.title.markup">German</property>
  <property name="meta.media.9.codec.name">pgssub</property>
  <property name="meta.media.9.codec.long_name">HDMV Presentation Graphic Stream subtitles</property>
  <property name="meta.media.9.codec.bit_rate">0</property>
  <property name="meta.attr.9.stream.language.markup">jpn</property>
  <property name="meta.attr.9.stream.title.markup">Japanese</property>
  <property name="meta.media.10.codec.name">pgssub</property>
  <property name="meta.media.10.codec.long_name">HDMV Presentation Graphic Stream subtitles</property>
  <property name="meta.media.10.codec.bit_rate">0</property>
  <property name="meta.attr.10.stream.language.markup">spa</property>
  <property name="meta.attr.10.stream.title.markup">Spanish (Latin American)</property>
 </chain>
 <playlist id="playlist2">
  <property name="kdenlive:audio_track">1</property>
  <entry in="00:00:00.000" out="00:15:26.767" producer="chain1">
   <property name="kdenlive:id">4</property>
   <filter id="filter4" in="00:15:25.900" out="00:15:26.767">
    <property name="window">75</property>
    <property name="max_gain">20dB</property>
    <property name="mlt_service">volume</property>
    <property name="kdenlive_id">fadeout</property>
    <property name="gain">1</property>
    <property name="end">0</property>
   </filter>
  </entry>
  <blank length="00:00:00.400"/>
  <entry in="00:15:53.800" out="00:18:56.100" producer="chain1">
   <property name="kdenlive:id">4</property>
   <filter id="filter5" in="00:15:53.800" out="00:16:06.200">
    <property name="window">75</property>
    <property name="max_gain">20dB</property>
    <property name="mlt_service">volume</property>
    <property name="kdenlive_id">fadein</property>
    <property name="gain">0</property>
    <property name="end">1</property>
   </filter>
  </entry>
  <entry in="00:19:02.767" out="00:20:55.333" producer="chain1">
   <property name="kdenlive:id">4</property>
  </entry>
  <blank length="00:00:00.100"/>
  <entry in="00:21:50.433" out="00:24:03.933" producer="chain1">
   <property name="kdenlive:id">4</property>
  </entry>
  <entry in="00:24:03.967" out="00:24:23.900" producer="chain1">
   <property name="kdenlive:id">4</property>
   <filter id="filter6" in="00:24:13.800" out="00:24:23.900">
    <property name="window">75</property>
    <property name="max_gain">20dB</property>
    <property name="mlt_service">volume</property>
    <property name="kdenlive_id">fadeout</property>
    <property name="gain">1</property>
    <property name="end">0</property>
    <property name="kdenlive:collapsed">0</property>
   </filter>
  </entry>
  <entry in="00:24:40.067" out="00:35:15.067" producer="chain1">
   <property name="kdenlive:id">4</property>
   <filter id="filter7" in="00:24:40.067" out="00:24:55.667">
    <property name="window">75</property>
    <property name="max_gain">20dB</property>
    <property name="mlt_service">volume</property>
    <property name="kdenlive_id">fadein</property>
    <property name="gain">0</property>
    <property name="end">1</property>
    <property name="kdenlive:collapsed">0</property>
   </filter>
  </entry>
  <blank length="00:01:24.500"/>
  <entry in="00:37:05.667" out="00:37:34.367" producer="chain1">
   <property name="kdenlive:id">4</property>
  </entry>
  <blank length="00:03:10.933"/>
  <entry in="00:41:05.167" out="00:41:34.000" producer="chain1">
   <property name="kdenlive:id">4</property>
  </entry>
  <blank length="00:00:25.233"/>
  <entry in="00:44:09.433" out="00:44:37.267" producer="chain1">
   <property name="kdenlive:id">4</property>
  </entry>
  <blank length="00:04:00.900"/>
  <entry in="00:49:05.333" out="00:59:43.133" producer="chain1">
   <property name="kdenlive:id">4</property>
   <filter id="filter8" in="00:49:05.333" out="00:49:08.100">
    <property name="window">75</property>
    <property name="max_gain">20dB</property>
    <property name="mlt_service">volume</property>
    <property name="kdenlive_id">fadein</property>
    <property name="gain">0</property>
    <property name="end">1</property>
    <property name="kdenlive:collapsed">0</property>
   </filter>
  </entry>
  <entry in="00:59:44.500" out="01:28:02.400" producer="chain1">
   <property name="kdenlive:id">4</property>
  </entry>
  <blank length="00:01:40.300"/>
  <entry in="01:39:36.800" out="01:48:48.533" producer="chain1">
   <property name="kdenlive:id">4</property>
  </entry>
 </playlist>
 <chain id="chain2" out="01:48:48.533">
  <property name="length">195857</property>
  <property name="eof">pause</property>
  <property name="resource">/Horror and SciFi/Alien Movie Collection/Alien Resurrection (1997) [1080p]/Alien Resurrection 1997 Theatrical Cut BluRay 1080p DDP 5 1 x264/Alien Resurrection 1997 Theatrical Cut BluRay 1080p DDP 5 1 x264.mkv</property>
  <property name="mlt_service">avformat-novalidate</property>
  <property name="seekable">1</property>
  <property name="audio_index">1</property>
  <property name="video_index">0</property>
  <property name="vstream">0</property>
  <property name="astream">0</property>
  <property name="kdenlive:control_uuid">{494b7f9e-b413-4c17-8097-c58c8040ca1a}</property>
  <property name="kdenlive:id">4</property>
  <property name="kdenlive:clip_type">0</property>
  <property name="kdenlive:file_size">3886013278</property>
  <property name="kdenlive:file_hash">aa8ea8f373aa152e3089d9aeb2c3985d</property>
  <property name="kdenlive:folderid">-1</property>
  <property name="kdenlive:monitorPosition">0</property>
  <property name="meta.media.nb_streams">11</property>
  <property name="meta.media.0.stream.type">video</property>
  <property name="meta.media.0.stream.frame_rate">23.976</property>
  <property name="meta.media.0.stream.sample_aspect_ratio">1</property>
  <property name="meta.media.0.codec.width">1920</property>
  <property name="meta.media.0.codec.height">820</property>
  <property name="meta.media.0.codec.rotate">0</property>
  <property name="meta.media.0.codec.pix_fmt">yuv420p</property>
  <property name="meta.media.0.codec.sample_aspect_ratio">0</property>
  <property name="meta.media.0.codec.colorspace">709</property>
  <property name="meta.media.0.codec.color_trc">1</property>
  <property name="meta.media.0.codec.name">h264</property>
  <property name="meta.media.0.codec.long_name">H.264 / AVC / MPEG-4 AVC / MPEG-4 part 10</property>
  <property name="meta.media.0.codec.bit_rate">0</property>
  <property name="meta.attr.0.stream.creation_time.markup">2025-06-23T00:43:18.000000Z</property>
  <property name="meta.attr.0.stream.handler_name.markup">VideoHandler</property>
  <property name="meta.attr.0.stream.vendor_id.markup">[0][0][0][0]</property>
  <property name="meta.media.1.stream.type">audio</property>
  <property name="meta.media.1.codec.sample_fmt">fltp</property>
  <property name="meta.media.1.codec.sample_rate">48000</property>
  <property name="meta.media.1.codec.channels">6</property>
  <property name="meta.media.1.codec.layout">5.1(side)</property>
  <property name="meta.media.1.codec.name">eac3</property>
  <property name="meta.media.1.codec.long_name">ATSC A/52B (AC-3, E-AC-3)</property>
  <property name="meta.media.1.codec.bit_rate">640000</property>
  <property name="meta.attr.1.stream.creation_time.markup">2025-06-23T00:43:18.000000Z</property>
  <property name="meta.attr.1.stream.language.markup">eng</property>
  <property name="meta.attr.1.stream.handler_name.markup">Stereo</property>
  <property name="meta.attr.1.stream.vendor_id.markup">[0][0][0][0]</property>
  <property name="meta.attr.major_brand.markup">mp42</property>
  <property name="meta.attr.minor_version.markup">512</property>
  <property name="meta.attr.compatible_brands.markup">mp42iso2avc1mp41</property>
  <property name="meta.attr.creation_time.markup">2025-04-17T00:49:22.000000Z</property>
  <property name="meta.attr.encoder.markup">libebml v1.4.5 + libmatroska v1.7.1</property>
  <property name="meta.media.sample_aspect_num">1</property>
  <property name="meta.media.sample_aspect_den">1</property>
  <property name="meta.media.frame_rate_num">24000</property>
  <property name="meta.media.frame_rate_den">1001</property>
  <property name="meta.media.colorspace">709</property>
  <property name="meta.media.color_trc">1</property>
  <property name="meta.media.has_b_frames">2</property>
  <property name="meta.media.width">1920</property>
  <property name="meta.media.height">820</property>
  <property name="meta.media.aspect_ratio">1</property>
  <property name="meta.media.color_range">mpeg</property>
  <property name="xml">was here</property>
  <property name="mute_on_pause">0</property>
  <property name="meta.media.top_field_first">0</property>
  <property name="meta.media.progressive">1</property>
  <property name="set.test_audio">0</property>
  <property name="set.test_image">1</property>
  <property name="meta.media.2.codec.name">srt</property>
  <property name="meta.media.2.codec.long_name">SubRip subtitle</property>
  <property name="meta.media.2.codec.bit_rate">0</property>
  <property name="meta.attr.2.stream.language.markup">eng</property>
  <property name="meta.media.3.codec.name">pgssub</property>
  <property name="meta.media.3.codec.long_name">HDMV Presentation Graphic Stream subtitles</property>
  <property name="meta.media.3.codec.bit_rate">0</property>
  <property name="meta.attr.3.stream.language.markup">eng</property>
  <property name="meta.attr.3.stream.title.markup">English</property>
  <property name="meta.media.4.codec.name">pgssub</property>
  <property name="meta.media.4.codec.long_name">HDMV Presentation Graphic Stream subtitles</property>
  <property name="meta.media.4.codec.bit_rate">0</property>
  <property name="meta.attr.4.stream.language.markup">eng</property>
  <property name="meta.attr.4.stream.title.markup">English (SDH)</property>
  <property name="meta.media.5.codec.name">pgssub</property>
  <property name="meta.media.5.codec.long_name">HDMV Presentation Graphic Stream subtitles</property>
  <property name="meta.media.5.codec.bit_rate">0</property>
  <property name="meta.attr.5.stream.language.markup">chi</property>
  <property name="meta.attr.5.stream.title.markup">Chinese (Traditional)</property>
  <property name="meta.media.6.codec.name">pgssub</property>
  <property name="meta.media.6.codec.long_name">HDMV Presentation Graphic Stream subtitles</property>
  <property name="meta.media.6.codec.bit_rate">0</property>
  <property name="meta.attr.6.stream.language.markup">dut</property>
  <property name="meta.attr.6.stream.title.markup">Dutch</property>
  <property name="meta.media.7.codec.name">pgssub</property>
  <property name="meta.media.7.codec.long_name">HDMV Presentation Graphic Stream subtitles</property>
  <property name="meta.media.7.codec.bit_rate">0</property>
  <property name="meta.attr.7.stream.language.markup">fre</property>
  <property name="meta.attr.7.stream.title.markup">French</property>
  <property name="meta.media.8.codec.name">pgssub</property>
  <property name="meta.media.8.codec.long_name">HDMV Presentation Graphic Stream subtitles</property>
  <property name="meta.media.8.codec.bit_rate">0</property>
  <property name="meta.attr.8.stream.language.markup">ger</property>
  <property name="meta.attr.8.stream.title.markup">German</property>
  <property name="meta.media.9.codec.name">pgssub</property>
  <property name="meta.media.9.codec.long_name">HDMV Presentation Graphic Stream subtitles</property>
  <property name="meta.media.9.codec.bit_rate">0</property>
  <property name="meta.attr.9.stream.language.markup">jpn</property>
  <property name="meta.attr.9.stream.title.markup">Japanese</property>
  <property name="meta.media.10.codec.name">pgssub</property>
  <property name="meta.media.10.codec.long_name">HDMV Presentation Graphic Stream subtitles</property>
  <property name="meta.media.10.codec.bit_rate">0</property>
  <property name="meta.attr.10.stream.language.markup">spa</property>
  <property name="meta.attr.10.stream.title.markup">Spanish (Latin American)</property>
 </chain>
 <playlist id="playlist3">
  <property name="kdenlive:audio_track">1</property>
  <blank length="00:33:29.767"/>
  <entry in="00:35:40.167" out="00:37:05.633" producer="chain2">
   <property name="kdenlive:id">4</property>
  </entry>
  <blank length="00:00:27.733"/>
  <entry in="00:37:44.967" out="00:40:57.867" producer="chain2">
   <property name="kdenlive:id">4</property>
  </entry>
  <blank length="00:00:26.867"/>
  <entry in="00:42:00.533" out="00:42:27.733" producer="chain2">
   <property name="kdenlive:id">4</property>
  </entry>
  <blank length="00:00:25.867"/>
  <entry in="00:44:41.200" out="00:48:44.067" producer="chain2">
   <property name="kdenlive:id">4</property>
  </entry>
  <blank length="00:38:53.767"/>
  <entry in="01:31:47.667" out="01:33:29.933" producer="chain2">
   <property name="kdenlive:id">4</property>
  </entry>
 </playlist>
 <tractor id="tractor1" in="00:00:00.000" out="01:33:45.600">
  <property name="kdenlive:audio_track">1</property>
  <property name="kdenlive:trackheight">84</property>
  <property name="kdenlive:timeline_active">1</property>
  <property name="kdenlive:collapsed">0</property>
  <property name="kdenlive:thumbs_format"/>
  <property name="kdenlive:audio_rec"/>
  <track hide="video" producer="playlist2"/>
  <track hide="video" producer="playlist3"/>
  <transition id="transition8" in="01:24:33.867" out="01:24:34.867">
   <property name="a_track">0</property>
   <property name="b_track">1</property>
   <property name="mlt_service">mix</property>
   <property name="kdenlive_id">mix</property>
   <property name="kdenlive:mixcut">15</property>
   <property name="start">-1</property>
   <property name="accepts_blanks">1</property>
   <property name="reverse">1</property>
  </transition>
  <transition id="transition7" in="01:22:52.567" out="01:22:53.567">
   <property name="a_track">0</property>
   <property name="b_track">1</property>
   <property name="mlt_service">mix</property>
   <property name="kdenlive_id">mix</property>
   <property name="kdenlive:mixcut">15</property>
   <property name="start">-1</property>
   <property name="accepts_blanks">1</property>
   <property name="reverse">0</property>
  </transition>
  <transition id="transition6" in="00:43:57.800" out="00:43:58.800">
   <property name="a_track">0</property>
   <property name="b_track">1</property>
   <property name="mlt_service">mix</property>
   <property name="kdenlive_id">mix</property>
   <property name="kdenlive:mixcut">15</property>
   <property name="start">-1</property>
   <property name="accepts_blanks">1</property>
   <property name="reverse">1</property>
  </transition>
  <transition id="transition5" in="00:39:29.033" out="00:39:30.033">
   <property name="a_track">0</property>
   <property name="b_track">1</property>
   <property name="mlt_service">mix</property>
   <property name="kdenlive_id">mix</property>
   <property name="kdenlive:mixcut">15</property>
   <property name="start">-1</property>
   <property name="accepts_blanks">1</property>
   <property name="reverse">1</property>
  </transition>
  <transition id="transition4" in="00:39:55.900" out="00:39:56.900">
   <property name="a_track">0</property>
   <property name="b_track">1</property>
   <property name="mlt_service">mix</property>
   <property name="kdenlive_id">mix</property>
   <property name="kdenlive:mixcut">15</property>
   <property name="start">-1</property>
   <property name="accepts_blanks">1</property>
   <property name="reverse">0</property>
  </transition>
  <transition id="transition3" in="00:39:02.800" out="00:39:03.800">
   <property name="a_track">0</property>
   <property name="b_track">1</property>
   <property name="mlt_service">mix</property>
   <property name="kdenlive_id">mix</property>
   <property name="kdenlive:mixcut">15</property>
   <property name="start">-1</property>
   <property name="accepts_blanks">1</property>
   <property name="reverse">0</property>
  </transition>
  <transition id="transition2" in="00:38:34.933" out="00:38:35.933">
   <property name="a_track">0</property>
   <property name="b_track">1</property>
   <property name="mlt_service">mix</property>
   <property name="kdenlive_id">mix</property>
   <property name="kdenlive:mixcut">15</property>
   <property name="start">-1</property>
   <property name="accepts_blanks">1</property>
   <property name="reverse">1</property>
  </transition>
  <transition id="transition1" in="00:33:29.767" out="00:33:30.767">
   <property name="a_track">0</property>
   <property name="b_track">1</property>
   <property name="mlt_service">mix</property>
   <property name="kdenlive_id">mix</property>
   <property name="kdenlive:mixcut">15</property>
   <property name="start">-1</property>
   <property name="accepts_blanks">1</property>
   <property name="reverse">0</property>
  </transition>
  <transition id="transition0" in="00:35:23.000" out="00:35:24.000">
   <property name="a_track">0</property>
   <property name="b_track">1</property>
   <property name="mlt_service">mix</property>
   <property name="kdenlive_id">mix</property>
   <property name="kdenlive:mixcut">15</property>
   <property name="start">-1</property>
   <property name="accepts_blanks">1</property>
   <property name="reverse">0</property>
  </transition>
  <filter id="filter9">
   <property name="window">75</property>
   <property name="max_gain">20dB</property>
   <property name="mlt_service">volume</property>
   <property name="internal_added">237</property>
   <property name="disable">1</property>
  </filter>
  <filter id="filter10">
   <property name="channel">-1</property>
   <property name="mlt_service">panner</property>
   <property name="internal_added">237</property>
   <property name="start">0.5</property>
   <property name="disable">1</property>
  </filter>
  <filter id="filter11">
   <property name="iec_scale">0</property>
   <property name="mlt_service">audiolevel</property>
   <property name="dbpeak">1</property>
   <property name="disable">1</property>
  </filter>
 </tractor>
 <chain id="chain3" out="01:48:48.533">
  <property name="length">195857</property>
  <property name="eof">pause</property>
  <property name="resource">/Horror and SciFi/Alien Movie Collection/Alien Resurrection (1997) [1080p]/Alien Resurrection 1997 Theatrical Cut BluRay 1080p DDP 5 1 x264/Alien Resurrection 1997 Theatrical Cut BluRay 1080p DDP 5 1 x264.mkv</property>
  <property name="mlt_service">avformat-novalidate</property>
  <property name="seekable">1</property>
  <property name="audio_index">1</property>
  <property name="video_index">0</property>
  <property name="vstream">0</property>
  <property name="astream">0</property>
  <property name="kdenlive:control_uuid">{494b7f9e-b413-4c17-8097-c58c8040ca1a}</property>
  <property name="kdenlive:id">4</property>
  <property name="kdenlive:clip_type">0</property>
  <property name="kdenlive:file_size">3886013278</property>
  <property name="kdenlive:file_hash">aa8ea8f373aa152e3089d9aeb2c3985d</property>
  <property name="kdenlive:folderid">-1</property>
  <property name="kdenlive:monitorPosition">0</property>
  <property name="meta.media.nb_streams">11</property>
  <property name="meta.media.0.stream.type">video</property>
  <property name="meta.media.0.stream.frame_rate">23.976</property>
  <property name="meta.media.0.stream.sample_aspect_ratio">1</property>
  <property name="meta.media.0.codec.width">1920</property>
  <property name="meta.media.0.codec.height">820</property>
  <property name="meta.media.0.codec.rotate">0</property>
  <property name="meta.media.0.codec.pix_fmt">yuv420p</property>
  <property name="meta.media.0.codec.sample_aspect_ratio">0</property>
  <property name="meta.media.0.codec.colorspace">709</property>
  <property name="meta.media.0.codec.color_trc">1</property>
  <property name="meta.media.0.codec.name">h264</property>
  <property name="meta.media.0.codec.long_name">H.264 / AVC / MPEG-4 AVC / MPEG-4 part 10</property>
  <property name="meta.media.0.codec.bit_rate">0</property>
  <property name="meta.attr.0.stream.creation_time.markup">2025-06-23T00:43:18.000000Z</property>
  <property name="meta.attr.0.stream.handler_name.markup">VideoHandler</property>
  <property name="meta.attr.0.stream.vendor_id.markup">[0][0][0][0]</property>
  <property name="meta.media.1.stream.type">audio</property>
  <property name="meta.media.1.codec.sample_fmt">fltp</property>
  <property name="meta.media.1.codec.sample_rate">48000</property>
  <property name="meta.media.1.codec.channels">6</property>
  <property name="meta.media.1.codec.layout">5.1(side)</property>
  <property name="meta.media.1.codec.name">eac3</property>
  <property name="meta.media.1.codec.long_name">ATSC A/52B (AC-3, E-AC-3)</property>
  <property name="meta.media.1.codec.bit_rate">640000</property>
  <property name="meta.attr.1.stream.creation_time.markup">2025-06-23T00:43:18.000000Z</property>
  <property name="meta.attr.1.stream.language.markup">eng</property>
  <property name="meta.attr.1.stream.handler_name.markup">Stereo</property>
  <property name="meta.attr.1.stream.vendor_id.markup">[0][0][0][0]</property>
  <property name="meta.attr.major_brand.markup">mp42</property>
  <property name="meta.attr.minor_version.markup">512</property>
  <property name="meta.attr.compatible_brands.markup">mp42iso2avc1mp41</property>
  <property name="meta.attr.creation_time.markup">2025-04-17T00:49:22.000000Z</property>
  <property name="meta.attr.encoder.markup">libebml v1.4.5 + libmatroska v1.7.1</property>
  <property name="meta.media.sample_aspect_num">1</property>
  <property name="meta.media.sample_aspect_den">1</property>
  <property name="meta.media.frame_rate_num">24000</property>
  <property name="meta.media.frame_rate_den">1001</property>
  <property name="meta.media.colorspace">709</property>
  <property name="meta.media.color_trc">1</property>
  <property name="meta.media.has_b_frames">2</property>
  <property name="meta.media.width">1920</property>
  <property name="meta.media.height">820</property>
  <property name="meta.media.aspect_ratio">1</property>
  <property name="meta.media.color_range">mpeg</property>
  <property name="xml">was here</property>
  <property name="mute_on_pause">0</property>
  <property name="meta.media.top_field_first">0</property>
  <property name="meta.media.progressive">1</property>
  <property name="set.test_audio">1</property>
  <property name="set.test_image">0</property>
  <property name="meta.media.2.codec.name">srt</property>
  <property name="meta.media.2.codec.long_name">SubRip subtitle</property>
  <property name="meta.media.2.codec.bit_rate">0</property>
  <property name="meta.attr.2.stream.language.markup">eng</property>
  <property name="meta.media.3.codec.name">pgssub</property>
  <property name="meta.media.3.codec.long_name">HDMV Presentation Graphic Stream subtitles</property>
  <property name="meta.media.3.codec.bit_rate">0</property>
  <property name="meta.attr.3.stream.language.markup">eng</property>
  <property name="meta.attr.3.stream.title.markup">English</property>
  <property name="meta.media.4.codec.name">pgssub</property>
  <property name="meta.media.4.codec.long_name">HDMV Presentation Graphic Stream subtitles</property>
  <property name="meta.media.4.codec.bit_rate">0</property>
  <property name="meta.attr.4.stream.language.markup">eng</property>
  <property name="meta.attr.4.stream.title.markup">English (SDH)</property>
  <property name="meta.media.5.codec.name">pgssub</property>
  <property name="meta.media.5.codec.long_name">HDMV Presentation Graphic Stream subtitles</property>
  <property name="meta.media.5.codec.bit_rate">0</property>
  <property name="meta.attr.5.stream.language.markup">chi</property>
  <property name="meta.attr.5.stream.title.markup">Chinese (Traditional)</property>
  <property name="meta.media.6.codec.name">pgssub</property>
  <property name="meta.media.6.codec.long_name">HDMV Presentation Graphic Stream subtitles</property>
  <property name="meta.media.6.codec.bit_rate">0</property>
  <property name="meta.attr.6.stream.language.markup">dut</property>
  <property name="meta.attr.6.stream.title.markup">Dutch</property>
  <property name="meta.media.7.codec.name">pgssub</property>
  <property name="meta.media.7.codec.long_name">HDMV Presentation Graphic Stream subtitles</property>
  <property name="meta.media.7.codec.bit_rate">0</property>
  <property name="meta.attr.7.stream.language.markup">fre</property>
  <property name="meta.attr.7.stream.title.markup">French</property>
  <property name="meta.media.8.codec.name">pgssub</property>
  <property name="meta.media.8.codec.long_name">HDMV Presentation Graphic Stream subtitles</property>
  <property name="meta.media.8.codec.bit_rate">0</property>
  <property name="meta.attr.8.stream.language.markup">ger</property>
  <property name="meta.attr.8.stream.title.markup">German</property>
  <property name="meta.media.9.codec.name">pgssub</property>
  <property name="meta.media.9.codec.long_name">HDMV Presentation Graphic Stream subtitles</property>
  <property name="meta.media.9.codec.bit_rate">0</property>
  <property name="meta.attr.9.stream.language.markup">jpn</property>
  <property name="meta.attr.9.stream.title.markup">Japanese</property>
  <property name="meta.media.10.codec.name">pgssub</property>
  <property name="meta.media.10.codec.long_name">HDMV Presentation Graphic Stream subtitles</property>
  <property name="meta.media.10.codec.bit_rate">0</property>
  <property name="meta.attr.10.stream.language.markup">spa</property>
  <property name="meta.attr.10.stream.title.markup">Spanish (Latin American)</property>
 </chain>
 <playlist id="playlist4">
  <entry in="00:00:00.000" out="00:15:27.167" producer="chain3">
   <property name="kdenlive:id">4</property>
   <filter id="filter12" in="00:15:25.233" out="00:15:27.167">
    <property name="start">1</property>
    <property name="level">1</property>
    <property name="mlt_service">brightness</property>
    <property name="kdenlive_id">fade_to_black</property>
    <property name="alpha">00:00:00.000=1;00:00:01.933=0</property>
   </filter>
  </entry>
  <blank length="00:00:02.233"/>
  <entry in="00:15:56.033" out="00:18:56.100" producer="chain3">
   <property name="kdenlive:id">4</property>
   <filter id="filter13" in="00:15:56.033" out="00:16:00.167">
    <property name="start">1</property>
    <property name="level">1</property>
    <property name="mlt_service">brightness</property>
    <property name="kdenlive_id">fade_from_black</property>
    <property name="alpha">00:00:00.000=0;00:00:04.133=1</property>
    <property name="kdenlive:collapsed">0</property>
   </filter>
  </entry>
  <entry in="00:19:02.767" out="00:20:54.433" producer="chain3">
   <property name="kdenlive:id">4</property>
  </entry>
  <blank length="00:00:01.000"/>
  <entry in="00:21:50.433" out="00:24:25.633" producer="chain3">
   <property name="kdenlive:id">4</property>
   <filter id="filter14" in="00:21:50.433" out="00:22:03.400">
    <property name="start">1</property>
    <property name="level">1</property>
    <property name="mlt_service">brightness</property>
    <property name="kdenlive_id">fade_from_black</property>
    <property name="alpha">00:00:00.000=0;00:00:12.967=1</property>
    <property name="kdenlive:collapsed">0</property>
   </filter>
  </entry>
  <entry in="00:24:41.800" out="00:35:14.600" producer="chain3">
   <property name="kdenlive:id">4</property>
  </entry>
  <blank length="00:01:24.967"/>
  <entry in="00:37:05.667" out="00:37:33.933" producer="chain3">
   <property name="kdenlive:id">4</property>
  </entry>
  <blank length="00:03:11.800"/>
  <entry in="00:41:05.600" out="00:41:33.567" producer="chain3">
   <property name="kdenlive:id">4</property>
  </entry>
  <blank length="00:00:25.667"/>
  <entry in="00:44:09.433" out="00:44:36.800" producer="chain3">
   <property name="kdenlive:id">4</property>
  </entry>
  <blank length="00:04:01.800"/>
  <entry in="00:49:05.767" out="00:59:43.133" producer="chain3">
   <property name="kdenlive:id">4</property>
   <filter id="filter15" in="00:49:05.767" out="00:49:07.267">
    <property name="start">1</property>
    <property name="level">1</property>
    <property name="mlt_service">brightness</property>
    <property name="kdenlive_id">fade_from_black</property>
    <property name="alpha">00:00:00.000=0;00:00:01.500=1</property>
    <property name="kdenlive:collapsed">0</property>
   </filter>
  </entry>
  <entry in="00:59:44.500" out="01:28:01.967" producer="chain3">
   <property name="kdenlive:id">4</property>
  </entry>
  <blank length="00:01:41.100"/>
  <entry in="01:39:37.167" out="01:48:48.533" producer="chain3">
   <property name="kdenlive:id">4</property>
  </entry>
 </playlist>
 <chain id="chain4" out="01:48:48.533">
  <property name="length">195857</property>
  <property name="eof">pause</property>
  <property name="resource">/Horror and SciFi/Alien Movie Collection/Alien Resurrection (1997) [1080p]/Alien Resurrection 1997 Theatrical Cut BluRay 1080p DDP 5 1 x264/Alien Resurrection 1997 Theatrical Cut BluRay 1080p DDP 5 1 x264.mkv</property>
  <property name="mlt_service">avformat-novalidate</property>
  <property name="seekable">1</property>
  <property name="audio_index">1</property>
  <property name="video_index">0</property>
  <property name="vstream">0</property>
  <property name="astream">0</property>
  <property name="kdenlive:control_uuid">{494b7f9e-b413-4c17-8097-c58c8040ca1a}</property>
  <property name="kdenlive:id">4</property>
  <property name="kdenlive:clip_type">0</property>
  <property name="kdenlive:file_size">3886013278</property>
  <property name="kdenlive:file_hash">aa8ea8f373aa152e3089d9aeb2c3985d</property>
  <property name="kdenlive:folderid">-1</property>
  <property name="kdenlive:monitorPosition">0</property>
  <property name="meta.media.nb_streams">11</property>
  <property name="meta.media.0.stream.type">video</property>
  <property name="meta.media.0.stream.frame_rate">23.976</property>
  <property name="meta.media.0.stream.sample_aspect_ratio">1</property>
  <property name="meta.media.0.codec.width">1920</property>
  <property name="meta.media.0.codec.height">820</property>
  <property name="meta.media.0.codec.rotate">0</property>
  <property name="meta.media.0.codec.pix_fmt">yuv420p</property>
  <property name="meta.media.0.codec.sample_aspect_ratio">0</property>
  <property name="meta.media.0.codec.colorspace">709</property>
  <property name="meta.media.0.codec.color_trc">1</property>
  <property name="meta.media.0.codec.name">h264</property>
  <property name="meta.media.0.codec.long_name">H.264 / AVC / MPEG-4 AVC / MPEG-4 part 10</property>
  <property name="meta.media.0.codec.bit_rate">0</property>
  <property name="meta.attr.0.stream.creation_time.markup">2025-06-23T00:43:18.000000Z</property>
  <property name="meta.attr.0.stream.handler_name.markup">VideoHandler</property>
  <property name="meta.attr.0.stream.vendor_id.markup">[0][0][0][0]</property>
  <property name="meta.media.1.stream.type">audio</property>
  <property name="meta.media.1.codec.sample_fmt">fltp</property>
  <property name="meta.media.1.codec.sample_rate">48000</property>
  <property name="meta.media.1.codec.channels">6</property>
  <property name="meta.media.1.codec.layout">5.1(side)</property>
  <property name="meta.media.1.codec.name">eac3</property>
  <property name="meta.media.1.codec.long_name">ATSC A/52B (AC-3, E-AC-3)</property>
  <property name="meta.media.1.codec.bit_rate">640000</property>
  <property name="meta.attr.1.stream.creation_time.markup">2025-06-23T00:43:18.000000Z</property>
  <property name="meta.attr.1.stream.language.markup">eng</property>
  <property name="meta.attr.1.stream.handler_name.markup">Stereo</property>
  <property name="meta.attr.1.stream.vendor_id.markup">[0][0][0][0]</property>
  <property name="meta.attr.major_brand.markup">mp42</property>
  <property name="meta.attr.minor_version.markup">512</property>
  <property name="meta.attr.compatible_brands.markup">mp42iso2avc1mp41</property>
  <property name="meta.attr.creation_time.markup">2025-04-17T00:49:22.000000Z</property>
  <property name="meta.attr.encoder.markup">libebml v1.4.5 + libmatroska v1.7.1</property>
  <property name="meta.media.sample_aspect_num">1</property>
  <property name="meta.media.sample_aspect_den">1</property>
  <property name="meta.media.frame_rate_num">24000</property>
  <property name="meta.media.frame_rate_den">1001</property>
  <property name="meta.media.colorspace">709</property>
  <property name="meta.media.color_trc">1</property>
  <property name="meta.media.has_b_frames">2</property>
  <property name="meta.media.width">1920</property>
  <property name="meta.media.height">820</property>
  <property name="meta.media.aspect_ratio">1</property>
  <property name="meta.media.color_range">mpeg</property>
  <property name="xml">was here</property>
  <property name="mute_on_pause">0</property>
  <property name="meta.media.top_field_first">0</property>
  <property name="meta.media.progressive">1</property>
  <property name="set.test_audio">1</property>
  <property name="set.test_image">0</property>
  <property name="meta.media.2.codec.name">srt</property>
  <property name="meta.media.2.codec.long_name">SubRip subtitle</property>
  <property name="meta.media.2.codec.bit_rate">0</property>
  <property name="meta.attr.2.stream.language.markup">eng</property>
  <property name="meta.media.3.codec.name">pgssub</property>
  <property name="meta.media.3.codec.long_name">HDMV Presentation Graphic Stream subtitles</property>
  <property name="meta.media.3.codec.bit_rate">0</property>
  <property name="meta.attr.3.stream.language.markup">eng</property>
  <property name="meta.attr.3.stream.title.markup">English</property>
  <property name="meta.media.4.codec.name">pgssub</property>
  <property name="meta.media.4.codec.long_name">HDMV Presentation Graphic Stream subtitles</property>
  <property name="meta.media.4.codec.bit_rate">0</property>
  <property name="meta.attr.4.stream.language.markup">eng</property>
  <property name="meta.attr.4.stream.title.markup">English (SDH)</property>
  <property name="meta.media.5.codec.name">pgssub</property>
  <property name="meta.media.5.codec.long_name">HDMV Presentation Graphic Stream subtitles</property>
  <property name="meta.media.5.codec.bit_rate">0</property>
  <property name="meta.attr.5.stream.language.markup">chi</property>
  <property name="meta.attr.5.stream.title.markup">Chinese (Traditional)</property>
  <property name="meta.media.6.codec.name">pgssub</property>
  <property name="meta.media.6.codec.long_name">HDMV Presentation Graphic Stream subtitles</property>
  <property name="meta.media.6.codec.bit_rate">0</property>
  <property name="meta.attr.6.stream.language.markup">dut</property>
  <property name="meta.attr.6.stream.title.markup">Dutch</property>
  <property name="meta.media.7.codec.name">pgssub</property>
  <property name="meta.media.7.codec.long_name">HDMV Presentation Graphic Stream subtitles</property>
  <property name="meta.media.7.codec.bit_rate">0</property>
  <property name="meta.attr.7.stream.language.markup">fre</property>
  <property name="meta.attr.7.stream.title.markup">French</property>
  <property name="meta.media.8.codec.name">pgssub</property>
  <property name="meta.media.8.codec.long_name">HDMV Presentation Graphic Stream subtitles</property>
  <property name="meta.media.8.codec.bit_rate">0</property>
  <property name="meta.attr.8.stream.language.markup">ger</property>
  <property name="meta.attr.8.stream.title.markup">German</property>
  <property name="meta.media.9.codec.name">pgssub</property>
  <property name="meta.media.9.codec.long_name">HDMV Presentation Graphic Stream subtitles</property>
  <property name="meta.media.9.codec.bit_rate">0</property>
  <property name="meta.attr.9.stream.language.markup">jpn</property>
  <property name="meta.attr.9.stream.title.markup">Japanese</property>
  <property name="meta.media.10.codec.name">pgssub</property>
  <property name="meta.media.10.codec.long_name">HDMV Presentation Graphic Stream subtitles</property>
  <property name="meta.media.10.codec.bit_rate">0</property>
  <property name="meta.attr.10.stream.language.markup">spa</property>
  <property name="meta.attr.10.stream.title.markup">Spanish (Latin American)</property>
 </chain>
 <playlist id="playlist5">
  <blank length="00:33:30.233"/>
  <entry in="00:35:40.633" out="00:37:05.633" producer="chain4">
   <property name="kdenlive:id">4</property>
  </entry>
  <blank length="00:00:28.167"/>
  <entry in="00:37:45.400" out="00:40:57.433" producer="chain4">
   <property name="kdenlive:id">4</property>
  </entry>
  <blank length="00:00:27.733"/>
  <entry in="00:42:00.967" out="00:42:27.733" producer="chain4">
   <property name="kdenlive:id">4</property>
  </entry>
  <blank length="00:00:26.333"/>
  <entry in="00:44:41.667" out="00:48:43.633" producer="chain4">
   <property name="kdenlive:id">4</property>
   <filter id="filter16" in="00:48:43.200" out="00:48:43.633">
    <property name="start">1</property>
    <property name="level">1</property>
    <property name="mlt_service">brightness</property>
    <property name="kdenlive_id">fade_to_black</property>
    <property name="alpha">00:00:00.000=1;00:00:00.433=0</property>
    <property name="kdenlive:collapsed">0</property>
   </filter>
  </entry>
  <blank length="00:38:54.633"/>
  <entry in="01:31:48.100" out="01:33:29.433" producer="chain4">
   <property name="kdenlive:id">4</property>
  </entry>
 </playlist>
 <tractor id="tractor2" in="00:00:00.000" out="01:33:45.600">
  <property name="kdenlive:trackheight">84</property>
  <property name="kdenlive:timeline_active">1</property>
  <property name="kdenlive:collapsed">0</property>
  <property name="kdenlive:thumbs_format"/>
  <property name="kdenlive:audio_rec"/>
  <track hide="audio" producer="playlist4"/>
  <track hide="audio" producer="playlist5"/>
  <transition id="transition17" in="01:24:34.233" out="01:24:34.367">
   <property name="a_track">1</property>
   <property name="b_track">0</property>
   <property name="factory">loader</property>
   <property name="resource"/>
   <property name="mlt_service">luma</property>
   <property name="kdenlive_id">luma</property>
   <property name="kdenlive:mixcut">0</property>
   <property name="softness">0</property>
   <property name="alpha_over">1</property>
   <property name="fix_background_alpha">1</property>
   <property name="invert">0</property>
   <property name="reverse">0</property>
  </transition>
  <transition id="transition16" in="01:22:53.000" out="01:22:53.133">
   <property name="a_track">0</property>
   <property name="b_track">1</property>
   <property name="factory">loader</property>
   <property name="resource"/>
   <property name="mlt_service">luma</property>
   <property name="kdenlive_id">luma</property>
   <property name="kdenlive:mixcut">2</property>
   <property name="softness">0</property>
   <property name="alpha_over">1</property>
   <property name="fix_background_alpha">1</property>
   <property name="invert">0</property>
   <property name="reverse">0</property>
  </transition>
  <transition id="transition15" in="00:43:58.233" out="00:43:58.367">
   <property name="a_track">1</property>
   <property name="b_track">0</property>
   <property name="factory">loader</property>
   <property name="resource"/>
   <property name="mlt_service">luma</property>
   <property name="kdenlive_id">luma</property>
   <property name="kdenlive:mixcut">2</property>
   <property name="softness">0</property>
   <property name="alpha_over">1</property>
   <property name="fix_background_alpha">1</property>
   <property name="invert">0</property>
   <property name="reverse">0</property>
  </transition>
  <transition id="transition14" in="00:39:29.033" out="00:39:30.033">
   <property name="a_track">1</property>
   <property name="b_track">0</property>
   <property name="factory">loader</property>
   <property name="resource"/>
   <property name="mlt_service">luma</property>
   <property name="kdenlive_id">luma</property>
   <property name="kdenlive:mixcut">15</property>
   <property name="softness">0</property>
   <property name="alpha_over">1</property>
   <property name="fix_background_alpha">1</property>
   <property name="invert">0</property>
   <property name="reverse">0</property>
  </transition>
  <transition id="transition13" in="00:39:56.367" out="00:39:56.433">
   <property name="a_track">0</property>
   <property name="b_track">1</property>
   <property name="factory">loader</property>
   <property name="resource"/>
   <property name="mlt_service">luma</property>
   <property name="kdenlive_id">luma</property>
   <property name="kdenlive:mixcut">1</property>
   <property name="softness">0.74</property>
   <property name="alpha_over">1</property>
   <property name="fix_background_alpha">1</property>
   <property name="invert">0</property>
   <property name="reverse">0</property>
  </transition>
  <transition id="transition12" in="00:39:03.233" out="00:39:03.367">
   <property name="a_track">0</property>
   <property name="b_track">1</property>
   <property name="factory">loader</property>
   <property name="resource"/>
   <property name="mlt_service">luma</property>
   <property name="kdenlive_id">luma</property>
   <property name="kdenlive:mixcut">2</property>
   <property name="softness">1</property>
   <property name="alpha_over">1</property>
   <property name="fix_background_alpha">1</property>
   <property name="invert">0</property>
   <property name="reverse">0</property>
  </transition>
  <transition id="transition11" in="00:38:35.367" out="00:38:35.500">
   <property name="a_track">1</property>
   <property name="b_track">0</property>
   <property name="factory">loader</property>
   <property name="resource"/>
   <property name="mlt_service">luma</property>
   <property name="kdenlive_id">luma</property>
   <property name="kdenlive:mixcut">2</property>
   <property name="softness">0.81</property>
   <property name="alpha_over">1</property>
   <property name="fix_background_alpha">1</property>
   <property name="invert">0</property>
   <property name="reverse">0</property>
  </transition>
  <transition id="transition10" in="00:33:30.233" out="00:33:30.300">
   <property name="a_track">0</property>
   <property name="b_track">1</property>
   <property name="factory">loader</property>
   <property name="resource"/>
   <property name="mlt_service">luma</property>
   <property name="kdenlive_id">luma</property>
   <property name="kdenlive:mixcut">1</property>
   <property name="softness">0.88</property>
   <property name="alpha_over">1</property>
   <property name="fix_background_alpha">1</property>
   <property name="invert">0</property>
   <property name="reverse">0</property>
  </transition>
  <transition id="transition9" in="00:35:23.433" out="00:35:23.567">
   <property name="a_track">0</property>
   <property name="b_track">1</property>
   <property name="factory">loader</property>
   <property name="resource"/>
   <property name="mlt_service">luma</property>
   <property name="kdenlive_id">luma</property>
   <property name="kdenlive:mixcut">2</property>
   <property name="softness">0</property>
   <property name="alpha_over">1</property>
   <property name="fix_background_alpha">1</property>
   <property name="invert">0</property>
   <property name="reverse">0</property>
  </transition>
 </tractor>
 <tractor id="tractor3" in="00:00:00.000" out="01:33:45.600">
  <property name="kdenlive:duration">01:33:45.633</property>
  <property name="kdenlive:maxduration">168769</property>
  <property name="kdenlive:clipname">Sequence 1</property>
  <property name="kdenlive:description"/>
  <property name="kdenlive:uuid">{67610be2-a351-4e5a-b7eb-c698163f29ce}</property>
  <property name="kdenlive:producer_type">17</property>
  <property name="kdenlive:control_uuid">{67610be2-a351-4e5a-b7eb-c698163f29ce}</property>
  <property name="kdenlive:id">3</property>
  <property name="kdenlive:clip_type">0</property>
  <property name="kdenlive:file_hash">bc7210fe801dfa1b874dcfa43235299b</property>
  <property name="kdenlive:folderid">2</property>
  <property name="kdenlive:sequenceproperties.activeTrack">-2</property>
  <property name="kdenlive:sequenceproperties.audioTarget">1</property>
  <property name="kdenlive:sequenceproperties.disablepreview">0</property>
  <property name="kdenlive:sequenceproperties.documentuuid">{67610be2-a351-4e5a-b7eb-c698163f29ce}</property>
  <property name="kdenlive:sequenceproperties.globalSubtitleStyles">[
]
</property>
  <property name="kdenlive:sequenceproperties.hasAudio">1</property>
  <property name="kdenlive:sequenceproperties.hasVideo">1</property>
  <property name="kdenlive:sequenceproperties.hidesubtitle">0</property>
  <property name="kdenlive:sequenceproperties.kdenlive:activeSubtitleIndex">0</property>
  <property name="kdenlive:sequenceproperties.position">57571</property>
  <property name="kdenlive:sequenceproperties.scrollPos">7478</property>
  <property name="kdenlive:sequenceproperties.subtitlesList">[
    {
        "file": "AppData/Local/Temp/1750641602352-{c2c51fe4-16cc-4da7-a9b4-01ae47dda03a}.ass",
        "id": 0,
        "name": "Subtitles"
    },
    {
        "file": "/Alien Resurrection/Alien Resurrection - DeJoss.kdenlive-1.ass",
        "id": 1,
        "name": "Subtitle 2"
    }
]
</property>
  <property name="kdenlive:sequenceproperties.tracks">4</property>
  <property name="kdenlive:sequenceproperties.tracksCount">3</property>
  <property name="kdenlive:sequenceproperties.verticalzoom">1</property>
  <property name="kdenlive:sequenceproperties.videoTarget">2</property>
  <property name="kdenlive:sequenceproperties.zonein">0</property>
  <property name="kdenlive:sequenceproperties.zoneout">75</property>
  <property name="kdenlive:sequenceproperties.zoom">9</property>
  <property name="kdenlive:sequenceproperties.groups">[
    {
        "children": [
            {
                "data": "1:79134:-1",
                "leaf": "clip",
                "type": "Leaf"
            },
            {
                "data": "2:79147:-1",
                "leaf": "clip",
                "type": "Leaf"
            }
        ],
        "type": "AVSplit"
    },
    {
        "children": [
            {
                "data": "2:71891:-1",
                "leaf": "clip",
                "type": "Leaf"
            },
            {
                "data": "1:71877:-1",
                "leaf": "clip",
                "type": "Leaf"
            }
        ],
        "type": "AVSplit"
    },
    {
        "children": [
            {
                "data": "2:70297:-1",
                "leaf": "clip",
                "type": "Leaf"
            },
            {
                "data": "1:70284:-1",
                "leaf": "clip",
                "type": "Leaf"
            }
        ],
        "type": "AVSplit"
    },
    {
        "children": [
            {
                "data": "1:149177:-1",
                "leaf": "clip",
                "type": "Leaf"
            },
            {
                "data": "2:149190:-1",
                "leaf": "clip",
                "type": "Leaf"
            }
        ],
        "type": "AVSplit"
    },
    {
        "children": [
            {
                "data": "2:69461:-1",
                "leaf": "clip",
                "type": "Leaf"
            },
            {
                "data": "1:69448:-1",
                "leaf": "clip",
                "type": "Leaf"
            }
        ],
        "type": "AVSplit"
    },
    {
        "children": [
            {
                "data": "1:41272:-1",
                "leaf": "clip",
                "type": "Leaf"
            },
            {
                "data": "2:41324:-1",
                "leaf": "clip",
                "type": "Leaf"
            }
        ],
        "type": "AVSplit"
    },
    {
        "children": [
            {
                "data": "2:63703:-1",
                "leaf": "clip",
                "type": "Leaf"
            },
            {
                "data": "1:63690:-1",
                "leaf": "clip",
                "type": "Leaf"
            }
        ],
        "type": "AVSplit"
    },
    {
        "children": [
            {
                "data": "1:62858:-1",
                "leaf": "clip",
                "type": "Leaf"
            },
            {
                "data": "2:62858:-1",
                "leaf": "clip",
                "type": "Leaf"
            }
        ],
        "type": "AVSplit"
    },
    {
        "children": [
            {
                "data": "2:152227:-1",
                "leaf": "clip",
                "type": "Leaf"
            },
            {
                "data": "1:152216:-1",
                "leaf": "clip",
                "type": "Leaf"
            }
        ],
        "type": "AVSplit"
    },
    {
        "children": [
            {
                "data": "1:98269:-1",
                "leaf": "clip",
                "type": "Leaf"
            },
            {
                "data": "2:98269:-1",
                "leaf": "clip",
                "type": "Leaf"
            }
        ],
        "type": "AVSplit"
    },
    {
        "children": [
            {
                "data": "1:71071:-1",
                "leaf": "clip",
                "type": "Leaf"
            },
            {
                "data": "2:71071:-1",
                "leaf": "clip",
                "type": "Leaf"
            }
        ],
        "type": "AVSplit"
    },
    {
        "children": [
            {
                "data": "2:60307:-1",
                "leaf": "clip",
                "type": "Leaf"
            },
            {
                "data": "1:60293:-1",
                "leaf": "clip",
                "type": "Leaf"
            }
        ],
        "type": "AVSplit"
    },
    {
        "children": [
            {
                "data": "1:27816:-1",
                "leaf": "clip",
                "type": "Leaf"
            },
            {
                "data": "2:27883:-1",
                "leaf": "clip",
                "type": "Leaf"
            }
        ],
        "type": "AVSplit"
    }
]
</property>
  <property name="kdenlive:sequenceproperties.guides">[
]
</property>
  <track producer="producer0"/>
  <track producer="tractor0"/>
  <track producer="tractor1"/>
  <track producer="tractor2"/>
  <transition id="transition18">
   <property name="a_track">0</property>
   <property name="b_track">1</property>
   <property name="mlt_service">mix</property>
   <property name="kdenlive_id">mix</property>
   <property name="internal_added">237</property>
   <property name="always_active">1</property>
   <property name="accepts_blanks">1</property>
   <property name="sum">1</property>
  </transition>
  <transition id="transition19">
   <property name="a_track">0</property>
   <property name="b_track">2</property>
   <property name="mlt_service">mix</property>
   <property name="kdenlive_id">mix</property>
   <property name="internal_added">237</property>
   <property name="always_active">1</property>
   <property name="accepts_blanks">1</property>
   <property name="sum">1</property>
  </transition>
  <transition id="transition20">
   <property name="a_track">0</property>
   <property name="b_track">3</property>
   <property name="compositing">0</property>
   <property name="distort">0</property>
   <property name="rotate_center">0</property>
   <property name="mlt_service">qtblend</property>
   <property name="kdenlive_id">qtblend</property>
   <property name="internal_added">237</property>
   <property name="always_active">1</property>
  </transition>
  <filter id="filter17">
   <property name="window">75</property>
   <property name="max_gain">20dB</property>
   <property name="mlt_service">volume</property>
   <property name="internal_added">237</property>
   <property name="disable">1</property>
  </filter>
  <filter id="filter18">
   <property name="channel">-1</property>
   <property name="mlt_service">panner</property>
   <property name="internal_added">237</property>
   <property name="start">0.5</property>
   <property name="disable">1</property>
  </filter>
 </tractor>
 <playlist id="main_bin">
  <property name="kdenlive:folder.-1.2">Sequences</property>
  <property name="kdenlive:sequenceFolder">2</property>
  <property name="kdenlive:docproperties.activetimeline">{67610be2-a351-4e5a-b7eb-c698163f29ce}</property>
  <property name="kdenlive:docproperties.audioChannels">2</property>
  <property name="kdenlive:docproperties.binsort">0</property>
  <property name="kdenlive:docproperties.browserurl">C:/Users/ari/Videos/</property>
  <property name="kdenlive:docproperties.documentid">1750641602352</property>
  <property name="kdenlive:docproperties.enableTimelineZone">0</property>
  <property name="kdenlive:docproperties.enableexternalproxy">0</property>
  <property name="kdenlive:docproperties.enableproxy">0</property>
  <property name="kdenlive:docproperties.externalproxyparams">./;;.LRV;./;;.MP4</property>
  <property name="kdenlive:docproperties.generateimageproxy">0</property>
  <property name="kdenlive:docproperties.generateproxy">0</property>
  <property name="kdenlive:docproperties.guidesCategories">[
    {
        "color": "#9b59b6",
        "comment": "Category 1",
        "index": 0
    },
    {
        "color": "#3daee9",
        "comment": "Category 2",
        "index": 1
    },
    {
        "color": "#1abc9c",
        "comment": "Category 3",
        "index": 2
    },
    {
        "color": "#1cdc9a",
        "comment": "Category 4",
        "index": 3
    },
    {
        "color": "#c9ce3b",
        "comment": "Category 5",
        "index": 4
    },
    {
        "color": "#fdbc4b",
        "comment": "Category 6",
        "index": 5
    },
    {
        "color": "#f39c1f",
        "comment": "Category 7",
        "index": 6
    },
    {
        "color": "#f47750",
        "comment": "Category 8",
        "index": 7
    },
    {
        "color": "#da4453",
        "comment": "Category 9",
        "index": 8
    }
]
</property>
  <property name="kdenlive:docproperties.kdenliveversion">25.04.3</property>
  <property name="kdenlive:docproperties.opensequences">{67610be2-a351-4e5a-b7eb-c698163f29ce}</property>
  <property name="kdenlive:docproperties.previewextension"/>
  <property name="kdenlive:docproperties.previewparameters"/>
  <property name="kdenlive:docproperties.profile">C:/Users/ari/AppData/Roaming/kdenlive/profiles/customprofile3</property>
  <property name="kdenlive:docproperties.proxyextension"/>
  <property name="kdenlive:docproperties.proxyimageminsize">2000</property>
  <property name="kdenlive:docproperties.proxyimagesize">800</property>
  <property name="kdenlive:docproperties.proxyminsize">1000</property>
  <property name="kdenlive:docproperties.proxyparams"/>
  <property name="kdenlive:docproperties.proxyresize">640</property>
  <property name="kdenlive:docproperties.seekOffset">30000</property>
  <property name="kdenlive:docproperties.sessionid">{f344102d-26ba-4246-9d03-68be040474c7}</property>
  <property name="kdenlive:docproperties.uuid">{67610be2-a351-4e5a-b7eb-c698163f29ce}</property>
  <property name="kdenlive:docproperties.version">1.1</property>
  <property name="kdenlive:expandedFolders"/>
  <property name="kdenlive:binZoom">4</property>
  <property name="kdenlive:extraBins">project_bin:-1:0</property>
  <property name="kdenlive:documentnotes"/>
  <property name="kdenlive:documentnotesversion">2</property>
  <property name="kdenlive:docproperties.rendercategory">Ultra-High Definition (4K)</property>
  <property name="kdenlive:docproperties.rendercustomquality">-1</property>
  <property name="kdenlive:docproperties.renderendguide">-1</property>
  <property name="kdenlive:docproperties.renderexportaudio">0</property>
  <property name="kdenlive:docproperties.renderfullcolorrange">0</property>
  <property name="kdenlive:docproperties.rendermode">0</property>
  <property name="kdenlive:docproperties.renderplay">0</property>
  <property name="kdenlive:docproperties.renderpreview">0</property>
  <property name="kdenlive:docproperties.renderprofile">MP4-H265 (HEVC)</property>
  <property name="kdenlive:docproperties.renderrescale">0</property>
  <property name="kdenlive:docproperties.renderrescaleheight">410</property>
  <property name="kdenlive:docproperties.renderrescalewidth">960</property>
  <property name="kdenlive:docproperties.renderspeed">6</property>
  <property name="kdenlive:docproperties.renderstartguide">-1</property>
  <property name="kdenlive:docproperties.rendertcoverlay">0</property>
  <property name="kdenlive:docproperties.rendertctype">-1</property>
  <property name="kdenlive:docproperties.rendertwopass">0</property>
  <property name="kdenlive:docproperties.renderurl">Alien Resurrection (1997) - UnJossed Edition.mp4</property>
  <property name="xml_retain">1</property>
  <entry in="00:00:00.000" out="01:48:48.533" producer="chain5"/>
  <entry in="00:00:00.000" out="01:33:45.600" producer="tractor3"/>
 </playlist>
 <tractor id="tractor4" in="00:00:00.000" out="01:33:45.600">
  <property name="kdenlive:projectTractor">1</property>
  <track in="00:00:00.000" out="01:33:45.600" producer="tractor3"/>
 </tractor>
</mlt>
