<?xml version='1.0' encoding='utf-8'?>
<mlt LC_NUMERIC="en_US.UTF-8" producer="main_bin" root="N:/Videos/Horror and SciFi/The Day After Tomorrow (2004) [2160p] [4K] [WEB] [HDR] [5.1] [YTS.MX]" version="7.33.0">
 <profile colorspace="709" description="4K UHD 2160p 23.98 fps" display_aspect_den="9" display_aspect_num="16" frame_rate_den="1001" frame_rate_num="24000" height="2160" progressive="1" sample_aspect_den="1" sample_aspect_num="1" width="3840"/>
 <chain id="chain2" out="02:03:40.457">
  <property name="length">177913</property>
  <property name="eof">pause</property>
  <property name="resource">The.Day.After.Tomorrow.2004.2160p.4K.WEB.x265.10bit.HDR.AAC5.1-[YTS.MX].mkv</property>
  <property name="mlt_service">avformat-novalidate</property>
  <property name="meta.media.nb_streams">19</property>
  <property name="meta.media.0.stream.type">video</property>
  <property name="meta.media.0.stream.frame_rate">23.976</property>
  <property name="meta.media.0.stream.sample_aspect_ratio">1</property>
  <property name="meta.media.0.codec.width">3840</property>
  <property name="meta.media.0.codec.height">2160</property>
  <property name="meta.media.0.codec.rotate">0</property>
  <property name="meta.media.0.codec.pix_fmt">yuv420p10le</property>
  <property name="meta.media.0.codec.sample_aspect_ratio">1</property>
  <property name="meta.media.0.codec.colorspace">709</property>
  <property name="meta.media.0.codec.color_trc">1</property>
  <property name="meta.media.0.codec.name">hevc</property>
  <property name="meta.media.0.codec.long_name">HEVC (High Efficiency Video Coding)</property>
  <property name="meta.media.0.codec.bit_rate">0</property>
  <property name="meta.attr.0.stream.ENCODER.markup">Lavc58.122.100 libx265</property>
  <property name="meta.attr.0.stream.DURATION.markup">02:03:40.081000000</property>
  <property name="meta.media.1.stream.type">audio</property>
  <property name="meta.media.1.codec.sample_fmt">fltp</property>
  <property name="meta.media.1.codec.sample_rate">48000</property>
  <property name="meta.media.1.codec.channels">6</property>
  <property name="meta.media.1.codec.layout">5.1</property>
  <property name="meta.media.1.codec.name">aac</property>
  <property name="meta.media.1.codec.long_name">AAC (Advanced Audio Coding)</property>
  <property name="meta.media.1.codec.bit_rate">0</property>
  <property name="meta.attr.1.stream.ENCODER.markup">Lavc58.122.100 libfdk_aac</property>
  <property name="meta.attr.1.stream.DURATION.markup">02:03:40.459000000</property>
  <property name="meta.media.2.codec.name">srt</property>
  <property name="meta.media.2.codec.long_name">SubRip subtitle</property>
  <property name="meta.media.2.codec.bit_rate">0</property>
  <property name="meta.attr.2.stream.language.markup">eng</property>
  <property name="meta.attr.2.stream.title.markup">English Forced</property>
  <property name="meta.attr.2.stream.DURATION.markup">00:11:14.091000000</property>
  <property name="meta.media.3.codec.name">srt</property>
  <property name="meta.media.3.codec.long_name">SubRip subtitle</property>
  <property name="meta.media.3.codec.bit_rate">0</property>
  <property name="meta.attr.3.stream.language.markup">eng</property>
  <property name="meta.attr.3.stream.title.markup">English [CC]</property>
  <property name="meta.attr.3.stream.DURATION.markup">02:03:38.495000000</property>
  <property name="meta.media.4.codec.name">srt</property>
  <property name="meta.media.4.codec.long_name">SubRip subtitle</property>
  <property name="meta.media.4.codec.bit_rate">0</property>
  <property name="meta.attr.4.stream.language.markup">dan</property>
  <property name="meta.attr.4.stream.title.markup">Dansk</property>
  <property name="meta.attr.4.stream.DURATION.markup">02:03:38.745000000</property>
  <property name="meta.media.5.codec.name">srt</property>
  <property name="meta.media.5.codec.long_name">SubRip subtitle</property>
  <property name="meta.media.5.codec.bit_rate">0</property>
  <property name="meta.attr.5.stream.language.markup">ger</property>
  <property name="meta.attr.5.stream.title.markup">Deutsch</property>
  <property name="meta.attr.5.stream.DURATION.markup">01:55:11.030000000</property>
  <property name="meta.media.6.codec.name">srt</property>
  <property name="meta.media.6.codec.long_name">SubRip subtitle</property>
  <property name="meta.media.6.codec.bit_rate">0</property>
  <property name="meta.attr.6.stream.language.markup">spa</property>
  <property name="meta.attr.6.stream.title.markup">Español</property>
  <property name="meta.attr.6.stream.DURATION.markup">01:55:10.446000000</property>
  <property name="meta.media.7.codec.name">srt</property>
  <property name="meta.media.7.codec.long_name">SubRip subtitle</property>
  <property name="meta.media.7.codec.bit_rate">0</property>
  <property name="meta.attr.7.stream.language.markup">spa</property>
  <property name="meta.attr.7.stream.title.markup">Español (Latinoamericano)</property>
  <property name="meta.attr.7.stream.DURATION.markup">02:03:37.244000000</property>
  <property name="meta.media.8.codec.name">srt</property>
  <property name="meta.media.8.codec.long_name">SubRip subtitle</property>
  <property name="meta.media.8.codec.bit_rate">0</property>
  <property name="meta.attr.8.stream.language.markup">fre</property>
  <property name="meta.attr.8.stream.title.markup">Français</property>
  <property name="meta.attr.8.stream.DURATION.markup">02:03:38.579000000</property>
  <property name="meta.media.9.codec.name">srt</property>
  <property name="meta.media.9.codec.long_name">SubRip subtitle</property>
  <property name="meta.media.9.codec.bit_rate">0</property>
  <property name="meta.attr.9.stream.language.markup">ita</property>
  <property name="meta.attr.9.stream.title.markup">Italiano</property>
  <property name="meta.attr.9.stream.DURATION.markup">02:03:36.952000000</property>
  <property name="meta.media.10.codec.name">srt</property>
  <property name="meta.media.10.codec.long_name">SubRip subtitle</property>
  <property name="meta.media.10.codec.bit_rate">0</property>
  <property name="meta.attr.10.stream.language.markup">dut</property>
  <property name="meta.attr.10.stream.title.markup">Nederlands</property>
  <property name="meta.attr.10.stream.DURATION.markup">02:03:36.452000000</property>
  <property name="meta.media.11.codec.name">srt</property>
  <property name="meta.media.11.codec.long_name">SubRip subtitle</property>
  <property name="meta.media.11.codec.bit_rate">0</property>
  <property name="meta.attr.11.stream.language.markup">nor</property>
  <property name="meta.attr.11.stream.title.markup">Norsk</property>
  <property name="meta.attr.11.stream.DURATION.markup">01:55:10.780000000</property>
  <property name="meta.media.12.codec.name">srt</property>
  <property name="meta.media.12.codec.long_name">SubRip subtitle</property>
  <property name="meta.media.12.codec.bit_rate">0</property>
  <property name="meta.attr.12.stream.language.markup">pol</property>
  <property name="meta.attr.12.stream.title.markup">Polski</property>
  <property name="meta.attr.12.stream.DURATION.markup">02:03:39.955000000</property>
  <property name="meta.media.13.codec.name">srt</property>
  <property name="meta.media.13.codec.long_name">SubRip subtitle</property>
  <property name="meta.media.13.codec.bit_rate">0</property>
  <property name="meta.attr.13.stream.language.markup">por</property>
  <property name="meta.attr.13.stream.title.markup">Português</property>
  <property name="meta.attr.13.stream.DURATION.markup">02:03:36.994000000</property>
  <property name="meta.media.14.codec.name">srt</property>
  <property name="meta.media.14.codec.long_name">SubRip subtitle</property>
  <property name="meta.media.14.codec.bit_rate">0</property>
  <property name="meta.attr.14.stream.language.markup">por</property>
  <property name="meta.attr.14.stream.title.markup">Português (Brasil)</property>
  <property name="meta.attr.14.stream.DURATION.markup">02:03:38.454000000</property>
  <property name="meta.media.15.codec.name">srt</property>
  <property name="meta.media.15.codec.long_name">SubRip subtitle</property>
  <property name="meta.media.15.codec.bit_rate">0</property>
  <property name="meta.attr.15.stream.language.markup">fin</property>
  <property name="meta.attr.15.stream.title.markup">Suomi</property>
  <property name="meta.attr.15.stream.DURATION.markup">01:55:10.154000000</property>
  <property name="meta.media.16.codec.name">srt</property>
  <property name="meta.media.16.codec.long_name">SubRip subtitle</property>
  <property name="meta.media.16.codec.bit_rate">0</property>
  <property name="meta.attr.16.stream.language.markup">swe</property>
  <property name="meta.attr.16.stream.title.markup">Svenska</property>
  <property name="meta.attr.16.stream.DURATION.markup">01:55:10.905000000</property>
  <property name="meta.media.17.codec.name">srt</property>
  <property name="meta.media.17.codec.long_name">SubRip subtitle</property>
  <property name="meta.media.17.codec.bit_rate">0</property>
  <property name="meta.attr.17.stream.language.markup">ice</property>
  <property name="meta.attr.17.stream.title.markup">Íslenska</property>
  <property name="meta.attr.17.stream.DURATION.markup">02:03:37.995000000</property>
  <property name="meta.media.18.codec.name">pgssub</property>
  <property name="meta.media.18.codec.long_name">HDMV Presentation Graphic Stream subtitles</property>
  <property name="meta.media.18.codec.bit_rate">0</property>
  <property name="meta.attr.18.stream.DURATION.markup">01:55:03.940000000</property>
  <property name="meta.attr.ENCODER.markup">Lavf58.67.100</property>
  <property name="seekable">1</property>
  <property name="meta.media.sample_aspect_num">1</property>
  <property name="meta.media.sample_aspect_den">1</property>
  <property name="audio_index">1</property>
  <property name="video_index">0</property>
  <property name="vstream">0</property>
  <property name="meta.media.frame_rate_num">24000</property>
  <property name="meta.media.frame_rate_den">1001</property>
  <property name="meta.media.colorspace">709</property>
  <property name="meta.media.color_trc">1</property>
  <property name="meta.media.has_b_frames">2</property>
  <property name="meta.media.width">3840</property>
  <property name="meta.media.height">2160</property>
  <property name="meta.media.aspect_ratio">1</property>
  <property name="meta.media.color_range">mpeg</property>
  <property name="astream">0</property>
  <property name="meta.media.top_field_first">0</property>
  <property name="meta.media.progressive">1</property>
  <property name="kdenlive:control_uuid">{2e76afd6-6504-4b9c-a80b-037a75b30f5c}</property>
  <property name="kdenlive:id">4</property>
  <property name="kdenlive:clip_type">0</property>
  <property name="kdenlive:file_size">6004064752</property>
  <property name="kdenlive:file_hash">53def859424aafecef434322c37b87c9</property>
  <property name="kdenlive:folderid">-1</property>
  <property name="kdenlive:monitorPosition">0</property>
  <property name="mute_on_pause">0</property>
 </chain>
 <producer id="producer0" in="00:00:00.000" out="01:36:25.776">
  <property name="length">2147483647</property>
  <property name="eof">continue</property>
  <property name="resource">black</property>
  <property name="aspect_ratio">1</property>
  <property name="mlt_service">color</property>
  <property name="kdenlive:playlistid">black_track</property>
  <property name="mlt_image_format">rgba</property>
  <property name="set.test_audio">0</property>
 </producer>
 <chain id="chain0" out="02:03:40.457">
  <property name="length">177913</property>
  <property name="eof">pause</property>
  <property name="resource">The.Day.After.Tomorrow.2004.2160p.4K.WEB.x265.10bit.HDR.AAC5.1-[YTS.MX].mkv</property>
  <property name="mlt_service">avformat-novalidate</property>
  <property name="seekable">1</property>
  <property name="audio_index">1</property>
  <property name="video_index">0</property>
  <property name="vstream">0</property>
  <property name="astream">0</property>
  <property name="kdenlive:control_uuid">{2e76afd6-6504-4b9c-a80b-037a75b30f5c}</property>
  <property name="kdenlive:id">4</property>
  <property name="kdenlive:clip_type">0</property>
  <property name="kdenlive:file_size">6004064752</property>
  <property name="kdenlive:file_hash">53def859424aafecef434322c37b87c9</property>
  <property name="kdenlive:folderid">-1</property>
  <property name="kdenlive:monitorPosition">0</property>
  <property name="mute_on_pause">0</property>
  <property name="meta.media.nb_streams">19</property>
  <property name="meta.media.0.stream.type">video</property>
  <property name="meta.media.0.stream.frame_rate">23.976</property>
  <property name="meta.media.0.stream.sample_aspect_ratio">1</property>
  <property name="meta.media.0.codec.width">3840</property>
  <property name="meta.media.0.codec.height">2160</property>
  <property name="meta.media.0.codec.rotate">0</property>
  <property name="meta.media.0.codec.pix_fmt">yuv420p10le</property>
  <property name="meta.media.0.codec.sample_aspect_ratio">1</property>
  <property name="meta.media.0.codec.colorspace">709</property>
  <property name="meta.media.0.codec.color_trc">1</property>
  <property name="meta.media.0.codec.name">hevc</property>
  <property name="meta.media.0.codec.long_name">HEVC (High Efficiency Video Coding)</property>
  <property name="meta.media.0.codec.bit_rate">0</property>
  <property name="meta.attr.0.stream.ENCODER.markup">Lavc58.122.100 libx265</property>
  <property name="meta.attr.0.stream.DURATION.markup">02:03:40.081000000</property>
  <property name="meta.media.1.stream.type">audio</property>
  <property name="meta.media.1.codec.sample_fmt">fltp</property>
  <property name="meta.media.1.codec.sample_rate">48000</property>
  <property name="meta.media.1.codec.channels">6</property>
  <property name="meta.media.1.codec.layout">5.1</property>
  <property name="meta.media.1.codec.name">aac</property>
  <property name="meta.media.1.codec.long_name">AAC (Advanced Audio Coding)</property>
  <property name="meta.media.1.codec.bit_rate">0</property>
  <property name="meta.attr.1.stream.ENCODER.markup">Lavc58.122.100 libfdk_aac</property>
  <property name="meta.attr.1.stream.DURATION.markup">02:03:40.459000000</property>
  <property name="meta.media.2.codec.name">srt</property>
  <property name="meta.media.2.codec.long_name">SubRip subtitle</property>
  <property name="meta.media.2.codec.bit_rate">0</property>
  <property name="meta.attr.2.stream.language.markup">eng</property>
  <property name="meta.attr.2.stream.title.markup">English Forced</property>
  <property name="meta.attr.2.stream.DURATION.markup">00:11:14.091000000</property>
  <property name="meta.media.3.codec.name">srt</property>
  <property name="meta.media.3.codec.long_name">SubRip subtitle</property>
  <property name="meta.media.3.codec.bit_rate">0</property>
  <property name="meta.attr.3.stream.language.markup">eng</property>
  <property name="meta.attr.3.stream.title.markup">English [CC]</property>
  <property name="meta.attr.3.stream.DURATION.markup">02:03:38.495000000</property>
  <property name="meta.media.4.codec.name">srt</property>
  <property name="meta.media.4.codec.long_name">SubRip subtitle</property>
  <property name="meta.media.4.codec.bit_rate">0</property>
  <property name="meta.attr.4.stream.language.markup">dan</property>
  <property name="meta.attr.4.stream.title.markup">Dansk</property>
  <property name="meta.attr.4.stream.DURATION.markup">02:03:38.745000000</property>
  <property name="meta.media.5.codec.name">srt</property>
  <property name="meta.media.5.codec.long_name">SubRip subtitle</property>
  <property name="meta.media.5.codec.bit_rate">0</property>
  <property name="meta.attr.5.stream.language.markup">ger</property>
  <property name="meta.attr.5.stream.title.markup">Deutsch</property>
  <property name="meta.attr.5.stream.DURATION.markup">01:55:11.030000000</property>
  <property name="meta.media.6.codec.name">srt</property>
  <property name="meta.media.6.codec.long_name">SubRip subtitle</property>
  <property name="meta.media.6.codec.bit_rate">0</property>
  <property name="meta.attr.6.stream.language.markup">spa</property>
  <property name="meta.attr.6.stream.title.markup">Español</property>
  <property name="meta.attr.6.stream.DURATION.markup">01:55:10.446000000</property>
  <property name="meta.media.7.codec.name">srt</property>
  <property name="meta.media.7.codec.long_name">SubRip subtitle</property>
  <property name="meta.media.7.codec.bit_rate">0</property>
  <property name="meta.attr.7.stream.language.markup">spa</property>
  <property name="meta.attr.7.stream.title.markup">Español (Latinoamericano)</property>
  <property name="meta.attr.7.stream.DURATION.markup">02:03:37.244000000</property>
  <property name="meta.media.8.codec.name">srt</property>
  <property name="meta.media.8.codec.long_name">SubRip subtitle</property>
  <property name="meta.media.8.codec.bit_rate">0</property>
  <property name="meta.attr.8.stream.language.markup">fre</property>
  <property name="meta.attr.8.stream.title.markup">Français</property>
  <property name="meta.attr.8.stream.DURATION.markup">02:03:38.579000000</property>
  <property name="meta.media.9.codec.name">srt</property>
  <property name="meta.media.9.codec.long_name">SubRip subtitle</property>
  <property name="meta.media.9.codec.bit_rate">0</property>
  <property name="meta.attr.9.stream.language.markup">ita</property>
  <property name="meta.attr.9.stream.title.markup">Italiano</property>
  <property name="meta.attr.9.stream.DURATION.markup">02:03:36.952000000</property>
  <property name="meta.media.10.codec.name">srt</property>
  <property name="meta.media.10.codec.long_name">SubRip subtitle</property>
  <property name="meta.media.10.codec.bit_rate">0</property>
  <property name="meta.attr.10.stream.language.markup">dut</property>
  <property name="meta.attr.10.stream.title.markup">Nederlands</property>
  <property name="meta.attr.10.stream.DURATION.markup">02:03:36.452000000</property>
  <property name="meta.media.11.codec.name">srt</property>
  <property name="meta.media.11.codec.long_name">SubRip subtitle</property>
  <property name="meta.media.11.codec.bit_rate">0</property>
  <property name="meta.attr.11.stream.language.markup">nor</property>
  <property name="meta.attr.11.stream.title.markup">Norsk</property>
  <property name="meta.attr.11.stream.DURATION.markup">01:55:10.780000000</property>
  <property name="meta.media.12.codec.name">srt</property>
  <property name="meta.media.12.codec.long_name">SubRip subtitle</property>
  <property name="meta.media.12.codec.bit_rate">0</property>
  <property name="meta.attr.12.stream.language.markup">pol</property>
  <property name="meta.attr.12.stream.title.markup">Polski</property>
  <property name="meta.attr.12.stream.DURATION.markup">02:03:39.955000000</property>
  <property name="meta.media.13.codec.name">srt</property>
  <property name="meta.media.13.codec.long_name">SubRip subtitle</property>
  <property name="meta.media.13.codec.bit_rate">0</property>
  <property name="meta.attr.13.stream.language.markup">por</property>
  <property name="meta.attr.13.stream.title.markup">Português</property>
  <property name="meta.attr.13.stream.DURATION.markup">02:03:36.994000000</property>
  <property name="meta.media.14.codec.name">srt</property>
  <property name="meta.media.14.codec.long_name">SubRip subtitle</property>
  <property name="meta.media.14.codec.bit_rate">0</property>
  <property name="meta.attr.14.stream.language.markup">por</property>
  <property name="meta.attr.14.stream.title.markup">Português (Brasil)</property>
  <property name="meta.attr.14.stream.DURATION.markup">02:03:38.454000000</property>
  <property name="meta.media.15.codec.name">srt</property>
  <property name="meta.media.15.codec.long_name">SubRip subtitle</property>
  <property name="meta.media.15.codec.bit_rate">0</property>
  <property name="meta.attr.15.stream.language.markup">fin</property>
  <property name="meta.attr.15.stream.title.markup">Suomi</property>
  <property name="meta.attr.15.stream.DURATION.markup">01:55:10.154000000</property>
  <property name="meta.media.16.codec.name">srt</property>
  <property name="meta.media.16.codec.long_name">SubRip subtitle</property>
  <property name="meta.media.16.codec.bit_rate">0</property>
  <property name="meta.attr.16.stream.language.markup">swe</property>
  <property name="meta.attr.16.stream.title.markup">Svenska</property>
  <property name="meta.attr.16.stream.DURATION.markup">01:55:10.905000000</property>
  <property name="meta.media.17.codec.name">srt</property>
  <property name="meta.media.17.codec.long_name">SubRip subtitle</property>
  <property name="meta.media.17.codec.bit_rate">0</property>
  <property name="meta.attr.17.stream.language.markup">ice</property>
  <property name="meta.attr.17.stream.title.markup">Íslenska</property>
  <property name="meta.attr.17.stream.DURATION.markup">02:03:37.995000000</property>
  <property name="meta.media.18.codec.name">pgssub</property>
  <property name="meta.media.18.codec.long_name">HDMV Presentation Graphic Stream subtitles</property>
  <property name="meta.media.18.codec.bit_rate">0</property>
  <property name="meta.attr.18.stream.DURATION.markup">01:55:03.940000000</property>
  <property name="meta.attr.ENCODER.markup">Lavf58.67.100</property>
  <property name="meta.media.sample_aspect_num">1</property>
  <property name="meta.media.sample_aspect_den">1</property>
  <property name="meta.media.frame_rate_num">24000</property>
  <property name="meta.media.frame_rate_den">1001</property>
  <property name="meta.media.colorspace">709</property>
  <property name="meta.media.color_trc">1</property>
  <property name="meta.media.has_b_frames">2</property>
  <property name="meta.media.width">3840</property>
  <property name="meta.media.height">2160</property>
  <property name="meta.media.aspect_ratio">1</property>
  <property name="meta.media.color_range">mpeg</property>
  <property name="xml">was here</property>
  <property name="meta.media.top_field_first">0</property>
  <property name="meta.media.progressive">1</property>
  <property name="set.test_audio">0</property>
  <property name="set.test_image">1</property>
 </chain>
 <playlist id="playlist0">
  <property name="kdenlive:audio_track">1</property>
  <blank length="00:13:38.247"/>
  <entry in="00:20:44.461" out="00:20:45.754" producer="chain0">
   <property name="kdenlive:id">4</property>
   <filter id="filter0" in="00:20:44.795" out="00:20:45.754">
    <property name="window">75</property>
    <property name="max_gain">20dB</property>
    <property name="mlt_service">volume</property>
    <property name="kdenlive_id">fadeout</property>
    <property name="gain">1</property>
    <property name="end">0</property>
    <property name="kdenlive:collapsed">0</property>
   </filter>
  </entry>
  <entry in="00:20:44.461" out="00:20:46.546" producer="chain0">
   <property name="kdenlive:id">4</property>
   <filter id="filter1">
    <property name="window">75</property>
    <property name="max_gain">20dB</property>
    <property name="mlt_service">volume</property>
    <property name="kdenlive_id">mute</property>
    <property name="gain">0</property>
    <property name="kdenlive:collapsed">0</property>
   </filter>
  </entry>
 </playlist>
 <playlist id="playlist1">
  <property name="kdenlive:audio_track">1</property>
 </playlist>
 <tractor id="tractor0" in="00:00:00.000" out="00:13:41.667">
  <property name="kdenlive:audio_track">1</property>
  <property name="kdenlive:trackheight">84</property>
  <property name="kdenlive:timeline_active">1</property>
  <property name="kdenlive:collapsed">0</property>
  <property name="kdenlive:track_name">Reverb</property>
  <property name="kdenlive:thumbs_format"/>
  <property name="kdenlive:audio_rec"/>
  <track hide="video" producer="playlist0"/>
  <track hide="video" producer="playlist1"/>
  <filter id="filter5" out="00:13:41.708">
   <property name="mlt_service">ladspa.2142</property>
   <property name="kdenlive_id">ladspa.2142</property>
   <property name="0">10000</property>
   <property name="1">-63.697</property>
   <property name="2">-24.4242</property>
   <property name="3">1</property>
   <property name="4">1</property>
   <property name="5">1</property>
   <property name="6">1</property>
   <property name="7">19</property>
   <property name="wetness">1</property>
   <property name="kdenlive:collapsed">0</property>
   <property name="instances">1</property>
  </filter>
  <filter id="filter3">
   <property name="window">75</property>
   <property name="max_gain">20dB</property>
   <property name="mlt_service">volume</property>
   <property name="internal_added">237</property>
   <property name="disable">1</property>
  </filter>
  <filter id="filter4">
   <property name="channel">-1</property>
   <property name="mlt_service">panner</property>
   <property name="internal_added">237</property>
   <property name="start">0.5</property>
   <property name="disable">1</property>
  </filter>
  <filter id="filter2">
   <property name="iec_scale">0</property>
   <property name="mlt_service">audiolevel</property>
   <property name="dbpeak">1</property>
   <property name="disable">1</property>
  </filter>
 </tractor>
 <chain id="chain1" out="02:03:40.457">
  <property name="length">177913</property>
  <property name="eof">pause</property>
  <property name="resource">The.Day.After.Tomorrow.2004.2160p.4K.WEB.x265.10bit.HDR.AAC5.1-[YTS.MX].mkv</property>
  <property name="mlt_service">avformat-novalidate</property>
  <property name="seekable">1</property>
  <property name="audio_index">1</property>
  <property name="video_index">0</property>
  <property name="vstream">0</property>
  <property name="astream">0</property>
  <property name="kdenlive:control_uuid">{2e76afd6-6504-4b9c-a80b-037a75b30f5c}</property>
  <property name="kdenlive:id">4</property>
  <property name="kdenlive:clip_type">0</property>
  <property name="kdenlive:file_size">6004064752</property>
  <property name="kdenlive:file_hash">53def859424aafecef434322c37b87c9</property>
  <property name="kdenlive:folderid">-1</property>
  <property name="kdenlive:monitorPosition">0</property>
  <property name="meta.media.nb_streams">19</property>
  <property name="meta.media.0.stream.type">video</property>
  <property name="meta.media.0.stream.frame_rate">23.976</property>
  <property name="meta.media.0.stream.sample_aspect_ratio">1</property>
  <property name="meta.media.0.codec.width">3840</property>
  <property name="meta.media.0.codec.height">2160</property>
  <property name="meta.media.0.codec.rotate">0</property>
  <property name="meta.media.0.codec.pix_fmt">yuv420p10le</property>
  <property name="meta.media.0.codec.sample_aspect_ratio">1</property>
  <property name="meta.media.0.codec.colorspace">709</property>
  <property name="meta.media.0.codec.color_trc">1</property>
  <property name="meta.media.0.codec.name">hevc</property>
  <property name="meta.media.0.codec.long_name">HEVC (High Efficiency Video Coding)</property>
  <property name="meta.media.0.codec.bit_rate">0</property>
  <property name="meta.attr.0.stream.ENCODER.markup">Lavc58.122.100 libx265</property>
  <property name="meta.attr.0.stream.DURATION.markup">02:03:40.081000000</property>
  <property name="meta.media.1.stream.type">audio</property>
  <property name="meta.media.1.codec.sample_fmt">fltp</property>
  <property name="meta.media.1.codec.sample_rate">48000</property>
  <property name="meta.media.1.codec.channels">6</property>
  <property name="meta.media.1.codec.layout">5.1</property>
  <property name="meta.media.1.codec.name">aac</property>
  <property name="meta.media.1.codec.long_name">AAC (Advanced Audio Coding)</property>
  <property name="meta.media.1.codec.bit_rate">0</property>
  <property name="meta.attr.1.stream.ENCODER.markup">Lavc58.122.100 libfdk_aac</property>
  <property name="meta.attr.1.stream.DURATION.markup">02:03:40.459000000</property>
  <property name="meta.media.2.codec.name">srt</property>
  <property name="meta.media.2.codec.long_name">SubRip subtitle</property>
  <property name="meta.media.2.codec.bit_rate">0</property>
  <property name="meta.attr.2.stream.language.markup">eng</property>
  <property name="meta.attr.2.stream.title.markup">English Forced</property>
  <property name="meta.attr.2.stream.DURATION.markup">00:11:14.091000000</property>
  <property name="meta.media.3.codec.name">srt</property>
  <property name="meta.media.3.codec.long_name">SubRip subtitle</property>
  <property name="meta.media.3.codec.bit_rate">0</property>
  <property name="meta.attr.3.stream.language.markup">eng</property>
  <property name="meta.attr.3.stream.title.markup">English [CC]</property>
  <property name="meta.attr.3.stream.DURATION.markup">02:03:38.495000000</property>
  <property name="meta.media.4.codec.name">srt</property>
  <property name="meta.media.4.codec.long_name">SubRip subtitle</property>
  <property name="meta.media.4.codec.bit_rate">0</property>
  <property name="meta.attr.4.stream.language.markup">dan</property>
  <property name="meta.attr.4.stream.title.markup">Dansk</property>
  <property name="meta.attr.4.stream.DURATION.markup">02:03:38.745000000</property>
  <property name="meta.media.5.codec.name">srt</property>
  <property name="meta.media.5.codec.long_name">SubRip subtitle</property>
  <property name="meta.media.5.codec.bit_rate">0</property>
  <property name="meta.attr.5.stream.language.markup">ger</property>
  <property name="meta.attr.5.stream.title.markup">Deutsch</property>
  <property name="meta.attr.5.stream.DURATION.markup">01:55:11.030000000</property>
  <property name="meta.media.6.codec.name">srt</property>
  <property name="meta.media.6.codec.long_name">SubRip subtitle</property>
  <property name="meta.media.6.codec.bit_rate">0</property>
  <property name="meta.attr.6.stream.language.markup">spa</property>
  <property name="meta.attr.6.stream.title.markup">Español</property>
  <property name="meta.attr.6.stream.DURATION.markup">01:55:10.446000000</property>
  <property name="meta.media.7.codec.name">srt</property>
  <property name="meta.media.7.codec.long_name">SubRip subtitle</property>
  <property name="meta.media.7.codec.bit_rate">0</property>
  <property name="meta.attr.7.stream.language.markup">spa</property>
  <property name="meta.attr.7.stream.title.markup">Español (Latinoamericano)</property>
  <property name="meta.attr.7.stream.DURATION.markup">02:03:37.244000000</property>
  <property name="meta.media.8.codec.name">srt</property>
  <property name="meta.media.8.codec.long_name">SubRip subtitle</property>
  <property name="meta.media.8.codec.bit_rate">0</property>
  <property name="meta.attr.8.stream.language.markup">fre</property>
  <property name="meta.attr.8.stream.title.markup">Français</property>
  <property name="meta.attr.8.stream.DURATION.markup">02:03:38.579000000</property>
  <property name="meta.media.9.codec.name">srt</property>
  <property name="meta.media.9.codec.long_name">SubRip subtitle</property>
  <property name="meta.media.9.codec.bit_rate">0</property>
  <property name="meta.attr.9.stream.language.markup">ita</property>
  <property name="meta.attr.9.stream.title.markup">Italiano</property>
  <property name="meta.attr.9.stream.DURATION.markup">02:03:36.952000000</property>
  <property name="meta.media.10.codec.name">srt</property>
  <property name="meta.media.10.codec.long_name">SubRip subtitle</property>
  <property name="meta.media.10.codec.bit_rate">0</property>
  <property name="meta.attr.10.stream.language.markup">dut</property>
  <property name="meta.attr.10.stream.title.markup">Nederlands</property>
  <property name="meta.attr.10.stream.DURATION.markup">02:03:36.452000000</property>
  <property name="meta.media.11.codec.name">srt</property>
  <property name="meta.media.11.codec.long_name">SubRip subtitle</property>
  <property name="meta.media.11.codec.bit_rate">0</property>
  <property name="meta.attr.11.stream.language.markup">nor</property>
  <property name="meta.attr.11.stream.title.markup">Norsk</property>
  <property name="meta.attr.11.stream.DURATION.markup">01:55:10.780000000</property>
  <property name="meta.media.12.codec.name">srt</property>
  <property name="meta.media.12.codec.long_name">SubRip subtitle</property>
  <property name="meta.media.12.codec.bit_rate">0</property>
  <property name="meta.attr.12.stream.language.markup">pol</property>
  <property name="meta.attr.12.stream.title.markup">Polski</property>
  <property name="meta.attr.12.stream.DURATION.markup">02:03:39.955000000</property>
  <property name="meta.media.13.codec.name">srt</property>
  <property name="meta.media.13.codec.long_name">SubRip subtitle</property>
  <property name="meta.media.13.codec.bit_rate">0</property>
  <property name="meta.attr.13.stream.language.markup">por</property>
  <property name="meta.attr.13.stream.title.markup">Português</property>
  <property name="meta.attr.13.stream.DURATION.markup">02:03:36.994000000</property>
  <property name="meta.media.14.codec.name">srt</property>
  <property name="meta.media.14.codec.long_name">SubRip subtitle</property>
  <property name="meta.media.14.codec.bit_rate">0</property>
  <property name="meta.attr.14.stream.language.markup">por</property>
  <property name="meta.attr.14.stream.title.markup">Português (Brasil)</property>
  <property name="meta.attr.14.stream.DURATION.markup">02:03:38.454000000</property>
  <property name="meta.media.15.codec.name">srt</property>
  <property name="meta.media.15.codec.long_name">SubRip subtitle</property>
  <property name="meta.media.15.codec.bit_rate">0</property>
  <property name="meta.attr.15.stream.language.markup">fin</property>
  <property name="meta.attr.15.stream.title.markup">Suomi</property>
  <property name="meta.attr.15.stream.DURATION.markup">01:55:10.154000000</property>
  <property name="meta.media.16.codec.name">srt</property>
  <property name="meta.media.16.codec.long_name">SubRip subtitle</property>
  <property name="meta.media.16.codec.bit_rate">0</property>
  <property name="meta.attr.16.stream.language.markup">swe</property>
  <property name="meta.attr.16.stream.title.markup">Svenska</property>
  <property name="meta.attr.16.stream.DURATION.markup">01:55:10.905000000</property>
  <property name="meta.media.17.codec.name">srt</property>
  <property name="meta.media.17.codec.long_name">SubRip subtitle</property>
  <property name="meta.media.17.codec.bit_rate">0</property>
  <property name="meta.attr.17.stream.language.markup">ice</property>
  <property name="meta.attr.17.stream.title.markup">Íslenska</property>
  <property name="meta.attr.17.stream.DURATION.markup">02:03:37.995000000</property>
  <property name="meta.media.18.codec.name">pgssub</property>
  <property name="meta.media.18.codec.long_name">HDMV Presentation Graphic Stream subtitles</property>
  <property name="meta.media.18.codec.bit_rate">0</property>
  <property name="meta.attr.18.stream.DURATION.markup">01:55:03.940000000</property>
  <property name="meta.attr.ENCODER.markup">Lavf58.67.100</property>
  <property name="meta.media.sample_aspect_num">1</property>
  <property name="meta.media.sample_aspect_den">1</property>
  <property name="meta.media.frame_rate_num">24000</property>
  <property name="meta.media.frame_rate_den">1001</property>
  <property name="meta.media.colorspace">709</property>
  <property name="meta.media.color_trc">1</property>
  <property name="meta.media.has_b_frames">2</property>
  <property name="meta.media.width">3840</property>
  <property name="meta.media.height">2160</property>
  <property name="meta.media.aspect_ratio">1</property>
  <property name="meta.media.color_range">mpeg</property>
  <property name="xml">was here</property>
  <property name="mute_on_pause">0</property>
  <property name="meta.media.top_field_first">0</property>
  <property name="meta.media.progressive">1</property>
  <property name="set.test_audio">0</property>
  <property name="set.test_image">1</property>
 </chain>
 <playlist id="playlist2">
  <property name="kdenlive:audio_track">1</property>
  <blank length="00:09:26.693"/>
  <entry in="00:09:47.506" out="00:10:26.360" producer="chain1">
   <property name="kdenlive:id">4</property>
  </entry>
  <blank length="00:01:15.265"/>
  <entry in="00:15:40.624" out="00:16:26.693" producer="chain1">
   <property name="kdenlive:id">4</property>
  </entry>
  <blank length="00:01:06.423"/>
  <entry in="00:20:17.559" out="00:20:23.440" producer="chain1">
   <property name="kdenlive:id">4</property>
  </entry>
  <blank length="00:00:17.935"/>
  <entry in="00:22:40.374" out="00:24:38.080" producer="chain1">
   <property name="kdenlive:id">4</property>
  </entry>
  <blank length="00:01:28.862"/>
  <entry in="00:27:03.420" out="00:29:18.602" producer="chain1">
   <property name="kdenlive:id">4</property>
  </entry>
  <blank length="00:01:05.756"/>
  <entry in="00:31:22.481" out="00:33:46.046" producer="chain1">
   <property name="kdenlive:id">4</property>
  </entry>
  <blank length="00:00:26.151"/>
  <entry in="00:36:42.042" out="00:37:58.767" producer="chain1">
   <property name="kdenlive:id">4</property>
  </entry>
  <blank length="00:03:47.673"/>
  <entry in="00:43:36.536" out="00:46:24.399" producer="chain1">
   <property name="kdenlive:id">4</property>
  </entry>
  <blank length="00:00:46.088"/>
  <entry in="00:48:07.591" out="00:48:37.412" producer="chain1">
   <property name="kdenlive:id">4</property>
  </entry>
  <blank length="00:01:02.586"/>
  <entry in="00:50:06.381" out="00:51:21.647" producer="chain1">
   <property name="kdenlive:id">4</property>
  </entry>
  <blank length="00:02:54.054"/>
  <entry in="00:55:39.456" out="00:56:41.166" producer="chain1">
   <property name="kdenlive:id">4</property>
  </entry>
  <blank length="00:01:16.225"/>
  <entry in="00:58:48.048" out="00:59:54.888" producer="chain1">
   <property name="kdenlive:id">4</property>
  </entry>
  <blank length="00:05:18.268"/>
  <entry in="01:06:21.647" out="01:07:37.871" producer="chain1">
   <property name="kdenlive:id">4</property>
  </entry>
  <blank length="00:00:04.004"/>
  <entry in="01:07:58.684" out="01:08:14.890" producer="chain1">
   <property name="kdenlive:id">4</property>
  </entry>
  <blank length="00:00:41.875"/>
  <entry in="01:11:00.250" out="01:11:28.153" producer="chain1">
   <property name="kdenlive:id">4</property>
   <filter id="filter6" in="01:11:00.250" out="01:11:18.185">
    <property name="window">75</property>
    <property name="max_gain">20dB</property>
    <property name="mlt_service">volume</property>
    <property name="kdenlive_id">fadein</property>
    <property name="gain">0</property>
    <property name="end">1</property>
    <property name="kdenlive:collapsed">0</property>
   </filter>
  </entry>
  <blank length="00:01:04.838"/>
  <entry in="01:13:37.955" out="01:14:41.583" producer="chain1">
   <property name="kdenlive:id">4</property>
  </entry>
  <blank length="00:02:55.389"/>
  <entry in="01:19:50.425" out="01:20:02.044" producer="chain1">
   <property name="kdenlive:id">4</property>
  </entry>
  <blank length="00:03:16.558"/>
  <entry in="01:27:56.223" out="01:51:39.289" producer="chain1">
   <property name="kdenlive:id">4</property>
  </entry>
  <blank length="00:00:06.465"/>
  <entry in="01:52:42.542" out="01:52:44.628" producer="chain1">
   <property name="kdenlive:id">4</property>
  </entry>
  <entry in="01:52:44.670" out="01:52:46.546" producer="chain1">
   <property name="kdenlive:id">4</property>
  </entry>
  <entry in="01:52:46.588" out="01:52:50.634" producer="chain1">
   <property name="kdenlive:id">4</property>
  </entry>
  <blank length="00:00:01.668"/>
  <entry in="01:53:50.175" out="02:03:40.457" producer="chain1">
   <property name="kdenlive:id">4</property>
  </entry>
 </playlist>
 <chain id="chain3" out="02:03:40.457">
  <property name="length">177913</property>
  <property name="eof">pause</property>
  <property name="resource">The.Day.After.Tomorrow.2004.2160p.4K.WEB.x265.10bit.HDR.AAC5.1-[YTS.MX].mkv</property>
  <property name="mlt_service">avformat-novalidate</property>
  <property name="seekable">1</property>
  <property name="audio_index">1</property>
  <property name="video_index">0</property>
  <property name="vstream">0</property>
  <property name="astream">0</property>
  <property name="kdenlive:control_uuid">{2e76afd6-6504-4b9c-a80b-037a75b30f5c}</property>
  <property name="kdenlive:id">4</property>
  <property name="kdenlive:clip_type">0</property>
  <property name="kdenlive:file_size">6004064752</property>
  <property name="kdenlive:file_hash">53def859424aafecef434322c37b87c9</property>
  <property name="kdenlive:folderid">-1</property>
  <property name="kdenlive:monitorPosition">0</property>
  <property name="mute_on_pause">0</property>
  <property name="meta.media.nb_streams">19</property>
  <property name="meta.media.0.stream.type">video</property>
  <property name="meta.media.0.stream.frame_rate">23.976</property>
  <property name="meta.media.0.stream.sample_aspect_ratio">1</property>
  <property name="meta.media.0.codec.width">3840</property>
  <property name="meta.media.0.codec.height">2160</property>
  <property name="meta.media.0.codec.rotate">0</property>
  <property name="meta.media.0.codec.pix_fmt">yuv420p10le</property>
  <property name="meta.media.0.codec.sample_aspect_ratio">1</property>
  <property name="meta.media.0.codec.colorspace">709</property>
  <property name="meta.media.0.codec.color_trc">1</property>
  <property name="meta.media.0.codec.name">hevc</property>
  <property name="meta.media.0.codec.long_name">HEVC (High Efficiency Video Coding)</property>
  <property name="meta.media.0.codec.bit_rate">0</property>
  <property name="meta.attr.0.stream.ENCODER.markup">Lavc58.122.100 libx265</property>
  <property name="meta.attr.0.stream.DURATION.markup">02:03:40.081000000</property>
  <property name="meta.media.1.stream.type">audio</property>
  <property name="meta.media.1.codec.sample_fmt">fltp</property>
  <property name="meta.media.1.codec.sample_rate">48000</property>
  <property name="meta.media.1.codec.channels">6</property>
  <property name="meta.media.1.codec.layout">5.1</property>
  <property name="meta.media.1.codec.name">aac</property>
  <property name="meta.media.1.codec.long_name">AAC (Advanced Audio Coding)</property>
  <property name="meta.media.1.codec.bit_rate">0</property>
  <property name="meta.attr.1.stream.ENCODER.markup">Lavc58.122.100 libfdk_aac</property>
  <property name="meta.attr.1.stream.DURATION.markup">02:03:40.459000000</property>
  <property name="meta.media.2.codec.name">srt</property>
  <property name="meta.media.2.codec.long_name">SubRip subtitle</property>
  <property name="meta.media.2.codec.bit_rate">0</property>
  <property name="meta.attr.2.stream.language.markup">eng</property>
  <property name="meta.attr.2.stream.title.markup">English Forced</property>
  <property name="meta.attr.2.stream.DURATION.markup">00:11:14.091000000</property>
  <property name="meta.media.3.codec.name">srt</property>
  <property name="meta.media.3.codec.long_name">SubRip subtitle</property>
  <property name="meta.media.3.codec.bit_rate">0</property>
  <property name="meta.attr.3.stream.language.markup">eng</property>
  <property name="meta.attr.3.stream.title.markup">English [CC]</property>
  <property name="meta.attr.3.stream.DURATION.markup">02:03:38.495000000</property>
  <property name="meta.media.4.codec.name">srt</property>
  <property name="meta.media.4.codec.long_name">SubRip subtitle</property>
  <property name="meta.media.4.codec.bit_rate">0</property>
  <property name="meta.attr.4.stream.language.markup">dan</property>
  <property name="meta.attr.4.stream.title.markup">Dansk</property>
  <property name="meta.attr.4.stream.DURATION.markup">02:03:38.745000000</property>
  <property name="meta.media.5.codec.name">srt</property>
  <property name="meta.media.5.codec.long_name">SubRip subtitle</property>
  <property name="meta.media.5.codec.bit_rate">0</property>
  <property name="meta.attr.5.stream.language.markup">ger</property>
  <property name="meta.attr.5.stream.title.markup">Deutsch</property>
  <property name="meta.attr.5.stream.DURATION.markup">01:55:11.030000000</property>
  <property name="meta.media.6.codec.name">srt</property>
  <property name="meta.media.6.codec.long_name">SubRip subtitle</property>
  <property name="meta.media.6.codec.bit_rate">0</property>
  <property name="meta.attr.6.stream.language.markup">spa</property>
  <property name="meta.attr.6.stream.title.markup">Español</property>
  <property name="meta.attr.6.stream.DURATION.markup">01:55:10.446000000</property>
  <property name="meta.media.7.codec.name">srt</property>
  <property name="meta.media.7.codec.long_name">SubRip subtitle</property>
  <property name="meta.media.7.codec.bit_rate">0</property>
  <property name="meta.attr.7.stream.language.markup">spa</property>
  <property name="meta.attr.7.stream.title.markup">Español (Latinoamericano)</property>
  <property name="meta.attr.7.stream.DURATION.markup">02:03:37.244000000</property>
  <property name="meta.media.8.codec.name">srt</property>
  <property name="meta.media.8.codec.long_name">SubRip subtitle</property>
  <property name="meta.media.8.codec.bit_rate">0</property>
  <property name="meta.attr.8.stream.language.markup">fre</property>
  <property name="meta.attr.8.stream.title.markup">Français</property>
  <property name="meta.attr.8.stream.DURATION.markup">02:03:38.579000000</property>
  <property name="meta.media.9.codec.name">srt</property>
  <property name="meta.media.9.codec.long_name">SubRip subtitle</property>
  <property name="meta.media.9.codec.bit_rate">0</property>
  <property name="meta.attr.9.stream.language.markup">ita</property>
  <property name="meta.attr.9.stream.title.markup">Italiano</property>
  <property name="meta.attr.9.stream.DURATION.markup">02:03:36.952000000</property>
  <property name="meta.media.10.codec.name">srt</property>
  <property name="meta.media.10.codec.long_name">SubRip subtitle</property>
  <property name="meta.media.10.codec.bit_rate">0</property>
  <property name="meta.attr.10.stream.language.markup">dut</property>
  <property name="meta.attr.10.stream.title.markup">Nederlands</property>
  <property name="meta.attr.10.stream.DURATION.markup">02:03:36.452000000</property>
  <property name="meta.media.11.codec.name">srt</property>
  <property name="meta.media.11.codec.long_name">SubRip subtitle</property>
  <property name="meta.media.11.codec.bit_rate">0</property>
  <property name="meta.attr.11.stream.language.markup">nor</property>
  <property name="meta.attr.11.stream.title.markup">Norsk</property>
  <property name="meta.attr.11.stream.DURATION.markup">01:55:10.780000000</property>
  <property name="meta.media.12.codec.name">srt</property>
  <property name="meta.media.12.codec.long_name">SubRip subtitle</property>
  <property name="meta.media.12.codec.bit_rate">0</property>
  <property name="meta.attr.12.stream.language.markup">pol</property>
  <property name="meta.attr.12.stream.title.markup">Polski</property>
  <property name="meta.attr.12.stream.DURATION.markup">02:03:39.955000000</property>
  <property name="meta.media.13.codec.name">srt</property>
  <property name="meta.media.13.codec.long_name">SubRip subtitle</property>
  <property name="meta.media.13.codec.bit_rate">0</property>
  <property name="meta.attr.13.stream.language.markup">por</property>
  <property name="meta.attr.13.stream.title.markup">Português</property>
  <property name="meta.attr.13.stream.DURATION.markup">02:03:36.994000000</property>
  <property name="meta.media.14.codec.name">srt</property>
  <property name="meta.media.14.codec.long_name">SubRip subtitle</property>
  <property name="meta.media.14.codec.bit_rate">0</property>
  <property name="meta.attr.14.stream.language.markup">por</property>
  <property name="meta.attr.14.stream.title.markup">Português (Brasil)</property>
  <property name="meta.attr.14.stream.DURATION.markup">02:03:38.454000000</property>
  <property name="meta.media.15.codec.name">srt</property>
  <property name="meta.media.15.codec.long_name">SubRip subtitle</property>
  <property name="meta.media.15.codec.bit_rate">0</property>
  <property name="meta.attr.15.stream.language.markup">fin</property>
  <property name="meta.attr.15.stream.title.markup">Suomi</property>
  <property name="meta.attr.15.stream.DURATION.markup">01:55:10.154000000</property>
  <property name="meta.media.16.codec.name">srt</property>
  <property name="meta.media.16.codec.long_name">SubRip subtitle</property>
  <property name="meta.media.16.codec.bit_rate">0</property>
  <property name="meta.attr.16.stream.language.markup">swe</property>
  <property name="meta.attr.16.stream.title.markup">Svenska</property>
  <property name="meta.attr.16.stream.DURATION.markup">01:55:10.905000000</property>
  <property name="meta.media.17.codec.name">srt</property>
  <property name="meta.media.17.codec.long_name">SubRip subtitle</property>
  <property name="meta.media.17.codec.bit_rate">0</property>
  <property name="meta.attr.17.stream.language.markup">ice</property>
  <property name="meta.attr.17.stream.title.markup">Íslenska</property>
  <property name="meta.attr.17.stream.DURATION.markup">02:03:37.995000000</property>
  <property name="meta.media.18.codec.name">pgssub</property>
  <property name="meta.media.18.codec.long_name">HDMV Presentation Graphic Stream subtitles</property>
  <property name="meta.media.18.codec.bit_rate">0</property>
  <property name="meta.attr.18.stream.DURATION.markup">01:55:03.940000000</property>
  <property name="meta.attr.ENCODER.markup">Lavf58.67.100</property>
  <property name="meta.media.sample_aspect_num">1</property>
  <property name="meta.media.sample_aspect_den">1</property>
  <property name="meta.media.frame_rate_num">24000</property>
  <property name="meta.media.frame_rate_den">1001</property>
  <property name="meta.media.colorspace">709</property>
  <property name="meta.media.color_trc">1</property>
  <property name="meta.media.has_b_frames">2</property>
  <property name="meta.media.width">3840</property>
  <property name="meta.media.height">2160</property>
  <property name="meta.media.aspect_ratio">1</property>
  <property name="meta.media.color_range">mpeg</property>
  <property name="xml">was here</property>
  <property name="meta.media.top_field_first">0</property>
  <property name="meta.media.progressive">1</property>
  <property name="set.test_audio">0</property>
  <property name="set.test_image">1</property>
 </chain>
 <playlist id="playlist3">
  <property name="kdenlive:audio_track">1</property>
  <entry in="00:00:00.000" out="00:09:27.653" producer="chain3">
   <property name="kdenlive:id">4</property>
  </entry>
  <blank length="00:00:36.870"/>
  <entry in="00:10:46.088" out="00:12:07.257" producer="chain3">
   <property name="kdenlive:id">4</property>
  </entry>
  <blank length="00:00:37.079"/>
  <entry in="00:18:35.577" out="00:19:49.007" producer="chain3">
   <property name="kdenlive:id">4</property>
  </entry>
  <blank length="00:00:01.919"/>
  <entry in="00:20:25.692" out="00:20:46.546" producer="chain3">
   <property name="kdenlive:id">4</property>
  </entry>
  <blank length="00:01:54.805"/>
  <entry in="00:24:46.964" out="00:26:17.768" producer="chain3">
   <property name="kdenlive:id">4</property>
  </entry>
  <blank length="00:02:13.222"/>
  <entry in="00:29:28.195" out="00:30:35.911" producer="chain3">
   <property name="kdenlive:id">4</property>
  </entry>
  <blank length="00:02:22.189"/>
  <entry in="00:35:27.319" out="00:35:56.056" producer="chain3">
   <property name="kdenlive:id">4</property>
  </entry>
  <blank length="00:01:13.555"/>
  <entry in="00:38:25.859" out="00:42:15.474" producer="chain3">
   <property name="kdenlive:id">4</property>
  </entry>
  <blank length="00:02:45.879"/>
  <entry in="00:46:54.137" out="00:47:42.167" producer="chain3">
   <property name="kdenlive:id">4</property>
  </entry>
  <blank length="00:00:27.861"/>
  <entry in="00:48:51.927" out="00:49:59.017" producer="chain3">
   <property name="kdenlive:id">4</property>
  </entry>
  <blank length="00:01:10.719"/>
  <entry in="00:51:54.012" out="00:54:53.262" producer="chain3">
   <property name="kdenlive:id">4</property>
  </entry>
  <blank length="00:00:56.515"/>
  <entry in="00:57:18.060" out="00:58:38.121" producer="chain3">
   <property name="kdenlive:id">4</property>
  </entry>
  <blank length="00:01:03.045"/>
  <entry in="01:00:47.756" out="01:06:08.508" producer="chain3">
   <property name="kdenlive:id">4</property>
  </entry>
  <blank length="00:01:13.722"/>
  <entry in="01:07:50.926" out="01:07:59.226" producer="chain3">
   <property name="kdenlive:id">4</property>
  </entry>
  <blank length="00:00:11.094"/>
  <entry in="01:08:32.199" out="01:09:18.852" producer="chain3">
   <property name="kdenlive:id">4</property>
  </entry>
  <blank length="00:00:22.022"/>
  <entry in="01:12:09.718" out="01:13:21.355" producer="chain3">
   <property name="kdenlive:id">4</property>
  </entry>
  <blank length="00:00:58.684"/>
  <entry in="01:16:52.344" out="01:19:49.675" producer="chain3">
   <property name="kdenlive:id">4</property>
  </entry>
  <blank length="00:00:03.754"/>
  <entry in="01:20:43.126" out="01:24:09.551" producer="chain3">
   <property name="kdenlive:id">4</property>
   <filter id="filter7" in="01:24:06.006" out="01:24:09.551">
    <property name="window">75</property>
    <property name="max_gain">20dB</property>
    <property name="mlt_service">volume</property>
    <property name="kdenlive_id">fadeout</property>
    <property name="gain">1</property>
    <property name="end">0</property>
    <property name="kdenlive:collapsed">0</property>
   </filter>
  </entry>
  <blank length="00:23:37.120"/>
  <entry in="01:52:33.075" out="01:52:42.501" producer="chain3">
   <property name="kdenlive:id">4</property>
  </entry>
  <blank length="00:00:05.130"/>
  <entry in="01:53:45.504" out="01:53:50.133" producer="chain3">
   <property name="kdenlive:id">4</property>
  </entry>
 </playlist>
 <tractor id="tractor1" in="00:00:00.000" out="01:31:25.734">
  <property name="kdenlive:audio_track">1</property>
  <property name="kdenlive:trackheight">84</property>
  <property name="kdenlive:timeline_active">1</property>
  <property name="kdenlive:collapsed">0</property>
  <property name="kdenlive:thumbs_format"/>
  <property name="kdenlive:audio_rec"/>
  <track hide="video" producer="playlist2"/>
  <track hide="video" producer="playlist3"/>
  <transition id="transition36" in="01:21:16.183" out="01:21:19.186">
   <property name="a_track">0</property>
   <property name="b_track">1</property>
   <property name="mlt_service">mix</property>
   <property name="kdenlive_id">mix</property>
   <property name="kdenlive:mixcut">56</property>
   <property name="start">-1</property>
   <property name="accepts_blanks">1</property>
   <property name="reverse">0</property>
  </transition>
  <transition id="transition35" in="01:21:30.781" out="01:21:33.784">
   <property name="a_track">0</property>
   <property name="b_track">1</property>
   <property name="mlt_service">mix</property>
   <property name="kdenlive_id">mix</property>
   <property name="kdenlive:mixcut">36</property>
   <property name="start">-1</property>
   <property name="accepts_blanks">1</property>
   <property name="reverse">0</property>
  </transition>
  <transition id="transition34" in="00:57:36.036" out="00:57:39.039">
   <property name="a_track">0</property>
   <property name="b_track">1</property>
   <property name="mlt_service">mix</property>
   <property name="kdenlive_id">mix</property>
   <property name="kdenlive:mixcut">36</property>
   <property name="start">-1</property>
   <property name="accepts_blanks">1</property>
   <property name="reverse">1</property>
  </transition>
  <transition id="transition33" in="00:54:12.596" out="00:54:19.519">
   <property name="a_track">0</property>
   <property name="b_track">1</property>
   <property name="mlt_service">mix</property>
   <property name="kdenlive_id">mix</property>
   <property name="kdenlive:mixcut">154</property>
   <property name="start">-1</property>
   <property name="accepts_blanks">1</property>
   <property name="reverse">0</property>
  </transition>
  <transition id="transition32" in="00:54:07.841" out="00:54:08.842">
   <property name="a_track">0</property>
   <property name="b_track">1</property>
   <property name="mlt_service">mix</property>
   <property name="kdenlive_id">mix</property>
   <property name="kdenlive:mixcut">12</property>
   <property name="start">-1</property>
   <property name="accepts_blanks">1</property>
   <property name="reverse">1</property>
  </transition>
  <transition id="transition31" in="00:51:11.470" out="00:51:12.471">
   <property name="a_track">0</property>
   <property name="b_track">1</property>
   <property name="mlt_service">mix</property>
   <property name="kdenlive_id">mix</property>
   <property name="kdenlive:mixcut">12</property>
   <property name="start">-1</property>
   <property name="accepts_blanks">1</property>
   <property name="reverse">0</property>
  </transition>
  <transition id="transition30" in="00:50:08.800" out="00:50:12.763">
   <property name="a_track">0</property>
   <property name="b_track">1</property>
   <property name="mlt_service">mix</property>
   <property name="kdenlive_id">mix</property>
   <property name="kdenlive:mixcut">38</property>
   <property name="start">-1</property>
   <property name="accepts_blanks">1</property>
   <property name="reverse">1</property>
  </transition>
  <transition id="transition0" in="00:09:26.693" out="00:09:27.694">
   <property name="a_track">0</property>
   <property name="b_track">1</property>
   <property name="mlt_service">mix</property>
   <property name="kdenlive_id">mix</property>
   <property name="kdenlive:mixcut">12</property>
   <property name="start">-1</property>
   <property name="accepts_blanks">1</property>
   <property name="reverse">1</property>
  </transition>
  <transition id="transition1" in="00:10:04.588" out="00:10:05.589">
   <property name="a_track">0</property>
   <property name="b_track">1</property>
   <property name="mlt_service">mix</property>
   <property name="kdenlive_id">mix</property>
   <property name="kdenlive:mixcut">12</property>
   <property name="start">-1</property>
   <property name="accepts_blanks">1</property>
   <property name="reverse">0</property>
  </transition>
  <transition id="transition2" in="00:11:20.812" out="00:11:25.776">
   <property name="a_track">0</property>
   <property name="b_track">1</property>
   <property name="mlt_service">mix</property>
   <property name="kdenlive_id">mix</property>
   <property name="kdenlive:mixcut">67</property>
   <property name="start">-1</property>
   <property name="accepts_blanks">1</property>
   <property name="reverse">1</property>
  </transition>
  <transition id="transition3" in="00:12:02.878" out="00:12:06.924">
   <property name="a_track">0</property>
   <property name="b_track">1</property>
   <property name="mlt_service">mix</property>
   <property name="kdenlive_id">mix</property>
   <property name="kdenlive:mixcut">45</property>
   <property name="start">-1</property>
   <property name="accepts_blanks">1</property>
   <property name="reverse">0</property>
  </transition>
  <transition id="transition4" in="00:13:13.305" out="00:13:16.308">
   <property name="a_track">0</property>
   <property name="b_track">1</property>
   <property name="mlt_service">mix</property>
   <property name="kdenlive_id">mix</property>
   <property name="kdenlive:mixcut">36</property>
   <property name="start">-1</property>
   <property name="accepts_blanks">1</property>
   <property name="reverse">1</property>
  </transition>
  <transition id="transition5" in="00:13:18.227" out="00:13:19.228">
   <property name="a_track">0</property>
   <property name="b_track">1</property>
   <property name="mlt_service">mix</property>
   <property name="kdenlive_id">mix</property>
   <property name="kdenlive:mixcut">12</property>
   <property name="start">-1</property>
   <property name="accepts_blanks">1</property>
   <property name="reverse">0</property>
  </transition>
  <transition id="transition6" in="00:13:37.162" out="00:13:39.122">
   <property name="a_track">0</property>
   <property name="b_track">1</property>
   <property name="mlt_service">mix</property>
   <property name="kdenlive_id">mix</property>
   <property name="kdenlive:mixcut">21</property>
   <property name="start">-1</property>
   <property name="accepts_blanks">1</property>
   <property name="reverse">1</property>
  </transition>
  <transition id="transition7" in="00:15:33.909" out="00:15:34.910">
   <property name="a_track">0</property>
   <property name="b_track">1</property>
   <property name="mlt_service">mix</property>
   <property name="kdenlive_id">mix</property>
   <property name="kdenlive:mixcut">3</property>
   <property name="start">-1</property>
   <property name="accepts_blanks">1</property>
   <property name="reverse">0</property>
  </transition>
  <transition id="transition8" in="00:17:03.754" out="00:17:04.755">
   <property name="a_track">0</property>
   <property name="b_track">1</property>
   <property name="mlt_service">mix</property>
   <property name="kdenlive_id">mix</property>
   <property name="kdenlive:mixcut">12</property>
   <property name="start">-1</property>
   <property name="accepts_blanks">1</property>
   <property name="reverse">1</property>
  </transition>
  <transition id="transition9" in="00:19:17.976" out="00:19:18.977">
   <property name="a_track">0</property>
   <property name="b_track">1</property>
   <property name="mlt_service">mix</property>
   <property name="kdenlive_id">mix</property>
   <property name="kdenlive:mixcut">12</property>
   <property name="start">-1</property>
   <property name="accepts_blanks">1</property>
   <property name="reverse">0</property>
  </transition>
  <transition id="transition10" in="00:20:24.691" out="00:20:25.692">
   <property name="a_track">0</property>
   <property name="b_track">1</property>
   <property name="mlt_service">mix</property>
   <property name="kdenlive_id">mix</property>
   <property name="kdenlive:mixcut">12</property>
   <property name="start">-1</property>
   <property name="accepts_blanks">1</property>
   <property name="reverse">1</property>
  </transition>
  <transition id="transition11" in="00:22:47.881" out="00:22:48.298">
   <property name="a_track">0</property>
   <property name="b_track">1</property>
   <property name="mlt_service">mix</property>
   <property name="kdenlive_id">mix</property>
   <property name="kdenlive:mixcut">5</property>
   <property name="start">-1</property>
   <property name="accepts_blanks">1</property>
   <property name="reverse">0</property>
  </transition>
  <transition id="transition12" in="00:23:14.473" out="00:23:16.683">
   <property name="a_track">0</property>
   <property name="b_track">1</property>
   <property name="mlt_service">mix</property>
   <property name="kdenlive_id">mix</property>
   <property name="kdenlive:mixcut">12</property>
   <property name="start">-1</property>
   <property name="accepts_blanks">1</property>
   <property name="reverse">1</property>
  </transition>
  <transition id="transition13" in="00:24:30.197" out="00:24:31.198">
   <property name="a_track">0</property>
   <property name="b_track">1</property>
   <property name="mlt_service">mix</property>
   <property name="kdenlive_id">mix</property>
   <property name="kdenlive:mixcut">12</property>
   <property name="start">-1</property>
   <property name="accepts_blanks">1</property>
   <property name="reverse">0</property>
  </transition>
  <transition id="transition14" in="00:28:18.852" out="00:28:19.853">
   <property name="a_track">0</property>
   <property name="b_track">1</property>
   <property name="mlt_service">mix</property>
   <property name="kdenlive_id">mix</property>
   <property name="kdenlive:mixcut">12</property>
   <property name="start">-1</property>
   <property name="accepts_blanks">1</property>
   <property name="reverse">1</property>
  </transition>
  <transition id="transition15" in="00:31:05.714" out="00:31:06.715">
   <property name="a_track">0</property>
   <property name="b_track">1</property>
   <property name="mlt_service">mix</property>
   <property name="kdenlive_id">mix</property>
   <property name="kdenlive:mixcut">12</property>
   <property name="start">-1</property>
   <property name="accepts_blanks">1</property>
   <property name="reverse">0</property>
  </transition>
  <transition id="transition16" in="00:31:52.803" out="00:31:53.804">
   <property name="a_track">0</property>
   <property name="b_track">1</property>
   <property name="mlt_service">mix</property>
   <property name="kdenlive_id">mix</property>
   <property name="kdenlive:mixcut">12</property>
   <property name="reverse">1</property>
  </transition>
  <transition id="transition17" in="00:32:21.688" out="00:32:22.689">
   <property name="a_track">0</property>
   <property name="b_track">1</property>
   <property name="mlt_service">mix</property>
   <property name="kdenlive_id">mix</property>
   <property name="kdenlive:mixcut">12</property>
   <property name="start">-1</property>
   <property name="accepts_blanks">1</property>
   <property name="reverse">0</property>
  </transition>
  <transition id="transition18" in="00:33:25.234" out="00:33:28.820">
   <property name="a_track">0</property>
   <property name="b_track">1</property>
   <property name="mlt_service">mix</property>
   <property name="kdenlive_id">mix</property>
   <property name="kdenlive:mixcut">59</property>
   <property name="start">-1</property>
   <property name="accepts_blanks">1</property>
   <property name="reverse">1</property>
  </transition>
  <transition id="transition19" in="00:34:39.498" out="00:34:40.499">
   <property name="a_track">0</property>
   <property name="b_track">1</property>
   <property name="mlt_service">mix</property>
   <property name="kdenlive_id">mix</property>
   <property name="kdenlive:mixcut">12</property>
   <property name="start">-1</property>
   <property name="accepts_blanks">1</property>
   <property name="reverse">0</property>
  </transition>
  <transition id="transition20" in="00:37:34.576" out="00:37:38.830">
   <property name="a_track">0</property>
   <property name="b_track">1</property>
   <property name="mlt_service">mix</property>
   <property name="kdenlive_id">mix</property>
   <property name="kdenlive:mixcut">47</property>
   <property name="start">-1</property>
   <property name="accepts_blanks">1</property>
   <property name="reverse">1</property>
  </transition>
  <transition id="transition21" in="00:38:35.327" out="00:38:36.328">
   <property name="a_track">0</property>
   <property name="b_track">1</property>
   <property name="mlt_service">mix</property>
   <property name="kdenlive_id">mix</property>
   <property name="kdenlive:mixcut">12</property>
   <property name="start">-1</property>
   <property name="accepts_blanks">1</property>
   <property name="reverse">0</property>
  </transition>
  <transition id="transition22" in="00:39:52.552" out="00:39:55.430">
   <property name="a_track">0</property>
   <property name="b_track">1</property>
   <property name="mlt_service">mix</property>
   <property name="kdenlive_id">mix</property>
   <property name="kdenlive:mixcut">6</property>
   <property name="start">-1</property>
   <property name="accepts_blanks">1</property>
   <property name="reverse">1</property>
  </transition>
  <transition id="transition23" in="00:40:58.433" out="00:40:59.434">
   <property name="a_track">0</property>
   <property name="b_track">1</property>
   <property name="mlt_service">mix</property>
   <property name="kdenlive_id">mix</property>
   <property name="kdenlive:mixcut">12</property>
   <property name="start">-1</property>
   <property name="accepts_blanks">1</property>
   <property name="reverse">0</property>
  </transition>
  <transition id="transition24" in="00:46:17.684" out="00:46:19.228">
   <property name="a_track">0</property>
   <property name="b_track">1</property>
   <property name="mlt_service">mix</property>
   <property name="kdenlive_id">mix</property>
   <property name="kdenlive:mixcut">18</property>
   <property name="start">-1</property>
   <property name="accepts_blanks">1</property>
   <property name="reverse">1</property>
  </transition>
  <transition id="transition25" in="00:47:32.908" out="00:47:33.909">
   <property name="a_track">0</property>
   <property name="b_track">1</property>
   <property name="mlt_service">mix</property>
   <property name="kdenlive_id">mix</property>
   <property name="kdenlive:mixcut">12</property>
   <property name="start">-1</property>
   <property name="accepts_blanks">1</property>
   <property name="reverse">0</property>
  </transition>
  <transition id="transition26" in="00:47:37.913" out="00:47:41.250">
   <property name="a_track">0</property>
   <property name="b_track">1</property>
   <property name="mlt_service">mix</property>
   <property name="kdenlive_id">mix</property>
   <property name="kdenlive:mixcut">50</property>
   <property name="start">-1</property>
   <property name="accepts_blanks">1</property>
   <property name="reverse">1</property>
  </transition>
  <transition id="transition27" in="00:47:52.344" out="00:47:54.179">
   <property name="a_track">0</property>
   <property name="b_track">1</property>
   <property name="mlt_service">mix</property>
   <property name="kdenlive_id">mix</property>
   <property name="kdenlive:mixcut">12</property>
   <property name="start">-1</property>
   <property name="accepts_blanks">1</property>
   <property name="reverse">0</property>
  </transition>
  <transition id="transition28" in="00:48:36.078" out="00:48:39.081">
   <property name="a_track">0</property>
   <property name="b_track">1</property>
   <property name="mlt_service">mix</property>
   <property name="kdenlive_id">mix</property>
   <property name="kdenlive:mixcut">0</property>
   <property name="start">-1</property>
   <property name="accepts_blanks">1</property>
   <property name="reverse">1</property>
  </transition>
  <transition id="transition29" in="00:49:01.084" out="00:49:04.004">
   <property name="a_track">0</property>
   <property name="b_track">1</property>
   <property name="mlt_service">mix</property>
   <property name="kdenlive_id">mix</property>
   <property name="kdenlive:mixcut">36</property>
   <property name="start">-1</property>
   <property name="accepts_blanks">1</property>
   <property name="reverse">0</property>
  </transition>
  <filter id="filter8">
   <property name="window">75</property>
   <property name="max_gain">20dB</property>
   <property name="mlt_service">volume</property>
   <property name="internal_added">237</property>
   <property name="disable">1</property>
  </filter>
  <filter id="filter9">
   <property name="channel">-1</property>
   <property name="mlt_service">panner</property>
   <property name="internal_added">237</property>
   <property name="start">0.5</property>
   <property name="disable">1</property>
  </filter>
  <filter id="filter10">
   <property name="iec_scale">0</property>
   <property name="mlt_service">audiolevel</property>
   <property name="dbpeak">1</property>
   <property name="disable">1</property>
  </filter>
 </tractor>
 <chain id="chain4" out="02:03:40.457">
  <property name="length">177913</property>
  <property name="eof">pause</property>
  <property name="resource">The.Day.After.Tomorrow.2004.2160p.4K.WEB.x265.10bit.HDR.AAC5.1-[YTS.MX].mkv</property>
  <property name="mlt_service">avformat-novalidate</property>
  <property name="seekable">1</property>
  <property name="audio_index">1</property>
  <property name="video_index">0</property>
  <property name="vstream">0</property>
  <property name="astream">0</property>
  <property name="kdenlive:control_uuid">{2e76afd6-6504-4b9c-a80b-037a75b30f5c}</property>
  <property name="kdenlive:id">4</property>
  <property name="kdenlive:clip_type">0</property>
  <property name="kdenlive:file_size">6004064752</property>
  <property name="kdenlive:file_hash">53def859424aafecef434322c37b87c9</property>
  <property name="kdenlive:folderid">-1</property>
  <property name="kdenlive:monitorPosition">0</property>
  <property name="meta.media.nb_streams">19</property>
  <property name="meta.media.0.stream.type">video</property>
  <property name="meta.media.0.stream.frame_rate">23.976</property>
  <property name="meta.media.0.stream.sample_aspect_ratio">1</property>
  <property name="meta.media.0.codec.width">3840</property>
  <property name="meta.media.0.codec.height">2160</property>
  <property name="meta.media.0.codec.rotate">0</property>
  <property name="meta.media.0.codec.pix_fmt">yuv420p10le</property>
  <property name="meta.media.0.codec.sample_aspect_ratio">1</property>
  <property name="meta.media.0.codec.colorspace">709</property>
  <property name="meta.media.0.codec.color_trc">1</property>
  <property name="meta.media.0.codec.name">hevc</property>
  <property name="meta.media.0.codec.long_name">HEVC (High Efficiency Video Coding)</property>
  <property name="meta.media.0.codec.bit_rate">0</property>
  <property name="meta.attr.0.stream.ENCODER.markup">Lavc58.122.100 libx265</property>
  <property name="meta.attr.0.stream.DURATION.markup">02:03:40.081000000</property>
  <property name="meta.media.1.stream.type">audio</property>
  <property name="meta.media.1.codec.sample_fmt">fltp</property>
  <property name="meta.media.1.codec.sample_rate">48000</property>
  <property name="meta.media.1.codec.channels">6</property>
  <property name="meta.media.1.codec.layout">5.1</property>
  <property name="meta.media.1.codec.name">aac</property>
  <property name="meta.media.1.codec.long_name">AAC (Advanced Audio Coding)</property>
  <property name="meta.media.1.codec.bit_rate">0</property>
  <property name="meta.attr.1.stream.ENCODER.markup">Lavc58.122.100 libfdk_aac</property>
  <property name="meta.attr.1.stream.DURATION.markup">02:03:40.459000000</property>
  <property name="meta.media.2.codec.name">srt</property>
  <property name="meta.media.2.codec.long_name">SubRip subtitle</property>
  <property name="meta.media.2.codec.bit_rate">0</property>
  <property name="meta.attr.2.stream.language.markup">eng</property>
  <property name="meta.attr.2.stream.title.markup">English Forced</property>
  <property name="meta.attr.2.stream.DURATION.markup">00:11:14.091000000</property>
  <property name="meta.media.3.codec.name">srt</property>
  <property name="meta.media.3.codec.long_name">SubRip subtitle</property>
  <property name="meta.media.3.codec.bit_rate">0</property>
  <property name="meta.attr.3.stream.language.markup">eng</property>
  <property name="meta.attr.3.stream.title.markup">English [CC]</property>
  <property name="meta.attr.3.stream.DURATION.markup">02:03:38.495000000</property>
  <property name="meta.media.4.codec.name">srt</property>
  <property name="meta.media.4.codec.long_name">SubRip subtitle</property>
  <property name="meta.media.4.codec.bit_rate">0</property>
  <property name="meta.attr.4.stream.language.markup">dan</property>
  <property name="meta.attr.4.stream.title.markup">Dansk</property>
  <property name="meta.attr.4.stream.DURATION.markup">02:03:38.745000000</property>
  <property name="meta.media.5.codec.name">srt</property>
  <property name="meta.media.5.codec.long_name">SubRip subtitle</property>
  <property name="meta.media.5.codec.bit_rate">0</property>
  <property name="meta.attr.5.stream.language.markup">ger</property>
  <property name="meta.attr.5.stream.title.markup">Deutsch</property>
  <property name="meta.attr.5.stream.DURATION.markup">01:55:11.030000000</property>
  <property name="meta.media.6.codec.name">srt</property>
  <property name="meta.media.6.codec.long_name">SubRip subtitle</property>
  <property name="meta.media.6.codec.bit_rate">0</property>
  <property name="meta.attr.6.stream.language.markup">spa</property>
  <property name="meta.attr.6.stream.title.markup">Español</property>
  <property name="meta.attr.6.stream.DURATION.markup">01:55:10.446000000</property>
  <property name="meta.media.7.codec.name">srt</property>
  <property name="meta.media.7.codec.long_name">SubRip subtitle</property>
  <property name="meta.media.7.codec.bit_rate">0</property>
  <property name="meta.attr.7.stream.language.markup">spa</property>
  <property name="meta.attr.7.stream.title.markup">Español (Latinoamericano)</property>
  <property name="meta.attr.7.stream.DURATION.markup">02:03:37.244000000</property>
  <property name="meta.media.8.codec.name">srt</property>
  <property name="meta.media.8.codec.long_name">SubRip subtitle</property>
  <property name="meta.media.8.codec.bit_rate">0</property>
  <property name="meta.attr.8.stream.language.markup">fre</property>
  <property name="meta.attr.8.stream.title.markup">Français</property>
  <property name="meta.attr.8.stream.DURATION.markup">02:03:38.579000000</property>
  <property name="meta.media.9.codec.name">srt</property>
  <property name="meta.media.9.codec.long_name">SubRip subtitle</property>
  <property name="meta.media.9.codec.bit_rate">0</property>
  <property name="meta.attr.9.stream.language.markup">ita</property>
  <property name="meta.attr.9.stream.title.markup">Italiano</property>
  <property name="meta.attr.9.stream.DURATION.markup">02:03:36.952000000</property>
  <property name="meta.media.10.codec.name">srt</property>
  <property name="meta.media.10.codec.long_name">SubRip subtitle</property>
  <property name="meta.media.10.codec.bit_rate">0</property>
  <property name="meta.attr.10.stream.language.markup">dut</property>
  <property name="meta.attr.10.stream.title.markup">Nederlands</property>
  <property name="meta.attr.10.stream.DURATION.markup">02:03:36.452000000</property>
  <property name="meta.media.11.codec.name">srt</property>
  <property name="meta.media.11.codec.long_name">SubRip subtitle</property>
  <property name="meta.media.11.codec.bit_rate">0</property>
  <property name="meta.attr.11.stream.language.markup">nor</property>
  <property name="meta.attr.11.stream.title.markup">Norsk</property>
  <property name="meta.attr.11.stream.DURATION.markup">01:55:10.780000000</property>
  <property name="meta.media.12.codec.name">srt</property>
  <property name="meta.media.12.codec.long_name">SubRip subtitle</property>
  <property name="meta.media.12.codec.bit_rate">0</property>
  <property name="meta.attr.12.stream.language.markup">pol</property>
  <property name="meta.attr.12.stream.title.markup">Polski</property>
  <property name="meta.attr.12.stream.DURATION.markup">02:03:39.955000000</property>
  <property name="meta.media.13.codec.name">srt</property>
  <property name="meta.media.13.codec.long_name">SubRip subtitle</property>
  <property name="meta.media.13.codec.bit_rate">0</property>
  <property name="meta.attr.13.stream.language.markup">por</property>
  <property name="meta.attr.13.stream.title.markup">Português</property>
  <property name="meta.attr.13.stream.DURATION.markup">02:03:36.994000000</property>
  <property name="meta.media.14.codec.name">srt</property>
  <property name="meta.media.14.codec.long_name">SubRip subtitle</property>
  <property name="meta.media.14.codec.bit_rate">0</property>
  <property name="meta.attr.14.stream.language.markup">por</property>
  <property name="meta.attr.14.stream.title.markup">Português (Brasil)</property>
  <property name="meta.attr.14.stream.DURATION.markup">02:03:38.454000000</property>
  <property name="meta.media.15.codec.name">srt</property>
  <property name="meta.media.15.codec.long_name">SubRip subtitle</property>
  <property name="meta.media.15.codec.bit_rate">0</property>
  <property name="meta.attr.15.stream.language.markup">fin</property>
  <property name="meta.attr.15.stream.title.markup">Suomi</property>
  <property name="meta.attr.15.stream.DURATION.markup">01:55:10.154000000</property>
  <property name="meta.media.16.codec.name">srt</property>
  <property name="meta.media.16.codec.long_name">SubRip subtitle</property>
  <property name="meta.media.16.codec.bit_rate">0</property>
  <property name="meta.attr.16.stream.language.markup">swe</property>
  <property name="meta.attr.16.stream.title.markup">Svenska</property>
  <property name="meta.attr.16.stream.DURATION.markup">01:55:10.905000000</property>
  <property name="meta.media.17.codec.name">srt</property>
  <property name="meta.media.17.codec.long_name">SubRip subtitle</property>
  <property name="meta.media.17.codec.bit_rate">0</property>
  <property name="meta.attr.17.stream.language.markup">ice</property>
  <property name="meta.attr.17.stream.title.markup">Íslenska</property>
  <property name="meta.attr.17.stream.DURATION.markup">02:03:37.995000000</property>
  <property name="meta.media.18.codec.name">pgssub</property>
  <property name="meta.media.18.codec.long_name">HDMV Presentation Graphic Stream subtitles</property>
  <property name="meta.media.18.codec.bit_rate">0</property>
  <property name="meta.attr.18.stream.DURATION.markup">01:55:03.940000000</property>
  <property name="meta.attr.ENCODER.markup">Lavf58.67.100</property>
  <property name="meta.media.sample_aspect_num">1</property>
  <property name="meta.media.sample_aspect_den">1</property>
  <property name="meta.media.frame_rate_num">24000</property>
  <property name="meta.media.frame_rate_den">1001</property>
  <property name="meta.media.colorspace">709</property>
  <property name="meta.media.color_trc">1</property>
  <property name="meta.media.has_b_frames">2</property>
  <property name="meta.media.width">3840</property>
  <property name="meta.media.height">2160</property>
  <property name="meta.media.aspect_ratio">1</property>
  <property name="meta.media.color_range">mpeg</property>
  <property name="xml">was here</property>
  <property name="mute_on_pause">0</property>
  <property name="meta.media.top_field_first">0</property>
  <property name="meta.media.progressive">1</property>
  <property name="set.test_audio">1</property>
  <property name="set.test_image">0</property>
 </chain>
 <playlist id="playlist4">
  <entry in="00:00:00.000" out="00:09:27.152" producer="chain4">
   <property name="kdenlive:id">4</property>
  </entry>
  <entry in="00:09:48.006" out="00:10:25.859" producer="chain4">
   <property name="kdenlive:id">4</property>
  </entry>
  <entry in="00:10:46.588" out="00:12:04.463" producer="chain4">
   <property name="kdenlive:id">4</property>
  </entry>
  <entry in="00:15:42.793" out="00:16:24.816" producer="chain4">
   <property name="kdenlive:id">4</property>
  </entry>
  <entry in="00:18:37.746" out="00:19:47.714" producer="chain4">
   <property name="kdenlive:id">4</property>
  </entry>
  <blank length="00:00:03.712"/>
  <entry in="00:20:26.193" out="00:20:45.671" producer="chain4">
   <property name="kdenlive:id">4</property>
  </entry>
  <entry in="00:22:41.458" out="00:24:37.955" producer="chain4">
   <property name="kdenlive:id">4</property>
  </entry>
  <entry in="00:24:47.839" out="00:26:17.267" producer="chain4">
   <property name="kdenlive:id">4</property>
  </entry>
  <entry in="00:27:03.921" out="00:29:18.101" producer="chain4">
   <property name="kdenlive:id">4</property>
  </entry>
  <entry in="00:29:28.695" out="00:30:35.410" producer="chain4">
   <property name="kdenlive:id">4</property>
  </entry>
  <entry in="00:31:22.981" out="00:33:46.004" producer="chain4">
   <property name="kdenlive:id">4</property>
  </entry>
  <blank length="00:00:27.903"/>
  <entry in="00:36:43.752" out="00:37:58.433" producer="chain4">
   <property name="kdenlive:id">4</property>
  </entry>
  <blank length="00:03:48.507"/>
  <entry in="00:43:37.037" out="00:46:23.899" producer="chain4">
   <property name="kdenlive:id">4</property>
  </entry>
  <entry in="00:46:54.638" out="00:47:41.667" producer="chain4">
   <property name="kdenlive:id">4</property>
  </entry>
  <entry in="00:48:08.091" out="00:48:36.912" producer="chain4">
   <property name="kdenlive:id">4</property>
  </entry>
  <entry in="00:48:52.427" out="00:49:56.556" producer="chain4">
   <property name="kdenlive:id">4</property>
  </entry>
  <entry in="00:50:07.507" out="00:51:21.146" producer="chain4">
   <property name="kdenlive:id">4</property>
  </entry>
  <entry in="00:51:54.513" out="00:54:51.301" producer="chain4">
   <property name="kdenlive:id">4</property>
  </entry>
  <entry in="00:55:41.750" out="00:56:40.666" producer="chain4">
   <property name="kdenlive:id">4</property>
  </entry>
  <entry in="00:57:18.560" out="00:58:37.871" producer="chain4">
   <property name="kdenlive:id">4</property>
  </entry>
  <entry in="00:58:50.676" out="00:59:54.388" producer="chain4">
   <property name="kdenlive:id">4</property>
  </entry>
  <entry in="01:00:48.257" out="01:06:07.758" producer="chain4">
   <property name="kdenlive:id">4</property>
  </entry>
  <entry in="01:06:22.439" out="01:07:37.371" producer="chain4">
   <property name="kdenlive:id">4</property>
  </entry>
  <entry in="01:07:51.426" out="01:07:58.642" producer="chain4">
   <property name="kdenlive:id">4</property>
  </entry>
  <blank length="00:00:57.891"/>
  <entry in="01:11:02.753" out="01:11:26.652" producer="chain4">
   <property name="kdenlive:id">4</property>
   <filter id="filter11" in="01:11:02.753" out="01:11:03.712">
    <property name="start">1</property>
    <property name="level">1</property>
    <property name="mlt_service">brightness</property>
    <property name="kdenlive_id">fade_from_black</property>
    <property name="alpha">00:00:00.000=0;00:00:00.959=1</property>
    <property name="kdenlive:collapsed">0</property>
   </filter>
  </entry>
  <entry in="01:12:11.136" out="01:13:19.770" producer="chain4">
   <property name="kdenlive:id">4</property>
  </entry>
  <entry in="01:13:40.332" out="01:14:41.083" producer="chain4">
   <property name="kdenlive:id">4</property>
  </entry>
  <entry in="01:16:52.844" out="01:19:49.174" producer="chain4">
   <property name="kdenlive:id">4</property>
  </entry>
  <entry in="01:19:50.926" out="01:19:55.639" producer="chain4">
   <property name="kdenlive:id">4</property>
  </entry>
  <entry in="01:20:43.627" out="01:24:08.050" producer="chain4">
   <property name="kdenlive:id">4</property>
  </entry>
  <entry in="01:27:57.724" out="01:51:36.954" producer="chain4">
   <property name="kdenlive:id">4</property>
  </entry>
  <entry in="01:52:33.742" out="01:52:42.501" producer="chain4">
   <property name="kdenlive:id">4</property>
  </entry>
  <entry in="01:52:44.670" out="01:52:48.674" producer="chain4">
   <property name="kdenlive:id">4</property>
  </entry>
  <entry in="01:53:42.542" out="01:53:47.881" producer="chain4">
   <property name="kdenlive:id">4</property>
  </entry>
  <entry in="01:53:49.800" out="01:53:50.133" producer="chain4">
   <property name="kdenlive:id">4</property>
  </entry>
  <entry in="01:53:50.175" out="02:03:40.457" producer="chain4">
   <property name="kdenlive:id">4</property>
  </entry>
 </playlist>
 <chain id="chain5" out="02:03:40.457">
  <property name="length">177913</property>
  <property name="eof">pause</property>
  <property name="resource">The.Day.After.Tomorrow.2004.2160p.4K.WEB.x265.10bit.HDR.AAC5.1-[YTS.MX].mkv</property>
  <property name="mlt_service">avformat-novalidate</property>
  <property name="seekable">1</property>
  <property name="audio_index">1</property>
  <property name="video_index">0</property>
  <property name="vstream">0</property>
  <property name="astream">0</property>
  <property name="kdenlive:control_uuid">{2e76afd6-6504-4b9c-a80b-037a75b30f5c}</property>
  <property name="kdenlive:id">4</property>
  <property name="kdenlive:clip_type">0</property>
  <property name="kdenlive:file_size">6004064752</property>
  <property name="kdenlive:file_hash">53def859424aafecef434322c37b87c9</property>
  <property name="kdenlive:folderid">-1</property>
  <property name="kdenlive:monitorPosition">0</property>
  <property name="mute_on_pause">0</property>
  <property name="meta.media.nb_streams">19</property>
  <property name="meta.media.0.stream.type">video</property>
  <property name="meta.media.0.stream.frame_rate">23.976</property>
  <property name="meta.media.0.stream.sample_aspect_ratio">1</property>
  <property name="meta.media.0.codec.width">3840</property>
  <property name="meta.media.0.codec.height">2160</property>
  <property name="meta.media.0.codec.rotate">0</property>
  <property name="meta.media.0.codec.pix_fmt">yuv420p10le</property>
  <property name="meta.media.0.codec.sample_aspect_ratio">1</property>
  <property name="meta.media.0.codec.colorspace">709</property>
  <property name="meta.media.0.codec.color_trc">1</property>
  <property name="meta.media.0.codec.name">hevc</property>
  <property name="meta.media.0.codec.long_name">HEVC (High Efficiency Video Coding)</property>
  <property name="meta.media.0.codec.bit_rate">0</property>
  <property name="meta.attr.0.stream.ENCODER.markup">Lavc58.122.100 libx265</property>
  <property name="meta.attr.0.stream.DURATION.markup">02:03:40.081000000</property>
  <property name="meta.media.1.stream.type">audio</property>
  <property name="meta.media.1.codec.sample_fmt">fltp</property>
  <property name="meta.media.1.codec.sample_rate">48000</property>
  <property name="meta.media.1.codec.channels">6</property>
  <property name="meta.media.1.codec.layout">5.1</property>
  <property name="meta.media.1.codec.name">aac</property>
  <property name="meta.media.1.codec.long_name">AAC (Advanced Audio Coding)</property>
  <property name="meta.media.1.codec.bit_rate">0</property>
  <property name="meta.attr.1.stream.ENCODER.markup">Lavc58.122.100 libfdk_aac</property>
  <property name="meta.attr.1.stream.DURATION.markup">02:03:40.459000000</property>
  <property name="meta.media.2.codec.name">srt</property>
  <property name="meta.media.2.codec.long_name">SubRip subtitle</property>
  <property name="meta.media.2.codec.bit_rate">0</property>
  <property name="meta.attr.2.stream.language.markup">eng</property>
  <property name="meta.attr.2.stream.title.markup">English Forced</property>
  <property name="meta.attr.2.stream.DURATION.markup">00:11:14.091000000</property>
  <property name="meta.media.3.codec.name">srt</property>
  <property name="meta.media.3.codec.long_name">SubRip subtitle</property>
  <property name="meta.media.3.codec.bit_rate">0</property>
  <property name="meta.attr.3.stream.language.markup">eng</property>
  <property name="meta.attr.3.stream.title.markup">English [CC]</property>
  <property name="meta.attr.3.stream.DURATION.markup">02:03:38.495000000</property>
  <property name="meta.media.4.codec.name">srt</property>
  <property name="meta.media.4.codec.long_name">SubRip subtitle</property>
  <property name="meta.media.4.codec.bit_rate">0</property>
  <property name="meta.attr.4.stream.language.markup">dan</property>
  <property name="meta.attr.4.stream.title.markup">Dansk</property>
  <property name="meta.attr.4.stream.DURATION.markup">02:03:38.745000000</property>
  <property name="meta.media.5.codec.name">srt</property>
  <property name="meta.media.5.codec.long_name">SubRip subtitle</property>
  <property name="meta.media.5.codec.bit_rate">0</property>
  <property name="meta.attr.5.stream.language.markup">ger</property>
  <property name="meta.attr.5.stream.title.markup">Deutsch</property>
  <property name="meta.attr.5.stream.DURATION.markup">01:55:11.030000000</property>
  <property name="meta.media.6.codec.name">srt</property>
  <property name="meta.media.6.codec.long_name">SubRip subtitle</property>
  <property name="meta.media.6.codec.bit_rate">0</property>
  <property name="meta.attr.6.stream.language.markup">spa</property>
  <property name="meta.attr.6.stream.title.markup">Español</property>
  <property name="meta.attr.6.stream.DURATION.markup">01:55:10.446000000</property>
  <property name="meta.media.7.codec.name">srt</property>
  <property name="meta.media.7.codec.long_name">SubRip subtitle</property>
  <property name="meta.media.7.codec.bit_rate">0</property>
  <property name="meta.attr.7.stream.language.markup">spa</property>
  <property name="meta.attr.7.stream.title.markup">Español (Latinoamericano)</property>
  <property name="meta.attr.7.stream.DURATION.markup">02:03:37.244000000</property>
  <property name="meta.media.8.codec.name">srt</property>
  <property name="meta.media.8.codec.long_name">SubRip subtitle</property>
  <property name="meta.media.8.codec.bit_rate">0</property>
  <property name="meta.attr.8.stream.language.markup">fre</property>
  <property name="meta.attr.8.stream.title.markup">Français</property>
  <property name="meta.attr.8.stream.DURATION.markup">02:03:38.579000000</property>
  <property name="meta.media.9.codec.name">srt</property>
  <property name="meta.media.9.codec.long_name">SubRip subtitle</property>
  <property name="meta.media.9.codec.bit_rate">0</property>
  <property name="meta.attr.9.stream.language.markup">ita</property>
  <property name="meta.attr.9.stream.title.markup">Italiano</property>
  <property name="meta.attr.9.stream.DURATION.markup">02:03:36.952000000</property>
  <property name="meta.media.10.codec.name">srt</property>
  <property name="meta.media.10.codec.long_name">SubRip subtitle</property>
  <property name="meta.media.10.codec.bit_rate">0</property>
  <property name="meta.attr.10.stream.language.markup">dut</property>
  <property name="meta.attr.10.stream.title.markup">Nederlands</property>
  <property name="meta.attr.10.stream.DURATION.markup">02:03:36.452000000</property>
  <property name="meta.media.11.codec.name">srt</property>
  <property name="meta.media.11.codec.long_name">SubRip subtitle</property>
  <property name="meta.media.11.codec.bit_rate">0</property>
  <property name="meta.attr.11.stream.language.markup">nor</property>
  <property name="meta.attr.11.stream.title.markup">Norsk</property>
  <property name="meta.attr.11.stream.DURATION.markup">01:55:10.780000000</property>
  <property name="meta.media.12.codec.name">srt</property>
  <property name="meta.media.12.codec.long_name">SubRip subtitle</property>
  <property name="meta.media.12.codec.bit_rate">0</property>
  <property name="meta.attr.12.stream.language.markup">pol</property>
  <property name="meta.attr.12.stream.title.markup">Polski</property>
  <property name="meta.attr.12.stream.DURATION.markup">02:03:39.955000000</property>
  <property name="meta.media.13.codec.name">srt</property>
  <property name="meta.media.13.codec.long_name">SubRip subtitle</property>
  <property name="meta.media.13.codec.bit_rate">0</property>
  <property name="meta.attr.13.stream.language.markup">por</property>
  <property name="meta.attr.13.stream.title.markup">Português</property>
  <property name="meta.attr.13.stream.DURATION.markup">02:03:36.994000000</property>
  <property name="meta.media.14.codec.name">srt</property>
  <property name="meta.media.14.codec.long_name">SubRip subtitle</property>
  <property name="meta.media.14.codec.bit_rate">0</property>
  <property name="meta.attr.14.stream.language.markup">por</property>
  <property name="meta.attr.14.stream.title.markup">Português (Brasil)</property>
  <property name="meta.attr.14.stream.DURATION.markup">02:03:38.454000000</property>
  <property name="meta.media.15.codec.name">srt</property>
  <property name="meta.media.15.codec.long_name">SubRip subtitle</property>
  <property name="meta.media.15.codec.bit_rate">0</property>
  <property name="meta.attr.15.stream.language.markup">fin</property>
  <property name="meta.attr.15.stream.title.markup">Suomi</property>
  <property name="meta.attr.15.stream.DURATION.markup">01:55:10.154000000</property>
  <property name="meta.media.16.codec.name">srt</property>
  <property name="meta.media.16.codec.long_name">SubRip subtitle</property>
  <property name="meta.media.16.codec.bit_rate">0</property>
  <property name="meta.attr.16.stream.language.markup">swe</property>
  <property name="meta.attr.16.stream.title.markup">Svenska</property>
  <property name="meta.attr.16.stream.DURATION.markup">01:55:10.905000000</property>
  <property name="meta.media.17.codec.name">srt</property>
  <property name="meta.media.17.codec.long_name">SubRip subtitle</property>
  <property name="meta.media.17.codec.bit_rate">0</property>
  <property name="meta.attr.17.stream.language.markup">ice</property>
  <property name="meta.attr.17.stream.title.markup">Íslenska</property>
  <property name="meta.attr.17.stream.DURATION.markup">02:03:37.995000000</property>
  <property name="meta.media.18.codec.name">pgssub</property>
  <property name="meta.media.18.codec.long_name">HDMV Presentation Graphic Stream subtitles</property>
  <property name="meta.media.18.codec.bit_rate">0</property>
  <property name="meta.attr.18.stream.DURATION.markup">01:55:03.940000000</property>
  <property name="meta.attr.ENCODER.markup">Lavf58.67.100</property>
  <property name="meta.media.sample_aspect_num">1</property>
  <property name="meta.media.sample_aspect_den">1</property>
  <property name="meta.media.frame_rate_num">24000</property>
  <property name="meta.media.frame_rate_den">1001</property>
  <property name="meta.media.colorspace">709</property>
  <property name="meta.media.color_trc">1</property>
  <property name="meta.media.has_b_frames">2</property>
  <property name="meta.media.width">3840</property>
  <property name="meta.media.height">2160</property>
  <property name="meta.media.aspect_ratio">1</property>
  <property name="meta.media.color_range">mpeg</property>
  <property name="xml">was here</property>
  <property name="meta.media.top_field_first">0</property>
  <property name="meta.media.progressive">1</property>
  <property name="set.test_audio">1</property>
  <property name="set.test_image">0</property>
 </chain>
 <playlist id="playlist5">
  <blank length="00:13:14.598"/>
  <entry in="00:20:18.852" out="00:20:22.940" producer="chain5">
   <property name="kdenlive:id">4</property>
  </entry>
  <blank length="00:09:29.196"/>
  <entry in="00:35:27.361" out="00:35:55.555" producer="chain5">
   <property name="kdenlive:id">4</property>
  </entry>
  <blank length="00:01:14.389"/>
  <entry in="00:38:26.193" out="00:42:14.973" producer="chain5">
   <property name="kdenlive:id">4</property>
  </entry>
  <blank length="00:19:18.352"/>
  <entry in="01:07:58.433" out="01:08:14.389" producer="chain5">
   <property name="kdenlive:id">4</property>
  </entry>
  <entry in="01:08:33.533" out="01:09:19.353" producer="chain5">
   <property name="kdenlive:id">4</property>
  </entry>
 </playlist>
 <tractor id="tractor2" in="00:00:00.000" out="01:31:25.734">
  <property name="kdenlive:trackheight">84</property>
  <property name="kdenlive:timeline_active">1</property>
  <property name="kdenlive:collapsed">0</property>
  <property name="kdenlive:thumbs_format"/>
  <property name="kdenlive:audio_rec"/>
  <track hide="audio" producer="playlist4"/>
  <track hide="audio" producer="playlist5"/>
  <transition id="transition41" in="00:13:14.598" out="00:13:15.015">
   <property name="a_track">0</property>
   <property name="b_track">1</property>
   <property name="factory">loader</property>
   <property name="resource">luma01.pgm</property>
   <property name="mlt_service">luma</property>
   <property name="kdenlive_id">luma</property>
   <property name="kdenlive:mixcut">5</property>
   <property name="softness">0.62</property>
   <property name="alpha_over">1</property>
   <property name="fix_background_alpha">1</property>
   <property name="invert">0</property>
   <property name="reverse">0</property>
  </transition>
  <transition id="transition40" in="00:22:47.923" out="00:22:48.257">
   <property name="a_track">0</property>
   <property name="b_track">1</property>
   <property name="factory">loader</property>
   <property name="resource">luma01.pgm</property>
   <property name="mlt_service">luma</property>
   <property name="kdenlive_id">luma</property>
   <property name="kdenlive:mixcut">4</property>
   <property name="softness">0.56</property>
   <property name="alpha_over">1</property>
   <property name="fix_background_alpha">1</property>
   <property name="invert">0</property>
   <property name="reverse">0</property>
  </transition>
  <transition id="transition39" in="00:24:30.530" out="00:24:30.864">
   <property name="a_track">0</property>
   <property name="b_track">1</property>
   <property name="factory">loader</property>
   <property name="resource">luma01.pgm</property>
   <property name="mlt_service">luma</property>
   <property name="kdenlive_id">luma</property>
   <property name="kdenlive:mixcut">4</property>
   <property name="softness">0.66</property>
   <property name="alpha_over">1</property>
   <property name="fix_background_alpha">1</property>
   <property name="invert">0</property>
   <property name="reverse">0</property>
  </transition>
  <transition id="transition38" in="00:47:37.663" out="00:47:40.666">
   <property name="a_track">0</property>
   <property name="b_track">1</property>
   <property name="factory">loader</property>
   <property name="resource"/>
   <property name="mlt_service">luma</property>
   <property name="kdenlive_id">luma</property>
   <property name="kdenlive:mixcut">36</property>
   <property name="softness">0</property>
   <property name="alpha_over">1</property>
   <property name="fix_background_alpha">1</property>
   <property name="invert">0</property>
   <property name="reverse">0</property>
  </transition>
  <transition id="transition37" in="00:48:38.580" out="00:48:39.581">
   <property name="a_track">1</property>
   <property name="b_track">0</property>
   <property name="factory">loader</property>
   <property name="resource"/>
   <property name="mlt_service">luma</property>
   <property name="kdenlive_id">luma</property>
   <property name="kdenlive:mixcut">12</property>
   <property name="softness">0</property>
   <property name="alpha_over">1</property>
   <property name="fix_background_alpha">1</property>
   <property name="invert">0</property>
   <property name="reverse">0</property>
  </transition>
 </tractor>
 <playlist id="playlist6"/>
 <playlist id="playlist7"/>
 <tractor id="tractor3" in="00:00:00.000">
  <property name="kdenlive:trackheight">84</property>
  <property name="kdenlive:timeline_active">1</property>
  <property name="kdenlive:collapsed">0</property>
  <property name="kdenlive:thumbs_format"/>
  <property name="kdenlive:audio_rec"/>
  <track hide="audio" producer="playlist6"/>
  <track hide="audio" producer="playlist7"/>
 </tractor>
 <tractor id="tractor4" in="00:00:00.000" out="01:31:25.734">
  <property name="kdenlive:duration">01:31:25.776</property>
  <property name="kdenlive:maxduration">131526</property>
  <property name="kdenlive:clipname">Sequence 1</property>
  <property name="kdenlive:description"/>
  <property name="kdenlive:uuid">{616d4122-cb01-43dd-8764-e9ee648a931b}</property>
  <property name="kdenlive:producer_type">17</property>
  <property name="kdenlive:control_uuid">{616d4122-cb01-43dd-8764-e9ee648a931b}</property>
  <property name="kdenlive:id">3</property>
  <property name="kdenlive:clip_type">0</property>
  <property name="kdenlive:file_hash">166f5e02628af21cbb78c731df2d377f</property>
  <property name="kdenlive:folderid">2</property>
  <property name="kdenlive:sequenceproperties.activeTrack">2</property>
  <property name="kdenlive:sequenceproperties.audioTarget">1</property>
  <property name="kdenlive:sequenceproperties.disablepreview">0</property>
  <property name="kdenlive:sequenceproperties.documentuuid">{616d4122-cb01-43dd-8764-e9ee648a931b}</property>
  <property name="kdenlive:sequenceproperties.globalSubtitleStyles">[
]
</property>
  <property name="kdenlive:sequenceproperties.hasAudio">1</property>
  <property name="kdenlive:sequenceproperties.hasVideo">1</property>
  <property name="kdenlive:sequenceproperties.hidesubtitle">0</property>
  <property name="kdenlive:sequenceproperties.position">117041</property>
  <property name="kdenlive:sequenceproperties.scrollPos">7035</property>
  <property name="kdenlive:sequenceproperties.subtitlesList">[
    {
        "file": "C:/Users/kado/AppData/Local/Temp/1752357145352-{78bc9435-ed06-44df-9858-1312bf7fd2a7}.ass",
        "id": 0,
        "name": "Subtitles"
    }
]
</property>
  <property name="kdenlive:sequenceproperties.tracks">4</property>
  <property name="kdenlive:sequenceproperties.tracksCount">4</property>
  <property name="kdenlive:sequenceproperties.verticalzoom">1</property>
  <property name="kdenlive:sequenceproperties.videoTarget">2</property>
  <property name="kdenlive:sequenceproperties.zonein">48067</property>
  <property name="kdenlive:sequenceproperties.zoneout">48162</property>
  <property name="kdenlive:sequenceproperties.zoom">14</property>
  <property name="kdenlive:sequenceproperties.groups">[
    {
        "children": [
            {
                "data": "2:68899:-1",
                "leaf": "clip",
                "type": "Leaf"
            },
            {
                "data": "1:68867:-1",
                "leaf": "clip",
                "type": "Leaf"
            }
        ],
        "type": "AVSplit"
    },
    {
        "children": [
            {
                "data": "1:73641:-1",
                "leaf": "clip",
                "type": "Leaf"
            },
            {
                "data": "2:73653:-1",
                "leaf": "clip",
                "type": "Leaf"
            }
        ],
        "type": "AVSplit"
    },
    {
        "children": [
            {
                "data": "1:68401:-1",
                "leaf": "clip",
                "type": "Leaf"
            },
            {
                "data": "2:68413:-1",
                "leaf": "clip",
                "type": "Leaf"
            }
        ],
        "type": "AVSplit"
    },
    {
        "children": [
            {
                "data": "2:77996:-1",
                "leaf": "clip",
                "type": "Leaf"
            },
            {
                "data": "1:77984:-1",
                "leaf": "clip",
                "type": "Leaf"
            }
        ],
        "type": "AVSplit"
    },
    {
        "children": [
            {
                "data": "1:72139:-1",
                "leaf": "clip",
                "type": "Leaf"
            },
            {
                "data": "2:72196:-1",
                "leaf": "clip",
                "type": "Leaf"
            }
        ],
        "type": "AVSplit"
    },
    {
        "children": [
            {
                "data": "1:17331:-1",
                "leaf": "clip",
                "type": "Leaf"
            },
            {
                "data": "2:17383:-1",
                "leaf": "clip",
                "type": "Leaf"
            }
        ],
        "type": "AVSplit"
    },
    {
        "children": [
            {
                "data": "1:57363:-1",
                "leaf": "clip",
                "type": "Leaf"
            },
            {
                "data": "2:57426:-1",
                "leaf": "clip",
                "type": "Leaf"
            }
        ],
        "type": "AVSplit"
    },
    {
        "children": [
            {
                "data": "1:70515:-1",
                "leaf": "clip",
                "type": "Leaf"
            },
            {
                "data": "2:70549:-1",
                "leaf": "clip",
                "type": "Leaf"
            }
        ],
        "type": "AVSplit"
    },
    {
        "children": [
            {
                "data": "2:0:-1",
                "leaf": "clip",
                "type": "Leaf"
            },
            {
                "data": "1:0:-1",
                "leaf": "clip",
                "type": "Leaf"
            }
        ],
        "type": "AVSplit"
    },
    {
        "children": [
            {
                "data": "2:116926:-1",
                "leaf": "clip",
                "type": "Leaf"
            },
            {
                "data": "1:116910:-1",
                "leaf": "clip",
                "type": "Leaf"
            }
        ],
        "type": "AVSplit"
    },
    {
        "children": [
            {
                "data": "2:77882:-1",
                "leaf": "clip",
                "type": "Leaf"
            },
            {
                "data": "1:77870:-1",
                "leaf": "clip",
                "type": "Leaf"
            }
        ],
        "type": "AVSplit"
    },
    {
        "children": [
            {
                "data": "2:24557:-1",
                "leaf": "clip",
                "type": "Leaf"
            },
            {
                "data": "1:24545:-1",
                "leaf": "clip",
                "type": "Leaf"
            }
        ],
        "type": "AVSplit"
    },
    {
        "children": [
            {
                "data": "2:58955:-1",
                "leaf": "clip",
                "type": "Leaf"
            },
            {
                "data": "1:58943:-1",
                "leaf": "clip",
                "type": "Leaf"
            }
        ],
        "type": "AVSplit"
    },
    {
        "children": [
            {
                "data": "2:45873:-1",
                "leaf": "clip",
                "type": "Leaf"
            },
            {
                "data": "1:45861:-1",
                "leaf": "clip",
                "type": "Leaf"
            }
        ],
        "type": "AVSplit"
    },
    {
        "children": [
            {
                "data": "1:44732:-1",
                "leaf": "clip",
                "type": "Leaf"
            },
            {
                "data": "2:44744:-1",
                "leaf": "clip",
                "type": "Leaf"
            }
        ],
        "type": "AVSplit"
    },
    {
        "children": [
            {
                "data": "1:22391:-1",
                "leaf": "clip",
                "type": "Leaf"
            },
            {
                "data": "2:22412:-1",
                "leaf": "clip",
                "type": "Leaf"
            }
        ],
        "type": "AVSplit"
    },
    {
        "children": [
            {
                "data": "1:29363:-1",
                "leaf": "clip",
                "type": "Leaf"
            },
            {
                "data": "2:29375:-1",
                "leaf": "clip",
                "type": "Leaf"
            }
        ],
        "type": "AVSplit"
    },
    {
        "children": [
            {
                "data": "1:55512:-1",
                "leaf": "clip",
                "type": "Leaf"
            },
            {
                "data": "2:55524:-1",
                "leaf": "clip",
                "type": "Leaf"
            }
        ],
        "type": "AVSplit"
    },
    {
        "children": [
            {
                "data": "2:66616:-1",
                "leaf": "clip",
                "type": "Leaf"
            },
            {
                "data": "1:66597:-1",
                "leaf": "clip",
                "type": "Leaf"
            }
        ],
        "type": "AVSplit"
    },
    {
        "children": [
            {
                "data": "1:46553:-1",
                "leaf": "clip",
                "type": "Leaf"
            },
            {
                "data": "2:46565:-1",
                "leaf": "clip",
                "type": "Leaf"
            }
        ],
        "type": "AVSplit"
    },
    {
        "children": [
            {
                "data": "1:16323:-1",
                "leaf": "clip",
                "type": "Leaf"
            },
            {
                "data": "2:16375:-1",
                "leaf": "clip",
                "type": "Leaf"
            }
        ],
        "type": "AVSplit"
    },
    {
        "children": [
            {
                "data": "1:35249:-1",
                "leaf": "clip",
                "type": "Leaf"
            },
            {
                "data": "2:35257:-1",
                "leaf": "clip",
                "type": "Leaf"
            }
        ],
        "type": "AVSplit"
    },
    {
        "children": [
            {
                "data": "1:19138:-1",
                "leaf": "clip",
                "type": "Leaf"
            },
            {
                "data": "2:19150:-1",
                "leaf": "clip",
                "type": "Leaf"
            }
        ],
        "type": "AVSplit"
    },
    {
        "children": [
            {
                "data": "1:69915:-1",
                "leaf": "clip",
                "type": "Leaf"
            },
            {
                "data": "2:69975:-1",
                "leaf": "clip",
                "type": "Leaf"
            }
        ],
        "type": "AVSplit"
    },
    {
        "children": [
            {
                "data": "2:19618:-1",
                "leaf": "clip",
                "type": "Leaf"
            },
            {
                "data": "1:19592:-1",
                "leaf": "clip",
                "type": "Leaf"
            }
        ],
        "type": "AVSplit"
    },
    {
        "children": [
            {
                "data": "1:117372:-1",
                "leaf": "clip",
                "type": "Leaf"
            },
            {
                "data": "2:117372:-1",
                "leaf": "clip",
                "type": "Leaf"
            }
        ],
        "type": "AVSplit"
    },
    {
        "children": [
            {
                "data": "1:32796:-1",
                "leaf": "clip",
                "type": "Leaf"
            },
            {
                "data": "2:32797:-1",
                "leaf": "clip",
                "type": "Leaf"
            }
        ],
        "type": "AVSplit"
    },
    {
        "children": [
            {
                "data": "1:13587:-1",
                "leaf": "clip",
                "type": "Leaf"
            },
            {
                "data": "2:13599:-1",
                "leaf": "clip",
                "type": "Leaf"
            }
        ],
        "type": "AVSplit"
    },
    {
        "children": [
            {
                "data": "2:14507:-1",
                "leaf": "clip",
                "type": "Leaf"
            },
            {
                "data": "1:14495:-1",
                "leaf": "clip",
                "type": "Leaf"
            }
        ],
        "type": "AVSplit"
    },
    {
        "children": [
            {
                "data": "2:49870:-1",
                "leaf": "clip",
                "type": "Leaf"
            },
            {
                "data": "1:49858:-1",
                "leaf": "clip",
                "type": "Leaf"
            }
        ],
        "type": "AVSplit"
    },
    {
        "children": [
            {
                "data": "2:68515:-1",
                "leaf": "clip",
                "type": "Leaf"
            },
            {
                "data": "1:68521:-1",
                "leaf": "clip",
                "type": "Leaf"
            }
        ],
        "type": "AVSplit"
    },
    {
        "children": [
            {
                "data": "2:54110:-1",
                "leaf": "clip",
                "type": "Leaf"
            },
            {
                "data": "1:54055:-1",
                "leaf": "clip",
                "type": "Leaf"
            }
        ],
        "type": "AVSplit"
    },
    {
        "children": [
            {
                "data": "2:48104:-1",
                "leaf": "clip",
                "type": "Leaf"
            },
            {
                "data": "1:48077:-1",
                "leaf": "clip",
                "type": "Leaf"
            }
        ],
        "type": "AVSplit"
    },
    {
        "children": [
            {
                "data": "1:40731:-1",
                "leaf": "clip",
                "type": "Leaf"
            },
            {
                "data": "2:40743:-1",
                "leaf": "clip",
                "type": "Leaf"
            }
        ],
        "type": "AVSplit"
    },
    {
        "children": [
            {
                "data": "1:33433:-1",
                "leaf": "clip",
                "type": "Leaf"
            },
            {
                "data": "2:33474:-1",
                "leaf": "clip",
                "type": "Leaf"
            }
        ],
        "type": "AVSplit"
    },
    {
        "children": [
            {
                "data": "2:82898:-1",
                "leaf": "clip",
                "type": "Leaf"
            },
            {
                "data": "1:82862:-1",
                "leaf": "clip",
                "type": "Leaf"
            }
        ],
        "type": "AVSplit"
    },
    {
        "children": [
            {
                "data": "1:27763:-1",
                "leaf": "clip",
                "type": "Leaf"
            },
            {
                "data": "2:27775:-1",
                "leaf": "clip",
                "type": "Leaf"
            }
        ],
        "type": "AVSplit"
    },
    {
        "children": [
            {
                "data": "1:19020:-1",
                "leaf": "clip",
                "type": "Leaf"
            },
            {
                "data": "2:19051:-1",
                "leaf": "clip",
                "type": "Leaf"
            }
        ],
        "type": "AVSplit"
    }
]
</property>
  <property name="kdenlive:sequenceproperties.guides">[
]
</property>
  <track producer="producer0"/>
  <track producer="tractor0"/>
  <track producer="tractor1"/>
  <track producer="tractor2"/>
  <track producer="tractor3"/>
  <transition id="transition42">
   <property name="a_track">0</property>
   <property name="b_track">1</property>
   <property name="mlt_service">mix</property>
   <property name="kdenlive_id">mix</property>
   <property name="internal_added">237</property>
   <property name="always_active">1</property>
   <property name="accepts_blanks">1</property>
   <property name="sum">1</property>
  </transition>
  <transition id="transition43">
   <property name="a_track">0</property>
   <property name="b_track">2</property>
   <property name="mlt_service">mix</property>
   <property name="kdenlive_id">mix</property>
   <property name="internal_added">237</property>
   <property name="always_active">1</property>
   <property name="accepts_blanks">1</property>
   <property name="sum">1</property>
  </transition>
  <transition id="transition44">
   <property name="a_track">0</property>
   <property name="b_track">3</property>
   <property name="compositing">0</property>
   <property name="distort">0</property>
   <property name="rotate_center">0</property>
   <property name="mlt_service">qtblend</property>
   <property name="kdenlive_id">qtblend</property>
   <property name="internal_added">237</property>
   <property name="always_active">1</property>
  </transition>
  <transition id="transition45">
   <property name="a_track">0</property>
   <property name="b_track">4</property>
   <property name="compositing">0</property>
   <property name="distort">0</property>
   <property name="rotate_center">0</property>
   <property name="mlt_service">qtblend</property>
   <property name="kdenlive_id">qtblend</property>
   <property name="internal_added">237</property>
   <property name="always_active">1</property>
  </transition>
  <filter id="filter12">
   <property name="window">75</property>
   <property name="max_gain">20dB</property>
   <property name="mlt_service">volume</property>
   <property name="internal_added">237</property>
   <property name="disable">1</property>
  </filter>
  <filter id="filter13">
   <property name="channel">-1</property>
   <property name="mlt_service">panner</property>
   <property name="internal_added">237</property>
   <property name="start">0.5</property>
   <property name="disable">1</property>
  </filter>
  <filter id="filter14">
   <property name="mlt_service">avfilter.subtitles</property>
   <property name="av.alpha">1</property>
   <property name="internal_added">237</property>
   <property name="av.filename">The Day After Tomorrow (2004) - Chemtrail Edition.kdenlive.ass</property>
   <property name="disable">1</property>
  </filter>
 </tractor>
 <playlist id="main_bin">
  <property name="kdenlive:folder.-1.2">Sequences</property>
  <property name="kdenlive:sequenceFolder">2</property>
  <property name="kdenlive:docproperties.activetimeline">{616d4122-cb01-43dd-8764-e9ee648a931b}</property>
  <property name="kdenlive:docproperties.audioChannels">2</property>
  <property name="kdenlive:docproperties.binsort">0</property>
  <property name="kdenlive:docproperties.browserurl">C:/Users/kado/Videos/Alien Resurrection/</property>
  <property name="kdenlive:docproperties.documentid">1752357145352</property>
  <property name="kdenlive:docproperties.enableTimelineZone">0</property>
  <property name="kdenlive:docproperties.enableexternalproxy">0</property>
  <property name="kdenlive:docproperties.enableproxy">0</property>
  <property name="kdenlive:docproperties.externalproxyparams">./;;.LRV;./;;.MP4</property>
  <property name="kdenlive:docproperties.generateimageproxy">0</property>
  <property name="kdenlive:docproperties.generateproxy">0</property>
  <property name="kdenlive:docproperties.guidesCategories">[
    {
        "color": "#9b59b6",
        "comment": "Category 1",
        "index": 0
    },
    {
        "color": "#3daee9",
        "comment": "Category 2",
        "index": 1
    },
    {
        "color": "#1abc9c",
        "comment": "Category 3",
        "index": 2
    },
    {
        "color": "#1cdc9a",
        "comment": "Category 4",
        "index": 3
    },
    {
        "color": "#c9ce3b",
        "comment": "Category 5",
        "index": 4
    },
    {
        "color": "#fdbc4b",
        "comment": "Category 6",
        "index": 5
    },
    {
        "color": "#f39c1f",
        "comment": "Category 7",
        "index": 6
    },
    {
        "color": "#f47750",
        "comment": "Category 8",
        "index": 7
    },
    {
        "color": "#da4453",
        "comment": "Category 9",
        "index": 8
    }
]
</property>
  <property name="kdenlive:docproperties.kdenliveversion">25.04.2</property>
  <property name="kdenlive:docproperties.opensequences">{616d4122-cb01-43dd-8764-e9ee648a931b}</property>
  <property name="kdenlive:docproperties.previewextension"/>
  <property name="kdenlive:docproperties.previewparameters"/>
  <property name="kdenlive:docproperties.profile">uhd_2160p_2398</property>
  <property name="kdenlive:docproperties.proxyextension"/>
  <property name="kdenlive:docproperties.proxyimageminsize">2000</property>
  <property name="kdenlive:docproperties.proxyimagesize">800</property>
  <property name="kdenlive:docproperties.proxyminsize">1000</property>
  <property name="kdenlive:docproperties.proxyparams"/>
  <property name="kdenlive:docproperties.proxyresize">640</property>
  <property name="kdenlive:docproperties.rendercategory">Generic (HD for web, mobile devices...)</property>
  <property name="kdenlive:docproperties.rendercustomquality">75</property>
  <property name="kdenlive:docproperties.renderendguide">-1</property>
  <property name="kdenlive:docproperties.renderexportaudio">0</property>
  <property name="kdenlive:docproperties.renderfullcolorrange">0</property>
  <property name="kdenlive:docproperties.rendermode">0</property>
  <property name="kdenlive:docproperties.renderplay">0</property>
  <property name="kdenlive:docproperties.renderpreview">0</property>
  <property name="kdenlive:docproperties.renderprofile">Matroska-H264/AAC</property>
  <property name="kdenlive:docproperties.renderrescale">0</property>
  <property name="kdenlive:docproperties.renderrescaleheight">1080</property>
  <property name="kdenlive:docproperties.renderrescalewidth">1920</property>
  <property name="kdenlive:docproperties.renderspeed">0</property>
  <property name="kdenlive:docproperties.renderstartguide">-1</property>
  <property name="kdenlive:docproperties.rendertcoverlay">0</property>
  <property name="kdenlive:docproperties.rendertctype">-1</property>
  <property name="kdenlive:docproperties.rendertwopass">0</property>
  <property name="kdenlive:docproperties.renderurl">C:/Users/kado/Videos/The Day After Tomorrow (2004) - Chemtrail Edition 75.mkv</property>
  <property name="kdenlive:docproperties.seekOffset">30000</property>
  <property name="kdenlive:docproperties.sessionid">{a0a1301b-0a00-48ec-a68a-005b980d5201}</property>
  <property name="kdenlive:docproperties.uuid">{616d4122-cb01-43dd-8764-e9ee648a931b}</property>
  <property name="kdenlive:docproperties.version">1.1</property>
  <property name="kdenlive:expandedFolders"/>
  <property name="kdenlive:binZoom">4</property>
  <property name="kdenlive:extraBins">project_bin:-1:0</property>
  <property name="kdenlive:documentnotes">&lt;!DOCTYPE HTML PUBLIC "-//W3C//DTD HTML 4.0//EN" "http://www.w3.org/TR/REC-html40/strict.dtd">
&lt;html>&lt;head>&lt;meta name="qrichtext" content="1" />&lt;meta charset="utf-8" />&lt;style type="text/css">
p, li { white-space: pre-wrap; }
hr { height: 1px; border-width: 0; }
li.unchecked::marker { content: "\2610"; }
li.checked::marker { content: "\2612"; }
&lt;/style>&lt;/head>&lt;body style=" font-family:'Segoe UI'; font-size:9pt; font-weight:400; font-style:normal;">
&lt;p style=" margin-top:0px; margin-bottom:0px; margin-left:0px; margin-right:0px; -qt-block-indent:0; text-indent:0px;">Errors found when opening project file (Tue Jul 15 21:18:05 2025)&lt;br />&lt;a href="{616d4122-cb01-43dd-8764-e9ee648a931b}!19618?1">&lt;span style=" text-decoration: underline; color:#1d99f3;">A2 00:13:38:05&lt;/span>&lt;/a> Clip (chain0) on incorrect subtrack found and fixed / 973&lt;br />&lt;a href="{616d4122-cb01-43dd-8764-e9ee648a931b}!19650?1">&lt;span style=" text-decoration: underline; color:#1d99f3;">A2 00:13:39:13&lt;/span>&lt;/a> Clip (chain0) on incorrect subtrack found and fixed / 973&lt;/p>&lt;/body>&lt;/html></property>
  <property name="kdenlive:documentnotesversion">2</property>
  <property name="xml_retain">1</property>
  <entry in="00:00:00.000" out="02:03:40.457" producer="chain2"/>
  <entry in="00:00:00.000" out="01:31:25.734" producer="tractor4"/>
 </playlist>
 <tractor id="tractor5" in="00:00:00.000" out="01:31:25.734">
  <property name="kdenlive:projectTractor">1</property>
  <track in="00:00:00.000" out="01:31:25.734" producer="tractor4"/>
 </tractor>
</mlt>
