<?xml version='1.0' encoding='utf-8'?>
<mlt LC_NUMERIC="en_US.UTF-8" producer="main_bin" root="/FanEdits/FanMixes/Alena Edition/Flow - Alena Edition" version="7.33.0">
 <profile colorspace="2020" description="3840x2160 24.00fps" display_aspect_den="9" display_aspect_num="16" frame_rate_den="1" frame_rate_num="24" height="2160" progressive="1" sample_aspect_den="1" sample_aspect_num="1" width="3840"/>
 <chain id="chain7" out="01:23:34.042">
  <property name="length">120338</property>
  <property name="eof">pause</property>
  <property name="resource">/General Movies/Flow (2024) [1080p]/Flow.2024.UHD.BluRay.2160p.DTS-HD.MA.5.1.HEVC.REMUX.mkv</property>
  <property name="mlt_service">avformat-novalidate</property>
  <property name="meta.media.nb_streams">5</property>
  <property name="meta.media.0.stream.type">video</property>
  <property name="meta.media.0.stream.frame_rate">24</property>
  <property name="meta.media.0.stream.sample_aspect_ratio">1</property>
  <property name="meta.media.0.codec.width">3840</property>
  <property name="meta.media.0.codec.height">2160</property>
  <property name="meta.media.0.codec.rotate">0</property>
  <property name="meta.media.0.codec.pix_fmt">yuv420p10le</property>
  <property name="meta.media.0.codec.sample_aspect_ratio">1</property>
  <property name="meta.media.0.codec.colorspace">9</property>
  <property name="meta.media.0.codec.color_trc">16</property>
  <property name="meta.media.0.codec.name">hevc</property>
  <property name="meta.media.0.codec.long_name">HEVC (High Efficiency Video Coding)</property>
  <property name="meta.media.0.codec.bit_rate">0</property>
  <property name="meta.attr.0.stream.BPS.markup">60764431</property>
  <property name="meta.attr.0.stream.DURATION.markup">01:23:34.083000000</property>
  <property name="meta.attr.0.stream.NUMBER_OF_FRAMES.markup">120338</property>
  <property name="meta.attr.0.stream.NUMBER_OF_BYTES.markup">38084737888</property>
  <property name="meta.attr.0.stream._STATISTICS_WRITING_APP.markup">mkvmerge v92.0 ('Everglow') 64-bit</property>
  <property name="meta.attr.0.stream._STATISTICS_WRITING_DATE_UTC.markup">2025-06-01 10:54:39</property>
  <property name="meta.attr.0.stream._STATISTICS_TAGS.markup">BPS DURATION NUMBER_OF_FRAMES NUMBER_OF_BYTES</property>
  <property name="meta.media.1.stream.type">audio</property>
  <property name="meta.media.1.codec.sample_fmt">s32p</property>
  <property name="meta.media.1.codec.sample_rate">48000</property>
  <property name="meta.media.1.codec.channels">6</property>
  <property name="meta.media.1.codec.layout">5.1(side)</property>
  <property name="meta.media.1.codec.name">dca</property>
  <property name="meta.media.1.codec.long_name">DCA (DTS Coherent Acoustics)</property>
  <property name="meta.media.1.codec.bit_rate">0</property>
  <property name="meta.attr.1.stream.language.markup">zxx</property>
  <property name="meta.attr.1.stream.title.markup">DTS-HD MA 5.1</property>
  <property name="meta.attr.1.stream.BPS.markup">4278196</property>
  <property name="meta.attr.1.stream.DURATION.markup">01:23:33.504000000</property>
  <property name="meta.attr.1.stream.NUMBER_OF_FRAMES.markup">470016</property>
  <property name="meta.attr.1.stream.NUMBER_OF_BYTES.markup">2681094132</property>
  <property name="meta.attr.1.stream._STATISTICS_WRITING_APP.markup">mkvmerge v92.0 ('Everglow') 64-bit</property>
  <property name="meta.attr.1.stream._STATISTICS_WRITING_DATE_UTC.markup">2025-06-01 10:54:39</property>
  <property name="meta.attr.1.stream._STATISTICS_TAGS.markup">BPS DURATION NUMBER_OF_FRAMES NUMBER_OF_BYTES</property>
  <property name="meta.media.2.codec.name">srt</property>
  <property name="meta.media.2.codec.long_name">SubRip subtitle</property>
  <property name="meta.media.2.codec.bit_rate">0</property>
  <property name="meta.attr.2.stream.language.markup">eng</property>
  <property name="meta.attr.2.stream.title.markup">English (SDH)</property>
  <property name="meta.attr.2.stream.BPS.markup">6</property>
  <property name="meta.attr.2.stream.DURATION.markup">01:18:40.049000000</property>
  <property name="meta.attr.2.stream.NUMBER_OF_FRAMES.markup">250</property>
  <property name="meta.attr.2.stream.NUMBER_OF_BYTES.markup">3703</property>
  <property name="meta.attr.2.stream._STATISTICS_WRITING_APP.markup">mkvmerge v92.0 ('Everglow') 64-bit</property>
  <property name="meta.attr.2.stream._STATISTICS_WRITING_DATE_UTC.markup">2025-06-01 10:54:39</property>
  <property name="meta.attr.2.stream._STATISTICS_TAGS.markup">BPS DURATION NUMBER_OF_FRAMES NUMBER_OF_BYTES</property>
  <property name="meta.media.3.codec.name">pgssub</property>
  <property name="meta.media.3.codec.long_name">HDMV Presentation Graphic Stream subtitles</property>
  <property name="meta.media.3.codec.bit_rate">0</property>
  <property name="meta.attr.3.stream.language.markup">ita</property>
  <property name="meta.attr.3.stream.title.markup">Italian (SDH)</property>
  <property name="meta.attr.3.stream.BPS.markup">13896</property>
  <property name="meta.attr.3.stream.DURATION.markup">01:23:20.166000000</property>
  <property name="meta.attr.3.stream.NUMBER_OF_FRAMES.markup">1204</property>
  <property name="meta.attr.3.stream.NUMBER_OF_BYTES.markup">8685457</property>
  <property name="meta.attr.3.stream._STATISTICS_WRITING_APP.markup">mkvmerge v92.0 ('Everglow') 64-bit</property>
  <property name="meta.attr.3.stream._STATISTICS_WRITING_DATE_UTC.markup">2025-06-01 10:54:39</property>
  <property name="meta.attr.3.stream._STATISTICS_TAGS.markup">BPS DURATION NUMBER_OF_FRAMES NUMBER_OF_BYTES</property>
  <property name="meta.media.4.codec.name">srt</property>
  <property name="meta.media.4.codec.long_name">SubRip subtitle</property>
  <property name="meta.media.4.codec.bit_rate">0</property>
  <property name="meta.attr.4.stream.language.markup">spa</property>
  <property name="meta.attr.4.stream.title.markup">Spanish (Latin American) (SDH)</property>
  <property name="meta.attr.4.stream.BPS.markup">6</property>
  <property name="meta.attr.4.stream.DURATION.markup">01:18:40.090000000</property>
  <property name="meta.attr.4.stream.NUMBER_OF_FRAMES.markup">250</property>
  <property name="meta.attr.4.stream.NUMBER_OF_BYTES.markup">4039</property>
  <property name="meta.attr.4.stream._STATISTICS_WRITING_APP.markup">mkvmerge v92.0 ('Everglow') 64-bit</property>
  <property name="meta.attr.4.stream._STATISTICS_WRITING_DATE_UTC.markup">2025-06-01 10:54:39</property>
  <property name="meta.attr.4.stream._STATISTICS_TAGS.markup">BPS DURATION NUMBER_OF_FRAMES NUMBER_OF_BYTES</property>
  <property name="meta.attr.title.markup">Flow (2024)</property>
  <property name="meta.attr.encoder.markup">libebml v1.4.5 + libmatroska v1.7.1</property>
  <property name="meta.attr.creation_time.markup">2025-06-01T10:54:39.000000Z</property>
  <property name="meta.attr.IMDB.markup">tt4772188</property>
  <property name="meta.attr.TMDB.markup">movie/823219</property>
  <property name="seekable">1</property>
  <property name="meta.media.sample_aspect_num">1</property>
  <property name="meta.media.sample_aspect_den">1</property>
  <property name="audio_index">1</property>
  <property name="video_index">0</property>
  <property name="vstream">0</property>
  <property name="meta.media.frame_rate_num">24</property>
  <property name="meta.media.frame_rate_den">1</property>
  <property name="meta.media.colorspace">2020</property>
  <property name="meta.media.color_trc">16</property>
  <property name="meta.media.has_b_frames">2</property>
  <property name="meta.media.width">3840</property>
  <property name="meta.media.height">2160</property>
  <property name="meta.media.aspect_ratio">1</property>
  <property name="meta.media.color_range">mpeg</property>
  <property name="astream">0</property>
  <property name="meta.media.top_field_first">0</property>
  <property name="meta.media.progressive">1</property>
  <property name="kdenlive:control_uuid">{7f57417e-3091-410f-9154-45c89a37d365}</property>
  <property name="kdenlive:id">5</property>
  <property name="kdenlive:clip_type">0</property>
  <property name="kdenlive:file_size">40777075497</property>
  <property name="kdenlive:file_hash">1cf619a910dcfde085033c6823150fde</property>
  <property name="kdenlive:folderid">-1</property>
  <property name="mute_on_pause">0</property>
 </chain>
 <producer id="producer0" in="00:00:00.000" out="01:13:29.750">
  <property name="length">2147483647</property>
  <property name="eof">continue</property>
  <property name="resource">black</property>
  <property name="aspect_ratio">1</property>
  <property name="mlt_service">color</property>
  <property name="kdenlive:playlistid">black_track</property>
  <property name="mlt_image_format">rgba</property>
  <property name="set.test_audio">0</property>
 </producer>
 <playlist id="playlist0">
  <property name="kdenlive:audio_track">1</property>
 </playlist>
 <playlist id="playlist1">
  <property name="kdenlive:audio_track">1</property>
 </playlist>
 <tractor id="tractor0" in="00:00:00.000">
  <property name="kdenlive:audio_track">1</property>
  <property name="kdenlive:trackheight">84</property>
  <property name="kdenlive:timeline_active">1</property>
  <property name="kdenlive:collapsed">0</property>
  <property name="kdenlive:thumbs_format"/>
  <property name="kdenlive:audio_rec"/>
  <track hide="both" producer="playlist0"/>
  <track hide="both" producer="playlist1"/>
  <filter id="filter0">
   <property name="window">75</property>
   <property name="max_gain">20dB</property>
   <property name="mlt_service">volume</property>
   <property name="internal_added">237</property>
   <property name="disable">1</property>
  </filter>
  <filter id="filter1">
   <property name="channel">-1</property>
   <property name="mlt_service">panner</property>
   <property name="internal_added">237</property>
   <property name="start">0.5</property>
   <property name="disable">1</property>
  </filter>
  <filter id="filter2">
   <property name="iec_scale">0</property>
   <property name="mlt_service">audiolevel</property>
   <property name="dbpeak">1</property>
   <property name="disable">1</property>
  </filter>
 </tractor>
 <chain id="chain2" out="01:23:34.042">
  <property name="length">120338</property>
  <property name="eof">pause</property>
  <property name="resource">/General Movies/Flow (2024) [1080p]/Flow.2024.UHD.BluRay.2160p.DTS-HD.MA.5.1.HEVC.REMUX.mkv</property>
  <property name="mlt_service">avformat-novalidate</property>
  <property name="seekable">1</property>
  <property name="audio_index">1</property>
  <property name="video_index">0</property>
  <property name="vstream">0</property>
  <property name="astream">0</property>
  <property name="kdenlive:control_uuid">{7f57417e-3091-410f-9154-45c89a37d365}</property>
  <property name="kdenlive:id">5</property>
  <property name="kdenlive:clip_type">0</property>
  <property name="kdenlive:file_size">40777075497</property>
  <property name="kdenlive:file_hash">1cf619a910dcfde085033c6823150fde</property>
  <property name="kdenlive:folderid">-1</property>
  <property name="meta.media.nb_streams">5</property>
  <property name="meta.media.0.stream.type">video</property>
  <property name="meta.media.0.stream.frame_rate">24</property>
  <property name="meta.media.0.stream.sample_aspect_ratio">1</property>
  <property name="meta.media.0.codec.width">3840</property>
  <property name="meta.media.0.codec.height">2160</property>
  <property name="meta.media.0.codec.rotate">0</property>
  <property name="meta.media.0.codec.pix_fmt">yuv420p10le</property>
  <property name="meta.media.0.codec.sample_aspect_ratio">1</property>
  <property name="meta.media.0.codec.colorspace">9</property>
  <property name="meta.media.0.codec.color_trc">16</property>
  <property name="meta.media.0.codec.name">hevc</property>
  <property name="meta.media.0.codec.long_name">HEVC (High Efficiency Video Coding)</property>
  <property name="meta.media.0.codec.bit_rate">0</property>
  <property name="meta.attr.0.stream.BPS.markup">60764431</property>
  <property name="meta.attr.0.stream.DURATION.markup">01:23:34.083000000</property>
  <property name="meta.attr.0.stream.NUMBER_OF_FRAMES.markup">120338</property>
  <property name="meta.attr.0.stream.NUMBER_OF_BYTES.markup">38084737888</property>
  <property name="meta.attr.0.stream._STATISTICS_WRITING_APP.markup">mkvmerge v92.0 ('Everglow') 64-bit</property>
  <property name="meta.attr.0.stream._STATISTICS_WRITING_DATE_UTC.markup">2025-06-01 10:54:39</property>
  <property name="meta.attr.0.stream._STATISTICS_TAGS.markup">BPS DURATION NUMBER_OF_FRAMES NUMBER_OF_BYTES</property>
  <property name="meta.media.1.stream.type">audio</property>
  <property name="meta.media.1.codec.sample_fmt">s32p</property>
  <property name="meta.media.1.codec.sample_rate">48000</property>
  <property name="meta.media.1.codec.channels">6</property>
  <property name="meta.media.1.codec.layout">5.1(side)</property>
  <property name="meta.media.1.codec.name">dca</property>
  <property name="meta.media.1.codec.long_name">DCA (DTS Coherent Acoustics)</property>
  <property name="meta.media.1.codec.bit_rate">0</property>
  <property name="meta.attr.1.stream.language.markup">zxx</property>
  <property name="meta.attr.1.stream.title.markup">DTS-HD MA 5.1</property>
  <property name="meta.attr.1.stream.BPS.markup">4278196</property>
  <property name="meta.attr.1.stream.DURATION.markup">01:23:33.504000000</property>
  <property name="meta.attr.1.stream.NUMBER_OF_FRAMES.markup">470016</property>
  <property name="meta.attr.1.stream.NUMBER_OF_BYTES.markup">2681094132</property>
  <property name="meta.attr.1.stream._STATISTICS_WRITING_APP.markup">mkvmerge v92.0 ('Everglow') 64-bit</property>
  <property name="meta.attr.1.stream._STATISTICS_WRITING_DATE_UTC.markup">2025-06-01 10:54:39</property>
  <property name="meta.attr.1.stream._STATISTICS_TAGS.markup">BPS DURATION NUMBER_OF_FRAMES NUMBER_OF_BYTES</property>
  <property name="meta.media.2.codec.name">srt</property>
  <property name="meta.media.2.codec.long_name">SubRip subtitle</property>
  <property name="meta.media.2.codec.bit_rate">0</property>
  <property name="meta.attr.2.stream.language.markup">eng</property>
  <property name="meta.attr.2.stream.title.markup">English (SDH)</property>
  <property name="meta.attr.2.stream.BPS.markup">6</property>
  <property name="meta.attr.2.stream.DURATION.markup">01:18:40.049000000</property>
  <property name="meta.attr.2.stream.NUMBER_OF_FRAMES.markup">250</property>
  <property name="meta.attr.2.stream.NUMBER_OF_BYTES.markup">3703</property>
  <property name="meta.attr.2.stream._STATISTICS_WRITING_APP.markup">mkvmerge v92.0 ('Everglow') 64-bit</property>
  <property name="meta.attr.2.stream._STATISTICS_WRITING_DATE_UTC.markup">2025-06-01 10:54:39</property>
  <property name="meta.attr.2.stream._STATISTICS_TAGS.markup">BPS DURATION NUMBER_OF_FRAMES NUMBER_OF_BYTES</property>
  <property name="meta.media.3.codec.name">pgssub</property>
  <property name="meta.media.3.codec.long_name">HDMV Presentation Graphic Stream subtitles</property>
  <property name="meta.media.3.codec.bit_rate">0</property>
  <property name="meta.attr.3.stream.language.markup">ita</property>
  <property name="meta.attr.3.stream.title.markup">Italian (SDH)</property>
  <property name="meta.attr.3.stream.BPS.markup">13896</property>
  <property name="meta.attr.3.stream.DURATION.markup">01:23:20.166000000</property>
  <property name="meta.attr.3.stream.NUMBER_OF_FRAMES.markup">1204</property>
  <property name="meta.attr.3.stream.NUMBER_OF_BYTES.markup">8685457</property>
  <property name="meta.attr.3.stream._STATISTICS_WRITING_APP.markup">mkvmerge v92.0 ('Everglow') 64-bit</property>
  <property name="meta.attr.3.stream._STATISTICS_WRITING_DATE_UTC.markup">2025-06-01 10:54:39</property>
  <property name="meta.attr.3.stream._STATISTICS_TAGS.markup">BPS DURATION NUMBER_OF_FRAMES NUMBER_OF_BYTES</property>
  <property name="meta.media.4.codec.name">srt</property>
  <property name="meta.media.4.codec.long_name">SubRip subtitle</property>
  <property name="meta.media.4.codec.bit_rate">0</property>
  <property name="meta.attr.4.stream.language.markup">spa</property>
  <property name="meta.attr.4.stream.title.markup">Spanish (Latin American) (SDH)</property>
  <property name="meta.attr.4.stream.BPS.markup">6</property>
  <property name="meta.attr.4.stream.DURATION.markup">01:18:40.090000000</property>
  <property name="meta.attr.4.stream.NUMBER_OF_FRAMES.markup">250</property>
  <property name="meta.attr.4.stream.NUMBER_OF_BYTES.markup">4039</property>
  <property name="meta.attr.4.stream._STATISTICS_WRITING_APP.markup">mkvmerge v92.0 ('Everglow') 64-bit</property>
  <property name="meta.attr.4.stream._STATISTICS_WRITING_DATE_UTC.markup">2025-06-01 10:54:39</property>
  <property name="meta.attr.4.stream._STATISTICS_TAGS.markup">BPS DURATION NUMBER_OF_FRAMES NUMBER_OF_BYTES</property>
  <property name="meta.attr.title.markup">Flow (2024)</property>
  <property name="meta.attr.encoder.markup">libebml v1.4.5 + libmatroska v1.7.1</property>
  <property name="meta.attr.creation_time.markup">2025-06-01T10:54:39.000000Z</property>
  <property name="meta.attr.IMDB.markup">tt4772188</property>
  <property name="meta.attr.TMDB.markup">movie/823219</property>
  <property name="meta.media.sample_aspect_num">1</property>
  <property name="meta.media.sample_aspect_den">1</property>
  <property name="meta.media.frame_rate_num">24</property>
  <property name="meta.media.frame_rate_den">1</property>
  <property name="meta.media.colorspace">2020</property>
  <property name="meta.media.color_trc">16</property>
  <property name="meta.media.has_b_frames">2</property>
  <property name="meta.media.width">3840</property>
  <property name="meta.media.height">2160</property>
  <property name="meta.media.aspect_ratio">1</property>
  <property name="meta.media.color_range">mpeg</property>
  <property name="xml">was here</property>
  <property name="mute_on_pause">0</property>
  <property name="meta.media.top_field_first">0</property>
  <property name="meta.media.progressive">1</property>
  <property name="set.test_audio">0</property>
  <property name="set.test_image">1</property>
 </chain>
 <playlist id="playlist2">
  <property name="kdenlive:audio_track">1</property>
  <entry in="00:00:00.000" out="00:19:18.083" producer="chain2">
   <property name="kdenlive:id">5</property>
  </entry>
  <blank length="00:06:33.958"/>
  <entry in="00:31:12.833" out="00:33:42.875" producer="chain2">
   <property name="kdenlive:id">5</property>
   <property name="kdenlive:activeeffect">0</property>
  </entry>
  <blank length="00:21:15.958"/>
  <entry in="01:01:26.625" out="01:17:39.583" producer="chain2">
   <property name="kdenlive:id">5</property>
  </entry>
 </playlist>
 <chain id="chain3" out="01:23:34.042">
  <property name="length">120338</property>
  <property name="eof">pause</property>
  <property name="resource">/General Movies/Flow (2024) [1080p]/Flow.2024.UHD.BluRay.2160p.DTS-HD.MA.5.1.HEVC.REMUX.mkv</property>
  <property name="mlt_service">avformat-novalidate</property>
  <property name="seekable">1</property>
  <property name="audio_index">1</property>
  <property name="video_index">0</property>
  <property name="vstream">0</property>
  <property name="astream">0</property>
  <property name="kdenlive:control_uuid">{7f57417e-3091-410f-9154-45c89a37d365}</property>
  <property name="kdenlive:id">5</property>
  <property name="kdenlive:clip_type">0</property>
  <property name="kdenlive:file_size">40777075497</property>
  <property name="kdenlive:file_hash">1cf619a910dcfde085033c6823150fde</property>
  <property name="kdenlive:folderid">-1</property>
  <property name="meta.media.nb_streams">5</property>
  <property name="meta.media.0.stream.type">video</property>
  <property name="meta.media.0.stream.frame_rate">24</property>
  <property name="meta.media.0.stream.sample_aspect_ratio">1</property>
  <property name="meta.media.0.codec.width">3840</property>
  <property name="meta.media.0.codec.height">2160</property>
  <property name="meta.media.0.codec.rotate">0</property>
  <property name="meta.media.0.codec.pix_fmt">yuv420p10le</property>
  <property name="meta.media.0.codec.sample_aspect_ratio">1</property>
  <property name="meta.media.0.codec.colorspace">9</property>
  <property name="meta.media.0.codec.color_trc">16</property>
  <property name="meta.media.0.codec.name">hevc</property>
  <property name="meta.media.0.codec.long_name">HEVC (High Efficiency Video Coding)</property>
  <property name="meta.media.0.codec.bit_rate">0</property>
  <property name="meta.attr.0.stream.BPS.markup">60764431</property>
  <property name="meta.attr.0.stream.DURATION.markup">01:23:34.083000000</property>
  <property name="meta.attr.0.stream.NUMBER_OF_FRAMES.markup">120338</property>
  <property name="meta.attr.0.stream.NUMBER_OF_BYTES.markup">38084737888</property>
  <property name="meta.attr.0.stream._STATISTICS_WRITING_APP.markup">mkvmerge v92.0 ('Everglow') 64-bit</property>
  <property name="meta.attr.0.stream._STATISTICS_WRITING_DATE_UTC.markup">2025-06-01 10:54:39</property>
  <property name="meta.attr.0.stream._STATISTICS_TAGS.markup">BPS DURATION NUMBER_OF_FRAMES NUMBER_OF_BYTES</property>
  <property name="meta.media.1.stream.type">audio</property>
  <property name="meta.media.1.codec.sample_fmt">s32p</property>
  <property name="meta.media.1.codec.sample_rate">48000</property>
  <property name="meta.media.1.codec.channels">6</property>
  <property name="meta.media.1.codec.layout">5.1(side)</property>
  <property name="meta.media.1.codec.name">dca</property>
  <property name="meta.media.1.codec.long_name">DCA (DTS Coherent Acoustics)</property>
  <property name="meta.media.1.codec.bit_rate">0</property>
  <property name="meta.attr.1.stream.language.markup">zxx</property>
  <property name="meta.attr.1.stream.title.markup">DTS-HD MA 5.1</property>
  <property name="meta.attr.1.stream.BPS.markup">4278196</property>
  <property name="meta.attr.1.stream.DURATION.markup">01:23:33.504000000</property>
  <property name="meta.attr.1.stream.NUMBER_OF_FRAMES.markup">470016</property>
  <property name="meta.attr.1.stream.NUMBER_OF_BYTES.markup">2681094132</property>
  <property name="meta.attr.1.stream._STATISTICS_WRITING_APP.markup">mkvmerge v92.0 ('Everglow') 64-bit</property>
  <property name="meta.attr.1.stream._STATISTICS_WRITING_DATE_UTC.markup">2025-06-01 10:54:39</property>
  <property name="meta.attr.1.stream._STATISTICS_TAGS.markup">BPS DURATION NUMBER_OF_FRAMES NUMBER_OF_BYTES</property>
  <property name="meta.media.2.codec.name">srt</property>
  <property name="meta.media.2.codec.long_name">SubRip subtitle</property>
  <property name="meta.media.2.codec.bit_rate">0</property>
  <property name="meta.attr.2.stream.language.markup">eng</property>
  <property name="meta.attr.2.stream.title.markup">English (SDH)</property>
  <property name="meta.attr.2.stream.BPS.markup">6</property>
  <property name="meta.attr.2.stream.DURATION.markup">01:18:40.049000000</property>
  <property name="meta.attr.2.stream.NUMBER_OF_FRAMES.markup">250</property>
  <property name="meta.attr.2.stream.NUMBER_OF_BYTES.markup">3703</property>
  <property name="meta.attr.2.stream._STATISTICS_WRITING_APP.markup">mkvmerge v92.0 ('Everglow') 64-bit</property>
  <property name="meta.attr.2.stream._STATISTICS_WRITING_DATE_UTC.markup">2025-06-01 10:54:39</property>
  <property name="meta.attr.2.stream._STATISTICS_TAGS.markup">BPS DURATION NUMBER_OF_FRAMES NUMBER_OF_BYTES</property>
  <property name="meta.media.3.codec.name">pgssub</property>
  <property name="meta.media.3.codec.long_name">HDMV Presentation Graphic Stream subtitles</property>
  <property name="meta.media.3.codec.bit_rate">0</property>
  <property name="meta.attr.3.stream.language.markup">ita</property>
  <property name="meta.attr.3.stream.title.markup">Italian (SDH)</property>
  <property name="meta.attr.3.stream.BPS.markup">13896</property>
  <property name="meta.attr.3.stream.DURATION.markup">01:23:20.166000000</property>
  <property name="meta.attr.3.stream.NUMBER_OF_FRAMES.markup">1204</property>
  <property name="meta.attr.3.stream.NUMBER_OF_BYTES.markup">8685457</property>
  <property name="meta.attr.3.stream._STATISTICS_WRITING_APP.markup">mkvmerge v92.0 ('Everglow') 64-bit</property>
  <property name="meta.attr.3.stream._STATISTICS_WRITING_DATE_UTC.markup">2025-06-01 10:54:39</property>
  <property name="meta.attr.3.stream._STATISTICS_TAGS.markup">BPS DURATION NUMBER_OF_FRAMES NUMBER_OF_BYTES</property>
  <property name="meta.media.4.codec.name">srt</property>
  <property name="meta.media.4.codec.long_name">SubRip subtitle</property>
  <property name="meta.media.4.codec.bit_rate">0</property>
  <property name="meta.attr.4.stream.language.markup">spa</property>
  <property name="meta.attr.4.stream.title.markup">Spanish (Latin American) (SDH)</property>
  <property name="meta.attr.4.stream.BPS.markup">6</property>
  <property name="meta.attr.4.stream.DURATION.markup">01:18:40.090000000</property>
  <property name="meta.attr.4.stream.NUMBER_OF_FRAMES.markup">250</property>
  <property name="meta.attr.4.stream.NUMBER_OF_BYTES.markup">4039</property>
  <property name="meta.attr.4.stream._STATISTICS_WRITING_APP.markup">mkvmerge v92.0 ('Everglow') 64-bit</property>
  <property name="meta.attr.4.stream._STATISTICS_WRITING_DATE_UTC.markup">2025-06-01 10:54:39</property>
  <property name="meta.attr.4.stream._STATISTICS_TAGS.markup">BPS DURATION NUMBER_OF_FRAMES NUMBER_OF_BYTES</property>
  <property name="meta.attr.title.markup">Flow (2024)</property>
  <property name="meta.attr.encoder.markup">libebml v1.4.5 + libmatroska v1.7.1</property>
  <property name="meta.attr.creation_time.markup">2025-06-01T10:54:39.000000Z</property>
  <property name="meta.attr.IMDB.markup">tt4772188</property>
  <property name="meta.attr.TMDB.markup">movie/823219</property>
  <property name="meta.media.sample_aspect_num">1</property>
  <property name="meta.media.sample_aspect_den">1</property>
  <property name="meta.media.frame_rate_num">24</property>
  <property name="meta.media.frame_rate_den">1</property>
  <property name="meta.media.colorspace">2020</property>
  <property name="meta.media.color_trc">16</property>
  <property name="meta.media.has_b_frames">2</property>
  <property name="meta.media.width">3840</property>
  <property name="meta.media.height">2160</property>
  <property name="meta.media.aspect_ratio">1</property>
  <property name="meta.media.color_range">mpeg</property>
  <property name="xml">was here</property>
  <property name="mute_on_pause">0</property>
  <property name="meta.media.top_field_first">0</property>
  <property name="meta.media.progressive">1</property>
  <property name="set.test_audio">0</property>
  <property name="set.test_image">1</property>
 </chain>
 <playlist id="playlist3">
  <property name="kdenlive:audio_track">1</property>
  <blank length="00:19:17.125"/>
  <entry in="00:23:43.125" out="00:30:23.042" producer="chain3">
   <property name="kdenlive:id">5</property>
  </entry>
  <blank length="00:02:24.083"/>
  <entry in="00:38:25.958" out="00:38:29.833" producer="chain3">
   <property name="kdenlive:id">5</property>
  </entry>
  <entry in="00:38:29.875" out="00:59:47.875" producer="chain3">
   <property name="kdenlive:id">5</property>
  </entry>
  <blank length="00:16:03.000"/>
  <entry in="01:20:50.458" out="01:23:34.042" producer="chain3">
   <property name="kdenlive:id">5</property>
  </entry>
 </playlist>
 <tractor id="tractor1" in="00:00:00.000" out="01:08:29.708">
  <property name="kdenlive:audio_track">1</property>
  <property name="kdenlive:trackheight">84</property>
  <property name="kdenlive:timeline_active">1</property>
  <property name="kdenlive:collapsed">0</property>
  <property name="kdenlive:thumbs_format"/>
  <property name="kdenlive:audio_rec"/>
  <track hide="video" producer="playlist2"/>
  <track hide="video" producer="playlist3"/>
  <transition id="transition9" in="01:05:46.125" out="01:05:51.125">
   <property name="a_track">0</property>
   <property name="b_track">1</property>
   <property name="mlt_service">mix</property>
   <property name="kdenlive_id">mix</property>
   <property name="kdenlive:mixcut">0</property>
   <property name="start">-1</property>
   <property name="accepts_blanks">1</property>
   <property name="reverse">0</property>
  </transition>
  <transition id="transition8" in="00:49:38.125" out="00:49:43.125">
   <property name="a_track">0</property>
   <property name="b_track">1</property>
   <property name="mlt_service">mix</property>
   <property name="kdenlive_id">mix</property>
   <property name="kdenlive:mixcut">60</property>
   <property name="start">-1</property>
   <property name="accepts_blanks">1</property>
   <property name="reverse">1</property>
  </transition>
  <transition id="transition6" in="00:25:52.083" out="00:25:57.083">
   <property name="a_track">0</property>
   <property name="b_track">1</property>
   <property name="mlt_service">mix</property>
   <property name="kdenlive_id">mix</property>
   <property name="kdenlive:mixcut">60</property>
   <property name="start">-1</property>
   <property name="accepts_blanks">1</property>
   <property name="reverse">1</property>
  </transition>
  <transition id="transition5" in="00:19:17.125" out="00:19:18.125">
   <property name="a_track">0</property>
   <property name="b_track">1</property>
   <property name="mlt_service">mix</property>
   <property name="kdenlive_id">mix</property>
   <property name="kdenlive:mixcut">12</property>
   <property name="start">-1</property>
   <property name="accepts_blanks">1</property>
   <property name="reverse">0</property>
  </transition>
  <transition id="transition0" in="00:28:21.167" out="00:28:22.167">
   <property name="a_track">0</property>
   <property name="b_track">1</property>
   <property name="mlt_service">mix</property>
   <property name="kdenlive_id">mix</property>
   <property name="kdenlive:mixcut">12</property>
   <property name="start">-1</property>
   <property name="accepts_blanks">1</property>
   <property name="reverse">0</property>
  </transition>
  <filter id="filter5">
   <property name="window">75</property>
   <property name="max_gain">20dB</property>
   <property name="mlt_service">volume</property>
   <property name="internal_added">237</property>
   <property name="disable">1</property>
  </filter>
  <filter id="filter6">
   <property name="channel">-1</property>
   <property name="mlt_service">panner</property>
   <property name="internal_added">237</property>
   <property name="start">0.5</property>
   <property name="disable">1</property>
  </filter>
  <filter id="filter3">
   <property name="iec_scale">0</property>
   <property name="mlt_service">audiolevel</property>
   <property name="dbpeak">1</property>
   <property name="disable">1</property>
  </filter>
 </tractor>
 <chain id="chain4" out="01:23:34.042">
  <property name="length">120338</property>
  <property name="eof">pause</property>
  <property name="resource">/General Movies/Flow (2024) [1080p]/Flow.2024.UHD.BluRay.2160p.DTS-HD.MA.5.1.HEVC.REMUX.mkv</property>
  <property name="mlt_service">avformat-novalidate</property>
  <property name="seekable">1</property>
  <property name="audio_index">1</property>
  <property name="video_index">0</property>
  <property name="vstream">0</property>
  <property name="astream">0</property>
  <property name="kdenlive:control_uuid">{7f57417e-3091-410f-9154-45c89a37d365}</property>
  <property name="kdenlive:id">5</property>
  <property name="kdenlive:clip_type">0</property>
  <property name="kdenlive:file_size">40777075497</property>
  <property name="kdenlive:file_hash">1cf619a910dcfde085033c6823150fde</property>
  <property name="kdenlive:folderid">-1</property>
  <property name="meta.media.nb_streams">5</property>
  <property name="meta.media.0.stream.type">video</property>
  <property name="meta.media.0.stream.frame_rate">24</property>
  <property name="meta.media.0.stream.sample_aspect_ratio">1</property>
  <property name="meta.media.0.codec.width">3840</property>
  <property name="meta.media.0.codec.height">2160</property>
  <property name="meta.media.0.codec.rotate">0</property>
  <property name="meta.media.0.codec.pix_fmt">yuv420p10le</property>
  <property name="meta.media.0.codec.sample_aspect_ratio">1</property>
  <property name="meta.media.0.codec.colorspace">9</property>
  <property name="meta.media.0.codec.color_trc">16</property>
  <property name="meta.media.0.codec.name">hevc</property>
  <property name="meta.media.0.codec.long_name">HEVC (High Efficiency Video Coding)</property>
  <property name="meta.media.0.codec.bit_rate">0</property>
  <property name="meta.attr.0.stream.BPS.markup">60764431</property>
  <property name="meta.attr.0.stream.DURATION.markup">01:23:34.083000000</property>
  <property name="meta.attr.0.stream.NUMBER_OF_FRAMES.markup">120338</property>
  <property name="meta.attr.0.stream.NUMBER_OF_BYTES.markup">38084737888</property>
  <property name="meta.attr.0.stream._STATISTICS_WRITING_APP.markup">mkvmerge v92.0 ('Everglow') 64-bit</property>
  <property name="meta.attr.0.stream._STATISTICS_WRITING_DATE_UTC.markup">2025-06-01 10:54:39</property>
  <property name="meta.attr.0.stream._STATISTICS_TAGS.markup">BPS DURATION NUMBER_OF_FRAMES NUMBER_OF_BYTES</property>
  <property name="meta.media.1.stream.type">audio</property>
  <property name="meta.media.1.codec.sample_fmt">s32p</property>
  <property name="meta.media.1.codec.sample_rate">48000</property>
  <property name="meta.media.1.codec.channels">6</property>
  <property name="meta.media.1.codec.layout">5.1(side)</property>
  <property name="meta.media.1.codec.name">dca</property>
  <property name="meta.media.1.codec.long_name">DCA (DTS Coherent Acoustics)</property>
  <property name="meta.media.1.codec.bit_rate">0</property>
  <property name="meta.attr.1.stream.language.markup">zxx</property>
  <property name="meta.attr.1.stream.title.markup">DTS-HD MA 5.1</property>
  <property name="meta.attr.1.stream.BPS.markup">4278196</property>
  <property name="meta.attr.1.stream.DURATION.markup">01:23:33.504000000</property>
  <property name="meta.attr.1.stream.NUMBER_OF_FRAMES.markup">470016</property>
  <property name="meta.attr.1.stream.NUMBER_OF_BYTES.markup">2681094132</property>
  <property name="meta.attr.1.stream._STATISTICS_WRITING_APP.markup">mkvmerge v92.0 ('Everglow') 64-bit</property>
  <property name="meta.attr.1.stream._STATISTICS_WRITING_DATE_UTC.markup">2025-06-01 10:54:39</property>
  <property name="meta.attr.1.stream._STATISTICS_TAGS.markup">BPS DURATION NUMBER_OF_FRAMES NUMBER_OF_BYTES</property>
  <property name="meta.media.2.codec.name">srt</property>
  <property name="meta.media.2.codec.long_name">SubRip subtitle</property>
  <property name="meta.media.2.codec.bit_rate">0</property>
  <property name="meta.attr.2.stream.language.markup">eng</property>
  <property name="meta.attr.2.stream.title.markup">English (SDH)</property>
  <property name="meta.attr.2.stream.BPS.markup">6</property>
  <property name="meta.attr.2.stream.DURATION.markup">01:18:40.049000000</property>
  <property name="meta.attr.2.stream.NUMBER_OF_FRAMES.markup">250</property>
  <property name="meta.attr.2.stream.NUMBER_OF_BYTES.markup">3703</property>
  <property name="meta.attr.2.stream._STATISTICS_WRITING_APP.markup">mkvmerge v92.0 ('Everglow') 64-bit</property>
  <property name="meta.attr.2.stream._STATISTICS_WRITING_DATE_UTC.markup">2025-06-01 10:54:39</property>
  <property name="meta.attr.2.stream._STATISTICS_TAGS.markup">BPS DURATION NUMBER_OF_FRAMES NUMBER_OF_BYTES</property>
  <property name="meta.media.3.codec.name">pgssub</property>
  <property name="meta.media.3.codec.long_name">HDMV Presentation Graphic Stream subtitles</property>
  <property name="meta.media.3.codec.bit_rate">0</property>
  <property name="meta.attr.3.stream.language.markup">ita</property>
  <property name="meta.attr.3.stream.title.markup">Italian (SDH)</property>
  <property name="meta.attr.3.stream.BPS.markup">13896</property>
  <property name="meta.attr.3.stream.DURATION.markup">01:23:20.166000000</property>
  <property name="meta.attr.3.stream.NUMBER_OF_FRAMES.markup">1204</property>
  <property name="meta.attr.3.stream.NUMBER_OF_BYTES.markup">8685457</property>
  <property name="meta.attr.3.stream._STATISTICS_WRITING_APP.markup">mkvmerge v92.0 ('Everglow') 64-bit</property>
  <property name="meta.attr.3.stream._STATISTICS_WRITING_DATE_UTC.markup">2025-06-01 10:54:39</property>
  <property name="meta.attr.3.stream._STATISTICS_TAGS.markup">BPS DURATION NUMBER_OF_FRAMES NUMBER_OF_BYTES</property>
  <property name="meta.media.4.codec.name">srt</property>
  <property name="meta.media.4.codec.long_name">SubRip subtitle</property>
  <property name="meta.media.4.codec.bit_rate">0</property>
  <property name="meta.attr.4.stream.language.markup">spa</property>
  <property name="meta.attr.4.stream.title.markup">Spanish (Latin American) (SDH)</property>
  <property name="meta.attr.4.stream.BPS.markup">6</property>
  <property name="meta.attr.4.stream.DURATION.markup">01:18:40.090000000</property>
  <property name="meta.attr.4.stream.NUMBER_OF_FRAMES.markup">250</property>
  <property name="meta.attr.4.stream.NUMBER_OF_BYTES.markup">4039</property>
  <property name="meta.attr.4.stream._STATISTICS_WRITING_APP.markup">mkvmerge v92.0 ('Everglow') 64-bit</property>
  <property name="meta.attr.4.stream._STATISTICS_WRITING_DATE_UTC.markup">2025-06-01 10:54:39</property>
  <property name="meta.attr.4.stream._STATISTICS_TAGS.markup">BPS DURATION NUMBER_OF_FRAMES NUMBER_OF_BYTES</property>
  <property name="meta.attr.title.markup">Flow (2024)</property>
  <property name="meta.attr.encoder.markup">libebml v1.4.5 + libmatroska v1.7.1</property>
  <property name="meta.attr.creation_time.markup">2025-06-01T10:54:39.000000Z</property>
  <property name="meta.attr.IMDB.markup">tt4772188</property>
  <property name="meta.attr.TMDB.markup">movie/823219</property>
  <property name="meta.media.sample_aspect_num">1</property>
  <property name="meta.media.sample_aspect_den">1</property>
  <property name="meta.media.frame_rate_num">24</property>
  <property name="meta.media.frame_rate_den">1</property>
  <property name="meta.media.colorspace">2020</property>
  <property name="meta.media.color_trc">16</property>
  <property name="meta.media.has_b_frames">2</property>
  <property name="meta.media.width">3840</property>
  <property name="meta.media.height">2160</property>
  <property name="meta.media.aspect_ratio">1</property>
  <property name="meta.media.color_range">mpeg</property>
  <property name="xml">was here</property>
  <property name="mute_on_pause">0</property>
  <property name="meta.media.top_field_first">0</property>
  <property name="meta.media.progressive">1</property>
  <property name="set.test_audio">1</property>
  <property name="set.test_image">0</property>
 </chain>
 <playlist id="playlist4">
  <entry in="00:00:00.000" out="00:19:17.583" producer="chain4">
   <property name="kdenlive:id">5</property>
  </entry>
  <entry in="00:23:43.625" out="00:30:20.542" producer="chain4">
   <property name="kdenlive:id">5</property>
  </entry>
  <entry in="00:31:15.333" out="00:33:42.375" producer="chain4">
   <property name="kdenlive:id">5</property>
  </entry>
  <entry in="00:33:42.417" out="00:33:45.542" producer="chain4">
   <property name="kdenlive:id">5</property>
  </entry>
  <entry in="00:38:29.625" out="00:38:29.833" producer="chain4">
   <property name="kdenlive:id">5</property>
  </entry>
  <entry in="00:38:29.875" out="00:59:45.375" producer="chain4">
   <property name="kdenlive:id">5</property>
  </entry>
  <entry in="01:01:29.125" out="01:17:40.083" producer="chain4">
   <property name="kdenlive:id">5</property>
   <filter id="filter8" in="01:17:33.208" out="01:17:40.083">
    <property name="start">1</property>
    <property name="level">1</property>
    <property name="mlt_service">brightness</property>
    <property name="kdenlive_id">fade_to_black</property>
    <property name="alpha">00:00:00.000=1;00:00:06.875=0</property>
   </filter>
  </entry>
 </playlist>
 <chain id="chain5" out="01:23:34.042">
  <property name="length">120338</property>
  <property name="eof">pause</property>
  <property name="resource">/General Movies/Flow (2024) [1080p]/Flow.2024.UHD.BluRay.2160p.DTS-HD.MA.5.1.HEVC.REMUX.mkv</property>
  <property name="mlt_service">avformat-novalidate</property>
  <property name="seekable">1</property>
  <property name="audio_index">1</property>
  <property name="video_index">0</property>
  <property name="vstream">0</property>
  <property name="astream">0</property>
  <property name="kdenlive:control_uuid">{7f57417e-3091-410f-9154-45c89a37d365}</property>
  <property name="kdenlive:id">5</property>
  <property name="kdenlive:clip_type">0</property>
  <property name="kdenlive:file_size">40777075497</property>
  <property name="kdenlive:file_hash">1cf619a910dcfde085033c6823150fde</property>
  <property name="kdenlive:folderid">-1</property>
  <property name="meta.media.nb_streams">5</property>
  <property name="meta.media.0.stream.type">video</property>
  <property name="meta.media.0.stream.frame_rate">24</property>
  <property name="meta.media.0.stream.sample_aspect_ratio">1</property>
  <property name="meta.media.0.codec.width">3840</property>
  <property name="meta.media.0.codec.height">2160</property>
  <property name="meta.media.0.codec.rotate">0</property>
  <property name="meta.media.0.codec.pix_fmt">yuv420p10le</property>
  <property name="meta.media.0.codec.sample_aspect_ratio">1</property>
  <property name="meta.media.0.codec.colorspace">9</property>
  <property name="meta.media.0.codec.color_trc">16</property>
  <property name="meta.media.0.codec.name">hevc</property>
  <property name="meta.media.0.codec.long_name">HEVC (High Efficiency Video Coding)</property>
  <property name="meta.media.0.codec.bit_rate">0</property>
  <property name="meta.attr.0.stream.BPS.markup">60764431</property>
  <property name="meta.attr.0.stream.DURATION.markup">01:23:34.083000000</property>
  <property name="meta.attr.0.stream.NUMBER_OF_FRAMES.markup">120338</property>
  <property name="meta.attr.0.stream.NUMBER_OF_BYTES.markup">38084737888</property>
  <property name="meta.attr.0.stream._STATISTICS_WRITING_APP.markup">mkvmerge v92.0 ('Everglow') 64-bit</property>
  <property name="meta.attr.0.stream._STATISTICS_WRITING_DATE_UTC.markup">2025-06-01 10:54:39</property>
  <property name="meta.attr.0.stream._STATISTICS_TAGS.markup">BPS DURATION NUMBER_OF_FRAMES NUMBER_OF_BYTES</property>
  <property name="meta.media.1.stream.type">audio</property>
  <property name="meta.media.1.codec.sample_fmt">s32p</property>
  <property name="meta.media.1.codec.sample_rate">48000</property>
  <property name="meta.media.1.codec.channels">6</property>
  <property name="meta.media.1.codec.layout">5.1(side)</property>
  <property name="meta.media.1.codec.name">dca</property>
  <property name="meta.media.1.codec.long_name">DCA (DTS Coherent Acoustics)</property>
  <property name="meta.media.1.codec.bit_rate">0</property>
  <property name="meta.attr.1.stream.language.markup">zxx</property>
  <property name="meta.attr.1.stream.title.markup">DTS-HD MA 5.1</property>
  <property name="meta.attr.1.stream.BPS.markup">4278196</property>
  <property name="meta.attr.1.stream.DURATION.markup">01:23:33.504000000</property>
  <property name="meta.attr.1.stream.NUMBER_OF_FRAMES.markup">470016</property>
  <property name="meta.attr.1.stream.NUMBER_OF_BYTES.markup">2681094132</property>
  <property name="meta.attr.1.stream._STATISTICS_WRITING_APP.markup">mkvmerge v92.0 ('Everglow') 64-bit</property>
  <property name="meta.attr.1.stream._STATISTICS_WRITING_DATE_UTC.markup">2025-06-01 10:54:39</property>
  <property name="meta.attr.1.stream._STATISTICS_TAGS.markup">BPS DURATION NUMBER_OF_FRAMES NUMBER_OF_BYTES</property>
  <property name="meta.media.2.codec.name">srt</property>
  <property name="meta.media.2.codec.long_name">SubRip subtitle</property>
  <property name="meta.media.2.codec.bit_rate">0</property>
  <property name="meta.attr.2.stream.language.markup">eng</property>
  <property name="meta.attr.2.stream.title.markup">English (SDH)</property>
  <property name="meta.attr.2.stream.BPS.markup">6</property>
  <property name="meta.attr.2.stream.DURATION.markup">01:18:40.049000000</property>
  <property name="meta.attr.2.stream.NUMBER_OF_FRAMES.markup">250</property>
  <property name="meta.attr.2.stream.NUMBER_OF_BYTES.markup">3703</property>
  <property name="meta.attr.2.stream._STATISTICS_WRITING_APP.markup">mkvmerge v92.0 ('Everglow') 64-bit</property>
  <property name="meta.attr.2.stream._STATISTICS_WRITING_DATE_UTC.markup">2025-06-01 10:54:39</property>
  <property name="meta.attr.2.stream._STATISTICS_TAGS.markup">BPS DURATION NUMBER_OF_FRAMES NUMBER_OF_BYTES</property>
  <property name="meta.media.3.codec.name">pgssub</property>
  <property name="meta.media.3.codec.long_name">HDMV Presentation Graphic Stream subtitles</property>
  <property name="meta.media.3.codec.bit_rate">0</property>
  <property name="meta.attr.3.stream.language.markup">ita</property>
  <property name="meta.attr.3.stream.title.markup">Italian (SDH)</property>
  <property name="meta.attr.3.stream.BPS.markup">13896</property>
  <property name="meta.attr.3.stream.DURATION.markup">01:23:20.166000000</property>
  <property name="meta.attr.3.stream.NUMBER_OF_FRAMES.markup">1204</property>
  <property name="meta.attr.3.stream.NUMBER_OF_BYTES.markup">8685457</property>
  <property name="meta.attr.3.stream._STATISTICS_WRITING_APP.markup">mkvmerge v92.0 ('Everglow') 64-bit</property>
  <property name="meta.attr.3.stream._STATISTICS_WRITING_DATE_UTC.markup">2025-06-01 10:54:39</property>
  <property name="meta.attr.3.stream._STATISTICS_TAGS.markup">BPS DURATION NUMBER_OF_FRAMES NUMBER_OF_BYTES</property>
  <property name="meta.media.4.codec.name">srt</property>
  <property name="meta.media.4.codec.long_name">SubRip subtitle</property>
  <property name="meta.media.4.codec.bit_rate">0</property>
  <property name="meta.attr.4.stream.language.markup">spa</property>
  <property name="meta.attr.4.stream.title.markup">Spanish (Latin American) (SDH)</property>
  <property name="meta.attr.4.stream.BPS.markup">6</property>
  <property name="meta.attr.4.stream.DURATION.markup">01:18:40.090000000</property>
  <property name="meta.attr.4.stream.NUMBER_OF_FRAMES.markup">250</property>
  <property name="meta.attr.4.stream.NUMBER_OF_BYTES.markup">4039</property>
  <property name="meta.attr.4.stream._STATISTICS_WRITING_APP.markup">mkvmerge v92.0 ('Everglow') 64-bit</property>
  <property name="meta.attr.4.stream._STATISTICS_WRITING_DATE_UTC.markup">2025-06-01 10:54:39</property>
  <property name="meta.attr.4.stream._STATISTICS_TAGS.markup">BPS DURATION NUMBER_OF_FRAMES NUMBER_OF_BYTES</property>
  <property name="meta.attr.title.markup">Flow (2024)</property>
  <property name="meta.attr.encoder.markup">libebml v1.4.5 + libmatroska v1.7.1</property>
  <property name="meta.attr.creation_time.markup">2025-06-01T10:54:39.000000Z</property>
  <property name="meta.attr.IMDB.markup">tt4772188</property>
  <property name="meta.attr.TMDB.markup">movie/823219</property>
  <property name="meta.media.sample_aspect_num">1</property>
  <property name="meta.media.sample_aspect_den">1</property>
  <property name="meta.media.frame_rate_num">24</property>
  <property name="meta.media.frame_rate_den">1</property>
  <property name="meta.media.colorspace">2020</property>
  <property name="meta.media.color_trc">16</property>
  <property name="meta.media.has_b_frames">2</property>
  <property name="meta.media.width">3840</property>
  <property name="meta.media.height">2160</property>
  <property name="meta.media.aspect_ratio">1</property>
  <property name="meta.media.color_range">mpeg</property>
  <property name="xml">was here</property>
  <property name="mute_on_pause">0</property>
  <property name="meta.media.top_field_first">0</property>
  <property name="meta.media.progressive">1</property>
  <property name="set.test_audio">1</property>
  <property name="set.test_image">0</property>
 </chain>
 <playlist id="playlist5">
  <blank length="01:05:50.625"/>
  <entry in="01:20:54.958" out="01:23:34.042" producer="chain5">
   <property name="kdenlive:id">5</property>
  </entry>
 </playlist>
 <tractor id="tractor2" in="00:00:00.000" out="01:08:29.708">
  <property name="kdenlive:trackheight">84</property>
  <property name="kdenlive:timeline_active">1</property>
  <property name="kdenlive:collapsed">0</property>
  <property name="kdenlive:thumbs_format"/>
  <property name="kdenlive:audio_rec"/>
  <track hide="audio" producer="playlist4"/>
  <track hide="audio" producer="playlist5"/>
  <transition id="transition10" in="01:05:50.625" out="01:05:51.625">
   <property name="a_track">0</property>
   <property name="b_track">1</property>
   <property name="factory">loader</property>
   <property name="resource"/>
   <property name="mlt_service">luma</property>
   <property name="kdenlive_id">luma</property>
   <property name="kdenlive:mixcut">12</property>
   <property name="softness">0</property>
   <property name="alpha_over">1</property>
   <property name="fix_background_alpha">1</property>
   <property name="invert">0</property>
   <property name="reverse">0</property>
  </transition>
 </tractor>
 <playlist id="playlist6"/>
 <playlist id="playlist7"/>
 <tractor id="tractor3" in="00:00:00.000">
  <property name="kdenlive:trackheight">84</property>
  <property name="kdenlive:timeline_active">1</property>
  <property name="kdenlive:collapsed">0</property>
  <property name="kdenlive:thumbs_format"/>
  <property name="kdenlive:audio_rec"/>
  <track hide="audio" producer="playlist6"/>
  <track hide="audio" producer="playlist7"/>
  <filter id="filter10">
   <property name="background">colour:0</property>
   <property name="mlt_service">affine</property>
   <property name="kdenlive_id">pan_zoom</property>
   <property name="transition.rect">00:00:00.000=2185 1185 1366 768</property>
   <property name="transition.distort">0</property>
   <property name="use_normalised">0</property>
   <property name="producer.resource">/FanEdits/FanMixes/Alena Edition/Flow - Alena Edition/0x00000000</property>
   <property name="transition.repeat_off">1</property>
   <property name="transition.mirror_off">1</property>
   <property name="kdenlive:collapsed">0</property>
  </filter>
 </tractor>
 <tractor id="tractor4" in="00:00:00.000" out="01:08:29.708">
  <property name="kdenlive:duration">01:08:29.750</property>
  <property name="kdenlive:maxduration">98634</property>
  <property name="kdenlive:clipname">Sequence 1</property>
  <property name="kdenlive:description"/>
  <property name="kdenlive:uuid">{a5b55865-e438-420b-b8d4-3f1eec94145e}</property>
  <property name="kdenlive:producer_type">17</property>
  <property name="kdenlive:control_uuid">{a5b55865-e438-420b-b8d4-3f1eec94145e}</property>
  <property name="kdenlive:id">3</property>
  <property name="kdenlive:clip_type">0</property>
  <property name="kdenlive:file_hash">01bdbaa3af5bacde474cb00e2b043c34</property>
  <property name="kdenlive:folderid">2</property>
  <property name="kdenlive:sequenceproperties.activeTrack">1</property>
  <property name="kdenlive:sequenceproperties.audioTarget">1</property>
  <property name="kdenlive:sequenceproperties.disablepreview">0</property>
  <property name="kdenlive:sequenceproperties.documentuuid">{a5b55865-e438-420b-b8d4-3f1eec94145e}</property>
  <property name="kdenlive:sequenceproperties.hasAudio">1</property>
  <property name="kdenlive:sequenceproperties.hasVideo">1</property>
  <property name="kdenlive:sequenceproperties.position">27890</property>
  <property name="kdenlive:sequenceproperties.scrollPos">467</property>
  <property name="kdenlive:sequenceproperties.tracks">4</property>
  <property name="kdenlive:sequenceproperties.tracksCount">4</property>
  <property name="kdenlive:sequenceproperties.verticalzoom">1</property>
  <property name="kdenlive:sequenceproperties.videoTarget">2</property>
  <property name="kdenlive:sequenceproperties.zonein">0</property>
  <property name="kdenlive:sequenceproperties.zoneout">75</property>
  <property name="kdenlive:sequenceproperties.zoom">16</property>
  <property name="kdenlive:sequenceproperties.groups">[
    {
        "children": [
            {
                "data": "2:27783:-1",
                "leaf": "clip",
                "type": "Leaf"
            },
            {
                "data": "1:27771:-1",
                "leaf": "clip",
                "type": "Leaf"
            }
        ],
        "type": "AVSplit"
    },
    {
        "children": [
            {
                "data": "2:94815:-1",
                "leaf": "clip",
                "type": "Leaf"
            },
            {
                "data": "1:94707:-1",
                "leaf": "clip",
                "type": "Leaf"
            }
        ],
        "type": "AVSplit"
    },
    {
        "children": [
            {
                "data": "1:71475:-1",
                "leaf": "clip",
                "type": "Leaf"
            },
            {
                "data": "2:71535:-1",
                "leaf": "clip",
                "type": "Leaf"
            }
        ],
        "type": "AVSplit"
    },
    {
        "children": [
            {
                "data": "1:0:-1",
                "leaf": "clip",
                "type": "Leaf"
            },
            {
                "data": "2:0:-1",
                "leaf": "clip",
                "type": "Leaf"
            }
        ],
        "type": "AVSplit"
    },
    {
        "children": [
            {
                "data": "1:40922:-1",
                "leaf": "clip",
                "type": "Leaf"
            },
            {
                "data": "2:40922:-1",
                "leaf": "clip",
                "type": "Leaf"
            }
        ],
        "type": "AVSplit"
    },
    {
        "children": [
            {
                "data": "2:37310:-1",
                "leaf": "clip",
                "type": "Leaf"
            },
            {
                "data": "1:37250:-1",
                "leaf": "clip",
                "type": "Leaf"
            }
        ],
        "type": "AVSplit"
    }
]
</property>
  <property name="kdenlive:sequenceproperties.guides">[
]
</property>
  <track producer="producer0"/>
  <track producer="tractor0"/>
  <track producer="tractor1"/>
  <track producer="tractor2"/>
  <track producer="tractor3"/>
  <transition id="transition1">
   <property name="a_track">0</property>
   <property name="b_track">1</property>
   <property name="mlt_service">mix</property>
   <property name="kdenlive_id">mix</property>
   <property name="internal_added">237</property>
   <property name="always_active">1</property>
   <property name="accepts_blanks">1</property>
   <property name="sum">1</property>
  </transition>
  <transition id="transition2">
   <property name="a_track">0</property>
   <property name="b_track">2</property>
   <property name="mlt_service">mix</property>
   <property name="kdenlive_id">mix</property>
   <property name="internal_added">237</property>
   <property name="always_active">1</property>
   <property name="accepts_blanks">1</property>
   <property name="sum">1</property>
  </transition>
  <transition id="transition3">
   <property name="a_track">0</property>
   <property name="b_track">3</property>
   <property name="compositing">0</property>
   <property name="distort">0</property>
   <property name="rotate_center">0</property>
   <property name="mlt_service">qtblend</property>
   <property name="kdenlive_id">qtblend</property>
   <property name="internal_added">237</property>
   <property name="always_active">1</property>
  </transition>
  <transition id="transition4">
   <property name="a_track">0</property>
   <property name="b_track">4</property>
   <property name="compositing">0</property>
   <property name="distort">0</property>
   <property name="rotate_center">0</property>
   <property name="mlt_service">qtblend</property>
   <property name="kdenlive_id">qtblend</property>
   <property name="internal_added">237</property>
   <property name="always_active">1</property>
  </transition>
  <filter id="filter11">
   <property name="window">75</property>
   <property name="max_gain">20dB</property>
   <property name="mlt_service">volume</property>
   <property name="internal_added">237</property>
   <property name="disable">1</property>
  </filter>
  <filter id="filter12">
   <property name="channel">-1</property>
   <property name="mlt_service">panner</property>
   <property name="internal_added">237</property>
   <property name="start">0.5</property>
   <property name="disable">1</property>
  </filter>
 </tractor>
 <playlist id="main_bin">
  <property name="kdenlive:folder.-1.2">Sequences</property>
  <property name="kdenlive:sequenceFolder">2</property>
  <property name="kdenlive:docproperties.activetimeline">{a5b55865-e438-420b-b8d4-3f1eec94145e}</property>
  <property name="kdenlive:docproperties.audioChannels">2</property>
  <property name="kdenlive:docproperties.binsort">0</property>
  <property name="kdenlive:docproperties.browserurl">/General Movies/Lost in Translation (2003)/</property>
  <property name="kdenlive:docproperties.documentid">1754958410068</property>
  <property name="kdenlive:docproperties.enableTimelineZone">0</property>
  <property name="kdenlive:docproperties.enableexternalproxy">0</property>
  <property name="kdenlive:docproperties.enableproxy">0</property>
  <property name="kdenlive:docproperties.externalproxyparams">./;;.LRV;./;;.MP4</property>
  <property name="kdenlive:docproperties.generateimageproxy">0</property>
  <property name="kdenlive:docproperties.generateproxy">0</property>
  <property name="kdenlive:docproperties.guidesCategories">[
    {
        "color": "#9b59b6",
        "comment": "Category 1",
        "index": 0
    },
    {
        "color": "#3daee9",
        "comment": "Category 2",
        "index": 1
    },
    {
        "color": "#1abc9c",
        "comment": "Category 3",
        "index": 2
    },
    {
        "color": "#1cdc9a",
        "comment": "Category 4",
        "index": 3
    },
    {
        "color": "#c9ce3b",
        "comment": "Category 5",
        "index": 4
    },
    {
        "color": "#fdbc4b",
        "comment": "Category 6",
        "index": 5
    },
    {
        "color": "#f39c1f",
        "comment": "Category 7",
        "index": 6
    },
    {
        "color": "#f47750",
        "comment": "Category 8",
        "index": 7
    },
    {
        "color": "#da4453",
        "comment": "Category 9",
        "index": 8
    }
]
</property>
  <property name="kdenlive:docproperties.kdenliveversion">25.04.2</property>
  <property name="kdenlive:docproperties.opensequences">{a5b55865-e438-420b-b8d4-3f1eec94145e}</property>
  <property name="kdenlive:docproperties.previewextension"/>
  <property name="kdenlive:docproperties.previewparameters"/>
  <property name="kdenlive:docproperties.profile">AppData/Roaming/kdenlive/profiles/customprofile19</property>
  <property name="kdenlive:docproperties.proxyextension"/>
  <property name="kdenlive:docproperties.proxyimageminsize">2000</property>
  <property name="kdenlive:docproperties.proxyimagesize">800</property>
  <property name="kdenlive:docproperties.proxyminsize">1000</property>
  <property name="kdenlive:docproperties.proxyparams"/>
  <property name="kdenlive:docproperties.proxyresize">640</property>
  <property name="kdenlive:docproperties.rendercategory">Ultra-High Definition (4K)</property>
  <property name="kdenlive:docproperties.rendercustomquality">-1</property>
  <property name="kdenlive:docproperties.renderendguide">-1</property>
  <property name="kdenlive:docproperties.renderexportaudio">0</property>
  <property name="kdenlive:docproperties.renderfullcolorrange">0</property>
  <property name="kdenlive:docproperties.rendermode">0</property>
  <property name="kdenlive:docproperties.renderplay">0</property>
  <property name="kdenlive:docproperties.renderpreview">0</property>
  <property name="kdenlive:docproperties.renderprofile">MKV-H265 (HEVC)</property>
  <property name="kdenlive:docproperties.renderrescale">0</property>
  <property name="kdenlive:docproperties.renderrescaleheight">480</property>
  <property name="kdenlive:docproperties.renderrescalewidth">960</property>
  <property name="kdenlive:docproperties.renderspeed">6</property>
  <property name="kdenlive:docproperties.renderstartguide">-1</property>
  <property name="kdenlive:docproperties.rendertcoverlay">0</property>
  <property name="kdenlive:docproperties.rendertctype">-1</property>
  <property name="kdenlive:docproperties.rendertwopass">0</property>
  <property name="kdenlive:docproperties.renderurl">/Flow - Alena Edition.mkv</property>
  <property name="kdenlive:docproperties.seekOffset">30000</property>
  <property name="kdenlive:docproperties.sessionid">{7c25b6ce-55dc-40e5-8423-8b913e4b7fb1}</property>
  <property name="kdenlive:docproperties.uuid">{a5b55865-e438-420b-b8d4-3f1eec94145e}</property>
  <property name="kdenlive:docproperties.version">1.1</property>
  <property name="kdenlive:expandedFolders"/>
  <property name="kdenlive:binZoom">4</property>
  <property name="kdenlive:extraBins">project_bin:-1:0</property>
  <property name="kdenlive:documentnotes">&lt;!DOCTYPE HTML PUBLIC "-//W3C//DTD HTML 4.0//EN" "http://www.w3.org/TR/REC-html40/strict.dtd">
&lt;html>&lt;head>&lt;meta name="qrichtext" content="1" />&lt;meta charset="utf-8" />&lt;style type="text/css">
p, li { white-space: pre-wrap; }
hr { height: 1px; border-width: 0; }
li.unchecked::marker { content: "\2610"; }
li.checked::marker { content: "\2612"; }
&lt;/style>&lt;/head>&lt;body style=" font-family:'Segoe UI'; font-size:9pt; font-weight:400; font-style:normal;">
&lt;p style=" margin-top:0px; margin-bottom:0px; margin-left:0px; margin-right:0px; -qt-block-indent:0; text-indent:0px;">Errors found when opening project file (Tue Aug 12 14:50:24 2025)&lt;br />&lt;a href="{a5b55865-e438-420b-b8d4-3f1eec94145e}!9551?1">&lt;span style=" text-decoration: underline; color:#1d99f3;">A2 00:06:37:23&lt;/span>&lt;/a> Clip (chain1) with missing mix found and removed&lt;br />&lt;a href="{a5b55865-e438-420b-b8d4-3f1eec94145e}!22684?1">&lt;span style=" text-decoration: underline; color:#1d99f3;">A2 00:15:45:04&lt;/span>&lt;/a> Clip (chain1) with missing mix found and resized&lt;br />&lt;a href="{a5b55865-e438-420b-b8d4-3f1eec94145e}!36408?1">&lt;span style=" text-decoration: underline; color:#1d99f3;">A2 00:25:17:00&lt;/span>&lt;/a> Clip (chain1) with missing mix found and resized&lt;/p>&lt;/body>&lt;/html></property>
  <property name="kdenlive:documentnotesversion">2</property>
  <property name="xml_retain">1</property>
  <entry in="00:00:00.000" out="01:23:34.042" producer="chain7"/>
  <entry in="00:00:00.000" out="01:08:29.708" producer="tractor4"/>
 </playlist>
 <tractor id="tractor5" in="00:00:00.000" out="01:08:29.708">
  <property name="kdenlive:projectTractor">1</property>
  <track in="00:00:00.000" out="01:08:29.708" producer="tractor4"/>
 </tractor>
</mlt>
