<?xml version='1.0' encoding='utf-8'?>
<mlt LC_NUMERIC="en_US.UTF-8" producer="main_bin" root="N:/Videos/Kids Movies/FernGully The Last Rainforest (1992)" version="7.33.0">
 <profile colorspace="709" description="1280x700 23.98fps" display_aspect_den="65" display_aspect_num="119" frame_rate_den="1001" frame_rate_num="24000" height="700" progressive="1" sample_aspect_den="832" sample_aspect_num="833" width="1280"/>
 <producer id="producer0" in="00:00:00.000" out="00:58:24.608">
  <property name="length">2147483647</property>
  <property name="eof">continue</property>
  <property name="resource">black</property>
  <property name="aspect_ratio">1</property>
  <property name="mlt_service">color</property>
  <property name="kdenlive:playlistid">black_track</property>
  <property name="mlt_image_format">rgba</property>
  <property name="set.test_audio">0</property>
 </producer>
 <chain id="chain0" out="01:15:52.594">
  <property name="length">109153</property>
  <property name="eof">pause</property>
  <property name="resource">FernGully.The.Last.Rainforest.1992.720p.BluRay.x264-[YTS.AM].mp4</property>
  <property name="mlt_service">avformat-novalidate</property>
  <property name="seekable">1</property>
  <property name="audio_index">1</property>
  <property name="video_index">0</property>
  <property name="vstream">0</property>
  <property name="astream">0</property>
  <property name="kdenlive:control_uuid">{659cc7b0-2ae7-4cf6-bfff-a76b8f428782}</property>
  <property name="kdenlive:id">4</property>
  <property name="kdenlive:clip_type">0</property>
  <property name="kdenlive:file_size">686900713</property>
  <property name="kdenlive:file_hash">178ebe62c13cf52f4a03718086ca8116</property>
  <property name="kdenlive:folderid">-1</property>
  <property name="meta.media.nb_streams">2</property>
  <property name="meta.media.0.stream.type">video</property>
  <property name="meta.media.0.stream.frame_rate">23.976</property>
  <property name="meta.media.0.stream.sample_aspect_ratio">1.0012</property>
  <property name="meta.media.0.codec.width">1280</property>
  <property name="meta.media.0.codec.height">700</property>
  <property name="meta.media.0.codec.rotate">0</property>
  <property name="meta.media.0.codec.pix_fmt">yuv420p</property>
  <property name="meta.media.0.codec.sample_aspect_ratio">1.0012</property>
  <property name="meta.media.0.codec.colorspace">709</property>
  <property name="meta.media.0.codec.name">h264</property>
  <property name="meta.media.0.codec.long_name">H.264 / AVC / MPEG-4 AVC / MPEG-4 part 10</property>
  <property name="meta.media.0.codec.bit_rate">1049502</property>
  <property name="meta.attr.0.stream.handler_name.markup">VideoHandler</property>
  <property name="meta.attr.0.stream.vendor_id.markup">[0][0][0][0]</property>
  <property name="meta.media.1.stream.type">audio</property>
  <property name="meta.media.1.codec.sample_fmt">fltp</property>
  <property name="meta.media.1.codec.sample_rate">48000</property>
  <property name="meta.media.1.codec.channels">2</property>
  <property name="meta.media.1.codec.layout">stereo</property>
  <property name="meta.media.1.codec.name">aac</property>
  <property name="meta.media.1.codec.long_name">AAC (Advanced Audio Coding)</property>
  <property name="meta.media.1.codec.bit_rate">150648</property>
  <property name="meta.attr.1.stream.handler_name.markup">SoundHandler</property>
  <property name="meta.attr.1.stream.vendor_id.markup">[0][0][0][0]</property>
  <property name="meta.attr.major_brand.markup">isom</property>
  <property name="meta.attr.minor_version.markup">512</property>
  <property name="meta.attr.compatible_brands.markup">isomiso2avc1mp41</property>
  <property name="meta.attr.encoder.markup">Lavf58.9.100</property>
  <property name="meta.media.sample_aspect_num">833</property>
  <property name="meta.media.sample_aspect_den">832</property>
  <property name="meta.media.frame_rate_num">13978</property>
  <property name="meta.media.frame_rate_den">583</property>
  <property name="meta.media.colorspace">709</property>
  <property name="meta.media.color_trc">2</property>
  <property name="meta.media.has_b_frames">2</property>
  <property name="meta.media.width">1280</property>
  <property name="meta.media.height">700</property>
  <property name="meta.media.aspect_ratio">1.0012</property>
  <property name="meta.media.color_range">mpeg</property>
  <property name="xml">was here</property>
  <property name="mute_on_pause">0</property>
  <property name="meta.media.top_field_first">0</property>
  <property name="meta.media.progressive">1</property>
  <property name="set.test_audio">0</property>
  <property name="set.test_image">1</property>
 </chain>
 <playlist id="playlist0">
  <property name="kdenlive:audio_track">1</property>
  <entry in="00:00:00.000" out="00:15:35.535" producer="chain0">
   <property name="kdenlive:id">4</property>
  </entry>
  <blank length="00:06:33.116"/>
  <entry in="00:35:04.713" out="00:49:07.841" producer="chain0">
   <property name="kdenlive:id">4</property>
  </entry>
  <blank length="00:05:53.095"/>
  <entry in="01:05:47.965" out="01:15:52.594" producer="chain0">
   <property name="kdenlive:id">4</property>
  </entry>
 </playlist>
 <chain id="chain1" out="01:15:52.594">
  <property name="length">109153</property>
  <property name="eof">pause</property>
  <property name="resource">FernGully.The.Last.Rainforest.1992.720p.BluRay.x264-[YTS.AM].mp4</property>
  <property name="mlt_service">avformat-novalidate</property>
  <property name="seekable">1</property>
  <property name="audio_index">1</property>
  <property name="video_index">0</property>
  <property name="vstream">0</property>
  <property name="astream">0</property>
  <property name="kdenlive:control_uuid">{659cc7b0-2ae7-4cf6-bfff-a76b8f428782}</property>
  <property name="kdenlive:id">4</property>
  <property name="kdenlive:clip_type">0</property>
  <property name="kdenlive:file_size">686900713</property>
  <property name="kdenlive:file_hash">178ebe62c13cf52f4a03718086ca8116</property>
  <property name="kdenlive:folderid">-1</property>
  <property name="meta.media.nb_streams">2</property>
  <property name="meta.media.0.stream.type">video</property>
  <property name="meta.media.0.stream.frame_rate">23.976</property>
  <property name="meta.media.0.stream.sample_aspect_ratio">1.0012</property>
  <property name="meta.media.0.codec.width">1280</property>
  <property name="meta.media.0.codec.height">700</property>
  <property name="meta.media.0.codec.rotate">0</property>
  <property name="meta.media.0.codec.pix_fmt">yuv420p</property>
  <property name="meta.media.0.codec.sample_aspect_ratio">1.0012</property>
  <property name="meta.media.0.codec.colorspace">709</property>
  <property name="meta.media.0.codec.name">h264</property>
  <property name="meta.media.0.codec.long_name">H.264 / AVC / MPEG-4 AVC / MPEG-4 part 10</property>
  <property name="meta.media.0.codec.bit_rate">1049502</property>
  <property name="meta.attr.0.stream.handler_name.markup">VideoHandler</property>
  <property name="meta.attr.0.stream.vendor_id.markup">[0][0][0][0]</property>
  <property name="meta.media.1.stream.type">audio</property>
  <property name="meta.media.1.codec.sample_fmt">fltp</property>
  <property name="meta.media.1.codec.sample_rate">48000</property>
  <property name="meta.media.1.codec.channels">2</property>
  <property name="meta.media.1.codec.layout">stereo</property>
  <property name="meta.media.1.codec.name">aac</property>
  <property name="meta.media.1.codec.long_name">AAC (Advanced Audio Coding)</property>
  <property name="meta.media.1.codec.bit_rate">150648</property>
  <property name="meta.attr.1.stream.handler_name.markup">SoundHandler</property>
  <property name="meta.attr.1.stream.vendor_id.markup">[0][0][0][0]</property>
  <property name="meta.attr.major_brand.markup">isom</property>
  <property name="meta.attr.minor_version.markup">512</property>
  <property name="meta.attr.compatible_brands.markup">isomiso2avc1mp41</property>
  <property name="meta.attr.encoder.markup">Lavf58.9.100</property>
  <property name="meta.media.sample_aspect_num">833</property>
  <property name="meta.media.sample_aspect_den">832</property>
  <property name="meta.media.frame_rate_num">13978</property>
  <property name="meta.media.frame_rate_den">583</property>
  <property name="meta.media.colorspace">709</property>
  <property name="meta.media.color_trc">2</property>
  <property name="meta.media.has_b_frames">2</property>
  <property name="meta.media.width">1280</property>
  <property name="meta.media.height">700</property>
  <property name="meta.media.aspect_ratio">1.0012</property>
  <property name="meta.media.color_range">mpeg</property>
  <property name="xml">was here</property>
  <property name="mute_on_pause">0</property>
  <property name="meta.media.top_field_first">0</property>
  <property name="meta.media.progressive">1</property>
  <property name="set.test_audio">0</property>
  <property name="set.test_image">1</property>
 </chain>
 <playlist id="playlist1">
  <property name="kdenlive:audio_track">1</property>
  <blank length="00:15:34.576"/>
  <entry in="00:20:23.732" out="00:26:58.809" producer="chain1">
   <property name="kdenlive:id">4</property>
  </entry>
  <blank length="00:14:01.210"/>
  <entry in="00:51:54.513" out="00:57:52.886" producer="chain1">
   <property name="kdenlive:id">4</property>
  </entry>
 </playlist>
 <tractor id="tractor0" in="00:00:00.000" out="00:52:09.551">
  <property name="kdenlive:audio_track">1</property>
  <property name="kdenlive:trackheight">84</property>
  <property name="kdenlive:timeline_active">1</property>
  <property name="kdenlive:collapsed">0</property>
  <property name="kdenlive:thumbs_format"/>
  <property name="kdenlive:audio_rec"/>
  <track hide="video" producer="playlist0"/>
  <track hide="video" producer="playlist1"/>
  <transition id="transition0" in="00:15:34.576" out="00:15:35.577">
   <property name="a_track">0</property>
   <property name="b_track">1</property>
   <property name="mlt_service">mix</property>
   <property name="kdenlive_id">mix</property>
   <property name="kdenlive:mixcut">12</property>
   <property name="start">-1</property>
   <property name="accepts_blanks">1</property>
   <property name="reverse">0</property>
  </transition>
  <transition id="transition1" in="00:22:08.675" out="00:22:09.676">
   <property name="a_track">0</property>
   <property name="b_track">1</property>
   <property name="mlt_service">mix</property>
   <property name="kdenlive_id">mix</property>
   <property name="kdenlive:mixcut">12</property>
   <property name="start">-1</property>
   <property name="accepts_blanks">1</property>
   <property name="reverse">1</property>
  </transition>
  <transition id="transition2" in="00:36:10.844" out="00:36:11.845">
   <property name="a_track">0</property>
   <property name="b_track">1</property>
   <property name="mlt_service">mix</property>
   <property name="kdenlive_id">mix</property>
   <property name="kdenlive:mixcut">12</property>
   <property name="start">-1</property>
   <property name="accepts_blanks">1</property>
   <property name="reverse">0</property>
  </transition>
  <transition id="transition3" in="00:42:04.922" out="00:42:09.301">
   <property name="a_track">0</property>
   <property name="b_track">1</property>
   <property name="mlt_service">mix</property>
   <property name="kdenlive_id">mix</property>
   <property name="kdenlive:mixcut">4</property>
   <property name="start">-1</property>
   <property name="accepts_blanks">1</property>
   <property name="reverse">1</property>
  </transition>
  <filter id="filter0">
   <property name="window">75</property>
   <property name="max_gain">20dB</property>
   <property name="mlt_service">volume</property>
   <property name="internal_added">237</property>
   <property name="disable">1</property>
  </filter>
  <filter id="filter1">
   <property name="channel">-1</property>
   <property name="mlt_service">panner</property>
   <property name="internal_added">237</property>
   <property name="start">0.5</property>
   <property name="disable">1</property>
  </filter>
  <filter id="filter2">
   <property name="iec_scale">0</property>
   <property name="mlt_service">audiolevel</property>
   <property name="dbpeak">1</property>
   <property name="disable">1</property>
  </filter>
 </tractor>
 <chain id="chain2" out="01:15:52.594">
  <property name="length">109153</property>
  <property name="eof">pause</property>
  <property name="resource">FernGully.The.Last.Rainforest.1992.720p.BluRay.x264-[YTS.AM].mp4</property>
  <property name="mlt_service">avformat-novalidate</property>
  <property name="seekable">1</property>
  <property name="audio_index">1</property>
  <property name="video_index">0</property>
  <property name="vstream">0</property>
  <property name="astream">0</property>
  <property name="kdenlive:control_uuid">{659cc7b0-2ae7-4cf6-bfff-a76b8f428782}</property>
  <property name="kdenlive:id">4</property>
  <property name="kdenlive:clip_type">0</property>
  <property name="kdenlive:file_size">686900713</property>
  <property name="kdenlive:file_hash">178ebe62c13cf52f4a03718086ca8116</property>
  <property name="kdenlive:folderid">-1</property>
  <property name="meta.media.nb_streams">2</property>
  <property name="meta.media.0.stream.type">video</property>
  <property name="meta.media.0.stream.frame_rate">23.976</property>
  <property name="meta.media.0.stream.sample_aspect_ratio">1.0012</property>
  <property name="meta.media.0.codec.width">1280</property>
  <property name="meta.media.0.codec.height">700</property>
  <property name="meta.media.0.codec.rotate">0</property>
  <property name="meta.media.0.codec.pix_fmt">yuv420p</property>
  <property name="meta.media.0.codec.sample_aspect_ratio">1.0012</property>
  <property name="meta.media.0.codec.colorspace">709</property>
  <property name="meta.media.0.codec.name">h264</property>
  <property name="meta.media.0.codec.long_name">H.264 / AVC / MPEG-4 AVC / MPEG-4 part 10</property>
  <property name="meta.media.0.codec.bit_rate">1049502</property>
  <property name="meta.attr.0.stream.handler_name.markup">VideoHandler</property>
  <property name="meta.attr.0.stream.vendor_id.markup">[0][0][0][0]</property>
  <property name="meta.media.1.stream.type">audio</property>
  <property name="meta.media.1.codec.sample_fmt">fltp</property>
  <property name="meta.media.1.codec.sample_rate">48000</property>
  <property name="meta.media.1.codec.channels">2</property>
  <property name="meta.media.1.codec.layout">stereo</property>
  <property name="meta.media.1.codec.name">aac</property>
  <property name="meta.media.1.codec.long_name">AAC (Advanced Audio Coding)</property>
  <property name="meta.media.1.codec.bit_rate">150648</property>
  <property name="meta.attr.1.stream.handler_name.markup">SoundHandler</property>
  <property name="meta.attr.1.stream.vendor_id.markup">[0][0][0][0]</property>
  <property name="meta.attr.major_brand.markup">isom</property>
  <property name="meta.attr.minor_version.markup">512</property>
  <property name="meta.attr.compatible_brands.markup">isomiso2avc1mp41</property>
  <property name="meta.attr.encoder.markup">Lavf58.9.100</property>
  <property name="meta.media.sample_aspect_num">833</property>
  <property name="meta.media.sample_aspect_den">832</property>
  <property name="meta.media.frame_rate_num">13978</property>
  <property name="meta.media.frame_rate_den">583</property>
  <property name="meta.media.colorspace">709</property>
  <property name="meta.media.color_trc">2</property>
  <property name="meta.media.has_b_frames">2</property>
  <property name="meta.media.width">1280</property>
  <property name="meta.media.height">700</property>
  <property name="meta.media.aspect_ratio">1.0012</property>
  <property name="meta.media.color_range">mpeg</property>
  <property name="xml">was here</property>
  <property name="mute_on_pause">0</property>
  <property name="meta.media.top_field_first">0</property>
  <property name="meta.media.progressive">1</property>
  <property name="set.test_audio">1</property>
  <property name="set.test_image">0</property>
 </chain>
 <playlist id="playlist2">
  <entry in="00:00:00.000" out="00:15:35.535" producer="chain2">
   <property name="kdenlive:id">4</property>
  </entry>
  <blank length="00:06:33.116"/>
  <entry in="00:35:04.713" out="00:49:07.841" producer="chain2">
   <property name="kdenlive:id">4</property>
  </entry>
  <blank length="00:05:53.095"/>
  <entry in="01:05:47.965" out="01:15:52.594" producer="chain2">
   <property name="kdenlive:id">4</property>
  </entry>
 </playlist>
 <chain id="chain3" out="01:15:52.594">
  <property name="length">109153</property>
  <property name="eof">pause</property>
  <property name="resource">FernGully.The.Last.Rainforest.1992.720p.BluRay.x264-[YTS.AM].mp4</property>
  <property name="mlt_service">avformat-novalidate</property>
  <property name="seekable">1</property>
  <property name="audio_index">1</property>
  <property name="video_index">0</property>
  <property name="vstream">0</property>
  <property name="astream">0</property>
  <property name="kdenlive:control_uuid">{659cc7b0-2ae7-4cf6-bfff-a76b8f428782}</property>
  <property name="kdenlive:id">4</property>
  <property name="kdenlive:clip_type">0</property>
  <property name="kdenlive:file_size">686900713</property>
  <property name="kdenlive:file_hash">178ebe62c13cf52f4a03718086ca8116</property>
  <property name="kdenlive:folderid">-1</property>
  <property name="meta.media.nb_streams">2</property>
  <property name="meta.media.0.stream.type">video</property>
  <property name="meta.media.0.stream.frame_rate">23.976</property>
  <property name="meta.media.0.stream.sample_aspect_ratio">1.0012</property>
  <property name="meta.media.0.codec.width">1280</property>
  <property name="meta.media.0.codec.height">700</property>
  <property name="meta.media.0.codec.rotate">0</property>
  <property name="meta.media.0.codec.pix_fmt">yuv420p</property>
  <property name="meta.media.0.codec.sample_aspect_ratio">1.0012</property>
  <property name="meta.media.0.codec.colorspace">709</property>
  <property name="meta.media.0.codec.name">h264</property>
  <property name="meta.media.0.codec.long_name">H.264 / AVC / MPEG-4 AVC / MPEG-4 part 10</property>
  <property name="meta.media.0.codec.bit_rate">1049502</property>
  <property name="meta.attr.0.stream.handler_name.markup">VideoHandler</property>
  <property name="meta.attr.0.stream.vendor_id.markup">[0][0][0][0]</property>
  <property name="meta.media.1.stream.type">audio</property>
  <property name="meta.media.1.codec.sample_fmt">fltp</property>
  <property name="meta.media.1.codec.sample_rate">48000</property>
  <property name="meta.media.1.codec.channels">2</property>
  <property name="meta.media.1.codec.layout">stereo</property>
  <property name="meta.media.1.codec.name">aac</property>
  <property name="meta.media.1.codec.long_name">AAC (Advanced Audio Coding)</property>
  <property name="meta.media.1.codec.bit_rate">150648</property>
  <property name="meta.attr.1.stream.handler_name.markup">SoundHandler</property>
  <property name="meta.attr.1.stream.vendor_id.markup">[0][0][0][0]</property>
  <property name="meta.attr.major_brand.markup">isom</property>
  <property name="meta.attr.minor_version.markup">512</property>
  <property name="meta.attr.compatible_brands.markup">isomiso2avc1mp41</property>
  <property name="meta.attr.encoder.markup">Lavf58.9.100</property>
  <property name="meta.media.sample_aspect_num">833</property>
  <property name="meta.media.sample_aspect_den">832</property>
  <property name="meta.media.frame_rate_num">13978</property>
  <property name="meta.media.frame_rate_den">583</property>
  <property name="meta.media.colorspace">709</property>
  <property name="meta.media.color_trc">2</property>
  <property name="meta.media.has_b_frames">2</property>
  <property name="meta.media.width">1280</property>
  <property name="meta.media.height">700</property>
  <property name="meta.media.aspect_ratio">1.0012</property>
  <property name="meta.media.color_range">mpeg</property>
  <property name="xml">was here</property>
  <property name="mute_on_pause">0</property>
  <property name="meta.media.top_field_first">0</property>
  <property name="meta.media.progressive">1</property>
  <property name="set.test_audio">1</property>
  <property name="set.test_image">0</property>
 </chain>
 <playlist id="playlist3">
  <blank length="00:15:34.576"/>
  <entry in="00:20:23.732" out="00:26:58.809" producer="chain3">
   <property name="kdenlive:id">4</property>
  </entry>
  <blank length="00:14:01.210"/>
  <entry in="00:51:54.513" out="00:57:52.886" producer="chain3">
   <property name="kdenlive:id">4</property>
  </entry>
 </playlist>
 <tractor id="tractor1" in="00:00:00.000" out="00:52:09.551">
  <property name="kdenlive:trackheight">84</property>
  <property name="kdenlive:timeline_active">1</property>
  <property name="kdenlive:collapsed">0</property>
  <property name="kdenlive:thumbs_format"/>
  <property name="kdenlive:audio_rec"/>
  <track hide="audio" producer="playlist2"/>
  <track hide="audio" producer="playlist3"/>
  <transition id="transition4" in="00:15:34.576" out="00:15:35.577">
   <property name="a_track">0</property>
   <property name="b_track">1</property>
   <property name="factory">loader</property>
   <property name="resource">C:/Program Files/kdenlive/bin/data/kdenlive/lumas/HD/bi-linear_x.pgm</property>
   <property name="mlt_service">luma</property>
   <property name="kdenlive_id">luma</property>
   <property name="kdenlive:mixcut">12</property>
   <property name="softness">0.2</property>
   <property name="alpha_over">1</property>
   <property name="fix_background_alpha">1</property>
   <property name="invert">0</property>
   <property name="reverse">0</property>
  </transition>
  <transition id="transition5" in="00:22:08.675" out="00:22:09.676">
   <property name="a_track">1</property>
   <property name="b_track">0</property>
   <property name="factory">loader</property>
   <property name="resource">C:/Program Files/kdenlive/bin/data/kdenlive/lumas/HD/cloud.pgm</property>
   <property name="mlt_service">luma</property>
   <property name="kdenlive_id">luma</property>
   <property name="kdenlive:mixcut">12</property>
   <property name="softness">0.45</property>
   <property name="alpha_over">1</property>
   <property name="fix_background_alpha">1</property>
   <property name="invert">0</property>
   <property name="reverse">0</property>
  </transition>
  <transition id="transition6" in="00:36:10.844" out="00:36:11.845">
   <property name="a_track">0</property>
   <property name="b_track">1</property>
   <property name="factory">loader</property>
   <property name="resource">luma01.pgm</property>
   <property name="mlt_service">luma</property>
   <property name="kdenlive_id">luma</property>
   <property name="kdenlive:mixcut">12</property>
   <property name="softness">0.31</property>
   <property name="alpha_over">1</property>
   <property name="fix_background_alpha">1</property>
   <property name="invert">0</property>
   <property name="reverse">0</property>
  </transition>
  <transition id="transition7" in="00:42:04.922" out="00:42:09.301">
   <property name="a_track">1</property>
   <property name="b_track">0</property>
   <property name="factory">loader</property>
   <property name="resource">C:/Program Files/kdenlive/bin/data/kdenlive/lumas/HD/curtain.pgm</property>
   <property name="mlt_service">luma</property>
   <property name="kdenlive_id">luma</property>
   <property name="kdenlive:mixcut">4</property>
   <property name="softness">0.65</property>
   <property name="alpha_over">1</property>
   <property name="fix_background_alpha">1</property>
   <property name="invert">0</property>
   <property name="reverse">0</property>
  </transition>
 </tractor>
 <tractor id="{2c20b48c-2cfc-4110-8245-d4e8173d8570}" in="00:00:00.000" out="00:52:09.551">
  <property name="kdenlive:uuid">{2c20b48c-2cfc-4110-8245-d4e8173d8570}</property>
  <property name="kdenlive:clipname">Sequence 1</property>
  <property name="kdenlive:sequenceproperties.hasAudio">1</property>
  <property name="kdenlive:sequenceproperties.hasVideo">1</property>
  <property name="kdenlive:sequenceproperties.activeTrack">-2</property>
  <property name="kdenlive:sequenceproperties.tracksCount">2</property>
  <property name="kdenlive:sequenceproperties.documentuuid">{2c20b48c-2cfc-4110-8245-d4e8173d8570}</property>
  <property name="kdenlive:control_uuid">{2c20b48c-2cfc-4110-8245-d4e8173d8570}</property>
  <property name="kdenlive:duration">00:52:09.593</property>
  <property name="kdenlive:maxduration">75035</property>
  <property name="kdenlive:producer_type">17</property>
  <property name="kdenlive:id">3</property>
  <property name="kdenlive:clip_type">0</property>
  <property name="kdenlive:file_size">0</property>
  <property name="kdenlive:folderid">2</property>
  <property name="kdenlive:sequenceproperties.audioTarget">1</property>
  <property name="kdenlive:sequenceproperties.disablepreview">0</property>
  <property name="kdenlive:sequenceproperties.globalSubtitleStyles">[
]
</property>
  <property name="kdenlive:sequenceproperties.position">0</property>
  <property name="kdenlive:sequenceproperties.scrollPos">14864</property>
  <property name="kdenlive:sequenceproperties.subtitlesList">[
    {
        "file": "C:/Users/kado/AppData/Local/Temp/1750552758923-{f39d3169-1856-44da-9918-f5cf0388929f}.ass",
        "id": 0,
        "name": "Subtitles"
    }
]
</property>
  <property name="kdenlive:sequenceproperties.tracks">4</property>
  <property name="kdenlive:sequenceproperties.verticalzoom">1</property>
  <property name="kdenlive:sequenceproperties.videoTarget">2</property>
  <property name="kdenlive:sequenceproperties.zonein">0</property>
  <property name="kdenlive:sequenceproperties.zoneout">75</property>
  <property name="kdenlive:sequenceproperties.zoom">11</property>
  <property name="kdenlive:sequenceproperties.groups">[
    {
        "children": [
            {
                "data": "0:60537:-1",
                "leaf": "clip",
                "type": "Leaf"
            },
            {
                "data": "1:60537:-1",
                "leaf": "clip",
                "type": "Leaf"
            }
        ],
        "type": "AVSplit"
    },
    {
        "children": [
            {
                "data": "0:0:-1",
                "leaf": "clip",
                "type": "Leaf"
            },
            {
                "data": "1:0:-1",
                "leaf": "clip",
                "type": "Leaf"
            }
        ],
        "type": "AVSplit"
    },
    {
        "children": [
            {
                "data": "1:22407:-1",
                "leaf": "clip",
                "type": "Leaf"
            },
            {
                "data": "0:22407:-1",
                "leaf": "clip",
                "type": "Leaf"
            }
        ],
        "type": "AVSplit"
    },
    {
        "children": [
            {
                "data": "1:31856:-1",
                "leaf": "clip",
                "type": "Leaf"
            },
            {
                "data": "0:31856:-1",
                "leaf": "clip",
                "type": "Leaf"
            }
        ],
        "type": "AVSplit"
    },
    {
        "children": [
            {
                "data": "1:52048:-1",
                "leaf": "clip",
                "type": "Leaf"
            },
            {
                "data": "0:52048:-1",
                "leaf": "clip",
                "type": "Leaf"
            }
        ],
        "type": "AVSplit"
    }
]
</property>
  <property name="kdenlive:sequenceproperties.guides">[
]
</property>
  <track producer="producer0"/>
  <track producer="tractor0"/>
  <track producer="tractor1"/>
  <transition id="transition8">
   <property name="a_track">0</property>
   <property name="b_track">1</property>
   <property name="mlt_service">mix</property>
   <property name="kdenlive_id">mix</property>
   <property name="internal_added">237</property>
   <property name="always_active">1</property>
   <property name="accepts_blanks">1</property>
   <property name="sum">1</property>
  </transition>
  <transition id="transition9">
   <property name="a_track">0</property>
   <property name="b_track">2</property>
   <property name="compositing">0</property>
   <property name="distort">0</property>
   <property name="rotate_center">0</property>
   <property name="mlt_service">qtblend</property>
   <property name="kdenlive_id">qtblend</property>
   <property name="internal_added">237</property>
   <property name="always_active">1</property>
  </transition>
  <filter id="filter3">
   <property name="window">75</property>
   <property name="max_gain">20dB</property>
   <property name="mlt_service">volume</property>
   <property name="internal_added">237</property>
   <property name="disable">1</property>
  </filter>
  <filter id="filter4">
   <property name="channel">-1</property>
   <property name="mlt_service">panner</property>
   <property name="internal_added">237</property>
   <property name="start">0.5</property>
   <property name="disable">1</property>
  </filter>
  <filter id="filter5">
   <property name="mlt_service">avfilter.subtitles</property>
   <property name="av.alpha">1</property>
   <property name="internal_added">237</property>
   <property name="av.filename">FernGully (1992) - Alena Edition.kdenlive.ass</property>
   <property name="disable">1</property>
  </filter>
 </tractor>
 <chain id="chain4" out="01:15:52.594">
  <property name="length">109153</property>
  <property name="eof">pause</property>
  <property name="resource">FernGully.The.Last.Rainforest.1992.720p.BluRay.x264-[YTS.AM].mp4</property>
  <property name="mlt_service">avformat</property>
  <property name="meta.media.nb_streams">2</property>
  <property name="meta.media.0.stream.type">video</property>
  <property name="meta.media.0.stream.frame_rate">23.976</property>
  <property name="meta.media.0.stream.sample_aspect_ratio">1.0012</property>
  <property name="meta.media.0.codec.width">1280</property>
  <property name="meta.media.0.codec.height">700</property>
  <property name="meta.media.0.codec.rotate">0</property>
  <property name="meta.media.0.codec.pix_fmt">yuv420p</property>
  <property name="meta.media.0.codec.sample_aspect_ratio">1.0012</property>
  <property name="meta.media.0.codec.colorspace">709</property>
  <property name="meta.media.0.codec.name">h264</property>
  <property name="meta.media.0.codec.long_name">H.264 / AVC / MPEG-4 AVC / MPEG-4 part 10</property>
  <property name="meta.media.0.codec.bit_rate">1049502</property>
  <property name="meta.attr.0.stream.handler_name.markup">VideoHandler</property>
  <property name="meta.attr.0.stream.vendor_id.markup">[0][0][0][0]</property>
  <property name="meta.media.1.stream.type">audio</property>
  <property name="meta.media.1.codec.sample_fmt">fltp</property>
  <property name="meta.media.1.codec.sample_rate">48000</property>
  <property name="meta.media.1.codec.channels">2</property>
  <property name="meta.media.1.codec.layout">stereo</property>
  <property name="meta.media.1.codec.name">aac</property>
  <property name="meta.media.1.codec.long_name">AAC (Advanced Audio Coding)</property>
  <property name="meta.media.1.codec.bit_rate">150648</property>
  <property name="meta.attr.1.stream.handler_name.markup">SoundHandler</property>
  <property name="meta.attr.1.stream.vendor_id.markup">[0][0][0][0]</property>
  <property name="meta.attr.major_brand.markup">isom</property>
  <property name="meta.attr.minor_version.markup">512</property>
  <property name="meta.attr.compatible_brands.markup">isomiso2avc1mp41</property>
  <property name="meta.attr.encoder.markup">Lavf58.9.100</property>
  <property name="seekable">1</property>
  <property name="meta.media.sample_aspect_num">833</property>
  <property name="meta.media.sample_aspect_den">832</property>
  <property name="audio_index">1</property>
  <property name="video_index">0</property>
  <property name="vstream">0</property>
  <property name="meta.media.frame_rate_num">13978</property>
  <property name="meta.media.frame_rate_den">583</property>
  <property name="meta.media.colorspace">709</property>
  <property name="meta.media.color_trc">2</property>
  <property name="meta.media.has_b_frames">2</property>
  <property name="meta.media.width">1280</property>
  <property name="meta.media.height">700</property>
  <property name="meta.media.aspect_ratio">1.0012</property>
  <property name="meta.media.color_range">mpeg</property>
  <property name="astream">0</property>
  <property name="meta.media.top_field_first">0</property>
  <property name="meta.media.progressive">1</property>
  <property name="kdenlive:control_uuid">{659cc7b0-2ae7-4cf6-bfff-a76b8f428782}</property>
  <property name="kdenlive:id">4</property>
  <property name="kdenlive:clip_type">0</property>
  <property name="kdenlive:file_size">686900713</property>
  <property name="kdenlive:file_hash">178ebe62c13cf52f4a03718086ca8116</property>
  <property name="kdenlive:folderid">-1</property>
 </chain>
 <playlist id="main_bin">
  <property name="kdenlive:folder.-1.2">Sequences</property>
  <property name="kdenlive:sequenceFolder">2</property>
  <property name="kdenlive:docproperties.audioChannels">2</property>
  <property name="kdenlive:docproperties.binsort">0</property>
  <property name="kdenlive:docproperties.browserurl">N:/Videos/Kids Movies/Aladdin (1992)/</property>
  <property name="kdenlive:docproperties.documentid">1750552758923</property>
  <property name="kdenlive:docproperties.enableTimelineZone">0</property>
  <property name="kdenlive:docproperties.enableexternalproxy">0</property>
  <property name="kdenlive:docproperties.enableproxy">0</property>
  <property name="kdenlive:docproperties.externalproxyparams">./;;.LRV;./;;.MP4</property>
  <property name="kdenlive:docproperties.generateimageproxy">0</property>
  <property name="kdenlive:docproperties.generateproxy">0</property>
  <property name="kdenlive:docproperties.guidesCategories">[
    {
        "color": "#9b59b6",
        "comment": "Category 1",
        "index": 0
    },
    {
        "color": "#3daee9",
        "comment": "Category 2",
        "index": 1
    },
    {
        "color": "#1abc9c",
        "comment": "Category 3",
        "index": 2
    },
    {
        "color": "#1cdc9a",
        "comment": "Category 4",
        "index": 3
    },
    {
        "color": "#c9ce3b",
        "comment": "Category 5",
        "index": 4
    },
    {
        "color": "#fdbc4b",
        "comment": "Category 6",
        "index": 5
    },
    {
        "color": "#f39c1f",
        "comment": "Category 7",
        "index": 6
    },
    {
        "color": "#f47750",
        "comment": "Category 8",
        "index": 7
    },
    {
        "color": "#da4453",
        "comment": "Category 9",
        "index": 8
    }
]
</property>
  <property name="kdenlive:docproperties.kdenliveversion">25.04.2</property>
  <property name="kdenlive:docproperties.previewextension"/>
  <property name="kdenlive:docproperties.previewparameters"/>
  <property name="kdenlive:docproperties.profile">C:/Users/kado/AppData/Roaming/kdenlive/profiles/customprofile4</property>
  <property name="kdenlive:docproperties.proxyextension"/>
  <property name="kdenlive:docproperties.proxyimageminsize">2000</property>
  <property name="kdenlive:docproperties.proxyimagesize">800</property>
  <property name="kdenlive:docproperties.proxyminsize">1000</property>
  <property name="kdenlive:docproperties.proxyparams"/>
  <property name="kdenlive:docproperties.proxyresize">640</property>
  <property name="kdenlive:docproperties.seekOffset">8991</property>
  <property name="kdenlive:docproperties.sessionid">{f39d3169-1856-44da-9918-f5cf0388929f}</property>
  <property name="kdenlive:docproperties.uuid">{2c20b48c-2cfc-4110-8245-d4e8173d8570}</property>
  <property name="kdenlive:docproperties.version">1.1</property>
  <property name="kdenlive:expandedFolders"/>
  <property name="kdenlive:binZoom">4</property>
  <property name="kdenlive:extraBins">project_bin:-1:0</property>
  <property name="kdenlive:documentnotes"/>
  <property name="kdenlive:documentnotesversion">2</property>
  <property name="kdenlive:docproperties.opensequences">{2c20b48c-2cfc-4110-8245-d4e8173d8570}</property>
  <property name="kdenlive:docproperties.activetimeline">{2c20b48c-2cfc-4110-8245-d4e8173d8570}</property>
  <property name="kdenlive:docproperties.renderurl">FernGully (1992) - Alena Edition.mp4</property>
  <property name="kdenlive:docproperties.rendercategory">Generic (HD for web, mobile devices...)</property>
  <property name="kdenlive:docproperties.rendercustomquality">-1</property>
  <property name="kdenlive:docproperties.renderendguide">-1</property>
  <property name="kdenlive:docproperties.renderexportaudio">0</property>
  <property name="kdenlive:docproperties.renderfullcolorrange">0</property>
  <property name="kdenlive:docproperties.rendermode">0</property>
  <property name="kdenlive:docproperties.renderplay">0</property>
  <property name="kdenlive:docproperties.renderpreview">0</property>
  <property name="kdenlive:docproperties.renderprofile">MP4-H264/AAC</property>
  <property name="kdenlive:docproperties.renderrescale">0</property>
  <property name="kdenlive:docproperties.renderrescaleheight">540</property>
  <property name="kdenlive:docproperties.renderrescalewidth">960</property>
  <property name="kdenlive:docproperties.renderspeed">6</property>
  <property name="kdenlive:docproperties.renderstartguide">-1</property>
  <property name="kdenlive:docproperties.rendertcoverlay">0</property>
  <property name="kdenlive:docproperties.rendertctype">-1</property>
  <property name="kdenlive:docproperties.rendertwopass">0</property>
  <property name="xml_retain">1</property>
  <entry in="00:00:00.000" out="00:00:00.000" producer="{2c20b48c-2cfc-4110-8245-d4e8173d8570}"/>
  <entry in="00:00:00.000" out="01:15:52.594" producer="chain4"/>
 </playlist>
 <tractor id="tractor2" in="00:00:00.000" out="00:52:09.551">
  <property name="kdenlive:projectTractor">1</property>
  <track in="00:00:00.000" out="00:52:09.551" producer="{2c20b48c-2cfc-4110-8245-d4e8173d8570}"/>
 </tractor>
</mlt>
