<?xml version='1.0' encoding='utf-8'?>
<mlt LC_NUMERIC="en_US.UTF-8" producer="main_bin" root="C:/Users/kado/Videos/FanEdits/FanMixes/Ninja Scroll (1993) - Minor Damage" version="7.33.0">
 <profile colorspace="709" description="1460x1080 23.98fps" display_aspect_den="54" display_aspect_num="73" frame_rate_den="1001" frame_rate_num="24000" height="1080" progressive="1" sample_aspect_den="1" sample_aspect_num="1" width="1460"/>
 <chain id="chain2" out="01:31:37.412">
  <property name="length">131806</property>
  <property name="eof">pause</property>
  <property name="resource">N:/Videos/Anime/Ninja Scroll (1993)/Ninja.Scroll.1993.JAPANESE.REPACK.1080p.BluRay.x264.AAC-[YTS.MX].mp4</property>
  <property name="mlt_service">avformat-novalidate</property>
  <property name="meta.media.nb_streams">2</property>
  <property name="meta.media.0.stream.type">video</property>
  <property name="meta.media.0.stream.frame_rate">23.976</property>
  <property name="meta.media.0.stream.sample_aspect_ratio">1</property>
  <property name="meta.media.0.codec.width">1460</property>
  <property name="meta.media.0.codec.height">1080</property>
  <property name="meta.media.0.codec.rotate">0</property>
  <property name="meta.media.0.codec.pix_fmt">yuv420p</property>
  <property name="meta.media.0.codec.sample_aspect_ratio">1</property>
  <property name="meta.media.0.codec.colorspace">709</property>
  <property name="meta.media.0.codec.color_trc">1</property>
  <property name="meta.media.0.codec.name">h264</property>
  <property name="meta.media.0.codec.long_name">H.264 / AVC / MPEG-4 AVC / MPEG-4 part 10</property>
  <property name="meta.media.0.codec.bit_rate">2249545</property>
  <property name="meta.attr.0.stream.handler_name.markup">VideoHandler</property>
  <property name="meta.attr.0.stream.vendor_id.markup">[0][0][0][0]</property>
  <property name="meta.media.1.stream.type">audio</property>
  <property name="meta.media.1.codec.sample_fmt">fltp</property>
  <property name="meta.media.1.codec.sample_rate">48000</property>
  <property name="meta.media.1.codec.channels">2</property>
  <property name="meta.media.1.codec.layout">stereo</property>
  <property name="meta.media.1.codec.name">aac</property>
  <property name="meta.media.1.codec.long_name">AAC (Advanced Audio Coding)</property>
  <property name="meta.media.1.codec.bit_rate">128343</property>
  <property name="meta.attr.1.stream.handler_name.markup">SoundHandler</property>
  <property name="meta.attr.1.stream.vendor_id.markup">[0][0][0][0]</property>
  <property name="meta.attr.major_brand.markup">isom</property>
  <property name="meta.attr.minor_version.markup">512</property>
  <property name="meta.attr.compatible_brands.markup">isomiso2avc1mp41</property>
  <property name="meta.attr.encoder.markup">Lavf58.67.100</property>
  <property name="seekable">1</property>
  <property name="meta.media.sample_aspect_num">1</property>
  <property name="meta.media.sample_aspect_den">1</property>
  <property name="audio_index">1</property>
  <property name="video_index">0</property>
  <property name="vstream">0</property>
  <property name="meta.media.frame_rate_num">24000</property>
  <property name="meta.media.frame_rate_den">1001</property>
  <property name="meta.media.colorspace">709</property>
  <property name="meta.media.color_trc">1</property>
  <property name="meta.media.has_b_frames">2</property>
  <property name="meta.media.width">1460</property>
  <property name="meta.media.height">1080</property>
  <property name="meta.media.aspect_ratio">1</property>
  <property name="meta.media.color_range">mpeg</property>
  <property name="astream">0</property>
  <property name="meta.media.top_field_first">0</property>
  <property name="meta.media.progressive">1</property>
  <property name="kdenlive:control_uuid">{891a33c5-f56c-4db3-af9d-e5d090f15f81}</property>
  <property name="kdenlive:id">4</property>
  <property name="kdenlive:clip_type">0</property>
  <property name="kdenlive:file_size">1638414332</property>
  <property name="kdenlive:file_hash">60a25d9238b9b13db61df3ca826fbd3b</property>
  <property name="kdenlive:folderid">-1</property>
  <property name="mute_on_pause">0</property>
 </chain>
 <chain id="chain13" out="00:04:20.020">
  <property name="length">6235</property>
  <property name="eof">pause</property>
  <property name="resource">ost/Guardian_Legend_The_Legend_of_Lightning_Larry_OC_ReMix.mp3</property>
  <property name="mlt_service">avformat-novalidate</property>
  <property name="meta.media.nb_streams">2</property>
  <property name="meta.media.0.stream.type">audio</property>
  <property name="meta.media.0.codec.sample_fmt">fltp</property>
  <property name="meta.media.0.codec.sample_rate">44100</property>
  <property name="meta.media.0.codec.channels">2</property>
  <property name="meta.media.0.codec.layout">stereo</property>
  <property name="meta.media.0.codec.name">mp3float</property>
  <property name="meta.media.0.codec.long_name">MP3 (MPEG audio layer 3)</property>
  <property name="meta.media.0.codec.bit_rate">196505</property>
  <property name="meta.media.1.stream.type">video</property>
  <property name="meta.media.1.stream.frame_rate">90000</property>
  <property name="meta.media.1.stream.sample_aspect_ratio">0</property>
  <property name="meta.media.1.codec.width">700</property>
  <property name="meta.media.1.codec.height">700</property>
  <property name="meta.media.1.codec.rotate">0</property>
  <property name="meta.media.1.codec.pix_fmt">yuvj444p</property>
  <property name="meta.media.1.codec.sample_aspect_ratio">0</property>
  <property name="meta.media.1.codec.colorspace">601</property>
  <property name="meta.media.1.codec.name">mjpeg</property>
  <property name="meta.media.1.codec.long_name">MJPEG (Motion JPEG)</property>
  <property name="meta.media.1.codec.bit_rate">0</property>
  <property name="meta.attr.1.stream.comment.markup">Cover (front)</property>
  <property name="meta.attr.album.markup">ocremix.org</property>
  <property name="meta.attr.artist.markup">zykO</property>
  <property name="meta.attr.album_artist.markup">OverClocked ReMix</property>
  <property name="meta.attr.comment.markup">boom diggity&#xd;
Guardian Legend (with a little bit of that Ninja Gaiden goodness)&#xd;
i finally got around to it, Larry - thanks for the suggestion (and the song truly is not about you, oh longevitous one :P)&#xd;
&#xd;
Waleed Hawatky&#xd;
wmhawatky@yahoo.com&#xd;
http://zykomazika.com</property>
  <property name="meta.attr.composer.markup">Masatomo Miyamoto, Takeshi Santo, Keiji Yamagishi</property>
  <property name="meta.attr.grouping.markup">Guardian Legend</property>
  <property name="meta.attr.copyright.markup">Irem</property>
  <property name="meta.attr.encoded_by.markup">Waleed Hawatky (wmhawatky@yahoo.com)</property>
  <property name="meta.attr.genre.markup">Game</property>
  <property name="meta.attr.compilation.markup">1</property>
  <property name="meta.attr.TOPE.markup">NES</property>
  <property name="meta.attr.publisher.markup">OverClocked ReMix</property>
  <property name="meta.attr.SETSUBTITLE.markup">OCR01398</property>
  <property name="meta.attr.TIT3.markup">The Legend of Lightning Larry</property>
  <property name="meta.attr.title.markup">Guardian Legend "The Legend of Lightning Larry" OC ReMix</property>
  <property name="meta.attr.track.markup">1398</property>
  <property name="meta.attr.date.markup">2005</property>
  <property name="seekable">1</property>
  <property name="meta.media.sample_aspect_num">1</property>
  <property name="meta.media.sample_aspect_den">1</property>
  <property name="audio_index">0</property>
  <property name="video_index">1</property>
  <property name="vstream">0</property>
  <property name="meta.media.frame_rate_num">90000</property>
  <property name="meta.media.frame_rate_den">1</property>
  <property name="meta.media.colorspace">601</property>
  <property name="meta.media.color_trc">2</property>
  <property name="meta.media.has_b_frames">0</property>
  <property name="meta.media.width">700</property>
  <property name="meta.media.height">700</property>
  <property name="meta.media.aspect_ratio">1</property>
  <property name="meta.media.color_range">full</property>
  <property name="astream">0</property>
  <property name="meta.media.top_field_first">0</property>
  <property name="meta.media.progressive">1</property>
  <property name="kdenlive:folderid">11</property>
  <property name="kdenlive:id">5</property>
  <property name="kdenlive:control_uuid">{9c69fd85-fdf5-46b6-8d5a-066ccf6b57cd}</property>
  <property name="mute_on_pause">0</property>
  <property name="kdenlive:clip_type">0</property>
  <property name="kdenlive:coverartstream">1</property>
  <property name="kdenlive:file_size">6475231</property>
  <property name="kdenlive:file_hash">b662497f42087d1d3a118d98393f60fe</property>
 </chain>
 <chain id="chain14" out="00:04:12.054">
  <property name="length">6044</property>
  <property name="eof">pause</property>
  <property name="resource">ost/Ninja_Gaiden_Basilisk_Run_OC_ReMix.mp3</property>
  <property name="mlt_service">avformat-novalidate</property>
  <property name="meta.media.nb_streams">2</property>
  <property name="meta.media.0.stream.type">audio</property>
  <property name="meta.media.0.codec.sample_fmt">fltp</property>
  <property name="meta.media.0.codec.sample_rate">44100</property>
  <property name="meta.media.0.codec.channels">2</property>
  <property name="meta.media.0.codec.layout">stereo</property>
  <property name="meta.media.0.codec.name">mp3float</property>
  <property name="meta.media.0.codec.long_name">MP3 (MPEG audio layer 3)</property>
  <property name="meta.media.0.codec.bit_rate">184565</property>
  <property name="meta.media.1.stream.type">video</property>
  <property name="meta.media.1.stream.frame_rate">90000</property>
  <property name="meta.media.1.stream.sample_aspect_ratio">0</property>
  <property name="meta.media.1.codec.width">700</property>
  <property name="meta.media.1.codec.height">700</property>
  <property name="meta.media.1.codec.rotate">0</property>
  <property name="meta.media.1.codec.pix_fmt">yuvj444p</property>
  <property name="meta.media.1.codec.sample_aspect_ratio">0</property>
  <property name="meta.media.1.codec.colorspace">601</property>
  <property name="meta.media.1.codec.name">mjpeg</property>
  <property name="meta.media.1.codec.long_name">MJPEG (Motion JPEG)</property>
  <property name="meta.media.1.codec.bit_rate">0</property>
  <property name="meta.attr.1.stream.comment.markup">Cover (front)</property>
  <property name="meta.attr.album.markup">ocremix.org</property>
  <property name="meta.attr.artist.markup">Vurez</property>
  <property name="meta.attr.album_artist.markup">OverClocked ReMix</property>
  <property name="meta.attr.comment.markup">This is a remix of the mine music from the first Ninja Gaiden on the NES, my favorite track in the game. And since this is a mine remix, I used a good amount of reverb and echoey delay in some parts (well, I pretty much always use quite a bit of reverb and delay, but at least it fits better in this case, for a mine mix). I also gave it a bit of South American flavor.&#xd;
&#xd;
The cast: panpipes, guitars, violin/strings, chorus, trumpet, Latin and rock drums.&#xd;
&#xd;
Don Muritz&#xd;
vurez@vurez.com&#xd;
http://vurez.com</property>
  <property name="meta.attr.composer.markup">Keiji Yamagishi</property>
  <property name="meta.attr.grouping.markup">Ninja Gaiden</property>
  <property name="meta.attr.copyright.markup">Tecmo</property>
  <property name="meta.attr.encoded_by.markup">Don Muritz (vurez@vurez.com)</property>
  <property name="meta.attr.genre.markup">Game</property>
  <property name="meta.attr.compilation.markup">1</property>
  <property name="meta.attr.TOPE.markup">NES</property>
  <property name="meta.attr.publisher.markup">OverClocked ReMix</property>
  <property name="meta.attr.SETSUBTITLE.markup">OCR01384</property>
  <property name="meta.attr.TIT3.markup">Basilisk Run</property>
  <property name="meta.attr.title.markup">Ninja Gaiden "Basilisk Run" OC ReMix</property>
  <property name="meta.attr.track.markup">1384</property>
  <property name="meta.attr.date.markup">2005</property>
  <property name="seekable">1</property>
  <property name="meta.media.sample_aspect_num">1</property>
  <property name="meta.media.sample_aspect_den">1</property>
  <property name="audio_index">0</property>
  <property name="video_index">1</property>
  <property name="vstream">0</property>
  <property name="meta.media.frame_rate_num">90000</property>
  <property name="meta.media.frame_rate_den">1</property>
  <property name="meta.media.colorspace">601</property>
  <property name="meta.media.color_trc">2</property>
  <property name="meta.media.has_b_frames">0</property>
  <property name="meta.media.width">700</property>
  <property name="meta.media.height">700</property>
  <property name="meta.media.aspect_ratio">1</property>
  <property name="meta.media.color_range">full</property>
  <property name="astream">0</property>
  <property name="meta.media.top_field_first">0</property>
  <property name="meta.media.progressive">1</property>
  <property name="kdenlive:folderid">11</property>
  <property name="kdenlive:id">6</property>
  <property name="kdenlive:control_uuid">{9d20e34b-c7b1-4d6a-856a-c352dd4f58f5}</property>
  <property name="mute_on_pause">0</property>
  <property name="kdenlive:clip_type">0</property>
  <property name="kdenlive:coverartstream">1</property>
  <property name="kdenlive:file_size">5903653</property>
  <property name="kdenlive:file_hash">ba5f74dcd688954446ac8a50e27e74bf</property>
 </chain>
 <chain id="chain15" out="00:03:34.743">
  <property name="length">5149</property>
  <property name="eof">pause</property>
  <property name="resource">ost/Ninja_Gaiden_Death_of_a_Legend_OC_ReMix.mp3</property>
  <property name="mlt_service">avformat-novalidate</property>
  <property name="meta.media.nb_streams">2</property>
  <property name="meta.media.0.stream.type">audio</property>
  <property name="meta.media.0.codec.sample_fmt">fltp</property>
  <property name="meta.media.0.codec.sample_rate">44100</property>
  <property name="meta.media.0.codec.channels">2</property>
  <property name="meta.media.0.codec.layout">stereo</property>
  <property name="meta.media.0.codec.name">mp3float</property>
  <property name="meta.media.0.codec.long_name">MP3 (MPEG audio layer 3)</property>
  <property name="meta.media.0.codec.bit_rate">192000</property>
  <property name="meta.media.1.stream.type">video</property>
  <property name="meta.media.1.stream.frame_rate">90000</property>
  <property name="meta.media.1.stream.sample_aspect_ratio">0</property>
  <property name="meta.media.1.codec.width">700</property>
  <property name="meta.media.1.codec.height">700</property>
  <property name="meta.media.1.codec.rotate">0</property>
  <property name="meta.media.1.codec.pix_fmt">yuvj444p</property>
  <property name="meta.media.1.codec.sample_aspect_ratio">0</property>
  <property name="meta.media.1.codec.colorspace">601</property>
  <property name="meta.media.1.codec.name">mjpeg</property>
  <property name="meta.media.1.codec.long_name">MJPEG (Motion JPEG)</property>
  <property name="meta.media.1.codec.bit_rate">0</property>
  <property name="meta.attr.1.stream.comment.markup">Cover (front)</property>
  <property name="meta.attr.album.markup">ocremix.org</property>
  <property name="meta.attr.artist.markup">Russell Cox</property>
  <property name="meta.attr.album_artist.markup">OverClocked ReMix</property>
  <property name="meta.attr.comment.markup">Russell Cox&#xd;
russellius@gmail.com&#xd;
https://viertel.livejournal.com</property>
  <property name="meta.attr.composer.markup">Keiji Yamagishi</property>
  <property name="meta.attr.grouping.markup">Ninja Gaiden</property>
  <property name="meta.attr.copyright.markup">Tecmo</property>
  <property name="meta.attr.encoded_by.markup">Russell Cox (russellius@gmail.com)</property>
  <property name="meta.attr.genre.markup">Game</property>
  <property name="meta.attr.compilation.markup">1</property>
  <property name="meta.attr.TOPE.markup">NES</property>
  <property name="meta.attr.publisher.markup">OverClocked ReMix</property>
  <property name="meta.attr.SETSUBTITLE.markup">OCR00867</property>
  <property name="meta.attr.TIT3.markup">Death of a Legend</property>
  <property name="meta.attr.title.markup">Ninja Gaiden "Death of a Legend" OC ReMix</property>
  <property name="meta.attr.track.markup">867</property>
  <property name="meta.attr.date.markup">2002</property>
  <property name="seekable">1</property>
  <property name="meta.media.sample_aspect_num">1</property>
  <property name="meta.media.sample_aspect_den">1</property>
  <property name="audio_index">0</property>
  <property name="video_index">1</property>
  <property name="vstream">0</property>
  <property name="meta.media.frame_rate_num">90000</property>
  <property name="meta.media.frame_rate_den">1</property>
  <property name="meta.media.colorspace">601</property>
  <property name="meta.media.color_trc">2</property>
  <property name="meta.media.has_b_frames">0</property>
  <property name="meta.media.width">700</property>
  <property name="meta.media.height">700</property>
  <property name="meta.media.aspect_ratio">1</property>
  <property name="meta.media.color_range">full</property>
  <property name="astream">0</property>
  <property name="meta.media.top_field_first">0</property>
  <property name="meta.media.progressive">1</property>
  <property name="kdenlive:folderid">11</property>
  <property name="kdenlive:id">7</property>
  <property name="kdenlive:control_uuid">{15ff4cec-63c3-4f81-9fd0-b2783bdd1a4c}</property>
  <property name="mute_on_pause">0</property>
  <property name="kdenlive:clip_type">0</property>
  <property name="kdenlive:coverartstream">1</property>
  <property name="kdenlive:file_size">5241730</property>
  <property name="kdenlive:file_hash">f3bdb8c8f4731762636bd031bb4eabcf</property>
 </chain>
 <chain id="chain16" out="00:04:17.392">
  <property name="length">6172</property>
  <property name="eof">pause</property>
  <property name="resource">ost/Ninja_Gaiden_Devil's_Mask_OC_ReMix.mp3</property>
  <property name="mlt_service">avformat-novalidate</property>
  <property name="meta.media.nb_streams">2</property>
  <property name="meta.media.0.stream.type">audio</property>
  <property name="meta.media.0.codec.sample_fmt">fltp</property>
  <property name="meta.media.0.codec.sample_rate">44100</property>
  <property name="meta.media.0.codec.channels">2</property>
  <property name="meta.media.0.codec.layout">stereo</property>
  <property name="meta.media.0.codec.name">mp3float</property>
  <property name="meta.media.0.codec.long_name">MP3 (MPEG audio layer 3)</property>
  <property name="meta.media.0.codec.bit_rate">128000</property>
  <property name="meta.media.1.stream.type">video</property>
  <property name="meta.media.1.stream.frame_rate">90000</property>
  <property name="meta.media.1.stream.sample_aspect_ratio">0</property>
  <property name="meta.media.1.codec.width">700</property>
  <property name="meta.media.1.codec.height">700</property>
  <property name="meta.media.1.codec.rotate">0</property>
  <property name="meta.media.1.codec.pix_fmt">yuvj444p</property>
  <property name="meta.media.1.codec.sample_aspect_ratio">0</property>
  <property name="meta.media.1.codec.colorspace">601</property>
  <property name="meta.media.1.codec.name">mjpeg</property>
  <property name="meta.media.1.codec.long_name">MJPEG (Motion JPEG)</property>
  <property name="meta.media.1.codec.bit_rate">0</property>
  <property name="meta.attr.1.stream.comment.markup">Cover (front)</property>
  <property name="meta.attr.album.markup">ocremix.org</property>
  <property name="meta.attr.artist.markup">SFLaValle</property>
  <property name="meta.attr.album_artist.markup">OverClocked ReMix</property>
  <property name="meta.attr.comment.markup">Sean LaValle&#xd;
https://ff8sf2.zophar.net</property>
  <property name="meta.attr.composer.markup">Keiji Yamagishi</property>
  <property name="meta.attr.grouping.markup">Ninja Gaiden</property>
  <property name="meta.attr.copyright.markup">Tecmo</property>
  <property name="meta.attr.encoded_by.markup">Sean LaValle</property>
  <property name="meta.attr.genre.markup">Game</property>
  <property name="meta.attr.compilation.markup">1</property>
  <property name="meta.attr.TOPE.markup">NES</property>
  <property name="meta.attr.publisher.markup">OverClocked ReMix</property>
  <property name="meta.attr.SETSUBTITLE.markup">OCR00338</property>
  <property name="meta.attr.TIT3.markup">Devil's Mask</property>
  <property name="meta.attr.title.markup">Ninja Gaiden "Devil's Mask" OC ReMix</property>
  <property name="meta.attr.track.markup">338</property>
  <property name="meta.attr.date.markup">2001</property>
  <property name="seekable">1</property>
  <property name="meta.media.sample_aspect_num">1</property>
  <property name="meta.media.sample_aspect_den">1</property>
  <property name="audio_index">0</property>
  <property name="video_index">1</property>
  <property name="vstream">0</property>
  <property name="meta.media.frame_rate_num">90000</property>
  <property name="meta.media.frame_rate_den">1</property>
  <property name="meta.media.colorspace">601</property>
  <property name="meta.media.color_trc">2</property>
  <property name="meta.media.has_b_frames">0</property>
  <property name="meta.media.width">700</property>
  <property name="meta.media.height">700</property>
  <property name="meta.media.aspect_ratio">1</property>
  <property name="meta.media.color_range">full</property>
  <property name="astream">0</property>
  <property name="meta.media.top_field_first">0</property>
  <property name="meta.media.progressive">1</property>
  <property name="kdenlive:folderid">11</property>
  <property name="kdenlive:id">8</property>
  <property name="kdenlive:control_uuid">{25b4e631-7203-41e2-9d74-ad560ce70cd2}</property>
  <property name="mute_on_pause">0</property>
  <property name="kdenlive:clip_type">0</property>
  <property name="kdenlive:coverartstream">1</property>
  <property name="kdenlive:file_size">4205608</property>
  <property name="kdenlive:file_hash">94079596574f71734f8f5805938af9a6</property>
  <property name="kdenlive:monitorPosition">20</property>
 </chain>
 <chain id="chain17" out="00:03:54.888">
  <property name="length">5632</property>
  <property name="eof">pause</property>
  <property name="resource">ost/Ninja_Gaiden_Ninjitsu_Groove_OC_ReMix.mp3</property>
  <property name="mlt_service">avformat-novalidate</property>
  <property name="meta.media.nb_streams">2</property>
  <property name="meta.media.0.stream.type">audio</property>
  <property name="meta.media.0.codec.sample_fmt">fltp</property>
  <property name="meta.media.0.codec.sample_rate">44100</property>
  <property name="meta.media.0.codec.channels">2</property>
  <property name="meta.media.0.codec.layout">stereo</property>
  <property name="meta.media.0.codec.name">mp3float</property>
  <property name="meta.media.0.codec.long_name">MP3 (MPEG audio layer 3)</property>
  <property name="meta.media.0.codec.bit_rate">192000</property>
  <property name="meta.media.1.stream.type">video</property>
  <property name="meta.media.1.stream.frame_rate">90000</property>
  <property name="meta.media.1.stream.sample_aspect_ratio">0</property>
  <property name="meta.media.1.codec.width">700</property>
  <property name="meta.media.1.codec.height">700</property>
  <property name="meta.media.1.codec.rotate">0</property>
  <property name="meta.media.1.codec.pix_fmt">yuvj444p</property>
  <property name="meta.media.1.codec.sample_aspect_ratio">0</property>
  <property name="meta.media.1.codec.colorspace">601</property>
  <property name="meta.media.1.codec.name">mjpeg</property>
  <property name="meta.media.1.codec.long_name">MJPEG (Motion JPEG)</property>
  <property name="meta.media.1.codec.bit_rate">0</property>
  <property name="meta.attr.1.stream.comment.markup">Cover (front)</property>
  <property name="meta.attr.album.markup">ocremix.org</property>
  <property name="meta.attr.artist.markup">ProFiction, Danny Baranowsky</property>
  <property name="meta.attr.album_artist.markup">OverClocked ReMix</property>
  <property name="meta.attr.comment.markup">Danny Baranowsky: A dance remix of track 8 from the Ninja Gaiden NSF. &#xd;
&#xd;
ProFiction submitted a remix called "Ninjitsu Symphony" and it was rejected. I took his Reason file, and did everything to it to make it sound like this.&#xd;
&#xd;
Hope you enjoy it.&#xd;
&#xd;
Danny Baranowsky&#xd;
db@dbsoundworks.com&#xd;
http://dbsoundworks.com</property>
  <property name="meta.attr.composer.markup">Keiji Yamagishi</property>
  <property name="meta.attr.grouping.markup">Ninja Gaiden</property>
  <property name="meta.attr.copyright.markup">Tecmo</property>
  <property name="meta.attr.encoded_by.markup">Danny Baranowsky (db@dbsoundworks.com)</property>
  <property name="meta.attr.genre.markup">Game</property>
  <property name="meta.attr.compilation.markup">1</property>
  <property name="meta.attr.TOPE.markup">NES</property>
  <property name="meta.attr.publisher.markup">OverClocked ReMix</property>
  <property name="meta.attr.SETSUBTITLE.markup">OCR01030</property>
  <property name="meta.attr.TIT3.markup">Ninjitsu Groove</property>
  <property name="meta.attr.title.markup">Ninja Gaiden "Ninjitsu Groove" OC ReMix</property>
  <property name="meta.attr.track.markup">1030</property>
  <property name="meta.attr.date.markup">2003</property>
  <property name="seekable">1</property>
  <property name="meta.media.sample_aspect_num">1</property>
  <property name="meta.media.sample_aspect_den">1</property>
  <property name="audio_index">0</property>
  <property name="video_index">1</property>
  <property name="vstream">0</property>
  <property name="meta.media.frame_rate_num">90000</property>
  <property name="meta.media.frame_rate_den">1</property>
  <property name="meta.media.colorspace">601</property>
  <property name="meta.media.color_trc">2</property>
  <property name="meta.media.has_b_frames">0</property>
  <property name="meta.media.width">700</property>
  <property name="meta.media.height">700</property>
  <property name="meta.media.aspect_ratio">1</property>
  <property name="meta.media.color_range">full</property>
  <property name="astream">0</property>
  <property name="meta.media.top_field_first">0</property>
  <property name="meta.media.progressive">1</property>
  <property name="kdenlive:folderid">11</property>
  <property name="kdenlive:id">9</property>
  <property name="kdenlive:control_uuid">{1e480c65-9a3b-4571-bd84-d38c8fe7c420}</property>
  <property name="mute_on_pause">0</property>
  <property name="kdenlive:clip_type">0</property>
  <property name="kdenlive:coverartstream">1</property>
  <property name="kdenlive:file_size">5725731</property>
  <property name="kdenlive:file_hash">e5250b4fbd083a5061549b49f6329e65</property>
 </chain>
 <chain id="chain18" out="00:03:29.571">
  <property name="length">5025</property>
  <property name="eof">pause</property>
  <property name="resource">ost/Ninja_Gaiden_Sudden_Loss_OC_ReMix.mp3</property>
  <property name="mlt_service">avformat-novalidate</property>
  <property name="meta.media.nb_streams">2</property>
  <property name="meta.media.0.stream.type">audio</property>
  <property name="meta.media.0.codec.sample_fmt">fltp</property>
  <property name="meta.media.0.codec.sample_rate">44100</property>
  <property name="meta.media.0.codec.channels">2</property>
  <property name="meta.media.0.codec.layout">stereo</property>
  <property name="meta.media.0.codec.name">mp3float</property>
  <property name="meta.media.0.codec.long_name">MP3 (MPEG audio layer 3)</property>
  <property name="meta.media.0.codec.bit_rate">160000</property>
  <property name="meta.media.1.stream.type">video</property>
  <property name="meta.media.1.stream.frame_rate">90000</property>
  <property name="meta.media.1.stream.sample_aspect_ratio">0</property>
  <property name="meta.media.1.codec.width">700</property>
  <property name="meta.media.1.codec.height">700</property>
  <property name="meta.media.1.codec.rotate">0</property>
  <property name="meta.media.1.codec.pix_fmt">yuvj444p</property>
  <property name="meta.media.1.codec.sample_aspect_ratio">0</property>
  <property name="meta.media.1.codec.colorspace">601</property>
  <property name="meta.media.1.codec.name">mjpeg</property>
  <property name="meta.media.1.codec.long_name">MJPEG (Motion JPEG)</property>
  <property name="meta.media.1.codec.bit_rate">0</property>
  <property name="meta.attr.1.stream.comment.markup">Cover (front)</property>
  <property name="meta.attr.album.markup">ocremix.org</property>
  <property name="meta.attr.artist.markup">goat</property>
  <property name="meta.attr.album_artist.markup">OverClocked ReMix</property>
  <property name="meta.attr.comment.markup">Hi there,&#xd;
&#xd;
You guys rejected a remix that I made but said you'd like to see it resubmitted.&#xd;
I'm resubmitting it with your suggestions taken into account.&#xd;
&#xd;
Thanks for the comments,&#xd;
&#xd;
Chris Gates&#xd;
goat@powergoat.com&#xd;
http://powergoat.com</property>
  <property name="meta.attr.composer.markup">Keiji Yamagishi</property>
  <property name="meta.attr.grouping.markup">Ninja Gaiden</property>
  <property name="meta.attr.copyright.markup">Tecmo</property>
  <property name="meta.attr.encoded_by.markup">Chris Gates (goat@powergoat.com)</property>
  <property name="meta.attr.genre.markup">Game</property>
  <property name="meta.attr.compilation.markup">1</property>
  <property name="meta.attr.TOPE.markup">NES</property>
  <property name="meta.attr.publisher.markup">OverClocked ReMix</property>
  <property name="meta.attr.SETSUBTITLE.markup">OCR00934</property>
  <property name="meta.attr.TIT3.markup">Sudden Loss</property>
  <property name="meta.attr.title.markup">Ninja Gaiden "Sudden Loss" OC ReMix</property>
  <property name="meta.attr.track.markup">934</property>
  <property name="meta.attr.date.markup">2003</property>
  <property name="seekable">1</property>
  <property name="meta.media.sample_aspect_num">1</property>
  <property name="meta.media.sample_aspect_den">1</property>
  <property name="audio_index">0</property>
  <property name="video_index">1</property>
  <property name="vstream">0</property>
  <property name="meta.media.frame_rate_num">90000</property>
  <property name="meta.media.frame_rate_den">1</property>
  <property name="meta.media.colorspace">601</property>
  <property name="meta.media.color_trc">2</property>
  <property name="meta.media.has_b_frames">0</property>
  <property name="meta.media.width">700</property>
  <property name="meta.media.height">700</property>
  <property name="meta.media.aspect_ratio">1</property>
  <property name="meta.media.color_range">full</property>
  <property name="astream">0</property>
  <property name="meta.media.top_field_first">0</property>
  <property name="meta.media.progressive">1</property>
  <property name="kdenlive:folderid">11</property>
  <property name="kdenlive:id">10</property>
  <property name="kdenlive:control_uuid">{5aae86f1-a4ba-48e9-8957-9b7a2621d784}</property>
  <property name="mute_on_pause">0</property>
  <property name="kdenlive:clip_type">0</property>
  <property name="kdenlive:coverartstream">1</property>
  <property name="kdenlive:file_size">4279074</property>
  <property name="kdenlive:file_hash">1fcbe287efa2d5d77e2706440c6d4a86</property>
 </chain>
 <chain id="chain19" out="00:04:43.669">
  <property name="length">6802</property>
  <property name="eof">pause</property>
  <property name="resource">ost/Ninja_Gaiden_The_Cost_of_Vengeance_OC_ReMix.mp3</property>
  <property name="mlt_service">avformat-novalidate</property>
  <property name="meta.media.nb_streams">2</property>
  <property name="meta.media.0.stream.type">audio</property>
  <property name="meta.media.0.codec.sample_fmt">fltp</property>
  <property name="meta.media.0.codec.sample_rate">44100</property>
  <property name="meta.media.0.codec.channels">2</property>
  <property name="meta.media.0.codec.layout">stereo</property>
  <property name="meta.media.0.codec.name">mp3float</property>
  <property name="meta.media.0.codec.long_name">MP3 (MPEG audio layer 3)</property>
  <property name="meta.media.0.codec.bit_rate">192000</property>
  <property name="meta.media.1.stream.type">video</property>
  <property name="meta.media.1.stream.frame_rate">90000</property>
  <property name="meta.media.1.stream.sample_aspect_ratio">0</property>
  <property name="meta.media.1.codec.width">700</property>
  <property name="meta.media.1.codec.height">700</property>
  <property name="meta.media.1.codec.rotate">0</property>
  <property name="meta.media.1.codec.pix_fmt">yuvj444p</property>
  <property name="meta.media.1.codec.sample_aspect_ratio">0</property>
  <property name="meta.media.1.codec.colorspace">601</property>
  <property name="meta.media.1.codec.name">mjpeg</property>
  <property name="meta.media.1.codec.long_name">MJPEG (Motion JPEG)</property>
  <property name="meta.media.1.codec.bit_rate">0</property>
  <property name="meta.attr.1.stream.comment.markup">Cover (front)</property>
  <property name="meta.attr.album.markup">ocremix.org</property>
  <property name="meta.attr.artist.markup">Vijay van der Weijden feat. Job Wijkamp</property>
  <property name="meta.attr.album_artist.markup">OverClocked ReMix</property>
  <property name="meta.attr.comment.markup">Vijay van der Weijden: Dear OC ReMix,&#xd;
&#xd;
My name is Vijay van der Weijden, I remixed/covered music from Ninja Gaiden for the NES, a Western-styled cover of "A Hero's End" and "Vow of Revenge," guitar performance by Job Wijkamp (http://linkedin.com/in/job-wijkamp-90954612a). I thought I'd try to get it submitted on OC ReMix, since you're kind of the main authorities on game remixes, etc. I called the arrangement "The Cost of Vengeance."&#xd;
&#xd;
The focus of the arrangement lies on the track "A Hero's End." The outro of the arrangement is "Vow of Revenge." And, at one point, the strings play "Unbreakable Determination" in the background.&#xd;
&#xd;
Okay, so Ryu is this tough, lone-wolf ninja. Sure, in the game, he gets with Irene in the end, but I always thought that didn't really fit his character... At the beginning of the game, he "vows to revenge" his father and also gets tangled up in the plot with Jaquio and such. At the end of the game, he's saved the day, but he also lost his father in the act. While the people rejoice (I think it's just Irene who's physically present, but let's pretend there's at least 5 more people), Ryu isn't happy at all. He did the world a favor, but at what cost? He mourns his father's death in his own badass way. By silently walking into the sunset. That's how I envision the ending and that gave me a sort of "Western" feel. So, I decided to give the music a Western twist to it, to convey a different feeling on Ryu losing his father.&#xd;
&#xd;
I want to thank you judges for the substantive feedback. It's very clear and specific!&#xd;
&#xd;
As Gario pointed out, I intended that background flute to play some jazz-like harmonies, but I guess it didn't work out too well. I've changed almost every part of the flute to something more acceptable (I hope). Nearly every note should be in harmony with the original scale of the piece now, but I kept the imperfect pitches so it will still sound human.&#xd;
&#xd;
I'm happy to read that some of you agree with the trumpet parts. It's been a long process to get it sounding like that, and not spending 140 Euros on a higher quality VST. I really wanted to meet Liontamer's criticism more here, but due to all the effects and edits on the trumpet it has become... "unstable." Even something simple as changing the velocity of a note is very delicate work now and I reckon has a high chance of impacting the piece in a negative way, so I picked the safest option here and let the part be. With the exception of boosting mid-high frequencies by 3dB to make it sound just a teensy bit fresher.&#xd;
&#xd;
I've tried to speed up the intro some as DragonAvenger would've liked, but it killed the intended mood for me and I think that would be a shame, so I'm sorry for not making that change, DragonAvenger.&#xd;
&#xd;
And lastly, I've given the drums more variation and made them play some differing rhythms now and then to hopefully break up that metronome-like feeling. I also considered to change the whole set for a more realistic-sounding one, as I obtained better drum libraries since I submitted this piece. In the end, I decided not to do this since you've asked me for a *quick* fix and I presume you don't want me to alter the music too much as, from what I can gather, the track is very close to sufficing. Wandering too far from the original seems like a risky move.&#xd;
&#xd;
I hope you'll agree with the changes that I made (and didn't make) and that you'll give this track a YES. Even if it doesn't make it through, I'll be sure to send you some more game remixes in the future that I hope you'll like! :)&#xd;
&#xd;
Best regards,&#xd;
&#xd;
Vijay van der Weijden&#xd;
https://soundcloud.com/vijayvanderweijdenmusic</property>
  <property name="meta.attr.composer.markup">Keiji Yamagishi</property>
  <property name="meta.attr.grouping.markup">Ninja Gaiden</property>
  <property name="meta.attr.copyright.markup">Tecmo</property>
  <property name="meta.attr.encoded_by.markup">Vijay van der Weijden</property>
  <property name="meta.attr.encoder.markup">LAME in FL Studio 11</property>
  <property name="meta.attr.genre.markup">Game</property>
  <property name="meta.attr.compilation.markup">1</property>
  <property name="meta.attr.TOPE.markup">NES</property>
  <property name="meta.attr.publisher.markup">OverClocked ReMix</property>
  <property name="meta.attr.setsubtitle.markup">OCR03604</property>
  <property name="meta.attr.TIT3.markup">The Cost of Vengeance</property>
  <property name="meta.attr.title.markup">Ninja Gaiden "The Cost of Vengeance" OC ReMix</property>
  <property name="meta.attr.track.markup">3604</property>
  <property name="meta.attr.date.markup">2017</property>
  <property name="meta.attr.id3v2_priv.WM/MediaClassSecondaryID.markup">\x00\x00\x00\x00\x00\x00\x00\x00\x00\x00\x00\x00\x00\x00\x00\x00</property>
  <property name="meta.attr.id3v2_priv.WM/MediaClassPrimaryID.markup">\xbc}`\xd1#\xe3\xe2K\x86\xa1H\xa4*(D\x1e</property>
  <property name="seekable">1</property>
  <property name="meta.media.sample_aspect_num">1</property>
  <property name="meta.media.sample_aspect_den">1</property>
  <property name="audio_index">0</property>
  <property name="video_index">1</property>
  <property name="vstream">0</property>
  <property name="meta.media.frame_rate_num">90000</property>
  <property name="meta.media.frame_rate_den">1</property>
  <property name="meta.media.colorspace">601</property>
  <property name="meta.media.color_trc">2</property>
  <property name="meta.media.has_b_frames">0</property>
  <property name="meta.media.width">700</property>
  <property name="meta.media.height">700</property>
  <property name="meta.media.aspect_ratio">1</property>
  <property name="meta.media.color_range">full</property>
  <property name="astream">0</property>
  <property name="meta.media.top_field_first">0</property>
  <property name="meta.media.progressive">1</property>
  <property name="kdenlive:folderid">11</property>
  <property name="kdenlive:id">12</property>
  <property name="kdenlive:control_uuid">{e737579d-dcf0-4f57-a579-8f6514c9f017}</property>
  <property name="mute_on_pause">0</property>
  <property name="kdenlive:clip_type">0</property>
  <property name="kdenlive:coverartstream">1</property>
  <property name="kdenlive:file_size">6903632</property>
  <property name="kdenlive:file_hash">b4b897797dddd61a99576658ff3c150f</property>
 </chain>
 <chain id="chain20" out="00:04:07.591">
  <property name="length">5937</property>
  <property name="eof">pause</property>
  <property name="resource">ost/Ninja_Gaiden_The_Night_of_Lukifell_OC_ReMix.mp3</property>
  <property name="mlt_service">avformat-novalidate</property>
  <property name="meta.media.nb_streams">2</property>
  <property name="meta.media.0.stream.type">audio</property>
  <property name="meta.media.0.codec.sample_fmt">fltp</property>
  <property name="meta.media.0.codec.sample_rate">44100</property>
  <property name="meta.media.0.codec.channels">2</property>
  <property name="meta.media.0.codec.layout">stereo</property>
  <property name="meta.media.0.codec.name">mp3float</property>
  <property name="meta.media.0.codec.long_name">MP3 (MPEG audio layer 3)</property>
  <property name="meta.media.0.codec.bit_rate">191726</property>
  <property name="meta.media.1.stream.type">video</property>
  <property name="meta.media.1.stream.frame_rate">90000</property>
  <property name="meta.media.1.stream.sample_aspect_ratio">0</property>
  <property name="meta.media.1.codec.width">700</property>
  <property name="meta.media.1.codec.height">700</property>
  <property name="meta.media.1.codec.rotate">0</property>
  <property name="meta.media.1.codec.pix_fmt">yuvj444p</property>
  <property name="meta.media.1.codec.sample_aspect_ratio">0</property>
  <property name="meta.media.1.codec.colorspace">601</property>
  <property name="meta.media.1.codec.name">mjpeg</property>
  <property name="meta.media.1.codec.long_name">MJPEG (Motion JPEG)</property>
  <property name="meta.media.1.codec.bit_rate">0</property>
  <property name="meta.attr.1.stream.comment.markup">Cover (front)</property>
  <property name="meta.attr.album.markup">ocremix.org</property>
  <property name="meta.attr.artist.markup">Vurez</property>
  <property name="meta.attr.album_artist.markup">OverClocked ReMix</property>
  <property name="meta.attr.comment.markup">Yet another old unreleased track of mine that I went back and polished up. The stage itself in which the original track resides served as inspiration for this arrangement. I wanted to convey the image of Ryu making the perilous ascent up the temple in Act 5 - battling through a legion of Jaquio's troops to reach the apex before reaching Malth.&#xd;
&#xd;
Some of the instruments are celesta, violins, military drums, guitar, and trumpet.&#xd;
&#xd;
Don Muritz&#xd;
vurez@vurez.com&#xd;
http://vurez.com</property>
  <property name="meta.attr.composer.markup">Keiji Yamagishi</property>
  <property name="meta.attr.grouping.markup">Ninja Gaiden</property>
  <property name="meta.attr.copyright.markup">Tecmo</property>
  <property name="meta.attr.encoded_by.markup">Don Muritz (vurez@vurez.com)</property>
  <property name="meta.attr.genre.markup">Game</property>
  <property name="meta.attr.compilation.markup">1</property>
  <property name="meta.attr.TOPE.markup">NES</property>
  <property name="meta.attr.publisher.markup">OverClocked ReMix</property>
  <property name="meta.attr.setsubtitle.markup">OCR02166</property>
  <property name="meta.attr.TIT3.markup">The Night of Lukifell</property>
  <property name="meta.attr.title.markup">Ninja Gaiden "The Night of Lukifell" OC ReMix</property>
  <property name="meta.attr.track.markup">2166</property>
  <property name="meta.attr.date.markup">2011</property>
  <property name="seekable">1</property>
  <property name="meta.media.sample_aspect_num">1</property>
  <property name="meta.media.sample_aspect_den">1</property>
  <property name="audio_index">0</property>
  <property name="video_index">1</property>
  <property name="vstream">0</property>
  <property name="meta.media.frame_rate_num">90000</property>
  <property name="meta.media.frame_rate_den">1</property>
  <property name="meta.media.colorspace">601</property>
  <property name="meta.media.color_trc">2</property>
  <property name="meta.media.has_b_frames">0</property>
  <property name="meta.media.width">700</property>
  <property name="meta.media.height">700</property>
  <property name="meta.media.aspect_ratio">1</property>
  <property name="meta.media.color_range">full</property>
  <property name="astream">0</property>
  <property name="meta.media.top_field_first">0</property>
  <property name="meta.media.progressive">1</property>
  <property name="kdenlive:folderid">11</property>
  <property name="kdenlive:id">13</property>
  <property name="kdenlive:control_uuid">{8165be8c-8a4e-4f13-bb4a-fa35d0680922}</property>
  <property name="mute_on_pause">0</property>
  <property name="kdenlive:clip_type">0</property>
  <property name="kdenlive:coverartstream">1</property>
  <property name="kdenlive:file_size">6022239</property>
  <property name="kdenlive:file_hash">b257fbd037dc0a5cb930291da8db0ca4</property>
 </chain>
 <chain id="chain21" out="00:04:59.309">
  <property name="length">7177</property>
  <property name="eof">pause</property>
  <property name="resource">ost/ng1ost/[Team Ninja]-101-Ninja Gaiden Theme.flac</property>
  <property name="mlt_service">avformat</property>
  <property name="meta.media.nb_streams">2</property>
  <property name="meta.media.0.stream.type">audio</property>
  <property name="meta.media.0.codec.sample_fmt">s16</property>
  <property name="meta.media.0.codec.sample_rate">44100</property>
  <property name="meta.media.0.codec.channels">2</property>
  <property name="meta.media.0.codec.layout">stereo</property>
  <property name="meta.media.0.codec.name">flac</property>
  <property name="meta.media.0.codec.long_name">FLAC (Free Lossless Audio Codec)</property>
  <property name="meta.media.0.codec.bit_rate">0</property>
  <property name="meta.media.1.stream.type">video</property>
  <property name="meta.media.1.stream.frame_rate">90000</property>
  <property name="meta.media.1.stream.sample_aspect_ratio">0</property>
  <property name="meta.media.1.codec.width">500</property>
  <property name="meta.media.1.codec.height">500</property>
  <property name="meta.media.1.codec.rotate">0</property>
  <property name="meta.media.1.codec.pix_fmt">rgb24</property>
  <property name="meta.media.1.codec.sample_aspect_ratio">1</property>
  <property name="meta.media.1.codec.colorspace">0</property>
  <property name="meta.media.1.codec.color_trc">4</property>
  <property name="meta.media.1.codec.name">png</property>
  <property name="meta.media.1.codec.long_name">PNG (Portable Network Graphics) image</property>
  <property name="meta.media.1.codec.bit_rate">0</property>
  <property name="meta.attr.1.stream.comment.markup">Cover (front)</property>
  <property name="meta.attr.ALBUM ARTIST.markup">Team Ninja</property>
  <property name="meta.attr.GracenoteFileID.markup">3CD3N64R56819895U168D4E7FD59FBF66A5E0044F17818BC0A74P2</property>
  <property name="meta.attr.GracenoteExtData.markup">GNXDWEcxAQbAIWLMRamT+DwEO7zYELQtclI6scx/BabvCkVCRUJKJeGLvgX90dMrWEfWELYZksuHHBrsY0ClY649q4qhOQ2+OJ/p/GWMvMpDzjZj79PuOZL/z2s76lSflX+XmyVkVxSKjCESyz4ZtHf0Y2acIVsoGSbvqEtdx1JjSIpbP6Vs</property>
  <property name="meta.attr.Album.markup">Ninja Gaiden Original Soundtrack</property>
  <property name="meta.attr.Title.markup">Ninja Gaiden Theme</property>
  <property name="meta.attr.COMPOSER.markup">Makoto Hosoi</property>
  <property name="meta.attr.disc.markup">1/2</property>
  <property name="meta.attr.Artist.markup">Team Ninja</property>
  <property name="meta.attr.Comment.markup">Ripped by Deuce</property>
  <property name="meta.attr.Genre.markup">Game</property>
  <property name="meta.attr.DATE.markup">2004</property>
  <property name="meta.attr.track.markup">01</property>
  <property name="seekable">1</property>
  <property name="meta.media.sample_aspect_num">7873</property>
  <property name="meta.media.sample_aspect_den">7873</property>
  <property name="audio_index">0</property>
  <property name="video_index">-1</property>
  <property name="astream">0</property>
  <property name="vstream">-1</property>
  <property name="kdenlive:folderid">20</property>
  <property name="kdenlive:id">14</property>
  <property name="kdenlive:control_uuid">{3a53cd3f-9ef6-42e7-9b38-bac675a5c51a}</property>
  <property name="kdenlive:clip_type">1</property>
  <property name="kdenlive:file_size">31278828</property>
  <property name="kdenlive:file_hash">47154d8e79a2981b4e8e8468858fd4c4</property>
  <property name="kdenlive:monitorPosition">4295</property>
 </chain>
 <chain id="chain22" out="00:01:35.118">
  <property name="length">2281</property>
  <property name="eof">pause</property>
  <property name="resource">ost/ng1ost/[Team Ninja]-102-Opening.flac</property>
  <property name="mlt_service">avformat</property>
  <property name="meta.media.nb_streams">2</property>
  <property name="meta.media.0.stream.type">audio</property>
  <property name="meta.media.0.codec.sample_fmt">s16</property>
  <property name="meta.media.0.codec.sample_rate">44100</property>
  <property name="meta.media.0.codec.channels">2</property>
  <property name="meta.media.0.codec.layout">stereo</property>
  <property name="meta.media.0.codec.name">flac</property>
  <property name="meta.media.0.codec.long_name">FLAC (Free Lossless Audio Codec)</property>
  <property name="meta.media.0.codec.bit_rate">0</property>
  <property name="meta.media.1.stream.type">video</property>
  <property name="meta.media.1.stream.frame_rate">90000</property>
  <property name="meta.media.1.stream.sample_aspect_ratio">0</property>
  <property name="meta.media.1.codec.width">500</property>
  <property name="meta.media.1.codec.height">500</property>
  <property name="meta.media.1.codec.rotate">0</property>
  <property name="meta.media.1.codec.pix_fmt">rgb24</property>
  <property name="meta.media.1.codec.sample_aspect_ratio">1</property>
  <property name="meta.media.1.codec.colorspace">0</property>
  <property name="meta.media.1.codec.color_trc">4</property>
  <property name="meta.media.1.codec.name">png</property>
  <property name="meta.media.1.codec.long_name">PNG (Portable Network Graphics) image</property>
  <property name="meta.media.1.codec.bit_rate">0</property>
  <property name="meta.attr.1.stream.comment.markup">Cover (front)</property>
  <property name="meta.attr.TITLE.markup">Opening</property>
  <property name="meta.attr.Album.markup">Ninja Gaiden Original Sound Trax (Disc A)</property>
  <property name="meta.attr.COMPOSER.markup">Ryo Koike</property>
  <property name="meta.attr.Artist.markup">Team Ninja</property>
  <property name="meta.attr.Comment.markup">Ripped by Deuce</property>
  <property name="meta.attr.Genre.markup">Game</property>
  <property name="meta.attr.DATE.markup">2004</property>
  <property name="meta.attr.track.markup">02</property>
  <property name="seekable">1</property>
  <property name="meta.media.sample_aspect_num">7873</property>
  <property name="meta.media.sample_aspect_den">7873</property>
  <property name="audio_index">0</property>
  <property name="video_index">-1</property>
  <property name="astream">0</property>
  <property name="vstream">-1</property>
  <property name="kdenlive:folderid">20</property>
  <property name="kdenlive:id">15</property>
  <property name="kdenlive:control_uuid">{eb09f0f1-bcfa-43dc-abad-e28df42d8040}</property>
  <property name="kdenlive:clip_type">1</property>
  <property name="kdenlive:file_size">9737593</property>
  <property name="kdenlive:file_hash">a4d04e3f68aaf061336198d8b89f03b1</property>
  <property name="kdenlive:monitorPosition">564</property>
 </chain>
 <chain id="chain23" out="00:02:24.149">
  <property name="length">3457</property>
  <property name="eof">pause</property>
  <property name="resource">ost/ng1ost/[Team Ninja]-103-Worship.flac</property>
  <property name="mlt_service">avformat</property>
  <property name="meta.media.nb_streams">2</property>
  <property name="meta.media.0.stream.type">audio</property>
  <property name="meta.media.0.codec.sample_fmt">s16</property>
  <property name="meta.media.0.codec.sample_rate">44100</property>
  <property name="meta.media.0.codec.channels">2</property>
  <property name="meta.media.0.codec.layout">stereo</property>
  <property name="meta.media.0.codec.name">flac</property>
  <property name="meta.media.0.codec.long_name">FLAC (Free Lossless Audio Codec)</property>
  <property name="meta.media.0.codec.bit_rate">0</property>
  <property name="meta.media.1.stream.type">video</property>
  <property name="meta.media.1.stream.frame_rate">90000</property>
  <property name="meta.media.1.stream.sample_aspect_ratio">0</property>
  <property name="meta.media.1.codec.width">500</property>
  <property name="meta.media.1.codec.height">500</property>
  <property name="meta.media.1.codec.rotate">0</property>
  <property name="meta.media.1.codec.pix_fmt">rgb24</property>
  <property name="meta.media.1.codec.sample_aspect_ratio">1</property>
  <property name="meta.media.1.codec.colorspace">0</property>
  <property name="meta.media.1.codec.color_trc">4</property>
  <property name="meta.media.1.codec.name">png</property>
  <property name="meta.media.1.codec.long_name">PNG (Portable Network Graphics) image</property>
  <property name="meta.media.1.codec.bit_rate">0</property>
  <property name="meta.attr.1.stream.comment.markup">Cover (front)</property>
  <property name="meta.attr.TITLE.markup">Worship</property>
  <property name="meta.attr.ALBUM.markup">Ninja Gaiden Original Sound Trax (Disc A)</property>
  <property name="meta.attr.COMPOSER.markup">Makoto Hosoi</property>
  <property name="meta.attr.Artist.markup">Team Ninja</property>
  <property name="meta.attr.Comment.markup">Ripped by Deuce</property>
  <property name="meta.attr.Genre.markup">Game</property>
  <property name="meta.attr.DATE.markup">2004</property>
  <property name="meta.attr.track.markup">03</property>
  <property name="seekable">1</property>
  <property name="meta.media.sample_aspect_num">7873</property>
  <property name="meta.media.sample_aspect_den">7873</property>
  <property name="audio_index">0</property>
  <property name="video_index">-1</property>
  <property name="astream">0</property>
  <property name="vstream">-1</property>
  <property name="kdenlive:folderid">20</property>
  <property name="kdenlive:id">16</property>
  <property name="kdenlive:control_uuid">{7e603b21-d318-4c02-a18b-1c83a9122324}</property>
  <property name="kdenlive:clip_type">1</property>
  <property name="kdenlive:file_size">16190463</property>
  <property name="kdenlive:file_hash">80f60834e9a1eba90bda9bffa9e8eac9</property>
  <property name="kdenlive:monitorPosition">319</property>
 </chain>
 <chain id="chain24" out="00:01:04.087">
  <property name="length">1537</property>
  <property name="eof">pause</property>
  <property name="resource">ost/ng1ost/[Team Ninja]-104-Trial.flac</property>
  <property name="mlt_service">avformat</property>
  <property name="meta.media.nb_streams">2</property>
  <property name="meta.media.0.stream.type">audio</property>
  <property name="meta.media.0.codec.sample_fmt">s16</property>
  <property name="meta.media.0.codec.sample_rate">44100</property>
  <property name="meta.media.0.codec.channels">2</property>
  <property name="meta.media.0.codec.layout">stereo</property>
  <property name="meta.media.0.codec.name">flac</property>
  <property name="meta.media.0.codec.long_name">FLAC (Free Lossless Audio Codec)</property>
  <property name="meta.media.0.codec.bit_rate">0</property>
  <property name="meta.media.1.stream.type">video</property>
  <property name="meta.media.1.stream.frame_rate">90000</property>
  <property name="meta.media.1.stream.sample_aspect_ratio">0</property>
  <property name="meta.media.1.codec.width">500</property>
  <property name="meta.media.1.codec.height">500</property>
  <property name="meta.media.1.codec.rotate">0</property>
  <property name="meta.media.1.codec.pix_fmt">rgb24</property>
  <property name="meta.media.1.codec.sample_aspect_ratio">1</property>
  <property name="meta.media.1.codec.colorspace">0</property>
  <property name="meta.media.1.codec.color_trc">4</property>
  <property name="meta.media.1.codec.name">png</property>
  <property name="meta.media.1.codec.long_name">PNG (Portable Network Graphics) image</property>
  <property name="meta.media.1.codec.bit_rate">0</property>
  <property name="meta.attr.1.stream.comment.markup">Cover (front)</property>
  <property name="meta.attr.TITLE.markup">Trial</property>
  <property name="meta.attr.ALBUM.markup">Ninja Gaiden Original Sound Trax (Disc A)</property>
  <property name="meta.attr.COMPOSER.markup">Makoto Hosoi</property>
  <property name="meta.attr.Artist.markup">Team Ninja</property>
  <property name="meta.attr.Comment.markup">Ripped by Deuce</property>
  <property name="meta.attr.Genre.markup">Game</property>
  <property name="meta.attr.DATE.markup">2004</property>
  <property name="meta.attr.track.markup">04</property>
  <property name="seekable">1</property>
  <property name="meta.media.sample_aspect_num">7873</property>
  <property name="meta.media.sample_aspect_den">7873</property>
  <property name="audio_index">0</property>
  <property name="video_index">-1</property>
  <property name="astream">0</property>
  <property name="vstream">-1</property>
  <property name="kdenlive:folderid">20</property>
  <property name="kdenlive:id">17</property>
  <property name="kdenlive:control_uuid">{78b69950-8615-44c1-8884-5e5ef731ac9c}</property>
  <property name="kdenlive:clip_type">1</property>
  <property name="kdenlive:file_size">7033117</property>
  <property name="kdenlive:file_hash">8bfd918f1165c82748e64958c2a9a018</property>
  <property name="kdenlive:monitorPosition">333</property>
 </chain>
 <chain id="chain25" out="00:03:20.187">
  <property name="length">4800</property>
  <property name="eof">pause</property>
  <property name="resource">ost/ng1ost/[Team Ninja]-105-Vanished Memories.flac</property>
  <property name="mlt_service">avformat</property>
  <property name="meta.media.nb_streams">2</property>
  <property name="meta.media.0.stream.type">audio</property>
  <property name="meta.media.0.codec.sample_fmt">s16</property>
  <property name="meta.media.0.codec.sample_rate">44100</property>
  <property name="meta.media.0.codec.channels">2</property>
  <property name="meta.media.0.codec.layout">stereo</property>
  <property name="meta.media.0.codec.name">flac</property>
  <property name="meta.media.0.codec.long_name">FLAC (Free Lossless Audio Codec)</property>
  <property name="meta.media.0.codec.bit_rate">0</property>
  <property name="meta.media.1.stream.type">video</property>
  <property name="meta.media.1.stream.frame_rate">90000</property>
  <property name="meta.media.1.stream.sample_aspect_ratio">0</property>
  <property name="meta.media.1.codec.width">500</property>
  <property name="meta.media.1.codec.height">500</property>
  <property name="meta.media.1.codec.rotate">0</property>
  <property name="meta.media.1.codec.pix_fmt">rgb24</property>
  <property name="meta.media.1.codec.sample_aspect_ratio">1</property>
  <property name="meta.media.1.codec.colorspace">0</property>
  <property name="meta.media.1.codec.color_trc">4</property>
  <property name="meta.media.1.codec.name">png</property>
  <property name="meta.media.1.codec.long_name">PNG (Portable Network Graphics) image</property>
  <property name="meta.media.1.codec.bit_rate">0</property>
  <property name="meta.attr.1.stream.comment.markup">Cover (front)</property>
  <property name="meta.attr.TITLE.markup">Vanished Memories</property>
  <property name="meta.attr.ALBUM.markup">Ninja Gaiden Original Sound Trax (Disc A)</property>
  <property name="meta.attr.COMPOSER.markup">Makoto Hosoi</property>
  <property name="meta.attr.Artist.markup">Team Ninja</property>
  <property name="meta.attr.Comment.markup">Ripped by Deuce</property>
  <property name="meta.attr.Genre.markup">Game</property>
  <property name="meta.attr.DATE.markup">2004</property>
  <property name="meta.attr.track.markup">05</property>
  <property name="seekable">1</property>
  <property name="meta.media.sample_aspect_num">7873</property>
  <property name="meta.media.sample_aspect_den">7873</property>
  <property name="audio_index">0</property>
  <property name="video_index">-1</property>
  <property name="astream">0</property>
  <property name="vstream">-1</property>
  <property name="kdenlive:folderid">20</property>
  <property name="kdenlive:id">18</property>
  <property name="kdenlive:control_uuid">{9ba8c637-6b2f-4737-927c-72661ebac96b}</property>
  <property name="kdenlive:clip_type">1</property>
  <property name="kdenlive:file_size">22352983</property>
  <property name="kdenlive:file_hash">6a2accc1e603e0f30abe13abde7f278c</property>
  <property name="kdenlive:monitorPosition">206</property>
 </chain>
 <chain id="chain26" out="00:01:35.118">
  <property name="length">2281</property>
  <property name="eof">pause</property>
  <property name="resource">ost/ng1ost/[Team Ninja]-106-Annoyances.flac</property>
  <property name="mlt_service">avformat</property>
  <property name="meta.media.nb_streams">2</property>
  <property name="meta.media.0.stream.type">audio</property>
  <property name="meta.media.0.codec.sample_fmt">s16</property>
  <property name="meta.media.0.codec.sample_rate">44100</property>
  <property name="meta.media.0.codec.channels">2</property>
  <property name="meta.media.0.codec.layout">stereo</property>
  <property name="meta.media.0.codec.name">flac</property>
  <property name="meta.media.0.codec.long_name">FLAC (Free Lossless Audio Codec)</property>
  <property name="meta.media.0.codec.bit_rate">0</property>
  <property name="meta.media.1.stream.type">video</property>
  <property name="meta.media.1.stream.frame_rate">90000</property>
  <property name="meta.media.1.stream.sample_aspect_ratio">0</property>
  <property name="meta.media.1.codec.width">500</property>
  <property name="meta.media.1.codec.height">500</property>
  <property name="meta.media.1.codec.rotate">0</property>
  <property name="meta.media.1.codec.pix_fmt">rgb24</property>
  <property name="meta.media.1.codec.sample_aspect_ratio">1</property>
  <property name="meta.media.1.codec.colorspace">0</property>
  <property name="meta.media.1.codec.color_trc">4</property>
  <property name="meta.media.1.codec.name">png</property>
  <property name="meta.media.1.codec.long_name">PNG (Portable Network Graphics) image</property>
  <property name="meta.media.1.codec.bit_rate">0</property>
  <property name="meta.attr.1.stream.comment.markup">Cover (front)</property>
  <property name="meta.attr.TITLE.markup">Annoyances</property>
  <property name="meta.attr.Album.markup">Ninja Gaiden Original Sound Trax (Disc A)</property>
  <property name="meta.attr.COMPOSER.markup">Wakana Hara</property>
  <property name="meta.attr.Artist.markup">Team Ninja</property>
  <property name="meta.attr.Comment.markup">Ripped by Deuce</property>
  <property name="meta.attr.Genre.markup">Game</property>
  <property name="meta.attr.DATE.markup">2004</property>
  <property name="meta.attr.track.markup">06</property>
  <property name="seekable">1</property>
  <property name="meta.media.sample_aspect_num">7873</property>
  <property name="meta.media.sample_aspect_den">7873</property>
  <property name="audio_index">0</property>
  <property name="video_index">-1</property>
  <property name="astream">0</property>
  <property name="vstream">-1</property>
  <property name="kdenlive:folderid">20</property>
  <property name="kdenlive:id">19</property>
  <property name="kdenlive:control_uuid">{2b0a694a-af9a-48e5-a240-c250e6d4b3e7}</property>
  <property name="kdenlive:clip_type">1</property>
  <property name="kdenlive:file_size">11272049</property>
  <property name="kdenlive:file_hash">3159b5ae19f21a1f94cfdd40c165c326</property>
  <property name="kdenlive:monitorPosition">642</property>
 </chain>
 <chain id="chain27" out="00:02:15.098">
  <property name="length">3240</property>
  <property name="eof">pause</property>
  <property name="resource">ost/ng1ost/[Team Ninja]-107-Stand in the Way.flac</property>
  <property name="mlt_service">avformat</property>
  <property name="meta.media.nb_streams">2</property>
  <property name="meta.media.0.stream.type">audio</property>
  <property name="meta.media.0.codec.sample_fmt">s16</property>
  <property name="meta.media.0.codec.sample_rate">44100</property>
  <property name="meta.media.0.codec.channels">2</property>
  <property name="meta.media.0.codec.layout">stereo</property>
  <property name="meta.media.0.codec.name">flac</property>
  <property name="meta.media.0.codec.long_name">FLAC (Free Lossless Audio Codec)</property>
  <property name="meta.media.0.codec.bit_rate">0</property>
  <property name="meta.media.1.stream.type">video</property>
  <property name="meta.media.1.stream.frame_rate">90000</property>
  <property name="meta.media.1.stream.sample_aspect_ratio">0</property>
  <property name="meta.media.1.codec.width">500</property>
  <property name="meta.media.1.codec.height">500</property>
  <property name="meta.media.1.codec.rotate">0</property>
  <property name="meta.media.1.codec.pix_fmt">rgb24</property>
  <property name="meta.media.1.codec.sample_aspect_ratio">1</property>
  <property name="meta.media.1.codec.colorspace">0</property>
  <property name="meta.media.1.codec.color_trc">4</property>
  <property name="meta.media.1.codec.name">png</property>
  <property name="meta.media.1.codec.long_name">PNG (Portable Network Graphics) image</property>
  <property name="meta.media.1.codec.bit_rate">0</property>
  <property name="meta.attr.1.stream.comment.markup">Cover (front)</property>
  <property name="meta.attr.TITLE.markup">Stand in the Way</property>
  <property name="meta.attr.Album.markup">Ninja Gaiden Original Sound Trax (Disc A)</property>
  <property name="meta.attr.COMPOSER.markup">Wakana Hara</property>
  <property name="meta.attr.Artist.markup">Team Ninja</property>
  <property name="meta.attr.Comment.markup">Ripped by Deuce</property>
  <property name="meta.attr.Genre.markup">Game</property>
  <property name="meta.attr.DATE.markup">2004</property>
  <property name="meta.attr.track.markup">07</property>
  <property name="seekable">1</property>
  <property name="meta.media.sample_aspect_num">7873</property>
  <property name="meta.media.sample_aspect_den">7873</property>
  <property name="audio_index">0</property>
  <property name="video_index">-1</property>
  <property name="astream">0</property>
  <property name="vstream">-1</property>
  <property name="kdenlive:folderid">20</property>
  <property name="kdenlive:id">21</property>
  <property name="kdenlive:control_uuid">{c833b8be-88c9-47a2-bf7f-b0b49c70a294}</property>
  <property name="kdenlive:clip_type">1</property>
  <property name="kdenlive:file_size">14415004</property>
  <property name="kdenlive:file_hash">973d0d30986887ca482bafee03966184</property>
  <property name="kdenlive:monitorPosition">871</property>
  <property name="kdenlive:activeeffect">0</property>
  <filter id="filter0">
   <property name="window">75</property>
   <property name="max_gain">20dB</property>
   <property name="level">00:00:00.000=-21</property>
   <property name="mlt_service">volume</property>
   <property name="kdenlive_id">volume</property>
   <property name="kdenlive:collapsed">0</property>
  </filter>
 </chain>
 <chain id="chain28" out="00:02:01.126">
  <property name="length">2905</property>
  <property name="eof">pause</property>
  <property name="resource">ost/ng1ost/[Team Ninja]-108-Lord of Greater Fiends.flac</property>
  <property name="mlt_service">avformat</property>
  <property name="meta.media.nb_streams">2</property>
  <property name="meta.media.0.stream.type">audio</property>
  <property name="meta.media.0.codec.sample_fmt">s16</property>
  <property name="meta.media.0.codec.sample_rate">44100</property>
  <property name="meta.media.0.codec.channels">2</property>
  <property name="meta.media.0.codec.layout">stereo</property>
  <property name="meta.media.0.codec.name">flac</property>
  <property name="meta.media.0.codec.long_name">FLAC (Free Lossless Audio Codec)</property>
  <property name="meta.media.0.codec.bit_rate">0</property>
  <property name="meta.media.1.stream.type">video</property>
  <property name="meta.media.1.stream.frame_rate">90000</property>
  <property name="meta.media.1.stream.sample_aspect_ratio">0</property>
  <property name="meta.media.1.codec.width">500</property>
  <property name="meta.media.1.codec.height">500</property>
  <property name="meta.media.1.codec.rotate">0</property>
  <property name="meta.media.1.codec.pix_fmt">rgb24</property>
  <property name="meta.media.1.codec.sample_aspect_ratio">1</property>
  <property name="meta.media.1.codec.colorspace">0</property>
  <property name="meta.media.1.codec.color_trc">4</property>
  <property name="meta.media.1.codec.name">png</property>
  <property name="meta.media.1.codec.long_name">PNG (Portable Network Graphics) image</property>
  <property name="meta.media.1.codec.bit_rate">0</property>
  <property name="meta.attr.1.stream.comment.markup">Cover (front)</property>
  <property name="meta.attr.TITLE.markup">Lord of Greater Fiends</property>
  <property name="meta.attr.Album.markup">Ninja Gaiden Original Sound Trax (Disc A)</property>
  <property name="meta.attr.COMPOSER.markup">Wakana Hara</property>
  <property name="meta.attr.Artist.markup">Team Ninja</property>
  <property name="meta.attr.Comment.markup">Ripped by Deuce</property>
  <property name="meta.attr.Genre.markup">Game</property>
  <property name="meta.attr.DATE.markup">2004</property>
  <property name="meta.attr.track.markup">08</property>
  <property name="seekable">1</property>
  <property name="meta.media.sample_aspect_num">7873</property>
  <property name="meta.media.sample_aspect_den">7873</property>
  <property name="audio_index">0</property>
  <property name="video_index">-1</property>
  <property name="astream">0</property>
  <property name="vstream">-1</property>
  <property name="kdenlive:folderid">20</property>
  <property name="kdenlive:id">22</property>
  <property name="kdenlive:control_uuid">{158af590-5e57-447e-a98c-f1e139c8b7e9}</property>
  <property name="kdenlive:clip_type">1</property>
  <property name="kdenlive:file_size">11301890</property>
  <property name="kdenlive:file_hash">b2dcb8217db28d5602b1ef3cab3dafb1</property>
  <property name="kdenlive:clipname">[Team Ninja]-108-Lord of Greater Fiends.flac</property>
  <property name="kdenlive:monitorPosition">61</property>
 </chain>
 <chain id="chain29" out="00:00:55.013">
  <property name="length">1320</property>
  <property name="eof">pause</property>
  <property name="resource">ost/ng1ost/[Team Ninja]-109-Military Strength.flac</property>
  <property name="mlt_service">avformat</property>
  <property name="meta.media.nb_streams">2</property>
  <property name="meta.media.0.stream.type">audio</property>
  <property name="meta.media.0.codec.sample_fmt">s16</property>
  <property name="meta.media.0.codec.sample_rate">44100</property>
  <property name="meta.media.0.codec.channels">2</property>
  <property name="meta.media.0.codec.layout">stereo</property>
  <property name="meta.media.0.codec.name">flac</property>
  <property name="meta.media.0.codec.long_name">FLAC (Free Lossless Audio Codec)</property>
  <property name="meta.media.0.codec.bit_rate">0</property>
  <property name="meta.media.1.stream.type">video</property>
  <property name="meta.media.1.stream.frame_rate">90000</property>
  <property name="meta.media.1.stream.sample_aspect_ratio">0</property>
  <property name="meta.media.1.codec.width">500</property>
  <property name="meta.media.1.codec.height">500</property>
  <property name="meta.media.1.codec.rotate">0</property>
  <property name="meta.media.1.codec.pix_fmt">rgb24</property>
  <property name="meta.media.1.codec.sample_aspect_ratio">1</property>
  <property name="meta.media.1.codec.colorspace">0</property>
  <property name="meta.media.1.codec.color_trc">4</property>
  <property name="meta.media.1.codec.name">png</property>
  <property name="meta.media.1.codec.long_name">PNG (Portable Network Graphics) image</property>
  <property name="meta.media.1.codec.bit_rate">0</property>
  <property name="meta.attr.1.stream.comment.markup">Cover (front)</property>
  <property name="meta.attr.TITLE.markup">Military Strength</property>
  <property name="meta.attr.Album.markup">Ninja Gaiden Original Sound Trax (Disc A)</property>
  <property name="meta.attr.COMPOSER.markup">Ryo Koike</property>
  <property name="meta.attr.Artist.markup">Team Ninja</property>
  <property name="meta.attr.Comment.markup">Ripped by Deuce</property>
  <property name="meta.attr.Genre.markup">Game</property>
  <property name="meta.attr.DATE.markup">2004</property>
  <property name="meta.attr.track.markup">09</property>
  <property name="seekable">1</property>
  <property name="meta.media.sample_aspect_num">7873</property>
  <property name="meta.media.sample_aspect_den">7873</property>
  <property name="audio_index">0</property>
  <property name="video_index">-1</property>
  <property name="astream">0</property>
  <property name="vstream">-1</property>
  <property name="kdenlive:folderid">20</property>
  <property name="kdenlive:id">23</property>
  <property name="kdenlive:control_uuid">{45f9fb72-9ff7-4676-a697-9bb2e9764dea}</property>
  <property name="kdenlive:clip_type">1</property>
  <property name="kdenlive:file_size">6705449</property>
  <property name="kdenlive:file_hash">6c177d68a2fd80aec90c9e9c7fc97879</property>
  <property name="kdenlive:monitorPosition">294</property>
 </chain>
 <chain id="chain30" out="00:01:40.082">
  <property name="length">2400</property>
  <property name="eof">pause</property>
  <property name="resource">ost/ng1ost/[Team Ninja]-110-Airship.flac</property>
  <property name="mlt_service">avformat</property>
  <property name="meta.media.nb_streams">2</property>
  <property name="meta.media.0.stream.type">audio</property>
  <property name="meta.media.0.codec.sample_fmt">s16</property>
  <property name="meta.media.0.codec.sample_rate">44100</property>
  <property name="meta.media.0.codec.channels">2</property>
  <property name="meta.media.0.codec.layout">stereo</property>
  <property name="meta.media.0.codec.name">flac</property>
  <property name="meta.media.0.codec.long_name">FLAC (Free Lossless Audio Codec)</property>
  <property name="meta.media.0.codec.bit_rate">0</property>
  <property name="meta.media.1.stream.type">video</property>
  <property name="meta.media.1.stream.frame_rate">90000</property>
  <property name="meta.media.1.stream.sample_aspect_ratio">0</property>
  <property name="meta.media.1.codec.width">500</property>
  <property name="meta.media.1.codec.height">500</property>
  <property name="meta.media.1.codec.rotate">0</property>
  <property name="meta.media.1.codec.pix_fmt">rgb24</property>
  <property name="meta.media.1.codec.sample_aspect_ratio">1</property>
  <property name="meta.media.1.codec.colorspace">0</property>
  <property name="meta.media.1.codec.color_trc">4</property>
  <property name="meta.media.1.codec.name">png</property>
  <property name="meta.media.1.codec.long_name">PNG (Portable Network Graphics) image</property>
  <property name="meta.media.1.codec.bit_rate">0</property>
  <property name="meta.attr.1.stream.comment.markup">Cover (front)</property>
  <property name="meta.attr.TITLE.markup">Airship</property>
  <property name="meta.attr.Album.markup">Ninja Gaiden Original Sound Trax (Disc A)</property>
  <property name="meta.attr.COMPOSER.markup">Ryo Koike</property>
  <property name="meta.attr.Artist.markup">Team Ninja</property>
  <property name="meta.attr.Comment.markup">Ripped by Deuce</property>
  <property name="meta.attr.Genre.markup">Game</property>
  <property name="meta.attr.DATE.markup">2004</property>
  <property name="meta.attr.track.markup">10</property>
  <property name="seekable">1</property>
  <property name="meta.media.sample_aspect_num">7873</property>
  <property name="meta.media.sample_aspect_den">7873</property>
  <property name="audio_index">0</property>
  <property name="video_index">-1</property>
  <property name="astream">0</property>
  <property name="vstream">-1</property>
  <property name="kdenlive:folderid">20</property>
  <property name="kdenlive:id">24</property>
  <property name="kdenlive:control_uuid">{1b3263bc-d5fe-4f0e-a014-df92bf7a88de}</property>
  <property name="kdenlive:clip_type">1</property>
  <property name="kdenlive:file_size">10990378</property>
  <property name="kdenlive:file_hash">290e9df8315ca4e10b2ca533de4dad0f</property>
  <property name="kdenlive:monitorPosition">203</property>
 </chain>
 <chain id="chain31" out="00:01:07.090">
  <property name="length">1609</property>
  <property name="eof">pause</property>
  <property name="resource">ost/ng1ost/[Team Ninja]-111-An Easy Enemy.flac</property>
  <property name="mlt_service">avformat</property>
  <property name="meta.media.nb_streams">2</property>
  <property name="meta.media.0.stream.type">audio</property>
  <property name="meta.media.0.codec.sample_fmt">s16</property>
  <property name="meta.media.0.codec.sample_rate">44100</property>
  <property name="meta.media.0.codec.channels">2</property>
  <property name="meta.media.0.codec.layout">stereo</property>
  <property name="meta.media.0.codec.name">flac</property>
  <property name="meta.media.0.codec.long_name">FLAC (Free Lossless Audio Codec)</property>
  <property name="meta.media.0.codec.bit_rate">0</property>
  <property name="meta.media.1.stream.type">video</property>
  <property name="meta.media.1.stream.frame_rate">90000</property>
  <property name="meta.media.1.stream.sample_aspect_ratio">0</property>
  <property name="meta.media.1.codec.width">500</property>
  <property name="meta.media.1.codec.height">500</property>
  <property name="meta.media.1.codec.rotate">0</property>
  <property name="meta.media.1.codec.pix_fmt">rgb24</property>
  <property name="meta.media.1.codec.sample_aspect_ratio">1</property>
  <property name="meta.media.1.codec.colorspace">0</property>
  <property name="meta.media.1.codec.color_trc">4</property>
  <property name="meta.media.1.codec.name">png</property>
  <property name="meta.media.1.codec.long_name">PNG (Portable Network Graphics) image</property>
  <property name="meta.media.1.codec.bit_rate">0</property>
  <property name="meta.attr.1.stream.comment.markup">Cover (front)</property>
  <property name="meta.attr.TITLE.markup">An Easy Enemy</property>
  <property name="meta.attr.Album.markup">Ninja Gaiden Original Sound Trax (Disc A)</property>
  <property name="meta.attr.COMPOSER.markup">Ryo Koike</property>
  <property name="meta.attr.Artist.markup">Team Ninja</property>
  <property name="meta.attr.Comment.markup">Ripped by Deuce</property>
  <property name="meta.attr.Genre.markup">Game</property>
  <property name="meta.attr.DATE.markup">2004</property>
  <property name="meta.attr.track.markup">11</property>
  <property name="seekable">1</property>
  <property name="meta.media.sample_aspect_num">7873</property>
  <property name="meta.media.sample_aspect_den">7873</property>
  <property name="audio_index">0</property>
  <property name="video_index">-1</property>
  <property name="astream">0</property>
  <property name="vstream">-1</property>
  <property name="kdenlive:folderid">20</property>
  <property name="kdenlive:id">25</property>
  <property name="kdenlive:control_uuid">{23c0aac5-29c9-4468-b250-2b9e2b06e5b6}</property>
  <property name="kdenlive:clip_type">1</property>
  <property name="kdenlive:file_size">8565289</property>
  <property name="kdenlive:file_hash">37bef3acae5987860231c11fd28ebd37</property>
  <property name="kdenlive:monitorPosition">85</property>
 </chain>
 <chain id="chain32" out="00:01:55.138">
  <property name="length">2761</property>
  <property name="eof">pause</property>
  <property name="resource">ost/ng1ost/[Team Ninja]-112-Tairon at Night.flac</property>
  <property name="mlt_service">avformat</property>
  <property name="meta.media.nb_streams">2</property>
  <property name="meta.media.0.stream.type">audio</property>
  <property name="meta.media.0.codec.sample_fmt">s16</property>
  <property name="meta.media.0.codec.sample_rate">44100</property>
  <property name="meta.media.0.codec.channels">2</property>
  <property name="meta.media.0.codec.layout">stereo</property>
  <property name="meta.media.0.codec.name">flac</property>
  <property name="meta.media.0.codec.long_name">FLAC (Free Lossless Audio Codec)</property>
  <property name="meta.media.0.codec.bit_rate">0</property>
  <property name="meta.media.1.stream.type">video</property>
  <property name="meta.media.1.stream.frame_rate">90000</property>
  <property name="meta.media.1.stream.sample_aspect_ratio">0</property>
  <property name="meta.media.1.codec.width">500</property>
  <property name="meta.media.1.codec.height">500</property>
  <property name="meta.media.1.codec.rotate">0</property>
  <property name="meta.media.1.codec.pix_fmt">rgb24</property>
  <property name="meta.media.1.codec.sample_aspect_ratio">1</property>
  <property name="meta.media.1.codec.colorspace">0</property>
  <property name="meta.media.1.codec.color_trc">4</property>
  <property name="meta.media.1.codec.name">png</property>
  <property name="meta.media.1.codec.long_name">PNG (Portable Network Graphics) image</property>
  <property name="meta.media.1.codec.bit_rate">0</property>
  <property name="meta.attr.1.stream.comment.markup">Cover (front)</property>
  <property name="meta.attr.TITLE.markup">Tairon at Night</property>
  <property name="meta.attr.Album.markup">Ninja Gaiden Original Sound Trax (Disc A)</property>
  <property name="meta.attr.COMPOSER.markup">Ryo Koike</property>
  <property name="meta.attr.Artist.markup">Team Ninja</property>
  <property name="meta.attr.Comment.markup">Ripped by Deuce</property>
  <property name="meta.attr.Genre.markup">Game</property>
  <property name="meta.attr.DATE.markup">2004</property>
  <property name="meta.attr.track.markup">12</property>
  <property name="seekable">1</property>
  <property name="meta.media.sample_aspect_num">7873</property>
  <property name="meta.media.sample_aspect_den">7873</property>
  <property name="audio_index">0</property>
  <property name="video_index">-1</property>
  <property name="astream">0</property>
  <property name="vstream">-1</property>
  <property name="kdenlive:folderid">20</property>
  <property name="kdenlive:id">26</property>
  <property name="kdenlive:control_uuid">{71c8b3ec-02dd-4df2-a15e-7d726992fdcd}</property>
  <property name="kdenlive:clip_type">1</property>
  <property name="kdenlive:file_size">12515607</property>
  <property name="kdenlive:file_hash">4e26a778beedff185b2b44f6129a1941</property>
  <property name="kdenlive:monitorPosition">834</property>
 </chain>
 <chain id="chain33" out="00:01:08.091">
  <property name="length">1633</property>
  <property name="eof">pause</property>
  <property name="resource">ost/ng1ost/[Team Ninja]-113-Muramasa.flac</property>
  <property name="mlt_service">avformat</property>
  <property name="meta.media.nb_streams">2</property>
  <property name="meta.media.0.stream.type">audio</property>
  <property name="meta.media.0.codec.sample_fmt">s16</property>
  <property name="meta.media.0.codec.sample_rate">44100</property>
  <property name="meta.media.0.codec.channels">2</property>
  <property name="meta.media.0.codec.layout">stereo</property>
  <property name="meta.media.0.codec.name">flac</property>
  <property name="meta.media.0.codec.long_name">FLAC (Free Lossless Audio Codec)</property>
  <property name="meta.media.0.codec.bit_rate">0</property>
  <property name="meta.media.1.stream.type">video</property>
  <property name="meta.media.1.stream.frame_rate">90000</property>
  <property name="meta.media.1.stream.sample_aspect_ratio">0</property>
  <property name="meta.media.1.codec.width">500</property>
  <property name="meta.media.1.codec.height">500</property>
  <property name="meta.media.1.codec.rotate">0</property>
  <property name="meta.media.1.codec.pix_fmt">rgb24</property>
  <property name="meta.media.1.codec.sample_aspect_ratio">1</property>
  <property name="meta.media.1.codec.colorspace">0</property>
  <property name="meta.media.1.codec.color_trc">4</property>
  <property name="meta.media.1.codec.name">png</property>
  <property name="meta.media.1.codec.long_name">PNG (Portable Network Graphics) image</property>
  <property name="meta.media.1.codec.bit_rate">0</property>
  <property name="meta.attr.1.stream.comment.markup">Cover (front)</property>
  <property name="meta.attr.TITLE.markup">Muramasa</property>
  <property name="meta.attr.Album.markup">Ninja Gaiden Original Sound Trax (Disc A)</property>
  <property name="meta.attr.COMPOSER.markup">Ryo Koike</property>
  <property name="meta.attr.Artist.markup">Team Ninja</property>
  <property name="meta.attr.Comment.markup">Ripped by Deuce</property>
  <property name="meta.attr.Genre.markup">Game</property>
  <property name="meta.attr.DATE.markup">2004</property>
  <property name="meta.attr.track.markup">13</property>
  <property name="seekable">1</property>
  <property name="meta.media.sample_aspect_num">7873</property>
  <property name="meta.media.sample_aspect_den">7873</property>
  <property name="audio_index">0</property>
  <property name="video_index">-1</property>
  <property name="astream">0</property>
  <property name="vstream">-1</property>
  <property name="kdenlive:folderid">20</property>
  <property name="kdenlive:id">27</property>
  <property name="kdenlive:control_uuid">{e2aa93e1-6899-4e12-8d5d-2f8510d3048b}</property>
  <property name="kdenlive:clip_type">1</property>
  <property name="kdenlive:file_size">7479917</property>
  <property name="kdenlive:file_hash">808f22d0d5e72d92da2c6848cee57ab4</property>
  <property name="kdenlive:monitorPosition">153</property>
 </chain>
 <chain id="chain34" out="00:01:08.091">
  <property name="length">1633</property>
  <property name="eof">pause</property>
  <property name="resource">ost/ng1ost/[Team Ninja]-114-Mystery.flac</property>
  <property name="mlt_service">avformat</property>
  <property name="meta.media.nb_streams">2</property>
  <property name="meta.media.0.stream.type">audio</property>
  <property name="meta.media.0.codec.sample_fmt">s16</property>
  <property name="meta.media.0.codec.sample_rate">44100</property>
  <property name="meta.media.0.codec.channels">2</property>
  <property name="meta.media.0.codec.layout">stereo</property>
  <property name="meta.media.0.codec.name">flac</property>
  <property name="meta.media.0.codec.long_name">FLAC (Free Lossless Audio Codec)</property>
  <property name="meta.media.0.codec.bit_rate">0</property>
  <property name="meta.media.1.stream.type">video</property>
  <property name="meta.media.1.stream.frame_rate">90000</property>
  <property name="meta.media.1.stream.sample_aspect_ratio">0</property>
  <property name="meta.media.1.codec.width">500</property>
  <property name="meta.media.1.codec.height">500</property>
  <property name="meta.media.1.codec.rotate">0</property>
  <property name="meta.media.1.codec.pix_fmt">rgb24</property>
  <property name="meta.media.1.codec.sample_aspect_ratio">1</property>
  <property name="meta.media.1.codec.colorspace">0</property>
  <property name="meta.media.1.codec.color_trc">4</property>
  <property name="meta.media.1.codec.name">png</property>
  <property name="meta.media.1.codec.long_name">PNG (Portable Network Graphics) image</property>
  <property name="meta.media.1.codec.bit_rate">0</property>
  <property name="meta.attr.1.stream.comment.markup">Cover (front)</property>
  <property name="meta.attr.TITLE.markup">Mystery</property>
  <property name="meta.attr.Album.markup">Ninja Gaiden Original Sound Trax (Disc A)</property>
  <property name="meta.attr.COMPOSER.markup">Ryo Koike</property>
  <property name="meta.attr.Artist.markup">Team Ninja</property>
  <property name="meta.attr.Comment.markup">Ripped by Deuce</property>
  <property name="meta.attr.Genre.markup">Game</property>
  <property name="meta.attr.DATE.markup">2004</property>
  <property name="meta.attr.track.markup">14</property>
  <property name="seekable">1</property>
  <property name="meta.media.sample_aspect_num">7873</property>
  <property name="meta.media.sample_aspect_den">7873</property>
  <property name="audio_index">0</property>
  <property name="video_index">-1</property>
  <property name="astream">0</property>
  <property name="vstream">-1</property>
  <property name="kdenlive:folderid">20</property>
  <property name="kdenlive:id">28</property>
  <property name="kdenlive:control_uuid">{47a97e80-12d7-43dc-8cf7-6f4c1e80d3d2}</property>
  <property name="kdenlive:clip_type">1</property>
  <property name="kdenlive:file_size">7014028</property>
  <property name="kdenlive:file_hash">8b2b0fe50e6e85e3b7b9f68b79112fdc</property>
  <property name="kdenlive:monitorPosition">401</property>
 </chain>
 <chain id="chain35" out="00:02:27.110">
  <property name="length">3528</property>
  <property name="eof">pause</property>
  <property name="resource">ost/ng1ost/[Team Ninja]-115-Rachel.flac</property>
  <property name="mlt_service">avformat</property>
  <property name="meta.media.nb_streams">2</property>
  <property name="meta.media.0.stream.type">audio</property>
  <property name="meta.media.0.codec.sample_fmt">s16</property>
  <property name="meta.media.0.codec.sample_rate">44100</property>
  <property name="meta.media.0.codec.channels">2</property>
  <property name="meta.media.0.codec.layout">stereo</property>
  <property name="meta.media.0.codec.name">flac</property>
  <property name="meta.media.0.codec.long_name">FLAC (Free Lossless Audio Codec)</property>
  <property name="meta.media.0.codec.bit_rate">0</property>
  <property name="meta.media.1.stream.type">video</property>
  <property name="meta.media.1.stream.frame_rate">90000</property>
  <property name="meta.media.1.stream.sample_aspect_ratio">0</property>
  <property name="meta.media.1.codec.width">500</property>
  <property name="meta.media.1.codec.height">500</property>
  <property name="meta.media.1.codec.rotate">0</property>
  <property name="meta.media.1.codec.pix_fmt">rgb24</property>
  <property name="meta.media.1.codec.sample_aspect_ratio">1</property>
  <property name="meta.media.1.codec.colorspace">0</property>
  <property name="meta.media.1.codec.color_trc">4</property>
  <property name="meta.media.1.codec.name">png</property>
  <property name="meta.media.1.codec.long_name">PNG (Portable Network Graphics) image</property>
  <property name="meta.media.1.codec.bit_rate">0</property>
  <property name="meta.attr.1.stream.comment.markup">Cover (front)</property>
  <property name="meta.attr.TITLE.markup">Rachel</property>
  <property name="meta.attr.Album.markup">Ninja Gaiden Original Sound Trax (Disc A)</property>
  <property name="meta.attr.COMPOSER.markup">Wakana Hara</property>
  <property name="meta.attr.Artist.markup">Team Ninja</property>
  <property name="meta.attr.Comment.markup">Ripped by Deuce</property>
  <property name="meta.attr.Genre.markup">Game</property>
  <property name="meta.attr.DATE.markup">2004</property>
  <property name="meta.attr.track.markup">15</property>
  <property name="seekable">1</property>
  <property name="meta.media.sample_aspect_num">7873</property>
  <property name="meta.media.sample_aspect_den">7873</property>
  <property name="audio_index">0</property>
  <property name="video_index">-1</property>
  <property name="astream">0</property>
  <property name="vstream">-1</property>
  <property name="kdenlive:folderid">20</property>
  <property name="kdenlive:id">29</property>
  <property name="kdenlive:control_uuid">{29382ef2-7b1a-4cd9-a2dc-cb1b0788f33a}</property>
  <property name="kdenlive:clip_type">1</property>
  <property name="kdenlive:file_size">13852062</property>
  <property name="kdenlive:file_hash">93fbe923de6c4467950ad49808bf8d06</property>
  <property name="kdenlive:monitorPosition">2182</property>
 </chain>
 <chain id="chain36" out="00:02:08.091">
  <property name="length">3072</property>
  <property name="eof">pause</property>
  <property name="resource">ost/ng1ost/[Team Ninja]-116-Sudden Threat.flac</property>
  <property name="mlt_service">avformat</property>
  <property name="meta.media.nb_streams">2</property>
  <property name="meta.media.0.stream.type">audio</property>
  <property name="meta.media.0.codec.sample_fmt">s16</property>
  <property name="meta.media.0.codec.sample_rate">44100</property>
  <property name="meta.media.0.codec.channels">2</property>
  <property name="meta.media.0.codec.layout">stereo</property>
  <property name="meta.media.0.codec.name">flac</property>
  <property name="meta.media.0.codec.long_name">FLAC (Free Lossless Audio Codec)</property>
  <property name="meta.media.0.codec.bit_rate">0</property>
  <property name="meta.media.1.stream.type">video</property>
  <property name="meta.media.1.stream.frame_rate">90000</property>
  <property name="meta.media.1.stream.sample_aspect_ratio">0</property>
  <property name="meta.media.1.codec.width">500</property>
  <property name="meta.media.1.codec.height">500</property>
  <property name="meta.media.1.codec.rotate">0</property>
  <property name="meta.media.1.codec.pix_fmt">rgb24</property>
  <property name="meta.media.1.codec.sample_aspect_ratio">1</property>
  <property name="meta.media.1.codec.colorspace">0</property>
  <property name="meta.media.1.codec.color_trc">4</property>
  <property name="meta.media.1.codec.name">png</property>
  <property name="meta.media.1.codec.long_name">PNG (Portable Network Graphics) image</property>
  <property name="meta.media.1.codec.bit_rate">0</property>
  <property name="meta.attr.1.stream.comment.markup">Cover (front)</property>
  <property name="meta.attr.TITLE.markup">Sudden Threat</property>
  <property name="meta.attr.Album.markup">Ninja Gaiden Original Sound Trax (Disc A)</property>
  <property name="meta.attr.COMPOSER.markup">Wakana Hara</property>
  <property name="meta.attr.Artist.markup">Team Ninja</property>
  <property name="meta.attr.Comment.markup">Ripped by Deuce</property>
  <property name="meta.attr.Genre.markup">Game</property>
  <property name="meta.attr.DATE.markup">2004</property>
  <property name="meta.attr.track.markup">16</property>
  <property name="seekable">1</property>
  <property name="meta.media.sample_aspect_num">7873</property>
  <property name="meta.media.sample_aspect_den">7873</property>
  <property name="audio_index">0</property>
  <property name="video_index">-1</property>
  <property name="astream">0</property>
  <property name="vstream">-1</property>
  <property name="kdenlive:folderid">20</property>
  <property name="kdenlive:id">30</property>
  <property name="kdenlive:control_uuid">{8dda35ca-3428-4bf8-9cc0-b6eadf771594}</property>
  <property name="kdenlive:clip_type">1</property>
  <property name="kdenlive:file_size">13775075</property>
  <property name="kdenlive:file_hash">a59adb3a1f0fa566b9aec9383df9a8a9</property>
  <property name="kdenlive:monitorPosition">449</property>
 </chain>
 <chain id="chain37" out="00:01:39.122">
  <property name="length">2377</property>
  <property name="eof">pause</property>
  <property name="resource">ost/ng1ost/[Team Ninja]-117-The Fiend.flac</property>
  <property name="mlt_service">avformat</property>
  <property name="meta.media.nb_streams">2</property>
  <property name="meta.media.0.stream.type">audio</property>
  <property name="meta.media.0.codec.sample_fmt">s16</property>
  <property name="meta.media.0.codec.sample_rate">44100</property>
  <property name="meta.media.0.codec.channels">2</property>
  <property name="meta.media.0.codec.layout">stereo</property>
  <property name="meta.media.0.codec.name">flac</property>
  <property name="meta.media.0.codec.long_name">FLAC (Free Lossless Audio Codec)</property>
  <property name="meta.media.0.codec.bit_rate">0</property>
  <property name="meta.media.1.stream.type">video</property>
  <property name="meta.media.1.stream.frame_rate">90000</property>
  <property name="meta.media.1.stream.sample_aspect_ratio">0</property>
  <property name="meta.media.1.codec.width">500</property>
  <property name="meta.media.1.codec.height">500</property>
  <property name="meta.media.1.codec.rotate">0</property>
  <property name="meta.media.1.codec.pix_fmt">rgb24</property>
  <property name="meta.media.1.codec.sample_aspect_ratio">1</property>
  <property name="meta.media.1.codec.colorspace">0</property>
  <property name="meta.media.1.codec.color_trc">4</property>
  <property name="meta.media.1.codec.name">png</property>
  <property name="meta.media.1.codec.long_name">PNG (Portable Network Graphics) image</property>
  <property name="meta.media.1.codec.bit_rate">0</property>
  <property name="meta.attr.1.stream.comment.markup">Cover (front)</property>
  <property name="meta.attr.TITLE.markup">The Fiend</property>
  <property name="meta.attr.Album.markup">Ninja Gaiden Original Sound Trax (Disc A)</property>
  <property name="meta.attr.COMPOSER.markup">Wakana Hara</property>
  <property name="meta.attr.Artist.markup">Team Ninja</property>
  <property name="meta.attr.Comment.markup">Ripped by Deuce</property>
  <property name="meta.attr.Genre.markup">Game</property>
  <property name="meta.attr.DATE.markup">2004</property>
  <property name="meta.attr.track.markup">17</property>
  <property name="seekable">1</property>
  <property name="meta.media.sample_aspect_num">7873</property>
  <property name="meta.media.sample_aspect_den">7873</property>
  <property name="audio_index">0</property>
  <property name="video_index">-1</property>
  <property name="astream">0</property>
  <property name="vstream">-1</property>
  <property name="kdenlive:folderid">20</property>
  <property name="kdenlive:id">31</property>
  <property name="kdenlive:control_uuid">{3a927c5b-1aa6-45ec-b785-62c4013b8ab7}</property>
  <property name="kdenlive:clip_type">1</property>
  <property name="kdenlive:file_size">12616987</property>
  <property name="kdenlive:file_hash">213b883ccb0a9df3940d67d8b4654a78</property>
  <property name="kdenlive:monitorPosition">861</property>
 </chain>
 <chain id="chain38" out="00:01:42.125">
  <property name="length">2449</property>
  <property name="eof">pause</property>
  <property name="resource">ost/ng1ost/[Team Ninja]-118-Pray to God.flac</property>
  <property name="mlt_service">avformat</property>
  <property name="meta.media.nb_streams">2</property>
  <property name="meta.media.0.stream.type">audio</property>
  <property name="meta.media.0.codec.sample_fmt">s16</property>
  <property name="meta.media.0.codec.sample_rate">44100</property>
  <property name="meta.media.0.codec.channels">2</property>
  <property name="meta.media.0.codec.layout">stereo</property>
  <property name="meta.media.0.codec.name">flac</property>
  <property name="meta.media.0.codec.long_name">FLAC (Free Lossless Audio Codec)</property>
  <property name="meta.media.0.codec.bit_rate">0</property>
  <property name="meta.media.1.stream.type">video</property>
  <property name="meta.media.1.stream.frame_rate">90000</property>
  <property name="meta.media.1.stream.sample_aspect_ratio">0</property>
  <property name="meta.media.1.codec.width">500</property>
  <property name="meta.media.1.codec.height">500</property>
  <property name="meta.media.1.codec.rotate">0</property>
  <property name="meta.media.1.codec.pix_fmt">rgb24</property>
  <property name="meta.media.1.codec.sample_aspect_ratio">1</property>
  <property name="meta.media.1.codec.colorspace">0</property>
  <property name="meta.media.1.codec.color_trc">4</property>
  <property name="meta.media.1.codec.name">png</property>
  <property name="meta.media.1.codec.long_name">PNG (Portable Network Graphics) image</property>
  <property name="meta.media.1.codec.bit_rate">0</property>
  <property name="meta.attr.1.stream.comment.markup">Cover (front)</property>
  <property name="meta.attr.TITLE.markup">Pray to God</property>
  <property name="meta.attr.ALBUM.markup">Ninja Gaiden Original Sound Trax (Disc A)</property>
  <property name="meta.attr.COMPOSER.markup">Makoto Hosoi</property>
  <property name="meta.attr.Artist.markup">Team Ninja</property>
  <property name="meta.attr.Comment.markup">Ripped by Deuce</property>
  <property name="meta.attr.Genre.markup">Game</property>
  <property name="meta.attr.DATE.markup">2004</property>
  <property name="meta.attr.track.markup">18</property>
  <property name="seekable">1</property>
  <property name="meta.media.sample_aspect_num">7873</property>
  <property name="meta.media.sample_aspect_den">7873</property>
  <property name="audio_index">0</property>
  <property name="video_index">-1</property>
  <property name="astream">0</property>
  <property name="vstream">-1</property>
  <property name="kdenlive:folderid">20</property>
  <property name="kdenlive:id">32</property>
  <property name="kdenlive:control_uuid">{093c2c31-3970-4668-8094-c48cf9f7cfb5}</property>
  <property name="kdenlive:clip_type">1</property>
  <property name="kdenlive:file_size">10943428</property>
  <property name="kdenlive:file_hash">9aacecf873b3538639753d00bf58862d</property>
  <property name="kdenlive:monitorPosition">476</property>
 </chain>
 <chain id="chain39" out="00:01:41.083">
  <property name="length">2424</property>
  <property name="eof">pause</property>
  <property name="resource">ost/ng1ost/[Team Ninja]-119-Crypt.flac</property>
  <property name="mlt_service">avformat</property>
  <property name="meta.media.nb_streams">2</property>
  <property name="meta.media.0.stream.type">audio</property>
  <property name="meta.media.0.codec.sample_fmt">s16</property>
  <property name="meta.media.0.codec.sample_rate">44100</property>
  <property name="meta.media.0.codec.channels">2</property>
  <property name="meta.media.0.codec.layout">stereo</property>
  <property name="meta.media.0.codec.name">flac</property>
  <property name="meta.media.0.codec.long_name">FLAC (Free Lossless Audio Codec)</property>
  <property name="meta.media.0.codec.bit_rate">0</property>
  <property name="meta.media.1.stream.type">video</property>
  <property name="meta.media.1.stream.frame_rate">90000</property>
  <property name="meta.media.1.stream.sample_aspect_ratio">0</property>
  <property name="meta.media.1.codec.width">500</property>
  <property name="meta.media.1.codec.height">500</property>
  <property name="meta.media.1.codec.rotate">0</property>
  <property name="meta.media.1.codec.pix_fmt">rgb24</property>
  <property name="meta.media.1.codec.sample_aspect_ratio">1</property>
  <property name="meta.media.1.codec.colorspace">0</property>
  <property name="meta.media.1.codec.color_trc">4</property>
  <property name="meta.media.1.codec.name">png</property>
  <property name="meta.media.1.codec.long_name">PNG (Portable Network Graphics) image</property>
  <property name="meta.media.1.codec.bit_rate">0</property>
  <property name="meta.attr.1.stream.comment.markup">Cover (front)</property>
  <property name="meta.attr.TITLE.markup">Crypt</property>
  <property name="meta.attr.Album.markup">Ninja Gaiden Original Sound Trax (Disc A)</property>
  <property name="meta.attr.COMPOSER.markup">Wakana Hara</property>
  <property name="meta.attr.Artist.markup">Team Ninja</property>
  <property name="meta.attr.Comment.markup">Ripped by Deuce</property>
  <property name="meta.attr.Genre.markup">Game</property>
  <property name="meta.attr.DATE.markup">2004</property>
  <property name="meta.attr.track.markup">19</property>
  <property name="seekable">1</property>
  <property name="meta.media.sample_aspect_num">7873</property>
  <property name="meta.media.sample_aspect_den">7873</property>
  <property name="audio_index">0</property>
  <property name="video_index">-1</property>
  <property name="astream">0</property>
  <property name="vstream">-1</property>
  <property name="kdenlive:folderid">20</property>
  <property name="kdenlive:id">33</property>
  <property name="kdenlive:control_uuid">{45502d08-6915-47b2-a1f1-929a89c584e7}</property>
  <property name="kdenlive:clip_type">1</property>
  <property name="kdenlive:file_size">7384678</property>
  <property name="kdenlive:file_hash">79990a274fa4fc842ec012fcf0a8066d</property>
  <property name="kdenlive:monitorPosition">149</property>
 </chain>
 <chain id="chain40" out="00:02:23.106">
  <property name="length">3432</property>
  <property name="eof">pause</property>
  <property name="resource">ost/ng1ost/[Team Ninja]-120-Revival of the Dead.flac</property>
  <property name="mlt_service">avformat</property>
  <property name="meta.media.nb_streams">2</property>
  <property name="meta.media.0.stream.type">audio</property>
  <property name="meta.media.0.codec.sample_fmt">s16</property>
  <property name="meta.media.0.codec.sample_rate">44100</property>
  <property name="meta.media.0.codec.channels">2</property>
  <property name="meta.media.0.codec.layout">stereo</property>
  <property name="meta.media.0.codec.name">flac</property>
  <property name="meta.media.0.codec.long_name">FLAC (Free Lossless Audio Codec)</property>
  <property name="meta.media.0.codec.bit_rate">0</property>
  <property name="meta.media.1.stream.type">video</property>
  <property name="meta.media.1.stream.frame_rate">90000</property>
  <property name="meta.media.1.stream.sample_aspect_ratio">0</property>
  <property name="meta.media.1.codec.width">500</property>
  <property name="meta.media.1.codec.height">500</property>
  <property name="meta.media.1.codec.rotate">0</property>
  <property name="meta.media.1.codec.pix_fmt">rgb24</property>
  <property name="meta.media.1.codec.sample_aspect_ratio">1</property>
  <property name="meta.media.1.codec.colorspace">0</property>
  <property name="meta.media.1.codec.color_trc">4</property>
  <property name="meta.media.1.codec.name">png</property>
  <property name="meta.media.1.codec.long_name">PNG (Portable Network Graphics) image</property>
  <property name="meta.media.1.codec.bit_rate">0</property>
  <property name="meta.attr.1.stream.comment.markup">Cover (front)</property>
  <property name="meta.attr.TITLE.markup">Revival of the Dead</property>
  <property name="meta.attr.Album.markup">Ninja Gaiden Original Sound Trax (Disc A)</property>
  <property name="meta.attr.COMPOSER.markup">Ryo Koike</property>
  <property name="meta.attr.Artist.markup">Team Ninja</property>
  <property name="meta.attr.Comment.markup">Ripped by Deuce</property>
  <property name="meta.attr.Genre.markup">Game</property>
  <property name="meta.attr.DATE.markup">2004</property>
  <property name="meta.attr.track.markup">20</property>
  <property name="seekable">1</property>
  <property name="meta.media.sample_aspect_num">7873</property>
  <property name="meta.media.sample_aspect_den">7873</property>
  <property name="audio_index">0</property>
  <property name="video_index">-1</property>
  <property name="astream">0</property>
  <property name="vstream">-1</property>
  <property name="kdenlive:folderid">20</property>
  <property name="kdenlive:id">34</property>
  <property name="kdenlive:control_uuid">{aae7311f-7f67-499f-9c32-acee83a768a2}</property>
  <property name="kdenlive:clip_type">1</property>
  <property name="kdenlive:file_size">18001166</property>
  <property name="kdenlive:file_hash">3af3cc21dd7068ed704d210dff5f2ba0</property>
  <property name="kdenlive:monitorPosition">389</property>
 </chain>
 <chain id="chain41" out="00:01:43.126">
  <property name="length">2473</property>
  <property name="eof">pause</property>
  <property name="resource">ost/ng1ost/[Team Ninja]-121-Dinosaur.flac</property>
  <property name="mlt_service">avformat</property>
  <property name="meta.media.nb_streams">2</property>
  <property name="meta.media.0.stream.type">audio</property>
  <property name="meta.media.0.codec.sample_fmt">s16</property>
  <property name="meta.media.0.codec.sample_rate">44100</property>
  <property name="meta.media.0.codec.channels">2</property>
  <property name="meta.media.0.codec.layout">stereo</property>
  <property name="meta.media.0.codec.name">flac</property>
  <property name="meta.media.0.codec.long_name">FLAC (Free Lossless Audio Codec)</property>
  <property name="meta.media.0.codec.bit_rate">0</property>
  <property name="meta.media.1.stream.type">video</property>
  <property name="meta.media.1.stream.frame_rate">90000</property>
  <property name="meta.media.1.stream.sample_aspect_ratio">0</property>
  <property name="meta.media.1.codec.width">500</property>
  <property name="meta.media.1.codec.height">500</property>
  <property name="meta.media.1.codec.rotate">0</property>
  <property name="meta.media.1.codec.pix_fmt">rgb24</property>
  <property name="meta.media.1.codec.sample_aspect_ratio">1</property>
  <property name="meta.media.1.codec.colorspace">0</property>
  <property name="meta.media.1.codec.color_trc">4</property>
  <property name="meta.media.1.codec.name">png</property>
  <property name="meta.media.1.codec.long_name">PNG (Portable Network Graphics) image</property>
  <property name="meta.media.1.codec.bit_rate">0</property>
  <property name="meta.attr.1.stream.comment.markup">Cover (front)</property>
  <property name="meta.attr.TITLE.markup">Dinosaur</property>
  <property name="meta.attr.Album.markup">Ninja Gaiden Original Sound Trax (Disc A)</property>
  <property name="meta.attr.COMPOSER.markup">Ryo Koike</property>
  <property name="meta.attr.Artist.markup">Team Ninja</property>
  <property name="meta.attr.Comment.markup">Ripped by Deuce</property>
  <property name="meta.attr.Genre.markup">Game</property>
  <property name="meta.attr.DATE.markup">2004</property>
  <property name="meta.attr.track.markup">21</property>
  <property name="seekable">1</property>
  <property name="meta.media.sample_aspect_num">7873</property>
  <property name="meta.media.sample_aspect_den">7873</property>
  <property name="audio_index">0</property>
  <property name="video_index">-1</property>
  <property name="astream">0</property>
  <property name="vstream">-1</property>
  <property name="kdenlive:folderid">20</property>
  <property name="kdenlive:id">35</property>
  <property name="kdenlive:control_uuid">{a438cc05-1273-4c39-b3f3-7a3db11400dc}</property>
  <property name="kdenlive:clip_type">1</property>
  <property name="kdenlive:file_size">12565759</property>
  <property name="kdenlive:file_hash">c8f6f1336acecd095f4bf2436163ae6c</property>
  <property name="kdenlive:monitorPosition">302</property>
 </chain>
 <chain id="chain42" out="00:01:47.130">
  <property name="length">2569</property>
  <property name="eof">pause</property>
  <property name="resource">ost/ng1ost/[Team Ninja]-122-Take it Easy.flac</property>
  <property name="mlt_service">avformat</property>
  <property name="meta.media.nb_streams">2</property>
  <property name="meta.media.0.stream.type">audio</property>
  <property name="meta.media.0.codec.sample_fmt">s16</property>
  <property name="meta.media.0.codec.sample_rate">44100</property>
  <property name="meta.media.0.codec.channels">2</property>
  <property name="meta.media.0.codec.layout">stereo</property>
  <property name="meta.media.0.codec.name">flac</property>
  <property name="meta.media.0.codec.long_name">FLAC (Free Lossless Audio Codec)</property>
  <property name="meta.media.0.codec.bit_rate">0</property>
  <property name="meta.media.1.stream.type">video</property>
  <property name="meta.media.1.stream.frame_rate">90000</property>
  <property name="meta.media.1.stream.sample_aspect_ratio">0</property>
  <property name="meta.media.1.codec.width">500</property>
  <property name="meta.media.1.codec.height">500</property>
  <property name="meta.media.1.codec.rotate">0</property>
  <property name="meta.media.1.codec.pix_fmt">rgb24</property>
  <property name="meta.media.1.codec.sample_aspect_ratio">1</property>
  <property name="meta.media.1.codec.colorspace">0</property>
  <property name="meta.media.1.codec.color_trc">4</property>
  <property name="meta.media.1.codec.name">png</property>
  <property name="meta.media.1.codec.long_name">PNG (Portable Network Graphics) image</property>
  <property name="meta.media.1.codec.bit_rate">0</property>
  <property name="meta.attr.1.stream.comment.markup">Cover (front)</property>
  <property name="meta.attr.TITLE.markup">Take it Easy</property>
  <property name="meta.attr.Album.markup">Ninja Gaiden Original Sound Trax (Disc A)</property>
  <property name="meta.attr.COMPOSER.markup">Wakana Hara</property>
  <property name="meta.attr.Artist.markup">Team Ninja</property>
  <property name="meta.attr.Comment.markup">Ripped by Deuce</property>
  <property name="meta.attr.Genre.markup">Game</property>
  <property name="meta.attr.DATE.markup">2004</property>
  <property name="meta.attr.track.markup">22</property>
  <property name="seekable">1</property>
  <property name="meta.media.sample_aspect_num">7873</property>
  <property name="meta.media.sample_aspect_den">7873</property>
  <property name="audio_index">0</property>
  <property name="video_index">-1</property>
  <property name="astream">0</property>
  <property name="vstream">-1</property>
  <property name="kdenlive:folderid">20</property>
  <property name="kdenlive:id">36</property>
  <property name="kdenlive:control_uuid">{b8f00ba2-53aa-4cad-a88a-5054917f6605}</property>
  <property name="kdenlive:clip_type">1</property>
  <property name="kdenlive:file_size">10797024</property>
  <property name="kdenlive:file_hash">7b17d0b763c711387a5473af4591489a</property>
  <property name="kdenlive:monitorPosition">322</property>
 </chain>
 <chain id="chain43" out="00:02:10.135">
  <property name="length">3121</property>
  <property name="eof">pause</property>
  <property name="resource">ost/ng1ost/[Team Ninja]-123-Forsaken Humanity.flac</property>
  <property name="mlt_service">avformat</property>
  <property name="meta.media.nb_streams">2</property>
  <property name="meta.media.0.stream.type">audio</property>
  <property name="meta.media.0.codec.sample_fmt">s16</property>
  <property name="meta.media.0.codec.sample_rate">44100</property>
  <property name="meta.media.0.codec.channels">2</property>
  <property name="meta.media.0.codec.layout">stereo</property>
  <property name="meta.media.0.codec.name">flac</property>
  <property name="meta.media.0.codec.long_name">FLAC (Free Lossless Audio Codec)</property>
  <property name="meta.media.0.codec.bit_rate">0</property>
  <property name="meta.media.1.stream.type">video</property>
  <property name="meta.media.1.stream.frame_rate">90000</property>
  <property name="meta.media.1.stream.sample_aspect_ratio">0</property>
  <property name="meta.media.1.codec.width">500</property>
  <property name="meta.media.1.codec.height">500</property>
  <property name="meta.media.1.codec.rotate">0</property>
  <property name="meta.media.1.codec.pix_fmt">rgb24</property>
  <property name="meta.media.1.codec.sample_aspect_ratio">1</property>
  <property name="meta.media.1.codec.colorspace">0</property>
  <property name="meta.media.1.codec.color_trc">4</property>
  <property name="meta.media.1.codec.name">png</property>
  <property name="meta.media.1.codec.long_name">PNG (Portable Network Graphics) image</property>
  <property name="meta.media.1.codec.bit_rate">0</property>
  <property name="meta.attr.1.stream.comment.markup">Cover (front)</property>
  <property name="meta.attr.TITLE.markup">Forsaken Humanity</property>
  <property name="meta.attr.Album.markup">Ninja Gaiden Original Sound Trax (Disc A)</property>
  <property name="meta.attr.COMPOSER.markup">Ryo Koike</property>
  <property name="meta.attr.Artist.markup">Team Ninja</property>
  <property name="meta.attr.Comment.markup">Ripped by Deuce</property>
  <property name="meta.attr.Genre.markup">Game</property>
  <property name="meta.attr.DATE.markup">2004</property>
  <property name="meta.attr.track.markup">23</property>
  <property name="seekable">1</property>
  <property name="meta.media.sample_aspect_num">7873</property>
  <property name="meta.media.sample_aspect_den">7873</property>
  <property name="audio_index">0</property>
  <property name="video_index">-1</property>
  <property name="astream">0</property>
  <property name="vstream">-1</property>
  <property name="kdenlive:folderid">20</property>
  <property name="kdenlive:id">37</property>
  <property name="kdenlive:control_uuid">{c1841428-24fd-4d01-8775-3d3e4b3dfec2}</property>
  <property name="kdenlive:clip_type">1</property>
  <property name="kdenlive:file_size">15518604</property>
  <property name="kdenlive:file_hash">618f0719bf1305d28cb53102e4bc97e0</property>
  <property name="kdenlive:monitorPosition">246</property>
 </chain>
 <chain id="chain44" out="00:02:05.130">
  <property name="length">3001</property>
  <property name="eof">pause</property>
  <property name="resource">ost/ng1ost/[Team Ninja]-124-Under Alert.flac</property>
  <property name="mlt_service">avformat</property>
  <property name="meta.media.nb_streams">2</property>
  <property name="meta.media.0.stream.type">audio</property>
  <property name="meta.media.0.codec.sample_fmt">s16</property>
  <property name="meta.media.0.codec.sample_rate">44100</property>
  <property name="meta.media.0.codec.channels">2</property>
  <property name="meta.media.0.codec.layout">stereo</property>
  <property name="meta.media.0.codec.name">flac</property>
  <property name="meta.media.0.codec.long_name">FLAC (Free Lossless Audio Codec)</property>
  <property name="meta.media.0.codec.bit_rate">0</property>
  <property name="meta.media.1.stream.type">video</property>
  <property name="meta.media.1.stream.frame_rate">90000</property>
  <property name="meta.media.1.stream.sample_aspect_ratio">0</property>
  <property name="meta.media.1.codec.width">500</property>
  <property name="meta.media.1.codec.height">500</property>
  <property name="meta.media.1.codec.rotate">0</property>
  <property name="meta.media.1.codec.pix_fmt">rgb24</property>
  <property name="meta.media.1.codec.sample_aspect_ratio">1</property>
  <property name="meta.media.1.codec.colorspace">0</property>
  <property name="meta.media.1.codec.color_trc">4</property>
  <property name="meta.media.1.codec.name">png</property>
  <property name="meta.media.1.codec.long_name">PNG (Portable Network Graphics) image</property>
  <property name="meta.media.1.codec.bit_rate">0</property>
  <property name="meta.attr.1.stream.comment.markup">Cover (front)</property>
  <property name="meta.attr.TITLE.markup">Under Alert</property>
  <property name="meta.attr.ALBUM.markup">Ninja Gaiden Original Sound Trax (Disc A)</property>
  <property name="meta.attr.COMPOSER.markup">Makoto Hosoi</property>
  <property name="meta.attr.Artist.markup">Team Ninja</property>
  <property name="meta.attr.Comment.markup">Ripped by Deuce</property>
  <property name="meta.attr.Genre.markup">Game</property>
  <property name="meta.attr.DATE.markup">2004</property>
  <property name="meta.attr.track.markup">24</property>
  <property name="seekable">1</property>
  <property name="meta.media.sample_aspect_num">7873</property>
  <property name="meta.media.sample_aspect_den">7873</property>
  <property name="audio_index">0</property>
  <property name="video_index">-1</property>
  <property name="astream">0</property>
  <property name="vstream">-1</property>
  <property name="kdenlive:folderid">20</property>
  <property name="kdenlive:id">38</property>
  <property name="kdenlive:control_uuid">{1d9fb6d7-ae83-43a4-aece-07ffd53df75d}</property>
  <property name="kdenlive:clip_type">1</property>
  <property name="kdenlive:file_size">12603475</property>
  <property name="kdenlive:file_hash">705e793c08a7e4cdc891b6955c836395</property>
  <property name="kdenlive:monitorPosition">102</property>
 </chain>
 <chain id="chain45" out="00:01:44.086">
  <property name="length">2496</property>
  <property name="eof">pause</property>
  <property name="resource">ost/ng1ost/[Team Ninja]-125-Monastery Destroyed.flac</property>
  <property name="mlt_service">avformat</property>
  <property name="meta.media.nb_streams">2</property>
  <property name="meta.media.0.stream.type">audio</property>
  <property name="meta.media.0.codec.sample_fmt">s16</property>
  <property name="meta.media.0.codec.sample_rate">44100</property>
  <property name="meta.media.0.codec.channels">2</property>
  <property name="meta.media.0.codec.layout">stereo</property>
  <property name="meta.media.0.codec.name">flac</property>
  <property name="meta.media.0.codec.long_name">FLAC (Free Lossless Audio Codec)</property>
  <property name="meta.media.0.codec.bit_rate">0</property>
  <property name="meta.media.1.stream.type">video</property>
  <property name="meta.media.1.stream.frame_rate">90000</property>
  <property name="meta.media.1.stream.sample_aspect_ratio">0</property>
  <property name="meta.media.1.codec.width">500</property>
  <property name="meta.media.1.codec.height">500</property>
  <property name="meta.media.1.codec.rotate">0</property>
  <property name="meta.media.1.codec.pix_fmt">rgb24</property>
  <property name="meta.media.1.codec.sample_aspect_ratio">1</property>
  <property name="meta.media.1.codec.colorspace">0</property>
  <property name="meta.media.1.codec.color_trc">4</property>
  <property name="meta.media.1.codec.name">png</property>
  <property name="meta.media.1.codec.long_name">PNG (Portable Network Graphics) image</property>
  <property name="meta.media.1.codec.bit_rate">0</property>
  <property name="meta.attr.1.stream.comment.markup">Cover (front)</property>
  <property name="meta.attr.TITLE.markup">Monastery Destroyed</property>
  <property name="meta.attr.ALBUM.markup">Ninja Gaiden Original Sound Trax (Disc A)</property>
  <property name="meta.attr.COMPOSER.markup">Makoto Hosoi</property>
  <property name="meta.attr.Artist.markup">Team Ninja</property>
  <property name="meta.attr.Comment.markup">Ripped by Deuce</property>
  <property name="meta.attr.Genre.markup">Game</property>
  <property name="meta.attr.DATE.markup">2004</property>
  <property name="meta.attr.track.markup">25</property>
  <property name="seekable">1</property>
  <property name="meta.media.sample_aspect_num">7873</property>
  <property name="meta.media.sample_aspect_den">7873</property>
  <property name="audio_index">0</property>
  <property name="video_index">-1</property>
  <property name="astream">0</property>
  <property name="vstream">-1</property>
  <property name="kdenlive:folderid">20</property>
  <property name="kdenlive:id">39</property>
  <property name="kdenlive:control_uuid">{685e3f95-6945-43a6-9fe8-8dcf52a69aab}</property>
  <property name="kdenlive:clip_type">1</property>
  <property name="kdenlive:file_size">8650952</property>
  <property name="kdenlive:file_hash">bf866aff05bd3f3e54ae26f390f15942</property>
  <property name="kdenlive:monitorPosition">155</property>
 </chain>
 <chain id="chain46" out="00:01:23.106">
  <property name="length">1993</property>
  <property name="eof">pause</property>
  <property name="resource">ost/ng1ost/[Team Ninja]-126-Iron and Sword.flac</property>
  <property name="mlt_service">avformat</property>
  <property name="meta.media.nb_streams">2</property>
  <property name="meta.media.0.stream.type">audio</property>
  <property name="meta.media.0.codec.sample_fmt">s16</property>
  <property name="meta.media.0.codec.sample_rate">44100</property>
  <property name="meta.media.0.codec.channels">2</property>
  <property name="meta.media.0.codec.layout">stereo</property>
  <property name="meta.media.0.codec.name">flac</property>
  <property name="meta.media.0.codec.long_name">FLAC (Free Lossless Audio Codec)</property>
  <property name="meta.media.0.codec.bit_rate">0</property>
  <property name="meta.media.1.stream.type">video</property>
  <property name="meta.media.1.stream.frame_rate">90000</property>
  <property name="meta.media.1.stream.sample_aspect_ratio">0</property>
  <property name="meta.media.1.codec.width">500</property>
  <property name="meta.media.1.codec.height">500</property>
  <property name="meta.media.1.codec.rotate">0</property>
  <property name="meta.media.1.codec.pix_fmt">rgb24</property>
  <property name="meta.media.1.codec.sample_aspect_ratio">1</property>
  <property name="meta.media.1.codec.colorspace">0</property>
  <property name="meta.media.1.codec.color_trc">4</property>
  <property name="meta.media.1.codec.name">png</property>
  <property name="meta.media.1.codec.long_name">PNG (Portable Network Graphics) image</property>
  <property name="meta.media.1.codec.bit_rate">0</property>
  <property name="meta.attr.1.stream.comment.markup">Cover (front)</property>
  <property name="meta.attr.TITLE.markup">Iron and Sword</property>
  <property name="meta.attr.Album.markup">Ninja Gaiden Original Sound Trax (Disc A)</property>
  <property name="meta.attr.COMPOSER.markup">Ryo Koike</property>
  <property name="meta.attr.Artist.markup">Team Ninja</property>
  <property name="meta.attr.Comment.markup">Ripped by Deuce</property>
  <property name="meta.attr.Genre.markup">Game</property>
  <property name="meta.attr.DATE.markup">2004</property>
  <property name="meta.attr.track.markup">26</property>
  <property name="seekable">1</property>
  <property name="meta.media.sample_aspect_num">7873</property>
  <property name="meta.media.sample_aspect_den">7873</property>
  <property name="audio_index">0</property>
  <property name="video_index">-1</property>
  <property name="astream">0</property>
  <property name="vstream">-1</property>
  <property name="kdenlive:folderid">20</property>
  <property name="kdenlive:id">40</property>
  <property name="kdenlive:control_uuid">{e1aa2c98-b53f-43ef-8e7a-b0c553d9f355}</property>
  <property name="kdenlive:clip_type">1</property>
  <property name="kdenlive:file_size">10338611</property>
  <property name="kdenlive:file_hash">804b0970dca799294381e1a1c2f1a1f1</property>
  <property name="kdenlive:monitorPosition">547</property>
 </chain>
 <chain id="chain47" out="00:02:14.139">
  <property name="length">3217</property>
  <property name="eof">pause</property>
  <property name="resource">ost/ng1ost/[Team Ninja]-127-Warehouse.flac</property>
  <property name="mlt_service">avformat</property>
  <property name="meta.media.nb_streams">2</property>
  <property name="meta.media.0.stream.type">audio</property>
  <property name="meta.media.0.codec.sample_fmt">s16</property>
  <property name="meta.media.0.codec.sample_rate">44100</property>
  <property name="meta.media.0.codec.channels">2</property>
  <property name="meta.media.0.codec.layout">stereo</property>
  <property name="meta.media.0.codec.name">flac</property>
  <property name="meta.media.0.codec.long_name">FLAC (Free Lossless Audio Codec)</property>
  <property name="meta.media.0.codec.bit_rate">0</property>
  <property name="meta.media.1.stream.type">video</property>
  <property name="meta.media.1.stream.frame_rate">90000</property>
  <property name="meta.media.1.stream.sample_aspect_ratio">0</property>
  <property name="meta.media.1.codec.width">500</property>
  <property name="meta.media.1.codec.height">500</property>
  <property name="meta.media.1.codec.rotate">0</property>
  <property name="meta.media.1.codec.pix_fmt">rgb24</property>
  <property name="meta.media.1.codec.sample_aspect_ratio">1</property>
  <property name="meta.media.1.codec.colorspace">0</property>
  <property name="meta.media.1.codec.color_trc">4</property>
  <property name="meta.media.1.codec.name">png</property>
  <property name="meta.media.1.codec.long_name">PNG (Portable Network Graphics) image</property>
  <property name="meta.media.1.codec.bit_rate">0</property>
  <property name="meta.attr.1.stream.comment.markup">Cover (front)</property>
  <property name="meta.attr.TITLE.markup">Warehouse</property>
  <property name="meta.attr.Album.markup">Ninja Gaiden Original Sound Trax (Disc A)</property>
  <property name="meta.attr.COMPOSER.markup">Wakana Hara</property>
  <property name="meta.attr.Artist.markup">Team Ninja</property>
  <property name="meta.attr.Comment.markup">Ripped by Deuce</property>
  <property name="meta.attr.Genre.markup">Game</property>
  <property name="meta.attr.DATE.markup">2004</property>
  <property name="meta.attr.track.markup">27</property>
  <property name="seekable">1</property>
  <property name="meta.media.sample_aspect_num">7873</property>
  <property name="meta.media.sample_aspect_den">7873</property>
  <property name="audio_index">0</property>
  <property name="video_index">-1</property>
  <property name="astream">0</property>
  <property name="vstream">-1</property>
  <property name="kdenlive:folderid">20</property>
  <property name="kdenlive:id">41</property>
  <property name="kdenlive:control_uuid">{2d73fd1e-df91-49b6-87e6-9f6d0a7cdd42}</property>
  <property name="kdenlive:clip_type">1</property>
  <property name="kdenlive:file_size">11003296</property>
  <property name="kdenlive:file_hash">4e6fa1f64c3f2e23f068dbe37f7e0961</property>
  <property name="kdenlive:monitorPosition">494</property>
 </chain>
 <chain id="chain48" out="00:02:09.134">
  <property name="length">3097</property>
  <property name="eof">pause</property>
  <property name="resource">ost/ng1ost/[Team Ninja]-128-Village (Bonus Track).flac</property>
  <property name="mlt_service">avformat</property>
  <property name="meta.media.nb_streams">2</property>
  <property name="meta.media.0.stream.type">audio</property>
  <property name="meta.media.0.codec.sample_fmt">s16</property>
  <property name="meta.media.0.codec.sample_rate">44100</property>
  <property name="meta.media.0.codec.channels">2</property>
  <property name="meta.media.0.codec.layout">stereo</property>
  <property name="meta.media.0.codec.name">flac</property>
  <property name="meta.media.0.codec.long_name">FLAC (Free Lossless Audio Codec)</property>
  <property name="meta.media.0.codec.bit_rate">0</property>
  <property name="meta.media.1.stream.type">video</property>
  <property name="meta.media.1.stream.frame_rate">90000</property>
  <property name="meta.media.1.stream.sample_aspect_ratio">0</property>
  <property name="meta.media.1.codec.width">500</property>
  <property name="meta.media.1.codec.height">500</property>
  <property name="meta.media.1.codec.rotate">0</property>
  <property name="meta.media.1.codec.pix_fmt">rgb24</property>
  <property name="meta.media.1.codec.sample_aspect_ratio">1</property>
  <property name="meta.media.1.codec.colorspace">0</property>
  <property name="meta.media.1.codec.color_trc">4</property>
  <property name="meta.media.1.codec.name">png</property>
  <property name="meta.media.1.codec.long_name">PNG (Portable Network Graphics) image</property>
  <property name="meta.media.1.codec.bit_rate">0</property>
  <property name="meta.attr.1.stream.comment.markup">Cover (front)</property>
  <property name="meta.attr.TITLE.markup">Village (Bonus Track)</property>
  <property name="meta.attr.ALBUM.markup">Ninja Gaiden Original Sound Trax (Disc A)</property>
  <property name="meta.attr.COMPOSER.markup">Makoto Hosoi</property>
  <property name="meta.attr.Artist.markup">Team Ninja</property>
  <property name="meta.attr.Comment.markup">Ripped by Deuce</property>
  <property name="meta.attr.Genre.markup">Game</property>
  <property name="meta.attr.DATE.markup">2004</property>
  <property name="meta.attr.track.markup">28</property>
  <property name="seekable">1</property>
  <property name="meta.media.sample_aspect_num">7873</property>
  <property name="meta.media.sample_aspect_den">7873</property>
  <property name="audio_index">0</property>
  <property name="video_index">-1</property>
  <property name="astream">0</property>
  <property name="vstream">-1</property>
  <property name="kdenlive:folderid">20</property>
  <property name="kdenlive:id">42</property>
  <property name="kdenlive:control_uuid">{ac32a98d-1d7a-4b3e-a5d8-66eeb70af96c}</property>
  <property name="kdenlive:clip_type">1</property>
  <property name="kdenlive:file_size">13010197</property>
  <property name="kdenlive:file_hash">6f285179290fc2e5cbe89d6b586fc661</property>
  <property name="kdenlive:monitorPosition">288</property>
 </chain>
 <chain id="chain60" out="00:01:53.095">
  <property name="length">2712</property>
  <property name="eof">pause</property>
  <property name="resource">ost/ng1ost/[Team Ninja]-203-Aquaduct.flac</property>
  <property name="mlt_service">avformat</property>
  <property name="meta.media.nb_streams">2</property>
  <property name="meta.media.0.stream.type">audio</property>
  <property name="meta.media.0.codec.sample_fmt">s16</property>
  <property name="meta.media.0.codec.sample_rate">44100</property>
  <property name="meta.media.0.codec.channels">2</property>
  <property name="meta.media.0.codec.layout">stereo</property>
  <property name="meta.media.0.codec.name">flac</property>
  <property name="meta.media.0.codec.long_name">FLAC (Free Lossless Audio Codec)</property>
  <property name="meta.media.0.codec.bit_rate">0</property>
  <property name="meta.media.1.stream.type">video</property>
  <property name="meta.media.1.stream.frame_rate">90000</property>
  <property name="meta.media.1.stream.sample_aspect_ratio">0</property>
  <property name="meta.media.1.codec.width">500</property>
  <property name="meta.media.1.codec.height">500</property>
  <property name="meta.media.1.codec.rotate">0</property>
  <property name="meta.media.1.codec.pix_fmt">rgb24</property>
  <property name="meta.media.1.codec.sample_aspect_ratio">1</property>
  <property name="meta.media.1.codec.colorspace">0</property>
  <property name="meta.media.1.codec.color_trc">4</property>
  <property name="meta.media.1.codec.name">png</property>
  <property name="meta.media.1.codec.long_name">PNG (Portable Network Graphics) image</property>
  <property name="meta.media.1.codec.bit_rate">0</property>
  <property name="meta.attr.1.stream.comment.markup">Cover (front)</property>
  <property name="meta.attr.TITLE.markup">Aquaduct</property>
  <property name="meta.attr.COMPOSER.markup">Wakana Hara</property>
  <property name="meta.attr.Album.markup">Ninja Gaiden Original Sound Trax (Disc B)</property>
  <property name="meta.attr.Artist.markup">Team Ninja</property>
  <property name="meta.attr.Comment.markup">Ripped by Deuce</property>
  <property name="meta.attr.Genre.markup">Game</property>
  <property name="meta.attr.DATE.markup">2004</property>
  <property name="meta.attr.track.markup">03</property>
  <property name="seekable">1</property>
  <property name="meta.media.sample_aspect_num">7873</property>
  <property name="meta.media.sample_aspect_den">7873</property>
  <property name="audio_index">0</property>
  <property name="video_index">-1</property>
  <property name="astream">0</property>
  <property name="vstream">-1</property>
  <property name="kdenlive:folderid">20</property>
  <property name="kdenlive:id">43</property>
  <property name="kdenlive:control_uuid">{f7a021de-63e8-4917-ac48-e1f5a361907e}</property>
  <property name="kdenlive:clip_type">1</property>
  <property name="kdenlive:file_size">11816203</property>
  <property name="kdenlive:file_hash">6459310ce8e20c2bf71d4b71d0b744e1</property>
  <property name="kdenlive:monitorPosition">108</property>
 </chain>
 <chain id="chain61" out="00:02:05.130">
  <property name="length">3001</property>
  <property name="eof">pause</property>
  <property name="resource">ost/ng1ost/[Team Ninja]-204-Toxic Waste.flac</property>
  <property name="mlt_service">avformat</property>
  <property name="meta.media.nb_streams">2</property>
  <property name="meta.media.0.stream.type">audio</property>
  <property name="meta.media.0.codec.sample_fmt">s16</property>
  <property name="meta.media.0.codec.sample_rate">44100</property>
  <property name="meta.media.0.codec.channels">2</property>
  <property name="meta.media.0.codec.layout">stereo</property>
  <property name="meta.media.0.codec.name">flac</property>
  <property name="meta.media.0.codec.long_name">FLAC (Free Lossless Audio Codec)</property>
  <property name="meta.media.0.codec.bit_rate">0</property>
  <property name="meta.media.1.stream.type">video</property>
  <property name="meta.media.1.stream.frame_rate">90000</property>
  <property name="meta.media.1.stream.sample_aspect_ratio">0</property>
  <property name="meta.media.1.codec.width">500</property>
  <property name="meta.media.1.codec.height">500</property>
  <property name="meta.media.1.codec.rotate">0</property>
  <property name="meta.media.1.codec.pix_fmt">rgb24</property>
  <property name="meta.media.1.codec.sample_aspect_ratio">1</property>
  <property name="meta.media.1.codec.colorspace">0</property>
  <property name="meta.media.1.codec.color_trc">4</property>
  <property name="meta.media.1.codec.name">png</property>
  <property name="meta.media.1.codec.long_name">PNG (Portable Network Graphics) image</property>
  <property name="meta.media.1.codec.bit_rate">0</property>
  <property name="meta.attr.1.stream.comment.markup">Cover (front)</property>
  <property name="meta.attr.TITLE.markup">Toxic Waste</property>
  <property name="meta.attr.COMPOSER.markup">Wakana Hara</property>
  <property name="meta.attr.Album.markup">Ninja Gaiden Original Sound Trax (Disc B)</property>
  <property name="meta.attr.Artist.markup">Team Ninja</property>
  <property name="meta.attr.Comment.markup">Ripped by Deuce</property>
  <property name="meta.attr.Genre.markup">Game</property>
  <property name="meta.attr.DATE.markup">2004</property>
  <property name="meta.attr.track.markup">04</property>
  <property name="seekable">1</property>
  <property name="meta.media.sample_aspect_num">7873</property>
  <property name="meta.media.sample_aspect_den">7873</property>
  <property name="audio_index">0</property>
  <property name="video_index">-1</property>
  <property name="astream">0</property>
  <property name="vstream">-1</property>
  <property name="kdenlive:folderid">20</property>
  <property name="kdenlive:id">44</property>
  <property name="kdenlive:control_uuid">{c92b8bc3-61fd-4f67-bbfe-423ab251a445}</property>
  <property name="kdenlive:clip_type">1</property>
  <property name="kdenlive:file_size">15027667</property>
  <property name="kdenlive:file_hash">61e241ecd500f088bd591fa2ec4f451e</property>
  <property name="kdenlive:monitorPosition">210</property>
 </chain>
 <chain id="chain62" out="00:02:07.090">
  <property name="length">3048</property>
  <property name="eof">pause</property>
  <property name="resource">ost/ng1ost/[Team Ninja]-205-Moat of Zarkhan.flac</property>
  <property name="mlt_service">avformat</property>
  <property name="meta.media.nb_streams">2</property>
  <property name="meta.media.0.stream.type">audio</property>
  <property name="meta.media.0.codec.sample_fmt">s16</property>
  <property name="meta.media.0.codec.sample_rate">44100</property>
  <property name="meta.media.0.codec.channels">2</property>
  <property name="meta.media.0.codec.layout">stereo</property>
  <property name="meta.media.0.codec.name">flac</property>
  <property name="meta.media.0.codec.long_name">FLAC (Free Lossless Audio Codec)</property>
  <property name="meta.media.0.codec.bit_rate">0</property>
  <property name="meta.media.1.stream.type">video</property>
  <property name="meta.media.1.stream.frame_rate">90000</property>
  <property name="meta.media.1.stream.sample_aspect_ratio">0</property>
  <property name="meta.media.1.codec.width">500</property>
  <property name="meta.media.1.codec.height">500</property>
  <property name="meta.media.1.codec.rotate">0</property>
  <property name="meta.media.1.codec.pix_fmt">rgb24</property>
  <property name="meta.media.1.codec.sample_aspect_ratio">1</property>
  <property name="meta.media.1.codec.colorspace">0</property>
  <property name="meta.media.1.codec.color_trc">4</property>
  <property name="meta.media.1.codec.name">png</property>
  <property name="meta.media.1.codec.long_name">PNG (Portable Network Graphics) image</property>
  <property name="meta.media.1.codec.bit_rate">0</property>
  <property name="meta.attr.1.stream.comment.markup">Cover (front)</property>
  <property name="meta.attr.TITLE.markup">Moat of Zarkhan</property>
  <property name="meta.attr.COMPOSER.markup">Wakana Hara</property>
  <property name="meta.attr.Album.markup">Ninja Gaiden Original Sound Trax (Disc B)</property>
  <property name="meta.attr.Artist.markup">Team Ninja</property>
  <property name="meta.attr.Comment.markup">Ripped by Deuce</property>
  <property name="meta.attr.Genre.markup">Game</property>
  <property name="meta.attr.DATE.markup">2004</property>
  <property name="meta.attr.track.markup">05</property>
  <property name="seekable">1</property>
  <property name="meta.media.sample_aspect_num">7873</property>
  <property name="meta.media.sample_aspect_den">7873</property>
  <property name="audio_index">0</property>
  <property name="video_index">-1</property>
  <property name="astream">0</property>
  <property name="vstream">-1</property>
  <property name="kdenlive:folderid">20</property>
  <property name="kdenlive:id">45</property>
  <property name="kdenlive:control_uuid">{662cec2e-87a5-4212-8804-b7572aaf07d9}</property>
  <property name="kdenlive:clip_type">1</property>
  <property name="kdenlive:file_size">14432643</property>
  <property name="kdenlive:file_hash">9b226b96feee8a1ba69319a0fec7812e</property>
  <property name="kdenlive:monitorPosition">376</property>
 </chain>
 <chain id="chain63" out="00:02:42.125">
  <property name="length">3888</property>
  <property name="eof">pause</property>
  <property name="resource">ost/ng1ost/[Team Ninja]-206-Distorted World.flac</property>
  <property name="mlt_service">avformat</property>
  <property name="meta.media.nb_streams">2</property>
  <property name="meta.media.0.stream.type">audio</property>
  <property name="meta.media.0.codec.sample_fmt">s16</property>
  <property name="meta.media.0.codec.sample_rate">44100</property>
  <property name="meta.media.0.codec.channels">2</property>
  <property name="meta.media.0.codec.layout">stereo</property>
  <property name="meta.media.0.codec.name">flac</property>
  <property name="meta.media.0.codec.long_name">FLAC (Free Lossless Audio Codec)</property>
  <property name="meta.media.0.codec.bit_rate">0</property>
  <property name="meta.media.1.stream.type">video</property>
  <property name="meta.media.1.stream.frame_rate">90000</property>
  <property name="meta.media.1.stream.sample_aspect_ratio">0</property>
  <property name="meta.media.1.codec.width">500</property>
  <property name="meta.media.1.codec.height">500</property>
  <property name="meta.media.1.codec.rotate">0</property>
  <property name="meta.media.1.codec.pix_fmt">rgb24</property>
  <property name="meta.media.1.codec.sample_aspect_ratio">1</property>
  <property name="meta.media.1.codec.colorspace">0</property>
  <property name="meta.media.1.codec.color_trc">4</property>
  <property name="meta.media.1.codec.name">png</property>
  <property name="meta.media.1.codec.long_name">PNG (Portable Network Graphics) image</property>
  <property name="meta.media.1.codec.bit_rate">0</property>
  <property name="meta.attr.1.stream.comment.markup">Cover (front)</property>
  <property name="meta.attr.TITLE.markup">Distorted World</property>
  <property name="meta.attr.COMPOSER.markup">Ryo Koike</property>
  <property name="meta.attr.Album.markup">Ninja Gaiden Original Sound Trax (Disc B)</property>
  <property name="meta.attr.Artist.markup">Team Ninja</property>
  <property name="meta.attr.Comment.markup">Ripped by Deuce</property>
  <property name="meta.attr.Genre.markup">Game</property>
  <property name="meta.attr.DATE.markup">2004</property>
  <property name="meta.attr.track.markup">06</property>
  <property name="seekable">1</property>
  <property name="meta.media.sample_aspect_num">7873</property>
  <property name="meta.media.sample_aspect_den">7873</property>
  <property name="audio_index">0</property>
  <property name="video_index">-1</property>
  <property name="astream">0</property>
  <property name="vstream">-1</property>
  <property name="kdenlive:folderid">20</property>
  <property name="kdenlive:id">46</property>
  <property name="kdenlive:control_uuid">{5b160761-20c0-4835-a3a3-290082cc8341}</property>
  <property name="kdenlive:clip_type">1</property>
  <property name="kdenlive:file_size">16995741</property>
  <property name="kdenlive:file_hash">06721250a0d42246db7d2a7fccc996ed</property>
  <property name="kdenlive:monitorPosition">1297</property>
 </chain>
 <chain id="chain64" out="00:02:55.180">
  <property name="length">4201</property>
  <property name="eof">pause</property>
  <property name="resource">ost/ng1ost/[Team Ninja]-207-Freeze Up.flac</property>
  <property name="mlt_service">avformat</property>
  <property name="meta.media.nb_streams">2</property>
  <property name="meta.media.0.stream.type">audio</property>
  <property name="meta.media.0.codec.sample_fmt">s16</property>
  <property name="meta.media.0.codec.sample_rate">44100</property>
  <property name="meta.media.0.codec.channels">2</property>
  <property name="meta.media.0.codec.layout">stereo</property>
  <property name="meta.media.0.codec.name">flac</property>
  <property name="meta.media.0.codec.long_name">FLAC (Free Lossless Audio Codec)</property>
  <property name="meta.media.0.codec.bit_rate">0</property>
  <property name="meta.media.1.stream.type">video</property>
  <property name="meta.media.1.stream.frame_rate">90000</property>
  <property name="meta.media.1.stream.sample_aspect_ratio">0</property>
  <property name="meta.media.1.codec.width">500</property>
  <property name="meta.media.1.codec.height">500</property>
  <property name="meta.media.1.codec.rotate">0</property>
  <property name="meta.media.1.codec.pix_fmt">rgb24</property>
  <property name="meta.media.1.codec.sample_aspect_ratio">1</property>
  <property name="meta.media.1.codec.colorspace">0</property>
  <property name="meta.media.1.codec.color_trc">4</property>
  <property name="meta.media.1.codec.name">png</property>
  <property name="meta.media.1.codec.long_name">PNG (Portable Network Graphics) image</property>
  <property name="meta.media.1.codec.bit_rate">0</property>
  <property name="meta.attr.1.stream.comment.markup">Cover (front)</property>
  <property name="meta.attr.TITLE.markup">Freeze Up</property>
  <property name="meta.attr.COMPOSER.markup">Makoto Hosoi</property>
  <property name="meta.attr.Album.markup">Ninja Gaiden Original Sound Trax (Disc B)</property>
  <property name="meta.attr.Artist.markup">Team Ninja</property>
  <property name="meta.attr.Comment.markup">Ripped by Deuce</property>
  <property name="meta.attr.Genre.markup">Game</property>
  <property name="meta.attr.DATE.markup">2004</property>
  <property name="meta.attr.track.markup">07</property>
  <property name="seekable">1</property>
  <property name="meta.media.sample_aspect_num">7873</property>
  <property name="meta.media.sample_aspect_den">7873</property>
  <property name="audio_index">0</property>
  <property name="video_index">-1</property>
  <property name="astream">0</property>
  <property name="vstream">-1</property>
  <property name="kdenlive:folderid">20</property>
  <property name="kdenlive:id">47</property>
  <property name="kdenlive:control_uuid">{3a211f4a-f526-4150-95d1-a1c5d0fb5e34}</property>
  <property name="kdenlive:clip_type">1</property>
  <property name="kdenlive:file_size">17987058</property>
  <property name="kdenlive:file_hash">3a54052e8a34b955896bf9eca460c14a</property>
  <property name="kdenlive:monitorPosition">768</property>
 </chain>
 <chain id="chain65" out="00:02:51.176">
  <property name="length">4105</property>
  <property name="eof">pause</property>
  <property name="resource">ost/ng1ost/[Team Ninja]-208-Burn Away.flac</property>
  <property name="mlt_service">avformat</property>
  <property name="meta.media.nb_streams">2</property>
  <property name="meta.media.0.stream.type">audio</property>
  <property name="meta.media.0.codec.sample_fmt">s16</property>
  <property name="meta.media.0.codec.sample_rate">44100</property>
  <property name="meta.media.0.codec.channels">2</property>
  <property name="meta.media.0.codec.layout">stereo</property>
  <property name="meta.media.0.codec.name">flac</property>
  <property name="meta.media.0.codec.long_name">FLAC (Free Lossless Audio Codec)</property>
  <property name="meta.media.0.codec.bit_rate">0</property>
  <property name="meta.media.1.stream.type">video</property>
  <property name="meta.media.1.stream.frame_rate">90000</property>
  <property name="meta.media.1.stream.sample_aspect_ratio">0</property>
  <property name="meta.media.1.codec.width">500</property>
  <property name="meta.media.1.codec.height">500</property>
  <property name="meta.media.1.codec.rotate">0</property>
  <property name="meta.media.1.codec.pix_fmt">rgb24</property>
  <property name="meta.media.1.codec.sample_aspect_ratio">1</property>
  <property name="meta.media.1.codec.colorspace">0</property>
  <property name="meta.media.1.codec.color_trc">4</property>
  <property name="meta.media.1.codec.name">png</property>
  <property name="meta.media.1.codec.long_name">PNG (Portable Network Graphics) image</property>
  <property name="meta.media.1.codec.bit_rate">0</property>
  <property name="meta.attr.1.stream.comment.markup">Cover (front)</property>
  <property name="meta.attr.TITLE.markup">Burn Away</property>
  <property name="meta.attr.COMPOSER.markup">Makoto Hosoi</property>
  <property name="meta.attr.Album.markup">Ninja Gaiden Original Sound Trax (Disc B)</property>
  <property name="meta.attr.Artist.markup">Team Ninja</property>
  <property name="meta.attr.Comment.markup">Ripped by Deuce</property>
  <property name="meta.attr.Genre.markup">Game</property>
  <property name="meta.attr.DATE.markup">2004</property>
  <property name="meta.attr.track.markup">08</property>
  <property name="seekable">1</property>
  <property name="meta.media.sample_aspect_num">7873</property>
  <property name="meta.media.sample_aspect_den">7873</property>
  <property name="audio_index">0</property>
  <property name="video_index">-1</property>
  <property name="astream">0</property>
  <property name="vstream">-1</property>
  <property name="kdenlive:folderid">20</property>
  <property name="kdenlive:id">48</property>
  <property name="kdenlive:control_uuid">{a200293a-3f81-4d5e-9f28-e6e47a0f1b00}</property>
  <property name="kdenlive:clip_type">1</property>
  <property name="kdenlive:file_size">18490473</property>
  <property name="kdenlive:file_hash">ac209a9cd8d97c6617c3b5cb7005596a</property>
  <property name="kdenlive:monitorPosition">196</property>
 </chain>
 <chain id="chain66" out="00:02:13.138">
  <property name="length">3193</property>
  <property name="eof">pause</property>
  <property name="resource">ost/ng1ost/[Team Ninja]-209-City of Fiends.flac</property>
  <property name="mlt_service">avformat</property>
  <property name="meta.media.nb_streams">2</property>
  <property name="meta.media.0.stream.type">audio</property>
  <property name="meta.media.0.codec.sample_fmt">s16</property>
  <property name="meta.media.0.codec.sample_rate">44100</property>
  <property name="meta.media.0.codec.channels">2</property>
  <property name="meta.media.0.codec.layout">stereo</property>
  <property name="meta.media.0.codec.name">flac</property>
  <property name="meta.media.0.codec.long_name">FLAC (Free Lossless Audio Codec)</property>
  <property name="meta.media.0.codec.bit_rate">0</property>
  <property name="meta.media.1.stream.type">video</property>
  <property name="meta.media.1.stream.frame_rate">90000</property>
  <property name="meta.media.1.stream.sample_aspect_ratio">0</property>
  <property name="meta.media.1.codec.width">500</property>
  <property name="meta.media.1.codec.height">500</property>
  <property name="meta.media.1.codec.rotate">0</property>
  <property name="meta.media.1.codec.pix_fmt">rgb24</property>
  <property name="meta.media.1.codec.sample_aspect_ratio">1</property>
  <property name="meta.media.1.codec.colorspace">0</property>
  <property name="meta.media.1.codec.color_trc">4</property>
  <property name="meta.media.1.codec.name">png</property>
  <property name="meta.media.1.codec.long_name">PNG (Portable Network Graphics) image</property>
  <property name="meta.media.1.codec.bit_rate">0</property>
  <property name="meta.attr.1.stream.comment.markup">Cover (front)</property>
  <property name="meta.attr.TITLE.markup">City of Fiends</property>
  <property name="meta.attr.COMPOSER.markup">Makoto Hosoi</property>
  <property name="meta.attr.Album.markup">Ninja Gaiden Original Sound Trax (Disc B)</property>
  <property name="meta.attr.Artist.markup">Team Ninja</property>
  <property name="meta.attr.Comment.markup">Ripped by Deuce</property>
  <property name="meta.attr.Genre.markup">Game</property>
  <property name="meta.attr.DATE.markup">2004</property>
  <property name="meta.attr.track.markup">09</property>
  <property name="seekable">1</property>
  <property name="meta.media.sample_aspect_num">7873</property>
  <property name="meta.media.sample_aspect_den">7873</property>
  <property name="audio_index">0</property>
  <property name="video_index">-1</property>
  <property name="astream">0</property>
  <property name="vstream">-1</property>
  <property name="kdenlive:folderid">20</property>
  <property name="kdenlive:id">49</property>
  <property name="kdenlive:control_uuid">{231ac3d4-df7e-44c4-8adb-32fdc56f14ea}</property>
  <property name="kdenlive:clip_type">1</property>
  <property name="kdenlive:file_size">13965889</property>
  <property name="kdenlive:file_hash">271962e6c0256d2e5295296b19438c7c</property>
  <property name="kdenlive:monitorPosition">1087</property>
 </chain>
 <chain id="chain67" out="00:02:37.162">
  <property name="length">3769</property>
  <property name="eof">pause</property>
  <property name="resource">ost/ng1ost/[Team Ninja]-210-Lyric.flac</property>
  <property name="mlt_service">avformat</property>
  <property name="meta.media.nb_streams">2</property>
  <property name="meta.media.0.stream.type">audio</property>
  <property name="meta.media.0.codec.sample_fmt">s16</property>
  <property name="meta.media.0.codec.sample_rate">44100</property>
  <property name="meta.media.0.codec.channels">2</property>
  <property name="meta.media.0.codec.layout">stereo</property>
  <property name="meta.media.0.codec.name">flac</property>
  <property name="meta.media.0.codec.long_name">FLAC (Free Lossless Audio Codec)</property>
  <property name="meta.media.0.codec.bit_rate">0</property>
  <property name="meta.media.1.stream.type">video</property>
  <property name="meta.media.1.stream.frame_rate">90000</property>
  <property name="meta.media.1.stream.sample_aspect_ratio">0</property>
  <property name="meta.media.1.codec.width">500</property>
  <property name="meta.media.1.codec.height">500</property>
  <property name="meta.media.1.codec.rotate">0</property>
  <property name="meta.media.1.codec.pix_fmt">rgb24</property>
  <property name="meta.media.1.codec.sample_aspect_ratio">1</property>
  <property name="meta.media.1.codec.colorspace">0</property>
  <property name="meta.media.1.codec.color_trc">4</property>
  <property name="meta.media.1.codec.name">png</property>
  <property name="meta.media.1.codec.long_name">PNG (Portable Network Graphics) image</property>
  <property name="meta.media.1.codec.bit_rate">0</property>
  <property name="meta.attr.1.stream.comment.markup">Cover (front)</property>
  <property name="meta.attr.TITLE.markup">Lyric</property>
  <property name="meta.attr.COMPOSER.markup">Makoto Hosoi</property>
  <property name="meta.attr.Album.markup">Ninja Gaiden Original Sound Trax (Disc B)</property>
  <property name="meta.attr.Artist.markup">Team Ninja</property>
  <property name="meta.attr.Comment.markup">Ripped by Deuce</property>
  <property name="meta.attr.Genre.markup">Game</property>
  <property name="meta.attr.DATE.markup">2004</property>
  <property name="meta.attr.track.markup">10</property>
  <property name="seekable">1</property>
  <property name="meta.media.sample_aspect_num">7873</property>
  <property name="meta.media.sample_aspect_den">7873</property>
  <property name="audio_index">0</property>
  <property name="video_index">-1</property>
  <property name="astream">0</property>
  <property name="vstream">-1</property>
  <property name="kdenlive:folderid">20</property>
  <property name="kdenlive:id">50</property>
  <property name="kdenlive:control_uuid">{62b541a4-4b9e-41d2-b2df-8a048977154b}</property>
  <property name="kdenlive:clip_type">1</property>
  <property name="kdenlive:file_size">14486749</property>
  <property name="kdenlive:file_hash">c6d59bb45f6863ae5502e0a6d5edadb8</property>
  <property name="kdenlive:monitorPosition">1634</property>
 </chain>
 <chain id="chain68" out="00:02:30.113">
  <property name="length">3600</property>
  <property name="eof">pause</property>
  <property name="resource">ost/ng1ost/[Team Ninja]-211-Alma Awakened.flac</property>
  <property name="mlt_service">avformat</property>
  <property name="meta.media.nb_streams">2</property>
  <property name="meta.media.0.stream.type">audio</property>
  <property name="meta.media.0.codec.sample_fmt">s16</property>
  <property name="meta.media.0.codec.sample_rate">44100</property>
  <property name="meta.media.0.codec.channels">2</property>
  <property name="meta.media.0.codec.layout">stereo</property>
  <property name="meta.media.0.codec.name">flac</property>
  <property name="meta.media.0.codec.long_name">FLAC (Free Lossless Audio Codec)</property>
  <property name="meta.media.0.codec.bit_rate">0</property>
  <property name="meta.media.1.stream.type">video</property>
  <property name="meta.media.1.stream.frame_rate">90000</property>
  <property name="meta.media.1.stream.sample_aspect_ratio">0</property>
  <property name="meta.media.1.codec.width">500</property>
  <property name="meta.media.1.codec.height">500</property>
  <property name="meta.media.1.codec.rotate">0</property>
  <property name="meta.media.1.codec.pix_fmt">rgb24</property>
  <property name="meta.media.1.codec.sample_aspect_ratio">1</property>
  <property name="meta.media.1.codec.colorspace">0</property>
  <property name="meta.media.1.codec.color_trc">4</property>
  <property name="meta.media.1.codec.name">png</property>
  <property name="meta.media.1.codec.long_name">PNG (Portable Network Graphics) image</property>
  <property name="meta.media.1.codec.bit_rate">0</property>
  <property name="meta.attr.1.stream.comment.markup">Cover (front)</property>
  <property name="meta.attr.TITLE.markup">Alma Awakened</property>
  <property name="meta.attr.COMPOSER.markup">Ryo Koike</property>
  <property name="meta.attr.Album.markup">Ninja Gaiden Original Sound Trax (Disc B)</property>
  <property name="meta.attr.Artist.markup">Team Ninja</property>
  <property name="meta.attr.Comment.markup">Ripped by Deuce</property>
  <property name="meta.attr.Genre.markup">Game</property>
  <property name="meta.attr.DATE.markup">2004</property>
  <property name="meta.attr.track.markup">11</property>
  <property name="seekable">1</property>
  <property name="meta.media.sample_aspect_num">7873</property>
  <property name="meta.media.sample_aspect_den">7873</property>
  <property name="audio_index">0</property>
  <property name="video_index">-1</property>
  <property name="astream">0</property>
  <property name="vstream">-1</property>
  <property name="kdenlive:folderid">20</property>
  <property name="kdenlive:id">51</property>
  <property name="kdenlive:control_uuid">{26812a68-497f-4a30-acf8-a90dd323c86f}</property>
  <property name="kdenlive:clip_type">1</property>
  <property name="kdenlive:file_size">18258296</property>
  <property name="kdenlive:file_hash">9e008b1dda947458c76c0df2daf9df6c</property>
  <property name="kdenlive:monitorPosition">1881</property>
 </chain>
 <chain id="chain70" out="00:01:56.098">
  <property name="length">2784</property>
  <property name="eof">pause</property>
  <property name="resource">ost/ng1ost/[Team Ninja]-212-Pyramid.flac</property>
  <property name="mlt_service">avformat</property>
  <property name="meta.media.nb_streams">2</property>
  <property name="meta.media.0.stream.type">audio</property>
  <property name="meta.media.0.codec.sample_fmt">s16</property>
  <property name="meta.media.0.codec.sample_rate">44100</property>
  <property name="meta.media.0.codec.channels">2</property>
  <property name="meta.media.0.codec.layout">stereo</property>
  <property name="meta.media.0.codec.name">flac</property>
  <property name="meta.media.0.codec.long_name">FLAC (Free Lossless Audio Codec)</property>
  <property name="meta.media.0.codec.bit_rate">0</property>
  <property name="meta.media.1.stream.type">video</property>
  <property name="meta.media.1.stream.frame_rate">90000</property>
  <property name="meta.media.1.stream.sample_aspect_ratio">0</property>
  <property name="meta.media.1.codec.width">500</property>
  <property name="meta.media.1.codec.height">500</property>
  <property name="meta.media.1.codec.rotate">0</property>
  <property name="meta.media.1.codec.pix_fmt">rgb24</property>
  <property name="meta.media.1.codec.sample_aspect_ratio">1</property>
  <property name="meta.media.1.codec.colorspace">0</property>
  <property name="meta.media.1.codec.color_trc">4</property>
  <property name="meta.media.1.codec.name">png</property>
  <property name="meta.media.1.codec.long_name">PNG (Portable Network Graphics) image</property>
  <property name="meta.media.1.codec.bit_rate">0</property>
  <property name="meta.attr.1.stream.comment.markup">Cover (front)</property>
  <property name="meta.attr.TITLE.markup">Pyramid</property>
  <property name="meta.attr.COMPOSER.markup">Wakana Hara</property>
  <property name="meta.attr.Album.markup">Ninja Gaiden Original Sound Trax (Disc B)</property>
  <property name="meta.attr.Artist.markup">Team Ninja</property>
  <property name="meta.attr.Comment.markup">Ripped by Deuce</property>
  <property name="meta.attr.Genre.markup">Game</property>
  <property name="meta.attr.DATE.markup">2004</property>
  <property name="meta.attr.track.markup">12</property>
  <property name="seekable">1</property>
  <property name="meta.media.sample_aspect_num">7873</property>
  <property name="meta.media.sample_aspect_den">7873</property>
  <property name="audio_index">0</property>
  <property name="video_index">-1</property>
  <property name="astream">0</property>
  <property name="vstream">-1</property>
  <property name="kdenlive:folderid">20</property>
  <property name="kdenlive:id">52</property>
  <property name="kdenlive:control_uuid">{6f72913c-8367-47e7-ada7-4137b8e9e096}</property>
  <property name="kdenlive:clip_type">1</property>
  <property name="kdenlive:file_size">7256663</property>
  <property name="kdenlive:file_hash">665cbe4a0f34a863fe1d55cd89d7eb4a</property>
  <property name="kdenlive:monitorPosition">1694</property>
 </chain>
 <chain id="chain69" out="00:04:28.278">
  <property name="length">6433</property>
  <property name="eof">pause</property>
  <property name="resource">ost/ng1ost/[Team Ninja]-213-Labyrinth.flac</property>
  <property name="mlt_service">avformat</property>
  <property name="meta.media.nb_streams">2</property>
  <property name="meta.media.0.stream.type">audio</property>
  <property name="meta.media.0.codec.sample_fmt">s16</property>
  <property name="meta.media.0.codec.sample_rate">44100</property>
  <property name="meta.media.0.codec.channels">2</property>
  <property name="meta.media.0.codec.layout">stereo</property>
  <property name="meta.media.0.codec.name">flac</property>
  <property name="meta.media.0.codec.long_name">FLAC (Free Lossless Audio Codec)</property>
  <property name="meta.media.0.codec.bit_rate">0</property>
  <property name="meta.media.1.stream.type">video</property>
  <property name="meta.media.1.stream.frame_rate">90000</property>
  <property name="meta.media.1.stream.sample_aspect_ratio">0</property>
  <property name="meta.media.1.codec.width">500</property>
  <property name="meta.media.1.codec.height">500</property>
  <property name="meta.media.1.codec.rotate">0</property>
  <property name="meta.media.1.codec.pix_fmt">rgb24</property>
  <property name="meta.media.1.codec.sample_aspect_ratio">1</property>
  <property name="meta.media.1.codec.colorspace">0</property>
  <property name="meta.media.1.codec.color_trc">4</property>
  <property name="meta.media.1.codec.name">png</property>
  <property name="meta.media.1.codec.long_name">PNG (Portable Network Graphics) image</property>
  <property name="meta.media.1.codec.bit_rate">0</property>
  <property name="meta.attr.1.stream.comment.markup">Cover (front)</property>
  <property name="meta.attr.TITLE.markup">Labyrinth</property>
  <property name="meta.attr.COMPOSER.markup">Wakana Hara</property>
  <property name="meta.attr.Album.markup">Ninja Gaiden Original Sound Trax (Disc B)</property>
  <property name="meta.attr.Artist.markup">Team Ninja</property>
  <property name="meta.attr.Comment.markup">Ripped by Deuce</property>
  <property name="meta.attr.Genre.markup">Game</property>
  <property name="meta.attr.DATE.markup">2004</property>
  <property name="meta.attr.track.markup">13</property>
  <property name="seekable">1</property>
  <property name="meta.media.sample_aspect_num">7873</property>
  <property name="meta.media.sample_aspect_den">7873</property>
  <property name="audio_index">0</property>
  <property name="video_index">-1</property>
  <property name="astream">0</property>
  <property name="vstream">-1</property>
  <property name="kdenlive:folderid">20</property>
  <property name="kdenlive:id">53</property>
  <property name="kdenlive:control_uuid">{818e5902-ca01-4f25-bcd5-38c4693dd897}</property>
  <property name="kdenlive:clip_type">1</property>
  <property name="kdenlive:file_size">26261433</property>
  <property name="kdenlive:file_hash">1d0581a5122207f84011721b30738e5c</property>
  <property name="kdenlive:monitorPosition">2058</property>
 </chain>
 <chain id="chain71" out="00:02:13.138">
  <property name="length">3193</property>
  <property name="eof">pause</property>
  <property name="resource">ost/ng1ost/[Team Ninja]-214-Nightmare.flac</property>
  <property name="mlt_service">avformat</property>
  <property name="meta.media.nb_streams">2</property>
  <property name="meta.media.0.stream.type">audio</property>
  <property name="meta.media.0.codec.sample_fmt">s16</property>
  <property name="meta.media.0.codec.sample_rate">44100</property>
  <property name="meta.media.0.codec.channels">2</property>
  <property name="meta.media.0.codec.layout">stereo</property>
  <property name="meta.media.0.codec.name">flac</property>
  <property name="meta.media.0.codec.long_name">FLAC (Free Lossless Audio Codec)</property>
  <property name="meta.media.0.codec.bit_rate">0</property>
  <property name="meta.media.1.stream.type">video</property>
  <property name="meta.media.1.stream.frame_rate">90000</property>
  <property name="meta.media.1.stream.sample_aspect_ratio">0</property>
  <property name="meta.media.1.codec.width">500</property>
  <property name="meta.media.1.codec.height">500</property>
  <property name="meta.media.1.codec.rotate">0</property>
  <property name="meta.media.1.codec.pix_fmt">rgb24</property>
  <property name="meta.media.1.codec.sample_aspect_ratio">1</property>
  <property name="meta.media.1.codec.colorspace">0</property>
  <property name="meta.media.1.codec.color_trc">4</property>
  <property name="meta.media.1.codec.name">png</property>
  <property name="meta.media.1.codec.long_name">PNG (Portable Network Graphics) image</property>
  <property name="meta.media.1.codec.bit_rate">0</property>
  <property name="meta.attr.1.stream.comment.markup">Cover (front)</property>
  <property name="meta.attr.TITLE.markup">Nightmare</property>
  <property name="meta.attr.COMPOSER.markup">Makoto Hosoi</property>
  <property name="meta.attr.Album.markup">Ninja Gaiden Original Sound Trax (Disc B)</property>
  <property name="meta.attr.Artist.markup">Team Ninja</property>
  <property name="meta.attr.Comment.markup">Ripped by Deuce</property>
  <property name="meta.attr.Genre.markup">Game</property>
  <property name="meta.attr.DATE.markup">2004</property>
  <property name="meta.attr.track.markup">14</property>
  <property name="seekable">1</property>
  <property name="meta.media.sample_aspect_num">7873</property>
  <property name="meta.media.sample_aspect_den">7873</property>
  <property name="audio_index">0</property>
  <property name="video_index">-1</property>
  <property name="astream">0</property>
  <property name="vstream">-1</property>
  <property name="kdenlive:folderid">20</property>
  <property name="kdenlive:id">54</property>
  <property name="kdenlive:control_uuid">{9d846e78-330c-41d6-954d-0e445b65160e}</property>
  <property name="kdenlive:clip_type">1</property>
  <property name="kdenlive:file_size">13886387</property>
  <property name="kdenlive:file_hash">a1452b2faa2890a6cf8728928092e0ef</property>
  <property name="kdenlive:monitorPosition">1747</property>
 </chain>
 <chain id="chain73" out="00:01:53.095">
  <property name="length">2712</property>
  <property name="eof">pause</property>
  <property name="resource">ost/ng1ost/[Team Ninja]-215-Evil Spirit March.flac</property>
  <property name="mlt_service">avformat</property>
  <property name="meta.media.nb_streams">2</property>
  <property name="meta.media.0.stream.type">audio</property>
  <property name="meta.media.0.codec.sample_fmt">s16</property>
  <property name="meta.media.0.codec.sample_rate">44100</property>
  <property name="meta.media.0.codec.channels">2</property>
  <property name="meta.media.0.codec.layout">stereo</property>
  <property name="meta.media.0.codec.name">flac</property>
  <property name="meta.media.0.codec.long_name">FLAC (Free Lossless Audio Codec)</property>
  <property name="meta.media.0.codec.bit_rate">0</property>
  <property name="meta.media.1.stream.type">video</property>
  <property name="meta.media.1.stream.frame_rate">90000</property>
  <property name="meta.media.1.stream.sample_aspect_ratio">0</property>
  <property name="meta.media.1.codec.width">500</property>
  <property name="meta.media.1.codec.height">500</property>
  <property name="meta.media.1.codec.rotate">0</property>
  <property name="meta.media.1.codec.pix_fmt">rgb24</property>
  <property name="meta.media.1.codec.sample_aspect_ratio">1</property>
  <property name="meta.media.1.codec.colorspace">0</property>
  <property name="meta.media.1.codec.color_trc">4</property>
  <property name="meta.media.1.codec.name">png</property>
  <property name="meta.media.1.codec.long_name">PNG (Portable Network Graphics) image</property>
  <property name="meta.media.1.codec.bit_rate">0</property>
  <property name="meta.attr.1.stream.comment.markup">Cover (front)</property>
  <property name="meta.attr.TITLE.markup">Evil Spirit March</property>
  <property name="meta.attr.COMPOSER.markup">Ryo Koike</property>
  <property name="meta.attr.Album.markup">Ninja Gaiden Original Sound Trax (Disc B)</property>
  <property name="meta.attr.Artist.markup">Team Ninja</property>
  <property name="meta.attr.Comment.markup">Ripped by Deuce</property>
  <property name="meta.attr.Genre.markup">Game</property>
  <property name="meta.attr.DATE.markup">2004</property>
  <property name="meta.attr.track.markup">15</property>
  <property name="seekable">1</property>
  <property name="meta.media.sample_aspect_num">7873</property>
  <property name="meta.media.sample_aspect_den">7873</property>
  <property name="audio_index">0</property>
  <property name="video_index">-1</property>
  <property name="astream">0</property>
  <property name="vstream">-1</property>
  <property name="kdenlive:folderid">20</property>
  <property name="kdenlive:id">55</property>
  <property name="kdenlive:control_uuid">{1f7c07c3-d1c0-425c-b122-a287afe64340}</property>
  <property name="kdenlive:clip_type">1</property>
  <property name="kdenlive:file_size">13194727</property>
  <property name="kdenlive:file_hash">6885c81213b2ec3b76199e9cd5ec0b52</property>
  <property name="kdenlive:monitorPosition">283</property>
 </chain>
 <chain id="chain72" out="00:02:16.141">
  <property name="length">3265</property>
  <property name="eof">pause</property>
  <property name="resource">ost/ng1ost/[Team Ninja]-216-To a Different World.flac</property>
  <property name="mlt_service">avformat</property>
  <property name="meta.media.nb_streams">2</property>
  <property name="meta.media.0.stream.type">audio</property>
  <property name="meta.media.0.codec.sample_fmt">s16</property>
  <property name="meta.media.0.codec.sample_rate">44100</property>
  <property name="meta.media.0.codec.channels">2</property>
  <property name="meta.media.0.codec.layout">stereo</property>
  <property name="meta.media.0.codec.name">flac</property>
  <property name="meta.media.0.codec.long_name">FLAC (Free Lossless Audio Codec)</property>
  <property name="meta.media.0.codec.bit_rate">0</property>
  <property name="meta.media.1.stream.type">video</property>
  <property name="meta.media.1.stream.frame_rate">90000</property>
  <property name="meta.media.1.stream.sample_aspect_ratio">0</property>
  <property name="meta.media.1.codec.width">500</property>
  <property name="meta.media.1.codec.height">500</property>
  <property name="meta.media.1.codec.rotate">0</property>
  <property name="meta.media.1.codec.pix_fmt">rgb24</property>
  <property name="meta.media.1.codec.sample_aspect_ratio">1</property>
  <property name="meta.media.1.codec.colorspace">0</property>
  <property name="meta.media.1.codec.color_trc">4</property>
  <property name="meta.media.1.codec.name">png</property>
  <property name="meta.media.1.codec.long_name">PNG (Portable Network Graphics) image</property>
  <property name="meta.media.1.codec.bit_rate">0</property>
  <property name="meta.attr.1.stream.comment.markup">Cover (front)</property>
  <property name="meta.attr.TITLE.markup">To a Different World</property>
  <property name="meta.attr.COMPOSER.markup">Ryo Koike</property>
  <property name="meta.attr.Album.markup">Ninja Gaiden Original Sound Trax (Disc B)</property>
  <property name="meta.attr.Artist.markup">Team Ninja</property>
  <property name="meta.attr.Comment.markup">Ripped by Deuce</property>
  <property name="meta.attr.Genre.markup">Game</property>
  <property name="meta.attr.DATE.markup">2004</property>
  <property name="meta.attr.track.markup">16</property>
  <property name="seekable">1</property>
  <property name="meta.media.sample_aspect_num">7873</property>
  <property name="meta.media.sample_aspect_den">7873</property>
  <property name="audio_index">0</property>
  <property name="video_index">-1</property>
  <property name="astream">0</property>
  <property name="vstream">-1</property>
  <property name="kdenlive:folderid">20</property>
  <property name="kdenlive:id">56</property>
  <property name="kdenlive:control_uuid">{cc4b64ab-9446-46cd-8f05-7070ec080f6e}</property>
  <property name="kdenlive:clip_type">1</property>
  <property name="kdenlive:file_size">14561370</property>
  <property name="kdenlive:file_hash">16b782f672dc493b49624e98644ab458</property>
  <property name="kdenlive:monitorPosition">1786</property>
 </chain>
 <chain id="chain74" out="00:03:29.196">
  <property name="length">5016</property>
  <property name="eof">pause</property>
  <property name="resource">ost/ng1ost/[Team Ninja]-217-Emperor.flac</property>
  <property name="mlt_service">avformat</property>
  <property name="meta.media.nb_streams">2</property>
  <property name="meta.media.0.stream.type">audio</property>
  <property name="meta.media.0.codec.sample_fmt">s16</property>
  <property name="meta.media.0.codec.sample_rate">44100</property>
  <property name="meta.media.0.codec.channels">2</property>
  <property name="meta.media.0.codec.layout">stereo</property>
  <property name="meta.media.0.codec.name">flac</property>
  <property name="meta.media.0.codec.long_name">FLAC (Free Lossless Audio Codec)</property>
  <property name="meta.media.0.codec.bit_rate">0</property>
  <property name="meta.media.1.stream.type">video</property>
  <property name="meta.media.1.stream.frame_rate">90000</property>
  <property name="meta.media.1.stream.sample_aspect_ratio">0</property>
  <property name="meta.media.1.codec.width">500</property>
  <property name="meta.media.1.codec.height">500</property>
  <property name="meta.media.1.codec.rotate">0</property>
  <property name="meta.media.1.codec.pix_fmt">rgb24</property>
  <property name="meta.media.1.codec.sample_aspect_ratio">1</property>
  <property name="meta.media.1.codec.colorspace">0</property>
  <property name="meta.media.1.codec.color_trc">4</property>
  <property name="meta.media.1.codec.name">png</property>
  <property name="meta.media.1.codec.long_name">PNG (Portable Network Graphics) image</property>
  <property name="meta.media.1.codec.bit_rate">0</property>
  <property name="meta.attr.1.stream.comment.markup">Cover (front)</property>
  <property name="meta.attr.TITLE.markup">Emperor</property>
  <property name="meta.attr.COMPOSER.markup">Ryo Koike</property>
  <property name="meta.attr.Album.markup">Ninja Gaiden Original Sound Trax (Disc B)</property>
  <property name="meta.attr.Artist.markup">Team Ninja</property>
  <property name="meta.attr.Comment.markup">Ripped by Deuce</property>
  <property name="meta.attr.Genre.markup">Game</property>
  <property name="meta.attr.DATE.markup">2004</property>
  <property name="meta.attr.track.markup">17</property>
  <property name="seekable">1</property>
  <property name="meta.media.sample_aspect_num">7873</property>
  <property name="meta.media.sample_aspect_den">7873</property>
  <property name="audio_index">0</property>
  <property name="video_index">-1</property>
  <property name="astream">0</property>
  <property name="vstream">-1</property>
  <property name="kdenlive:folderid">20</property>
  <property name="kdenlive:id">57</property>
  <property name="kdenlive:control_uuid">{0c052ca4-c3f4-451a-99ef-827e9e83ed02}</property>
  <property name="kdenlive:clip_type">1</property>
  <property name="kdenlive:file_size">26776652</property>
  <property name="kdenlive:file_hash">cb966d2856dd23839516dddf0855440b</property>
  <property name="kdenlive:monitorPosition">147</property>
 </chain>
 <chain id="chain76" out="00:02:43.168">
  <property name="length">3913</property>
  <property name="eof">pause</property>
  <property name="resource">ost/ng1ost/[Team Ninja]-218-The Dark Dragon Blade.flac</property>
  <property name="mlt_service">avformat</property>
  <property name="meta.media.nb_streams">2</property>
  <property name="meta.media.0.stream.type">audio</property>
  <property name="meta.media.0.codec.sample_fmt">s16</property>
  <property name="meta.media.0.codec.sample_rate">44100</property>
  <property name="meta.media.0.codec.channels">2</property>
  <property name="meta.media.0.codec.layout">stereo</property>
  <property name="meta.media.0.codec.name">flac</property>
  <property name="meta.media.0.codec.long_name">FLAC (Free Lossless Audio Codec)</property>
  <property name="meta.media.0.codec.bit_rate">0</property>
  <property name="meta.media.1.stream.type">video</property>
  <property name="meta.media.1.stream.frame_rate">90000</property>
  <property name="meta.media.1.stream.sample_aspect_ratio">0</property>
  <property name="meta.media.1.codec.width">500</property>
  <property name="meta.media.1.codec.height">500</property>
  <property name="meta.media.1.codec.rotate">0</property>
  <property name="meta.media.1.codec.pix_fmt">rgb24</property>
  <property name="meta.media.1.codec.sample_aspect_ratio">1</property>
  <property name="meta.media.1.codec.colorspace">0</property>
  <property name="meta.media.1.codec.color_trc">4</property>
  <property name="meta.media.1.codec.name">png</property>
  <property name="meta.media.1.codec.long_name">PNG (Portable Network Graphics) image</property>
  <property name="meta.media.1.codec.bit_rate">0</property>
  <property name="meta.attr.1.stream.comment.markup">Cover (front)</property>
  <property name="meta.attr.TITLE.markup">The Dark Dragon Blade</property>
  <property name="meta.attr.COMPOSER.markup">Wakana Hara</property>
  <property name="meta.attr.Album.markup">Ninja Gaiden Original Sound Trax (Disc B)</property>
  <property name="meta.attr.Artist.markup">Team Ninja</property>
  <property name="meta.attr.Comment.markup">Ripped by Deuce</property>
  <property name="meta.attr.Genre.markup">Game</property>
  <property name="meta.attr.DATE.markup">2004</property>
  <property name="meta.attr.track.markup">18</property>
  <property name="seekable">1</property>
  <property name="meta.media.sample_aspect_num">7873</property>
  <property name="meta.media.sample_aspect_den">7873</property>
  <property name="audio_index">0</property>
  <property name="video_index">-1</property>
  <property name="astream">0</property>
  <property name="vstream">-1</property>
  <property name="kdenlive:folderid">20</property>
  <property name="kdenlive:id">58</property>
  <property name="kdenlive:control_uuid">{af867d9d-d586-4cb0-b2de-7518da19c169}</property>
  <property name="kdenlive:clip_type">1</property>
  <property name="kdenlive:file_size">18803923</property>
  <property name="kdenlive:file_hash">487b35b239848b3c2daf78b8d8661353</property>
  <property name="kdenlive:monitorPosition">1840</property>
 </chain>
 <chain id="chain75" out="00:03:33.242">
  <property name="length">5113</property>
  <property name="eof">pause</property>
  <property name="resource">ost/ng1ost/[Team Ninja]-219-Go the Distance.flac</property>
  <property name="mlt_service">avformat</property>
  <property name="meta.media.nb_streams">2</property>
  <property name="meta.media.0.stream.type">audio</property>
  <property name="meta.media.0.codec.sample_fmt">s16</property>
  <property name="meta.media.0.codec.sample_rate">44100</property>
  <property name="meta.media.0.codec.channels">2</property>
  <property name="meta.media.0.codec.layout">stereo</property>
  <property name="meta.media.0.codec.name">flac</property>
  <property name="meta.media.0.codec.long_name">FLAC (Free Lossless Audio Codec)</property>
  <property name="meta.media.0.codec.bit_rate">0</property>
  <property name="meta.media.1.stream.type">video</property>
  <property name="meta.media.1.stream.frame_rate">90000</property>
  <property name="meta.media.1.stream.sample_aspect_ratio">0</property>
  <property name="meta.media.1.codec.width">500</property>
  <property name="meta.media.1.codec.height">500</property>
  <property name="meta.media.1.codec.rotate">0</property>
  <property name="meta.media.1.codec.pix_fmt">rgb24</property>
  <property name="meta.media.1.codec.sample_aspect_ratio">1</property>
  <property name="meta.media.1.codec.colorspace">0</property>
  <property name="meta.media.1.codec.color_trc">4</property>
  <property name="meta.media.1.codec.name">png</property>
  <property name="meta.media.1.codec.long_name">PNG (Portable Network Graphics) image</property>
  <property name="meta.media.1.codec.bit_rate">0</property>
  <property name="meta.attr.1.stream.comment.markup">Cover (front)</property>
  <property name="meta.attr.Title.markup">Go the Distance</property>
  <property name="meta.attr.COMPOSER.markup">Makoto Hosoi</property>
  <property name="meta.attr.Album.markup">Ninja Gaiden Original Sound Trax (Disc B)</property>
  <property name="meta.attr.Artist.markup">Team Ninja</property>
  <property name="meta.attr.Comment.markup">Ripped by Deuce</property>
  <property name="meta.attr.Genre.markup">Game</property>
  <property name="meta.attr.DATE.markup">2004</property>
  <property name="meta.attr.track.markup">19</property>
  <property name="seekable">1</property>
  <property name="meta.media.sample_aspect_num">7873</property>
  <property name="meta.media.sample_aspect_den">7873</property>
  <property name="audio_index">0</property>
  <property name="video_index">-1</property>
  <property name="astream">0</property>
  <property name="vstream">-1</property>
  <property name="kdenlive:folderid">20</property>
  <property name="kdenlive:id">59</property>
  <property name="kdenlive:control_uuid">{b7883de4-aa8b-4a3e-bf4d-a6d56287e802}</property>
  <property name="kdenlive:clip_type">1</property>
  <property name="kdenlive:file_size">24698897</property>
  <property name="kdenlive:file_hash">a3ff565e4bae75d8a7f83332c45e5360</property>
  <property name="kdenlive:monitorPosition">2381</property>
 </chain>
 <chain id="chain77" out="00:01:28.111">
  <property name="length">2113</property>
  <property name="eof">pause</property>
  <property name="resource">ost/ng1ost/[Team Ninja]-220-After the Battle.flac</property>
  <property name="mlt_service">avformat</property>
  <property name="meta.media.nb_streams">2</property>
  <property name="meta.media.0.stream.type">audio</property>
  <property name="meta.media.0.codec.sample_fmt">s16</property>
  <property name="meta.media.0.codec.sample_rate">44100</property>
  <property name="meta.media.0.codec.channels">2</property>
  <property name="meta.media.0.codec.layout">stereo</property>
  <property name="meta.media.0.codec.name">flac</property>
  <property name="meta.media.0.codec.long_name">FLAC (Free Lossless Audio Codec)</property>
  <property name="meta.media.0.codec.bit_rate">0</property>
  <property name="meta.media.1.stream.type">video</property>
  <property name="meta.media.1.stream.frame_rate">90000</property>
  <property name="meta.media.1.stream.sample_aspect_ratio">0</property>
  <property name="meta.media.1.codec.width">500</property>
  <property name="meta.media.1.codec.height">500</property>
  <property name="meta.media.1.codec.rotate">0</property>
  <property name="meta.media.1.codec.pix_fmt">rgb24</property>
  <property name="meta.media.1.codec.sample_aspect_ratio">1</property>
  <property name="meta.media.1.codec.colorspace">0</property>
  <property name="meta.media.1.codec.color_trc">4</property>
  <property name="meta.media.1.codec.name">png</property>
  <property name="meta.media.1.codec.long_name">PNG (Portable Network Graphics) image</property>
  <property name="meta.media.1.codec.bit_rate">0</property>
  <property name="meta.attr.1.stream.comment.markup">Cover (front)</property>
  <property name="meta.attr.TITLE.markup">After the Battle</property>
  <property name="meta.attr.COMPOSER.markup">Ryo Koike</property>
  <property name="meta.attr.Album.markup">Ninja Gaiden Original Sound Trax (Disc B)</property>
  <property name="meta.attr.Artist.markup">Team Ninja</property>
  <property name="meta.attr.Comment.markup">Ripped by Deuce</property>
  <property name="meta.attr.Genre.markup">Game</property>
  <property name="meta.attr.DATE.markup">2004</property>
  <property name="meta.attr.track.markup">20</property>
  <property name="seekable">1</property>
  <property name="meta.media.sample_aspect_num">7873</property>
  <property name="meta.media.sample_aspect_den">7873</property>
  <property name="audio_index">0</property>
  <property name="video_index">-1</property>
  <property name="astream">0</property>
  <property name="vstream">-1</property>
  <property name="kdenlive:folderid">20</property>
  <property name="kdenlive:id">60</property>
  <property name="kdenlive:control_uuid">{a3915e74-776c-4392-afda-84c98aeb971e}</property>
  <property name="kdenlive:clip_type">1</property>
  <property name="kdenlive:file_size">9636991</property>
  <property name="kdenlive:file_hash">18f1747e3b6a4881ac9f6ab0b4dedc70</property>
  <property name="kdenlive:monitorPosition">231</property>
 </chain>
 <chain id="chain78" out="00:01:50.133">
  <property name="length">2641</property>
  <property name="eof">pause</property>
  <property name="resource">ost/ng1ost/[Team Ninja]-221-A New Challenge.flac</property>
  <property name="mlt_service">avformat</property>
  <property name="meta.media.nb_streams">2</property>
  <property name="meta.media.0.stream.type">audio</property>
  <property name="meta.media.0.codec.sample_fmt">s16</property>
  <property name="meta.media.0.codec.sample_rate">44100</property>
  <property name="meta.media.0.codec.channels">2</property>
  <property name="meta.media.0.codec.layout">stereo</property>
  <property name="meta.media.0.codec.name">flac</property>
  <property name="meta.media.0.codec.long_name">FLAC (Free Lossless Audio Codec)</property>
  <property name="meta.media.0.codec.bit_rate">0</property>
  <property name="meta.media.1.stream.type">video</property>
  <property name="meta.media.1.stream.frame_rate">90000</property>
  <property name="meta.media.1.stream.sample_aspect_ratio">0</property>
  <property name="meta.media.1.codec.width">500</property>
  <property name="meta.media.1.codec.height">500</property>
  <property name="meta.media.1.codec.rotate">0</property>
  <property name="meta.media.1.codec.pix_fmt">rgb24</property>
  <property name="meta.media.1.codec.sample_aspect_ratio">1</property>
  <property name="meta.media.1.codec.colorspace">0</property>
  <property name="meta.media.1.codec.color_trc">4</property>
  <property name="meta.media.1.codec.name">png</property>
  <property name="meta.media.1.codec.long_name">PNG (Portable Network Graphics) image</property>
  <property name="meta.media.1.codec.bit_rate">0</property>
  <property name="meta.attr.1.stream.comment.markup">Cover (front)</property>
  <property name="meta.attr.TITLE.markup">A New Challenge</property>
  <property name="meta.attr.COMPOSER.markup">Wakana Hara</property>
  <property name="meta.attr.Album.markup">Ninja Gaiden Original Sound Trax (Disc B)</property>
  <property name="meta.attr.Artist.markup">Team Ninja</property>
  <property name="meta.attr.Comment.markup">Ripped by Deuce</property>
  <property name="meta.attr.Genre.markup">Game</property>
  <property name="meta.attr.DATE.markup">2004</property>
  <property name="meta.attr.track.markup">21</property>
  <property name="seekable">1</property>
  <property name="meta.media.sample_aspect_num">7873</property>
  <property name="meta.media.sample_aspect_den">7873</property>
  <property name="audio_index">0</property>
  <property name="video_index">-1</property>
  <property name="astream">0</property>
  <property name="vstream">-1</property>
  <property name="kdenlive:folderid">20</property>
  <property name="kdenlive:id">61</property>
  <property name="kdenlive:control_uuid">{9468ed6d-664f-42ee-9087-a49b464ecc91}</property>
  <property name="kdenlive:clip_type">1</property>
  <property name="kdenlive:file_size">11046594</property>
  <property name="kdenlive:file_hash">53d9a47d5cb2cd59d5cd69e187e67ddd</property>
  <property name="kdenlive:monitorPosition">1025</property>
 </chain>
 <chain id="chain79" out="00:00:32.032">
  <property name="length">769</property>
  <property name="eof">pause</property>
  <property name="resource">ost/ng1ost/[Team Ninja]-222-Chapter Clear.flac</property>
  <property name="mlt_service">avformat</property>
  <property name="meta.media.nb_streams">2</property>
  <property name="meta.media.0.stream.type">audio</property>
  <property name="meta.media.0.codec.sample_fmt">s16</property>
  <property name="meta.media.0.codec.sample_rate">44100</property>
  <property name="meta.media.0.codec.channels">2</property>
  <property name="meta.media.0.codec.layout">stereo</property>
  <property name="meta.media.0.codec.name">flac</property>
  <property name="meta.media.0.codec.long_name">FLAC (Free Lossless Audio Codec)</property>
  <property name="meta.media.0.codec.bit_rate">0</property>
  <property name="meta.media.1.stream.type">video</property>
  <property name="meta.media.1.stream.frame_rate">90000</property>
  <property name="meta.media.1.stream.sample_aspect_ratio">0</property>
  <property name="meta.media.1.codec.width">500</property>
  <property name="meta.media.1.codec.height">500</property>
  <property name="meta.media.1.codec.rotate">0</property>
  <property name="meta.media.1.codec.pix_fmt">rgb24</property>
  <property name="meta.media.1.codec.sample_aspect_ratio">1</property>
  <property name="meta.media.1.codec.colorspace">0</property>
  <property name="meta.media.1.codec.color_trc">4</property>
  <property name="meta.media.1.codec.name">png</property>
  <property name="meta.media.1.codec.long_name">PNG (Portable Network Graphics) image</property>
  <property name="meta.media.1.codec.bit_rate">0</property>
  <property name="meta.attr.1.stream.comment.markup">Cover (front)</property>
  <property name="meta.attr.TITLE.markup">Chapter Clear</property>
  <property name="meta.attr.COMPOSER.markup">Ryo Koike</property>
  <property name="meta.attr.Album.markup">Ninja Gaiden Original Sound Trax (Disc B)</property>
  <property name="meta.attr.Artist.markup">Team Ninja</property>
  <property name="meta.attr.Comment.markup">Ripped by Deuce</property>
  <property name="meta.attr.Genre.markup">Game</property>
  <property name="meta.attr.DATE.markup">2004</property>
  <property name="meta.attr.track.markup">22</property>
  <property name="seekable">1</property>
  <property name="meta.media.sample_aspect_num">7873</property>
  <property name="meta.media.sample_aspect_den">7873</property>
  <property name="audio_index">0</property>
  <property name="video_index">-1</property>
  <property name="astream">0</property>
  <property name="vstream">-1</property>
  <property name="kdenlive:folderid">20</property>
  <property name="kdenlive:id">62</property>
  <property name="kdenlive:control_uuid">{824e133c-5278-4729-82bf-b545f24c40ef}</property>
  <property name="kdenlive:clip_type">1</property>
  <property name="kdenlive:file_size">3069285</property>
  <property name="kdenlive:file_hash">b38285a635a9987f9df6306fa068508c</property>
  <property name="kdenlive:monitorPosition">146</property>
 </chain>
 <chain id="chain80" out="00:02:38.121">
  <property name="length">3792</property>
  <property name="eof">pause</property>
  <property name="resource">ost/ng1ost/[Team Ninja]-201-Supply Base.flac</property>
  <property name="mlt_service">avformat</property>
  <property name="meta.media.nb_streams">2</property>
  <property name="meta.media.0.stream.type">audio</property>
  <property name="meta.media.0.codec.sample_fmt">s16</property>
  <property name="meta.media.0.codec.sample_rate">44100</property>
  <property name="meta.media.0.codec.channels">2</property>
  <property name="meta.media.0.codec.layout">stereo</property>
  <property name="meta.media.0.codec.name">flac</property>
  <property name="meta.media.0.codec.long_name">FLAC (Free Lossless Audio Codec)</property>
  <property name="meta.media.0.codec.bit_rate">0</property>
  <property name="meta.media.1.stream.type">video</property>
  <property name="meta.media.1.stream.frame_rate">90000</property>
  <property name="meta.media.1.stream.sample_aspect_ratio">0</property>
  <property name="meta.media.1.codec.width">500</property>
  <property name="meta.media.1.codec.height">500</property>
  <property name="meta.media.1.codec.rotate">0</property>
  <property name="meta.media.1.codec.pix_fmt">rgb24</property>
  <property name="meta.media.1.codec.sample_aspect_ratio">1</property>
  <property name="meta.media.1.codec.colorspace">0</property>
  <property name="meta.media.1.codec.color_trc">4</property>
  <property name="meta.media.1.codec.name">png</property>
  <property name="meta.media.1.codec.long_name">PNG (Portable Network Graphics) image</property>
  <property name="meta.media.1.codec.bit_rate">0</property>
  <property name="meta.attr.1.stream.comment.markup">Cover (front)</property>
  <property name="meta.attr.TITLE.markup">Supply Base</property>
  <property name="meta.attr.COMPOSER.markup">Ryo Koike</property>
  <property name="meta.attr.Album.markup">Ninja Gaiden Original Sound Trax (Disc B)</property>
  <property name="meta.attr.Artist.markup">Team Ninja</property>
  <property name="meta.attr.Comment.markup">Ripped by Deuce</property>
  <property name="meta.attr.Genre.markup">Game</property>
  <property name="meta.attr.DATE.markup">2004</property>
  <property name="meta.attr.track.markup">01</property>
  <property name="seekable">1</property>
  <property name="meta.media.sample_aspect_num">7873</property>
  <property name="meta.media.sample_aspect_den">7873</property>
  <property name="audio_index">0</property>
  <property name="video_index">-1</property>
  <property name="astream">0</property>
  <property name="vstream">-1</property>
  <property name="kdenlive:folderid">20</property>
  <property name="kdenlive:id">63</property>
  <property name="kdenlive:control_uuid">{a9c0e2f5-b7c5-43cb-9618-d5839833ec96}</property>
  <property name="kdenlive:clip_type">1</property>
  <property name="kdenlive:file_size">18206945</property>
  <property name="kdenlive:file_hash">61ee474051071486ddb4813ef56ac65e</property>
  <property name="kdenlive:monitorPosition">2525</property>
 </chain>
 <chain id="chain81" out="00:01:41.083">
  <property name="length">2424</property>
  <property name="eof">pause</property>
  <property name="resource">ost/ng1ost/[Team Ninja]-202-Escape from Crisis.flac</property>
  <property name="mlt_service">avformat</property>
  <property name="meta.media.nb_streams">2</property>
  <property name="meta.media.0.stream.type">audio</property>
  <property name="meta.media.0.codec.sample_fmt">s16</property>
  <property name="meta.media.0.codec.sample_rate">44100</property>
  <property name="meta.media.0.codec.channels">2</property>
  <property name="meta.media.0.codec.layout">stereo</property>
  <property name="meta.media.0.codec.name">flac</property>
  <property name="meta.media.0.codec.long_name">FLAC (Free Lossless Audio Codec)</property>
  <property name="meta.media.0.codec.bit_rate">0</property>
  <property name="meta.media.1.stream.type">video</property>
  <property name="meta.media.1.stream.frame_rate">90000</property>
  <property name="meta.media.1.stream.sample_aspect_ratio">0</property>
  <property name="meta.media.1.codec.width">500</property>
  <property name="meta.media.1.codec.height">500</property>
  <property name="meta.media.1.codec.rotate">0</property>
  <property name="meta.media.1.codec.pix_fmt">rgb24</property>
  <property name="meta.media.1.codec.sample_aspect_ratio">1</property>
  <property name="meta.media.1.codec.colorspace">0</property>
  <property name="meta.media.1.codec.color_trc">4</property>
  <property name="meta.media.1.codec.name">png</property>
  <property name="meta.media.1.codec.long_name">PNG (Portable Network Graphics) image</property>
  <property name="meta.media.1.codec.bit_rate">0</property>
  <property name="meta.attr.1.stream.comment.markup">Cover (front)</property>
  <property name="meta.attr.TITLE.markup">Escape from Crisis</property>
  <property name="meta.attr.COMPOSER.markup">Ryo Koike</property>
  <property name="meta.attr.Album.markup">Ninja Gaiden Original Sound Trax (Disc B)</property>
  <property name="meta.attr.Artist.markup">Team Ninja</property>
  <property name="meta.attr.Comment.markup">Ripped by Deuce</property>
  <property name="meta.attr.Genre.markup">Game</property>
  <property name="meta.attr.DATE.markup">2004</property>
  <property name="meta.attr.track.markup">02</property>
  <property name="seekable">1</property>
  <property name="meta.media.sample_aspect_num">7873</property>
  <property name="meta.media.sample_aspect_den">7873</property>
  <property name="audio_index">0</property>
  <property name="video_index">-1</property>
  <property name="astream">0</property>
  <property name="vstream">-1</property>
  <property name="kdenlive:folderid">20</property>
  <property name="kdenlive:id">64</property>
  <property name="kdenlive:control_uuid">{0eb5a0a2-5c35-4d14-a360-2e8c62d96abf}</property>
  <property name="kdenlive:clip_type">1</property>
  <property name="kdenlive:file_size">12805022</property>
  <property name="kdenlive:file_hash">ad3fe03e81ac788dbfded820a85978d8</property>
  <property name="kdenlive:activeeffect">0</property>
  <property name="kdenlive:monitorPosition">708</property>
  <filter id="filter62">
   <property name="window">75</property>
   <property name="max_gain">20dB</property>
   <property name="level">00:00:00.000=-25</property>
   <property name="mlt_service">volume</property>
   <property name="kdenlive_id">volume</property>
   <property name="kdenlive:collapsed">0</property>
  </filter>
 </chain>
 <producer id="producer0" in="00:00:00.000" out="01:23:00.083">
  <property name="length">2147483647</property>
  <property name="eof">continue</property>
  <property name="resource">black</property>
  <property name="aspect_ratio">1</property>
  <property name="mlt_service">color</property>
  <property name="kdenlive:playlistid">black_track</property>
  <property name="mlt_image_format">rgba</property>
  <property name="set.test_audio">0</property>
 </producer>
 <chain id="chain0" out="00:04:28.278">
  <property name="length">6433</property>
  <property name="eof">pause</property>
  <property name="resource">ost/ng1ost/[Team Ninja]-213-Labyrinth.flac</property>
  <property name="mlt_service">avformat-novalidate</property>
  <property name="seekable">1</property>
  <property name="audio_index">0</property>
  <property name="video_index">-1</property>
  <property name="astream">0</property>
  <property name="vstream">-1</property>
  <property name="kdenlive:folderid">20</property>
  <property name="kdenlive:id">53</property>
  <property name="kdenlive:control_uuid">{818e5902-ca01-4f25-bcd5-38c4693dd897}</property>
  <property name="kdenlive:clip_type">1</property>
  <property name="kdenlive:file_size">26261433</property>
  <property name="kdenlive:file_hash">1d0581a5122207f84011721b30738e5c</property>
  <property name="kdenlive:monitorPosition">1946</property>
  <property name="meta.media.nb_streams">2</property>
  <property name="meta.media.0.stream.type">audio</property>
  <property name="meta.media.0.codec.sample_fmt">s16</property>
  <property name="meta.media.0.codec.sample_rate">44100</property>
  <property name="meta.media.0.codec.channels">2</property>
  <property name="meta.media.0.codec.layout">stereo</property>
  <property name="meta.media.0.codec.name">flac</property>
  <property name="meta.media.0.codec.long_name">FLAC (Free Lossless Audio Codec)</property>
  <property name="meta.media.0.codec.bit_rate">0</property>
  <property name="meta.media.1.stream.type">video</property>
  <property name="meta.media.1.stream.frame_rate">90000</property>
  <property name="meta.media.1.stream.sample_aspect_ratio">0</property>
  <property name="meta.media.1.codec.width">500</property>
  <property name="meta.media.1.codec.height">500</property>
  <property name="meta.media.1.codec.rotate">0</property>
  <property name="meta.media.1.codec.pix_fmt">rgb24</property>
  <property name="meta.media.1.codec.sample_aspect_ratio">1</property>
  <property name="meta.media.1.codec.colorspace">0</property>
  <property name="meta.media.1.codec.color_trc">4</property>
  <property name="meta.media.1.codec.name">png</property>
  <property name="meta.media.1.codec.long_name">PNG (Portable Network Graphics) image</property>
  <property name="meta.media.1.codec.bit_rate">0</property>
  <property name="meta.attr.1.stream.comment.markup">Cover (front)</property>
  <property name="meta.attr.TITLE.markup">Labyrinth</property>
  <property name="meta.attr.COMPOSER.markup">Wakana Hara</property>
  <property name="meta.attr.Album.markup">Ninja Gaiden Original Sound Trax (Disc B)</property>
  <property name="meta.attr.Artist.markup">Team Ninja</property>
  <property name="meta.attr.Comment.markup">Ripped by Deuce</property>
  <property name="meta.attr.Genre.markup">Game</property>
  <property name="meta.attr.DATE.markup">2004</property>
  <property name="meta.attr.track.markup">13</property>
  <property name="meta.media.sample_aspect_num">7873</property>
  <property name="meta.media.sample_aspect_den">7873</property>
  <property name="xml">was here</property>
  <property name="mute_on_pause">0</property>
  <property name="set.test_audio">0</property>
  <property name="set.test_image">1</property>
 </chain>
 <producer id="producer1" in="00:00:00.000" out="00:02:56.223">
  <property name="length">4226</property>
  <property name="eof">pause</property>
  <property name="resource">0.500000:ost/ng1ost/[Team Ninja]-220-After the Battle.flac</property>
  <property name="aspect_ratio">1</property>
  <property name="meta.media.nb_streams">2</property>
  <property name="meta.media.0.stream.type">audio</property>
  <property name="meta.media.0.codec.sample_fmt">s16</property>
  <property name="meta.media.0.codec.sample_rate">44100</property>
  <property name="meta.media.0.codec.channels">2</property>
  <property name="meta.media.0.codec.layout">stereo</property>
  <property name="meta.media.0.codec.name">flac</property>
  <property name="meta.media.0.codec.long_name">FLAC (Free Lossless Audio Codec)</property>
  <property name="meta.media.0.codec.bit_rate">0</property>
  <property name="meta.media.1.stream.type">video</property>
  <property name="meta.media.1.stream.frame_rate">90000</property>
  <property name="meta.media.1.stream.sample_aspect_ratio">0</property>
  <property name="meta.media.1.codec.width">500</property>
  <property name="meta.media.1.codec.height">500</property>
  <property name="meta.media.1.codec.rotate">0</property>
  <property name="meta.media.1.codec.pix_fmt">rgb24</property>
  <property name="meta.media.1.codec.sample_aspect_ratio">1</property>
  <property name="meta.media.1.codec.colorspace">0</property>
  <property name="meta.media.1.codec.color_trc">4</property>
  <property name="meta.media.1.codec.name">png</property>
  <property name="meta.media.1.codec.long_name">PNG (Portable Network Graphics) image</property>
  <property name="meta.media.1.codec.bit_rate">0</property>
  <property name="meta.attr.1.stream.comment.markup">Cover (front)</property>
  <property name="meta.attr.TITLE.markup">After the Battle</property>
  <property name="meta.attr.COMPOSER.markup">Ryo Koike</property>
  <property name="meta.attr.Album.markup">Ninja Gaiden Original Sound Trax (Disc B)</property>
  <property name="meta.attr.Artist.markup">Team Ninja</property>
  <property name="meta.attr.Comment.markup">Ripped by Deuce</property>
  <property name="meta.attr.Genre.markup">Game</property>
  <property name="meta.attr.DATE.markup">2004</property>
  <property name="meta.attr.track.markup">20</property>
  <property name="seekable">1</property>
  <property name="audio_index">0</property>
  <property name="video_index">-1</property>
  <property name="warp_speed">0.5</property>
  <property name="warp_resource">ost/ng1ost/[Team Ninja]-220-After the Battle.flac</property>
  <property name="mlt_service">timewarp</property>
  <property name="kdenlive:control_uuid">{a3915e74-776c-4392-afda-84c98aeb971e}</property>
  <property name="vstream">-1</property>
  <property name="astream">0</property>
  <property name="set.test_audio">0</property>
  <property name="set.test_image">1</property>
  <property name="kdenlive:id">60</property>
  <property name="warp_pitch">0</property>
 </producer>
 <playlist id="playlist0">
  <property name="kdenlive:audio_track">1</property>
  <blank length="00:48:02.252"/>
  <entry in="00:00:30.906" out="00:02:27.945" producer="chain0">
   <property name="kdenlive:id">53</property>
   <filter id="filter1">
    <property name="window">75</property>
    <property name="max_gain">20dB</property>
    <property name="level">00:00:30.906=-25;00:01:57.140=-25;00:02:07.174=-40;00:02:26.526=-67</property>
    <property name="mlt_service">volume</property>
    <property name="kdenlive_id">volume</property>
    <property name="kdenlive:collapsed">0</property>
   </filter>
   <filter id="filter2" in="00:00:30.906" out="00:00:42.834">
    <property name="window">75</property>
    <property name="max_gain">20dB</property>
    <property name="mlt_service">volume</property>
    <property name="kdenlive_id">fadein</property>
    <property name="gain">0</property>
    <property name="end">1</property>
    <property name="kdenlive:collapsed">0</property>
   </filter>
  </entry>
  <blank length="00:22:54.721"/>
  <entry in="00:01:10.427" out="00:01:24.524" producer="producer1">
   <property name="kdenlive:id">60</property>
   <filter id="filter3">
    <property name="window">75</property>
    <property name="max_gain">20dB</property>
    <property name="level">00:01:10.427=-23</property>
    <property name="mlt_service">volume</property>
    <property name="kdenlive_id">volume</property>
    <property name="kdenlive:collapsed">0</property>
   </filter>
   <filter id="filter4" in="00:01:10.427" out="00:01:24.566">
    <property name="window">75</property>
    <property name="max_gain">20dB</property>
    <property name="mlt_service">volume</property>
    <property name="kdenlive_id">fadeout</property>
    <property name="gain">1</property>
    <property name="end">0</property>
    <property name="kdenlive:collapsed">0</property>
   </filter>
   <filter id="filter5" in="00:01:10.427" out="00:01:13.055">
    <property name="window">75</property>
    <property name="max_gain">20dB</property>
    <property name="mlt_service">volume</property>
    <property name="kdenlive_id">fadein</property>
    <property name="gain">0</property>
    <property name="end">1</property>
    <property name="kdenlive:collapsed">0</property>
   </filter>
  </entry>
 </playlist>
 <playlist id="playlist1">
  <property name="kdenlive:audio_track">1</property>
 </playlist>
 <tractor id="tractor0" in="00:00:00.000" out="01:13:08.133">
  <property name="kdenlive:audio_track">1</property>
  <property name="kdenlive:trackheight">84</property>
  <property name="kdenlive:timeline_active">1</property>
  <property name="kdenlive:collapsed">0</property>
  <property name="kdenlive:thumbs_format"/>
  <property name="kdenlive:audio_rec"/>
  <track hide="video" producer="playlist0"/>
  <track hide="video" producer="playlist1"/>
  <filter id="filter6">
   <property name="window">75</property>
   <property name="max_gain">20dB</property>
   <property name="mlt_service">volume</property>
   <property name="internal_added">237</property>
   <property name="disable">1</property>
  </filter>
  <filter id="filter7">
   <property name="channel">-1</property>
   <property name="mlt_service">panner</property>
   <property name="internal_added">237</property>
   <property name="start">0.5</property>
   <property name="disable">1</property>
  </filter>
  <filter id="filter8">
   <property name="iec_scale">0</property>
   <property name="mlt_service">audiolevel</property>
   <property name="dbpeak">1</property>
   <property name="disable">1</property>
  </filter>
 </tractor>
 <chain id="chain1" out="00:01:35.118">
  <property name="length">2281</property>
  <property name="eof">pause</property>
  <property name="resource">ost/ng1ost/[Team Ninja]-102-Opening.flac</property>
  <property name="mlt_service">avformat-novalidate</property>
  <property name="seekable">1</property>
  <property name="audio_index">0</property>
  <property name="video_index">-1</property>
  <property name="astream">0</property>
  <property name="vstream">-1</property>
  <property name="kdenlive:folderid">20</property>
  <property name="kdenlive:id">15</property>
  <property name="kdenlive:control_uuid">{eb09f0f1-bcfa-43dc-abad-e28df42d8040}</property>
  <property name="kdenlive:clip_type">1</property>
  <property name="kdenlive:file_size">9737593</property>
  <property name="kdenlive:file_hash">a4d04e3f68aaf061336198d8b89f03b1</property>
  <property name="meta.media.nb_streams">2</property>
  <property name="meta.media.0.stream.type">audio</property>
  <property name="meta.media.0.codec.sample_fmt">s16</property>
  <property name="meta.media.0.codec.sample_rate">44100</property>
  <property name="meta.media.0.codec.channels">2</property>
  <property name="meta.media.0.codec.layout">stereo</property>
  <property name="meta.media.0.codec.name">flac</property>
  <property name="meta.media.0.codec.long_name">FLAC (Free Lossless Audio Codec)</property>
  <property name="meta.media.0.codec.bit_rate">0</property>
  <property name="meta.media.1.stream.type">video</property>
  <property name="meta.media.1.stream.frame_rate">90000</property>
  <property name="meta.media.1.stream.sample_aspect_ratio">0</property>
  <property name="meta.media.1.codec.width">500</property>
  <property name="meta.media.1.codec.height">500</property>
  <property name="meta.media.1.codec.rotate">0</property>
  <property name="meta.media.1.codec.pix_fmt">rgb24</property>
  <property name="meta.media.1.codec.sample_aspect_ratio">1</property>
  <property name="meta.media.1.codec.colorspace">0</property>
  <property name="meta.media.1.codec.color_trc">4</property>
  <property name="meta.media.1.codec.name">png</property>
  <property name="meta.media.1.codec.long_name">PNG (Portable Network Graphics) image</property>
  <property name="meta.media.1.codec.bit_rate">0</property>
  <property name="meta.attr.1.stream.comment.markup">Cover (front)</property>
  <property name="meta.attr.TITLE.markup">Opening</property>
  <property name="meta.attr.Album.markup">Ninja Gaiden Original Sound Trax (Disc A)</property>
  <property name="meta.attr.COMPOSER.markup">Ryo Koike</property>
  <property name="meta.attr.Artist.markup">Team Ninja</property>
  <property name="meta.attr.Comment.markup">Ripped by Deuce</property>
  <property name="meta.attr.Genre.markup">Game</property>
  <property name="meta.attr.DATE.markup">2004</property>
  <property name="meta.attr.track.markup">02</property>
  <property name="meta.media.sample_aspect_num">7873</property>
  <property name="meta.media.sample_aspect_den">7873</property>
  <property name="xml">was here</property>
  <property name="mute_on_pause">0</property>
  <property name="set.test_audio">0</property>
  <property name="set.test_image">1</property>
 </chain>
 <chain id="chain3" out="00:01:07.090">
  <property name="length">1609</property>
  <property name="eof">pause</property>
  <property name="resource">ost/ng1ost/[Team Ninja]-111-An Easy Enemy.flac</property>
  <property name="mlt_service">avformat-novalidate</property>
  <property name="seekable">1</property>
  <property name="audio_index">0</property>
  <property name="video_index">-1</property>
  <property name="astream">0</property>
  <property name="vstream">-1</property>
  <property name="kdenlive:folderid">20</property>
  <property name="kdenlive:id">25</property>
  <property name="kdenlive:control_uuid">{23c0aac5-29c9-4468-b250-2b9e2b06e5b6}</property>
  <property name="kdenlive:clip_type">1</property>
  <property name="kdenlive:file_size">8565289</property>
  <property name="kdenlive:file_hash">37bef3acae5987860231c11fd28ebd37</property>
  <property name="meta.media.nb_streams">2</property>
  <property name="meta.media.0.stream.type">audio</property>
  <property name="meta.media.0.codec.sample_fmt">s16</property>
  <property name="meta.media.0.codec.sample_rate">44100</property>
  <property name="meta.media.0.codec.channels">2</property>
  <property name="meta.media.0.codec.layout">stereo</property>
  <property name="meta.media.0.codec.name">flac</property>
  <property name="meta.media.0.codec.long_name">FLAC (Free Lossless Audio Codec)</property>
  <property name="meta.media.0.codec.bit_rate">0</property>
  <property name="meta.media.1.stream.type">video</property>
  <property name="meta.media.1.stream.frame_rate">90000</property>
  <property name="meta.media.1.stream.sample_aspect_ratio">0</property>
  <property name="meta.media.1.codec.width">500</property>
  <property name="meta.media.1.codec.height">500</property>
  <property name="meta.media.1.codec.rotate">0</property>
  <property name="meta.media.1.codec.pix_fmt">rgb24</property>
  <property name="meta.media.1.codec.sample_aspect_ratio">1</property>
  <property name="meta.media.1.codec.colorspace">0</property>
  <property name="meta.media.1.codec.color_trc">4</property>
  <property name="meta.media.1.codec.name">png</property>
  <property name="meta.media.1.codec.long_name">PNG (Portable Network Graphics) image</property>
  <property name="meta.media.1.codec.bit_rate">0</property>
  <property name="meta.attr.1.stream.comment.markup">Cover (front)</property>
  <property name="meta.attr.TITLE.markup">An Easy Enemy</property>
  <property name="meta.attr.Album.markup">Ninja Gaiden Original Sound Trax (Disc A)</property>
  <property name="meta.attr.COMPOSER.markup">Ryo Koike</property>
  <property name="meta.attr.Artist.markup">Team Ninja</property>
  <property name="meta.attr.Comment.markup">Ripped by Deuce</property>
  <property name="meta.attr.Genre.markup">Game</property>
  <property name="meta.attr.DATE.markup">2004</property>
  <property name="meta.attr.track.markup">11</property>
  <property name="meta.media.sample_aspect_num">7873</property>
  <property name="meta.media.sample_aspect_den">7873</property>
  <property name="xml">was here</property>
  <property name="mute_on_pause">0</property>
  <property name="set.test_audio">0</property>
  <property name="set.test_image">1</property>
 </chain>
 <chain id="chain4" out="00:02:24.149">
  <property name="length">3457</property>
  <property name="eof">pause</property>
  <property name="resource">ost/ng1ost/[Team Ninja]-103-Worship.flac</property>
  <property name="mlt_service">avformat-novalidate</property>
  <property name="seekable">1</property>
  <property name="audio_index">0</property>
  <property name="video_index">-1</property>
  <property name="astream">0</property>
  <property name="vstream">-1</property>
  <property name="kdenlive:folderid">20</property>
  <property name="kdenlive:id">16</property>
  <property name="kdenlive:control_uuid">{7e603b21-d318-4c02-a18b-1c83a9122324}</property>
  <property name="kdenlive:clip_type">1</property>
  <property name="kdenlive:file_size">16190463</property>
  <property name="kdenlive:file_hash">80f60834e9a1eba90bda9bffa9e8eac9</property>
  <property name="kdenlive:monitorPosition">40</property>
  <property name="meta.media.nb_streams">2</property>
  <property name="meta.media.0.stream.type">audio</property>
  <property name="meta.media.0.codec.sample_fmt">s16</property>
  <property name="meta.media.0.codec.sample_rate">44100</property>
  <property name="meta.media.0.codec.channels">2</property>
  <property name="meta.media.0.codec.layout">stereo</property>
  <property name="meta.media.0.codec.name">flac</property>
  <property name="meta.media.0.codec.long_name">FLAC (Free Lossless Audio Codec)</property>
  <property name="meta.media.0.codec.bit_rate">0</property>
  <property name="meta.media.1.stream.type">video</property>
  <property name="meta.media.1.stream.frame_rate">90000</property>
  <property name="meta.media.1.stream.sample_aspect_ratio">0</property>
  <property name="meta.media.1.codec.width">500</property>
  <property name="meta.media.1.codec.height">500</property>
  <property name="meta.media.1.codec.rotate">0</property>
  <property name="meta.media.1.codec.pix_fmt">rgb24</property>
  <property name="meta.media.1.codec.sample_aspect_ratio">1</property>
  <property name="meta.media.1.codec.colorspace">0</property>
  <property name="meta.media.1.codec.color_trc">4</property>
  <property name="meta.media.1.codec.name">png</property>
  <property name="meta.media.1.codec.long_name">PNG (Portable Network Graphics) image</property>
  <property name="meta.media.1.codec.bit_rate">0</property>
  <property name="meta.attr.1.stream.comment.markup">Cover (front)</property>
  <property name="meta.attr.TITLE.markup">Worship</property>
  <property name="meta.attr.ALBUM.markup">Ninja Gaiden Original Sound Trax (Disc A)</property>
  <property name="meta.attr.COMPOSER.markup">Makoto Hosoi</property>
  <property name="meta.attr.Artist.markup">Team Ninja</property>
  <property name="meta.attr.Comment.markup">Ripped by Deuce</property>
  <property name="meta.attr.Genre.markup">Game</property>
  <property name="meta.attr.DATE.markup">2004</property>
  <property name="meta.attr.track.markup">03</property>
  <property name="meta.media.sample_aspect_num">7873</property>
  <property name="meta.media.sample_aspect_den">7873</property>
  <property name="xml">was here</property>
  <property name="mute_on_pause">0</property>
  <property name="set.test_audio">0</property>
  <property name="set.test_image">1</property>
 </chain>
 <chain id="chain5" out="00:02:27.110">
  <property name="length">3528</property>
  <property name="eof">pause</property>
  <property name="resource">ost/ng1ost/[Team Ninja]-115-Rachel.flac</property>
  <property name="mlt_service">avformat-novalidate</property>
  <property name="seekable">1</property>
  <property name="audio_index">0</property>
  <property name="video_index">-1</property>
  <property name="astream">0</property>
  <property name="vstream">-1</property>
  <property name="kdenlive:folderid">20</property>
  <property name="kdenlive:id">29</property>
  <property name="kdenlive:control_uuid">{29382ef2-7b1a-4cd9-a2dc-cb1b0788f33a}</property>
  <property name="kdenlive:clip_type">1</property>
  <property name="kdenlive:file_size">13852062</property>
  <property name="kdenlive:file_hash">93fbe923de6c4467950ad49808bf8d06</property>
  <property name="kdenlive:monitorPosition">151</property>
  <property name="meta.media.nb_streams">2</property>
  <property name="meta.media.0.stream.type">audio</property>
  <property name="meta.media.0.codec.sample_fmt">s16</property>
  <property name="meta.media.0.codec.sample_rate">44100</property>
  <property name="meta.media.0.codec.channels">2</property>
  <property name="meta.media.0.codec.layout">stereo</property>
  <property name="meta.media.0.codec.name">flac</property>
  <property name="meta.media.0.codec.long_name">FLAC (Free Lossless Audio Codec)</property>
  <property name="meta.media.0.codec.bit_rate">0</property>
  <property name="meta.media.1.stream.type">video</property>
  <property name="meta.media.1.stream.frame_rate">90000</property>
  <property name="meta.media.1.stream.sample_aspect_ratio">0</property>
  <property name="meta.media.1.codec.width">500</property>
  <property name="meta.media.1.codec.height">500</property>
  <property name="meta.media.1.codec.rotate">0</property>
  <property name="meta.media.1.codec.pix_fmt">rgb24</property>
  <property name="meta.media.1.codec.sample_aspect_ratio">1</property>
  <property name="meta.media.1.codec.colorspace">0</property>
  <property name="meta.media.1.codec.color_trc">4</property>
  <property name="meta.media.1.codec.name">png</property>
  <property name="meta.media.1.codec.long_name">PNG (Portable Network Graphics) image</property>
  <property name="meta.media.1.codec.bit_rate">0</property>
  <property name="meta.attr.1.stream.comment.markup">Cover (front)</property>
  <property name="meta.attr.TITLE.markup">Rachel</property>
  <property name="meta.attr.Album.markup">Ninja Gaiden Original Sound Trax (Disc A)</property>
  <property name="meta.attr.COMPOSER.markup">Wakana Hara</property>
  <property name="meta.attr.Artist.markup">Team Ninja</property>
  <property name="meta.attr.Comment.markup">Ripped by Deuce</property>
  <property name="meta.attr.Genre.markup">Game</property>
  <property name="meta.attr.DATE.markup">2004</property>
  <property name="meta.attr.track.markup">15</property>
  <property name="meta.media.sample_aspect_num">7873</property>
  <property name="meta.media.sample_aspect_den">7873</property>
  <property name="xml">was here</property>
  <property name="mute_on_pause">0</property>
  <property name="set.test_audio">0</property>
  <property name="set.test_image">1</property>
 </chain>
 <chain id="chain6" out="00:01:08.091">
  <property name="length">1633</property>
  <property name="eof">pause</property>
  <property name="resource">ost/ng1ost/[Team Ninja]-113-Muramasa.flac</property>
  <property name="mlt_service">avformat-novalidate</property>
  <property name="seekable">1</property>
  <property name="audio_index">0</property>
  <property name="video_index">-1</property>
  <property name="astream">0</property>
  <property name="vstream">-1</property>
  <property name="kdenlive:folderid">20</property>
  <property name="kdenlive:id">27</property>
  <property name="kdenlive:control_uuid">{e2aa93e1-6899-4e12-8d5d-2f8510d3048b}</property>
  <property name="kdenlive:clip_type">1</property>
  <property name="kdenlive:file_size">7479917</property>
  <property name="kdenlive:file_hash">808f22d0d5e72d92da2c6848cee57ab4</property>
  <property name="kdenlive:monitorPosition">97</property>
  <property name="meta.media.nb_streams">2</property>
  <property name="meta.media.0.stream.type">audio</property>
  <property name="meta.media.0.codec.sample_fmt">s16</property>
  <property name="meta.media.0.codec.sample_rate">44100</property>
  <property name="meta.media.0.codec.channels">2</property>
  <property name="meta.media.0.codec.layout">stereo</property>
  <property name="meta.media.0.codec.name">flac</property>
  <property name="meta.media.0.codec.long_name">FLAC (Free Lossless Audio Codec)</property>
  <property name="meta.media.0.codec.bit_rate">0</property>
  <property name="meta.media.1.stream.type">video</property>
  <property name="meta.media.1.stream.frame_rate">90000</property>
  <property name="meta.media.1.stream.sample_aspect_ratio">0</property>
  <property name="meta.media.1.codec.width">500</property>
  <property name="meta.media.1.codec.height">500</property>
  <property name="meta.media.1.codec.rotate">0</property>
  <property name="meta.media.1.codec.pix_fmt">rgb24</property>
  <property name="meta.media.1.codec.sample_aspect_ratio">1</property>
  <property name="meta.media.1.codec.colorspace">0</property>
  <property name="meta.media.1.codec.color_trc">4</property>
  <property name="meta.media.1.codec.name">png</property>
  <property name="meta.media.1.codec.long_name">PNG (Portable Network Graphics) image</property>
  <property name="meta.media.1.codec.bit_rate">0</property>
  <property name="meta.attr.1.stream.comment.markup">Cover (front)</property>
  <property name="meta.attr.TITLE.markup">Muramasa</property>
  <property name="meta.attr.Album.markup">Ninja Gaiden Original Sound Trax (Disc A)</property>
  <property name="meta.attr.COMPOSER.markup">Ryo Koike</property>
  <property name="meta.attr.Artist.markup">Team Ninja</property>
  <property name="meta.attr.Comment.markup">Ripped by Deuce</property>
  <property name="meta.attr.Genre.markup">Game</property>
  <property name="meta.attr.DATE.markup">2004</property>
  <property name="meta.attr.track.markup">13</property>
  <property name="meta.media.sample_aspect_num">7873</property>
  <property name="meta.media.sample_aspect_den">7873</property>
  <property name="xml">was here</property>
  <property name="mute_on_pause">0</property>
  <property name="set.test_audio">0</property>
  <property name="set.test_image">1</property>
 </chain>
 <chain id="chain7" out="00:02:09.134">
  <property name="length">3097</property>
  <property name="eof">pause</property>
  <property name="resource">ost/ng1ost/[Team Ninja]-128-Village (Bonus Track).flac</property>
  <property name="mlt_service">avformat-novalidate</property>
  <property name="seekable">1</property>
  <property name="audio_index">0</property>
  <property name="video_index">-1</property>
  <property name="astream">0</property>
  <property name="vstream">-1</property>
  <property name="kdenlive:folderid">20</property>
  <property name="kdenlive:id">42</property>
  <property name="kdenlive:control_uuid">{ac32a98d-1d7a-4b3e-a5d8-66eeb70af96c}</property>
  <property name="kdenlive:clip_type">1</property>
  <property name="kdenlive:file_size">13010197</property>
  <property name="kdenlive:file_hash">6f285179290fc2e5cbe89d6b586fc661</property>
  <property name="kdenlive:monitorPosition">282</property>
  <property name="meta.media.nb_streams">2</property>
  <property name="meta.media.0.stream.type">audio</property>
  <property name="meta.media.0.codec.sample_fmt">s16</property>
  <property name="meta.media.0.codec.sample_rate">44100</property>
  <property name="meta.media.0.codec.channels">2</property>
  <property name="meta.media.0.codec.layout">stereo</property>
  <property name="meta.media.0.codec.name">flac</property>
  <property name="meta.media.0.codec.long_name">FLAC (Free Lossless Audio Codec)</property>
  <property name="meta.media.0.codec.bit_rate">0</property>
  <property name="meta.media.1.stream.type">video</property>
  <property name="meta.media.1.stream.frame_rate">90000</property>
  <property name="meta.media.1.stream.sample_aspect_ratio">0</property>
  <property name="meta.media.1.codec.width">500</property>
  <property name="meta.media.1.codec.height">500</property>
  <property name="meta.media.1.codec.rotate">0</property>
  <property name="meta.media.1.codec.pix_fmt">rgb24</property>
  <property name="meta.media.1.codec.sample_aspect_ratio">1</property>
  <property name="meta.media.1.codec.colorspace">0</property>
  <property name="meta.media.1.codec.color_trc">4</property>
  <property name="meta.media.1.codec.name">png</property>
  <property name="meta.media.1.codec.long_name">PNG (Portable Network Graphics) image</property>
  <property name="meta.media.1.codec.bit_rate">0</property>
  <property name="meta.attr.1.stream.comment.markup">Cover (front)</property>
  <property name="meta.attr.TITLE.markup">Village (Bonus Track)</property>
  <property name="meta.attr.ALBUM.markup">Ninja Gaiden Original Sound Trax (Disc A)</property>
  <property name="meta.attr.COMPOSER.markup">Makoto Hosoi</property>
  <property name="meta.attr.Artist.markup">Team Ninja</property>
  <property name="meta.attr.Comment.markup">Ripped by Deuce</property>
  <property name="meta.attr.Genre.markup">Game</property>
  <property name="meta.attr.DATE.markup">2004</property>
  <property name="meta.attr.track.markup">28</property>
  <property name="meta.media.sample_aspect_num">7873</property>
  <property name="meta.media.sample_aspect_den">7873</property>
  <property name="xml">was here</property>
  <property name="mute_on_pause">0</property>
  <property name="set.test_audio">0</property>
  <property name="set.test_image">1</property>
 </chain>
 <chain id="chain8" out="00:01:44.086">
  <property name="length">2496</property>
  <property name="eof">pause</property>
  <property name="resource">ost/ng1ost/[Team Ninja]-125-Monastery Destroyed.flac</property>
  <property name="mlt_service">avformat-novalidate</property>
  <property name="seekable">1</property>
  <property name="audio_index">0</property>
  <property name="video_index">-1</property>
  <property name="astream">0</property>
  <property name="vstream">-1</property>
  <property name="kdenlive:folderid">20</property>
  <property name="kdenlive:id">39</property>
  <property name="kdenlive:control_uuid">{685e3f95-6945-43a6-9fe8-8dcf52a69aab}</property>
  <property name="kdenlive:clip_type">1</property>
  <property name="kdenlive:file_size">8650952</property>
  <property name="kdenlive:file_hash">bf866aff05bd3f3e54ae26f390f15942</property>
  <property name="kdenlive:monitorPosition">85</property>
  <property name="meta.media.nb_streams">2</property>
  <property name="meta.media.0.stream.type">audio</property>
  <property name="meta.media.0.codec.sample_fmt">s16</property>
  <property name="meta.media.0.codec.sample_rate">44100</property>
  <property name="meta.media.0.codec.channels">2</property>
  <property name="meta.media.0.codec.layout">stereo</property>
  <property name="meta.media.0.codec.name">flac</property>
  <property name="meta.media.0.codec.long_name">FLAC (Free Lossless Audio Codec)</property>
  <property name="meta.media.0.codec.bit_rate">0</property>
  <property name="meta.media.1.stream.type">video</property>
  <property name="meta.media.1.stream.frame_rate">90000</property>
  <property name="meta.media.1.stream.sample_aspect_ratio">0</property>
  <property name="meta.media.1.codec.width">500</property>
  <property name="meta.media.1.codec.height">500</property>
  <property name="meta.media.1.codec.rotate">0</property>
  <property name="meta.media.1.codec.pix_fmt">rgb24</property>
  <property name="meta.media.1.codec.sample_aspect_ratio">1</property>
  <property name="meta.media.1.codec.colorspace">0</property>
  <property name="meta.media.1.codec.color_trc">4</property>
  <property name="meta.media.1.codec.name">png</property>
  <property name="meta.media.1.codec.long_name">PNG (Portable Network Graphics) image</property>
  <property name="meta.media.1.codec.bit_rate">0</property>
  <property name="meta.attr.1.stream.comment.markup">Cover (front)</property>
  <property name="meta.attr.TITLE.markup">Monastery Destroyed</property>
  <property name="meta.attr.ALBUM.markup">Ninja Gaiden Original Sound Trax (Disc A)</property>
  <property name="meta.attr.COMPOSER.markup">Makoto Hosoi</property>
  <property name="meta.attr.Artist.markup">Team Ninja</property>
  <property name="meta.attr.Comment.markup">Ripped by Deuce</property>
  <property name="meta.attr.Genre.markup">Game</property>
  <property name="meta.attr.DATE.markup">2004</property>
  <property name="meta.attr.track.markup">25</property>
  <property name="meta.media.sample_aspect_num">7873</property>
  <property name="meta.media.sample_aspect_den">7873</property>
  <property name="xml">was here</property>
  <property name="mute_on_pause">0</property>
  <property name="set.test_audio">0</property>
  <property name="set.test_image">1</property>
 </chain>
 <chain id="chain9" out="00:01:41.083">
  <property name="length">2424</property>
  <property name="eof">pause</property>
  <property name="resource">ost/ng1ost/[Team Ninja]-119-Crypt.flac</property>
  <property name="mlt_service">avformat-novalidate</property>
  <property name="seekable">1</property>
  <property name="audio_index">0</property>
  <property name="video_index">-1</property>
  <property name="astream">0</property>
  <property name="vstream">-1</property>
  <property name="kdenlive:folderid">20</property>
  <property name="kdenlive:id">33</property>
  <property name="kdenlive:control_uuid">{45502d08-6915-47b2-a1f1-929a89c584e7}</property>
  <property name="kdenlive:clip_type">1</property>
  <property name="kdenlive:file_size">7384678</property>
  <property name="kdenlive:file_hash">79990a274fa4fc842ec012fcf0a8066d</property>
  <property name="kdenlive:monitorPosition">98</property>
  <property name="meta.media.nb_streams">2</property>
  <property name="meta.media.0.stream.type">audio</property>
  <property name="meta.media.0.codec.sample_fmt">s16</property>
  <property name="meta.media.0.codec.sample_rate">44100</property>
  <property name="meta.media.0.codec.channels">2</property>
  <property name="meta.media.0.codec.layout">stereo</property>
  <property name="meta.media.0.codec.name">flac</property>
  <property name="meta.media.0.codec.long_name">FLAC (Free Lossless Audio Codec)</property>
  <property name="meta.media.0.codec.bit_rate">0</property>
  <property name="meta.media.1.stream.type">video</property>
  <property name="meta.media.1.stream.frame_rate">90000</property>
  <property name="meta.media.1.stream.sample_aspect_ratio">0</property>
  <property name="meta.media.1.codec.width">500</property>
  <property name="meta.media.1.codec.height">500</property>
  <property name="meta.media.1.codec.rotate">0</property>
  <property name="meta.media.1.codec.pix_fmt">rgb24</property>
  <property name="meta.media.1.codec.sample_aspect_ratio">1</property>
  <property name="meta.media.1.codec.colorspace">0</property>
  <property name="meta.media.1.codec.color_trc">4</property>
  <property name="meta.media.1.codec.name">png</property>
  <property name="meta.media.1.codec.long_name">PNG (Portable Network Graphics) image</property>
  <property name="meta.media.1.codec.bit_rate">0</property>
  <property name="meta.attr.1.stream.comment.markup">Cover (front)</property>
  <property name="meta.attr.TITLE.markup">Crypt</property>
  <property name="meta.attr.Album.markup">Ninja Gaiden Original Sound Trax (Disc A)</property>
  <property name="meta.attr.COMPOSER.markup">Wakana Hara</property>
  <property name="meta.attr.Artist.markup">Team Ninja</property>
  <property name="meta.attr.Comment.markup">Ripped by Deuce</property>
  <property name="meta.attr.Genre.markup">Game</property>
  <property name="meta.attr.DATE.markup">2004</property>
  <property name="meta.attr.track.markup">19</property>
  <property name="meta.media.sample_aspect_num">7873</property>
  <property name="meta.media.sample_aspect_den">7873</property>
  <property name="xml">was here</property>
  <property name="mute_on_pause">0</property>
  <property name="set.test_audio">0</property>
  <property name="set.test_image">1</property>
 </chain>
 <chain id="chain10" out="00:02:14.139">
  <property name="length">3217</property>
  <property name="eof">pause</property>
  <property name="resource">ost/ng1ost/[Team Ninja]-127-Warehouse.flac</property>
  <property name="mlt_service">avformat-novalidate</property>
  <property name="seekable">1</property>
  <property name="audio_index">0</property>
  <property name="video_index">-1</property>
  <property name="astream">0</property>
  <property name="vstream">-1</property>
  <property name="kdenlive:folderid">20</property>
  <property name="kdenlive:id">41</property>
  <property name="kdenlive:control_uuid">{2d73fd1e-df91-49b6-87e6-9f6d0a7cdd42}</property>
  <property name="kdenlive:clip_type">1</property>
  <property name="kdenlive:file_size">11003296</property>
  <property name="kdenlive:file_hash">4e6fa1f64c3f2e23f068dbe37f7e0961</property>
  <property name="kdenlive:monitorPosition">398</property>
  <property name="meta.media.nb_streams">2</property>
  <property name="meta.media.0.stream.type">audio</property>
  <property name="meta.media.0.codec.sample_fmt">s16</property>
  <property name="meta.media.0.codec.sample_rate">44100</property>
  <property name="meta.media.0.codec.channels">2</property>
  <property name="meta.media.0.codec.layout">stereo</property>
  <property name="meta.media.0.codec.name">flac</property>
  <property name="meta.media.0.codec.long_name">FLAC (Free Lossless Audio Codec)</property>
  <property name="meta.media.0.codec.bit_rate">0</property>
  <property name="meta.media.1.stream.type">video</property>
  <property name="meta.media.1.stream.frame_rate">90000</property>
  <property name="meta.media.1.stream.sample_aspect_ratio">0</property>
  <property name="meta.media.1.codec.width">500</property>
  <property name="meta.media.1.codec.height">500</property>
  <property name="meta.media.1.codec.rotate">0</property>
  <property name="meta.media.1.codec.pix_fmt">rgb24</property>
  <property name="meta.media.1.codec.sample_aspect_ratio">1</property>
  <property name="meta.media.1.codec.colorspace">0</property>
  <property name="meta.media.1.codec.color_trc">4</property>
  <property name="meta.media.1.codec.name">png</property>
  <property name="meta.media.1.codec.long_name">PNG (Portable Network Graphics) image</property>
  <property name="meta.media.1.codec.bit_rate">0</property>
  <property name="meta.attr.1.stream.comment.markup">Cover (front)</property>
  <property name="meta.attr.TITLE.markup">Warehouse</property>
  <property name="meta.attr.Album.markup">Ninja Gaiden Original Sound Trax (Disc A)</property>
  <property name="meta.attr.COMPOSER.markup">Wakana Hara</property>
  <property name="meta.attr.Artist.markup">Team Ninja</property>
  <property name="meta.attr.Comment.markup">Ripped by Deuce</property>
  <property name="meta.attr.Genre.markup">Game</property>
  <property name="meta.attr.DATE.markup">2004</property>
  <property name="meta.attr.track.markup">27</property>
  <property name="meta.media.sample_aspect_num">7873</property>
  <property name="meta.media.sample_aspect_den">7873</property>
  <property name="xml">was here</property>
  <property name="mute_on_pause">0</property>
  <property name="set.test_audio">0</property>
  <property name="set.test_image">1</property>
 </chain>
 <chain id="chain11" out="00:01:56.098">
  <property name="length">2784</property>
  <property name="eof">pause</property>
  <property name="resource">ost/ng1ost/[Team Ninja]-212-Pyramid.flac</property>
  <property name="mlt_service">avformat-novalidate</property>
  <property name="seekable">1</property>
  <property name="audio_index">0</property>
  <property name="video_index">-1</property>
  <property name="astream">0</property>
  <property name="vstream">-1</property>
  <property name="kdenlive:folderid">20</property>
  <property name="kdenlive:id">52</property>
  <property name="kdenlive:control_uuid">{6f72913c-8367-47e7-ada7-4137b8e9e096}</property>
  <property name="kdenlive:clip_type">1</property>
  <property name="kdenlive:file_size">7256663</property>
  <property name="kdenlive:file_hash">665cbe4a0f34a863fe1d55cd89d7eb4a</property>
  <property name="kdenlive:monitorPosition">1634</property>
  <property name="meta.media.nb_streams">2</property>
  <property name="meta.media.0.stream.type">audio</property>
  <property name="meta.media.0.codec.sample_fmt">s16</property>
  <property name="meta.media.0.codec.sample_rate">44100</property>
  <property name="meta.media.0.codec.channels">2</property>
  <property name="meta.media.0.codec.layout">stereo</property>
  <property name="meta.media.0.codec.name">flac</property>
  <property name="meta.media.0.codec.long_name">FLAC (Free Lossless Audio Codec)</property>
  <property name="meta.media.0.codec.bit_rate">0</property>
  <property name="meta.media.1.stream.type">video</property>
  <property name="meta.media.1.stream.frame_rate">90000</property>
  <property name="meta.media.1.stream.sample_aspect_ratio">0</property>
  <property name="meta.media.1.codec.width">500</property>
  <property name="meta.media.1.codec.height">500</property>
  <property name="meta.media.1.codec.rotate">0</property>
  <property name="meta.media.1.codec.pix_fmt">rgb24</property>
  <property name="meta.media.1.codec.sample_aspect_ratio">1</property>
  <property name="meta.media.1.codec.colorspace">0</property>
  <property name="meta.media.1.codec.color_trc">4</property>
  <property name="meta.media.1.codec.name">png</property>
  <property name="meta.media.1.codec.long_name">PNG (Portable Network Graphics) image</property>
  <property name="meta.media.1.codec.bit_rate">0</property>
  <property name="meta.attr.1.stream.comment.markup">Cover (front)</property>
  <property name="meta.attr.TITLE.markup">Pyramid</property>
  <property name="meta.attr.COMPOSER.markup">Wakana Hara</property>
  <property name="meta.attr.Album.markup">Ninja Gaiden Original Sound Trax (Disc B)</property>
  <property name="meta.attr.Artist.markup">Team Ninja</property>
  <property name="meta.attr.Comment.markup">Ripped by Deuce</property>
  <property name="meta.attr.Genre.markup">Game</property>
  <property name="meta.attr.DATE.markup">2004</property>
  <property name="meta.attr.track.markup">12</property>
  <property name="meta.media.sample_aspect_num">7873</property>
  <property name="meta.media.sample_aspect_den">7873</property>
  <property name="xml">was here</property>
  <property name="mute_on_pause">0</property>
  <property name="set.test_audio">0</property>
  <property name="set.test_image">1</property>
 </chain>
 <chain id="chain12" out="00:02:16.141">
  <property name="length">3265</property>
  <property name="eof">pause</property>
  <property name="resource">ost/ng1ost/[Team Ninja]-216-To a Different World.flac</property>
  <property name="mlt_service">avformat-novalidate</property>
  <property name="seekable">1</property>
  <property name="audio_index">0</property>
  <property name="video_index">-1</property>
  <property name="astream">0</property>
  <property name="vstream">-1</property>
  <property name="kdenlive:folderid">20</property>
  <property name="kdenlive:id">56</property>
  <property name="kdenlive:control_uuid">{cc4b64ab-9446-46cd-8f05-7070ec080f6e}</property>
  <property name="kdenlive:clip_type">1</property>
  <property name="kdenlive:file_size">14561370</property>
  <property name="kdenlive:file_hash">16b782f672dc493b49624e98644ab458</property>
  <property name="kdenlive:monitorPosition">1617</property>
  <property name="meta.media.nb_streams">2</property>
  <property name="meta.media.0.stream.type">audio</property>
  <property name="meta.media.0.codec.sample_fmt">s16</property>
  <property name="meta.media.0.codec.sample_rate">44100</property>
  <property name="meta.media.0.codec.channels">2</property>
  <property name="meta.media.0.codec.layout">stereo</property>
  <property name="meta.media.0.codec.name">flac</property>
  <property name="meta.media.0.codec.long_name">FLAC (Free Lossless Audio Codec)</property>
  <property name="meta.media.0.codec.bit_rate">0</property>
  <property name="meta.media.1.stream.type">video</property>
  <property name="meta.media.1.stream.frame_rate">90000</property>
  <property name="meta.media.1.stream.sample_aspect_ratio">0</property>
  <property name="meta.media.1.codec.width">500</property>
  <property name="meta.media.1.codec.height">500</property>
  <property name="meta.media.1.codec.rotate">0</property>
  <property name="meta.media.1.codec.pix_fmt">rgb24</property>
  <property name="meta.media.1.codec.sample_aspect_ratio">1</property>
  <property name="meta.media.1.codec.colorspace">0</property>
  <property name="meta.media.1.codec.color_trc">4</property>
  <property name="meta.media.1.codec.name">png</property>
  <property name="meta.media.1.codec.long_name">PNG (Portable Network Graphics) image</property>
  <property name="meta.media.1.codec.bit_rate">0</property>
  <property name="meta.attr.1.stream.comment.markup">Cover (front)</property>
  <property name="meta.attr.TITLE.markup">To a Different World</property>
  <property name="meta.attr.COMPOSER.markup">Ryo Koike</property>
  <property name="meta.attr.Album.markup">Ninja Gaiden Original Sound Trax (Disc B)</property>
  <property name="meta.attr.Artist.markup">Team Ninja</property>
  <property name="meta.attr.Comment.markup">Ripped by Deuce</property>
  <property name="meta.attr.Genre.markup">Game</property>
  <property name="meta.attr.DATE.markup">2004</property>
  <property name="meta.attr.track.markup">16</property>
  <property name="meta.media.sample_aspect_num">7873</property>
  <property name="meta.media.sample_aspect_den">7873</property>
  <property name="xml">was here</property>
  <property name="mute_on_pause">0</property>
  <property name="set.test_audio">0</property>
  <property name="set.test_image">1</property>
 </chain>
 <chain id="chain49" out="00:02:37.162">
  <property name="length">3769</property>
  <property name="eof">pause</property>
  <property name="resource">ost/ng1ost/[Team Ninja]-210-Lyric.flac</property>
  <property name="mlt_service">avformat-novalidate</property>
  <property name="seekable">1</property>
  <property name="audio_index">0</property>
  <property name="video_index">-1</property>
  <property name="astream">0</property>
  <property name="vstream">-1</property>
  <property name="kdenlive:folderid">20</property>
  <property name="kdenlive:id">50</property>
  <property name="kdenlive:control_uuid">{62b541a4-4b9e-41d2-b2df-8a048977154b}</property>
  <property name="kdenlive:clip_type">1</property>
  <property name="kdenlive:file_size">14486749</property>
  <property name="kdenlive:file_hash">c6d59bb45f6863ae5502e0a6d5edadb8</property>
  <property name="kdenlive:monitorPosition">1434</property>
  <property name="meta.media.nb_streams">2</property>
  <property name="meta.media.0.stream.type">audio</property>
  <property name="meta.media.0.codec.sample_fmt">s16</property>
  <property name="meta.media.0.codec.sample_rate">44100</property>
  <property name="meta.media.0.codec.channels">2</property>
  <property name="meta.media.0.codec.layout">stereo</property>
  <property name="meta.media.0.codec.name">flac</property>
  <property name="meta.media.0.codec.long_name">FLAC (Free Lossless Audio Codec)</property>
  <property name="meta.media.0.codec.bit_rate">0</property>
  <property name="meta.media.1.stream.type">video</property>
  <property name="meta.media.1.stream.frame_rate">90000</property>
  <property name="meta.media.1.stream.sample_aspect_ratio">0</property>
  <property name="meta.media.1.codec.width">500</property>
  <property name="meta.media.1.codec.height">500</property>
  <property name="meta.media.1.codec.rotate">0</property>
  <property name="meta.media.1.codec.pix_fmt">rgb24</property>
  <property name="meta.media.1.codec.sample_aspect_ratio">1</property>
  <property name="meta.media.1.codec.colorspace">0</property>
  <property name="meta.media.1.codec.color_trc">4</property>
  <property name="meta.media.1.codec.name">png</property>
  <property name="meta.media.1.codec.long_name">PNG (Portable Network Graphics) image</property>
  <property name="meta.media.1.codec.bit_rate">0</property>
  <property name="meta.attr.1.stream.comment.markup">Cover (front)</property>
  <property name="meta.attr.TITLE.markup">Lyric</property>
  <property name="meta.attr.COMPOSER.markup">Makoto Hosoi</property>
  <property name="meta.attr.Album.markup">Ninja Gaiden Original Sound Trax (Disc B)</property>
  <property name="meta.attr.Artist.markup">Team Ninja</property>
  <property name="meta.attr.Comment.markup">Ripped by Deuce</property>
  <property name="meta.attr.Genre.markup">Game</property>
  <property name="meta.attr.DATE.markup">2004</property>
  <property name="meta.attr.track.markup">10</property>
  <property name="meta.media.sample_aspect_num">7873</property>
  <property name="meta.media.sample_aspect_den">7873</property>
  <property name="xml">was here</property>
  <property name="mute_on_pause">0</property>
  <property name="set.test_audio">0</property>
  <property name="set.test_image">1</property>
 </chain>
 <chain id="chain50" out="01:31:37.412">
  <property name="length">131806</property>
  <property name="eof">pause</property>
  <property name="resource">N:/Videos/Anime/Ninja Scroll (1993)/Ninja.Scroll.1993.JAPANESE.REPACK.1080p.BluRay.x264.AAC-[YTS.MX].mp4</property>
  <property name="mlt_service">avformat-novalidate</property>
  <property name="seekable">1</property>
  <property name="audio_index">1</property>
  <property name="video_index">0</property>
  <property name="vstream">0</property>
  <property name="astream">0</property>
  <property name="kdenlive:control_uuid">{891a33c5-f56c-4db3-af9d-e5d090f15f81}</property>
  <property name="kdenlive:id">4</property>
  <property name="kdenlive:clip_type">0</property>
  <property name="kdenlive:file_size">1638414332</property>
  <property name="kdenlive:file_hash">60a25d9238b9b13db61df3ca826fbd3b</property>
  <property name="kdenlive:folderid">-1</property>
  <property name="mute_on_pause">0</property>
  <property name="meta.media.nb_streams">2</property>
  <property name="meta.media.0.stream.type">video</property>
  <property name="meta.media.0.stream.frame_rate">23.976</property>
  <property name="meta.media.0.stream.sample_aspect_ratio">1</property>
  <property name="meta.media.0.codec.width">1460</property>
  <property name="meta.media.0.codec.height">1080</property>
  <property name="meta.media.0.codec.rotate">0</property>
  <property name="meta.media.0.codec.pix_fmt">yuv420p</property>
  <property name="meta.media.0.codec.sample_aspect_ratio">1</property>
  <property name="meta.media.0.codec.colorspace">709</property>
  <property name="meta.media.0.codec.color_trc">1</property>
  <property name="meta.media.0.codec.name">h264</property>
  <property name="meta.media.0.codec.long_name">H.264 / AVC / MPEG-4 AVC / MPEG-4 part 10</property>
  <property name="meta.media.0.codec.bit_rate">2249545</property>
  <property name="meta.attr.0.stream.handler_name.markup">VideoHandler</property>
  <property name="meta.attr.0.stream.vendor_id.markup">[0][0][0][0]</property>
  <property name="meta.media.1.stream.type">audio</property>
  <property name="meta.media.1.codec.sample_fmt">fltp</property>
  <property name="meta.media.1.codec.sample_rate">48000</property>
  <property name="meta.media.1.codec.channels">2</property>
  <property name="meta.media.1.codec.layout">stereo</property>
  <property name="meta.media.1.codec.name">aac</property>
  <property name="meta.media.1.codec.long_name">AAC (Advanced Audio Coding)</property>
  <property name="meta.media.1.codec.bit_rate">128343</property>
  <property name="meta.attr.1.stream.handler_name.markup">SoundHandler</property>
  <property name="meta.attr.1.stream.vendor_id.markup">[0][0][0][0]</property>
  <property name="meta.attr.major_brand.markup">isom</property>
  <property name="meta.attr.minor_version.markup">512</property>
  <property name="meta.attr.compatible_brands.markup">isomiso2avc1mp41</property>
  <property name="meta.attr.encoder.markup">Lavf58.67.100</property>
  <property name="meta.media.sample_aspect_num">1</property>
  <property name="meta.media.sample_aspect_den">1</property>
  <property name="meta.media.frame_rate_num">24000</property>
  <property name="meta.media.frame_rate_den">1001</property>
  <property name="meta.media.colorspace">709</property>
  <property name="meta.media.color_trc">1</property>
  <property name="meta.media.has_b_frames">2</property>
  <property name="meta.media.width">1460</property>
  <property name="meta.media.height">1080</property>
  <property name="meta.media.aspect_ratio">1</property>
  <property name="meta.media.color_range">mpeg</property>
  <property name="xml">was here</property>
  <property name="meta.media.top_field_first">0</property>
  <property name="meta.media.progressive">1</property>
  <property name="set.test_audio">0</property>
  <property name="set.test_image">1</property>
 </chain>
 <producer id="producer3" in="00:00:00.000" out="03:03:14.806">
  <property name="length">263612</property>
  <property name="eof">pause</property>
  <property name="resource">0.500000:N:/Videos/Anime/Ninja Scroll (1993)/Ninja.Scroll.1993.JAPANESE.REPACK.1080p.BluRay.x264.AAC-[YTS.MX].mp4</property>
  <property name="aspect_ratio">1</property>
  <property name="meta.media.nb_streams">2</property>
  <property name="meta.media.0.stream.type">video</property>
  <property name="meta.media.0.stream.frame_rate">23.976</property>
  <property name="meta.media.0.stream.sample_aspect_ratio">1</property>
  <property name="meta.media.0.codec.width">1460</property>
  <property name="meta.media.0.codec.height">1080</property>
  <property name="meta.media.0.codec.rotate">0</property>
  <property name="meta.media.0.codec.pix_fmt">yuv420p</property>
  <property name="meta.media.0.codec.sample_aspect_ratio">1</property>
  <property name="meta.media.0.codec.colorspace">709</property>
  <property name="meta.media.0.codec.color_trc">1</property>
  <property name="meta.media.0.codec.name">h264</property>
  <property name="meta.media.0.codec.long_name">H.264 / AVC / MPEG-4 AVC / MPEG-4 part 10</property>
  <property name="meta.media.0.codec.bit_rate">2249545</property>
  <property name="meta.attr.0.stream.handler_name.markup">VideoHandler</property>
  <property name="meta.attr.0.stream.vendor_id.markup">[0][0][0][0]</property>
  <property name="meta.media.1.stream.type">audio</property>
  <property name="meta.media.1.codec.sample_fmt">fltp</property>
  <property name="meta.media.1.codec.sample_rate">48000</property>
  <property name="meta.media.1.codec.channels">2</property>
  <property name="meta.media.1.codec.layout">stereo</property>
  <property name="meta.media.1.codec.name">aac</property>
  <property name="meta.media.1.codec.long_name">AAC (Advanced Audio Coding)</property>
  <property name="meta.media.1.codec.bit_rate">128343</property>
  <property name="meta.attr.1.stream.handler_name.markup">SoundHandler</property>
  <property name="meta.attr.1.stream.vendor_id.markup">[0][0][0][0]</property>
  <property name="meta.attr.major_brand.markup">isom</property>
  <property name="meta.attr.minor_version.markup">512</property>
  <property name="meta.attr.compatible_brands.markup">isomiso2avc1mp41</property>
  <property name="meta.attr.encoder.markup">Lavf58.67.100</property>
  <property name="seekable">1</property>
  <property name="meta.media.sample_aspect_num">1</property>
  <property name="meta.media.sample_aspect_den">1</property>
  <property name="audio_index">1</property>
  <property name="video_index">0</property>
  <property name="warp_speed">0.5</property>
  <property name="warp_resource">N:/Videos/Anime/Ninja Scroll (1993)/Ninja.Scroll.1993.JAPANESE.REPACK.1080p.BluRay.x264.AAC-[YTS.MX].mp4</property>
  <property name="mlt_service">timewarp</property>
  <property name="kdenlive:control_uuid">{891a33c5-f56c-4db3-af9d-e5d090f15f81}</property>
  <property name="vstream">0</property>
  <property name="astream">0</property>
  <property name="set.test_audio">0</property>
  <property name="set.test_image">1</property>
  <property name="kdenlive:id">4</property>
  <property name="warp_pitch">0</property>
  <property name="meta.media.frame_rate_num">24000</property>
  <property name="meta.media.frame_rate_den">1001</property>
  <property name="meta.media.colorspace">709</property>
  <property name="meta.media.color_trc">1</property>
  <property name="meta.media.has_b_frames">2</property>
  <property name="meta.media.width">1460</property>
  <property name="meta.media.height">1080</property>
  <property name="meta.media.aspect_ratio">1</property>
  <property name="meta.media.color_range">mpeg</property>
 </producer>
 <chain id="chain51" out="00:00:32.032">
  <property name="length">769</property>
  <property name="eof">pause</property>
  <property name="resource">ost/ng1ost/[Team Ninja]-222-Chapter Clear.flac</property>
  <property name="mlt_service">avformat-novalidate</property>
  <property name="seekable">1</property>
  <property name="audio_index">0</property>
  <property name="video_index">-1</property>
  <property name="astream">0</property>
  <property name="vstream">-1</property>
  <property name="kdenlive:folderid">20</property>
  <property name="kdenlive:id">62</property>
  <property name="kdenlive:control_uuid">{824e133c-5278-4729-82bf-b545f24c40ef}</property>
  <property name="kdenlive:clip_type">1</property>
  <property name="kdenlive:file_size">3069285</property>
  <property name="kdenlive:file_hash">b38285a635a9987f9df6306fa068508c</property>
  <property name="kdenlive:monitorPosition">108</property>
  <property name="meta.media.nb_streams">2</property>
  <property name="meta.media.0.stream.type">audio</property>
  <property name="meta.media.0.codec.sample_fmt">s16</property>
  <property name="meta.media.0.codec.sample_rate">44100</property>
  <property name="meta.media.0.codec.channels">2</property>
  <property name="meta.media.0.codec.layout">stereo</property>
  <property name="meta.media.0.codec.name">flac</property>
  <property name="meta.media.0.codec.long_name">FLAC (Free Lossless Audio Codec)</property>
  <property name="meta.media.0.codec.bit_rate">0</property>
  <property name="meta.media.1.stream.type">video</property>
  <property name="meta.media.1.stream.frame_rate">90000</property>
  <property name="meta.media.1.stream.sample_aspect_ratio">0</property>
  <property name="meta.media.1.codec.width">500</property>
  <property name="meta.media.1.codec.height">500</property>
  <property name="meta.media.1.codec.rotate">0</property>
  <property name="meta.media.1.codec.pix_fmt">rgb24</property>
  <property name="meta.media.1.codec.sample_aspect_ratio">1</property>
  <property name="meta.media.1.codec.colorspace">0</property>
  <property name="meta.media.1.codec.color_trc">4</property>
  <property name="meta.media.1.codec.name">png</property>
  <property name="meta.media.1.codec.long_name">PNG (Portable Network Graphics) image</property>
  <property name="meta.media.1.codec.bit_rate">0</property>
  <property name="meta.attr.1.stream.comment.markup">Cover (front)</property>
  <property name="meta.attr.TITLE.markup">Chapter Clear</property>
  <property name="meta.attr.COMPOSER.markup">Ryo Koike</property>
  <property name="meta.attr.Album.markup">Ninja Gaiden Original Sound Trax (Disc B)</property>
  <property name="meta.attr.Artist.markup">Team Ninja</property>
  <property name="meta.attr.Comment.markup">Ripped by Deuce</property>
  <property name="meta.attr.Genre.markup">Game</property>
  <property name="meta.attr.DATE.markup">2004</property>
  <property name="meta.attr.track.markup">22</property>
  <property name="meta.media.sample_aspect_num">7873</property>
  <property name="meta.media.sample_aspect_den">7873</property>
  <property name="xml">was here</property>
  <property name="mute_on_pause">0</property>
  <property name="set.test_audio">0</property>
  <property name="set.test_image">1</property>
 </chain>
 <producer id="producer2" in="00:00:00.000" out="03:03:14.806">
  <property name="length">263612</property>
  <property name="eof">pause</property>
  <property name="resource">0.500000:N:/Videos/Anime/Ninja Scroll (1993)/Ninja.Scroll.1993.JAPANESE.REPACK.1080p.BluRay.x264.AAC-[YTS.MX].mp4</property>
  <property name="aspect_ratio">1</property>
  <property name="meta.media.nb_streams">2</property>
  <property name="meta.media.0.stream.type">video</property>
  <property name="meta.media.0.stream.frame_rate">23.976</property>
  <property name="meta.media.0.stream.sample_aspect_ratio">1</property>
  <property name="meta.media.0.codec.width">1460</property>
  <property name="meta.media.0.codec.height">1080</property>
  <property name="meta.media.0.codec.rotate">0</property>
  <property name="meta.media.0.codec.pix_fmt">yuv420p</property>
  <property name="meta.media.0.codec.sample_aspect_ratio">1</property>
  <property name="meta.media.0.codec.colorspace">709</property>
  <property name="meta.media.0.codec.color_trc">1</property>
  <property name="meta.media.0.codec.name">h264</property>
  <property name="meta.media.0.codec.long_name">H.264 / AVC / MPEG-4 AVC / MPEG-4 part 10</property>
  <property name="meta.media.0.codec.bit_rate">2249545</property>
  <property name="meta.attr.0.stream.handler_name.markup">VideoHandler</property>
  <property name="meta.attr.0.stream.vendor_id.markup">[0][0][0][0]</property>
  <property name="meta.media.1.stream.type">audio</property>
  <property name="meta.media.1.codec.sample_fmt">fltp</property>
  <property name="meta.media.1.codec.sample_rate">48000</property>
  <property name="meta.media.1.codec.channels">2</property>
  <property name="meta.media.1.codec.layout">stereo</property>
  <property name="meta.media.1.codec.name">aac</property>
  <property name="meta.media.1.codec.long_name">AAC (Advanced Audio Coding)</property>
  <property name="meta.media.1.codec.bit_rate">128343</property>
  <property name="meta.attr.1.stream.handler_name.markup">SoundHandler</property>
  <property name="meta.attr.1.stream.vendor_id.markup">[0][0][0][0]</property>
  <property name="meta.attr.major_brand.markup">isom</property>
  <property name="meta.attr.minor_version.markup">512</property>
  <property name="meta.attr.compatible_brands.markup">isomiso2avc1mp41</property>
  <property name="meta.attr.encoder.markup">Lavf58.67.100</property>
  <property name="seekable">1</property>
  <property name="meta.media.sample_aspect_num">1</property>
  <property name="meta.media.sample_aspect_den">1</property>
  <property name="audio_index">1</property>
  <property name="video_index">0</property>
  <property name="warp_speed">0.5</property>
  <property name="warp_resource">N:/Videos/Anime/Ninja Scroll (1993)/Ninja.Scroll.1993.JAPANESE.REPACK.1080p.BluRay.x264.AAC-[YTS.MX].mp4</property>
  <property name="mlt_service">timewarp</property>
  <property name="kdenlive:control_uuid">{891a33c5-f56c-4db3-af9d-e5d090f15f81}</property>
  <property name="vstream">0</property>
  <property name="astream">0</property>
  <property name="set.test_audio">0</property>
  <property name="set.test_image">1</property>
  <property name="kdenlive:id">4</property>
  <property name="warp_pitch">0</property>
  <property name="meta.media.frame_rate_num">24000</property>
  <property name="meta.media.frame_rate_den">1001</property>
  <property name="meta.media.colorspace">709</property>
  <property name="meta.media.color_trc">1</property>
  <property name="meta.media.has_b_frames">2</property>
  <property name="meta.media.width">1460</property>
  <property name="meta.media.height">1080</property>
  <property name="meta.media.aspect_ratio">1</property>
  <property name="meta.media.color_range">mpeg</property>
 </producer>
 <chain id="chain52" out="00:02:38.121">
  <property name="length">3792</property>
  <property name="eof">pause</property>
  <property name="resource">ost/ng1ost/[Team Ninja]-201-Supply Base.flac</property>
  <property name="mlt_service">avformat-novalidate</property>
  <property name="seekable">1</property>
  <property name="audio_index">0</property>
  <property name="video_index">-1</property>
  <property name="astream">0</property>
  <property name="vstream">-1</property>
  <property name="kdenlive:folderid">20</property>
  <property name="kdenlive:id">63</property>
  <property name="kdenlive:control_uuid">{a9c0e2f5-b7c5-43cb-9618-d5839833ec96}</property>
  <property name="kdenlive:clip_type">1</property>
  <property name="kdenlive:file_size">18206945</property>
  <property name="kdenlive:file_hash">61ee474051071486ddb4813ef56ac65e</property>
  <property name="kdenlive:monitorPosition">2525</property>
  <property name="meta.media.nb_streams">2</property>
  <property name="meta.media.0.stream.type">audio</property>
  <property name="meta.media.0.codec.sample_fmt">s16</property>
  <property name="meta.media.0.codec.sample_rate">44100</property>
  <property name="meta.media.0.codec.channels">2</property>
  <property name="meta.media.0.codec.layout">stereo</property>
  <property name="meta.media.0.codec.name">flac</property>
  <property name="meta.media.0.codec.long_name">FLAC (Free Lossless Audio Codec)</property>
  <property name="meta.media.0.codec.bit_rate">0</property>
  <property name="meta.media.1.stream.type">video</property>
  <property name="meta.media.1.stream.frame_rate">90000</property>
  <property name="meta.media.1.stream.sample_aspect_ratio">0</property>
  <property name="meta.media.1.codec.width">500</property>
  <property name="meta.media.1.codec.height">500</property>
  <property name="meta.media.1.codec.rotate">0</property>
  <property name="meta.media.1.codec.pix_fmt">rgb24</property>
  <property name="meta.media.1.codec.sample_aspect_ratio">1</property>
  <property name="meta.media.1.codec.colorspace">0</property>
  <property name="meta.media.1.codec.color_trc">4</property>
  <property name="meta.media.1.codec.name">png</property>
  <property name="meta.media.1.codec.long_name">PNG (Portable Network Graphics) image</property>
  <property name="meta.media.1.codec.bit_rate">0</property>
  <property name="meta.attr.1.stream.comment.markup">Cover (front)</property>
  <property name="meta.attr.TITLE.markup">Supply Base</property>
  <property name="meta.attr.COMPOSER.markup">Ryo Koike</property>
  <property name="meta.attr.Album.markup">Ninja Gaiden Original Sound Trax (Disc B)</property>
  <property name="meta.attr.Artist.markup">Team Ninja</property>
  <property name="meta.attr.Comment.markup">Ripped by Deuce</property>
  <property name="meta.attr.Genre.markup">Game</property>
  <property name="meta.attr.DATE.markup">2004</property>
  <property name="meta.attr.track.markup">01</property>
  <property name="meta.media.sample_aspect_num">7873</property>
  <property name="meta.media.sample_aspect_den">7873</property>
  <property name="xml">was here</property>
  <property name="mute_on_pause">0</property>
  <property name="set.test_audio">0</property>
  <property name="set.test_image">1</property>
 </chain>
 <chain id="chain53" out="00:02:13.138">
  <property name="length">3193</property>
  <property name="eof">pause</property>
  <property name="resource">ost/ng1ost/[Team Ninja]-214-Nightmare.flac</property>
  <property name="mlt_service">avformat-novalidate</property>
  <property name="seekable">1</property>
  <property name="audio_index">0</property>
  <property name="video_index">-1</property>
  <property name="astream">0</property>
  <property name="vstream">-1</property>
  <property name="kdenlive:folderid">20</property>
  <property name="kdenlive:id">54</property>
  <property name="kdenlive:control_uuid">{9d846e78-330c-41d6-954d-0e445b65160e}</property>
  <property name="kdenlive:clip_type">1</property>
  <property name="kdenlive:file_size">13886387</property>
  <property name="kdenlive:file_hash">a1452b2faa2890a6cf8728928092e0ef</property>
  <property name="kdenlive:monitorPosition">1576</property>
  <property name="meta.media.nb_streams">2</property>
  <property name="meta.media.0.stream.type">audio</property>
  <property name="meta.media.0.codec.sample_fmt">s16</property>
  <property name="meta.media.0.codec.sample_rate">44100</property>
  <property name="meta.media.0.codec.channels">2</property>
  <property name="meta.media.0.codec.layout">stereo</property>
  <property name="meta.media.0.codec.name">flac</property>
  <property name="meta.media.0.codec.long_name">FLAC (Free Lossless Audio Codec)</property>
  <property name="meta.media.0.codec.bit_rate">0</property>
  <property name="meta.media.1.stream.type">video</property>
  <property name="meta.media.1.stream.frame_rate">90000</property>
  <property name="meta.media.1.stream.sample_aspect_ratio">0</property>
  <property name="meta.media.1.codec.width">500</property>
  <property name="meta.media.1.codec.height">500</property>
  <property name="meta.media.1.codec.rotate">0</property>
  <property name="meta.media.1.codec.pix_fmt">rgb24</property>
  <property name="meta.media.1.codec.sample_aspect_ratio">1</property>
  <property name="meta.media.1.codec.colorspace">0</property>
  <property name="meta.media.1.codec.color_trc">4</property>
  <property name="meta.media.1.codec.name">png</property>
  <property name="meta.media.1.codec.long_name">PNG (Portable Network Graphics) image</property>
  <property name="meta.media.1.codec.bit_rate">0</property>
  <property name="meta.attr.1.stream.comment.markup">Cover (front)</property>
  <property name="meta.attr.TITLE.markup">Nightmare</property>
  <property name="meta.attr.COMPOSER.markup">Makoto Hosoi</property>
  <property name="meta.attr.Album.markup">Ninja Gaiden Original Sound Trax (Disc B)</property>
  <property name="meta.attr.Artist.markup">Team Ninja</property>
  <property name="meta.attr.Comment.markup">Ripped by Deuce</property>
  <property name="meta.attr.Genre.markup">Game</property>
  <property name="meta.attr.DATE.markup">2004</property>
  <property name="meta.attr.track.markup">14</property>
  <property name="meta.media.sample_aspect_num">7873</property>
  <property name="meta.media.sample_aspect_den">7873</property>
  <property name="xml">was here</property>
  <property name="mute_on_pause">0</property>
  <property name="set.test_audio">0</property>
  <property name="set.test_image">1</property>
 </chain>
 <chain id="chain54" out="00:01:35.118">
  <property name="length">2281</property>
  <property name="eof">pause</property>
  <property name="resource">ost/ng1ost/[Team Ninja]-106-Annoyances.flac</property>
  <property name="mlt_service">avformat-novalidate</property>
  <property name="seekable">1</property>
  <property name="audio_index">0</property>
  <property name="video_index">-1</property>
  <property name="astream">0</property>
  <property name="vstream">-1</property>
  <property name="kdenlive:folderid">20</property>
  <property name="kdenlive:id">19</property>
  <property name="kdenlive:control_uuid">{2b0a694a-af9a-48e5-a240-c250e6d4b3e7}</property>
  <property name="kdenlive:clip_type">1</property>
  <property name="kdenlive:file_size">11272049</property>
  <property name="kdenlive:file_hash">3159b5ae19f21a1f94cfdd40c165c326</property>
  <property name="kdenlive:monitorPosition">318</property>
  <property name="meta.media.nb_streams">2</property>
  <property name="meta.media.0.stream.type">audio</property>
  <property name="meta.media.0.codec.sample_fmt">s16</property>
  <property name="meta.media.0.codec.sample_rate">44100</property>
  <property name="meta.media.0.codec.channels">2</property>
  <property name="meta.media.0.codec.layout">stereo</property>
  <property name="meta.media.0.codec.name">flac</property>
  <property name="meta.media.0.codec.long_name">FLAC (Free Lossless Audio Codec)</property>
  <property name="meta.media.0.codec.bit_rate">0</property>
  <property name="meta.media.1.stream.type">video</property>
  <property name="meta.media.1.stream.frame_rate">90000</property>
  <property name="meta.media.1.stream.sample_aspect_ratio">0</property>
  <property name="meta.media.1.codec.width">500</property>
  <property name="meta.media.1.codec.height">500</property>
  <property name="meta.media.1.codec.rotate">0</property>
  <property name="meta.media.1.codec.pix_fmt">rgb24</property>
  <property name="meta.media.1.codec.sample_aspect_ratio">1</property>
  <property name="meta.media.1.codec.colorspace">0</property>
  <property name="meta.media.1.codec.color_trc">4</property>
  <property name="meta.media.1.codec.name">png</property>
  <property name="meta.media.1.codec.long_name">PNG (Portable Network Graphics) image</property>
  <property name="meta.media.1.codec.bit_rate">0</property>
  <property name="meta.attr.1.stream.comment.markup">Cover (front)</property>
  <property name="meta.attr.TITLE.markup">Annoyances</property>
  <property name="meta.attr.Album.markup">Ninja Gaiden Original Sound Trax (Disc A)</property>
  <property name="meta.attr.COMPOSER.markup">Wakana Hara</property>
  <property name="meta.attr.Artist.markup">Team Ninja</property>
  <property name="meta.attr.Comment.markup">Ripped by Deuce</property>
  <property name="meta.attr.Genre.markup">Game</property>
  <property name="meta.attr.DATE.markup">2004</property>
  <property name="meta.attr.track.markup">06</property>
  <property name="meta.media.sample_aspect_num">7873</property>
  <property name="meta.media.sample_aspect_den">7873</property>
  <property name="xml">was here</property>
  <property name="mute_on_pause">0</property>
  <property name="set.test_audio">0</property>
  <property name="set.test_image">1</property>
 </chain>
 <chain id="chain55" out="00:01:28.111">
  <property name="length">2113</property>
  <property name="eof">pause</property>
  <property name="resource">ost/ng1ost/[Team Ninja]-220-After the Battle.flac</property>
  <property name="mlt_service">avformat-novalidate</property>
  <property name="seekable">1</property>
  <property name="audio_index">0</property>
  <property name="video_index">-1</property>
  <property name="astream">0</property>
  <property name="vstream">-1</property>
  <property name="kdenlive:folderid">20</property>
  <property name="kdenlive:id">60</property>
  <property name="kdenlive:control_uuid">{a3915e74-776c-4392-afda-84c98aeb971e}</property>
  <property name="kdenlive:clip_type">1</property>
  <property name="kdenlive:file_size">9636991</property>
  <property name="kdenlive:file_hash">18f1747e3b6a4881ac9f6ab0b4dedc70</property>
  <property name="kdenlive:monitorPosition">807</property>
  <property name="meta.media.nb_streams">2</property>
  <property name="meta.media.0.stream.type">audio</property>
  <property name="meta.media.0.codec.sample_fmt">s16</property>
  <property name="meta.media.0.codec.sample_rate">44100</property>
  <property name="meta.media.0.codec.channels">2</property>
  <property name="meta.media.0.codec.layout">stereo</property>
  <property name="meta.media.0.codec.name">flac</property>
  <property name="meta.media.0.codec.long_name">FLAC (Free Lossless Audio Codec)</property>
  <property name="meta.media.0.codec.bit_rate">0</property>
  <property name="meta.media.1.stream.type">video</property>
  <property name="meta.media.1.stream.frame_rate">90000</property>
  <property name="meta.media.1.stream.sample_aspect_ratio">0</property>
  <property name="meta.media.1.codec.width">500</property>
  <property name="meta.media.1.codec.height">500</property>
  <property name="meta.media.1.codec.rotate">0</property>
  <property name="meta.media.1.codec.pix_fmt">rgb24</property>
  <property name="meta.media.1.codec.sample_aspect_ratio">1</property>
  <property name="meta.media.1.codec.colorspace">0</property>
  <property name="meta.media.1.codec.color_trc">4</property>
  <property name="meta.media.1.codec.name">png</property>
  <property name="meta.media.1.codec.long_name">PNG (Portable Network Graphics) image</property>
  <property name="meta.media.1.codec.bit_rate">0</property>
  <property name="meta.attr.1.stream.comment.markup">Cover (front)</property>
  <property name="meta.attr.TITLE.markup">After the Battle</property>
  <property name="meta.attr.COMPOSER.markup">Ryo Koike</property>
  <property name="meta.attr.Album.markup">Ninja Gaiden Original Sound Trax (Disc B)</property>
  <property name="meta.attr.Artist.markup">Team Ninja</property>
  <property name="meta.attr.Comment.markup">Ripped by Deuce</property>
  <property name="meta.attr.Genre.markup">Game</property>
  <property name="meta.attr.DATE.markup">2004</property>
  <property name="meta.attr.track.markup">20</property>
  <property name="meta.media.sample_aspect_num">7873</property>
  <property name="meta.media.sample_aspect_den">7873</property>
  <property name="xml">was here</property>
  <property name="mute_on_pause">0</property>
  <property name="set.test_audio">0</property>
  <property name="set.test_image">1</property>
 </chain>
 <producer id="producer4" in="00:00:00.000" out="00:05:52.469">
  <property name="length">8452</property>
  <property name="eof">pause</property>
  <property name="resource">0.250000:ost/ng1ost/[Team Ninja]-220-After the Battle.flac</property>
  <property name="aspect_ratio">1</property>
  <property name="meta.media.nb_streams">2</property>
  <property name="meta.media.0.stream.type">audio</property>
  <property name="meta.media.0.codec.sample_fmt">s16</property>
  <property name="meta.media.0.codec.sample_rate">44100</property>
  <property name="meta.media.0.codec.channels">2</property>
  <property name="meta.media.0.codec.layout">stereo</property>
  <property name="meta.media.0.codec.name">flac</property>
  <property name="meta.media.0.codec.long_name">FLAC (Free Lossless Audio Codec)</property>
  <property name="meta.media.0.codec.bit_rate">0</property>
  <property name="meta.media.1.stream.type">video</property>
  <property name="meta.media.1.stream.frame_rate">90000</property>
  <property name="meta.media.1.stream.sample_aspect_ratio">0</property>
  <property name="meta.media.1.codec.width">500</property>
  <property name="meta.media.1.codec.height">500</property>
  <property name="meta.media.1.codec.rotate">0</property>
  <property name="meta.media.1.codec.pix_fmt">rgb24</property>
  <property name="meta.media.1.codec.sample_aspect_ratio">1</property>
  <property name="meta.media.1.codec.colorspace">0</property>
  <property name="meta.media.1.codec.color_trc">4</property>
  <property name="meta.media.1.codec.name">png</property>
  <property name="meta.media.1.codec.long_name">PNG (Portable Network Graphics) image</property>
  <property name="meta.media.1.codec.bit_rate">0</property>
  <property name="meta.attr.1.stream.comment.markup">Cover (front)</property>
  <property name="meta.attr.TITLE.markup">After the Battle</property>
  <property name="meta.attr.COMPOSER.markup">Ryo Koike</property>
  <property name="meta.attr.Album.markup">Ninja Gaiden Original Sound Trax (Disc B)</property>
  <property name="meta.attr.Artist.markup">Team Ninja</property>
  <property name="meta.attr.Comment.markup">Ripped by Deuce</property>
  <property name="meta.attr.Genre.markup">Game</property>
  <property name="meta.attr.DATE.markup">2004</property>
  <property name="meta.attr.track.markup">20</property>
  <property name="seekable">1</property>
  <property name="audio_index">0</property>
  <property name="video_index">-1</property>
  <property name="warp_speed">0.25</property>
  <property name="warp_resource">ost/ng1ost/[Team Ninja]-220-After the Battle.flac</property>
  <property name="mlt_service">timewarp</property>
  <property name="kdenlive:control_uuid">{a3915e74-776c-4392-afda-84c98aeb971e}</property>
  <property name="vstream">-1</property>
  <property name="astream">0</property>
  <property name="set.test_audio">0</property>
  <property name="set.test_image">1</property>
  <property name="kdenlive:id">60</property>
  <property name="warp_pitch">0</property>
 </producer>
 <chain id="chain56" out="00:03:20.187">
  <property name="length">4800</property>
  <property name="eof">pause</property>
  <property name="resource">ost/ng1ost/[Team Ninja]-105-Vanished Memories.flac</property>
  <property name="mlt_service">avformat-novalidate</property>
  <property name="seekable">1</property>
  <property name="audio_index">0</property>
  <property name="video_index">-1</property>
  <property name="astream">0</property>
  <property name="vstream">-1</property>
  <property name="kdenlive:folderid">20</property>
  <property name="kdenlive:id">18</property>
  <property name="kdenlive:control_uuid">{9ba8c637-6b2f-4737-927c-72661ebac96b}</property>
  <property name="kdenlive:clip_type">1</property>
  <property name="kdenlive:file_size">22352983</property>
  <property name="kdenlive:file_hash">6a2accc1e603e0f30abe13abde7f278c</property>
  <property name="kdenlive:monitorPosition">206</property>
  <property name="meta.media.nb_streams">2</property>
  <property name="meta.media.0.stream.type">audio</property>
  <property name="meta.media.0.codec.sample_fmt">s16</property>
  <property name="meta.media.0.codec.sample_rate">44100</property>
  <property name="meta.media.0.codec.channels">2</property>
  <property name="meta.media.0.codec.layout">stereo</property>
  <property name="meta.media.0.codec.name">flac</property>
  <property name="meta.media.0.codec.long_name">FLAC (Free Lossless Audio Codec)</property>
  <property name="meta.media.0.codec.bit_rate">0</property>
  <property name="meta.media.1.stream.type">video</property>
  <property name="meta.media.1.stream.frame_rate">90000</property>
  <property name="meta.media.1.stream.sample_aspect_ratio">0</property>
  <property name="meta.media.1.codec.width">500</property>
  <property name="meta.media.1.codec.height">500</property>
  <property name="meta.media.1.codec.rotate">0</property>
  <property name="meta.media.1.codec.pix_fmt">rgb24</property>
  <property name="meta.media.1.codec.sample_aspect_ratio">1</property>
  <property name="meta.media.1.codec.colorspace">0</property>
  <property name="meta.media.1.codec.color_trc">4</property>
  <property name="meta.media.1.codec.name">png</property>
  <property name="meta.media.1.codec.long_name">PNG (Portable Network Graphics) image</property>
  <property name="meta.media.1.codec.bit_rate">0</property>
  <property name="meta.attr.1.stream.comment.markup">Cover (front)</property>
  <property name="meta.attr.TITLE.markup">Vanished Memories</property>
  <property name="meta.attr.ALBUM.markup">Ninja Gaiden Original Sound Trax (Disc A)</property>
  <property name="meta.attr.COMPOSER.markup">Makoto Hosoi</property>
  <property name="meta.attr.Artist.markup">Team Ninja</property>
  <property name="meta.attr.Comment.markup">Ripped by Deuce</property>
  <property name="meta.attr.Genre.markup">Game</property>
  <property name="meta.attr.DATE.markup">2004</property>
  <property name="meta.attr.track.markup">05</property>
  <property name="meta.media.sample_aspect_num">7873</property>
  <property name="meta.media.sample_aspect_den">7873</property>
  <property name="xml">was here</property>
  <property name="mute_on_pause">0</property>
  <property name="set.test_audio">0</property>
  <property name="set.test_image">1</property>
 </chain>
 <playlist id="playlist2">
  <property name="kdenlive:audio_track">1</property>
  <entry in="00:00:00.000" out="00:00:47.923" producer="chain1">
   <property name="kdenlive:id">15</property>
   <property name="kdenlive:activeeffect">1</property>
   <filter id="filter9" in="00:00:44.962" out="00:00:47.923">
    <property name="window">75</property>
    <property name="max_gain">20dB</property>
    <property name="mlt_service">volume</property>
    <property name="kdenlive_id">fadeout</property>
    <property name="gain">1</property>
    <property name="end">0</property>
    <property name="kdenlive:collapsed">0</property>
   </filter>
   <filter id="filter10">
    <property name="window">75</property>
    <property name="max_gain">20dB</property>
    <property name="level">00:00:00.000=-10</property>
    <property name="mlt_service">volume</property>
    <property name="kdenlive_id">volume</property>
    <property name="kdenlive:collapsed">0</property>
   </filter>
  </entry>
  <blank length="00:00:15.015"/>
  <entry in="00:00:00.000" out="00:00:36.453" producer="chain3">
   <property name="kdenlive:id">25</property>
   <filter id="filter11">
    <property name="window">75</property>
    <property name="max_gain">20dB</property>
    <property name="level">00:00:00.000=-21</property>
    <property name="mlt_service">volume</property>
    <property name="kdenlive_id">volume</property>
    <property name="kdenlive:collapsed">0</property>
   </filter>
   <filter id="filter12" in="00:00:23.148" out="00:00:36.453">
    <property name="window">75</property>
    <property name="max_gain">20dB</property>
    <property name="mlt_service">volume</property>
    <property name="kdenlive_id">fadeout</property>
    <property name="gain">1</property>
    <property name="end">0</property>
    <property name="kdenlive:collapsed">0</property>
   </filter>
  </entry>
  <blank length="00:00:28.946"/>
  <entry in="00:00:45.504" out="00:01:35.118" producer="chain1">
   <property name="kdenlive:id">15</property>
   <filter id="filter13">
    <property name="window">75</property>
    <property name="max_gain">20dB</property>
    <property name="level">00:00:45.504=-7</property>
    <property name="mlt_service">volume</property>
    <property name="kdenlive_id">volume</property>
    <property name="kdenlive:collapsed">0</property>
   </filter>
   <filter id="filter14" in="00:00:45.504" out="00:00:50.425">
    <property name="window">75</property>
    <property name="max_gain">20dB</property>
    <property name="mlt_service">volume</property>
    <property name="kdenlive_id">fadein</property>
    <property name="gain">0</property>
    <property name="end">1</property>
    <property name="kdenlive:collapsed">0</property>
   </filter>
   <filter id="filter15" in="00:01:34.326" out="00:01:35.118">
    <property name="window">75</property>
    <property name="max_gain">20dB</property>
    <property name="mlt_service">volume</property>
    <property name="kdenlive_id">fadeout</property>
    <property name="gain">1</property>
    <property name="end">0</property>
    <property name="kdenlive:collapsed">0</property>
   </filter>
  </entry>
  <blank length="00:01:13.680"/>
  <entry in="00:00:00.000" out="00:00:37.329" producer="chain4">
   <property name="kdenlive:id">16</property>
   <filter id="filter16">
    <property name="window">75</property>
    <property name="max_gain">20dB</property>
    <property name="level">00:00:00.000=-10;00:00:21.939=-41.9476;00:00:37.329=-100</property>
    <property name="mlt_service">volume</property>
    <property name="kdenlive_id">volume</property>
    <property name="kdenlive:collapsed">0</property>
   </filter>
  </entry>
  <blank length="00:01:21.647"/>
  <entry in="00:00:00.000" out="00:01:04.838" producer="chain5">
   <property name="kdenlive:id">29</property>
   <filter id="filter17">
    <property name="window">75</property>
    <property name="max_gain">20dB</property>
    <property name="level">00:00:00.000=-25</property>
    <property name="mlt_service">volume</property>
    <property name="kdenlive_id">volume</property>
    <property name="kdenlive:collapsed">0</property>
   </filter>
   <filter id="filter18" out="00:00:18.435">
    <property name="window">75</property>
    <property name="max_gain">20dB</property>
    <property name="mlt_service">volume</property>
    <property name="kdenlive_id">fadein</property>
    <property name="gain">0</property>
    <property name="end">1</property>
    <property name="kdenlive:collapsed">0</property>
   </filter>
   <filter id="filter19" in="00:01:00.459" out="00:01:04.838">
    <property name="window">75</property>
    <property name="max_gain">20dB</property>
    <property name="mlt_service">volume</property>
    <property name="kdenlive_id">fadeout</property>
    <property name="gain">1</property>
    <property name="end">0</property>
    <property name="kdenlive:collapsed">0</property>
   </filter>
  </entry>
  <blank length="00:03:42.501"/>
  <entry in="00:00:00.000" out="00:00:53.011" producer="chain6">
   <property name="kdenlive:id">27</property>
   <filter id="filter20">
    <property name="window">75</property>
    <property name="max_gain">20dB</property>
    <property name="level">00:00:00.000=-29</property>
    <property name="mlt_service">volume</property>
    <property name="kdenlive_id">volume</property>
    <property name="kdenlive:collapsed">0</property>
   </filter>
   <filter id="filter21" in="00:00:44.253" out="00:00:53.011">
    <property name="window">75</property>
    <property name="max_gain">20dB</property>
    <property name="mlt_service">volume</property>
    <property name="kdenlive_id">fadeout</property>
    <property name="gain">1</property>
    <property name="end">0</property>
    <property name="kdenlive:collapsed">0</property>
   </filter>
  </entry>
  <blank length="00:02:18.435"/>
  <entry in="00:00:00.000" out="00:01:52.052" producer="chain7">
   <property name="kdenlive:id">42</property>
   <filter id="filter22">
    <property name="window">75</property>
    <property name="max_gain">20dB</property>
    <property name="level">00:00:00.000=-27</property>
    <property name="mlt_service">volume</property>
    <property name="kdenlive_id">volume</property>
    <property name="kdenlive:collapsed">0</property>
   </filter>
   <filter id="filter23" in="00:01:46.380" out="00:01:52.052">
    <property name="window">75</property>
    <property name="max_gain">20dB</property>
    <property name="mlt_service">volume</property>
    <property name="kdenlive_id">fadeout</property>
    <property name="gain">1</property>
    <property name="end">0</property>
    <property name="kdenlive:collapsed">0</property>
   </filter>
  </entry>
  <blank length="00:01:39.748"/>
  <entry in="00:00:00.000" out="00:01:44.086" producer="chain8">
   <property name="kdenlive:id">39</property>
   <filter id="filter24">
    <property name="window">75</property>
    <property name="max_gain">20dB</property>
    <property name="level">00:00:00.000=-30</property>
    <property name="mlt_service">volume</property>
    <property name="kdenlive_id">volume</property>
    <property name="kdenlive:collapsed">0</property>
   </filter>
   <filter id="filter25" in="00:01:20.687" out="00:01:44.086">
    <property name="window">75</property>
    <property name="max_gain">20dB</property>
    <property name="mlt_service">volume</property>
    <property name="kdenlive_id">fadeout</property>
    <property name="gain">1</property>
    <property name="end">0</property>
    <property name="kdenlive:collapsed">0</property>
   </filter>
  </entry>
  <blank length="00:02:42.709"/>
  <entry in="00:00:08.175" out="00:01:41.083" producer="chain9">
   <property name="kdenlive:id">33</property>
   <filter id="filter26">
    <property name="window">75</property>
    <property name="max_gain">20dB</property>
    <property name="level">00:00:08.175=-25</property>
    <property name="mlt_service">volume</property>
    <property name="kdenlive_id">volume</property>
    <property name="kdenlive:collapsed">0</property>
   </filter>
   <filter id="filter27" in="00:00:08.175" out="00:00:20.562">
    <property name="window">75</property>
    <property name="max_gain">20dB</property>
    <property name="mlt_service">volume</property>
    <property name="kdenlive_id">fadein</property>
    <property name="gain">0</property>
    <property name="end">1</property>
    <property name="kdenlive:collapsed">0</property>
   </filter>
  </entry>
  <blank length="00:02:12.596"/>
  <entry in="00:00:00.000" out="00:01:31.615" producer="chain10">
   <property name="kdenlive:id">41</property>
   <filter id="filter28">
    <property name="window">75</property>
    <property name="max_gain">20dB</property>
    <property name="level">00:00:00.000=-20;00:00:59.351=-20;00:01:15.515=-25;00:01:30.781=-25</property>
    <property name="mlt_service">volume</property>
    <property name="kdenlive_id">volume</property>
    <property name="kdenlive:collapsed">0</property>
   </filter>
  </entry>
  <blank length="00:07:25.317"/>
  <entry in="00:00:12.596" out="00:01:15.599" producer="chain11">
   <property name="kdenlive:id">52</property>
   <filter id="filter29">
    <property name="window">75</property>
    <property name="max_gain">20dB</property>
    <property name="level">00:00:12.596=-26</property>
    <property name="mlt_service">volume</property>
    <property name="kdenlive_id">volume</property>
    <property name="kdenlive:collapsed">0</property>
   </filter>
   <filter id="filter30" in="00:00:12.596" out="00:00:18.685">
    <property name="window">75</property>
    <property name="max_gain">20dB</property>
    <property name="mlt_service">volume</property>
    <property name="kdenlive_id">fadein</property>
    <property name="gain">0</property>
    <property name="end">1</property>
    <property name="kdenlive:collapsed">0</property>
   </filter>
   <filter id="filter31" in="00:01:04.713" out="00:01:15.599">
    <property name="window">75</property>
    <property name="max_gain">20dB</property>
    <property name="mlt_service">volume</property>
    <property name="kdenlive_id">fadeout</property>
    <property name="gain">1</property>
    <property name="end">0</property>
    <property name="kdenlive:collapsed">0</property>
   </filter>
  </entry>
  <blank length="00:03:49.883"/>
  <entry in="00:00:00.000" out="00:01:59.977" producer="chain12">
   <property name="kdenlive:id">56</property>
   <filter id="filter32">
    <property name="window">75</property>
    <property name="max_gain">20dB</property>
    <property name="level">00:00:00.000=-24;00:00:32.115=-24;00:00:47.047=-12;00:01:01.251=-30;00:01:19.561=-11;00:01:38.622=-19.3622;00:01:45.629=-9;00:01:51.301=-27;00:01:59.643=-11.2324</property>
    <property name="mlt_service">volume</property>
    <property name="kdenlive_id">volume</property>
    <property name="kdenlive:collapsed">0</property>
   </filter>
   <filter id="filter33" in="00:01:56.640" out="00:01:59.977">
    <property name="window">75</property>
    <property name="max_gain">20dB</property>
    <property name="mlt_service">volume</property>
    <property name="kdenlive_id">fadeout</property>
    <property name="gain">1</property>
    <property name="end">0</property>
    <property name="kdenlive:collapsed">0</property>
   </filter>
  </entry>
  <entry in="00:00:01.501" out="00:01:42.125" producer="chain49">
   <property name="kdenlive:id">50</property>
   <filter id="filter34">
    <property name="window">75</property>
    <property name="max_gain">20dB</property>
    <property name="level">00:00:01.501=-30</property>
    <property name="mlt_service">volume</property>
    <property name="kdenlive_id">volume</property>
    <property name="kdenlive:collapsed">0</property>
   </filter>
   <filter id="filter35" in="00:00:01.501" out="00:00:04.004">
    <property name="window">75</property>
    <property name="max_gain">20dB</property>
    <property name="mlt_service">volume</property>
    <property name="kdenlive_id">fadein</property>
    <property name="gain">0</property>
    <property name="end">1</property>
    <property name="kdenlive:collapsed">0</property>
   </filter>
  </entry>
  <blank length="00:02:17.726"/>
  <entry in="00:00:00.000" out="00:00:51.468" producer="chain6">
   <property name="kdenlive:id">27</property>
   <filter id="filter36">
    <property name="window">75</property>
    <property name="max_gain">20dB</property>
    <property name="level">00:00:00.000=-26</property>
    <property name="mlt_service">volume</property>
    <property name="kdenlive_id">volume</property>
    <property name="kdenlive:collapsed">0</property>
   </filter>
   <filter id="filter37" in="00:00:43.669" out="00:00:51.468">
    <property name="window">75</property>
    <property name="max_gain">20dB</property>
    <property name="mlt_service">volume</property>
    <property name="kdenlive_id">fadeout</property>
    <property name="gain">1</property>
    <property name="end">0</property>
   </filter>
  </entry>
  <blank length="00:01:44.169"/>
  <entry in="00:59:13.305" out="00:59:18.769" producer="chain50">
   <property name="kdenlive:id">4</property>
   <filter id="filter38" in="00:59:13.305" out="00:59:13.513">
    <property name="window">75</property>
    <property name="max_gain">20dB</property>
    <property name="mlt_service">volume</property>
    <property name="kdenlive_id">fadein</property>
    <property name="gain">0</property>
    <property name="end">1</property>
    <property name="kdenlive:collapsed">0</property>
   </filter>
  </entry>
  <blank length="00:05:26.068"/>
  <entry in="02:11:09.968" out="02:11:17.017" producer="producer3">
   <property name="kdenlive:id">4</property>
   <filter id="filter39" in="02:11:09.968" out="02:11:13.805">
    <property name="window">75</property>
    <property name="max_gain">20dB</property>
    <property name="mlt_service">volume</property>
    <property name="kdenlive_id">fadein</property>
    <property name="gain">0</property>
    <property name="end">1</property>
   </filter>
  </entry>
  <blank length="00:06:32.407"/>
  <entry in="00:00:00.000" out="00:00:32.032" producer="chain51">
   <property name="kdenlive:id">62</property>
   <filter id="filter40">
    <property name="window">75</property>
    <property name="max_gain">20dB</property>
    <property name="level">00:00:00.000=-22</property>
    <property name="mlt_service">volume</property>
    <property name="kdenlive_id">volume</property>
    <property name="kdenlive:collapsed">0</property>
   </filter>
   <filter id="filter41" in="00:00:15.807" out="00:00:32.032">
    <property name="window">75</property>
    <property name="max_gain">20dB</property>
    <property name="mlt_service">volume</property>
    <property name="kdenlive_id">fadeout</property>
    <property name="gain">1</property>
    <property name="end">0</property>
   </filter>
  </entry>
  <blank length="00:00:08.592"/>
  <entry in="02:28:39.039" out="02:28:44.002" producer="producer2">
   <property name="kdenlive:id">4</property>
   <filter id="filter42" in="02:28:43.001" out="02:28:44.002">
    <property name="window">75</property>
    <property name="max_gain">20dB</property>
    <property name="mlt_service">volume</property>
    <property name="kdenlive_id">fadeout</property>
    <property name="gain">1</property>
    <property name="end">0</property>
    <property name="kdenlive:collapsed">0</property>
   </filter>
  </entry>
  <blank length="00:06:38.997"/>
  <entry in="00:00:33.784" out="00:02:11.637" producer="chain52">
   <property name="kdenlive:id">63</property>
   <filter id="filter43" in="00:00:33.784" out="00:00:36.286">
    <property name="window">75</property>
    <property name="max_gain">20dB</property>
    <property name="mlt_service">volume</property>
    <property name="kdenlive_id">fadein</property>
    <property name="gain">0</property>
    <property name="end">1</property>
    <property name="kdenlive:collapsed">0</property>
   </filter>
   <filter id="filter44">
    <property name="window">75</property>
    <property name="max_gain">20dB</property>
    <property name="level">00:00:33.784=-7.43961;00:00:35.410=-7;00:00:40.582=-6;00:00:58.267=-6.36056;00:01:11.178=-6;00:01:16.475=-15;00:01:34.326=-14;00:01:39.957=0;00:01:47.631=0;00:01:51.593=-0.666917;00:01:55.013=-13.2127;00:01:57.766=-13.2127;00:02:03.962=-50;00:02:11.470=-50</property>
    <property name="mlt_service">volume</property>
    <property name="kdenlive_id">volume</property>
    <property name="kdenlive:collapsed">0</property>
   </filter>
  </entry>
  <entry in="00:00:55.138" out="00:01:39.206" producer="chain53">
   <property name="kdenlive:id">54</property>
   <filter id="filter45">
    <property name="window">75</property>
    <property name="max_gain">20dB</property>
    <property name="level">00:00:55.138=-10;00:01:11.845=-11.8945;00:01:12.554=-12;00:01:14.181=-15.749;00:01:25.776=-5;00:01:39.206=-49</property>
    <property name="mlt_service">volume</property>
    <property name="kdenlive_id">volume</property>
    <property name="kdenlive:collapsed">0</property>
   </filter>
   <filter id="filter46" in="00:00:55.138" out="00:01:00.918">
    <property name="window">75</property>
    <property name="max_gain">20dB</property>
    <property name="mlt_service">volume</property>
    <property name="kdenlive_id">fadein</property>
    <property name="gain">0</property>
    <property name="end">1</property>
    <property name="kdenlive:collapsed">0</property>
   </filter>
  </entry>
  <blank length="00:00:28.570"/>
  <entry in="00:00:00.000" out="00:01:35.118" producer="chain54">
   <property name="kdenlive:id">19</property>
   <filter id="filter47">
    <property name="window">75</property>
    <property name="max_gain">20dB</property>
    <property name="level">00:00:00.000=-10.8577;00:00:24.983=-9.75039;00:00:25.943=-15;00:00:27.110=-9;00:00:35.869=-8;00:01:01.793=-2;00:01:10.427=-8;00:01:14.014=-13;00:01:19.853=0</property>
    <property name="mlt_service">volume</property>
    <property name="kdenlive_id">volume</property>
    <property name="kdenlive:collapsed">0</property>
   </filter>
  </entry>
  <entry in="00:00:00.000" out="00:00:40.332" producer="chain55">
   <property name="kdenlive:id">60</property>
   <filter id="filter48">
    <property name="window">75</property>
    <property name="max_gain">20dB</property>
    <property name="level">00:00:00.000=-18;00:00:26.235=-15;00:00:40.040=-21</property>
    <property name="mlt_service">volume</property>
    <property name="kdenlive_id">volume</property>
    <property name="kdenlive:collapsed">0</property>
   </filter>
   <filter id="filter49" in="00:00:32.199" out="00:00:40.374">
    <property name="window">75</property>
    <property name="max_gain">20dB</property>
    <property name="mlt_service">volume</property>
    <property name="kdenlive_id">fadeout</property>
    <property name="gain">1</property>
    <property name="end">0</property>
    <property name="kdenlive:collapsed">0</property>
   </filter>
  </entry>
  <entry in="00:02:20.812" out="00:02:59.142" producer="producer4">
   <property name="kdenlive:id">60</property>
   <filter id="filter50">
    <property name="window">75</property>
    <property name="max_gain">20dB</property>
    <property name="level">00:02:20.812=-30</property>
    <property name="mlt_service">volume</property>
    <property name="kdenlive_id">volume</property>
    <property name="kdenlive:collapsed">0</property>
   </filter>
   <filter id="filter51" in="00:02:47.589" out="00:02:59.142">
    <property name="window">75</property>
    <property name="max_gain">20dB</property>
    <property name="mlt_service">volume</property>
    <property name="kdenlive_id">fadeout</property>
    <property name="gain">1</property>
    <property name="end">0</property>
    <property name="kdenlive:collapsed">0</property>
   </filter>
   <filter id="filter52" in="00:02:20.812" out="00:02:23.440">
    <property name="window">75</property>
    <property name="max_gain">20dB</property>
    <property name="mlt_service">volume</property>
    <property name="kdenlive_id">fadein</property>
    <property name="gain">0</property>
    <property name="end">1</property>
    <property name="kdenlive:collapsed">0</property>
   </filter>
  </entry>
  <blank length="00:00:55.973"/>
  <entry in="00:00:00.000" out="00:03:20.187" producer="chain56">
   <property name="kdenlive:id">18</property>
   <filter id="filter53">
    <property name="window">75</property>
    <property name="max_gain">20dB</property>
    <property name="level">00:00:00.000=-12</property>
    <property name="mlt_service">volume</property>
    <property name="kdenlive_id">volume</property>
    <property name="kdenlive:collapsed">0</property>
   </filter>
  </entry>
 </playlist>
 <chain id="chain57" out="00:02:14.139">
  <property name="length">3217</property>
  <property name="eof">pause</property>
  <property name="resource">ost/ng1ost/[Team Ninja]-127-Warehouse.flac</property>
  <property name="mlt_service">avformat-novalidate</property>
  <property name="seekable">1</property>
  <property name="audio_index">0</property>
  <property name="video_index">-1</property>
  <property name="astream">0</property>
  <property name="vstream">-1</property>
  <property name="kdenlive:folderid">20</property>
  <property name="kdenlive:id">41</property>
  <property name="kdenlive:control_uuid">{2d73fd1e-df91-49b6-87e6-9f6d0a7cdd42}</property>
  <property name="kdenlive:clip_type">1</property>
  <property name="kdenlive:file_size">11003296</property>
  <property name="kdenlive:file_hash">4e6fa1f64c3f2e23f068dbe37f7e0961</property>
  <property name="kdenlive:monitorPosition">398</property>
  <property name="meta.media.nb_streams">2</property>
  <property name="meta.media.0.stream.type">audio</property>
  <property name="meta.media.0.codec.sample_fmt">s16</property>
  <property name="meta.media.0.codec.sample_rate">44100</property>
  <property name="meta.media.0.codec.channels">2</property>
  <property name="meta.media.0.codec.layout">stereo</property>
  <property name="meta.media.0.codec.name">flac</property>
  <property name="meta.media.0.codec.long_name">FLAC (Free Lossless Audio Codec)</property>
  <property name="meta.media.0.codec.bit_rate">0</property>
  <property name="meta.media.1.stream.type">video</property>
  <property name="meta.media.1.stream.frame_rate">90000</property>
  <property name="meta.media.1.stream.sample_aspect_ratio">0</property>
  <property name="meta.media.1.codec.width">500</property>
  <property name="meta.media.1.codec.height">500</property>
  <property name="meta.media.1.codec.rotate">0</property>
  <property name="meta.media.1.codec.pix_fmt">rgb24</property>
  <property name="meta.media.1.codec.sample_aspect_ratio">1</property>
  <property name="meta.media.1.codec.colorspace">0</property>
  <property name="meta.media.1.codec.color_trc">4</property>
  <property name="meta.media.1.codec.name">png</property>
  <property name="meta.media.1.codec.long_name">PNG (Portable Network Graphics) image</property>
  <property name="meta.media.1.codec.bit_rate">0</property>
  <property name="meta.attr.1.stream.comment.markup">Cover (front)</property>
  <property name="meta.attr.TITLE.markup">Warehouse</property>
  <property name="meta.attr.Album.markup">Ninja Gaiden Original Sound Trax (Disc A)</property>
  <property name="meta.attr.COMPOSER.markup">Wakana Hara</property>
  <property name="meta.attr.Artist.markup">Team Ninja</property>
  <property name="meta.attr.Comment.markup">Ripped by Deuce</property>
  <property name="meta.attr.Genre.markup">Game</property>
  <property name="meta.attr.DATE.markup">2004</property>
  <property name="meta.attr.track.markup">27</property>
  <property name="meta.media.sample_aspect_num">7873</property>
  <property name="meta.media.sample_aspect_den">7873</property>
  <property name="xml">was here</property>
  <property name="mute_on_pause">0</property>
  <property name="set.test_audio">0</property>
  <property name="set.test_image">1</property>
 </chain>
 <chain id="chain58" out="00:02:37.162">
  <property name="length">3769</property>
  <property name="eof">pause</property>
  <property name="resource">ost/ng1ost/[Team Ninja]-210-Lyric.flac</property>
  <property name="mlt_service">avformat-novalidate</property>
  <property name="seekable">1</property>
  <property name="audio_index">0</property>
  <property name="video_index">-1</property>
  <property name="astream">0</property>
  <property name="vstream">-1</property>
  <property name="kdenlive:folderid">20</property>
  <property name="kdenlive:id">50</property>
  <property name="kdenlive:control_uuid">{62b541a4-4b9e-41d2-b2df-8a048977154b}</property>
  <property name="kdenlive:clip_type">1</property>
  <property name="kdenlive:file_size">14486749</property>
  <property name="kdenlive:file_hash">c6d59bb45f6863ae5502e0a6d5edadb8</property>
  <property name="kdenlive:monitorPosition">1434</property>
  <property name="meta.media.nb_streams">2</property>
  <property name="meta.media.0.stream.type">audio</property>
  <property name="meta.media.0.codec.sample_fmt">s16</property>
  <property name="meta.media.0.codec.sample_rate">44100</property>
  <property name="meta.media.0.codec.channels">2</property>
  <property name="meta.media.0.codec.layout">stereo</property>
  <property name="meta.media.0.codec.name">flac</property>
  <property name="meta.media.0.codec.long_name">FLAC (Free Lossless Audio Codec)</property>
  <property name="meta.media.0.codec.bit_rate">0</property>
  <property name="meta.media.1.stream.type">video</property>
  <property name="meta.media.1.stream.frame_rate">90000</property>
  <property name="meta.media.1.stream.sample_aspect_ratio">0</property>
  <property name="meta.media.1.codec.width">500</property>
  <property name="meta.media.1.codec.height">500</property>
  <property name="meta.media.1.codec.rotate">0</property>
  <property name="meta.media.1.codec.pix_fmt">rgb24</property>
  <property name="meta.media.1.codec.sample_aspect_ratio">1</property>
  <property name="meta.media.1.codec.colorspace">0</property>
  <property name="meta.media.1.codec.color_trc">4</property>
  <property name="meta.media.1.codec.name">png</property>
  <property name="meta.media.1.codec.long_name">PNG (Portable Network Graphics) image</property>
  <property name="meta.media.1.codec.bit_rate">0</property>
  <property name="meta.attr.1.stream.comment.markup">Cover (front)</property>
  <property name="meta.attr.TITLE.markup">Lyric</property>
  <property name="meta.attr.COMPOSER.markup">Makoto Hosoi</property>
  <property name="meta.attr.Album.markup">Ninja Gaiden Original Sound Trax (Disc B)</property>
  <property name="meta.attr.Artist.markup">Team Ninja</property>
  <property name="meta.attr.Comment.markup">Ripped by Deuce</property>
  <property name="meta.attr.Genre.markup">Game</property>
  <property name="meta.attr.DATE.markup">2004</property>
  <property name="meta.attr.track.markup">10</property>
  <property name="meta.media.sample_aspect_num">7873</property>
  <property name="meta.media.sample_aspect_den">7873</property>
  <property name="xml">was here</property>
  <property name="mute_on_pause">0</property>
  <property name="set.test_audio">0</property>
  <property name="set.test_image">1</property>
 </chain>
 <producer id="producer5" in="00:00:00.000" out="03:03:14.806">
  <property name="length">263612</property>
  <property name="eof">pause</property>
  <property name="resource">0.500000:N:/Videos/Anime/Ninja Scroll (1993)/Ninja.Scroll.1993.JAPANESE.REPACK.1080p.BluRay.x264.AAC-[YTS.MX].mp4</property>
  <property name="aspect_ratio">1</property>
  <property name="meta.media.nb_streams">2</property>
  <property name="meta.media.0.stream.type">video</property>
  <property name="meta.media.0.stream.frame_rate">23.976</property>
  <property name="meta.media.0.stream.sample_aspect_ratio">1</property>
  <property name="meta.media.0.codec.width">1460</property>
  <property name="meta.media.0.codec.height">1080</property>
  <property name="meta.media.0.codec.rotate">0</property>
  <property name="meta.media.0.codec.pix_fmt">yuv420p</property>
  <property name="meta.media.0.codec.sample_aspect_ratio">1</property>
  <property name="meta.media.0.codec.colorspace">709</property>
  <property name="meta.media.0.codec.color_trc">1</property>
  <property name="meta.media.0.codec.name">h264</property>
  <property name="meta.media.0.codec.long_name">H.264 / AVC / MPEG-4 AVC / MPEG-4 part 10</property>
  <property name="meta.media.0.codec.bit_rate">2249545</property>
  <property name="meta.attr.0.stream.handler_name.markup">VideoHandler</property>
  <property name="meta.attr.0.stream.vendor_id.markup">[0][0][0][0]</property>
  <property name="meta.media.1.stream.type">audio</property>
  <property name="meta.media.1.codec.sample_fmt">fltp</property>
  <property name="meta.media.1.codec.sample_rate">48000</property>
  <property name="meta.media.1.codec.channels">2</property>
  <property name="meta.media.1.codec.layout">stereo</property>
  <property name="meta.media.1.codec.name">aac</property>
  <property name="meta.media.1.codec.long_name">AAC (Advanced Audio Coding)</property>
  <property name="meta.media.1.codec.bit_rate">128343</property>
  <property name="meta.attr.1.stream.handler_name.markup">SoundHandler</property>
  <property name="meta.attr.1.stream.vendor_id.markup">[0][0][0][0]</property>
  <property name="meta.attr.major_brand.markup">isom</property>
  <property name="meta.attr.minor_version.markup">512</property>
  <property name="meta.attr.compatible_brands.markup">isomiso2avc1mp41</property>
  <property name="meta.attr.encoder.markup">Lavf58.67.100</property>
  <property name="seekable">1</property>
  <property name="meta.media.sample_aspect_num">1</property>
  <property name="meta.media.sample_aspect_den">1</property>
  <property name="audio_index">1</property>
  <property name="video_index">0</property>
  <property name="warp_speed">0.5</property>
  <property name="warp_resource">N:/Videos/Anime/Ninja Scroll (1993)/Ninja.Scroll.1993.JAPANESE.REPACK.1080p.BluRay.x264.AAC-[YTS.MX].mp4</property>
  <property name="mlt_service">timewarp</property>
  <property name="kdenlive:control_uuid">{891a33c5-f56c-4db3-af9d-e5d090f15f81}</property>
  <property name="vstream">0</property>
  <property name="astream">0</property>
  <property name="set.test_audio">0</property>
  <property name="set.test_image">1</property>
  <property name="kdenlive:id">4</property>
  <property name="warp_pitch">0</property>
  <property name="meta.media.frame_rate_num">24000</property>
  <property name="meta.media.frame_rate_den">1001</property>
  <property name="meta.media.colorspace">709</property>
  <property name="meta.media.color_trc">1</property>
  <property name="meta.media.has_b_frames">2</property>
  <property name="meta.media.width">1460</property>
  <property name="meta.media.height">1080</property>
  <property name="meta.media.aspect_ratio">1</property>
  <property name="meta.media.color_range">mpeg</property>
 </producer>
 <playlist id="playlist3">
  <property name="kdenlive:audio_track">1</property>
  <blank length="00:27:24.441"/>
  <entry in="00:01:24.441" out="00:02:12.012" producer="chain57">
   <property name="kdenlive:id">41</property>
   <filter id="filter54">
    <property name="window">75</property>
    <property name="max_gain">20dB</property>
    <property name="level">00:01:24.441=-25;00:01:31.615=-25;00:01:53.303=-30;00:02:07.716=-26;00:02:12.012=-30</property>
    <property name="mlt_service">volume</property>
    <property name="kdenlive_id">volume</property>
    <property name="kdenlive:collapsed">0</property>
   </filter>
  </entry>
  <blank length="00:15:10.594"/>
  <entry in="00:02:16.183" out="00:02:37.162" producer="chain58">
   <property name="kdenlive:id">50</property>
   <filter id="filter55">
    <property name="window">75</property>
    <property name="max_gain">20dB</property>
    <property name="level">00:02:16.183=-30</property>
    <property name="mlt_service">volume</property>
    <property name="kdenlive_id">volume</property>
    <property name="kdenlive:collapsed">0</property>
   </filter>
   <filter id="filter56" in="00:02:20.187" out="00:02:37.162">
    <property name="window">75</property>
    <property name="max_gain">20dB</property>
    <property name="mlt_service">volume</property>
    <property name="kdenlive_id">fadeout</property>
    <property name="gain">1</property>
    <property name="end">0</property>
   </filter>
  </entry>
  <blank length="00:10:11.595"/>
  <entry in="02:11:18.644" out="02:11:29.154" producer="producer5">
   <property name="kdenlive:id">4</property>
   <filter id="filter57" in="02:11:27.152" out="02:11:29.154">
    <property name="window">75</property>
    <property name="max_gain">20dB</property>
    <property name="mlt_service">volume</property>
    <property name="kdenlive_id">fadeout</property>
    <property name="gain">1</property>
    <property name="end">0</property>
   </filter>
  </entry>
 </playlist>
 <tractor id="tractor1" in="00:00:00.000" out="01:17:53.720">
  <property name="kdenlive:audio_track">1</property>
  <property name="kdenlive:trackheight">84</property>
  <property name="kdenlive:timeline_active">1</property>
  <property name="kdenlive:collapsed">0</property>
  <property name="kdenlive:thumbs_format"/>
  <property name="kdenlive:audio_rec"/>
  <track hide="video" producer="playlist2"/>
  <track hide="video" producer="playlist3"/>
  <transition id="transition2" in="00:53:55.264" out="00:53:56.098">
   <property name="a_track">0</property>
   <property name="b_track">1</property>
   <property name="mlt_service">mix</property>
   <property name="kdenlive_id">mix</property>
   <property name="kdenlive:mixcut">0</property>
   <property name="reverse">0</property>
  </transition>
  <transition id="transition1" in="00:43:22.648" out="00:43:24.066">
   <property name="a_track">0</property>
   <property name="b_track">1</property>
   <property name="mlt_service">mix</property>
   <property name="kdenlive_id">mix</property>
   <property name="kdenlive:mixcut">0</property>
   <property name="start">-1</property>
   <property name="accepts_blanks">1</property>
   <property name="reverse">0</property>
  </transition>
  <transition id="transition0" in="00:27:24.441" out="00:27:25.275">
   <property name="a_track">0</property>
   <property name="b_track">1</property>
   <property name="mlt_service">mix</property>
   <property name="kdenlive_id">mix</property>
   <property name="kdenlive:mixcut">20</property>
   <property name="start">-1</property>
   <property name="accepts_blanks">1</property>
   <property name="reverse">0</property>
  </transition>
  <filter id="filter58">
   <property name="window">75</property>
   <property name="max_gain">20dB</property>
   <property name="mlt_service">volume</property>
   <property name="internal_added">237</property>
   <property name="disable">1</property>
  </filter>
  <filter id="filter59">
   <property name="channel">-1</property>
   <property name="mlt_service">panner</property>
   <property name="internal_added">237</property>
   <property name="start">0.5</property>
   <property name="disable">1</property>
  </filter>
  <filter id="filter60">
   <property name="iec_scale">0</property>
   <property name="mlt_service">audiolevel</property>
   <property name="dbpeak">1</property>
   <property name="disable">1</property>
  </filter>
 </tractor>
 <chain id="chain59" out="01:31:37.412">
  <property name="length">131806</property>
  <property name="eof">pause</property>
  <property name="resource">N:/Videos/Anime/Ninja Scroll (1993)/Ninja.Scroll.1993.JAPANESE.REPACK.1080p.BluRay.x264.AAC-[YTS.MX].mp4</property>
  <property name="mlt_service">avformat-novalidate</property>
  <property name="seekable">1</property>
  <property name="audio_index">1</property>
  <property name="video_index">0</property>
  <property name="vstream">0</property>
  <property name="astream">0</property>
  <property name="kdenlive:control_uuid">{891a33c5-f56c-4db3-af9d-e5d090f15f81}</property>
  <property name="kdenlive:id">4</property>
  <property name="kdenlive:clip_type">0</property>
  <property name="kdenlive:file_size">1638414332</property>
  <property name="kdenlive:file_hash">60a25d9238b9b13db61df3ca826fbd3b</property>
  <property name="kdenlive:folderid">-1</property>
  <property name="meta.media.nb_streams">2</property>
  <property name="meta.media.0.stream.type">video</property>
  <property name="meta.media.0.stream.frame_rate">23.976</property>
  <property name="meta.media.0.stream.sample_aspect_ratio">1</property>
  <property name="meta.media.0.codec.width">1460</property>
  <property name="meta.media.0.codec.height">1080</property>
  <property name="meta.media.0.codec.rotate">0</property>
  <property name="meta.media.0.codec.pix_fmt">yuv420p</property>
  <property name="meta.media.0.codec.sample_aspect_ratio">1</property>
  <property name="meta.media.0.codec.colorspace">709</property>
  <property name="meta.media.0.codec.color_trc">1</property>
  <property name="meta.media.0.codec.name">h264</property>
  <property name="meta.media.0.codec.long_name">H.264 / AVC / MPEG-4 AVC / MPEG-4 part 10</property>
  <property name="meta.media.0.codec.bit_rate">2249545</property>
  <property name="meta.attr.0.stream.handler_name.markup">VideoHandler</property>
  <property name="meta.attr.0.stream.vendor_id.markup">[0][0][0][0]</property>
  <property name="meta.media.1.stream.type">audio</property>
  <property name="meta.media.1.codec.sample_fmt">fltp</property>
  <property name="meta.media.1.codec.sample_rate">48000</property>
  <property name="meta.media.1.codec.channels">2</property>
  <property name="meta.media.1.codec.layout">stereo</property>
  <property name="meta.media.1.codec.name">aac</property>
  <property name="meta.media.1.codec.long_name">AAC (Advanced Audio Coding)</property>
  <property name="meta.media.1.codec.bit_rate">128343</property>
  <property name="meta.attr.1.stream.handler_name.markup">SoundHandler</property>
  <property name="meta.attr.1.stream.vendor_id.markup">[0][0][0][0]</property>
  <property name="meta.attr.major_brand.markup">isom</property>
  <property name="meta.attr.minor_version.markup">512</property>
  <property name="meta.attr.compatible_brands.markup">isomiso2avc1mp41</property>
  <property name="meta.attr.encoder.markup">Lavf58.67.100</property>
  <property name="meta.media.sample_aspect_num">1</property>
  <property name="meta.media.sample_aspect_den">1</property>
  <property name="meta.media.frame_rate_num">24000</property>
  <property name="meta.media.frame_rate_den">1001</property>
  <property name="meta.media.colorspace">709</property>
  <property name="meta.media.color_trc">1</property>
  <property name="meta.media.has_b_frames">2</property>
  <property name="meta.media.width">1460</property>
  <property name="meta.media.height">1080</property>
  <property name="meta.media.aspect_ratio">1</property>
  <property name="meta.media.color_range">mpeg</property>
  <property name="xml">was here</property>
  <property name="mute_on_pause">0</property>
  <property name="meta.media.top_field_first">0</property>
  <property name="meta.media.progressive">1</property>
  <property name="set.test_audio">0</property>
  <property name="set.test_image">1</property>
 </chain>
 <chain id="chain82" out="01:31:37.412">
  <property name="length">131806</property>
  <property name="eof">pause</property>
  <property name="resource">N:/Videos/Anime/Ninja Scroll (1993)/Ninja.Scroll.1993.JAPANESE.REPACK.1080p.BluRay.x264.AAC-[YTS.MX].mp4</property>
  <property name="mlt_service">avformat-novalidate</property>
  <property name="seekable">1</property>
  <property name="audio_index">1</property>
  <property name="video_index">0</property>
  <property name="vstream">0</property>
  <property name="astream">0</property>
  <property name="kdenlive:control_uuid">{891a33c5-f56c-4db3-af9d-e5d090f15f81}</property>
  <property name="kdenlive:id">4</property>
  <property name="kdenlive:clip_type">0</property>
  <property name="kdenlive:file_size">1638414332</property>
  <property name="kdenlive:file_hash">60a25d9238b9b13db61df3ca826fbd3b</property>
  <property name="kdenlive:folderid">-1</property>
  <property name="mute_on_pause">0</property>
  <property name="meta.media.nb_streams">2</property>
  <property name="meta.media.0.stream.type">video</property>
  <property name="meta.media.0.stream.frame_rate">23.976</property>
  <property name="meta.media.0.stream.sample_aspect_ratio">1</property>
  <property name="meta.media.0.codec.width">1460</property>
  <property name="meta.media.0.codec.height">1080</property>
  <property name="meta.media.0.codec.rotate">0</property>
  <property name="meta.media.0.codec.pix_fmt">yuv420p</property>
  <property name="meta.media.0.codec.sample_aspect_ratio">1</property>
  <property name="meta.media.0.codec.colorspace">709</property>
  <property name="meta.media.0.codec.color_trc">1</property>
  <property name="meta.media.0.codec.name">h264</property>
  <property name="meta.media.0.codec.long_name">H.264 / AVC / MPEG-4 AVC / MPEG-4 part 10</property>
  <property name="meta.media.0.codec.bit_rate">2249545</property>
  <property name="meta.attr.0.stream.handler_name.markup">VideoHandler</property>
  <property name="meta.attr.0.stream.vendor_id.markup">[0][0][0][0]</property>
  <property name="meta.media.1.stream.type">audio</property>
  <property name="meta.media.1.codec.sample_fmt">fltp</property>
  <property name="meta.media.1.codec.sample_rate">48000</property>
  <property name="meta.media.1.codec.channels">2</property>
  <property name="meta.media.1.codec.layout">stereo</property>
  <property name="meta.media.1.codec.name">aac</property>
  <property name="meta.media.1.codec.long_name">AAC (Advanced Audio Coding)</property>
  <property name="meta.media.1.codec.bit_rate">128343</property>
  <property name="meta.attr.1.stream.handler_name.markup">SoundHandler</property>
  <property name="meta.attr.1.stream.vendor_id.markup">[0][0][0][0]</property>
  <property name="meta.attr.major_brand.markup">isom</property>
  <property name="meta.attr.minor_version.markup">512</property>
  <property name="meta.attr.compatible_brands.markup">isomiso2avc1mp41</property>
  <property name="meta.attr.encoder.markup">Lavf58.67.100</property>
  <property name="meta.media.sample_aspect_num">1</property>
  <property name="meta.media.sample_aspect_den">1</property>
  <property name="meta.media.frame_rate_num">24000</property>
  <property name="meta.media.frame_rate_den">1001</property>
  <property name="meta.media.colorspace">709</property>
  <property name="meta.media.color_trc">1</property>
  <property name="meta.media.has_b_frames">2</property>
  <property name="meta.media.width">1460</property>
  <property name="meta.media.height">1080</property>
  <property name="meta.media.aspect_ratio">1</property>
  <property name="meta.media.color_range">mpeg</property>
  <property name="xml">was here</property>
  <property name="meta.media.top_field_first">0</property>
  <property name="meta.media.progressive">1</property>
  <property name="set.test_audio">1</property>
  <property name="set.test_image">1</property>
 </chain>
 <playlist id="playlist4">
  <property name="kdenlive:audio_track">1</property>
  <blank length="00:07:49.800"/>
  <entry in="00:07:52.886" out="00:08:11.470" producer="chain59">
   <property name="kdenlive:id">4</property>
  </entry>
  <blank length="00:00:17.392"/>
  <entry in="00:12:42.167" out="00:12:50.425" producer="chain59">
   <property name="kdenlive:id">4</property>
  </entry>
  <blank length="00:00:19.102"/>
  <entry in="00:14:33.700" out="00:15:15.224" producer="chain59">
   <property name="kdenlive:id">4</property>
  </entry>
  <blank length="00:00:02.628"/>
  <entry in="00:15:34.159" out="00:15:40.707" producer="chain59">
   <property name="kdenlive:id">4</property>
  </entry>
  <blank length="00:01:05.839"/>
  <entry in="00:17:04.213" out="00:17:09.968" producer="chain59">
   <property name="kdenlive:id">4</property>
  </entry>
  <blank length="00:00:02.211"/>
  <entry in="00:17:19.853" out="00:18:53.512" producer="chain59">
   <property name="kdenlive:id">4</property>
  </entry>
  <blank length="00:05:10.510"/>
  <entry in="00:25:19.603" out="00:33:03.337" producer="chain59">
   <property name="kdenlive:id">4</property>
  </entry>
  <blank length="00:03:53.887"/>
  <entry in="00:37:19.228" out="00:47:30.405" producer="chain59">
   <property name="kdenlive:id">4</property>
  </entry>
  <blank length="00:00:03.003"/>
  <entry in="00:47:39.706" out="00:49:08.842" producer="chain59">
   <property name="kdenlive:id">4</property>
  </entry>
  <entry in="00:49:12.679" out="00:50:19.645" producer="chain59">
   <property name="kdenlive:id">4</property>
   <filter id="filter61" in="00:50:17.476" out="00:50:19.645">
    <property name="window">75</property>
    <property name="max_gain">20dB</property>
    <property name="mlt_service">volume</property>
    <property name="kdenlive_id">fadeout</property>
    <property name="gain">1</property>
    <property name="end">0</property>
    <property name="kdenlive:collapsed">0</property>
   </filter>
  </entry>
  <blank length="00:00:03.503"/>
  <entry in="00:52:11.345" out="00:52:16.808" producer="chain59">
   <property name="kdenlive:id">4</property>
   <filter id="filter63" in="00:52:11.345" out="00:52:16.850">
    <property name="window">75</property>
    <property name="max_gain">20dB</property>
    <property name="mlt_service">volume</property>
    <property name="kdenlive_id">fadein</property>
    <property name="gain">0</property>
    <property name="end">1</property>
    <property name="kdenlive:collapsed">0</property>
   </filter>
  </entry>
  <entry in="00:52:16.850" out="00:53:46.046" producer="chain59">
   <property name="kdenlive:id">4</property>
  </entry>
  <blank length="00:00:05.505"/>
  <entry in="00:54:01.293" out="00:54:58.141" producer="chain59">
   <property name="kdenlive:id">4</property>
  </entry>
  <blank length="00:03:11.553"/>
  <entry in="00:59:08.258" out="00:59:23.899" producer="chain59">
   <property name="kdenlive:id">4</property>
  </entry>
  <entry in="00:59:23.941" out="00:59:24.816" producer="chain59">
   <property name="kdenlive:id">4</property>
   <filter id="filter64" in="00:59:23.899" out="00:59:24.816">
    <property name="window">75</property>
    <property name="max_gain">20dB</property>
    <property name="mlt_service">volume</property>
    <property name="kdenlive_id">fadeout</property>
    <property name="gain">1</property>
    <property name="end">0</property>
   </filter>
  </entry>
  <blank length="00:01:10.761"/>
  <entry in="01:01:16.808" out="01:03:58.100" producer="chain59">
   <property name="kdenlive:id">4</property>
  </entry>
  <entry in="01:03:58.141" out="01:05:43.752" producer="chain59">
   <property name="kdenlive:id">4</property>
  </entry>
  <blank length="00:03:51.969"/>
  <entry in="01:10:14.598" out="01:13:36.787" producer="chain59">
   <property name="kdenlive:id">4</property>
   <filter id="filter65" in="01:13:35.702" out="01:13:36.787">
    <property name="window">75</property>
    <property name="max_gain">20dB</property>
    <property name="mlt_service">volume</property>
    <property name="kdenlive_id">fadeout</property>
    <property name="gain">1</property>
    <property name="end">0</property>
   </filter>
  </entry>
  <blank length="00:00:02.502"/>
  <entry in="01:14:19.603" out="01:14:21.730" producer="chain59">
   <property name="kdenlive:id">4</property>
   <filter id="filter66" in="01:14:19.603" out="01:14:21.146">
    <property name="window">75</property>
    <property name="max_gain">20dB</property>
    <property name="mlt_service">volume</property>
    <property name="kdenlive_id">fadein</property>
    <property name="gain">0</property>
    <property name="end">1</property>
    <property name="kdenlive:collapsed">0</property>
   </filter>
  </entry>
  <entry in="01:14:21.772" out="01:20:59.434" producer="chain59">
   <property name="kdenlive:id">4</property>
  </entry>
  <entry in="01:20:59.476" out="01:21:34.952" producer="chain59">
   <property name="kdenlive:id">4</property>
  </entry>
  <blank length="00:01:19.561"/>
  <entry in="01:23:01.627" out="01:24:27.694" producer="chain59">
   <property name="kdenlive:id">4</property>
  </entry>
  <blank length="00:01:27.611"/>
  <entry in="01:25:59.059" out="01:27:53.303" producer="chain59">
   <property name="kdenlive:id">4</property>
   <filter id="filter67" in="01:25:59.059" out="01:26:02.628">
    <property name="window">75</property>
    <property name="max_gain">20dB</property>
    <property name="mlt_service">volume</property>
    <property name="kdenlive_id">fadein</property>
    <property name="gain">0</property>
    <property name="end">1</property>
   </filter>
  </entry>
  <entry in="01:27:53.345" out="01:31:17.184" producer="chain82">
   <property name="kdenlive:id">4</property>
  </entry>
 </playlist>
 <chain id="chain83" out="01:31:37.412">
  <property name="length">131806</property>
  <property name="eof">pause</property>
  <property name="resource">N:/Videos/Anime/Ninja Scroll (1993)/Ninja.Scroll.1993.JAPANESE.REPACK.1080p.BluRay.x264.AAC-[YTS.MX].mp4</property>
  <property name="mlt_service">avformat-novalidate</property>
  <property name="seekable">1</property>
  <property name="audio_index">1</property>
  <property name="video_index">0</property>
  <property name="vstream">0</property>
  <property name="astream">0</property>
  <property name="kdenlive:control_uuid">{891a33c5-f56c-4db3-af9d-e5d090f15f81}</property>
  <property name="kdenlive:id">4</property>
  <property name="kdenlive:clip_type">0</property>
  <property name="kdenlive:file_size">1638414332</property>
  <property name="kdenlive:file_hash">60a25d9238b9b13db61df3ca826fbd3b</property>
  <property name="kdenlive:folderid">-1</property>
  <property name="mute_on_pause">0</property>
  <property name="meta.media.nb_streams">2</property>
  <property name="meta.media.0.stream.type">video</property>
  <property name="meta.media.0.stream.frame_rate">23.976</property>
  <property name="meta.media.0.stream.sample_aspect_ratio">1</property>
  <property name="meta.media.0.codec.width">1460</property>
  <property name="meta.media.0.codec.height">1080</property>
  <property name="meta.media.0.codec.rotate">0</property>
  <property name="meta.media.0.codec.pix_fmt">yuv420p</property>
  <property name="meta.media.0.codec.sample_aspect_ratio">1</property>
  <property name="meta.media.0.codec.colorspace">709</property>
  <property name="meta.media.0.codec.color_trc">1</property>
  <property name="meta.media.0.codec.name">h264</property>
  <property name="meta.media.0.codec.long_name">H.264 / AVC / MPEG-4 AVC / MPEG-4 part 10</property>
  <property name="meta.media.0.codec.bit_rate">2249545</property>
  <property name="meta.attr.0.stream.handler_name.markup">VideoHandler</property>
  <property name="meta.attr.0.stream.vendor_id.markup">[0][0][0][0]</property>
  <property name="meta.media.1.stream.type">audio</property>
  <property name="meta.media.1.codec.sample_fmt">fltp</property>
  <property name="meta.media.1.codec.sample_rate">48000</property>
  <property name="meta.media.1.codec.channels">2</property>
  <property name="meta.media.1.codec.layout">stereo</property>
  <property name="meta.media.1.codec.name">aac</property>
  <property name="meta.media.1.codec.long_name">AAC (Advanced Audio Coding)</property>
  <property name="meta.media.1.codec.bit_rate">128343</property>
  <property name="meta.attr.1.stream.handler_name.markup">SoundHandler</property>
  <property name="meta.attr.1.stream.vendor_id.markup">[0][0][0][0]</property>
  <property name="meta.attr.major_brand.markup">isom</property>
  <property name="meta.attr.minor_version.markup">512</property>
  <property name="meta.attr.compatible_brands.markup">isomiso2avc1mp41</property>
  <property name="meta.attr.encoder.markup">Lavf58.67.100</property>
  <property name="meta.media.sample_aspect_num">1</property>
  <property name="meta.media.sample_aspect_den">1</property>
  <property name="meta.media.frame_rate_num">24000</property>
  <property name="meta.media.frame_rate_den">1001</property>
  <property name="meta.media.colorspace">709</property>
  <property name="meta.media.color_trc">1</property>
  <property name="meta.media.has_b_frames">2</property>
  <property name="meta.media.width">1460</property>
  <property name="meta.media.height">1080</property>
  <property name="meta.media.aspect_ratio">1</property>
  <property name="meta.media.color_range">mpeg</property>
  <property name="xml">was here</property>
  <property name="meta.media.top_field_first">0</property>
  <property name="meta.media.progressive">1</property>
  <property name="set.test_audio">0</property>
  <property name="set.test_image">1</property>
 </chain>
 <playlist id="playlist5">
  <property name="kdenlive:audio_track">1</property>
  <entry in="00:00:00.000" out="00:07:50.175" producer="chain83">
   <property name="kdenlive:id">4</property>
  </entry>
  <blank length="00:00:17.809"/>
  <entry in="00:12:22.314" out="00:12:40.499" producer="chain83">
   <property name="kdenlive:id">4</property>
  </entry>
  <blank length="00:00:07.466"/>
  <entry in="00:12:54.596" out="00:13:16.058" producer="chain83">
   <property name="kdenlive:id">4</property>
  </entry>
  <blank length="00:00:38.163"/>
  <entry in="00:15:28.487" out="00:15:32.908" producer="chain83">
   <property name="kdenlive:id">4</property>
  </entry>
  <blank length="00:00:05.756"/>
  <entry in="00:15:54.846" out="00:17:01.460" producer="chain83">
   <property name="kdenlive:id">4</property>
  </entry>
  <blank length="00:00:04.963"/>
  <entry in="00:17:14.848" out="00:17:17.851" producer="chain83">
   <property name="kdenlive:id">4</property>
  </entry>
  <blank length="00:01:30.906"/>
  <entry in="00:19:56.515" out="00:25:09.343" producer="chain83">
   <property name="kdenlive:id">4</property>
  </entry>
  <blank length="00:07:43.377"/>
  <entry in="00:33:06.256" out="00:35:46.546" producer="chain83">
   <property name="kdenlive:id">4</property>
  </entry>
  <blank length="00:00:05.631"/>
  <entry in="00:35:59.601" out="00:37:09.301" producer="chain83">
   <property name="kdenlive:id">4</property>
   <filter id="filter68" in="00:35:59.601" out="00:36:06.256">
    <property name="window">75</property>
    <property name="max_gain">20dB</property>
    <property name="mlt_service">volume</property>
    <property name="kdenlive_id">fadein</property>
    <property name="gain">0</property>
    <property name="end">1</property>
    <property name="kdenlive:collapsed">0</property>
   </filter>
  </entry>
  <blank length="00:10:09.426"/>
  <entry in="00:47:30.030" out="00:47:33.825" producer="chain83">
   <property name="kdenlive:id">4</property>
  </entry>
  <blank length="00:04:13.597"/>
  <entry in="00:53:53.387" out="00:54:00.667" producer="chain83">
   <property name="kdenlive:id">4</property>
  </entry>
  <blank length="00:00:55.055"/>
  <entry in="00:55:16.558" out="00:58:28.862" producer="chain83">
   <property name="kdenlive:id">4</property>
  </entry>
  <blank length="00:00:18.810"/>
  <entry in="00:59:50.342" out="01:00:58.850" producer="chain83">
   <property name="kdenlive:id">4</property>
  </entry>
  <blank length="00:04:23.523"/>
  <entry in="01:06:16.099" out="01:10:11.470" producer="chain83">
   <property name="kdenlive:id">4</property>
  </entry>
  <blank length="00:10:39.331"/>
  <entry in="01:21:37.537" out="01:22:57.724" producer="chain83">
   <property name="kdenlive:id">4</property>
  </entry>
  <blank length="00:01:25.442"/>
  <entry in="01:24:31.073" out="01:25:48.674" producer="chain83">
   <property name="kdenlive:id">4</property>
   <filter id="filter69" in="01:25:38.080" out="01:25:48.715">
    <property name="window">75</property>
    <property name="max_gain">20dB</property>
    <property name="mlt_service">volume</property>
    <property name="kdenlive_id">fadeout</property>
    <property name="gain">1</property>
    <property name="end">0</property>
   </filter>
  </entry>
 </playlist>
 <tractor id="tractor2" in="00:00:00.000" out="01:18:00.000">
  <property name="kdenlive:audio_track">1</property>
  <property name="kdenlive:trackheight">84</property>
  <property name="kdenlive:timeline_active">1</property>
  <property name="kdenlive:collapsed">0</property>
  <property name="kdenlive:thumbs_format"/>
  <property name="kdenlive:audio_rec"/>
  <track hide="video" producer="playlist4"/>
  <track hide="video" producer="playlist5"/>
  <transition id="transition27" in="00:43:47.881" out="00:43:48.298">
   <property name="a_track">0</property>
   <property name="b_track">1</property>
   <property name="mlt_service">mix</property>
   <property name="kdenlive_id">mix</property>
   <property name="kdenlive:mixcut">5</property>
   <property name="reverse">0</property>
  </transition>
  <transition id="transition26" in="00:43:53.804" out="00:43:55.222">
   <property name="a_track">0</property>
   <property name="b_track">1</property>
   <property name="mlt_service">mix</property>
   <property name="kdenlive_id">mix</property>
   <property name="kdenlive:mixcut">17</property>
   <property name="reverse">1</property>
  </transition>
  <transition id="transition25" in="00:53:53.512" out="00:53:56.556">
   <property name="a_track">0</property>
   <property name="b_track">1</property>
   <property name="mlt_service">mix</property>
   <property name="kdenlive_id">mix</property>
   <property name="kdenlive:mixcut">73</property>
   <property name="reverse">0</property>
  </transition>
  <transition id="transition24" in="00:44:50.300" out="00:44:50.717">
   <property name="a_track">0</property>
   <property name="b_track">1</property>
   <property name="mlt_service">mix</property>
   <property name="kdenlive_id">mix</property>
   <property name="kdenlive:mixcut">5</property>
   <property name="reverse">0</property>
  </transition>
  <transition id="transition23" in="00:48:02.252" out="00:48:02.669">
   <property name="a_track">0</property>
   <property name="b_track">1</property>
   <property name="mlt_service">mix</property>
   <property name="kdenlive_id">mix</property>
   <property name="kdenlive:mixcut">5</property>
   <property name="reverse">1</property>
  </transition>
  <transition id="transition22" in="01:08:28.237" out="01:08:28.654">
   <property name="a_track">0</property>
   <property name="b_track">1</property>
   <property name="mlt_service">mix</property>
   <property name="kdenlive_id">mix</property>
   <property name="kdenlive:mixcut">5</property>
   <property name="reverse">0</property>
  </transition>
  <transition id="transition21" in="00:49:29.571" out="00:49:29.988">
   <property name="a_track">0</property>
   <property name="b_track">1</property>
   <property name="mlt_service">mix</property>
   <property name="kdenlive_id">mix</property>
   <property name="kdenlive:mixcut">5</property>
   <property name="reverse">1</property>
  </transition>
  <transition id="transition20" in="00:39:33.909" out="00:39:34.326">
   <property name="a_track">0</property>
   <property name="b_track">1</property>
   <property name="mlt_service">mix</property>
   <property name="kdenlive_id">mix</property>
   <property name="kdenlive:mixcut">5</property>
   <property name="reverse">1</property>
  </transition>
  <transition id="transition19" in="01:09:48.173" out="01:09:48.465">
   <property name="a_track">0</property>
   <property name="b_track">1</property>
   <property name="mlt_service">mix</property>
   <property name="kdenlive_id">mix</property>
   <property name="kdenlive:mixcut">0</property>
   <property name="reverse">1</property>
  </transition>
  <transition id="transition18" in="01:11:13.889" out="01:11:14.306">
   <property name="a_track">0</property>
   <property name="b_track">1</property>
   <property name="mlt_service">mix</property>
   <property name="kdenlive_id">mix</property>
   <property name="kdenlive:mixcut">5</property>
   <property name="reverse">0</property>
  </transition>
  <transition id="transition17" in="00:57:48.465" out="00:57:48.882">
   <property name="a_track">0</property>
   <property name="b_track">1</property>
   <property name="mlt_service">mix</property>
   <property name="kdenlive_id">mix</property>
   <property name="kdenlive:mixcut">5</property>
   <property name="reverse">1</property>
  </transition>
  <transition id="transition16" in="00:39:30.489" out="00:39:30.906">
   <property name="a_track">0</property>
   <property name="b_track">1</property>
   <property name="mlt_service">mix</property>
   <property name="kdenlive_id">mix</property>
   <property name="kdenlive:mixcut">5</property>
   <property name="start">-1</property>
   <property name="accepts_blanks">1</property>
   <property name="reverse">0</property>
  </transition>
  <transition id="transition15" in="00:29:19.645" out="00:29:21.063">
   <property name="a_track">0</property>
   <property name="b_track">1</property>
   <property name="mlt_service">mix</property>
   <property name="kdenlive_id">mix</property>
   <property name="kdenlive:mixcut">17</property>
   <property name="start">-1</property>
   <property name="accepts_blanks">1</property>
   <property name="reverse">1</property>
  </transition>
  <transition id="transition14" in="00:25:25.359" out="00:25:25.776">
   <property name="a_track">0</property>
   <property name="b_track">1</property>
   <property name="mlt_service">mix</property>
   <property name="kdenlive_id">mix</property>
   <property name="kdenlive:mixcut">5</property>
   <property name="start">-1</property>
   <property name="accepts_blanks">1</property>
   <property name="reverse">0</property>
  </transition>
  <transition id="transition13" in="00:08:08.008" out="00:08:08.425">
   <property name="a_track">0</property>
   <property name="b_track">1</property>
   <property name="mlt_service">mix</property>
   <property name="kdenlive_id">mix</property>
   <property name="kdenlive:mixcut">10</property>
   <property name="start">-1</property>
   <property name="accepts_blanks">1</property>
   <property name="reverse">0</property>
  </transition>
  <transition id="transition11" in="00:08:33.700" out="00:08:34.117">
   <property name="a_track">0</property>
   <property name="b_track">1</property>
   <property name="mlt_service">mix</property>
   <property name="kdenlive_id">mix</property>
   <property name="kdenlive:mixcut">5</property>
   <property name="start">-1</property>
   <property name="accepts_blanks">1</property>
   <property name="reverse">0</property>
  </transition>
  <transition id="transition5" in="00:09:33.367" out="00:09:34.785">
   <property name="a_track">0</property>
   <property name="b_track">1</property>
   <property name="mlt_service">mix</property>
   <property name="kdenlive_id">mix</property>
   <property name="kdenlive:mixcut">0</property>
   <property name="start">-1</property>
   <property name="accepts_blanks">1</property>
   <property name="reverse">0</property>
  </transition>
  <transition id="transition7" in="00:09:43.585" out="00:09:44.002">
   <property name="a_track">0</property>
   <property name="b_track">1</property>
   <property name="mlt_service">mix</property>
   <property name="kdenlive_id">mix</property>
   <property name="kdenlive:mixcut">5</property>
   <property name="start">-1</property>
   <property name="accepts_blanks">1</property>
   <property name="reverse">0</property>
  </transition>
  <transition id="transition8" in="00:10:55.222" out="00:10:55.639">
   <property name="a_track">0</property>
   <property name="b_track">1</property>
   <property name="mlt_service">mix</property>
   <property name="kdenlive_id">mix</property>
   <property name="kdenlive:mixcut">5</property>
   <property name="start">-1</property>
   <property name="accepts_blanks">1</property>
   <property name="reverse">0</property>
  </transition>
  <transition id="transition12" in="00:12:29.154" out="00:12:31.573">
   <property name="a_track">0</property>
   <property name="b_track">1</property>
   <property name="mlt_service">mix</property>
   <property name="kdenlive_id">mix</property>
   <property name="kdenlive:mixcut">58</property>
   <property name="start">-1</property>
   <property name="accepts_blanks">1</property>
   <property name="reverse">0</property>
  </transition>
  <transition id="transition3" in="00:08:25.817" out="00:08:26.235">
   <property name="a_track">1</property>
   <property name="b_track">0</property>
   <property name="mlt_service">mix</property>
   <property name="kdenlive_id">mix</property>
   <property name="kdenlive:mixcut">5</property>
   <property name="start">-1</property>
   <property name="accepts_blanks">1</property>
   <property name="reverse">0</property>
  </transition>
  <transition id="transition4" in="00:08:53.220" out="00:08:55.222">
   <property name="a_track">1</property>
   <property name="b_track">0</property>
   <property name="mlt_service">mix</property>
   <property name="kdenlive_id">mix</property>
   <property name="kdenlive:mixcut">48</property>
   <property name="start">-1</property>
   <property name="accepts_blanks">1</property>
   <property name="reverse">0</property>
  </transition>
  <transition id="transition6" in="00:09:37.412" out="00:09:37.829">
   <property name="a_track">1</property>
   <property name="b_track">0</property>
   <property name="mlt_service">mix</property>
   <property name="kdenlive_id">mix</property>
   <property name="kdenlive:mixcut">5</property>
   <property name="start">-1</property>
   <property name="accepts_blanks">1</property>
   <property name="reverse">0</property>
  </transition>
  <transition id="transition9" in="00:10:49.841" out="00:10:50.259">
   <property name="a_track">1</property>
   <property name="b_track">0</property>
   <property name="mlt_service">mix</property>
   <property name="kdenlive_id">mix</property>
   <property name="kdenlive:mixcut">0</property>
   <property name="start">-1</property>
   <property name="accepts_blanks">1</property>
   <property name="reverse">0</property>
  </transition>
  <transition id="transition10" in="00:10:57.849" out="00:10:58.267">
   <property name="a_track">1</property>
   <property name="b_track">0</property>
   <property name="mlt_service">mix</property>
   <property name="kdenlive_id">mix</property>
   <property name="kdenlive:mixcut">5</property>
   <property name="start">-1</property>
   <property name="accepts_blanks">1</property>
   <property name="reverse">0</property>
  </transition>
  <transition id="transition28" in="00:07:49.800" out="00:07:50.217">
   <property name="a_track">0</property>
   <property name="b_track">1</property>
   <property name="mlt_service">mix</property>
   <property name="kdenlive_id">mix</property>
   <property name="kdenlive:mixcut">5</property>
   <property name="start">-1</property>
   <property name="accepts_blanks">1</property>
   <property name="reverse">1</property>
  </transition>
  <filter id="filter70">
   <property name="window">75</property>
   <property name="max_gain">20dB</property>
   <property name="mlt_service">volume</property>
   <property name="internal_added">237</property>
   <property name="disable">1</property>
  </filter>
  <filter id="filter71">
   <property name="channel">-1</property>
   <property name="mlt_service">panner</property>
   <property name="internal_added">237</property>
   <property name="start">0.5</property>
   <property name="disable">1</property>
  </filter>
  <filter id="filter72">
   <property name="iec_scale">0</property>
   <property name="mlt_service">audiolevel</property>
   <property name="dbpeak">1</property>
   <property name="disable">1</property>
  </filter>
 </tractor>
 <chain id="chain84" out="01:31:37.412">
  <property name="length">131806</property>
  <property name="eof">pause</property>
  <property name="resource">N:/Videos/Anime/Ninja Scroll (1993)/Ninja.Scroll.1993.JAPANESE.REPACK.1080p.BluRay.x264.AAC-[YTS.MX].mp4</property>
  <property name="mlt_service">avformat-novalidate</property>
  <property name="seekable">1</property>
  <property name="audio_index">1</property>
  <property name="video_index">0</property>
  <property name="vstream">0</property>
  <property name="astream">0</property>
  <property name="kdenlive:control_uuid">{891a33c5-f56c-4db3-af9d-e5d090f15f81}</property>
  <property name="kdenlive:id">4</property>
  <property name="kdenlive:clip_type">0</property>
  <property name="kdenlive:file_size">1638414332</property>
  <property name="kdenlive:file_hash">60a25d9238b9b13db61df3ca826fbd3b</property>
  <property name="kdenlive:folderid">-1</property>
  <property name="meta.media.nb_streams">2</property>
  <property name="meta.media.0.stream.type">video</property>
  <property name="meta.media.0.stream.frame_rate">23.976</property>
  <property name="meta.media.0.stream.sample_aspect_ratio">1</property>
  <property name="meta.media.0.codec.width">1460</property>
  <property name="meta.media.0.codec.height">1080</property>
  <property name="meta.media.0.codec.rotate">0</property>
  <property name="meta.media.0.codec.pix_fmt">yuv420p</property>
  <property name="meta.media.0.codec.sample_aspect_ratio">1</property>
  <property name="meta.media.0.codec.colorspace">709</property>
  <property name="meta.media.0.codec.color_trc">1</property>
  <property name="meta.media.0.codec.name">h264</property>
  <property name="meta.media.0.codec.long_name">H.264 / AVC / MPEG-4 AVC / MPEG-4 part 10</property>
  <property name="meta.media.0.codec.bit_rate">2249545</property>
  <property name="meta.attr.0.stream.handler_name.markup">VideoHandler</property>
  <property name="meta.attr.0.stream.vendor_id.markup">[0][0][0][0]</property>
  <property name="meta.media.1.stream.type">audio</property>
  <property name="meta.media.1.codec.sample_fmt">fltp</property>
  <property name="meta.media.1.codec.sample_rate">48000</property>
  <property name="meta.media.1.codec.channels">2</property>
  <property name="meta.media.1.codec.layout">stereo</property>
  <property name="meta.media.1.codec.name">aac</property>
  <property name="meta.media.1.codec.long_name">AAC (Advanced Audio Coding)</property>
  <property name="meta.media.1.codec.bit_rate">128343</property>
  <property name="meta.attr.1.stream.handler_name.markup">SoundHandler</property>
  <property name="meta.attr.1.stream.vendor_id.markup">[0][0][0][0]</property>
  <property name="meta.attr.major_brand.markup">isom</property>
  <property name="meta.attr.minor_version.markup">512</property>
  <property name="meta.attr.compatible_brands.markup">isomiso2avc1mp41</property>
  <property name="meta.attr.encoder.markup">Lavf58.67.100</property>
  <property name="meta.media.sample_aspect_num">1</property>
  <property name="meta.media.sample_aspect_den">1</property>
  <property name="meta.media.frame_rate_num">24000</property>
  <property name="meta.media.frame_rate_den">1001</property>
  <property name="meta.media.colorspace">709</property>
  <property name="meta.media.color_trc">1</property>
  <property name="meta.media.has_b_frames">2</property>
  <property name="meta.media.width">1460</property>
  <property name="meta.media.height">1080</property>
  <property name="meta.media.aspect_ratio">1</property>
  <property name="meta.media.color_range">mpeg</property>
  <property name="xml">was here</property>
  <property name="mute_on_pause">0</property>
  <property name="meta.media.top_field_first">0</property>
  <property name="meta.media.progressive">1</property>
  <property name="set.test_audio">1</property>
  <property name="set.test_image">0</property>
 </chain>
 <playlist id="playlist6">
  <entry in="00:00:00.000" out="00:07:49.967" producer="chain84">
   <property name="kdenlive:id">4</property>
  </entry>
  <entry in="00:07:53.095" out="00:08:11.053" producer="chain84">
   <property name="kdenlive:id">4</property>
  </entry>
  <entry in="00:12:22.314" out="00:12:40.290" producer="chain84">
   <property name="kdenlive:id">4</property>
  </entry>
  <entry in="00:12:42.376" out="00:12:50.217" producer="chain84">
   <property name="kdenlive:id">4</property>
  </entry>
  <entry in="00:12:54.805" out="00:13:14.056" producer="chain84">
   <property name="kdenlive:id">4</property>
  </entry>
  <entry in="00:14:33.700" out="00:15:15.224" producer="chain84">
   <property name="kdenlive:id">4</property>
  </entry>
  <entry in="00:15:29.905" out="00:15:32.699" producer="chain84">
   <property name="kdenlive:id">4</property>
  </entry>
  <entry in="00:15:34.368" out="00:15:40.499" producer="chain84">
   <property name="kdenlive:id">4</property>
  </entry>
  <entry in="00:15:55.055" out="00:17:01.460" producer="chain84">
   <property name="kdenlive:id">4</property>
  </entry>
  <entry in="00:17:04.630" out="00:17:09.760" producer="chain84">
   <property name="kdenlive:id">4</property>
  </entry>
  <entry in="00:17:15.057" out="00:17:17.643" producer="chain84">
   <property name="kdenlive:id">4</property>
  </entry>
  <entry in="00:17:20.062" out="00:18:51.093" producer="chain84">
   <property name="kdenlive:id">4</property>
  </entry>
  <blank length="00:05:12.763"/>
  <entry in="00:25:19.436" out="00:33:03.128" producer="chain84">
   <property name="kdenlive:id">4</property>
  </entry>
  <entry in="00:33:06.465" out="00:35:46.546" producer="chain84">
   <property name="kdenlive:id">4</property>
  </entry>
  <entry in="00:35:46.588" out="00:35:46.797" producer="chain84">
   <property name="kdenlive:id">4</property>
  </entry>
  <blank length="00:00:06.131"/>
  <entry in="00:36:00.334" out="00:37:08.592" producer="chain84">
   <property name="kdenlive:id">4</property>
  </entry>
  <blank length="00:10:10.344"/>
  <entry in="00:47:30.239" out="00:47:33.617" producer="chain84">
   <property name="kdenlive:id">4</property>
  </entry>
  <entry in="00:47:39.915" out="00:49:08.842" producer="chain84">
   <property name="kdenlive:id">4</property>
  </entry>
  <entry in="00:49:12.679" out="00:50:19.645" producer="chain84">
   <property name="kdenlive:id">4</property>
  </entry>
  <entry in="00:52:07.841" out="00:52:16.808" producer="chain84">
   <property name="kdenlive:id">4</property>
   <filter id="filter73">
    <property name="background">colour:0</property>
    <property name="mlt_service">affine</property>
    <property name="kdenlive_id">pan_zoom</property>
    <property name="transition.rect">00:52:07.841=0 0 1460 2190;00:52:16.808=0 0 1460 1080</property>
    <property name="transition.distort">0</property>
    <property name="use_normalised">0</property>
    <property name="producer.resource">0x00000000</property>
    <property name="transition.repeat_off">1</property>
    <property name="transition.mirror_off">1</property>
    <property name="kdenlive:collapsed">0</property>
   </filter>
   <filter id="filter74" in="00:52:07.841" out="00:52:16.433">
    <property name="start">1</property>
    <property name="level">1</property>
    <property name="mlt_service">brightness</property>
    <property name="kdenlive_id">fade_from_black</property>
    <property name="alpha">00:00:00.000=0;00:00:08.592=1</property>
    <property name="kdenlive:collapsed">0</property>
   </filter>
  </entry>
  <entry in="00:52:16.850" out="00:53:45.837" producer="chain84">
   <property name="kdenlive:id">4</property>
  </entry>
  <entry in="00:53:53.595" out="00:53:59.977" producer="chain84">
   <property name="kdenlive:id">4</property>
  </entry>
  <entry in="00:54:02.002" out="00:54:57.933" producer="chain84">
   <property name="kdenlive:id">4</property>
  </entry>
  <entry in="00:55:16.767" out="00:58:28.654" producer="chain84">
   <property name="kdenlive:id">4</property>
   <filter id="filter75" in="00:55:16.767" out="00:55:20.229">
    <property name="start">1</property>
    <property name="level">1</property>
    <property name="mlt_service">brightness</property>
    <property name="kdenlive_id">fade_from_black</property>
    <property name="alpha">00:00:00.000=0;00:00:03.462=1</property>
    <property name="kdenlive:collapsed">0</property>
   </filter>
  </entry>
  <entry in="00:59:08.467" out="00:59:24.399" producer="chain84">
   <property name="kdenlive:id">4</property>
  </entry>
  <entry in="00:59:47.297" out="00:59:48.799" producer="chain84">
   <property name="kdenlive:id">4</property>
  </entry>
  <entry in="00:59:48.840" out="00:59:50.300" producer="chain84">
   <property name="kdenlive:id">4</property>
  </entry>
  <entry in="00:59:50.342" out="01:00:58.642" producer="chain84">
   <property name="kdenlive:id">4</property>
  </entry>
  <entry in="01:01:17.017" out="01:03:58.100" producer="chain84">
   <property name="kdenlive:id">4</property>
  </entry>
  <entry in="01:03:58.141" out="01:05:37.913" producer="chain84">
   <property name="kdenlive:id">4</property>
  </entry>
  <entry in="01:06:13.305" out="01:06:16.058" producer="chain84">
   <property name="kdenlive:id">4</property>
  </entry>
  <entry in="01:06:16.099" out="01:10:11.261" producer="chain84">
   <property name="kdenlive:id">4</property>
  </entry>
  <entry in="01:10:14.806" out="01:13:36.787" producer="chain84">
   <property name="kdenlive:id">4</property>
  </entry>
  <entry in="01:14:01.585" out="01:14:05.464" producer="chain84">
   <property name="kdenlive:id">4</property>
  </entry>
  <blank length="00:06:38.497"/>
  <entry in="01:20:59.476" out="01:21:34.743" producer="chain84">
   <property name="kdenlive:id">4</property>
  </entry>
  <entry in="01:21:37.746" out="01:22:57.724" producer="chain84">
   <property name="kdenlive:id">4</property>
  </entry>
  <entry in="01:23:01.919" out="01:24:27.486" producer="chain84">
   <property name="kdenlive:id">4</property>
  </entry>
  <entry in="01:24:31.281" out="01:27:53.303" producer="chain84">
   <property name="kdenlive:id">4</property>
  </entry>
  <entry in="01:27:53.345" out="01:31:17.184" producer="chain84">
   <property name="kdenlive:id">4</property>
  </entry>
 </playlist>
 <chain id="chain85" out="01:31:37.412">
  <property name="length">131806</property>
  <property name="eof">pause</property>
  <property name="resource">N:/Videos/Anime/Ninja Scroll (1993)/Ninja.Scroll.1993.JAPANESE.REPACK.1080p.BluRay.x264.AAC-[YTS.MX].mp4</property>
  <property name="mlt_service">avformat-novalidate</property>
  <property name="seekable">1</property>
  <property name="audio_index">1</property>
  <property name="video_index">0</property>
  <property name="vstream">0</property>
  <property name="astream">0</property>
  <property name="kdenlive:control_uuid">{891a33c5-f56c-4db3-af9d-e5d090f15f81}</property>
  <property name="kdenlive:id">4</property>
  <property name="kdenlive:clip_type">0</property>
  <property name="kdenlive:file_size">1638414332</property>
  <property name="kdenlive:file_hash">60a25d9238b9b13db61df3ca826fbd3b</property>
  <property name="kdenlive:folderid">-1</property>
  <property name="mute_on_pause">0</property>
  <property name="meta.media.nb_streams">2</property>
  <property name="meta.media.0.stream.type">video</property>
  <property name="meta.media.0.stream.frame_rate">23.976</property>
  <property name="meta.media.0.stream.sample_aspect_ratio">1</property>
  <property name="meta.media.0.codec.width">1460</property>
  <property name="meta.media.0.codec.height">1080</property>
  <property name="meta.media.0.codec.rotate">0</property>
  <property name="meta.media.0.codec.pix_fmt">yuv420p</property>
  <property name="meta.media.0.codec.sample_aspect_ratio">1</property>
  <property name="meta.media.0.codec.colorspace">709</property>
  <property name="meta.media.0.codec.color_trc">1</property>
  <property name="meta.media.0.codec.name">h264</property>
  <property name="meta.media.0.codec.long_name">H.264 / AVC / MPEG-4 AVC / MPEG-4 part 10</property>
  <property name="meta.media.0.codec.bit_rate">2249545</property>
  <property name="meta.attr.0.stream.handler_name.markup">VideoHandler</property>
  <property name="meta.attr.0.stream.vendor_id.markup">[0][0][0][0]</property>
  <property name="meta.media.1.stream.type">audio</property>
  <property name="meta.media.1.codec.sample_fmt">fltp</property>
  <property name="meta.media.1.codec.sample_rate">48000</property>
  <property name="meta.media.1.codec.channels">2</property>
  <property name="meta.media.1.codec.layout">stereo</property>
  <property name="meta.media.1.codec.name">aac</property>
  <property name="meta.media.1.codec.long_name">AAC (Advanced Audio Coding)</property>
  <property name="meta.media.1.codec.bit_rate">128343</property>
  <property name="meta.attr.1.stream.handler_name.markup">SoundHandler</property>
  <property name="meta.attr.1.stream.vendor_id.markup">[0][0][0][0]</property>
  <property name="meta.attr.major_brand.markup">isom</property>
  <property name="meta.attr.minor_version.markup">512</property>
  <property name="meta.attr.compatible_brands.markup">isomiso2avc1mp41</property>
  <property name="meta.attr.encoder.markup">Lavf58.67.100</property>
  <property name="meta.media.sample_aspect_num">1</property>
  <property name="meta.media.sample_aspect_den">1</property>
  <property name="meta.media.frame_rate_num">24000</property>
  <property name="meta.media.frame_rate_den">1001</property>
  <property name="meta.media.colorspace">709</property>
  <property name="meta.media.color_trc">1</property>
  <property name="meta.media.has_b_frames">2</property>
  <property name="meta.media.width">1460</property>
  <property name="meta.media.height">1080</property>
  <property name="meta.media.aspect_ratio">1</property>
  <property name="meta.media.color_range">mpeg</property>
  <property name="xml">was here</property>
  <property name="meta.media.top_field_first">0</property>
  <property name="meta.media.progressive">1</property>
  <property name="set.test_audio">1</property>
  <property name="set.test_image">0</property>
 </chain>
 <playlist id="playlist7">
  <blank length="00:12:29.154"/>
  <entry in="00:19:56.515" out="00:25:09.551" producer="chain85">
   <property name="kdenlive:id">4</property>
  </entry>
  <blank length="00:10:23.732"/>
  <entry in="00:35:48.340" out="00:35:54.846" producer="chain85">
   <property name="kdenlive:id">4</property>
  </entry>
  <blank length="00:01:06.882"/>
  <entry in="00:37:18.936" out="00:47:30.197" producer="chain85">
   <property name="kdenlive:id">4</property>
  </entry>
  <blank length="00:21:42.584"/>
  <entry in="01:14:19.603" out="01:20:59.434" producer="chain85">
   <property name="kdenlive:id">4</property>
  </entry>
 </playlist>
 <tractor id="tractor3" in="00:00:00.000" out="01:18:00.000">
  <property name="kdenlive:trackheight">84</property>
  <property name="kdenlive:timeline_active">1</property>
  <property name="kdenlive:collapsed">0</property>
  <property name="kdenlive:thumbs_format"/>
  <property name="kdenlive:audio_rec"/>
  <track hide="audio" producer="playlist6"/>
  <track hide="audio" producer="playlist7"/>
  <transition id="transition33" in="01:01:13.263" out="01:01:14.681">
   <property name="a_track">0</property>
   <property name="b_track">1</property>
   <property name="factory">loader</property>
   <property name="resource"/>
   <property name="mlt_service">luma</property>
   <property name="kdenlive_id">luma</property>
   <property name="kdenlive:mixcut">34</property>
   <property name="softness">0</property>
   <property name="alpha_over">1</property>
   <property name="fix_background_alpha">1</property>
   <property name="invert">0</property>
   <property name="reverse">0</property>
  </transition>
  <transition id="transition32" in="00:29:19.353" out="00:29:20.354">
   <property name="a_track">0</property>
   <property name="b_track">1</property>
   <property name="factory">loader</property>
   <property name="resource"/>
   <property name="mlt_service">luma</property>
   <property name="kdenlive_id">luma</property>
   <property name="kdenlive:mixcut">0</property>
   <property name="softness">0</property>
   <property name="alpha_over">1</property>
   <property name="fix_background_alpha">1</property>
   <property name="invert">0</property>
   <property name="reverse">0</property>
  </transition>
  <transition id="transition31" in="00:17:41.875" out="00:17:42.251">
   <property name="a_track">1</property>
   <property name="b_track">0</property>
   <property name="factory">loader</property>
   <property name="resource">luma01.pgm</property>
   <property name="mlt_service">luma</property>
   <property name="kdenlive_id">luma</property>
   <property name="kdenlive:mixcut">5</property>
   <property name="softness">0.63</property>
   <property name="alpha_over">1</property>
   <property name="fix_background_alpha">1</property>
   <property name="invert">0</property>
   <property name="reverse">0</property>
  </transition>
  <transition id="transition30" in="00:28:12.095" out="00:28:12.512">
   <property name="a_track">1</property>
   <property name="b_track">0</property>
   <property name="factory">loader</property>
   <property name="resource">luma01.pgm</property>
   <property name="mlt_service">luma</property>
   <property name="kdenlive_id">luma</property>
   <property name="kdenlive:mixcut">10</property>
   <property name="softness">0.53</property>
   <property name="alpha_over">1</property>
   <property name="fix_background_alpha">1</property>
   <property name="invert">0</property>
   <property name="reverse">0</property>
  </transition>
 </tractor>
 <playlist id="playlist8"/>
 <playlist id="playlist9"/>
 <tractor id="tractor4" in="00:00:00.000">
  <property name="kdenlive:trackheight">84</property>
  <property name="kdenlive:timeline_active">1</property>
  <property name="kdenlive:collapsed">32</property>
  <property name="kdenlive:thumbs_format"/>
  <property name="kdenlive:audio_rec"/>
  <track hide="audio" producer="playlist8"/>
  <track hide="audio" producer="playlist9"/>
 </tractor>
 <tractor id="tractor5" in="00:00:00.000" out="01:18:00.000">
  <property name="kdenlive:duration">01:18:00.042</property>
  <property name="kdenlive:maxduration">112208</property>
  <property name="kdenlive:clipname">Sequence 1</property>
  <property name="kdenlive:description"/>
  <property name="kdenlive:uuid">{1f81736c-4139-437b-9639-00d09692bbe6}</property>
  <property name="kdenlive:producer_type">17</property>
  <property name="kdenlive:control_uuid">{1f81736c-4139-437b-9639-00d09692bbe6}</property>
  <property name="kdenlive:id">3</property>
  <property name="kdenlive:clip_type">0</property>
  <property name="kdenlive:file_hash">f87619521caf758fe694200a0194428f</property>
  <property name="kdenlive:folderid">2</property>
  <property name="kdenlive:sequenceproperties.activeTrack">1</property>
  <property name="kdenlive:sequenceproperties.audioTarget">1</property>
  <property name="kdenlive:sequenceproperties.disablepreview">0</property>
  <property name="kdenlive:sequenceproperties.documentuuid">{1f81736c-4139-437b-9639-00d09692bbe6}</property>
  <property name="kdenlive:sequenceproperties.globalSubtitleStyles">[
]
</property>
  <property name="kdenlive:sequenceproperties.hasAudio">1</property>
  <property name="kdenlive:sequenceproperties.hasVideo">1</property>
  <property name="kdenlive:sequenceproperties.hidesubtitle">0</property>
  <property name="kdenlive:sequenceproperties.position">107748</property>
  <property name="kdenlive:sequenceproperties.scrollPos">37784</property>
  <property name="kdenlive:sequenceproperties.subtitlesList">[
    {
        "file": "C:/Users/kado/Videos/FanEdits/KidFriendly/Ninja Scroll (1993)/Ninja Scroll (1993).kdenlive.ass",
        "id": 0,
        "name": "Subtitles"
    }
]
</property>
  <property name="kdenlive:sequenceproperties.tracks">4</property>
  <property name="kdenlive:sequenceproperties.tracksCount">5</property>
  <property name="kdenlive:sequenceproperties.verticalzoom">1</property>
  <property name="kdenlive:sequenceproperties.videoTarget">2</property>
  <property name="kdenlive:sequenceproperties.zonein">42260</property>
  <property name="kdenlive:sequenceproperties.zoneout">42358</property>
  <property name="kdenlive:sequenceproperties.zoom">10</property>
  <property name="kdenlive:sequenceproperties.groups">[
    {
        "children": [
            {
                "data": "-2:7454:0",
                "leaf": "subtitle",
                "type": "Leaf"
            },
            {
                "data": "-2:8627:0",
                "leaf": "subtitle",
                "type": "Leaf"
            },
            {
                "data": "-2:8700:0",
                "leaf": "subtitle",
                "type": "Leaf"
            },
            {
                "data": "-2:8548:0",
                "leaf": "subtitle",
                "type": "Leaf"
            },
            {
                "data": "-2:7432:0",
                "leaf": "subtitle",
                "type": "Leaf"
            },
            {
                "data": "1:0:-1",
                "leaf": "clip",
                "type": "Leaf"
            },
            {
                "data": "-2:1327:0",
                "leaf": "subtitle",
                "type": "Leaf"
            },
            {
                "data": "-2:8897:0",
                "leaf": "subtitle",
                "type": "Leaf"
            },
            {
                "data": "-2:8036:0",
                "leaf": "subtitle",
                "type": "Leaf"
            },
            {
                "data": "-2:5559:0",
                "leaf": "subtitle",
                "type": "Leaf"
            },
            {
                "data": "-2:5890:0",
                "leaf": "subtitle",
                "type": "Leaf"
            },
            {
                "data": "-2:7964:0",
                "leaf": "subtitle",
                "type": "Leaf"
            },
            {
                "data": "-2:5377:0",
                "leaf": "subtitle",
                "type": "Leaf"
            },
            {
                "data": "-2:5815:0",
                "leaf": "subtitle",
                "type": "Leaf"
            },
            {
                "data": "-2:5936:0",
                "leaf": "subtitle",
                "type": "Leaf"
            },
            {
                "data": "-2:6163:0",
                "leaf": "subtitle",
                "type": "Leaf"
            },
            {
                "data": "-2:8794:0",
                "leaf": "subtitle",
                "type": "Leaf"
            },
            {
                "data": "-2:5737:0",
                "leaf": "subtitle",
                "type": "Leaf"
            },
            {
                "data": "-2:8330:0",
                "leaf": "subtitle",
                "type": "Leaf"
            },
            {
                "data": "-2:7834:0",
                "leaf": "subtitle",
                "type": "Leaf"
            },
            {
                "data": "-2:5261:0",
                "leaf": "subtitle",
                "type": "Leaf"
            },
            {
                "data": "-2:4792:0",
                "leaf": "subtitle",
                "type": "Leaf"
            },
            {
                "data": "-2:7295:0",
                "leaf": "subtitle",
                "type": "Leaf"
            },
            {
                "data": "-2:9076:0",
                "leaf": "subtitle",
                "type": "Leaf"
            },
            {
                "data": "-2:2455:0",
                "leaf": "subtitle",
                "type": "Leaf"
            },
            {
                "data": "-2:9732:0",
                "leaf": "subtitle",
                "type": "Leaf"
            },
            {
                "data": "-2:9632:0",
                "leaf": "subtitle",
                "type": "Leaf"
            },
            {
                "data": "-2:2354:0",
                "leaf": "subtitle",
                "type": "Leaf"
            },
            {
                "data": "-2:9137:0",
                "leaf": "subtitle",
                "type": "Leaf"
            },
            {
                "data": "-2:7118:0",
                "leaf": "subtitle",
                "type": "Leaf"
            },
            {
                "data": "-2:7558:0",
                "leaf": "subtitle",
                "type": "Leaf"
            },
            {
                "data": "-2:5013:0",
                "leaf": "subtitle",
                "type": "Leaf"
            },
            {
                "data": "-2:4967:0",
                "leaf": "subtitle",
                "type": "Leaf"
            },
            {
                "data": "-2:10373:0",
                "leaf": "subtitle",
                "type": "Leaf"
            },
            {
                "data": "-2:2813:0",
                "leaf": "subtitle",
                "type": "Leaf"
            },
            {
                "data": "-2:7066:0",
                "leaf": "subtitle",
                "type": "Leaf"
            },
            {
                "data": "-2:6789:0",
                "leaf": "subtitle",
                "type": "Leaf"
            },
            {
                "data": "-2:9788:0",
                "leaf": "subtitle",
                "type": "Leaf"
            },
            {
                "data": "-2:2598:0",
                "leaf": "subtitle",
                "type": "Leaf"
            },
            {
                "data": "-2:2624:0",
                "leaf": "subtitle",
                "type": "Leaf"
            },
            {
                "data": "-2:9862:0",
                "leaf": "subtitle",
                "type": "Leaf"
            },
            {
                "data": "-2:6987:0",
                "leaf": "subtitle",
                "type": "Leaf"
            },
            {
                "data": "-2:9934:0",
                "leaf": "subtitle",
                "type": "Leaf"
            },
            {
                "data": "-2:2682:0",
                "leaf": "subtitle",
                "type": "Leaf"
            },
            {
                "data": "-2:4895:0",
                "leaf": "subtitle",
                "type": "Leaf"
            },
            {
                "data": "-2:6850:0",
                "leaf": "subtitle",
                "type": "Leaf"
            },
            {
                "data": "-2:6734:0",
                "leaf": "subtitle",
                "type": "Leaf"
            },
            {
                "data": "-2:7251:0",
                "leaf": "subtitle",
                "type": "Leaf"
            },
            {
                "data": "-2:3101:0",
                "leaf": "subtitle",
                "type": "Leaf"
            },
            {
                "data": "-2:7616:0",
                "leaf": "subtitle",
                "type": "Leaf"
            },
            {
                "data": "-2:2234:0",
                "leaf": "subtitle",
                "type": "Leaf"
            },
            {
                "data": "1:6035:-1",
                "leaf": "clip",
                "type": "Leaf"
            },
            {
                "data": "-2:6606:0",
                "leaf": "subtitle",
                "type": "Leaf"
            },
            {
                "data": "-2:7679:0",
                "leaf": "subtitle",
                "type": "Leaf"
            },
            {
                "data": "-2:2312:0",
                "leaf": "subtitle",
                "type": "Leaf"
            },
            {
                "data": "1:8888:-1",
                "leaf": "clip",
                "type": "Leaf"
            },
            {
                "data": "-2:4850:0",
                "leaf": "subtitle",
                "type": "Leaf"
            },
            {
                "data": "-2:6494:0",
                "leaf": "subtitle",
                "type": "Leaf"
            },
            {
                "data": "-2:7749:0",
                "leaf": "subtitle",
                "type": "Leaf"
            },
            {
                "data": "-2:5146:0",
                "leaf": "subtitle",
                "type": "Leaf"
            },
            {
                "data": "-2:6515:0",
                "leaf": "subtitle",
                "type": "Leaf"
            },
            {
                "data": "-2:8960:0",
                "leaf": "subtitle",
                "type": "Leaf"
            },
            {
                "data": "-2:1410:0",
                "leaf": "subtitle",
                "type": "Leaf"
            },
            {
                "data": "1:1510:-1",
                "leaf": "clip",
                "type": "Leaf"
            },
            {
                "data": "1:3079:-1",
                "leaf": "clip",
                "type": "Leaf"
            },
            {
                "data": "-2:1477:0",
                "leaf": "subtitle",
                "type": "Leaf"
            },
            {
                "data": "3:0:-1",
                "leaf": "clip",
                "type": "Leaf"
            },
            {
                "data": "-2:9028:0",
                "leaf": "subtitle",
                "type": "Leaf"
            },
            {
                "data": "-2:6285:0",
                "leaf": "subtitle",
                "type": "Leaf"
            },
            {
                "data": "-2:6377:0",
                "leaf": "subtitle",
                "type": "Leaf"
            },
            {
                "data": "-2:5110:0",
                "leaf": "subtitle",
                "type": "Leaf"
            },
            {
                "data": "-2:7355:0",
                "leaf": "subtitle",
                "type": "Leaf"
            },
            {
                "data": "2:0:-1",
                "leaf": "clip",
                "type": "Leaf"
            },
            {
                "data": "-2:6213:0",
                "leaf": "subtitle",
                "type": "Leaf"
            },
            {
                "data": "-2:10514:0",
                "leaf": "subtitle",
                "type": "Leaf"
            },
            {
                "data": "-2:2945:0",
                "leaf": "subtitle",
                "type": "Leaf"
            },
            {
                "data": "-2:11202:0",
                "leaf": "subtitle",
                "type": "Leaf"
            },
            {
                "data": "-2:3006:0",
                "leaf": "subtitle",
                "type": "Leaf"
            },
            {
                "data": "-2:5053:0",
                "leaf": "subtitle",
                "type": "Leaf"
            }
        ],
        "type": "Normal"
    },
    {
        "children": [
            {
                "data": "2:11263:-1",
                "leaf": "clip",
                "type": "Leaf"
            },
            {
                "data": "3:11268:-1",
                "leaf": "clip",
                "type": "Leaf"
            },
            {
                "data": "-2:66240:0",
                "leaf": "subtitle",
                "type": "Leaf"
            },
            {
                "data": "-2:94737:0",
                "leaf": "subtitle",
                "type": "Leaf"
            },
            {
                "data": "-2:66177:0",
                "leaf": "subtitle",
                "type": "Leaf"
            },
            {
                "data": "-2:94694:0",
                "leaf": "subtitle",
                "type": "Leaf"
            },
            {
                "data": "-2:66063:0",
                "leaf": "subtitle",
                "type": "Leaf"
            },
            {
                "data": "-2:94417:0",
                "leaf": "subtitle",
                "type": "Leaf"
            },
            {
                "data": "-2:66013:0",
                "leaf": "subtitle",
                "type": "Leaf"
            },
            {
                "data": "-2:94352:0",
                "leaf": "subtitle",
                "type": "Leaf"
            },
            {
                "data": "-2:65921:0",
                "leaf": "subtitle",
                "type": "Leaf"
            },
            {
                "data": "-2:94067:0",
                "leaf": "subtitle",
                "type": "Leaf"
            },
            {
                "data": "-2:65862:0",
                "leaf": "subtitle",
                "type": "Leaf"
            },
            {
                "data": "-2:94027:0",
                "leaf": "subtitle",
                "type": "Leaf"
            },
            {
                "data": "-2:65766:0",
                "leaf": "subtitle",
                "type": "Leaf"
            },
            {
                "data": "3:12132:-1",
                "leaf": "clip",
                "type": "Leaf"
            },
            {
                "data": "-2:24902:0",
                "leaf": "subtitle",
                "type": "Leaf"
            },
            {
                "data": "-2:93989:0",
                "leaf": "subtitle",
                "type": "Leaf"
            },
            {
                "data": "-2:93849:0",
                "leaf": "subtitle",
                "type": "Leaf"
            },
            {
                "data": "-2:93330:0",
                "leaf": "subtitle",
                "type": "Leaf"
            },
            {
                "data": "-2:70006:0",
                "leaf": "subtitle",
                "type": "Leaf"
            },
            {
                "data": "-2:70098:0",
                "leaf": "subtitle",
                "type": "Leaf"
            },
            {
                "data": "-2:70171:0",
                "leaf": "subtitle",
                "type": "Leaf"
            },
            {
                "data": "-2:70316:0",
                "leaf": "subtitle",
                "type": "Leaf"
            },
            {
                "data": "-2:70383:0",
                "leaf": "subtitle",
                "type": "Leaf"
            },
            {
                "data": "-2:70435:0",
                "leaf": "subtitle",
                "type": "Leaf"
            },
            {
                "data": "-2:70497:0",
                "leaf": "subtitle",
                "type": "Leaf"
            },
            {
                "data": "-2:70605:0",
                "leaf": "subtitle",
                "type": "Leaf"
            },
            {
                "data": "-2:70650:0",
                "leaf": "subtitle",
                "type": "Leaf"
            },
            {
                "data": "-2:70698:0",
                "leaf": "subtitle",
                "type": "Leaf"
            },
            {
                "data": "-2:70844:0",
                "leaf": "subtitle",
                "type": "Leaf"
            },
            {
                "data": "-2:70953:0",
                "leaf": "subtitle",
                "type": "Leaf"
            },
            {
                "data": "-2:72074:0",
                "leaf": "subtitle",
                "type": "Leaf"
            },
            {
                "data": "-2:72155:0",
                "leaf": "subtitle",
                "type": "Leaf"
            },
            {
                "data": "-2:72631:0",
                "leaf": "subtitle",
                "type": "Leaf"
            },
            {
                "data": "-2:73276:0",
                "leaf": "subtitle",
                "type": "Leaf"
            },
            {
                "data": "-2:73340:0",
                "leaf": "subtitle",
                "type": "Leaf"
            },
            {
                "data": "-2:73412:0",
                "leaf": "subtitle",
                "type": "Leaf"
            },
            {
                "data": "-2:73510:0",
                "leaf": "subtitle",
                "type": "Leaf"
            },
            {
                "data": "-2:73544:0",
                "leaf": "subtitle",
                "type": "Leaf"
            },
            {
                "data": "-2:32005:0",
                "leaf": "subtitle",
                "type": "Leaf"
            },
            {
                "data": "-2:73658:0",
                "leaf": "subtitle",
                "type": "Leaf"
            },
            {
                "data": "-2:73688:0",
                "leaf": "subtitle",
                "type": "Leaf"
            },
            {
                "data": "-2:73848:0",
                "leaf": "subtitle",
                "type": "Leaf"
            },
            {
                "data": "-2:73912:0",
                "leaf": "subtitle",
                "type": "Leaf"
            },
            {
                "data": "-2:74015:0",
                "leaf": "subtitle",
                "type": "Leaf"
            },
            {
                "data": "-2:74172:0",
                "leaf": "subtitle",
                "type": "Leaf"
            },
            {
                "data": "-2:74226:0",
                "leaf": "subtitle",
                "type": "Leaf"
            },
            {
                "data": "-2:74359:0",
                "leaf": "subtitle",
                "type": "Leaf"
            },
            {
                "data": "-2:74408:0",
                "leaf": "subtitle",
                "type": "Leaf"
            },
            {
                "data": "-2:79265:0",
                "leaf": "subtitle",
                "type": "Leaf"
            },
            {
                "data": "-2:38679:0",
                "leaf": "subtitle",
                "type": "Leaf"
            },
            {
                "data": "-2:79892:0",
                "leaf": "subtitle",
                "type": "Leaf"
            },
            {
                "data": "-2:38737:0",
                "leaf": "subtitle",
                "type": "Leaf"
            },
            {
                "data": "-2:79960:0",
                "leaf": "subtitle",
                "type": "Leaf"
            },
            {
                "data": "-2:80810:0",
                "leaf": "subtitle",
                "type": "Leaf"
            },
            {
                "data": "-2:80999:0",
                "leaf": "subtitle",
                "type": "Leaf"
            },
            {
                "data": "-2:81059:0",
                "leaf": "subtitle",
                "type": "Leaf"
            },
            {
                "data": "-2:81144:0",
                "leaf": "subtitle",
                "type": "Leaf"
            },
            {
                "data": "-2:81225:0",
                "leaf": "subtitle",
                "type": "Leaf"
            },
            {
                "data": "0:104871:-1",
                "leaf": "clip",
                "type": "Leaf"
            },
            {
                "data": "-2:39215:0",
                "leaf": "subtitle",
                "type": "Leaf"
            },
            {
                "data": "-2:87585:0",
                "leaf": "subtitle",
                "type": "Leaf"
            },
            {
                "data": "-2:81711:0",
                "leaf": "subtitle",
                "type": "Leaf"
            },
            {
                "data": "1:104995:-1",
                "leaf": "clip",
                "type": "Leaf"
            },
            {
                "data": "-2:39286:0",
                "leaf": "subtitle",
                "type": "Leaf"
            },
            {
                "data": "-2:87758:0",
                "leaf": "subtitle",
                "type": "Leaf"
            },
            {
                "data": "-2:81947:0",
                "leaf": "subtitle",
                "type": "Leaf"
            },
            {
                "data": "-2:82022:0",
                "leaf": "subtitle",
                "type": "Leaf"
            },
            {
                "data": "-2:82073:0",
                "leaf": "subtitle",
                "type": "Leaf"
            },
            {
                "data": "-2:82514:0",
                "leaf": "subtitle",
                "type": "Leaf"
            },
            {
                "data": "1:107257:-1",
                "leaf": "clip",
                "type": "Leaf"
            },
            {
                "data": "-2:39629:0",
                "leaf": "subtitle",
                "type": "Leaf"
            },
            {
                "data": "-2:91633:0",
                "leaf": "subtitle",
                "type": "Leaf"
            },
            {
                "data": "-2:52694:0",
                "leaf": "subtitle",
                "type": "Leaf"
            },
            {
                "data": "-2:15988:0",
                "leaf": "subtitle",
                "type": "Leaf"
            },
            {
                "data": "-2:52293:0",
                "leaf": "subtitle",
                "type": "Leaf"
            },
            {
                "data": "-2:52400:0",
                "leaf": "subtitle",
                "type": "Leaf"
            },
            {
                "data": "-2:52490:0",
                "leaf": "subtitle",
                "type": "Leaf"
            },
            {
                "data": "-2:52577:0",
                "leaf": "subtitle",
                "type": "Leaf"
            },
            {
                "data": "-2:52613:0",
                "leaf": "subtitle",
                "type": "Leaf"
            },
            {
                "data": "-2:58484:0",
                "leaf": "subtitle",
                "type": "Leaf"
            },
            {
                "data": "-2:59422:0",
                "leaf": "subtitle",
                "type": "Leaf"
            },
            {
                "data": "-2:59624:0",
                "leaf": "subtitle",
                "type": "Leaf"
            },
            {
                "data": "-2:59766:0",
                "leaf": "subtitle",
                "type": "Leaf"
            },
            {
                "data": "-2:60086:0",
                "leaf": "subtitle",
                "type": "Leaf"
            },
            {
                "data": "-2:61192:0",
                "leaf": "subtitle",
                "type": "Leaf"
            },
            {
                "data": "-2:61271:0",
                "leaf": "subtitle",
                "type": "Leaf"
            },
            {
                "data": "-2:61322:0",
                "leaf": "subtitle",
                "type": "Leaf"
            },
            {
                "data": "-2:61730:0",
                "leaf": "subtitle",
                "type": "Leaf"
            },
            {
                "data": "-2:61906:0",
                "leaf": "subtitle",
                "type": "Leaf"
            },
            {
                "data": "-2:61974:0",
                "leaf": "subtitle",
                "type": "Leaf"
            },
            {
                "data": "-2:62008:0",
                "leaf": "subtitle",
                "type": "Leaf"
            },
            {
                "data": "-2:62147:0",
                "leaf": "subtitle",
                "type": "Leaf"
            },
            {
                "data": "-2:62271:0",
                "leaf": "subtitle",
                "type": "Leaf"
            },
            {
                "data": "-2:62330:0",
                "leaf": "subtitle",
                "type": "Leaf"
            },
            {
                "data": "-2:62358:0",
                "leaf": "subtitle",
                "type": "Leaf"
            },
            {
                "data": "-2:62435:0",
                "leaf": "subtitle",
                "type": "Leaf"
            },
            {
                "data": "-2:62538:0",
                "leaf": "subtitle",
                "type": "Leaf"
            },
            {
                "data": "-2:23331:0",
                "leaf": "subtitle",
                "type": "Leaf"
            },
            {
                "data": "-2:62596:0",
                "leaf": "subtitle",
                "type": "Leaf"
            },
            {
                "data": "-2:62629:0",
                "leaf": "subtitle",
                "type": "Leaf"
            },
            {
                "data": "-2:62715:0",
                "leaf": "subtitle",
                "type": "Leaf"
            },
            {
                "data": "-2:64202:0",
                "leaf": "subtitle",
                "type": "Leaf"
            },
            {
                "data": "-2:64293:0",
                "leaf": "subtitle",
                "type": "Leaf"
            },
            {
                "data": "-2:64362:0",
                "leaf": "subtitle",
                "type": "Leaf"
            },
            {
                "data": "-2:64375:0",
                "leaf": "subtitle",
                "type": "Leaf"
            },
            {
                "data": "-2:64626:0",
                "leaf": "subtitle",
                "type": "Leaf"
            },
            {
                "data": "-2:64723:0",
                "leaf": "subtitle",
                "type": "Leaf"
            },
            {
                "data": "-2:24272:0",
                "leaf": "subtitle",
                "type": "Leaf"
            },
            {
                "data": "-2:64815:0",
                "leaf": "subtitle",
                "type": "Leaf"
            },
            {
                "data": "-2:21845:0",
                "leaf": "subtitle",
                "type": "Leaf"
            },
            {
                "data": "2:59054:-1",
                "leaf": "clip",
                "type": "Leaf"
            },
            {
                "data": "-2:64889:0",
                "leaf": "subtitle",
                "type": "Leaf"
            },
            {
                "data": "-2:21955:0",
                "leaf": "subtitle",
                "type": "Leaf"
            },
            {
                "data": "2:60745:-1",
                "leaf": "clip",
                "type": "Leaf"
            },
            {
                "data": "-2:64971:0",
                "leaf": "subtitle",
                "type": "Leaf"
            },
            {
                "data": "-2:22015:0",
                "leaf": "subtitle",
                "type": "Leaf"
            },
            {
                "data": "2:60877:-1",
                "leaf": "clip",
                "type": "Leaf"
            },
            {
                "data": "-2:65501:0",
                "leaf": "subtitle",
                "type": "Leaf"
            },
            {
                "data": "-2:22104:0",
                "leaf": "subtitle",
                "type": "Leaf"
            },
            {
                "data": "2:63148:-1",
                "leaf": "clip",
                "type": "Leaf"
            },
            {
                "data": "-2:15229:0",
                "leaf": "subtitle",
                "type": "Leaf"
            },
            {
                "data": "-2:106578:0",
                "leaf": "subtitle",
                "type": "Leaf"
            },
            {
                "data": "-2:21003:0",
                "leaf": "subtitle",
                "type": "Leaf"
            },
            {
                "data": "-2:56195:0",
                "leaf": "subtitle",
                "type": "Leaf"
            },
            {
                "data": "-2:78536:0",
                "leaf": "subtitle",
                "type": "Leaf"
            },
            {
                "data": "-2:37882:0",
                "leaf": "subtitle",
                "type": "Leaf"
            },
            {
                "data": "-2:55464:0",
                "leaf": "subtitle",
                "type": "Leaf"
            },
            {
                "data": "-2:76027:0",
                "leaf": "subtitle",
                "type": "Leaf"
            },
            {
                "data": "-2:36467:0",
                "leaf": "subtitle",
                "type": "Leaf"
            },
            {
                "data": "-2:37148:0",
                "leaf": "subtitle",
                "type": "Leaf"
            },
            {
                "data": "-2:76360:0",
                "leaf": "subtitle",
                "type": "Leaf"
            },
            {
                "data": "-2:58394:0",
                "leaf": "subtitle",
                "type": "Leaf"
            },
            {
                "data": "-2:78900:0",
                "leaf": "subtitle",
                "type": "Leaf"
            },
            {
                "data": "-2:38279:0",
                "leaf": "subtitle",
                "type": "Leaf"
            },
            {
                "data": "-2:57943:0",
                "leaf": "subtitle",
                "type": "Leaf"
            },
            {
                "data": "-2:78847:0",
                "leaf": "subtitle",
                "type": "Leaf"
            },
            {
                "data": "-2:38194:0",
                "leaf": "subtitle",
                "type": "Leaf"
            },
            {
                "data": "-2:15854:0",
                "leaf": "subtitle",
                "type": "Leaf"
            },
            {
                "data": "-2:106667:0",
                "leaf": "subtitle",
                "type": "Leaf"
            },
            {
                "data": "-2:56253:0",
                "leaf": "subtitle",
                "type": "Leaf"
            },
            {
                "data": "-2:78626:0",
                "leaf": "subtitle",
                "type": "Leaf"
            },
            {
                "data": "-2:37942:0",
                "leaf": "subtitle",
                "type": "Leaf"
            },
            {
                "data": "-2:14690:0",
                "leaf": "subtitle",
                "type": "Leaf"
            },
            {
                "data": "-2:106260:0",
                "leaf": "subtitle",
                "type": "Leaf"
            },
            {
                "data": "-2:56103:0",
                "leaf": "subtitle",
                "type": "Leaf"
            },
            {
                "data": "-2:77746:0",
                "leaf": "subtitle",
                "type": "Leaf"
            },
            {
                "data": "-2:37663:0",
                "leaf": "subtitle",
                "type": "Leaf"
            },
            {
                "data": "-2:15905:0",
                "leaf": "subtitle",
                "type": "Leaf"
            },
            {
                "data": "-2:106764:0",
                "leaf": "subtitle",
                "type": "Leaf"
            },
            {
                "data": "-2:56317:0",
                "leaf": "subtitle",
                "type": "Leaf"
            },
            {
                "data": "-2:78745:0",
                "leaf": "subtitle",
                "type": "Leaf"
            },
            {
                "data": "-2:38013:0",
                "leaf": "subtitle",
                "type": "Leaf"
            },
            {
                "data": "-2:15059:0",
                "leaf": "subtitle",
                "type": "Leaf"
            },
            {
                "data": "-2:106470:0",
                "leaf": "subtitle",
                "type": "Leaf"
            },
            {
                "data": "-2:56143:0",
                "leaf": "subtitle",
                "type": "Leaf"
            },
            {
                "data": "-2:78457:0",
                "leaf": "subtitle",
                "type": "Leaf"
            },
            {
                "data": "-2:37747:0",
                "leaf": "subtitle",
                "type": "Leaf"
            },
            {
                "data": "-2:78757:0",
                "leaf": "subtitle",
                "type": "Leaf"
            },
            {
                "data": "-2:38357:0",
                "leaf": "subtitle",
                "type": "Leaf"
            },
            {
                "data": "-2:78983:0",
                "leaf": "subtitle",
                "type": "Leaf"
            },
            {
                "data": "-2:76193:0",
                "leaf": "subtitle",
                "type": "Leaf"
            },
            {
                "data": "-2:37052:0",
                "leaf": "subtitle",
                "type": "Leaf"
            },
            {
                "data": "-2:62179:0",
                "leaf": "subtitle",
                "type": "Leaf"
            },
            {
                "data": "-2:39108:0",
                "leaf": "subtitle",
                "type": "Leaf"
            },
            {
                "data": "-2:76141:0",
                "leaf": "subtitle",
                "type": "Leaf"
            },
            {
                "data": "-2:36980:0",
                "leaf": "subtitle",
                "type": "Leaf"
            },
            {
                "data": "-2:55392:0",
                "leaf": "subtitle",
                "type": "Leaf"
            },
            {
                "data": "-2:75838:0",
                "leaf": "subtitle",
                "type": "Leaf"
            },
            {
                "data": "-2:36411:0",
                "leaf": "subtitle",
                "type": "Leaf"
            },
            {
                "data": "-2:55162:0",
                "leaf": "subtitle",
                "type": "Leaf"
            },
            {
                "data": "-2:75554:0",
                "leaf": "subtitle",
                "type": "Leaf"
            },
            {
                "data": "-2:35944:0",
                "leaf": "subtitle",
                "type": "Leaf"
            },
            {
                "data": "-2:75498:0",
                "leaf": "subtitle",
                "type": "Leaf"
            },
            {
                "data": "-2:35805:0",
                "leaf": "subtitle",
                "type": "Leaf"
            },
            {
                "data": "-2:65583:0",
                "leaf": "subtitle",
                "type": "Leaf"
            },
            {
                "data": "-2:22166:0",
                "leaf": "subtitle",
                "type": "Leaf"
            },
            {
                "data": "2:69104:-1",
                "leaf": "clip",
                "type": "Leaf"
            },
            {
                "data": "-2:54921:0",
                "leaf": "subtitle",
                "type": "Leaf"
            },
            {
                "data": "-2:75439:0",
                "leaf": "subtitle",
                "type": "Leaf"
            },
            {
                "data": "-2:35588:0",
                "leaf": "subtitle",
                "type": "Leaf"
            },
            {
                "data": "-2:54559:0",
                "leaf": "subtitle",
                "type": "Leaf"
            },
            {
                "data": "-2:75316:0",
                "leaf": "subtitle",
                "type": "Leaf"
            },
            {
                "data": "1:101746:-1",
                "leaf": "clip",
                "type": "Leaf"
            },
            {
                "data": "-2:35497:0",
                "leaf": "subtitle",
                "type": "Leaf"
            },
            {
                "data": "-2:17933:0",
                "leaf": "subtitle",
                "type": "Leaf"
            },
            {
                "data": "1:37250:-1",
                "leaf": "clip",
                "type": "Leaf"
            },
            {
                "data": "3:59054:-1",
                "leaf": "clip",
                "type": "Leaf"
            },
            {
                "data": "-2:26218:0",
                "leaf": "subtitle",
                "type": "Leaf"
            },
            {
                "data": "-2:20756:0",
                "leaf": "subtitle",
                "type": "Leaf"
            },
            {
                "data": "1:62401:-1",
                "leaf": "clip",
                "type": "Leaf"
            },
            {
                "data": "1:31843:-1",
                "leaf": "clip",
                "type": "Leaf"
            },
            {
                "data": "-2:17795:0",
                "leaf": "subtitle",
                "type": "Leaf"
            },
            {
                "data": "-2:79139:0",
                "leaf": "subtitle",
                "type": "Leaf"
            },
            {
                "data": "-2:38515:0",
                "leaf": "subtitle",
                "type": "Leaf"
            },
            {
                "data": "-2:79097:0",
                "leaf": "subtitle",
                "type": "Leaf"
            },
            {
                "data": "-2:38474:0",
                "leaf": "subtitle",
                "type": "Leaf"
            },
            {
                "data": "1:104027:-1",
                "leaf": "clip",
                "type": "Leaf"
            },
            {
                "data": "-2:79052:0",
                "leaf": "subtitle",
                "type": "Leaf"
            },
            {
                "data": "-2:38410:0",
                "leaf": "subtitle",
                "type": "Leaf"
            },
            {
                "data": "-2:99865:0",
                "leaf": "subtitle",
                "type": "Leaf"
            },
            {
                "data": "-2:100148:0",
                "leaf": "subtitle",
                "type": "Leaf"
            },
            {
                "data": "-2:100452:0",
                "leaf": "subtitle",
                "type": "Leaf"
            },
            {
                "data": "-2:100549:0",
                "leaf": "subtitle",
                "type": "Leaf"
            },
            {
                "data": "-2:24498:0",
                "leaf": "subtitle",
                "type": "Leaf"
            },
            {
                "data": "2:102470:-1",
                "leaf": "clip",
                "type": "Leaf"
            },
            {
                "data": "-2:24684:0",
                "leaf": "subtitle",
                "type": "Leaf"
            },
            {
                "data": "-2:24878:0",
                "leaf": "subtitle",
                "type": "Leaf"
            },
            {
                "data": "3:11700:-1",
                "leaf": "clip",
                "type": "Leaf"
            },
            {
                "data": "-2:22253:0",
                "leaf": "subtitle",
                "type": "Leaf"
            },
            {
                "data": "2:69480:-1",
                "leaf": "clip",
                "type": "Leaf"
            },
            {
                "data": "1:50123:-1",
                "leaf": "clip",
                "type": "Leaf"
            },
            {
                "data": "-2:19017:0",
                "leaf": "subtitle",
                "type": "Leaf"
            },
            {
                "data": "-2:22325:0",
                "leaf": "subtitle",
                "type": "Leaf"
            },
            {
                "data": "2:71198:-1",
                "leaf": "clip",
                "type": "Leaf"
            },
            {
                "data": "-2:105414:0",
                "leaf": "subtitle",
                "type": "Leaf"
            },
            {
                "data": "-2:12350:0",
                "leaf": "subtitle",
                "type": "Leaf"
            },
            {
                "data": "-2:105529:0",
                "leaf": "subtitle",
                "type": "Leaf"
            },
            {
                "data": "-2:13637:0",
                "leaf": "subtitle",
                "type": "Leaf"
            },
            {
                "data": "-2:105915:0",
                "leaf": "subtitle",
                "type": "Leaf"
            },
            {
                "data": "-2:14007:0",
                "leaf": "subtitle",
                "type": "Leaf"
            },
            {
                "data": "-2:94813:0",
                "leaf": "subtitle",
                "type": "Leaf"
            },
            {
                "data": "-2:68843:0",
                "leaf": "subtitle",
                "type": "Leaf"
            },
            {
                "data": "-2:94976:0",
                "leaf": "subtitle",
                "type": "Leaf"
            },
            {
                "data": "-2:69424:0",
                "leaf": "subtitle",
                "type": "Leaf"
            },
            {
                "data": "-2:95033:0",
                "leaf": "subtitle",
                "type": "Leaf"
            },
            {
                "data": "-2:95282:0",
                "leaf": "subtitle",
                "type": "Leaf"
            },
            {
                "data": "-2:51945:0",
                "leaf": "subtitle",
                "type": "Leaf"
            },
            {
                "data": "-2:97164:0",
                "leaf": "subtitle",
                "type": "Leaf"
            },
            {
                "data": "-2:51990:0",
                "leaf": "subtitle",
                "type": "Leaf"
            },
            {
                "data": "-2:14192:0",
                "leaf": "subtitle",
                "type": "Leaf"
            },
            {
                "data": "-2:106026:0",
                "leaf": "subtitle",
                "type": "Leaf"
            },
            {
                "data": "-2:97338:0",
                "leaf": "subtitle",
                "type": "Leaf"
            },
            {
                "data": "-2:11989:0",
                "leaf": "subtitle",
                "type": "Leaf"
            },
            {
                "data": "-2:104995:0",
                "leaf": "subtitle",
                "type": "Leaf"
            },
            {
                "data": "-2:95328:0",
                "leaf": "subtitle",
                "type": "Leaf"
            },
            {
                "data": "-2:67707:0",
                "leaf": "subtitle",
                "type": "Leaf"
            },
            {
                "data": "-2:52102:0",
                "leaf": "subtitle",
                "type": "Leaf"
            },
            {
                "data": "-2:14282:0",
                "leaf": "subtitle",
                "type": "Leaf"
            },
            {
                "data": "-2:106098:0",
                "leaf": "subtitle",
                "type": "Leaf"
            },
            {
                "data": "-2:98595:0",
                "leaf": "subtitle",
                "type": "Leaf"
            },
            {
                "data": "-2:94857:0",
                "leaf": "subtitle",
                "type": "Leaf"
            },
            {
                "data": "-2:91986:0",
                "leaf": "subtitle",
                "type": "Leaf"
            },
            {
                "data": "-2:52201:0",
                "leaf": "subtitle",
                "type": "Leaf"
            },
            {
                "data": "-2:98683:0",
                "leaf": "subtitle",
                "type": "Leaf"
            },
            {
                "data": "-2:69974:0",
                "leaf": "subtitle",
                "type": "Leaf"
            },
            {
                "data": "-2:94910:0",
                "leaf": "subtitle",
                "type": "Leaf"
            },
            {
                "data": "-2:92080:0",
                "leaf": "subtitle",
                "type": "Leaf"
            },
            {
                "data": "-2:66900:0",
                "leaf": "subtitle",
                "type": "Leaf"
            },
            {
                "data": "-2:95490:0",
                "leaf": "subtitle",
                "type": "Leaf"
            },
            {
                "data": "-2:92579:0",
                "leaf": "subtitle",
                "type": "Leaf"
            },
            {
                "data": "-2:67563:0",
                "leaf": "subtitle",
                "type": "Leaf"
            },
            {
                "data": "-2:98742:0",
                "leaf": "subtitle",
                "type": "Leaf"
            },
            {
                "data": "-2:96442:0",
                "leaf": "subtitle",
                "type": "Leaf"
            },
            {
                "data": "-2:92653:0",
                "leaf": "subtitle",
                "type": "Leaf"
            },
            {
                "data": "-2:67660:0",
                "leaf": "subtitle",
                "type": "Leaf"
            },
            {
                "data": "-2:98880:0",
                "leaf": "subtitle",
                "type": "Leaf"
            },
            {
                "data": "-2:92700:0",
                "leaf": "subtitle",
                "type": "Leaf"
            },
            {
                "data": "-2:96542:0",
                "leaf": "subtitle",
                "type": "Leaf"
            },
            {
                "data": "-2:51450:0",
                "leaf": "subtitle",
                "type": "Leaf"
            },
            {
                "data": "-2:51855:0",
                "leaf": "subtitle",
                "type": "Leaf"
            },
            {
                "data": "-2:13899:0",
                "leaf": "subtitle",
                "type": "Leaf"
            },
            {
                "data": "-2:105751:0",
                "leaf": "subtitle",
                "type": "Leaf"
            },
            {
                "data": "-2:97075:0",
                "leaf": "subtitle",
                "type": "Leaf"
            },
            {
                "data": "-2:95366:0",
                "leaf": "subtitle",
                "type": "Leaf"
            },
            {
                "data": "-2:92537:0",
                "leaf": "subtitle",
                "type": "Leaf"
            },
            {
                "data": "-2:66847:0",
                "leaf": "subtitle",
                "type": "Leaf"
            },
            {
                "data": "-2:26136:0",
                "leaf": "subtitle",
                "type": "Leaf"
            },
            {
                "data": "3:56921:-1",
                "leaf": "clip",
                "type": "Leaf"
            },
            {
                "data": "-2:66296:0",
                "leaf": "subtitle",
                "type": "Leaf"
            },
            {
                "data": "-2:22969:0",
                "leaf": "subtitle",
                "type": "Leaf"
            },
            {
                "data": "-2:25582:0",
                "leaf": "subtitle",
                "type": "Leaf"
            },
            {
                "data": "3:15777:-1",
                "leaf": "clip",
                "type": "Leaf"
            },
            {
                "data": "-2:105703:0",
                "leaf": "subtitle",
                "type": "Leaf"
            },
            {
                "data": "-2:13862:0",
                "leaf": "subtitle",
                "type": "Leaf"
            },
            {
                "data": "-2:19376:0",
                "leaf": "subtitle",
                "type": "Leaf"
            },
            {
                "data": "1:65737:-1",
                "leaf": "clip",
                "type": "Leaf"
            },
            {
                "data": "-2:66398:0",
                "leaf": "subtitle",
                "type": "Leaf"
            },
            {
                "data": "2:12127:-1",
                "leaf": "clip",
                "type": "Leaf"
            },
            {
                "data": "-2:23055:0",
                "leaf": "subtitle",
                "type": "Leaf"
            },
            {
                "data": "-2:25629:0",
                "leaf": "subtitle",
                "type": "Leaf"
            },
            {
                "data": "3:25459:-1",
                "leaf": "clip",
                "type": "Leaf"
            },
            {
                "data": "-2:66964:0",
                "leaf": "subtitle",
                "type": "Leaf"
            },
            {
                "data": "-2:26304:0",
                "leaf": "subtitle",
                "type": "Leaf"
            },
            {
                "data": "3:60661:-1",
                "leaf": "clip",
                "type": "Leaf"
            },
            {
                "data": "-2:23164:0",
                "leaf": "subtitle",
                "type": "Leaf"
            },
            {
                "data": "2:12784:-1",
                "leaf": "clip",
                "type": "Leaf"
            },
            {
                "data": "-2:19771:0",
                "leaf": "subtitle",
                "type": "Leaf"
            },
            {
                "data": "1:69469:-1",
                "leaf": "clip",
                "type": "Leaf"
            },
            {
                "data": "-2:66424:0",
                "leaf": "subtitle",
                "type": "Leaf"
            },
            {
                "data": "-2:25741:0",
                "leaf": "subtitle",
                "type": "Leaf"
            },
            {
                "data": "3:36577:-1",
                "leaf": "clip",
                "type": "Leaf"
            },
            {
                "data": "-2:69860:0",
                "leaf": "subtitle",
                "type": "Leaf"
            },
            {
                "data": "-2:51774:0",
                "leaf": "subtitle",
                "type": "Leaf"
            },
            {
                "data": "-2:96966:0",
                "leaf": "subtitle",
                "type": "Leaf"
            },
            {
                "data": "-2:31164:0",
                "leaf": "subtitle",
                "type": "Leaf"
            },
            {
                "data": "3:83165:-1",
                "leaf": "clip",
                "type": "Leaf"
            },
            {
                "data": "-2:27374:0",
                "leaf": "subtitle",
                "type": "Leaf"
            },
            {
                "data": "-2:31389:0",
                "leaf": "subtitle",
                "type": "Leaf"
            },
            {
                "data": "3:88009:-1",
                "leaf": "clip",
                "type": "Leaf"
            },
            {
                "data": "-2:27500:0",
                "leaf": "subtitle",
                "type": "Leaf"
            },
            {
                "data": "-2:67970:0",
                "leaf": "subtitle",
                "type": "Leaf"
            },
            {
                "data": "-2:92930:0",
                "leaf": "subtitle",
                "type": "Leaf"
            },
            {
                "data": "-2:69831:0",
                "leaf": "subtitle",
                "type": "Leaf"
            },
            {
                "data": "-2:67924:0",
                "leaf": "subtitle",
                "type": "Leaf"
            },
            {
                "data": "3:63165:-1",
                "leaf": "clip",
                "type": "Leaf"
            },
            {
                "data": "-2:26501:0",
                "leaf": "subtitle",
                "type": "Leaf"
            },
            {
                "data": "-2:67823:0",
                "leaf": "subtitle",
                "type": "Leaf"
            },
            {
                "data": "-2:69469:0",
                "leaf": "subtitle",
                "type": "Leaf"
            },
            {
                "data": "-2:21082:0",
                "leaf": "subtitle",
                "type": "Leaf"
            },
            {
                "data": "2:11700:-1",
                "leaf": "clip",
                "type": "Leaf"
            },
            {
                "data": "-2:17676:0",
                "leaf": "subtitle",
                "type": "Leaf"
            },
            {
                "data": "1:25446:-1",
                "leaf": "clip",
                "type": "Leaf"
            },
            {
                "data": "2:17961:-1",
                "leaf": "clip",
                "type": "Leaf"
            },
            {
                "data": "-2:21443:0",
                "leaf": "subtitle",
                "type": "Leaf"
            },
            {
                "data": "-2:84747:0",
                "leaf": "subtitle",
                "type": "Leaf"
            },
            {
                "data": "3:40569:-1",
                "leaf": "clip",
                "type": "Leaf"
            },
            {
                "data": "-2:25908:0",
                "leaf": "subtitle",
                "type": "Leaf"
            },
            {
                "data": "-2:23438:0",
                "leaf": "subtitle",
                "type": "Leaf"
            },
            {
                "data": "2:15772:-1",
                "leaf": "clip",
                "type": "Leaf"
            },
            {
                "data": "3:77526:-1",
                "leaf": "clip",
                "type": "Leaf"
            },
            {
                "data": "-2:27281:0",
                "leaf": "subtitle",
                "type": "Leaf"
            },
            {
                "data": "-2:30704:0",
                "leaf": "subtitle",
                "type": "Leaf"
            },
            {
                "data": "-2:51703:0",
                "leaf": "subtitle",
                "type": "Leaf"
            },
            {
                "data": "-2:13718:0",
                "leaf": "subtitle",
                "type": "Leaf"
            },
            {
                "data": "-2:105607:0",
                "leaf": "subtitle",
                "type": "Leaf"
            },
            {
                "data": "-2:96879:0",
                "leaf": "subtitle",
                "type": "Leaf"
            },
            {
                "data": "-2:20572:0",
                "leaf": "subtitle",
                "type": "Leaf"
            },
            {
                "data": "1:97657:-1",
                "leaf": "clip",
                "type": "Leaf"
            },
            {
                "data": "-2:66737:0",
                "leaf": "subtitle",
                "type": "Leaf"
            },
            {
                "data": "-2:26067:0",
                "leaf": "subtitle",
                "type": "Leaf"
            },
            {
                "data": "-2:22628:0",
                "leaf": "subtitle",
                "type": "Leaf"
            },
            {
                "data": "2:88069:-1",
                "leaf": "clip",
                "type": "Leaf"
            },
            {
                "data": "-2:66581:0",
                "leaf": "subtitle",
                "type": "Leaf"
            },
            {
                "data": "2:13844:-1",
                "leaf": "clip",
                "type": "Leaf"
            },
            {
                "data": "-2:23225:0",
                "leaf": "subtitle",
                "type": "Leaf"
            },
            {
                "data": "-2:67021:0",
                "leaf": "subtitle",
                "type": "Leaf"
            },
            {
                "data": "-2:26344:0",
                "leaf": "subtitle",
                "type": "Leaf"
            },
            {
                "data": "3:60877:-1",
                "leaf": "clip",
                "type": "Leaf"
            },
            {
                "data": "-2:17534:0",
                "leaf": "subtitle",
                "type": "Leaf"
            },
            {
                "data": "1:20368:-1",
                "leaf": "clip",
                "type": "Leaf"
            },
            {
                "data": "-2:53855:0",
                "leaf": "subtitle",
                "type": "Leaf"
            },
            {
                "data": "-2:66633:0",
                "leaf": "subtitle",
                "type": "Leaf"
            },
            {
                "data": "1:60022:-1",
                "leaf": "clip",
                "type": "Leaf"
            },
            {
                "data": "-2:19214:0",
                "leaf": "subtitle",
                "type": "Leaf"
            },
            {
                "data": "-2:22472:0",
                "leaf": "subtitle",
                "type": "Leaf"
            },
            {
                "data": "2:83160:-1",
                "leaf": "clip",
                "type": "Leaf"
            },
            {
                "data": "-2:20316:0",
                "leaf": "subtitle",
                "type": "Leaf"
            },
            {
                "data": "1:86996:-1",
                "leaf": "clip",
                "type": "Leaf"
            },
            {
                "data": "-2:20623:0",
                "leaf": "subtitle",
                "type": "Leaf"
            },
            {
                "data": "1:39427:-1",
                "leaf": "clip",
                "type": "Leaf"
            },
            {
                "data": "-2:20873:0",
                "leaf": "subtitle",
                "type": "Leaf"
            },
            {
                "data": "1:77568:-1",
                "leaf": "clip",
                "type": "Leaf"
            },
            {
                "data": "-2:83387:0",
                "leaf": "subtitle",
                "type": "Leaf"
            },
            {
                "data": "-2:66264:0",
                "leaf": "subtitle",
                "type": "Leaf"
            },
            {
                "data": "2:107320:-1",
                "leaf": "clip",
                "type": "Leaf"
            },
            {
                "data": "-2:22930:0",
                "leaf": "subtitle",
                "type": "Leaf"
            },
            {
                "data": "-2:25414:0",
                "leaf": "subtitle",
                "type": "Leaf"
            },
            {
                "data": "2:100415:-1",
                "leaf": "clip",
                "type": "Leaf"
            },
            {
                "data": "-2:22812:0",
                "leaf": "subtitle",
                "type": "Leaf"
            },
            {
                "data": "-2:25361:0",
                "leaf": "subtitle",
                "type": "Leaf"
            },
            {
                "data": "-2:68477:0",
                "leaf": "subtitle",
                "type": "Leaf"
            },
            {
                "data": "3:13997:-1",
                "leaf": "clip",
                "type": "Leaf"
            },
            {
                "data": "-2:25255:0",
                "leaf": "subtitle",
                "type": "Leaf"
            },
            {
                "data": "-2:22703:0",
                "leaf": "subtitle",
                "type": "Leaf"
            },
            {
                "data": "2:97657:-1",
                "leaf": "clip",
                "type": "Leaf"
            },
            {
                "data": "-2:25148:0",
                "leaf": "subtitle",
                "type": "Leaf"
            },
            {
                "data": "3:13849:-1",
                "leaf": "clip",
                "type": "Leaf"
            },
            {
                "data": "-2:25110:0",
                "leaf": "subtitle",
                "type": "Leaf"
            },
            {
                "data": "2:75066:-1",
                "leaf": "clip",
                "type": "Leaf"
            },
            {
                "data": "-2:22381:0",
                "leaf": "subtitle",
                "type": "Leaf"
            },
            {
                "data": "-2:25057:0",
                "leaf": "subtitle",
                "type": "Leaf"
            },
            {
                "data": "3:12784:-1",
                "leaf": "clip",
                "type": "Leaf"
            },
            {
                "data": "-2:68301:0",
                "leaf": "subtitle",
                "type": "Leaf"
            },
            {
                "data": "-2:25025:0",
                "leaf": "subtitle",
                "type": "Leaf"
            },
            {
                "data": "3:12321:-1",
                "leaf": "clip",
                "type": "Leaf"
            },
            {
                "data": "-2:83511:0",
                "leaf": "subtitle",
                "type": "Leaf"
            },
            {
                "data": "-2:86706:0",
                "leaf": "subtitle",
                "type": "Leaf"
            },
            {
                "data": "-2:92789:0",
                "leaf": "subtitle",
                "type": "Leaf"
            },
            {
                "data": "-2:84699:0",
                "leaf": "subtitle",
                "type": "Leaf"
            },
            {
                "data": "-2:86822:0",
                "leaf": "subtitle",
                "type": "Leaf"
            },
            {
                "data": "-2:92845:0",
                "leaf": "subtitle",
                "type": "Leaf"
            },
            {
                "data": "-2:84855:0",
                "leaf": "subtitle",
                "type": "Leaf"
            },
            {
                "data": "-2:93034:0",
                "leaf": "subtitle",
                "type": "Leaf"
            },
            {
                "data": "-2:85723:0",
                "leaf": "subtitle",
                "type": "Leaf"
            },
            {
                "data": "-2:93152:0",
                "leaf": "subtitle",
                "type": "Leaf"
            },
            {
                "data": "-2:93223:0",
                "leaf": "subtitle",
                "type": "Leaf"
            },
            {
                "data": "-2:68056:0",
                "leaf": "subtitle",
                "type": "Leaf"
            },
            {
                "data": "-2:68183:0",
                "leaf": "subtitle",
                "type": "Leaf"
            },
            {
                "data": "-2:68227:0",
                "leaf": "subtitle",
                "type": "Leaf"
            },
            {
                "data": "-2:67775:0",
                "leaf": "subtitle",
                "type": "Leaf"
            },
            {
                "data": "-2:86634:0",
                "leaf": "subtitle",
                "type": "Leaf"
            },
            {
                "data": "-2:92771:0",
                "leaf": "subtitle",
                "type": "Leaf"
            },
            {
                "data": "-2:96832:0",
                "leaf": "subtitle",
                "type": "Leaf"
            },
            {
                "data": "-2:26438:0",
                "leaf": "subtitle",
                "type": "Leaf"
            },
            {
                "data": "-2:67176:0",
                "leaf": "subtitle",
                "type": "Leaf"
            },
            {
                "data": "-2:51576:0",
                "leaf": "subtitle",
                "type": "Leaf"
            },
            {
                "data": "-2:67239:0",
                "leaf": "subtitle",
                "type": "Leaf"
            },
            {
                "data": "-2:92502:0",
                "leaf": "subtitle",
                "type": "Leaf"
            },
            {
                "data": "-2:84615:0",
                "leaf": "subtitle",
                "type": "Leaf"
            },
            {
                "data": "-2:67510:0",
                "leaf": "subtitle",
                "type": "Leaf"
            },
            {
                "data": "-2:52869:0",
                "leaf": "subtitle",
                "type": "Leaf"
            },
            {
                "data": "-2:16320:0",
                "leaf": "subtitle",
                "type": "Leaf"
            },
            {
                "data": "-2:28135:0",
                "leaf": "subtitle",
                "type": "Leaf"
            },
            {
                "data": "3:17961:-1",
                "leaf": "clip",
                "type": "Leaf"
            },
            {
                "data": "-2:33236:0",
                "leaf": "subtitle",
                "type": "Leaf"
            },
            {
                "data": "1:100004:-1",
                "leaf": "clip",
                "type": "Leaf"
            },
            {
                "data": "-2:57577:0",
                "leaf": "subtitle",
                "type": "Leaf"
            },
            {
                "data": "-2:38115:0",
                "leaf": "subtitle",
                "type": "Leaf"
            },
            {
                "data": "-2:52757:0",
                "leaf": "subtitle",
                "type": "Leaf"
            },
            {
                "data": "-2:16099:0",
                "leaf": "subtitle",
                "type": "Leaf"
            },
            {
                "data": "0:69104:-1",
                "leaf": "clip",
                "type": "Leaf"
            },
            {
                "data": "2:56916:-1",
                "leaf": "clip",
                "type": "Leaf"
            },
            {
                "data": "-2:21744:0",
                "leaf": "subtitle",
                "type": "Leaf"
            },
            {
                "data": "-2:104962:0",
                "leaf": "subtitle",
                "type": "Leaf"
            },
            {
                "data": "-2:11681:0",
                "leaf": "subtitle",
                "type": "Leaf"
            },
            {
                "data": "-2:53628:0",
                "leaf": "subtitle",
                "type": "Leaf"
            },
            {
                "data": "-2:17300:0",
                "leaf": "subtitle",
                "type": "Leaf"
            },
            {
                "data": "1:15777:-1",
                "leaf": "clip",
                "type": "Leaf"
            },
            {
                "data": "-2:103487:0",
                "leaf": "subtitle",
                "type": "Leaf"
            },
            {
                "data": "-2:53417:0",
                "leaf": "subtitle",
                "type": "Leaf"
            },
            {
                "data": "-2:16790:0",
                "leaf": "subtitle",
                "type": "Leaf"
            },
            {
                "data": "-2:32987:0",
                "leaf": "subtitle",
                "type": "Leaf"
            },
            {
                "data": "3:102475:-1",
                "leaf": "clip",
                "type": "Leaf"
            },
            {
                "data": "-2:27954:0",
                "leaf": "subtitle",
                "type": "Leaf"
            },
            {
                "data": "-2:102362:0",
                "leaf": "subtitle",
                "type": "Leaf"
            },
            {
                "data": "-2:53338:0",
                "leaf": "subtitle",
                "type": "Leaf"
            },
            {
                "data": "-2:16660:0",
                "leaf": "subtitle",
                "type": "Leaf"
            },
            {
                "data": "-2:28336:0",
                "leaf": "subtitle",
                "type": "Leaf"
            },
            {
                "data": "3:88069:-1",
                "leaf": "clip",
                "type": "Leaf"
            },
            {
                "data": "-2:33718:0",
                "leaf": "subtitle",
                "type": "Leaf"
            },
            {
                "data": "-2:53132:0",
                "leaf": "subtitle",
                "type": "Leaf"
            },
            {
                "data": "-2:16525:0",
                "leaf": "subtitle",
                "type": "Leaf"
            },
            {
                "data": "-2:21628:0",
                "leaf": "subtitle",
                "type": "Leaf"
            },
            {
                "data": "2:42189:-1",
                "leaf": "clip",
                "type": "Leaf"
            },
            {
                "data": "-2:28287:0",
                "leaf": "subtitle",
                "type": "Leaf"
            },
            {
                "data": "3:42182:-1",
                "leaf": "clip",
                "type": "Leaf"
            },
            {
                "data": "-2:33577:0",
                "leaf": "subtitle",
                "type": "Leaf"
            },
            {
                "data": "-2:52925:0",
                "leaf": "subtitle",
                "type": "Leaf"
            },
            {
                "data": "-2:16454:0",
                "leaf": "subtitle",
                "type": "Leaf"
            },
            {
                "data": "3:40422:-1",
                "leaf": "clip",
                "type": "Leaf"
            },
            {
                "data": "-2:28237:0",
                "leaf": "subtitle",
                "type": "Leaf"
            },
            {
                "data": "-2:33467:0",
                "leaf": "subtitle",
                "type": "Leaf"
            },
            {
                "data": "1:57145:-1",
                "leaf": "clip",
                "type": "Leaf"
            },
            {
                "data": "-2:19135:0",
                "leaf": "subtitle",
                "type": "Leaf"
            },
            {
                "data": "-2:28989:0",
                "leaf": "subtitle",
                "type": "Leaf"
            },
            {
                "children": [
                    {
                        "data": "3:63011:-1",
                        "leaf": "clip",
                        "type": "Leaf"
                    },
                    {
                        "data": "2:63006:-1",
                        "leaf": "clip",
                        "type": "Leaf"
                    }
                ],
                "type": "Normal"
            },
            {
                "data": "-2:19823:0",
                "leaf": "subtitle",
                "type": "Leaf"
            },
            {
                "data": "1:77418:-1",
                "leaf": "clip",
                "type": "Leaf"
            },
            {
                "data": "-2:21134:0",
                "leaf": "subtitle",
                "type": "Leaf"
            },
            {
                "data": "2:12316:-1",
                "leaf": "clip",
                "type": "Leaf"
            },
            {
                "data": "3:64507:-1",
                "leaf": "clip",
                "type": "Leaf"
            },
            {
                "data": "-2:26610:0",
                "leaf": "subtitle",
                "type": "Leaf"
            },
            {
                "data": "-2:29058:0",
                "leaf": "subtitle",
                "type": "Leaf"
            },
            {
                "data": "-2:56380:0",
                "leaf": "subtitle",
                "type": "Leaf"
            },
            {
                "data": "-2:21173:0",
                "leaf": "subtitle",
                "type": "Leaf"
            },
            {
                "data": "-2:26692:0",
                "leaf": "subtitle",
                "type": "Leaf"
            },
            {
                "data": "3:69109:-1",
                "leaf": "clip",
                "type": "Leaf"
            },
            {
                "data": "-2:29176:0",
                "leaf": "subtitle",
                "type": "Leaf"
            },
            {
                "data": "-2:56614:0",
                "leaf": "subtitle",
                "type": "Leaf"
            },
            {
                "data": "-2:21255:0",
                "leaf": "subtitle",
                "type": "Leaf"
            },
            {
                "data": "2:13992:-1",
                "leaf": "clip",
                "type": "Leaf"
            },
            {
                "data": "-2:43141:0",
                "leaf": "subtitle",
                "type": "Leaf"
            },
            {
                "data": "-2:42906:0",
                "leaf": "subtitle",
                "type": "Leaf"
            },
            {
                "data": "-2:87330:0",
                "leaf": "subtitle",
                "type": "Leaf"
            },
            {
                "data": "-2:43516:0",
                "leaf": "subtitle",
                "type": "Leaf"
            },
            {
                "data": "-2:42976:0",
                "leaf": "subtitle",
                "type": "Leaf"
            },
            {
                "data": "-2:87475:0",
                "leaf": "subtitle",
                "type": "Leaf"
            },
            {
                "data": "-2:43042:0",
                "leaf": "subtitle",
                "type": "Leaf"
            },
            {
                "data": "-2:87518:0",
                "leaf": "subtitle",
                "type": "Leaf"
            },
            {
                "data": "-2:25816:0",
                "leaf": "subtitle",
                "type": "Leaf"
            },
            {
                "data": "3:40416:-1",
                "leaf": "clip",
                "type": "Leaf"
            },
            {
                "data": "-2:87906:0",
                "leaf": "subtitle",
                "type": "Leaf"
            },
            {
                "data": "-2:43662:0",
                "leaf": "subtitle",
                "type": "Leaf"
            },
            {
                "data": "-2:89234:0",
                "leaf": "subtitle",
                "type": "Leaf"
            },
            {
                "data": "-2:44222:0",
                "leaf": "subtitle",
                "type": "Leaf"
            },
            {
                "data": "-2:44701:0",
                "leaf": "subtitle",
                "type": "Leaf"
            },
            {
                "data": "-2:43589:0",
                "leaf": "subtitle",
                "type": "Leaf"
            },
            {
                "data": "-2:87816:0",
                "leaf": "subtitle",
                "type": "Leaf"
            },
            {
                "data": "-2:45260:0",
                "leaf": "subtitle",
                "type": "Leaf"
            },
            {
                "data": "-2:91768:0",
                "leaf": "subtitle",
                "type": "Leaf"
            },
            {
                "data": "-2:45884:0",
                "leaf": "subtitle",
                "type": "Leaf"
            },
            {
                "data": "-2:45352:0",
                "leaf": "subtitle",
                "type": "Leaf"
            },
            {
                "data": "-2:91793:0",
                "leaf": "subtitle",
                "type": "Leaf"
            },
            {
                "data": "-2:45956:0",
                "leaf": "subtitle",
                "type": "Leaf"
            },
            {
                "data": "-2:91940:0",
                "leaf": "subtitle",
                "type": "Leaf"
            },
            {
                "data": "-2:45821:0",
                "leaf": "subtitle",
                "type": "Leaf"
            },
            {
                "data": "-2:105271:0",
                "leaf": "subtitle",
                "type": "Leaf"
            },
            {
                "data": "-2:12241:0",
                "leaf": "subtitle",
                "type": "Leaf"
            },
            {
                "data": "-2:50860:0",
                "leaf": "subtitle",
                "type": "Leaf"
            },
            {
                "data": "-2:46712:0",
                "leaf": "subtitle",
                "type": "Leaf"
            },
            {
                "data": "-2:26719:0",
                "leaf": "subtitle",
                "type": "Leaf"
            },
            {
                "data": "3:69492:-1",
                "leaf": "clip",
                "type": "Leaf"
            },
            {
                "data": "-2:50989:0",
                "leaf": "subtitle",
                "type": "Leaf"
            },
            {
                "data": "-2:105104:0",
                "leaf": "subtitle",
                "type": "Leaf"
            },
            {
                "data": "-2:12071:0",
                "leaf": "subtitle",
                "type": "Leaf"
            },
            {
                "data": "-2:46796:0",
                "leaf": "subtitle",
                "type": "Leaf"
            },
            {
                "data": "-2:26872:0",
                "leaf": "subtitle",
                "type": "Leaf"
            },
            {
                "data": "3:69529:-1",
                "leaf": "clip",
                "type": "Leaf"
            },
            {
                "data": "-2:51140:0",
                "leaf": "subtitle",
                "type": "Leaf"
            },
            {
                "data": "-2:105210:0",
                "leaf": "subtitle",
                "type": "Leaf"
            },
            {
                "data": "-2:12162:0",
                "leaf": "subtitle",
                "type": "Leaf"
            },
            {
                "data": "-2:51278:0",
                "leaf": "subtitle",
                "type": "Leaf"
            },
            {
                "data": "-2:46482:0",
                "leaf": "subtitle",
                "type": "Leaf"
            },
            {
                "data": "-2:46008:0",
                "leaf": "subtitle",
                "type": "Leaf"
            },
            {
                "data": "2:104580:-1",
                "leaf": "clip",
                "type": "Leaf"
            },
            {
                "data": "-2:40303:0",
                "leaf": "subtitle",
                "type": "Leaf"
            },
            {
                "data": "-2:92166:0",
                "leaf": "subtitle",
                "type": "Leaf"
            },
            {
                "data": "-2:46820:0",
                "leaf": "subtitle",
                "type": "Leaf"
            },
            {
                "data": "2:64502:-1",
                "leaf": "clip",
                "type": "Leaf"
            },
            {
                "data": "-2:23904:0",
                "leaf": "subtitle",
                "type": "Leaf"
            },
            {
                "data": "-2:26990:0",
                "leaf": "subtitle",
                "type": "Leaf"
            },
            {
                "data": "3:69565:-1",
                "leaf": "clip",
                "type": "Leaf"
            },
            {
                "data": "-2:51217:0",
                "leaf": "subtitle",
                "type": "Leaf"
            },
            {
                "data": "-2:51343:0",
                "leaf": "subtitle",
                "type": "Leaf"
            },
            {
                "data": "-2:46551:0",
                "leaf": "subtitle",
                "type": "Leaf"
            },
            {
                "data": "2:88121:-1",
                "leaf": "clip",
                "type": "Leaf"
            },
            {
                "data": "-2:40416:0",
                "leaf": "subtitle",
                "type": "Leaf"
            },
            {
                "data": "-2:46037:0",
                "leaf": "subtitle",
                "type": "Leaf"
            },
            {
                "data": "-2:92305:0",
                "leaf": "subtitle",
                "type": "Leaf"
            },
            {
                "data": "2:36572:-1",
                "leaf": "clip",
                "type": "Leaf"
            },
            {
                "data": "-2:23506:0",
                "leaf": "subtitle",
                "type": "Leaf"
            },
            {
                "data": "-2:50739:0",
                "leaf": "subtitle",
                "type": "Leaf"
            },
            {
                "data": "-2:24201:0",
                "leaf": "subtitle",
                "type": "Leaf"
            },
            {
                "data": "2:77526:-1",
                "leaf": "clip",
                "type": "Leaf"
            },
            {
                "data": "-2:46986:0",
                "leaf": "subtitle",
                "type": "Leaf"
            },
            {
                "data": "-2:27150:0",
                "leaf": "subtitle",
                "type": "Leaf"
            },
            {
                "data": "3:75066:-1",
                "leaf": "clip",
                "type": "Leaf"
            },
            {
                "data": "2:69565:-1",
                "leaf": "clip",
                "type": "Leaf"
            },
            {
                "data": "-2:24143:0",
                "leaf": "subtitle",
                "type": "Leaf"
            },
            {
                "data": "-2:46892:0",
                "leaf": "subtitle",
                "type": "Leaf"
            },
            {
                "data": "-2:27065:0",
                "leaf": "subtitle",
                "type": "Leaf"
            },
            {
                "data": "3:71203:-1",
                "leaf": "clip",
                "type": "Leaf"
            },
            {
                "data": "-2:46661:0",
                "leaf": "subtitle",
                "type": "Leaf"
            },
            {
                "data": "1:87971:-1",
                "leaf": "clip",
                "type": "Leaf"
            },
            {
                "data": "-2:41567:0",
                "leaf": "subtitle",
                "type": "Leaf"
            },
            {
                "data": "-2:46093:0",
                "leaf": "subtitle",
                "type": "Leaf"
            },
            {
                "data": "-2:92433:0",
                "leaf": "subtitle",
                "type": "Leaf"
            },
            {
                "data": "2:40551:-1",
                "leaf": "clip",
                "type": "Leaf"
            },
            {
                "data": "-2:23593:0",
                "leaf": "subtitle",
                "type": "Leaf"
            },
            {
                "data": "-2:87070:0",
                "leaf": "subtitle",
                "type": "Leaf"
            },
            {
                "data": "-2:42807:0",
                "leaf": "subtitle",
                "type": "Leaf"
            },
            {
                "data": "-2:86971:0",
                "leaf": "subtitle",
                "type": "Leaf"
            },
            {
                "data": "-2:42398:0",
                "leaf": "subtitle",
                "type": "Leaf"
            },
            {
                "data": "-2:42337:0",
                "leaf": "subtitle",
                "type": "Leaf"
            },
            {
                "data": "-2:42284:0",
                "leaf": "subtitle",
                "type": "Leaf"
            },
            {
                "data": "2:25463:-1",
                "leaf": "clip",
                "type": "Leaf"
            },
            {
                "data": "-2:21542:0",
                "leaf": "subtitle",
                "type": "Leaf"
            },
            {
                "data": "-2:24543:0",
                "leaf": "subtitle",
                "type": "Leaf"
            },
            {
                "data": "-2:42060:0",
                "leaf": "subtitle",
                "type": "Leaf"
            },
            {
                "data": "-2:84563:0",
                "leaf": "subtitle",
                "type": "Leaf"
            },
            {
                "data": "-2:23810:0",
                "leaf": "subtitle",
                "type": "Leaf"
            },
            {
                "data": "-2:84408:0",
                "leaf": "subtitle",
                "type": "Leaf"
            },
            {
                "data": "-2:83694:0",
                "leaf": "subtitle",
                "type": "Leaf"
            },
            {
                "data": "-2:32886:0",
                "leaf": "subtitle",
                "type": "Leaf"
            },
            {
                "data": "3:100422:-1",
                "leaf": "clip",
                "type": "Leaf"
            },
            {
                "data": "-2:27889:0",
                "leaf": "subtitle",
                "type": "Leaf"
            },
            {
                "data": "-2:33114:0",
                "leaf": "subtitle",
                "type": "Leaf"
            },
            {
                "data": "3:107320:-1",
                "leaf": "clip",
                "type": "Leaf"
            },
            {
                "data": "-2:28051:0",
                "leaf": "subtitle",
                "type": "Leaf"
            },
            {
                "data": "-2:27812:0",
                "leaf": "subtitle",
                "type": "Leaf"
            },
            {
                "data": "3:98503:-1",
                "leaf": "clip",
                "type": "Leaf"
            },
            {
                "data": "-2:32796:0",
                "leaf": "subtitle",
                "type": "Leaf"
            },
            {
                "data": "3:77459:-1",
                "leaf": "clip",
                "type": "Leaf"
            },
            {
                "data": "-2:27183:0",
                "leaf": "subtitle",
                "type": "Leaf"
            },
            {
                "data": "-2:30543:0",
                "leaf": "subtitle",
                "type": "Leaf"
            },
            {
                "data": "-2:27696:0",
                "leaf": "subtitle",
                "type": "Leaf"
            },
            {
                "data": "3:97657:-1",
                "leaf": "clip",
                "type": "Leaf"
            },
            {
                "data": "-2:32769:0",
                "leaf": "subtitle",
                "type": "Leaf"
            },
            {
                "data": "-2:30442:0",
                "leaf": "subtitle",
                "type": "Leaf"
            },
            {
                "data": "-2:30285:0",
                "leaf": "subtitle",
                "type": "Leaf"
            },
            {
                "data": "-2:29319:0",
                "leaf": "subtitle",
                "type": "Leaf"
            },
            {
                "data": "-2:29277:0",
                "leaf": "subtitle",
                "type": "Leaf"
            },
            {
                "data": "-2:21359:0",
                "leaf": "subtitle",
                "type": "Leaf"
            },
            {
                "data": "-2:57304:0",
                "leaf": "subtitle",
                "type": "Leaf"
            },
            {
                "data": "-2:29225:0",
                "leaf": "subtitle",
                "type": "Leaf"
            },
            {
                "data": "-2:23770:0",
                "leaf": "subtitle",
                "type": "Leaf"
            },
            {
                "data": "-2:14549:0",
                "leaf": "subtitle",
                "type": "Leaf"
            },
            {
                "data": "-2:106188:0",
                "leaf": "subtitle",
                "type": "Leaf"
            },
            {
                "data": "-2:50387:0",
                "leaf": "subtitle",
                "type": "Leaf"
            },
            {
                "data": "-2:50228:0",
                "leaf": "subtitle",
                "type": "Leaf"
            },
            {
                "data": "-2:28438:0",
                "leaf": "subtitle",
                "type": "Leaf"
            },
            {
                "data": "-2:49821:0",
                "leaf": "subtitle",
                "type": "Leaf"
            },
            {
                "data": "-2:100004:0",
                "leaf": "subtitle",
                "type": "Leaf"
            },
            {
                "data": "-2:49437:0",
                "leaf": "subtitle",
                "type": "Leaf"
            },
            {
                "data": "-2:49326:0",
                "leaf": "subtitle",
                "type": "Leaf"
            },
            {
                "data": "-2:99709:0",
                "leaf": "subtitle",
                "type": "Leaf"
            },
            {
                "data": "-2:49003:0",
                "leaf": "subtitle",
                "type": "Leaf"
            },
            {
                "data": "-2:99591:0",
                "leaf": "subtitle",
                "type": "Leaf"
            },
            {
                "data": "-2:48558:0",
                "leaf": "subtitle",
                "type": "Leaf"
            },
            {
                "data": "-2:99064:0",
                "leaf": "subtitle",
                "type": "Leaf"
            },
            {
                "data": "-2:48239:0",
                "leaf": "subtitle",
                "type": "Leaf"
            },
            {
                "data": "-2:98927:0",
                "leaf": "subtitle",
                "type": "Leaf"
            },
            {
                "data": "-2:48197:0",
                "leaf": "subtitle",
                "type": "Leaf"
            },
            {
                "data": "-2:48112:0",
                "leaf": "subtitle",
                "type": "Leaf"
            },
            {
                "data": "-2:47977:0",
                "leaf": "subtitle",
                "type": "Leaf"
            },
            {
                "data": "-2:47517:0",
                "leaf": "subtitle",
                "type": "Leaf"
            },
            {
                "data": "-2:27635:0",
                "leaf": "subtitle",
                "type": "Leaf"
            },
            {
                "data": "-2:47276:0",
                "leaf": "subtitle",
                "type": "Leaf"
            },
            {
                "data": "-2:47161:0",
                "leaf": "subtitle",
                "type": "Leaf"
            },
            {
                "data": "-2:47094:0",
                "leaf": "subtitle",
                "type": "Leaf"
            },
            {
                "data": "2:98498:-1",
                "leaf": "clip",
                "type": "Leaf"
            },
            {
                "data": "-2:24356:0",
                "leaf": "subtitle",
                "type": "Leaf"
            },
            {
                "data": "-2:47027:0",
                "leaf": "subtitle",
                "type": "Leaf"
            },
            {
                "data": "-2:41935:0",
                "leaf": "subtitle",
                "type": "Leaf"
            },
            {
                "data": "-2:41879:0",
                "leaf": "subtitle",
                "type": "Leaf"
            },
            {
                "data": "-2:41825:0",
                "leaf": "subtitle",
                "type": "Leaf"
            },
            {
                "data": "-2:41714:0",
                "leaf": "subtitle",
                "type": "Leaf"
            },
            {
                "data": "-2:41632:0",
                "leaf": "subtitle",
                "type": "Leaf"
            },
            {
                "data": "-2:40199:0",
                "leaf": "subtitle",
                "type": "Leaf"
            },
            {
                "data": "-2:40109:0",
                "leaf": "subtitle",
                "type": "Leaf"
            },
            {
                "data": "-2:83281:0",
                "leaf": "subtitle",
                "type": "Leaf"
            },
            {
                "data": "-2:40030:0",
                "leaf": "subtitle",
                "type": "Leaf"
            },
            {
                "data": "-2:83199:0",
                "leaf": "subtitle",
                "type": "Leaf"
            },
            {
                "data": "-2:39907:0",
                "leaf": "subtitle",
                "type": "Leaf"
            },
            {
                "data": "-2:82570:0",
                "leaf": "subtitle",
                "type": "Leaf"
            },
            {
                "data": "-2:39722:0",
                "leaf": "subtitle",
                "type": "Leaf"
            },
            {
                "data": "-2:39587:0",
                "leaf": "subtitle",
                "type": "Leaf"
            },
            {
                "data": "-2:39441:0",
                "leaf": "subtitle",
                "type": "Leaf"
            },
            {
                "data": "-2:39368:0",
                "leaf": "subtitle",
                "type": "Leaf"
            },
            {
                "data": "-2:39073:0",
                "leaf": "subtitle",
                "type": "Leaf"
            },
            {
                "data": "-2:39018:0",
                "leaf": "subtitle",
                "type": "Leaf"
            },
            {
                "data": "-2:38958:0",
                "leaf": "subtitle",
                "type": "Leaf"
            },
            {
                "data": "-2:38855:0",
                "leaf": "subtitle",
                "type": "Leaf"
            },
            {
                "data": "-2:54948:0",
                "leaf": "subtitle",
                "type": "Leaf"
            },
            {
                "data": "-2:52804:0",
                "leaf": "subtitle",
                "type": "Leaf"
            },
            {
                "data": "-2:16189:0",
                "leaf": "subtitle",
                "type": "Leaf"
            },
            {
                "data": "-2:33961:0",
                "leaf": "subtitle",
                "type": "Leaf"
            },
            {
                "data": "-2:74558:0",
                "leaf": "subtitle",
                "type": "Leaf"
            },
            {
                "data": "-2:53888:0",
                "leaf": "subtitle",
                "type": "Leaf"
            },
            {
                "data": "-2:35268:0",
                "leaf": "subtitle",
                "type": "Leaf"
            },
            {
                "data": "-2:75169:0",
                "leaf": "subtitle",
                "type": "Leaf"
            },
            {
                "data": "-2:34884:0",
                "leaf": "subtitle",
                "type": "Leaf"
            },
            {
                "data": "-2:74779:0",
                "leaf": "subtitle",
                "type": "Leaf"
            },
            {
                "children": [
                    {
                        "data": "3:15590:-1",
                        "leaf": "clip",
                        "type": "Leaf"
                    },
                    {
                        "data": "2:15580:-1",
                        "leaf": "clip",
                        "type": "Leaf"
                    }
                ],
                "type": "Normal"
            },
            {
                "data": "-2:28891:0",
                "leaf": "subtitle",
                "type": "Leaf"
            },
            {
                "data": "-2:54293:0",
                "leaf": "subtitle",
                "type": "Leaf"
            },
            {
                "data": "-2:34259:0",
                "leaf": "subtitle",
                "type": "Leaf"
            },
            {
                "data": "-2:74647:0",
                "leaf": "subtitle",
                "type": "Leaf"
            },
            {
                "children": [
                    {
                        "data": "2:15709:-1",
                        "leaf": "clip",
                        "type": "Leaf"
                    },
                    {
                        "data": "3:15714:-1",
                        "leaf": "clip",
                        "type": "Leaf"
                    }
                ],
                "type": "Normal"
            },
            {
                "data": "-2:28704:0",
                "leaf": "subtitle",
                "type": "Leaf"
            },
            {
                "data": "-2:53918:0",
                "leaf": "subtitle",
                "type": "Leaf"
            },
            {
                "data": "-2:35312:0",
                "leaf": "subtitle",
                "type": "Leaf"
            },
            {
                "data": "-2:75200:0",
                "leaf": "subtitle",
                "type": "Leaf"
            },
            {
                "data": "-2:35068:0",
                "leaf": "subtitle",
                "type": "Leaf"
            },
            {
                "data": "-2:74814:0",
                "leaf": "subtitle",
                "type": "Leaf"
            },
            {
                "children": [
                    {
                        "data": "3:56839:-1",
                        "leaf": "clip",
                        "type": "Leaf"
                    },
                    {
                        "data": "2:56834:-1",
                        "leaf": "clip",
                        "type": "Leaf"
                    }
                ],
                "type": "Normal"
            },
            {
                "data": "-2:28928:0",
                "leaf": "subtitle",
                "type": "Leaf"
            },
            {
                "data": "-2:54336:0",
                "leaf": "subtitle",
                "type": "Leaf"
            },
            {
                "data": "-2:34610:0",
                "leaf": "subtitle",
                "type": "Leaf"
            },
            {
                "data": "-2:74729:0",
                "leaf": "subtitle",
                "type": "Leaf"
            },
            {
                "children": [
                    {
                        "data": "3:13781:-1",
                        "leaf": "clip",
                        "type": "Leaf"
                    },
                    {
                        "data": "2:13747:-1",
                        "leaf": "clip",
                        "type": "Leaf"
                    }
                ],
                "type": "Normal"
            },
            {
                "data": "-2:28772:0",
                "leaf": "subtitle",
                "type": "Leaf"
            },
            {
                "data": "-2:54269:0",
                "leaf": "subtitle",
                "type": "Leaf"
            },
            {
                "data": "-2:35405:0",
                "leaf": "subtitle",
                "type": "Leaf"
            },
            {
                "data": "-2:75263:0",
                "leaf": "subtitle",
                "type": "Leaf"
            },
            {
                "data": "-2:35152:0",
                "leaf": "subtitle",
                "type": "Leaf"
            },
            {
                "data": "-2:74914:0",
                "leaf": "subtitle",
                "type": "Leaf"
            },
            {
                "data": "-2:54472:0",
                "leaf": "subtitle",
                "type": "Leaf"
            }
        ],
        "type": "Normal"
    }
]
</property>
  <property name="kdenlive:sequenceproperties.guides">[
]
</property>
  <track producer="producer0"/>
  <track producer="tractor0"/>
  <track producer="tractor1"/>
  <track producer="tractor2"/>
  <track producer="tractor3"/>
  <track producer="tractor4"/>
  <transition id="transition29">
   <property name="a_track">0</property>
   <property name="b_track">1</property>
   <property name="mlt_service">mix</property>
   <property name="kdenlive_id">mix</property>
   <property name="internal_added">237</property>
   <property name="always_active">1</property>
   <property name="accepts_blanks">1</property>
   <property name="sum">1</property>
  </transition>
  <transition id="transition34">
   <property name="a_track">0</property>
   <property name="b_track">2</property>
   <property name="mlt_service">mix</property>
   <property name="kdenlive_id">mix</property>
   <property name="internal_added">237</property>
   <property name="always_active">1</property>
   <property name="accepts_blanks">1</property>
   <property name="sum">1</property>
  </transition>
  <transition id="transition35">
   <property name="a_track">0</property>
   <property name="b_track">3</property>
   <property name="mlt_service">mix</property>
   <property name="kdenlive_id">mix</property>
   <property name="internal_added">237</property>
   <property name="always_active">1</property>
   <property name="accepts_blanks">1</property>
   <property name="sum">1</property>
  </transition>
  <transition id="transition36">
   <property name="a_track">0</property>
   <property name="b_track">4</property>
   <property name="compositing">0</property>
   <property name="distort">0</property>
   <property name="rotate_center">0</property>
   <property name="mlt_service">qtblend</property>
   <property name="kdenlive_id">qtblend</property>
   <property name="internal_added">237</property>
   <property name="always_active">1</property>
  </transition>
  <transition id="transition37">
   <property name="a_track">0</property>
   <property name="b_track">5</property>
   <property name="compositing">0</property>
   <property name="distort">0</property>
   <property name="rotate_center">0</property>
   <property name="mlt_service">qtblend</property>
   <property name="kdenlive_id">qtblend</property>
   <property name="internal_added">237</property>
   <property name="always_active">1</property>
  </transition>
  <filter id="filter76">
   <property name="window">75</property>
   <property name="max_gain">20dB</property>
   <property name="mlt_service">volume</property>
   <property name="internal_added">237</property>
   <property name="disable">1</property>
  </filter>
  <filter id="filter77">
   <property name="channel">-1</property>
   <property name="mlt_service">panner</property>
   <property name="internal_added">237</property>
   <property name="start">0.5</property>
   <property name="disable">1</property>
  </filter>
  <filter id="filter78">
   <property name="mlt_service">avfilter.subtitles</property>
   <property name="av.alpha">1</property>
   <property name="internal_added">237</property>
   <property name="av.filename">Ninja Scroll (1993) - Minor Damage.kdenlive.ass</property>
  </filter>
 </tractor>
 <playlist id="main_bin">
  <property name="kdenlive:folder.-1.2">Sequences</property>
  <property name="kdenlive:folder.-1.11">ost</property>
  <property name="kdenlive:folder.11.20">ng1ost</property>
  <property name="kdenlive:sequenceFolder">2</property>
  <property name="kdenlive:docproperties.activetimeline">{1f81736c-4139-437b-9639-00d09692bbe6}</property>
  <property name="kdenlive:docproperties.audioChannels">2</property>
  <property name="kdenlive:docproperties.binsort">0</property>
  <property name="kdenlive:docproperties.browserurl">N:/Videos/General Movies/</property>
  <property name="kdenlive:docproperties.documentid">1758978332346</property>
  <property name="kdenlive:docproperties.enableTimelineZone">0</property>
  <property name="kdenlive:docproperties.enableexternalproxy">0</property>
  <property name="kdenlive:docproperties.enableproxy">1</property>
  <property name="kdenlive:docproperties.externalproxyparams">./;;.LRV;./;;.MP4</property>
  <property name="kdenlive:docproperties.generateimageproxy">0</property>
  <property name="kdenlive:docproperties.generateproxy">0</property>
  <property name="kdenlive:docproperties.guidesCategories">[
    {
        "color": "#9b59b6",
        "comment": "Category 1",
        "index": 0
    },
    {
        "color": "#3daee9",
        "comment": "Category 2",
        "index": 1
    },
    {
        "color": "#1abc9c",
        "comment": "Category 3",
        "index": 2
    },
    {
        "color": "#1cdc9a",
        "comment": "Category 4",
        "index": 3
    },
    {
        "color": "#c9ce3b",
        "comment": "Category 5",
        "index": 4
    },
    {
        "color": "#fdbc4b",
        "comment": "Category 6",
        "index": 5
    },
    {
        "color": "#f39c1f",
        "comment": "Category 7",
        "index": 6
    },
    {
        "color": "#f47750",
        "comment": "Category 8",
        "index": 7
    },
    {
        "color": "#da4453",
        "comment": "Category 9",
        "index": 8
    }
]
</property>
  <property name="kdenlive:docproperties.kdenliveversion">25.04.2</property>
  <property name="kdenlive:docproperties.opensequences">{1f81736c-4139-437b-9639-00d09692bbe6}</property>
  <property name="kdenlive:docproperties.previewextension"/>
  <property name="kdenlive:docproperties.previewparameters"/>
  <property name="kdenlive:docproperties.profile">C:/Users/kado/AppData/Roaming/kdenlive/profiles/customprofile25</property>
  <property name="kdenlive:docproperties.proxyextension">mov</property>
  <property name="kdenlive:docproperties.proxyimageminsize">2000</property>
  <property name="kdenlive:docproperties.proxyimagesize">800</property>
  <property name="kdenlive:docproperties.proxyminsize">1000</property>
  <property name="kdenlive:docproperties.proxyparams">-vf scale=%width:-2 -vsync 1 -c:v libx264 -g 1 -bf 0 -vb 0 -crf 20 -preset veryfast -c:a aac -ab 128k</property>
  <property name="kdenlive:docproperties.proxyresize">720</property>
  <property name="kdenlive:docproperties.rendercategory">Ultra-High Definition (4K)</property>
  <property name="kdenlive:docproperties.rendercustomquality">-1</property>
  <property name="kdenlive:docproperties.renderendguide">-1</property>
  <property name="kdenlive:docproperties.renderexportaudio">0</property>
  <property name="kdenlive:docproperties.renderfullcolorrange">0</property>
  <property name="kdenlive:docproperties.rendermode">0</property>
  <property name="kdenlive:docproperties.renderplay">0</property>
  <property name="kdenlive:docproperties.renderpreview">0</property>
  <property name="kdenlive:docproperties.renderprofile">MKV-H265 (HEVC)</property>
  <property name="kdenlive:docproperties.renderrescale">0</property>
  <property name="kdenlive:docproperties.renderrescaleheight">540</property>
  <property name="kdenlive:docproperties.renderrescalewidth">730</property>
  <property name="kdenlive:docproperties.renderspeed">2</property>
  <property name="kdenlive:docproperties.renderstartguide">-1</property>
  <property name="kdenlive:docproperties.rendertcoverlay">0</property>
  <property name="kdenlive:docproperties.rendertctype">-1</property>
  <property name="kdenlive:docproperties.rendertwopass">0</property>
  <property name="kdenlive:docproperties.renderurl">Ninja Scroll (1993) - Minor Damage.mkv</property>
  <property name="kdenlive:docproperties.seekOffset">30000</property>
  <property name="kdenlive:docproperties.sessionid">{6169645b-03c0-4c32-808b-0ac9077386f9}</property>
  <property name="kdenlive:docproperties.uuid">{1f81736c-4139-437b-9639-00d09692bbe6}</property>
  <property name="kdenlive:docproperties.version">1.1</property>
  <property name="kdenlive:expandedFolders">11;20</property>
  <property name="kdenlive:binZoom">4</property>
  <property name="kdenlive:extraBins">project_bin:-1:0</property>
  <property name="kdenlive:documentnotes"/>
  <property name="kdenlive:documentnotesversion">2</property>
  <property name="xml_retain">1</property>
  <entry in="00:00:00.000" out="01:31:37.412" producer="chain2"/>
  <entry in="00:00:00.000" out="00:04:20.020" producer="chain13"/>
  <entry in="00:00:00.000" out="00:04:12.054" producer="chain14"/>
  <entry in="00:00:00.000" out="00:03:34.743" producer="chain15"/>
  <entry in="00:00:00.000" out="00:04:17.392" producer="chain16"/>
  <entry in="00:00:00.000" out="00:03:54.888" producer="chain17"/>
  <entry in="00:00:00.000" out="00:03:29.571" producer="chain18"/>
  <entry in="00:00:00.000" out="00:04:43.669" producer="chain19"/>
  <entry in="00:00:00.000" out="00:04:07.591" producer="chain20"/>
  <entry in="00:00:00.000" out="00:04:59.309" producer="chain21"/>
  <entry in="00:00:00.000" out="00:01:35.118" producer="chain22"/>
  <entry in="00:00:00.000" out="00:02:24.149" producer="chain23"/>
  <entry in="00:00:00.000" out="00:01:04.087" producer="chain24"/>
  <entry in="00:00:00.000" out="00:03:20.187" producer="chain25"/>
  <entry in="00:00:00.000" out="00:01:35.118" producer="chain26"/>
  <entry in="00:00:00.000" out="00:02:15.098" producer="chain27"/>
  <entry in="00:00:00.000" out="00:02:01.126" producer="chain28"/>
  <entry in="00:00:00.000" out="00:00:55.013" producer="chain29"/>
  <entry in="00:00:00.000" out="00:01:40.082" producer="chain30"/>
  <entry in="00:00:00.000" out="00:01:07.090" producer="chain31"/>
  <entry in="00:00:00.000" out="00:01:55.138" producer="chain32"/>
  <entry in="00:00:00.000" out="00:01:08.091" producer="chain33"/>
  <entry in="00:00:00.000" out="00:01:08.091" producer="chain34"/>
  <entry in="00:00:00.000" out="00:02:27.110" producer="chain35"/>
  <entry in="00:00:00.000" out="00:02:08.091" producer="chain36"/>
  <entry in="00:00:00.000" out="00:01:39.122" producer="chain37"/>
  <entry in="00:00:00.000" out="00:01:42.125" producer="chain38"/>
  <entry in="00:00:00.000" out="00:01:41.083" producer="chain39"/>
  <entry in="00:00:00.000" out="00:02:23.106" producer="chain40"/>
  <entry in="00:00:00.000" out="00:01:43.126" producer="chain41"/>
  <entry in="00:00:00.000" out="00:01:47.130" producer="chain42"/>
  <entry in="00:00:00.000" out="00:02:10.135" producer="chain43"/>
  <entry in="00:00:00.000" out="00:02:05.130" producer="chain44"/>
  <entry in="00:00:00.000" out="00:01:44.086" producer="chain45"/>
  <entry in="00:00:00.000" out="00:01:23.106" producer="chain46"/>
  <entry in="00:00:00.000" out="00:02:14.139" producer="chain47"/>
  <entry in="00:00:00.000" out="00:02:09.134" producer="chain48"/>
  <entry in="00:00:00.000" out="00:01:53.095" producer="chain60"/>
  <entry in="00:00:00.000" out="00:02:05.130" producer="chain61"/>
  <entry in="00:00:00.000" out="00:02:07.090" producer="chain62"/>
  <entry in="00:00:00.000" out="00:02:42.125" producer="chain63"/>
  <entry in="00:00:00.000" out="00:02:55.180" producer="chain64"/>
  <entry in="00:00:00.000" out="00:02:51.176" producer="chain65"/>
  <entry in="00:00:00.000" out="00:02:13.138" producer="chain66"/>
  <entry in="00:00:00.000" out="00:02:37.162" producer="chain67"/>
  <entry in="00:00:00.000" out="00:02:30.113" producer="chain68"/>
  <entry in="00:00:00.000" out="00:01:56.098" producer="chain70"/>
  <entry in="00:00:00.000" out="00:04:28.278" producer="chain69"/>
  <entry in="00:00:00.000" out="00:02:13.138" producer="chain71"/>
  <entry in="00:00:00.000" out="00:01:53.095" producer="chain73"/>
  <entry in="00:00:00.000" out="00:02:16.141" producer="chain72"/>
  <entry in="00:00:00.000" out="00:03:29.196" producer="chain74"/>
  <entry in="00:00:00.000" out="00:02:43.168" producer="chain76"/>
  <entry in="00:00:00.000" out="00:03:33.242" producer="chain75"/>
  <entry in="00:00:00.000" out="00:01:28.111" producer="chain77"/>
  <entry in="00:00:00.000" out="00:01:50.133" producer="chain78"/>
  <entry in="00:00:00.000" out="00:00:32.032" producer="chain79"/>
  <entry in="00:00:00.000" out="00:02:38.121" producer="chain80"/>
  <entry in="00:00:00.000" out="00:01:41.083" producer="chain81"/>
  <entry in="00:00:00.000" out="01:18:23.315" producer="tractor5"/>
 </playlist>
 <tractor id="tractor6" in="00:00:00.000" out="01:18:00.000">
  <property name="kdenlive:projectTractor">1</property>
  <track in="00:00:00.000" out="01:18:00.000" producer="tractor5"/>
 </tractor>
</mlt>
