<?xml version='1.0' encoding='utf-8'?>
<mlt LC_NUMERIC="en_US.UTF-8" producer="main_bin" root="N:/Videos/Horror and SciFi/Silent Hill (2006) [1080p]" version="7.33.0">
 <profile colorspace="709" description="1920x816 23.98fps" display_aspect_den="17" display_aspect_num="40" frame_rate_den="1001" frame_rate_num="24000" height="816" progressive="1" sample_aspect_den="1" sample_aspect_num="1" width="1920"/>
 <chain id="chain3" out="02:05:19.478">
  <property name="length">180287</property>
  <property name="eof">pause</property>
  <property name="resource">Silent.Hill.2006.BluRay.1080p.x264.YIFY.mp4</property>
  <property name="mlt_service">avformat-novalidate</property>
  <property name="meta.media.nb_streams">2</property>
  <property name="meta.media.0.stream.type">video</property>
  <property name="meta.media.0.stream.frame_rate">23.976</property>
  <property name="meta.media.0.stream.sample_aspect_ratio">0</property>
  <property name="meta.media.0.codec.width">1920</property>
  <property name="meta.media.0.codec.height">816</property>
  <property name="meta.media.0.codec.rotate">0</property>
  <property name="meta.media.0.codec.pix_fmt">yuv420p</property>
  <property name="meta.media.0.codec.sample_aspect_ratio">1</property>
  <property name="meta.media.0.codec.colorspace">709</property>
  <property name="meta.media.0.codec.name">h264</property>
  <property name="meta.media.0.codec.long_name">H.264 / AVC / MPEG-4 AVC / MPEG-4 part 10</property>
  <property name="meta.media.0.codec.bit_rate">1731619</property>
  <property name="meta.attr.0.stream.creation_time.markup">2012-08-03T21:17:57.000000Z</property>
  <property name="meta.attr.0.stream.vendor_id.markup">[0][0][0][0]</property>
  <property name="meta.media.1.stream.type">audio</property>
  <property name="meta.media.1.codec.sample_fmt">fltp</property>
  <property name="meta.media.1.codec.sample_rate">48000</property>
  <property name="meta.media.1.codec.channels">2</property>
  <property name="meta.media.1.codec.layout">stereo</property>
  <property name="meta.media.1.codec.name">aac</property>
  <property name="meta.media.1.codec.long_name">AAC (Advanced Audio Coding)</property>
  <property name="meta.media.1.codec.bit_rate">95947</property>
  <property name="meta.attr.1.stream.creation_time.markup">2012-08-03T21:18:23.000000Z</property>
  <property name="meta.attr.1.stream.language.markup">eng</property>
  <property name="meta.attr.1.stream.handler_name.markup">GPAC ISO Audio Handler</property>
  <property name="meta.attr.1.stream.vendor_id.markup">[0][0][0][0]</property>
  <property name="meta.attr.major_brand.markup">isom</property>
  <property name="meta.attr.minor_version.markup">1</property>
  <property name="meta.attr.compatible_brands.markup">isomavc1</property>
  <property name="meta.attr.creation_time.markup">2012-08-03T21:17:57.000000Z</property>
  <property name="seekable">1</property>
  <property name="meta.media.sample_aspect_num">1</property>
  <property name="meta.media.sample_aspect_den">1</property>
  <property name="audio_index">1</property>
  <property name="video_index">0</property>
  <property name="vstream">0</property>
  <property name="meta.media.frame_rate_num">24000</property>
  <property name="meta.media.frame_rate_den">1001</property>
  <property name="meta.media.colorspace">709</property>
  <property name="meta.media.color_trc">2</property>
  <property name="meta.media.has_b_frames">2</property>
  <property name="meta.media.width">1920</property>
  <property name="meta.media.height">816</property>
  <property name="meta.media.aspect_ratio">1</property>
  <property name="meta.media.color_range">mpeg</property>
  <property name="astream">0</property>
  <property name="meta.media.top_field_first">0</property>
  <property name="meta.media.progressive">1</property>
  <property name="kdenlive:control_uuid">{ea7104ff-e9c6-4dd5-8ec1-c0db79af6f56}</property>
  <property name="kdenlive:id">4</property>
  <property name="kdenlive:clip_type">0</property>
  <property name="kdenlive:file_size">1721540280</property>
  <property name="kdenlive:file_hash">f3e01fe6e60132458a728ba3f434ee10</property>
  <property name="kdenlive:folderid">-1</property>
  <property name="mute_on_pause">0</property>
  <property name="kdenlive:monitorPosition">164636</property>
 </chain>
 <producer id="producer3" in="00:00:00.000" out="00:00:12.888">
  <property name="length">310</property>
  <property name="eof">pause</property>
  <property name="resource">white.png</property>
  <property name="ttl">25</property>
  <property name="aspect_ratio">1</property>
  <property name="meta.media.progressive">1</property>
  <property name="seekable">1</property>
  <property name="format">2</property>
  <property name="meta.media.width">1920</property>
  <property name="meta.media.height">816</property>
  <property name="mlt_service">qimage</property>
  <property name="kdenlive:duration">00:00:12;00</property>
  <property name="xml">was here</property>
  <property name="kdenlive:folderid">-1</property>
  <property name="kdenlive:id">5</property>
  <property name="kdenlive:control_uuid">{cb2482d6-c7e7-4f98-ba3a-e9e5d798fe0d}</property>
  <property name="kdenlive:clip_type">2</property>
  <property name="kdenlive:file_size">8495</property>
  <property name="kdenlive:file_hash">78c19c480811a183cf9838e9d9c2bddf</property>
  <property name="kdenlive:monitorPosition">0</property>
 </producer>
 <chain id="chain13" out="00:02:51.093">
  <property name="length">4103</property>
  <property name="eof">pause</property>
  <property name="resource">ost/01-ost-silent_hill-bla.mp3</property>
  <property name="mlt_service">avformat</property>
  <property name="meta.media.nb_streams">1</property>
  <property name="meta.media.0.stream.type">audio</property>
  <property name="meta.media.0.codec.sample_fmt">fltp</property>
  <property name="meta.media.0.codec.sample_rate">44100</property>
  <property name="meta.media.0.codec.channels">2</property>
  <property name="meta.media.0.codec.layout">stereo</property>
  <property name="meta.media.0.codec.name">mp3float</property>
  <property name="meta.media.0.codec.long_name">MP3 (MPEG audio layer 3)</property>
  <property name="meta.media.0.codec.bit_rate">192000</property>
  <property name="meta.attr.0.stream.encoder.markup">LAME3.92 </property>
  <property name="meta.attr.title.markup">Silent Hill</property>
  <property name="meta.attr.artist.markup">Akira Yamaoka</property>
  <property name="meta.attr.album.markup">Silent Hill - Original Soundtrack</property>
  <property name="meta.attr.comment.markup">KICA7950 / KOE-CDS-002</property>
  <property name="meta.attr.genre.markup">Game</property>
  <property name="meta.attr.track.markup">01</property>
  <property name="meta.attr.date.markup">1999</property>
  <property name="seekable">1</property>
  <property name="audio_index">0</property>
  <property name="video_index">-1</property>
  <property name="astream">0</property>
  <property name="kdenlive:folderid">7</property>
  <property name="kdenlive:id">6</property>
  <property name="kdenlive:control_uuid">{60a7abfc-3117-426e-b4f1-ce29f85e7a3d}</property>
  <property name="kdenlive:clip_type">1</property>
  <property name="kdenlive:file_size">4109110</property>
  <property name="kdenlive:file_hash">6b9e716fbeca7a19c38417d5a3650ad5</property>
  <property name="kdenlive:monitorPosition">214</property>
 </chain>
 <chain id="chain14" out="00:02:07.925">
  <property name="length">3068</property>
  <property name="eof">pause</property>
  <property name="resource">ost/02-ost-all-bla.mp3</property>
  <property name="mlt_service">avformat</property>
  <property name="meta.media.nb_streams">1</property>
  <property name="meta.media.0.stream.type">audio</property>
  <property name="meta.media.0.codec.sample_fmt">fltp</property>
  <property name="meta.media.0.codec.sample_rate">44100</property>
  <property name="meta.media.0.codec.channels">2</property>
  <property name="meta.media.0.codec.layout">stereo</property>
  <property name="meta.media.0.codec.name">mp3float</property>
  <property name="meta.media.0.codec.long_name">MP3 (MPEG audio layer 3)</property>
  <property name="meta.media.0.codec.bit_rate">192000</property>
  <property name="meta.attr.0.stream.encoder.markup">LAME3.92 </property>
  <property name="meta.attr.title.markup">All</property>
  <property name="meta.attr.artist.markup">Akira Yamaoka</property>
  <property name="meta.attr.album.markup">Silent Hill - Original Soundtrack</property>
  <property name="meta.attr.comment.markup">KICA7950 / KOE-CDS-002</property>
  <property name="meta.attr.genre.markup">Game</property>
  <property name="meta.attr.track.markup">02</property>
  <property name="meta.attr.date.markup">1999</property>
  <property name="seekable">1</property>
  <property name="audio_index">0</property>
  <property name="video_index">-1</property>
  <property name="astream">0</property>
  <property name="kdenlive:folderid">7</property>
  <property name="kdenlive:id">8</property>
  <property name="kdenlive:control_uuid">{1d58ce19-571b-4ac5-8c8d-839dfad4e2eb}</property>
  <property name="kdenlive:clip_type">1</property>
  <property name="kdenlive:file_size">3073392</property>
  <property name="kdenlive:file_hash">99e77be2b97a17bd5861f9b7c9da40b2</property>
  <property name="kdenlive:monitorPosition">77</property>
 </chain>
 <chain id="chain15" out="00:00:09.218">
  <property name="length">222</property>
  <property name="eof">pause</property>
  <property name="resource">ost/03-ost-the_wait-bla.mp3</property>
  <property name="mlt_service">avformat</property>
  <property name="meta.media.nb_streams">1</property>
  <property name="meta.media.0.stream.type">audio</property>
  <property name="meta.media.0.codec.sample_fmt">fltp</property>
  <property name="meta.media.0.codec.sample_rate">44100</property>
  <property name="meta.media.0.codec.channels">2</property>
  <property name="meta.media.0.codec.layout">stereo</property>
  <property name="meta.media.0.codec.name">mp3float</property>
  <property name="meta.media.0.codec.long_name">MP3 (MPEG audio layer 3)</property>
  <property name="meta.media.0.codec.bit_rate">192000</property>
  <property name="meta.attr.0.stream.encoder.markup">LAME3.92 </property>
  <property name="meta.attr.title.markup">The wait</property>
  <property name="meta.attr.artist.markup">Akira Yamaoka</property>
  <property name="meta.attr.album.markup">Silent Hill - Original Soundtrack</property>
  <property name="meta.attr.comment.markup">KICA7950 / KOE-CDS-002</property>
  <property name="meta.attr.genre.markup">Game</property>
  <property name="meta.attr.track.markup">03</property>
  <property name="meta.attr.date.markup">1999</property>
  <property name="seekable">1</property>
  <property name="audio_index">0</property>
  <property name="video_index">-1</property>
  <property name="astream">0</property>
  <property name="kdenlive:folderid">7</property>
  <property name="kdenlive:id">9</property>
  <property name="kdenlive:control_uuid">{058869af-7de1-49af-b205-32a94653860a}</property>
  <property name="kdenlive:clip_type">1</property>
  <property name="kdenlive:file_size">224592</property>
  <property name="kdenlive:file_hash">3904d77818a40d3c37c687a17e9a0a21</property>
  <property name="kdenlive:monitorPosition">153</property>
 </chain>
 <chain id="chain16" out="00:00:51.635">
  <property name="length">1239</property>
  <property name="eof">pause</property>
  <property name="resource">ost/04-ost-until_death-bla.mp3</property>
  <property name="mlt_service">avformat</property>
  <property name="meta.media.nb_streams">1</property>
  <property name="meta.media.0.stream.type">audio</property>
  <property name="meta.media.0.codec.sample_fmt">fltp</property>
  <property name="meta.media.0.codec.sample_rate">44100</property>
  <property name="meta.media.0.codec.channels">2</property>
  <property name="meta.media.0.codec.layout">stereo</property>
  <property name="meta.media.0.codec.name">mp3float</property>
  <property name="meta.media.0.codec.long_name">MP3 (MPEG audio layer 3)</property>
  <property name="meta.media.0.codec.bit_rate">192000</property>
  <property name="meta.attr.0.stream.encoder.markup">LAME3.92 </property>
  <property name="meta.attr.title.markup">Until death</property>
  <property name="meta.attr.artist.markup">Akira Yamaoka</property>
  <property name="meta.attr.album.markup">Silent Hill - Original Soundtrack</property>
  <property name="meta.attr.comment.markup">KICA7950 / KOE-CDS-002</property>
  <property name="meta.attr.genre.markup">Game</property>
  <property name="meta.attr.track.markup">04</property>
  <property name="meta.attr.date.markup">1999</property>
  <property name="seekable">1</property>
  <property name="audio_index">0</property>
  <property name="video_index">-1</property>
  <property name="astream">0</property>
  <property name="kdenlive:folderid">7</property>
  <property name="kdenlive:id">10</property>
  <property name="kdenlive:control_uuid">{9f7e5e59-fb2c-4f68-b08b-51643162039d}</property>
  <property name="kdenlive:clip_type">1</property>
  <property name="kdenlive:file_size">1242746</property>
  <property name="kdenlive:file_hash">bf574d067ca1d51ec5755d83bc677297</property>
 </chain>
 <chain id="chain17" out="00:02:04.421">
  <property name="length">2984</property>
  <property name="eof">pause</property>
  <property name="resource">ost/05-ost-over-bla.mp3</property>
  <property name="mlt_service">avformat</property>
  <property name="meta.media.nb_streams">1</property>
  <property name="meta.media.0.stream.type">audio</property>
  <property name="meta.media.0.codec.sample_fmt">fltp</property>
  <property name="meta.media.0.codec.sample_rate">44100</property>
  <property name="meta.media.0.codec.channels">2</property>
  <property name="meta.media.0.codec.layout">stereo</property>
  <property name="meta.media.0.codec.name">mp3float</property>
  <property name="meta.media.0.codec.long_name">MP3 (MPEG audio layer 3)</property>
  <property name="meta.media.0.codec.bit_rate">192000</property>
  <property name="meta.attr.0.stream.encoder.markup">LAME3.92 </property>
  <property name="meta.attr.title.markup">Over</property>
  <property name="meta.attr.artist.markup">Akira Yamaoka</property>
  <property name="meta.attr.album.markup">Silent Hill - Original Soundtrack</property>
  <property name="meta.attr.comment.markup">KICA7950 / KOE-CDS-002</property>
  <property name="meta.attr.genre.markup">Game</property>
  <property name="meta.attr.track.markup">05</property>
  <property name="meta.attr.date.markup">1999</property>
  <property name="seekable">1</property>
  <property name="audio_index">0</property>
  <property name="video_index">-1</property>
  <property name="astream">0</property>
  <property name="kdenlive:folderid">7</property>
  <property name="kdenlive:id">11</property>
  <property name="kdenlive:control_uuid">{6e71778e-99c0-4fc0-8829-75f2f3eee25a}</property>
  <property name="kdenlive:clip_type">1</property>
  <property name="kdenlive:file_size">2988757</property>
  <property name="kdenlive:file_hash">493f47ea8fbd6bda8509e7cea8a3b728</property>
  <property name="kdenlive:monitorPosition">1354</property>
 </chain>
 <chain id="chain18" out="00:01:26.985">
  <property name="length">2086</property>
  <property name="eof">pause</property>
  <property name="resource">ost/06-ost-devils_lyric-bla.mp3</property>
  <property name="mlt_service">avformat</property>
  <property name="meta.media.nb_streams">1</property>
  <property name="meta.media.0.stream.type">audio</property>
  <property name="meta.media.0.codec.sample_fmt">fltp</property>
  <property name="meta.media.0.codec.sample_rate">44100</property>
  <property name="meta.media.0.codec.channels">2</property>
  <property name="meta.media.0.codec.layout">stereo</property>
  <property name="meta.media.0.codec.name">mp3float</property>
  <property name="meta.media.0.codec.long_name">MP3 (MPEG audio layer 3)</property>
  <property name="meta.media.0.codec.bit_rate">192000</property>
  <property name="meta.attr.0.stream.encoder.markup">LAME3.92 </property>
  <property name="meta.attr.title.markup">Devil's lyric</property>
  <property name="meta.attr.artist.markup">Akira Yamaoka</property>
  <property name="meta.attr.album.markup">Silent Hill - Original Soundtrack</property>
  <property name="meta.attr.comment.markup">KICA7950 / KOE-CDS-002</property>
  <property name="meta.attr.genre.markup">Game</property>
  <property name="meta.attr.track.markup">06</property>
  <property name="meta.attr.date.markup">1999</property>
  <property name="seekable">1</property>
  <property name="audio_index">0</property>
  <property name="video_index">-1</property>
  <property name="astream">0</property>
  <property name="kdenlive:folderid">7</property>
  <property name="kdenlive:id">12</property>
  <property name="kdenlive:control_uuid">{2dec5ad7-58de-4838-a0f8-b9daba0e2fa5}</property>
  <property name="kdenlive:clip_type">1</property>
  <property name="kdenlive:file_size">2089745</property>
  <property name="kdenlive:file_hash">c5a1a6dfd7ccd0e27098050b840d1376</property>
  <property name="kdenlive:monitorPosition">173</property>
 </chain>
 <chain id="chain19" out="00:00:57.266">
  <property name="length">1374</property>
  <property name="eof">pause</property>
  <property name="resource">ost/07-ost-rising_sun-bla.mp3</property>
  <property name="mlt_service">avformat</property>
  <property name="meta.media.nb_streams">1</property>
  <property name="meta.media.0.stream.type">audio</property>
  <property name="meta.media.0.codec.sample_fmt">fltp</property>
  <property name="meta.media.0.codec.sample_rate">44100</property>
  <property name="meta.media.0.codec.channels">2</property>
  <property name="meta.media.0.codec.layout">stereo</property>
  <property name="meta.media.0.codec.name">mp3float</property>
  <property name="meta.media.0.codec.long_name">MP3 (MPEG audio layer 3)</property>
  <property name="meta.media.0.codec.bit_rate">192000</property>
  <property name="meta.attr.0.stream.encoder.markup">LAME3.92 </property>
  <property name="meta.attr.title.markup">Rising sun</property>
  <property name="meta.attr.artist.markup">Akira Yamaoka</property>
  <property name="meta.attr.album.markup">Silent Hill - Original Soundtrack</property>
  <property name="meta.attr.comment.markup">KICA7950 / KOE-CDS-002</property>
  <property name="meta.attr.genre.markup">Game</property>
  <property name="meta.attr.track.markup">07</property>
  <property name="meta.attr.date.markup">1999</property>
  <property name="seekable">1</property>
  <property name="audio_index">0</property>
  <property name="video_index">-1</property>
  <property name="astream">0</property>
  <property name="kdenlive:folderid">7</property>
  <property name="kdenlive:id">13</property>
  <property name="kdenlive:control_uuid">{247cfa43-173d-44b0-8f05-a740e673eea9}</property>
  <property name="kdenlive:clip_type">1</property>
  <property name="kdenlive:file_size">1376909</property>
  <property name="kdenlive:file_hash">5f0bc105a8544232f8b8b3630460e4e7</property>
  <property name="kdenlive:monitorPosition">426</property>
 </chain>
 <chain id="chain20" out="00:02:39.915">
  <property name="length">3835</property>
  <property name="eof">pause</property>
  <property name="resource">ost/08-ost-for_all-bla.mp3</property>
  <property name="mlt_service">avformat</property>
  <property name="meta.media.nb_streams">1</property>
  <property name="meta.media.0.stream.type">audio</property>
  <property name="meta.media.0.codec.sample_fmt">fltp</property>
  <property name="meta.media.0.codec.sample_rate">44100</property>
  <property name="meta.media.0.codec.channels">2</property>
  <property name="meta.media.0.codec.layout">stereo</property>
  <property name="meta.media.0.codec.name">mp3float</property>
  <property name="meta.media.0.codec.long_name">MP3 (MPEG audio layer 3)</property>
  <property name="meta.media.0.codec.bit_rate">192000</property>
  <property name="meta.attr.0.stream.encoder.markup">LAME3.92 </property>
  <property name="meta.attr.title.markup">For all</property>
  <property name="meta.attr.artist.markup">Akira Yamaoka</property>
  <property name="meta.attr.album.markup">Silent Hill - Original Soundtrack</property>
  <property name="meta.attr.comment.markup">KICA7950 / KOE-CDS-002</property>
  <property name="meta.attr.genre.markup">Game</property>
  <property name="meta.attr.track.markup">08</property>
  <property name="meta.attr.date.markup">1999</property>
  <property name="seekable">1</property>
  <property name="audio_index">0</property>
  <property name="video_index">-1</property>
  <property name="astream">0</property>
  <property name="kdenlive:folderid">7</property>
  <property name="kdenlive:id">14</property>
  <property name="kdenlive:control_uuid">{7d3ef050-14d5-43a4-89c4-bb2fcd0d293f}</property>
  <property name="kdenlive:clip_type">1</property>
  <property name="kdenlive:file_size">3840773</property>
  <property name="kdenlive:file_hash">6bd5cd3fe519d43000db7824a7574f70</property>
  <property name="kdenlive:monitorPosition">748</property>
 </chain>
 <chain id="chain21" out="00:00:52.678">
  <property name="length">1264</property>
  <property name="eof">pause</property>
  <property name="resource">ost/09-ost-follow_the_leader-bla.mp3</property>
  <property name="mlt_service">avformat</property>
  <property name="meta.media.nb_streams">1</property>
  <property name="meta.media.0.stream.type">audio</property>
  <property name="meta.media.0.codec.sample_fmt">fltp</property>
  <property name="meta.media.0.codec.sample_rate">44100</property>
  <property name="meta.media.0.codec.channels">2</property>
  <property name="meta.media.0.codec.layout">stereo</property>
  <property name="meta.media.0.codec.name">mp3float</property>
  <property name="meta.media.0.codec.long_name">MP3 (MPEG audio layer 3)</property>
  <property name="meta.media.0.codec.bit_rate">192000</property>
  <property name="meta.attr.0.stream.encoder.markup">LAME3.92 </property>
  <property name="meta.attr.title.markup">Follow the leader</property>
  <property name="meta.attr.artist.markup">Akira Yamaoka</property>
  <property name="meta.attr.album.markup">Silent Hill - Original Soundtrack</property>
  <property name="meta.attr.comment.markup">KICA7950 / KOE-CDS-002</property>
  <property name="meta.attr.genre.markup">Game</property>
  <property name="meta.attr.track.markup">09</property>
  <property name="meta.attr.date.markup">1999</property>
  <property name="seekable">1</property>
  <property name="audio_index">0</property>
  <property name="video_index">-1</property>
  <property name="astream">0</property>
  <property name="kdenlive:folderid">7</property>
  <property name="kdenlive:id">15</property>
  <property name="kdenlive:control_uuid">{3d5b2ce0-8fde-4639-8ee2-142d45fe7478}</property>
  <property name="kdenlive:clip_type">1</property>
  <property name="kdenlive:file_size">1267209</property>
  <property name="kdenlive:file_hash">ffaf70dabac750fad3ef603532facc97</property>
  <property name="kdenlive:monitorPosition">354</property>
 </chain>
 <chain id="chain22" out="00:01:32.699">
  <property name="length">2223</property>
  <property name="eof">pause</property>
  <property name="resource">ost/10-ost-claw_finger-bla.mp3</property>
  <property name="mlt_service">avformat</property>
  <property name="meta.media.nb_streams">1</property>
  <property name="meta.media.0.stream.type">audio</property>
  <property name="meta.media.0.codec.sample_fmt">fltp</property>
  <property name="meta.media.0.codec.sample_rate">44100</property>
  <property name="meta.media.0.codec.channels">2</property>
  <property name="meta.media.0.codec.layout">stereo</property>
  <property name="meta.media.0.codec.name">mp3float</property>
  <property name="meta.media.0.codec.long_name">MP3 (MPEG audio layer 3)</property>
  <property name="meta.media.0.codec.bit_rate">192000</property>
  <property name="meta.attr.0.stream.encoder.markup">LAME3.92 </property>
  <property name="meta.attr.title.markup">Claw finger</property>
  <property name="meta.attr.artist.markup">Akira Yamaoka</property>
  <property name="meta.attr.album.markup">Silent Hill - Original Soundtrack</property>
  <property name="meta.attr.comment.markup">KICA7950 / KOE-CDS-002</property>
  <property name="meta.attr.genre.markup">Game</property>
  <property name="meta.attr.track.markup">10</property>
  <property name="meta.attr.date.markup">1999</property>
  <property name="seekable">1</property>
  <property name="audio_index">0</property>
  <property name="video_index">-1</property>
  <property name="astream">0</property>
  <property name="kdenlive:folderid">7</property>
  <property name="kdenlive:id">16</property>
  <property name="kdenlive:control_uuid">{35412df9-5703-46e5-a9fb-9d9bdcd0f7d3}</property>
  <property name="kdenlive:clip_type">1</property>
  <property name="kdenlive:file_size">2227667</property>
  <property name="kdenlive:file_hash">abe9614a8dcd4b4a5f14062d2d18ea8d</property>
  <property name="kdenlive:monitorPosition">58</property>
 </chain>
 <chain id="chain23" out="00:01:33.492">
  <property name="length">2242</property>
  <property name="eof">pause</property>
  <property name="resource">ost/11-ost-hear_nothing-bla.mp3</property>
  <property name="mlt_service">avformat</property>
  <property name="meta.media.nb_streams">1</property>
  <property name="meta.media.0.stream.type">audio</property>
  <property name="meta.media.0.codec.sample_fmt">fltp</property>
  <property name="meta.media.0.codec.sample_rate">44100</property>
  <property name="meta.media.0.codec.channels">2</property>
  <property name="meta.media.0.codec.layout">stereo</property>
  <property name="meta.media.0.codec.name">mp3float</property>
  <property name="meta.media.0.codec.long_name">MP3 (MPEG audio layer 3)</property>
  <property name="meta.media.0.codec.bit_rate">192000</property>
  <property name="meta.attr.0.stream.encoder.markup">LAME3.92 </property>
  <property name="meta.attr.title.markup">Hear nothing</property>
  <property name="meta.attr.artist.markup">Akira Yamaoka</property>
  <property name="meta.attr.album.markup">Silent Hill - Original Soundtrack</property>
  <property name="meta.attr.comment.markup">KICA7950 / KOE-CDS-002</property>
  <property name="meta.attr.genre.markup">Game</property>
  <property name="meta.attr.track.markup">11</property>
  <property name="meta.attr.date.markup">1999</property>
  <property name="seekable">1</property>
  <property name="audio_index">0</property>
  <property name="video_index">-1</property>
  <property name="astream">0</property>
  <property name="kdenlive:folderid">7</property>
  <property name="kdenlive:id">17</property>
  <property name="kdenlive:control_uuid">{b6806477-faaf-4cea-8f44-901ff6f40ef6}</property>
  <property name="kdenlive:clip_type">1</property>
  <property name="kdenlive:file_size">2246477</property>
  <property name="kdenlive:file_hash">b339184bcdd25c6d25ce025da9d809e3</property>
  <property name="kdenlive:monitorPosition">1982</property>
 </chain>
 <chain id="chain24" out="00:00:19.061">
  <property name="length">458</property>
  <property name="eof">pause</property>
  <property name="resource">ost/12-ost-children_kill-bla.mp3</property>
  <property name="mlt_service">avformat</property>
  <property name="meta.media.nb_streams">1</property>
  <property name="meta.media.0.stream.type">audio</property>
  <property name="meta.media.0.codec.sample_fmt">fltp</property>
  <property name="meta.media.0.codec.sample_rate">44100</property>
  <property name="meta.media.0.codec.channels">2</property>
  <property name="meta.media.0.codec.layout">stereo</property>
  <property name="meta.media.0.codec.name">mp3float</property>
  <property name="meta.media.0.codec.long_name">MP3 (MPEG audio layer 3)</property>
  <property name="meta.media.0.codec.bit_rate">192000</property>
  <property name="meta.attr.0.stream.encoder.markup">LAME3.92 </property>
  <property name="meta.attr.title.markup">Children kill</property>
  <property name="meta.attr.artist.markup">Akira Yamaoka</property>
  <property name="meta.attr.album.markup">Silent Hill - Original Soundtrack</property>
  <property name="meta.attr.comment.markup">KICA7950 / KOE-CDS-002</property>
  <property name="meta.attr.genre.markup">Game</property>
  <property name="meta.attr.track.markup">12</property>
  <property name="meta.attr.date.markup">1999</property>
  <property name="seekable">1</property>
  <property name="audio_index">0</property>
  <property name="video_index">-1</property>
  <property name="astream">0</property>
  <property name="kdenlive:folderid">7</property>
  <property name="kdenlive:id">18</property>
  <property name="kdenlive:control_uuid">{fd790bb5-ac13-40e8-841f-420cf346a4b5}</property>
  <property name="kdenlive:clip_type">1</property>
  <property name="kdenlive:file_size">460958</property>
  <property name="kdenlive:file_hash">9ef109aa6a0fd1f7c6d76201d9a6f463</property>
  <property name="kdenlive:monitorPosition">166</property>
 </chain>
 <chain id="chain25" out="00:01:25.234">
  <property name="length">2044</property>
  <property name="eof">pause</property>
  <property name="resource">ost/13-ost-killed_by_death-bla.mp3</property>
  <property name="mlt_service">avformat</property>
  <property name="meta.media.nb_streams">1</property>
  <property name="meta.media.0.stream.type">audio</property>
  <property name="meta.media.0.codec.sample_fmt">fltp</property>
  <property name="meta.media.0.codec.sample_rate">44100</property>
  <property name="meta.media.0.codec.channels">2</property>
  <property name="meta.media.0.codec.layout">stereo</property>
  <property name="meta.media.0.codec.name">mp3float</property>
  <property name="meta.media.0.codec.long_name">MP3 (MPEG audio layer 3)</property>
  <property name="meta.media.0.codec.bit_rate">192000</property>
  <property name="meta.attr.0.stream.encoder.markup">LAME3.92 </property>
  <property name="meta.attr.title.markup">Killed by death</property>
  <property name="meta.attr.artist.markup">Akira Yamaoka</property>
  <property name="meta.attr.album.markup">Silent Hill - Original Soundtrack</property>
  <property name="meta.attr.comment.markup">KICA7950 / KOE-CDS-002</property>
  <property name="meta.attr.genre.markup">Game</property>
  <property name="meta.attr.track.markup">13</property>
  <property name="meta.attr.date.markup">1999</property>
  <property name="seekable">1</property>
  <property name="audio_index">0</property>
  <property name="video_index">-1</property>
  <property name="astream">0</property>
  <property name="kdenlive:folderid">7</property>
  <property name="kdenlive:id">19</property>
  <property name="kdenlive:control_uuid">{505f645e-c5be-471a-9f5f-38456a3c7870}</property>
  <property name="kdenlive:clip_type">1</property>
  <property name="kdenlive:file_size">2047744</property>
  <property name="kdenlive:file_hash">a5cc4034c03e0edefc2079ca59a9d0e7</property>
  <property name="kdenlive:monitorPosition">1185</property>
 </chain>
 <chain id="chain26" out="00:01:29.029">
  <property name="length">2135</property>
  <property name="eof">pause</property>
  <property name="resource">ost/14-ost-dont_cry-bla.mp3</property>
  <property name="mlt_service">avformat</property>
  <property name="meta.media.nb_streams">1</property>
  <property name="meta.media.0.stream.type">audio</property>
  <property name="meta.media.0.codec.sample_fmt">fltp</property>
  <property name="meta.media.0.codec.sample_rate">44100</property>
  <property name="meta.media.0.codec.channels">2</property>
  <property name="meta.media.0.codec.layout">stereo</property>
  <property name="meta.media.0.codec.name">mp3float</property>
  <property name="meta.media.0.codec.long_name">MP3 (MPEG audio layer 3)</property>
  <property name="meta.media.0.codec.bit_rate">192000</property>
  <property name="meta.attr.0.stream.encoder.markup">LAME3.92 </property>
  <property name="meta.attr.title.markup">Don't cry</property>
  <property name="meta.attr.artist.markup">Akira Yamaoka</property>
  <property name="meta.attr.album.markup">Silent Hill - Original Soundtrack</property>
  <property name="meta.attr.comment.markup">KICA7950 / KOE-CDS-002</property>
  <property name="meta.attr.genre.markup">Game</property>
  <property name="meta.attr.track.markup">14</property>
  <property name="meta.attr.date.markup">1999</property>
  <property name="seekable">1</property>
  <property name="audio_index">0</property>
  <property name="video_index">-1</property>
  <property name="astream">0</property>
  <property name="kdenlive:folderid">7</property>
  <property name="kdenlive:id">20</property>
  <property name="kdenlive:control_uuid">{a6541435-5d30-4a3c-96d4-1a62b76e0203}</property>
  <property name="kdenlive:clip_type">1</property>
  <property name="kdenlive:file_size">2139265</property>
  <property name="kdenlive:file_hash">9196cea18ef886d49e28c0ef1b4edcf3</property>
  <property name="kdenlive:monitorPosition">1108</property>
 </chain>
 <chain id="chain27" out="00:01:26.151">
  <property name="length">2066</property>
  <property name="eof">pause</property>
  <property name="resource">ost/15-ost-the_bitter_season-bla.mp3</property>
  <property name="mlt_service">avformat</property>
  <property name="meta.media.nb_streams">1</property>
  <property name="meta.media.0.stream.type">audio</property>
  <property name="meta.media.0.codec.sample_fmt">fltp</property>
  <property name="meta.media.0.codec.sample_rate">44100</property>
  <property name="meta.media.0.codec.channels">2</property>
  <property name="meta.media.0.codec.layout">stereo</property>
  <property name="meta.media.0.codec.name">mp3float</property>
  <property name="meta.media.0.codec.long_name">MP3 (MPEG audio layer 3)</property>
  <property name="meta.media.0.codec.bit_rate">192000</property>
  <property name="meta.attr.0.stream.encoder.markup">LAME3.92 </property>
  <property name="meta.attr.title.markup">The bitter season</property>
  <property name="meta.attr.artist.markup">Akira Yamaoka</property>
  <property name="meta.attr.album.markup">Silent Hill - Original Soundtrack</property>
  <property name="meta.attr.comment.markup">KICA7950 / KOE-CDS-002</property>
  <property name="meta.attr.genre.markup">Game</property>
  <property name="meta.attr.track.markup">15</property>
  <property name="meta.attr.date.markup">1999</property>
  <property name="seekable">1</property>
  <property name="audio_index">0</property>
  <property name="video_index">-1</property>
  <property name="astream">0</property>
  <property name="kdenlive:folderid">7</property>
  <property name="kdenlive:id">21</property>
  <property name="kdenlive:control_uuid">{43294611-9fc1-479b-8f4d-3e242b0e1d73}</property>
  <property name="kdenlive:clip_type">1</property>
  <property name="kdenlive:file_size">2070318</property>
  <property name="kdenlive:file_hash">009be9db3720554e6de3c5d2cc90baec</property>
  <property name="kdenlive:monitorPosition">361</property>
 </chain>
 <chain id="chain28" out="00:02:48.590">
  <property name="length">4043</property>
  <property name="eof">pause</property>
  <property name="resource">ost/16-ost-moonchild-bla.mp3</property>
  <property name="mlt_service">avformat</property>
  <property name="meta.media.nb_streams">1</property>
  <property name="meta.media.0.stream.type">audio</property>
  <property name="meta.media.0.codec.sample_fmt">fltp</property>
  <property name="meta.media.0.codec.sample_rate">44100</property>
  <property name="meta.media.0.codec.channels">2</property>
  <property name="meta.media.0.codec.layout">stereo</property>
  <property name="meta.media.0.codec.name">mp3float</property>
  <property name="meta.media.0.codec.long_name">MP3 (MPEG audio layer 3)</property>
  <property name="meta.media.0.codec.bit_rate">192000</property>
  <property name="meta.attr.0.stream.encoder.markup">LAME3.92 </property>
  <property name="meta.attr.title.markup">Moonchild</property>
  <property name="meta.attr.artist.markup">Akira Yamaoka</property>
  <property name="meta.attr.album.markup">Silent Hill - Original Soundtrack</property>
  <property name="meta.attr.comment.markup">KICA7950 / KOE-CDS-002</property>
  <property name="meta.attr.genre.markup">Game</property>
  <property name="meta.attr.track.markup">16</property>
  <property name="meta.attr.date.markup">1999</property>
  <property name="seekable">1</property>
  <property name="audio_index">0</property>
  <property name="video_index">-1</property>
  <property name="astream">0</property>
  <property name="kdenlive:folderid">7</property>
  <property name="kdenlive:id">22</property>
  <property name="kdenlive:control_uuid">{9ced7a72-5ce4-4402-a321-ccb565a55e80}</property>
  <property name="kdenlive:clip_type">1</property>
  <property name="kdenlive:file_size">4048920</property>
  <property name="kdenlive:file_hash">26a5601912bf810beb10fe0213b7f816</property>
  <property name="kdenlive:monitorPosition">1129</property>
 </chain>
 <chain id="chain29" out="00:00:45.420">
  <property name="length">1090</property>
  <property name="eof">pause</property>
  <property name="resource">ost/17-ost-never_again-bla.mp3</property>
  <property name="mlt_service">avformat</property>
  <property name="meta.media.nb_streams">1</property>
  <property name="meta.media.0.stream.type">audio</property>
  <property name="meta.media.0.codec.sample_fmt">fltp</property>
  <property name="meta.media.0.codec.sample_rate">44100</property>
  <property name="meta.media.0.codec.channels">2</property>
  <property name="meta.media.0.codec.layout">stereo</property>
  <property name="meta.media.0.codec.name">mp3float</property>
  <property name="meta.media.0.codec.long_name">MP3 (MPEG audio layer 3)</property>
  <property name="meta.media.0.codec.bit_rate">192000</property>
  <property name="meta.attr.0.stream.encoder.markup">LAME3.92 </property>
  <property name="meta.attr.title.markup">Never again</property>
  <property name="meta.attr.artist.markup">Akira Yamaoka</property>
  <property name="meta.attr.album.markup">Silent Hill - Original Soundtrack</property>
  <property name="meta.attr.comment.markup">KICA7950 / KOE-CDS-002</property>
  <property name="meta.attr.genre.markup">Game</property>
  <property name="meta.attr.track.markup">17</property>
  <property name="meta.attr.date.markup">1999</property>
  <property name="seekable">1</property>
  <property name="audio_index">0</property>
  <property name="video_index">-1</property>
  <property name="astream">0</property>
  <property name="kdenlive:folderid">7</property>
  <property name="kdenlive:id">23</property>
  <property name="kdenlive:control_uuid">{9e493eaa-827b-4e99-a975-5b56739e910e}</property>
  <property name="kdenlive:clip_type">1</property>
  <property name="kdenlive:file_size">1092908</property>
  <property name="kdenlive:file_hash">8a602cc45fcad3378ea7fe334c2b4ffe</property>
  <property name="kdenlive:monitorPosition">1001</property>
 </chain>
 <chain id="chain30" out="00:01:13.555">
  <property name="length">1764</property>
  <property name="eof">pause</property>
  <property name="resource">ost/18-ost-fear_of_the_dark-bla.mp3</property>
  <property name="mlt_service">avformat</property>
  <property name="meta.media.nb_streams">1</property>
  <property name="meta.media.0.stream.type">audio</property>
  <property name="meta.media.0.codec.sample_fmt">fltp</property>
  <property name="meta.media.0.codec.sample_rate">44100</property>
  <property name="meta.media.0.codec.channels">2</property>
  <property name="meta.media.0.codec.layout">stereo</property>
  <property name="meta.media.0.codec.name">mp3float</property>
  <property name="meta.media.0.codec.long_name">MP3 (MPEG audio layer 3)</property>
  <property name="meta.media.0.codec.bit_rate">192000</property>
  <property name="meta.attr.0.stream.encoder.markup">LAME3.92 </property>
  <property name="meta.attr.title.markup">Fear of the dark</property>
  <property name="meta.attr.artist.markup">Akira Yamaoka</property>
  <property name="meta.attr.album.markup">Silent Hill - Original Soundtrack</property>
  <property name="meta.attr.comment.markup">KICA7950 / KOE-CDS-002</property>
  <property name="meta.attr.genre.markup">Game</property>
  <property name="meta.attr.track.markup">18</property>
  <property name="meta.attr.date.markup">1999</property>
  <property name="seekable">1</property>
  <property name="audio_index">0</property>
  <property name="video_index">-1</property>
  <property name="astream">0</property>
  <property name="kdenlive:folderid">7</property>
  <property name="kdenlive:id">24</property>
  <property name="kdenlive:control_uuid">{e5f89931-ac07-401c-9b0c-7fd787060d08}</property>
  <property name="kdenlive:clip_type">1</property>
  <property name="kdenlive:file_size">1768131</property>
  <property name="kdenlive:file_hash">f23752f0c4d4750d35e919d733f1b03f</property>
  <property name="kdenlive:monitorPosition">101</property>
  <property name="kdenlive:clipzones">[
    {
        "in": 0,
        "name": "Zone 1",
        "out": 1763
    }
]
</property>
 </chain>
 <chain id="chain31" out="00:00:39.331">
  <property name="length">944</property>
  <property name="eof">pause</property>
  <property name="resource">ost/19-ost-half_day-bla.mp3</property>
  <property name="mlt_service">avformat</property>
  <property name="meta.media.nb_streams">1</property>
  <property name="meta.media.0.stream.type">audio</property>
  <property name="meta.media.0.codec.sample_fmt">fltp</property>
  <property name="meta.media.0.codec.sample_rate">44100</property>
  <property name="meta.media.0.codec.channels">2</property>
  <property name="meta.media.0.codec.layout">stereo</property>
  <property name="meta.media.0.codec.name">mp3float</property>
  <property name="meta.media.0.codec.long_name">MP3 (MPEG audio layer 3)</property>
  <property name="meta.media.0.codec.bit_rate">192000</property>
  <property name="meta.attr.0.stream.encoder.markup">LAME3.92 </property>
  <property name="meta.attr.title.markup">Half day</property>
  <property name="meta.attr.artist.markup">Akira Yamaoka</property>
  <property name="meta.attr.album.markup">Silent Hill - Original Soundtrack</property>
  <property name="meta.attr.comment.markup">KICA7950 / KOE-CDS-002</property>
  <property name="meta.attr.genre.markup">Game</property>
  <property name="meta.attr.track.markup">19</property>
  <property name="meta.attr.date.markup">1999</property>
  <property name="seekable">1</property>
  <property name="audio_index">0</property>
  <property name="video_index">-1</property>
  <property name="astream">0</property>
  <property name="kdenlive:folderid">7</property>
  <property name="kdenlive:id">26</property>
  <property name="kdenlive:control_uuid">{380f28fe-4409-47cf-9a65-5331c5bbe47f}</property>
  <property name="kdenlive:clip_type">1</property>
  <property name="kdenlive:file_size">946825</property>
  <property name="kdenlive:file_hash">86be7234df881a6f851b88afb5e8a8b2</property>
  <property name="kdenlive:monitorPosition">52</property>
  <property name="kdenlive:clipzones">[
    {
        "in": 0,
        "name": "Zone 1",
        "out": 943
    }
]
</property>
 </chain>
 <chain id="chain32" out="00:01:47.881">
  <property name="length">2587</property>
  <property name="eof">pause</property>
  <property name="resource">ost/20-ost-heaven_give_me_say-bla.mp3</property>
  <property name="mlt_service">avformat</property>
  <property name="meta.media.nb_streams">1</property>
  <property name="meta.media.0.stream.type">audio</property>
  <property name="meta.media.0.codec.sample_fmt">fltp</property>
  <property name="meta.media.0.codec.sample_rate">44100</property>
  <property name="meta.media.0.codec.channels">2</property>
  <property name="meta.media.0.codec.layout">stereo</property>
  <property name="meta.media.0.codec.name">mp3float</property>
  <property name="meta.media.0.codec.long_name">MP3 (MPEG audio layer 3)</property>
  <property name="meta.media.0.codec.bit_rate">192000</property>
  <property name="meta.attr.0.stream.encoder.markup">LAME3.92 </property>
  <property name="meta.attr.title.markup">Heaven give me say</property>
  <property name="meta.attr.artist.markup">Akira Yamaoka</property>
  <property name="meta.attr.album.markup">Silent Hill - Original Soundtrack</property>
  <property name="meta.attr.comment.markup">KICA7950 / KOE-CDS-002</property>
  <property name="meta.attr.genre.markup">Game</property>
  <property name="meta.attr.track.markup">20</property>
  <property name="meta.attr.date.markup">1999</property>
  <property name="seekable">1</property>
  <property name="audio_index">0</property>
  <property name="video_index">-1</property>
  <property name="astream">0</property>
  <property name="kdenlive:folderid">7</property>
  <property name="kdenlive:id">28</property>
  <property name="kdenlive:control_uuid">{cfbad7e9-8526-4ed8-8c2f-d7ddca84239f}</property>
  <property name="kdenlive:clip_type">1</property>
  <property name="kdenlive:file_size">2591933</property>
  <property name="kdenlive:file_hash">e016ec18e5a9c7e4fb9c36d327508348</property>
  <property name="kdenlive:monitorPosition">1011</property>
 </chain>
 <chain id="chain33" out="00:01:14.806">
  <property name="length">1794</property>
  <property name="eof">pause</property>
  <property name="resource">ost/21-ost-far-bla.mp3</property>
  <property name="mlt_service">avformat</property>
  <property name="meta.media.nb_streams">1</property>
  <property name="meta.media.0.stream.type">audio</property>
  <property name="meta.media.0.codec.sample_fmt">fltp</property>
  <property name="meta.media.0.codec.sample_rate">44100</property>
  <property name="meta.media.0.codec.channels">2</property>
  <property name="meta.media.0.codec.layout">stereo</property>
  <property name="meta.media.0.codec.name">mp3float</property>
  <property name="meta.media.0.codec.long_name">MP3 (MPEG audio layer 3)</property>
  <property name="meta.media.0.codec.bit_rate">192000</property>
  <property name="meta.attr.0.stream.encoder.markup">LAME3.92 </property>
  <property name="meta.attr.title.markup">Far</property>
  <property name="meta.attr.artist.markup">Akira Yamaoka</property>
  <property name="meta.attr.album.markup">Silent Hill - Original Soundtrack</property>
  <property name="meta.attr.comment.markup">KICA7950 / KOE-CDS-002</property>
  <property name="meta.attr.genre.markup">Game</property>
  <property name="meta.attr.track.markup">21</property>
  <property name="meta.attr.date.markup">1999</property>
  <property name="seekable">1</property>
  <property name="audio_index">0</property>
  <property name="video_index">-1</property>
  <property name="astream">0</property>
  <property name="kdenlive:folderid">7</property>
  <property name="kdenlive:id">29</property>
  <property name="kdenlive:control_uuid">{9dd36d38-5d1e-4aa6-9d03-5367e9ee44ed}</property>
  <property name="kdenlive:clip_type">1</property>
  <property name="kdenlive:file_size">1798198</property>
  <property name="kdenlive:file_hash">d092982da5950180d2bcefbd8da24f05</property>
  <property name="kdenlive:monitorPosition">625</property>
  <property name="kdenlive:clipzones">[
    {
        "in": 0,
        "name": "Zone 1",
        "out": 1793
    }
]
</property>
 </chain>
 <chain id="chain34" out="00:02:52.761">
  <property name="length">4143</property>
  <property name="eof">pause</property>
  <property name="resource">ost/22-ost-ill_kill_you-bla.mp3</property>
  <property name="mlt_service">avformat</property>
  <property name="meta.media.nb_streams">1</property>
  <property name="meta.media.0.stream.type">audio</property>
  <property name="meta.media.0.codec.sample_fmt">fltp</property>
  <property name="meta.media.0.codec.sample_rate">44100</property>
  <property name="meta.media.0.codec.channels">2</property>
  <property name="meta.media.0.codec.layout">stereo</property>
  <property name="meta.media.0.codec.name">mp3float</property>
  <property name="meta.media.0.codec.long_name">MP3 (MPEG audio layer 3)</property>
  <property name="meta.media.0.codec.bit_rate">192000</property>
  <property name="meta.attr.0.stream.encoder.markup">LAME3.92 </property>
  <property name="meta.attr.title.markup">I'll kill you</property>
  <property name="meta.attr.artist.markup">Akira Yamaoka</property>
  <property name="meta.attr.album.markup">Silent Hill - Original Soundtrack</property>
  <property name="meta.attr.comment.markup">KICA7950 / KOE-CDS-002</property>
  <property name="meta.attr.genre.markup">Game</property>
  <property name="meta.attr.track.markup">22</property>
  <property name="meta.attr.date.markup">1999</property>
  <property name="seekable">1</property>
  <property name="audio_index">0</property>
  <property name="video_index">-1</property>
  <property name="astream">0</property>
  <property name="kdenlive:folderid">7</property>
  <property name="kdenlive:id">31</property>
  <property name="kdenlive:control_uuid">{cbe395bf-d169-4e37-af24-5474eac76a7a}</property>
  <property name="kdenlive:clip_type">1</property>
  <property name="kdenlive:file_size">4149239</property>
  <property name="kdenlive:file_hash">915b7dfae8d894ebbfb75bde176ca324</property>
  <property name="kdenlive:monitorPosition">1930</property>
 </chain>
 <chain id="chain35" out="00:01:21.188">
  <property name="length">1947</property>
  <property name="eof">pause</property>
  <property name="resource">ost/23-ost-my_justice_for_you-bla.mp3</property>
  <property name="mlt_service">avformat</property>
  <property name="meta.media.nb_streams">1</property>
  <property name="meta.media.0.stream.type">audio</property>
  <property name="meta.media.0.codec.sample_fmt">fltp</property>
  <property name="meta.media.0.codec.sample_rate">44100</property>
  <property name="meta.media.0.codec.channels">2</property>
  <property name="meta.media.0.codec.layout">stereo</property>
  <property name="meta.media.0.codec.name">mp3float</property>
  <property name="meta.media.0.codec.long_name">MP3 (MPEG audio layer 3)</property>
  <property name="meta.media.0.codec.bit_rate">192000</property>
  <property name="meta.attr.0.stream.encoder.markup">LAME3.92 </property>
  <property name="meta.attr.title.markup">My justice for you</property>
  <property name="meta.attr.artist.markup">Akira Yamaoka</property>
  <property name="meta.attr.album.markup">Silent Hill - Original Soundtrack</property>
  <property name="meta.attr.comment.markup">KICA7950 / KOE-CDS-002</property>
  <property name="meta.attr.genre.markup">Game</property>
  <property name="meta.attr.track.markup">23</property>
  <property name="meta.attr.date.markup">1999</property>
  <property name="seekable">1</property>
  <property name="audio_index">0</property>
  <property name="video_index">-1</property>
  <property name="astream">0</property>
  <property name="kdenlive:folderid">7</property>
  <property name="kdenlive:id">32</property>
  <property name="kdenlive:control_uuid">{25fa7146-6186-4a42-b679-230281b10611}</property>
  <property name="kdenlive:clip_type">1</property>
  <property name="kdenlive:file_size">1951201</property>
  <property name="kdenlive:file_hash">563b67867289ffd9a6b9bbdc0e13830c</property>
  <property name="kdenlive:monitorPosition">921</property>
 </chain>
 <chain id="chain36" out="00:00:25.234">
  <property name="length">606</property>
  <property name="eof">pause</property>
  <property name="resource">ost/24-ost-devils_lyric_2-bla.mp3</property>
  <property name="mlt_service">avformat</property>
  <property name="meta.media.nb_streams">1</property>
  <property name="meta.media.0.stream.type">audio</property>
  <property name="meta.media.0.codec.sample_fmt">fltp</property>
  <property name="meta.media.0.codec.sample_rate">44100</property>
  <property name="meta.media.0.codec.channels">2</property>
  <property name="meta.media.0.codec.layout">stereo</property>
  <property name="meta.media.0.codec.name">mp3float</property>
  <property name="meta.media.0.codec.long_name">MP3 (MPEG audio layer 3)</property>
  <property name="meta.media.0.codec.bit_rate">192000</property>
  <property name="meta.attr.0.stream.encoder.markup">LAME3.92 </property>
  <property name="meta.attr.title.markup">Devil's lyric 2</property>
  <property name="meta.attr.artist.markup">Akira Yamaoka</property>
  <property name="meta.attr.album.markup">Silent Hill - Original Soundtrack</property>
  <property name="meta.attr.comment.markup">KICA7950 / KOE-CDS-002</property>
  <property name="meta.attr.genre.markup">Game</property>
  <property name="meta.attr.track.markup">24</property>
  <property name="meta.attr.date.markup">1999</property>
  <property name="seekable">1</property>
  <property name="audio_index">0</property>
  <property name="video_index">-1</property>
  <property name="astream">0</property>
  <property name="kdenlive:folderid">7</property>
  <property name="kdenlive:id">33</property>
  <property name="kdenlive:control_uuid">{569a7692-aab6-4dee-a7ef-09ae8b0e5123}</property>
  <property name="kdenlive:clip_type">1</property>
  <property name="kdenlive:file_size">608919</property>
  <property name="kdenlive:file_hash">766de2b3dcd597e1fcd211ae91dac7c8</property>
  <property name="kdenlive:monitorPosition">587</property>
 </chain>
 <chain id="chain37" out="00:00:17.768">
  <property name="length">427</property>
  <property name="eof">pause</property>
  <property name="resource">ost/25-ost-dead_end-bla.mp3</property>
  <property name="mlt_service">avformat</property>
  <property name="meta.media.nb_streams">1</property>
  <property name="meta.media.0.stream.type">audio</property>
  <property name="meta.media.0.codec.sample_fmt">fltp</property>
  <property name="meta.media.0.codec.sample_rate">44100</property>
  <property name="meta.media.0.codec.channels">2</property>
  <property name="meta.media.0.codec.layout">stereo</property>
  <property name="meta.media.0.codec.name">mp3float</property>
  <property name="meta.media.0.codec.long_name">MP3 (MPEG audio layer 3)</property>
  <property name="meta.media.0.codec.bit_rate">192000</property>
  <property name="meta.attr.0.stream.encoder.markup">LAME3.92 </property>
  <property name="meta.attr.title.markup">Dead end</property>
  <property name="meta.attr.artist.markup">Akira Yamaoka</property>
  <property name="meta.attr.album.markup">Silent Hill - Original Soundtrack</property>
  <property name="meta.attr.comment.markup">KICA7950 / KOE-CDS-002</property>
  <property name="meta.attr.genre.markup">Game</property>
  <property name="meta.attr.track.markup">25</property>
  <property name="meta.attr.date.markup">1999</property>
  <property name="seekable">1</property>
  <property name="audio_index">0</property>
  <property name="video_index">-1</property>
  <property name="astream">0</property>
  <property name="kdenlive:folderid">7</property>
  <property name="kdenlive:id">34</property>
  <property name="kdenlive:control_uuid">{ed3b4391-e6f3-41ea-9ca7-dda9e184c8c7}</property>
  <property name="kdenlive:clip_type">1</property>
  <property name="kdenlive:file_size">429601</property>
  <property name="kdenlive:file_hash">9d10ee8466292dd2bb27cac4d198f472</property>
  <property name="kdenlive:monitorPosition">328</property>
 </chain>
 <chain id="chain38" out="00:01:12.179">
  <property name="length">1731</property>
  <property name="eof">pause</property>
  <property name="resource">ost/26-ost-aint_gonna_rain-bla.mp3</property>
  <property name="mlt_service">avformat</property>
  <property name="meta.media.nb_streams">1</property>
  <property name="meta.media.0.stream.type">audio</property>
  <property name="meta.media.0.codec.sample_fmt">fltp</property>
  <property name="meta.media.0.codec.sample_rate">44100</property>
  <property name="meta.media.0.codec.channels">2</property>
  <property name="meta.media.0.codec.layout">stereo</property>
  <property name="meta.media.0.codec.name">mp3float</property>
  <property name="meta.media.0.codec.long_name">MP3 (MPEG audio layer 3)</property>
  <property name="meta.media.0.codec.bit_rate">192000</property>
  <property name="meta.attr.0.stream.encoder.markup">LAME3.92 </property>
  <property name="meta.attr.title.markup">Ain't gonna rain</property>
  <property name="meta.attr.artist.markup">Akira Yamaoka</property>
  <property name="meta.attr.album.markup">Silent Hill - Original Soundtrack</property>
  <property name="meta.attr.comment.markup">KICA7950 / KOE-CDS-002</property>
  <property name="meta.attr.genre.markup">Game</property>
  <property name="meta.attr.track.markup">26</property>
  <property name="meta.attr.date.markup">1999</property>
  <property name="seekable">1</property>
  <property name="audio_index">0</property>
  <property name="video_index">-1</property>
  <property name="astream">0</property>
  <property name="kdenlive:folderid">7</property>
  <property name="kdenlive:id">35</property>
  <property name="kdenlive:control_uuid">{7ecff243-088d-4a3e-a6bc-ca29c739cedd}</property>
  <property name="kdenlive:clip_type">1</property>
  <property name="kdenlive:file_size">1734276</property>
  <property name="kdenlive:file_hash">0d5702c4114a001b9e0818f664dc3403</property>
  <property name="kdenlive:monitorPosition">76</property>
 </chain>
 <chain id="chain39" out="00:00:51.301">
  <property name="length">1231</property>
  <property name="eof">pause</property>
  <property name="resource">ost/27-ost-nothing_else-bla.mp3</property>
  <property name="mlt_service">avformat</property>
  <property name="meta.media.nb_streams">1</property>
  <property name="meta.media.0.stream.type">audio</property>
  <property name="meta.media.0.codec.sample_fmt">fltp</property>
  <property name="meta.media.0.codec.sample_rate">44100</property>
  <property name="meta.media.0.codec.channels">2</property>
  <property name="meta.media.0.codec.layout">stereo</property>
  <property name="meta.media.0.codec.name">mp3float</property>
  <property name="meta.media.0.codec.long_name">MP3 (MPEG audio layer 3)</property>
  <property name="meta.media.0.codec.bit_rate">192000</property>
  <property name="meta.attr.0.stream.encoder.markup">LAME3.92 </property>
  <property name="meta.attr.title.markup">Nothing else</property>
  <property name="meta.attr.artist.markup">Akira Yamaoka</property>
  <property name="meta.attr.album.markup">Silent Hill - Original Soundtrack</property>
  <property name="meta.attr.comment.markup">KICA7950 / KOE-CDS-002</property>
  <property name="meta.attr.genre.markup">Game</property>
  <property name="meta.attr.track.markup">27</property>
  <property name="meta.attr.date.markup">1999</property>
  <property name="seekable">1</property>
  <property name="audio_index">0</property>
  <property name="video_index">-1</property>
  <property name="astream">0</property>
  <property name="kdenlive:folderid">7</property>
  <property name="kdenlive:id">36</property>
  <property name="kdenlive:control_uuid">{39a57a90-0dce-4e91-8a17-f09cdd6d8ead}</property>
  <property name="kdenlive:clip_type">1</property>
  <property name="kdenlive:file_size">1234598</property>
  <property name="kdenlive:file_hash">83f0aa5bf2581f0e5121387571c715f0</property>
  <property name="kdenlive:monitorPosition">728</property>
 </chain>
 <chain id="chain40" out="00:00:33.116">
  <property name="length">795</property>
  <property name="eof">pause</property>
  <property name="resource">ost/28-ost-alive-bla.mp3</property>
  <property name="mlt_service">avformat</property>
  <property name="meta.media.nb_streams">1</property>
  <property name="meta.media.0.stream.type">audio</property>
  <property name="meta.media.0.codec.sample_fmt">fltp</property>
  <property name="meta.media.0.codec.sample_rate">44100</property>
  <property name="meta.media.0.codec.channels">2</property>
  <property name="meta.media.0.codec.layout">stereo</property>
  <property name="meta.media.0.codec.name">mp3float</property>
  <property name="meta.media.0.codec.long_name">MP3 (MPEG audio layer 3)</property>
  <property name="meta.media.0.codec.bit_rate">192000</property>
  <property name="meta.attr.0.stream.encoder.markup">LAME3.92 </property>
  <property name="meta.attr.title.markup">Alive</property>
  <property name="meta.attr.artist.markup">Akira Yamaoka</property>
  <property name="meta.attr.album.markup">Silent Hill - Original Soundtrack</property>
  <property name="meta.attr.comment.markup">KICA7950 / KOE-CDS-002</property>
  <property name="meta.attr.genre.markup">Game</property>
  <property name="meta.attr.track.markup">28</property>
  <property name="meta.attr.date.markup">1999</property>
  <property name="seekable">1</property>
  <property name="audio_index">0</property>
  <property name="video_index">-1</property>
  <property name="astream">0</property>
  <property name="kdenlive:folderid">7</property>
  <property name="kdenlive:id">37</property>
  <property name="kdenlive:control_uuid">{e6c73e9b-b64d-418e-b0df-1a1d0f998f90}</property>
  <property name="kdenlive:clip_type">1</property>
  <property name="kdenlive:file_size">798235</property>
  <property name="kdenlive:file_hash">8db8a2b49e90c81ad1166b06e4227830</property>
  <property name="kdenlive:monitorPosition">336</property>
 </chain>
 <chain id="chain41" out="00:01:01.877">
  <property name="length">1484</property>
  <property name="eof">pause</property>
  <property name="resource">ost/29-ost-never_again-bla.mp3</property>
  <property name="mlt_service">avformat</property>
  <property name="meta.media.nb_streams">1</property>
  <property name="meta.media.0.stream.type">audio</property>
  <property name="meta.media.0.codec.sample_fmt">fltp</property>
  <property name="meta.media.0.codec.sample_rate">44100</property>
  <property name="meta.media.0.codec.channels">2</property>
  <property name="meta.media.0.codec.layout">stereo</property>
  <property name="meta.media.0.codec.name">mp3float</property>
  <property name="meta.media.0.codec.long_name">MP3 (MPEG audio layer 3)</property>
  <property name="meta.media.0.codec.bit_rate">192000</property>
  <property name="meta.attr.0.stream.encoder.markup">LAME3.92 </property>
  <property name="meta.attr.title.markup">Never again</property>
  <property name="meta.attr.artist.markup">Akira Yamaoka</property>
  <property name="meta.attr.album.markup">Silent Hill - Original Soundtrack</property>
  <property name="meta.attr.comment.markup">KICA7950 / KOE-CDS-002</property>
  <property name="meta.attr.genre.markup">Game</property>
  <property name="meta.attr.track.markup">29</property>
  <property name="meta.attr.date.markup">1999</property>
  <property name="seekable">1</property>
  <property name="audio_index">0</property>
  <property name="video_index">-1</property>
  <property name="astream">0</property>
  <property name="kdenlive:folderid">7</property>
  <property name="kdenlive:id">38</property>
  <property name="kdenlive:control_uuid">{efbfdc33-bb29-4ac9-9dff-b225dd8e339c}</property>
  <property name="kdenlive:clip_type">1</property>
  <property name="kdenlive:file_size">1487253</property>
  <property name="kdenlive:file_hash">adb6ba4287244b85ade4cebb0e46aa7d</property>
  <property name="kdenlive:monitorPosition">446</property>
 </chain>
 <chain id="chain42" out="00:00:56.390">
  <property name="length">1353</property>
  <property name="eof">pause</property>
  <property name="resource">ost/30-ost-die-bla.mp3</property>
  <property name="mlt_service">avformat</property>
  <property name="meta.media.nb_streams">1</property>
  <property name="meta.media.0.stream.type">audio</property>
  <property name="meta.media.0.codec.sample_fmt">fltp</property>
  <property name="meta.media.0.codec.sample_rate">44100</property>
  <property name="meta.media.0.codec.channels">2</property>
  <property name="meta.media.0.codec.layout">stereo</property>
  <property name="meta.media.0.codec.name">mp3float</property>
  <property name="meta.media.0.codec.long_name">MP3 (MPEG audio layer 3)</property>
  <property name="meta.media.0.codec.bit_rate">192000</property>
  <property name="meta.attr.0.stream.encoder.markup">LAME3.92 </property>
  <property name="meta.attr.title.markup">Die</property>
  <property name="meta.attr.artist.markup">Akira Yamaoka</property>
  <property name="meta.attr.album.markup">Silent Hill - Original Soundtrack</property>
  <property name="meta.attr.comment.markup">KICA7950 / KOE-CDS-002</property>
  <property name="meta.attr.genre.markup">Game</property>
  <property name="meta.attr.track.markup">30</property>
  <property name="meta.attr.date.markup">1999</property>
  <property name="seekable">1</property>
  <property name="audio_index">0</property>
  <property name="video_index">-1</property>
  <property name="astream">0</property>
  <property name="kdenlive:folderid">7</property>
  <property name="kdenlive:id">39</property>
  <property name="kdenlive:control_uuid">{5fc5eef9-f6d1-4ee3-bbb8-17af113d0298}</property>
  <property name="kdenlive:clip_type">1</property>
  <property name="kdenlive:file_size">1356833</property>
  <property name="kdenlive:file_hash">730ab52a0d689b2f60754a5db1d478c5</property>
  <property name="kdenlive:monitorPosition">71</property>
 </chain>
 <chain id="chain43" out="00:00:46.755">
  <property name="length">1122</property>
  <property name="eof">pause</property>
  <property name="resource">ost/31-ost-never_end_never_end_never_end-bla.mp3</property>
  <property name="mlt_service">avformat</property>
  <property name="meta.media.nb_streams">1</property>
  <property name="meta.media.0.stream.type">audio</property>
  <property name="meta.media.0.codec.sample_fmt">fltp</property>
  <property name="meta.media.0.codec.sample_rate">44100</property>
  <property name="meta.media.0.codec.channels">2</property>
  <property name="meta.media.0.codec.layout">stereo</property>
  <property name="meta.media.0.codec.name">mp3float</property>
  <property name="meta.media.0.codec.long_name">MP3 (MPEG audio layer 3)</property>
  <property name="meta.media.0.codec.bit_rate">192000</property>
  <property name="meta.attr.0.stream.encoder.markup">LAME3.92 </property>
  <property name="meta.attr.title.markup">Never end, never end, never en</property>
  <property name="meta.attr.artist.markup">Akira Yamaoka</property>
  <property name="meta.attr.album.markup">Silent Hill - Original Soundtrack</property>
  <property name="meta.attr.comment.markup">KICA7950 / KOE-CDS-002</property>
  <property name="meta.attr.genre.markup">Game</property>
  <property name="meta.attr.track.markup">31</property>
  <property name="meta.attr.date.markup">1999</property>
  <property name="seekable">1</property>
  <property name="audio_index">0</property>
  <property name="video_index">-1</property>
  <property name="astream">0</property>
  <property name="kdenlive:folderid">7</property>
  <property name="kdenlive:id">40</property>
  <property name="kdenlive:control_uuid">{e8be3655-7efa-4d42-bb7a-46560865d2e3}</property>
  <property name="kdenlive:clip_type">1</property>
  <property name="kdenlive:file_size">1125586</property>
  <property name="kdenlive:file_hash">fa5d55ae98321f51676b738f041b47c9</property>
  <property name="kdenlive:monitorPosition">826</property>
 </chain>
 <chain id="chain44" out="00:01:38.413">
  <property name="length">2360</property>
  <property name="eof">pause</property>
  <property name="resource">ost/32-ost-down_time-bla.mp3</property>
  <property name="mlt_service">avformat</property>
  <property name="meta.media.nb_streams">1</property>
  <property name="meta.media.0.stream.type">audio</property>
  <property name="meta.media.0.codec.sample_fmt">fltp</property>
  <property name="meta.media.0.codec.sample_rate">44100</property>
  <property name="meta.media.0.codec.channels">2</property>
  <property name="meta.media.0.codec.layout">stereo</property>
  <property name="meta.media.0.codec.name">mp3float</property>
  <property name="meta.media.0.codec.long_name">MP3 (MPEG audio layer 3)</property>
  <property name="meta.media.0.codec.bit_rate">192000</property>
  <property name="meta.attr.0.stream.encoder.markup">LAME3.92 </property>
  <property name="meta.attr.title.markup">Down time</property>
  <property name="meta.attr.artist.markup">Akira Yamaoka</property>
  <property name="meta.attr.album.markup">Silent Hill - Original Soundtrack</property>
  <property name="meta.attr.comment.markup">KICA7950 / KOE-CDS-002</property>
  <property name="meta.attr.genre.markup">Game</property>
  <property name="meta.attr.track.markup">32</property>
  <property name="meta.attr.date.markup">1999</property>
  <property name="seekable">1</property>
  <property name="audio_index">0</property>
  <property name="video_index">-1</property>
  <property name="astream">0</property>
  <property name="kdenlive:folderid">7</property>
  <property name="kdenlive:id">41</property>
  <property name="kdenlive:control_uuid">{becc75c9-fae5-46a6-b8c8-7c7725da0317}</property>
  <property name="kdenlive:clip_type">1</property>
  <property name="kdenlive:file_size">2364336</property>
  <property name="kdenlive:file_hash">ddad206bfd689e3995d6fbe4affae460</property>
  <property name="kdenlive:monitorPosition">435</property>
 </chain>
 <chain id="chain45" out="00:01:16.892">
  <property name="length">1844</property>
  <property name="eof">pause</property>
  <property name="resource">ost/33-ost-kill_angels-bla.mp3</property>
  <property name="mlt_service">avformat</property>
  <property name="meta.media.nb_streams">1</property>
  <property name="meta.media.0.stream.type">audio</property>
  <property name="meta.media.0.codec.sample_fmt">fltp</property>
  <property name="meta.media.0.codec.sample_rate">44100</property>
  <property name="meta.media.0.codec.channels">2</property>
  <property name="meta.media.0.codec.layout">stereo</property>
  <property name="meta.media.0.codec.name">mp3float</property>
  <property name="meta.media.0.codec.long_name">MP3 (MPEG audio layer 3)</property>
  <property name="meta.media.0.codec.bit_rate">192000</property>
  <property name="meta.attr.0.stream.encoder.markup">LAME3.92 </property>
  <property name="meta.attr.title.markup">Kill angels</property>
  <property name="meta.attr.artist.markup">Akira Yamaoka</property>
  <property name="meta.attr.album.markup">Silent Hill - Original Soundtrack</property>
  <property name="meta.attr.comment.markup">KICA7950 / KOE-CDS-002</property>
  <property name="meta.attr.genre.markup">Game</property>
  <property name="meta.attr.track.markup">33</property>
  <property name="meta.attr.date.markup">1999</property>
  <property name="seekable">1</property>
  <property name="audio_index">0</property>
  <property name="video_index">-1</property>
  <property name="astream">0</property>
  <property name="kdenlive:folderid">7</property>
  <property name="kdenlive:id">42</property>
  <property name="kdenlive:control_uuid">{9bfcf494-3719-48cc-a2f9-7aa8be7371b4}</property>
  <property name="kdenlive:clip_type">1</property>
  <property name="kdenlive:file_size">1848369</property>
  <property name="kdenlive:file_hash">0b416d38373d2057010cf975560f5828</property>
  <property name="kdenlive:monitorPosition">594</property>
 </chain>
 <chain id="chain46" out="00:01:16.767">
  <property name="length">1841</property>
  <property name="eof">pause</property>
  <property name="resource">ost/34-ost-only_you-bla.mp3</property>
  <property name="mlt_service">avformat</property>
  <property name="meta.media.nb_streams">1</property>
  <property name="meta.media.0.stream.type">audio</property>
  <property name="meta.media.0.codec.sample_fmt">fltp</property>
  <property name="meta.media.0.codec.sample_rate">44100</property>
  <property name="meta.media.0.codec.channels">2</property>
  <property name="meta.media.0.codec.layout">stereo</property>
  <property name="meta.media.0.codec.name">mp3float</property>
  <property name="meta.media.0.codec.long_name">MP3 (MPEG audio layer 3)</property>
  <property name="meta.media.0.codec.bit_rate">192000</property>
  <property name="meta.attr.0.stream.encoder.markup">LAME3.92 </property>
  <property name="meta.attr.title.markup">Only you</property>
  <property name="meta.attr.artist.markup">Akira Yamaoka</property>
  <property name="meta.attr.album.markup">Silent Hill - Original Soundtrack</property>
  <property name="meta.attr.comment.markup">KICA7950 / KOE-CDS-002</property>
  <property name="meta.attr.genre.markup">Game</property>
  <property name="meta.attr.track.markup">34</property>
  <property name="meta.attr.date.markup">1999</property>
  <property name="seekable">1</property>
  <property name="audio_index">0</property>
  <property name="video_index">-1</property>
  <property name="astream">0</property>
  <property name="kdenlive:folderid">7</property>
  <property name="kdenlive:id">43</property>
  <property name="kdenlive:control_uuid">{2f01d768-ef04-4fa3-a627-88e0604f72e1}</property>
  <property name="kdenlive:clip_type">1</property>
  <property name="kdenlive:file_size">1845229</property>
  <property name="kdenlive:file_hash">f222ba54bbfb8834d1a0541cdaed5044</property>
  <property name="kdenlive:monitorPosition">1565</property>
 </chain>
 <chain id="chain47" out="00:00:48.090">
  <property name="length">1154</property>
  <property name="eof">pause</property>
  <property name="resource">ost/35-ost-not_tomorrow_1-bla.mp3</property>
  <property name="mlt_service">avformat</property>
  <property name="meta.media.nb_streams">1</property>
  <property name="meta.media.0.stream.type">audio</property>
  <property name="meta.media.0.codec.sample_fmt">fltp</property>
  <property name="meta.media.0.codec.sample_rate">44100</property>
  <property name="meta.media.0.codec.channels">2</property>
  <property name="meta.media.0.codec.layout">stereo</property>
  <property name="meta.media.0.codec.name">mp3float</property>
  <property name="meta.media.0.codec.long_name">MP3 (MPEG audio layer 3)</property>
  <property name="meta.media.0.codec.bit_rate">192000</property>
  <property name="meta.attr.0.stream.encoder.markup">LAME3.92 </property>
  <property name="meta.attr.title.markup">Not tomorrow 1</property>
  <property name="meta.attr.artist.markup">Akira Yamaoka</property>
  <property name="meta.attr.album.markup">Silent Hill - Original Soundtrack</property>
  <property name="meta.attr.comment.markup">KICA7950 / KOE-CDS-002</property>
  <property name="meta.attr.genre.markup">Game</property>
  <property name="meta.attr.track.markup">35</property>
  <property name="meta.attr.date.markup">1999</property>
  <property name="seekable">1</property>
  <property name="audio_index">0</property>
  <property name="video_index">-1</property>
  <property name="astream">0</property>
  <property name="kdenlive:folderid">7</property>
  <property name="kdenlive:id">44</property>
  <property name="kdenlive:control_uuid">{1fb9511a-16d7-497d-aa21-1e21bfdec260}</property>
  <property name="kdenlive:clip_type">1</property>
  <property name="kdenlive:file_size">1156862</property>
  <property name="kdenlive:file_hash">15b214cd0b53038bcad55f640c53128a</property>
  <property name="kdenlive:monitorPosition">1117</property>
 </chain>
 <chain id="chain48" out="00:01:38.872">
  <property name="length">2371</property>
  <property name="eof">pause</property>
  <property name="resource">ost/36-ost-not_tomorrow_2-bla.mp3</property>
  <property name="mlt_service">avformat</property>
  <property name="meta.media.nb_streams">1</property>
  <property name="meta.media.0.stream.type">audio</property>
  <property name="meta.media.0.codec.sample_fmt">fltp</property>
  <property name="meta.media.0.codec.sample_rate">44100</property>
  <property name="meta.media.0.codec.channels">2</property>
  <property name="meta.media.0.codec.layout">stereo</property>
  <property name="meta.media.0.codec.name">mp3float</property>
  <property name="meta.media.0.codec.long_name">MP3 (MPEG audio layer 3)</property>
  <property name="meta.media.0.codec.bit_rate">192000</property>
  <property name="meta.attr.0.stream.encoder.markup">LAME3.92 </property>
  <property name="meta.attr.title.markup">Not tomorrow 2</property>
  <property name="meta.attr.artist.markup">Akira Yamaoka</property>
  <property name="meta.attr.album.markup">Silent Hill - Original Soundtrack</property>
  <property name="meta.attr.comment.markup">KICA7950 / KOE-CDS-002</property>
  <property name="meta.attr.genre.markup">Game</property>
  <property name="meta.attr.track.markup">36</property>
  <property name="meta.attr.date.markup">1999</property>
  <property name="seekable">1</property>
  <property name="audio_index">0</property>
  <property name="video_index">-1</property>
  <property name="astream">0</property>
  <property name="kdenlive:folderid">7</property>
  <property name="kdenlive:id">45</property>
  <property name="kdenlive:control_uuid">{956dae2d-f50c-43dc-b607-b94751f5e347}</property>
  <property name="kdenlive:clip_type">1</property>
  <property name="kdenlive:file_size">2375631</property>
  <property name="kdenlive:file_hash">690bdb5cbc6e2f423e1d6838b5d15d8e</property>
 </chain>
 <chain id="chain49" out="00:03:17.643">
  <property name="length">4739</property>
  <property name="eof">pause</property>
  <property name="resource">ost/37-ost-my_heaven-bla.mp3</property>
  <property name="mlt_service">avformat</property>
  <property name="meta.media.nb_streams">1</property>
  <property name="meta.media.0.stream.type">audio</property>
  <property name="meta.media.0.codec.sample_fmt">fltp</property>
  <property name="meta.media.0.codec.sample_rate">44100</property>
  <property name="meta.media.0.codec.channels">2</property>
  <property name="meta.media.0.codec.layout">stereo</property>
  <property name="meta.media.0.codec.name">mp3float</property>
  <property name="meta.media.0.codec.long_name">MP3 (MPEG audio layer 3)</property>
  <property name="meta.media.0.codec.bit_rate">192000</property>
  <property name="meta.attr.0.stream.encoder.markup">LAME3.92 </property>
  <property name="meta.attr.title.markup">My heaven</property>
  <property name="meta.attr.artist.markup">Akira Yamaoka</property>
  <property name="meta.attr.album.markup">Silent Hill - Original Soundtrack</property>
  <property name="meta.attr.comment.markup">KICA7950 / KOE-CDS-002</property>
  <property name="meta.attr.genre.markup">Game</property>
  <property name="meta.attr.track.markup">37</property>
  <property name="meta.attr.date.markup">1999</property>
  <property name="seekable">1</property>
  <property name="audio_index">0</property>
  <property name="video_index">-1</property>
  <property name="astream">0</property>
  <property name="kdenlive:folderid">7</property>
  <property name="kdenlive:id">46</property>
  <property name="kdenlive:control_uuid">{c947e193-3362-48c4-a42f-41e765b1f641}</property>
  <property name="kdenlive:clip_type">1</property>
  <property name="kdenlive:file_size">4745449</property>
  <property name="kdenlive:file_hash">b0efc5f266f4ab1237d0bdbf0d49630c</property>
 </chain>
 <chain id="chain50" out="00:03:16.058">
  <property name="length">4701</property>
  <property name="eof">pause</property>
  <property name="resource">ost/38-ost-tears_of___-bla.mp3</property>
  <property name="mlt_service">avformat</property>
  <property name="meta.media.nb_streams">1</property>
  <property name="meta.media.0.stream.type">audio</property>
  <property name="meta.media.0.codec.sample_fmt">fltp</property>
  <property name="meta.media.0.codec.sample_rate">44100</property>
  <property name="meta.media.0.codec.channels">2</property>
  <property name="meta.media.0.codec.layout">stereo</property>
  <property name="meta.media.0.codec.name">mp3float</property>
  <property name="meta.media.0.codec.long_name">MP3 (MPEG audio layer 3)</property>
  <property name="meta.media.0.codec.bit_rate">192000</property>
  <property name="meta.attr.0.stream.encoder.markup">LAME3.92 </property>
  <property name="meta.attr.title.markup">Tears of...</property>
  <property name="meta.attr.artist.markup">Akira Yamaoka</property>
  <property name="meta.attr.album.markup">Silent Hill - Original Soundtrack</property>
  <property name="meta.attr.comment.markup">KICA7950 / KOE-CDS-002</property>
  <property name="meta.attr.genre.markup">Game</property>
  <property name="meta.attr.track.markup">38</property>
  <property name="meta.attr.date.markup">1999</property>
  <property name="seekable">1</property>
  <property name="audio_index">0</property>
  <property name="video_index">-1</property>
  <property name="astream">0</property>
  <property name="kdenlive:folderid">7</property>
  <property name="kdenlive:id">47</property>
  <property name="kdenlive:control_uuid">{e13aef67-caf4-41a1-9ec1-b7a7b2982d83}</property>
  <property name="kdenlive:clip_type">1</property>
  <property name="kdenlive:file_size">4707837</property>
  <property name="kdenlive:file_hash">3e59df855fbbed823c3f7345533d575d</property>
  <property name="kdenlive:monitorPosition">0</property>
 </chain>
 <chain id="chain51" out="00:02:54.471">
  <property name="length">4184</property>
  <property name="eof">pause</property>
  <property name="resource">ost/39-ost-killing_time-bla.mp3</property>
  <property name="mlt_service">avformat</property>
  <property name="meta.media.nb_streams">1</property>
  <property name="meta.media.0.stream.type">audio</property>
  <property name="meta.media.0.codec.sample_fmt">fltp</property>
  <property name="meta.media.0.codec.sample_rate">44100</property>
  <property name="meta.media.0.codec.channels">2</property>
  <property name="meta.media.0.codec.layout">stereo</property>
  <property name="meta.media.0.codec.name">mp3float</property>
  <property name="meta.media.0.codec.long_name">MP3 (MPEG audio layer 3)</property>
  <property name="meta.media.0.codec.bit_rate">192000</property>
  <property name="meta.attr.0.stream.encoder.markup">LAME3.92 </property>
  <property name="meta.attr.title.markup">Killing time</property>
  <property name="meta.attr.artist.markup">Akira Yamaoka</property>
  <property name="meta.attr.album.markup">Silent Hill - Original Soundtrack</property>
  <property name="meta.attr.comment.markup">KICA7950 / KOE-CDS-002</property>
  <property name="meta.attr.genre.markup">Game</property>
  <property name="meta.attr.track.markup">39</property>
  <property name="meta.attr.date.markup">1999</property>
  <property name="seekable">1</property>
  <property name="audio_index">0</property>
  <property name="video_index">-1</property>
  <property name="astream">0</property>
  <property name="kdenlive:folderid">7</property>
  <property name="kdenlive:id">48</property>
  <property name="kdenlive:control_uuid">{0993d63c-07fa-452f-8859-01880e19cc76}</property>
  <property name="kdenlive:clip_type">1</property>
  <property name="kdenlive:file_size">4189988</property>
  <property name="kdenlive:file_hash">f4e37ce41b4f65aadc4c24dc49959613</property>
  <property name="kdenlive:monitorPosition">15</property>
 </chain>
 <chain id="chain52" out="00:02:36.078">
  <property name="length">3743</property>
  <property name="eof">pause</property>
  <property name="resource">ost/40-ost-she-bla.mp3</property>
  <property name="mlt_service">avformat</property>
  <property name="meta.media.nb_streams">1</property>
  <property name="meta.media.0.stream.type">audio</property>
  <property name="meta.media.0.codec.sample_fmt">fltp</property>
  <property name="meta.media.0.codec.sample_rate">44100</property>
  <property name="meta.media.0.codec.channels">2</property>
  <property name="meta.media.0.codec.layout">stereo</property>
  <property name="meta.media.0.codec.name">mp3float</property>
  <property name="meta.media.0.codec.long_name">MP3 (MPEG audio layer 3)</property>
  <property name="meta.media.0.codec.bit_rate">192000</property>
  <property name="meta.attr.0.stream.encoder.markup">LAME3.92 </property>
  <property name="meta.attr.title.markup">She</property>
  <property name="meta.attr.artist.markup">Akira Yamaoka</property>
  <property name="meta.attr.album.markup">Silent Hill - Original Soundtrack</property>
  <property name="meta.attr.comment.markup">KICA7950 / KOE-CDS-002</property>
  <property name="meta.attr.genre.markup">Game</property>
  <property name="meta.attr.track.markup">40</property>
  <property name="meta.attr.date.markup">1999</property>
  <property name="seekable">1</property>
  <property name="audio_index">0</property>
  <property name="video_index">-1</property>
  <property name="astream">0</property>
  <property name="kdenlive:folderid">7</property>
  <property name="kdenlive:id">49</property>
  <property name="kdenlive:control_uuid">{0412c3eb-7193-4ad7-b7f2-6fee1a318250}</property>
  <property name="kdenlive:clip_type">1</property>
  <property name="kdenlive:file_size">3748605</property>
  <property name="kdenlive:file_hash">8fc267edb538a2c3f75d90c3c943ba4d</property>
  <property name="kdenlive:monitorPosition">1514</property>
 </chain>
 <chain id="chain53" out="00:06:26.318">
  <property name="length">9263</property>
  <property name="eof">pause</property>
  <property name="resource">ost/41-ost-esperandote-bla.mp3</property>
  <property name="mlt_service">avformat</property>
  <property name="meta.media.nb_streams">1</property>
  <property name="meta.media.0.stream.type">audio</property>
  <property name="meta.media.0.codec.sample_fmt">fltp</property>
  <property name="meta.media.0.codec.sample_rate">44100</property>
  <property name="meta.media.0.codec.channels">2</property>
  <property name="meta.media.0.codec.layout">stereo</property>
  <property name="meta.media.0.codec.name">mp3float</property>
  <property name="meta.media.0.codec.long_name">MP3 (MPEG audio layer 3)</property>
  <property name="meta.media.0.codec.bit_rate">192000</property>
  <property name="meta.attr.0.stream.encoder.markup">LAME3.92 </property>
  <property name="meta.attr.title.markup">Esperandote</property>
  <property name="meta.attr.artist.markup">Akira Yamaoka</property>
  <property name="meta.attr.album.markup">Silent Hill - Original Soundtrack</property>
  <property name="meta.attr.comment.markup">KICA7950 / KOE-CDS-002</property>
  <property name="meta.attr.genre.markup">Game</property>
  <property name="meta.attr.track.markup">41</property>
  <property name="meta.attr.date.markup">1999</property>
  <property name="seekable">1</property>
  <property name="audio_index">0</property>
  <property name="video_index">-1</property>
  <property name="astream">0</property>
  <property name="kdenlive:folderid">7</property>
  <property name="kdenlive:id">50</property>
  <property name="kdenlive:control_uuid">{c28ab79c-c70e-4362-8596-9d2f088c1951}</property>
  <property name="kdenlive:clip_type">1</property>
  <property name="kdenlive:file_size">9273832</property>
  <property name="kdenlive:file_hash">8e981abb4796a39e87a4f550e8157f1a</property>
  <property name="kdenlive:monitorPosition">2601</property>
 </chain>
 <chain id="chain54" out="00:06:23.106">
  <property name="length">9186</property>
  <property name="eof">pause</property>
  <property name="resource">ost/42-ost-silent_hill_(otherside)-bla.mp3</property>
  <property name="mlt_service">avformat</property>
  <property name="meta.media.nb_streams">1</property>
  <property name="meta.media.0.stream.type">audio</property>
  <property name="meta.media.0.codec.sample_fmt">fltp</property>
  <property name="meta.media.0.codec.sample_rate">44100</property>
  <property name="meta.media.0.codec.channels">2</property>
  <property name="meta.media.0.codec.layout">stereo</property>
  <property name="meta.media.0.codec.name">mp3float</property>
  <property name="meta.media.0.codec.long_name">MP3 (MPEG audio layer 3)</property>
  <property name="meta.media.0.codec.bit_rate">192000</property>
  <property name="meta.attr.0.stream.encoder.markup">LAME3.92 </property>
  <property name="meta.attr.title.markup">Silent hill (otherside)</property>
  <property name="meta.attr.artist.markup">Akira Yamaoka</property>
  <property name="meta.attr.album.markup">Silent Hill - Original Soundtrack</property>
  <property name="meta.attr.comment.markup">KICA7950 / KOE-CDS-002</property>
  <property name="meta.attr.genre.markup">Game</property>
  <property name="meta.attr.track.markup">42</property>
  <property name="meta.attr.date.markup">1999</property>
  <property name="seekable">1</property>
  <property name="audio_index">0</property>
  <property name="video_index">-1</property>
  <property name="astream">0</property>
  <property name="kdenlive:folderid">7</property>
  <property name="kdenlive:id">51</property>
  <property name="kdenlive:control_uuid">{b53b8027-3908-490f-b0ea-a36a4c7a2134}</property>
  <property name="kdenlive:clip_type">1</property>
  <property name="kdenlive:file_size">9197370</property>
  <property name="kdenlive:file_hash">3ebc62240ac5f91cfee6e27a17a85463</property>
 </chain>
 <chain id="chain55" out="00:05:17.267">
  <property name="length">7607</property>
  <property name="eof">pause</property>
  <property name="resource">ost/Silent_Hill_Nay_Tomorrow_OC_ReMix.mp3</property>
  <property name="mlt_service">avformat-novalidate</property>
  <property name="meta.media.nb_streams">2</property>
  <property name="meta.media.0.stream.type">audio</property>
  <property name="meta.media.0.codec.sample_fmt">fltp</property>
  <property name="meta.media.0.codec.sample_rate">44100</property>
  <property name="meta.media.0.codec.channels">2</property>
  <property name="meta.media.0.codec.layout">stereo</property>
  <property name="meta.media.0.codec.name">mp3float</property>
  <property name="meta.media.0.codec.long_name">MP3 (MPEG audio layer 3)</property>
  <property name="meta.media.0.codec.bit_rate">128000</property>
  <property name="meta.media.1.stream.type">video</property>
  <property name="meta.media.1.stream.frame_rate">90000</property>
  <property name="meta.media.1.stream.sample_aspect_ratio">0</property>
  <property name="meta.media.1.codec.width">700</property>
  <property name="meta.media.1.codec.height">700</property>
  <property name="meta.media.1.codec.rotate">0</property>
  <property name="meta.media.1.codec.pix_fmt">yuvj444p</property>
  <property name="meta.media.1.codec.sample_aspect_ratio">0</property>
  <property name="meta.media.1.codec.colorspace">601</property>
  <property name="meta.media.1.codec.name">mjpeg</property>
  <property name="meta.media.1.codec.long_name">MJPEG (Motion JPEG)</property>
  <property name="meta.media.1.codec.bit_rate">0</property>
  <property name="meta.attr.1.stream.comment.markup">Cover (front)</property>
  <property name="meta.attr.album.markup">ocremix.org</property>
  <property name="meta.attr.artist.markup">Tamimi</property>
  <property name="meta.attr.album_artist.markup">OverClocked ReMix</property>
  <property name="meta.attr.comment.markup">el_selvador@hotmail.com</property>
  <property name="meta.attr.composer.markup">Akira Yamaoka</property>
  <property name="meta.attr.grouping.markup">Silent Hill</property>
  <property name="meta.attr.copyright.markup">Konami</property>
  <property name="meta.attr.encoded_by.markup">el_selvador@hotmail.com</property>
  <property name="meta.attr.genre.markup">Game</property>
  <property name="meta.attr.compilation.markup">1</property>
  <property name="meta.attr.TOPE.markup">PlayStation</property>
  <property name="meta.attr.publisher.markup">OverClocked ReMix</property>
  <property name="meta.attr.SETSUBTITLE.markup">OCR00756</property>
  <property name="meta.attr.TIT3.markup">Nay Tomorrow</property>
  <property name="meta.attr.title.markup">Silent Hill "Nay Tomorrow" OC ReMix</property>
  <property name="meta.attr.track.markup">756</property>
  <property name="meta.attr.date.markup">2002</property>
  <property name="seekable">1</property>
  <property name="meta.media.sample_aspect_num">1</property>
  <property name="meta.media.sample_aspect_den">1</property>
  <property name="audio_index">0</property>
  <property name="video_index">1</property>
  <property name="vstream">0</property>
  <property name="meta.media.frame_rate_num">90000</property>
  <property name="meta.media.frame_rate_den">1</property>
  <property name="meta.media.colorspace">601</property>
  <property name="meta.media.color_trc">2</property>
  <property name="meta.media.has_b_frames">0</property>
  <property name="meta.media.width">700</property>
  <property name="meta.media.height">700</property>
  <property name="meta.media.aspect_ratio">1</property>
  <property name="meta.media.color_range">full</property>
  <property name="astream">0</property>
  <property name="meta.media.top_field_first">0</property>
  <property name="meta.media.progressive">1</property>
  <property name="kdenlive:folderid">7</property>
  <property name="kdenlive:id">52</property>
  <property name="kdenlive:control_uuid">{ae629ffd-3c87-4f68-b74d-bec36bd22b51}</property>
  <property name="mute_on_pause">0</property>
  <property name="kdenlive:clip_type">0</property>
  <property name="kdenlive:coverartstream">1</property>
  <property name="kdenlive:file_size">5163581</property>
  <property name="kdenlive:file_hash">83fedd44fff2bb120a9747dbedd6c3f0</property>
  <property name="kdenlive:monitorPosition">2602</property>
 </chain>
 <chain id="chain56" out="00:00:38.747">
  <property name="length">930</property>
  <property name="eof">pause</property>
  <property name="resource">ost/Car Engine Starting Sound Effect..mp3</property>
  <property name="mlt_service">avformat</property>
  <property name="meta.media.nb_streams">1</property>
  <property name="meta.media.0.stream.type">audio</property>
  <property name="meta.media.0.codec.sample_fmt">fltp</property>
  <property name="meta.media.0.codec.sample_rate">44100</property>
  <property name="meta.media.0.codec.channels">2</property>
  <property name="meta.media.0.codec.layout">stereo</property>
  <property name="meta.media.0.codec.name">mp3float</property>
  <property name="meta.media.0.codec.long_name">MP3 (MPEG audio layer 3)</property>
  <property name="meta.media.0.codec.bit_rate">192000</property>
  <property name="meta.attr.0.stream.encoder.markup">Lavc60.31</property>
  <property name="meta.attr.major_brand.markup">dash</property>
  <property name="meta.attr.minor_version.markup">0</property>
  <property name="meta.attr.compatible_brands.markup">iso6mp41</property>
  <property name="meta.attr.encoder.markup">Lavf60.16.100</property>
  <property name="seekable">1</property>
  <property name="audio_index">0</property>
  <property name="video_index">-1</property>
  <property name="astream">0</property>
  <property name="kdenlive:folderid">-1</property>
  <property name="kdenlive:id">53</property>
  <property name="kdenlive:control_uuid">{1913d95f-ff89-4e85-9363-089cafb4efed}</property>
  <property name="kdenlive:clip_type">1</property>
  <property name="kdenlive:file_size">931768</property>
  <property name="kdenlive:file_hash">db1b96eee34b11fac864e97f257bb369</property>
  <property name="kdenlive:monitorPosition">0</property>
 </chain>
 <chain id="chain57" out="00:00:10.886">
  <property name="length">262</property>
  <property name="eof">pause</property>
  <property name="resource">ost/Car Start Up Sound Effect.mp3</property>
  <property name="mlt_service">avformat</property>
  <property name="meta.media.nb_streams">1</property>
  <property name="meta.media.0.stream.type">audio</property>
  <property name="meta.media.0.codec.sample_fmt">fltp</property>
  <property name="meta.media.0.codec.sample_rate">44100</property>
  <property name="meta.media.0.codec.channels">2</property>
  <property name="meta.media.0.codec.layout">stereo</property>
  <property name="meta.media.0.codec.name">mp3float</property>
  <property name="meta.media.0.codec.long_name">MP3 (MPEG audio layer 3)</property>
  <property name="meta.media.0.codec.bit_rate">192000</property>
  <property name="meta.attr.0.stream.encoder.markup">Lavc58.54</property>
  <property name="meta.attr.major_brand.markup">mp42</property>
  <property name="meta.attr.minor_version.markup">0</property>
  <property name="meta.attr.compatible_brands.markup">isommp42</property>
  <property name="meta.attr.encoder.markup">Lavf58.29.100</property>
  <property name="seekable">1</property>
  <property name="audio_index">0</property>
  <property name="video_index">-1</property>
  <property name="astream">0</property>
  <property name="kdenlive:folderid">-1</property>
  <property name="kdenlive:id">54</property>
  <property name="kdenlive:control_uuid">{5fb39826-38f1-4c91-9657-d526d10eff2c}</property>
  <property name="kdenlive:clip_type">1</property>
  <property name="kdenlive:file_size">263451</property>
  <property name="kdenlive:file_hash">0bf77a225abe5968209cf22f1027eaf8</property>
 </chain>
 <producer id="producer0" in="00:00:00.000" out="01:55:03.503">
  <property name="length">2147483647</property>
  <property name="eof">continue</property>
  <property name="resource">black</property>
  <property name="aspect_ratio">1</property>
  <property name="mlt_service">color</property>
  <property name="kdenlive:playlistid">black_track</property>
  <property name="mlt_image_format">rgba</property>
  <property name="set.test_audio">0</property>
 </producer>
 <chain id="chain0" out="00:03:16.058">
  <property name="length">4701</property>
  <property name="eof">pause</property>
  <property name="resource">ost/38-ost-tears_of___-bla.mp3</property>
  <property name="mlt_service">avformat-novalidate</property>
  <property name="seekable">1</property>
  <property name="audio_index">0</property>
  <property name="video_index">-1</property>
  <property name="astream">0</property>
  <property name="kdenlive:folderid">7</property>
  <property name="kdenlive:id">47</property>
  <property name="kdenlive:control_uuid">{e13aef67-caf4-41a1-9ec1-b7a7b2982d83}</property>
  <property name="kdenlive:clip_type">1</property>
  <property name="kdenlive:file_size">4707837</property>
  <property name="kdenlive:file_hash">3e59df855fbbed823c3f7345533d575d</property>
  <property name="kdenlive:monitorPosition">0</property>
  <property name="meta.media.nb_streams">1</property>
  <property name="meta.media.0.stream.type">audio</property>
  <property name="meta.media.0.codec.sample_fmt">fltp</property>
  <property name="meta.media.0.codec.sample_rate">44100</property>
  <property name="meta.media.0.codec.channels">2</property>
  <property name="meta.media.0.codec.layout">stereo</property>
  <property name="meta.media.0.codec.name">mp3float</property>
  <property name="meta.media.0.codec.long_name">MP3 (MPEG audio layer 3)</property>
  <property name="meta.media.0.codec.bit_rate">192000</property>
  <property name="meta.attr.0.stream.encoder.markup">LAME3.92 </property>
  <property name="meta.attr.title.markup">Tears of...</property>
  <property name="meta.attr.artist.markup">Akira Yamaoka</property>
  <property name="meta.attr.album.markup">Silent Hill - Original Soundtrack</property>
  <property name="meta.attr.comment.markup">KICA7950 / KOE-CDS-002</property>
  <property name="meta.attr.genre.markup">Game</property>
  <property name="meta.attr.track.markup">38</property>
  <property name="meta.attr.date.markup">1999</property>
  <property name="xml">was here</property>
  <property name="mute_on_pause">0</property>
  <property name="set.test_audio">0</property>
  <property name="set.test_image">1</property>
 </chain>
 <chain id="chain1" out="00:02:04.421">
  <property name="length">2984</property>
  <property name="eof">pause</property>
  <property name="resource">ost/05-ost-over-bla.mp3</property>
  <property name="mlt_service">avformat-novalidate</property>
  <property name="seekable">1</property>
  <property name="audio_index">0</property>
  <property name="video_index">-1</property>
  <property name="astream">0</property>
  <property name="kdenlive:folderid">7</property>
  <property name="kdenlive:id">11</property>
  <property name="kdenlive:control_uuid">{6e71778e-99c0-4fc0-8829-75f2f3eee25a}</property>
  <property name="kdenlive:clip_type">1</property>
  <property name="kdenlive:file_size">2988757</property>
  <property name="kdenlive:file_hash">493f47ea8fbd6bda8509e7cea8a3b728</property>
  <property name="kdenlive:monitorPosition">1326</property>
  <property name="meta.media.nb_streams">1</property>
  <property name="meta.media.0.stream.type">audio</property>
  <property name="meta.media.0.codec.sample_fmt">fltp</property>
  <property name="meta.media.0.codec.sample_rate">44100</property>
  <property name="meta.media.0.codec.channels">2</property>
  <property name="meta.media.0.codec.layout">stereo</property>
  <property name="meta.media.0.codec.name">mp3float</property>
  <property name="meta.media.0.codec.long_name">MP3 (MPEG audio layer 3)</property>
  <property name="meta.media.0.codec.bit_rate">192000</property>
  <property name="meta.attr.0.stream.encoder.markup">LAME3.92 </property>
  <property name="meta.attr.title.markup">Over</property>
  <property name="meta.attr.artist.markup">Akira Yamaoka</property>
  <property name="meta.attr.album.markup">Silent Hill - Original Soundtrack</property>
  <property name="meta.attr.comment.markup">KICA7950 / KOE-CDS-002</property>
  <property name="meta.attr.genre.markup">Game</property>
  <property name="meta.attr.track.markup">05</property>
  <property name="meta.attr.date.markup">1999</property>
  <property name="xml">was here</property>
  <property name="mute_on_pause">0</property>
  <property name="set.test_audio">0</property>
  <property name="set.test_image">1</property>
 </chain>
 <chain id="chain2" out="00:01:13.555">
  <property name="length">1764</property>
  <property name="eof">pause</property>
  <property name="resource">ost/18-ost-fear_of_the_dark-bla.mp3</property>
  <property name="mlt_service">avformat-novalidate</property>
  <property name="seekable">1</property>
  <property name="audio_index">0</property>
  <property name="video_index">-1</property>
  <property name="astream">0</property>
  <property name="kdenlive:folderid">7</property>
  <property name="kdenlive:id">24</property>
  <property name="kdenlive:control_uuid">{e5f89931-ac07-401c-9b0c-7fd787060d08}</property>
  <property name="kdenlive:clip_type">1</property>
  <property name="kdenlive:file_size">1768131</property>
  <property name="kdenlive:file_hash">f23752f0c4d4750d35e919d733f1b03f</property>
  <property name="kdenlive:monitorPosition">101</property>
  <property name="kdenlive:clipzones">[
    {
        "in": 0,
        "name": "Zone 1",
        "out": 1763
    }
]
</property>
  <property name="meta.media.nb_streams">1</property>
  <property name="meta.media.0.stream.type">audio</property>
  <property name="meta.media.0.codec.sample_fmt">fltp</property>
  <property name="meta.media.0.codec.sample_rate">44100</property>
  <property name="meta.media.0.codec.channels">2</property>
  <property name="meta.media.0.codec.layout">stereo</property>
  <property name="meta.media.0.codec.name">mp3float</property>
  <property name="meta.media.0.codec.long_name">MP3 (MPEG audio layer 3)</property>
  <property name="meta.media.0.codec.bit_rate">192000</property>
  <property name="meta.attr.0.stream.encoder.markup">LAME3.92 </property>
  <property name="meta.attr.title.markup">Fear of the dark</property>
  <property name="meta.attr.artist.markup">Akira Yamaoka</property>
  <property name="meta.attr.album.markup">Silent Hill - Original Soundtrack</property>
  <property name="meta.attr.comment.markup">KICA7950 / KOE-CDS-002</property>
  <property name="meta.attr.genre.markup">Game</property>
  <property name="meta.attr.track.markup">18</property>
  <property name="meta.attr.date.markup">1999</property>
  <property name="xml">was here</property>
  <property name="mute_on_pause">0</property>
  <property name="set.test_audio">0</property>
  <property name="set.test_image">1</property>
 </chain>
 <chain id="chain4" out="00:02:07.925">
  <property name="length">3068</property>
  <property name="eof">pause</property>
  <property name="resource">ost/02-ost-all-bla.mp3</property>
  <property name="mlt_service">avformat-novalidate</property>
  <property name="seekable">1</property>
  <property name="audio_index">0</property>
  <property name="video_index">-1</property>
  <property name="astream">0</property>
  <property name="kdenlive:folderid">7</property>
  <property name="kdenlive:id">8</property>
  <property name="kdenlive:control_uuid">{1d58ce19-571b-4ac5-8c8d-839dfad4e2eb}</property>
  <property name="kdenlive:clip_type">1</property>
  <property name="kdenlive:file_size">3073392</property>
  <property name="kdenlive:file_hash">99e77be2b97a17bd5861f9b7c9da40b2</property>
  <property name="kdenlive:monitorPosition">0</property>
  <property name="meta.media.nb_streams">1</property>
  <property name="meta.media.0.stream.type">audio</property>
  <property name="meta.media.0.codec.sample_fmt">fltp</property>
  <property name="meta.media.0.codec.sample_rate">44100</property>
  <property name="meta.media.0.codec.channels">2</property>
  <property name="meta.media.0.codec.layout">stereo</property>
  <property name="meta.media.0.codec.name">mp3float</property>
  <property name="meta.media.0.codec.long_name">MP3 (MPEG audio layer 3)</property>
  <property name="meta.media.0.codec.bit_rate">192000</property>
  <property name="meta.attr.0.stream.encoder.markup">LAME3.92 </property>
  <property name="meta.attr.title.markup">All</property>
  <property name="meta.attr.artist.markup">Akira Yamaoka</property>
  <property name="meta.attr.album.markup">Silent Hill - Original Soundtrack</property>
  <property name="meta.attr.comment.markup">KICA7950 / KOE-CDS-002</property>
  <property name="meta.attr.genre.markup">Game</property>
  <property name="meta.attr.track.markup">02</property>
  <property name="meta.attr.date.markup">1999</property>
  <property name="xml">was here</property>
  <property name="mute_on_pause">0</property>
  <property name="set.test_audio">0</property>
  <property name="set.test_image">1</property>
 </chain>
 <chain id="chain5" out="00:02:52.761">
  <property name="length">4143</property>
  <property name="eof">pause</property>
  <property name="resource">ost/22-ost-ill_kill_you-bla.mp3</property>
  <property name="mlt_service">avformat-novalidate</property>
  <property name="seekable">1</property>
  <property name="audio_index">0</property>
  <property name="video_index">-1</property>
  <property name="astream">0</property>
  <property name="kdenlive:folderid">7</property>
  <property name="kdenlive:id">31</property>
  <property name="kdenlive:control_uuid">{cbe395bf-d169-4e37-af24-5474eac76a7a}</property>
  <property name="kdenlive:clip_type">1</property>
  <property name="kdenlive:file_size">4149239</property>
  <property name="kdenlive:file_hash">915b7dfae8d894ebbfb75bde176ca324</property>
  <property name="kdenlive:monitorPosition">1930</property>
  <property name="meta.media.nb_streams">1</property>
  <property name="meta.media.0.stream.type">audio</property>
  <property name="meta.media.0.codec.sample_fmt">fltp</property>
  <property name="meta.media.0.codec.sample_rate">44100</property>
  <property name="meta.media.0.codec.channels">2</property>
  <property name="meta.media.0.codec.layout">stereo</property>
  <property name="meta.media.0.codec.name">mp3float</property>
  <property name="meta.media.0.codec.long_name">MP3 (MPEG audio layer 3)</property>
  <property name="meta.media.0.codec.bit_rate">192000</property>
  <property name="meta.attr.0.stream.encoder.markup">LAME3.92 </property>
  <property name="meta.attr.title.markup">I'll kill you</property>
  <property name="meta.attr.artist.markup">Akira Yamaoka</property>
  <property name="meta.attr.album.markup">Silent Hill - Original Soundtrack</property>
  <property name="meta.attr.comment.markup">KICA7950 / KOE-CDS-002</property>
  <property name="meta.attr.genre.markup">Game</property>
  <property name="meta.attr.track.markup">22</property>
  <property name="meta.attr.date.markup">1999</property>
  <property name="xml">was here</property>
  <property name="mute_on_pause">0</property>
  <property name="set.test_audio">0</property>
  <property name="set.test_image">1</property>
 </chain>
 <chain id="chain6" out="00:01:16.767">
  <property name="length">1841</property>
  <property name="eof">pause</property>
  <property name="resource">ost/34-ost-only_you-bla.mp3</property>
  <property name="mlt_service">avformat-novalidate</property>
  <property name="seekable">1</property>
  <property name="audio_index">0</property>
  <property name="video_index">-1</property>
  <property name="astream">0</property>
  <property name="kdenlive:folderid">7</property>
  <property name="kdenlive:id">43</property>
  <property name="kdenlive:control_uuid">{2f01d768-ef04-4fa3-a627-88e0604f72e1}</property>
  <property name="kdenlive:clip_type">1</property>
  <property name="kdenlive:file_size">1845229</property>
  <property name="kdenlive:file_hash">f222ba54bbfb8834d1a0541cdaed5044</property>
  <property name="kdenlive:monitorPosition">1247</property>
  <property name="meta.media.nb_streams">1</property>
  <property name="meta.media.0.stream.type">audio</property>
  <property name="meta.media.0.codec.sample_fmt">fltp</property>
  <property name="meta.media.0.codec.sample_rate">44100</property>
  <property name="meta.media.0.codec.channels">2</property>
  <property name="meta.media.0.codec.layout">stereo</property>
  <property name="meta.media.0.codec.name">mp3float</property>
  <property name="meta.media.0.codec.long_name">MP3 (MPEG audio layer 3)</property>
  <property name="meta.media.0.codec.bit_rate">192000</property>
  <property name="meta.attr.0.stream.encoder.markup">LAME3.92 </property>
  <property name="meta.attr.title.markup">Only you</property>
  <property name="meta.attr.artist.markup">Akira Yamaoka</property>
  <property name="meta.attr.album.markup">Silent Hill - Original Soundtrack</property>
  <property name="meta.attr.comment.markup">KICA7950 / KOE-CDS-002</property>
  <property name="meta.attr.genre.markup">Game</property>
  <property name="meta.attr.track.markup">34</property>
  <property name="meta.attr.date.markup">1999</property>
  <property name="xml">was here</property>
  <property name="mute_on_pause">0</property>
  <property name="set.test_audio">0</property>
  <property name="set.test_image">1</property>
 </chain>
 <chain id="chain7" out="00:05:17.267">
  <property name="length">7607</property>
  <property name="eof">pause</property>
  <property name="resource">ost/Silent_Hill_Nay_Tomorrow_OC_ReMix.mp3</property>
  <property name="mlt_service">avformat-novalidate</property>
  <property name="seekable">1</property>
  <property name="audio_index">0</property>
  <property name="video_index">1</property>
  <property name="vstream">0</property>
  <property name="astream">0</property>
  <property name="kdenlive:folderid">7</property>
  <property name="kdenlive:id">52</property>
  <property name="kdenlive:control_uuid">{ae629ffd-3c87-4f68-b74d-bec36bd22b51}</property>
  <property name="mute_on_pause">0</property>
  <property name="kdenlive:clip_type">0</property>
  <property name="kdenlive:coverartstream">1</property>
  <property name="kdenlive:file_size">5163581</property>
  <property name="kdenlive:file_hash">83fedd44fff2bb120a9747dbedd6c3f0</property>
  <property name="kdenlive:monitorPosition">2602</property>
  <property name="meta.media.nb_streams">2</property>
  <property name="meta.media.0.stream.type">audio</property>
  <property name="meta.media.0.codec.sample_fmt">fltp</property>
  <property name="meta.media.0.codec.sample_rate">44100</property>
  <property name="meta.media.0.codec.channels">2</property>
  <property name="meta.media.0.codec.layout">stereo</property>
  <property name="meta.media.0.codec.name">mp3float</property>
  <property name="meta.media.0.codec.long_name">MP3 (MPEG audio layer 3)</property>
  <property name="meta.media.0.codec.bit_rate">128000</property>
  <property name="meta.media.1.stream.type">video</property>
  <property name="meta.media.1.stream.frame_rate">90000</property>
  <property name="meta.media.1.stream.sample_aspect_ratio">0</property>
  <property name="meta.media.1.codec.width">700</property>
  <property name="meta.media.1.codec.height">700</property>
  <property name="meta.media.1.codec.rotate">0</property>
  <property name="meta.media.1.codec.pix_fmt">yuvj444p</property>
  <property name="meta.media.1.codec.sample_aspect_ratio">0</property>
  <property name="meta.media.1.codec.colorspace">601</property>
  <property name="meta.media.1.codec.name">mjpeg</property>
  <property name="meta.media.1.codec.long_name">MJPEG (Motion JPEG)</property>
  <property name="meta.media.1.codec.bit_rate">0</property>
  <property name="meta.attr.1.stream.comment.markup">Cover (front)</property>
  <property name="meta.attr.album.markup">ocremix.org</property>
  <property name="meta.attr.artist.markup">Tamimi</property>
  <property name="meta.attr.album_artist.markup">OverClocked ReMix</property>
  <property name="meta.attr.comment.markup">el_selvador@hotmail.com</property>
  <property name="meta.attr.composer.markup">Akira Yamaoka</property>
  <property name="meta.attr.grouping.markup">Silent Hill</property>
  <property name="meta.attr.copyright.markup">Konami</property>
  <property name="meta.attr.encoded_by.markup">el_selvador@hotmail.com</property>
  <property name="meta.attr.genre.markup">Game</property>
  <property name="meta.attr.compilation.markup">1</property>
  <property name="meta.attr.TOPE.markup">PlayStation</property>
  <property name="meta.attr.publisher.markup">OverClocked ReMix</property>
  <property name="meta.attr.SETSUBTITLE.markup">OCR00756</property>
  <property name="meta.attr.TIT3.markup">Nay Tomorrow</property>
  <property name="meta.attr.title.markup">Silent Hill "Nay Tomorrow" OC ReMix</property>
  <property name="meta.attr.track.markup">756</property>
  <property name="meta.attr.date.markup">2002</property>
  <property name="meta.media.sample_aspect_num">1</property>
  <property name="meta.media.sample_aspect_den">1</property>
  <property name="meta.media.frame_rate_num">90000</property>
  <property name="meta.media.frame_rate_den">1</property>
  <property name="meta.media.colorspace">601</property>
  <property name="meta.media.color_trc">2</property>
  <property name="meta.media.has_b_frames">0</property>
  <property name="meta.media.width">700</property>
  <property name="meta.media.height">700</property>
  <property name="meta.media.aspect_ratio">1</property>
  <property name="meta.media.color_range">full</property>
  <property name="xml">was here</property>
  <property name="meta.media.top_field_first">0</property>
  <property name="meta.media.progressive">1</property>
  <property name="set.test_audio">0</property>
  <property name="set.test_image">1</property>
 </chain>
 <chain id="chain8" out="00:02:36.078">
  <property name="length">3743</property>
  <property name="eof">pause</property>
  <property name="resource">ost/40-ost-she-bla.mp3</property>
  <property name="mlt_service">avformat-novalidate</property>
  <property name="seekable">1</property>
  <property name="audio_index">0</property>
  <property name="video_index">-1</property>
  <property name="astream">0</property>
  <property name="kdenlive:folderid">7</property>
  <property name="kdenlive:id">49</property>
  <property name="kdenlive:control_uuid">{0412c3eb-7193-4ad7-b7f2-6fee1a318250}</property>
  <property name="kdenlive:clip_type">1</property>
  <property name="kdenlive:file_size">3748605</property>
  <property name="kdenlive:file_hash">8fc267edb538a2c3f75d90c3c943ba4d</property>
  <property name="meta.media.nb_streams">1</property>
  <property name="meta.media.0.stream.type">audio</property>
  <property name="meta.media.0.codec.sample_fmt">fltp</property>
  <property name="meta.media.0.codec.sample_rate">44100</property>
  <property name="meta.media.0.codec.channels">2</property>
  <property name="meta.media.0.codec.layout">stereo</property>
  <property name="meta.media.0.codec.name">mp3float</property>
  <property name="meta.media.0.codec.long_name">MP3 (MPEG audio layer 3)</property>
  <property name="meta.media.0.codec.bit_rate">192000</property>
  <property name="meta.attr.0.stream.encoder.markup">LAME3.92 </property>
  <property name="meta.attr.title.markup">She</property>
  <property name="meta.attr.artist.markup">Akira Yamaoka</property>
  <property name="meta.attr.album.markup">Silent Hill - Original Soundtrack</property>
  <property name="meta.attr.comment.markup">KICA7950 / KOE-CDS-002</property>
  <property name="meta.attr.genre.markup">Game</property>
  <property name="meta.attr.track.markup">40</property>
  <property name="meta.attr.date.markup">1999</property>
  <property name="xml">was here</property>
  <property name="mute_on_pause">0</property>
  <property name="set.test_audio">0</property>
  <property name="set.test_image">1</property>
 </chain>
 <playlist id="playlist0">
  <property name="kdenlive:audio_track">1</property>
  <entry in="00:00:00.000" out="00:00:21.855" producer="chain0">
   <property name="kdenlive:id">47</property>
   <property name="kdenlive:activeeffect">1</property>
   <filter id="filter0" out="00:00:13.222">
    <property name="window">75</property>
    <property name="max_gain">20dB</property>
    <property name="mlt_service">volume</property>
    <property name="kdenlive_id">fadein</property>
    <property name="gain">0</property>
    <property name="end">1</property>
    <property name="kdenlive:collapsed">0</property>
   </filter>
   <filter id="filter1">
    <property name="window">75</property>
    <property name="max_gain">20dB</property>
    <property name="level">00:00:00.000=-33</property>
    <property name="mlt_service">volume</property>
    <property name="kdenlive_id">volume</property>
    <property name="kdenlive:collapsed">0</property>
   </filter>
   <filter id="filter2" in="00:00:11.178" out="00:00:21.897">
    <property name="window">75</property>
    <property name="max_gain">20dB</property>
    <property name="mlt_service">volume</property>
    <property name="kdenlive_id">fadeout</property>
    <property name="gain">1</property>
    <property name="end">0</property>
   </filter>
  </entry>
  <entry in="00:00:00.000" out="00:00:24.399" producer="chain0">
   <property name="kdenlive:id">47</property>
   <filter id="filter3" out="00:00:19.811">
    <property name="window">75</property>
    <property name="max_gain">20dB</property>
    <property name="mlt_service">volume</property>
    <property name="kdenlive_id">fadein</property>
    <property name="gain">0</property>
    <property name="end">1</property>
    <property name="kdenlive:collapsed">0</property>
   </filter>
   <filter id="filter4">
    <property name="window">75</property>
    <property name="max_gain">20dB</property>
    <property name="level">00:00:00.000=-16</property>
    <property name="mlt_service">volume</property>
    <property name="kdenlive_id">volume</property>
    <property name="kdenlive:collapsed">0</property>
   </filter>
   <filter id="filter5">
    <property name="window">75</property>
    <property name="max_gain">20dB</property>
    <property name="mlt_service">volume</property>
    <property name="kdenlive_id">mute</property>
    <property name="gain">0</property>
    <property name="kdenlive:collapsed">0</property>
   </filter>
  </entry>
  <blank length="01:20:20.854"/>
  <entry in="00:00:58.183" out="00:01:10.302" producer="chain1">
   <property name="kdenlive:id">11</property>
   <filter id="filter6">
    <property name="window">75</property>
    <property name="max_gain">20dB</property>
    <property name="level">00:00:58.183=-16</property>
    <property name="mlt_service">volume</property>
    <property name="kdenlive_id">volume</property>
    <property name="kdenlive:collapsed">0</property>
   </filter>
   <filter id="filter7" in="00:00:58.183" out="00:01:05.380">
    <property name="window">75</property>
    <property name="max_gain">20dB</property>
    <property name="mlt_service">volume</property>
    <property name="kdenlive_id">fadein</property>
    <property name="gain">0</property>
    <property name="end">1</property>
    <property name="kdenlive:collapsed">0</property>
   </filter>
   <filter id="filter8" in="00:01:07.799" out="00:01:10.302">
    <property name="window">75</property>
    <property name="max_gain">20dB</property>
    <property name="mlt_service">volume</property>
    <property name="kdenlive_id">fadeout</property>
    <property name="gain">1</property>
    <property name="end">0</property>
    <property name="kdenlive:collapsed">0</property>
   </filter>
  </entry>
  <blank length="00:00:05.672"/>
  <entry in="00:00:52.469" out="00:01:01.001" producer="chain1">
   <property name="kdenlive:id">11</property>
   <filter id="filter9">
    <property name="window">75</property>
    <property name="max_gain">20dB</property>
    <property name="level">00:00:52.469=-31</property>
    <property name="mlt_service">volume</property>
    <property name="kdenlive_id">volume</property>
    <property name="kdenlive:collapsed">0</property>
   </filter>
   <filter id="filter10" in="00:00:54.304" out="00:01:01.001">
    <property name="window">75</property>
    <property name="max_gain">20dB</property>
    <property name="mlt_service">volume</property>
    <property name="kdenlive_id">fadeout</property>
    <property name="gain">1</property>
    <property name="end">0</property>
    <property name="kdenlive:collapsed">0</property>
   </filter>
   <filter id="filter11" in="00:00:52.469" out="00:00:59.142">
    <property name="window">75</property>
    <property name="max_gain">20dB</property>
    <property name="mlt_service">volume</property>
    <property name="kdenlive_id">fadein</property>
    <property name="gain">0</property>
    <property name="end">1</property>
    <property name="kdenlive:collapsed">0</property>
   </filter>
  </entry>
  <blank length="00:00:22.064"/>
  <entry in="00:00:42.167" out="00:01:13.555" producer="chain2">
   <property name="kdenlive:id">24</property>
   <filter id="filter12">
    <property name="window">75</property>
    <property name="max_gain">20dB</property>
    <property name="level">00:00:42.167=-11</property>
    <property name="mlt_service">volume</property>
    <property name="kdenlive_id">volume</property>
    <property name="kdenlive:collapsed">0</property>
   </filter>
   <filter id="filter13" in="00:01:08.800" out="00:01:13.555">
    <property name="window">75</property>
    <property name="max_gain">20dB</property>
    <property name="mlt_service">volume</property>
    <property name="kdenlive_id">fadeout</property>
    <property name="gain">1</property>
    <property name="end">0</property>
    <property name="kdenlive:collapsed">0</property>
   </filter>
   <filter id="filter14" in="00:00:42.167" out="00:00:55.222">
    <property name="window">75</property>
    <property name="max_gain">20dB</property>
    <property name="mlt_service">volume</property>
    <property name="kdenlive_id">fadein</property>
    <property name="gain">0</property>
    <property name="end">1</property>
    <property name="kdenlive:collapsed">0</property>
   </filter>
  </entry>
  <blank length="00:00:00.125"/>
  <entry in="00:01:29.446" out="00:01:37.329" producer="chain4">
   <property name="kdenlive:id">8</property>
   <filter id="filter15">
    <property name="window">75</property>
    <property name="max_gain">20dB</property>
    <property name="level">00:01:29.446=-30</property>
    <property name="mlt_service">volume</property>
    <property name="kdenlive_id">volume</property>
    <property name="kdenlive:collapsed">0</property>
   </filter>
   <filter id="filter16" in="00:01:32.491" out="00:01:37.329">
    <property name="window">75</property>
    <property name="max_gain">20dB</property>
    <property name="mlt_service">volume</property>
    <property name="kdenlive_id">fadeout</property>
    <property name="gain">1</property>
    <property name="end">0</property>
    <property name="kdenlive:collapsed">0</property>
   </filter>
   <filter id="filter17" in="00:01:29.446" out="00:01:34.243">
    <property name="window">75</property>
    <property name="max_gain">20dB</property>
    <property name="mlt_service">volume</property>
    <property name="kdenlive_id">fadein</property>
    <property name="gain">0</property>
    <property name="end">1</property>
    <property name="kdenlive:collapsed">0</property>
   </filter>
  </entry>
  <blank length="00:00:56.556"/>
  <entry in="00:01:54.805" out="00:01:57.766" producer="chain5">
   <property name="kdenlive:id">31</property>
   <filter id="filter18">
    <property name="window">75</property>
    <property name="max_gain">20dB</property>
    <property name="mlt_service">volume</property>
    <property name="kdenlive_id">mute</property>
    <property name="gain">0</property>
    <property name="kdenlive:collapsed">0</property>
   </filter>
  </entry>
  <entry in="00:00:43.502" out="00:01:14.181" producer="chain6">
   <property name="kdenlive:id">43</property>
   <filter id="filter19">
    <property name="window">75</property>
    <property name="max_gain">20dB</property>
    <property name="level">00:00:43.502=-19</property>
    <property name="mlt_service">volume</property>
    <property name="kdenlive_id">volume</property>
    <property name="kdenlive:collapsed">0</property>
   </filter>
   <filter id="filter20" in="00:00:55.180" out="00:01:14.181">
    <property name="window">75</property>
    <property name="max_gain">20dB</property>
    <property name="mlt_service">volume</property>
    <property name="kdenlive_id">fadeout</property>
    <property name="gain">1</property>
    <property name="end">0</property>
    <property name="kdenlive:collapsed">0</property>
   </filter>
   <filter id="filter21" in="00:00:43.502" out="00:00:52.302">
    <property name="window">75</property>
    <property name="max_gain">20dB</property>
    <property name="mlt_service">volume</property>
    <property name="kdenlive_id">fadein</property>
    <property name="gain">0</property>
    <property name="end">1</property>
    <property name="kdenlive:collapsed">0</property>
   </filter>
  </entry>
  <blank length="00:00:38.080"/>
  <entry in="00:01:54.805" out="00:01:57.766" producer="chain5">
   <property name="kdenlive:id">31</property>
   <filter id="filter22">
    <property name="window">75</property>
    <property name="max_gain">20dB</property>
    <property name="mlt_service">volume</property>
    <property name="kdenlive_id">mute</property>
    <property name="gain">0</property>
    <property name="kdenlive:collapsed">0</property>
   </filter>
  </entry>
  <entry in="00:01:33.325" out="00:01:57.766" producer="chain5">
   <property name="kdenlive:id">31</property>
   <filter id="filter23">
    <property name="window">75</property>
    <property name="max_gain">20dB</property>
    <property name="level">00:01:33.325=-26</property>
    <property name="mlt_service">volume</property>
    <property name="kdenlive_id">volume</property>
    <property name="kdenlive:collapsed">0</property>
   </filter>
   <filter id="filter24" in="00:01:44.586" out="00:01:57.766">
    <property name="window">75</property>
    <property name="max_gain">20dB</property>
    <property name="mlt_service">volume</property>
    <property name="kdenlive_id">fadeout</property>
    <property name="gain">1</property>
    <property name="end">0</property>
    <property name="kdenlive:collapsed">0</property>
   </filter>
   <filter id="filter25" in="00:01:33.325" out="00:01:43.252">
    <property name="window">75</property>
    <property name="max_gain">20dB</property>
    <property name="mlt_service">volume</property>
    <property name="kdenlive_id">fadein</property>
    <property name="gain">0</property>
    <property name="end">1</property>
    <property name="kdenlive:collapsed">0</property>
   </filter>
  </entry>
  <blank length="00:00:03.170"/>
  <entry in="00:01:54.805" out="00:01:57.766" producer="chain5">
   <property name="kdenlive:id">31</property>
   <filter id="filter26">
    <property name="window">75</property>
    <property name="max_gain">20dB</property>
    <property name="mlt_service">volume</property>
    <property name="kdenlive_id">mute</property>
    <property name="gain">0</property>
    <property name="kdenlive:collapsed">0</property>
   </filter>
  </entry>
  <blank length="00:11:52.261"/>
  <entry in="00:01:54.805" out="00:01:57.766" producer="chain5">
   <property name="kdenlive:id">31</property>
   <filter id="filter27">
    <property name="window">75</property>
    <property name="max_gain">20dB</property>
    <property name="mlt_service">volume</property>
    <property name="kdenlive_id">mute</property>
    <property name="gain">0</property>
    <property name="kdenlive:collapsed">0</property>
   </filter>
  </entry>
  <entry in="00:00:00.000" out="00:02:44.169" producer="chain7">
   <property name="kdenlive:id">52</property>
   <filter id="filter28">
    <property name="window">75</property>
    <property name="max_gain">20dB</property>
    <property name="level">00:00:00.000=-40</property>
    <property name="mlt_service">volume</property>
    <property name="kdenlive_id">volume</property>
    <property name="kdenlive:collapsed">0</property>
   </filter>
   <filter id="filter29" out="00:00:08.258">
    <property name="window">75</property>
    <property name="max_gain">20dB</property>
    <property name="mlt_service">volume</property>
    <property name="kdenlive_id">fadein</property>
    <property name="gain">0</property>
    <property name="end">1</property>
    <property name="kdenlive:collapsed">0</property>
   </filter>
   <filter id="filter30" in="00:02:27.986" out="00:02:44.169">
    <property name="window">75</property>
    <property name="max_gain">20dB</property>
    <property name="mlt_service">volume</property>
    <property name="kdenlive_id">fadeout</property>
    <property name="gain">1</property>
    <property name="end">0</property>
    <property name="kdenlive:collapsed">0</property>
   </filter>
  </entry>
  <entry in="00:01:54.805" out="00:01:57.766" producer="chain5">
   <property name="kdenlive:id">31</property>
   <filter id="filter31">
    <property name="window">75</property>
    <property name="max_gain">20dB</property>
    <property name="mlt_service">volume</property>
    <property name="kdenlive_id">mute</property>
    <property name="gain">0</property>
    <property name="kdenlive:collapsed">0</property>
   </filter>
  </entry>
  <blank length="00:00:05.088"/>
  <entry in="00:01:54.805" out="00:01:56.181" producer="chain5">
   <property name="kdenlive:id">31</property>
   <filter id="filter32">
    <property name="window">75</property>
    <property name="max_gain">20dB</property>
    <property name="mlt_service">volume</property>
    <property name="kdenlive_id">mute</property>
    <property name="gain">0</property>
    <property name="kdenlive:collapsed">0</property>
   </filter>
  </entry>
  <entry in="00:00:12.888" out="00:02:18.227" producer="chain8">
   <property name="kdenlive:id">49</property>
   <filter id="filter33">
    <property name="window">75</property>
    <property name="max_gain">20dB</property>
    <property name="level">00:00:12.888=-38</property>
    <property name="mlt_service">volume</property>
    <property name="kdenlive_id">volume</property>
    <property name="kdenlive:collapsed">0</property>
   </filter>
   <filter id="filter34" in="00:00:12.888" out="00:00:26.109">
    <property name="window">75</property>
    <property name="max_gain">20dB</property>
    <property name="mlt_service">volume</property>
    <property name="kdenlive_id">fadein</property>
    <property name="gain">0</property>
    <property name="end">1</property>
    <property name="kdenlive:collapsed">0</property>
   </filter>
   <filter id="filter35" in="00:02:12.804" out="00:02:18.268">
    <property name="window">75</property>
    <property name="max_gain">20dB</property>
    <property name="mlt_service">volume</property>
    <property name="kdenlive_id">fadeout</property>
    <property name="gain">1</property>
    <property name="end">0</property>
    <property name="kdenlive:collapsed">0</property>
   </filter>
  </entry>
  <entry in="00:02:20.312" out="00:02:24.650" producer="chain8">
   <property name="kdenlive:id">49</property>
   <filter id="filter36">
    <property name="window">75</property>
    <property name="max_gain">20dB</property>
    <property name="level">3364=-22</property>
    <property name="mlt_service">volume</property>
    <property name="kdenlive_id">volume</property>
    <property name="disable">1</property>
    <property name="kdenlive:collapsed">0</property>
   </filter>
   <filter id="filter37">
    <property name="window">75</property>
    <property name="max_gain">20dB</property>
    <property name="mlt_service">volume</property>
    <property name="kdenlive_id">mute</property>
    <property name="gain">0</property>
    <property name="kdenlive:collapsed">0</property>
   </filter>
  </entry>
  <blank length="00:00:05.464"/>
  <entry in="00:02:23.232" out="00:02:36.078" producer="chain8">
   <property name="kdenlive:id">49</property>
   <filter id="filter38">
    <property name="window">75</property>
    <property name="max_gain">20dB</property>
    <property name="level">00:02:23.232=-19</property>
    <property name="mlt_service">volume</property>
    <property name="kdenlive_id">volume</property>
    <property name="kdenlive:collapsed">0</property>
   </filter>
   <filter id="filter39" in="00:02:23.232" out="00:02:34.952">
    <property name="window">75</property>
    <property name="max_gain">20dB</property>
    <property name="mlt_service">volume</property>
    <property name="kdenlive_id">fadein</property>
    <property name="gain">0</property>
    <property name="end">1</property>
    <property name="kdenlive:collapsed">0</property>
   </filter>
   <filter id="filter40" in="00:02:35.786" out="00:02:36.119">
    <property name="window">75</property>
    <property name="max_gain">20dB</property>
    <property name="mlt_service">volume</property>
    <property name="kdenlive_id">fadeout</property>
    <property name="gain">1</property>
    <property name="end">0</property>
    <property name="kdenlive:collapsed">0</property>
   </filter>
  </entry>
 </playlist>
 <chain id="chain9" out="00:02:04.421">
  <property name="length">2984</property>
  <property name="eof">pause</property>
  <property name="resource">ost/05-ost-over-bla.mp3</property>
  <property name="mlt_service">avformat-novalidate</property>
  <property name="seekable">1</property>
  <property name="audio_index">0</property>
  <property name="video_index">-1</property>
  <property name="astream">0</property>
  <property name="kdenlive:folderid">7</property>
  <property name="kdenlive:id">11</property>
  <property name="kdenlive:control_uuid">{6e71778e-99c0-4fc0-8829-75f2f3eee25a}</property>
  <property name="kdenlive:clip_type">1</property>
  <property name="kdenlive:file_size">2988757</property>
  <property name="kdenlive:file_hash">493f47ea8fbd6bda8509e7cea8a3b728</property>
  <property name="kdenlive:monitorPosition">1326</property>
  <property name="meta.media.nb_streams">1</property>
  <property name="meta.media.0.stream.type">audio</property>
  <property name="meta.media.0.codec.sample_fmt">fltp</property>
  <property name="meta.media.0.codec.sample_rate">44100</property>
  <property name="meta.media.0.codec.channels">2</property>
  <property name="meta.media.0.codec.layout">stereo</property>
  <property name="meta.media.0.codec.name">mp3float</property>
  <property name="meta.media.0.codec.long_name">MP3 (MPEG audio layer 3)</property>
  <property name="meta.media.0.codec.bit_rate">192000</property>
  <property name="meta.attr.0.stream.encoder.markup">LAME3.92 </property>
  <property name="meta.attr.title.markup">Over</property>
  <property name="meta.attr.artist.markup">Akira Yamaoka</property>
  <property name="meta.attr.album.markup">Silent Hill - Original Soundtrack</property>
  <property name="meta.attr.comment.markup">KICA7950 / KOE-CDS-002</property>
  <property name="meta.attr.genre.markup">Game</property>
  <property name="meta.attr.track.markup">05</property>
  <property name="meta.attr.date.markup">1999</property>
  <property name="xml">was here</property>
  <property name="mute_on_pause">0</property>
  <property name="set.test_audio">0</property>
  <property name="set.test_image">1</property>
 </chain>
 <playlist id="playlist1">
  <property name="kdenlive:audio_track">1</property>
  <blank length="01:21:17.476"/>
  <entry in="00:00:52.970" out="00:01:01.501" producer="chain9">
   <property name="kdenlive:id">11</property>
   <filter id="filter41">
    <property name="window">75</property>
    <property name="max_gain">20dB</property>
    <property name="level">00:00:52.970=-22</property>
    <property name="mlt_service">volume</property>
    <property name="kdenlive_id">volume</property>
    <property name="kdenlive:collapsed">0</property>
   </filter>
   <filter id="filter42" in="00:00:54.805" out="00:01:01.501">
    <property name="window">75</property>
    <property name="max_gain">20dB</property>
    <property name="mlt_service">volume</property>
    <property name="kdenlive_id">fadeout</property>
    <property name="gain">1</property>
    <property name="end">0</property>
    <property name="kdenlive:collapsed">0</property>
   </filter>
   <filter id="filter43" in="00:00:52.970" out="00:00:59.643">
    <property name="window">75</property>
    <property name="max_gain">20dB</property>
    <property name="mlt_service">volume</property>
    <property name="kdenlive_id">fadein</property>
    <property name="gain">0</property>
    <property name="end">1</property>
    <property name="kdenlive:collapsed">0</property>
   </filter>
  </entry>
 </playlist>
 <tractor id="tractor0" in="00:00:00.000" out="01:42:34.117">
  <property name="kdenlive:audio_track">1</property>
  <property name="kdenlive:trackheight">84</property>
  <property name="kdenlive:timeline_active">1</property>
  <property name="kdenlive:collapsed">0</property>
  <property name="kdenlive:track_name">Reverb</property>
  <property name="kdenlive:thumbs_format"/>
  <property name="kdenlive:audio_rec"/>
  <track hide="video" producer="playlist0"/>
  <track hide="video" producer="playlist1"/>
  <transition id="transition1" in="01:21:25.025" out="01:21:26.026">
   <property name="a_track">0</property>
   <property name="b_track">1</property>
   <property name="mlt_service">mix</property>
   <property name="kdenlive_id">mix</property>
   <property name="kdenlive:mixcut">12</property>
   <property name="start">-1</property>
   <property name="accepts_blanks">1</property>
   <property name="reverse">1</property>
  </transition>
  <transition id="transition0" in="01:21:17.476" out="01:21:19.353">
   <property name="a_track">0</property>
   <property name="b_track">1</property>
   <property name="mlt_service">mix</property>
   <property name="kdenlive_id">mix</property>
   <property name="kdenlive:mixcut">12</property>
   <property name="start">-1</property>
   <property name="accepts_blanks">1</property>
   <property name="reverse">0</property>
  </transition>
  <filter id="filter44">
   <property name="window">75</property>
   <property name="max_gain">20dB</property>
   <property name="mlt_service">volume</property>
   <property name="internal_added">237</property>
   <property name="disable">1</property>
  </filter>
  <filter id="filter45">
   <property name="channel">-1</property>
   <property name="mlt_service">panner</property>
   <property name="internal_added">237</property>
   <property name="start">0.5</property>
   <property name="disable">1</property>
  </filter>
  <filter id="filter46">
   <property name="iec_scale">0</property>
   <property name="mlt_service">audiolevel</property>
   <property name="dbpeak">1</property>
   <property name="disable">1</property>
  </filter>
  <filter id="filter47" out="01:42:15.807">
   <property name="mlt_service">ladspa.2159</property>
   <property name="kdenlive_id">ladspa.2159</property>
   <property name="0">1.25</property>
   <property name="1">90</property>
   <property name="2">75</property>
   <property name="3">25</property>
   <property name="4">100</property>
   <property name="5">0</property>
   <property name="6">0</property>
   <property name="wetness">1</property>
   <property name="kdenlive:collapsed">1</property>
   <property name="instances">1</property>
  </filter>
  <filter id="filter48" out="01:42:15.807">
   <property name="mlt_service">ladspa.2142</property>
   <property name="kdenlive_id">ladspa.2142</property>
   <property name="0">10000</property>
   <property name="1">0</property>
   <property name="2">0</property>
   <property name="3">1</property>
   <property name="4">1</property>
   <property name="5">1</property>
   <property name="6">1</property>
   <property name="7">0</property>
   <property name="wetness">1</property>
   <property name="kdenlive:collapsed">0</property>
   <property name="instances">1</property>
  </filter>
 </tractor>
 <chain id="chain10" out="00:01:13.555">
  <property name="length">1764</property>
  <property name="eof">pause</property>
  <property name="resource">ost/18-ost-fear_of_the_dark-bla.mp3</property>
  <property name="mlt_service">avformat-novalidate</property>
  <property name="seekable">1</property>
  <property name="audio_index">0</property>
  <property name="video_index">-1</property>
  <property name="astream">0</property>
  <property name="kdenlive:folderid">7</property>
  <property name="kdenlive:id">24</property>
  <property name="kdenlive:control_uuid">{e5f89931-ac07-401c-9b0c-7fd787060d08}</property>
  <property name="kdenlive:clip_type">1</property>
  <property name="kdenlive:file_size">1768131</property>
  <property name="kdenlive:file_hash">f23752f0c4d4750d35e919d733f1b03f</property>
  <property name="kdenlive:monitorPosition">50</property>
  <property name="kdenlive:clipzones">[
    {
        "in": 0,
        "name": "Zone 1",
        "out": 1763
    }
]
</property>
  <property name="meta.media.nb_streams">1</property>
  <property name="meta.media.0.stream.type">audio</property>
  <property name="meta.media.0.codec.sample_fmt">fltp</property>
  <property name="meta.media.0.codec.sample_rate">44100</property>
  <property name="meta.media.0.codec.channels">2</property>
  <property name="meta.media.0.codec.layout">stereo</property>
  <property name="meta.media.0.codec.name">mp3float</property>
  <property name="meta.media.0.codec.long_name">MP3 (MPEG audio layer 3)</property>
  <property name="meta.media.0.codec.bit_rate">192000</property>
  <property name="meta.attr.0.stream.encoder.markup">LAME3.92 </property>
  <property name="meta.attr.title.markup">Fear of the dark</property>
  <property name="meta.attr.artist.markup">Akira Yamaoka</property>
  <property name="meta.attr.album.markup">Silent Hill - Original Soundtrack</property>
  <property name="meta.attr.comment.markup">KICA7950 / KOE-CDS-002</property>
  <property name="meta.attr.genre.markup">Game</property>
  <property name="meta.attr.track.markup">18</property>
  <property name="meta.attr.date.markup">1999</property>
  <property name="xml">was here</property>
  <property name="mute_on_pause">0</property>
  <property name="set.test_audio">0</property>
  <property name="set.test_image">1</property>
 </chain>
 <chain id="chain11" out="00:01:16.767">
  <property name="length">1841</property>
  <property name="eof">pause</property>
  <property name="resource">ost/34-ost-only_you-bla.mp3</property>
  <property name="mlt_service">avformat-novalidate</property>
  <property name="seekable">1</property>
  <property name="audio_index">0</property>
  <property name="video_index">-1</property>
  <property name="astream">0</property>
  <property name="kdenlive:folderid">7</property>
  <property name="kdenlive:id">43</property>
  <property name="kdenlive:control_uuid">{2f01d768-ef04-4fa3-a627-88e0604f72e1}</property>
  <property name="kdenlive:clip_type">1</property>
  <property name="kdenlive:file_size">1845229</property>
  <property name="kdenlive:file_hash">f222ba54bbfb8834d1a0541cdaed5044</property>
  <property name="kdenlive:monitorPosition">606</property>
  <property name="meta.media.nb_streams">1</property>
  <property name="meta.media.0.stream.type">audio</property>
  <property name="meta.media.0.codec.sample_fmt">fltp</property>
  <property name="meta.media.0.codec.sample_rate">44100</property>
  <property name="meta.media.0.codec.channels">2</property>
  <property name="meta.media.0.codec.layout">stereo</property>
  <property name="meta.media.0.codec.name">mp3float</property>
  <property name="meta.media.0.codec.long_name">MP3 (MPEG audio layer 3)</property>
  <property name="meta.media.0.codec.bit_rate">192000</property>
  <property name="meta.attr.0.stream.encoder.markup">LAME3.92 </property>
  <property name="meta.attr.title.markup">Only you</property>
  <property name="meta.attr.artist.markup">Akira Yamaoka</property>
  <property name="meta.attr.album.markup">Silent Hill - Original Soundtrack</property>
  <property name="meta.attr.comment.markup">KICA7950 / KOE-CDS-002</property>
  <property name="meta.attr.genre.markup">Game</property>
  <property name="meta.attr.track.markup">34</property>
  <property name="meta.attr.date.markup">1999</property>
  <property name="xml">was here</property>
  <property name="mute_on_pause">0</property>
  <property name="set.test_audio">0</property>
  <property name="set.test_image">1</property>
 </chain>
 <chain id="chain12" out="00:05:17.267">
  <property name="length">7607</property>
  <property name="eof">pause</property>
  <property name="resource">ost/Silent_Hill_Nay_Tomorrow_OC_ReMix.mp3</property>
  <property name="mlt_service">avformat-novalidate</property>
  <property name="seekable">1</property>
  <property name="audio_index">0</property>
  <property name="video_index">1</property>
  <property name="vstream">0</property>
  <property name="astream">0</property>
  <property name="kdenlive:folderid">7</property>
  <property name="kdenlive:id">52</property>
  <property name="kdenlive:control_uuid">{ae629ffd-3c87-4f68-b74d-bec36bd22b51}</property>
  <property name="mute_on_pause">0</property>
  <property name="kdenlive:clip_type">0</property>
  <property name="kdenlive:coverartstream">1</property>
  <property name="kdenlive:file_size">5163581</property>
  <property name="kdenlive:file_hash">83fedd44fff2bb120a9747dbedd6c3f0</property>
  <property name="kdenlive:monitorPosition">0</property>
  <property name="meta.media.nb_streams">2</property>
  <property name="meta.media.0.stream.type">audio</property>
  <property name="meta.media.0.codec.sample_fmt">fltp</property>
  <property name="meta.media.0.codec.sample_rate">44100</property>
  <property name="meta.media.0.codec.channels">2</property>
  <property name="meta.media.0.codec.layout">stereo</property>
  <property name="meta.media.0.codec.name">mp3float</property>
  <property name="meta.media.0.codec.long_name">MP3 (MPEG audio layer 3)</property>
  <property name="meta.media.0.codec.bit_rate">128000</property>
  <property name="meta.media.1.stream.type">video</property>
  <property name="meta.media.1.stream.frame_rate">90000</property>
  <property name="meta.media.1.stream.sample_aspect_ratio">0</property>
  <property name="meta.media.1.codec.width">700</property>
  <property name="meta.media.1.codec.height">700</property>
  <property name="meta.media.1.codec.rotate">0</property>
  <property name="meta.media.1.codec.pix_fmt">yuvj444p</property>
  <property name="meta.media.1.codec.sample_aspect_ratio">0</property>
  <property name="meta.media.1.codec.colorspace">601</property>
  <property name="meta.media.1.codec.name">mjpeg</property>
  <property name="meta.media.1.codec.long_name">MJPEG (Motion JPEG)</property>
  <property name="meta.media.1.codec.bit_rate">0</property>
  <property name="meta.attr.1.stream.comment.markup">Cover (front)</property>
  <property name="meta.attr.album.markup">ocremix.org</property>
  <property name="meta.attr.artist.markup">Tamimi</property>
  <property name="meta.attr.album_artist.markup">OverClocked ReMix</property>
  <property name="meta.attr.comment.markup">el_selvador@hotmail.com</property>
  <property name="meta.attr.composer.markup">Akira Yamaoka</property>
  <property name="meta.attr.grouping.markup">Silent Hill</property>
  <property name="meta.attr.copyright.markup">Konami</property>
  <property name="meta.attr.encoded_by.markup">el_selvador@hotmail.com</property>
  <property name="meta.attr.genre.markup">Game</property>
  <property name="meta.attr.compilation.markup">1</property>
  <property name="meta.attr.TOPE.markup">PlayStation</property>
  <property name="meta.attr.publisher.markup">OverClocked ReMix</property>
  <property name="meta.attr.SETSUBTITLE.markup">OCR00756</property>
  <property name="meta.attr.TIT3.markup">Nay Tomorrow</property>
  <property name="meta.attr.title.markup">Silent Hill "Nay Tomorrow" OC ReMix</property>
  <property name="meta.attr.track.markup">756</property>
  <property name="meta.attr.date.markup">2002</property>
  <property name="meta.media.sample_aspect_num">1</property>
  <property name="meta.media.sample_aspect_den">1</property>
  <property name="meta.media.frame_rate_num">90000</property>
  <property name="meta.media.frame_rate_den">1</property>
  <property name="meta.media.colorspace">601</property>
  <property name="meta.media.color_trc">2</property>
  <property name="meta.media.has_b_frames">0</property>
  <property name="meta.media.width">700</property>
  <property name="meta.media.height">700</property>
  <property name="meta.media.aspect_ratio">1</property>
  <property name="meta.media.color_range">full</property>
  <property name="xml">was here</property>
  <property name="meta.media.top_field_first">0</property>
  <property name="meta.media.progressive">1</property>
  <property name="set.test_audio">0</property>
  <property name="set.test_image">1</property>
 </chain>
 <chain id="chain58" out="00:02:36.078">
  <property name="length">3743</property>
  <property name="eof">pause</property>
  <property name="resource">ost/40-ost-she-bla.mp3</property>
  <property name="mlt_service">avformat-novalidate</property>
  <property name="seekable">1</property>
  <property name="audio_index">0</property>
  <property name="video_index">-1</property>
  <property name="astream">0</property>
  <property name="kdenlive:folderid">7</property>
  <property name="kdenlive:id">49</property>
  <property name="kdenlive:control_uuid">{0412c3eb-7193-4ad7-b7f2-6fee1a318250}</property>
  <property name="kdenlive:clip_type">1</property>
  <property name="kdenlive:file_size">3748605</property>
  <property name="kdenlive:file_hash">8fc267edb538a2c3f75d90c3c943ba4d</property>
  <property name="meta.media.nb_streams">1</property>
  <property name="meta.media.0.stream.type">audio</property>
  <property name="meta.media.0.codec.sample_fmt">fltp</property>
  <property name="meta.media.0.codec.sample_rate">44100</property>
  <property name="meta.media.0.codec.channels">2</property>
  <property name="meta.media.0.codec.layout">stereo</property>
  <property name="meta.media.0.codec.name">mp3float</property>
  <property name="meta.media.0.codec.long_name">MP3 (MPEG audio layer 3)</property>
  <property name="meta.media.0.codec.bit_rate">192000</property>
  <property name="meta.attr.0.stream.encoder.markup">LAME3.92 </property>
  <property name="meta.attr.title.markup">She</property>
  <property name="meta.attr.artist.markup">Akira Yamaoka</property>
  <property name="meta.attr.album.markup">Silent Hill - Original Soundtrack</property>
  <property name="meta.attr.comment.markup">KICA7950 / KOE-CDS-002</property>
  <property name="meta.attr.genre.markup">Game</property>
  <property name="meta.attr.track.markup">40</property>
  <property name="meta.attr.date.markup">1999</property>
  <property name="xml">was here</property>
  <property name="mute_on_pause">0</property>
  <property name="set.test_audio">0</property>
  <property name="set.test_image">1</property>
 </chain>
 <playlist id="playlist2">
  <property name="kdenlive:audio_track">1</property>
  <blank length="01:21:13.472"/>
  <entry in="00:00:00.000" out="00:00:42.125" producer="chain10">
   <property name="kdenlive:id">24</property>
  </entry>
  <entry in="00:00:42.167" out="00:01:10.427" producer="chain10">
   <property name="kdenlive:id">24</property>
   <filter id="filter49" in="00:01:09.176" out="00:01:10.427">
    <property name="window">75</property>
    <property name="max_gain">20dB</property>
    <property name="mlt_service">volume</property>
    <property name="kdenlive_id">fadeout</property>
    <property name="gain">1</property>
    <property name="end">0</property>
    <property name="kdenlive:collapsed">0</property>
   </filter>
  </entry>
  <blank length="00:00:27.236"/>
  <entry in="00:00:00.000" out="00:00:43.460" producer="chain11">
   <property name="kdenlive:id">43</property>
  </entry>
  <entry in="00:00:43.502" out="00:00:56.640" producer="chain11">
   <property name="kdenlive:id">43</property>
   <filter id="filter50" in="00:00:43.919" out="00:00:56.640">
    <property name="window">75</property>
    <property name="max_gain">20dB</property>
    <property name="mlt_service">volume</property>
    <property name="kdenlive_id">fadeout</property>
    <property name="gain">1</property>
    <property name="end">0</property>
    <property name="kdenlive:collapsed">0</property>
   </filter>
  </entry>
  <blank length="00:13:30.530"/>
  <entry in="00:00:06.006" out="00:02:37.579" producer="chain12">
   <property name="kdenlive:id">52</property>
   <filter id="filter51">
    <property name="window">75</property>
    <property name="max_gain">20dB</property>
    <property name="level">00:00:06.006=-23</property>
    <property name="mlt_service">volume</property>
    <property name="kdenlive_id">volume</property>
    <property name="kdenlive:collapsed">0</property>
   </filter>
   <filter id="filter52" in="00:00:06.006" out="00:00:14.264">
    <property name="window">75</property>
    <property name="max_gain">20dB</property>
    <property name="mlt_service">volume</property>
    <property name="kdenlive_id">fadein</property>
    <property name="gain">0</property>
    <property name="end">1</property>
    <property name="kdenlive:collapsed">0</property>
   </filter>
   <filter id="filter53" in="00:02:18.060" out="00:02:37.579">
    <property name="window">75</property>
    <property name="max_gain">20dB</property>
    <property name="mlt_service">volume</property>
    <property name="kdenlive_id">fadeout</property>
    <property name="gain">1</property>
    <property name="end">0</property>
    <property name="kdenlive:collapsed">0</property>
   </filter>
  </entry>
  <blank length="00:00:16.099"/>
  <entry in="00:00:12.888" out="00:02:20.270" producer="chain58">
   <property name="kdenlive:id">49</property>
   <filter id="filter54">
    <property name="window">75</property>
    <property name="max_gain">20dB</property>
    <property name="level">00:00:12.888=-38.2632;00:00:20.520=-19;00:02:20.270=-19</property>
    <property name="mlt_service">volume</property>
    <property name="kdenlive_id">volume</property>
    <property name="kdenlive:collapsed">0</property>
   </filter>
  </entry>
  <entry in="00:02:20.312" out="00:02:36.078" producer="chain58">
   <property name="kdenlive:id">49</property>
   <filter id="filter55">
    <property name="window">75</property>
    <property name="max_gain">20dB</property>
    <property name="level">00:02:20.312=-11</property>
    <property name="mlt_service">volume</property>
    <property name="kdenlive_id">volume</property>
    <property name="kdenlive:collapsed">0</property>
   </filter>
   <filter id="filter56" in="00:02:20.312" out="00:02:21.104">
    <property name="window">75</property>
    <property name="max_gain">20dB</property>
    <property name="mlt_service">volume</property>
    <property name="kdenlive_id">fadein</property>
    <property name="gain">0</property>
    <property name="end">1</property>
    <property name="kdenlive:collapsed">0</property>
   </filter>
   <filter id="filter57" in="00:02:35.744" out="00:02:36.078">
    <property name="window">75</property>
    <property name="max_gain">20dB</property>
    <property name="mlt_service">volume</property>
    <property name="kdenlive_id">fadeout</property>
    <property name="gain">1</property>
    <property name="end">0</property>
    <property name="kdenlive:collapsed">0</property>
   </filter>
  </entry>
 </playlist>
 <playlist id="playlist3">
  <property name="kdenlive:audio_track">1</property>
 </playlist>
 <tractor id="tractor1" in="00:00:00.000" out="01:42:29.238">
  <property name="kdenlive:audio_track">1</property>
  <property name="kdenlive:trackheight">84</property>
  <property name="kdenlive:timeline_active">1</property>
  <property name="kdenlive:collapsed">0</property>
  <property name="kdenlive:thumbs_format"/>
  <property name="kdenlive:audio_rec"/>
  <track hide="video" producer="playlist2"/>
  <track hide="video" producer="playlist3"/>
  <filter id="filter58">
   <property name="window">75</property>
   <property name="max_gain">20dB</property>
   <property name="mlt_service">volume</property>
   <property name="internal_added">237</property>
   <property name="disable">1</property>
  </filter>
  <filter id="filter59">
   <property name="channel">-1</property>
   <property name="mlt_service">panner</property>
   <property name="internal_added">237</property>
   <property name="start">0.5</property>
   <property name="disable">1</property>
  </filter>
  <filter id="filter60">
   <property name="iec_scale">0</property>
   <property name="mlt_service">audiolevel</property>
   <property name="dbpeak">1</property>
   <property name="disable">1</property>
  </filter>
 </tractor>
 <chain id="chain59" out="00:03:16.058">
  <property name="length">4701</property>
  <property name="eof">pause</property>
  <property name="resource">ost/38-ost-tears_of___-bla.mp3</property>
  <property name="mlt_service">avformat-novalidate</property>
  <property name="seekable">1</property>
  <property name="audio_index">0</property>
  <property name="video_index">-1</property>
  <property name="astream">0</property>
  <property name="kdenlive:folderid">7</property>
  <property name="kdenlive:id">47</property>
  <property name="kdenlive:control_uuid">{e13aef67-caf4-41a1-9ec1-b7a7b2982d83}</property>
  <property name="kdenlive:clip_type">1</property>
  <property name="kdenlive:file_size">4707837</property>
  <property name="kdenlive:file_hash">3e59df855fbbed823c3f7345533d575d</property>
  <property name="kdenlive:monitorPosition">0</property>
  <property name="meta.media.nb_streams">1</property>
  <property name="meta.media.0.stream.type">audio</property>
  <property name="meta.media.0.codec.sample_fmt">fltp</property>
  <property name="meta.media.0.codec.sample_rate">44100</property>
  <property name="meta.media.0.codec.channels">2</property>
  <property name="meta.media.0.codec.layout">stereo</property>
  <property name="meta.media.0.codec.name">mp3float</property>
  <property name="meta.media.0.codec.long_name">MP3 (MPEG audio layer 3)</property>
  <property name="meta.media.0.codec.bit_rate">192000</property>
  <property name="meta.attr.0.stream.encoder.markup">LAME3.92 </property>
  <property name="meta.attr.title.markup">Tears of...</property>
  <property name="meta.attr.artist.markup">Akira Yamaoka</property>
  <property name="meta.attr.album.markup">Silent Hill - Original Soundtrack</property>
  <property name="meta.attr.comment.markup">KICA7950 / KOE-CDS-002</property>
  <property name="meta.attr.genre.markup">Game</property>
  <property name="meta.attr.track.markup">38</property>
  <property name="meta.attr.date.markup">1999</property>
  <property name="xml">was here</property>
  <property name="mute_on_pause">0</property>
  <property name="set.test_audio">0</property>
  <property name="set.test_image">1</property>
 </chain>
 <chain id="chain60" out="00:02:04.421">
  <property name="length">2984</property>
  <property name="eof">pause</property>
  <property name="resource">ost/05-ost-over-bla.mp3</property>
  <property name="mlt_service">avformat-novalidate</property>
  <property name="seekable">1</property>
  <property name="audio_index">0</property>
  <property name="video_index">-1</property>
  <property name="astream">0</property>
  <property name="kdenlive:folderid">7</property>
  <property name="kdenlive:id">11</property>
  <property name="kdenlive:control_uuid">{6e71778e-99c0-4fc0-8829-75f2f3eee25a}</property>
  <property name="kdenlive:clip_type">1</property>
  <property name="kdenlive:file_size">2988757</property>
  <property name="kdenlive:file_hash">493f47ea8fbd6bda8509e7cea8a3b728</property>
  <property name="meta.media.nb_streams">1</property>
  <property name="meta.media.0.stream.type">audio</property>
  <property name="meta.media.0.codec.sample_fmt">fltp</property>
  <property name="meta.media.0.codec.sample_rate">44100</property>
  <property name="meta.media.0.codec.channels">2</property>
  <property name="meta.media.0.codec.layout">stereo</property>
  <property name="meta.media.0.codec.name">mp3float</property>
  <property name="meta.media.0.codec.long_name">MP3 (MPEG audio layer 3)</property>
  <property name="meta.media.0.codec.bit_rate">192000</property>
  <property name="meta.attr.0.stream.encoder.markup">LAME3.92 </property>
  <property name="meta.attr.title.markup">Over</property>
  <property name="meta.attr.artist.markup">Akira Yamaoka</property>
  <property name="meta.attr.album.markup">Silent Hill - Original Soundtrack</property>
  <property name="meta.attr.comment.markup">KICA7950 / KOE-CDS-002</property>
  <property name="meta.attr.genre.markup">Game</property>
  <property name="meta.attr.track.markup">05</property>
  <property name="meta.attr.date.markup">1999</property>
  <property name="xml">was here</property>
  <property name="mute_on_pause">0</property>
  <property name="set.test_audio">0</property>
  <property name="set.test_image">1</property>
 </chain>
 <chain id="chain61" out="00:02:07.925">
  <property name="length">3068</property>
  <property name="eof">pause</property>
  <property name="resource">ost/02-ost-all-bla.mp3</property>
  <property name="mlt_service">avformat-novalidate</property>
  <property name="seekable">1</property>
  <property name="audio_index">0</property>
  <property name="video_index">-1</property>
  <property name="astream">0</property>
  <property name="kdenlive:folderid">7</property>
  <property name="kdenlive:id">8</property>
  <property name="kdenlive:control_uuid">{1d58ce19-571b-4ac5-8c8d-839dfad4e2eb}</property>
  <property name="kdenlive:clip_type">1</property>
  <property name="kdenlive:file_size">3073392</property>
  <property name="kdenlive:file_hash">99e77be2b97a17bd5861f9b7c9da40b2</property>
  <property name="kdenlive:monitorPosition">0</property>
  <property name="meta.media.nb_streams">1</property>
  <property name="meta.media.0.stream.type">audio</property>
  <property name="meta.media.0.codec.sample_fmt">fltp</property>
  <property name="meta.media.0.codec.sample_rate">44100</property>
  <property name="meta.media.0.codec.channels">2</property>
  <property name="meta.media.0.codec.layout">stereo</property>
  <property name="meta.media.0.codec.name">mp3float</property>
  <property name="meta.media.0.codec.long_name">MP3 (MPEG audio layer 3)</property>
  <property name="meta.media.0.codec.bit_rate">192000</property>
  <property name="meta.attr.0.stream.encoder.markup">LAME3.92 </property>
  <property name="meta.attr.title.markup">All</property>
  <property name="meta.attr.artist.markup">Akira Yamaoka</property>
  <property name="meta.attr.album.markup">Silent Hill - Original Soundtrack</property>
  <property name="meta.attr.comment.markup">KICA7950 / KOE-CDS-002</property>
  <property name="meta.attr.genre.markup">Game</property>
  <property name="meta.attr.track.markup">02</property>
  <property name="meta.attr.date.markup">1999</property>
  <property name="xml">was here</property>
  <property name="mute_on_pause">0</property>
  <property name="set.test_audio">0</property>
  <property name="set.test_image">1</property>
 </chain>
 <chain id="chain62" out="00:02:52.761">
  <property name="length">4143</property>
  <property name="eof">pause</property>
  <property name="resource">ost/22-ost-ill_kill_you-bla.mp3</property>
  <property name="mlt_service">avformat-novalidate</property>
  <property name="seekable">1</property>
  <property name="audio_index">0</property>
  <property name="video_index">-1</property>
  <property name="astream">0</property>
  <property name="kdenlive:folderid">7</property>
  <property name="kdenlive:id">31</property>
  <property name="kdenlive:control_uuid">{cbe395bf-d169-4e37-af24-5474eac76a7a}</property>
  <property name="kdenlive:clip_type">1</property>
  <property name="kdenlive:file_size">4149239</property>
  <property name="kdenlive:file_hash">915b7dfae8d894ebbfb75bde176ca324</property>
  <property name="kdenlive:monitorPosition">4142</property>
  <property name="meta.media.nb_streams">1</property>
  <property name="meta.media.0.stream.type">audio</property>
  <property name="meta.media.0.codec.sample_fmt">fltp</property>
  <property name="meta.media.0.codec.sample_rate">44100</property>
  <property name="meta.media.0.codec.channels">2</property>
  <property name="meta.media.0.codec.layout">stereo</property>
  <property name="meta.media.0.codec.name">mp3float</property>
  <property name="meta.media.0.codec.long_name">MP3 (MPEG audio layer 3)</property>
  <property name="meta.media.0.codec.bit_rate">192000</property>
  <property name="meta.attr.0.stream.encoder.markup">LAME3.92 </property>
  <property name="meta.attr.title.markup">I'll kill you</property>
  <property name="meta.attr.artist.markup">Akira Yamaoka</property>
  <property name="meta.attr.album.markup">Silent Hill - Original Soundtrack</property>
  <property name="meta.attr.comment.markup">KICA7950 / KOE-CDS-002</property>
  <property name="meta.attr.genre.markup">Game</property>
  <property name="meta.attr.track.markup">22</property>
  <property name="meta.attr.date.markup">1999</property>
  <property name="xml">was here</property>
  <property name="mute_on_pause">0</property>
  <property name="set.test_audio">0</property>
  <property name="set.test_image">1</property>
 </chain>
 <chain id="chain63" out="00:00:38.747">
  <property name="length">930</property>
  <property name="eof">pause</property>
  <property name="resource">ost/Car Engine Starting Sound Effect..mp3</property>
  <property name="mlt_service">avformat-novalidate</property>
  <property name="seekable">1</property>
  <property name="audio_index">0</property>
  <property name="video_index">-1</property>
  <property name="astream">0</property>
  <property name="kdenlive:folderid">-1</property>
  <property name="kdenlive:id">53</property>
  <property name="kdenlive:control_uuid">{1913d95f-ff89-4e85-9363-089cafb4efed}</property>
  <property name="kdenlive:clip_type">1</property>
  <property name="kdenlive:file_size">931768</property>
  <property name="kdenlive:file_hash">db1b96eee34b11fac864e97f257bb369</property>
  <property name="meta.media.nb_streams">1</property>
  <property name="meta.media.0.stream.type">audio</property>
  <property name="meta.media.0.codec.sample_fmt">fltp</property>
  <property name="meta.media.0.codec.sample_rate">44100</property>
  <property name="meta.media.0.codec.channels">2</property>
  <property name="meta.media.0.codec.layout">stereo</property>
  <property name="meta.media.0.codec.name">mp3float</property>
  <property name="meta.media.0.codec.long_name">MP3 (MPEG audio layer 3)</property>
  <property name="meta.media.0.codec.bit_rate">192000</property>
  <property name="meta.attr.0.stream.encoder.markup">Lavc60.31</property>
  <property name="meta.attr.major_brand.markup">dash</property>
  <property name="meta.attr.minor_version.markup">0</property>
  <property name="meta.attr.compatible_brands.markup">iso6mp41</property>
  <property name="meta.attr.encoder.markup">Lavf60.16.100</property>
  <property name="xml">was here</property>
  <property name="mute_on_pause">0</property>
  <property name="set.test_audio">0</property>
  <property name="set.test_image">1</property>
 </chain>
 <playlist id="playlist4">
  <property name="kdenlive:audio_track">1</property>
  <entry in="00:00:00.000" out="00:00:13.180" producer="chain59">
   <property name="kdenlive:id">47</property>
   <property name="kdenlive:activeeffect">1</property>
   <filter id="filter61" out="00:00:13.222">
    <property name="window">75</property>
    <property name="max_gain">20dB</property>
    <property name="mlt_service">volume</property>
    <property name="kdenlive_id">fadeout</property>
    <property name="gain">1</property>
    <property name="end">0</property>
    <property name="kdenlive:collapsed">0</property>
   </filter>
   <filter id="filter62">
    <property name="window">75</property>
    <property name="max_gain">20dB</property>
    <property name="level">00:00:00.000=-17</property>
    <property name="mlt_service">volume</property>
    <property name="kdenlive_id">volume</property>
    <property name="kdenlive:collapsed">0</property>
   </filter>
  </entry>
  <blank length="01:19:20.479"/>
  <entry in="00:00:00.000" out="00:01:29.988" producer="chain60">
   <property name="kdenlive:id">11</property>
   <filter id="filter63">
    <property name="window">75</property>
    <property name="max_gain">20dB</property>
    <property name="level">00:00:00.000=-6</property>
    <property name="mlt_service">volume</property>
    <property name="kdenlive_id">volume</property>
    <property name="kdenlive:collapsed">0</property>
   </filter>
  </entry>
  <entry in="00:01:30.030" out="00:01:33.492" producer="chain60">
   <property name="kdenlive:id">11</property>
   <filter id="filter64">
    <property name="window">75</property>
    <property name="max_gain">20dB</property>
    <property name="level">00:01:30.030=-6</property>
    <property name="mlt_service">volume</property>
    <property name="kdenlive_id">volume</property>
    <property name="kdenlive:collapsed">0</property>
   </filter>
  </entry>
  <blank length="00:00:01.460"/>
  <entry in="00:01:29.780" out="00:01:33.200" producer="chain60">
   <property name="kdenlive:id">11</property>
   <filter id="filter65">
    <property name="window">75</property>
    <property name="max_gain">20dB</property>
    <property name="level">00:01:29.780=-6</property>
    <property name="mlt_service">volume</property>
    <property name="kdenlive_id">volume</property>
    <property name="kdenlive:collapsed">0</property>
   </filter>
   <filter id="filter66" in="00:01:31.949" out="00:01:33.200">
    <property name="window">75</property>
    <property name="max_gain">20dB</property>
    <property name="mlt_service">volume</property>
    <property name="kdenlive_id">fadeout</property>
    <property name="gain">1</property>
    <property name="end">0</property>
    <property name="kdenlive:collapsed">0</property>
   </filter>
  </entry>
  <blank length="00:00:43.502"/>
  <entry in="00:00:57.891" out="00:01:37.329" producer="chain61">
   <property name="kdenlive:id">8</property>
   <property name="kdenlive:activeeffect">1</property>
   <filter id="filter67" in="00:00:57.891" out="00:01:14.598">
    <property name="window">75</property>
    <property name="max_gain">20dB</property>
    <property name="mlt_service">volume</property>
    <property name="kdenlive_id">fadein</property>
    <property name="gain">0</property>
    <property name="end">1</property>
    <property name="kdenlive:collapsed">0</property>
   </filter>
   <filter id="filter68">
    <property name="window">75</property>
    <property name="max_gain">20dB</property>
    <property name="level">00:00:57.891=-18</property>
    <property name="mlt_service">volume</property>
    <property name="kdenlive_id">volume</property>
    <property name="kdenlive:collapsed">0</property>
   </filter>
   <filter id="filter69" in="00:01:27.152" out="00:01:37.329">
    <property name="window">75</property>
    <property name="max_gain">20dB</property>
    <property name="mlt_service">volume</property>
    <property name="kdenlive_id">fadeout</property>
    <property name="gain">1</property>
    <property name="end">0</property>
    <property name="kdenlive:collapsed">0</property>
   </filter>
  </entry>
  <blank length="00:01:25.943"/>
  <entry in="00:00:47.881" out="00:01:13.847" producer="chain62">
   <property name="kdenlive:id">31</property>
   <property name="kdenlive:activeeffect">1</property>
   <filter id="filter70" in="00:00:47.881" out="00:01:11.303">
    <property name="window">75</property>
    <property name="max_gain">20dB</property>
    <property name="mlt_service">volume</property>
    <property name="kdenlive_id">fadein</property>
    <property name="gain">0</property>
    <property name="end">1</property>
    <property name="kdenlive:collapsed">0</property>
   </filter>
   <filter id="filter71">
    <property name="window">75</property>
    <property name="max_gain">20dB</property>
    <property name="level">00:00:47.881=-10</property>
    <property name="mlt_service">volume</property>
    <property name="kdenlive_id">volume</property>
    <property name="kdenlive:collapsed">0</property>
   </filter>
  </entry>
  <blank length="00:00:19.436"/>
  <entry in="00:01:33.325" out="00:01:49.549" producer="chain62">
   <property name="kdenlive:id">31</property>
   <filter id="filter72">
    <property name="window">75</property>
    <property name="max_gain">20dB</property>
    <property name="level">00:01:33.325=-12</property>
    <property name="mlt_service">volume</property>
    <property name="kdenlive_id">volume</property>
    <property name="kdenlive:collapsed">0</property>
   </filter>
   <filter id="filter73" in="00:01:36.370" out="00:01:49.549">
    <property name="window">75</property>
    <property name="max_gain">20dB</property>
    <property name="mlt_service">volume</property>
    <property name="kdenlive_id">fadeout</property>
    <property name="gain">1</property>
    <property name="end">0</property>
    <property name="kdenlive:collapsed">0</property>
   </filter>
  </entry>
  <blank length="00:13:49.174"/>
  <entry in="00:00:00.000" out="00:00:24.566" producer="chain63">
   <property name="kdenlive:id">53</property>
   <property name="kdenlive:activeeffect">1</property>
   <filter id="filter74" in="00:00:02.461" out="00:00:24.566">
    <property name="window">75</property>
    <property name="max_gain">20dB</property>
    <property name="mlt_service">volume</property>
    <property name="kdenlive_id">fadeout</property>
    <property name="gain">1</property>
    <property name="end">0</property>
    <property name="kdenlive:collapsed">0</property>
   </filter>
   <filter id="filter75">
    <property name="window">75</property>
    <property name="max_gain">20dB</property>
    <property name="level">00:00:00.000=-14</property>
    <property name="mlt_service">volume</property>
    <property name="kdenlive_id">volume</property>
    <property name="kdenlive:collapsed">0</property>
   </filter>
  </entry>
 </playlist>
 <chain id="chain64" out="00:02:04.421">
  <property name="length">2984</property>
  <property name="eof">pause</property>
  <property name="resource">ost/05-ost-over-bla.mp3</property>
  <property name="mlt_service">avformat-novalidate</property>
  <property name="seekable">1</property>
  <property name="audio_index">0</property>
  <property name="video_index">-1</property>
  <property name="astream">0</property>
  <property name="kdenlive:folderid">7</property>
  <property name="kdenlive:id">11</property>
  <property name="kdenlive:control_uuid">{6e71778e-99c0-4fc0-8829-75f2f3eee25a}</property>
  <property name="kdenlive:clip_type">1</property>
  <property name="kdenlive:file_size">2988757</property>
  <property name="kdenlive:file_hash">493f47ea8fbd6bda8509e7cea8a3b728</property>
  <property name="kdenlive:monitorPosition">2465</property>
  <property name="meta.media.nb_streams">1</property>
  <property name="meta.media.0.stream.type">audio</property>
  <property name="meta.media.0.codec.sample_fmt">fltp</property>
  <property name="meta.media.0.codec.sample_rate">44100</property>
  <property name="meta.media.0.codec.channels">2</property>
  <property name="meta.media.0.codec.layout">stereo</property>
  <property name="meta.media.0.codec.name">mp3float</property>
  <property name="meta.media.0.codec.long_name">MP3 (MPEG audio layer 3)</property>
  <property name="meta.media.0.codec.bit_rate">192000</property>
  <property name="meta.attr.0.stream.encoder.markup">LAME3.92 </property>
  <property name="meta.attr.title.markup">Over</property>
  <property name="meta.attr.artist.markup">Akira Yamaoka</property>
  <property name="meta.attr.album.markup">Silent Hill - Original Soundtrack</property>
  <property name="meta.attr.comment.markup">KICA7950 / KOE-CDS-002</property>
  <property name="meta.attr.genre.markup">Game</property>
  <property name="meta.attr.track.markup">05</property>
  <property name="meta.attr.date.markup">1999</property>
  <property name="xml">was here</property>
  <property name="mute_on_pause">0</property>
  <property name="set.test_audio">0</property>
  <property name="set.test_image">1</property>
 </chain>
 <chain id="chain65" out="00:02:52.761">
  <property name="length">4143</property>
  <property name="eof">pause</property>
  <property name="resource">ost/22-ost-ill_kill_you-bla.mp3</property>
  <property name="mlt_service">avformat-novalidate</property>
  <property name="seekable">1</property>
  <property name="audio_index">0</property>
  <property name="video_index">-1</property>
  <property name="astream">0</property>
  <property name="kdenlive:folderid">7</property>
  <property name="kdenlive:id">31</property>
  <property name="kdenlive:control_uuid">{cbe395bf-d169-4e37-af24-5474eac76a7a}</property>
  <property name="kdenlive:clip_type">1</property>
  <property name="kdenlive:file_size">4149239</property>
  <property name="kdenlive:file_hash">915b7dfae8d894ebbfb75bde176ca324</property>
  <property name="kdenlive:monitorPosition">1930</property>
  <property name="meta.media.nb_streams">1</property>
  <property name="meta.media.0.stream.type">audio</property>
  <property name="meta.media.0.codec.sample_fmt">fltp</property>
  <property name="meta.media.0.codec.sample_rate">44100</property>
  <property name="meta.media.0.codec.channels">2</property>
  <property name="meta.media.0.codec.layout">stereo</property>
  <property name="meta.media.0.codec.name">mp3float</property>
  <property name="meta.media.0.codec.long_name">MP3 (MPEG audio layer 3)</property>
  <property name="meta.media.0.codec.bit_rate">192000</property>
  <property name="meta.attr.0.stream.encoder.markup">LAME3.92 </property>
  <property name="meta.attr.title.markup">I'll kill you</property>
  <property name="meta.attr.artist.markup">Akira Yamaoka</property>
  <property name="meta.attr.album.markup">Silent Hill - Original Soundtrack</property>
  <property name="meta.attr.comment.markup">KICA7950 / KOE-CDS-002</property>
  <property name="meta.attr.genre.markup">Game</property>
  <property name="meta.attr.track.markup">22</property>
  <property name="meta.attr.date.markup">1999</property>
  <property name="xml">was here</property>
  <property name="mute_on_pause">0</property>
  <property name="set.test_audio">0</property>
  <property name="set.test_image">1</property>
 </chain>
 <playlist id="playlist5">
  <property name="kdenlive:audio_track">1</property>
  <blank length="01:21:06.215"/>
  <entry in="00:01:30.280" out="00:01:33.700" producer="chain64">
   <property name="kdenlive:id">11</property>
   <filter id="filter76">
    <property name="window">75</property>
    <property name="max_gain">20dB</property>
    <property name="level">00:01:30.280=-6</property>
    <property name="mlt_service">volume</property>
    <property name="kdenlive_id">volume</property>
    <property name="kdenlive:collapsed">0</property>
   </filter>
  </entry>
  <blank length="00:03:16.350"/>
  <entry in="00:01:12.888" out="00:01:34.284" producer="chain65">
   <property name="kdenlive:id">31</property>
   <filter id="filter77">
    <property name="window">75</property>
    <property name="max_gain">20dB</property>
    <property name="level">00:01:12.888=-7</property>
    <property name="mlt_service">volume</property>
    <property name="kdenlive_id">volume</property>
    <property name="kdenlive:collapsed">0</property>
   </filter>
  </entry>
 </playlist>
 <tractor id="tractor2" in="00:00:00.000" out="01:39:16.433">
  <property name="kdenlive:audio_track">1</property>
  <property name="kdenlive:trackheight">84</property>
  <property name="kdenlive:timeline_active">1</property>
  <property name="kdenlive:collapsed">0</property>
  <property name="kdenlive:thumbs_format"/>
  <property name="kdenlive:audio_rec"/>
  <track hide="video" producer="playlist4"/>
  <track hide="video" producer="playlist5"/>
  <transition id="transition5" in="01:21:08.675" out="01:21:09.676">
   <property name="a_track">0</property>
   <property name="b_track">1</property>
   <property name="mlt_service">mix</property>
   <property name="kdenlive_id">mix</property>
   <property name="kdenlive:mixcut">12</property>
   <property name="start">-1</property>
   <property name="accepts_blanks">1</property>
   <property name="reverse">1</property>
  </transition>
  <transition id="transition4" in="01:21:06.215" out="01:21:07.216">
   <property name="a_track">0</property>
   <property name="b_track">1</property>
   <property name="mlt_service">mix</property>
   <property name="kdenlive_id">mix</property>
   <property name="kdenlive:mixcut">12</property>
   <property name="start">-1</property>
   <property name="accepts_blanks">1</property>
   <property name="reverse">0</property>
  </transition>
  <transition id="transition2" in="01:24:25.984" out="01:24:26.985">
   <property name="a_track">0</property>
   <property name="b_track">1</property>
   <property name="mlt_service">mix</property>
   <property name="kdenlive_id">mix</property>
   <property name="kdenlive:mixcut">12</property>
   <property name="start">-1</property>
   <property name="accepts_blanks">1</property>
   <property name="reverse">0</property>
  </transition>
  <transition id="transition3" in="01:24:46.421" out="01:24:47.422">
   <property name="a_track">0</property>
   <property name="b_track">1</property>
   <property name="mlt_service">mix</property>
   <property name="kdenlive_id">mix</property>
   <property name="kdenlive:mixcut">12</property>
   <property name="start">-1</property>
   <property name="accepts_blanks">1</property>
   <property name="reverse">1</property>
  </transition>
  <filter id="filter78">
   <property name="window">75</property>
   <property name="max_gain">20dB</property>
   <property name="mlt_service">volume</property>
   <property name="internal_added">237</property>
   <property name="disable">1</property>
  </filter>
  <filter id="filter79">
   <property name="channel">-1</property>
   <property name="mlt_service">panner</property>
   <property name="internal_added">237</property>
   <property name="start">0.5</property>
   <property name="disable">1</property>
  </filter>
  <filter id="filter80">
   <property name="iec_scale">0</property>
   <property name="mlt_service">audiolevel</property>
   <property name="dbpeak">1</property>
   <property name="disable">1</property>
  </filter>
 </tractor>
 <chain id="chain66" out="02:05:19.478">
  <property name="length">180287</property>
  <property name="eof">pause</property>
  <property name="resource">Silent.Hill.2006.BluRay.1080p.x264.YIFY.mp4</property>
  <property name="mlt_service">avformat-novalidate</property>
  <property name="seekable">1</property>
  <property name="audio_index">1</property>
  <property name="video_index">0</property>
  <property name="vstream">0</property>
  <property name="astream">0</property>
  <property name="kdenlive:control_uuid">{ea7104ff-e9c6-4dd5-8ec1-c0db79af6f56}</property>
  <property name="kdenlive:id">4</property>
  <property name="kdenlive:clip_type">0</property>
  <property name="kdenlive:file_size">1721540280</property>
  <property name="kdenlive:file_hash">f3e01fe6e60132458a728ba3f434ee10</property>
  <property name="kdenlive:folderid">-1</property>
  <property name="meta.media.nb_streams">2</property>
  <property name="meta.media.0.stream.type">video</property>
  <property name="meta.media.0.stream.frame_rate">23.976</property>
  <property name="meta.media.0.stream.sample_aspect_ratio">0</property>
  <property name="meta.media.0.codec.width">1920</property>
  <property name="meta.media.0.codec.height">816</property>
  <property name="meta.media.0.codec.rotate">0</property>
  <property name="meta.media.0.codec.pix_fmt">yuv420p</property>
  <property name="meta.media.0.codec.sample_aspect_ratio">1</property>
  <property name="meta.media.0.codec.colorspace">709</property>
  <property name="meta.media.0.codec.name">h264</property>
  <property name="meta.media.0.codec.long_name">H.264 / AVC / MPEG-4 AVC / MPEG-4 part 10</property>
  <property name="meta.media.0.codec.bit_rate">1731619</property>
  <property name="meta.attr.0.stream.creation_time.markup">2012-08-03T21:17:57.000000Z</property>
  <property name="meta.attr.0.stream.vendor_id.markup">[0][0][0][0]</property>
  <property name="meta.media.1.stream.type">audio</property>
  <property name="meta.media.1.codec.sample_fmt">fltp</property>
  <property name="meta.media.1.codec.sample_rate">48000</property>
  <property name="meta.media.1.codec.channels">2</property>
  <property name="meta.media.1.codec.layout">stereo</property>
  <property name="meta.media.1.codec.name">aac</property>
  <property name="meta.media.1.codec.long_name">AAC (Advanced Audio Coding)</property>
  <property name="meta.media.1.codec.bit_rate">95947</property>
  <property name="meta.attr.1.stream.creation_time.markup">2012-08-03T21:18:23.000000Z</property>
  <property name="meta.attr.1.stream.language.markup">eng</property>
  <property name="meta.attr.1.stream.handler_name.markup">GPAC ISO Audio Handler</property>
  <property name="meta.attr.1.stream.vendor_id.markup">[0][0][0][0]</property>
  <property name="meta.attr.major_brand.markup">isom</property>
  <property name="meta.attr.minor_version.markup">1</property>
  <property name="meta.attr.compatible_brands.markup">isomavc1</property>
  <property name="meta.attr.creation_time.markup">2012-08-03T21:17:57.000000Z</property>
  <property name="meta.media.sample_aspect_num">1</property>
  <property name="meta.media.sample_aspect_den">1</property>
  <property name="meta.media.frame_rate_num">24000</property>
  <property name="meta.media.frame_rate_den">1001</property>
  <property name="meta.media.colorspace">709</property>
  <property name="meta.media.color_trc">2</property>
  <property name="meta.media.has_b_frames">2</property>
  <property name="meta.media.width">1920</property>
  <property name="meta.media.height">816</property>
  <property name="meta.media.aspect_ratio">1</property>
  <property name="meta.media.color_range">mpeg</property>
  <property name="xml">was here</property>
  <property name="mute_on_pause">0</property>
  <property name="meta.media.top_field_first">0</property>
  <property name="meta.media.progressive">1</property>
  <property name="set.test_audio">0</property>
  <property name="set.test_image">1</property>
 </chain>
 <playlist id="playlist6">
  <property name="kdenlive:audio_track">1</property>
  <blank length="00:00:14.389"/>
  <entry in="00:00:14.389" out="00:01:54.805" producer="chain66">
   <property name="kdenlive:id">4</property>
  </entry>
  <entry in="00:02:08.300" out="00:19:44.670" producer="chain66">
   <property name="kdenlive:id">4</property>
  </entry>
  <blank length="00:00:02.961"/>
  <entry in="00:19:58.433" out="00:20:06.381" producer="chain66">
   <property name="kdenlive:id">4</property>
  </entry>
  <blank length="00:00:18.685"/>
  <entry in="00:20:32.366" out="00:21:17.726" producer="chain66">
   <property name="kdenlive:id">4</property>
  </entry>
  <blank length="00:18:13.263"/>
  <entry in="00:39:34.243" out="00:39:36.036" producer="chain66">
   <property name="kdenlive:id">4</property>
  </entry>
  <blank length="00:00:00.709"/>
  <entry in="00:39:49.591" out="00:40:16.183" producer="chain66">
   <property name="kdenlive:id">4</property>
  </entry>
  <entry in="00:40:16.225" out="00:40:21.521" producer="chain66">
   <property name="kdenlive:id">4</property>
  </entry>
  <blank length="00:00:02.294"/>
  <entry in="00:43:02.211" out="00:44:59.059" producer="chain66">
   <property name="kdenlive:id">4</property>
  </entry>
  <entry in="00:44:59.101" out="00:45:04.713" producer="chain66">
   <property name="kdenlive:id">4</property>
  </entry>
  <blank length="00:00:02.669"/>
  <entry in="00:45:49.341" out="00:45:53.470" producer="chain66">
   <property name="kdenlive:id">4</property>
  </entry>
  <entry in="00:45:53.512" out="00:45:58.016" producer="chain66">
   <property name="kdenlive:id">4</property>
  </entry>
  <blank length="00:00:04.129"/>
  <entry in="00:46:46.296" out="00:50:26.610" producer="chain66">
   <property name="kdenlive:id">4</property>
  </entry>
  <blank length="00:01:29.404"/>
  <entry in="00:52:16.808" out="00:52:22.940" producer="chain66">
   <property name="kdenlive:id">4</property>
  </entry>
  <entry in="00:52:27.194" out="01:11:02.461" producer="chain66">
   <property name="kdenlive:id">4</property>
  </entry>
  <blank length="00:00:01.585"/>
  <entry in="01:11:15.474" out="01:11:30.781" producer="chain66">
   <property name="kdenlive:id">4</property>
  </entry>
  <blank length="00:13:31.114"/>
  <entry in="01:25:05.130" out="01:25:10.636" producer="chain66">
   <property name="kdenlive:id">4</property>
  </entry>
  <blank length="00:00:44.086"/>
  <entry in="01:30:57.307" out="01:31:19.686" producer="chain66">
   <property name="kdenlive:id">4</property>
   <filter id="filter81" in="01:30:57.307" out="01:30:58.058">
    <property name="window">75</property>
    <property name="max_gain">20dB</property>
    <property name="mlt_service">volume</property>
    <property name="kdenlive_id">fadein</property>
    <property name="gain">0</property>
    <property name="end">1</property>
    <property name="kdenlive:collapsed">0</property>
   </filter>
  </entry>
  <blank length="00:01:09.343"/>
  <entry in="01:32:29.071" out="01:32:37.287" producer="chain66">
   <property name="kdenlive:id">4</property>
   <filter id="filter82" in="01:32:29.071" out="01:32:36.328">
    <property name="window">75</property>
    <property name="max_gain">20dB</property>
    <property name="mlt_service">volume</property>
    <property name="kdenlive_id">fadein</property>
    <property name="gain">0</property>
    <property name="end">1</property>
   </filter>
   <filter id="filter83" in="01:32:35.744" out="01:32:37.287">
    <property name="window">75</property>
    <property name="max_gain">20dB</property>
    <property name="mlt_service">volume</property>
    <property name="kdenlive_id">fadeout</property>
    <property name="gain">1</property>
    <property name="end">0</property>
   </filter>
  </entry>
  <blank length="00:00:26.151"/>
  <entry in="01:33:03.462" out="01:33:31.406" producer="chain66">
   <property name="kdenlive:id">4</property>
   <filter id="filter84" in="01:33:03.462" out="01:33:04.421">
    <property name="window">75</property>
    <property name="max_gain">20dB</property>
    <property name="mlt_service">volume</property>
    <property name="kdenlive_id">fadein</property>
    <property name="gain">0</property>
    <property name="end">1</property>
   </filter>
   <filter id="filter85" in="01:33:30.614" out="01:33:31.406">
    <property name="window">75</property>
    <property name="max_gain">20dB</property>
    <property name="mlt_service">volume</property>
    <property name="kdenlive_id">fadeout</property>
    <property name="gain">1</property>
    <property name="end">0</property>
   </filter>
  </entry>
  <blank length="00:00:05.547"/>
  <entry in="01:33:36.995" out="01:34:28.654" producer="chain66">
   <property name="kdenlive:id">4</property>
   <filter id="filter86" in="01:33:36.995" out="01:33:37.829">
    <property name="window">75</property>
    <property name="max_gain">20dB</property>
    <property name="mlt_service">volume</property>
    <property name="kdenlive_id">fadein</property>
    <property name="gain">0</property>
    <property name="end">1</property>
   </filter>
  </entry>
  <blank length="00:00:28.612"/>
  <entry in="01:37:32.532" out="01:38:12.804" producer="chain66">
   <property name="kdenlive:id">4</property>
  </entry>
  <blank length="00:03:56.598"/>
  <entry in="01:42:32.950" out="01:48:56.223" producer="chain66">
   <property name="kdenlive:id">4</property>
  </entry>
  <blank length="00:00:14.056"/>
  <entry in="01:50:28.487" out="01:52:10.969" producer="chain66">
   <property name="kdenlive:id">4</property>
   <filter id="filter87" in="01:52:05.214" out="01:52:10.969">
    <property name="window">75</property>
    <property name="max_gain">20dB</property>
    <property name="mlt_service">volume</property>
    <property name="kdenlive_id">fadeout</property>
    <property name="gain">1</property>
    <property name="end">0</property>
   </filter>
  </entry>
  <blank length="00:01:21.438"/>
  <entry in="01:53:36.078" out="01:53:37.829" producer="chain66">
   <property name="kdenlive:id">4</property>
  </entry>
  <entry in="01:53:37.871" out="01:53:40.582" producer="chain66">
   <property name="kdenlive:id">4</property>
  </entry>
  <blank length="00:00:16.767"/>
  <entry in="01:53:59.226" out="01:55:02.044" producer="chain66">
   <property name="kdenlive:id">4</property>
   <property name="kdenlive:activeeffect">0</property>
   <filter id="filter88" in="01:55:00.334" out="01:55:02.044">
    <property name="window">75</property>
    <property name="max_gain">20dB</property>
    <property name="mlt_service">volume</property>
    <property name="kdenlive_id">fadeout</property>
    <property name="gain">1</property>
    <property name="end">0</property>
   </filter>
  </entry>
  <entry in="01:55:02.085" out="01:57:35.494" producer="chain66">
   <property name="kdenlive:id">4</property>
   <property name="kdenlive:activeeffect">0</property>
   <filter id="filter89">
    <property name="window">75</property>
    <property name="max_gain">20dB</property>
    <property name="mlt_service">volume</property>
    <property name="kdenlive_id">mute</property>
    <property name="gain">0</property>
    <property name="kdenlive:collapsed">0</property>
   </filter>
  </entry>
  <blank length="00:00:00.250"/>
  <entry in="01:57:55.472" out="02:05:19.478" producer="chain66">
   <property name="kdenlive:id">4</property>
   <filter id="filter90" in="02:05:17.267" out="02:05:19.519">
    <property name="window">75</property>
    <property name="max_gain">20dB</property>
    <property name="mlt_service">volume</property>
    <property name="kdenlive_id">fadeout</property>
    <property name="gain">1</property>
    <property name="end">0</property>
    <property name="kdenlive:collapsed">0</property>
   </filter>
  </entry>
 </playlist>
 <chain id="chain67" out="02:05:19.478">
  <property name="length">180287</property>
  <property name="eof">pause</property>
  <property name="resource">Silent.Hill.2006.BluRay.1080p.x264.YIFY.mp4</property>
  <property name="mlt_service">avformat-novalidate</property>
  <property name="seekable">1</property>
  <property name="audio_index">1</property>
  <property name="video_index">0</property>
  <property name="vstream">0</property>
  <property name="astream">0</property>
  <property name="kdenlive:control_uuid">{ea7104ff-e9c6-4dd5-8ec1-c0db79af6f56}</property>
  <property name="kdenlive:id">4</property>
  <property name="kdenlive:clip_type">0</property>
  <property name="kdenlive:file_size">1721540280</property>
  <property name="kdenlive:file_hash">f3e01fe6e60132458a728ba3f434ee10</property>
  <property name="kdenlive:folderid">-1</property>
  <property name="meta.media.nb_streams">2</property>
  <property name="meta.media.0.stream.type">video</property>
  <property name="meta.media.0.stream.frame_rate">23.976</property>
  <property name="meta.media.0.stream.sample_aspect_ratio">0</property>
  <property name="meta.media.0.codec.width">1920</property>
  <property name="meta.media.0.codec.height">816</property>
  <property name="meta.media.0.codec.rotate">0</property>
  <property name="meta.media.0.codec.pix_fmt">yuv420p</property>
  <property name="meta.media.0.codec.sample_aspect_ratio">1</property>
  <property name="meta.media.0.codec.colorspace">709</property>
  <property name="meta.media.0.codec.name">h264</property>
  <property name="meta.media.0.codec.long_name">H.264 / AVC / MPEG-4 AVC / MPEG-4 part 10</property>
  <property name="meta.media.0.codec.bit_rate">1731619</property>
  <property name="meta.attr.0.stream.creation_time.markup">2012-08-03T21:17:57.000000Z</property>
  <property name="meta.attr.0.stream.vendor_id.markup">[0][0][0][0]</property>
  <property name="meta.media.1.stream.type">audio</property>
  <property name="meta.media.1.codec.sample_fmt">fltp</property>
  <property name="meta.media.1.codec.sample_rate">48000</property>
  <property name="meta.media.1.codec.channels">2</property>
  <property name="meta.media.1.codec.layout">stereo</property>
  <property name="meta.media.1.codec.name">aac</property>
  <property name="meta.media.1.codec.long_name">AAC (Advanced Audio Coding)</property>
  <property name="meta.media.1.codec.bit_rate">95947</property>
  <property name="meta.attr.1.stream.creation_time.markup">2012-08-03T21:18:23.000000Z</property>
  <property name="meta.attr.1.stream.language.markup">eng</property>
  <property name="meta.attr.1.stream.handler_name.markup">GPAC ISO Audio Handler</property>
  <property name="meta.attr.1.stream.vendor_id.markup">[0][0][0][0]</property>
  <property name="meta.attr.major_brand.markup">isom</property>
  <property name="meta.attr.minor_version.markup">1</property>
  <property name="meta.attr.compatible_brands.markup">isomavc1</property>
  <property name="meta.attr.creation_time.markup">2012-08-03T21:17:57.000000Z</property>
  <property name="meta.media.sample_aspect_num">1</property>
  <property name="meta.media.sample_aspect_den">1</property>
  <property name="meta.media.frame_rate_num">24000</property>
  <property name="meta.media.frame_rate_den">1001</property>
  <property name="meta.media.colorspace">709</property>
  <property name="meta.media.color_trc">2</property>
  <property name="meta.media.has_b_frames">2</property>
  <property name="meta.media.width">1920</property>
  <property name="meta.media.height">816</property>
  <property name="meta.media.aspect_ratio">1</property>
  <property name="meta.media.color_range">mpeg</property>
  <property name="xml">was here</property>
  <property name="mute_on_pause">0</property>
  <property name="meta.media.top_field_first">0</property>
  <property name="meta.media.progressive">1</property>
  <property name="set.test_audio">0</property>
  <property name="set.test_image">1</property>
 </chain>
 <playlist id="playlist7">
  <property name="kdenlive:audio_track">1</property>
  <blank length="00:19:30.239"/>
  <entry in="00:19:54.471" out="00:19:58.392" producer="chain67">
   <property name="kdenlive:id">4</property>
  </entry>
  <blank length="00:00:07.007"/>
  <entry in="00:20:09.885" out="00:20:30.530" producer="chain67">
   <property name="kdenlive:id">4</property>
  </entry>
  <blank length="00:00:43.377"/>
  <entry in="00:21:19.978" out="00:39:34.201" producer="chain67">
   <property name="kdenlive:id">4</property>
  </entry>
  <blank length="00:00:00.834"/>
  <entry in="00:39:47.881" out="00:39:49.549" producer="chain67">
   <property name="kdenlive:id">4</property>
  </entry>
  <blank length="00:00:30.989"/>
  <entry in="00:42:58.934" out="00:43:02.169" producer="chain67">
   <property name="kdenlive:id">4</property>
  </entry>
  <blank length="00:02:01.543"/>
  <entry in="00:45:43.293" out="00:45:47.923" producer="chain67">
   <property name="kdenlive:id">4</property>
  </entry>
  <blank length="00:00:05.005"/>
  <entry in="00:46:14.014" out="00:46:21.813" producer="chain67">
   <property name="kdenlive:id">4</property>
  </entry>
  <blank length="00:03:38.413"/>
  <entry in="00:50:36.161" out="00:52:06.506" producer="chain67">
   <property name="kdenlive:id">4</property>
  </entry>
  <blank length="00:18:40.457"/>
  <entry in="01:11:09.384" out="01:11:12.930" producer="chain67">
   <property name="kdenlive:id">4</property>
  </entry>
  <blank length="00:00:11.011"/>
  <entry in="01:11:30.697" out="01:25:05.088" producer="chain67">
   <property name="kdenlive:id">4</property>
  </entry>
  <blank length="00:00:01.168"/>
  <entry in="01:27:17.809" out="01:27:32.658" producer="chain67">
   <property name="kdenlive:id">4</property>
  </entry>
  <blank length="00:05:12.971"/>
  <entry in="01:38:20.646" out="01:42:19.186" producer="chain67">
   <property name="kdenlive:id">4</property>
   <filter id="filter91" in="01:38:20.646" out="01:38:26.443">
    <property name="window">75</property>
    <property name="max_gain">20dB</property>
    <property name="mlt_service">volume</property>
    <property name="kdenlive_id">fadein</property>
    <property name="gain">0</property>
    <property name="end">1</property>
    <property name="kdenlive:collapsed">0</property>
   </filter>
  </entry>
  <blank length="00:06:20.604"/>
  <entry in="01:50:09.509" out="01:50:28.278" producer="chain67">
   <property name="kdenlive:id">4</property>
  </entry>
 </playlist>
 <tractor id="tractor3" in="00:00:00.000" out="01:50:03.420">
  <property name="kdenlive:audio_track">1</property>
  <property name="kdenlive:trackheight">84</property>
  <property name="kdenlive:timeline_active">1</property>
  <property name="kdenlive:collapsed">0</property>
  <property name="kdenlive:thumbs_format"/>
  <property name="kdenlive:audio_rec"/>
  <track hide="video" producer="playlist6"/>
  <track hide="video" producer="playlist7"/>
  <transition id="transition24" in="01:35:37.621" out="01:35:40.666">
   <property name="a_track">0</property>
   <property name="b_track">1</property>
   <property name="mlt_service">mix</property>
   <property name="kdenlive_id">mix</property>
   <property name="kdenlive:mixcut">61</property>
   <property name="start">-1</property>
   <property name="accepts_blanks">1</property>
   <property name="reverse">1</property>
  </transition>
  <transition id="transition23" in="01:35:21.855" out="01:35:23.565">
   <property name="a_track">0</property>
   <property name="b_track">1</property>
   <property name="mlt_service">mix</property>
   <property name="kdenlive_id">mix</property>
   <property name="kdenlive:mixcut">12</property>
   <property name="start">-1</property>
   <property name="accepts_blanks">1</property>
   <property name="reverse">0</property>
  </transition>
  <transition id="transition19" in="01:29:00.250" out="01:29:01.251">
   <property name="a_track">0</property>
   <property name="b_track">1</property>
   <property name="mlt_service">mix</property>
   <property name="kdenlive_id">mix</property>
   <property name="kdenlive:mixcut">12</property>
   <property name="start">-1</property>
   <property name="accepts_blanks">1</property>
   <property name="reverse">1</property>
  </transition>
  <transition id="transition18" in="01:25:02.669" out="01:25:03.670">
   <property name="a_track">0</property>
   <property name="b_track">1</property>
   <property name="mlt_service">mix</property>
   <property name="kdenlive_id">mix</property>
   <property name="kdenlive:mixcut">4</property>
   <property name="start">-1</property>
   <property name="accepts_blanks">1</property>
   <property name="reverse">0</property>
  </transition>
  <transition id="transition8" in="00:41:47.547" out="00:41:50.259">
   <property name="a_track">0</property>
   <property name="b_track">1</property>
   <property name="mlt_service">mix</property>
   <property name="kdenlive_id">mix</property>
   <property name="kdenlive:mixcut">36</property>
   <property name="start">-1</property>
   <property name="accepts_blanks">1</property>
   <property name="reverse">0</property>
  </transition>
  <transition id="transition7" in="00:41:37.871" out="00:41:38.872">
   <property name="a_track">0</property>
   <property name="b_track">1</property>
   <property name="mlt_service">mix</property>
   <property name="kdenlive_id">mix</property>
   <property name="kdenlive:mixcut">12</property>
   <property name="start">-1</property>
   <property name="accepts_blanks">1</property>
   <property name="reverse">0</property>
  </transition>
  <transition id="transition6" in="00:41:41.541" out="00:41:42.542">
   <property name="a_track">0</property>
   <property name="b_track">1</property>
   <property name="mlt_service">mix</property>
   <property name="kdenlive_id">mix</property>
   <property name="kdenlive:mixcut">12</property>
   <property name="start">-1</property>
   <property name="accepts_blanks">1</property>
   <property name="reverse">1</property>
  </transition>
  <transition id="transition9" in="00:39:33.075" out="00:39:34.076">
   <property name="a_track">0</property>
   <property name="b_track">1</property>
   <property name="mlt_service">mix</property>
   <property name="kdenlive_id">mix</property>
   <property name="kdenlive:mixcut">12</property>
   <property name="start">-1</property>
   <property name="accepts_blanks">1</property>
   <property name="reverse">0</property>
  </transition>
  <transition id="transition10" in="00:39:00.375" out="00:39:01.376">
   <property name="a_track">0</property>
   <property name="b_track">1</property>
   <property name="mlt_service">mix</property>
   <property name="kdenlive_id">mix</property>
   <property name="kdenlive:mixcut">21</property>
   <property name="start">-1</property>
   <property name="accepts_blanks">1</property>
   <property name="reverse">0</property>
  </transition>
  <transition id="transition11" in="00:20:45.254" out="00:20:46.255">
   <property name="a_track">0</property>
   <property name="b_track">1</property>
   <property name="mlt_service">mix</property>
   <property name="kdenlive_id">mix</property>
   <property name="kdenlive:mixcut">12</property>
   <property name="start">-1</property>
   <property name="accepts_blanks">1</property>
   <property name="reverse">0</property>
  </transition>
  <transition id="transition12" in="00:20:00.876" out="00:20:01.877">
   <property name="a_track">0</property>
   <property name="b_track">1</property>
   <property name="mlt_service">mix</property>
   <property name="kdenlive_id">mix</property>
   <property name="kdenlive:mixcut">0</property>
   <property name="start">-1</property>
   <property name="accepts_blanks">1</property>
   <property name="reverse">1</property>
  </transition>
  <transition id="transition13" in="00:19:41.208" out="00:19:42.209">
   <property name="a_track">0</property>
   <property name="b_track">1</property>
   <property name="mlt_service">mix</property>
   <property name="kdenlive_id">mix</property>
   <property name="kdenlive:mixcut">12</property>
   <property name="start">-1</property>
   <property name="accepts_blanks">1</property>
   <property name="reverse">0</property>
  </transition>
  <transition id="transition14" in="00:19:30.239" out="00:19:31.240">
   <property name="a_track">0</property>
   <property name="b_track">1</property>
   <property name="mlt_service">mix</property>
   <property name="kdenlive_id">mix</property>
   <property name="kdenlive:mixcut">24</property>
   <property name="start">-1</property>
   <property name="accepts_blanks">1</property>
   <property name="reverse">0</property>
  </transition>
  <transition id="transition15" in="00:41:54.388" out="00:41:55.389">
   <property name="a_track">0</property>
   <property name="b_track">1</property>
   <property name="mlt_service">mix</property>
   <property name="kdenlive_id">mix</property>
   <property name="kdenlive:mixcut">24</property>
   <property name="start">-1</property>
   <property name="accepts_blanks">1</property>
   <property name="reverse">1</property>
  </transition>
  <transition id="transition16" in="00:45:33.784" out="00:45:34.785">
   <property name="a_track">0</property>
   <property name="b_track">1</property>
   <property name="mlt_service">mix</property>
   <property name="kdenlive_id">mix</property>
   <property name="kdenlive:mixcut">12</property>
   <property name="start">-1</property>
   <property name="accepts_blanks">1</property>
   <property name="reverse">0</property>
  </transition>
  <transition id="transition17" in="01:05:44.670" out="01:05:45.671">
   <property name="a_track">0</property>
   <property name="b_track">1</property>
   <property name="mlt_service">mix</property>
   <property name="kdenlive_id">mix</property>
   <property name="kdenlive:mixcut">12</property>
   <property name="start">-1</property>
   <property name="accepts_blanks">1</property>
   <property name="reverse">0</property>
  </transition>
  <transition id="transition20" in="01:05:47.256" out="01:05:48.257">
   <property name="a_track">0</property>
   <property name="b_track">1</property>
   <property name="mlt_service">mix</property>
   <property name="kdenlive_id">mix</property>
   <property name="kdenlive:mixcut">12</property>
   <property name="start">-1</property>
   <property name="accepts_blanks">1</property>
   <property name="reverse">1</property>
  </transition>
  <transition id="transition21" in="01:05:59.268" out="01:06:02.586">
   <property name="a_track">0</property>
   <property name="b_track">1</property>
   <property name="mlt_service">mix</property>
   <property name="kdenlive_id">mix</property>
   <property name="kdenlive:mixcut">54</property>
   <property name="start">-1</property>
   <property name="accepts_blanks">1</property>
   <property name="reverse">0</property>
  </transition>
  <transition id="transition22" in="01:19:34.868" out="01:19:39.248">
   <property name="a_track">0</property>
   <property name="b_track">1</property>
   <property name="mlt_service">mix</property>
   <property name="kdenlive_id">mix</property>
   <property name="kdenlive:mixcut">12</property>
   <property name="start">-1</property>
   <property name="accepts_blanks">1</property>
   <property name="reverse">0</property>
  </transition>
  <filter id="filter92">
   <property name="window">75</property>
   <property name="max_gain">20dB</property>
   <property name="mlt_service">volume</property>
   <property name="internal_added">237</property>
   <property name="disable">1</property>
  </filter>
  <filter id="filter93">
   <property name="channel">-1</property>
   <property name="mlt_service">panner</property>
   <property name="internal_added">237</property>
   <property name="start">0.5</property>
   <property name="disable">1</property>
  </filter>
  <filter id="filter94">
   <property name="iec_scale">0</property>
   <property name="mlt_service">audiolevel</property>
   <property name="dbpeak">1</property>
   <property name="disable">1</property>
  </filter>
 </tractor>
 <chain id="chain68" out="02:05:19.478">
  <property name="length">180287</property>
  <property name="eof">pause</property>
  <property name="resource">Silent.Hill.2006.BluRay.1080p.x264.YIFY.mp4</property>
  <property name="mlt_service">avformat-novalidate</property>
  <property name="seekable">1</property>
  <property name="audio_index">1</property>
  <property name="video_index">0</property>
  <property name="vstream">0</property>
  <property name="astream">0</property>
  <property name="kdenlive:control_uuid">{ea7104ff-e9c6-4dd5-8ec1-c0db79af6f56}</property>
  <property name="kdenlive:id">4</property>
  <property name="kdenlive:clip_type">0</property>
  <property name="kdenlive:file_size">1721540280</property>
  <property name="kdenlive:file_hash">f3e01fe6e60132458a728ba3f434ee10</property>
  <property name="kdenlive:folderid">-1</property>
  <property name="meta.media.nb_streams">2</property>
  <property name="meta.media.0.stream.type">video</property>
  <property name="meta.media.0.stream.frame_rate">23.976</property>
  <property name="meta.media.0.stream.sample_aspect_ratio">0</property>
  <property name="meta.media.0.codec.width">1920</property>
  <property name="meta.media.0.codec.height">816</property>
  <property name="meta.media.0.codec.rotate">0</property>
  <property name="meta.media.0.codec.pix_fmt">yuv420p</property>
  <property name="meta.media.0.codec.sample_aspect_ratio">1</property>
  <property name="meta.media.0.codec.colorspace">709</property>
  <property name="meta.media.0.codec.name">h264</property>
  <property name="meta.media.0.codec.long_name">H.264 / AVC / MPEG-4 AVC / MPEG-4 part 10</property>
  <property name="meta.media.0.codec.bit_rate">1731619</property>
  <property name="meta.attr.0.stream.creation_time.markup">2012-08-03T21:17:57.000000Z</property>
  <property name="meta.attr.0.stream.vendor_id.markup">[0][0][0][0]</property>
  <property name="meta.media.1.stream.type">audio</property>
  <property name="meta.media.1.codec.sample_fmt">fltp</property>
  <property name="meta.media.1.codec.sample_rate">48000</property>
  <property name="meta.media.1.codec.channels">2</property>
  <property name="meta.media.1.codec.layout">stereo</property>
  <property name="meta.media.1.codec.name">aac</property>
  <property name="meta.media.1.codec.long_name">AAC (Advanced Audio Coding)</property>
  <property name="meta.media.1.codec.bit_rate">95947</property>
  <property name="meta.attr.1.stream.creation_time.markup">2012-08-03T21:18:23.000000Z</property>
  <property name="meta.attr.1.stream.language.markup">eng</property>
  <property name="meta.attr.1.stream.handler_name.markup">GPAC ISO Audio Handler</property>
  <property name="meta.attr.1.stream.vendor_id.markup">[0][0][0][0]</property>
  <property name="meta.attr.major_brand.markup">isom</property>
  <property name="meta.attr.minor_version.markup">1</property>
  <property name="meta.attr.compatible_brands.markup">isomavc1</property>
  <property name="meta.attr.creation_time.markup">2012-08-03T21:17:57.000000Z</property>
  <property name="meta.media.sample_aspect_num">1</property>
  <property name="meta.media.sample_aspect_den">1</property>
  <property name="meta.media.frame_rate_num">24000</property>
  <property name="meta.media.frame_rate_den">1001</property>
  <property name="meta.media.colorspace">709</property>
  <property name="meta.media.color_trc">2</property>
  <property name="meta.media.has_b_frames">2</property>
  <property name="meta.media.width">1920</property>
  <property name="meta.media.height">816</property>
  <property name="meta.media.aspect_ratio">1</property>
  <property name="meta.media.color_range">mpeg</property>
  <property name="xml">was here</property>
  <property name="mute_on_pause">0</property>
  <property name="meta.media.top_field_first">0</property>
  <property name="meta.media.progressive">1</property>
  <property name="set.test_audio">1</property>
  <property name="set.test_image">0</property>
 </chain>
 <producer id="producer1" in="00:00:00.000" out="04:10:38.956">
  <property name="length">360574</property>
  <property name="eof">pause</property>
  <property name="resource">0.500000:Silent.Hill.2006.BluRay.1080p.x264.YIFY.mp4</property>
  <property name="aspect_ratio">1</property>
  <property name="meta.media.nb_streams">2</property>
  <property name="meta.media.0.stream.type">video</property>
  <property name="meta.media.0.stream.frame_rate">23.976</property>
  <property name="meta.media.0.stream.sample_aspect_ratio">0</property>
  <property name="meta.media.0.codec.width">1920</property>
  <property name="meta.media.0.codec.height">816</property>
  <property name="meta.media.0.codec.rotate">0</property>
  <property name="meta.media.0.codec.pix_fmt">yuv420p</property>
  <property name="meta.media.0.codec.sample_aspect_ratio">1</property>
  <property name="meta.media.0.codec.colorspace">709</property>
  <property name="meta.media.0.codec.name">h264</property>
  <property name="meta.media.0.codec.long_name">H.264 / AVC / MPEG-4 AVC / MPEG-4 part 10</property>
  <property name="meta.media.0.codec.bit_rate">1731619</property>
  <property name="meta.attr.0.stream.creation_time.markup">2012-08-03T21:17:57.000000Z</property>
  <property name="meta.attr.0.stream.vendor_id.markup">[0][0][0][0]</property>
  <property name="meta.media.1.stream.type">audio</property>
  <property name="meta.media.1.codec.sample_fmt">fltp</property>
  <property name="meta.media.1.codec.sample_rate">48000</property>
  <property name="meta.media.1.codec.channels">2</property>
  <property name="meta.media.1.codec.layout">stereo</property>
  <property name="meta.media.1.codec.name">aac</property>
  <property name="meta.media.1.codec.long_name">AAC (Advanced Audio Coding)</property>
  <property name="meta.media.1.codec.bit_rate">95947</property>
  <property name="meta.attr.1.stream.creation_time.markup">2012-08-03T21:18:23.000000Z</property>
  <property name="meta.attr.1.stream.language.markup">eng</property>
  <property name="meta.attr.1.stream.handler_name.markup">GPAC ISO Audio Handler</property>
  <property name="meta.attr.1.stream.vendor_id.markup">[0][0][0][0]</property>
  <property name="meta.attr.major_brand.markup">isom</property>
  <property name="meta.attr.minor_version.markup">1</property>
  <property name="meta.attr.compatible_brands.markup">isomavc1</property>
  <property name="meta.attr.creation_time.markup">2012-08-03T21:17:57.000000Z</property>
  <property name="seekable">1</property>
  <property name="meta.media.sample_aspect_num">1</property>
  <property name="meta.media.sample_aspect_den">1</property>
  <property name="audio_index">1</property>
  <property name="video_index">0</property>
  <property name="warp_speed">0.5</property>
  <property name="warp_resource">Silent.Hill.2006.BluRay.1080p.x264.YIFY.mp4</property>
  <property name="mlt_service">timewarp</property>
  <property name="kdenlive:control_uuid">{ea7104ff-e9c6-4dd5-8ec1-c0db79af6f56}</property>
  <property name="vstream">0</property>
  <property name="astream">0</property>
  <property name="set.test_audio">1</property>
  <property name="set.test_image">0</property>
  <property name="kdenlive:id">4</property>
  <property name="warp_pitch">0</property>
  <property name="meta.media.frame_rate_num">24000</property>
  <property name="meta.media.frame_rate_den">1001</property>
  <property name="meta.media.colorspace">709</property>
  <property name="meta.media.color_trc">2</property>
  <property name="meta.media.has_b_frames">2</property>
  <property name="meta.media.width">1920</property>
  <property name="meta.media.height">816</property>
  <property name="meta.media.aspect_ratio">1</property>
  <property name="meta.media.color_range">mpeg</property>
  <property name="meta.media.top_field_first">0</property>
  <property name="meta.media.progressive">1</property>
 </producer>
 <producer id="producer2" in="00:00:00.000" out="41:46:29.404">
  <property name="length">3605740</property>
  <property name="eof">pause</property>
  <property name="resource">0.050000:Silent.Hill.2006.BluRay.1080p.x264.YIFY.mp4</property>
  <property name="aspect_ratio">1</property>
  <property name="meta.media.nb_streams">2</property>
  <property name="meta.media.0.stream.type">video</property>
  <property name="meta.media.0.stream.frame_rate">23.976</property>
  <property name="meta.media.0.stream.sample_aspect_ratio">0</property>
  <property name="meta.media.0.codec.width">1920</property>
  <property name="meta.media.0.codec.height">816</property>
  <property name="meta.media.0.codec.rotate">0</property>
  <property name="meta.media.0.codec.pix_fmt">yuv420p</property>
  <property name="meta.media.0.codec.sample_aspect_ratio">1</property>
  <property name="meta.media.0.codec.colorspace">709</property>
  <property name="meta.media.0.codec.name">h264</property>
  <property name="meta.media.0.codec.long_name">H.264 / AVC / MPEG-4 AVC / MPEG-4 part 10</property>
  <property name="meta.media.0.codec.bit_rate">1731619</property>
  <property name="meta.attr.0.stream.creation_time.markup">2012-08-03T21:17:57.000000Z</property>
  <property name="meta.attr.0.stream.vendor_id.markup">[0][0][0][0]</property>
  <property name="meta.media.1.stream.type">audio</property>
  <property name="meta.media.1.codec.sample_fmt">fltp</property>
  <property name="meta.media.1.codec.sample_rate">48000</property>
  <property name="meta.media.1.codec.channels">2</property>
  <property name="meta.media.1.codec.layout">stereo</property>
  <property name="meta.media.1.codec.name">aac</property>
  <property name="meta.media.1.codec.long_name">AAC (Advanced Audio Coding)</property>
  <property name="meta.media.1.codec.bit_rate">95947</property>
  <property name="meta.attr.1.stream.creation_time.markup">2012-08-03T21:18:23.000000Z</property>
  <property name="meta.attr.1.stream.language.markup">eng</property>
  <property name="meta.attr.1.stream.handler_name.markup">GPAC ISO Audio Handler</property>
  <property name="meta.attr.1.stream.vendor_id.markup">[0][0][0][0]</property>
  <property name="meta.attr.major_brand.markup">isom</property>
  <property name="meta.attr.minor_version.markup">1</property>
  <property name="meta.attr.compatible_brands.markup">isomavc1</property>
  <property name="meta.attr.creation_time.markup">2012-08-03T21:17:57.000000Z</property>
  <property name="seekable">1</property>
  <property name="meta.media.sample_aspect_num">1</property>
  <property name="meta.media.sample_aspect_den">1</property>
  <property name="audio_index">1</property>
  <property name="video_index">0</property>
  <property name="warp_speed">0.05</property>
  <property name="warp_resource">Silent.Hill.2006.BluRay.1080p.x264.YIFY.mp4</property>
  <property name="mlt_service">timewarp</property>
  <property name="kdenlive:control_uuid">{ea7104ff-e9c6-4dd5-8ec1-c0db79af6f56}</property>
  <property name="vstream">0</property>
  <property name="astream">0</property>
  <property name="set.test_audio">1</property>
  <property name="set.test_image">0</property>
  <property name="kdenlive:id">4</property>
  <property name="warp_pitch">0</property>
  <property name="meta.media.frame_rate_num">24000</property>
  <property name="meta.media.frame_rate_den">1001</property>
  <property name="meta.media.colorspace">709</property>
  <property name="meta.media.color_trc">2</property>
  <property name="meta.media.has_b_frames">2</property>
  <property name="meta.media.width">1920</property>
  <property name="meta.media.height">816</property>
  <property name="meta.media.aspect_ratio">1</property>
  <property name="meta.media.color_range">mpeg</property>
  <property name="meta.media.top_field_first">0</property>
  <property name="meta.media.progressive">1</property>
 </producer>
 <producer id="producer4" in="00:00:00.000" out="02:47:05.964">
  <property name="length">240383</property>
  <property name="eof">pause</property>
  <property name="resource">0.750000:Silent.Hill.2006.BluRay.1080p.x264.YIFY.mp4</property>
  <property name="aspect_ratio">1</property>
  <property name="meta.media.nb_streams">2</property>
  <property name="meta.media.0.stream.type">video</property>
  <property name="meta.media.0.stream.frame_rate">23.976</property>
  <property name="meta.media.0.stream.sample_aspect_ratio">0</property>
  <property name="meta.media.0.codec.width">1920</property>
  <property name="meta.media.0.codec.height">816</property>
  <property name="meta.media.0.codec.rotate">0</property>
  <property name="meta.media.0.codec.pix_fmt">yuv420p</property>
  <property name="meta.media.0.codec.sample_aspect_ratio">1</property>
  <property name="meta.media.0.codec.colorspace">709</property>
  <property name="meta.media.0.codec.name">h264</property>
  <property name="meta.media.0.codec.long_name">H.264 / AVC / MPEG-4 AVC / MPEG-4 part 10</property>
  <property name="meta.media.0.codec.bit_rate">1731619</property>
  <property name="meta.attr.0.stream.creation_time.markup">2012-08-03T21:17:57.000000Z</property>
  <property name="meta.attr.0.stream.vendor_id.markup">[0][0][0][0]</property>
  <property name="meta.media.1.stream.type">audio</property>
  <property name="meta.media.1.codec.sample_fmt">fltp</property>
  <property name="meta.media.1.codec.sample_rate">48000</property>
  <property name="meta.media.1.codec.channels">2</property>
  <property name="meta.media.1.codec.layout">stereo</property>
  <property name="meta.media.1.codec.name">aac</property>
  <property name="meta.media.1.codec.long_name">AAC (Advanced Audio Coding)</property>
  <property name="meta.media.1.codec.bit_rate">95947</property>
  <property name="meta.attr.1.stream.creation_time.markup">2012-08-03T21:18:23.000000Z</property>
  <property name="meta.attr.1.stream.language.markup">eng</property>
  <property name="meta.attr.1.stream.handler_name.markup">GPAC ISO Audio Handler</property>
  <property name="meta.attr.1.stream.vendor_id.markup">[0][0][0][0]</property>
  <property name="meta.attr.major_brand.markup">isom</property>
  <property name="meta.attr.minor_version.markup">1</property>
  <property name="meta.attr.compatible_brands.markup">isomavc1</property>
  <property name="meta.attr.creation_time.markup">2012-08-03T21:17:57.000000Z</property>
  <property name="seekable">1</property>
  <property name="meta.media.sample_aspect_num">1</property>
  <property name="meta.media.sample_aspect_den">1</property>
  <property name="audio_index">1</property>
  <property name="video_index">0</property>
  <property name="warp_speed">0.75</property>
  <property name="warp_resource">Silent.Hill.2006.BluRay.1080p.x264.YIFY.mp4</property>
  <property name="mlt_service">timewarp</property>
  <property name="kdenlive:control_uuid">{ea7104ff-e9c6-4dd5-8ec1-c0db79af6f56}</property>
  <property name="vstream">0</property>
  <property name="astream">0</property>
  <property name="set.test_audio">1</property>
  <property name="set.test_image">0</property>
  <property name="kdenlive:id">4</property>
  <property name="warp_pitch">0</property>
  <property name="meta.media.frame_rate_num">24000</property>
  <property name="meta.media.frame_rate_den">1001</property>
  <property name="meta.media.colorspace">709</property>
  <property name="meta.media.color_trc">2</property>
  <property name="meta.media.has_b_frames">2</property>
  <property name="meta.media.width">1920</property>
  <property name="meta.media.height">816</property>
  <property name="meta.media.aspect_ratio">1</property>
  <property name="meta.media.color_range">mpeg</property>
  <property name="meta.media.top_field_first">0</property>
  <property name="meta.media.progressive">1</property>
 </producer>
 <playlist id="playlist8">
  <entry in="00:00:00.000" out="00:00:14.348" producer="chain68">
   <property name="kdenlive:id">4</property>
  </entry>
  <entry in="00:00:14.389" out="00:01:54.805" producer="chain68">
   <property name="kdenlive:id">4</property>
  </entry>
  <entry in="00:02:08.300" out="00:19:43.669" producer="chain68">
   <property name="kdenlive:id">4</property>
  </entry>
  <entry in="00:19:43.710" out="00:19:45.796" producer="chain68">
   <property name="kdenlive:id">4</property>
  </entry>
  <entry in="00:19:56.598" out="00:19:58.392" producer="chain68">
   <property name="kdenlive:id">4</property>
  </entry>
  <entry in="00:19:58.433" out="00:20:05.881" producer="chain68">
   <property name="kdenlive:id">4</property>
  </entry>
  <entry in="00:20:10.385" out="00:20:30.530" producer="chain68">
   <property name="kdenlive:id">4</property>
  </entry>
  <entry in="00:20:33.367" out="00:21:17.226" producer="chain68">
   <property name="kdenlive:id">4</property>
  </entry>
  <entry in="00:21:20.479" out="00:39:34.201" producer="chain68">
   <property name="kdenlive:id">4</property>
  </entry>
  <entry in="00:39:47.047" out="00:39:49.549" producer="chain68">
   <property name="kdenlive:id">4</property>
  </entry>
  <entry in="00:39:49.591" out="00:40:16.183" producer="chain68">
   <property name="kdenlive:id">4</property>
  </entry>
  <entry in="00:40:16.225" out="00:40:18.852" producer="chain68">
   <property name="kdenlive:id">4</property>
  </entry>
  <entry in="00:42:56.682" out="00:42:58.475" producer="chain68">
   <property name="kdenlive:id">4</property>
  </entry>
  <entry in="00:42:59.101" out="00:42:59.393" producer="chain68">
   <property name="kdenlive:id">4</property>
  </entry>
  <entry in="00:42:59.434" out="00:43:02.169" producer="chain68">
   <property name="kdenlive:id">4</property>
  </entry>
  <entry in="00:43:02.211" out="00:44:59.059" producer="chain68">
   <property name="kdenlive:id">4</property>
  </entry>
  <entry in="00:44:59.101" out="00:45:04.213" producer="chain68">
   <property name="kdenlive:id">4</property>
  </entry>
  <entry in="00:45:43.794" out="00:45:47.422" producer="chain68">
   <property name="kdenlive:id">4</property>
  </entry>
  <entry in="00:45:49.841" out="00:45:53.470" producer="chain68">
   <property name="kdenlive:id">4</property>
   <filter id="filter95" in="00:45:49.841" out="00:45:50.550">
    <property name="start">1</property>
    <property name="level">1</property>
    <property name="mlt_service">brightness</property>
    <property name="kdenlive_id">fade_from_black</property>
    <property name="alpha">00:00:00.000=0;00:00:00.709=1</property>
   </filter>
  </entry>
  <entry in="00:45:53.512" out="00:45:56.515" producer="chain68">
   <property name="kdenlive:id">4</property>
  </entry>
  <entry in="00:46:15.224" out="00:46:20.812" producer="chain68">
   <property name="kdenlive:id">4</property>
  </entry>
  <entry in="00:46:46.296" out="00:50:26.109" producer="chain68">
   <property name="kdenlive:id">4</property>
  </entry>
  <entry in="00:50:36.662" out="00:52:06.506" producer="chain68">
   <property name="kdenlive:id">4</property>
  </entry>
  <entry in="00:52:16.808" out="00:52:22.940" producer="chain68">
   <property name="kdenlive:id">4</property>
  </entry>
  <entry in="00:52:27.194" out="01:11:01.960" producer="chain68">
   <property name="kdenlive:id">4</property>
  </entry>
  <entry in="01:11:09.885" out="01:11:12.429" producer="chain68">
   <property name="kdenlive:id">4</property>
  </entry>
  <entry in="01:11:15.974" out="01:11:28.528" producer="chain68">
   <property name="kdenlive:id">4</property>
  </entry>
  <entry in="01:11:31.782" out="01:25:05.088" producer="chain68">
   <property name="kdenlive:id">4</property>
  </entry>
  <entry in="01:25:05.130" out="01:25:08.217" producer="chain68">
   <property name="kdenlive:id">4</property>
  </entry>
  <entry in="01:27:17.684" out="01:27:19.561" producer="chain68">
   <property name="kdenlive:id">4</property>
  </entry>
  <entry in="01:27:21.688" out="01:27:32.658" producer="chain68">
   <property name="kdenlive:id">4</property>
  </entry>
  <entry in="01:27:32.699" out="01:27:45.504" producer="chain68">
   <property name="kdenlive:id">4</property>
  </entry>
  <entry in="01:27:45.545" out="01:27:49.383" producer="chain68">
   <property name="kdenlive:id">4</property>
  </entry>
  <entry in="01:30:40.457" out="01:31:19.686" producer="chain68">
   <property name="kdenlive:id">4</property>
  </entry>
  <entry in="01:31:19.728" out="01:32:29.029" producer="chain68">
   <property name="kdenlive:id">4</property>
  </entry>
  <entry in="01:32:29.071" out="01:32:42.042" producer="chain68">
   <property name="kdenlive:id">4</property>
  </entry>
  <entry in="01:32:42.084" out="01:33:03.420" producer="chain68">
   <property name="kdenlive:id">4</property>
  </entry>
  <entry in="01:33:03.462" out="01:33:31.406" producer="chain68">
   <property name="kdenlive:id">4</property>
  </entry>
  <entry in="01:33:31.448" out="01:33:36.954" producer="chain68">
   <property name="kdenlive:id">4</property>
  </entry>
  <entry in="01:33:36.995" out="01:34:28.654" producer="chain68">
   <property name="kdenlive:id">4</property>
  </entry>
  <entry in="03:08:57.349" out="03:08:58.558" producer="producer1">
   <property name="kdenlive:id">4</property>
  </entry>
  <entry in="31:29:45.796" out="31:29:47.422" producer="producer2">
   <property name="kdenlive:id">4</property>
  </entry>
  <blank length="00:00:01.585"/>
  <entry in="01:37:08.425" out="01:38:12.638" producer="chain68">
   <property name="kdenlive:id">4</property>
  </entry>
  <entry in="01:38:21.480" out="01:42:18.685" producer="chain68">
   <property name="kdenlive:id">4</property>
   <filter id="filter96" in="01:38:21.480" out="01:38:23.440">
    <property name="start">1</property>
    <property name="level">1</property>
    <property name="mlt_service">brightness</property>
    <property name="kdenlive_id">fade_from_black</property>
    <property name="alpha">00:00:00.000=0;00:00:01.960=1</property>
    <property name="kdenlive:collapsed">0</property>
   </filter>
  </entry>
  <entry in="01:42:33.450" out="01:48:55.722" producer="chain68">
   <property name="kdenlive:id">4</property>
  </entry>
  <entry in="01:50:10.719" out="01:50:25.734" producer="chain68">
   <property name="kdenlive:id">4</property>
  </entry>
  <entry in="01:50:28.987" out="01:52:10.969" producer="chain68">
   <property name="kdenlive:id">4</property>
  </entry>
  <entry in="01:52:11.011" out="01:52:44.628" producer="chain68">
   <property name="kdenlive:id">4</property>
  </entry>
  <entry in="02:30:27.611" out="02:30:32.574" producer="producer4">
   <property name="kdenlive:id">4</property>
  </entry>
  <entry in="01:52:55.931" out="01:53:08.008" producer="chain68">
   <property name="kdenlive:id">4</property>
  </entry>
  <blank length="00:00:02.628"/>
  <entry in="01:53:08.050" out="01:53:36.036" producer="chain68">
   <property name="kdenlive:id">4</property>
   <filter id="filter97" in="01:53:08.050" out="01:53:11.929">
    <property name="start">1</property>
    <property name="level">1</property>
    <property name="mlt_service">brightness</property>
    <property name="kdenlive_id">fade_from_black</property>
    <property name="alpha">00:00:00.000=0;00:00:03.879=1</property>
    <property name="kdenlive:collapsed">0</property>
   </filter>
  </entry>
  <entry in="01:53:36.078" out="01:53:37.829" producer="chain68">
   <property name="kdenlive:id">4</property>
  </entry>
  <entry in="01:53:37.871" out="01:53:40.582" producer="chain68">
   <property name="kdenlive:id">4</property>
  </entry>
  <entry in="01:53:40.624" out="01:53:47.506" producer="chain68">
   <property name="kdenlive:id">4</property>
  </entry>
  <entry in="01:53:49.383" out="01:53:59.184" producer="chain68">
   <property name="kdenlive:id">4</property>
  </entry>
  <entry in="01:53:59.226" out="01:55:02.044" producer="chain68">
   <property name="kdenlive:id">4</property>
  </entry>
  <entry in="01:55:02.085" out="01:57:19.478" producer="chain68">
   <property name="kdenlive:id">4</property>
  </entry>
  <entry in="01:57:19.519" out="01:57:24.316" producer="chain68">
   <property name="kdenlive:id">4</property>
  </entry>
  <entry in="01:57:27.903" out="01:57:39.289" producer="chain68">
   <property name="kdenlive:id">4</property>
   <filter id="filter98" in="01:57:33.116" out="01:57:39.289">
    <property name="start">1</property>
    <property name="level">1</property>
    <property name="mlt_service">brightness</property>
    <property name="kdenlive_id">fade_to_black</property>
    <property name="alpha">00:00:00.000=1;00:00:06.173=0</property>
    <property name="kdenlive:collapsed">0</property>
   </filter>
  </entry>
  <entry in="01:57:55.472" out="02:05:19.478" producer="chain68">
   <property name="kdenlive:id">4</property>
  </entry>
 </playlist>
 <playlist id="playlist9"/>
 <tractor id="tractor4" in="00:00:00.000" out="01:50:03.420">
  <property name="kdenlive:trackheight">84</property>
  <property name="kdenlive:timeline_active">1</property>
  <property name="kdenlive:collapsed">0</property>
  <property name="kdenlive:thumbs_format"/>
  <property name="kdenlive:audio_rec"/>
  <track hide="audio" producer="playlist8"/>
  <track hide="audio" producer="playlist9"/>
 </tractor>
 <chain id="chain69" out="02:05:19.478">
  <property name="length">180287</property>
  <property name="eof">pause</property>
  <property name="resource">Silent.Hill.2006.BluRay.1080p.x264.YIFY.mp4</property>
  <property name="mlt_service">avformat-novalidate</property>
  <property name="seekable">1</property>
  <property name="audio_index">1</property>
  <property name="video_index">0</property>
  <property name="vstream">0</property>
  <property name="astream">0</property>
  <property name="kdenlive:control_uuid">{ea7104ff-e9c6-4dd5-8ec1-c0db79af6f56}</property>
  <property name="kdenlive:id">4</property>
  <property name="kdenlive:clip_type">0</property>
  <property name="kdenlive:file_size">1721540280</property>
  <property name="kdenlive:file_hash">f3e01fe6e60132458a728ba3f434ee10</property>
  <property name="kdenlive:folderid">-1</property>
  <property name="mute_on_pause">0</property>
  <property name="kdenlive:monitorPosition">1082</property>
  <property name="meta.media.nb_streams">2</property>
  <property name="meta.media.0.stream.type">video</property>
  <property name="meta.media.0.stream.frame_rate">23.976</property>
  <property name="meta.media.0.stream.sample_aspect_ratio">0</property>
  <property name="meta.media.0.codec.width">1920</property>
  <property name="meta.media.0.codec.height">816</property>
  <property name="meta.media.0.codec.rotate">0</property>
  <property name="meta.media.0.codec.pix_fmt">yuv420p</property>
  <property name="meta.media.0.codec.sample_aspect_ratio">1</property>
  <property name="meta.media.0.codec.colorspace">709</property>
  <property name="meta.media.0.codec.name">h264</property>
  <property name="meta.media.0.codec.long_name">H.264 / AVC / MPEG-4 AVC / MPEG-4 part 10</property>
  <property name="meta.media.0.codec.bit_rate">1731619</property>
  <property name="meta.attr.0.stream.creation_time.markup">2012-08-03T21:17:57.000000Z</property>
  <property name="meta.attr.0.stream.vendor_id.markup">[0][0][0][0]</property>
  <property name="meta.media.1.stream.type">audio</property>
  <property name="meta.media.1.codec.sample_fmt">fltp</property>
  <property name="meta.media.1.codec.sample_rate">48000</property>
  <property name="meta.media.1.codec.channels">2</property>
  <property name="meta.media.1.codec.layout">stereo</property>
  <property name="meta.media.1.codec.name">aac</property>
  <property name="meta.media.1.codec.long_name">AAC (Advanced Audio Coding)</property>
  <property name="meta.media.1.codec.bit_rate">95947</property>
  <property name="meta.attr.1.stream.creation_time.markup">2012-08-03T21:18:23.000000Z</property>
  <property name="meta.attr.1.stream.language.markup">eng</property>
  <property name="meta.attr.1.stream.handler_name.markup">GPAC ISO Audio Handler</property>
  <property name="meta.attr.1.stream.vendor_id.markup">[0][0][0][0]</property>
  <property name="meta.attr.major_brand.markup">isom</property>
  <property name="meta.attr.minor_version.markup">1</property>
  <property name="meta.attr.compatible_brands.markup">isomavc1</property>
  <property name="meta.attr.creation_time.markup">2012-08-03T21:17:57.000000Z</property>
  <property name="meta.media.sample_aspect_num">1</property>
  <property name="meta.media.sample_aspect_den">1</property>
  <property name="meta.media.frame_rate_num">24000</property>
  <property name="meta.media.frame_rate_den">1001</property>
  <property name="meta.media.colorspace">709</property>
  <property name="meta.media.color_trc">2</property>
  <property name="meta.media.has_b_frames">2</property>
  <property name="meta.media.width">1920</property>
  <property name="meta.media.height">816</property>
  <property name="meta.media.aspect_ratio">1</property>
  <property name="meta.media.color_range">mpeg</property>
  <property name="xml">was here</property>
  <property name="meta.media.top_field_first">0</property>
  <property name="meta.media.progressive">1</property>
  <property name="set.test_audio">1</property>
  <property name="set.test_image">0</property>
 </chain>
 <playlist id="playlist10">
  <blank length="01:19:49.758"/>
  <entry in="01:30:22.773" out="01:30:33.283" producer="chain69">
   <property name="kdenlive:id">4</property>
   <property name="kdenlive:activeeffect">2</property>
   <filter id="filter99" in="01:30:22.773" out="01:30:25.609">
    <property name="start">1</property>
    <property name="level">1</property>
    <property name="mlt_service">brightness</property>
    <property name="kdenlive_id">fade_from_black</property>
    <property name="alpha">00:00:00.000=0;00:00:02.836=1</property>
    <property name="kdenlive:collapsed">0</property>
   </filter>
   <filter id="filter100" in="01:30:30.322" out="01:30:33.283">
    <property name="start">1</property>
    <property name="level">1</property>
    <property name="mlt_service">brightness</property>
    <property name="kdenlive_id">fade_to_black</property>
    <property name="alpha">00:00:00.000=1;00:00:02.961=0</property>
    <property name="kdenlive:collapsed">0</property>
   </filter>
   <filter id="filter101">
    <property name="version">0.9</property>
    <property name="mlt_service">frei0r.transparency</property>
    <property name="kdenlive_id">frei0r.transparency</property>
    <property name="0">01:30:22.773=0.623762</property>
    <property name="kdenlive:collapsed">0</property>
   </filter>
  </entry>
  <blank length="00:03:53.512"/>
  <entry in="00:00:00.000" out="00:00:09.051" producer="producer3">
   <property name="kdenlive:id">5</property>
   <filter id="filter102" out="00:00:03.879">
    <property name="start">1</property>
    <property name="level">1</property>
    <property name="mlt_service">brightness</property>
    <property name="kdenlive_id">fade_from_black</property>
    <property name="alpha">00:00:00.000=0;00:00:03.879=1</property>
    <property name="kdenlive:collapsed">0</property>
   </filter>
   <filter id="filter103" in="00:00:05.547" out="00:00:09.051">
    <property name="start">1</property>
    <property name="level">1</property>
    <property name="mlt_service">brightness</property>
    <property name="kdenlive_id">fade_to_black</property>
    <property name="alpha">00:00:00.000=1;00:00:03.503=0</property>
    <property name="kdenlive:collapsed">0</property>
   </filter>
  </entry>
 </playlist>
 <playlist id="playlist11"/>
 <tractor id="tractor5" in="00:00:00.000" out="01:24:02.836">
  <property name="kdenlive:trackheight">84</property>
  <property name="kdenlive:timeline_active">1</property>
  <property name="kdenlive:collapsed">0</property>
  <property name="kdenlive:thumbs_format"/>
  <property name="kdenlive:audio_rec"/>
  <track hide="audio" producer="playlist10"/>
  <track hide="audio" producer="playlist11"/>
 </tractor>
 <tractor id="tractor6" in="00:00:00.000" out="01:50:03.420">
  <property name="kdenlive:duration">01:50:03.462</property>
  <property name="kdenlive:maxduration">158324</property>
  <property name="kdenlive:clipname">Sequence 1</property>
  <property name="kdenlive:description"/>
  <property name="kdenlive:uuid">{862b8d98-0fe9-4d64-a73e-c9c464fa434b}</property>
  <property name="kdenlive:producer_type">17</property>
  <property name="kdenlive:control_uuid">{862b8d98-0fe9-4d64-a73e-c9c464fa434b}</property>
  <property name="kdenlive:id">3</property>
  <property name="kdenlive:clip_type">0</property>
  <property name="kdenlive:file_hash">f84a490b5df7382061a57e064b0f8f26</property>
  <property name="kdenlive:folderid">2</property>
  <property name="kdenlive:sequenceproperties.activeTrack">0</property>
  <property name="kdenlive:sequenceproperties.audioTarget">1</property>
  <property name="kdenlive:sequenceproperties.disablepreview">0</property>
  <property name="kdenlive:sequenceproperties.documentuuid">{862b8d98-0fe9-4d64-a73e-c9c464fa434b}</property>
  <property name="kdenlive:sequenceproperties.globalSubtitleStyles">[
]
</property>
  <property name="kdenlive:sequenceproperties.hasAudio">1</property>
  <property name="kdenlive:sequenceproperties.hasVideo">1</property>
  <property name="kdenlive:sequenceproperties.hidesubtitle">0</property>
  <property name="kdenlive:sequenceproperties.position">858</property>
  <property name="kdenlive:sequenceproperties.scrollPos">0</property>
  <property name="kdenlive:sequenceproperties.subtitlesList">[
    {
        "file": "C:/Users/kado/AppData/Local/Temp/1751575450196-{92d388ea-2528-484b-8077-15a62b3bb964}.ass",
        "id": 0,
        "name": "Subtitles"
    }
]
</property>
  <property name="kdenlive:sequenceproperties.tracks">4</property>
  <property name="kdenlive:sequenceproperties.tracksCount">6</property>
  <property name="kdenlive:sequenceproperties.verticalzoom">1</property>
  <property name="kdenlive:sequenceproperties.videoTarget">2</property>
  <property name="kdenlive:sequenceproperties.zonein">0</property>
  <property name="kdenlive:sequenceproperties.zoneout">75</property>
  <property name="kdenlive:sequenceproperties.zoom">8</property>
  <property name="kdenlive:sequenceproperties.groups">[
    {
        "children": [
            {
                "data": "4:94650:-1",
                "leaf": "clip",
                "type": "Leaf"
            },
            {
                "data": "3:94638:-1",
                "leaf": "clip",
                "type": "Leaf"
            }
        ],
        "type": "AVSplit"
    },
    {
        "children": [
            {
                "data": "3:59777:-1",
                "leaf": "clip",
                "type": "Leaf"
            },
            {
                "data": "4:59777:-1",
                "leaf": "clip",
                "type": "Leaf"
            }
        ],
        "type": "AVSplit"
    },
    {
        "children": [
            {
                "data": "3:29856:-1",
                "leaf": "clip",
                "type": "Leaf"
            },
            {
                "data": "4:29868:-1",
                "leaf": "clip",
                "type": "Leaf"
            }
        ],
        "type": "AVSplit"
    },
    {
        "children": [
            {
                "data": "4:59901:-1",
                "leaf": "clip",
                "type": "Leaf"
            },
            {
                "data": "3:59889:-1",
                "leaf": "clip",
                "type": "Leaf"
            }
        ],
        "type": "AVSplit"
    },
    {
        "children": [
            {
                "data": "3:94926:-1",
                "leaf": "clip",
                "type": "Leaf"
            },
            {
                "data": "4:94952:-1",
                "leaf": "clip",
                "type": "Leaf"
            }
        ],
        "type": "AVSplit"
    },
    {
        "children": [
            {
                "data": "3:28152:-1",
                "leaf": "clip",
                "type": "Leaf"
            },
            {
                "data": "4:28152:-1",
                "leaf": "clip",
                "type": "Leaf"
            }
        ],
        "type": "AVSplit"
    },
    {
        "children": [
            {
                "data": "3:94576:-1",
                "leaf": "clip",
                "type": "Leaf"
            },
            {
                "data": "4:94588:-1",
                "leaf": "clip",
                "type": "Leaf"
            }
        ],
        "type": "AVSplit"
    },
    {
        "children": [
            {
                "data": "3:56975:-1",
                "leaf": "clip",
                "type": "Leaf"
            },
            {
                "data": "4:56975:-1",
                "leaf": "clip",
                "type": "Leaf"
            }
        ],
        "type": "AVSplit"
    },
    {
        "children": [
            {
                "data": "4:114574:-1",
                "leaf": "clip",
                "type": "Leaf"
            },
            {
                "data": "3:114481:-1",
                "leaf": "clip",
                "type": "Leaf"
            }
        ],
        "type": "AVSplit"
    },
    {
        "children": [
            {
                "data": "4:345:-1",
                "leaf": "clip",
                "type": "Leaf"
            },
            {
                "data": "3:345:-1",
                "leaf": "clip",
                "type": "Leaf"
            }
        ],
        "type": "AVSplit"
    },
    {
        "children": [
            {
                "data": "4:67860:-1",
                "leaf": "clip",
                "type": "Leaf"
            },
            {
                "data": "3:67860:-1",
                "leaf": "clip",
                "type": "Leaf"
            }
        ],
        "type": "AVSplit"
    },
    {
        "children": [
            {
                "data": "4:137576:-1",
                "leaf": "clip",
                "type": "Leaf"
            },
            {
                "data": "3:137564:-1",
                "leaf": "clip",
                "type": "Leaf"
            }
        ],
        "type": "AVSplit"
    },
    {
        "children": [
            {
                "data": "4:60077:-1",
                "leaf": "clip",
                "type": "Leaf"
            },
            {
                "data": "3:60077:-1",
                "leaf": "clip",
                "type": "Leaf"
            }
        ],
        "type": "AVSplit"
    },
    {
        "children": [
            {
                "data": "4:119472:-1",
                "leaf": "clip",
                "type": "Leaf"
            },
            {
                "data": "3:119472:-1",
                "leaf": "clip",
                "type": "Leaf"
            }
        ],
        "type": "AVSplit"
    },
    {
        "children": [
            {
                "data": "4:59989:-1",
                "leaf": "clip",
                "type": "Leaf"
            },
            {
                "data": "3:59977:-1",
                "leaf": "clip",
                "type": "Leaf"
            }
        ],
        "type": "AVSplit"
    },
    {
        "children": [
            {
                "data": "3:67712:-1",
                "leaf": "clip",
                "type": "Leaf"
            },
            {
                "data": "4:67712:-1",
                "leaf": "clip",
                "type": "Leaf"
            }
        ],
        "type": "Normal"
    },
    {
        "children": [
            {
                "data": "3:137186:-1",
                "leaf": "clip",
                "type": "Leaf"
            },
            {
                "data": "4:137215:-1",
                "leaf": "clip",
                "type": "Leaf"
            }
        ],
        "type": "AVSplit"
    },
    {
        "children": [
            {
                "data": "3:28792:-1",
                "leaf": "clip",
                "type": "Leaf"
            },
            {
                "data": "4:28816:-1",
                "leaf": "clip",
                "type": "Leaf"
            }
        ],
        "type": "AVSplit"
    },
    {
        "children": [
            {
                "data": "4:2753:-1",
                "leaf": "clip",
                "type": "Leaf"
            },
            {
                "data": "3:2753:-1",
                "leaf": "clip",
                "type": "Leaf"
            }
        ],
        "type": "AVSplit"
    },
    {
        "children": [
            {
                "data": "3:128037:-1",
                "leaf": "clip",
                "type": "Leaf"
            },
            {
                "data": "4:128049:-1",
                "leaf": "clip",
                "type": "Leaf"
            }
        ],
        "type": "AVSplit"
    },
    {
        "children": [
            {
                "data": "4:142485:-1",
                "leaf": "clip",
                "type": "Leaf"
            },
            {
                "data": "3:142485:-1",
                "leaf": "clip",
                "type": "Leaf"
            }
        ],
        "type": "AVSplit"
    },
    {
        "children": [
            {
                "data": "4:118668:-1",
                "leaf": "clip",
                "type": "Leaf"
            },
            {
                "data": "3:118668:-1",
                "leaf": "clip",
                "type": "Leaf"
            }
        ],
        "type": "AVSplit"
    },
    {
        "children": [
            {
                "data": "3:28320:-1",
                "leaf": "clip",
                "type": "Leaf"
            },
            {
                "data": "4:28332:-1",
                "leaf": "clip",
                "type": "Leaf"
            }
        ],
        "type": "AVSplit"
    },
    {
        "children": [
            {
                "data": "3:60121:-1",
                "leaf": "clip",
                "type": "Leaf"
            },
            {
                "data": "4:60150:-1",
                "leaf": "clip",
                "type": "Leaf"
            }
        ],
        "type": "AVSplit"
    },
    {
        "children": [
            {
                "data": "3:122341:-1",
                "leaf": "clip",
                "type": "Leaf"
            },
            {
                "data": "4:122361:-1",
                "leaf": "clip",
                "type": "Leaf"
            }
        ],
        "type": "AVSplit"
    },
    {
        "children": [
            {
                "data": "3:56153:-1",
                "leaf": "clip",
                "type": "Leaf"
            },
            {
                "data": "4:56153:-1",
                "leaf": "clip",
                "type": "Leaf"
            }
        ],
        "type": "AVSplit"
    }
]
</property>
  <property name="kdenlive:sequenceproperties.guides">[
]
</property>
  <track producer="producer0"/>
  <track producer="tractor0"/>
  <track producer="tractor1"/>
  <track producer="tractor2"/>
  <track producer="tractor3"/>
  <track producer="tractor4"/>
  <track producer="tractor5"/>
  <transition id="transition25">
   <property name="a_track">0</property>
   <property name="b_track">1</property>
   <property name="mlt_service">mix</property>
   <property name="kdenlive_id">mix</property>
   <property name="internal_added">237</property>
   <property name="always_active">1</property>
   <property name="accepts_blanks">1</property>
   <property name="sum">1</property>
  </transition>
  <transition id="transition26">
   <property name="a_track">0</property>
   <property name="b_track">2</property>
   <property name="mlt_service">mix</property>
   <property name="kdenlive_id">mix</property>
   <property name="internal_added">237</property>
   <property name="always_active">1</property>
   <property name="accepts_blanks">1</property>
   <property name="sum">1</property>
  </transition>
  <transition id="transition27">
   <property name="a_track">0</property>
   <property name="b_track">3</property>
   <property name="mlt_service">mix</property>
   <property name="kdenlive_id">mix</property>
   <property name="internal_added">237</property>
   <property name="always_active">1</property>
   <property name="accepts_blanks">1</property>
   <property name="sum">1</property>
  </transition>
  <transition id="transition28">
   <property name="a_track">0</property>
   <property name="b_track">4</property>
   <property name="mlt_service">mix</property>
   <property name="kdenlive_id">mix</property>
   <property name="internal_added">237</property>
   <property name="always_active">1</property>
   <property name="accepts_blanks">1</property>
   <property name="sum">1</property>
  </transition>
  <transition id="transition29">
   <property name="a_track">0</property>
   <property name="b_track">5</property>
   <property name="compositing">0</property>
   <property name="distort">0</property>
   <property name="rotate_center">0</property>
   <property name="mlt_service">qtblend</property>
   <property name="kdenlive_id">qtblend</property>
   <property name="internal_added">237</property>
   <property name="always_active">1</property>
  </transition>
  <transition id="transition30">
   <property name="a_track">0</property>
   <property name="b_track">6</property>
   <property name="compositing">0</property>
   <property name="distort">0</property>
   <property name="rotate_center">0</property>
   <property name="mlt_service">qtblend</property>
   <property name="kdenlive_id">qtblend</property>
   <property name="internal_added">237</property>
   <property name="always_active">1</property>
  </transition>
  <filter id="filter104">
   <property name="window">75</property>
   <property name="max_gain">20dB</property>
   <property name="mlt_service">volume</property>
   <property name="internal_added">237</property>
   <property name="disable">1</property>
  </filter>
  <filter id="filter105">
   <property name="channel">-1</property>
   <property name="mlt_service">panner</property>
   <property name="internal_added">237</property>
   <property name="start">0.5</property>
   <property name="disable">1</property>
  </filter>
  <filter id="filter106">
   <property name="mlt_service">avfilter.subtitles</property>
   <property name="av.alpha">1</property>
   <property name="internal_added">237</property>
   <property name="av.filename">Silent Hill - Nay Tomorrow Edition.kdenlive.ass</property>
   <property name="disable">1</property>
  </filter>
 </tractor>
 <playlist id="main_bin">
  <property name="kdenlive:folder.-1.2">Sequences</property>
  <property name="kdenlive:folder.-1.7">ost</property>
  <property name="kdenlive:sequenceFolder">2</property>
  <property name="kdenlive:docproperties.activetimeline">{862b8d98-0fe9-4d64-a73e-c9c464fa434b}</property>
  <property name="kdenlive:docproperties.audioChannels">2</property>
  <property name="kdenlive:docproperties.binsort">0</property>
  <property name="kdenlive:docproperties.browserurl">C:/Users/kado/Videos/Alien Resurrection/</property>
  <property name="kdenlive:docproperties.documentid">1751575450196</property>
  <property name="kdenlive:docproperties.enableTimelineZone">0</property>
  <property name="kdenlive:docproperties.enableexternalproxy">0</property>
  <property name="kdenlive:docproperties.enableproxy">0</property>
  <property name="kdenlive:docproperties.externalproxyparams">./;;.LRV;./;;.MP4</property>
  <property name="kdenlive:docproperties.generateimageproxy">0</property>
  <property name="kdenlive:docproperties.generateproxy">0</property>
  <property name="kdenlive:docproperties.guidesCategories">[
    {
        "color": "#9b59b6",
        "comment": "Category 1",
        "index": 0
    },
    {
        "color": "#3daee9",
        "comment": "Category 2",
        "index": 1
    },
    {
        "color": "#1abc9c",
        "comment": "Category 3",
        "index": 2
    },
    {
        "color": "#1cdc9a",
        "comment": "Category 4",
        "index": 3
    },
    {
        "color": "#c9ce3b",
        "comment": "Category 5",
        "index": 4
    },
    {
        "color": "#fdbc4b",
        "comment": "Category 6",
        "index": 5
    },
    {
        "color": "#f39c1f",
        "comment": "Category 7",
        "index": 6
    },
    {
        "color": "#f47750",
        "comment": "Category 8",
        "index": 7
    },
    {
        "color": "#da4453",
        "comment": "Category 9",
        "index": 8
    }
]
</property>
  <property name="kdenlive:docproperties.kdenliveversion">25.04.2</property>
  <property name="kdenlive:docproperties.opensequences">{862b8d98-0fe9-4d64-a73e-c9c464fa434b}</property>
  <property name="kdenlive:docproperties.previewextension"/>
  <property name="kdenlive:docproperties.previewparameters"/>
  <property name="kdenlive:docproperties.profile">C:/Users/kado/AppData/Roaming/kdenlive/profiles/customprofile9</property>
  <property name="kdenlive:docproperties.proxyextension"/>
  <property name="kdenlive:docproperties.proxyimageminsize">2000</property>
  <property name="kdenlive:docproperties.proxyimagesize">800</property>
  <property name="kdenlive:docproperties.proxyminsize">1000</property>
  <property name="kdenlive:docproperties.proxyparams"/>
  <property name="kdenlive:docproperties.proxyresize">640</property>
  <property name="kdenlive:docproperties.rendercategory">Generic (HD for web, mobile devices...)</property>
  <property name="kdenlive:docproperties.rendercustomquality">-1</property>
  <property name="kdenlive:docproperties.renderendguide">-1</property>
  <property name="kdenlive:docproperties.renderexportaudio">0</property>
  <property name="kdenlive:docproperties.renderfullcolorrange">0</property>
  <property name="kdenlive:docproperties.rendermode">0</property>
  <property name="kdenlive:docproperties.renderplay">0</property>
  <property name="kdenlive:docproperties.renderpreview">0</property>
  <property name="kdenlive:docproperties.renderprofile">Matroska-H264/AAC</property>
  <property name="kdenlive:docproperties.renderrescale">0</property>
  <property name="kdenlive:docproperties.renderrescaleheight">408</property>
  <property name="kdenlive:docproperties.renderrescalewidth">960</property>
  <property name="kdenlive:docproperties.renderspeed">6</property>
  <property name="kdenlive:docproperties.renderstartguide">-1</property>
  <property name="kdenlive:docproperties.rendertcoverlay">0</property>
  <property name="kdenlive:docproperties.rendertctype">-1</property>
  <property name="kdenlive:docproperties.rendertwopass">0</property>
  <property name="kdenlive:docproperties.renderurl">C:/Users/kado/Videos/Silent Hill - Nay Tomorrow Edition.mkv</property>
  <property name="kdenlive:docproperties.seekOffset">30000</property>
  <property name="kdenlive:docproperties.sessionid">{2e223f4b-5fdd-4827-8184-600f40772cc6}</property>
  <property name="kdenlive:docproperties.uuid">{862b8d98-0fe9-4d64-a73e-c9c464fa434b}</property>
  <property name="kdenlive:docproperties.version">1.1</property>
  <property name="kdenlive:expandedFolders">7</property>
  <property name="kdenlive:binZoom">4</property>
  <property name="kdenlive:extraBins">project_bin:-1:0</property>
  <property name="kdenlive:documentnotes"/>
  <property name="kdenlive:documentnotesversion">2</property>
  <property name="xml_retain">1</property>
  <entry in="00:00:00.000" out="02:05:19.478" producer="chain3"/>
  <entry in="00:00:00.000" out="00:00:12.888" producer="producer3"/>
  <entry in="00:00:00.000" out="00:02:51.093" producer="chain13"/>
  <entry in="00:00:00.000" out="00:02:07.925" producer="chain14"/>
  <entry in="00:00:00.000" out="00:00:09.218" producer="chain15"/>
  <entry in="00:00:00.000" out="00:00:51.635" producer="chain16"/>
  <entry in="00:00:00.000" out="00:02:04.421" producer="chain17"/>
  <entry in="00:00:00.000" out="00:01:26.985" producer="chain18"/>
  <entry in="00:00:00.000" out="00:00:57.266" producer="chain19"/>
  <entry in="00:00:00.000" out="00:02:39.915" producer="chain20"/>
  <entry in="00:00:00.000" out="00:00:52.678" producer="chain21"/>
  <entry in="00:00:00.000" out="00:01:32.699" producer="chain22"/>
  <entry in="00:00:00.000" out="00:01:33.492" producer="chain23"/>
  <entry in="00:00:00.000" out="00:00:19.061" producer="chain24"/>
  <entry in="00:00:00.000" out="00:01:25.234" producer="chain25"/>
  <entry in="00:00:00.000" out="00:01:29.029" producer="chain26"/>
  <entry in="00:00:00.000" out="00:01:26.151" producer="chain27"/>
  <entry in="00:00:00.000" out="00:02:48.590" producer="chain28"/>
  <entry in="00:00:00.000" out="00:00:45.420" producer="chain29"/>
  <entry in="00:00:00.000" out="00:01:13.555" producer="chain30"/>
  <entry in="00:00:00.000" out="00:00:39.331" producer="chain31"/>
  <entry in="00:00:00.000" out="00:01:47.881" producer="chain32"/>
  <entry in="00:00:00.000" out="00:01:14.806" producer="chain33"/>
  <entry in="00:00:00.000" out="00:02:52.761" producer="chain34"/>
  <entry in="00:00:00.000" out="00:01:21.188" producer="chain35"/>
  <entry in="00:00:00.000" out="00:00:25.234" producer="chain36"/>
  <entry in="00:00:00.000" out="00:00:17.768" producer="chain37"/>
  <entry in="00:00:00.000" out="00:01:12.179" producer="chain38"/>
  <entry in="00:00:00.000" out="00:00:51.301" producer="chain39"/>
  <entry in="00:00:00.000" out="00:00:33.116" producer="chain40"/>
  <entry in="00:00:00.000" out="00:01:01.877" producer="chain41"/>
  <entry in="00:00:00.000" out="00:00:56.390" producer="chain42"/>
  <entry in="00:00:00.000" out="00:00:46.755" producer="chain43"/>
  <entry in="00:00:00.000" out="00:01:38.413" producer="chain44"/>
  <entry in="00:00:00.000" out="00:01:16.892" producer="chain45"/>
  <entry in="00:00:00.000" out="00:01:16.767" producer="chain46"/>
  <entry in="00:00:00.000" out="00:00:48.090" producer="chain47"/>
  <entry in="00:00:00.000" out="00:01:38.872" producer="chain48"/>
  <entry in="00:00:00.000" out="00:03:17.643" producer="chain49"/>
  <entry in="00:00:00.000" out="00:03:16.058" producer="chain50"/>
  <entry in="00:00:00.000" out="00:02:54.471" producer="chain51"/>
  <entry in="00:00:00.000" out="00:02:36.078" producer="chain52"/>
  <entry in="00:00:00.000" out="00:06:26.318" producer="chain53"/>
  <entry in="00:00:00.000" out="00:06:23.106" producer="chain54"/>
  <entry in="00:00:00.000" out="00:05:17.267" producer="chain55"/>
  <entry in="00:00:00.000" out="00:00:38.747" producer="chain56"/>
  <entry in="00:00:00.000" out="00:00:10.886" producer="chain57"/>
  <entry in="00:00:00.000" out="01:50:18.769" producer="tractor6"/>
 </playlist>
 <tractor id="tractor7" in="00:00:00.000" out="01:50:03.420">
  <property name="kdenlive:projectTractor">1</property>
  <track in="00:00:00.000" out="01:50:03.420" producer="tractor6"/>
 </tractor>
</mlt>
