<?xml version='1.0' encoding='utf-8'?>
<mlt LC_NUMERIC="en_US.UTF-8" producer="main_bin" root="/FanEdits/FanMixes/Terminator 3 (2003) - Brass Monkey Edition" version="7.33.0">
 <profile colorspace="709" description="1920x790 23.98fps" display_aspect_den="79" display_aspect_num="192" frame_rate_den="1001" frame_rate_num="24000" height="790" progressive="1" sample_aspect_den="1" sample_aspect_num="1" width="1920"/>
 <chain id="chain19" out="01:49:06.215">
  <property name="length">156952</property>
  <property name="eof">pause</property>
  <property name="resource">/Horror and SciFi/The Terminator DVD Boxset Part 1, 2, 3 &amp; 4/Terminator III - The Rise of the Machines (2003)/Terminator.3.Rise.of.the.Machines.2003.1080p.BluRay.x264/Terminator.3.Rise.of.the.Machines.2003.1080p.BluRay.x264.mkv</property>
  <property name="mlt_service">avformat-novalidate</property>
  <property name="meta.media.nb_streams">7</property>
  <property name="meta.media.0.stream.type">video</property>
  <property name="meta.media.0.stream.frame_rate">23.976</property>
  <property name="meta.media.0.stream.sample_aspect_ratio">1</property>
  <property name="meta.media.0.codec.width">1920</property>
  <property name="meta.media.0.codec.height">790</property>
  <property name="meta.media.0.codec.rotate">0</property>
  <property name="meta.media.0.codec.pix_fmt">yuv420p</property>
  <property name="meta.media.0.codec.sample_aspect_ratio">1</property>
  <property name="meta.media.0.codec.colorspace">709</property>
  <property name="meta.media.0.codec.color_trc">1</property>
  <property name="meta.media.0.codec.name">h264</property>
  <property name="meta.media.0.codec.long_name">H.264 / AVC / MPEG-4 AVC / MPEG-4 part 10</property>
  <property name="meta.media.0.codec.bit_rate">0</property>
  <property name="meta.attr.0.stream.language.markup">eng</property>
  <property name="meta.media.1.stream.type">audio</property>
  <property name="meta.media.1.codec.sample_fmt">fltp</property>
  <property name="meta.media.1.codec.sample_rate">48000</property>
  <property name="meta.media.1.codec.channels">6</property>
  <property name="meta.media.1.codec.layout">5.1(side)</property>
  <property name="meta.media.1.codec.name">dca</property>
  <property name="meta.media.1.codec.long_name">DCA (DTS Coherent Acoustics)</property>
  <property name="meta.media.1.codec.bit_rate">1536000</property>
  <property name="meta.attr.1.stream.language.markup">eng</property>
  <property name="meta.media.2.codec.name">srt</property>
  <property name="meta.media.2.codec.long_name">SubRip subtitle</property>
  <property name="meta.media.2.codec.bit_rate">0</property>
  <property name="meta.attr.2.stream.language.markup">eng</property>
  <property name="meta.media.3.stream.type">video</property>
  <property name="meta.media.3.stream.frame_rate">90000</property>
  <property name="meta.media.3.stream.sample_aspect_ratio">0</property>
  <property name="meta.media.3.codec.width">1067</property>
  <property name="meta.media.3.codec.height">600</property>
  <property name="meta.media.3.codec.rotate">0</property>
  <property name="meta.media.3.codec.pix_fmt">yuvj444p</property>
  <property name="meta.media.3.codec.sample_aspect_ratio">0</property>
  <property name="meta.media.3.codec.colorspace">601</property>
  <property name="meta.media.3.codec.name">mjpeg</property>
  <property name="meta.media.3.codec.long_name">MJPEG (Motion JPEG)</property>
  <property name="meta.media.3.codec.bit_rate">0</property>
  <property name="meta.attr.3.stream.filename.markup">cover_land.jpg</property>
  <property name="meta.attr.3.stream.mimetype.markup">image/jpeg</property>
  <property name="meta.media.4.stream.type">video</property>
  <property name="meta.media.4.stream.frame_rate">90000</property>
  <property name="meta.media.4.stream.sample_aspect_ratio">0</property>
  <property name="meta.media.4.codec.width">120</property>
  <property name="meta.media.4.codec.height">176</property>
  <property name="meta.media.4.codec.rotate">0</property>
  <property name="meta.media.4.codec.pix_fmt">yuvj444p</property>
  <property name="meta.media.4.codec.sample_aspect_ratio">0</property>
  <property name="meta.media.4.codec.colorspace">601</property>
  <property name="meta.media.4.codec.name">mjpeg</property>
  <property name="meta.media.4.codec.long_name">MJPEG (Motion JPEG)</property>
  <property name="meta.media.4.codec.bit_rate">0</property>
  <property name="meta.attr.4.stream.filename.markup">small_cover.jpg</property>
  <property name="meta.attr.4.stream.mimetype.markup">image/jpeg</property>
  <property name="meta.media.5.stream.type">video</property>
  <property name="meta.media.5.stream.frame_rate">90000</property>
  <property name="meta.media.5.stream.sample_aspect_ratio">0</property>
  <property name="meta.media.5.codec.width">213</property>
  <property name="meta.media.5.codec.height">120</property>
  <property name="meta.media.5.codec.rotate">0</property>
  <property name="meta.media.5.codec.pix_fmt">yuvj444p</property>
  <property name="meta.media.5.codec.sample_aspect_ratio">0</property>
  <property name="meta.media.5.codec.colorspace">601</property>
  <property name="meta.media.5.codec.name">mjpeg</property>
  <property name="meta.media.5.codec.long_name">MJPEG (Motion JPEG)</property>
  <property name="meta.media.5.codec.bit_rate">0</property>
  <property name="meta.attr.5.stream.filename.markup">small_cover_land.jpg</property>
  <property name="meta.attr.5.stream.mimetype.markup">image/jpeg</property>
  <property name="meta.media.6.stream.type">video</property>
  <property name="meta.media.6.stream.frame_rate">90000</property>
  <property name="meta.media.6.stream.sample_aspect_ratio">0</property>
  <property name="meta.media.6.codec.width">600</property>
  <property name="meta.media.6.codec.height">882</property>
  <property name="meta.media.6.codec.rotate">0</property>
  <property name="meta.media.6.codec.pix_fmt">yuvj444p</property>
  <property name="meta.media.6.codec.sample_aspect_ratio">0</property>
  <property name="meta.media.6.codec.colorspace">601</property>
  <property name="meta.media.6.codec.name">mjpeg</property>
  <property name="meta.media.6.codec.long_name">MJPEG (Motion JPEG)</property>
  <property name="meta.media.6.codec.bit_rate">0</property>
  <property name="meta.attr.6.stream.filename.markup">cover.jpg</property>
  <property name="meta.attr.6.stream.mimetype.markup">image/jpeg</property>
  <property name="meta.attr.title.markup">Terminator.3.Rise.of.the.Machines.2003.1080p.BluRay.x264</property>
  <property name="meta.attr.encoder.markup">libebml v1.3.1 + libmatroska v1.4.2</property>
  <property name="meta.attr.creation_time.markup">2015-06-21T10:42:15.000000Z</property>
  <property name="seekable">1</property>
  <property name="meta.media.sample_aspect_num">1</property>
  <property name="meta.media.sample_aspect_den">1</property>
  <property name="audio_index">1</property>
  <property name="video_index">0</property>
  <property name="vstream">0</property>
  <property name="meta.media.frame_rate_num">24000</property>
  <property name="meta.media.frame_rate_den">1001</property>
  <property name="meta.media.colorspace">709</property>
  <property name="meta.media.color_trc">1</property>
  <property name="meta.media.has_b_frames">2</property>
  <property name="meta.media.width">1920</property>
  <property name="meta.media.height">790</property>
  <property name="meta.media.aspect_ratio">1</property>
  <property name="meta.media.color_range">mpeg</property>
  <property name="astream">0</property>
  <property name="meta.media.top_field_first">0</property>
  <property name="meta.media.progressive">1</property>
  <property name="kdenlive:control_uuid">{8a480ecc-b631-4a2f-b493-6a744a94365a}</property>
  <property name="kdenlive:proxy">-</property>
  <property name="kdenlive:originalurl">/Horror and SciFi/The Terminator DVD Boxset Part 1, 2, 3 &amp; 4/Terminator III - The Rise of the Machines (2003)/Terminator.3.Rise.of.the.Machines.2003.1080p.BluRay.x264/Terminator.3.Rise.of.the.Machines.2003.1080p.BluRay.x264.mkv</property>
  <property name="kdenlive:id">4</property>
  <property name="mute_on_pause">0</property>
  <property name="kdenlive:clip_type">0</property>
  <property name="kdenlive:file_size">12299138322</property>
  <property name="kdenlive:file_hash">7d0a41a44b5c23a12a68a058620a51f8</property>
  <property name="kdenlive:folderid">2</property>
  <property name="kdenlive:monitorPosition">0</property>
 </chain>
 <chain id="chain8" out="00:02:37.412">
  <property name="length">3775</property>
  <property name="eof">pause</property>
  <property name="resource">ost/Brass Monkey.mp3</property>
  <property name="mlt_service">avformat</property>
  <property name="meta.media.nb_streams">1</property>
  <property name="meta.media.0.stream.type">audio</property>
  <property name="meta.media.0.codec.sample_fmt">fltp</property>
  <property name="meta.media.0.codec.sample_rate">48000</property>
  <property name="meta.media.0.codec.channels">2</property>
  <property name="meta.media.0.codec.layout">stereo</property>
  <property name="meta.media.0.codec.name">mp3float</property>
  <property name="meta.media.0.codec.long_name">MP3 (MPEG audio layer 3)</property>
  <property name="meta.media.0.codec.bit_rate">192000</property>
  <property name="meta.attr.0.stream.encoder.markup">Lavc58.54</property>
  <property name="meta.attr.encoder.markup">Lavf58.29.100</property>
  <property name="seekable">1</property>
  <property name="audio_index">0</property>
  <property name="video_index">-1</property>
  <property name="astream">0</property>
  <property name="kdenlive:folderid">-1</property>
  <property name="kdenlive:id">5</property>
  <property name="kdenlive:control_uuid">{59d6f42e-ddce-49a5-a04b-0a10b77663fc}</property>
  <property name="kdenlive:clip_type">1</property>
  <property name="kdenlive:file_size">3779757</property>
  <property name="kdenlive:file_hash">9ca4e33272f7d81cc90e6a2830328337</property>
  <property name="kdenlive:monitorPosition">0</property>
 </chain>
 <chain id="chain11" out="00:02:23.982">
  <property name="length">3453</property>
  <property name="eof">pause</property>
  <property name="resource">ost/Radio.mp3</property>
  <property name="mlt_service">avformat</property>
  <property name="meta.media.nb_streams">1</property>
  <property name="meta.media.0.stream.type">audio</property>
  <property name="meta.media.0.codec.sample_fmt">fltp</property>
  <property name="meta.media.0.codec.sample_rate">44100</property>
  <property name="meta.media.0.codec.channels">2</property>
  <property name="meta.media.0.codec.layout">stereo</property>
  <property name="meta.media.0.codec.name">mp3float</property>
  <property name="meta.media.0.codec.long_name">MP3 (MPEG audio layer 3)</property>
  <property name="meta.media.0.codec.bit_rate">192000</property>
  <property name="meta.attr.0.stream.encoder.markup">Lavc60.31</property>
  <property name="meta.attr.major_brand.markup">dash</property>
  <property name="meta.attr.minor_version.markup">0</property>
  <property name="meta.attr.compatible_brands.markup">iso6mp41</property>
  <property name="meta.attr.encoder.markup">Lavf60.16.100</property>
  <property name="seekable">1</property>
  <property name="audio_index">0</property>
  <property name="video_index">-1</property>
  <property name="astream">0</property>
  <property name="kdenlive:folderid">-1</property>
  <property name="kdenlive:id">6</property>
  <property name="kdenlive:control_uuid">{f601cf47-f43e-445d-a4e0-919d60d36a18}</property>
  <property name="kdenlive:clip_type">1</property>
  <property name="kdenlive:file_size">3457077</property>
  <property name="kdenlive:file_hash">6f3d3304f980cc9952d1c2a9aaefe0f2</property>
  <property name="kdenlive:monitorPosition">0</property>
 </chain>
 <chain id="chain12" out="00:02:29.613">
  <property name="length">3588</property>
  <property name="eof">pause</property>
  <property name="resource">ost/Love Scene.mp3</property>
  <property name="mlt_service">avformat</property>
  <property name="meta.media.nb_streams">1</property>
  <property name="meta.media.0.stream.type">audio</property>
  <property name="meta.media.0.codec.sample_fmt">fltp</property>
  <property name="meta.media.0.codec.sample_rate">44100</property>
  <property name="meta.media.0.codec.channels">2</property>
  <property name="meta.media.0.codec.layout">stereo</property>
  <property name="meta.media.0.codec.name">mp3float</property>
  <property name="meta.media.0.codec.long_name">MP3 (MPEG audio layer 3)</property>
  <property name="meta.media.0.codec.bit_rate">192000</property>
  <property name="meta.attr.0.stream.encoder.markup">Lavc60.31</property>
  <property name="meta.attr.major_brand.markup">mp42</property>
  <property name="meta.attr.minor_version.markup">0</property>
  <property name="meta.attr.compatible_brands.markup">isommp42</property>
  <property name="meta.attr.encoder.markup">Lavf60.16.100</property>
  <property name="seekable">1</property>
  <property name="audio_index">0</property>
  <property name="video_index">-1</property>
  <property name="astream">0</property>
  <property name="kdenlive:folderid">-1</property>
  <property name="kdenlive:id">7</property>
  <property name="kdenlive:control_uuid">{b2a4eb7a-98e6-4428-9d63-febcf037694c}</property>
  <property name="kdenlive:clip_type">1</property>
  <property name="kdenlive:file_size">3592496</property>
  <property name="kdenlive:file_hash">5bf5d0faad320c6b7e67e171849c87c8</property>
  <property name="kdenlive:monitorPosition">0</property>
 </chain>
 <chain id="chain17" out="00:04:00.459">
  <property name="length">5766</property>
  <property name="eof">pause</property>
  <property name="resource">ost/11 I'll Be Back.mp3</property>
  <property name="mlt_service">avformat</property>
  <property name="meta.media.nb_streams">1</property>
  <property name="meta.media.0.stream.type">audio</property>
  <property name="meta.media.0.codec.sample_fmt">fltp</property>
  <property name="meta.media.0.codec.sample_rate">44100</property>
  <property name="meta.media.0.codec.channels">2</property>
  <property name="meta.media.0.codec.layout">stereo</property>
  <property name="meta.media.0.codec.name">mp3float</property>
  <property name="meta.media.0.codec.long_name">MP3 (MPEG audio layer 3)</property>
  <property name="meta.media.0.codec.bit_rate">320000</property>
  <property name="meta.attr.TLEN.markup">240693</property>
  <property name="meta.attr.album.markup">Terminator 2: Judgment Day</property>
  <property name="meta.attr.title.markup">I'll Be Back</property>
  <property name="meta.attr.track.markup">11</property>
  <property name="meta.attr.genre.markup">Soundtrack</property>
  <property name="meta.attr.composer.markup">Brad Fiedel</property>
  <property name="meta.attr.artist.markup">Brad Fiedel</property>
  <property name="meta.attr.date.markup">1991</property>
  <property name="meta.attr.id3v2_priv.PeakValue.markup">\xa1]\x00\x00</property>
  <property name="meta.attr.id3v2_priv.AverageLevel.markup">{\x09\x00\x00</property>
  <property name="seekable">1</property>
  <property name="audio_index">0</property>
  <property name="video_index">-1</property>
  <property name="astream">0</property>
  <property name="kdenlive:folderid">-1</property>
  <property name="kdenlive:id">11</property>
  <property name="kdenlive:control_uuid">{9ace7c1f-77a6-47a2-b360-ccc35ce17180}</property>
  <property name="kdenlive:clip_type">1</property>
  <property name="kdenlive:file_size">9623896</property>
  <property name="kdenlive:file_hash">a7427cb5df2ddb7433df111b2fbaa3af</property>
  <property name="kdenlive:monitorPosition">1937</property>
 </chain>
 <chain id="chain18" out="00:02:00.042">
  <property name="length">2879</property>
  <property name="eof">pause</property>
  <property name="resource">ost/Convenience Store Ambience (Supermarket Grocery Shop Interior Background Noise Clip) (Sound Effect).mp3</property>
  <property name="mlt_service">avformat</property>
  <property name="meta.media.nb_streams">1</property>
  <property name="meta.media.0.stream.type">audio</property>
  <property name="meta.media.0.codec.sample_fmt">fltp</property>
  <property name="meta.media.0.codec.sample_rate">44100</property>
  <property name="meta.media.0.codec.channels">2</property>
  <property name="meta.media.0.codec.layout">stereo</property>
  <property name="meta.media.0.codec.name">mp3float</property>
  <property name="meta.media.0.codec.long_name">MP3 (MPEG audio layer 3)</property>
  <property name="meta.media.0.codec.bit_rate">192000</property>
  <property name="meta.attr.0.stream.encoder.markup">Lavc60.31</property>
  <property name="meta.attr.major_brand.markup">dash</property>
  <property name="meta.attr.minor_version.markup">0</property>
  <property name="meta.attr.compatible_brands.markup">iso6mp41</property>
  <property name="meta.attr.encoder.markup">Lavf60.16.100</property>
  <property name="seekable">1</property>
  <property name="audio_index">0</property>
  <property name="video_index">-1</property>
  <property name="astream">0</property>
  <property name="kdenlive:folderid">-1</property>
  <property name="kdenlive:id">12</property>
  <property name="kdenlive:control_uuid">{0bd4a552-4d3b-4d78-b4ee-30fcfe44fd64}</property>
  <property name="kdenlive:clip_type">1</property>
  <property name="kdenlive:file_size">2882174</property>
  <property name="kdenlive:file_hash">3d5fac77f0d966bc390b416f4afabecf</property>
  <property name="kdenlive:monitorPosition">0</property>
 </chain>
 <producer id="producer0" in="00:00:00.000" out="01:38:58.642">
  <property name="length">2147483647</property>
  <property name="eof">continue</property>
  <property name="resource">black</property>
  <property name="aspect_ratio">1</property>
  <property name="mlt_service">color</property>
  <property name="kdenlive:playlistid">black_track</property>
  <property name="mlt_image_format">rgba</property>
  <property name="set.test_audio">0</property>
 </producer>
 <chain id="chain0" out="00:02:00.042">
  <property name="length">2879</property>
  <property name="eof">pause</property>
  <property name="resource">ost/Convenience Store Ambience (Supermarket Grocery Shop Interior Background Noise Clip) (Sound Effect).mp3</property>
  <property name="mlt_service">avformat-novalidate</property>
  <property name="seekable">1</property>
  <property name="audio_index">0</property>
  <property name="video_index">-1</property>
  <property name="astream">0</property>
  <property name="kdenlive:folderid">-1</property>
  <property name="kdenlive:id">12</property>
  <property name="kdenlive:control_uuid">{0bd4a552-4d3b-4d78-b4ee-30fcfe44fd64}</property>
  <property name="kdenlive:clip_type">1</property>
  <property name="kdenlive:file_size">2882174</property>
  <property name="kdenlive:file_hash">3d5fac77f0d966bc390b416f4afabecf</property>
  <property name="meta.media.nb_streams">1</property>
  <property name="meta.media.0.stream.type">audio</property>
  <property name="meta.media.0.codec.sample_fmt">fltp</property>
  <property name="meta.media.0.codec.sample_rate">44100</property>
  <property name="meta.media.0.codec.channels">2</property>
  <property name="meta.media.0.codec.layout">stereo</property>
  <property name="meta.media.0.codec.name">mp3float</property>
  <property name="meta.media.0.codec.long_name">MP3 (MPEG audio layer 3)</property>
  <property name="meta.media.0.codec.bit_rate">192000</property>
  <property name="meta.attr.0.stream.encoder.markup">Lavc60.31</property>
  <property name="meta.attr.major_brand.markup">dash</property>
  <property name="meta.attr.minor_version.markup">0</property>
  <property name="meta.attr.compatible_brands.markup">iso6mp41</property>
  <property name="meta.attr.encoder.markup">Lavf60.16.100</property>
  <property name="xml">was here</property>
  <property name="mute_on_pause">0</property>
  <property name="set.test_audio">0</property>
  <property name="set.test_image">1</property>
 </chain>
 <playlist id="playlist0">
  <property name="kdenlive:audio_track">1</property>
  <blank length="00:35:04.087"/>
  <entry in="00:00:33.283" out="00:00:41.750" producer="chain0">
   <property name="kdenlive:id">12</property>
   <filter id="filter0">
    <property name="window">75</property>
    <property name="max_gain">20dB</property>
    <property name="level">00:00:33.283=-16</property>
    <property name="mlt_service">volume</property>
    <property name="kdenlive_id">volume</property>
    <property name="kdenlive:collapsed">0</property>
   </filter>
  </entry>
  <entry in="00:00:33.283" out="00:00:41.917" producer="chain0">
   <property name="kdenlive:id">12</property>
   <filter id="filter1">
    <property name="window">75</property>
    <property name="max_gain">20dB</property>
    <property name="level">00:00:33.283=-16</property>
    <property name="mlt_service">volume</property>
    <property name="kdenlive_id">volume</property>
    <property name="kdenlive:collapsed">0</property>
   </filter>
  </entry>
  <entry in="00:00:33.283" out="00:00:37.621" producer="chain0">
   <property name="kdenlive:id">12</property>
   <filter id="filter2">
    <property name="window">75</property>
    <property name="max_gain">20dB</property>
    <property name="level">00:00:33.283=-16</property>
    <property name="mlt_service">volume</property>
    <property name="kdenlive_id">volume</property>
    <property name="kdenlive:collapsed">0</property>
   </filter>
  </entry>
  <blank length="00:00:03.462"/>
  <entry in="00:00:33.283" out="00:00:35.827" producer="chain0">
   <property name="kdenlive:id">12</property>
   <filter id="filter3">
    <property name="window">75</property>
    <property name="max_gain">20dB</property>
    <property name="level">00:00:33.283=-16</property>
    <property name="mlt_service">volume</property>
    <property name="kdenlive_id">volume</property>
    <property name="kdenlive:collapsed">0</property>
   </filter>
  </entry>
  <entry in="00:00:36.453" out="00:00:38.121" producer="chain0">
   <property name="kdenlive:id">12</property>
   <filter id="filter4">
    <property name="window">75</property>
    <property name="max_gain">20dB</property>
    <property name="level">00:00:36.453=-16</property>
    <property name="mlt_service">volume</property>
    <property name="kdenlive_id">volume</property>
    <property name="kdenlive:collapsed">0</property>
   </filter>
  </entry>
  <entry in="00:00:38.413" out="00:00:39.289" producer="chain0">
   <property name="kdenlive:id">12</property>
   <filter id="filter5">
    <property name="window">75</property>
    <property name="max_gain">20dB</property>
    <property name="level">00:00:38.413=-16</property>
    <property name="mlt_service">volume</property>
    <property name="kdenlive_id">volume</property>
    <property name="kdenlive:collapsed">0</property>
   </filter>
  </entry>
  <entry in="00:00:39.581" out="00:00:40.249" producer="chain0">
   <property name="kdenlive:id">12</property>
   <filter id="filter6">
    <property name="window">75</property>
    <property name="max_gain">20dB</property>
    <property name="level">00:00:39.581=-16</property>
    <property name="mlt_service">volume</property>
    <property name="kdenlive_id">volume</property>
    <property name="kdenlive:collapsed">0</property>
   </filter>
  </entry>
  <entry in="00:00:36.453" out="00:00:42.542" producer="chain0">
   <property name="kdenlive:id">12</property>
   <filter id="filter7">
    <property name="window">75</property>
    <property name="max_gain">20dB</property>
    <property name="level">00:00:36.453=-16</property>
    <property name="mlt_service">volume</property>
    <property name="kdenlive_id">volume</property>
    <property name="kdenlive:collapsed">0</property>
   </filter>
   <filter id="filter8" in="00:00:36.662" out="00:00:42.542">
    <property name="window">75</property>
    <property name="max_gain">20dB</property>
    <property name="mlt_service">volume</property>
    <property name="kdenlive_id">fadeout</property>
    <property name="gain">1</property>
    <property name="end">0</property>
   </filter>
  </entry>
 </playlist>
 <playlist id="playlist1">
  <property name="kdenlive:audio_track">1</property>
 </playlist>
 <tractor id="tractor0" in="00:00:00.000" out="00:35:41.124">
  <property name="kdenlive:audio_track">1</property>
  <property name="kdenlive:trackheight">84</property>
  <property name="kdenlive:timeline_active">1</property>
  <property name="kdenlive:collapsed">0</property>
  <property name="kdenlive:thumbs_format"/>
  <property name="kdenlive:audio_rec"/>
  <track hide="video" producer="playlist0"/>
  <track hide="video" producer="playlist1"/>
  <filter id="filter9">
   <property name="window">75</property>
   <property name="max_gain">20dB</property>
   <property name="level">-5.00022</property>
   <property name="mlt_service">volume</property>
   <property name="internal_added">237</property>
   <property name="disable">0</property>
  </filter>
  <filter id="filter10">
   <property name="channel">-1</property>
   <property name="mlt_service">panner</property>
   <property name="internal_added">237</property>
   <property name="start">0.5</property>
   <property name="disable">1</property>
  </filter>
  <filter id="filter11">
   <property name="iec_scale">0</property>
   <property name="mlt_service">audiolevel</property>
   <property name="dbpeak">1</property>
   <property name="disable">1</property>
  </filter>
 </tractor>
 <chain id="chain1" out="00:02:37.412">
  <property name="length">3775</property>
  <property name="eof">pause</property>
  <property name="resource">ost/Brass Monkey.mp3</property>
  <property name="mlt_service">avformat-novalidate</property>
  <property name="seekable">1</property>
  <property name="audio_index">0</property>
  <property name="video_index">-1</property>
  <property name="astream">0</property>
  <property name="kdenlive:folderid">-1</property>
  <property name="kdenlive:id">5</property>
  <property name="kdenlive:control_uuid">{59d6f42e-ddce-49a5-a04b-0a10b77663fc}</property>
  <property name="kdenlive:clip_type">1</property>
  <property name="kdenlive:file_size">3779757</property>
  <property name="kdenlive:file_hash">9ca4e33272f7d81cc90e6a2830328337</property>
  <property name="meta.media.nb_streams">1</property>
  <property name="meta.media.0.stream.type">audio</property>
  <property name="meta.media.0.codec.sample_fmt">fltp</property>
  <property name="meta.media.0.codec.sample_rate">48000</property>
  <property name="meta.media.0.codec.channels">2</property>
  <property name="meta.media.0.codec.layout">stereo</property>
  <property name="meta.media.0.codec.name">mp3float</property>
  <property name="meta.media.0.codec.long_name">MP3 (MPEG audio layer 3)</property>
  <property name="meta.media.0.codec.bit_rate">192000</property>
  <property name="meta.attr.0.stream.encoder.markup">Lavc58.54</property>
  <property name="meta.attr.encoder.markup">Lavf58.29.100</property>
  <property name="xml">was here</property>
  <property name="mute_on_pause">0</property>
  <property name="set.test_audio">0</property>
  <property name="set.test_image">1</property>
 </chain>
 <playlist id="playlist2">
  <property name="kdenlive:audio_track">1</property>
  <blank length="00:35:04.087"/>
  <entry in="00:01:24.274" out="00:01:45.796" producer="chain1">
   <property name="kdenlive:id">5</property>
   <filter id="filter12">
    <property name="window">75</property>
    <property name="max_gain">20dB</property>
    <property name="level">00:01:24.274=-36;00:01:30.530=-36</property>
    <property name="mlt_service">volume</property>
    <property name="kdenlive_id">volume</property>
    <property name="kdenlive:collapsed">0</property>
   </filter>
  </entry>
  <entry in="00:01:45.837" out="00:01:49.258" producer="chain1">
   <property name="kdenlive:id">5</property>
   <filter id="filter13">
    <property name="window">75</property>
    <property name="max_gain">20dB</property>
    <property name="level">00:01:45.837=-44</property>
    <property name="mlt_service">volume</property>
    <property name="kdenlive_id">volume</property>
    <property name="kdenlive:collapsed">0</property>
   </filter>
  </entry>
  <entry in="00:01:49.299" out="00:01:56.265" producer="chain1">
   <property name="kdenlive:id">5</property>
   <filter id="filter14">
    <property name="window">75</property>
    <property name="max_gain">20dB</property>
    <property name="level">00:01:49.299=-36</property>
    <property name="mlt_service">volume</property>
    <property name="kdenlive_id">volume</property>
    <property name="kdenlive:collapsed">0</property>
   </filter>
  </entry>
  <entry in="00:01:56.306" out="00:02:15.807" producer="chain1">
   <property name="kdenlive:id">5</property>
   <filter id="filter15">
    <property name="window">75</property>
    <property name="max_gain">20dB</property>
    <property name="level">00:01:56.306=-36</property>
    <property name="mlt_service">volume</property>
    <property name="kdenlive_id">volume</property>
    <property name="kdenlive:collapsed">0</property>
   </filter>
   <filter id="filter16" in="00:02:12.054" out="00:02:15.807">
    <property name="window">75</property>
    <property name="max_gain">20dB</property>
    <property name="mlt_service">volume</property>
    <property name="kdenlive_id">fadeout</property>
    <property name="gain">1</property>
    <property name="end">0</property>
    <property name="kdenlive:collapsed">0</property>
   </filter>
  </entry>
 </playlist>
 <playlist id="playlist3">
  <property name="kdenlive:audio_track">1</property>
 </playlist>
 <tractor id="tractor1" in="00:00:00.000" out="00:35:55.639">
  <property name="kdenlive:audio_track">1</property>
  <property name="kdenlive:trackheight">84</property>
  <property name="kdenlive:timeline_active">1</property>
  <property name="kdenlive:collapsed">0</property>
  <property name="kdenlive:track_name">echo</property>
  <property name="kdenlive:thumbs_format"/>
  <property name="kdenlive:audio_rec"/>
  <track hide="video" producer="playlist2"/>
  <track hide="video" producer="playlist3"/>
  <filter id="filter20" out="00:35:55.681">
   <property name="mlt_service">ladspa.2142</property>
   <property name="kdenlive_id">ladspa.2142</property>
   <property name="0">2500</property>
   <property name="1">0</property>
   <property name="2">0</property>
   <property name="3">1</property>
   <property name="4">1</property>
   <property name="5">1</property>
   <property name="6">1</property>
   <property name="7">5</property>
   <property name="wetness">1</property>
   <property name="kdenlive:collapsed">0</property>
   <property name="instances">1</property>
  </filter>
  <filter id="filter17">
   <property name="channel">-1</property>
   <property name="mlt_service">panner</property>
   <property name="internal_added">237</property>
   <property name="start">0.5</property>
   <property name="disable">1</property>
  </filter>
  <filter id="filter18">
   <property name="window">75</property>
   <property name="max_gain">20dB</property>
   <property name="mlt_service">volume</property>
   <property name="internal_added">237</property>
   <property name="disable">1</property>
  </filter>
  <filter id="filter19">
   <property name="iec_scale">0</property>
   <property name="mlt_service">audiolevel</property>
   <property name="dbpeak">1</property>
   <property name="disable">1</property>
  </filter>
 </tractor>
 <chain id="chain2" out="01:49:06.215">
  <property name="length">156952</property>
  <property name="eof">pause</property>
  <property name="resource">/Horror and SciFi/The Terminator DVD Boxset Part 1, 2, 3 &amp; 4/Terminator III - The Rise of the Machines (2003)/Terminator.3.Rise.of.the.Machines.2003.1080p.BluRay.x264/Terminator.3.Rise.of.the.Machines.2003.1080p.BluRay.x264.mkv</property>
  <property name="mlt_service">avformat-novalidate</property>
  <property name="seekable">1</property>
  <property name="audio_index">1</property>
  <property name="video_index">0</property>
  <property name="vstream">0</property>
  <property name="astream">0</property>
  <property name="kdenlive:control_uuid">{8a480ecc-b631-4a2f-b493-6a744a94365a}</property>
  <property name="kdenlive:proxy">-</property>
  <property name="kdenlive:originalurl">/Horror and SciFi/The Terminator DVD Boxset Part 1, 2, 3 &amp; 4/Terminator III - The Rise of the Machines (2003)/Terminator.3.Rise.of.the.Machines.2003.1080p.BluRay.x264/Terminator.3.Rise.of.the.Machines.2003.1080p.BluRay.x264.mkv</property>
  <property name="kdenlive:id">4</property>
  <property name="mute_on_pause">0</property>
  <property name="kdenlive:clip_type">0</property>
  <property name="kdenlive:file_size">12299138322</property>
  <property name="kdenlive:file_hash">7d0a41a44b5c23a12a68a058620a51f8</property>
  <property name="kdenlive:folderid">2</property>
  <property name="meta.media.nb_streams">7</property>
  <property name="meta.media.0.stream.type">video</property>
  <property name="meta.media.0.stream.frame_rate">23.976</property>
  <property name="meta.media.0.stream.sample_aspect_ratio">1</property>
  <property name="meta.media.0.codec.width">1920</property>
  <property name="meta.media.0.codec.height">790</property>
  <property name="meta.media.0.codec.rotate">0</property>
  <property name="meta.media.0.codec.pix_fmt">yuv420p</property>
  <property name="meta.media.0.codec.sample_aspect_ratio">1</property>
  <property name="meta.media.0.codec.colorspace">709</property>
  <property name="meta.media.0.codec.color_trc">1</property>
  <property name="meta.media.0.codec.name">h264</property>
  <property name="meta.media.0.codec.long_name">H.264 / AVC / MPEG-4 AVC / MPEG-4 part 10</property>
  <property name="meta.media.0.codec.bit_rate">0</property>
  <property name="meta.attr.0.stream.language.markup">eng</property>
  <property name="meta.media.1.stream.type">audio</property>
  <property name="meta.media.1.codec.sample_fmt">fltp</property>
  <property name="meta.media.1.codec.sample_rate">48000</property>
  <property name="meta.media.1.codec.channels">6</property>
  <property name="meta.media.1.codec.layout">5.1(side)</property>
  <property name="meta.media.1.codec.name">dca</property>
  <property name="meta.media.1.codec.long_name">DCA (DTS Coherent Acoustics)</property>
  <property name="meta.media.1.codec.bit_rate">1536000</property>
  <property name="meta.attr.1.stream.language.markup">eng</property>
  <property name="meta.media.2.codec.name">srt</property>
  <property name="meta.media.2.codec.long_name">SubRip subtitle</property>
  <property name="meta.media.2.codec.bit_rate">0</property>
  <property name="meta.attr.2.stream.language.markup">eng</property>
  <property name="meta.media.3.stream.type">video</property>
  <property name="meta.media.3.stream.frame_rate">90000</property>
  <property name="meta.media.3.stream.sample_aspect_ratio">0</property>
  <property name="meta.media.3.codec.width">1067</property>
  <property name="meta.media.3.codec.height">600</property>
  <property name="meta.media.3.codec.rotate">0</property>
  <property name="meta.media.3.codec.pix_fmt">yuvj444p</property>
  <property name="meta.media.3.codec.sample_aspect_ratio">0</property>
  <property name="meta.media.3.codec.colorspace">601</property>
  <property name="meta.media.3.codec.name">mjpeg</property>
  <property name="meta.media.3.codec.long_name">MJPEG (Motion JPEG)</property>
  <property name="meta.media.3.codec.bit_rate">0</property>
  <property name="meta.attr.3.stream.filename.markup">cover_land.jpg</property>
  <property name="meta.attr.3.stream.mimetype.markup">image/jpeg</property>
  <property name="meta.media.4.stream.type">video</property>
  <property name="meta.media.4.stream.frame_rate">90000</property>
  <property name="meta.media.4.stream.sample_aspect_ratio">0</property>
  <property name="meta.media.4.codec.width">120</property>
  <property name="meta.media.4.codec.height">176</property>
  <property name="meta.media.4.codec.rotate">0</property>
  <property name="meta.media.4.codec.pix_fmt">yuvj444p</property>
  <property name="meta.media.4.codec.sample_aspect_ratio">0</property>
  <property name="meta.media.4.codec.colorspace">601</property>
  <property name="meta.media.4.codec.name">mjpeg</property>
  <property name="meta.media.4.codec.long_name">MJPEG (Motion JPEG)</property>
  <property name="meta.media.4.codec.bit_rate">0</property>
  <property name="meta.attr.4.stream.filename.markup">small_cover.jpg</property>
  <property name="meta.attr.4.stream.mimetype.markup">image/jpeg</property>
  <property name="meta.media.5.stream.type">video</property>
  <property name="meta.media.5.stream.frame_rate">90000</property>
  <property name="meta.media.5.stream.sample_aspect_ratio">0</property>
  <property name="meta.media.5.codec.width">213</property>
  <property name="meta.media.5.codec.height">120</property>
  <property name="meta.media.5.codec.rotate">0</property>
  <property name="meta.media.5.codec.pix_fmt">yuvj444p</property>
  <property name="meta.media.5.codec.sample_aspect_ratio">0</property>
  <property name="meta.media.5.codec.colorspace">601</property>
  <property name="meta.media.5.codec.name">mjpeg</property>
  <property name="meta.media.5.codec.long_name">MJPEG (Motion JPEG)</property>
  <property name="meta.media.5.codec.bit_rate">0</property>
  <property name="meta.attr.5.stream.filename.markup">small_cover_land.jpg</property>
  <property name="meta.attr.5.stream.mimetype.markup">image/jpeg</property>
  <property name="meta.media.6.stream.type">video</property>
  <property name="meta.media.6.stream.frame_rate">90000</property>
  <property name="meta.media.6.stream.sample_aspect_ratio">0</property>
  <property name="meta.media.6.codec.width">600</property>
  <property name="meta.media.6.codec.height">882</property>
  <property name="meta.media.6.codec.rotate">0</property>
  <property name="meta.media.6.codec.pix_fmt">yuvj444p</property>
  <property name="meta.media.6.codec.sample_aspect_ratio">0</property>
  <property name="meta.media.6.codec.colorspace">601</property>
  <property name="meta.media.6.codec.name">mjpeg</property>
  <property name="meta.media.6.codec.long_name">MJPEG (Motion JPEG)</property>
  <property name="meta.media.6.codec.bit_rate">0</property>
  <property name="meta.attr.6.stream.filename.markup">cover.jpg</property>
  <property name="meta.attr.6.stream.mimetype.markup">image/jpeg</property>
  <property name="meta.attr.title.markup">Terminator.3.Rise.of.the.Machines.2003.1080p.BluRay.x264</property>
  <property name="meta.attr.encoder.markup">libebml v1.3.1 + libmatroska v1.4.2</property>
  <property name="meta.attr.creation_time.markup">2015-06-21T10:42:15.000000Z</property>
  <property name="meta.media.sample_aspect_num">1</property>
  <property name="meta.media.sample_aspect_den">1</property>
  <property name="meta.media.frame_rate_num">24000</property>
  <property name="meta.media.frame_rate_den">1001</property>
  <property name="meta.media.colorspace">709</property>
  <property name="meta.media.color_trc">1</property>
  <property name="meta.media.has_b_frames">2</property>
  <property name="meta.media.width">1920</property>
  <property name="meta.media.height">790</property>
  <property name="meta.media.aspect_ratio">1</property>
  <property name="meta.media.color_range">mpeg</property>
  <property name="xml">was here</property>
  <property name="meta.media.top_field_first">0</property>
  <property name="meta.media.progressive">1</property>
  <property name="set.test_audio">0</property>
  <property name="set.test_image">1</property>
 </chain>
 <chain id="chain3" out="00:02:37.412">
  <property name="length">3775</property>
  <property name="eof">pause</property>
  <property name="resource">ost/Brass Monkey.mp3</property>
  <property name="mlt_service">avformat-novalidate</property>
  <property name="seekable">1</property>
  <property name="audio_index">0</property>
  <property name="video_index">-1</property>
  <property name="astream">0</property>
  <property name="kdenlive:folderid">-1</property>
  <property name="kdenlive:id">5</property>
  <property name="kdenlive:control_uuid">{59d6f42e-ddce-49a5-a04b-0a10b77663fc}</property>
  <property name="kdenlive:clip_type">1</property>
  <property name="kdenlive:file_size">3779757</property>
  <property name="kdenlive:file_hash">9ca4e33272f7d81cc90e6a2830328337</property>
  <property name="meta.media.nb_streams">1</property>
  <property name="meta.media.0.stream.type">audio</property>
  <property name="meta.media.0.codec.sample_fmt">fltp</property>
  <property name="meta.media.0.codec.sample_rate">48000</property>
  <property name="meta.media.0.codec.channels">2</property>
  <property name="meta.media.0.codec.layout">stereo</property>
  <property name="meta.media.0.codec.name">mp3float</property>
  <property name="meta.media.0.codec.long_name">MP3 (MPEG audio layer 3)</property>
  <property name="meta.media.0.codec.bit_rate">192000</property>
  <property name="meta.attr.0.stream.encoder.markup">Lavc58.54</property>
  <property name="meta.attr.encoder.markup">Lavf58.29.100</property>
  <property name="xml">was here</property>
  <property name="mute_on_pause">0</property>
  <property name="set.test_audio">0</property>
  <property name="set.test_image">1</property>
 </chain>
 <chain id="chain4" out="00:02:23.982">
  <property name="length">3453</property>
  <property name="eof">pause</property>
  <property name="resource">ost/Radio.mp3</property>
  <property name="mlt_service">avformat-novalidate</property>
  <property name="seekable">1</property>
  <property name="audio_index">0</property>
  <property name="video_index">-1</property>
  <property name="astream">0</property>
  <property name="kdenlive:folderid">-1</property>
  <property name="kdenlive:id">6</property>
  <property name="kdenlive:control_uuid">{f601cf47-f43e-445d-a4e0-919d60d36a18}</property>
  <property name="kdenlive:clip_type">1</property>
  <property name="kdenlive:file_size">3457077</property>
  <property name="kdenlive:file_hash">6f3d3304f980cc9952d1c2a9aaefe0f2</property>
  <property name="meta.media.nb_streams">1</property>
  <property name="meta.media.0.stream.type">audio</property>
  <property name="meta.media.0.codec.sample_fmt">fltp</property>
  <property name="meta.media.0.codec.sample_rate">44100</property>
  <property name="meta.media.0.codec.channels">2</property>
  <property name="meta.media.0.codec.layout">stereo</property>
  <property name="meta.media.0.codec.name">mp3float</property>
  <property name="meta.media.0.codec.long_name">MP3 (MPEG audio layer 3)</property>
  <property name="meta.media.0.codec.bit_rate">192000</property>
  <property name="meta.attr.0.stream.encoder.markup">Lavc60.31</property>
  <property name="meta.attr.major_brand.markup">dash</property>
  <property name="meta.attr.minor_version.markup">0</property>
  <property name="meta.attr.compatible_brands.markup">iso6mp41</property>
  <property name="meta.attr.encoder.markup">Lavf60.16.100</property>
  <property name="xml">was here</property>
  <property name="mute_on_pause">0</property>
  <property name="set.test_audio">0</property>
  <property name="set.test_image">1</property>
 </chain>
 <chain id="chain5" out="00:04:00.459">
  <property name="length">5766</property>
  <property name="eof">pause</property>
  <property name="resource">ost/11 I'll Be Back.mp3</property>
  <property name="mlt_service">avformat-novalidate</property>
  <property name="seekable">1</property>
  <property name="audio_index">0</property>
  <property name="video_index">-1</property>
  <property name="astream">0</property>
  <property name="kdenlive:folderid">-1</property>
  <property name="kdenlive:id">11</property>
  <property name="kdenlive:control_uuid">{9ace7c1f-77a6-47a2-b360-ccc35ce17180}</property>
  <property name="kdenlive:clip_type">1</property>
  <property name="kdenlive:file_size">9623896</property>
  <property name="kdenlive:file_hash">a7427cb5df2ddb7433df111b2fbaa3af</property>
  <property name="meta.media.nb_streams">1</property>
  <property name="meta.media.0.stream.type">audio</property>
  <property name="meta.media.0.codec.sample_fmt">fltp</property>
  <property name="meta.media.0.codec.sample_rate">44100</property>
  <property name="meta.media.0.codec.channels">2</property>
  <property name="meta.media.0.codec.layout">stereo</property>
  <property name="meta.media.0.codec.name">mp3float</property>
  <property name="meta.media.0.codec.long_name">MP3 (MPEG audio layer 3)</property>
  <property name="meta.media.0.codec.bit_rate">320000</property>
  <property name="meta.attr.TLEN.markup">240693</property>
  <property name="meta.attr.album.markup">Terminator 2: Judgment Day</property>
  <property name="meta.attr.title.markup">I'll Be Back</property>
  <property name="meta.attr.track.markup">11</property>
  <property name="meta.attr.genre.markup">Soundtrack</property>
  <property name="meta.attr.composer.markup">Brad Fiedel</property>
  <property name="meta.attr.artist.markup">Brad Fiedel</property>
  <property name="meta.attr.date.markup">1991</property>
  <property name="meta.attr.id3v2_priv.PeakValue.markup">\xa1]\x00\x00</property>
  <property name="meta.attr.id3v2_priv.AverageLevel.markup">{\x09\x00\x00</property>
  <property name="xml">was here</property>
  <property name="mute_on_pause">0</property>
  <property name="set.test_audio">0</property>
  <property name="set.test_image">1</property>
 </chain>
 <playlist id="playlist4">
  <property name="kdenlive:audio_track">1</property>
  <blank length="00:06:37.537"/>
  <entry in="00:09:17.267" out="00:09:20.687" producer="chain2">
   <property name="kdenlive:id">4</property>
  </entry>
  <blank length="00:28:55.138"/>
  <entry in="00:01:56.306" out="00:02:03.086" producer="chain3">
   <property name="kdenlive:id">5</property>
   <filter id="filter21">
    <property name="window">75</property>
    <property name="max_gain">20dB</property>
    <property name="level">00:01:56.306=-28</property>
    <property name="mlt_service">volume</property>
    <property name="kdenlive_id">volume</property>
    <property name="kdenlive:collapsed">0</property>
   </filter>
   <filter id="filter22" in="00:01:56.306" out="00:01:56.765">
    <property name="window">75</property>
    <property name="max_gain">20dB</property>
    <property name="mlt_service">volume</property>
    <property name="kdenlive_id">fadein</property>
    <property name="gain">0</property>
    <property name="end">1</property>
    <property name="kdenlive:collapsed">0</property>
   </filter>
  </entry>
  <entry in="00:02:03.128" out="00:02:12.137" producer="chain3">
   <property name="kdenlive:id">5</property>
   <filter id="filter23">
    <property name="window">75</property>
    <property name="max_gain">20dB</property>
    <property name="level">00:02:03.128=-14</property>
    <property name="mlt_service">volume</property>
    <property name="kdenlive_id">volume</property>
    <property name="kdenlive:collapsed">0</property>
   </filter>
   <filter id="filter24" in="00:02:11.261" out="00:02:12.137">
    <property name="window">75</property>
    <property name="max_gain">20dB</property>
    <property name="mlt_service">volume</property>
    <property name="kdenlive_id">fadeout</property>
    <property name="gain">1</property>
    <property name="end">0</property>
    <property name="kdenlive:collapsed">0</property>
   </filter>
   <filter id="filter25" in="00:02:03.128" out="00:02:03.253">
    <property name="window">75</property>
    <property name="max_gain">20dB</property>
    <property name="mlt_service">volume</property>
    <property name="kdenlive_id">fadein</property>
    <property name="gain">0</property>
    <property name="end">1</property>
    <property name="kdenlive:collapsed">0</property>
   </filter>
  </entry>
  <blank length="00:49:08.050"/>
  <entry in="00:00:32.866" out="00:02:13.180" producer="chain4">
   <property name="kdenlive:id">6</property>
   <filter id="filter26" in="00:00:32.866" out="00:00:45.712">
    <property name="window">75</property>
    <property name="max_gain">20dB</property>
    <property name="mlt_service">volume</property>
    <property name="kdenlive_id">fadein</property>
    <property name="gain">0</property>
    <property name="end">1</property>
    <property name="kdenlive:collapsed">0</property>
   </filter>
   <filter id="filter27">
    <property name="window">75</property>
    <property name="max_gain">20dB</property>
    <property name="level">00:00:32.866=-11</property>
    <property name="mlt_service">volume</property>
    <property name="kdenlive_id">volume</property>
    <property name="kdenlive:collapsed">0</property>
   </filter>
  </entry>
  <entry in="00:02:13.222" out="00:02:23.815" producer="chain4">
   <property name="kdenlive:id">6</property>
   <filter id="filter28">
    <property name="window">75</property>
    <property name="max_gain">20dB</property>
    <property name="level">00:02:13.222=-11</property>
    <property name="mlt_service">volume</property>
    <property name="kdenlive_id">volume</property>
    <property name="kdenlive:collapsed">0</property>
   </filter>
   <filter id="filter29" in="00:02:13.472" out="00:02:23.815">
    <property name="window">75</property>
    <property name="max_gain">20dB</property>
    <property name="mlt_service">volume</property>
    <property name="kdenlive_id">fadeout</property>
    <property name="gain">1</property>
    <property name="end">0</property>
    <property name="kdenlive:collapsed">0</property>
   </filter>
  </entry>
  <entry in="00:02:23.857" out="00:02:23.982" producer="chain4">
   <property name="kdenlive:id">6</property>
   <filter id="filter30">
    <property name="window">75</property>
    <property name="max_gain">20dB</property>
    <property name="level">00:02:23.857=-11</property>
    <property name="mlt_service">volume</property>
    <property name="kdenlive_id">volume</property>
    <property name="kdenlive:collapsed">0</property>
   </filter>
  </entry>
  <blank length="00:03:54.888"/>
  <entry in="00:00:47.923" out="00:04:00.459" producer="chain5">
   <property name="kdenlive:id">11</property>
   <filter id="filter31" in="00:00:47.923" out="00:01:04.296">
    <property name="window">75</property>
    <property name="max_gain">20dB</property>
    <property name="mlt_service">volume</property>
    <property name="kdenlive_id">fadein</property>
    <property name="gain">0</property>
    <property name="end">1</property>
    <property name="kdenlive:collapsed">0</property>
   </filter>
   <filter id="filter32">
    <property name="window">75</property>
    <property name="max_gain">20dB</property>
    <property name="level">00:00:47.923=-13</property>
    <property name="mlt_service">volume</property>
    <property name="kdenlive_id">volume</property>
    <property name="kdenlive:collapsed">0</property>
   </filter>
  </entry>
 </playlist>
 <playlist id="playlist5">
  <property name="kdenlive:audio_track">1</property>
 </playlist>
 <tractor id="tractor2" in="00:00:00.000" out="01:33:58.600">
  <property name="kdenlive:audio_track">1</property>
  <property name="kdenlive:trackheight">84</property>
  <property name="kdenlive:timeline_active">1</property>
  <property name="kdenlive:collapsed">0</property>
  <property name="kdenlive:thumbs_format"/>
  <property name="kdenlive:audio_rec"/>
  <track hide="video" producer="playlist4"/>
  <track hide="video" producer="playlist5"/>
  <filter id="filter33">
   <property name="window">75</property>
   <property name="max_gain">20dB</property>
   <property name="mlt_service">volume</property>
   <property name="internal_added">237</property>
   <property name="disable">1</property>
  </filter>
  <filter id="filter34">
   <property name="channel">-1</property>
   <property name="mlt_service">panner</property>
   <property name="internal_added">237</property>
   <property name="start">0.5</property>
   <property name="disable">1</property>
  </filter>
  <filter id="filter35">
   <property name="iec_scale">0</property>
   <property name="mlt_service">audiolevel</property>
   <property name="dbpeak">1</property>
   <property name="disable">1</property>
  </filter>
 </tractor>
 <chain id="chain6" out="01:49:06.215">
  <property name="length">156952</property>
  <property name="eof">pause</property>
  <property name="resource">/Horror and SciFi/The Terminator DVD Boxset Part 1, 2, 3 &amp; 4/Terminator III - The Rise of the Machines (2003)/Terminator.3.Rise.of.the.Machines.2003.1080p.BluRay.x264/Terminator.3.Rise.of.the.Machines.2003.1080p.BluRay.x264.mkv</property>
  <property name="mlt_service">avformat-novalidate</property>
  <property name="seekable">1</property>
  <property name="audio_index">1</property>
  <property name="video_index">0</property>
  <property name="vstream">0</property>
  <property name="astream">0</property>
  <property name="kdenlive:control_uuid">{8a480ecc-b631-4a2f-b493-6a744a94365a}</property>
  <property name="kdenlive:proxy">-</property>
  <property name="kdenlive:originalurl">/Horror and SciFi/The Terminator DVD Boxset Part 1, 2, 3 &amp; 4/Terminator III - The Rise of the Machines (2003)/Terminator.3.Rise.of.the.Machines.2003.1080p.BluRay.x264/Terminator.3.Rise.of.the.Machines.2003.1080p.BluRay.x264.mkv</property>
  <property name="kdenlive:id">4</property>
  <property name="mute_on_pause">0</property>
  <property name="kdenlive:clip_type">0</property>
  <property name="kdenlive:file_size">12299138322</property>
  <property name="kdenlive:file_hash">7d0a41a44b5c23a12a68a058620a51f8</property>
  <property name="kdenlive:folderid">2</property>
  <property name="meta.media.nb_streams">7</property>
  <property name="meta.media.0.stream.type">video</property>
  <property name="meta.media.0.stream.frame_rate">23.976</property>
  <property name="meta.media.0.stream.sample_aspect_ratio">1</property>
  <property name="meta.media.0.codec.width">1920</property>
  <property name="meta.media.0.codec.height">790</property>
  <property name="meta.media.0.codec.rotate">0</property>
  <property name="meta.media.0.codec.pix_fmt">yuv420p</property>
  <property name="meta.media.0.codec.sample_aspect_ratio">1</property>
  <property name="meta.media.0.codec.colorspace">709</property>
  <property name="meta.media.0.codec.color_trc">1</property>
  <property name="meta.media.0.codec.name">h264</property>
  <property name="meta.media.0.codec.long_name">H.264 / AVC / MPEG-4 AVC / MPEG-4 part 10</property>
  <property name="meta.media.0.codec.bit_rate">0</property>
  <property name="meta.attr.0.stream.language.markup">eng</property>
  <property name="meta.media.1.stream.type">audio</property>
  <property name="meta.media.1.codec.sample_fmt">fltp</property>
  <property name="meta.media.1.codec.sample_rate">48000</property>
  <property name="meta.media.1.codec.channels">6</property>
  <property name="meta.media.1.codec.layout">5.1(side)</property>
  <property name="meta.media.1.codec.name">dca</property>
  <property name="meta.media.1.codec.long_name">DCA (DTS Coherent Acoustics)</property>
  <property name="meta.media.1.codec.bit_rate">1536000</property>
  <property name="meta.attr.1.stream.language.markup">eng</property>
  <property name="meta.media.2.codec.name">srt</property>
  <property name="meta.media.2.codec.long_name">SubRip subtitle</property>
  <property name="meta.media.2.codec.bit_rate">0</property>
  <property name="meta.attr.2.stream.language.markup">eng</property>
  <property name="meta.media.3.stream.type">video</property>
  <property name="meta.media.3.stream.frame_rate">90000</property>
  <property name="meta.media.3.stream.sample_aspect_ratio">0</property>
  <property name="meta.media.3.codec.width">1067</property>
  <property name="meta.media.3.codec.height">600</property>
  <property name="meta.media.3.codec.rotate">0</property>
  <property name="meta.media.3.codec.pix_fmt">yuvj444p</property>
  <property name="meta.media.3.codec.sample_aspect_ratio">0</property>
  <property name="meta.media.3.codec.colorspace">601</property>
  <property name="meta.media.3.codec.name">mjpeg</property>
  <property name="meta.media.3.codec.long_name">MJPEG (Motion JPEG)</property>
  <property name="meta.media.3.codec.bit_rate">0</property>
  <property name="meta.attr.3.stream.filename.markup">cover_land.jpg</property>
  <property name="meta.attr.3.stream.mimetype.markup">image/jpeg</property>
  <property name="meta.media.4.stream.type">video</property>
  <property name="meta.media.4.stream.frame_rate">90000</property>
  <property name="meta.media.4.stream.sample_aspect_ratio">0</property>
  <property name="meta.media.4.codec.width">120</property>
  <property name="meta.media.4.codec.height">176</property>
  <property name="meta.media.4.codec.rotate">0</property>
  <property name="meta.media.4.codec.pix_fmt">yuvj444p</property>
  <property name="meta.media.4.codec.sample_aspect_ratio">0</property>
  <property name="meta.media.4.codec.colorspace">601</property>
  <property name="meta.media.4.codec.name">mjpeg</property>
  <property name="meta.media.4.codec.long_name">MJPEG (Motion JPEG)</property>
  <property name="meta.media.4.codec.bit_rate">0</property>
  <property name="meta.attr.4.stream.filename.markup">small_cover.jpg</property>
  <property name="meta.attr.4.stream.mimetype.markup">image/jpeg</property>
  <property name="meta.media.5.stream.type">video</property>
  <property name="meta.media.5.stream.frame_rate">90000</property>
  <property name="meta.media.5.stream.sample_aspect_ratio">0</property>
  <property name="meta.media.5.codec.width">213</property>
  <property name="meta.media.5.codec.height">120</property>
  <property name="meta.media.5.codec.rotate">0</property>
  <property name="meta.media.5.codec.pix_fmt">yuvj444p</property>
  <property name="meta.media.5.codec.sample_aspect_ratio">0</property>
  <property name="meta.media.5.codec.colorspace">601</property>
  <property name="meta.media.5.codec.name">mjpeg</property>
  <property name="meta.media.5.codec.long_name">MJPEG (Motion JPEG)</property>
  <property name="meta.media.5.codec.bit_rate">0</property>
  <property name="meta.attr.5.stream.filename.markup">small_cover_land.jpg</property>
  <property name="meta.attr.5.stream.mimetype.markup">image/jpeg</property>
  <property name="meta.media.6.stream.type">video</property>
  <property name="meta.media.6.stream.frame_rate">90000</property>
  <property name="meta.media.6.stream.sample_aspect_ratio">0</property>
  <property name="meta.media.6.codec.width">600</property>
  <property name="meta.media.6.codec.height">882</property>
  <property name="meta.media.6.codec.rotate">0</property>
  <property name="meta.media.6.codec.pix_fmt">yuvj444p</property>
  <property name="meta.media.6.codec.sample_aspect_ratio">0</property>
  <property name="meta.media.6.codec.colorspace">601</property>
  <property name="meta.media.6.codec.name">mjpeg</property>
  <property name="meta.media.6.codec.long_name">MJPEG (Motion JPEG)</property>
  <property name="meta.media.6.codec.bit_rate">0</property>
  <property name="meta.attr.6.stream.filename.markup">cover.jpg</property>
  <property name="meta.attr.6.stream.mimetype.markup">image/jpeg</property>
  <property name="meta.attr.title.markup">Terminator.3.Rise.of.the.Machines.2003.1080p.BluRay.x264</property>
  <property name="meta.attr.encoder.markup">libebml v1.3.1 + libmatroska v1.4.2</property>
  <property name="meta.attr.creation_time.markup">2015-06-21T10:42:15.000000Z</property>
  <property name="meta.media.sample_aspect_num">1</property>
  <property name="meta.media.sample_aspect_den">1</property>
  <property name="meta.media.frame_rate_num">24000</property>
  <property name="meta.media.frame_rate_den">1001</property>
  <property name="meta.media.colorspace">709</property>
  <property name="meta.media.color_trc">1</property>
  <property name="meta.media.has_b_frames">2</property>
  <property name="meta.media.width">1920</property>
  <property name="meta.media.height">790</property>
  <property name="meta.media.aspect_ratio">1</property>
  <property name="meta.media.color_range">mpeg</property>
  <property name="xml">was here</property>
  <property name="meta.media.top_field_first">0</property>
  <property name="meta.media.progressive">1</property>
  <property name="set.test_audio">0</property>
  <property name="set.test_image">1</property>
 </chain>
 <producer id="producer1" in="00:00:00.000" out="02:45:18.268">
  <property name="length">237806</property>
  <property name="eof">pause</property>
  <property name="resource">0.660000:/Horror and SciFi/The Terminator DVD Boxset Part 1, 2, 3 &amp; 4/Terminator III - The Rise of the Machines (2003)/Terminator.3.Rise.of.the.Machines.2003.1080p.BluRay.x264/Terminator.3.Rise.of.the.Machines.2003.1080p.BluRay.x264.mkv</property>
  <property name="aspect_ratio">1</property>
  <property name="meta.media.nb_streams">7</property>
  <property name="meta.media.0.stream.type">video</property>
  <property name="meta.media.0.stream.frame_rate">23.976</property>
  <property name="meta.media.0.stream.sample_aspect_ratio">1</property>
  <property name="meta.media.0.codec.width">1920</property>
  <property name="meta.media.0.codec.height">790</property>
  <property name="meta.media.0.codec.rotate">0</property>
  <property name="meta.media.0.codec.pix_fmt">yuv420p</property>
  <property name="meta.media.0.codec.sample_aspect_ratio">1</property>
  <property name="meta.media.0.codec.colorspace">709</property>
  <property name="meta.media.0.codec.color_trc">1</property>
  <property name="meta.media.0.codec.name">h264</property>
  <property name="meta.media.0.codec.long_name">H.264 / AVC / MPEG-4 AVC / MPEG-4 part 10</property>
  <property name="meta.media.0.codec.bit_rate">0</property>
  <property name="meta.attr.0.stream.language.markup">eng</property>
  <property name="meta.media.1.stream.type">audio</property>
  <property name="meta.media.1.codec.sample_fmt">fltp</property>
  <property name="meta.media.1.codec.sample_rate">48000</property>
  <property name="meta.media.1.codec.channels">6</property>
  <property name="meta.media.1.codec.layout">5.1(side)</property>
  <property name="meta.media.1.codec.name">dca</property>
  <property name="meta.media.1.codec.long_name">DCA (DTS Coherent Acoustics)</property>
  <property name="meta.media.1.codec.bit_rate">1536000</property>
  <property name="meta.attr.1.stream.language.markup">eng</property>
  <property name="meta.media.2.codec.name">srt</property>
  <property name="meta.media.2.codec.long_name">SubRip subtitle</property>
  <property name="meta.media.2.codec.bit_rate">0</property>
  <property name="meta.attr.2.stream.language.markup">eng</property>
  <property name="meta.media.3.stream.type">video</property>
  <property name="meta.media.3.stream.frame_rate">90000</property>
  <property name="meta.media.3.stream.sample_aspect_ratio">0</property>
  <property name="meta.media.3.codec.width">1067</property>
  <property name="meta.media.3.codec.height">600</property>
  <property name="meta.media.3.codec.rotate">0</property>
  <property name="meta.media.3.codec.pix_fmt">yuvj444p</property>
  <property name="meta.media.3.codec.sample_aspect_ratio">0</property>
  <property name="meta.media.3.codec.colorspace">601</property>
  <property name="meta.media.3.codec.name">mjpeg</property>
  <property name="meta.media.3.codec.long_name">MJPEG (Motion JPEG)</property>
  <property name="meta.media.3.codec.bit_rate">0</property>
  <property name="meta.attr.3.stream.filename.markup">cover_land.jpg</property>
  <property name="meta.attr.3.stream.mimetype.markup">image/jpeg</property>
  <property name="meta.media.4.stream.type">video</property>
  <property name="meta.media.4.stream.frame_rate">90000</property>
  <property name="meta.media.4.stream.sample_aspect_ratio">0</property>
  <property name="meta.media.4.codec.width">120</property>
  <property name="meta.media.4.codec.height">176</property>
  <property name="meta.media.4.codec.rotate">0</property>
  <property name="meta.media.4.codec.pix_fmt">yuvj444p</property>
  <property name="meta.media.4.codec.sample_aspect_ratio">0</property>
  <property name="meta.media.4.codec.colorspace">601</property>
  <property name="meta.media.4.codec.name">mjpeg</property>
  <property name="meta.media.4.codec.long_name">MJPEG (Motion JPEG)</property>
  <property name="meta.media.4.codec.bit_rate">0</property>
  <property name="meta.attr.4.stream.filename.markup">small_cover.jpg</property>
  <property name="meta.attr.4.stream.mimetype.markup">image/jpeg</property>
  <property name="meta.media.5.stream.type">video</property>
  <property name="meta.media.5.stream.frame_rate">90000</property>
  <property name="meta.media.5.stream.sample_aspect_ratio">0</property>
  <property name="meta.media.5.codec.width">213</property>
  <property name="meta.media.5.codec.height">120</property>
  <property name="meta.media.5.codec.rotate">0</property>
  <property name="meta.media.5.codec.pix_fmt">yuvj444p</property>
  <property name="meta.media.5.codec.sample_aspect_ratio">0</property>
  <property name="meta.media.5.codec.colorspace">601</property>
  <property name="meta.media.5.codec.name">mjpeg</property>
  <property name="meta.media.5.codec.long_name">MJPEG (Motion JPEG)</property>
  <property name="meta.media.5.codec.bit_rate">0</property>
  <property name="meta.attr.5.stream.filename.markup">small_cover_land.jpg</property>
  <property name="meta.attr.5.stream.mimetype.markup">image/jpeg</property>
  <property name="meta.media.6.stream.type">video</property>
  <property name="meta.media.6.stream.frame_rate">90000</property>
  <property name="meta.media.6.stream.sample_aspect_ratio">0</property>
  <property name="meta.media.6.codec.width">600</property>
  <property name="meta.media.6.codec.height">882</property>
  <property name="meta.media.6.codec.rotate">0</property>
  <property name="meta.media.6.codec.pix_fmt">yuvj444p</property>
  <property name="meta.media.6.codec.sample_aspect_ratio">0</property>
  <property name="meta.media.6.codec.colorspace">601</property>
  <property name="meta.media.6.codec.name">mjpeg</property>
  <property name="meta.media.6.codec.long_name">MJPEG (Motion JPEG)</property>
  <property name="meta.media.6.codec.bit_rate">0</property>
  <property name="meta.attr.6.stream.filename.markup">cover.jpg</property>
  <property name="meta.attr.6.stream.mimetype.markup">image/jpeg</property>
  <property name="meta.attr.title.markup">Terminator.3.Rise.of.the.Machines.2003.1080p.BluRay.x264</property>
  <property name="meta.attr.encoder.markup">libebml v1.3.1 + libmatroska v1.4.2</property>
  <property name="meta.attr.creation_time.markup">2015-06-21T10:42:15.000000Z</property>
  <property name="seekable">1</property>
  <property name="meta.media.sample_aspect_num">1</property>
  <property name="meta.media.sample_aspect_den">1</property>
  <property name="audio_index">1</property>
  <property name="video_index">0</property>
  <property name="warp_speed">0.66</property>
  <property name="warp_resource">/Horror and SciFi/The Terminator DVD Boxset Part 1, 2, 3 &amp; 4/Terminator III - The Rise of the Machines (2003)/Terminator.3.Rise.of.the.Machines.2003.1080p.BluRay.x264/Terminator.3.Rise.of.the.Machines.2003.1080p.BluRay.x264.mkv</property>
  <property name="mlt_service">timewarp</property>
  <property name="kdenlive:control_uuid">{8a480ecc-b631-4a2f-b493-6a744a94365a}</property>
  <property name="kdenlive:proxy">-</property>
  <property name="kdenlive:originalurl">/Horror and SciFi/The Terminator DVD Boxset Part 1, 2, 3 &amp; 4/Terminator III - The Rise of the Machines (2003)/Terminator.3.Rise.of.the.Machines.2003.1080p.BluRay.x264/Terminator.3.Rise.of.the.Machines.2003.1080p.BluRay.x264.mkv</property>
  <property name="vstream">0</property>
  <property name="astream">0</property>
  <property name="set.test_audio">0</property>
  <property name="set.test_image">1</property>
  <property name="kdenlive:id">4</property>
  <property name="warp_pitch">0</property>
  <property name="meta.media.frame_rate_num">24000</property>
  <property name="meta.media.frame_rate_den">1001</property>
  <property name="meta.media.colorspace">709</property>
  <property name="meta.media.color_trc">1</property>
  <property name="meta.media.has_b_frames">2</property>
  <property name="meta.media.width">1920</property>
  <property name="meta.media.height">790</property>
  <property name="meta.media.aspect_ratio">1</property>
  <property name="meta.media.color_range">mpeg</property>
 </producer>
 <producer id="producer2" in="00:00:00.000" out="02:45:18.268">
  <property name="length">237806</property>
  <property name="eof">pause</property>
  <property name="resource">0.660000:/Horror and SciFi/The Terminator DVD Boxset Part 1, 2, 3 &amp; 4/Terminator III - The Rise of the Machines (2003)/Terminator.3.Rise.of.the.Machines.2003.1080p.BluRay.x264/Terminator.3.Rise.of.the.Machines.2003.1080p.BluRay.x264.mkv</property>
  <property name="aspect_ratio">1</property>
  <property name="meta.media.nb_streams">7</property>
  <property name="meta.media.0.stream.type">video</property>
  <property name="meta.media.0.stream.frame_rate">23.976</property>
  <property name="meta.media.0.stream.sample_aspect_ratio">1</property>
  <property name="meta.media.0.codec.width">1920</property>
  <property name="meta.media.0.codec.height">790</property>
  <property name="meta.media.0.codec.rotate">0</property>
  <property name="meta.media.0.codec.pix_fmt">yuv420p</property>
  <property name="meta.media.0.codec.sample_aspect_ratio">1</property>
  <property name="meta.media.0.codec.colorspace">709</property>
  <property name="meta.media.0.codec.color_trc">1</property>
  <property name="meta.media.0.codec.name">h264</property>
  <property name="meta.media.0.codec.long_name">H.264 / AVC / MPEG-4 AVC / MPEG-4 part 10</property>
  <property name="meta.media.0.codec.bit_rate">0</property>
  <property name="meta.attr.0.stream.language.markup">eng</property>
  <property name="meta.media.1.stream.type">audio</property>
  <property name="meta.media.1.codec.sample_fmt">fltp</property>
  <property name="meta.media.1.codec.sample_rate">48000</property>
  <property name="meta.media.1.codec.channels">6</property>
  <property name="meta.media.1.codec.layout">5.1(side)</property>
  <property name="meta.media.1.codec.name">dca</property>
  <property name="meta.media.1.codec.long_name">DCA (DTS Coherent Acoustics)</property>
  <property name="meta.media.1.codec.bit_rate">1536000</property>
  <property name="meta.attr.1.stream.language.markup">eng</property>
  <property name="meta.media.2.codec.name">srt</property>
  <property name="meta.media.2.codec.long_name">SubRip subtitle</property>
  <property name="meta.media.2.codec.bit_rate">0</property>
  <property name="meta.attr.2.stream.language.markup">eng</property>
  <property name="meta.media.3.stream.type">video</property>
  <property name="meta.media.3.stream.frame_rate">90000</property>
  <property name="meta.media.3.stream.sample_aspect_ratio">0</property>
  <property name="meta.media.3.codec.width">1067</property>
  <property name="meta.media.3.codec.height">600</property>
  <property name="meta.media.3.codec.rotate">0</property>
  <property name="meta.media.3.codec.pix_fmt">yuvj444p</property>
  <property name="meta.media.3.codec.sample_aspect_ratio">0</property>
  <property name="meta.media.3.codec.colorspace">601</property>
  <property name="meta.media.3.codec.name">mjpeg</property>
  <property name="meta.media.3.codec.long_name">MJPEG (Motion JPEG)</property>
  <property name="meta.media.3.codec.bit_rate">0</property>
  <property name="meta.attr.3.stream.filename.markup">cover_land.jpg</property>
  <property name="meta.attr.3.stream.mimetype.markup">image/jpeg</property>
  <property name="meta.media.4.stream.type">video</property>
  <property name="meta.media.4.stream.frame_rate">90000</property>
  <property name="meta.media.4.stream.sample_aspect_ratio">0</property>
  <property name="meta.media.4.codec.width">120</property>
  <property name="meta.media.4.codec.height">176</property>
  <property name="meta.media.4.codec.rotate">0</property>
  <property name="meta.media.4.codec.pix_fmt">yuvj444p</property>
  <property name="meta.media.4.codec.sample_aspect_ratio">0</property>
  <property name="meta.media.4.codec.colorspace">601</property>
  <property name="meta.media.4.codec.name">mjpeg</property>
  <property name="meta.media.4.codec.long_name">MJPEG (Motion JPEG)</property>
  <property name="meta.media.4.codec.bit_rate">0</property>
  <property name="meta.attr.4.stream.filename.markup">small_cover.jpg</property>
  <property name="meta.attr.4.stream.mimetype.markup">image/jpeg</property>
  <property name="meta.media.5.stream.type">video</property>
  <property name="meta.media.5.stream.frame_rate">90000</property>
  <property name="meta.media.5.stream.sample_aspect_ratio">0</property>
  <property name="meta.media.5.codec.width">213</property>
  <property name="meta.media.5.codec.height">120</property>
  <property name="meta.media.5.codec.rotate">0</property>
  <property name="meta.media.5.codec.pix_fmt">yuvj444p</property>
  <property name="meta.media.5.codec.sample_aspect_ratio">0</property>
  <property name="meta.media.5.codec.colorspace">601</property>
  <property name="meta.media.5.codec.name">mjpeg</property>
  <property name="meta.media.5.codec.long_name">MJPEG (Motion JPEG)</property>
  <property name="meta.media.5.codec.bit_rate">0</property>
  <property name="meta.attr.5.stream.filename.markup">small_cover_land.jpg</property>
  <property name="meta.attr.5.stream.mimetype.markup">image/jpeg</property>
  <property name="meta.media.6.stream.type">video</property>
  <property name="meta.media.6.stream.frame_rate">90000</property>
  <property name="meta.media.6.stream.sample_aspect_ratio">0</property>
  <property name="meta.media.6.codec.width">600</property>
  <property name="meta.media.6.codec.height">882</property>
  <property name="meta.media.6.codec.rotate">0</property>
  <property name="meta.media.6.codec.pix_fmt">yuvj444p</property>
  <property name="meta.media.6.codec.sample_aspect_ratio">0</property>
  <property name="meta.media.6.codec.colorspace">601</property>
  <property name="meta.media.6.codec.name">mjpeg</property>
  <property name="meta.media.6.codec.long_name">MJPEG (Motion JPEG)</property>
  <property name="meta.media.6.codec.bit_rate">0</property>
  <property name="meta.attr.6.stream.filename.markup">cover.jpg</property>
  <property name="meta.attr.6.stream.mimetype.markup">image/jpeg</property>
  <property name="meta.attr.title.markup">Terminator.3.Rise.of.the.Machines.2003.1080p.BluRay.x264</property>
  <property name="meta.attr.encoder.markup">libebml v1.3.1 + libmatroska v1.4.2</property>
  <property name="meta.attr.creation_time.markup">2015-06-21T10:42:15.000000Z</property>
  <property name="seekable">1</property>
  <property name="meta.media.sample_aspect_num">1</property>
  <property name="meta.media.sample_aspect_den">1</property>
  <property name="audio_index">1</property>
  <property name="video_index">0</property>
  <property name="warp_speed">0.66</property>
  <property name="warp_resource">/Horror and SciFi/The Terminator DVD Boxset Part 1, 2, 3 &amp; 4/Terminator III - The Rise of the Machines (2003)/Terminator.3.Rise.of.the.Machines.2003.1080p.BluRay.x264/Terminator.3.Rise.of.the.Machines.2003.1080p.BluRay.x264.mkv</property>
  <property name="mlt_service">timewarp</property>
  <property name="kdenlive:control_uuid">{8a480ecc-b631-4a2f-b493-6a744a94365a}</property>
  <property name="kdenlive:proxy">-</property>
  <property name="kdenlive:originalurl">/Horror and SciFi/The Terminator DVD Boxset Part 1, 2, 3 &amp; 4/Terminator III - The Rise of the Machines (2003)/Terminator.3.Rise.of.the.Machines.2003.1080p.BluRay.x264/Terminator.3.Rise.of.the.Machines.2003.1080p.BluRay.x264.mkv</property>
  <property name="vstream">0</property>
  <property name="astream">0</property>
  <property name="set.test_audio">0</property>
  <property name="set.test_image">1</property>
  <property name="kdenlive:id">4</property>
  <property name="warp_pitch">0</property>
  <property name="meta.media.frame_rate_num">24000</property>
  <property name="meta.media.frame_rate_den">1001</property>
  <property name="meta.media.colorspace">709</property>
  <property name="meta.media.color_trc">1</property>
  <property name="meta.media.has_b_frames">2</property>
  <property name="meta.media.width">1920</property>
  <property name="meta.media.height">790</property>
  <property name="meta.media.aspect_ratio">1</property>
  <property name="meta.media.color_range">mpeg</property>
 </producer>
 <producer id="producer3" in="00:00:00.000" out="02:45:18.268">
  <property name="length">237806</property>
  <property name="eof">pause</property>
  <property name="resource">0.660000:/Horror and SciFi/The Terminator DVD Boxset Part 1, 2, 3 &amp; 4/Terminator III - The Rise of the Machines (2003)/Terminator.3.Rise.of.the.Machines.2003.1080p.BluRay.x264/Terminator.3.Rise.of.the.Machines.2003.1080p.BluRay.x264.mkv</property>
  <property name="aspect_ratio">1</property>
  <property name="meta.media.nb_streams">7</property>
  <property name="meta.media.0.stream.type">video</property>
  <property name="meta.media.0.stream.frame_rate">23.976</property>
  <property name="meta.media.0.stream.sample_aspect_ratio">1</property>
  <property name="meta.media.0.codec.width">1920</property>
  <property name="meta.media.0.codec.height">790</property>
  <property name="meta.media.0.codec.rotate">0</property>
  <property name="meta.media.0.codec.pix_fmt">yuv420p</property>
  <property name="meta.media.0.codec.sample_aspect_ratio">1</property>
  <property name="meta.media.0.codec.colorspace">709</property>
  <property name="meta.media.0.codec.color_trc">1</property>
  <property name="meta.media.0.codec.name">h264</property>
  <property name="meta.media.0.codec.long_name">H.264 / AVC / MPEG-4 AVC / MPEG-4 part 10</property>
  <property name="meta.media.0.codec.bit_rate">0</property>
  <property name="meta.attr.0.stream.language.markup">eng</property>
  <property name="meta.media.1.stream.type">audio</property>
  <property name="meta.media.1.codec.sample_fmt">fltp</property>
  <property name="meta.media.1.codec.sample_rate">48000</property>
  <property name="meta.media.1.codec.channels">6</property>
  <property name="meta.media.1.codec.layout">5.1(side)</property>
  <property name="meta.media.1.codec.name">dca</property>
  <property name="meta.media.1.codec.long_name">DCA (DTS Coherent Acoustics)</property>
  <property name="meta.media.1.codec.bit_rate">1536000</property>
  <property name="meta.attr.1.stream.language.markup">eng</property>
  <property name="meta.media.2.codec.name">srt</property>
  <property name="meta.media.2.codec.long_name">SubRip subtitle</property>
  <property name="meta.media.2.codec.bit_rate">0</property>
  <property name="meta.attr.2.stream.language.markup">eng</property>
  <property name="meta.media.3.stream.type">video</property>
  <property name="meta.media.3.stream.frame_rate">90000</property>
  <property name="meta.media.3.stream.sample_aspect_ratio">0</property>
  <property name="meta.media.3.codec.width">1067</property>
  <property name="meta.media.3.codec.height">600</property>
  <property name="meta.media.3.codec.rotate">0</property>
  <property name="meta.media.3.codec.pix_fmt">yuvj444p</property>
  <property name="meta.media.3.codec.sample_aspect_ratio">0</property>
  <property name="meta.media.3.codec.colorspace">601</property>
  <property name="meta.media.3.codec.name">mjpeg</property>
  <property name="meta.media.3.codec.long_name">MJPEG (Motion JPEG)</property>
  <property name="meta.media.3.codec.bit_rate">0</property>
  <property name="meta.attr.3.stream.filename.markup">cover_land.jpg</property>
  <property name="meta.attr.3.stream.mimetype.markup">image/jpeg</property>
  <property name="meta.media.4.stream.type">video</property>
  <property name="meta.media.4.stream.frame_rate">90000</property>
  <property name="meta.media.4.stream.sample_aspect_ratio">0</property>
  <property name="meta.media.4.codec.width">120</property>
  <property name="meta.media.4.codec.height">176</property>
  <property name="meta.media.4.codec.rotate">0</property>
  <property name="meta.media.4.codec.pix_fmt">yuvj444p</property>
  <property name="meta.media.4.codec.sample_aspect_ratio">0</property>
  <property name="meta.media.4.codec.colorspace">601</property>
  <property name="meta.media.4.codec.name">mjpeg</property>
  <property name="meta.media.4.codec.long_name">MJPEG (Motion JPEG)</property>
  <property name="meta.media.4.codec.bit_rate">0</property>
  <property name="meta.attr.4.stream.filename.markup">small_cover.jpg</property>
  <property name="meta.attr.4.stream.mimetype.markup">image/jpeg</property>
  <property name="meta.media.5.stream.type">video</property>
  <property name="meta.media.5.stream.frame_rate">90000</property>
  <property name="meta.media.5.stream.sample_aspect_ratio">0</property>
  <property name="meta.media.5.codec.width">213</property>
  <property name="meta.media.5.codec.height">120</property>
  <property name="meta.media.5.codec.rotate">0</property>
  <property name="meta.media.5.codec.pix_fmt">yuvj444p</property>
  <property name="meta.media.5.codec.sample_aspect_ratio">0</property>
  <property name="meta.media.5.codec.colorspace">601</property>
  <property name="meta.media.5.codec.name">mjpeg</property>
  <property name="meta.media.5.codec.long_name">MJPEG (Motion JPEG)</property>
  <property name="meta.media.5.codec.bit_rate">0</property>
  <property name="meta.attr.5.stream.filename.markup">small_cover_land.jpg</property>
  <property name="meta.attr.5.stream.mimetype.markup">image/jpeg</property>
  <property name="meta.media.6.stream.type">video</property>
  <property name="meta.media.6.stream.frame_rate">90000</property>
  <property name="meta.media.6.stream.sample_aspect_ratio">0</property>
  <property name="meta.media.6.codec.width">600</property>
  <property name="meta.media.6.codec.height">882</property>
  <property name="meta.media.6.codec.rotate">0</property>
  <property name="meta.media.6.codec.pix_fmt">yuvj444p</property>
  <property name="meta.media.6.codec.sample_aspect_ratio">0</property>
  <property name="meta.media.6.codec.colorspace">601</property>
  <property name="meta.media.6.codec.name">mjpeg</property>
  <property name="meta.media.6.codec.long_name">MJPEG (Motion JPEG)</property>
  <property name="meta.media.6.codec.bit_rate">0</property>
  <property name="meta.attr.6.stream.filename.markup">cover.jpg</property>
  <property name="meta.attr.6.stream.mimetype.markup">image/jpeg</property>
  <property name="meta.attr.title.markup">Terminator.3.Rise.of.the.Machines.2003.1080p.BluRay.x264</property>
  <property name="meta.attr.encoder.markup">libebml v1.3.1 + libmatroska v1.4.2</property>
  <property name="meta.attr.creation_time.markup">2015-06-21T10:42:15.000000Z</property>
  <property name="seekable">1</property>
  <property name="meta.media.sample_aspect_num">1</property>
  <property name="meta.media.sample_aspect_den">1</property>
  <property name="audio_index">1</property>
  <property name="video_index">0</property>
  <property name="warp_speed">0.66</property>
  <property name="warp_resource">/Horror and SciFi/The Terminator DVD Boxset Part 1, 2, 3 &amp; 4/Terminator III - The Rise of the Machines (2003)/Terminator.3.Rise.of.the.Machines.2003.1080p.BluRay.x264/Terminator.3.Rise.of.the.Machines.2003.1080p.BluRay.x264.mkv</property>
  <property name="mlt_service">timewarp</property>
  <property name="kdenlive:control_uuid">{8a480ecc-b631-4a2f-b493-6a744a94365a}</property>
  <property name="kdenlive:proxy">-</property>
  <property name="kdenlive:originalurl">/Horror and SciFi/The Terminator DVD Boxset Part 1, 2, 3 &amp; 4/Terminator III - The Rise of the Machines (2003)/Terminator.3.Rise.of.the.Machines.2003.1080p.BluRay.x264/Terminator.3.Rise.of.the.Machines.2003.1080p.BluRay.x264.mkv</property>
  <property name="vstream">0</property>
  <property name="astream">0</property>
  <property name="set.test_audio">0</property>
  <property name="set.test_image">1</property>
  <property name="kdenlive:id">4</property>
  <property name="warp_pitch">0</property>
  <property name="meta.media.frame_rate_num">24000</property>
  <property name="meta.media.frame_rate_den">1001</property>
  <property name="meta.media.colorspace">709</property>
  <property name="meta.media.color_trc">1</property>
  <property name="meta.media.has_b_frames">2</property>
  <property name="meta.media.width">1920</property>
  <property name="meta.media.height">790</property>
  <property name="meta.media.aspect_ratio">1</property>
  <property name="meta.media.color_range">mpeg</property>
 </producer>
 <playlist id="playlist6">
  <property name="kdenlive:audio_track">1</property>
  <blank length="00:00:00.042"/>
  <entry in="00:00:00.000" out="00:01:53.345" producer="chain6">
   <property name="kdenlive:id">4</property>
  </entry>
  <blank length="00:00:12.179"/>
  <entry in="00:03:53.887" out="00:04:50.467" producer="chain6">
   <property name="kdenlive:id">4</property>
   <filter id="filter36" in="00:04:47.506" out="00:04:50.467">
    <property name="window">75</property>
    <property name="max_gain">20dB</property>
    <property name="mlt_service">volume</property>
    <property name="kdenlive_id">fadeout</property>
    <property name="gain">1</property>
    <property name="end">0</property>
   </filter>
  </entry>
  <blank length="00:00:02.628"/>
  <entry in="00:05:12.512" out="00:05:13.931" producer="chain6">
   <property name="kdenlive:id">4</property>
  </entry>
  <blank length="00:00:01.376"/>
  <entry in="00:05:17.809" out="00:05:19.770" producer="chain6">
   <property name="kdenlive:id">4</property>
  </entry>
  <blank length="00:00:00.918"/>
  <entry in="00:05:23.523" out="00:07:19.019" producer="chain6">
   <property name="kdenlive:id">4</property>
  </entry>
  <blank length="00:01:18.518"/>
  <entry in="00:08:55.889" out="00:09:02.461" producer="chain6">
   <property name="kdenlive:id">4</property>
  </entry>
  <blank length="00:00:06.882"/>
  <entry in="00:10:43.460" out="00:14:10.010" producer="chain6">
   <property name="kdenlive:id">4</property>
   <filter id="filter37" in="00:10:43.460" out="00:10:44.336">
    <property name="window">75</property>
    <property name="max_gain">20dB</property>
    <property name="mlt_service">volume</property>
    <property name="kdenlive_id">fadein</property>
    <property name="gain">0</property>
    <property name="end">1</property>
    <property name="kdenlive:collapsed">0</property>
   </filter>
  </entry>
  <blank length="00:00:03.754"/>
  <entry in="00:15:21.355" out="00:15:29.488" producer="chain6">
   <property name="kdenlive:id">4</property>
  </entry>
  <blank length="00:03:19.353"/>
  <entry in="00:19:13.180" out="00:20:37.287" producer="chain6">
   <property name="kdenlive:id">4</property>
  </entry>
  <blank length="00:00:09.343"/>
  <entry in="00:21:25.609" out="00:25:56.723" producer="chain6">
   <property name="kdenlive:id">4</property>
  </entry>
  <blank length="00:00:09.301"/>
  <entry in="00:26:15.515" out="00:31:40.374" producer="chain6">
   <property name="kdenlive:id">4</property>
  </entry>
  <blank length="00:00:06.089"/>
  <entry in="00:32:02.169" out="00:38:23.774" producer="chain6">
   <property name="kdenlive:id">4</property>
  </entry>
  <blank length="00:02:33.200"/>
  <entry in="00:41:32.074" out="00:41:40.999" producer="chain6">
   <property name="kdenlive:id">4</property>
  </entry>
  <blank length="00:00:01.335"/>
  <entry in="00:41:53.053" out="00:42:15.891" producer="chain6">
   <property name="kdenlive:id">4</property>
  </entry>
  <blank length="00:00:15.057"/>
  <entry in="01:04:29.404" out="01:04:30.572" producer="producer1">
   <property name="kdenlive:id">4</property>
   <filter id="filter38">
    <property name="window">75</property>
    <property name="max_gain">20dB</property>
    <property name="mlt_service">volume</property>
    <property name="kdenlive_id">mute</property>
    <property name="gain">0</property>
    <property name="kdenlive:collapsed">0</property>
   </filter>
  </entry>
  <entry in="01:04:30.614" out="01:04:32.866" producer="producer2">
   <property name="kdenlive:id">4</property>
  </entry>
  <entry in="01:04:32.908" out="01:04:34.618" producer="producer3">
   <property name="kdenlive:id">4</property>
   <filter id="filter39">
    <property name="window">75</property>
    <property name="max_gain">20dB</property>
    <property name="mlt_service">volume</property>
    <property name="kdenlive_id">mute</property>
    <property name="gain">0</property>
    <property name="kdenlive:collapsed">0</property>
   </filter>
  </entry>
  <entry in="00:42:42.292" out="00:42:54.179" producer="chain6">
   <property name="kdenlive:id">4</property>
   <filter id="filter40">
    <property name="window">75</property>
    <property name="max_gain">20dB</property>
    <property name="mlt_service">volume</property>
    <property name="kdenlive_id">mute</property>
    <property name="gain">0</property>
    <property name="kdenlive:collapsed">0</property>
    <property name="disable">1</property>
   </filter>
   <filter id="filter41" in="00:42:42.292" out="00:42:43.126">
    <property name="window">75</property>
    <property name="max_gain">20dB</property>
    <property name="mlt_service">volume</property>
    <property name="kdenlive_id">fadein</property>
    <property name="gain">0</property>
    <property name="end">1</property>
    <property name="kdenlive:collapsed">0</property>
   </filter>
   <filter id="filter42" in="00:42:53.095" out="00:42:54.179">
    <property name="window">75</property>
    <property name="max_gain">20dB</property>
    <property name="mlt_service">volume</property>
    <property name="kdenlive_id">fadeout</property>
    <property name="gain">1</property>
    <property name="end">0</property>
   </filter>
  </entry>
  <blank length="00:00:04.379"/>
  <entry in="00:42:58.600" out="00:43:02.002" producer="chain6">
   <property name="kdenlive:id">4</property>
   <filter id="filter43">
    <property name="window">75</property>
    <property name="max_gain">20dB</property>
    <property name="mlt_service">volume</property>
    <property name="kdenlive_id">mute</property>
    <property name="gain">0</property>
    <property name="kdenlive:collapsed">0</property>
    <property name="disable">1</property>
   </filter>
  </entry>
  <entry in="00:43:02.044" out="00:43:05.214" producer="chain6">
   <property name="kdenlive:id">4</property>
   <filter id="filter44" in="00:43:02.044" out="00:43:03.545">
    <property name="window">75</property>
    <property name="max_gain">20dB</property>
    <property name="mlt_service">volume</property>
    <property name="kdenlive_id">fadein</property>
    <property name="gain">0</property>
    <property name="end">1</property>
    <property name="kdenlive:collapsed">0</property>
   </filter>
  </entry>
  <entry in="00:43:05.255" out="00:43:05.714" producer="chain6">
   <property name="kdenlive:id">4</property>
  </entry>
  <entry in="00:43:05.756" out="00:43:06.840" producer="chain6">
   <property name="kdenlive:id">4</property>
  </entry>
  <entry in="00:43:06.882" out="00:43:09.009" producer="chain6">
   <property name="kdenlive:id">4</property>
   <filter id="filter45" in="00:43:08.717" out="00:43:09.009">
    <property name="window">75</property>
    <property name="max_gain">20dB</property>
    <property name="mlt_service">volume</property>
    <property name="kdenlive_id">fadeout</property>
    <property name="gain">1</property>
    <property name="end">0</property>
    <property name="kdenlive:collapsed">0</property>
   </filter>
  </entry>
  <entry in="00:43:09.051" out="00:43:14.056" producer="chain6">
   <property name="kdenlive:id">4</property>
   <filter id="filter46">
    <property name="window">75</property>
    <property name="max_gain">20dB</property>
    <property name="mlt_service">volume</property>
    <property name="kdenlive_id">mute</property>
    <property name="gain">0</property>
    <property name="kdenlive:collapsed">0</property>
   </filter>
  </entry>
  <entry in="00:43:14.097" out="00:43:15.140" producer="chain6">
   <property name="kdenlive:id">4</property>
   <filter id="filter47" in="00:43:14.973" out="00:43:15.140">
    <property name="window">75</property>
    <property name="max_gain">20dB</property>
    <property name="mlt_service">volume</property>
    <property name="kdenlive_id">fadeout</property>
    <property name="gain">1</property>
    <property name="end">0</property>
   </filter>
  </entry>
  <entry in="00:43:15.182" out="00:43:24.483" producer="chain6">
   <property name="kdenlive:id">4</property>
   <filter id="filter48">
    <property name="window">75</property>
    <property name="max_gain">20dB</property>
    <property name="mlt_service">volume</property>
    <property name="kdenlive_id">mute</property>
    <property name="gain">0</property>
    <property name="kdenlive:collapsed">0</property>
   </filter>
  </entry>
  <entry in="00:43:24.524" out="00:45:06.590" producer="chain6">
   <property name="kdenlive:id">4</property>
  </entry>
  <blank length="00:00:07.341"/>
  <entry in="00:47:54.763" out="00:50:06.506" producer="chain6">
   <property name="kdenlive:id">4</property>
  </entry>
  <blank length="00:01:37.371"/>
  <entry in="00:53:21.188" out="00:53:45.003" producer="chain6">
   <property name="kdenlive:id">4</property>
  </entry>
  <blank length="00:02:36.286"/>
  <entry in="00:56:35.202" out="01:01:43.126" producer="chain6">
   <property name="kdenlive:id">4</property>
  </entry>
  <blank length="00:02:29.279"/>
  <entry in="01:05:25.984" out="01:05:44.878" producer="chain6">
   <property name="kdenlive:id">4</property>
  </entry>
  <blank length="00:01:21.355"/>
  <entry in="01:07:38.538" out="01:10:21.104" producer="chain6">
   <property name="kdenlive:id">4</property>
  </entry>
  <blank length="00:11:38.538"/>
  <entry in="01:22:40.874" out="01:24:28.278" producer="chain6">
   <property name="kdenlive:id">4</property>
  </entry>
  <blank length="00:06:49.132"/>
  <entry in="01:31:33.533" out="01:35:20.354" producer="chain6">
   <property name="kdenlive:id">4</property>
  </entry>
  <blank length="00:00:00.751"/>
  <entry in="01:35:24.316" out="01:37:59.476" producer="chain6">
   <property name="kdenlive:id">4</property>
  </entry>
  <blank length="00:02:05.130"/>
  <entry in="01:40:21.021" out="01:41:47.923" producer="chain6">
   <property name="kdenlive:id">4</property>
   <filter id="filter50">
    <property name="window">75</property>
    <property name="max_gain">20dB</property>
    <property name="mlt_service">volume</property>
    <property name="kdenlive_id">mute</property>
    <property name="gain">0</property>
    <property name="kdenlive:collapsed">0</property>
   </filter>
  </entry>
  <entry in="01:41:47.965" out="01:43:58.600" producer="chain6">
   <property name="kdenlive:id">4</property>
   <filter id="filter51" in="01:41:47.965" out="01:41:59.059">
    <property name="window">75</property>
    <property name="max_gain">20dB</property>
    <property name="mlt_service">volume</property>
    <property name="kdenlive_id">fadein</property>
    <property name="gain">0</property>
    <property name="end">1</property>
    <property name="kdenlive:bin-disabled">1</property>
    <property name="disable">1</property>
    <property name="kdenlive:collapsed">0</property>
   </filter>
   <filter id="filter52" in="01:43:57.683" out="01:43:58.600">
    <property name="window">75</property>
    <property name="max_gain">20dB</property>
    <property name="mlt_service">volume</property>
    <property name="kdenlive_id">fadeout</property>
    <property name="gain">1</property>
    <property name="end">0</property>
    <property name="kdenlive:bin-disabled">1</property>
    <property name="disable">1</property>
    <property name="kdenlive:collapsed">0</property>
   </filter>
  </entry>
  <blank length="00:03:37.996"/>
  <entry in="01:47:36.620" out="01:49:06.173" producer="chain6">
   <property name="kdenlive:id">4</property>
  </entry>
 </playlist>
 <chain id="chain7" out="01:49:06.215">
  <property name="length">156952</property>
  <property name="eof">pause</property>
  <property name="resource">/Horror and SciFi/The Terminator DVD Boxset Part 1, 2, 3 &amp; 4/Terminator III - The Rise of the Machines (2003)/Terminator.3.Rise.of.the.Machines.2003.1080p.BluRay.x264/Terminator.3.Rise.of.the.Machines.2003.1080p.BluRay.x264.mkv</property>
  <property name="mlt_service">avformat-novalidate</property>
  <property name="seekable">1</property>
  <property name="audio_index">1</property>
  <property name="video_index">0</property>
  <property name="vstream">0</property>
  <property name="astream">0</property>
  <property name="kdenlive:control_uuid">{8a480ecc-b631-4a2f-b493-6a744a94365a}</property>
  <property name="kdenlive:proxy">-</property>
  <property name="kdenlive:originalurl">/Horror and SciFi/The Terminator DVD Boxset Part 1, 2, 3 &amp; 4/Terminator III - The Rise of the Machines (2003)/Terminator.3.Rise.of.the.Machines.2003.1080p.BluRay.x264/Terminator.3.Rise.of.the.Machines.2003.1080p.BluRay.x264.mkv</property>
  <property name="kdenlive:id">4</property>
  <property name="mute_on_pause">0</property>
  <property name="kdenlive:clip_type">0</property>
  <property name="kdenlive:file_size">12299138322</property>
  <property name="kdenlive:file_hash">7d0a41a44b5c23a12a68a058620a51f8</property>
  <property name="kdenlive:folderid">2</property>
  <property name="meta.media.nb_streams">7</property>
  <property name="meta.media.0.stream.type">video</property>
  <property name="meta.media.0.stream.frame_rate">23.976</property>
  <property name="meta.media.0.stream.sample_aspect_ratio">1</property>
  <property name="meta.media.0.codec.width">1920</property>
  <property name="meta.media.0.codec.height">790</property>
  <property name="meta.media.0.codec.rotate">0</property>
  <property name="meta.media.0.codec.pix_fmt">yuv420p</property>
  <property name="meta.media.0.codec.sample_aspect_ratio">1</property>
  <property name="meta.media.0.codec.colorspace">709</property>
  <property name="meta.media.0.codec.color_trc">1</property>
  <property name="meta.media.0.codec.name">h264</property>
  <property name="meta.media.0.codec.long_name">H.264 / AVC / MPEG-4 AVC / MPEG-4 part 10</property>
  <property name="meta.media.0.codec.bit_rate">0</property>
  <property name="meta.attr.0.stream.language.markup">eng</property>
  <property name="meta.media.1.stream.type">audio</property>
  <property name="meta.media.1.codec.sample_fmt">fltp</property>
  <property name="meta.media.1.codec.sample_rate">48000</property>
  <property name="meta.media.1.codec.channels">6</property>
  <property name="meta.media.1.codec.layout">5.1(side)</property>
  <property name="meta.media.1.codec.name">dca</property>
  <property name="meta.media.1.codec.long_name">DCA (DTS Coherent Acoustics)</property>
  <property name="meta.media.1.codec.bit_rate">1536000</property>
  <property name="meta.attr.1.stream.language.markup">eng</property>
  <property name="meta.media.2.codec.name">srt</property>
  <property name="meta.media.2.codec.long_name">SubRip subtitle</property>
  <property name="meta.media.2.codec.bit_rate">0</property>
  <property name="meta.attr.2.stream.language.markup">eng</property>
  <property name="meta.media.3.stream.type">video</property>
  <property name="meta.media.3.stream.frame_rate">90000</property>
  <property name="meta.media.3.stream.sample_aspect_ratio">0</property>
  <property name="meta.media.3.codec.width">1067</property>
  <property name="meta.media.3.codec.height">600</property>
  <property name="meta.media.3.codec.rotate">0</property>
  <property name="meta.media.3.codec.pix_fmt">yuvj444p</property>
  <property name="meta.media.3.codec.sample_aspect_ratio">0</property>
  <property name="meta.media.3.codec.colorspace">601</property>
  <property name="meta.media.3.codec.name">mjpeg</property>
  <property name="meta.media.3.codec.long_name">MJPEG (Motion JPEG)</property>
  <property name="meta.media.3.codec.bit_rate">0</property>
  <property name="meta.attr.3.stream.filename.markup">cover_land.jpg</property>
  <property name="meta.attr.3.stream.mimetype.markup">image/jpeg</property>
  <property name="meta.media.4.stream.type">video</property>
  <property name="meta.media.4.stream.frame_rate">90000</property>
  <property name="meta.media.4.stream.sample_aspect_ratio">0</property>
  <property name="meta.media.4.codec.width">120</property>
  <property name="meta.media.4.codec.height">176</property>
  <property name="meta.media.4.codec.rotate">0</property>
  <property name="meta.media.4.codec.pix_fmt">yuvj444p</property>
  <property name="meta.media.4.codec.sample_aspect_ratio">0</property>
  <property name="meta.media.4.codec.colorspace">601</property>
  <property name="meta.media.4.codec.name">mjpeg</property>
  <property name="meta.media.4.codec.long_name">MJPEG (Motion JPEG)</property>
  <property name="meta.media.4.codec.bit_rate">0</property>
  <property name="meta.attr.4.stream.filename.markup">small_cover.jpg</property>
  <property name="meta.attr.4.stream.mimetype.markup">image/jpeg</property>
  <property name="meta.media.5.stream.type">video</property>
  <property name="meta.media.5.stream.frame_rate">90000</property>
  <property name="meta.media.5.stream.sample_aspect_ratio">0</property>
  <property name="meta.media.5.codec.width">213</property>
  <property name="meta.media.5.codec.height">120</property>
  <property name="meta.media.5.codec.rotate">0</property>
  <property name="meta.media.5.codec.pix_fmt">yuvj444p</property>
  <property name="meta.media.5.codec.sample_aspect_ratio">0</property>
  <property name="meta.media.5.codec.colorspace">601</property>
  <property name="meta.media.5.codec.name">mjpeg</property>
  <property name="meta.media.5.codec.long_name">MJPEG (Motion JPEG)</property>
  <property name="meta.media.5.codec.bit_rate">0</property>
  <property name="meta.attr.5.stream.filename.markup">small_cover_land.jpg</property>
  <property name="meta.attr.5.stream.mimetype.markup">image/jpeg</property>
  <property name="meta.media.6.stream.type">video</property>
  <property name="meta.media.6.stream.frame_rate">90000</property>
  <property name="meta.media.6.stream.sample_aspect_ratio">0</property>
  <property name="meta.media.6.codec.width">600</property>
  <property name="meta.media.6.codec.height">882</property>
  <property name="meta.media.6.codec.rotate">0</property>
  <property name="meta.media.6.codec.pix_fmt">yuvj444p</property>
  <property name="meta.media.6.codec.sample_aspect_ratio">0</property>
  <property name="meta.media.6.codec.colorspace">601</property>
  <property name="meta.media.6.codec.name">mjpeg</property>
  <property name="meta.media.6.codec.long_name">MJPEG (Motion JPEG)</property>
  <property name="meta.media.6.codec.bit_rate">0</property>
  <property name="meta.attr.6.stream.filename.markup">cover.jpg</property>
  <property name="meta.attr.6.stream.mimetype.markup">image/jpeg</property>
  <property name="meta.attr.title.markup">Terminator.3.Rise.of.the.Machines.2003.1080p.BluRay.x264</property>
  <property name="meta.attr.encoder.markup">libebml v1.3.1 + libmatroska v1.4.2</property>
  <property name="meta.attr.creation_time.markup">2015-06-21T10:42:15.000000Z</property>
  <property name="meta.media.sample_aspect_num">1</property>
  <property name="meta.media.sample_aspect_den">1</property>
  <property name="meta.media.frame_rate_num">24000</property>
  <property name="meta.media.frame_rate_den">1001</property>
  <property name="meta.media.colorspace">709</property>
  <property name="meta.media.color_trc">1</property>
  <property name="meta.media.has_b_frames">2</property>
  <property name="meta.media.width">1920</property>
  <property name="meta.media.height">790</property>
  <property name="meta.media.aspect_ratio">1</property>
  <property name="meta.media.color_range">mpeg</property>
  <property name="xml">was here</property>
  <property name="meta.media.top_field_first">0</property>
  <property name="meta.media.progressive">1</property>
  <property name="set.test_audio">0</property>
  <property name="set.test_image">1</property>
 </chain>
 <chain id="chain9" out="00:02:29.613">
  <property name="length">3588</property>
  <property name="eof">pause</property>
  <property name="resource">ost/Love Scene.mp3</property>
  <property name="mlt_service">avformat-novalidate</property>
  <property name="seekable">1</property>
  <property name="audio_index">0</property>
  <property name="video_index">-1</property>
  <property name="astream">0</property>
  <property name="kdenlive:folderid">-1</property>
  <property name="kdenlive:id">7</property>
  <property name="kdenlive:control_uuid">{b2a4eb7a-98e6-4428-9d63-febcf037694c}</property>
  <property name="kdenlive:clip_type">1</property>
  <property name="kdenlive:file_size">3592496</property>
  <property name="kdenlive:file_hash">5bf5d0faad320c6b7e67e171849c87c8</property>
  <property name="meta.media.nb_streams">1</property>
  <property name="meta.media.0.stream.type">audio</property>
  <property name="meta.media.0.codec.sample_fmt">fltp</property>
  <property name="meta.media.0.codec.sample_rate">44100</property>
  <property name="meta.media.0.codec.channels">2</property>
  <property name="meta.media.0.codec.layout">stereo</property>
  <property name="meta.media.0.codec.name">mp3float</property>
  <property name="meta.media.0.codec.long_name">MP3 (MPEG audio layer 3)</property>
  <property name="meta.media.0.codec.bit_rate">192000</property>
  <property name="meta.attr.0.stream.encoder.markup">Lavc60.31</property>
  <property name="meta.attr.major_brand.markup">mp42</property>
  <property name="meta.attr.minor_version.markup">0</property>
  <property name="meta.attr.compatible_brands.markup">isommp42</property>
  <property name="meta.attr.encoder.markup">Lavf60.16.100</property>
  <property name="xml">was here</property>
  <property name="mute_on_pause">0</property>
  <property name="set.test_audio">0</property>
  <property name="set.test_image">1</property>
 </chain>
 <playlist id="playlist7">
  <property name="kdenlive:audio_track">1</property>
  <blank length="00:01:52.427"/>
  <entry in="00:02:00.292" out="00:02:15.432" producer="chain7">
   <property name="kdenlive:id">4</property>
  </entry>
  <blank length="00:00:50.634"/>
  <entry in="00:04:58.267" out="00:05:05.047" producer="chain7">
   <property name="kdenlive:id">4</property>
  </entry>
  <blank length="00:00:01.126"/>
  <entry in="00:05:14.932" out="00:05:16.600" producer="chain7">
   <property name="kdenlive:id">4</property>
  </entry>
  <blank length="00:00:01.668"/>
  <entry in="00:05:21.313" out="00:05:22.522" producer="chain7">
   <property name="kdenlive:id">4</property>
  </entry>
  <blank length="00:01:54.388"/>
  <entry in="00:07:20.437" out="00:08:43.877" producer="chain7">
   <property name="kdenlive:id">4</property>
  </entry>
  <blank length="00:00:01.627"/>
  <entry in="00:09:04.922" out="00:09:13.764" producer="chain7">
   <property name="kdenlive:id">4</property>
   <filter id="filter53" in="00:09:13.055" out="00:09:13.764">
    <property name="window">75</property>
    <property name="max_gain">20dB</property>
    <property name="mlt_service">volume</property>
    <property name="kdenlive_id">fadeout</property>
    <property name="gain">1</property>
    <property name="end">0</property>
    <property name="kdenlive:collapsed">0</property>
   </filter>
  </entry>
  <blank length="00:03:24.608"/>
  <entry in="00:14:13.805" out="00:14:19.519" producer="chain7">
   <property name="kdenlive:id">4</property>
  </entry>
  <blank length="00:00:06.173"/>
  <entry in="00:15:49.007" out="00:19:09.718" producer="chain7">
   <property name="kdenlive:id">4</property>
  </entry>
  <blank length="00:01:22.773"/>
  <entry in="00:21:07.174" out="00:21:18.477" producer="chain7">
   <property name="kdenlive:id">4</property>
  </entry>
  <blank length="00:04:29.196"/>
  <entry in="00:26:01.251" out="00:26:12.512" producer="chain7">
   <property name="kdenlive:id">4</property>
  </entry>
  <blank length="00:05:22.940"/>
  <entry in="00:31:48.966" out="00:31:56.431" producer="chain7">
   <property name="kdenlive:id">4</property>
  </entry>
  <blank length="00:06:20.270"/>
  <entry in="00:38:41.041" out="00:41:16.183" producer="chain7">
   <property name="kdenlive:id">4</property>
  </entry>
  <blank length="00:00:07.799"/>
  <entry in="00:41:51.551" out="00:41:53.011" producer="chain7">
   <property name="kdenlive:id">4</property>
  </entry>
  <blank length="00:00:21.855"/>
  <entry in="00:42:17.768" out="00:42:33.784" producer="chain7">
   <property name="kdenlive:id">4</property>
  </entry>
  <blank length="00:02:28.612"/>
  <entry in="00:47:16.099" out="00:47:25.400" producer="chain7">
   <property name="kdenlive:id">4</property>
  </entry>
  <blank length="00:02:09.801"/>
  <entry in="00:50:44.836" out="00:52:24.149" producer="chain7">
   <property name="kdenlive:id">4</property>
  </entry>
  <blank length="00:00:21.855"/>
  <entry in="00:53:50.550" out="00:56:28.779" producer="chain7">
   <property name="kdenlive:id">4</property>
  </entry>
  <blank length="00:05:05.964"/>
  <entry in="01:02:08.133" out="01:04:39.373" producer="chain7">
   <property name="kdenlive:id">4</property>
  </entry>
  <blank length="00:00:13.931"/>
  <entry in="01:05:49.466" out="01:07:15.766" producer="chain7">
   <property name="kdenlive:id">4</property>
  </entry>
  <blank length="00:02:40.624"/>
  <entry in="01:10:50.801" out="01:22:31.281" producer="chain7">
   <property name="kdenlive:id">4</property>
  </entry>
  <blank length="00:01:45.462"/>
  <entry in="01:24:30.697" out="01:31:21.772" producer="chain7">
   <property name="kdenlive:id">4</property>
  </entry>
  <blank length="00:03:44.878"/>
  <entry in="01:35:20.979" out="01:35:23.690" producer="chain7">
   <property name="kdenlive:id">4</property>
  </entry>
  <blank length="00:02:28.195"/>
  <entry in="01:38:09.885" out="01:40:20.979" producer="chain7">
   <property name="kdenlive:id">4</property>
   <filter id="filter49" in="01:40:08.550" out="01:40:20.979">
    <property name="window">75</property>
    <property name="max_gain">20dB</property>
    <property name="mlt_service">volume</property>
    <property name="kdenlive_id">fadeout</property>
    <property name="gain">1</property>
    <property name="end">0</property>
   </filter>
  </entry>
  <blank length="00:03:27.653"/>
  <entry in="00:00:17.392" out="00:02:29.613" producer="chain9">
   <property name="kdenlive:id">7</property>
   <filter id="filter54" in="00:00:17.392" out="00:00:20.395">
    <property name="window">75</property>
    <property name="max_gain">20dB</property>
    <property name="mlt_service">volume</property>
    <property name="kdenlive_id">fadein</property>
    <property name="gain">0</property>
    <property name="end">1</property>
    <property name="kdenlive:collapsed">0</property>
   </filter>
   <filter id="filter55">
    <property name="window">75</property>
    <property name="max_gain">20dB</property>
    <property name="level">00:00:17.392=-10</property>
    <property name="mlt_service">volume</property>
    <property name="kdenlive_id">volume</property>
    <property name="kdenlive:collapsed">0</property>
   </filter>
  </entry>
 </playlist>
 <tractor id="tractor3" in="00:00:00.000" out="01:33:58.600">
  <property name="kdenlive:audio_track">1</property>
  <property name="kdenlive:trackheight">84</property>
  <property name="kdenlive:timeline_active">1</property>
  <property name="kdenlive:collapsed">0</property>
  <property name="kdenlive:thumbs_format"/>
  <property name="kdenlive:audio_rec"/>
  <track hide="video" producer="playlist6"/>
  <track hide="video" producer="playlist7"/>
  <transition id="transition43" in="01:16:45.545" out="01:16:46.546">
   <property name="a_track">0</property>
   <property name="b_track">1</property>
   <property name="mlt_service">mix</property>
   <property name="kdenlive_id">mix</property>
   <property name="kdenlive:mixcut">19</property>
   <property name="start">-1</property>
   <property name="accepts_blanks">1</property>
   <property name="reverse">1</property>
  </transition>
  <transition id="transition38" in="01:20:33.116" out="01:20:34.117">
   <property name="a_track">1</property>
   <property name="b_track">0</property>
   <property name="mlt_service">mix</property>
   <property name="kdenlive_id">mix</property>
   <property name="kdenlive:mixcut">12</property>
   <property name="start">-1</property>
   <property name="accepts_blanks">1</property>
   <property name="reverse">0</property>
  </transition>
  <transition id="transition39" in="01:23:02.336" out="01:23:08.342">
   <property name="a_track">0</property>
   <property name="b_track">1</property>
   <property name="mlt_service">mix</property>
   <property name="kdenlive_id">mix</property>
   <property name="kdenlive:mixcut">106</property>
   <property name="start">-1</property>
   <property name="accepts_blanks">1</property>
   <property name="reverse">0</property>
  </transition>
  <transition id="transition37" in="01:20:31.365" out="01:20:32.366">
   <property name="a_track">0</property>
   <property name="b_track">1</property>
   <property name="mlt_service">mix</property>
   <property name="kdenlive_id">mix</property>
   <property name="kdenlive:mixcut">12</property>
   <property name="start">-1</property>
   <property name="accepts_blanks">1</property>
   <property name="reverse">0</property>
  </transition>
  <transition id="transition40" in="01:28:41.083" out="01:28:51.093">
   <property name="a_track">0</property>
   <property name="b_track">1</property>
   <property name="mlt_service">mix</property>
   <property name="kdenlive_id">mix</property>
   <property name="kdenlive:mixcut">120</property>
   <property name="start">-1</property>
   <property name="accepts_blanks">1</property>
   <property name="reverse">0</property>
  </transition>
  <transition id="transition0" in="00:01:52.427" out="00:01:53.428">
   <property name="a_track">0</property>
   <property name="b_track">1</property>
   <property name="mlt_service">mix</property>
   <property name="kdenlive_id">mix</property>
   <property name="kdenlive:mixcut">12</property>
   <property name="start">-1</property>
   <property name="accepts_blanks">1</property>
   <property name="reverse">0</property>
  </transition>
  <transition id="transition1" in="00:02:05.589" out="00:02:07.591">
   <property name="a_track">0</property>
   <property name="b_track">1</property>
   <property name="mlt_service">mix</property>
   <property name="kdenlive_id">mix</property>
   <property name="kdenlive:mixcut">0</property>
   <property name="start">-1</property>
   <property name="accepts_blanks">1</property>
   <property name="reverse">1</property>
  </transition>
  <transition id="transition2" in="00:02:58.225" out="00:03:02.252">
   <property name="a_track">0</property>
   <property name="b_track">1</property>
   <property name="mlt_service">mix</property>
   <property name="kdenlive_id">mix</property>
   <property name="kdenlive:mixcut">48</property>
   <property name="start">-1</property>
   <property name="accepts_blanks">1</property>
   <property name="reverse">0</property>
  </transition>
  <transition id="transition3" in="00:03:10.636" out="00:03:10.802">
   <property name="a_track">1</property>
   <property name="b_track">0</property>
   <property name="mlt_service">mix</property>
   <property name="kdenlive_id">mix</property>
   <property name="kdenlive:mixcut">2</property>
   <property name="start">-1</property>
   <property name="accepts_blanks">1</property>
   <property name="reverse">0</property>
  </transition>
  <transition id="transition4" in="00:03:07.716" out="00:03:07.883">
   <property name="a_track">1</property>
   <property name="b_track">0</property>
   <property name="mlt_service">mix</property>
   <property name="kdenlive_id">mix</property>
   <property name="kdenlive:mixcut">2</property>
   <property name="start">-1</property>
   <property name="accepts_blanks">1</property>
   <property name="reverse">0</property>
  </transition>
  <transition id="transition5" in="00:03:09.551" out="00:03:09.718">
   <property name="a_track">0</property>
   <property name="b_track">1</property>
   <property name="mlt_service">mix</property>
   <property name="kdenlive_id">mix</property>
   <property name="kdenlive:mixcut">2</property>
   <property name="start">-1</property>
   <property name="accepts_blanks">1</property>
   <property name="reverse">0</property>
  </transition>
  <transition id="transition6" in="00:03:06.173" out="00:03:06.340">
   <property name="a_track">0</property>
   <property name="b_track">1</property>
   <property name="mlt_service">mix</property>
   <property name="kdenlive_id">mix</property>
   <property name="kdenlive:mixcut">0</property>
   <property name="start">-1</property>
   <property name="accepts_blanks">1</property>
   <property name="reverse">0</property>
  </transition>
  <transition id="transition7" in="00:03:04.880" out="00:03:05.047">
   <property name="a_track">0</property>
   <property name="b_track">1</property>
   <property name="mlt_service">mix</property>
   <property name="kdenlive_id">mix</property>
   <property name="kdenlive:mixcut">2</property>
   <property name="start">-1</property>
   <property name="accepts_blanks">1</property>
   <property name="reverse">1</property>
  </transition>
  <transition id="transition8" in="00:05:05.172" out="00:05:06.173">
   <property name="a_track">0</property>
   <property name="b_track">1</property>
   <property name="mlt_service">mix</property>
   <property name="kdenlive_id">mix</property>
   <property name="kdenlive:mixcut">12</property>
   <property name="start">-1</property>
   <property name="accepts_blanks">1</property>
   <property name="reverse">0</property>
  </transition>
  <transition id="transition23" in="00:34:48.006" out="00:34:49.007">
   <property name="a_track">0</property>
   <property name="b_track">1</property>
   <property name="mlt_service">mix</property>
   <property name="kdenlive_id">mix</property>
   <property name="kdenlive:mixcut">12</property>
   <property name="start">-1</property>
   <property name="accepts_blanks">1</property>
   <property name="reverse">0</property>
  </transition>
  <transition id="transition24" in="00:37:32.699" out="00:37:33.700">
   <property name="a_track">0</property>
   <property name="b_track">1</property>
   <property name="mlt_service">mix</property>
   <property name="kdenlive_id">mix</property>
   <property name="kdenlive:mixcut">12</property>
   <property name="start">-1</property>
   <property name="accepts_blanks">1</property>
   <property name="reverse">0</property>
  </transition>
  <transition id="transition25" in="00:37:41.041" out="00:37:42.042">
   <property name="a_track">0</property>
   <property name="b_track">1</property>
   <property name="mlt_service">mix</property>
   <property name="kdenlive_id">mix</property>
   <property name="kdenlive:mixcut">12</property>
   <property name="start">-1</property>
   <property name="accepts_blanks">1</property>
   <property name="reverse">1</property>
  </transition>
  <transition id="transition26" in="00:39:51.843" out="00:39:52.844">
   <property name="a_track">0</property>
   <property name="b_track">1</property>
   <property name="mlt_service">mix</property>
   <property name="kdenlive_id">mix</property>
   <property name="kdenlive:mixcut">0</property>
   <property name="start">-1</property>
   <property name="accepts_blanks">1</property>
   <property name="reverse">0</property>
  </transition>
  <transition id="transition27" in="00:41:30.155" out="00:41:31.156">
   <property name="a_track">0</property>
   <property name="b_track">1</property>
   <property name="mlt_service">mix</property>
   <property name="kdenlive_id">mix</property>
   <property name="kdenlive:mixcut">12</property>
   <property name="start">-1</property>
   <property name="accepts_blanks">1</property>
   <property name="reverse">1</property>
  </transition>
  <transition id="transition28" in="00:41:53.011" out="00:41:54.012">
   <property name="a_track">0</property>
   <property name="b_track">1</property>
   <property name="mlt_service">mix</property>
   <property name="kdenlive_id">mix</property>
   <property name="kdenlive:mixcut">12</property>
   <property name="start">-1</property>
   <property name="accepts_blanks">1</property>
   <property name="reverse">0</property>
  </transition>
  <transition id="transition30" in="00:49:37.246" out="00:49:38.247">
   <property name="a_track">0</property>
   <property name="b_track">1</property>
   <property name="mlt_service">mix</property>
   <property name="kdenlive_id">mix</property>
   <property name="kdenlive:mixcut">0</property>
   <property name="start">-1</property>
   <property name="accepts_blanks">1</property>
   <property name="reverse">0</property>
  </transition>
  <transition id="transition31" in="00:52:07.507" out="00:52:08.508">
   <property name="a_track">0</property>
   <property name="b_track">1</property>
   <property name="mlt_service">mix</property>
   <property name="kdenlive_id">mix</property>
   <property name="kdenlive:mixcut">12</property>
   <property name="start">-1</property>
   <property name="accepts_blanks">1</property>
   <property name="reverse">1</property>
  </transition>
  <transition id="transition32" in="00:52:22.439" out="00:52:26.443">
   <property name="a_track">0</property>
   <property name="b_track">1</property>
   <property name="mlt_service">mix</property>
   <property name="kdenlive_id">mix</property>
   <property name="kdenlive:mixcut">0</property>
   <property name="start">-1</property>
   <property name="accepts_blanks">1</property>
   <property name="reverse">0</property>
  </transition>
  <transition id="transition33" in="00:53:47.798" out="00:53:48.799">
   <property name="a_track">0</property>
   <property name="b_track">1</property>
   <property name="mlt_service">mix</property>
   <property name="kdenlive_id">mix</property>
   <property name="kdenlive:mixcut">12</property>
   <property name="start">-1</property>
   <property name="accepts_blanks">1</property>
   <property name="reverse">1</property>
  </transition>
  <transition id="transition34" in="00:56:29.404" out="00:56:30.405">
   <property name="a_track">0</property>
   <property name="b_track">1</property>
   <property name="mlt_service">mix</property>
   <property name="kdenlive_id">mix</property>
   <property name="kdenlive:mixcut">12</property>
   <property name="start">-1</property>
   <property name="accepts_blanks">1</property>
   <property name="reverse">0</property>
  </transition>
  <transition id="transition35" in="01:08:08.967" out="01:08:09.968">
   <property name="a_track">0</property>
   <property name="b_track">1</property>
   <property name="mlt_service">mix</property>
   <property name="kdenlive_id">mix</property>
   <property name="kdenlive:mixcut">12</property>
   <property name="start">-1</property>
   <property name="accepts_blanks">1</property>
   <property name="reverse">1</property>
  </transition>
  <transition id="transition36" in="01:09:55.389" out="01:09:56.390">
   <property name="a_track">0</property>
   <property name="b_track">1</property>
   <property name="mlt_service">mix</property>
   <property name="kdenlive_id">mix</property>
   <property name="kdenlive:mixcut">12</property>
   <property name="start">-1</property>
   <property name="accepts_blanks">1</property>
   <property name="reverse">0</property>
  </transition>
  <transition id="transition9" in="00:06:38.163" out="00:06:39.164">
   <property name="a_track">1</property>
   <property name="b_track">0</property>
   <property name="mlt_service">mix</property>
   <property name="kdenlive_id">mix</property>
   <property name="kdenlive:mixcut">12</property>
   <property name="start">-1</property>
   <property name="accepts_blanks">1</property>
   <property name="reverse">0</property>
  </transition>
  <transition id="transition11" in="00:10:08.508" out="00:10:09.509">
   <property name="a_track">1</property>
   <property name="b_track">0</property>
   <property name="mlt_service">mix</property>
   <property name="kdenlive_id">mix</property>
   <property name="kdenlive:mixcut">12</property>
   <property name="start">-1</property>
   <property name="accepts_blanks">1</property>
   <property name="reverse">0</property>
  </transition>
  <transition id="transition13" in="00:13:35.994" out="00:13:36.411">
   <property name="a_track">1</property>
   <property name="b_track">0</property>
   <property name="mlt_service">mix</property>
   <property name="kdenlive_id">mix</property>
   <property name="kdenlive:mixcut">5</property>
   <property name="start">-1</property>
   <property name="accepts_blanks">1</property>
   <property name="reverse">0</property>
  </transition>
  <transition id="transition15" in="00:15:09.509" out="00:15:10.510">
   <property name="a_track">1</property>
   <property name="b_track">0</property>
   <property name="mlt_service">mix</property>
   <property name="kdenlive_id">mix</property>
   <property name="kdenlive:mixcut">0</property>
   <property name="start">-1</property>
   <property name="accepts_blanks">1</property>
   <property name="reverse">0</property>
  </transition>
  <transition id="transition17" in="00:19:50.008" out="00:19:51.009">
   <property name="a_track">1</property>
   <property name="b_track">0</property>
   <property name="mlt_service">mix</property>
   <property name="kdenlive_id">mix</property>
   <property name="kdenlive:mixcut">12</property>
   <property name="start">-1</property>
   <property name="accepts_blanks">1</property>
   <property name="reverse">0</property>
  </transition>
  <transition id="transition19" in="00:25:20.979" out="00:25:21.396">
   <property name="a_track">1</property>
   <property name="b_track">0</property>
   <property name="mlt_service">mix</property>
   <property name="kdenlive_id">mix</property>
   <property name="kdenlive:mixcut">1</property>
   <property name="start">-1</property>
   <property name="accepts_blanks">1</property>
   <property name="reverse">0</property>
  </transition>
  <transition id="transition21" in="00:34:15.849" out="00:34:16.850">
   <property name="a_track">1</property>
   <property name="b_track">0</property>
   <property name="mlt_service">mix</property>
   <property name="kdenlive_id">mix</property>
   <property name="kdenlive:mixcut">12</property>
   <property name="start">-1</property>
   <property name="accepts_blanks">1</property>
   <property name="reverse">0</property>
  </transition>
  <transition id="transition10" in="00:10:03.754" out="00:10:04.755">
   <property name="a_track">0</property>
   <property name="b_track">1</property>
   <property name="mlt_service">mix</property>
   <property name="kdenlive_id">mix</property>
   <property name="kdenlive:mixcut">12</property>
   <property name="start">-1</property>
   <property name="accepts_blanks">1</property>
   <property name="reverse">0</property>
  </transition>
  <transition id="transition12" in="00:10:15.682" out="00:10:16.683">
   <property name="a_track">0</property>
   <property name="b_track">1</property>
   <property name="mlt_service">mix</property>
   <property name="kdenlive_id">mix</property>
   <property name="kdenlive:mixcut">12</property>
   <property name="start">-1</property>
   <property name="accepts_blanks">1</property>
   <property name="reverse">0</property>
  </transition>
  <transition id="transition14" in="00:14:59.184" out="00:15:00.167">
   <property name="a_track">0</property>
   <property name="b_track">1</property>
   <property name="mlt_service">mix</property>
   <property name="kdenlive_id">mix</property>
   <property name="kdenlive:mixcut">12</property>
   <property name="start">-1</property>
   <property name="accepts_blanks">1</property>
   <property name="reverse">0</property>
  </transition>
  <transition id="transition16" in="00:19:39.706" out="00:19:40.707">
   <property name="a_track">0</property>
   <property name="b_track">1</property>
   <property name="mlt_service">mix</property>
   <property name="kdenlive_id">mix</property>
   <property name="kdenlive:mixcut">12</property>
   <property name="start">-1</property>
   <property name="accepts_blanks">1</property>
   <property name="reverse">0</property>
  </transition>
  <transition id="transition18" in="00:25:13.889" out="00:25:14.890">
   <property name="a_track">0</property>
   <property name="b_track">1</property>
   <property name="mlt_service">mix</property>
   <property name="kdenlive_id">mix</property>
   <property name="kdenlive:mixcut">12</property>
   <property name="start">-1</property>
   <property name="accepts_blanks">1</property>
   <property name="reverse">0</property>
  </transition>
  <transition id="transition20" in="00:31:41.667" out="00:31:42.668">
   <property name="a_track">0</property>
   <property name="b_track">1</property>
   <property name="mlt_service">mix</property>
   <property name="kdenlive_id">mix</property>
   <property name="kdenlive:mixcut">12</property>
   <property name="start">-1</property>
   <property name="accepts_blanks">1</property>
   <property name="reverse">0</property>
  </transition>
  <transition id="transition22" in="00:34:24.650" out="00:34:24.816">
   <property name="a_track">0</property>
   <property name="b_track">1</property>
   <property name="mlt_service">mix</property>
   <property name="kdenlive_id">mix</property>
   <property name="kdenlive:mixcut">1</property>
   <property name="start">-1</property>
   <property name="accepts_blanks">1</property>
   <property name="reverse">0</property>
  </transition>
  <transition id="transition29" in="00:06:30.280" out="00:06:31.281">
   <property name="a_track">0</property>
   <property name="b_track">1</property>
   <property name="mlt_service">mix</property>
   <property name="kdenlive_id">mix</property>
   <property name="kdenlive:mixcut">12</property>
   <property name="reverse">0</property>
  </transition>
  <transition id="transition41" in="00:06:24.650" out="00:06:28.654">
   <property name="a_track">0</property>
   <property name="b_track">1</property>
   <property name="mlt_service">mix</property>
   <property name="kdenlive_id">mix</property>
   <property name="kdenlive:mixcut">48</property>
   <property name="start">-1</property>
   <property name="accepts_blanks">1</property>
   <property name="reverse">1</property>
  </transition>
  <transition id="transition42" in="00:44:30.322" out="00:44:31.323">
   <property name="a_track">0</property>
   <property name="b_track">1</property>
   <property name="mlt_service">mix</property>
   <property name="kdenlive_id">mix</property>
   <property name="kdenlive:mixcut">12</property>
   <property name="start">-1</property>
   <property name="accepts_blanks">1</property>
   <property name="reverse">1</property>
  </transition>
  <filter id="filter56">
   <property name="window">75</property>
   <property name="max_gain">20dB</property>
   <property name="mlt_service">volume</property>
   <property name="internal_added">237</property>
   <property name="disable">1</property>
  </filter>
  <filter id="filter57">
   <property name="channel">-1</property>
   <property name="mlt_service">panner</property>
   <property name="internal_added">237</property>
   <property name="start">0.5</property>
   <property name="disable">1</property>
  </filter>
  <filter id="filter58">
   <property name="iec_scale">0</property>
   <property name="mlt_service">audiolevel</property>
   <property name="dbpeak">1</property>
   <property name="disable">1</property>
  </filter>
 </tractor>
 <chain id="chain10" out="01:49:06.215">
  <property name="length">156952</property>
  <property name="eof">pause</property>
  <property name="resource">/Horror and SciFi/The Terminator DVD Boxset Part 1, 2, 3 &amp; 4/Terminator III - The Rise of the Machines (2003)/Terminator.3.Rise.of.the.Machines.2003.1080p.BluRay.x264/Terminator.3.Rise.of.the.Machines.2003.1080p.BluRay.x264.mkv</property>
  <property name="mlt_service">avformat-novalidate</property>
  <property name="seekable">1</property>
  <property name="audio_index">1</property>
  <property name="video_index">0</property>
  <property name="vstream">0</property>
  <property name="astream">0</property>
  <property name="kdenlive:control_uuid">{8a480ecc-b631-4a2f-b493-6a744a94365a}</property>
  <property name="kdenlive:proxy">-</property>
  <property name="kdenlive:originalurl">/Horror and SciFi/The Terminator DVD Boxset Part 1, 2, 3 &amp; 4/Terminator III - The Rise of the Machines (2003)/Terminator.3.Rise.of.the.Machines.2003.1080p.BluRay.x264/Terminator.3.Rise.of.the.Machines.2003.1080p.BluRay.x264.mkv</property>
  <property name="kdenlive:id">4</property>
  <property name="mute_on_pause">0</property>
  <property name="kdenlive:clip_type">0</property>
  <property name="kdenlive:file_size">12299138322</property>
  <property name="kdenlive:file_hash">7d0a41a44b5c23a12a68a058620a51f8</property>
  <property name="kdenlive:folderid">2</property>
  <property name="meta.media.nb_streams">7</property>
  <property name="meta.media.0.stream.type">video</property>
  <property name="meta.media.0.stream.frame_rate">23.976</property>
  <property name="meta.media.0.stream.sample_aspect_ratio">1</property>
  <property name="meta.media.0.codec.width">1920</property>
  <property name="meta.media.0.codec.height">790</property>
  <property name="meta.media.0.codec.rotate">0</property>
  <property name="meta.media.0.codec.pix_fmt">yuv420p</property>
  <property name="meta.media.0.codec.sample_aspect_ratio">1</property>
  <property name="meta.media.0.codec.colorspace">709</property>
  <property name="meta.media.0.codec.color_trc">1</property>
  <property name="meta.media.0.codec.name">h264</property>
  <property name="meta.media.0.codec.long_name">H.264 / AVC / MPEG-4 AVC / MPEG-4 part 10</property>
  <property name="meta.media.0.codec.bit_rate">0</property>
  <property name="meta.attr.0.stream.language.markup">eng</property>
  <property name="meta.media.1.stream.type">audio</property>
  <property name="meta.media.1.codec.sample_fmt">fltp</property>
  <property name="meta.media.1.codec.sample_rate">48000</property>
  <property name="meta.media.1.codec.channels">6</property>
  <property name="meta.media.1.codec.layout">5.1(side)</property>
  <property name="meta.media.1.codec.name">dca</property>
  <property name="meta.media.1.codec.long_name">DCA (DTS Coherent Acoustics)</property>
  <property name="meta.media.1.codec.bit_rate">1536000</property>
  <property name="meta.attr.1.stream.language.markup">eng</property>
  <property name="meta.media.2.codec.name">srt</property>
  <property name="meta.media.2.codec.long_name">SubRip subtitle</property>
  <property name="meta.media.2.codec.bit_rate">0</property>
  <property name="meta.attr.2.stream.language.markup">eng</property>
  <property name="meta.media.3.stream.type">video</property>
  <property name="meta.media.3.stream.frame_rate">90000</property>
  <property name="meta.media.3.stream.sample_aspect_ratio">0</property>
  <property name="meta.media.3.codec.width">1067</property>
  <property name="meta.media.3.codec.height">600</property>
  <property name="meta.media.3.codec.rotate">0</property>
  <property name="meta.media.3.codec.pix_fmt">yuvj444p</property>
  <property name="meta.media.3.codec.sample_aspect_ratio">0</property>
  <property name="meta.media.3.codec.colorspace">601</property>
  <property name="meta.media.3.codec.name">mjpeg</property>
  <property name="meta.media.3.codec.long_name">MJPEG (Motion JPEG)</property>
  <property name="meta.media.3.codec.bit_rate">0</property>
  <property name="meta.attr.3.stream.filename.markup">cover_land.jpg</property>
  <property name="meta.attr.3.stream.mimetype.markup">image/jpeg</property>
  <property name="meta.media.4.stream.type">video</property>
  <property name="meta.media.4.stream.frame_rate">90000</property>
  <property name="meta.media.4.stream.sample_aspect_ratio">0</property>
  <property name="meta.media.4.codec.width">120</property>
  <property name="meta.media.4.codec.height">176</property>
  <property name="meta.media.4.codec.rotate">0</property>
  <property name="meta.media.4.codec.pix_fmt">yuvj444p</property>
  <property name="meta.media.4.codec.sample_aspect_ratio">0</property>
  <property name="meta.media.4.codec.colorspace">601</property>
  <property name="meta.media.4.codec.name">mjpeg</property>
  <property name="meta.media.4.codec.long_name">MJPEG (Motion JPEG)</property>
  <property name="meta.media.4.codec.bit_rate">0</property>
  <property name="meta.attr.4.stream.filename.markup">small_cover.jpg</property>
  <property name="meta.attr.4.stream.mimetype.markup">image/jpeg</property>
  <property name="meta.media.5.stream.type">video</property>
  <property name="meta.media.5.stream.frame_rate">90000</property>
  <property name="meta.media.5.stream.sample_aspect_ratio">0</property>
  <property name="meta.media.5.codec.width">213</property>
  <property name="meta.media.5.codec.height">120</property>
  <property name="meta.media.5.codec.rotate">0</property>
  <property name="meta.media.5.codec.pix_fmt">yuvj444p</property>
  <property name="meta.media.5.codec.sample_aspect_ratio">0</property>
  <property name="meta.media.5.codec.colorspace">601</property>
  <property name="meta.media.5.codec.name">mjpeg</property>
  <property name="meta.media.5.codec.long_name">MJPEG (Motion JPEG)</property>
  <property name="meta.media.5.codec.bit_rate">0</property>
  <property name="meta.attr.5.stream.filename.markup">small_cover_land.jpg</property>
  <property name="meta.attr.5.stream.mimetype.markup">image/jpeg</property>
  <property name="meta.media.6.stream.type">video</property>
  <property name="meta.media.6.stream.frame_rate">90000</property>
  <property name="meta.media.6.stream.sample_aspect_ratio">0</property>
  <property name="meta.media.6.codec.width">600</property>
  <property name="meta.media.6.codec.height">882</property>
  <property name="meta.media.6.codec.rotate">0</property>
  <property name="meta.media.6.codec.pix_fmt">yuvj444p</property>
  <property name="meta.media.6.codec.sample_aspect_ratio">0</property>
  <property name="meta.media.6.codec.colorspace">601</property>
  <property name="meta.media.6.codec.name">mjpeg</property>
  <property name="meta.media.6.codec.long_name">MJPEG (Motion JPEG)</property>
  <property name="meta.media.6.codec.bit_rate">0</property>
  <property name="meta.attr.6.stream.filename.markup">cover.jpg</property>
  <property name="meta.attr.6.stream.mimetype.markup">image/jpeg</property>
  <property name="meta.attr.title.markup">Terminator.3.Rise.of.the.Machines.2003.1080p.BluRay.x264</property>
  <property name="meta.attr.encoder.markup">libebml v1.3.1 + libmatroska v1.4.2</property>
  <property name="meta.attr.creation_time.markup">2015-06-21T10:42:15.000000Z</property>
  <property name="meta.media.sample_aspect_num">1</property>
  <property name="meta.media.sample_aspect_den">1</property>
  <property name="meta.media.frame_rate_num">24000</property>
  <property name="meta.media.frame_rate_den">1001</property>
  <property name="meta.media.colorspace">709</property>
  <property name="meta.media.color_trc">1</property>
  <property name="meta.media.has_b_frames">2</property>
  <property name="meta.media.width">1920</property>
  <property name="meta.media.height">790</property>
  <property name="meta.media.aspect_ratio">1</property>
  <property name="meta.media.color_range">mpeg</property>
  <property name="xml">was here</property>
  <property name="meta.media.top_field_first">0</property>
  <property name="meta.media.progressive">1</property>
  <property name="set.test_audio">1</property>
  <property name="set.test_image">0</property>
 </chain>
 <producer id="producer4" in="00:00:00.000" out="02:45:18.268">
  <property name="length">237806</property>
  <property name="eof">pause</property>
  <property name="resource">0.660000:/Horror and SciFi/The Terminator DVD Boxset Part 1, 2, 3 &amp; 4/Terminator III - The Rise of the Machines (2003)/Terminator.3.Rise.of.the.Machines.2003.1080p.BluRay.x264/Terminator.3.Rise.of.the.Machines.2003.1080p.BluRay.x264.mkv</property>
  <property name="aspect_ratio">1</property>
  <property name="meta.media.nb_streams">7</property>
  <property name="meta.media.0.stream.type">video</property>
  <property name="meta.media.0.stream.frame_rate">23.976</property>
  <property name="meta.media.0.stream.sample_aspect_ratio">1</property>
  <property name="meta.media.0.codec.width">1920</property>
  <property name="meta.media.0.codec.height">790</property>
  <property name="meta.media.0.codec.rotate">0</property>
  <property name="meta.media.0.codec.pix_fmt">yuv420p</property>
  <property name="meta.media.0.codec.sample_aspect_ratio">1</property>
  <property name="meta.media.0.codec.colorspace">709</property>
  <property name="meta.media.0.codec.color_trc">1</property>
  <property name="meta.media.0.codec.name">h264</property>
  <property name="meta.media.0.codec.long_name">H.264 / AVC / MPEG-4 AVC / MPEG-4 part 10</property>
  <property name="meta.media.0.codec.bit_rate">0</property>
  <property name="meta.attr.0.stream.language.markup">eng</property>
  <property name="meta.media.1.stream.type">audio</property>
  <property name="meta.media.1.codec.sample_fmt">fltp</property>
  <property name="meta.media.1.codec.sample_rate">48000</property>
  <property name="meta.media.1.codec.channels">6</property>
  <property name="meta.media.1.codec.layout">5.1(side)</property>
  <property name="meta.media.1.codec.name">dca</property>
  <property name="meta.media.1.codec.long_name">DCA (DTS Coherent Acoustics)</property>
  <property name="meta.media.1.codec.bit_rate">1536000</property>
  <property name="meta.attr.1.stream.language.markup">eng</property>
  <property name="meta.media.2.codec.name">srt</property>
  <property name="meta.media.2.codec.long_name">SubRip subtitle</property>
  <property name="meta.media.2.codec.bit_rate">0</property>
  <property name="meta.attr.2.stream.language.markup">eng</property>
  <property name="meta.media.3.stream.type">video</property>
  <property name="meta.media.3.stream.frame_rate">90000</property>
  <property name="meta.media.3.stream.sample_aspect_ratio">0</property>
  <property name="meta.media.3.codec.width">1067</property>
  <property name="meta.media.3.codec.height">600</property>
  <property name="meta.media.3.codec.rotate">0</property>
  <property name="meta.media.3.codec.pix_fmt">yuvj444p</property>
  <property name="meta.media.3.codec.sample_aspect_ratio">0</property>
  <property name="meta.media.3.codec.colorspace">601</property>
  <property name="meta.media.3.codec.name">mjpeg</property>
  <property name="meta.media.3.codec.long_name">MJPEG (Motion JPEG)</property>
  <property name="meta.media.3.codec.bit_rate">0</property>
  <property name="meta.attr.3.stream.filename.markup">cover_land.jpg</property>
  <property name="meta.attr.3.stream.mimetype.markup">image/jpeg</property>
  <property name="meta.media.4.stream.type">video</property>
  <property name="meta.media.4.stream.frame_rate">90000</property>
  <property name="meta.media.4.stream.sample_aspect_ratio">0</property>
  <property name="meta.media.4.codec.width">120</property>
  <property name="meta.media.4.codec.height">176</property>
  <property name="meta.media.4.codec.rotate">0</property>
  <property name="meta.media.4.codec.pix_fmt">yuvj444p</property>
  <property name="meta.media.4.codec.sample_aspect_ratio">0</property>
  <property name="meta.media.4.codec.colorspace">601</property>
  <property name="meta.media.4.codec.name">mjpeg</property>
  <property name="meta.media.4.codec.long_name">MJPEG (Motion JPEG)</property>
  <property name="meta.media.4.codec.bit_rate">0</property>
  <property name="meta.attr.4.stream.filename.markup">small_cover.jpg</property>
  <property name="meta.attr.4.stream.mimetype.markup">image/jpeg</property>
  <property name="meta.media.5.stream.type">video</property>
  <property name="meta.media.5.stream.frame_rate">90000</property>
  <property name="meta.media.5.stream.sample_aspect_ratio">0</property>
  <property name="meta.media.5.codec.width">213</property>
  <property name="meta.media.5.codec.height">120</property>
  <property name="meta.media.5.codec.rotate">0</property>
  <property name="meta.media.5.codec.pix_fmt">yuvj444p</property>
  <property name="meta.media.5.codec.sample_aspect_ratio">0</property>
  <property name="meta.media.5.codec.colorspace">601</property>
  <property name="meta.media.5.codec.name">mjpeg</property>
  <property name="meta.media.5.codec.long_name">MJPEG (Motion JPEG)</property>
  <property name="meta.media.5.codec.bit_rate">0</property>
  <property name="meta.attr.5.stream.filename.markup">small_cover_land.jpg</property>
  <property name="meta.attr.5.stream.mimetype.markup">image/jpeg</property>
  <property name="meta.media.6.stream.type">video</property>
  <property name="meta.media.6.stream.frame_rate">90000</property>
  <property name="meta.media.6.stream.sample_aspect_ratio">0</property>
  <property name="meta.media.6.codec.width">600</property>
  <property name="meta.media.6.codec.height">882</property>
  <property name="meta.media.6.codec.rotate">0</property>
  <property name="meta.media.6.codec.pix_fmt">yuvj444p</property>
  <property name="meta.media.6.codec.sample_aspect_ratio">0</property>
  <property name="meta.media.6.codec.colorspace">601</property>
  <property name="meta.media.6.codec.name">mjpeg</property>
  <property name="meta.media.6.codec.long_name">MJPEG (Motion JPEG)</property>
  <property name="meta.media.6.codec.bit_rate">0</property>
  <property name="meta.attr.6.stream.filename.markup">cover.jpg</property>
  <property name="meta.attr.6.stream.mimetype.markup">image/jpeg</property>
  <property name="meta.attr.title.markup">Terminator.3.Rise.of.the.Machines.2003.1080p.BluRay.x264</property>
  <property name="meta.attr.encoder.markup">libebml v1.3.1 + libmatroska v1.4.2</property>
  <property name="meta.attr.creation_time.markup">2015-06-21T10:42:15.000000Z</property>
  <property name="seekable">1</property>
  <property name="meta.media.sample_aspect_num">1</property>
  <property name="meta.media.sample_aspect_den">1</property>
  <property name="audio_index">1</property>
  <property name="video_index">0</property>
  <property name="warp_speed">0.66</property>
  <property name="warp_resource">/Horror and SciFi/The Terminator DVD Boxset Part 1, 2, 3 &amp; 4/Terminator III - The Rise of the Machines (2003)/Terminator.3.Rise.of.the.Machines.2003.1080p.BluRay.x264/Terminator.3.Rise.of.the.Machines.2003.1080p.BluRay.x264.mkv</property>
  <property name="mlt_service">timewarp</property>
  <property name="kdenlive:control_uuid">{8a480ecc-b631-4a2f-b493-6a744a94365a}</property>
  <property name="kdenlive:proxy">-</property>
  <property name="kdenlive:originalurl">/Horror and SciFi/The Terminator DVD Boxset Part 1, 2, 3 &amp; 4/Terminator III - The Rise of the Machines (2003)/Terminator.3.Rise.of.the.Machines.2003.1080p.BluRay.x264/Terminator.3.Rise.of.the.Machines.2003.1080p.BluRay.x264.mkv</property>
  <property name="vstream">0</property>
  <property name="astream">0</property>
  <property name="set.test_audio">1</property>
  <property name="set.test_image">0</property>
  <property name="kdenlive:id">4</property>
  <property name="warp_pitch">0</property>
  <property name="meta.media.frame_rate_num">24000</property>
  <property name="meta.media.frame_rate_den">1001</property>
  <property name="meta.media.colorspace">709</property>
  <property name="meta.media.color_trc">1</property>
  <property name="meta.media.has_b_frames">2</property>
  <property name="meta.media.width">1920</property>
  <property name="meta.media.height">790</property>
  <property name="meta.media.aspect_ratio">1</property>
  <property name="meta.media.color_range">mpeg</property>
  <property name="meta.media.top_field_first">0</property>
  <property name="meta.media.progressive">1</property>
 </producer>
 <producer id="producer5" in="00:00:00.000" out="02:45:18.268">
  <property name="length">237806</property>
  <property name="eof">pause</property>
  <property name="resource">0.660000:/Horror and SciFi/The Terminator DVD Boxset Part 1, 2, 3 &amp; 4/Terminator III - The Rise of the Machines (2003)/Terminator.3.Rise.of.the.Machines.2003.1080p.BluRay.x264/Terminator.3.Rise.of.the.Machines.2003.1080p.BluRay.x264.mkv</property>
  <property name="aspect_ratio">1</property>
  <property name="meta.media.nb_streams">7</property>
  <property name="meta.media.0.stream.type">video</property>
  <property name="meta.media.0.stream.frame_rate">23.976</property>
  <property name="meta.media.0.stream.sample_aspect_ratio">1</property>
  <property name="meta.media.0.codec.width">1920</property>
  <property name="meta.media.0.codec.height">790</property>
  <property name="meta.media.0.codec.rotate">0</property>
  <property name="meta.media.0.codec.pix_fmt">yuv420p</property>
  <property name="meta.media.0.codec.sample_aspect_ratio">1</property>
  <property name="meta.media.0.codec.colorspace">709</property>
  <property name="meta.media.0.codec.color_trc">1</property>
  <property name="meta.media.0.codec.name">h264</property>
  <property name="meta.media.0.codec.long_name">H.264 / AVC / MPEG-4 AVC / MPEG-4 part 10</property>
  <property name="meta.media.0.codec.bit_rate">0</property>
  <property name="meta.attr.0.stream.language.markup">eng</property>
  <property name="meta.media.1.stream.type">audio</property>
  <property name="meta.media.1.codec.sample_fmt">fltp</property>
  <property name="meta.media.1.codec.sample_rate">48000</property>
  <property name="meta.media.1.codec.channels">6</property>
  <property name="meta.media.1.codec.layout">5.1(side)</property>
  <property name="meta.media.1.codec.name">dca</property>
  <property name="meta.media.1.codec.long_name">DCA (DTS Coherent Acoustics)</property>
  <property name="meta.media.1.codec.bit_rate">1536000</property>
  <property name="meta.attr.1.stream.language.markup">eng</property>
  <property name="meta.media.2.codec.name">srt</property>
  <property name="meta.media.2.codec.long_name">SubRip subtitle</property>
  <property name="meta.media.2.codec.bit_rate">0</property>
  <property name="meta.attr.2.stream.language.markup">eng</property>
  <property name="meta.media.3.stream.type">video</property>
  <property name="meta.media.3.stream.frame_rate">90000</property>
  <property name="meta.media.3.stream.sample_aspect_ratio">0</property>
  <property name="meta.media.3.codec.width">1067</property>
  <property name="meta.media.3.codec.height">600</property>
  <property name="meta.media.3.codec.rotate">0</property>
  <property name="meta.media.3.codec.pix_fmt">yuvj444p</property>
  <property name="meta.media.3.codec.sample_aspect_ratio">0</property>
  <property name="meta.media.3.codec.colorspace">601</property>
  <property name="meta.media.3.codec.name">mjpeg</property>
  <property name="meta.media.3.codec.long_name">MJPEG (Motion JPEG)</property>
  <property name="meta.media.3.codec.bit_rate">0</property>
  <property name="meta.attr.3.stream.filename.markup">cover_land.jpg</property>
  <property name="meta.attr.3.stream.mimetype.markup">image/jpeg</property>
  <property name="meta.media.4.stream.type">video</property>
  <property name="meta.media.4.stream.frame_rate">90000</property>
  <property name="meta.media.4.stream.sample_aspect_ratio">0</property>
  <property name="meta.media.4.codec.width">120</property>
  <property name="meta.media.4.codec.height">176</property>
  <property name="meta.media.4.codec.rotate">0</property>
  <property name="meta.media.4.codec.pix_fmt">yuvj444p</property>
  <property name="meta.media.4.codec.sample_aspect_ratio">0</property>
  <property name="meta.media.4.codec.colorspace">601</property>
  <property name="meta.media.4.codec.name">mjpeg</property>
  <property name="meta.media.4.codec.long_name">MJPEG (Motion JPEG)</property>
  <property name="meta.media.4.codec.bit_rate">0</property>
  <property name="meta.attr.4.stream.filename.markup">small_cover.jpg</property>
  <property name="meta.attr.4.stream.mimetype.markup">image/jpeg</property>
  <property name="meta.media.5.stream.type">video</property>
  <property name="meta.media.5.stream.frame_rate">90000</property>
  <property name="meta.media.5.stream.sample_aspect_ratio">0</property>
  <property name="meta.media.5.codec.width">213</property>
  <property name="meta.media.5.codec.height">120</property>
  <property name="meta.media.5.codec.rotate">0</property>
  <property name="meta.media.5.codec.pix_fmt">yuvj444p</property>
  <property name="meta.media.5.codec.sample_aspect_ratio">0</property>
  <property name="meta.media.5.codec.colorspace">601</property>
  <property name="meta.media.5.codec.name">mjpeg</property>
  <property name="meta.media.5.codec.long_name">MJPEG (Motion JPEG)</property>
  <property name="meta.media.5.codec.bit_rate">0</property>
  <property name="meta.attr.5.stream.filename.markup">small_cover_land.jpg</property>
  <property name="meta.attr.5.stream.mimetype.markup">image/jpeg</property>
  <property name="meta.media.6.stream.type">video</property>
  <property name="meta.media.6.stream.frame_rate">90000</property>
  <property name="meta.media.6.stream.sample_aspect_ratio">0</property>
  <property name="meta.media.6.codec.width">600</property>
  <property name="meta.media.6.codec.height">882</property>
  <property name="meta.media.6.codec.rotate">0</property>
  <property name="meta.media.6.codec.pix_fmt">yuvj444p</property>
  <property name="meta.media.6.codec.sample_aspect_ratio">0</property>
  <property name="meta.media.6.codec.colorspace">601</property>
  <property name="meta.media.6.codec.name">mjpeg</property>
  <property name="meta.media.6.codec.long_name">MJPEG (Motion JPEG)</property>
  <property name="meta.media.6.codec.bit_rate">0</property>
  <property name="meta.attr.6.stream.filename.markup">cover.jpg</property>
  <property name="meta.attr.6.stream.mimetype.markup">image/jpeg</property>
  <property name="meta.attr.title.markup">Terminator.3.Rise.of.the.Machines.2003.1080p.BluRay.x264</property>
  <property name="meta.attr.encoder.markup">libebml v1.3.1 + libmatroska v1.4.2</property>
  <property name="meta.attr.creation_time.markup">2015-06-21T10:42:15.000000Z</property>
  <property name="seekable">1</property>
  <property name="meta.media.sample_aspect_num">1</property>
  <property name="meta.media.sample_aspect_den">1</property>
  <property name="audio_index">1</property>
  <property name="video_index">0</property>
  <property name="warp_speed">0.66</property>
  <property name="warp_resource">/Horror and SciFi/The Terminator DVD Boxset Part 1, 2, 3 &amp; 4/Terminator III - The Rise of the Machines (2003)/Terminator.3.Rise.of.the.Machines.2003.1080p.BluRay.x264/Terminator.3.Rise.of.the.Machines.2003.1080p.BluRay.x264.mkv</property>
  <property name="mlt_service">timewarp</property>
  <property name="kdenlive:control_uuid">{8a480ecc-b631-4a2f-b493-6a744a94365a}</property>
  <property name="kdenlive:proxy">-</property>
  <property name="kdenlive:originalurl">/Horror and SciFi/The Terminator DVD Boxset Part 1, 2, 3 &amp; 4/Terminator III - The Rise of the Machines (2003)/Terminator.3.Rise.of.the.Machines.2003.1080p.BluRay.x264/Terminator.3.Rise.of.the.Machines.2003.1080p.BluRay.x264.mkv</property>
  <property name="vstream">0</property>
  <property name="astream">0</property>
  <property name="set.test_audio">1</property>
  <property name="set.test_image">0</property>
  <property name="kdenlive:id">4</property>
  <property name="warp_pitch">0</property>
  <property name="meta.media.frame_rate_num">24000</property>
  <property name="meta.media.frame_rate_den">1001</property>
  <property name="meta.media.colorspace">709</property>
  <property name="meta.media.color_trc">1</property>
  <property name="meta.media.has_b_frames">2</property>
  <property name="meta.media.width">1920</property>
  <property name="meta.media.height">790</property>
  <property name="meta.media.aspect_ratio">1</property>
  <property name="meta.media.color_range">mpeg</property>
  <property name="meta.media.top_field_first">0</property>
  <property name="meta.media.progressive">1</property>
 </producer>
 <producer id="producer6" in="00:00:00.000" out="02:45:18.268">
  <property name="length">237806</property>
  <property name="eof">pause</property>
  <property name="resource">0.660000:/Horror and SciFi/The Terminator DVD Boxset Part 1, 2, 3 &amp; 4/Terminator III - The Rise of the Machines (2003)/Terminator.3.Rise.of.the.Machines.2003.1080p.BluRay.x264/Terminator.3.Rise.of.the.Machines.2003.1080p.BluRay.x264.mkv</property>
  <property name="aspect_ratio">1</property>
  <property name="meta.media.nb_streams">7</property>
  <property name="meta.media.0.stream.type">video</property>
  <property name="meta.media.0.stream.frame_rate">23.976</property>
  <property name="meta.media.0.stream.sample_aspect_ratio">1</property>
  <property name="meta.media.0.codec.width">1920</property>
  <property name="meta.media.0.codec.height">790</property>
  <property name="meta.media.0.codec.rotate">0</property>
  <property name="meta.media.0.codec.pix_fmt">yuv420p</property>
  <property name="meta.media.0.codec.sample_aspect_ratio">1</property>
  <property name="meta.media.0.codec.colorspace">709</property>
  <property name="meta.media.0.codec.color_trc">1</property>
  <property name="meta.media.0.codec.name">h264</property>
  <property name="meta.media.0.codec.long_name">H.264 / AVC / MPEG-4 AVC / MPEG-4 part 10</property>
  <property name="meta.media.0.codec.bit_rate">0</property>
  <property name="meta.attr.0.stream.language.markup">eng</property>
  <property name="meta.media.1.stream.type">audio</property>
  <property name="meta.media.1.codec.sample_fmt">fltp</property>
  <property name="meta.media.1.codec.sample_rate">48000</property>
  <property name="meta.media.1.codec.channels">6</property>
  <property name="meta.media.1.codec.layout">5.1(side)</property>
  <property name="meta.media.1.codec.name">dca</property>
  <property name="meta.media.1.codec.long_name">DCA (DTS Coherent Acoustics)</property>
  <property name="meta.media.1.codec.bit_rate">1536000</property>
  <property name="meta.attr.1.stream.language.markup">eng</property>
  <property name="meta.media.2.codec.name">srt</property>
  <property name="meta.media.2.codec.long_name">SubRip subtitle</property>
  <property name="meta.media.2.codec.bit_rate">0</property>
  <property name="meta.attr.2.stream.language.markup">eng</property>
  <property name="meta.media.3.stream.type">video</property>
  <property name="meta.media.3.stream.frame_rate">90000</property>
  <property name="meta.media.3.stream.sample_aspect_ratio">0</property>
  <property name="meta.media.3.codec.width">1067</property>
  <property name="meta.media.3.codec.height">600</property>
  <property name="meta.media.3.codec.rotate">0</property>
  <property name="meta.media.3.codec.pix_fmt">yuvj444p</property>
  <property name="meta.media.3.codec.sample_aspect_ratio">0</property>
  <property name="meta.media.3.codec.colorspace">601</property>
  <property name="meta.media.3.codec.name">mjpeg</property>
  <property name="meta.media.3.codec.long_name">MJPEG (Motion JPEG)</property>
  <property name="meta.media.3.codec.bit_rate">0</property>
  <property name="meta.attr.3.stream.filename.markup">cover_land.jpg</property>
  <property name="meta.attr.3.stream.mimetype.markup">image/jpeg</property>
  <property name="meta.media.4.stream.type">video</property>
  <property name="meta.media.4.stream.frame_rate">90000</property>
  <property name="meta.media.4.stream.sample_aspect_ratio">0</property>
  <property name="meta.media.4.codec.width">120</property>
  <property name="meta.media.4.codec.height">176</property>
  <property name="meta.media.4.codec.rotate">0</property>
  <property name="meta.media.4.codec.pix_fmt">yuvj444p</property>
  <property name="meta.media.4.codec.sample_aspect_ratio">0</property>
  <property name="meta.media.4.codec.colorspace">601</property>
  <property name="meta.media.4.codec.name">mjpeg</property>
  <property name="meta.media.4.codec.long_name">MJPEG (Motion JPEG)</property>
  <property name="meta.media.4.codec.bit_rate">0</property>
  <property name="meta.attr.4.stream.filename.markup">small_cover.jpg</property>
  <property name="meta.attr.4.stream.mimetype.markup">image/jpeg</property>
  <property name="meta.media.5.stream.type">video</property>
  <property name="meta.media.5.stream.frame_rate">90000</property>
  <property name="meta.media.5.stream.sample_aspect_ratio">0</property>
  <property name="meta.media.5.codec.width">213</property>
  <property name="meta.media.5.codec.height">120</property>
  <property name="meta.media.5.codec.rotate">0</property>
  <property name="meta.media.5.codec.pix_fmt">yuvj444p</property>
  <property name="meta.media.5.codec.sample_aspect_ratio">0</property>
  <property name="meta.media.5.codec.colorspace">601</property>
  <property name="meta.media.5.codec.name">mjpeg</property>
  <property name="meta.media.5.codec.long_name">MJPEG (Motion JPEG)</property>
  <property name="meta.media.5.codec.bit_rate">0</property>
  <property name="meta.attr.5.stream.filename.markup">small_cover_land.jpg</property>
  <property name="meta.attr.5.stream.mimetype.markup">image/jpeg</property>
  <property name="meta.media.6.stream.type">video</property>
  <property name="meta.media.6.stream.frame_rate">90000</property>
  <property name="meta.media.6.stream.sample_aspect_ratio">0</property>
  <property name="meta.media.6.codec.width">600</property>
  <property name="meta.media.6.codec.height">882</property>
  <property name="meta.media.6.codec.rotate">0</property>
  <property name="meta.media.6.codec.pix_fmt">yuvj444p</property>
  <property name="meta.media.6.codec.sample_aspect_ratio">0</property>
  <property name="meta.media.6.codec.colorspace">601</property>
  <property name="meta.media.6.codec.name">mjpeg</property>
  <property name="meta.media.6.codec.long_name">MJPEG (Motion JPEG)</property>
  <property name="meta.media.6.codec.bit_rate">0</property>
  <property name="meta.attr.6.stream.filename.markup">cover.jpg</property>
  <property name="meta.attr.6.stream.mimetype.markup">image/jpeg</property>
  <property name="meta.attr.title.markup">Terminator.3.Rise.of.the.Machines.2003.1080p.BluRay.x264</property>
  <property name="meta.attr.encoder.markup">libebml v1.3.1 + libmatroska v1.4.2</property>
  <property name="meta.attr.creation_time.markup">2015-06-21T10:42:15.000000Z</property>
  <property name="seekable">1</property>
  <property name="meta.media.sample_aspect_num">1</property>
  <property name="meta.media.sample_aspect_den">1</property>
  <property name="audio_index">1</property>
  <property name="video_index">0</property>
  <property name="warp_speed">0.66</property>
  <property name="warp_resource">/Horror and SciFi/The Terminator DVD Boxset Part 1, 2, 3 &amp; 4/Terminator III - The Rise of the Machines (2003)/Terminator.3.Rise.of.the.Machines.2003.1080p.BluRay.x264/Terminator.3.Rise.of.the.Machines.2003.1080p.BluRay.x264.mkv</property>
  <property name="mlt_service">timewarp</property>
  <property name="kdenlive:control_uuid">{8a480ecc-b631-4a2f-b493-6a744a94365a}</property>
  <property name="kdenlive:proxy">-</property>
  <property name="kdenlive:originalurl">/Horror and SciFi/The Terminator DVD Boxset Part 1, 2, 3 &amp; 4/Terminator III - The Rise of the Machines (2003)/Terminator.3.Rise.of.the.Machines.2003.1080p.BluRay.x264/Terminator.3.Rise.of.the.Machines.2003.1080p.BluRay.x264.mkv</property>
  <property name="vstream">0</property>
  <property name="astream">0</property>
  <property name="set.test_audio">1</property>
  <property name="set.test_image">0</property>
  <property name="kdenlive:id">4</property>
  <property name="warp_pitch">0</property>
  <property name="meta.media.frame_rate_num">24000</property>
  <property name="meta.media.frame_rate_den">1001</property>
  <property name="meta.media.colorspace">709</property>
  <property name="meta.media.color_trc">1</property>
  <property name="meta.media.has_b_frames">2</property>
  <property name="meta.media.width">1920</property>
  <property name="meta.media.height">790</property>
  <property name="meta.media.aspect_ratio">1</property>
  <property name="meta.media.color_range">mpeg</property>
  <property name="meta.media.top_field_first">0</property>
  <property name="meta.media.progressive">1</property>
 </producer>
 <playlist id="playlist8">
  <blank length="00:00:00.042"/>
  <entry in="00:00:00.000" out="00:01:52.844" producer="chain10">
   <property name="kdenlive:id">4</property>
  </entry>
  <entry in="00:02:00.792" out="00:02:15.432" producer="chain10">
   <property name="kdenlive:id">4</property>
  </entry>
  <entry in="00:03:55.889" out="00:04:48.465" producer="chain10">
   <property name="kdenlive:id">4</property>
  </entry>
  <entry in="00:05:00.292" out="00:05:04.963" producer="chain10">
   <property name="kdenlive:id">4</property>
  </entry>
  <blank length="00:00:01.293"/>
  <entry in="00:05:15.015" out="00:05:16.516" producer="chain10">
   <property name="kdenlive:id">4</property>
   <filter id="filter59">
    <property name="background">colour:0</property>
    <property name="mlt_service">affine</property>
    <property name="kdenlive_id">pan_zoom</property>
    <property name="transition.rect">00:05:15.015=-906 -6 2825 1162</property>
    <property name="transition.distort">0</property>
    <property name="use_normalised">0</property>
    <property name="producer.resource">0x00000000</property>
    <property name="transition.repeat_off">1</property>
    <property name="transition.mirror_off">1</property>
    <property name="kdenlive:collapsed">0</property>
   </filter>
  </entry>
  <entry in="00:05:17.893" out="00:05:19.686" producer="chain10">
   <property name="kdenlive:id">4</property>
  </entry>
  <entry in="00:05:21.396" out="00:05:22.439" producer="chain10">
   <property name="kdenlive:id">4</property>
  </entry>
  <entry in="00:05:23.607" out="00:07:18.518" producer="chain10">
   <property name="kdenlive:id">4</property>
  </entry>
  <entry in="00:07:20.938" out="00:08:41.875" producer="chain10">
   <property name="kdenlive:id">4</property>
  </entry>
  <entry in="00:08:57.891" out="00:09:01.960" producer="chain10">
   <property name="kdenlive:id">4</property>
  </entry>
  <entry in="00:09:05.422" out="00:09:13.263" producer="chain10">
   <property name="kdenlive:id">4</property>
  </entry>
  <entry in="00:10:43.961" out="00:14:09.509" producer="chain10">
   <property name="kdenlive:id">4</property>
  </entry>
  <entry in="00:14:14.306" out="00:14:19.228" producer="chain10">
   <property name="kdenlive:id">4</property>
  </entry>
  <blank length="00:00:06.965"/>
  <entry in="00:15:49.508" out="00:19:09.509" producer="chain10">
   <property name="kdenlive:id">4</property>
  </entry>
  <entry in="00:19:13.388" out="00:20:36.787" producer="chain10">
   <property name="kdenlive:id">4</property>
  </entry>
  <entry in="00:21:07.674" out="00:21:18.477" producer="chain10">
   <property name="kdenlive:id">4</property>
  </entry>
  <entry in="00:21:26.610" out="00:25:56.223" producer="chain10">
   <property name="kdenlive:id">4</property>
  </entry>
  <entry in="00:26:01.752" out="00:26:12.012" producer="chain10">
   <property name="kdenlive:id">4</property>
  </entry>
  <entry in="00:26:16.016" out="00:31:39.873" producer="chain10">
   <property name="kdenlive:id">4</property>
  </entry>
  <entry in="00:31:49.466" out="00:31:56.390" producer="chain10">
   <property name="kdenlive:id">4</property>
  </entry>
  <entry in="00:32:02.544" out="00:38:23.273" producer="chain10">
   <property name="kdenlive:id">4</property>
  </entry>
  <entry in="00:38:41.541" out="00:41:15.682" producer="chain10">
   <property name="kdenlive:id">4</property>
  </entry>
  <entry in="00:41:32.574" out="00:41:40.958" producer="chain10">
   <property name="kdenlive:id">4</property>
  </entry>
  <entry in="00:41:51.677" out="00:41:53.011" producer="chain10">
   <property name="kdenlive:id">4</property>
  </entry>
  <entry in="00:41:53.053" out="00:42:15.390" producer="chain10">
   <property name="kdenlive:id">4</property>
  </entry>
  <entry in="00:42:18.268" out="00:42:33.784" producer="chain10">
   <property name="kdenlive:id">4</property>
  </entry>
  <entry in="01:04:29.404" out="01:04:30.572" producer="producer4">
   <property name="kdenlive:id">4</property>
  </entry>
  <entry in="01:04:30.614" out="01:04:32.866" producer="producer5">
   <property name="kdenlive:id">4</property>
  </entry>
  <entry in="01:04:32.908" out="01:04:34.618" producer="producer6">
   <property name="kdenlive:id">4</property>
  </entry>
  <entry in="00:42:42.292" out="00:43:02.002" producer="chain10">
   <property name="kdenlive:id">4</property>
  </entry>
  <entry in="00:43:02.044" out="00:43:05.214" producer="chain10">
   <property name="kdenlive:id">4</property>
  </entry>
  <entry in="00:43:05.255" out="00:43:05.714" producer="chain10">
   <property name="kdenlive:id">4</property>
  </entry>
  <entry in="00:43:05.756" out="00:43:06.840" producer="chain10">
   <property name="kdenlive:id">4</property>
  </entry>
  <entry in="00:43:06.882" out="00:43:09.009" producer="chain10">
   <property name="kdenlive:id">4</property>
  </entry>
  <entry in="00:43:09.051" out="00:43:14.056" producer="chain10">
   <property name="kdenlive:id">4</property>
  </entry>
  <entry in="00:43:14.097" out="00:43:15.140" producer="chain10">
   <property name="kdenlive:id">4</property>
  </entry>
  <entry in="00:43:15.182" out="00:43:24.483" producer="chain10">
   <property name="kdenlive:id">4</property>
  </entry>
  <entry in="00:43:24.524" out="00:45:07.090" producer="chain10">
   <property name="kdenlive:id">4</property>
  </entry>
  <blank length="00:00:07.341"/>
  <entry in="00:47:55.264" out="00:50:06.506" producer="chain10">
   <property name="kdenlive:id">4</property>
  </entry>
  <entry in="00:50:45.837" out="00:52:23.649" producer="chain10">
   <property name="kdenlive:id">4</property>
  </entry>
  <entry in="00:53:21.688" out="00:53:44.503" producer="chain10">
   <property name="kdenlive:id">4</property>
  </entry>
  <entry in="00:53:51.051" out="00:56:28.278" producer="chain10">
   <property name="kdenlive:id">4</property>
  </entry>
  <entry in="00:56:35.702" out="01:01:43.126" producer="chain10">
   <property name="kdenlive:id">4</property>
  </entry>
  <entry in="01:02:09.134" out="01:04:38.872" producer="chain10">
   <property name="kdenlive:id">4</property>
  </entry>
  <entry in="01:05:26.485" out="01:05:44.878" producer="chain10">
   <property name="kdenlive:id">4</property>
  </entry>
  <entry in="01:05:53.470" out="01:07:15.265" producer="chain10">
   <property name="kdenlive:id">4</property>
  </entry>
  <entry in="01:07:39.039" out="01:10:20.604" producer="chain10">
   <property name="kdenlive:id">4</property>
  </entry>
  <entry in="01:10:51.301" out="01:22:30.781" producer="chain10">
   <property name="kdenlive:id">4</property>
  </entry>
  <entry in="01:22:41.375" out="01:24:27.778" producer="chain10">
   <property name="kdenlive:id">4</property>
  </entry>
  <entry in="01:24:31.198" out="01:31:20.979" producer="chain10">
   <property name="kdenlive:id">4</property>
  </entry>
  <entry in="01:31:33.742" out="01:35:19.853" producer="chain10">
   <property name="kdenlive:id">4</property>
  </entry>
  <entry in="01:35:21.480" out="01:35:23.190" producer="chain10">
   <property name="kdenlive:id">4</property>
  </entry>
  <entry in="01:35:24.816" out="01:37:55.055" producer="chain10">
   <property name="kdenlive:id">4</property>
  </entry>
  <entry in="01:38:11.470" out="01:40:20.979" producer="chain10">
   <property name="kdenlive:id">4</property>
  </entry>
  <entry in="01:40:21.021" out="01:49:06.173" producer="chain10">
   <property name="kdenlive:id">4</property>
  </entry>
 </playlist>
 <chain id="chain13" out="01:49:06.215">
  <property name="length">156952</property>
  <property name="eof">pause</property>
  <property name="resource">/Horror and SciFi/The Terminator DVD Boxset Part 1, 2, 3 &amp; 4/Terminator III - The Rise of the Machines (2003)/Terminator.3.Rise.of.the.Machines.2003.1080p.BluRay.x264/Terminator.3.Rise.of.the.Machines.2003.1080p.BluRay.x264.mkv</property>
  <property name="mlt_service">avformat-novalidate</property>
  <property name="seekable">1</property>
  <property name="audio_index">1</property>
  <property name="video_index">0</property>
  <property name="vstream">0</property>
  <property name="astream">0</property>
  <property name="kdenlive:control_uuid">{8a480ecc-b631-4a2f-b493-6a744a94365a}</property>
  <property name="kdenlive:proxy">-</property>
  <property name="kdenlive:originalurl">/Horror and SciFi/The Terminator DVD Boxset Part 1, 2, 3 &amp; 4/Terminator III - The Rise of the Machines (2003)/Terminator.3.Rise.of.the.Machines.2003.1080p.BluRay.x264/Terminator.3.Rise.of.the.Machines.2003.1080p.BluRay.x264.mkv</property>
  <property name="kdenlive:id">4</property>
  <property name="mute_on_pause">0</property>
  <property name="kdenlive:clip_type">0</property>
  <property name="kdenlive:file_size">12299138322</property>
  <property name="kdenlive:file_hash">7d0a41a44b5c23a12a68a058620a51f8</property>
  <property name="kdenlive:folderid">2</property>
  <property name="meta.media.nb_streams">7</property>
  <property name="meta.media.0.stream.type">video</property>
  <property name="meta.media.0.stream.frame_rate">23.976</property>
  <property name="meta.media.0.stream.sample_aspect_ratio">1</property>
  <property name="meta.media.0.codec.width">1920</property>
  <property name="meta.media.0.codec.height">790</property>
  <property name="meta.media.0.codec.rotate">0</property>
  <property name="meta.media.0.codec.pix_fmt">yuv420p</property>
  <property name="meta.media.0.codec.sample_aspect_ratio">1</property>
  <property name="meta.media.0.codec.colorspace">709</property>
  <property name="meta.media.0.codec.color_trc">1</property>
  <property name="meta.media.0.codec.name">h264</property>
  <property name="meta.media.0.codec.long_name">H.264 / AVC / MPEG-4 AVC / MPEG-4 part 10</property>
  <property name="meta.media.0.codec.bit_rate">0</property>
  <property name="meta.attr.0.stream.language.markup">eng</property>
  <property name="meta.media.1.stream.type">audio</property>
  <property name="meta.media.1.codec.sample_fmt">fltp</property>
  <property name="meta.media.1.codec.sample_rate">48000</property>
  <property name="meta.media.1.codec.channels">6</property>
  <property name="meta.media.1.codec.layout">5.1(side)</property>
  <property name="meta.media.1.codec.name">dca</property>
  <property name="meta.media.1.codec.long_name">DCA (DTS Coherent Acoustics)</property>
  <property name="meta.media.1.codec.bit_rate">1536000</property>
  <property name="meta.attr.1.stream.language.markup">eng</property>
  <property name="meta.media.2.codec.name">srt</property>
  <property name="meta.media.2.codec.long_name">SubRip subtitle</property>
  <property name="meta.media.2.codec.bit_rate">0</property>
  <property name="meta.attr.2.stream.language.markup">eng</property>
  <property name="meta.media.3.stream.type">video</property>
  <property name="meta.media.3.stream.frame_rate">90000</property>
  <property name="meta.media.3.stream.sample_aspect_ratio">0</property>
  <property name="meta.media.3.codec.width">1067</property>
  <property name="meta.media.3.codec.height">600</property>
  <property name="meta.media.3.codec.rotate">0</property>
  <property name="meta.media.3.codec.pix_fmt">yuvj444p</property>
  <property name="meta.media.3.codec.sample_aspect_ratio">0</property>
  <property name="meta.media.3.codec.colorspace">601</property>
  <property name="meta.media.3.codec.name">mjpeg</property>
  <property name="meta.media.3.codec.long_name">MJPEG (Motion JPEG)</property>
  <property name="meta.media.3.codec.bit_rate">0</property>
  <property name="meta.attr.3.stream.filename.markup">cover_land.jpg</property>
  <property name="meta.attr.3.stream.mimetype.markup">image/jpeg</property>
  <property name="meta.media.4.stream.type">video</property>
  <property name="meta.media.4.stream.frame_rate">90000</property>
  <property name="meta.media.4.stream.sample_aspect_ratio">0</property>
  <property name="meta.media.4.codec.width">120</property>
  <property name="meta.media.4.codec.height">176</property>
  <property name="meta.media.4.codec.rotate">0</property>
  <property name="meta.media.4.codec.pix_fmt">yuvj444p</property>
  <property name="meta.media.4.codec.sample_aspect_ratio">0</property>
  <property name="meta.media.4.codec.colorspace">601</property>
  <property name="meta.media.4.codec.name">mjpeg</property>
  <property name="meta.media.4.codec.long_name">MJPEG (Motion JPEG)</property>
  <property name="meta.media.4.codec.bit_rate">0</property>
  <property name="meta.attr.4.stream.filename.markup">small_cover.jpg</property>
  <property name="meta.attr.4.stream.mimetype.markup">image/jpeg</property>
  <property name="meta.media.5.stream.type">video</property>
  <property name="meta.media.5.stream.frame_rate">90000</property>
  <property name="meta.media.5.stream.sample_aspect_ratio">0</property>
  <property name="meta.media.5.codec.width">213</property>
  <property name="meta.media.5.codec.height">120</property>
  <property name="meta.media.5.codec.rotate">0</property>
  <property name="meta.media.5.codec.pix_fmt">yuvj444p</property>
  <property name="meta.media.5.codec.sample_aspect_ratio">0</property>
  <property name="meta.media.5.codec.colorspace">601</property>
  <property name="meta.media.5.codec.name">mjpeg</property>
  <property name="meta.media.5.codec.long_name">MJPEG (Motion JPEG)</property>
  <property name="meta.media.5.codec.bit_rate">0</property>
  <property name="meta.attr.5.stream.filename.markup">small_cover_land.jpg</property>
  <property name="meta.attr.5.stream.mimetype.markup">image/jpeg</property>
  <property name="meta.media.6.stream.type">video</property>
  <property name="meta.media.6.stream.frame_rate">90000</property>
  <property name="meta.media.6.stream.sample_aspect_ratio">0</property>
  <property name="meta.media.6.codec.width">600</property>
  <property name="meta.media.6.codec.height">882</property>
  <property name="meta.media.6.codec.rotate">0</property>
  <property name="meta.media.6.codec.pix_fmt">yuvj444p</property>
  <property name="meta.media.6.codec.sample_aspect_ratio">0</property>
  <property name="meta.media.6.codec.colorspace">601</property>
  <property name="meta.media.6.codec.name">mjpeg</property>
  <property name="meta.media.6.codec.long_name">MJPEG (Motion JPEG)</property>
  <property name="meta.media.6.codec.bit_rate">0</property>
  <property name="meta.attr.6.stream.filename.markup">cover.jpg</property>
  <property name="meta.attr.6.stream.mimetype.markup">image/jpeg</property>
  <property name="meta.attr.title.markup">Terminator.3.Rise.of.the.Machines.2003.1080p.BluRay.x264</property>
  <property name="meta.attr.encoder.markup">libebml v1.3.1 + libmatroska v1.4.2</property>
  <property name="meta.attr.creation_time.markup">2015-06-21T10:42:15.000000Z</property>
  <property name="meta.media.sample_aspect_num">1</property>
  <property name="meta.media.sample_aspect_den">1</property>
  <property name="meta.media.frame_rate_num">24000</property>
  <property name="meta.media.frame_rate_den">1001</property>
  <property name="meta.media.colorspace">709</property>
  <property name="meta.media.color_trc">1</property>
  <property name="meta.media.has_b_frames">2</property>
  <property name="meta.media.width">1920</property>
  <property name="meta.media.height">790</property>
  <property name="meta.media.aspect_ratio">1</property>
  <property name="meta.media.color_range">mpeg</property>
  <property name="xml">was here</property>
  <property name="meta.media.top_field_first">0</property>
  <property name="meta.media.progressive">1</property>
  <property name="set.test_audio">1</property>
  <property name="set.test_image">0</property>
 </chain>
 <playlist id="playlist9">
  <blank length="00:03:04.963"/>
  <entry in="00:05:12.596" out="00:05:14.014" producer="chain13">
   <property name="kdenlive:id">4</property>
  </entry>
  <blank length="00:07:02.419"/>
  <entry in="00:15:21.647" out="00:15:28.987" producer="chain13">
   <property name="kdenlive:id">4</property>
  </entry>
  <blank length="00:27:16.016"/>
  <entry in="00:47:15.599" out="00:47:24.900" producer="chain13">
   <property name="kdenlive:id">4</property>
  </entry>
 </playlist>
 <tractor id="tractor4" in="00:00:00.000" out="01:33:58.600">
  <property name="kdenlive:trackheight">84</property>
  <property name="kdenlive:timeline_active">1</property>
  <property name="kdenlive:collapsed">0</property>
  <property name="kdenlive:thumbs_format"/>
  <property name="kdenlive:audio_rec"/>
  <track hide="audio" producer="playlist8"/>
  <track hide="audio" producer="playlist9"/>
  <transition id="transition46" in="00:03:06.256" out="00:03:06.423">
   <property name="a_track">1</property>
   <property name="b_track">0</property>
   <property name="factory">loader</property>
   <property name="resource">luma01.pgm</property>
   <property name="mlt_service">luma</property>
   <property name="kdenlive_id">luma</property>
   <property name="kdenlive:mixcut">2</property>
   <property name="softness">0.39</property>
   <property name="alpha_over">1</property>
   <property name="fix_background_alpha">1</property>
   <property name="invert">0</property>
   <property name="reverse">0</property>
  </transition>
  <transition id="transition44" in="00:10:08.800" out="00:10:09.218">
   <property name="a_track">0</property>
   <property name="b_track">1</property>
   <property name="factory">loader</property>
   <property name="resource">luma01.pgm</property>
   <property name="mlt_service">luma</property>
   <property name="kdenlive_id">luma</property>
   <property name="kdenlive:mixcut">5</property>
   <property name="softness">0.55</property>
   <property name="alpha_over">1</property>
   <property name="fix_background_alpha">1</property>
   <property name="invert">0</property>
   <property name="reverse">0</property>
  </transition>
  <transition id="transition45" in="00:37:32.199" out="00:37:34.201">
   <property name="a_track">0</property>
   <property name="b_track">1</property>
   <property name="factory">loader</property>
   <property name="resource">luma01.pgm</property>
   <property name="mlt_service">luma</property>
   <property name="kdenlive_id">luma</property>
   <property name="kdenlive:mixcut">24</property>
   <property name="softness">0.6</property>
   <property name="alpha_over">1</property>
   <property name="fix_background_alpha">1</property>
   <property name="invert">0</property>
   <property name="reverse">0</property>
  </transition>
 </tractor>
 <playlist id="playlist10"/>
 <playlist id="playlist11"/>
 <tractor id="tractor5" in="00:00:00.000">
  <property name="kdenlive:trackheight">84</property>
  <property name="kdenlive:timeline_active">1</property>
  <property name="kdenlive:collapsed">0</property>
  <property name="kdenlive:thumbs_format"/>
  <property name="kdenlive:audio_rec"/>
  <track hide="audio" producer="playlist10"/>
  <track hide="audio" producer="playlist11"/>
 </tractor>
 <tractor id="tractor6" in="00:00:00.000" out="01:33:58.600">
  <property name="kdenlive:duration">01:33:58.642</property>
  <property name="kdenlive:maxduration">135191</property>
  <property name="kdenlive:clipname">Sequence 1</property>
  <property name="kdenlive:description"/>
  <property name="kdenlive:uuid">{efc1d1de-85b4-43f7-8721-dc7b633cac55}</property>
  <property name="kdenlive:producer_type">17</property>
  <property name="kdenlive:control_uuid">{efc1d1de-85b4-43f7-8721-dc7b633cac55}</property>
  <property name="kdenlive:id">3</property>
  <property name="kdenlive:clip_type">0</property>
  <property name="kdenlive:file_hash">e781e2fca7dc2adbe563903162090295</property>
  <property name="kdenlive:folderid">2</property>
  <property name="kdenlive:zone_in">0</property>
  <property name="kdenlive:zone_out">135190</property>
  <property name="kdenlive:monitorPosition">0</property>
  <property name="kdenlive:sequenceproperties.activeTrack">4</property>
  <property name="kdenlive:sequenceproperties.audioTarget">1</property>
  <property name="kdenlive:sequenceproperties.disablepreview">0</property>
  <property name="kdenlive:sequenceproperties.documentuuid">{efc1d1de-85b4-43f7-8721-dc7b633cac55}</property>
  <property name="kdenlive:sequenceproperties.globalSubtitleStyles">[
]
</property>
  <property name="kdenlive:sequenceproperties.hasAudio">1</property>
  <property name="kdenlive:sequenceproperties.hasVideo">1</property>
  <property name="kdenlive:sequenceproperties.hidesubtitle">0</property>
  <property name="kdenlive:sequenceproperties.position">0</property>
  <property name="kdenlive:sequenceproperties.scrollPos">157798</property>
  <property name="kdenlive:sequenceproperties.subtitlesList">[
    {
        "file": "AppData/Local/Temp/1753232034577-{dd0f6fed-f100-494a-aeed-5a9746ac5754}.ass",
        "id": 0,
        "name": "Subtitles"
    }
]
</property>
  <property name="kdenlive:sequenceproperties.tracks">4</property>
  <property name="kdenlive:sequenceproperties.tracksCount">6</property>
  <property name="kdenlive:sequenceproperties.verticalzoom">1</property>
  <property name="kdenlive:sequenceproperties.videoTarget">2</property>
  <property name="kdenlive:sequenceproperties.zonein">0</property>
  <property name="kdenlive:sequenceproperties.zoneout">75</property>
  <property name="kdenlive:sequenceproperties.zoom">6</property>
  <property name="kdenlive:sequenceproperties.groups">[
    {
        "children": [
            {
                "data": "4:77401:-1",
                "leaf": "clip",
                "type": "Leaf"
            },
            {
                "data": "3:77389:-1",
                "leaf": "clip",
                "type": "Leaf"
            }
        ],
        "type": "AVSplit"
    },
    {
        "children": [
            {
                "data": "3:71382:-1",
                "leaf": "clip",
                "type": "Leaf"
            },
            {
                "data": "4:71406:-1",
                "leaf": "clip",
                "type": "Leaf"
            }
        ],
        "type": "AVSplit"
    },
    {
        "children": [
            {
                "data": "3:4273:-1",
                "leaf": "clip",
                "type": "Leaf"
            },
            {
                "data": "4:4321:-1",
                "leaf": "clip",
                "type": "Leaf"
            }
        ],
        "type": "AVSplit"
    },
    {
        "children": [
            {
                "data": "3:50531:-1",
                "leaf": "clip",
                "type": "Leaf"
            },
            {
                "data": "4:50531:-1",
                "leaf": "clip",
                "type": "Leaf"
            }
        ],
        "type": "AVSplit"
    },
    {
        "children": [
            {
                "data": "3:98036:-1",
                "leaf": "clip",
                "type": "Leaf"
            },
            {
                "data": "4:98048:-1",
                "leaf": "clip",
                "type": "Leaf"
            }
        ],
        "type": "AVSplit"
    },
    {
        "children": [
            {
                "data": "4:1:-1",
                "leaf": "clip",
                "type": "Leaf"
            },
            {
                "data": "3:1:-1",
                "leaf": "clip",
                "type": "Leaf"
            }
        ],
        "type": "AVSplit"
    },
    {
        "children": [
            {
                "data": "3:2695:-1",
                "leaf": "clip",
                "type": "Leaf"
            },
            {
                "data": "4:2707:-1",
                "leaf": "clip",
                "type": "Leaf"
            }
        ],
        "type": "AVSplit"
    },
    {
        "children": [
            {
                "data": "4:4434:-1",
                "leaf": "clip",
                "type": "Leaf"
            },
            {
                "data": "3:4432:-1",
                "leaf": "clip",
                "type": "Leaf"
            }
        ],
        "type": "AVSplit"
    },
    {
        "children": [
            {
                "data": "4:3059:-1",
                "leaf": "clip",
                "type": "Leaf"
            },
            {
                "data": "3:3011:-1",
                "leaf": "clip",
                "type": "Leaf"
            }
        ],
        "type": "AVSplit"
    },
    {
        "children": [
            {
                "data": "4:81276:-1",
                "leaf": "clip",
                "type": "Leaf"
            },
            {
                "data": "3:81264:-1",
                "leaf": "clip",
                "type": "Leaf"
            }
        ],
        "type": "AVSplit"
    },
    {
        "children": [
            {
                "data": "4:100600:-1",
                "leaf": "clip",
                "type": "Leaf"
            },
            {
                "data": "3:100588:-1",
                "leaf": "clip",
                "type": "Leaf"
            }
        ],
        "type": "AVSplit"
    },
    {
        "children": [
            {
                "data": "4:45606:-1",
                "leaf": "clip",
                "type": "Leaf"
            },
            {
                "data": "3:45594:-1",
                "leaf": "clip",
                "type": "Leaf"
            }
        ],
        "type": "AVSplit"
    },
    {
        "children": [
            {
                "data": "3:14475:-1",
                "leaf": "clip",
                "type": "Leaf"
            },
            {
                "data": "4:14487:-1",
                "leaf": "clip",
                "type": "Leaf"
            }
        ],
        "type": "AVSplit"
    },
    {
        "children": [
            {
                "data": "3:49538:-1",
                "leaf": "clip",
                "type": "Leaf"
            },
            {
                "data": "4:49538:-1",
                "leaf": "clip",
                "type": "Leaf"
            }
        ],
        "type": "AVSplit"
    },
    {
        "children": [
            {
                "data": "4:4502:-1",
                "leaf": "clip",
                "type": "Leaf"
            },
            {
                "data": "3:4500:-1",
                "leaf": "clip",
                "type": "Leaf"
            }
        ],
        "type": "AVSplit"
    },
    {
        "children": [
            {
                "data": "3:9357:-1",
                "leaf": "clip",
                "type": "Leaf"
            },
            {
                "data": "4:9369:-1",
                "leaf": "clip",
                "type": "Leaf"
            }
        ],
        "type": "AVSplit"
    },
    {
        "children": [
            {
                "data": "4:4546:-1",
                "leaf": "clip",
                "type": "Leaf"
            },
            {
                "data": "3:4544:-1",
                "leaf": "clip",
                "type": "Leaf"
            }
        ],
        "type": "AVSplit"
    },
    {
        "children": [
            {
                "data": "3:21806:-1",
                "leaf": "clip",
                "type": "Leaf"
            },
            {
                "data": "4:21830:-1",
                "leaf": "clip",
                "type": "Leaf"
            }
        ],
        "type": "AVSplit"
    },
    {
        "children": [
            {
                "data": "3:75343:-1",
                "leaf": "clip",
                "type": "Leaf"
            },
            {
                "data": "4:75439:-1",
                "leaf": "clip",
                "type": "Leaf"
            }
        ],
        "type": "AVSplit"
    },
    {
        "children": [
            {
                "data": "4:4465:-1",
                "leaf": "clip",
                "type": "Leaf"
            },
            {
                "data": "3:4463:-1",
                "leaf": "clip",
                "type": "Leaf"
            }
        ],
        "type": "AVSplit"
    },
    {
        "children": [
            {
                "data": "3:51336:-1",
                "leaf": "clip",
                "type": "Leaf"
            },
            {
                "data": "4:51336:-1",
                "leaf": "clip",
                "type": "Leaf"
            }
        ],
        "type": "AVSplit"
    },
    {
        "children": [
            {
                "data": "4:7328:-1",
                "leaf": "clip",
                "type": "Leaf"
            },
            {
                "data": "3:7316:-1",
                "leaf": "clip",
                "type": "Leaf"
            }
        ],
        "type": "AVSplit"
    },
    {
        "children": [
            {
                "data": "3:28531:-1",
                "leaf": "clip",
                "type": "Leaf"
            },
            {
                "data": "4:28543:-1",
                "leaf": "clip",
                "type": "Leaf"
            }
        ],
        "type": "AVSplit"
    },
    {
        "children": [
            {
                "data": "4:4572:-1",
                "leaf": "clip",
                "type": "Leaf"
            },
            {
                "data": "3:4570:-1",
                "leaf": "clip",
                "type": "Leaf"
            }
        ],
        "type": "AVSplit"
    },
    {
        "children": [
            {
                "data": "4:9270:-1",
                "leaf": "clip",
                "type": "Leaf"
            },
            {
                "data": "3:9222:-1",
                "leaf": "clip",
                "type": "Leaf"
            }
        ],
        "type": "AVSplit"
    },
    {
        "children": [
            {
                "data": "4:50074:-1",
                "leaf": "clip",
                "type": "Leaf"
            },
            {
                "data": "3:50062:-1",
                "leaf": "clip",
                "type": "Leaf"
            }
        ],
        "type": "AVSplit"
    },
    {
        "children": [
            {
                "data": "3:28284:-1",
                "leaf": "clip",
                "type": "Leaf"
            },
            {
                "data": "4:28296:-1",
                "leaf": "clip",
                "type": "Leaf"
            }
        ],
        "type": "AVSplit"
    },
    {
        "children": [
            {
                "data": "3:60252:-1",
                "leaf": "clip",
                "type": "Leaf"
            },
            {
                "data": "4:60264:-1",
                "leaf": "clip",
                "type": "Leaf"
            }
        ],
        "type": "AVSplit"
    },
    {
        "children": [
            {
                "data": "3:19564:-1",
                "leaf": "clip",
                "type": "Leaf"
            },
            {
                "data": "4:19569:-1",
                "leaf": "clip",
                "type": "Leaf"
            }
        ],
        "type": "AVSplit"
    },
    {
        "children": [
            {
                "data": "4:36309:-1",
                "leaf": "clip",
                "type": "Leaf"
            },
            {
                "data": "3:36297:-1",
                "leaf": "clip",
                "type": "Leaf"
            }
        ],
        "type": "AVSplit"
    },
    {
        "children": [
            {
                "data": "4:21570:-1",
                "leaf": "clip",
                "type": "Leaf"
            },
            {
                "data": "3:21558:-1",
                "leaf": "clip",
                "type": "Leaf"
            }
        ],
        "type": "AVSplit"
    },
    {
        "children": [
            {
                "data": "4:51215:-1",
                "leaf": "clip",
                "type": "Leaf"
            },
            {
                "data": "3:51215:-1",
                "leaf": "clip",
                "type": "Leaf"
            }
        ],
        "type": "AVSplit"
    },
    {
        "children": [
            {
                "data": "3:51124:-1",
                "leaf": "clip",
                "type": "Leaf"
            },
            {
                "data": "4:51124:-1",
                "leaf": "clip",
                "type": "Leaf"
            }
        ],
        "type": "AVSplit"
    },
    {
        "children": [
            {
                "data": "4:51047:-1",
                "leaf": "clip",
                "type": "Leaf"
            },
            {
                "data": "3:51047:-1",
                "leaf": "clip",
                "type": "Leaf"
            }
        ],
        "type": "AVSplit"
    },
    {
        "children": [
            {
                "data": "3:50476:-1",
                "leaf": "clip",
                "type": "Leaf"
            },
            {
                "data": "4:50476:-1",
                "leaf": "clip",
                "type": "Leaf"
            }
        ],
        "type": "AVSplit"
    },
    {
        "children": [
            {
                "data": "3:51362:-1",
                "leaf": "clip",
                "type": "Leaf"
            },
            {
                "data": "4:51362:-1",
                "leaf": "clip",
                "type": "Leaf"
            }
        ],
        "type": "AVSplit"
    },
    {
        "children": [
            {
                "data": "4:115890:-1",
                "leaf": "clip",
                "type": "Leaf"
            },
            {
                "data": "3:115878:-1",
                "leaf": "clip",
                "type": "Leaf"
            }
        ],
        "type": "AVSplit"
    },
    {
        "children": [
            {
                "data": "3:115836:-1",
                "leaf": "clip",
                "type": "Leaf"
            },
            {
                "data": "4:115848:-1",
                "leaf": "clip",
                "type": "Leaf"
            }
        ],
        "type": "AVSplit"
    },
    {
        "children": [
            {
                "data": "3:110421:-1",
                "leaf": "clip",
                "type": "Leaf"
            },
            {
                "data": "4:110426:-1",
                "leaf": "clip",
                "type": "Leaf"
            }
        ],
        "type": "AVSplit"
    },
    {
        "children": [
            {
                "data": "4:119493:-1",
                "leaf": "clip",
                "type": "Leaf"
            },
            {
                "data": "3:119455:-1",
                "leaf": "clip",
                "type": "Leaf"
            }
        ],
        "type": "AVSplit"
    },
    {
        "children": [
            {
                "data": "4:9558:-1",
                "leaf": "clip",
                "type": "Leaf"
            },
            {
                "data": "3:9546:-1",
                "leaf": "clip",
                "type": "Leaf"
            }
        ],
        "type": "AVSplit"
    },
    {
        "children": [
            {
                "data": "4:51163:-1",
                "leaf": "clip",
                "type": "Leaf"
            },
            {
                "data": "3:51163:-1",
                "leaf": "clip",
                "type": "Leaf"
            }
        ],
        "type": "AVSplit"
    },
    {
        "children": [
            {
                "data": "4:14773:-1",
                "leaf": "clip",
                "type": "Leaf"
            },
            {
                "data": "3:14761:-1",
                "leaf": "clip",
                "type": "Leaf"
            }
        ],
        "type": "AVSplit"
    },
    {
        "children": [
            {
                "data": "3:64023:-1",
                "leaf": "clip",
                "type": "Leaf"
            },
            {
                "data": "4:64035:-1",
                "leaf": "clip",
                "type": "Leaf"
            }
        ],
        "type": "AVSplit"
    },
    {
        "children": [
            {
                "data": "3:49291:-1",
                "leaf": "clip",
                "type": "Leaf"
            },
            {
                "data": "4:49303:-1",
                "leaf": "clip",
                "type": "Leaf"
            }
        ],
        "type": "AVSplit"
    },
    {
        "children": [
            {
                "data": "4:54222:-1",
                "leaf": "clip",
                "type": "Leaf"
            },
            {
                "data": "3:54210:-1",
                "leaf": "clip",
                "type": "Leaf"
            }
        ],
        "type": "AVSplit"
    },
    {
        "children": [
            {
                "data": "4:14596:-1",
                "leaf": "clip",
                "type": "Leaf"
            },
            {
                "data": "3:14589:-1",
                "leaf": "clip",
                "type": "Leaf"
            }
        ],
        "type": "AVSplit"
    },
    {
        "children": [
            {
                "data": "4:51586:-1",
                "leaf": "clip",
                "type": "Leaf"
            },
            {
                "data": "3:51586:-1",
                "leaf": "clip",
                "type": "Leaf"
            }
        ],
        "type": "AVSplit"
    },
    {
        "children": [
            {
                "data": "3:57346:-1",
                "leaf": "clip",
                "type": "Leaf"
            },
            {
                "data": "4:57370:-1",
                "leaf": "clip",
                "type": "Leaf"
            }
        ],
        "type": "AVSplit"
    },
    {
        "children": [
            {
                "data": "3:59704:-1",
                "leaf": "clip",
                "type": "Leaf"
            },
            {
                "data": "4:59716:-1",
                "leaf": "clip",
                "type": "Leaf"
            }
        ],
        "type": "AVSplit"
    },
    {
        "children": [
            {
                "data": "4:51136:-1",
                "leaf": "clip",
                "type": "Leaf"
            },
            {
                "data": "3:51136:-1",
                "leaf": "clip",
                "type": "Leaf"
            }
        ],
        "type": "AVSplit"
    },
    {
        "children": [
            {
                "data": "3:50447:-1",
                "leaf": "clip",
                "type": "Leaf"
            },
            {
                "data": "4:50447:-1",
                "leaf": "clip",
                "type": "Leaf"
            }
        ],
        "type": "AVSplit"
    },
    {
        "children": [
            {
                "data": "3:49502:-1",
                "leaf": "clip",
                "type": "Leaf"
            },
            {
                "data": "4:49505:-1",
                "leaf": "clip",
                "type": "Leaf"
            }
        ],
        "type": "AVSplit"
    },
    {
        "children": [
            {
                "data": "3:54010:-1",
                "leaf": "clip",
                "type": "Leaf"
            },
            {
                "data": "4:53998:-1",
                "leaf": "clip",
                "type": "Leaf"
            }
        ],
        "type": "AVSplit"
    },
    {
        "children": [
            {
                "data": "3:36467:-1",
                "leaf": "clip",
                "type": "Leaf"
            },
            {
                "data": "4:36476:-1",
                "leaf": "clip",
                "type": "Leaf"
            }
        ],
        "type": "AVSplit"
    },
    {
        "children": [
            {
                "data": "3:74985:-1",
                "leaf": "clip",
                "type": "Leaf"
            },
            {
                "data": "4:74997:-1",
                "leaf": "clip",
                "type": "Leaf"
            }
        ],
        "type": "AVSplit"
    }
]
</property>
  <property name="kdenlive:sequenceproperties.guides">[
]
</property>
  <track producer="producer0"/>
  <track producer="tractor0"/>
  <track producer="tractor1"/>
  <track producer="tractor2"/>
  <track producer="tractor3"/>
  <track producer="tractor4"/>
  <track producer="tractor5"/>
  <transition id="transition47">
   <property name="a_track">0</property>
   <property name="b_track">1</property>
   <property name="mlt_service">mix</property>
   <property name="kdenlive_id">mix</property>
   <property name="internal_added">237</property>
   <property name="always_active">1</property>
   <property name="accepts_blanks">1</property>
   <property name="sum">1</property>
  </transition>
  <transition id="transition48">
   <property name="a_track">0</property>
   <property name="b_track">2</property>
   <property name="mlt_service">mix</property>
   <property name="kdenlive_id">mix</property>
   <property name="internal_added">237</property>
   <property name="always_active">1</property>
   <property name="accepts_blanks">1</property>
   <property name="sum">1</property>
  </transition>
  <transition id="transition49">
   <property name="a_track">0</property>
   <property name="b_track">3</property>
   <property name="mlt_service">mix</property>
   <property name="kdenlive_id">mix</property>
   <property name="internal_added">237</property>
   <property name="always_active">1</property>
   <property name="accepts_blanks">1</property>
   <property name="sum">1</property>
  </transition>
  <transition id="transition50">
   <property name="a_track">0</property>
   <property name="b_track">4</property>
   <property name="mlt_service">mix</property>
   <property name="kdenlive_id">mix</property>
   <property name="internal_added">237</property>
   <property name="always_active">1</property>
   <property name="accepts_blanks">1</property>
   <property name="sum">1</property>
  </transition>
  <transition id="transition51">
   <property name="a_track">0</property>
   <property name="b_track">5</property>
   <property name="compositing">0</property>
   <property name="distort">0</property>
   <property name="rotate_center">0</property>
   <property name="mlt_service">qtblend</property>
   <property name="kdenlive_id">qtblend</property>
   <property name="internal_added">237</property>
   <property name="always_active">1</property>
  </transition>
  <transition id="transition52">
   <property name="a_track">0</property>
   <property name="b_track">6</property>
   <property name="compositing">0</property>
   <property name="distort">0</property>
   <property name="rotate_center">0</property>
   <property name="mlt_service">qtblend</property>
   <property name="kdenlive_id">qtblend</property>
   <property name="internal_added">237</property>
   <property name="always_active">1</property>
  </transition>
  <filter id="filter60">
   <property name="window">75</property>
   <property name="max_gain">20dB</property>
   <property name="mlt_service">volume</property>
   <property name="internal_added">237</property>
   <property name="disable">1</property>
  </filter>
  <filter id="filter61">
   <property name="channel">-1</property>
   <property name="mlt_service">panner</property>
   <property name="internal_added">237</property>
   <property name="start">0.5</property>
   <property name="disable">1</property>
  </filter>
  <filter id="filter62">
   <property name="mlt_service">avfilter.subtitles</property>
   <property name="av.alpha">1</property>
   <property name="internal_added">237</property>
   <property name="av.filename">Terminator 3 (2003) - Brass Monkey Edition.kdenlive.ass</property>
   <property name="disable">1</property>
  </filter>
 </tractor>
 <playlist id="main_bin">
  <property name="kdenlive:folder.-1.2">Sequences</property>
  <property name="kdenlive:sequenceFolder">2</property>
  <property name="kdenlive:docproperties.activetimeline">{efc1d1de-85b4-43f7-8721-dc7b633cac55}</property>
  <property name="kdenlive:docproperties.audioChannels">2</property>
  <property name="kdenlive:docproperties.binsort">0</property>
  <property name="kdenlive:docproperties.browserurl">/Horror and SciFi/The Day After Tomorrow (2004) [2160p] [4K] [WEB] [HDR] [5.1]/</property>
  <property name="kdenlive:docproperties.documentid">1753232034577</property>
  <property name="kdenlive:docproperties.enableTimelineZone">0</property>
  <property name="kdenlive:docproperties.enableexternalproxy">0</property>
  <property name="kdenlive:docproperties.enableproxy">0</property>
  <property name="kdenlive:docproperties.externalproxyparams">./;;.LRV;./;;.MP4</property>
  <property name="kdenlive:docproperties.generateimageproxy">0</property>
  <property name="kdenlive:docproperties.generateproxy">0</property>
  <property name="kdenlive:docproperties.guidesCategories">[
    {
        "color": "#9b59b6",
        "comment": "Category 1",
        "index": 0
    },
    {
        "color": "#3daee9",
        "comment": "Category 2",
        "index": 1
    },
    {
        "color": "#1abc9c",
        "comment": "Category 3",
        "index": 2
    },
    {
        "color": "#1cdc9a",
        "comment": "Category 4",
        "index": 3
    },
    {
        "color": "#c9ce3b",
        "comment": "Category 5",
        "index": 4
    },
    {
        "color": "#fdbc4b",
        "comment": "Category 6",
        "index": 5
    },
    {
        "color": "#f39c1f",
        "comment": "Category 7",
        "index": 6
    },
    {
        "color": "#f47750",
        "comment": "Category 8",
        "index": 7
    },
    {
        "color": "#da4453",
        "comment": "Category 9",
        "index": 8
    }
]
</property>
  <property name="kdenlive:docproperties.kdenliveversion">25.04.2</property>
  <property name="kdenlive:docproperties.opensequences">{efc1d1de-85b4-43f7-8721-dc7b633cac55}</property>
  <property name="kdenlive:docproperties.previewextension"/>
  <property name="kdenlive:docproperties.previewparameters"/>
  <property name="kdenlive:docproperties.profile">AppData/Roaming/kdenlive/profiles/customprofile13</property>
  <property name="kdenlive:docproperties.proxyextension"/>
  <property name="kdenlive:docproperties.proxyimageminsize">2000</property>
  <property name="kdenlive:docproperties.proxyimagesize">800</property>
  <property name="kdenlive:docproperties.proxyminsize">1000</property>
  <property name="kdenlive:docproperties.proxyparams"/>
  <property name="kdenlive:docproperties.proxyresize">640</property>
  <property name="kdenlive:docproperties.rendercategory">Ultra-High Definition (4K)</property>
  <property name="kdenlive:docproperties.rendercustomquality">85</property>
  <property name="kdenlive:docproperties.renderendguide">-1</property>
  <property name="kdenlive:docproperties.renderexportaudio">0</property>
  <property name="kdenlive:docproperties.renderfullcolorrange">0</property>
  <property name="kdenlive:docproperties.rendermode">0</property>
  <property name="kdenlive:docproperties.renderplay">0</property>
  <property name="kdenlive:docproperties.renderpreview">0</property>
  <property name="kdenlive:docproperties.renderprofile">MP4-H265 (HEVC)</property>
  <property name="kdenlive:docproperties.renderrescale">0</property>
  <property name="kdenlive:docproperties.renderrescaleheight">395</property>
  <property name="kdenlive:docproperties.renderrescalewidth">960</property>
  <property name="kdenlive:docproperties.renderspeed">6</property>
  <property name="kdenlive:docproperties.renderstartguide">-1</property>
  <property name="kdenlive:docproperties.rendertcoverlay">0</property>
  <property name="kdenlive:docproperties.rendertctype">-1</property>
  <property name="kdenlive:docproperties.rendertwopass">0</property>
  <property name="kdenlive:docproperties.renderurl">Terminator 3 (2004) - Brass Monkey Edition.mp4</property>
  <property name="kdenlive:docproperties.seekOffset">7193</property>
  <property name="kdenlive:docproperties.sessionid">{2386d076-516f-4168-9537-bf952cd773a9}</property>
  <property name="kdenlive:docproperties.uuid">{efc1d1de-85b4-43f7-8721-dc7b633cac55}</property>
  <property name="kdenlive:docproperties.version">1.1</property>
  <property name="kdenlive:expandedFolders">2</property>
  <property name="kdenlive:binZoom">4</property>
  <property name="kdenlive:extraBins">project_bin:-1:0</property>
  <property name="kdenlive:documentnotes"/>
  <property name="kdenlive:documentnotesversion">2</property>
  <property name="xml_retain">1</property>
  <entry in="00:00:00.000" out="01:49:06.215" producer="chain19"/>
  <entry in="00:00:00.000" out="00:02:37.412" producer="chain8"/>
  <entry in="00:00:00.000" out="00:02:23.982" producer="chain11"/>
  <entry in="00:00:00.000" out="00:02:29.613" producer="chain12"/>
  <entry in="00:00:00.000" out="00:04:00.459" producer="chain17"/>
  <entry in="00:00:00.000" out="00:02:00.042" producer="chain18"/>
  <entry in="00:00:00.000" out="01:33:58.600" producer="tractor6"/>
 </playlist>
 <tractor id="tractor7" in="00:00:00.000" out="01:33:58.600">
  <property name="kdenlive:projectTractor">1</property>
  <track in="00:00:00.000" out="01:33:58.600" producer="tractor6"/>
 </tractor>
</mlt>
