<?xml version='1.0' encoding='utf-8'?>
<mlt LC_NUMERIC="en_US.UTF-8" producer="main_bin" root="C:/Users/kado/Videos/FanEdits/KidFriendly/Ninja Scroll (1993)" version="7.33.0">
 <profile colorspace="709" description="1460x1080 23.98fps" display_aspect_den="54" display_aspect_num="73" frame_rate_den="1001" frame_rate_num="24000" height="1080" progressive="1" sample_aspect_den="1" sample_aspect_num="1" width="1460"/>
 <chain id="chain2" out="01:31:37.412">
  <property name="length">131806</property>
  <property name="eof">pause</property>
  <property name="resource">N:/Videos/Anime/Ninja Scroll (1993)/Ninja.Scroll.1993.JAPANESE.REPACK.1080p.BluRay.x264.AAC-[YTS.MX].mp4</property>
  <property name="mlt_service">avformat-novalidate</property>
  <property name="meta.media.nb_streams">2</property>
  <property name="meta.media.0.stream.type">video</property>
  <property name="meta.media.0.stream.frame_rate">23.976</property>
  <property name="meta.media.0.stream.sample_aspect_ratio">1</property>
  <property name="meta.media.0.codec.width">1460</property>
  <property name="meta.media.0.codec.height">1080</property>
  <property name="meta.media.0.codec.rotate">0</property>
  <property name="meta.media.0.codec.pix_fmt">yuv420p</property>
  <property name="meta.media.0.codec.sample_aspect_ratio">1</property>
  <property name="meta.media.0.codec.colorspace">709</property>
  <property name="meta.media.0.codec.color_trc">1</property>
  <property name="meta.media.0.codec.name">h264</property>
  <property name="meta.media.0.codec.long_name">H.264 / AVC / MPEG-4 AVC / MPEG-4 part 10</property>
  <property name="meta.media.0.codec.bit_rate">2249545</property>
  <property name="meta.attr.0.stream.handler_name.markup">VideoHandler</property>
  <property name="meta.attr.0.stream.vendor_id.markup">[0][0][0][0]</property>
  <property name="meta.media.1.stream.type">audio</property>
  <property name="meta.media.1.codec.sample_fmt">fltp</property>
  <property name="meta.media.1.codec.sample_rate">48000</property>
  <property name="meta.media.1.codec.channels">2</property>
  <property name="meta.media.1.codec.layout">stereo</property>
  <property name="meta.media.1.codec.name">aac</property>
  <property name="meta.media.1.codec.long_name">AAC (Advanced Audio Coding)</property>
  <property name="meta.media.1.codec.bit_rate">128343</property>
  <property name="meta.attr.1.stream.handler_name.markup">SoundHandler</property>
  <property name="meta.attr.1.stream.vendor_id.markup">[0][0][0][0]</property>
  <property name="meta.attr.major_brand.markup">isom</property>
  <property name="meta.attr.minor_version.markup">512</property>
  <property name="meta.attr.compatible_brands.markup">isomiso2avc1mp41</property>
  <property name="meta.attr.encoder.markup">Lavf58.67.100</property>
  <property name="seekable">1</property>
  <property name="meta.media.sample_aspect_num">1</property>
  <property name="meta.media.sample_aspect_den">1</property>
  <property name="audio_index">1</property>
  <property name="video_index">0</property>
  <property name="vstream">0</property>
  <property name="meta.media.frame_rate_num">24000</property>
  <property name="meta.media.frame_rate_den">1001</property>
  <property name="meta.media.colorspace">709</property>
  <property name="meta.media.color_trc">1</property>
  <property name="meta.media.has_b_frames">2</property>
  <property name="meta.media.width">1460</property>
  <property name="meta.media.height">1080</property>
  <property name="meta.media.aspect_ratio">1</property>
  <property name="meta.media.color_range">mpeg</property>
  <property name="astream">0</property>
  <property name="meta.media.top_field_first">0</property>
  <property name="meta.media.progressive">1</property>
  <property name="kdenlive:control_uuid">{891a33c5-f56c-4db3-af9d-e5d090f15f81}</property>
  <property name="kdenlive:id">4</property>
  <property name="kdenlive:clip_type">0</property>
  <property name="kdenlive:file_size">1638414332</property>
  <property name="kdenlive:file_hash">60a25d9238b9b13db61df3ca826fbd3b</property>
  <property name="kdenlive:folderid">-1</property>
  <property name="mute_on_pause">0</property>
 </chain>
 <producer id="producer0" in="00:00:00.000" out="01:30:49.216">
  <property name="length">2147483647</property>
  <property name="eof">continue</property>
  <property name="resource">black</property>
  <property name="aspect_ratio">1</property>
  <property name="mlt_service">color</property>
  <property name="kdenlive:playlistid">black_track</property>
  <property name="mlt_image_format">rgba</property>
  <property name="set.test_audio">0</property>
 </producer>
 <playlist id="playlist0">
  <property name="kdenlive:audio_track">1</property>
 </playlist>
 <playlist id="playlist1">
  <property name="kdenlive:audio_track">1</property>
 </playlist>
 <tractor id="tractor0" in="00:00:00.000">
  <property name="kdenlive:audio_track">1</property>
  <property name="kdenlive:trackheight">84</property>
  <property name="kdenlive:timeline_active">1</property>
  <property name="kdenlive:collapsed">0</property>
  <property name="kdenlive:thumbs_format"/>
  <property name="kdenlive:audio_rec"/>
  <track hide="video" producer="playlist0"/>
  <track hide="video" producer="playlist1"/>
  <filter id="filter0">
   <property name="window">75</property>
   <property name="max_gain">20dB</property>
   <property name="mlt_service">volume</property>
   <property name="internal_added">237</property>
   <property name="disable">1</property>
  </filter>
  <filter id="filter1">
   <property name="channel">-1</property>
   <property name="mlt_service">panner</property>
   <property name="internal_added">237</property>
   <property name="start">0.5</property>
   <property name="disable">1</property>
  </filter>
  <filter id="filter2">
   <property name="iec_scale">0</property>
   <property name="mlt_service">audiolevel</property>
   <property name="dbpeak">1</property>
   <property name="disable">1</property>
  </filter>
 </tractor>
 <chain id="chain0" out="01:31:37.412">
  <property name="length">131806</property>
  <property name="eof">pause</property>
  <property name="resource">N:/Videos/Anime/Ninja Scroll (1993)/Ninja.Scroll.1993.JAPANESE.REPACK.1080p.BluRay.x264.AAC-[YTS.MX].mp4</property>
  <property name="mlt_service">avformat-novalidate</property>
  <property name="seekable">1</property>
  <property name="audio_index">1</property>
  <property name="video_index">0</property>
  <property name="vstream">0</property>
  <property name="astream">0</property>
  <property name="kdenlive:control_uuid">{891a33c5-f56c-4db3-af9d-e5d090f15f81}</property>
  <property name="kdenlive:id">4</property>
  <property name="kdenlive:clip_type">0</property>
  <property name="kdenlive:file_size">1638414332</property>
  <property name="kdenlive:file_hash">60a25d9238b9b13db61df3ca826fbd3b</property>
  <property name="kdenlive:folderid">-1</property>
  <property name="meta.media.nb_streams">2</property>
  <property name="meta.media.0.stream.type">video</property>
  <property name="meta.media.0.stream.frame_rate">23.976</property>
  <property name="meta.media.0.stream.sample_aspect_ratio">1</property>
  <property name="meta.media.0.codec.width">1460</property>
  <property name="meta.media.0.codec.height">1080</property>
  <property name="meta.media.0.codec.rotate">0</property>
  <property name="meta.media.0.codec.pix_fmt">yuv420p</property>
  <property name="meta.media.0.codec.sample_aspect_ratio">1</property>
  <property name="meta.media.0.codec.colorspace">709</property>
  <property name="meta.media.0.codec.color_trc">1</property>
  <property name="meta.media.0.codec.name">h264</property>
  <property name="meta.media.0.codec.long_name">H.264 / AVC / MPEG-4 AVC / MPEG-4 part 10</property>
  <property name="meta.media.0.codec.bit_rate">2249545</property>
  <property name="meta.attr.0.stream.handler_name.markup">VideoHandler</property>
  <property name="meta.attr.0.stream.vendor_id.markup">[0][0][0][0]</property>
  <property name="meta.media.1.stream.type">audio</property>
  <property name="meta.media.1.codec.sample_fmt">fltp</property>
  <property name="meta.media.1.codec.sample_rate">48000</property>
  <property name="meta.media.1.codec.channels">2</property>
  <property name="meta.media.1.codec.layout">stereo</property>
  <property name="meta.media.1.codec.name">aac</property>
  <property name="meta.media.1.codec.long_name">AAC (Advanced Audio Coding)</property>
  <property name="meta.media.1.codec.bit_rate">128343</property>
  <property name="meta.attr.1.stream.handler_name.markup">SoundHandler</property>
  <property name="meta.attr.1.stream.vendor_id.markup">[0][0][0][0]</property>
  <property name="meta.attr.major_brand.markup">isom</property>
  <property name="meta.attr.minor_version.markup">512</property>
  <property name="meta.attr.compatible_brands.markup">isomiso2avc1mp41</property>
  <property name="meta.attr.encoder.markup">Lavf58.67.100</property>
  <property name="meta.media.sample_aspect_num">1</property>
  <property name="meta.media.sample_aspect_den">1</property>
  <property name="meta.media.frame_rate_num">24000</property>
  <property name="meta.media.frame_rate_den">1001</property>
  <property name="meta.media.colorspace">709</property>
  <property name="meta.media.color_trc">1</property>
  <property name="meta.media.has_b_frames">2</property>
  <property name="meta.media.width">1460</property>
  <property name="meta.media.height">1080</property>
  <property name="meta.media.aspect_ratio">1</property>
  <property name="meta.media.color_range">mpeg</property>
  <property name="xml">was here</property>
  <property name="mute_on_pause">0</property>
  <property name="meta.media.top_field_first">0</property>
  <property name="meta.media.progressive">1</property>
  <property name="set.test_audio">0</property>
  <property name="set.test_image">1</property>
 </chain>
 <playlist id="playlist2">
  <property name="kdenlive:audio_track">1</property>
  <entry in="00:00:00.000" out="00:08:17.267" producer="chain0">
   <property name="kdenlive:id">4</property>
  </entry>
  <blank length="00:00:03.503"/>
  <entry in="00:11:57.849" out="00:12:06.590" producer="chain0">
   <property name="kdenlive:id">4</property>
  </entry>
  <blank length="00:00:31.531"/>
  <entry in="00:12:54.596" out="00:13:16.058" producer="chain0">
   <property name="kdenlive:id">4</property>
  </entry>
  <blank length="00:00:38.163"/>
  <entry in="00:15:28.487" out="00:15:32.908" producer="chain0">
   <property name="kdenlive:id">4</property>
  </entry>
  <blank length="00:00:05.756"/>
  <entry in="00:15:54.846" out="00:17:01.668" producer="chain0">
   <property name="kdenlive:id">4</property>
  </entry>
  <blank length="00:00:05.589"/>
  <entry in="00:17:11.720" out="01:31:37.412" producer="chain0">
   <property name="kdenlive:id">4</property>
  </entry>
 </playlist>
 <chain id="chain1" out="01:31:37.412">
  <property name="length">131806</property>
  <property name="eof">pause</property>
  <property name="resource">N:/Videos/Anime/Ninja Scroll (1993)/Ninja.Scroll.1993.JAPANESE.REPACK.1080p.BluRay.x264.AAC-[YTS.MX].mp4</property>
  <property name="mlt_service">avformat-novalidate</property>
  <property name="seekable">1</property>
  <property name="audio_index">1</property>
  <property name="video_index">0</property>
  <property name="vstream">0</property>
  <property name="astream">0</property>
  <property name="kdenlive:control_uuid">{891a33c5-f56c-4db3-af9d-e5d090f15f81}</property>
  <property name="kdenlive:id">4</property>
  <property name="kdenlive:clip_type">0</property>
  <property name="kdenlive:file_size">1638414332</property>
  <property name="kdenlive:file_hash">60a25d9238b9b13db61df3ca826fbd3b</property>
  <property name="kdenlive:folderid">-1</property>
  <property name="mute_on_pause">0</property>
  <property name="meta.media.nb_streams">2</property>
  <property name="meta.media.0.stream.type">video</property>
  <property name="meta.media.0.stream.frame_rate">23.976</property>
  <property name="meta.media.0.stream.sample_aspect_ratio">1</property>
  <property name="meta.media.0.codec.width">1460</property>
  <property name="meta.media.0.codec.height">1080</property>
  <property name="meta.media.0.codec.rotate">0</property>
  <property name="meta.media.0.codec.pix_fmt">yuv420p</property>
  <property name="meta.media.0.codec.sample_aspect_ratio">1</property>
  <property name="meta.media.0.codec.colorspace">709</property>
  <property name="meta.media.0.codec.color_trc">1</property>
  <property name="meta.media.0.codec.name">h264</property>
  <property name="meta.media.0.codec.long_name">H.264 / AVC / MPEG-4 AVC / MPEG-4 part 10</property>
  <property name="meta.media.0.codec.bit_rate">2249545</property>
  <property name="meta.attr.0.stream.handler_name.markup">VideoHandler</property>
  <property name="meta.attr.0.stream.vendor_id.markup">[0][0][0][0]</property>
  <property name="meta.media.1.stream.type">audio</property>
  <property name="meta.media.1.codec.sample_fmt">fltp</property>
  <property name="meta.media.1.codec.sample_rate">48000</property>
  <property name="meta.media.1.codec.channels">2</property>
  <property name="meta.media.1.codec.layout">stereo</property>
  <property name="meta.media.1.codec.name">aac</property>
  <property name="meta.media.1.codec.long_name">AAC (Advanced Audio Coding)</property>
  <property name="meta.media.1.codec.bit_rate">128343</property>
  <property name="meta.attr.1.stream.handler_name.markup">SoundHandler</property>
  <property name="meta.attr.1.stream.vendor_id.markup">[0][0][0][0]</property>
  <property name="meta.attr.major_brand.markup">isom</property>
  <property name="meta.attr.minor_version.markup">512</property>
  <property name="meta.attr.compatible_brands.markup">isomiso2avc1mp41</property>
  <property name="meta.attr.encoder.markup">Lavf58.67.100</property>
  <property name="meta.media.sample_aspect_num">1</property>
  <property name="meta.media.sample_aspect_den">1</property>
  <property name="meta.media.frame_rate_num">24000</property>
  <property name="meta.media.frame_rate_den">1001</property>
  <property name="meta.media.colorspace">709</property>
  <property name="meta.media.color_trc">1</property>
  <property name="meta.media.has_b_frames">2</property>
  <property name="meta.media.width">1460</property>
  <property name="meta.media.height">1080</property>
  <property name="meta.media.aspect_ratio">1</property>
  <property name="meta.media.color_range">mpeg</property>
  <property name="xml">was here</property>
  <property name="meta.media.top_field_first">0</property>
  <property name="meta.media.progressive">1</property>
  <property name="set.test_audio">0</property>
  <property name="set.test_image">1</property>
 </chain>
 <playlist id="playlist3">
  <property name="kdenlive:audio_track">1</property>
  <blank length="00:08:16.892"/>
  <entry in="00:11:47.756" out="00:11:53.053" producer="chain1">
   <property name="kdenlive:id">4</property>
  </entry>
  <blank length="00:00:06.924"/>
  <entry in="00:12:18.101" out="00:12:50.425" producer="chain1">
   <property name="kdenlive:id">4</property>
  </entry>
  <blank length="00:00:19.102"/>
  <entry in="00:14:33.700" out="00:15:15.224" producer="chain1">
   <property name="kdenlive:id">4</property>
  </entry>
  <blank length="00:00:02.628"/>
  <entry in="00:15:34.159" out="00:15:40.707" producer="chain1">
   <property name="kdenlive:id">4</property>
  </entry>
  <blank length="00:01:06.048"/>
  <entry in="00:17:03.587" out="00:17:09.968" producer="chain1">
   <property name="kdenlive:id">4</property>
  </entry>
 </playlist>
 <tractor id="tractor1" in="00:00:00.000" out="01:25:49.132">
  <property name="kdenlive:audio_track">1</property>
  <property name="kdenlive:trackheight">84</property>
  <property name="kdenlive:timeline_active">1</property>
  <property name="kdenlive:collapsed">0</property>
  <property name="kdenlive:thumbs_format"/>
  <property name="kdenlive:audio_rec"/>
  <track hide="video" producer="playlist2"/>
  <track hide="video" producer="playlist3"/>
  <transition id="transition0" in="00:08:16.892" out="00:08:17.309">
   <property name="a_track">0</property>
   <property name="b_track">1</property>
   <property name="mlt_service">mix</property>
   <property name="kdenlive_id">mix</property>
   <property name="kdenlive:mixcut">5</property>
   <property name="start">-1</property>
   <property name="accepts_blanks">1</property>
   <property name="reverse">0</property>
  </transition>
  <transition id="transition1" in="00:08:20.812" out="00:08:22.231">
   <property name="a_track">0</property>
   <property name="b_track">1</property>
   <property name="mlt_service">mix</property>
   <property name="kdenlive_id">mix</property>
   <property name="kdenlive:mixcut">0</property>
   <property name="reverse">1</property>
  </transition>
  <transition id="transition2" in="00:08:29.154" out="00:08:29.571">
   <property name="a_track">0</property>
   <property name="b_track">1</property>
   <property name="mlt_service">mix</property>
   <property name="kdenlive_id">mix</property>
   <property name="kdenlive:mixcut">5</property>
   <property name="start">-1</property>
   <property name="accepts_blanks">1</property>
   <property name="reverse">0</property>
  </transition>
  <transition id="transition3" in="00:09:01.084" out="00:09:01.501">
   <property name="a_track">0</property>
   <property name="b_track">1</property>
   <property name="mlt_service">mix</property>
   <property name="kdenlive_id">mix</property>
   <property name="kdenlive:mixcut">5</property>
   <property name="start">-1</property>
   <property name="accepts_blanks">1</property>
   <property name="reverse">1</property>
  </transition>
  <transition id="transition4" in="00:09:20.604" out="00:09:22.606">
   <property name="a_track">0</property>
   <property name="b_track">1</property>
   <property name="mlt_service">mix</property>
   <property name="kdenlive_id">mix</property>
   <property name="kdenlive:mixcut">48</property>
   <property name="start">-1</property>
   <property name="accepts_blanks">1</property>
   <property name="reverse">0</property>
  </transition>
  <transition id="transition5" in="00:10:00.792" out="00:10:02.211">
   <property name="a_track">0</property>
   <property name="b_track">1</property>
   <property name="mlt_service">mix</property>
   <property name="kdenlive_id">mix</property>
   <property name="kdenlive:mixcut">0</property>
   <property name="start">-1</property>
   <property name="accepts_blanks">1</property>
   <property name="reverse">1</property>
  </transition>
  <transition id="transition6" in="00:10:04.838" out="00:10:05.255">
   <property name="a_track">0</property>
   <property name="b_track">1</property>
   <property name="mlt_service">mix</property>
   <property name="kdenlive_id">mix</property>
   <property name="kdenlive:mixcut">5</property>
   <property name="start">-1</property>
   <property name="accepts_blanks">1</property>
   <property name="reverse">0</property>
  </transition>
  <transition id="transition7" in="00:10:11.011" out="00:10:11.428">
   <property name="a_track">0</property>
   <property name="b_track">1</property>
   <property name="mlt_service">mix</property>
   <property name="kdenlive_id">mix</property>
   <property name="kdenlive:mixcut">5</property>
   <property name="start">-1</property>
   <property name="accepts_blanks">1</property>
   <property name="reverse">1</property>
  </transition>
  <transition id="transition8" in="00:11:17.434" out="00:11:17.851">
   <property name="a_track">0</property>
   <property name="b_track">1</property>
   <property name="mlt_service">mix</property>
   <property name="kdenlive_id">mix</property>
   <property name="kdenlive:mixcut">5</property>
   <property name="start">-1</property>
   <property name="accepts_blanks">1</property>
   <property name="reverse">0</property>
  </transition>
  <transition id="transition9" in="00:11:23.440" out="00:11:23.857">
   <property name="a_track">0</property>
   <property name="b_track">1</property>
   <property name="mlt_service">mix</property>
   <property name="kdenlive_id">mix</property>
   <property name="kdenlive:mixcut">5</property>
   <property name="start">-1</property>
   <property name="accepts_blanks">1</property>
   <property name="reverse">1</property>
  </transition>
  <filter id="filter3">
   <property name="window">75</property>
   <property name="max_gain">20dB</property>
   <property name="mlt_service">volume</property>
   <property name="internal_added">237</property>
   <property name="disable">1</property>
  </filter>
  <filter id="filter4">
   <property name="channel">-1</property>
   <property name="mlt_service">panner</property>
   <property name="internal_added">237</property>
   <property name="start">0.5</property>
   <property name="disable">1</property>
  </filter>
  <filter id="filter5">
   <property name="iec_scale">0</property>
   <property name="mlt_service">audiolevel</property>
   <property name="dbpeak">1</property>
   <property name="disable">1</property>
  </filter>
 </tractor>
 <chain id="chain3" out="01:31:37.412">
  <property name="length">131806</property>
  <property name="eof">pause</property>
  <property name="resource">N:/Videos/Anime/Ninja Scroll (1993)/Ninja.Scroll.1993.JAPANESE.REPACK.1080p.BluRay.x264.AAC-[YTS.MX].mp4</property>
  <property name="mlt_service">avformat-novalidate</property>
  <property name="seekable">1</property>
  <property name="audio_index">1</property>
  <property name="video_index">0</property>
  <property name="vstream">0</property>
  <property name="astream">0</property>
  <property name="kdenlive:control_uuid">{891a33c5-f56c-4db3-af9d-e5d090f15f81}</property>
  <property name="kdenlive:id">4</property>
  <property name="kdenlive:clip_type">0</property>
  <property name="kdenlive:file_size">1638414332</property>
  <property name="kdenlive:file_hash">60a25d9238b9b13db61df3ca826fbd3b</property>
  <property name="kdenlive:folderid">-1</property>
  <property name="meta.media.nb_streams">2</property>
  <property name="meta.media.0.stream.type">video</property>
  <property name="meta.media.0.stream.frame_rate">23.976</property>
  <property name="meta.media.0.stream.sample_aspect_ratio">1</property>
  <property name="meta.media.0.codec.width">1460</property>
  <property name="meta.media.0.codec.height">1080</property>
  <property name="meta.media.0.codec.rotate">0</property>
  <property name="meta.media.0.codec.pix_fmt">yuv420p</property>
  <property name="meta.media.0.codec.sample_aspect_ratio">1</property>
  <property name="meta.media.0.codec.colorspace">709</property>
  <property name="meta.media.0.codec.color_trc">1</property>
  <property name="meta.media.0.codec.name">h264</property>
  <property name="meta.media.0.codec.long_name">H.264 / AVC / MPEG-4 AVC / MPEG-4 part 10</property>
  <property name="meta.media.0.codec.bit_rate">2249545</property>
  <property name="meta.attr.0.stream.handler_name.markup">VideoHandler</property>
  <property name="meta.attr.0.stream.vendor_id.markup">[0][0][0][0]</property>
  <property name="meta.media.1.stream.type">audio</property>
  <property name="meta.media.1.codec.sample_fmt">fltp</property>
  <property name="meta.media.1.codec.sample_rate">48000</property>
  <property name="meta.media.1.codec.channels">2</property>
  <property name="meta.media.1.codec.layout">stereo</property>
  <property name="meta.media.1.codec.name">aac</property>
  <property name="meta.media.1.codec.long_name">AAC (Advanced Audio Coding)</property>
  <property name="meta.media.1.codec.bit_rate">128343</property>
  <property name="meta.attr.1.stream.handler_name.markup">SoundHandler</property>
  <property name="meta.attr.1.stream.vendor_id.markup">[0][0][0][0]</property>
  <property name="meta.attr.major_brand.markup">isom</property>
  <property name="meta.attr.minor_version.markup">512</property>
  <property name="meta.attr.compatible_brands.markup">isomiso2avc1mp41</property>
  <property name="meta.attr.encoder.markup">Lavf58.67.100</property>
  <property name="meta.media.sample_aspect_num">1</property>
  <property name="meta.media.sample_aspect_den">1</property>
  <property name="meta.media.frame_rate_num">24000</property>
  <property name="meta.media.frame_rate_den">1001</property>
  <property name="meta.media.colorspace">709</property>
  <property name="meta.media.color_trc">1</property>
  <property name="meta.media.has_b_frames">2</property>
  <property name="meta.media.width">1460</property>
  <property name="meta.media.height">1080</property>
  <property name="meta.media.aspect_ratio">1</property>
  <property name="meta.media.color_range">mpeg</property>
  <property name="xml">was here</property>
  <property name="mute_on_pause">0</property>
  <property name="meta.media.top_field_first">0</property>
  <property name="meta.media.progressive">1</property>
  <property name="set.test_audio">1</property>
  <property name="set.test_image">0</property>
 </chain>
 <playlist id="playlist4">
  <entry in="00:00:00.000" out="00:08:17.059" producer="chain3">
   <property name="kdenlive:id">4</property>
  </entry>
  <entry in="00:11:47.965" out="00:11:53.053" producer="chain3">
   <property name="kdenlive:id">4</property>
  </entry>
  <entry in="00:11:59.268" out="00:12:06.381" producer="chain3">
   <property name="kdenlive:id">4</property>
  </entry>
  <entry in="00:12:18.310" out="00:12:50.217" producer="chain3">
   <property name="kdenlive:id">4</property>
  </entry>
  <entry in="00:12:54.805" out="00:13:14.056" producer="chain3">
   <property name="kdenlive:id">4</property>
  </entry>
  <entry in="00:14:33.700" out="00:15:15.224" producer="chain3">
   <property name="kdenlive:id">4</property>
  </entry>
  <entry in="00:15:29.905" out="00:15:32.699" producer="chain3">
   <property name="kdenlive:id">4</property>
  </entry>
  <entry in="00:15:34.368" out="00:15:40.499" producer="chain3">
   <property name="kdenlive:id">4</property>
  </entry>
  <entry in="00:15:55.055" out="00:17:01.460" producer="chain3">
   <property name="kdenlive:id">4</property>
  </entry>
  <entry in="00:17:03.795" out="00:17:09.760" producer="chain3">
   <property name="kdenlive:id">4</property>
  </entry>
  <entry in="00:17:11.929" out="01:31:37.412" producer="chain3">
   <property name="kdenlive:id">4</property>
  </entry>
 </playlist>
 <playlist id="playlist5"/>
 <tractor id="tractor2" in="00:00:00.000" out="01:25:49.132">
  <property name="kdenlive:trackheight">84</property>
  <property name="kdenlive:timeline_active">1</property>
  <property name="kdenlive:collapsed">0</property>
  <property name="kdenlive:thumbs_format"/>
  <property name="kdenlive:audio_rec"/>
  <track hide="audio" producer="playlist4"/>
  <track hide="audio" producer="playlist5"/>
 </tractor>
 <playlist id="playlist6"/>
 <playlist id="playlist7"/>
 <tractor id="tractor3" in="00:00:00.000">
  <property name="kdenlive:trackheight">84</property>
  <property name="kdenlive:timeline_active">1</property>
  <property name="kdenlive:collapsed">0</property>
  <property name="kdenlive:thumbs_format"/>
  <property name="kdenlive:audio_rec"/>
  <track hide="audio" producer="playlist6"/>
  <track hide="audio" producer="playlist7"/>
 </tractor>
 <tractor id="tractor4" in="00:00:00.000" out="01:25:49.132">
  <property name="kdenlive:duration">01:25:49.174</property>
  <property name="kdenlive:maxduration">123456</property>
  <property name="kdenlive:clipname">Sequence 1</property>
  <property name="kdenlive:description"/>
  <property name="kdenlive:uuid">{1f81736c-4139-437b-9639-00d09692bbe6}</property>
  <property name="kdenlive:producer_type">17</property>
  <property name="kdenlive:control_uuid">{1f81736c-4139-437b-9639-00d09692bbe6}</property>
  <property name="kdenlive:id">3</property>
  <property name="kdenlive:clip_type">0</property>
  <property name="kdenlive:file_hash">f87619521caf758fe694200a0194428f</property>
  <property name="kdenlive:folderid">2</property>
  <property name="kdenlive:sequenceproperties.activeTrack">1</property>
  <property name="kdenlive:sequenceproperties.audioTarget">1</property>
  <property name="kdenlive:sequenceproperties.disablepreview">0</property>
  <property name="kdenlive:sequenceproperties.documentuuid">{1f81736c-4139-437b-9639-00d09692bbe6}</property>
  <property name="kdenlive:sequenceproperties.globalSubtitleStyles">[
]
</property>
  <property name="kdenlive:sequenceproperties.hasAudio">1</property>
  <property name="kdenlive:sequenceproperties.hasVideo">1</property>
  <property name="kdenlive:sequenceproperties.hidesubtitle">0</property>
  <property name="kdenlive:sequenceproperties.position">17450</property>
  <property name="kdenlive:sequenceproperties.scrollPos">39639</property>
  <property name="kdenlive:sequenceproperties.subtitlesList">[
    {
        "file": "C:/Users/kado/Videos/FanEdits/KidFriendly/Ninja Scroll (1993)/Ninja Scroll (1993).kdenlive.ass",
        "id": 0,
        "name": "Subtitles"
    }
]
</property>
  <property name="kdenlive:sequenceproperties.tracks">4</property>
  <property name="kdenlive:sequenceproperties.tracksCount">4</property>
  <property name="kdenlive:sequenceproperties.verticalzoom">1</property>
  <property name="kdenlive:sequenceproperties.videoTarget">2</property>
  <property name="kdenlive:sequenceproperties.zonein">11888</property>
  <property name="kdenlive:sequenceproperties.zoneout">11963</property>
  <property name="kdenlive:sequenceproperties.zoom">5</property>
  <property name="kdenlive:sequenceproperties.groups">[
    {
        "children": [
            {
                "data": "1:16386:-1",
                "leaf": "clip",
                "type": "Leaf"
            },
            {
                "data": "2:16391:-1",
                "leaf": "clip",
                "type": "Leaf"
            },
            {
                "data": "-2:65589:0",
                "leaf": "subtitle",
                "type": "Leaf"
            },
            {
                "data": "-2:59762:0",
                "leaf": "subtitle",
                "type": "Leaf"
            },
            {
                "data": "-2:87990:0",
                "leaf": "subtitle",
                "type": "Leaf"
            },
            {
                "data": "-2:65398:0",
                "leaf": "subtitle",
                "type": "Leaf"
            },
            {
                "data": "-2:59528:0",
                "leaf": "subtitle",
                "type": "Leaf"
            },
            {
                "data": "-2:87911:0",
                "leaf": "subtitle",
                "type": "Leaf"
            },
            {
                "data": "-2:59465:0",
                "leaf": "subtitle",
                "type": "Leaf"
            },
            {
                "data": "-2:87200:0",
                "leaf": "subtitle",
                "type": "Leaf"
            },
            {
                "data": "-2:59401:0",
                "leaf": "subtitle",
                "type": "Leaf"
            },
            {
                "data": "-2:86409:0",
                "leaf": "subtitle",
                "type": "Leaf"
            },
            {
                "data": "-2:59343:0",
                "leaf": "subtitle",
                "type": "Leaf"
            },
            {
                "data": "-2:86329:0",
                "leaf": "subtitle",
                "type": "Leaf"
            },
            {
                "data": "-2:59291:0",
                "leaf": "subtitle",
                "type": "Leaf"
            },
            {
                "data": "-2:84966:0",
                "leaf": "subtitle",
                "type": "Leaf"
            },
            {
                "data": "-2:59251:0",
                "leaf": "subtitle",
                "type": "Leaf"
            },
            {
                "data": "-2:84799:0",
                "leaf": "subtitle",
                "type": "Leaf"
            },
            {
                "data": "-2:84747:0",
                "leaf": "subtitle",
                "type": "Leaf"
            },
            {
                "data": "-2:84633:0",
                "leaf": "subtitle",
                "type": "Leaf"
            },
            {
                "data": "-2:84444:0",
                "leaf": "subtitle",
                "type": "Leaf"
            },
            {
                "data": "-2:84160:0",
                "leaf": "subtitle",
                "type": "Leaf"
            },
            {
                "data": "-2:84104:0",
                "leaf": "subtitle",
                "type": "Leaf"
            },
            {
                "data": "-2:68129:0",
                "leaf": "subtitle",
                "type": "Leaf"
            },
            {
                "data": "-2:68161:0",
                "leaf": "subtitle",
                "type": "Leaf"
            },
            {
                "data": "-2:68253:0",
                "leaf": "subtitle",
                "type": "Leaf"
            },
            {
                "data": "-2:68312:0",
                "leaf": "subtitle",
                "type": "Leaf"
            },
            {
                "data": "-2:68340:0",
                "leaf": "subtitle",
                "type": "Leaf"
            },
            {
                "data": "-2:68417:0",
                "leaf": "subtitle",
                "type": "Leaf"
            },
            {
                "data": "-2:68520:0",
                "leaf": "subtitle",
                "type": "Leaf"
            },
            {
                "data": "-2:68578:0",
                "leaf": "subtitle",
                "type": "Leaf"
            },
            {
                "data": "-2:68611:0",
                "leaf": "subtitle",
                "type": "Leaf"
            },
            {
                "data": "-2:68697:0",
                "leaf": "subtitle",
                "type": "Leaf"
            },
            {
                "data": "-2:69080:0",
                "leaf": "subtitle",
                "type": "Leaf"
            },
            {
                "data": "-2:69132:0",
                "leaf": "subtitle",
                "type": "Leaf"
            },
            {
                "data": "-2:70417:0",
                "leaf": "subtitle",
                "type": "Leaf"
            },
            {
                "data": "-2:70508:0",
                "leaf": "subtitle",
                "type": "Leaf"
            },
            {
                "data": "-2:70577:0",
                "leaf": "subtitle",
                "type": "Leaf"
            },
            {
                "data": "-2:70590:0",
                "leaf": "subtitle",
                "type": "Leaf"
            },
            {
                "data": "-2:70748:0",
                "leaf": "subtitle",
                "type": "Leaf"
            },
            {
                "data": "-2:70827:0",
                "leaf": "subtitle",
                "type": "Leaf"
            },
            {
                "data": "-2:71291:0",
                "leaf": "subtitle",
                "type": "Leaf"
            },
            {
                "data": "-2:71388:0",
                "leaf": "subtitle",
                "type": "Leaf"
            },
            {
                "data": "-2:71480:0",
                "leaf": "subtitle",
                "type": "Leaf"
            },
            {
                "data": "-2:71554:0",
                "leaf": "subtitle",
                "type": "Leaf"
            },
            {
                "data": "-2:71636:0",
                "leaf": "subtitle",
                "type": "Leaf"
            },
            {
                "data": "-2:29313:0",
                "leaf": "subtitle",
                "type": "Leaf"
            },
            {
                "data": "-2:72166:0",
                "leaf": "subtitle",
                "type": "Leaf"
            },
            {
                "data": "-2:29340:0",
                "leaf": "subtitle",
                "type": "Leaf"
            },
            {
                "data": "-2:72248:0",
                "leaf": "subtitle",
                "type": "Leaf"
            },
            {
                "data": "-2:72431:0",
                "leaf": "subtitle",
                "type": "Leaf"
            },
            {
                "data": "-2:72527:0",
                "leaf": "subtitle",
                "type": "Leaf"
            },
            {
                "data": "-2:29686:0",
                "leaf": "subtitle",
                "type": "Leaf"
            },
            {
                "data": "-2:72586:0",
                "leaf": "subtitle",
                "type": "Leaf"
            },
            {
                "data": "-2:72678:0",
                "leaf": "subtitle",
                "type": "Leaf"
            },
            {
                "data": "-2:75808:0",
                "leaf": "subtitle",
                "type": "Leaf"
            },
            {
                "data": "-2:34010:0",
                "leaf": "subtitle",
                "type": "Leaf"
            },
            {
                "data": "-2:75864:0",
                "leaf": "subtitle",
                "type": "Leaf"
            },
            {
                "data": "-2:34626:0",
                "leaf": "subtitle",
                "type": "Leaf"
            },
            {
                "data": "-2:75971:0",
                "leaf": "subtitle",
                "type": "Leaf"
            },
            {
                "data": "-2:76021:0",
                "leaf": "subtitle",
                "type": "Leaf"
            },
            {
                "data": "-2:76177:0",
                "leaf": "subtitle",
                "type": "Leaf"
            },
            {
                "data": "-2:76269:0",
                "leaf": "subtitle",
                "type": "Leaf"
            },
            {
                "data": "-2:76347:0",
                "leaf": "subtitle",
                "type": "Leaf"
            },
            {
                "data": "-2:76497:0",
                "leaf": "subtitle",
                "type": "Leaf"
            },
            {
                "data": "-2:76566:0",
                "leaf": "subtitle",
                "type": "Leaf"
            },
            {
                "data": "-2:77043:0",
                "leaf": "subtitle",
                "type": "Leaf"
            },
            {
                "data": "-2:77088:0",
                "leaf": "subtitle",
                "type": "Leaf"
            },
            {
                "data": "-2:77134:0",
                "leaf": "subtitle",
                "type": "Leaf"
            },
            {
                "data": "-2:77231:0",
                "leaf": "subtitle",
                "type": "Leaf"
            },
            {
                "data": "-2:77299:0",
                "leaf": "subtitle",
                "type": "Leaf"
            },
            {
                "data": "-2:77998:0",
                "leaf": "subtitle",
                "type": "Leaf"
            },
            {
                "data": "-2:78027:0",
                "leaf": "subtitle",
                "type": "Leaf"
            },
            {
                "data": "-2:75508:0",
                "leaf": "subtitle",
                "type": "Leaf"
            },
            {
                "data": "-2:33785:0",
                "leaf": "subtitle",
                "type": "Leaf"
            },
            {
                "data": "-2:75142:0",
                "leaf": "subtitle",
                "type": "Leaf"
            },
            {
                "data": "-2:33325:0",
                "leaf": "subtitle",
                "type": "Leaf"
            },
            {
                "data": "-2:74966:0",
                "leaf": "subtitle",
                "type": "Leaf"
            },
            {
                "data": "-2:55003:0",
                "leaf": "subtitle",
                "type": "Leaf"
            },
            {
                "data": "-2:55093:0",
                "leaf": "subtitle",
                "type": "Leaf"
            },
            {
                "data": "-2:35390:0",
                "leaf": "subtitle",
                "type": "Leaf"
            },
            {
                "data": "-2:55138:0",
                "leaf": "subtitle",
                "type": "Leaf"
            },
            {
                "data": "-2:35417:0",
                "leaf": "subtitle",
                "type": "Leaf"
            },
            {
                "data": "-2:55250:0",
                "leaf": "subtitle",
                "type": "Leaf"
            },
            {
                "data": "-2:35507:0",
                "leaf": "subtitle",
                "type": "Leaf"
            },
            {
                "data": "-2:55349:0",
                "leaf": "subtitle",
                "type": "Leaf"
            },
            {
                "data": "-2:35608:0",
                "leaf": "subtitle",
                "type": "Leaf"
            },
            {
                "data": "-2:55441:0",
                "leaf": "subtitle",
                "type": "Leaf"
            },
            {
                "data": "-2:35735:0",
                "leaf": "subtitle",
                "type": "Leaf"
            },
            {
                "data": "-2:55548:0",
                "leaf": "subtitle",
                "type": "Leaf"
            },
            {
                "data": "-2:35857:0",
                "leaf": "subtitle",
                "type": "Leaf"
            },
            {
                "data": "-2:55638:0",
                "leaf": "subtitle",
                "type": "Leaf"
            },
            {
                "data": "-2:36088:0",
                "leaf": "subtitle",
                "type": "Leaf"
            },
            {
                "data": "-2:55725:0",
                "leaf": "subtitle",
                "type": "Leaf"
            },
            {
                "data": "-2:36198:0",
                "leaf": "subtitle",
                "type": "Leaf"
            },
            {
                "data": "-2:55761:0",
                "leaf": "subtitle",
                "type": "Leaf"
            },
            {
                "data": "-2:36339:0",
                "leaf": "subtitle",
                "type": "Leaf"
            },
            {
                "data": "-2:55842:0",
                "leaf": "subtitle",
                "type": "Leaf"
            },
            {
                "data": "-2:36582:0",
                "leaf": "subtitle",
                "type": "Leaf"
            },
            {
                "data": "-2:55905:0",
                "leaf": "subtitle",
                "type": "Leaf"
            },
            {
                "data": "-2:36880:0",
                "leaf": "subtitle",
                "type": "Leaf"
            },
            {
                "data": "-2:55952:0",
                "leaf": "subtitle",
                "type": "Leaf"
            },
            {
                "data": "-2:37231:0",
                "leaf": "subtitle",
                "type": "Leaf"
            },
            {
                "data": "-2:56017:0",
                "leaf": "subtitle",
                "type": "Leaf"
            },
            {
                "data": "-2:37505:0",
                "leaf": "subtitle",
                "type": "Leaf"
            },
            {
                "data": "-2:56073:0",
                "leaf": "subtitle",
                "type": "Leaf"
            },
            {
                "data": "-2:37689:0",
                "leaf": "subtitle",
                "type": "Leaf"
            },
            {
                "data": "-2:56280:0",
                "leaf": "subtitle",
                "type": "Leaf"
            },
            {
                "data": "-2:37773:0",
                "leaf": "subtitle",
                "type": "Leaf"
            },
            {
                "data": "-2:56486:0",
                "leaf": "subtitle",
                "type": "Leaf"
            },
            {
                "data": "-2:37889:0",
                "leaf": "subtitle",
                "type": "Leaf"
            },
            {
                "data": "-2:56565:0",
                "leaf": "subtitle",
                "type": "Leaf"
            },
            {
                "data": "-2:37933:0",
                "leaf": "subtitle",
                "type": "Leaf"
            },
            {
                "data": "-2:56776:0",
                "leaf": "subtitle",
                "type": "Leaf"
            },
            {
                "data": "-2:38026:0",
                "leaf": "subtitle",
                "type": "Leaf"
            },
            {
                "data": "-2:57003:0",
                "leaf": "subtitle",
                "type": "Leaf"
            },
            {
                "data": "-2:38118:0",
                "leaf": "subtitle",
                "type": "Leaf"
            },
            {
                "data": "-2:57036:0",
                "leaf": "subtitle",
                "type": "Leaf"
            },
            {
                "data": "-2:38209:0",
                "leaf": "subtitle",
                "type": "Leaf"
            },
            {
                "data": "-2:57066:0",
                "leaf": "subtitle",
                "type": "Leaf"
            },
            {
                "data": "-2:57417:0",
                "leaf": "subtitle",
                "type": "Leaf"
            },
            {
                "data": "-2:57441:0",
                "leaf": "subtitle",
                "type": "Leaf"
            },
            {
                "data": "-2:57484:0",
                "leaf": "subtitle",
                "type": "Leaf"
            },
            {
                "data": "-2:57620:0",
                "leaf": "subtitle",
                "type": "Leaf"
            },
            {
                "data": "-2:57707:0",
                "leaf": "subtitle",
                "type": "Leaf"
            },
            {
                "data": "-2:58069:0",
                "leaf": "subtitle",
                "type": "Leaf"
            },
            {
                "data": "-2:52969:0",
                "leaf": "subtitle",
                "type": "Leaf"
            },
            {
                "data": "-2:103292:0",
                "leaf": "subtitle",
                "type": "Leaf"
            },
            {
                "data": "-2:73686:0",
                "leaf": "subtitle",
                "type": "Leaf"
            },
            {
                "data": "-2:30957:0",
                "leaf": "subtitle",
                "type": "Leaf"
            },
            {
                "data": "-2:31393:0",
                "leaf": "subtitle",
                "type": "Leaf"
            },
            {
                "data": "-2:74175:0",
                "leaf": "subtitle",
                "type": "Leaf"
            },
            {
                "data": "-2:74440:0",
                "leaf": "subtitle",
                "type": "Leaf"
            },
            {
                "data": "-2:31679:0",
                "leaf": "subtitle",
                "type": "Leaf"
            },
            {
                "data": "-2:31898:0",
                "leaf": "subtitle",
                "type": "Leaf"
            },
            {
                "data": "-2:74635:0",
                "leaf": "subtitle",
                "type": "Leaf"
            },
            {
                "data": "-2:54922:0",
                "leaf": "subtitle",
                "type": "Leaf"
            },
            {
                "data": "-2:74892:0",
                "leaf": "subtitle",
                "type": "Leaf"
            },
            {
                "data": "-2:33063:0",
                "leaf": "subtitle",
                "type": "Leaf"
            },
            {
                "data": "-2:74372:0",
                "leaf": "subtitle",
                "type": "Leaf"
            },
            {
                "data": "-2:31610:0",
                "leaf": "subtitle",
                "type": "Leaf"
            },
            {
                "data": "-2:31846:0",
                "leaf": "subtitle",
                "type": "Leaf"
            },
            {
                "data": "-2:74589:0",
                "leaf": "subtitle",
                "type": "Leaf"
            },
            {
                "data": "-2:74228:0",
                "leaf": "subtitle",
                "type": "Leaf"
            },
            {
                "data": "-2:31512:0",
                "leaf": "subtitle",
                "type": "Leaf"
            },
            {
                "data": "-2:33164:0",
                "leaf": "subtitle",
                "type": "Leaf"
            },
            {
                "data": "-2:74721:0",
                "leaf": "subtitle",
                "type": "Leaf"
            },
            {
                "data": "-2:31940:0",
                "leaf": "subtitle",
                "type": "Leaf"
            },
            {
                "data": "-2:54851:0",
                "leaf": "subtitle",
                "type": "Leaf"
            },
            {
                "data": "-2:74848:0",
                "leaf": "subtitle",
                "type": "Leaf"
            },
            {
                "data": "-2:32906:0",
                "leaf": "subtitle",
                "type": "Leaf"
            },
            {
                "data": "-2:74325:0",
                "leaf": "subtitle",
                "type": "Leaf"
            },
            {
                "data": "-2:31549:0",
                "leaf": "subtitle",
                "type": "Leaf"
            },
            {
                "data": "-2:31797:0",
                "leaf": "subtitle",
                "type": "Leaf"
            },
            {
                "data": "-2:74488:0",
                "leaf": "subtitle",
                "type": "Leaf"
            },
            {
                "data": "-2:53887:0",
                "leaf": "subtitle",
                "type": "Leaf"
            },
            {
                "data": "-2:103537:0",
                "leaf": "subtitle",
                "type": "Leaf"
            },
            {
                "data": "-2:53535:0",
                "leaf": "subtitle",
                "type": "Leaf"
            },
            {
                "data": "-2:103433:0",
                "leaf": "subtitle",
                "type": "Leaf"
            },
            {
                "data": "-2:73904:0",
                "leaf": "subtitle",
                "type": "Leaf"
            },
            {
                "data": "-2:31325:0",
                "leaf": "subtitle",
                "type": "Leaf"
            },
            {
                "data": "-2:53376:0",
                "leaf": "subtitle",
                "type": "Leaf"
            },
            {
                "data": "-2:103348:0",
                "leaf": "subtitle",
                "type": "Leaf"
            },
            {
                "data": "-2:73841:0",
                "leaf": "subtitle",
                "type": "Leaf"
            },
            {
                "data": "-2:31059:0",
                "leaf": "subtitle",
                "type": "Leaf"
            },
            {
                "data": "-2:52585:0",
                "leaf": "subtitle",
                "type": "Leaf"
            },
            {
                "data": "-2:103274:0",
                "leaf": "subtitle",
                "type": "Leaf"
            },
            {
                "data": "-2:73629:0",
                "leaf": "subtitle",
                "type": "Leaf"
            },
            {
                "data": "-2:30908:0",
                "leaf": "subtitle",
                "type": "Leaf"
            },
            {
                "data": "-2:52474:0",
                "leaf": "subtitle",
                "type": "Leaf"
            },
            {
                "data": "-2:103203:0",
                "leaf": "subtitle",
                "type": "Leaf"
            },
            {
                "data": "-2:73565:0",
                "leaf": "subtitle",
                "type": "Leaf"
            },
            {
                "data": "-2:30858:0",
                "leaf": "subtitle",
                "type": "Leaf"
            },
            {
                "data": "-2:58612:0",
                "leaf": "subtitle",
                "type": "Leaf"
            },
            {
                "data": "-2:52151:0",
                "leaf": "subtitle",
                "type": "Leaf"
            },
            {
                "data": "-2:103156:0",
                "leaf": "subtitle",
                "type": "Leaf"
            },
            {
                "data": "-2:73512:0",
                "leaf": "subtitle",
                "type": "Leaf"
            },
            {
                "data": "-2:102136:0",
                "leaf": "subtitle",
                "type": "Leaf"
            },
            {
                "data": "-2:99737:0",
                "leaf": "subtitle",
                "type": "Leaf"
            },
            {
                "data": "-2:103655:0",
                "leaf": "subtitle",
                "type": "Leaf"
            },
            {
                "data": "-2:103726:0",
                "leaf": "subtitle",
                "type": "Leaf"
            },
            {
                "data": "-2:16663:0",
                "leaf": "subtitle",
                "type": "Leaf"
            },
            {
                "data": "-2:103833:0",
                "leaf": "subtitle",
                "type": "Leaf"
            },
            {
                "data": "-2:16714:0",
                "leaf": "subtitle",
                "type": "Leaf"
            },
            {
                "data": "-2:104352:0",
                "leaf": "subtitle",
                "type": "Leaf"
            },
            {
                "data": "-2:16797:0",
                "leaf": "subtitle",
                "type": "Leaf"
            },
            {
                "data": "-2:104492:0",
                "leaf": "subtitle",
                "type": "Leaf"
            },
            {
                "data": "-2:16908:0",
                "leaf": "subtitle",
                "type": "Leaf"
            },
            {
                "data": "-2:104530:0",
                "leaf": "subtitle",
                "type": "Leaf"
            },
            {
                "data": "-2:98484:0",
                "leaf": "subtitle",
                "type": "Leaf"
            },
            {
                "data": "-2:54598:0",
                "leaf": "subtitle",
                "type": "Leaf"
            },
            {
                "data": "-2:16998:0",
                "leaf": "subtitle",
                "type": "Leaf"
            },
            {
                "data": "-2:104570:0",
                "leaf": "subtitle",
                "type": "Leaf"
            },
            {
                "data": "-2:91401:0",
                "leaf": "subtitle",
                "type": "Leaf"
            },
            {
                "data": "-2:91476:0",
                "leaf": "subtitle",
                "type": "Leaf"
            },
            {
                "data": "-2:97296:0",
                "leaf": "subtitle",
                "type": "Leaf"
            },
            {
                "data": "-2:49032:0",
                "leaf": "subtitle",
                "type": "Leaf"
            },
            {
                "data": "-2:97354:0",
                "leaf": "subtitle",
                "type": "Leaf"
            },
            {
                "data": "-2:49104:0",
                "leaf": "subtitle",
                "type": "Leaf"
            },
            {
                "data": "-2:97444:0",
                "leaf": "subtitle",
                "type": "Leaf"
            },
            {
                "data": "-2:91527:0",
                "leaf": "subtitle",
                "type": "Leaf"
            },
            {
                "data": "-2:49156:0",
                "leaf": "subtitle",
                "type": "Leaf"
            },
            {
                "data": "-2:97552:0",
                "leaf": "subtitle",
                "type": "Leaf"
            },
            {
                "data": "-2:91968:0",
                "leaf": "subtitle",
                "type": "Leaf"
            },
            {
                "data": "-2:96509:0",
                "leaf": "subtitle",
                "type": "Leaf"
            },
            {
                "data": "-2:96360:0",
                "leaf": "subtitle",
                "type": "Leaf"
            },
            {
                "data": "-2:96244:0",
                "leaf": "subtitle",
                "type": "Leaf"
            },
            {
                "data": "-2:96172:0",
                "leaf": "subtitle",
                "type": "Leaf"
            },
            {
                "data": "-2:95261:0",
                "leaf": "subtitle",
                "type": "Leaf"
            },
            {
                "data": "-2:94393:0",
                "leaf": "subtitle",
                "type": "Leaf"
            },
            {
                "data": "-2:60126:0",
                "leaf": "subtitle",
                "type": "Leaf"
            },
            {
                "data": "-2:60602:0",
                "leaf": "subtitle",
                "type": "Leaf"
            },
            {
                "data": "-2:67174:0",
                "leaf": "subtitle",
                "type": "Leaf"
            },
            {
                "data": "-2:90264:0",
                "leaf": "subtitle",
                "type": "Leaf"
            },
            {
                "data": "-2:90453:0",
                "leaf": "subtitle",
                "type": "Leaf"
            },
            {
                "data": "-2:67253:0",
                "leaf": "subtitle",
                "type": "Leaf"
            },
            {
                "data": "-2:88301:0",
                "leaf": "subtitle",
                "type": "Leaf"
            },
            {
                "data": "-2:90513:0",
                "leaf": "subtitle",
                "type": "Leaf"
            },
            {
                "data": "-2:67304:0",
                "leaf": "subtitle",
                "type": "Leaf"
            },
            {
                "data": "-2:90598:0",
                "leaf": "subtitle",
                "type": "Leaf"
            },
            {
                "data": "-2:67712:0",
                "leaf": "subtitle",
                "type": "Leaf"
            },
            {
                "data": "-2:88199:0",
                "leaf": "subtitle",
                "type": "Leaf"
            },
            {
                "data": "-2:45955:0",
                "leaf": "subtitle",
                "type": "Leaf"
            },
            {
                "data": "-2:88437:0",
                "leaf": "subtitle",
                "type": "Leaf"
            },
            {
                "data": "-2:83253:0",
                "leaf": "subtitle",
                "type": "Leaf"
            },
            {
                "data": "-2:90679:0",
                "leaf": "subtitle",
                "type": "Leaf"
            },
            {
                "data": "-2:67910:0",
                "leaf": "subtitle",
                "type": "Leaf"
            },
            {
                "data": "-2:88233:0",
                "leaf": "subtitle",
                "type": "Leaf"
            },
            {
                "data": "-2:46054:0",
                "leaf": "subtitle",
                "type": "Leaf"
            },
            {
                "data": "-2:88506:0",
                "leaf": "subtitle",
                "type": "Leaf"
            },
            {
                "data": "-2:83335:0",
                "leaf": "subtitle",
                "type": "Leaf"
            },
            {
                "data": "-2:48969:0",
                "leaf": "subtitle",
                "type": "Leaf"
            },
            {
                "data": "-2:91165:0",
                "leaf": "subtitle",
                "type": "Leaf"
            },
            {
                "data": "-2:116514:0",
                "leaf": "subtitle",
                "type": "Leaf"
            },
            {
                "data": "-2:24542:0",
                "leaf": "subtitle",
                "type": "Leaf"
            },
            {
                "data": "-2:67956:0",
                "leaf": "subtitle",
                "type": "Leaf"
            },
            {
                "data": "-2:83385:0",
                "leaf": "subtitle",
                "type": "Leaf"
            },
            {
                "data": "-2:88551:0",
                "leaf": "subtitle",
                "type": "Leaf"
            },
            {
                "data": "-2:46124:0",
                "leaf": "subtitle",
                "type": "Leaf"
            },
            {
                "data": "-2:82832:0",
                "leaf": "subtitle",
                "type": "Leaf"
            },
            {
                "data": "-2:46737:0",
                "leaf": "subtitle",
                "type": "Leaf"
            },
            {
                "data": "-2:89414:0",
                "leaf": "subtitle",
                "type": "Leaf"
            },
            {
                "data": "-2:88354:0",
                "leaf": "subtitle",
                "type": "Leaf"
            },
            {
                "data": "-2:83164:0",
                "leaf": "subtitle",
                "type": "Leaf"
            },
            {
                "data": "-2:46664:0",
                "leaf": "subtitle",
                "type": "Leaf"
            },
            {
                "data": "-2:89346:0",
                "leaf": "subtitle",
                "type": "Leaf"
            },
            {
                "data": "-2:83036:0",
                "leaf": "subtitle",
                "type": "Leaf"
            },
            {
                "data": "-2:46289:0",
                "leaf": "subtitle",
                "type": "Leaf"
            },
            {
                "data": "-2:88719:0",
                "leaf": "subtitle",
                "type": "Leaf"
            },
            {
                "data": "-2:82965:0",
                "leaf": "subtitle",
                "type": "Leaf"
            },
            {
                "data": "-2:22199:0",
                "leaf": "subtitle",
                "type": "Leaf"
            },
            {
                "data": "-2:109501:0",
                "leaf": "subtitle",
                "type": "Leaf"
            },
            {
                "data": "-2:78141:0",
                "leaf": "subtitle",
                "type": "Leaf"
            },
            {
                "data": "-2:22692:0",
                "leaf": "subtitle",
                "type": "Leaf"
            },
            {
                "data": "-2:109638:0",
                "leaf": "subtitle",
                "type": "Leaf"
            },
            {
                "data": "-2:78173:0",
                "leaf": "subtitle",
                "type": "Leaf"
            },
            {
                "data": "-2:78483:0",
                "leaf": "subtitle",
                "type": "Leaf"
            },
            {
                "data": "-2:118851:0",
                "leaf": "subtitle",
                "type": "Leaf"
            },
            {
                "data": "-2:25540:0",
                "leaf": "subtitle",
                "type": "Leaf"
            },
            {
                "data": "-2:83775:0",
                "leaf": "subtitle",
                "type": "Leaf"
            },
            {
                "data": "-2:22999:0",
                "leaf": "subtitle",
                "type": "Leaf"
            },
            {
                "data": "-2:110283:0",
                "leaf": "subtitle",
                "type": "Leaf"
            },
            {
                "data": "-2:78338:0",
                "leaf": "subtitle",
                "type": "Leaf"
            },
            {
                "data": "-2:64326:0",
                "leaf": "subtitle",
                "type": "Leaf"
            },
            {
                "data": "-2:25431:0",
                "leaf": "subtitle",
                "type": "Leaf"
            },
            {
                "data": "-2:118695:0",
                "leaf": "subtitle",
                "type": "Leaf"
            },
            {
                "data": "-2:64167:0",
                "leaf": "subtitle",
                "type": "Leaf"
            },
            {
                "data": "-2:25306:0",
                "leaf": "subtitle",
                "type": "Leaf"
            },
            {
                "data": "-2:117430:0",
                "leaf": "subtitle",
                "type": "Leaf"
            },
            {
                "data": "-2:83420:0",
                "leaf": "subtitle",
                "type": "Leaf"
            },
            {
                "data": "-2:88593:0",
                "leaf": "subtitle",
                "type": "Leaf"
            },
            {
                "data": "-2:64059:0",
                "leaf": "subtitle",
                "type": "Leaf"
            },
            {
                "data": "-2:25188:0",
                "leaf": "subtitle",
                "type": "Leaf"
            },
            {
                "data": "-2:117341:0",
                "leaf": "subtitle",
                "type": "Leaf"
            },
            {
                "data": "-2:61241:0",
                "leaf": "subtitle",
                "type": "Leaf"
            },
            {
                "data": "-2:107578:0",
                "leaf": "subtitle",
                "type": "Leaf"
            },
            {
                "data": "-2:20085:0",
                "leaf": "subtitle",
                "type": "Leaf"
            },
            {
                "data": "-2:60875:0",
                "leaf": "subtitle",
                "type": "Leaf"
            },
            {
                "data": "-2:107469:0",
                "leaf": "subtitle",
                "type": "Leaf"
            },
            {
                "data": "-2:19969:0",
                "leaf": "subtitle",
                "type": "Leaf"
            },
            {
                "data": "-2:116951:0",
                "leaf": "subtitle",
                "type": "Leaf"
            },
            {
                "data": "-2:24848:0",
                "leaf": "subtitle",
                "type": "Leaf"
            },
            {
                "data": "-2:116861:0",
                "leaf": "subtitle",
                "type": "Leaf"
            },
            {
                "data": "-2:24757:0",
                "leaf": "subtitle",
                "type": "Leaf"
            },
            {
                "data": "-2:65008:0",
                "leaf": "subtitle",
                "type": "Leaf"
            },
            {
                "data": "-2:83869:0",
                "leaf": "subtitle",
                "type": "Leaf"
            },
            {
                "data": "-2:78550:0",
                "leaf": "subtitle",
                "type": "Leaf"
            },
            {
                "data": "-2:118995:0",
                "leaf": "subtitle",
                "type": "Leaf"
            },
            {
                "data": "-2:25601:0",
                "leaf": "subtitle",
                "type": "Leaf"
            },
            {
                "data": "-2:61782:0",
                "leaf": "subtitle",
                "type": "Leaf"
            },
            {
                "data": "-2:107841:0",
                "leaf": "subtitle",
                "type": "Leaf"
            },
            {
                "data": "-2:21393:0",
                "leaf": "subtitle",
                "type": "Leaf"
            },
            {
                "data": "-2:24701:0",
                "leaf": "subtitle",
                "type": "Leaf"
            },
            {
                "data": "-2:116789:0",
                "leaf": "subtitle",
                "type": "Leaf"
            },
            {
                "data": "-2:107045:0",
                "leaf": "subtitle",
                "type": "Leaf"
            },
            {
                "data": "-2:19481:0",
                "leaf": "subtitle",
                "type": "Leaf"
            },
            {
                "data": "-2:17469:0",
                "leaf": "subtitle",
                "type": "Leaf"
            },
            {
                "data": "-2:105240:0",
                "leaf": "subtitle",
                "type": "Leaf"
            },
            {
                "data": "-2:23249:0",
                "leaf": "subtitle",
                "type": "Leaf"
            },
            {
                "data": "-2:110578:0",
                "leaf": "subtitle",
                "type": "Leaf"
            },
            {
                "data": "-2:79011:0",
                "leaf": "subtitle",
                "type": "Leaf"
            },
            {
                "data": "-2:105360:0",
                "leaf": "subtitle",
                "type": "Leaf"
            },
            {
                "data": "-2:18109:0",
                "leaf": "subtitle",
                "type": "Leaf"
            },
            {
                "data": "-2:63475:0",
                "leaf": "subtitle",
                "type": "Leaf"
            },
            {
                "data": "-2:25079:0",
                "leaf": "subtitle",
                "type": "Leaf"
            },
            {
                "data": "-2:117233:0",
                "leaf": "subtitle",
                "type": "Leaf"
            },
            {
                "data": "-2:109454:0",
                "leaf": "subtitle",
                "type": "Leaf"
            },
            {
                "data": "-2:22147:0",
                "leaf": "subtitle",
                "type": "Leaf"
            },
            {
                "data": "-2:102271:0",
                "leaf": "subtitle",
                "type": "Leaf"
            },
            {
                "data": "-2:92819:0",
                "leaf": "subtitle",
                "type": "Leaf"
            },
            {
                "data": "-2:27790:0",
                "leaf": "subtitle",
                "type": "Leaf"
            },
            {
                "data": "-2:46190:0",
                "leaf": "subtitle",
                "type": "Leaf"
            },
            {
                "data": "-2:17599:0",
                "leaf": "subtitle",
                "type": "Leaf"
            },
            {
                "data": "-2:105316:0",
                "leaf": "subtitle",
                "type": "Leaf"
            },
            {
                "data": "-2:63155:0",
                "leaf": "subtitle",
                "type": "Leaf"
            },
            {
                "data": "-2:25004:0",
                "leaf": "subtitle",
                "type": "Leaf"
            },
            {
                "data": "-2:117023:0",
                "leaf": "subtitle",
                "type": "Leaf"
            },
            {
                "data": "-2:109316:0",
                "leaf": "subtitle",
                "type": "Leaf"
            },
            {
                "data": "-2:21752:0",
                "leaf": "subtitle",
                "type": "Leaf"
            },
            {
                "data": "-2:67990:0",
                "leaf": "subtitle",
                "type": "Leaf"
            },
            {
                "data": "-2:116678:0",
                "leaf": "subtitle",
                "type": "Leaf"
            },
            {
                "data": "-2:24629:0",
                "leaf": "subtitle",
                "type": "Leaf"
            },
            {
                "data": "-2:17334:0",
                "leaf": "subtitle",
                "type": "Leaf"
            },
            {
                "data": "-2:105197:0",
                "leaf": "subtitle",
                "type": "Leaf"
            },
            {
                "data": "-2:23379:0",
                "leaf": "subtitle",
                "type": "Leaf"
            },
            {
                "data": "-2:110722:0",
                "leaf": "subtitle",
                "type": "Leaf"
            },
            {
                "data": "-2:78602:0",
                "leaf": "subtitle",
                "type": "Leaf"
            },
            {
                "data": "-2:79120:0",
                "leaf": "subtitle",
                "type": "Leaf"
            },
            {
                "data": "-2:83922:0",
                "leaf": "subtitle",
                "type": "Leaf"
            },
            {
                "data": "-2:64784:0",
                "leaf": "subtitle",
                "type": "Leaf"
            },
            {
                "data": "-2:65071:0",
                "leaf": "subtitle",
                "type": "Leaf"
            },
            {
                "data": "-2:64423:0",
                "leaf": "subtitle",
                "type": "Leaf"
            },
            {
                "data": "-2:110439:0",
                "leaf": "subtitle",
                "type": "Leaf"
            },
            {
                "data": "-2:23132:0",
                "leaf": "subtitle",
                "type": "Leaf"
            },
            {
                "data": "-2:64969:0",
                "leaf": "subtitle",
                "type": "Leaf"
            },
            {
                "data": "-2:83806:0",
                "leaf": "subtitle",
                "type": "Leaf"
            },
            {
                "data": "-2:105993:0",
                "leaf": "subtitle",
                "type": "Leaf"
            },
            {
                "data": "-2:19103:0",
                "leaf": "subtitle",
                "type": "Leaf"
            },
            {
                "data": "-2:24004:0",
                "leaf": "subtitle",
                "type": "Leaf"
            },
            {
                "data": "-2:115973:0",
                "leaf": "subtitle",
                "type": "Leaf"
            },
            {
                "data": "-2:105413:0",
                "leaf": "subtitle",
                "type": "Leaf"
            },
            {
                "data": "-2:18343:0",
                "leaf": "subtitle",
                "type": "Leaf"
            },
            {
                "data": "-2:63013:0",
                "leaf": "subtitle",
                "type": "Leaf"
            },
            {
                "data": "-2:109257:0",
                "leaf": "subtitle",
                "type": "Leaf"
            },
            {
                "data": "-2:21590:0",
                "leaf": "subtitle",
                "type": "Leaf"
            },
            {
                "data": "-2:66109:0",
                "leaf": "subtitle",
                "type": "Leaf"
            },
            {
                "data": "-2:88080:0",
                "leaf": "subtitle",
                "type": "Leaf"
            },
            {
                "data": "-2:93232:0",
                "leaf": "subtitle",
                "type": "Leaf"
            },
            {
                "data": "-2:61692:0",
                "leaf": "subtitle",
                "type": "Leaf"
            },
            {
                "data": "-2:107667:0",
                "leaf": "subtitle",
                "type": "Leaf"
            },
            {
                "data": "-2:20172:0",
                "leaf": "subtitle",
                "type": "Leaf"
            },
            {
                "data": "-2:64552:0",
                "leaf": "subtitle",
                "type": "Leaf"
            },
            {
                "data": "-2:83520:0",
                "leaf": "subtitle",
                "type": "Leaf"
            },
            {
                "data": "-2:78865:0",
                "leaf": "subtitle",
                "type": "Leaf"
            },
            {
                "data": "-2:64220:0",
                "leaf": "subtitle",
                "type": "Leaf"
            },
            {
                "data": "-2:110165:0",
                "leaf": "subtitle",
                "type": "Leaf"
            },
            {
                "data": "-2:22948:0",
                "leaf": "subtitle",
                "type": "Leaf"
            },
            {
                "data": "-2:25345:0",
                "leaf": "subtitle",
                "type": "Leaf"
            },
            {
                "data": "-2:117527:0",
                "leaf": "subtitle",
                "type": "Leaf"
            },
            {
                "data": "-2:62811:0",
                "leaf": "subtitle",
                "type": "Leaf"
            },
            {
                "data": "-2:109169:0",
                "leaf": "subtitle",
                "type": "Leaf"
            },
            {
                "data": "-2:21511:0",
                "leaf": "subtitle",
                "type": "Leaf"
            },
            {
                "data": "-2:28046:0",
                "leaf": "subtitle",
                "type": "Leaf"
            },
            {
                "data": "-2:27524:0",
                "leaf": "subtitle",
                "type": "Leaf"
            },
            {
                "data": "-2:27855:0",
                "leaf": "subtitle",
                "type": "Leaf"
            },
            {
                "data": "-2:78265:0",
                "leaf": "subtitle",
                "type": "Leaf"
            },
            {
                "data": "-2:49944:0",
                "leaf": "subtitle",
                "type": "Leaf"
            },
            {
                "data": "-2:93049:0",
                "leaf": "subtitle",
                "type": "Leaf"
            },
            {
                "data": "-2:92925:0",
                "leaf": "subtitle",
                "type": "Leaf"
            },
            {
                "data": "-2:92737:0",
                "leaf": "subtitle",
                "type": "Leaf"
            },
            {
                "data": "-2:92024:0",
                "leaf": "subtitle",
                "type": "Leaf"
            },
            {
                "data": "-2:78664:0",
                "leaf": "subtitle",
                "type": "Leaf"
            },
            {
                "data": "-2:84045:0",
                "leaf": "subtitle",
                "type": "Leaf"
            },
            {
                "data": "-2:78772:0",
                "leaf": "subtitle",
                "type": "Leaf"
            },
            {
                "data": "-2:78817:0",
                "leaf": "subtitle",
                "type": "Leaf"
            },
            {
                "data": "-2:65191:0",
                "leaf": "subtitle",
                "type": "Leaf"
            },
            {
                "data": "-2:65334:0",
                "leaf": "subtitle",
                "type": "Leaf"
            },
            {
                "data": "-2:17263:0",
                "leaf": "subtitle",
                "type": "Leaf"
            },
            {
                "data": "-2:104920:0",
                "leaf": "subtitle",
                "type": "Leaf"
            },
            {
                "data": "-2:23918:0",
                "leaf": "subtitle",
                "type": "Leaf"
            },
            {
                "data": "-2:115867:0",
                "leaf": "subtitle",
                "type": "Leaf"
            },
            {
                "data": "-2:105869:0",
                "leaf": "subtitle",
                "type": "Leaf"
            },
            {
                "data": "-2:18954:0",
                "leaf": "subtitle",
                "type": "Leaf"
            },
            {
                "data": "-2:24480:0",
                "leaf": "subtitle",
                "type": "Leaf"
            },
            {
                "data": "-2:116466:0",
                "leaf": "subtitle",
                "type": "Leaf"
            },
            {
                "data": "-2:23458:0",
                "leaf": "subtitle",
                "type": "Leaf"
            },
            {
                "data": "-2:111125:0",
                "leaf": "subtitle",
                "type": "Leaf"
            },
            {
                "data": "-2:54724:0",
                "leaf": "subtitle",
                "type": "Leaf"
            },
            {
                "data": "-2:17129:0",
                "leaf": "subtitle",
                "type": "Leaf"
            },
            {
                "data": "-2:104855:0",
                "leaf": "subtitle",
                "type": "Leaf"
            },
            {
                "data": "-2:27737:0",
                "leaf": "subtitle",
                "type": "Leaf"
            },
            {
                "data": "-2:23819:0",
                "leaf": "subtitle",
                "type": "Leaf"
            },
            {
                "data": "-2:115758:0",
                "leaf": "subtitle",
                "type": "Leaf"
            },
            {
                "data": "-2:105831:0",
                "leaf": "subtitle",
                "type": "Leaf"
            },
            {
                "data": "-2:18895:0",
                "leaf": "subtitle",
                "type": "Leaf"
            },
            {
                "data": "-2:19895:0",
                "leaf": "subtitle",
                "type": "Leaf"
            },
            {
                "data": "-2:107382:0",
                "leaf": "subtitle",
                "type": "Leaf"
            },
            {
                "data": "-2:24391:0",
                "leaf": "subtitle",
                "type": "Leaf"
            },
            {
                "data": "-2:116370:0",
                "leaf": "subtitle",
                "type": "Leaf"
            },
            {
                "data": "-2:23510:0",
                "leaf": "subtitle",
                "type": "Leaf"
            },
            {
                "data": "-2:111222:0",
                "leaf": "subtitle",
                "type": "Leaf"
            },
            {
                "data": "-2:28203:0",
                "leaf": "subtitle",
                "type": "Leaf"
            },
            {
                "data": "-2:18485:0",
                "leaf": "subtitle",
                "type": "Leaf"
            },
            {
                "data": "-2:105479:0",
                "leaf": "subtitle",
                "type": "Leaf"
            },
            {
                "data": "-2:27486:0",
                "leaf": "subtitle",
                "type": "Leaf"
            },
            {
                "data": "-2:23549:0",
                "leaf": "subtitle",
                "type": "Leaf"
            },
            {
                "data": "-2:113035:0",
                "leaf": "subtitle",
                "type": "Leaf"
            },
            {
                "data": "-2:19418:0",
                "leaf": "subtitle",
                "type": "Leaf"
            },
            {
                "data": "-2:106967:0",
                "leaf": "subtitle",
                "type": "Leaf"
            },
            {
                "data": "-2:24120:0",
                "leaf": "subtitle",
                "type": "Leaf"
            },
            {
                "data": "-2:116034:0",
                "leaf": "subtitle",
                "type": "Leaf"
            },
            {
                "data": "-2:18604:0",
                "leaf": "subtitle",
                "type": "Leaf"
            },
            {
                "data": "-2:105536:0",
                "leaf": "subtitle",
                "type": "Leaf"
            },
            {
                "data": "-2:23631:0",
                "leaf": "subtitle",
                "type": "Leaf"
            },
            {
                "data": "-2:114250:0",
                "leaf": "subtitle",
                "type": "Leaf"
            },
            {
                "data": "-2:24221:0",
                "leaf": "subtitle",
                "type": "Leaf"
            },
            {
                "data": "-2:116177:0",
                "leaf": "subtitle",
                "type": "Leaf"
            },
            {
                "data": "-2:18742:0",
                "leaf": "subtitle",
                "type": "Leaf"
            },
            {
                "data": "-2:105785:0",
                "leaf": "subtitle",
                "type": "Leaf"
            },
            {
                "data": "-2:27631:0",
                "leaf": "subtitle",
                "type": "Leaf"
            },
            {
                "data": "-2:23735:0",
                "leaf": "subtitle",
                "type": "Leaf"
            },
            {
                "data": "-2:115725:0",
                "leaf": "subtitle",
                "type": "Leaf"
            },
            {
                "data": "-2:19836:0",
                "leaf": "subtitle",
                "type": "Leaf"
            },
            {
                "data": "-2:107335:0",
                "leaf": "subtitle",
                "type": "Leaf"
            },
            {
                "data": "-2:24331:0",
                "leaf": "subtitle",
                "type": "Leaf"
            },
            {
                "data": "-2:116292:0",
                "leaf": "subtitle",
                "type": "Leaf"
            },
            {
                "data": "-2:28250:0",
                "leaf": "subtitle",
                "type": "Leaf"
            },
            {
                "data": "-2:25707:0",
                "leaf": "subtitle",
                "type": "Leaf"
            },
            {
                "data": "-2:119304:0",
                "leaf": "subtitle",
                "type": "Leaf"
            },
            {
                "data": "-2:28362:0",
                "leaf": "subtitle",
                "type": "Leaf"
            },
            {
                "data": "-2:25814:0",
                "leaf": "subtitle",
                "type": "Leaf"
            },
            {
                "data": "-2:119461:0",
                "leaf": "subtitle",
                "type": "Leaf"
            },
            {
                "data": "-2:28437:0",
                "leaf": "subtitle",
                "type": "Leaf"
            },
            {
                "data": "-2:27278:0",
                "leaf": "subtitle",
                "type": "Leaf"
            },
            {
                "data": "-2:45485:0",
                "leaf": "subtitle",
                "type": "Leaf"
            },
            {
                "data": "-2:94153:0",
                "leaf": "subtitle",
                "type": "Leaf"
            },
            {
                "data": "-2:27433:0",
                "leaf": "subtitle",
                "type": "Leaf"
            },
            {
                "data": "-2:50134:0",
                "leaf": "subtitle",
                "type": "Leaf"
            },
            {
                "data": "-2:29804:0",
                "leaf": "subtitle",
                "type": "Leaf"
            },
            {
                "data": "-2:26146:0",
                "leaf": "subtitle",
                "type": "Leaf"
            },
            {
                "data": "-2:120062:0",
                "leaf": "subtitle",
                "type": "Leaf"
            },
            {
                "data": "-2:40815:0",
                "leaf": "subtitle",
                "type": "Leaf"
            },
            {
                "data": "-2:82018:0",
                "leaf": "subtitle",
                "type": "Leaf"
            },
            {
                "data": "-2:40894:0",
                "leaf": "subtitle",
                "type": "Leaf"
            },
            {
                "data": "-2:82116:0",
                "leaf": "subtitle",
                "type": "Leaf"
            },
            {
                "data": "-2:40979:0",
                "leaf": "subtitle",
                "type": "Leaf"
            },
            {
                "data": "-2:82150:0",
                "leaf": "subtitle",
                "type": "Leaf"
            },
            {
                "data": "-2:41057:0",
                "leaf": "subtitle",
                "type": "Leaf"
            },
            {
                "data": "-2:82264:0",
                "leaf": "subtitle",
                "type": "Leaf"
            },
            {
                "data": "-2:41110:0",
                "leaf": "subtitle",
                "type": "Leaf"
            },
            {
                "data": "-2:82294:0",
                "leaf": "subtitle",
                "type": "Leaf"
            },
            {
                "data": "-2:41174:0",
                "leaf": "subtitle",
                "type": "Leaf"
            },
            {
                "data": "-2:82454:0",
                "leaf": "subtitle",
                "type": "Leaf"
            },
            {
                "data": "-2:41555:0",
                "leaf": "subtitle",
                "type": "Leaf"
            },
            {
                "data": "-2:41215:0",
                "leaf": "subtitle",
                "type": "Leaf"
            },
            {
                "data": "-2:82518:0",
                "leaf": "subtitle",
                "type": "Leaf"
            },
            {
                "data": "-2:41658:0",
                "leaf": "subtitle",
                "type": "Leaf"
            },
            {
                "data": "-2:41379:0",
                "leaf": "subtitle",
                "type": "Leaf"
            },
            {
                "data": "-2:82621:0",
                "leaf": "subtitle",
                "type": "Leaf"
            },
            {
                "data": "-2:41718:0",
                "leaf": "subtitle",
                "type": "Leaf"
            },
            {
                "data": "-2:41437:0",
                "leaf": "subtitle",
                "type": "Leaf"
            },
            {
                "data": "-2:82778:0",
                "leaf": "subtitle",
                "type": "Leaf"
            },
            {
                "data": "-2:41773:0",
                "leaf": "subtitle",
                "type": "Leaf"
            },
            {
                "data": "-2:41808:0",
                "leaf": "subtitle",
                "type": "Leaf"
            },
            {
                "data": "-2:96868:0",
                "leaf": "subtitle",
                "type": "Leaf"
            },
            {
                "data": "-2:42899:0",
                "leaf": "subtitle",
                "type": "Leaf"
            },
            {
                "data": "-2:26280:0",
                "leaf": "subtitle",
                "type": "Leaf"
            },
            {
                "data": "-2:121124:0",
                "leaf": "subtitle",
                "type": "Leaf"
            },
            {
                "data": "-2:42287:0",
                "leaf": "subtitle",
                "type": "Leaf"
            },
            {
                "data": "-2:97013:0",
                "leaf": "subtitle",
                "type": "Leaf"
            },
            {
                "data": "-2:41915:0",
                "leaf": "subtitle",
                "type": "Leaf"
            },
            {
                "data": "-2:43003:0",
                "leaf": "subtitle",
                "type": "Leaf"
            },
            {
                "data": "-2:26519:0",
                "leaf": "subtitle",
                "type": "Leaf"
            },
            {
                "data": "-2:121425:0",
                "leaf": "subtitle",
                "type": "Leaf"
            },
            {
                "data": "-2:42329:0",
                "leaf": "subtitle",
                "type": "Leaf"
            },
            {
                "data": "-2:97056:0",
                "leaf": "subtitle",
                "type": "Leaf"
            },
            {
                "data": "-2:41986:0",
                "leaf": "subtitle",
                "type": "Leaf"
            },
            {
                "data": "-2:48408:0",
                "leaf": "subtitle",
                "type": "Leaf"
            },
            {
                "data": "-2:42607:0",
                "leaf": "subtitle",
                "type": "Leaf"
            },
            {
                "data": "-2:25969:0",
                "leaf": "subtitle",
                "type": "Leaf"
            },
            {
                "data": "-2:119906:0",
                "leaf": "subtitle",
                "type": "Leaf"
            },
            {
                "data": "-2:47849:0",
                "leaf": "subtitle",
                "type": "Leaf"
            },
            {
                "data": "-2:42422:0",
                "leaf": "subtitle",
                "type": "Leaf"
            },
            {
                "data": "-2:25882:0",
                "leaf": "subtitle",
                "type": "Leaf"
            },
            {
                "data": "-2:119603:0",
                "leaf": "subtitle",
                "type": "Leaf"
            },
            {
                "data": "-2:97123:0",
                "leaf": "subtitle",
                "type": "Leaf"
            },
            {
                "data": "-2:42068:0",
                "leaf": "subtitle",
                "type": "Leaf"
            },
            {
                "data": "-2:42809:0",
                "leaf": "subtitle",
                "type": "Leaf"
            },
            {
                "data": "-2:26186:0",
                "leaf": "subtitle",
                "type": "Leaf"
            },
            {
                "data": "-2:120215:0",
                "leaf": "subtitle",
                "type": "Leaf"
            },
            {
                "data": "-2:48500:0",
                "leaf": "subtitle",
                "type": "Leaf"
            },
            {
                "data": "-2:43256:0",
                "leaf": "subtitle",
                "type": "Leaf"
            },
            {
                "data": "-2:26577:0",
                "leaf": "subtitle",
                "type": "Leaf"
            },
            {
                "data": "-2:121729:0",
                "leaf": "subtitle",
                "type": "Leaf"
            },
            {
                "data": "-2:46810:0",
                "leaf": "subtitle",
                "type": "Leaf"
            },
            {
                "data": "-2:96608:0",
                "leaf": "subtitle",
                "type": "Leaf"
            },
            {
                "data": "-2:42730:0",
                "leaf": "subtitle",
                "type": "Leaf"
            },
            {
                "data": "-2:47370:0",
                "leaf": "subtitle",
                "type": "Leaf"
            },
            {
                "data": "-2:43326:0",
                "leaf": "subtitle",
                "type": "Leaf"
            },
            {
                "data": "-2:26648:0",
                "leaf": "subtitle",
                "type": "Leaf"
            },
            {
                "data": "-2:121883:0",
                "leaf": "subtitle",
                "type": "Leaf"
            },
            {
                "data": "-2:42141:0",
                "leaf": "subtitle",
                "type": "Leaf"
            },
            {
                "data": "-2:81946:0",
                "leaf": "subtitle",
                "type": "Leaf"
            },
            {
                "data": "-2:40713:0",
                "leaf": "subtitle",
                "type": "Leaf"
            },
            {
                "data": "-2:81882:0",
                "leaf": "subtitle",
                "type": "Leaf"
            },
            {
                "data": "-2:40642:0",
                "leaf": "subtitle",
                "type": "Leaf"
            },
            {
                "data": "-2:49185:0",
                "leaf": "subtitle",
                "type": "Leaf"
            },
            {
                "data": "-2:97640:0",
                "leaf": "subtitle",
                "type": "Leaf"
            },
            {
                "data": "-2:28529:0",
                "leaf": "subtitle",
                "type": "Leaf"
            },
            {
                "data": "-2:54008:0",
                "leaf": "subtitle",
                "type": "Leaf"
            },
            {
                "data": "-2:28925:0",
                "leaf": "subtitle",
                "type": "Leaf"
            },
            {
                "data": "-2:49241:0",
                "leaf": "subtitle",
                "type": "Leaf"
            },
            {
                "data": "-2:97805:0",
                "leaf": "subtitle",
                "type": "Leaf"
            },
            {
                "data": "-2:28688:0",
                "leaf": "subtitle",
                "type": "Leaf"
            },
            {
                "data": "-2:54137:0",
                "leaf": "subtitle",
                "type": "Leaf"
            },
            {
                "data": "-2:49630:0",
                "leaf": "subtitle",
                "type": "Leaf"
            },
            {
                "data": "-2:97918:0",
                "leaf": "subtitle",
                "type": "Leaf"
            },
            {
                "data": "-2:28757:0",
                "leaf": "subtitle",
                "type": "Leaf"
            },
            {
                "data": "-2:54288:0",
                "leaf": "subtitle",
                "type": "Leaf"
            },
            {
                "data": "-2:29059:0",
                "leaf": "subtitle",
                "type": "Leaf"
            },
            {
                "data": "-2:49699:0",
                "leaf": "subtitle",
                "type": "Leaf"
            },
            {
                "data": "-2:98045:0",
                "leaf": "subtitle",
                "type": "Leaf"
            },
            {
                "data": "-2:28839:0",
                "leaf": "subtitle",
                "type": "Leaf"
            },
            {
                "data": "-2:54365:0",
                "leaf": "subtitle",
                "type": "Leaf"
            },
            {
                "data": "-2:98295:0",
                "leaf": "subtitle",
                "type": "Leaf"
            },
            {
                "data": "-2:49809:0",
                "leaf": "subtitle",
                "type": "Leaf"
            },
            {
                "data": "-2:29122:0",
                "leaf": "subtitle",
                "type": "Leaf"
            },
            {
                "data": "-2:54426:0",
                "leaf": "subtitle",
                "type": "Leaf"
            },
            {
                "data": "-2:98400:0",
                "leaf": "subtitle",
                "type": "Leaf"
            },
            {
                "data": "-2:49860:0",
                "leaf": "subtitle",
                "type": "Leaf"
            },
            {
                "data": "-2:29231:0",
                "leaf": "subtitle",
                "type": "Leaf"
            },
            {
                "data": "-2:122028:0",
                "leaf": "subtitle",
                "type": "Leaf"
            },
            {
                "data": "-2:26732:0",
                "leaf": "subtitle",
                "type": "Leaf"
            },
            {
                "data": "-2:54491:0",
                "leaf": "subtitle",
                "type": "Leaf"
            },
            {
                "data": "-2:28987:0",
                "leaf": "subtitle",
                "type": "Leaf"
            },
            {
                "data": "-2:29493:0",
                "leaf": "subtitle",
                "type": "Leaf"
            },
            {
                "data": "-2:27060:0",
                "leaf": "subtitle",
                "type": "Leaf"
            },
            {
                "data": "-2:29611:0",
                "leaf": "subtitle",
                "type": "Leaf"
            },
            {
                "data": "-2:27254:0",
                "leaf": "subtitle",
                "type": "Leaf"
            },
            {
                "data": "-2:29771:0",
                "leaf": "subtitle",
                "type": "Leaf"
            },
            {
                "data": "-2:27401:0",
                "leaf": "subtitle",
                "type": "Leaf"
            },
            {
                "data": "-2:50040:0",
                "leaf": "subtitle",
                "type": "Leaf"
            },
            {
                "data": "-2:94101:0",
                "leaf": "subtitle",
                "type": "Leaf"
            },
            {
                "data": "-2:45432:0",
                "leaf": "subtitle",
                "type": "Leaf"
            },
            {
                "data": "-2:94285:0",
                "leaf": "subtitle",
                "type": "Leaf"
            },
            {
                "data": "-2:45546:0",
                "leaf": "subtitle",
                "type": "Leaf"
            },
            {
                "data": "-2:94237:0",
                "leaf": "subtitle",
                "type": "Leaf"
            },
            {
                "data": "-2:44997:0",
                "leaf": "subtitle",
                "type": "Leaf"
            },
            {
                "data": "-2:44937:0",
                "leaf": "subtitle",
                "type": "Leaf"
            },
            {
                "data": "-2:44812:0",
                "leaf": "subtitle",
                "type": "Leaf"
            },
            {
                "data": "-2:45101:0",
                "leaf": "subtitle",
                "type": "Leaf"
            },
            {
                "data": "-2:93946:0",
                "leaf": "subtitle",
                "type": "Leaf"
            },
            {
                "data": "-2:44756:0",
                "leaf": "subtitle",
                "type": "Leaf"
            },
            {
                "data": "-2:44702:0",
                "leaf": "subtitle",
                "type": "Leaf"
            },
            {
                "data": "-2:44591:0",
                "leaf": "subtitle",
                "type": "Leaf"
            },
            {
                "data": "-2:26919:0",
                "leaf": "subtitle",
                "type": "Leaf"
            },
            {
                "data": "-2:44509:0",
                "leaf": "subtitle",
                "type": "Leaf"
            },
            {
                "data": "-2:26874:0",
                "leaf": "subtitle",
                "type": "Leaf"
            },
            {
                "data": "-2:44444:0",
                "leaf": "subtitle",
                "type": "Leaf"
            },
            {
                "data": "-2:81237:0",
                "leaf": "subtitle",
                "type": "Leaf"
            },
            {
                "data": "-2:40582:0",
                "leaf": "subtitle",
                "type": "Leaf"
            },
            {
                "data": "-2:80761:0",
                "leaf": "subtitle",
                "type": "Leaf"
            },
            {
                "data": "-2:40447:0",
                "leaf": "subtitle",
                "type": "Leaf"
            },
            {
                "data": "-2:80680:0",
                "leaf": "subtitle",
                "type": "Leaf"
            },
            {
                "data": "-2:40363:0",
                "leaf": "subtitle",
                "type": "Leaf"
            },
            {
                "data": "-2:39848:0",
                "leaf": "subtitle",
                "type": "Leaf"
            },
            {
                "data": "-2:39752:0",
                "leaf": "subtitle",
                "type": "Leaf"
            },
            {
                "data": "-2:39680:0",
                "leaf": "subtitle",
                "type": "Leaf"
            },
            {
                "data": "-2:39088:0",
                "leaf": "subtitle",
                "type": "Leaf"
            },
            {
                "data": "-2:39032:0",
                "leaf": "subtitle",
                "type": "Leaf"
            },
            {
                "data": "-2:38565:0",
                "leaf": "subtitle",
                "type": "Leaf"
            },
            {
                "data": "-2:38426:0",
                "leaf": "subtitle",
                "type": "Leaf"
            },
            {
                "data": "-2:49968:0",
                "leaf": "subtitle",
                "type": "Leaf"
            },
            {
                "data": "-2:29902:0",
                "leaf": "subtitle",
                "type": "Leaf"
            },
            {
                "data": "-2:72728:0",
                "leaf": "subtitle",
                "type": "Leaf"
            },
            {
                "data": "-2:102296:0",
                "leaf": "subtitle",
                "type": "Leaf"
            },
            {
                "data": "-2:50175:0",
                "leaf": "subtitle",
                "type": "Leaf"
            },
            {
                "data": "-2:29995:0",
                "leaf": "subtitle",
                "type": "Leaf"
            },
            {
                "data": "-2:72842:0",
                "leaf": "subtitle",
                "type": "Leaf"
            },
            {
                "data": "-2:102443:0",
                "leaf": "subtitle",
                "type": "Leaf"
            },
            {
                "data": "-2:50242:0",
                "leaf": "subtitle",
                "type": "Leaf"
            },
            {
                "data": "-2:30121:0",
                "leaf": "subtitle",
                "type": "Leaf"
            },
            {
                "data": "-2:72905:0",
                "leaf": "subtitle",
                "type": "Leaf"
            },
            {
                "data": "-2:102489:0",
                "leaf": "subtitle",
                "type": "Leaf"
            },
            {
                "data": "-2:50309:0",
                "leaf": "subtitle",
                "type": "Leaf"
            },
            {
                "data": "-2:30256:0",
                "leaf": "subtitle",
                "type": "Leaf"
            },
            {
                "data": "-2:72929:0",
                "leaf": "subtitle",
                "type": "Leaf"
            },
            {
                "data": "-2:102583:0",
                "leaf": "subtitle",
                "type": "Leaf"
            },
            {
                "data": "-2:50424:0",
                "leaf": "subtitle",
                "type": "Leaf"
            },
            {
                "data": "-2:30317:0",
                "leaf": "subtitle",
                "type": "Leaf"
            },
            {
                "data": "-2:72983:0",
                "leaf": "subtitle",
                "type": "Leaf"
            },
            {
                "data": "-2:102669:0",
                "leaf": "subtitle",
                "type": "Leaf"
            },
            {
                "data": "-2:50665:0",
                "leaf": "subtitle",
                "type": "Leaf"
            },
            {
                "data": "-2:30575:0",
                "leaf": "subtitle",
                "type": "Leaf"
            },
            {
                "data": "-2:73246:0",
                "leaf": "subtitle",
                "type": "Leaf"
            },
            {
                "data": "-2:103005:0",
                "leaf": "subtitle",
                "type": "Leaf"
            },
            {
                "data": "-2:51345:0",
                "leaf": "subtitle",
                "type": "Leaf"
            },
            {
                "data": "-2:58096:0",
                "leaf": "subtitle",
                "type": "Leaf"
            },
            {
                "data": "-2:30433:0",
                "leaf": "subtitle",
                "type": "Leaf"
            },
            {
                "data": "-2:73063:0",
                "leaf": "subtitle",
                "type": "Leaf"
            },
            {
                "data": "-2:102808:0",
                "leaf": "subtitle",
                "type": "Leaf"
            },
            {
                "data": "-2:51125:0",
                "leaf": "subtitle",
                "type": "Leaf"
            },
            {
                "data": "-2:30672:0",
                "leaf": "subtitle",
                "type": "Leaf"
            },
            {
                "data": "-2:73298:0",
                "leaf": "subtitle",
                "type": "Leaf"
            },
            {
                "data": "-2:103040:0",
                "leaf": "subtitle",
                "type": "Leaf"
            },
            {
                "data": "-2:51387:0",
                "leaf": "subtitle",
                "type": "Leaf"
            },
            {
                "data": "-2:58310:0",
                "leaf": "subtitle",
                "type": "Leaf"
            },
            {
                "data": "-2:30510:0",
                "leaf": "subtitle",
                "type": "Leaf"
            },
            {
                "data": "-2:73111:0",
                "leaf": "subtitle",
                "type": "Leaf"
            },
            {
                "data": "-2:102936:0",
                "leaf": "subtitle",
                "type": "Leaf"
            },
            {
                "data": "-2:51260:0",
                "leaf": "subtitle",
                "type": "Leaf"
            },
            {
                "data": "-2:30756:0",
                "leaf": "subtitle",
                "type": "Leaf"
            },
            {
                "data": "-2:73402:0",
                "leaf": "subtitle",
                "type": "Leaf"
            },
            {
                "data": "-2:103082:0",
                "leaf": "subtitle",
                "type": "Leaf"
            },
            {
                "data": "-2:51706:0",
                "leaf": "subtitle",
                "type": "Leaf"
            },
            {
                "data": "-2:58540:0",
                "leaf": "subtitle",
                "type": "Leaf"
            },
            {
                "data": "-2:30834:0",
                "leaf": "subtitle",
                "type": "Leaf"
            }
        ],
        "type": "Normal"
    },
    {
        "children": [
            {
                "data": "2:11918:-1",
                "leaf": "clip",
                "type": "Leaf"
            },
            {
                "data": "1:11913:-1",
                "leaf": "clip",
                "type": "Leaf"
            }
        ],
        "type": "Normal"
    },
    {
        "children": [
            {
                "data": "-2:12898:0",
                "leaf": "subtitle",
                "type": "Leaf"
            },
            {
                "data": "-2:12765:0",
                "leaf": "subtitle",
                "type": "Leaf"
            },
            {
                "data": "-2:12597:0",
                "leaf": "subtitle",
                "type": "Leaf"
            },
            {
                "data": "2:12212:-1",
                "leaf": "clip",
                "type": "Leaf"
            },
            {
                "data": "-2:12679:0",
                "leaf": "subtitle",
                "type": "Leaf"
            },
            {
                "data": "1:12207:-1",
                "leaf": "clip",
                "type": "Leaf"
            }
        ],
        "type": "Normal"
    },
    {
        "children": [
            {
                "data": "2:12978:-1",
                "leaf": "clip",
                "type": "Leaf"
            },
            {
                "data": "-2:13007:0",
                "leaf": "subtitle",
                "type": "Leaf"
            },
            {
                "data": "1:12973:-1",
                "leaf": "clip",
                "type": "Leaf"
            }
        ],
        "type": "Normal"
    },
    {
        "children": [
            {
                "data": "2:13441:-1",
                "leaf": "clip",
                "type": "Leaf"
            },
            {
                "data": "1:13441:-1",
                "leaf": "clip",
                "type": "Leaf"
            },
            {
                "data": "-2:14294:0",
                "leaf": "subtitle",
                "type": "Leaf"
            },
            {
                "data": "-2:14375:0",
                "leaf": "subtitle",
                "type": "Leaf"
            }
        ],
        "type": "Normal"
    },
    {
        "children": [
            {
                "data": "1:14404:-1",
                "leaf": "clip",
                "type": "Leaf"
            },
            {
                "data": "2:14438:-1",
                "leaf": "clip",
                "type": "Leaf"
            }
        ],
        "type": "Normal"
    },
    {
        "children": [
            {
                "data": "-2:14519:0",
                "leaf": "subtitle",
                "type": "Leaf"
            },
            {
                "data": "-2:14556:0",
                "leaf": "subtitle",
                "type": "Leaf"
            },
            {
                "data": "2:14506:-1",
                "leaf": "clip",
                "type": "Leaf"
            },
            {
                "data": "1:14501:-1",
                "leaf": "clip",
                "type": "Leaf"
            }
        ],
        "type": "Normal"
    },
    {
        "children": [
            {
                "data": "-2:15886:0",
                "leaf": "subtitle",
                "type": "Leaf"
            },
            {
                "data": "-2:15716:0",
                "leaf": "subtitle",
                "type": "Leaf"
            },
            {
                "data": "-2:14664:0",
                "leaf": "subtitle",
                "type": "Leaf"
            },
            {
                "data": "-2:14939:0",
                "leaf": "subtitle",
                "type": "Leaf"
            },
            {
                "data": "-2:15206:0",
                "leaf": "subtitle",
                "type": "Leaf"
            },
            {
                "data": "-2:15347:0",
                "leaf": "subtitle",
                "type": "Leaf"
            },
            {
                "data": "-2:14849:0",
                "leaf": "subtitle",
                "type": "Leaf"
            },
            {
                "data": "1:14649:-1",
                "leaf": "clip",
                "type": "Leaf"
            },
            {
                "data": "2:14654:-1",
                "leaf": "clip",
                "type": "Leaf"
            }
        ],
        "type": "Normal"
    },
    {
        "children": [
            {
                "data": "2:16247:-1",
                "leaf": "clip",
                "type": "Leaf"
            },
            {
                "data": "1:16242:-1",
                "leaf": "clip",
                "type": "Leaf"
            }
        ],
        "type": "Normal"
    }
]
</property>
  <property name="kdenlive:sequenceproperties.guides">[
]
</property>
  <track producer="producer0"/>
  <track producer="tractor0"/>
  <track producer="tractor1"/>
  <track producer="tractor2"/>
  <track producer="tractor3"/>
  <transition id="transition10">
   <property name="a_track">0</property>
   <property name="b_track">1</property>
   <property name="mlt_service">mix</property>
   <property name="kdenlive_id">mix</property>
   <property name="internal_added">237</property>
   <property name="always_active">1</property>
   <property name="accepts_blanks">1</property>
   <property name="sum">1</property>
  </transition>
  <transition id="transition11">
   <property name="a_track">0</property>
   <property name="b_track">2</property>
   <property name="mlt_service">mix</property>
   <property name="kdenlive_id">mix</property>
   <property name="internal_added">237</property>
   <property name="always_active">1</property>
   <property name="accepts_blanks">1</property>
   <property name="sum">1</property>
  </transition>
  <transition id="transition12">
   <property name="a_track">0</property>
   <property name="b_track">3</property>
   <property name="compositing">0</property>
   <property name="distort">0</property>
   <property name="rotate_center">0</property>
   <property name="mlt_service">qtblend</property>
   <property name="kdenlive_id">qtblend</property>
   <property name="internal_added">237</property>
   <property name="always_active">1</property>
  </transition>
  <transition id="transition13">
   <property name="a_track">0</property>
   <property name="b_track">4</property>
   <property name="compositing">0</property>
   <property name="distort">0</property>
   <property name="rotate_center">0</property>
   <property name="mlt_service">qtblend</property>
   <property name="kdenlive_id">qtblend</property>
   <property name="internal_added">237</property>
   <property name="always_active">1</property>
  </transition>
  <filter id="filter6">
   <property name="window">75</property>
   <property name="max_gain">20dB</property>
   <property name="mlt_service">volume</property>
   <property name="internal_added">237</property>
   <property name="disable">1</property>
  </filter>
  <filter id="filter7">
   <property name="channel">-1</property>
   <property name="mlt_service">panner</property>
   <property name="internal_added">237</property>
   <property name="start">0.5</property>
   <property name="disable">1</property>
  </filter>
  <filter id="filter8">
   <property name="mlt_service">avfilter.subtitles</property>
   <property name="av.alpha">1</property>
   <property name="internal_added">237</property>
   <property name="av.filename">Ninja Scroll (1993).kdenlive.ass</property>
  </filter>
 </tractor>
 <playlist id="main_bin">
  <property name="kdenlive:folder.-1.2">Sequences</property>
  <property name="kdenlive:sequenceFolder">2</property>
  <property name="kdenlive:docproperties.activetimeline">{1f81736c-4139-437b-9639-00d09692bbe6}</property>
  <property name="kdenlive:docproperties.audioChannels">2</property>
  <property name="kdenlive:docproperties.binsort">0</property>
  <property name="kdenlive:docproperties.browserurl">N:/Videos/General Movies/</property>
  <property name="kdenlive:docproperties.documentid">1758978332346</property>
  <property name="kdenlive:docproperties.enableTimelineZone">0</property>
  <property name="kdenlive:docproperties.enableexternalproxy">0</property>
  <property name="kdenlive:docproperties.enableproxy">1</property>
  <property name="kdenlive:docproperties.externalproxyparams">./;;.LRV;./;;.MP4</property>
  <property name="kdenlive:docproperties.generateimageproxy">0</property>
  <property name="kdenlive:docproperties.generateproxy">0</property>
  <property name="kdenlive:docproperties.guidesCategories">[
    {
        "color": "#9b59b6",
        "comment": "Category 1",
        "index": 0
    },
    {
        "color": "#3daee9",
        "comment": "Category 2",
        "index": 1
    },
    {
        "color": "#1abc9c",
        "comment": "Category 3",
        "index": 2
    },
    {
        "color": "#1cdc9a",
        "comment": "Category 4",
        "index": 3
    },
    {
        "color": "#c9ce3b",
        "comment": "Category 5",
        "index": 4
    },
    {
        "color": "#fdbc4b",
        "comment": "Category 6",
        "index": 5
    },
    {
        "color": "#f39c1f",
        "comment": "Category 7",
        "index": 6
    },
    {
        "color": "#f47750",
        "comment": "Category 8",
        "index": 7
    },
    {
        "color": "#da4453",
        "comment": "Category 9",
        "index": 8
    }
]
</property>
  <property name="kdenlive:docproperties.kdenliveversion">25.04.2</property>
  <property name="kdenlive:docproperties.opensequences">{1f81736c-4139-437b-9639-00d09692bbe6}</property>
  <property name="kdenlive:docproperties.previewextension"/>
  <property name="kdenlive:docproperties.previewparameters"/>
  <property name="kdenlive:docproperties.profile">C:/Users/kado/AppData/Roaming/kdenlive/profiles/customprofile25</property>
  <property name="kdenlive:docproperties.proxyextension">mov</property>
  <property name="kdenlive:docproperties.proxyimageminsize">2000</property>
  <property name="kdenlive:docproperties.proxyimagesize">800</property>
  <property name="kdenlive:docproperties.proxyminsize">1000</property>
  <property name="kdenlive:docproperties.proxyparams">-vf scale=%width:-2 -vsync 1 -c:v libx264 -g 1 -bf 0 -vb 0 -crf 20 -preset veryfast -c:a aac -ab 128k</property>
  <property name="kdenlive:docproperties.proxyresize">720</property>
  <property name="kdenlive:docproperties.seekOffset">30000</property>
  <property name="kdenlive:docproperties.sessionid">{0ea6cc82-8838-4907-8ac9-00485779f20c}</property>
  <property name="kdenlive:docproperties.uuid">{1f81736c-4139-437b-9639-00d09692bbe6}</property>
  <property name="kdenlive:docproperties.version">1.1</property>
  <property name="kdenlive:expandedFolders"/>
  <property name="kdenlive:binZoom">4</property>
  <property name="kdenlive:extraBins">project_bin:-1:0</property>
  <property name="kdenlive:documentnotes"/>
  <property name="kdenlive:documentnotesversion">2</property>
  <property name="xml_retain">1</property>
  <entry in="00:00:00.000" out="01:31:37.412" producer="chain2"/>
  <entry in="00:00:00.000" out="01:28:10.052" producer="tractor4"/>
 </playlist>
 <tractor id="tractor5" in="00:00:00.000" out="01:25:49.132">
  <property name="kdenlive:projectTractor">1</property>
  <track in="00:00:00.000" out="01:25:49.132" producer="tractor4"/>
 </tractor>
</mlt>
