<?xml version='1.0' encoding='utf-8'?>
<mlt LC_NUMERIC="en_US.UTF-8" producer="main_bin" root="/FanEdits/FanMixes/Congo (1995) - Incel Edition" version="7.33.0">
 <profile colorspace="709" description="1920x1072 23.98fps" display_aspect_den="67" display_aspect_num="120" frame_rate_den="1001" frame_rate_num="24000" height="1072" progressive="1" sample_aspect_den="1" sample_aspect_num="1" width="1920"/>
 <chain id="chain4" out="01:48:15.682">
  <property name="length">155740</property>
  <property name="eof">pause</property>
  <property name="resource">/General Movies/Congo (1995)/Congo.1995.1080p.BluRay.x264.AAC5.1-.mp4</property>
  <property name="mlt_service">avformat-novalidate</property>
  <property name="meta.media.nb_streams">2</property>
  <property name="meta.media.0.stream.type">video</property>
  <property name="meta.media.0.stream.frame_rate">23.976</property>
  <property name="meta.media.0.stream.sample_aspect_ratio">1</property>
  <property name="meta.media.0.codec.width">1920</property>
  <property name="meta.media.0.codec.height">1072</property>
  <property name="meta.media.0.codec.rotate">0</property>
  <property name="meta.media.0.codec.pix_fmt">yuv420p</property>
  <property name="meta.media.0.codec.sample_aspect_ratio">1</property>
  <property name="meta.media.0.codec.colorspace">709</property>
  <property name="meta.media.0.codec.name">h264</property>
  <property name="meta.media.0.codec.long_name">H.264 / AVC / MPEG-4 AVC / MPEG-4 part 10</property>
  <property name="meta.media.0.codec.bit_rate">2248274</property>
  <property name="meta.attr.0.stream.handler_name.markup">VideoHandler</property>
  <property name="meta.attr.0.stream.vendor_id.markup">[0][0][0][0]</property>
  <property name="meta.media.1.stream.type">audio</property>
  <property name="meta.media.1.codec.sample_fmt">fltp</property>
  <property name="meta.media.1.codec.sample_rate">48000</property>
  <property name="meta.media.1.codec.channels">6</property>
  <property name="meta.media.1.codec.layout">5.1</property>
  <property name="meta.media.1.codec.name">aac</property>
  <property name="meta.media.1.codec.long_name">AAC (Advanced Audio Coding)</property>
  <property name="meta.media.1.codec.bit_rate">384000</property>
  <property name="meta.attr.1.stream.handler_name.markup">SoundHandler</property>
  <property name="meta.attr.1.stream.vendor_id.markup">[0][0][0][0]</property>
  <property name="meta.attr.major_brand.markup">isom</property>
  <property name="meta.attr.minor_version.markup">512</property>
  <property name="meta.attr.compatible_brands.markup">isomiso2avc1mp41</property>
  <property name="meta.attr.encoder.markup">Lavf58.35.100</property>
  <property name="seekable">1</property>
  <property name="meta.media.sample_aspect_num">1</property>
  <property name="meta.media.sample_aspect_den">1</property>
  <property name="audio_index">1</property>
  <property name="video_index">0</property>
  <property name="vstream">0</property>
  <property name="meta.media.frame_rate_num">24000</property>
  <property name="meta.media.frame_rate_den">1001</property>
  <property name="meta.media.colorspace">709</property>
  <property name="meta.media.color_trc">2</property>
  <property name="meta.media.has_b_frames">2</property>
  <property name="meta.media.width">1920</property>
  <property name="meta.media.height">1072</property>
  <property name="meta.media.aspect_ratio">1</property>
  <property name="meta.media.color_range">mpeg</property>
  <property name="astream">0</property>
  <property name="meta.media.top_field_first">0</property>
  <property name="meta.media.progressive">1</property>
  <property name="kdenlive:control_uuid">{db2eedd1-8326-4103-b081-6a667e58b483}</property>
  <property name="kdenlive:id">4</property>
  <property name="kdenlive:clip_type">0</property>
  <property name="kdenlive:file_size">2142594276</property>
  <property name="kdenlive:file_hash">46c4b5e152b03d872d56e70fcd3f602d</property>
  <property name="kdenlive:folderid">-1</property>
  <property name="mute_on_pause">0</property>
 </chain>
 <producer id="producer0" in="00:00:00.000" out="01:45:03.003">
  <property name="length">2147483647</property>
  <property name="eof">continue</property>
  <property name="resource">black</property>
  <property name="aspect_ratio">1</property>
  <property name="mlt_service">color</property>
  <property name="kdenlive:playlistid">black_track</property>
  <property name="mlt_image_format">rgba</property>
  <property name="set.test_audio">0</property>
 </producer>
 <playlist id="playlist0">
  <property name="kdenlive:audio_track">1</property>
 </playlist>
 <playlist id="playlist1">
  <property name="kdenlive:audio_track">1</property>
 </playlist>
 <tractor id="tractor0" in="00:00:00.000">
  <property name="kdenlive:audio_track">1</property>
  <property name="kdenlive:trackheight">84</property>
  <property name="kdenlive:timeline_active">1</property>
  <property name="kdenlive:collapsed">0</property>
  <property name="kdenlive:thumbs_format"/>
  <property name="kdenlive:audio_rec"/>
  <track hide="video" producer="playlist0"/>
  <track hide="video" producer="playlist1"/>
  <filter id="filter0">
   <property name="window">75</property>
   <property name="max_gain">20dB</property>
   <property name="mlt_service">volume</property>
   <property name="internal_added">237</property>
   <property name="disable">1</property>
  </filter>
  <filter id="filter1">
   <property name="channel">-1</property>
   <property name="mlt_service">panner</property>
   <property name="internal_added">237</property>
   <property name="start">0.5</property>
   <property name="disable">1</property>
  </filter>
  <filter id="filter2">
   <property name="iec_scale">0</property>
   <property name="mlt_service">audiolevel</property>
   <property name="dbpeak">1</property>
   <property name="disable">1</property>
  </filter>
 </tractor>
 <chain id="chain0" out="01:48:15.682">
  <property name="length">155740</property>
  <property name="eof">pause</property>
  <property name="resource">/General Movies/Congo (1995)/Congo.1995.1080p.BluRay.x264.AAC5.1-.mp4</property>
  <property name="mlt_service">avformat-novalidate</property>
  <property name="seekable">1</property>
  <property name="audio_index">1</property>
  <property name="video_index">0</property>
  <property name="vstream">0</property>
  <property name="astream">0</property>
  <property name="kdenlive:control_uuid">{db2eedd1-8326-4103-b081-6a667e58b483}</property>
  <property name="kdenlive:id">4</property>
  <property name="kdenlive:clip_type">0</property>
  <property name="kdenlive:file_size">2142594276</property>
  <property name="kdenlive:file_hash">46c4b5e152b03d872d56e70fcd3f602d</property>
  <property name="kdenlive:folderid">-1</property>
  <property name="meta.media.nb_streams">2</property>
  <property name="meta.media.0.stream.type">video</property>
  <property name="meta.media.0.stream.frame_rate">23.976</property>
  <property name="meta.media.0.stream.sample_aspect_ratio">1</property>
  <property name="meta.media.0.codec.width">1920</property>
  <property name="meta.media.0.codec.height">1072</property>
  <property name="meta.media.0.codec.rotate">0</property>
  <property name="meta.media.0.codec.pix_fmt">yuv420p</property>
  <property name="meta.media.0.codec.sample_aspect_ratio">1</property>
  <property name="meta.media.0.codec.colorspace">709</property>
  <property name="meta.media.0.codec.name">h264</property>
  <property name="meta.media.0.codec.long_name">H.264 / AVC / MPEG-4 AVC / MPEG-4 part 10</property>
  <property name="meta.media.0.codec.bit_rate">2248274</property>
  <property name="meta.attr.0.stream.handler_name.markup">VideoHandler</property>
  <property name="meta.attr.0.stream.vendor_id.markup">[0][0][0][0]</property>
  <property name="meta.media.1.stream.type">audio</property>
  <property name="meta.media.1.codec.sample_fmt">fltp</property>
  <property name="meta.media.1.codec.sample_rate">48000</property>
  <property name="meta.media.1.codec.channels">6</property>
  <property name="meta.media.1.codec.layout">5.1</property>
  <property name="meta.media.1.codec.name">aac</property>
  <property name="meta.media.1.codec.long_name">AAC (Advanced Audio Coding)</property>
  <property name="meta.media.1.codec.bit_rate">384000</property>
  <property name="meta.attr.1.stream.handler_name.markup">SoundHandler</property>
  <property name="meta.attr.1.stream.vendor_id.markup">[0][0][0][0]</property>
  <property name="meta.attr.major_brand.markup">isom</property>
  <property name="meta.attr.minor_version.markup">512</property>
  <property name="meta.attr.compatible_brands.markup">isomiso2avc1mp41</property>
  <property name="meta.attr.encoder.markup">Lavf58.35.100</property>
  <property name="meta.media.sample_aspect_num">1</property>
  <property name="meta.media.sample_aspect_den">1</property>
  <property name="meta.media.frame_rate_num">24000</property>
  <property name="meta.media.frame_rate_den">1001</property>
  <property name="meta.media.colorspace">709</property>
  <property name="meta.media.color_trc">2</property>
  <property name="meta.media.has_b_frames">2</property>
  <property name="meta.media.width">1920</property>
  <property name="meta.media.height">1072</property>
  <property name="meta.media.aspect_ratio">1</property>
  <property name="meta.media.color_range">mpeg</property>
  <property name="xml">was here</property>
  <property name="mute_on_pause">0</property>
  <property name="meta.media.top_field_first">0</property>
  <property name="meta.media.progressive">1</property>
  <property name="set.test_audio">0</property>
  <property name="set.test_image">1</property>
 </chain>
 <playlist id="playlist2">
  <property name="kdenlive:audio_track">1</property>
  <entry in="00:00:00.000" out="00:06:34.743" producer="chain0">
   <property name="kdenlive:id">4</property>
  </entry>
  <blank length="00:00:51.551"/>
  <entry in="00:08:14.139" out="00:08:39.498" producer="chain0">
   <property name="kdenlive:id">4</property>
  </entry>
  <blank length="00:02:25.776"/>
  <entry in="00:11:14.932" out="00:13:37.746" producer="chain0">
   <property name="kdenlive:id">4</property>
  </entry>
  <blank length="00:05:25.609"/>
  <entry in="00:19:35.202" out="00:19:50.133" producer="chain0">
   <property name="kdenlive:id">4</property>
  </entry>
  <blank length="00:00:04.004"/>
  <entry in="00:20:29.696" out="00:21:30.322" producer="chain0">
   <property name="kdenlive:id">4</property>
  </entry>
  <blank length="00:00:03.128"/>
  <entry in="00:23:09.718" out="00:29:49.466" producer="chain0">
   <property name="kdenlive:id">4</property>
   <filter id="filter3" in="00:23:09.718" out="00:23:16.558">
    <property name="window">75</property>
    <property name="max_gain">20dB</property>
    <property name="mlt_service">volume</property>
    <property name="kdenlive_id">fadein</property>
    <property name="gain">0</property>
    <property name="end">1</property>
    <property name="kdenlive:collapsed">0</property>
   </filter>
  </entry>
  <blank length="00:00:23.148"/>
  <entry in="00:30:40.540" out="00:32:02.461" producer="chain0">
   <property name="kdenlive:id">4</property>
  </entry>
  <blank length="00:00:31.740"/>
  <entry in="00:33:07.591" out="00:36:16.099" producer="chain0">
   <property name="kdenlive:id">4</property>
  </entry>
  <blank length="00:00:01.126"/>
  <entry in="00:36:34.076" out="00:47:50.717" producer="chain0">
   <property name="kdenlive:id">4</property>
   <filter id="filter4" in="00:47:47.714" out="00:47:50.717">
    <property name="window">75</property>
    <property name="max_gain">20dB</property>
    <property name="mlt_service">volume</property>
    <property name="kdenlive_id">fadeout</property>
    <property name="gain">1</property>
    <property name="end">0</property>
    <property name="kdenlive:collapsed">0</property>
   </filter>
  </entry>
  <blank length="00:00:59.810"/>
  <entry in="00:49:24.274" out="00:49:26.235" producer="chain0">
   <property name="kdenlive:id">4</property>
  </entry>
  <blank length="00:03:06.089"/>
  <entry in="00:58:33.242" out="01:05:00.334" producer="chain0">
   <property name="kdenlive:id">4</property>
   <filter id="filter5" in="01:04:57.307" out="01:05:00.375">
    <property name="window">75</property>
    <property name="max_gain">20dB</property>
    <property name="mlt_service">volume</property>
    <property name="kdenlive_id">fadeout</property>
    <property name="gain">1</property>
    <property name="end">0</property>
    <property name="kdenlive:collapsed">0</property>
   </filter>
  </entry>
  <blank length="00:00:58.100"/>
  <entry in="00:50:25.901" out="00:50:48.632" producer="chain0">
   <property name="kdenlive:id">4</property>
  </entry>
  <blank length="00:03:26.026"/>
  <entry in="00:54:21.355" out="00:54:22.731" producer="chain0">
   <property name="kdenlive:id">4</property>
  </entry>
  <blank length="00:00:47.464"/>
  <entry in="01:07:06.965" out="01:11:26.568" producer="chain0">
   <property name="kdenlive:id">4</property>
  </entry>
  <blank length="00:04:56.265"/>
  <entry in="01:16:22.564" out="01:16:24.399" producer="chain0">
   <property name="kdenlive:id">4</property>
  </entry>
  <blank length="00:06:47.714"/>
  <entry in="01:23:14.431" out="01:23:30.239" producer="chain0">
   <property name="kdenlive:id">4</property>
  </entry>
 </playlist>
 <chain id="chain1" out="01:48:15.682">
  <property name="length">155740</property>
  <property name="eof">pause</property>
  <property name="resource">/General Movies/Congo (1995)/Congo.1995.1080p.BluRay.x264.AAC5.1-.mp4</property>
  <property name="mlt_service">avformat-novalidate</property>
  <property name="seekable">1</property>
  <property name="audio_index">1</property>
  <property name="video_index">0</property>
  <property name="vstream">0</property>
  <property name="astream">0</property>
  <property name="kdenlive:control_uuid">{db2eedd1-8326-4103-b081-6a667e58b483}</property>
  <property name="kdenlive:id">4</property>
  <property name="kdenlive:clip_type">0</property>
  <property name="kdenlive:file_size">2142594276</property>
  <property name="kdenlive:file_hash">46c4b5e152b03d872d56e70fcd3f602d</property>
  <property name="kdenlive:folderid">-1</property>
  <property name="meta.media.nb_streams">2</property>
  <property name="meta.media.0.stream.type">video</property>
  <property name="meta.media.0.stream.frame_rate">23.976</property>
  <property name="meta.media.0.stream.sample_aspect_ratio">1</property>
  <property name="meta.media.0.codec.width">1920</property>
  <property name="meta.media.0.codec.height">1072</property>
  <property name="meta.media.0.codec.rotate">0</property>
  <property name="meta.media.0.codec.pix_fmt">yuv420p</property>
  <property name="meta.media.0.codec.sample_aspect_ratio">1</property>
  <property name="meta.media.0.codec.colorspace">709</property>
  <property name="meta.media.0.codec.name">h264</property>
  <property name="meta.media.0.codec.long_name">H.264 / AVC / MPEG-4 AVC / MPEG-4 part 10</property>
  <property name="meta.media.0.codec.bit_rate">2248274</property>
  <property name="meta.attr.0.stream.handler_name.markup">VideoHandler</property>
  <property name="meta.attr.0.stream.vendor_id.markup">[0][0][0][0]</property>
  <property name="meta.media.1.stream.type">audio</property>
  <property name="meta.media.1.codec.sample_fmt">fltp</property>
  <property name="meta.media.1.codec.sample_rate">48000</property>
  <property name="meta.media.1.codec.channels">6</property>
  <property name="meta.media.1.codec.layout">5.1</property>
  <property name="meta.media.1.codec.name">aac</property>
  <property name="meta.media.1.codec.long_name">AAC (Advanced Audio Coding)</property>
  <property name="meta.media.1.codec.bit_rate">384000</property>
  <property name="meta.attr.1.stream.handler_name.markup">SoundHandler</property>
  <property name="meta.attr.1.stream.vendor_id.markup">[0][0][0][0]</property>
  <property name="meta.attr.major_brand.markup">isom</property>
  <property name="meta.attr.minor_version.markup">512</property>
  <property name="meta.attr.compatible_brands.markup">isomiso2avc1mp41</property>
  <property name="meta.attr.encoder.markup">Lavf58.35.100</property>
  <property name="meta.media.sample_aspect_num">1</property>
  <property name="meta.media.sample_aspect_den">1</property>
  <property name="meta.media.frame_rate_num">24000</property>
  <property name="meta.media.frame_rate_den">1001</property>
  <property name="meta.media.colorspace">709</property>
  <property name="meta.media.color_trc">2</property>
  <property name="meta.media.has_b_frames">2</property>
  <property name="meta.media.width">1920</property>
  <property name="meta.media.height">1072</property>
  <property name="meta.media.aspect_ratio">1</property>
  <property name="meta.media.color_range">mpeg</property>
  <property name="xml">was here</property>
  <property name="mute_on_pause">0</property>
  <property name="meta.media.top_field_first">0</property>
  <property name="meta.media.progressive">1</property>
  <property name="set.test_audio">0</property>
  <property name="set.test_image">1</property>
 </chain>
 <playlist id="playlist3">
  <property name="kdenlive:audio_track">1</property>
  <blank length="00:06:33.784"/>
  <entry in="00:07:20.437" out="00:08:13.931" producer="chain1">
   <property name="kdenlive:id">4</property>
  </entry>
  <blank length="00:00:23.565"/>
  <entry in="00:08:41.541" out="00:11:09.092" producer="chain1">
   <property name="kdenlive:id">4</property>
  </entry>
  <blank length="00:02:20.854"/>
  <entry in="00:13:50.259" out="00:19:17.809" producer="chain1">
   <property name="kdenlive:id">4</property>
  </entry>
  <blank length="00:00:12.971"/>
  <entry in="00:20:21.188" out="00:20:27.152" producer="chain1">
   <property name="kdenlive:id">4</property>
  </entry>
  <blank length="00:00:58.642"/>
  <entry in="00:21:33.033" out="00:21:40.123" producer="chain1">
   <property name="kdenlive:id">4</property>
  </entry>
  <blank length="00:06:32.824"/>
  <entry in="00:30:12.137" out="00:30:39.248" producer="chain1">
   <property name="kdenlive:id">4</property>
  </entry>
  <blank length="00:01:21.647"/>
  <entry in="00:32:08.091" out="00:32:37.246" producer="chain1">
   <property name="kdenlive:id">4</property>
  </entry>
  <entry in="00:32:37.287" out="00:32:41.124" producer="chain1">
   <property name="kdenlive:id">4</property>
  </entry>
  <blank length="00:03:06.590"/>
  <entry in="00:36:31.949" out="00:36:34.034" producer="chain1">
   <property name="kdenlive:id">4</property>
  </entry>
  <blank length="00:11:15.682"/>
  <entry in="00:48:22.356" out="00:49:24.107" producer="chain1">
   <property name="kdenlive:id">4</property>
  </entry>
  <entry in="00:55:16.099" out="00:58:23.523" producer="chain1">
   <property name="kdenlive:id">4</property>
  </entry>
  <blank length="00:06:23.690"/>
  <entry in="00:49:24.816" out="00:50:25.859" producer="chain1">
   <property name="kdenlive:id">4</property>
  </entry>
  <blank length="00:00:21.772"/>
  <entry in="00:50:53.178" out="00:54:20.562" producer="chain1">
   <property name="kdenlive:id">4</property>
  </entry>
  <blank length="00:00:00.584"/>
  <entry in="00:54:24.399" out="00:55:16.266" producer="chain1">
   <property name="kdenlive:id">4</property>
  </entry>
  <blank length="00:04:25.776"/>
  <entry in="01:11:34.618" out="01:16:21.605" producer="chain1">
   <property name="kdenlive:id">4</property>
  </entry>
  <blank length="00:00:00.626"/>
  <entry in="01:16:27.110" out="01:23:08.258" producer="chain1">
   <property name="kdenlive:id">4</property>
   <filter id="filter6" in="01:16:27.110" out="01:16:27.945">
    <property name="window">75</property>
    <property name="max_gain">20dB</property>
    <property name="mlt_service">volume</property>
    <property name="kdenlive_id">fadein</property>
    <property name="gain">0</property>
    <property name="end">1</property>
    <property name="kdenlive:collapsed">0</property>
   </filter>
  </entry>
  <blank length="00:00:21.772"/>
  <entry in="01:23:35.535" out="01:48:15.682" producer="chain1">
   <property name="kdenlive:id">4</property>
  </entry>
 </playlist>
 <tractor id="tractor1" in="00:00:00.000" out="01:40:02.961">
  <property name="kdenlive:audio_track">1</property>
  <property name="kdenlive:trackheight">84</property>
  <property name="kdenlive:timeline_active">1</property>
  <property name="kdenlive:collapsed">0</property>
  <property name="kdenlive:thumbs_format"/>
  <property name="kdenlive:audio_rec"/>
  <track hide="video" producer="playlist2"/>
  <track hide="video" producer="playlist3"/>
  <transition id="transition21" in="00:59:02.419" out="00:59:06.423">
   <property name="a_track">0</property>
   <property name="b_track">1</property>
   <property name="mlt_service">mix</property>
   <property name="kdenlive_id">mix</property>
   <property name="kdenlive:mixcut">9</property>
   <property name="start">-1</property>
   <property name="accepts_blanks">1</property>
   <property name="reverse">1</property>
  </transition>
  <transition id="transition19" in="00:43:52.511" out="00:43:53.512">
   <property name="a_track">0</property>
   <property name="b_track">1</property>
   <property name="mlt_service">mix</property>
   <property name="kdenlive_id">mix</property>
   <property name="kdenlive:mixcut">14</property>
   <property name="start">-1</property>
   <property name="accepts_blanks">1</property>
   <property name="reverse">0</property>
  </transition>
  <transition id="transition18" in="00:43:51.510" out="00:43:52.511">
   <property name="a_track">0</property>
   <property name="b_track">1</property>
   <property name="mlt_service">mix</property>
   <property name="kdenlive_id">mix</property>
   <property name="kdenlive:mixcut">12</property>
   <property name="start">-1</property>
   <property name="accepts_blanks">1</property>
   <property name="reverse">1</property>
  </transition>
  <transition id="transition17" in="00:58:14.556" out="00:58:14.973">
   <property name="a_track">0</property>
   <property name="b_track">1</property>
   <property name="mlt_service">mix</property>
   <property name="kdenlive_id">mix</property>
   <property name="kdenlive:mixcut">5</property>
   <property name="reverse">0</property>
  </transition>
  <transition id="transition16" in="00:54:46.546" out="00:54:47.547">
   <property name="a_track">0</property>
   <property name="b_track">1</property>
   <property name="mlt_service">mix</property>
   <property name="kdenlive_id">mix</property>
   <property name="kdenlive:mixcut">12</property>
   <property name="reverse">0</property>
  </transition>
  <transition id="transition15" in="00:58:13.555" out="00:58:13.972">
   <property name="a_track">0</property>
   <property name="b_track">1</property>
   <property name="mlt_service">mix</property>
   <property name="kdenlive_id">mix</property>
   <property name="kdenlive:mixcut">5</property>
   <property name="reverse">1</property>
  </transition>
  <transition id="transition14" in="00:42:50.717" out="00:42:51.718">
   <property name="a_track">0</property>
   <property name="b_track">1</property>
   <property name="mlt_service">mix</property>
   <property name="kdenlive_id">mix</property>
   <property name="kdenlive:mixcut">12</property>
   <property name="start">-1</property>
   <property name="accepts_blanks">1</property>
   <property name="reverse">0</property>
  </transition>
  <transition id="transition13" in="00:31:32.908" out="00:31:33.909">
   <property name="a_track">0</property>
   <property name="b_track">1</property>
   <property name="mlt_service">mix</property>
   <property name="kdenlive_id">mix</property>
   <property name="kdenlive:mixcut">12</property>
   <property name="start">-1</property>
   <property name="accepts_blanks">1</property>
   <property name="reverse">0</property>
  </transition>
  <transition id="transition12" in="00:28:25.359" out="00:28:26.360">
   <property name="a_track">0</property>
   <property name="b_track">1</property>
   <property name="mlt_service">mix</property>
   <property name="kdenlive_id">mix</property>
   <property name="kdenlive:mixcut">12</property>
   <property name="start">-1</property>
   <property name="accepts_blanks">1</property>
   <property name="reverse">1</property>
  </transition>
  <transition id="transition11" in="00:27:53.262" out="00:27:53.595">
   <property name="a_track">0</property>
   <property name="b_track">1</property>
   <property name="mlt_service">mix</property>
   <property name="kdenlive_id">mix</property>
   <property name="kdenlive:mixcut">8</property>
   <property name="start">-1</property>
   <property name="accepts_blanks">1</property>
   <property name="reverse">0</property>
  </transition>
  <transition id="transition10" in="00:26:04.504" out="00:26:08.508">
   <property name="a_track">0</property>
   <property name="b_track">1</property>
   <property name="mlt_service">mix</property>
   <property name="kdenlive_id">mix</property>
   <property name="kdenlive:mixcut">48</property>
   <property name="start">-1</property>
   <property name="accepts_blanks">1</property>
   <property name="reverse">0</property>
  </transition>
  <transition id="transition9" in="00:19:28.695" out="00:19:31.698">
   <property name="a_track">0</property>
   <property name="b_track">1</property>
   <property name="mlt_service">mix</property>
   <property name="kdenlive_id">mix</property>
   <property name="kdenlive:mixcut">36</property>
   <property name="start">-1</property>
   <property name="accepts_blanks">1</property>
   <property name="reverse">1</property>
  </transition>
  <transition id="transition8" in="00:19:24.566" out="00:19:25.567">
   <property name="a_track">0</property>
   <property name="b_track">1</property>
   <property name="mlt_service">mix</property>
   <property name="kdenlive_id">mix</property>
   <property name="kdenlive:mixcut">12</property>
   <property name="start">-1</property>
   <property name="accepts_blanks">1</property>
   <property name="reverse">0</property>
  </transition>
  <transition id="transition7" in="00:18:19.895" out="00:18:20.896">
   <property name="a_track">0</property>
   <property name="b_track">1</property>
   <property name="mlt_service">mix</property>
   <property name="kdenlive_id">mix</property>
   <property name="kdenlive:mixcut">7</property>
   <property name="start">-1</property>
   <property name="accepts_blanks">1</property>
   <property name="reverse">0</property>
  </transition>
  <transition id="transition6" in="00:18:24.900" out="00:18:25.901">
   <property name="a_track">0</property>
   <property name="b_track">1</property>
   <property name="mlt_service">mix</property>
   <property name="kdenlive_id">mix</property>
   <property name="kdenlive:mixcut">5</property>
   <property name="reverse">1</property>
  </transition>
  <transition id="transition5" in="00:18:05.923" out="00:18:06.924">
   <property name="a_track">0</property>
   <property name="b_track">1</property>
   <property name="mlt_service">mix</property>
   <property name="kdenlive_id">mix</property>
   <property name="kdenlive:mixcut">4</property>
   <property name="start">-1</property>
   <property name="accepts_blanks">1</property>
   <property name="reverse">1</property>
  </transition>
  <transition id="transition4" in="00:12:39.373" out="00:12:40.374">
   <property name="a_track">0</property>
   <property name="b_track">1</property>
   <property name="mlt_service">mix</property>
   <property name="kdenlive_id">mix</property>
   <property name="kdenlive:mixcut">3</property>
   <property name="start">-1</property>
   <property name="accepts_blanks">1</property>
   <property name="reverse">0</property>
  </transition>
  <transition id="transition3" in="00:10:17.517" out="00:10:18.518">
   <property name="a_track">0</property>
   <property name="b_track">1</property>
   <property name="mlt_service">mix</property>
   <property name="kdenlive_id">mix</property>
   <property name="kdenlive:mixcut">12</property>
   <property name="start">-1</property>
   <property name="accepts_blanks">1</property>
   <property name="reverse">1</property>
  </transition>
  <transition id="transition2" in="00:07:50.926" out="00:07:51.760">
   <property name="a_track">0</property>
   <property name="b_track">1</property>
   <property name="mlt_service">mix</property>
   <property name="kdenlive_id">mix</property>
   <property name="kdenlive:mixcut">17</property>
   <property name="start">-1</property>
   <property name="accepts_blanks">1</property>
   <property name="reverse">0</property>
  </transition>
  <transition id="transition1" in="00:07:26.360" out="00:07:27.361">
   <property name="a_track">0</property>
   <property name="b_track">1</property>
   <property name="mlt_service">mix</property>
   <property name="kdenlive_id">mix</property>
   <property name="kdenlive:mixcut">12</property>
   <property name="start">-1</property>
   <property name="accepts_blanks">1</property>
   <property name="reverse">1</property>
  </transition>
  <transition id="transition0" in="00:06:33.784" out="00:06:34.785">
   <property name="a_track">0</property>
   <property name="b_track">1</property>
   <property name="mlt_service">mix</property>
   <property name="kdenlive_id">mix</property>
   <property name="kdenlive:mixcut">24</property>
   <property name="start">-1</property>
   <property name="accepts_blanks">1</property>
   <property name="reverse">0</property>
  </transition>
  <transition id="transition22" in="01:08:19.853" out="01:08:20.270">
   <property name="a_track">0</property>
   <property name="b_track">1</property>
   <property name="mlt_service">mix</property>
   <property name="kdenlive_id">mix</property>
   <property name="kdenlive:mixcut">1</property>
   <property name="start">-1</property>
   <property name="accepts_blanks">1</property>
   <property name="reverse">0</property>
  </transition>
  <transition id="transition23" in="01:08:18.393" out="01:08:19.228">
   <property name="a_track">1</property>
   <property name="b_track">0</property>
   <property name="mlt_service">mix</property>
   <property name="kdenlive_id">mix</property>
   <property name="kdenlive:mixcut">1</property>
   <property name="start">-1</property>
   <property name="accepts_blanks">1</property>
   <property name="reverse">0</property>
  </transition>
  <transition id="transition24" in="01:15:22.814" out="01:15:23.815">
   <property name="a_track">0</property>
   <property name="b_track">1</property>
   <property name="mlt_service">mix</property>
   <property name="kdenlive_id">mix</property>
   <property name="kdenlive:mixcut">12</property>
   <property name="start">-1</property>
   <property name="accepts_blanks">1</property>
   <property name="reverse">0</property>
  </transition>
  <transition id="transition20" in="00:53:23.690" out="00:53:26.693">
   <property name="a_track">0</property>
   <property name="b_track">1</property>
   <property name="mlt_service">mix</property>
   <property name="kdenlive_id">mix</property>
   <property name="kdenlive:mixcut">36</property>
   <property name="start">-1</property>
   <property name="accepts_blanks">1</property>
   <property name="reverse">0</property>
  </transition>
  <transition id="transition25" in="00:46:59.601" out="00:47:00.000">
   <property name="a_track">0</property>
   <property name="b_track">1</property>
   <property name="mlt_service">mix</property>
   <property name="kdenlive_id">mix</property>
   <property name="kdenlive:mixcut">10</property>
   <property name="start">-1</property>
   <property name="accepts_blanks">1</property>
   <property name="reverse">1</property>
  </transition>
  <filter id="filter7">
   <property name="window">75</property>
   <property name="max_gain">20dB</property>
   <property name="mlt_service">volume</property>
   <property name="internal_added">237</property>
   <property name="disable">1</property>
  </filter>
  <filter id="filter8">
   <property name="channel">-1</property>
   <property name="mlt_service">panner</property>
   <property name="internal_added">237</property>
   <property name="start">0.5</property>
   <property name="disable">1</property>
  </filter>
  <filter id="filter9">
   <property name="iec_scale">0</property>
   <property name="mlt_service">audiolevel</property>
   <property name="dbpeak">1</property>
   <property name="disable">1</property>
  </filter>
 </tractor>
 <chain id="chain2" out="01:48:15.682">
  <property name="length">155740</property>
  <property name="eof">pause</property>
  <property name="resource">/General Movies/Congo (1995)/Congo.1995.1080p.BluRay.x264.AAC5.1-.mp4</property>
  <property name="mlt_service">avformat-novalidate</property>
  <property name="seekable">1</property>
  <property name="audio_index">1</property>
  <property name="video_index">0</property>
  <property name="vstream">0</property>
  <property name="astream">0</property>
  <property name="kdenlive:control_uuid">{db2eedd1-8326-4103-b081-6a667e58b483}</property>
  <property name="kdenlive:id">4</property>
  <property name="kdenlive:clip_type">0</property>
  <property name="kdenlive:file_size">2142594276</property>
  <property name="kdenlive:file_hash">46c4b5e152b03d872d56e70fcd3f602d</property>
  <property name="kdenlive:folderid">-1</property>
  <property name="meta.media.nb_streams">2</property>
  <property name="meta.media.0.stream.type">video</property>
  <property name="meta.media.0.stream.frame_rate">23.976</property>
  <property name="meta.media.0.stream.sample_aspect_ratio">1</property>
  <property name="meta.media.0.codec.width">1920</property>
  <property name="meta.media.0.codec.height">1072</property>
  <property name="meta.media.0.codec.rotate">0</property>
  <property name="meta.media.0.codec.pix_fmt">yuv420p</property>
  <property name="meta.media.0.codec.sample_aspect_ratio">1</property>
  <property name="meta.media.0.codec.colorspace">709</property>
  <property name="meta.media.0.codec.name">h264</property>
  <property name="meta.media.0.codec.long_name">H.264 / AVC / MPEG-4 AVC / MPEG-4 part 10</property>
  <property name="meta.media.0.codec.bit_rate">2248274</property>
  <property name="meta.attr.0.stream.handler_name.markup">VideoHandler</property>
  <property name="meta.attr.0.stream.vendor_id.markup">[0][0][0][0]</property>
  <property name="meta.media.1.stream.type">audio</property>
  <property name="meta.media.1.codec.sample_fmt">fltp</property>
  <property name="meta.media.1.codec.sample_rate">48000</property>
  <property name="meta.media.1.codec.channels">6</property>
  <property name="meta.media.1.codec.layout">5.1</property>
  <property name="meta.media.1.codec.name">aac</property>
  <property name="meta.media.1.codec.long_name">AAC (Advanced Audio Coding)</property>
  <property name="meta.media.1.codec.bit_rate">384000</property>
  <property name="meta.attr.1.stream.handler_name.markup">SoundHandler</property>
  <property name="meta.attr.1.stream.vendor_id.markup">[0][0][0][0]</property>
  <property name="meta.attr.major_brand.markup">isom</property>
  <property name="meta.attr.minor_version.markup">512</property>
  <property name="meta.attr.compatible_brands.markup">isomiso2avc1mp41</property>
  <property name="meta.attr.encoder.markup">Lavf58.35.100</property>
  <property name="meta.media.sample_aspect_num">1</property>
  <property name="meta.media.sample_aspect_den">1</property>
  <property name="meta.media.frame_rate_num">24000</property>
  <property name="meta.media.frame_rate_den">1001</property>
  <property name="meta.media.colorspace">709</property>
  <property name="meta.media.color_trc">2</property>
  <property name="meta.media.has_b_frames">2</property>
  <property name="meta.media.width">1920</property>
  <property name="meta.media.height">1072</property>
  <property name="meta.media.aspect_ratio">1</property>
  <property name="meta.media.color_range">mpeg</property>
  <property name="xml">was here</property>
  <property name="mute_on_pause">0</property>
  <property name="meta.media.top_field_first">0</property>
  <property name="meta.media.progressive">1</property>
  <property name="set.test_audio">1</property>
  <property name="set.test_image">0</property>
 </chain>
 <playlist id="playlist4">
  <entry in="00:00:00.000" out="00:06:33.742" producer="chain2">
   <property name="kdenlive:id">4</property>
  </entry>
  <entry in="00:07:20.437" out="00:08:13.430" producer="chain2">
   <property name="kdenlive:id">4</property>
  </entry>
  <entry in="00:08:14.640" out="00:08:38.789" producer="chain2">
   <property name="kdenlive:id">4</property>
  </entry>
  <entry in="00:08:41.667" out="00:11:08.592" producer="chain2">
   <property name="kdenlive:id">4</property>
  </entry>
  <entry in="00:11:15.432" out="00:13:37.621" producer="chain2">
   <property name="kdenlive:id">4</property>
  </entry>
  <entry in="00:13:51.134" out="00:19:17.643" producer="chain2">
   <property name="kdenlive:id">4</property>
  </entry>
  <entry in="00:19:36.036" out="00:19:49.841" producer="chain2">
   <property name="kdenlive:id">4</property>
  </entry>
  <entry in="00:20:21.897" out="00:20:26.944" producer="chain2">
   <property name="kdenlive:id">4</property>
  </entry>
  <entry in="00:20:30.489" out="00:21:29.821" producer="chain2">
   <property name="kdenlive:id">4</property>
  </entry>
  <entry in="00:21:33.533" out="00:21:39.122" producer="chain2">
   <property name="kdenlive:id">4</property>
  </entry>
  <blank length="00:06:35.827"/>
  <entry in="00:30:14.139" out="00:30:39.248" producer="chain2">
   <property name="kdenlive:id">4</property>
  </entry>
  <entry in="00:30:40.540" out="00:32:02.127" producer="chain2">
   <property name="kdenlive:id">4</property>
  </entry>
  <entry in="00:32:08.091" out="00:32:37.246" producer="chain2">
   <property name="kdenlive:id">4</property>
  </entry>
  <entry in="00:32:37.287" out="00:32:40.624" producer="chain2">
   <property name="kdenlive:id">4</property>
   <filter id="filter10">
    <property name="background">colour:0</property>
    <property name="mlt_service">affine</property>
    <property name="kdenlive_id">pan_zoom</property>
    <property name="transition.rect">00:32:37.287=-71 -4 2813 1570</property>
    <property name="transition.distort">0</property>
    <property name="use_normalised">0</property>
    <property name="producer.resource">0x00000000</property>
    <property name="transition.repeat_off">1</property>
    <property name="transition.mirror_off">1</property>
    <property name="kdenlive:collapsed">0</property>
   </filter>
  </entry>
  <entry in="00:33:08.091" out="00:36:15.599" producer="chain2">
   <property name="kdenlive:id">4</property>
  </entry>
  <entry in="00:36:32.449" out="00:36:34.034" producer="chain2">
   <property name="kdenlive:id">4</property>
   <filter id="filter11">
    <property name="background">colour:0</property>
    <property name="mlt_service">affine</property>
    <property name="kdenlive_id">pan_zoom</property>
    <property name="transition.rect">00:36:32.449=-519 -154 2448 1366</property>
    <property name="transition.distort">0</property>
    <property name="use_normalised">0</property>
    <property name="producer.resource">0x00000000</property>
    <property name="transition.repeat_off">1</property>
    <property name="transition.mirror_off">1</property>
    <property name="kdenlive:collapsed">0</property>
   </filter>
  </entry>
  <entry in="00:36:34.076" out="00:47:50.217" producer="chain2">
   <property name="kdenlive:id">4</property>
  </entry>
  <entry in="00:48:22.856" out="00:49:23.607" producer="chain2">
   <property name="kdenlive:id">4</property>
  </entry>
  <entry in="00:49:24.775" out="00:49:25.651" producer="chain2">
   <property name="kdenlive:id">4</property>
  </entry>
  <entry in="00:55:16.516" out="00:58:23.106" producer="chain2">
   <property name="kdenlive:id">4</property>
  </entry>
  <blank length="00:06:25.525"/>
  <entry in="00:49:26.235" out="00:50:25.859" producer="chain2">
   <property name="kdenlive:id">4</property>
  </entry>
  <entry in="00:50:25.901" out="00:50:48.131" producer="chain2">
   <property name="kdenlive:id">4</property>
  </entry>
  <entry in="00:50:53.679" out="00:54:20.354" producer="chain2">
   <property name="kdenlive:id">4</property>
  </entry>
  <entry in="00:54:21.563" out="00:54:22.522" producer="chain2">
   <property name="kdenlive:id">4</property>
  </entry>
  <entry in="00:54:24.608" out="00:55:16.099" producer="chain2">
   <property name="kdenlive:id">4</property>
  </entry>
  <blank length="00:04:25.943"/>
  <entry in="01:11:34.618" out="01:16:21.563" producer="chain2">
   <property name="kdenlive:id">4</property>
  </entry>
  <entry in="01:16:23.357" out="01:16:24.358" producer="chain2">
   <property name="kdenlive:id">4</property>
  </entry>
  <entry in="01:16:27.486" out="01:23:08.258" producer="chain2">
   <property name="kdenlive:id">4</property>
  </entry>
  <blank length="00:00:06.924"/>
  <entry in="01:23:14.431" out="01:23:29.738" producer="chain2">
   <property name="kdenlive:id">4</property>
  </entry>
  <entry in="01:23:36.036" out="01:48:15.682" producer="chain2">
   <property name="kdenlive:id">4</property>
  </entry>
 </playlist>
 <chain id="chain3" out="01:48:15.682">
  <property name="length">155740</property>
  <property name="eof">pause</property>
  <property name="resource">/General Movies/Congo (1995)/Congo.1995.1080p.BluRay.x264.AAC5.1-.mp4</property>
  <property name="mlt_service">avformat-novalidate</property>
  <property name="seekable">1</property>
  <property name="audio_index">1</property>
  <property name="video_index">0</property>
  <property name="vstream">0</property>
  <property name="astream">0</property>
  <property name="kdenlive:control_uuid">{db2eedd1-8326-4103-b081-6a667e58b483}</property>
  <property name="kdenlive:id">4</property>
  <property name="kdenlive:clip_type">0</property>
  <property name="kdenlive:file_size">2142594276</property>
  <property name="kdenlive:file_hash">46c4b5e152b03d872d56e70fcd3f602d</property>
  <property name="kdenlive:folderid">-1</property>
  <property name="meta.media.nb_streams">2</property>
  <property name="meta.media.0.stream.type">video</property>
  <property name="meta.media.0.stream.frame_rate">23.976</property>
  <property name="meta.media.0.stream.sample_aspect_ratio">1</property>
  <property name="meta.media.0.codec.width">1920</property>
  <property name="meta.media.0.codec.height">1072</property>
  <property name="meta.media.0.codec.rotate">0</property>
  <property name="meta.media.0.codec.pix_fmt">yuv420p</property>
  <property name="meta.media.0.codec.sample_aspect_ratio">1</property>
  <property name="meta.media.0.codec.colorspace">709</property>
  <property name="meta.media.0.codec.name">h264</property>
  <property name="meta.media.0.codec.long_name">H.264 / AVC / MPEG-4 AVC / MPEG-4 part 10</property>
  <property name="meta.media.0.codec.bit_rate">2248274</property>
  <property name="meta.attr.0.stream.handler_name.markup">VideoHandler</property>
  <property name="meta.attr.0.stream.vendor_id.markup">[0][0][0][0]</property>
  <property name="meta.media.1.stream.type">audio</property>
  <property name="meta.media.1.codec.sample_fmt">fltp</property>
  <property name="meta.media.1.codec.sample_rate">48000</property>
  <property name="meta.media.1.codec.channels">6</property>
  <property name="meta.media.1.codec.layout">5.1</property>
  <property name="meta.media.1.codec.name">aac</property>
  <property name="meta.media.1.codec.long_name">AAC (Advanced Audio Coding)</property>
  <property name="meta.media.1.codec.bit_rate">384000</property>
  <property name="meta.attr.1.stream.handler_name.markup">SoundHandler</property>
  <property name="meta.attr.1.stream.vendor_id.markup">[0][0][0][0]</property>
  <property name="meta.attr.major_brand.markup">isom</property>
  <property name="meta.attr.minor_version.markup">512</property>
  <property name="meta.attr.compatible_brands.markup">isomiso2avc1mp41</property>
  <property name="meta.attr.encoder.markup">Lavf58.35.100</property>
  <property name="meta.media.sample_aspect_num">1</property>
  <property name="meta.media.sample_aspect_den">1</property>
  <property name="meta.media.frame_rate_num">24000</property>
  <property name="meta.media.frame_rate_den">1001</property>
  <property name="meta.media.colorspace">709</property>
  <property name="meta.media.color_trc">2</property>
  <property name="meta.media.has_b_frames">2</property>
  <property name="meta.media.width">1920</property>
  <property name="meta.media.height">1072</property>
  <property name="meta.media.aspect_ratio">1</property>
  <property name="meta.media.color_range">mpeg</property>
  <property name="xml">was here</property>
  <property name="mute_on_pause">0</property>
  <property name="meta.media.top_field_first">0</property>
  <property name="meta.media.progressive">1</property>
  <property name="set.test_audio">1</property>
  <property name="set.test_image">0</property>
 </chain>
 <playlist id="playlist5">
  <blank length="00:19:29.696"/>
  <entry in="00:23:10.719" out="00:29:47.464" producer="chain3">
   <property name="kdenlive:id">4</property>
  </entry>
  <blank length="00:20:53.095"/>
  <entry in="00:58:33.242" out="01:04:59.142" producer="chain3">
   <property name="kdenlive:id">4</property>
  </entry>
  <blank length="00:05:40.374"/>
  <entry in="01:07:10.385" out="01:11:26.568" producer="chain3">
   <property name="kdenlive:id">4</property>
  </entry>
 </playlist>
 <tractor id="tractor2" in="00:00:00.000" out="01:40:02.961">
  <property name="kdenlive:trackheight">84</property>
  <property name="kdenlive:timeline_active">1</property>
  <property name="kdenlive:collapsed">0</property>
  <property name="kdenlive:thumbs_format"/>
  <property name="kdenlive:audio_rec"/>
  <track hide="audio" producer="playlist4"/>
  <track hide="audio" producer="playlist5"/>
  <transition id="transition27" in="00:59:05.839" out="00:59:06.256">
   <property name="a_track">0</property>
   <property name="b_track">1</property>
   <property name="factory">loader</property>
   <property name="resource">luma01.pgm</property>
   <property name="mlt_service">luma</property>
   <property name="kdenlive_id">luma</property>
   <property name="kdenlive:mixcut">5</property>
   <property name="softness">0.53</property>
   <property name="alpha_over">1</property>
   <property name="fix_background_alpha">1</property>
   <property name="invert">0</property>
   <property name="reverse">0</property>
  </transition>
  <transition id="transition26" in="00:19:29.696" out="00:19:30.697">
   <property name="a_track">0</property>
   <property name="b_track">1</property>
   <property name="factory">loader</property>
   <property name="resource">luma01.pgm</property>
   <property name="mlt_service">luma</property>
   <property name="kdenlive_id">luma</property>
   <property name="kdenlive:mixcut">12</property>
   <property name="softness">0.63</property>
   <property name="alpha_over">1</property>
   <property name="fix_background_alpha">1</property>
   <property name="invert">0</property>
   <property name="reverse">0</property>
  </transition>
  <transition id="transition28" in="00:53:25.108" out="00:53:25.525">
   <property name="a_track">1</property>
   <property name="b_track">0</property>
   <property name="factory">loader</property>
   <property name="resource"/>
   <property name="mlt_service">luma</property>
   <property name="kdenlive_id">luma</property>
   <property name="kdenlive:mixcut">8</property>
   <property name="softness">0</property>
   <property name="alpha_over">1</property>
   <property name="fix_background_alpha">1</property>
   <property name="invert">0</property>
   <property name="reverse">0</property>
  </transition>
 </tractor>
 <playlist id="playlist6"/>
 <playlist id="playlist7"/>
 <tractor id="tractor3" in="00:00:00.000">
  <property name="kdenlive:trackheight">84</property>
  <property name="kdenlive:timeline_active">1</property>
  <property name="kdenlive:collapsed">0</property>
  <property name="kdenlive:thumbs_format"/>
  <property name="kdenlive:audio_rec"/>
  <track hide="audio" producer="playlist6"/>
  <track hide="audio" producer="playlist7"/>
 </tractor>
 <tractor id="tractor4" in="00:00:00.000" out="01:40:02.961">
  <property name="kdenlive:duration">01:40:03.003</property>
  <property name="kdenlive:maxduration">143927</property>
  <property name="kdenlive:clipname">Sequence 1</property>
  <property name="kdenlive:description"/>
  <property name="kdenlive:uuid">{2eff404b-ac55-4a01-8e81-71f432cedf0b}</property>
  <property name="kdenlive:producer_type">17</property>
  <property name="kdenlive:control_uuid">{2eff404b-ac55-4a01-8e81-71f432cedf0b}</property>
  <property name="kdenlive:id">3</property>
  <property name="kdenlive:clip_type">0</property>
  <property name="kdenlive:file_hash">b95fea27f918a7d1428d1c411c259725</property>
  <property name="kdenlive:folderid">2</property>
  <property name="kdenlive:sequenceproperties.activeTrack">2</property>
  <property name="kdenlive:sequenceproperties.audioTarget">1</property>
  <property name="kdenlive:sequenceproperties.disablepreview">0</property>
  <property name="kdenlive:sequenceproperties.documentuuid">{2eff404b-ac55-4a01-8e81-71f432cedf0b}</property>
  <property name="kdenlive:sequenceproperties.globalSubtitleStyles">[
]
</property>
  <property name="kdenlive:sequenceproperties.hasAudio">1</property>
  <property name="kdenlive:sequenceproperties.hasVideo">1</property>
  <property name="kdenlive:sequenceproperties.hidesubtitle">0</property>
  <property name="kdenlive:sequenceproperties.position">67819</property>
  <property name="kdenlive:sequenceproperties.scrollPos">161373</property>
  <property name="kdenlive:sequenceproperties.subtitlesList">[
    {
        "file": "AppData/Local/Temp/1753751336090-{6e47e85e-d44d-4d7f-bdb6-9f4b40723125}.ass",
        "id": 0,
        "name": "Subtitles"
    }
]
</property>
  <property name="kdenlive:sequenceproperties.tracks">4</property>
  <property name="kdenlive:sequenceproperties.tracksCount">4</property>
  <property name="kdenlive:sequenceproperties.verticalzoom">1</property>
  <property name="kdenlive:sequenceproperties.videoTarget">2</property>
  <property name="kdenlive:sequenceproperties.zonein">0</property>
  <property name="kdenlive:sequenceproperties.zoneout">75</property>
  <property name="kdenlive:sequenceproperties.zoom">5</property>
  <property name="kdenlive:sequenceproperties.groups">[
    {
        "children": [
            {
                "data": "-2:131813:0",
                "leaf": "subtitle",
                "type": "Leaf"
            },
            {
                "data": "-2:132244:0",
                "leaf": "subtitle",
                "type": "Leaf"
            },
            {
                "data": "-2:132061:0",
                "leaf": "subtitle",
                "type": "Leaf"
            },
            {
                "data": "-2:131879:0",
                "leaf": "subtitle",
                "type": "Leaf"
            },
            {
                "data": "-2:130850:0",
                "leaf": "subtitle",
                "type": "Leaf"
            },
            {
                "data": "-2:131944:0",
                "leaf": "subtitle",
                "type": "Leaf"
            },
            {
                "children": [
                    {
                        "data": "1:108438:-1",
                        "leaf": "clip",
                        "type": "Leaf"
                    },
                    {
                        "data": "2:108450:-1",
                        "leaf": "clip",
                        "type": "Leaf"
                    }
                ],
                "type": "AVSplit"
            },
            {
                "data": "-2:121065:0",
                "leaf": "subtitle",
                "type": "Leaf"
            },
            {
                "data": "-2:125691:0",
                "leaf": "subtitle",
                "type": "Leaf"
            },
            {
                "data": "-2:121383:0",
                "leaf": "subtitle",
                "type": "Leaf"
            },
            {
                "data": "-2:125882:0",
                "leaf": "subtitle",
                "type": "Leaf"
            },
            {
                "data": "-2:121950:0",
                "leaf": "subtitle",
                "type": "Leaf"
            },
            {
                "data": "-2:126034:0",
                "leaf": "subtitle",
                "type": "Leaf"
            },
            {
                "data": "-2:122052:0",
                "leaf": "subtitle",
                "type": "Leaf"
            },
            {
                "data": "-2:126174:0",
                "leaf": "subtitle",
                "type": "Leaf"
            },
            {
                "data": "-2:122208:0",
                "leaf": "subtitle",
                "type": "Leaf"
            },
            {
                "data": "-2:126300:0",
                "leaf": "subtitle",
                "type": "Leaf"
            },
            {
                "data": "-2:122305:0",
                "leaf": "subtitle",
                "type": "Leaf"
            },
            {
                "data": "-2:126373:0",
                "leaf": "subtitle",
                "type": "Leaf"
            },
            {
                "data": "-2:122809:0",
                "leaf": "subtitle",
                "type": "Leaf"
            },
            {
                "data": "-2:126500:0",
                "leaf": "subtitle",
                "type": "Leaf"
            },
            {
                "data": "-2:122936:0",
                "leaf": "subtitle",
                "type": "Leaf"
            },
            {
                "data": "-2:126545:0",
                "leaf": "subtitle",
                "type": "Leaf"
            },
            {
                "data": "-2:123023:0",
                "leaf": "subtitle",
                "type": "Leaf"
            },
            {
                "data": "-2:126621:0",
                "leaf": "subtitle",
                "type": "Leaf"
            },
            {
                "data": "-2:123094:0",
                "leaf": "subtitle",
                "type": "Leaf"
            },
            {
                "data": "-2:123354:0",
                "leaf": "subtitle",
                "type": "Leaf"
            },
            {
                "data": "-2:123466:0",
                "leaf": "subtitle",
                "type": "Leaf"
            },
            {
                "data": "-2:123521:0",
                "leaf": "subtitle",
                "type": "Leaf"
            },
            {
                "data": "-2:123584:0",
                "leaf": "subtitle",
                "type": "Leaf"
            },
            {
                "data": "-2:124362:0",
                "leaf": "subtitle",
                "type": "Leaf"
            },
            {
                "data": "-2:124440:0",
                "leaf": "subtitle",
                "type": "Leaf"
            },
            {
                "data": "-2:124557:0",
                "leaf": "subtitle",
                "type": "Leaf"
            },
            {
                "data": "-2:124698:0",
                "leaf": "subtitle",
                "type": "Leaf"
            },
            {
                "data": "-2:124764:0",
                "leaf": "subtitle",
                "type": "Leaf"
            },
            {
                "data": "-2:124820:0",
                "leaf": "subtitle",
                "type": "Leaf"
            },
            {
                "data": "-2:124870:0",
                "leaf": "subtitle",
                "type": "Leaf"
            },
            {
                "data": "-2:124999:0",
                "leaf": "subtitle",
                "type": "Leaf"
            },
            {
                "data": "-2:125077:0",
                "leaf": "subtitle",
                "type": "Leaf"
            },
            {
                "data": "-2:125143:0",
                "leaf": "subtitle",
                "type": "Leaf"
            },
            {
                "data": "-2:125362:0",
                "leaf": "subtitle",
                "type": "Leaf"
            },
            {
                "data": "-2:125459:0",
                "leaf": "subtitle",
                "type": "Leaf"
            },
            {
                "data": "-2:125534:0",
                "leaf": "subtitle",
                "type": "Leaf"
            },
            {
                "data": "-2:119795:0",
                "leaf": "subtitle",
                "type": "Leaf"
            },
            {
                "data": "-2:127661:0",
                "leaf": "subtitle",
                "type": "Leaf"
            },
            {
                "data": "-2:127409:0",
                "leaf": "subtitle",
                "type": "Leaf"
            },
            {
                "data": "-2:127306:0",
                "leaf": "subtitle",
                "type": "Leaf"
            },
            {
                "data": "-2:128592:0",
                "leaf": "subtitle",
                "type": "Leaf"
            },
            {
                "data": "-2:128472:0",
                "leaf": "subtitle",
                "type": "Leaf"
            },
            {
                "data": "-2:110289:0",
                "leaf": "subtitle",
                "type": "Leaf"
            },
            {
                "data": "-2:110391:0",
                "leaf": "subtitle",
                "type": "Leaf"
            },
            {
                "data": "-2:110489:0",
                "leaf": "subtitle",
                "type": "Leaf"
            },
            {
                "data": "-2:110558:0",
                "leaf": "subtitle",
                "type": "Leaf"
            },
            {
                "data": "-2:110934:0",
                "leaf": "subtitle",
                "type": "Leaf"
            },
            {
                "data": "-2:111453:0",
                "leaf": "subtitle",
                "type": "Leaf"
            },
            {
                "data": "-2:126794:0",
                "leaf": "subtitle",
                "type": "Leaf"
            },
            {
                "data": "-2:109817:0",
                "leaf": "subtitle",
                "type": "Leaf"
            },
            {
                "data": "-2:110042:0",
                "leaf": "subtitle",
                "type": "Leaf"
            },
            {
                "data": "-2:110193:0",
                "leaf": "subtitle",
                "type": "Leaf"
            },
            {
                "data": "-2:109151:0",
                "leaf": "subtitle",
                "type": "Leaf"
            },
            {
                "data": "-2:109198:0",
                "leaf": "subtitle",
                "type": "Leaf"
            },
            {
                "data": "-2:127057:0",
                "leaf": "subtitle",
                "type": "Leaf"
            },
            {
                "data": "-2:127193:0",
                "leaf": "subtitle",
                "type": "Leaf"
            },
            {
                "data": "-2:127777:0",
                "leaf": "subtitle",
                "type": "Leaf"
            },
            {
                "data": "-2:128241:0",
                "leaf": "subtitle",
                "type": "Leaf"
            },
            {
                "data": "-2:128704:0",
                "leaf": "subtitle",
                "type": "Leaf"
            },
            {
                "data": "-2:128823:0",
                "leaf": "subtitle",
                "type": "Leaf"
            },
            {
                "data": "-2:129110:0",
                "leaf": "subtitle",
                "type": "Leaf"
            },
            {
                "data": "-2:129760:0",
                "leaf": "subtitle",
                "type": "Leaf"
            },
            {
                "data": "-2:129954:0",
                "leaf": "subtitle",
                "type": "Leaf"
            },
            {
                "data": "-2:130019:0",
                "leaf": "subtitle",
                "type": "Leaf"
            },
            {
                "data": "-2:130155:0",
                "leaf": "subtitle",
                "type": "Leaf"
            },
            {
                "data": "-2:130329:0",
                "leaf": "subtitle",
                "type": "Leaf"
            },
            {
                "data": "-2:130789:0",
                "leaf": "subtitle",
                "type": "Leaf"
            },
            {
                "data": "-2:117640:0",
                "leaf": "subtitle",
                "type": "Leaf"
            },
            {
                "data": "-2:128376:0",
                "leaf": "subtitle",
                "type": "Leaf"
            },
            {
                "data": "-2:117707:0",
                "leaf": "subtitle",
                "type": "Leaf"
            },
            {
                "data": "-2:118496:0",
                "leaf": "subtitle",
                "type": "Leaf"
            },
            {
                "data": "-2:118652:0",
                "leaf": "subtitle",
                "type": "Leaf"
            },
            {
                "data": "-2:118958:0",
                "leaf": "subtitle",
                "type": "Leaf"
            },
            {
                "data": "-2:119329:0",
                "leaf": "subtitle",
                "type": "Leaf"
            },
            {
                "data": "-2:119262:0",
                "leaf": "subtitle",
                "type": "Leaf"
            },
            {
                "data": "-2:119162:0",
                "leaf": "subtitle",
                "type": "Leaf"
            },
            {
                "data": "-2:119379:0",
                "leaf": "subtitle",
                "type": "Leaf"
            },
            {
                "data": "-2:119620:0",
                "leaf": "subtitle",
                "type": "Leaf"
            },
            {
                "data": "-2:119717:0",
                "leaf": "subtitle",
                "type": "Leaf"
            },
            {
                "data": "-2:119889:0",
                "leaf": "subtitle",
                "type": "Leaf"
            },
            {
                "data": "-2:120867:0",
                "leaf": "subtitle",
                "type": "Leaf"
            },
            {
                "data": "-2:132338:0",
                "leaf": "subtitle",
                "type": "Leaf"
            },
            {
                "data": "-2:130885:0",
                "leaf": "subtitle",
                "type": "Leaf"
            },
            {
                "children": [
                    {
                        "data": "1:108082:-1",
                        "leaf": "clip",
                        "type": "Leaf"
                    },
                    {
                        "data": "2:108082:-1",
                        "leaf": "clip",
                        "type": "Leaf"
                    }
                ],
                "type": "AVSplit"
            },
            {
                "data": "-2:116251:0",
                "leaf": "subtitle",
                "type": "Leaf"
            },
            {
                "data": "-2:112160:0",
                "leaf": "subtitle",
                "type": "Leaf"
            },
            {
                "data": "-2:116419:0",
                "leaf": "subtitle",
                "type": "Leaf"
            },
            {
                "data": "-2:112338:0",
                "leaf": "subtitle",
                "type": "Leaf"
            },
            {
                "data": "-2:113301:0",
                "leaf": "subtitle",
                "type": "Leaf"
            },
            {
                "data": "-2:108839:0",
                "leaf": "subtitle",
                "type": "Leaf"
            },
            {
                "data": "-2:116787:0",
                "leaf": "subtitle",
                "type": "Leaf"
            },
            {
                "data": "-2:112821:0",
                "leaf": "subtitle",
                "type": "Leaf"
            },
            {
                "data": "-2:112514:0",
                "leaf": "subtitle",
                "type": "Leaf"
            },
            {
                "data": "-2:114167:0",
                "leaf": "subtitle",
                "type": "Leaf"
            },
            {
                "data": "-2:108929:0",
                "leaf": "subtitle",
                "type": "Leaf"
            },
            {
                "data": "-2:116117:0",
                "leaf": "subtitle",
                "type": "Leaf"
            },
            {
                "data": "-2:114943:0",
                "leaf": "subtitle",
                "type": "Leaf"
            },
            {
                "data": "-2:108578:0",
                "leaf": "subtitle",
                "type": "Leaf"
            },
            {
                "data": "-2:116032:0",
                "leaf": "subtitle",
                "type": "Leaf"
            },
            {
                "data": "-2:109404:0",
                "leaf": "subtitle",
                "type": "Leaf"
            },
            {
                "data": "-2:109336:0",
                "leaf": "subtitle",
                "type": "Leaf"
            },
            {
                "data": "-2:115401:0",
                "leaf": "subtitle",
                "type": "Leaf"
            },
            {
                "data": "-2:113222:0",
                "leaf": "subtitle",
                "type": "Leaf"
            },
            {
                "data": "-2:108727:0",
                "leaf": "subtitle",
                "type": "Leaf"
            },
            {
                "data": "-2:113146:0",
                "leaf": "subtitle",
                "type": "Leaf"
            },
            {
                "data": "-2:108657:0",
                "leaf": "subtitle",
                "type": "Leaf"
            },
            {
                "data": "-2:115082:0",
                "leaf": "subtitle",
                "type": "Leaf"
            },
            {
                "data": "-2:116185:0",
                "leaf": "subtitle",
                "type": "Leaf"
            },
            {
                "data": "-2:112710:0",
                "leaf": "subtitle",
                "type": "Leaf"
            },
            {
                "data": "-2:109054:0",
                "leaf": "subtitle",
                "type": "Leaf"
            },
            {
                "data": "-2:114727:0",
                "leaf": "subtitle",
                "type": "Leaf"
            },
            {
                "data": "-2:116879:0",
                "leaf": "subtitle",
                "type": "Leaf"
            },
            {
                "data": "-2:112013:0",
                "leaf": "subtitle",
                "type": "Leaf"
            },
            {
                "data": "-2:111861:0",
                "leaf": "subtitle",
                "type": "Leaf"
            },
            {
                "data": "-2:111695:0",
                "leaf": "subtitle",
                "type": "Leaf"
            },
            {
                "data": "-2:111567:0",
                "leaf": "subtitle",
                "type": "Leaf"
            }
        ],
        "type": "Normal"
    },
    {
        "children": [
            {
                "data": "-2:101662:0",
                "leaf": "subtitle",
                "type": "Leaf"
            },
            {
                "data": "-2:101042:0",
                "leaf": "subtitle",
                "type": "Leaf"
            },
            {
                "data": "-2:106218:0",
                "leaf": "subtitle",
                "type": "Leaf"
            },
            {
                "data": "-2:92426:0",
                "leaf": "subtitle",
                "type": "Leaf"
            },
            {
                "data": "-2:101208:0",
                "leaf": "subtitle",
                "type": "Leaf"
            },
            {
                "data": "-2:100877:0",
                "leaf": "subtitle",
                "type": "Leaf"
            },
            {
                "data": "-2:106095:0",
                "leaf": "subtitle",
                "type": "Leaf"
            },
            {
                "data": "-2:99201:0",
                "leaf": "subtitle",
                "type": "Leaf"
            },
            {
                "data": "-2:97004:0",
                "leaf": "subtitle",
                "type": "Leaf"
            },
            {
                "data": "-2:92986:0",
                "leaf": "subtitle",
                "type": "Leaf"
            },
            {
                "data": "-2:101315:0",
                "leaf": "subtitle",
                "type": "Leaf"
            },
            {
                "data": "-2:97100:0",
                "leaf": "subtitle",
                "type": "Leaf"
            },
            {
                "data": "-2:93066:0",
                "leaf": "subtitle",
                "type": "Leaf"
            },
            {
                "data": "-2:97189:0",
                "leaf": "subtitle",
                "type": "Leaf"
            },
            {
                "data": "-2:93235:0",
                "leaf": "subtitle",
                "type": "Leaf"
            },
            {
                "data": "-2:97246:0",
                "leaf": "subtitle",
                "type": "Leaf"
            },
            {
                "data": "-2:93285:0",
                "leaf": "subtitle",
                "type": "Leaf"
            },
            {
                "data": "-2:101708:0",
                "leaf": "subtitle",
                "type": "Leaf"
            },
            {
                "data": "-2:97319:0",
                "leaf": "subtitle",
                "type": "Leaf"
            },
            {
                "data": "-2:93497:0",
                "leaf": "subtitle",
                "type": "Leaf"
            },
            {
                "data": "-2:101800:0",
                "leaf": "subtitle",
                "type": "Leaf"
            },
            {
                "data": "-2:97414:0",
                "leaf": "subtitle",
                "type": "Leaf"
            },
            {
                "data": "-2:93542:0",
                "leaf": "subtitle",
                "type": "Leaf"
            },
            {
                "data": "-2:97735:0",
                "leaf": "subtitle",
                "type": "Leaf"
            },
            {
                "data": "-2:93839:0",
                "leaf": "subtitle",
                "type": "Leaf"
            },
            {
                "data": "-2:97819:0",
                "leaf": "subtitle",
                "type": "Leaf"
            },
            {
                "data": "-2:93881:0",
                "leaf": "subtitle",
                "type": "Leaf"
            },
            {
                "data": "-2:97960:0",
                "leaf": "subtitle",
                "type": "Leaf"
            },
            {
                "data": "-2:94557:0",
                "leaf": "subtitle",
                "type": "Leaf"
            },
            {
                "data": "-2:98041:0",
                "leaf": "subtitle",
                "type": "Leaf"
            },
            {
                "data": "-2:94778:0",
                "leaf": "subtitle",
                "type": "Leaf"
            },
            {
                "data": "-2:98087:0",
                "leaf": "subtitle",
                "type": "Leaf"
            },
            {
                "children": [
                    {
                        "data": "1:91401:-1",
                        "leaf": "clip",
                        "type": "Leaf"
                    },
                    {
                        "data": "2:91401:-1",
                        "leaf": "clip",
                        "type": "Leaf"
                    }
                ],
                "type": "AVSplit"
            },
            {
                "children": [
                    {
                        "data": "2:98281:-1",
                        "leaf": "clip",
                        "type": "Leaf"
                    },
                    {
                        "data": "1:98262:-1",
                        "leaf": "clip",
                        "type": "Leaf"
                    }
                ],
                "type": "AVSplit"
            },
            {
                "data": "-2:98286:0",
                "leaf": "subtitle",
                "type": "Leaf"
            },
            {
                "data": "-2:104989:0",
                "leaf": "subtitle",
                "type": "Leaf"
            },
            {
                "data": "-2:105096:0",
                "leaf": "subtitle",
                "type": "Leaf"
            },
            {
                "data": "-2:94937:0",
                "leaf": "subtitle",
                "type": "Leaf"
            },
            {
                "data": "-2:95152:0",
                "leaf": "subtitle",
                "type": "Leaf"
            },
            {
                "data": "-2:95211:0",
                "leaf": "subtitle",
                "type": "Leaf"
            },
            {
                "data": "-2:95354:0",
                "leaf": "subtitle",
                "type": "Leaf"
            },
            {
                "data": "-2:99162:0",
                "leaf": "subtitle",
                "type": "Leaf"
            },
            {
                "data": "-2:92663:0",
                "leaf": "subtitle",
                "type": "Leaf"
            },
            {
                "data": "-2:100123:0",
                "leaf": "subtitle",
                "type": "Leaf"
            },
            {
                "data": "-2:105963:0",
                "leaf": "subtitle",
                "type": "Leaf"
            },
            {
                "data": "-2:99761:0",
                "leaf": "subtitle",
                "type": "Leaf"
            },
            {
                "data": "-2:105717:0",
                "leaf": "subtitle",
                "type": "Leaf"
            },
            {
                "data": "-2:105847:0",
                "leaf": "subtitle",
                "type": "Leaf"
            },
            {
                "data": "-2:100003:0",
                "leaf": "subtitle",
                "type": "Leaf"
            },
            {
                "data": "-2:99339:0",
                "leaf": "subtitle",
                "type": "Leaf"
            },
            {
                "data": "-2:105294:0",
                "leaf": "subtitle",
                "type": "Leaf"
            },
            {
                "data": "-2:92589:0",
                "leaf": "subtitle",
                "type": "Leaf"
            },
            {
                "data": "-2:101566:0",
                "leaf": "subtitle",
                "type": "Leaf"
            },
            {
                "data": "-2:106059:0",
                "leaf": "subtitle",
                "type": "Leaf"
            },
            {
                "data": "-2:100799:0",
                "leaf": "subtitle",
                "type": "Leaf"
            },
            {
                "data": "-2:96294:0",
                "leaf": "subtitle",
                "type": "Leaf"
            },
            {
                "data": "-2:96469:0",
                "leaf": "subtitle",
                "type": "Leaf"
            },
            {
                "data": "-2:92314:0",
                "leaf": "subtitle",
                "type": "Leaf"
            },
            {
                "data": "-2:96625:0",
                "leaf": "subtitle",
                "type": "Leaf"
            },
            {
                "data": "-2:92928:0",
                "leaf": "subtitle",
                "type": "Leaf"
            },
            {
                "data": "-2:96149:0",
                "leaf": "subtitle",
                "type": "Leaf"
            },
            {
                "data": "-2:96240:0",
                "leaf": "subtitle",
                "type": "Leaf"
            },
            {
                "data": "-2:96525:0",
                "leaf": "subtitle",
                "type": "Leaf"
            },
            {
                "data": "-2:92873:0",
                "leaf": "subtitle",
                "type": "Leaf"
            },
            {
                "data": "-2:92148:0",
                "leaf": "subtitle",
                "type": "Leaf"
            },
            {
                "data": "-2:95803:0",
                "leaf": "subtitle",
                "type": "Leaf"
            },
            {
                "data": "-2:95674:0",
                "leaf": "subtitle",
                "type": "Leaf"
            },
            {
                "data": "-2:92770:0",
                "leaf": "subtitle",
                "type": "Leaf"
            },
            {
                "data": "-2:95510:0",
                "leaf": "subtitle",
                "type": "Leaf"
            },
            {
                "data": "-2:95989:0",
                "leaf": "subtitle",
                "type": "Leaf"
            },
            {
                "data": "-2:105796:0",
                "leaf": "subtitle",
                "type": "Leaf"
            },
            {
                "data": "-2:99885:0",
                "leaf": "subtitle",
                "type": "Leaf"
            },
            {
                "data": "-2:101162:0",
                "leaf": "subtitle",
                "type": "Leaf"
            },
            {
                "data": "-2:97550:0",
                "leaf": "subtitle",
                "type": "Leaf"
            },
            {
                "data": "-2:102117:0",
                "leaf": "subtitle",
                "type": "Leaf"
            },
            {
                "data": "-2:97647:0",
                "leaf": "subtitle",
                "type": "Leaf"
            },
            {
                "data": "-2:93768:0",
                "leaf": "subtitle",
                "type": "Leaf"
            },
            {
                "data": "-2:93688:0",
                "leaf": "subtitle",
                "type": "Leaf"
            },
            {
                "data": "-2:102669:0",
                "leaf": "subtitle",
                "type": "Leaf"
            },
            {
                "data": "-2:102913:0",
                "leaf": "subtitle",
                "type": "Leaf"
            },
            {
                "data": "-2:103188:0",
                "leaf": "subtitle",
                "type": "Leaf"
            },
            {
                "data": "-2:105237:0",
                "leaf": "subtitle",
                "type": "Leaf"
            },
            {
                "data": "-2:103101:0",
                "leaf": "subtitle",
                "type": "Leaf"
            },
            {
                "data": "-2:102951:0",
                "leaf": "subtitle",
                "type": "Leaf"
            },
            {
                "data": "-2:103012:0",
                "leaf": "subtitle",
                "type": "Leaf"
            },
            {
                "data": "-2:98158:0",
                "leaf": "subtitle",
                "type": "Leaf"
            },
            {
                "data": "-2:104626:0",
                "leaf": "subtitle",
                "type": "Leaf"
            },
            {
                "data": "-2:98308:0",
                "leaf": "subtitle",
                "type": "Leaf"
            },
            {
                "data": "-2:95297:0",
                "leaf": "subtitle",
                "type": "Leaf"
            },
            {
                "children": [
                    {
                        "data": "1:98297:-1",
                        "leaf": "clip",
                        "type": "Leaf"
                    },
                    {
                        "data": "2:98306:-1",
                        "leaf": "clip",
                        "type": "Leaf"
                    }
                ],
                "type": "AVSplit"
            },
            {
                "data": "-2:104914:0",
                "leaf": "subtitle",
                "type": "Leaf"
            }
        ],
        "type": "Normal"
    },
    {
        "children": [
            {
                "data": "-2:67608:0",
                "leaf": "subtitle",
                "type": "Leaf"
            },
            {
                "data": "-2:67865:0",
                "leaf": "subtitle",
                "type": "Leaf"
            },
            {
                "data": "-2:74283:0",
                "leaf": "subtitle",
                "type": "Leaf"
            },
            {
                "data": "-2:70599:0",
                "leaf": "subtitle",
                "type": "Leaf"
            },
            {
                "data": "-2:68015:0",
                "leaf": "subtitle",
                "type": "Leaf"
            },
            {
                "data": "-2:70321:0",
                "leaf": "subtitle",
                "type": "Leaf"
            },
            {
                "data": "-2:69636:0",
                "leaf": "subtitle",
                "type": "Leaf"
            },
            {
                "data": "-2:67935:0",
                "leaf": "subtitle",
                "type": "Leaf"
            },
            {
                "data": "-2:88477:0",
                "leaf": "subtitle",
                "type": "Leaf"
            },
            {
                "children": [
                    {
                        "data": "2:78810:-1",
                        "leaf": "clip",
                        "type": "Leaf"
                    },
                    {
                        "data": "1:78798:-1",
                        "leaf": "clip",
                        "type": "Leaf"
                    }
                ],
                "type": "AVSplit"
            },
            {
                "data": "-2:86006:0",
                "leaf": "subtitle",
                "type": "Leaf"
            },
            {
                "data": "-2:86124:0",
                "leaf": "subtitle",
                "type": "Leaf"
            },
            {
                "data": "-2:88647:0",
                "leaf": "subtitle",
                "type": "Leaf"
            },
            {
                "data": "-2:86862:0",
                "leaf": "subtitle",
                "type": "Leaf"
            },
            {
                "data": "-2:78639:0",
                "leaf": "subtitle",
                "type": "Leaf"
            },
            {
                "data": "-2:75114:0",
                "leaf": "subtitle",
                "type": "Leaf"
            },
            {
                "children": [
                    {
                        "data": "1:83761:-1",
                        "leaf": "clip",
                        "type": "Leaf"
                    },
                    {
                        "data": "2:83766:-1",
                        "leaf": "clip",
                        "type": "Leaf"
                    }
                ],
                "type": "AVSplit"
            },
            {
                "children": [
                    {
                        "data": "1:67602:-1",
                        "leaf": "clip",
                        "type": "Leaf"
                    },
                    {
                        "data": "2:67602:-1",
                        "leaf": "clip",
                        "type": "Leaf"
                    }
                ],
                "type": "AVSplit"
            },
            {
                "data": "-2:87186:0",
                "leaf": "subtitle",
                "type": "Leaf"
            },
            {
                "data": "-2:81806:0",
                "leaf": "subtitle",
                "type": "Leaf"
            },
            {
                "data": "-2:88561:0",
                "leaf": "subtitle",
                "type": "Leaf"
            },
            {
                "data": "-2:85453:0",
                "leaf": "subtitle",
                "type": "Leaf"
            },
            {
                "data": "-2:85401:0",
                "leaf": "subtitle",
                "type": "Leaf"
            },
            {
                "data": "-2:84985:0",
                "leaf": "subtitle",
                "type": "Leaf"
            },
            {
                "data": "-2:79974:0",
                "leaf": "subtitle",
                "type": "Leaf"
            },
            {
                "data": "-2:84945:0",
                "leaf": "subtitle",
                "type": "Leaf"
            },
            {
                "data": "-2:79877:0",
                "leaf": "subtitle",
                "type": "Leaf"
            },
            {
                "data": "-2:84881:0",
                "leaf": "subtitle",
                "type": "Leaf"
            },
            {
                "data": "-2:84817:0",
                "leaf": "subtitle",
                "type": "Leaf"
            },
            {
                "data": "-2:85518:0",
                "leaf": "subtitle",
                "type": "Leaf"
            },
            {
                "data": "-2:80531:0",
                "leaf": "subtitle",
                "type": "Leaf"
            },
            {
                "data": "-2:89101:0",
                "leaf": "subtitle",
                "type": "Leaf"
            },
            {
                "data": "-2:83171:0",
                "leaf": "subtitle",
                "type": "Leaf"
            },
            {
                "data": "-2:74856:0",
                "leaf": "subtitle",
                "type": "Leaf"
            },
            {
                "data": "-2:79293:0",
                "leaf": "subtitle",
                "type": "Leaf"
            },
            {
                "data": "-2:74696:0",
                "leaf": "subtitle",
                "type": "Leaf"
            },
            {
                "data": "-2:80335:0",
                "leaf": "subtitle",
                "type": "Leaf"
            },
            {
                "data": "-2:74389:0",
                "leaf": "subtitle",
                "type": "Leaf"
            },
            {
                "data": "-2:80722:0",
                "leaf": "subtitle",
                "type": "Leaf"
            },
            {
                "data": "-2:75020:0",
                "leaf": "subtitle",
                "type": "Leaf"
            },
            {
                "data": "-2:76417:0",
                "leaf": "subtitle",
                "type": "Leaf"
            },
            {
                "data": "-2:81891:0",
                "leaf": "subtitle",
                "type": "Leaf"
            },
            {
                "data": "-2:83074:0",
                "leaf": "subtitle",
                "type": "Leaf"
            },
            {
                "children": [
                    {
                        "data": "1:76811:-1",
                        "leaf": "clip",
                        "type": "Leaf"
                    },
                    {
                        "data": "2:76845:-1",
                        "leaf": "clip",
                        "type": "Leaf"
                    }
                ],
                "type": "AVSplit"
            },
            {
                "data": "-2:75261:0",
                "leaf": "subtitle",
                "type": "Leaf"
            },
            {
                "data": "-2:74912:0",
                "leaf": "subtitle",
                "type": "Leaf"
            },
            {
                "data": "-2:88998:0",
                "leaf": "subtitle",
                "type": "Leaf"
            },
            {
                "data": "-2:79465:0",
                "leaf": "subtitle",
                "type": "Leaf"
            },
            {
                "data": "-2:73619:0",
                "leaf": "subtitle",
                "type": "Leaf"
            },
            {
                "children": [
                    {
                        "data": "1:84933:-1",
                        "leaf": "clip",
                        "type": "Leaf"
                    },
                    {
                        "data": "2:85015:-1",
                        "leaf": "clip",
                        "type": "Leaf"
                    }
                ],
                "type": "AVSplit"
            },
            {
                "data": "-2:76743:0",
                "leaf": "subtitle",
                "type": "Leaf"
            },
            {
                "data": "-2:74524:0",
                "leaf": "subtitle",
                "type": "Leaf"
            },
            {
                "data": "-2:68152:0",
                "leaf": "subtitle",
                "type": "Leaf"
            },
            {
                "data": "-2:84585:0",
                "leaf": "subtitle",
                "type": "Leaf"
            },
            {
                "data": "-2:78601:0",
                "leaf": "subtitle",
                "type": "Leaf"
            },
            {
                "data": "-2:71808:0",
                "leaf": "subtitle",
                "type": "Leaf"
            },
            {
                "data": "-2:73543:0",
                "leaf": "subtitle",
                "type": "Leaf"
            },
            {
                "data": "-2:78521:0",
                "leaf": "subtitle",
                "type": "Leaf"
            },
            {
                "data": "-2:74019:0",
                "leaf": "subtitle",
                "type": "Leaf"
            },
            {
                "data": "-2:73745:0",
                "leaf": "subtitle",
                "type": "Leaf"
            },
            {
                "data": "-2:71869:0",
                "leaf": "subtitle",
                "type": "Leaf"
            },
            {
                "children": [
                    {
                        "data": "2:83790:-1",
                        "leaf": "clip",
                        "type": "Leaf"
                    },
                    {
                        "data": "1:83785:-1",
                        "leaf": "clip",
                        "type": "Leaf"
                    }
                ],
                "type": "AVSplit"
            },
            {
                "data": "-2:78369:0",
                "leaf": "subtitle",
                "type": "Leaf"
            },
            {
                "data": "-2:73447:0",
                "leaf": "subtitle",
                "type": "Leaf"
            },
            {
                "data": "-2:79543:0",
                "leaf": "subtitle",
                "type": "Leaf"
            },
            {
                "data": "-2:70654:0",
                "leaf": "subtitle",
                "type": "Leaf"
            },
            {
                "data": "-2:79182:0",
                "leaf": "subtitle",
                "type": "Leaf"
            },
            {
                "data": "-2:78945:0",
                "leaf": "subtitle",
                "type": "Leaf"
            },
            {
                "data": "-2:83548:0",
                "leaf": "subtitle",
                "type": "Leaf"
            },
            {
                "data": "-2:74109:0",
                "leaf": "subtitle",
                "type": "Leaf"
            },
            {
                "data": "-2:72687:0",
                "leaf": "subtitle",
                "type": "Leaf"
            },
            {
                "data": "-2:78445:0",
                "leaf": "subtitle",
                "type": "Leaf"
            },
            {
                "data": "-2:83411:0",
                "leaf": "subtitle",
                "type": "Leaf"
            },
            {
                "data": "-2:83445:0",
                "leaf": "subtitle",
                "type": "Leaf"
            },
            {
                "data": "-2:84313:0",
                "leaf": "subtitle",
                "type": "Leaf"
            },
            {
                "data": "-2:78713:0",
                "leaf": "subtitle",
                "type": "Leaf"
            },
            {
                "data": "-2:81977:0",
                "leaf": "subtitle",
                "type": "Leaf"
            },
            {
                "data": "-2:76511:0",
                "leaf": "subtitle",
                "type": "Leaf"
            },
            {
                "data": "-2:76288:0",
                "leaf": "subtitle",
                "type": "Leaf"
            },
            {
                "data": "-2:76601:0",
                "leaf": "subtitle",
                "type": "Leaf"
            },
            {
                "data": "-2:82701:0",
                "leaf": "subtitle",
                "type": "Leaf"
            },
            {
                "data": "-2:84764:0",
                "leaf": "subtitle",
                "type": "Leaf"
            },
            {
                "data": "-2:78697:0",
                "leaf": "subtitle",
                "type": "Leaf"
            },
            {
                "data": "-2:84695:0",
                "leaf": "subtitle",
                "type": "Leaf"
            },
            {
                "data": "-2:80602:0",
                "leaf": "subtitle",
                "type": "Leaf"
            },
            {
                "data": "-2:80284:0",
                "leaf": "subtitle",
                "type": "Leaf"
            },
            {
                "data": "-2:84639:0",
                "leaf": "subtitle",
                "type": "Leaf"
            },
            {
                "data": "-2:80029:0",
                "leaf": "subtitle",
                "type": "Leaf"
            },
            {
                "data": "-2:71718:0",
                "leaf": "subtitle",
                "type": "Leaf"
            },
            {
                "data": "-2:75062:0",
                "leaf": "subtitle",
                "type": "Leaf"
            },
            {
                "data": "-2:89218:0",
                "leaf": "subtitle",
                "type": "Leaf"
            },
            {
                "data": "-2:88771:0",
                "leaf": "subtitle",
                "type": "Leaf"
            },
            {
                "data": "-2:74438:0",
                "leaf": "subtitle",
                "type": "Leaf"
            },
            {
                "data": "-2:73979:0",
                "leaf": "subtitle",
                "type": "Leaf"
            },
            {
                "data": "-2:71139:0",
                "leaf": "subtitle",
                "type": "Leaf"
            },
            {
                "data": "-2:75568:0",
                "leaf": "subtitle",
                "type": "Leaf"
            },
            {
                "data": "-2:71628:0",
                "leaf": "subtitle",
                "type": "Leaf"
            },
            {
                "data": "-2:72623:0",
                "leaf": "subtitle",
                "type": "Leaf"
            },
            {
                "data": "-2:83231:0",
                "leaf": "subtitle",
                "type": "Leaf"
            },
            {
                "children": [
                    {
                        "data": "2:78276:-1",
                        "leaf": "clip",
                        "type": "Leaf"
                    },
                    {
                        "data": "1:78276:-1",
                        "leaf": "clip",
                        "type": "Leaf"
                    }
                ],
                "type": "AVSplit"
            },
            {
                "data": "-2:72074:0",
                "leaf": "subtitle",
                "type": "Leaf"
            },
            {
                "data": "-2:78279:0",
                "leaf": "subtitle",
                "type": "Leaf"
            },
            {
                "data": "-2:83109:0",
                "leaf": "subtitle",
                "type": "Leaf"
            },
            {
                "data": "-2:80778:0",
                "leaf": "subtitle",
                "type": "Leaf"
            },
            {
                "data": "-2:89421:0",
                "leaf": "subtitle",
                "type": "Leaf"
            },
            {
                "data": "-2:83283:0",
                "leaf": "subtitle",
                "type": "Leaf"
            },
            {
                "data": "-2:70993:0",
                "leaf": "subtitle",
                "type": "Leaf"
            },
            {
                "data": "-2:71580:0",
                "leaf": "subtitle",
                "type": "Leaf"
            },
            {
                "data": "-2:70890:0",
                "leaf": "subtitle",
                "type": "Leaf"
            },
            {
                "data": "-2:70818:0",
                "leaf": "subtitle",
                "type": "Leaf"
            }
        ],
        "type": "Normal"
    },
    {
        "children": [
            {
                "data": "-2:40586:0",
                "leaf": "subtitle",
                "type": "Leaf"
            },
            {
                "data": "-2:12721:0",
                "leaf": "subtitle",
                "type": "Leaf"
            },
            {
                "data": "-2:60009:0",
                "leaf": "subtitle",
                "type": "Leaf"
            },
            {
                "data": "-2:25721:0",
                "leaf": "subtitle",
                "type": "Leaf"
            },
            {
                "data": "-2:40231:0",
                "leaf": "subtitle",
                "type": "Leaf"
            },
            {
                "data": "-2:24453:0",
                "leaf": "subtitle",
                "type": "Leaf"
            },
            {
                "data": "-2:38623:0",
                "leaf": "subtitle",
                "type": "Leaf"
            },
            {
                "data": "-2:60832:0",
                "leaf": "subtitle",
                "type": "Leaf"
            },
            {
                "data": "-2:35498:0",
                "leaf": "subtitle",
                "type": "Leaf"
            },
            {
                "data": "-2:8040:0",
                "leaf": "subtitle",
                "type": "Leaf"
            },
            {
                "children": [
                    {
                        "data": "2:28044:-1",
                        "leaf": "clip",
                        "type": "Leaf"
                    },
                    {
                        "data": "1:28020:-1",
                        "leaf": "clip",
                        "type": "Leaf"
                    }
                ],
                "type": "AVSplit"
            },
            {
                "data": "-2:33695:0",
                "leaf": "subtitle",
                "type": "Leaf"
            },
            {
                "data": "-2:5421:0",
                "leaf": "subtitle",
                "type": "Leaf"
            },
            {
                "data": "-2:38022:0",
                "leaf": "subtitle",
                "type": "Leaf"
            },
            {
                "data": "-2:24138:0",
                "leaf": "subtitle",
                "type": "Leaf"
            },
            {
                "data": "-2:57688:0",
                "leaf": "subtitle",
                "type": "Leaf"
            },
            {
                "data": "-2:6475:0",
                "leaf": "subtitle",
                "type": "Leaf"
            },
            {
                "data": "-2:34652:0",
                "leaf": "subtitle",
                "type": "Leaf"
            },
            {
                "data": "-2:45562:0",
                "leaf": "subtitle",
                "type": "Leaf"
            },
            {
                "data": "-2:15156:0",
                "leaf": "subtitle",
                "type": "Leaf"
            },
            {
                "data": "-2:31585:0",
                "leaf": "subtitle",
                "type": "Leaf"
            },
            {
                "data": "-2:9498:0",
                "leaf": "subtitle",
                "type": "Leaf"
            },
            {
                "data": "-2:36626:0",
                "leaf": "subtitle",
                "type": "Leaf"
            },
            {
                "data": "-2:23883:0",
                "leaf": "subtitle",
                "type": "Leaf"
            },
            {
                "data": "-2:4225:0",
                "leaf": "subtitle",
                "type": "Leaf"
            },
            {
                "data": "-2:18441:0",
                "leaf": "subtitle",
                "type": "Leaf"
            },
            {
                "data": "-2:31475:0",
                "leaf": "subtitle",
                "type": "Leaf"
            },
            {
                "data": "-2:29158:0",
                "leaf": "subtitle",
                "type": "Leaf"
            },
            {
                "data": "-2:64678:0",
                "leaf": "subtitle",
                "type": "Leaf"
            },
            {
                "data": "-2:17312:0",
                "leaf": "subtitle",
                "type": "Leaf"
            },
            {
                "data": "-2:48003:0",
                "leaf": "subtitle",
                "type": "Leaf"
            },
            {
                "data": "-2:30794:0",
                "leaf": "subtitle",
                "type": "Leaf"
            },
            {
                "data": "-2:66648:0",
                "leaf": "subtitle",
                "type": "Leaf"
            },
            {
                "data": "-2:47756:0",
                "leaf": "subtitle",
                "type": "Leaf"
            },
            {
                "data": "-2:17067:0",
                "leaf": "subtitle",
                "type": "Leaf"
            },
            {
                "data": "-2:15542:0",
                "leaf": "subtitle",
                "type": "Leaf"
            },
            {
                "data": "-2:45850:0",
                "leaf": "subtitle",
                "type": "Leaf"
            },
            {
                "data": "-2:29643:0",
                "leaf": "subtitle",
                "type": "Leaf"
            },
            {
                "data": "-2:56785:0",
                "leaf": "subtitle",
                "type": "Leaf"
            },
            {
                "data": "-2:23518:0",
                "leaf": "subtitle",
                "type": "Leaf"
            },
            {
                "data": "-2:60749:0",
                "leaf": "subtitle",
                "type": "Leaf"
            },
            {
                "data": "-2:26514:0",
                "leaf": "subtitle",
                "type": "Leaf"
            },
            {
                "data": "-2:25114:0",
                "leaf": "subtitle",
                "type": "Leaf"
            },
            {
                "data": "-2:59352:0",
                "leaf": "subtitle",
                "type": "Leaf"
            },
            {
                "data": "-2:63426:0",
                "leaf": "subtitle",
                "type": "Leaf"
            },
            {
                "data": "-2:26974:0",
                "leaf": "subtitle",
                "type": "Leaf"
            },
            {
                "data": "-2:44506:0",
                "leaf": "subtitle",
                "type": "Leaf"
            },
            {
                "data": "-2:13981:0",
                "leaf": "subtitle",
                "type": "Leaf"
            },
            {
                "data": "-2:63507:0",
                "leaf": "subtitle",
                "type": "Leaf"
            },
            {
                "data": "-2:27039:0",
                "leaf": "subtitle",
                "type": "Leaf"
            },
            {
                "data": "-2:14031:0",
                "leaf": "subtitle",
                "type": "Leaf"
            },
            {
                "data": "-2:60517:0",
                "leaf": "subtitle",
                "type": "Leaf"
            },
            {
                "data": "-2:26233:0",
                "leaf": "subtitle",
                "type": "Leaf"
            },
            {
                "data": "-2:60319:0",
                "leaf": "subtitle",
                "type": "Leaf"
            },
            {
                "data": "-2:26005:0",
                "leaf": "subtitle",
                "type": "Leaf"
            },
            {
                "data": "-2:65685:0",
                "leaf": "subtitle",
                "type": "Leaf"
            },
            {
                "data": "-2:29793:0",
                "leaf": "subtitle",
                "type": "Leaf"
            },
            {
                "data": "-2:63339:0",
                "leaf": "subtitle",
                "type": "Leaf"
            },
            {
                "data": "-2:26903:0",
                "leaf": "subtitle",
                "type": "Leaf"
            },
            {
                "data": "-2:63605:0",
                "leaf": "subtitle",
                "type": "Leaf"
            },
            {
                "data": "-2:45905:0",
                "leaf": "subtitle",
                "type": "Leaf"
            },
            {
                "data": "-2:15113:0",
                "leaf": "subtitle",
                "type": "Leaf"
            },
            {
                "data": "-2:45281:0",
                "leaf": "subtitle",
                "type": "Leaf"
            },
            {
                "data": "-2:23574:0",
                "leaf": "subtitle",
                "type": "Leaf"
            },
            {
                "data": "-2:36278:0",
                "leaf": "subtitle",
                "type": "Leaf"
            },
            {
                "data": "-2:9457:0",
                "leaf": "subtitle",
                "type": "Leaf"
            },
            {
                "data": "-2:36523:0",
                "leaf": "subtitle",
                "type": "Leaf"
            },
            {
                "data": "-2:56276:0",
                "leaf": "subtitle",
                "type": "Leaf"
            },
            {
                "data": "-2:23190:0",
                "leaf": "subtitle",
                "type": "Leaf"
            },
            {
                "data": "-2:30931:0",
                "leaf": "subtitle",
                "type": "Leaf"
            },
            {
                "data": "-2:66807:0",
                "leaf": "subtitle",
                "type": "Leaf"
            },
            {
                "data": "-2:17814:0",
                "leaf": "subtitle",
                "type": "Leaf"
            },
            {
                "data": "-2:48142:0",
                "leaf": "subtitle",
                "type": "Leaf"
            },
            {
                "data": "-2:63656:0",
                "leaf": "subtitle",
                "type": "Leaf"
            },
            {
                "data": "-2:32681:0",
                "leaf": "subtitle",
                "type": "Leaf"
            },
            {
                "data": "-2:20488:0",
                "leaf": "subtitle",
                "type": "Leaf"
            },
            {
                "data": "-2:53761:0",
                "leaf": "subtitle",
                "type": "Leaf"
            },
            {
                "data": "-2:48404:0",
                "leaf": "subtitle",
                "type": "Leaf"
            },
            {
                "data": "-2:18034:0",
                "leaf": "subtitle",
                "type": "Leaf"
            },
            {
                "data": "-2:32191:0",
                "leaf": "subtitle",
                "type": "Leaf"
            },
            {
                "data": "-2:63900:0",
                "leaf": "subtitle",
                "type": "Leaf"
            },
            {
                "data": "-2:25427:0",
                "leaf": "subtitle",
                "type": "Leaf"
            },
            {
                "data": "-2:59874:0",
                "leaf": "subtitle",
                "type": "Leaf"
            },
            {
                "data": "-2:34906:0",
                "leaf": "subtitle",
                "type": "Leaf"
            },
            {
                "data": "-2:6867:0",
                "leaf": "subtitle",
                "type": "Leaf"
            },
            {
                "data": "-2:15360:0",
                "leaf": "subtitle",
                "type": "Leaf"
            },
            {
                "data": "-2:45677:0",
                "leaf": "subtitle",
                "type": "Leaf"
            },
            {
                "data": "-2:29293:0",
                "leaf": "subtitle",
                "type": "Leaf"
            },
            {
                "data": "-2:64762:0",
                "leaf": "subtitle",
                "type": "Leaf"
            },
            {
                "data": "-2:26609:0",
                "leaf": "subtitle",
                "type": "Leaf"
            },
            {
                "data": "-2:62532:0",
                "leaf": "subtitle",
                "type": "Leaf"
            },
            {
                "data": "-2:60608:0",
                "leaf": "subtitle",
                "type": "Leaf"
            },
            {
                "data": "-2:26322:0",
                "leaf": "subtitle",
                "type": "Leaf"
            },
            {
                "data": "-2:23344:0",
                "leaf": "subtitle",
                "type": "Leaf"
            },
            {
                "data": "-2:56557:0",
                "leaf": "subtitle",
                "type": "Leaf"
            },
            {
                "data": "-2:35105:0",
                "leaf": "subtitle",
                "type": "Leaf"
            },
            {
                "children": [
                    {
                        "data": "2:45435:-1",
                        "leaf": "clip",
                        "type": "Leaf"
                    },
                    {
                        "data": "1:45435:-1",
                        "leaf": "clip",
                        "type": "Leaf"
                    }
                ],
                "type": "AVSplit"
            },
            {
                "data": "-2:6380:0",
                "leaf": "subtitle",
                "type": "Leaf"
            },
            {
                "children": [
                    {
                        "data": "1:27921:-1",
                        "leaf": "clip",
                        "type": "Leaf"
                    },
                    {
                        "data": "2:27933:-1",
                        "leaf": "clip",
                        "type": "Leaf"
                    }
                ],
                "type": "AVSplit"
            },
            {
                "data": "-2:34600:0",
                "leaf": "subtitle",
                "type": "Leaf"
            },
            {
                "data": "-2:54209:0",
                "leaf": "subtitle",
                "type": "Leaf"
            },
            {
                "data": "-2:20971:0",
                "leaf": "subtitle",
                "type": "Leaf"
            },
            {
                "data": "-2:35287:0",
                "leaf": "subtitle",
                "type": "Leaf"
            },
            {
                "data": "-2:21792:0",
                "leaf": "subtitle",
                "type": "Leaf"
            },
            {
                "data": "-2:55312:0",
                "leaf": "subtitle",
                "type": "Leaf"
            },
            {
                "data": "-2:50899:0",
                "leaf": "subtitle",
                "type": "Leaf"
            },
            {
                "data": "-2:19620:0",
                "leaf": "subtitle",
                "type": "Leaf"
            },
            {
                "data": "-2:34072:0",
                "leaf": "subtitle",
                "type": "Leaf"
            },
            {
                "data": "-2:5621:0",
                "leaf": "subtitle",
                "type": "Leaf"
            },
            {
                "data": "-2:54021:0",
                "leaf": "subtitle",
                "type": "Leaf"
            },
            {
                "data": "-2:20695:0",
                "leaf": "subtitle",
                "type": "Leaf"
            },
            {
                "data": "-2:31323:0",
                "leaf": "subtitle",
                "type": "Leaf"
            },
            {
                "data": "-2:67445:0",
                "leaf": "subtitle",
                "type": "Leaf"
            },
            {
                "children": [
                    {
                        "data": "2:26056:-1",
                        "leaf": "clip",
                        "type": "Leaf"
                    },
                    {
                        "data": "1:26036:-1",
                        "leaf": "clip",
                        "type": "Leaf"
                    }
                ],
                "type": "AVSplit"
            },
            {
                "data": "-2:34556:0",
                "leaf": "subtitle",
                "type": "Leaf"
            },
            {
                "data": "-2:6303:0",
                "leaf": "subtitle",
                "type": "Leaf"
            },
            {
                "data": "-2:34975:0",
                "leaf": "subtitle",
                "type": "Leaf"
            },
            {
                "children": [
                    {
                        "data": "1:63093:-1",
                        "leaf": "clip",
                        "type": "Leaf"
                    },
                    {
                        "data": "2:63105:-1",
                        "leaf": "clip",
                        "type": "Leaf"
                    }
                ],
                "type": "AVSplit"
            },
            {
                "data": "-2:33578:0",
                "leaf": "subtitle",
                "type": "Leaf"
            },
            {
                "data": "-2:40731:0",
                "leaf": "subtitle",
                "type": "Leaf"
            },
            {
                "data": "-2:12804:0",
                "leaf": "subtitle",
                "type": "Leaf"
            },
            {
                "data": "-2:60058:0",
                "leaf": "subtitle",
                "type": "Leaf"
            },
            {
                "data": "-2:25765:0",
                "leaf": "subtitle",
                "type": "Leaf"
            },
            {
                "data": "-2:31526:0",
                "leaf": "subtitle",
                "type": "Leaf"
            },
            {
                "data": "-2:66997:0",
                "leaf": "subtitle",
                "type": "Leaf"
            },
            {
                "data": "-2:31000:0",
                "leaf": "subtitle",
                "type": "Leaf"
            },
            {
                "data": "-2:34823:0",
                "leaf": "subtitle",
                "type": "Leaf"
            },
            {
                "data": "-2:55002:0",
                "leaf": "subtitle",
                "type": "Leaf"
            },
            {
                "data": "-2:9392:0",
                "leaf": "subtitle",
                "type": "Leaf"
            },
            {
                "data": "-2:56110:0",
                "leaf": "subtitle",
                "type": "Leaf"
            },
            {
                "data": "-2:35766:0",
                "leaf": "subtitle",
                "type": "Leaf"
            },
            {
                "data": "-2:9035:0",
                "leaf": "subtitle",
                "type": "Leaf"
            },
            {
                "data": "-2:35991:0",
                "leaf": "subtitle",
                "type": "Leaf"
            },
            {
                "data": "-2:38830:0",
                "leaf": "subtitle",
                "type": "Leaf"
            },
            {
                "children": [
                    {
                        "data": "2:61647:-1",
                        "leaf": "clip",
                        "type": "Leaf"
                    },
                    {
                        "data": "1:61635:-1",
                        "leaf": "clip",
                        "type": "Leaf"
                    }
                ],
                "type": "AVSplit"
            },
            {
                "data": "-2:34439:0",
                "leaf": "subtitle",
                "type": "Leaf"
            },
            {
                "data": "-2:6195:0",
                "leaf": "subtitle",
                "type": "Leaf"
            },
            {
                "children": [
                    {
                        "data": "2:0:-1",
                        "leaf": "clip",
                        "type": "Leaf"
                    },
                    {
                        "data": "1:0:-1",
                        "leaf": "clip",
                        "type": "Leaf"
                    }
                ],
                "type": "AVSplit"
            },
            {
                "data": "-2:67311:0",
                "leaf": "subtitle",
                "type": "Leaf"
            },
            {
                "data": "-2:10945:0",
                "leaf": "subtitle",
                "type": "Leaf"
            },
            {
                "data": "-2:38350:0",
                "leaf": "subtitle",
                "type": "Leaf"
            },
            {
                "data": "-2:31237:0",
                "leaf": "subtitle",
                "type": "Leaf"
            },
            {
                "data": "-2:52179:0",
                "leaf": "subtitle",
                "type": "Leaf"
            },
            {
                "data": "-2:20653:0",
                "leaf": "subtitle",
                "type": "Leaf"
            },
            {
                "data": "-2:33292:0",
                "leaf": "subtitle",
                "type": "Leaf"
            },
            {
                "data": "-2:5238:0",
                "leaf": "subtitle",
                "type": "Leaf"
            },
            {
                "data": "-2:5550:0",
                "leaf": "subtitle",
                "type": "Leaf"
            },
            {
                "data": "-2:33881:0",
                "leaf": "subtitle",
                "type": "Leaf"
            },
            {
                "data": "-2:31148:0",
                "leaf": "subtitle",
                "type": "Leaf"
            },
            {
                "data": "-2:67200:0",
                "leaf": "subtitle",
                "type": "Leaf"
            },
            {
                "data": "-2:64225:0",
                "leaf": "subtitle",
                "type": "Leaf"
            },
            {
                "data": "-2:16088:0",
                "leaf": "subtitle",
                "type": "Leaf"
            },
            {
                "data": "-2:20852:0",
                "leaf": "subtitle",
                "type": "Leaf"
            },
            {
                "data": "-2:54137:0",
                "leaf": "subtitle",
                "type": "Leaf"
            },
            {
                "data": "-2:21151:0",
                "leaf": "subtitle",
                "type": "Leaf"
            },
            {
                "data": "-2:54392:0",
                "leaf": "subtitle",
                "type": "Leaf"
            },
            {
                "data": "-2:17242:0",
                "leaf": "subtitle",
                "type": "Leaf"
            },
            {
                "data": "-2:53825:0",
                "leaf": "subtitle",
                "type": "Leaf"
            },
            {
                "data": "-2:20585:0",
                "leaf": "subtitle",
                "type": "Leaf"
            },
            {
                "data": "-2:45641:0",
                "leaf": "subtitle",
                "type": "Leaf"
            },
            {
                "data": "-2:48182:0",
                "leaf": "subtitle",
                "type": "Leaf"
            },
            {
                "data": "-2:17875:0",
                "leaf": "subtitle",
                "type": "Leaf"
            },
            {
                "data": "-2:52071:0",
                "leaf": "subtitle",
                "type": "Leaf"
            },
            {
                "data": "-2:20313:0",
                "leaf": "subtitle",
                "type": "Leaf"
            },
            {
                "data": "-2:32742:0",
                "leaf": "subtitle",
                "type": "Leaf"
            },
            {
                "data": "-2:5195:0",
                "leaf": "subtitle",
                "type": "Leaf"
            },
            {
                "data": "-2:13255:0",
                "leaf": "subtitle",
                "type": "Leaf"
            },
            {
                "data": "-2:41883:0",
                "leaf": "subtitle",
                "type": "Leaf"
            },
            {
                "data": "-2:41168:0",
                "leaf": "subtitle",
                "type": "Leaf"
            },
            {
                "data": "-2:12997:0",
                "leaf": "subtitle",
                "type": "Leaf"
            },
            {
                "data": "-2:43108:0",
                "leaf": "subtitle",
                "type": "Leaf"
            },
            {
                "data": "-2:36219:0",
                "leaf": "subtitle",
                "type": "Leaf"
            },
            {
                "data": "-2:9188:0",
                "leaf": "subtitle",
                "type": "Leaf"
            },
            {
                "data": "-2:15782:0",
                "leaf": "subtitle",
                "type": "Leaf"
            },
            {
                "data": "-2:46071:0",
                "leaf": "subtitle",
                "type": "Leaf"
            },
            {
                "data": "-2:32474:0",
                "leaf": "subtitle",
                "type": "Leaf"
            },
            {
                "data": "-2:5008:0",
                "leaf": "subtitle",
                "type": "Leaf"
            },
            {
                "data": "-2:51268:0",
                "leaf": "subtitle",
                "type": "Leaf"
            },
            {
                "data": "-2:19892:0",
                "leaf": "subtitle",
                "type": "Leaf"
            },
            {
                "data": "-2:12404:0",
                "leaf": "subtitle",
                "type": "Leaf"
            },
            {
                "data": "-2:29957:0",
                "leaf": "subtitle",
                "type": "Leaf"
            },
            {
                "data": "-2:65906:0",
                "leaf": "subtitle",
                "type": "Leaf"
            },
            {
                "data": "-2:16209:0",
                "leaf": "subtitle",
                "type": "Leaf"
            },
            {
                "data": "-2:46308:0",
                "leaf": "subtitle",
                "type": "Leaf"
            },
            {
                "data": "-2:40435:0",
                "leaf": "subtitle",
                "type": "Leaf"
            },
            {
                "data": "-2:12676:0",
                "leaf": "subtitle",
                "type": "Leaf"
            },
            {
                "data": "-2:35566:0",
                "leaf": "subtitle",
                "type": "Leaf"
            },
            {
                "data": "-2:32245:0",
                "leaf": "subtitle",
                "type": "Leaf"
            },
            {
                "data": "-2:4673:0",
                "leaf": "subtitle",
                "type": "Leaf"
            },
            {
                "data": "-2:20773:0",
                "leaf": "subtitle",
                "type": "Leaf"
            },
            {
                "data": "-2:54069:0",
                "leaf": "subtitle",
                "type": "Leaf"
            },
            {
                "data": "-2:34170:0",
                "leaf": "subtitle",
                "type": "Leaf"
            },
            {
                "data": "-2:10309:0",
                "leaf": "subtitle",
                "type": "Leaf"
            },
            {
                "data": "-2:38202:0",
                "leaf": "subtitle",
                "type": "Leaf"
            },
            {
                "data": "-2:37741:0",
                "leaf": "subtitle",
                "type": "Leaf"
            },
            {
                "data": "-2:9574:0",
                "leaf": "subtitle",
                "type": "Leaf"
            },
            {
                "data": "-2:35401:0",
                "leaf": "subtitle",
                "type": "Leaf"
            },
            {
                "data": "-2:17726:0",
                "leaf": "subtitle",
                "type": "Leaf"
            },
            {
                "data": "-2:66421:0",
                "leaf": "subtitle",
                "type": "Leaf"
            },
            {
                "data": "-2:30439:0",
                "leaf": "subtitle",
                "type": "Leaf"
            },
            {
                "data": "-2:47801:0",
                "leaf": "subtitle",
                "type": "Leaf"
            },
            {
                "data": "-2:17131:0",
                "leaf": "subtitle",
                "type": "Leaf"
            },
            {
                "data": "-2:30904:0",
                "leaf": "subtitle",
                "type": "Leaf"
            },
            {
                "data": "-2:66746:0",
                "leaf": "subtitle",
                "type": "Leaf"
            },
            {
                "data": "-2:7698:0",
                "leaf": "subtitle",
                "type": "Leaf"
            },
            {
                "data": "-2:35242:0",
                "leaf": "subtitle",
                "type": "Leaf"
            },
            {
                "data": "-2:32564:0",
                "leaf": "subtitle",
                "type": "Leaf"
            },
            {
                "data": "-2:5073:0",
                "leaf": "subtitle",
                "type": "Leaf"
            },
            {
                "data": "-2:51359:0",
                "leaf": "subtitle",
                "type": "Leaf"
            },
            {
                "data": "-2:20047:0",
                "leaf": "subtitle",
                "type": "Leaf"
            },
            {
                "data": "-2:32289:0",
                "leaf": "subtitle",
                "type": "Leaf"
            },
            {
                "data": "-2:47105:0",
                "leaf": "subtitle",
                "type": "Leaf"
            },
            {
                "data": "-2:16857:0",
                "leaf": "subtitle",
                "type": "Leaf"
            },
            {
                "data": "-2:24179:0",
                "leaf": "subtitle",
                "type": "Leaf"
            },
            {
                "data": "-2:57823:0",
                "leaf": "subtitle",
                "type": "Leaf"
            },
            {
                "data": "-2:24389:0",
                "leaf": "subtitle",
                "type": "Leaf"
            },
            {
                "data": "-2:38453:0",
                "leaf": "subtitle",
                "type": "Leaf"
            },
            {
                "data": "-2:13153:0",
                "leaf": "subtitle",
                "type": "Leaf"
            },
            {
                "data": "-2:41837:0",
                "leaf": "subtitle",
                "type": "Leaf"
            },
            {
                "data": "-2:26205:0",
                "leaf": "subtitle",
                "type": "Leaf"
            },
            {
                "data": "-2:60460:0",
                "leaf": "subtitle",
                "type": "Leaf"
            },
            {
                "data": "-2:57952:0",
                "leaf": "subtitle",
                "type": "Leaf"
            },
            {
                "data": "-2:66377:0",
                "leaf": "subtitle",
                "type": "Leaf"
            },
            {
                "data": "-2:30404:0",
                "leaf": "subtitle",
                "type": "Leaf"
            },
            {
                "data": "-2:30204:0",
                "leaf": "subtitle",
                "type": "Leaf"
            },
            {
                "data": "-2:66104:0",
                "leaf": "subtitle",
                "type": "Leaf"
            },
            {
                "data": "-2:46343:0",
                "leaf": "subtitle",
                "type": "Leaf"
            },
            {
                "data": "-2:16285:0",
                "leaf": "subtitle",
                "type": "Leaf"
            },
            {
                "data": "-2:24272:0",
                "leaf": "subtitle",
                "type": "Leaf"
            },
            {
                "data": "-2:57629:0",
                "leaf": "subtitle",
                "type": "Leaf"
            },
            {
                "data": "-2:24035:0",
                "leaf": "subtitle",
                "type": "Leaf"
            },
            {
                "data": "-2:38300:0",
                "leaf": "subtitle",
                "type": "Leaf"
            },
            {
                "data": "-2:10495:0",
                "leaf": "subtitle",
                "type": "Leaf"
            },
            {
                "data": "-2:17012:0",
                "leaf": "subtitle",
                "type": "Leaf"
            },
            {
                "data": "-2:46977:0",
                "leaf": "subtitle",
                "type": "Leaf"
            },
            {
                "data": "-2:16509:0",
                "leaf": "subtitle",
                "type": "Leaf"
            },
            {
                "data": "-2:57367:0",
                "leaf": "subtitle",
                "type": "Leaf"
            },
            {
                "data": "-2:23803:0",
                "leaf": "subtitle",
                "type": "Leaf"
            },
            {
                "data": "-2:37833:0",
                "leaf": "subtitle",
                "type": "Leaf"
            },
            {
                "data": "-2:9781:0",
                "leaf": "subtitle",
                "type": "Leaf"
            },
            {
                "data": "-2:35176:0",
                "leaf": "subtitle",
                "type": "Leaf"
            },
            {
                "data": "-2:7256:0",
                "leaf": "subtitle",
                "type": "Leaf"
            },
            {
                "data": "-2:36384:0",
                "leaf": "subtitle",
                "type": "Leaf"
            },
            {
                "data": "-2:9288:0",
                "leaf": "subtitle",
                "type": "Leaf"
            },
            {
                "data": "-2:32405:0",
                "leaf": "subtitle",
                "type": "Leaf"
            },
            {
                "data": "-2:20236:0",
                "leaf": "subtitle",
                "type": "Leaf"
            },
            {
                "data": "-2:51917:0",
                "leaf": "subtitle",
                "type": "Leaf"
            },
            {
                "data": "-2:56142:0",
                "leaf": "subtitle",
                "type": "Leaf"
            },
            {
                "data": "-2:23307:0",
                "leaf": "subtitle",
                "type": "Leaf"
            },
            {
                "data": "-2:21492:0",
                "leaf": "subtitle",
                "type": "Leaf"
            },
            {
                "data": "-2:54922:0",
                "leaf": "subtitle",
                "type": "Leaf"
            },
            {
                "data": "-2:22556:0",
                "leaf": "subtitle",
                "type": "Leaf"
            },
            {
                "data": "-2:55887:0",
                "leaf": "subtitle",
                "type": "Leaf"
            },
            {
                "data": "-2:41330:0",
                "leaf": "subtitle",
                "type": "Leaf"
            },
            {
                "data": "-2:13094:0",
                "leaf": "subtitle",
                "type": "Leaf"
            },
            {
                "data": "-2:60394:0",
                "leaf": "subtitle",
                "type": "Leaf"
            },
            {
                "data": "-2:26075:0",
                "leaf": "subtitle",
                "type": "Leaf"
            },
            {
                "data": "-2:21432:0",
                "leaf": "subtitle",
                "type": "Leaf"
            },
            {
                "data": "-2:54774:0",
                "leaf": "subtitle",
                "type": "Leaf"
            },
            {
                "data": "-2:29449:0",
                "leaf": "subtitle",
                "type": "Leaf"
            },
            {
                "data": "-2:27186:0",
                "leaf": "subtitle",
                "type": "Leaf"
            },
            {
                "children": [
                    {
                        "data": "1:18206:-1",
                        "leaf": "clip",
                        "type": "Leaf"
                    },
                    {
                        "data": "2:18227:-1",
                        "leaf": "clip",
                        "type": "Leaf"
                    }
                ],
                "type": "AVSplit"
            },
            {
                "data": "-2:65440:0",
                "leaf": "subtitle",
                "type": "Leaf"
            },
            {
                "data": "-2:31624:0",
                "leaf": "subtitle",
                "type": "Leaf"
            },
            {
                "data": "-2:65311:0",
                "leaf": "subtitle",
                "type": "Leaf"
            },
            {
                "data": "-2:29386:0",
                "leaf": "subtitle",
                "type": "Leaf"
            },
            {
                "data": "-2:47150:0",
                "leaf": "subtitle",
                "type": "Leaf"
            },
            {
                "data": "-2:56976:0",
                "leaf": "subtitle",
                "type": "Leaf"
            },
            {
                "data": "-2:12623:0",
                "leaf": "subtitle",
                "type": "Leaf"
            },
            {
                "data": "-2:40322:0",
                "leaf": "subtitle",
                "type": "Leaf"
            },
            {
                "data": "-2:63717:0",
                "leaf": "subtitle",
                "type": "Leaf"
            },
            {
                "data": "-2:14722:0",
                "leaf": "subtitle",
                "type": "Leaf"
            },
            {
                "data": "-2:44977:0",
                "leaf": "subtitle",
                "type": "Leaf"
            },
            {
                "data": "-2:44759:0",
                "leaf": "subtitle",
                "type": "Leaf"
            },
            {
                "data": "-2:14423:0",
                "leaf": "subtitle",
                "type": "Leaf"
            },
            {
                "data": "-2:7930:0",
                "leaf": "subtitle",
                "type": "Leaf"
            },
            {
                "data": "-2:5123:0",
                "leaf": "subtitle",
                "type": "Leaf"
            },
            {
                "children": [
                    {
                        "data": "1:63117:-1",
                        "leaf": "clip",
                        "type": "Leaf"
                    },
                    {
                        "data": "2:63127:-1",
                        "leaf": "clip",
                        "type": "Leaf"
                    }
                ],
                "type": "AVSplit"
            },
            {
                "data": "-2:8108:0",
                "leaf": "subtitle",
                "type": "Leaf"
            },
            {
                "data": "-2:28476:0",
                "leaf": "subtitle",
                "type": "Leaf"
            },
            {
                "data": "-2:38952:0",
                "leaf": "subtitle",
                "type": "Leaf"
            },
            {
                "data": "-2:11446:0",
                "leaf": "subtitle",
                "type": "Leaf"
            },
            {
                "data": "-2:58188:0",
                "leaf": "subtitle",
                "type": "Leaf"
            },
            {
                "data": "-2:55687:0",
                "leaf": "subtitle",
                "type": "Leaf"
            },
            {
                "data": "-2:22127:0",
                "leaf": "subtitle",
                "type": "Leaf"
            },
            {
                "data": "-2:22637:0",
                "leaf": "subtitle",
                "type": "Leaf"
            },
            {
                "data": "-2:55956:0",
                "leaf": "subtitle",
                "type": "Leaf"
            },
            {
                "data": "-2:11200:0",
                "leaf": "subtitle",
                "type": "Leaf"
            },
            {
                "data": "-2:38734:0",
                "leaf": "subtitle",
                "type": "Leaf"
            },
            {
                "data": "-2:24329:0",
                "leaf": "subtitle",
                "type": "Leaf"
            },
            {
                "data": "-2:45945:0",
                "leaf": "subtitle",
                "type": "Leaf"
            },
            {
                "data": "-2:15697:0",
                "leaf": "subtitle",
                "type": "Leaf"
            },
            {
                "data": "-2:4821:0",
                "leaf": "subtitle",
                "type": "Leaf"
            },
            {
                "data": "-2:32136:0",
                "leaf": "subtitle",
                "type": "Leaf"
            },
            {
                "data": "-2:4551:0",
                "leaf": "subtitle",
                "type": "Leaf"
            },
            {
                "data": "-2:50680:0",
                "leaf": "subtitle",
                "type": "Leaf"
            },
            {
                "data": "-2:18910:0",
                "leaf": "subtitle",
                "type": "Leaf"
            },
            {
                "data": "-2:48262:0",
                "leaf": "subtitle",
                "type": "Leaf"
            },
            {
                "data": "-2:17940:0",
                "leaf": "subtitle",
                "type": "Leaf"
            },
            {
                "data": "-2:67099:0",
                "leaf": "subtitle",
                "type": "Leaf"
            },
            {
                "data": "-2:31060:0",
                "leaf": "subtitle",
                "type": "Leaf"
            },
            {
                "data": "-2:48071:0",
                "leaf": "subtitle",
                "type": "Leaf"
            },
            {
                "data": "-2:14651:0",
                "leaf": "subtitle",
                "type": "Leaf"
            },
            {
                "data": "-2:44905:0",
                "leaf": "subtitle",
                "type": "Leaf"
            },
            {
                "data": "-2:45799:0",
                "leaf": "subtitle",
                "type": "Leaf"
            },
            {
                "data": "-2:15418:0",
                "leaf": "subtitle",
                "type": "Leaf"
            },
            {
                "data": "-2:64826:0",
                "leaf": "subtitle",
                "type": "Leaf"
            },
            {
                "data": "-2:29345:0",
                "leaf": "subtitle",
                "type": "Leaf"
            },
            {
                "data": "-2:64319:0",
                "leaf": "subtitle",
                "type": "Leaf"
            },
            {
                "data": "-2:29047:0",
                "leaf": "subtitle",
                "type": "Leaf"
            },
            {
                "data": "-2:60129:0",
                "leaf": "subtitle",
                "type": "Leaf"
            },
            {
                "data": "-2:25818:0",
                "leaf": "subtitle",
                "type": "Leaf"
            },
            {
                "data": "-2:40917:0",
                "leaf": "subtitle",
                "type": "Leaf"
            },
            {
                "data": "-2:12879:0",
                "leaf": "subtitle",
                "type": "Leaf"
            },
            {
                "data": "-2:9143:0",
                "leaf": "subtitle",
                "type": "Leaf"
            },
            {
                "data": "-2:36101:0",
                "leaf": "subtitle",
                "type": "Leaf"
            },
            {
                "data": "-2:23008:0",
                "leaf": "subtitle",
                "type": "Leaf"
            },
            {
                "data": "-2:46244:0",
                "leaf": "subtitle",
                "type": "Leaf"
            },
            {
                "data": "-2:15629:0",
                "leaf": "subtitle",
                "type": "Leaf"
            },
            {
                "data": "-2:7069:0",
                "leaf": "subtitle",
                "type": "Leaf"
            },
            {
                "data": "-2:21883:0",
                "leaf": "subtitle",
                "type": "Leaf"
            },
            {
                "data": "-2:55430:0",
                "leaf": "subtitle",
                "type": "Leaf"
            },
            {
                "data": "-2:7835:0",
                "leaf": "subtitle",
                "type": "Leaf"
            },
            {
                "children": [
                    {
                        "data": "2:26510:-1",
                        "leaf": "clip",
                        "type": "Leaf"
                    },
                    {
                        "data": "1:26491:-1",
                        "leaf": "clip",
                        "type": "Leaf"
                    }
                ],
                "type": "AVSplit"
            },
            {
                "data": "-2:56347:0",
                "leaf": "subtitle",
                "type": "Leaf"
            },
            {
                "data": "-2:21278:0",
                "leaf": "subtitle",
                "type": "Leaf"
            },
            {
                "data": "-2:54524:0",
                "leaf": "subtitle",
                "type": "Leaf"
            },
            {
                "data": "-2:15929:0",
                "leaf": "subtitle",
                "type": "Leaf"
            },
            {
                "data": "-2:46146:0",
                "leaf": "subtitle",
                "type": "Leaf"
            },
            {
                "data": "-2:31684:0",
                "leaf": "subtitle",
                "type": "Leaf"
            },
            {
                "data": "-2:4308:0",
                "leaf": "subtitle",
                "type": "Leaf"
            },
            {
                "data": "-2:11660:0",
                "leaf": "subtitle",
                "type": "Leaf"
            },
            {
                "data": "-2:39047:0",
                "leaf": "subtitle",
                "type": "Leaf"
            },
            {
                "children": [
                    {
                        "data": "2:9441:-1",
                        "leaf": "clip",
                        "type": "Leaf"
                    },
                    {
                        "data": "1:9441:-1",
                        "leaf": "clip",
                        "type": "Leaf"
                    }
                ],
                "type": "AVSplit"
            },
            {
                "data": "-2:8481:0",
                "leaf": "subtitle",
                "type": "Leaf"
            },
            {
                "data": "-2:27646:0",
                "leaf": "subtitle",
                "type": "Leaf"
            },
            {
                "data": "-2:63787:0",
                "leaf": "subtitle",
                "type": "Leaf"
            },
            {
                "data": "-2:30038:0",
                "leaf": "subtitle",
                "type": "Leaf"
            },
            {
                "data": "-2:65976:0",
                "leaf": "subtitle",
                "type": "Leaf"
            },
            {
                "data": "-2:48452:0",
                "leaf": "subtitle",
                "type": "Leaf"
            },
            {
                "data": "-2:18179:0",
                "leaf": "subtitle",
                "type": "Leaf"
            },
            {
                "data": "-2:56006:0",
                "leaf": "subtitle",
                "type": "Leaf"
            },
            {
                "data": "-2:22744:0",
                "leaf": "subtitle",
                "type": "Leaf"
            },
            {
                "data": "-2:12210:0",
                "leaf": "subtitle",
                "type": "Leaf"
            },
            {
                "data": "-2:40036:0",
                "leaf": "subtitle",
                "type": "Leaf"
            },
            {
                "data": "-2:14855:0",
                "leaf": "subtitle",
                "type": "Leaf"
            },
            {
                "data": "-2:45085:0",
                "leaf": "subtitle",
                "type": "Leaf"
            },
            {
                "data": "-2:12053:0",
                "leaf": "subtitle",
                "type": "Leaf"
            },
            {
                "data": "-2:39939:0",
                "leaf": "subtitle",
                "type": "Leaf"
            },
            {
                "data": "-2:25004:0",
                "leaf": "subtitle",
                "type": "Leaf"
            },
            {
                "data": "-2:59202:0",
                "leaf": "subtitle",
                "type": "Leaf"
            },
            {
                "data": "-2:15021:0",
                "leaf": "subtitle",
                "type": "Leaf"
            },
            {
                "data": "-2:45180:0",
                "leaf": "subtitle",
                "type": "Leaf"
            },
            {
                "data": "-2:13482:0",
                "leaf": "subtitle",
                "type": "Leaf"
            },
            {
                "data": "-2:43795:0",
                "leaf": "subtitle",
                "type": "Leaf"
            },
            {
                "data": "-2:6632:0",
                "leaf": "subtitle",
                "type": "Leaf"
            },
            {
                "data": "-2:34711:0",
                "leaf": "subtitle",
                "type": "Leaf"
            },
            {
                "data": "-2:12959:0",
                "leaf": "subtitle",
                "type": "Leaf"
            },
            {
                "data": "-2:41028:0",
                "leaf": "subtitle",
                "type": "Leaf"
            },
            {
                "data": "-2:25915:0",
                "leaf": "subtitle",
                "type": "Leaf"
            },
            {
                "data": "-2:60222:0",
                "leaf": "subtitle",
                "type": "Leaf"
            },
            {
                "data": "-2:44358:0",
                "leaf": "subtitle",
                "type": "Leaf"
            },
            {
                "data": "-2:13867:0",
                "leaf": "subtitle",
                "type": "Leaf"
            },
            {
                "data": "-2:44429:0",
                "leaf": "subtitle",
                "type": "Leaf"
            },
            {
                "data": "-2:13924:0",
                "leaf": "subtitle",
                "type": "Leaf"
            },
            {
                "data": "-2:26547:0",
                "leaf": "subtitle",
                "type": "Leaf"
            },
            {
                "data": "-2:13432:0",
                "leaf": "subtitle",
                "type": "Leaf"
            },
            {
                "data": "-2:43288:0",
                "leaf": "subtitle",
                "type": "Leaf"
            },
            {
                "data": "-2:57929:0",
                "leaf": "subtitle",
                "type": "Leaf"
            },
            {
                "data": "-2:28932:0",
                "leaf": "subtitle",
                "type": "Leaf"
            },
            {
                "data": "-2:11234:0",
                "leaf": "subtitle",
                "type": "Leaf"
            },
            {
                "data": "-2:12533:0",
                "leaf": "subtitle",
                "type": "Leaf"
            },
            {
                "data": "-2:6980:0",
                "leaf": "subtitle",
                "type": "Leaf"
            },
            {
                "data": "-2:11134:0",
                "leaf": "subtitle",
                "type": "Leaf"
            },
            {
                "children": [
                    {
                        "data": "1:14805:-1",
                        "leaf": "clip",
                        "type": "Leaf"
                    },
                    {
                        "data": "2:14817:-1",
                        "leaf": "clip",
                        "type": "Leaf"
                    }
                ],
                "type": "AVSplit"
            },
            {
                "children": [
                    {
                        "data": "2:11293:-1",
                        "leaf": "clip",
                        "type": "Leaf"
                    },
                    {
                        "data": "1:11290:-1",
                        "leaf": "clip",
                        "type": "Leaf"
                    }
                ],
                "type": "AVSplit"
            },
            {
                "data": "-2:25314:0",
                "leaf": "subtitle",
                "type": "Leaf"
            },
            {
                "data": "-2:59487:0",
                "leaf": "subtitle",
                "type": "Leaf"
            },
            {
                "data": "-2:43237:0",
                "leaf": "subtitle",
                "type": "Leaf"
            },
            {
                "data": "-2:13377:0",
                "leaf": "subtitle",
                "type": "Leaf"
            },
            {
                "children": [
                    {
                        "data": "2:40118:-1",
                        "leaf": "clip",
                        "type": "Leaf"
                    },
                    {
                        "data": "1:40118:-1",
                        "leaf": "clip",
                        "type": "Leaf"
                    }
                ],
                "type": "AVSplit"
            },
            {
                "data": "-2:9256:0",
                "leaf": "subtitle",
                "type": "Leaf"
            },
            {
                "data": "-2:23411:0",
                "leaf": "subtitle",
                "type": "Leaf"
            },
            {
                "data": "-2:56672:0",
                "leaf": "subtitle",
                "type": "Leaf"
            },
            {
                "data": "-2:20344:0",
                "leaf": "subtitle",
                "type": "Leaf"
            },
            {
                "data": "-2:28828:0",
                "leaf": "subtitle",
                "type": "Leaf"
            },
            {
                "data": "-2:64132:0",
                "leaf": "subtitle",
                "type": "Leaf"
            },
            {
                "data": "-2:15066:0",
                "leaf": "subtitle",
                "type": "Leaf"
            },
            {
                "data": "-2:45222:0",
                "leaf": "subtitle",
                "type": "Leaf"
            },
            {
                "data": "-2:11561:0",
                "leaf": "subtitle",
                "type": "Leaf"
            },
            {
                "data": "-2:39016:0",
                "leaf": "subtitle",
                "type": "Leaf"
            },
            {
                "data": "-2:15225:0",
                "leaf": "subtitle",
                "type": "Leaf"
            },
            {
                "data": "-2:57533:0",
                "leaf": "subtitle",
                "type": "Leaf"
            },
            {
                "data": "-2:23947:0",
                "leaf": "subtitle",
                "type": "Leaf"
            },
            {
                "data": "-2:11061:0",
                "leaf": "subtitle",
                "type": "Leaf"
            },
            {
                "data": "-2:66528:0",
                "leaf": "subtitle",
                "type": "Leaf"
            },
            {
                "data": "-2:30497:0",
                "leaf": "subtitle",
                "type": "Leaf"
            },
            {
                "data": "-2:4159:0",
                "leaf": "subtitle",
                "type": "Leaf"
            },
            {
                "data": "-2:57474:0",
                "leaf": "subtitle",
                "type": "Leaf"
            },
            {
                "data": "-2:13304:0",
                "leaf": "subtitle",
                "type": "Leaf"
            },
            {
                "data": "-2:25635:0",
                "leaf": "subtitle",
                "type": "Leaf"
            },
            {
                "data": "-2:59952:0",
                "leaf": "subtitle",
                "type": "Leaf"
            },
            {
                "data": "-2:40157:0",
                "leaf": "subtitle",
                "type": "Leaf"
            },
            {
                "data": "-2:56734:0",
                "leaf": "subtitle",
                "type": "Leaf"
            },
            {
                "data": "-2:23465:0",
                "leaf": "subtitle",
                "type": "Leaf"
            },
            {
                "data": "-2:50815:0",
                "leaf": "subtitle",
                "type": "Leaf"
            },
            {
                "data": "-2:19494:0",
                "leaf": "subtitle",
                "type": "Leaf"
            },
            {
                "data": "-2:16740:0",
                "leaf": "subtitle",
                "type": "Leaf"
            },
            {
                "data": "-2:47072:0",
                "leaf": "subtitle",
                "type": "Leaf"
            },
            {
                "data": "-2:63850:0",
                "leaf": "subtitle",
                "type": "Leaf"
            },
            {
                "data": "-2:27740:0",
                "leaf": "subtitle",
                "type": "Leaf"
            },
            {
                "data": "-2:32031:0",
                "leaf": "subtitle",
                "type": "Leaf"
            },
            {
                "data": "-2:4422:0",
                "leaf": "subtitle",
                "type": "Leaf"
            },
            {
                "data": "-2:50570:0",
                "leaf": "subtitle",
                "type": "Leaf"
            },
            {
                "data": "-2:18816:0",
                "leaf": "subtitle",
                "type": "Leaf"
            },
            {
                "data": "-2:50021:0",
                "leaf": "subtitle",
                "type": "Leaf"
            },
            {
                "data": "-2:8587:0",
                "leaf": "subtitle",
                "type": "Leaf"
            },
            {
                "data": "-2:35855:0",
                "leaf": "subtitle",
                "type": "Leaf"
            },
            {
                "children": [
                    {
                        "data": "1:45384:-1",
                        "leaf": "clip",
                        "type": "Leaf"
                    },
                    {
                        "data": "2:45396:-1",
                        "leaf": "clip",
                        "type": "Leaf"
                    }
                ],
                "type": "AVSplit"
            },
            {
                "data": "-2:23671:0",
                "leaf": "subtitle",
                "type": "Leaf"
            },
            {
                "data": "-2:57129:0",
                "leaf": "subtitle",
                "type": "Leaf"
            },
            {
                "data": "-2:10088:0",
                "leaf": "subtitle",
                "type": "Leaf"
            },
            {
                "data": "-2:4610:0",
                "leaf": "subtitle",
                "type": "Leaf"
            },
            {
                "data": "-2:27480:0",
                "leaf": "subtitle",
                "type": "Leaf"
            },
            {
                "data": "-2:44576:0",
                "leaf": "subtitle",
                "type": "Leaf"
            },
            {
                "data": "-2:29900:0",
                "leaf": "subtitle",
                "type": "Leaf"
            },
            {
                "data": "-2:65784:0",
                "leaf": "subtitle",
                "type": "Leaf"
            },
            {
                "data": "-2:66057:0",
                "leaf": "subtitle",
                "type": "Leaf"
            },
            {
                "data": "-2:30110:0",
                "leaf": "subtitle",
                "type": "Leaf"
            },
            {
                "data": "-2:34319:0",
                "leaf": "subtitle",
                "type": "Leaf"
            },
            {
                "data": "-2:6091:0",
                "leaf": "subtitle",
                "type": "Leaf"
            },
            {
                "data": "-2:47877:0",
                "leaf": "subtitle",
                "type": "Leaf"
            },
            {
                "data": "-2:57182:0",
                "leaf": "subtitle",
                "type": "Leaf"
            },
            {
                "data": "-2:23764:0",
                "leaf": "subtitle",
                "type": "Leaf"
            },
            {
                "data": "-2:36457:0",
                "leaf": "subtitle",
                "type": "Leaf"
            },
            {
                "data": "-2:4046:0",
                "leaf": "subtitle",
                "type": "Leaf"
            },
            {
                "data": "-2:4904:0",
                "leaf": "subtitle",
                "type": "Leaf"
            },
            {
                "data": "-2:50954:0",
                "leaf": "subtitle",
                "type": "Leaf"
            },
            {
                "data": "-2:19766:0",
                "leaf": "subtitle",
                "type": "Leaf"
            },
            {
                "data": "-2:19439:0",
                "leaf": "subtitle",
                "type": "Leaf"
            },
            {
                "data": "-2:50761:0",
                "leaf": "subtitle",
                "type": "Leaf"
            },
            {
                "data": "-2:65570:0",
                "leaf": "subtitle",
                "type": "Leaf"
            },
            {
                "data": "-2:14175:0",
                "leaf": "subtitle",
                "type": "Leaf"
            },
            {
                "data": "-2:44627:0",
                "leaf": "subtitle",
                "type": "Leaf"
            },
            {
                "data": "-2:21031:0",
                "leaf": "subtitle",
                "type": "Leaf"
            },
            {
                "data": "-2:54310:0",
                "leaf": "subtitle",
                "type": "Leaf"
            },
            {
                "children": [
                    {
                        "data": "2:40899:-1",
                        "leaf": "clip",
                        "type": "Leaf"
                    },
                    {
                        "data": "1:40887:-1",
                        "leaf": "clip",
                        "type": "Leaf"
                    }
                ],
                "type": "AVSplit"
            },
            {
                "data": "-2:26792:0",
                "leaf": "subtitle",
                "type": "Leaf"
            },
            {
                "data": "-2:63289:0",
                "leaf": "subtitle",
                "type": "Leaf"
            },
            {
                "data": "-2:18251:0",
                "leaf": "subtitle",
                "type": "Leaf"
            },
            {
                "data": "-2:48826:0",
                "leaf": "subtitle",
                "type": "Leaf"
            },
            {
                "data": "-2:14554:0",
                "leaf": "subtitle",
                "type": "Leaf"
            },
            {
                "data": "-2:44852:0",
                "leaf": "subtitle",
                "type": "Leaf"
            },
            {
                "data": "-2:63946:0",
                "leaf": "subtitle",
                "type": "Leaf"
            },
            {
                "data": "-2:28611:0",
                "leaf": "subtitle",
                "type": "Leaf"
            },
            {
                "data": "-2:22782:0",
                "leaf": "subtitle",
                "type": "Leaf"
            },
            {
                "data": "-2:53904:0",
                "leaf": "subtitle",
                "type": "Leaf"
            },
            {
                "data": "-2:27269:0",
                "leaf": "subtitle",
                "type": "Leaf"
            },
            {
                "data": "-2:44692:0",
                "leaf": "subtitle",
                "type": "Leaf"
            },
            {
                "data": "-2:14322:0",
                "leaf": "subtitle",
                "type": "Leaf"
            },
            {
                "data": "-2:55571:0",
                "leaf": "subtitle",
                "type": "Leaf"
            },
            {
                "data": "-2:22072:0",
                "leaf": "subtitle",
                "type": "Leaf"
            },
            {
                "data": "-2:6019:0",
                "leaf": "subtitle",
                "type": "Leaf"
            },
            {
                "data": "-2:34244:0",
                "leaf": "subtitle",
                "type": "Leaf"
            },
            {
                "data": "-2:59597:0",
                "leaf": "subtitle",
                "type": "Leaf"
            },
            {
                "data": "-2:25385:0",
                "leaf": "subtitle",
                "type": "Leaf"
            },
            {
                "data": "-2:18560:0",
                "leaf": "subtitle",
                "type": "Leaf"
            },
            {
                "data": "-2:50134:0",
                "leaf": "subtitle",
                "type": "Leaf"
            },
            {
                "data": "-2:22265:0",
                "leaf": "subtitle",
                "type": "Leaf"
            },
            {
                "data": "-2:55762:0",
                "leaf": "subtitle",
                "type": "Leaf"
            },
            {
                "children": [
                    {
                        "data": "2:10713:-1",
                        "leaf": "clip",
                        "type": "Leaf"
                    },
                    {
                        "data": "1:10701:-1",
                        "leaf": "clip",
                        "type": "Leaf"
                    }
                ],
                "type": "AVSplit"
            },
            {
                "data": "-2:35664:0",
                "leaf": "subtitle",
                "type": "Leaf"
            },
            {
                "data": "-2:8216:0",
                "leaf": "subtitle",
                "type": "Leaf"
            },
            {
                "data": "-2:55466:0",
                "leaf": "subtitle",
                "type": "Leaf"
            },
            {
                "data": "-2:21977:0",
                "leaf": "subtitle",
                "type": "Leaf"
            },
            {
                "data": "-2:55223:0",
                "leaf": "subtitle",
                "type": "Leaf"
            },
            {
                "data": "-2:21683:0",
                "leaf": "subtitle",
                "type": "Leaf"
            },
            {
                "data": "-2:39220:0",
                "leaf": "subtitle",
                "type": "Leaf"
            },
            {
                "data": "-2:11837:0",
                "leaf": "subtitle",
                "type": "Leaf"
            },
            {
                "data": "-2:58863:0",
                "leaf": "subtitle",
                "type": "Leaf"
            },
            {
                "data": "-2:24765:0",
                "leaf": "subtitle",
                "type": "Leaf"
            },
            {
                "data": "-2:63193:0",
                "leaf": "subtitle",
                "type": "Leaf"
            },
            {
                "data": "-2:26665:0",
                "leaf": "subtitle",
                "type": "Leaf"
            },
            {
                "data": "-2:44149:0",
                "leaf": "subtitle",
                "type": "Leaf"
            },
            {
                "data": "-2:13624:0",
                "leaf": "subtitle",
                "type": "Leaf"
            },
            {
                "data": "-2:6772:0",
                "leaf": "subtitle",
                "type": "Leaf"
            },
            {
                "children": [
                    {
                        "data": "2:38161:-1",
                        "leaf": "clip",
                        "type": "Leaf"
                    },
                    {
                        "data": "1:38161:-1",
                        "leaf": "clip",
                        "type": "Leaf"
                    }
                ],
                "type": "AVSplit"
            },
            {
                "data": "-2:30275:0",
                "leaf": "subtitle",
                "type": "Leaf"
            },
            {
                "data": "-2:66220:0",
                "leaf": "subtitle",
                "type": "Leaf"
            },
            {
                "children": [
                    {
                        "data": "2:37558:-1",
                        "leaf": "clip",
                        "type": "Leaf"
                    },
                    {
                        "data": "1:37510:-1",
                        "leaf": "clip",
                        "type": "Leaf"
                    }
                ],
                "type": "AVSplit"
            },
            {
                "data": "-2:5317:0",
                "leaf": "subtitle",
                "type": "Leaf"
            },
            {
                "data": "-2:21563:0",
                "leaf": "subtitle",
                "type": "Leaf"
            },
            {
                "data": "-2:5956:0",
                "leaf": "subtitle",
                "type": "Leaf"
            },
            {
                "data": "-2:58129:0",
                "leaf": "subtitle",
                "type": "Leaf"
            },
            {
                "data": "-2:24606:0",
                "leaf": "subtitle",
                "type": "Leaf"
            },
            {
                "data": "-2:58491:0",
                "leaf": "subtitle",
                "type": "Leaf"
            },
            {
                "data": "-2:23114:0",
                "leaf": "subtitle",
                "type": "Leaf"
            },
            {
                "data": "-2:56215:0",
                "leaf": "subtitle",
                "type": "Leaf"
            },
            {
                "children": [
                    {
                        "data": "2:40818:-1",
                        "leaf": "clip",
                        "type": "Leaf"
                    },
                    {
                        "data": "1:40818:-1",
                        "leaf": "clip",
                        "type": "Leaf"
                    }
                ],
                "type": "AVSplit"
            },
            {
                "data": "-2:8650:0",
                "leaf": "subtitle",
                "type": "Leaf"
            },
            {
                "data": "-2:35927:0",
                "leaf": "subtitle",
                "type": "Leaf"
            },
            {
                "data": "-2:59417:0",
                "leaf": "subtitle",
                "type": "Leaf"
            },
            {
                "data": "-2:25205:0",
                "leaf": "subtitle",
                "type": "Leaf"
            },
            {
                "data": "-2:40079:0",
                "leaf": "subtitle",
                "type": "Leaf"
            },
            {
                "data": "-2:12273:0",
                "leaf": "subtitle",
                "type": "Leaf"
            },
            {
                "data": "-2:31404:0",
                "leaf": "subtitle",
                "type": "Leaf"
            },
            {
                "data": "-2:18308:0",
                "leaf": "subtitle",
                "type": "Leaf"
            },
            {
                "data": "-2:49416:0",
                "leaf": "subtitle",
                "type": "Leaf"
            },
            {
                "data": "-2:31753:0",
                "leaf": "subtitle",
                "type": "Leaf"
            },
            {
                "data": "-2:4362:0",
                "leaf": "subtitle",
                "type": "Leaf"
            },
            {
                "data": "-2:50207:0",
                "leaf": "subtitle",
                "type": "Leaf"
            },
            {
                "data": "-2:18682:0",
                "leaf": "subtitle",
                "type": "Leaf"
            },
            {
                "data": "-2:59085:0",
                "leaf": "subtitle",
                "type": "Leaf"
            },
            {
                "data": "-2:24906:0",
                "leaf": "subtitle",
                "type": "Leaf"
            },
            {
                "data": "-2:39563:0",
                "leaf": "subtitle",
                "type": "Leaf"
            },
            {
                "data": "-2:11994:0",
                "leaf": "subtitle",
                "type": "Leaf"
            },
            {
                "data": "-2:24685:0",
                "leaf": "subtitle",
                "type": "Leaf"
            },
            {
                "data": "-2:58637:0",
                "leaf": "subtitle",
                "type": "Leaf"
            },
            {
                "data": "-2:11935:0",
                "leaf": "subtitle",
                "type": "Leaf"
            },
            {
                "data": "-2:39278:0",
                "leaf": "subtitle",
                "type": "Leaf"
            },
            {
                "data": "-2:24835:0",
                "leaf": "subtitle",
                "type": "Leaf"
            },
            {
                "data": "-2:58940:0",
                "leaf": "subtitle",
                "type": "Leaf"
            },
            {
                "data": "-2:58260:0",
                "leaf": "subtitle",
                "type": "Leaf"
            },
            {
                "data": "-2:24505:0",
                "leaf": "subtitle",
                "type": "Leaf"
            },
            {
                "data": "-2:65525:0",
                "leaf": "subtitle",
                "type": "Leaf"
            },
            {
                "data": "-2:29522:0",
                "leaf": "subtitle",
                "type": "Leaf"
            },
            {
                "data": "-2:30314:0",
                "leaf": "subtitle",
                "type": "Leaf"
            },
            {
                "data": "-2:66323:0",
                "leaf": "subtitle",
                "type": "Leaf"
            },
            {
                "children": [
                    {
                        "data": "2:26388:-1",
                        "leaf": "clip",
                        "type": "Leaf"
                    },
                    {
                        "data": "1:26371:-1",
                        "leaf": "clip",
                        "type": "Leaf"
                    }
                ],
                "type": "AVSplit"
            },
            {
                "data": "-2:64035:0",
                "leaf": "subtitle",
                "type": "Leaf"
            },
            {
                "data": "-2:28688:0",
                "leaf": "subtitle",
                "type": "Leaf"
            },
            {
                "data": "-2:39111:0",
                "leaf": "subtitle",
                "type": "Leaf"
            },
            {
                "data": "-2:11724:0",
                "leaf": "subtitle",
                "type": "Leaf"
            }
        ],
        "type": "Normal"
    }
]
</property>
  <property name="kdenlive:sequenceproperties.guides">[
]
</property>
  <track producer="producer0"/>
  <track producer="tractor0"/>
  <track producer="tractor1"/>
  <track producer="tractor2"/>
  <track producer="tractor3"/>
  <transition id="transition29">
   <property name="a_track">0</property>
   <property name="b_track">1</property>
   <property name="mlt_service">mix</property>
   <property name="kdenlive_id">mix</property>
   <property name="internal_added">237</property>
   <property name="always_active">1</property>
   <property name="accepts_blanks">1</property>
   <property name="sum">1</property>
  </transition>
  <transition id="transition30">
   <property name="a_track">0</property>
   <property name="b_track">2</property>
   <property name="mlt_service">mix</property>
   <property name="kdenlive_id">mix</property>
   <property name="internal_added">237</property>
   <property name="always_active">1</property>
   <property name="accepts_blanks">1</property>
   <property name="sum">1</property>
  </transition>
  <transition id="transition31">
   <property name="a_track">0</property>
   <property name="b_track">3</property>
   <property name="compositing">0</property>
   <property name="distort">0</property>
   <property name="rotate_center">0</property>
   <property name="mlt_service">qtblend</property>
   <property name="kdenlive_id">qtblend</property>
   <property name="internal_added">237</property>
   <property name="always_active">1</property>
  </transition>
  <transition id="transition32">
   <property name="a_track">0</property>
   <property name="b_track">4</property>
   <property name="compositing">0</property>
   <property name="distort">0</property>
   <property name="rotate_center">0</property>
   <property name="mlt_service">qtblend</property>
   <property name="kdenlive_id">qtblend</property>
   <property name="internal_added">237</property>
   <property name="always_active">1</property>
  </transition>
  <filter id="filter12">
   <property name="window">75</property>
   <property name="max_gain">20dB</property>
   <property name="mlt_service">volume</property>
   <property name="internal_added">237</property>
   <property name="disable">1</property>
  </filter>
  <filter id="filter13">
   <property name="channel">-1</property>
   <property name="mlt_service">panner</property>
   <property name="internal_added">237</property>
   <property name="start">0.5</property>
   <property name="disable">1</property>
  </filter>
  <filter id="filter14">
   <property name="mlt_service">avfilter.subtitles</property>
   <property name="av.alpha">1</property>
   <property name="internal_added">237</property>
   <property name="av.filename">Congo (1995) - Incel Edition.kdenlive.ass</property>
   <property name="disable">1</property>
  </filter>
 </tractor>
 <playlist id="main_bin">
  <property name="kdenlive:folder.-1.2">Sequences</property>
  <property name="kdenlive:sequenceFolder">2</property>
  <property name="kdenlive:docproperties.activetimeline">{2eff404b-ac55-4a01-8e81-71f432cedf0b}</property>
  <property name="kdenlive:docproperties.audioChannels">2</property>
  <property name="kdenlive:docproperties.binsort">0</property>
  <property name="kdenlive:docproperties.browserurl">/Horror and SciFi/The Day After Tomorrow (2004) [2160p] [4K] [WEB] [HDR] [5.1]/</property>
  <property name="kdenlive:docproperties.documentid">1753751336090</property>
  <property name="kdenlive:docproperties.enableTimelineZone">0</property>
  <property name="kdenlive:docproperties.enableexternalproxy">0</property>
  <property name="kdenlive:docproperties.enableproxy">0</property>
  <property name="kdenlive:docproperties.externalproxyparams">./;;.LRV;./;;.MP4</property>
  <property name="kdenlive:docproperties.generateimageproxy">0</property>
  <property name="kdenlive:docproperties.generateproxy">0</property>
  <property name="kdenlive:docproperties.guidesCategories">[
    {
        "color": "#9b59b6",
        "comment": "Category 1",
        "index": 0
    },
    {
        "color": "#3daee9",
        "comment": "Category 2",
        "index": 1
    },
    {
        "color": "#1abc9c",
        "comment": "Category 3",
        "index": 2
    },
    {
        "color": "#1cdc9a",
        "comment": "Category 4",
        "index": 3
    },
    {
        "color": "#c9ce3b",
        "comment": "Category 5",
        "index": 4
    },
    {
        "color": "#fdbc4b",
        "comment": "Category 6",
        "index": 5
    },
    {
        "color": "#f39c1f",
        "comment": "Category 7",
        "index": 6
    },
    {
        "color": "#f47750",
        "comment": "Category 8",
        "index": 7
    },
    {
        "color": "#da4453",
        "comment": "Category 9",
        "index": 8
    }
]
</property>
  <property name="kdenlive:docproperties.kdenliveversion">25.04.2</property>
  <property name="kdenlive:docproperties.opensequences">{2eff404b-ac55-4a01-8e81-71f432cedf0b}</property>
  <property name="kdenlive:docproperties.previewextension"/>
  <property name="kdenlive:docproperties.previewparameters"/>
  <property name="kdenlive:docproperties.profile">AppData/Roaming/kdenlive/profiles/customprofile15</property>
  <property name="kdenlive:docproperties.proxyextension"/>
  <property name="kdenlive:docproperties.proxyimageminsize">2000</property>
  <property name="kdenlive:docproperties.proxyimagesize">800</property>
  <property name="kdenlive:docproperties.proxyminsize">1000</property>
  <property name="kdenlive:docproperties.proxyparams"/>
  <property name="kdenlive:docproperties.proxyresize">640</property>
  <property name="kdenlive:docproperties.seekOffset">30000</property>
  <property name="kdenlive:docproperties.sessionid">{b950f164-2777-411e-bc18-f232ea2e0694}</property>
  <property name="kdenlive:docproperties.uuid">{2eff404b-ac55-4a01-8e81-71f432cedf0b}</property>
  <property name="kdenlive:docproperties.version">1.1</property>
  <property name="kdenlive:expandedFolders"/>
  <property name="kdenlive:binZoom">4</property>
  <property name="kdenlive:extraBins">project_bin:-1:0</property>
  <property name="kdenlive:documentnotes"/>
  <property name="kdenlive:documentnotesversion">2</property>
  <property name="kdenlive:docproperties.rendercategory">Ultra-High Definition (4K)</property>
  <property name="kdenlive:docproperties.rendercustomquality">-1</property>
  <property name="kdenlive:docproperties.renderendguide">-1</property>
  <property name="kdenlive:docproperties.renderexportaudio">0</property>
  <property name="kdenlive:docproperties.renderfullcolorrange">0</property>
  <property name="kdenlive:docproperties.rendermode">0</property>
  <property name="kdenlive:docproperties.renderplay">0</property>
  <property name="kdenlive:docproperties.renderpreview">0</property>
  <property name="kdenlive:docproperties.renderprofile">MKV-H265 (HEVC)</property>
  <property name="kdenlive:docproperties.renderrescale">0</property>
  <property name="kdenlive:docproperties.renderrescaleheight">536</property>
  <property name="kdenlive:docproperties.renderrescalewidth">960</property>
  <property name="kdenlive:docproperties.renderspeed">6</property>
  <property name="kdenlive:docproperties.renderstartguide">-1</property>
  <property name="kdenlive:docproperties.rendertcoverlay">0</property>
  <property name="kdenlive:docproperties.rendertctype">-1</property>
  <property name="kdenlive:docproperties.rendertwopass">0</property>
  <property name="kdenlive:docproperties.renderurl">/FanEdits/FanMixes/Congo (1995) - Incel Edition/Congo (1995) - Incel Edition.mkv</property>
  <property name="xml_retain">1</property>
  <entry in="00:00:00.000" out="01:48:15.682" producer="chain4"/>
  <entry in="00:00:00.000" out="01:40:10.177" producer="tractor4"/>
 </playlist>
 <tractor id="tractor5" in="00:00:00.000" out="01:40:02.961">
  <property name="kdenlive:projectTractor">1</property>
  <track in="00:00:00.000" out="01:40:02.961" producer="tractor4"/>
 </tractor>
</mlt>
