<?xml version='1.0' encoding='utf-8'?>
<mlt LC_NUMERIC="en_US.UTF-8" producer="main_bin" root="C:/Users/kado/Videos/FanEdits/FanMixes/Final Fantasy (2001) Restoration" version="7.33.0">
 <profile colorspace="709" description="1916x1036 23.98fps" display_aspect_den="259" display_aspect_num="479" frame_rate_den="1001" frame_rate_num="24000" height="1036" progressive="1" sample_aspect_den="1" sample_aspect_num="1" width="1916"/>
 <chain id="chain4" out="01:45:58.350">
  <property name="length">152448</property>
  <property name="eof">pause</property>
  <property name="resource">N:/Videos/Horror and SciFi/Final Fantasy/Final.Fantasy.The.Spirits.Within.2001.1080p.BluRay.HEVC.DTS-LiNUX/Final.Fantasy.The.Spirits.Within.2001.1080p.BluRay.HEVC.DTS-LiNUX.mkv</property>
  <property name="mlt_service">avformat-novalidate</property>
  <property name="meta.media.nb_streams">37</property>
  <property name="meta.media.0.stream.type">video</property>
  <property name="meta.media.0.stream.frame_rate">23.976</property>
  <property name="meta.media.0.stream.sample_aspect_ratio">1</property>
  <property name="meta.media.0.codec.width">1916</property>
  <property name="meta.media.0.codec.height">1036</property>
  <property name="meta.media.0.codec.rotate">0</property>
  <property name="meta.media.0.codec.pix_fmt">yuv420p10le</property>
  <property name="meta.media.0.codec.sample_aspect_ratio">1</property>
  <property name="meta.media.0.codec.colorspace">709</property>
  <property name="meta.media.0.codec.color_trc">1</property>
  <property name="meta.media.0.codec.name">hevc</property>
  <property name="meta.media.0.codec.long_name">HEVC (High Efficiency Video Coding)</property>
  <property name="meta.media.0.codec.bit_rate">0</property>
  <property name="meta.attr.0.stream.BPS-eng.markup">4999776</property>
  <property name="meta.attr.0.stream.DURATION-eng.markup">01:45:58.352000000</property>
  <property name="meta.attr.0.stream.NUMBER_OF_FRAMES-eng.markup">152448</property>
  <property name="meta.attr.0.stream.NUMBER_OF_BYTES-eng.markup">3973792365</property>
  <property name="meta.attr.0.stream._STATISTICS_WRITING_APP-eng.markup">mkvmerge v40.0.0 ('Old Town Road + Pony') 64-bit</property>
  <property name="meta.attr.0.stream._STATISTICS_WRITING_DATE_UTC-eng.markup">2019-12-29 15:49:45</property>
  <property name="meta.attr.0.stream._STATISTICS_TAGS-eng.markup">BPS DURATION NUMBER_OF_FRAMES NUMBER_OF_BYTES</property>
  <property name="meta.media.1.stream.type">audio</property>
  <property name="meta.media.1.codec.sample_fmt">fltp</property>
  <property name="meta.media.1.codec.sample_rate">48000</property>
  <property name="meta.media.1.codec.channels">6</property>
  <property name="meta.media.1.codec.layout">5.1(side)</property>
  <property name="meta.media.1.codec.name">dca</property>
  <property name="meta.media.1.codec.long_name">DCA (DTS Coherent Acoustics)</property>
  <property name="meta.media.1.codec.bit_rate">1411200</property>
  <property name="meta.attr.1.stream.language.markup">eng</property>
  <property name="meta.attr.1.stream.title.markup">Surround</property>
  <property name="meta.attr.1.stream.BPS-eng.markup">1412999</property>
  <property name="meta.attr.1.stream.DURATION-eng.markup">01:45:58.358000000</property>
  <property name="meta.attr.1.stream.NUMBER_OF_FRAMES-eng.markup">596096</property>
  <property name="meta.attr.1.stream.NUMBER_OF_BYTES-eng.markup">1123044864</property>
  <property name="meta.attr.1.stream._STATISTICS_WRITING_APP-eng.markup">mkvmerge v40.0.0 ('Old Town Road + Pony') 64-bit</property>
  <property name="meta.attr.1.stream._STATISTICS_WRITING_DATE_UTC-eng.markup">2019-12-29 15:49:45</property>
  <property name="meta.attr.1.stream._STATISTICS_TAGS-eng.markup">BPS DURATION NUMBER_OF_FRAMES NUMBER_OF_BYTES</property>
  <property name="meta.media.2.codec.name">pgssub</property>
  <property name="meta.media.2.codec.long_name">HDMV Presentation Graphic Stream subtitles</property>
  <property name="meta.media.2.codec.bit_rate">0</property>
  <property name="meta.attr.2.stream.language.markup">eng</property>
  <property name="meta.attr.2.stream.title.markup">English</property>
  <property name="meta.attr.2.stream.BPS-eng.markup">24594</property>
  <property name="meta.attr.2.stream.DURATION-eng.markup">01:33:45.954000000</property>
  <property name="meta.attr.2.stream.NUMBER_OF_FRAMES-eng.markup">1686</property>
  <property name="meta.attr.2.stream.NUMBER_OF_BYTES-eng.markup">17296140</property>
  <property name="meta.attr.2.stream._STATISTICS_WRITING_APP-eng.markup">mkvmerge v40.0.0 ('Old Town Road + Pony') 64-bit</property>
  <property name="meta.attr.2.stream._STATISTICS_WRITING_DATE_UTC-eng.markup">2019-12-29 15:49:45</property>
  <property name="meta.attr.2.stream._STATISTICS_TAGS-eng.markup">BPS DURATION NUMBER_OF_FRAMES NUMBER_OF_BYTES</property>
  <property name="meta.media.3.codec.name">pgssub</property>
  <property name="meta.media.3.codec.long_name">HDMV Presentation Graphic Stream subtitles</property>
  <property name="meta.media.3.codec.bit_rate">0</property>
  <property name="meta.attr.3.stream.language.markup">eng</property>
  <property name="meta.attr.3.stream.title.markup">English SDH</property>
  <property name="meta.attr.3.stream.BPS-eng.markup">32739</property>
  <property name="meta.attr.3.stream.DURATION-eng.markup">01:41:48.102000000</property>
  <property name="meta.attr.3.stream.NUMBER_OF_FRAMES-eng.markup">2103</property>
  <property name="meta.attr.3.stream.NUMBER_OF_BYTES-eng.markup">24997093</property>
  <property name="meta.attr.3.stream._STATISTICS_WRITING_APP-eng.markup">mkvmerge v40.0.0 ('Old Town Road + Pony') 64-bit</property>
  <property name="meta.attr.3.stream._STATISTICS_WRITING_DATE_UTC-eng.markup">2019-12-29 15:49:45</property>
  <property name="meta.attr.3.stream._STATISTICS_TAGS-eng.markup">BPS DURATION NUMBER_OF_FRAMES NUMBER_OF_BYTES</property>
  <property name="meta.media.4.codec.name">pgssub</property>
  <property name="meta.media.4.codec.long_name">HDMV Presentation Graphic Stream subtitles</property>
  <property name="meta.media.4.codec.bit_rate">0</property>
  <property name="meta.attr.4.stream.language.markup">ara</property>
  <property name="meta.attr.4.stream.title.markup">Arabic</property>
  <property name="meta.attr.4.stream.BPS-eng.markup">13581</property>
  <property name="meta.attr.4.stream.DURATION-eng.markup">01:33:59.217000000</property>
  <property name="meta.attr.4.stream.NUMBER_OF_FRAMES-eng.markup">1690</property>
  <property name="meta.attr.4.stream.NUMBER_OF_BYTES-eng.markup">9573918</property>
  <property name="meta.attr.4.stream._STATISTICS_WRITING_APP-eng.markup">mkvmerge v40.0.0 ('Old Town Road + Pony') 64-bit</property>
  <property name="meta.attr.4.stream._STATISTICS_WRITING_DATE_UTC-eng.markup">2019-12-29 15:49:45</property>
  <property name="meta.attr.4.stream._STATISTICS_TAGS-eng.markup">BPS DURATION NUMBER_OF_FRAMES NUMBER_OF_BYTES</property>
  <property name="meta.media.5.codec.name">pgssub</property>
  <property name="meta.media.5.codec.long_name">HDMV Presentation Graphic Stream subtitles</property>
  <property name="meta.media.5.codec.bit_rate">0</property>
  <property name="meta.attr.5.stream.language.markup">bul</property>
  <property name="meta.attr.5.stream.title.markup">Bulgarian</property>
  <property name="meta.attr.5.stream.BPS-eng.markup">23121</property>
  <property name="meta.attr.5.stream.DURATION-eng.markup">01:35:32.310000000</property>
  <property name="meta.attr.5.stream.NUMBER_OF_FRAMES-eng.markup">1656</property>
  <property name="meta.attr.5.stream.NUMBER_OF_BYTES-eng.markup">16567112</property>
  <property name="meta.attr.5.stream._STATISTICS_WRITING_APP-eng.markup">mkvmerge v40.0.0 ('Old Town Road + Pony') 64-bit</property>
  <property name="meta.attr.5.stream._STATISTICS_WRITING_DATE_UTC-eng.markup">2019-12-29 15:49:45</property>
  <property name="meta.attr.5.stream._STATISTICS_TAGS-eng.markup">BPS DURATION NUMBER_OF_FRAMES NUMBER_OF_BYTES</property>
  <property name="meta.media.6.codec.name">pgssub</property>
  <property name="meta.media.6.codec.long_name">HDMV Presentation Graphic Stream subtitles</property>
  <property name="meta.media.6.codec.bit_rate">0</property>
  <property name="meta.attr.6.stream.language.markup">chi</property>
  <property name="meta.attr.6.stream.title.markup">Cantonese</property>
  <property name="meta.attr.6.stream.BPS-eng.markup">19607</property>
  <property name="meta.attr.6.stream.DURATION-eng.markup">01:42:59.006000000</property>
  <property name="meta.attr.6.stream.NUMBER_OF_FRAMES-eng.markup">1709</property>
  <property name="meta.attr.6.stream.NUMBER_OF_BYTES-eng.markup">15144515</property>
  <property name="meta.attr.6.stream._STATISTICS_WRITING_APP-eng.markup">mkvmerge v40.0.0 ('Old Town Road + Pony') 64-bit</property>
  <property name="meta.attr.6.stream._STATISTICS_WRITING_DATE_UTC-eng.markup">2019-12-29 15:49:45</property>
  <property name="meta.attr.6.stream._STATISTICS_TAGS-eng.markup">BPS DURATION NUMBER_OF_FRAMES NUMBER_OF_BYTES</property>
  <property name="meta.media.7.codec.name">pgssub</property>
  <property name="meta.media.7.codec.long_name">HDMV Presentation Graphic Stream subtitles</property>
  <property name="meta.media.7.codec.bit_rate">0</property>
  <property name="meta.attr.7.stream.language.markup">chi</property>
  <property name="meta.attr.7.stream.title.markup">Mandarin</property>
  <property name="meta.attr.7.stream.BPS-eng.markup">21248</property>
  <property name="meta.attr.7.stream.DURATION-eng.markup">01:33:59.258000000</property>
  <property name="meta.attr.7.stream.NUMBER_OF_FRAMES-eng.markup">1704</property>
  <property name="meta.attr.7.stream.NUMBER_OF_BYTES-eng.markup">14978356</property>
  <property name="meta.attr.7.stream._STATISTICS_WRITING_APP-eng.markup">mkvmerge v40.0.0 ('Old Town Road + Pony') 64-bit</property>
  <property name="meta.attr.7.stream._STATISTICS_WRITING_DATE_UTC-eng.markup">2019-12-29 15:49:45</property>
  <property name="meta.attr.7.stream._STATISTICS_TAGS-eng.markup">BPS DURATION NUMBER_OF_FRAMES NUMBER_OF_BYTES</property>
  <property name="meta.media.8.codec.name">pgssub</property>
  <property name="meta.media.8.codec.long_name">HDMV Presentation Graphic Stream subtitles</property>
  <property name="meta.media.8.codec.bit_rate">0</property>
  <property name="meta.attr.8.stream.language.markup">hrv</property>
  <property name="meta.attr.8.stream.title.markup">Croatian</property>
  <property name="meta.attr.8.stream.BPS-eng.markup">18941</property>
  <property name="meta.attr.8.stream.DURATION-eng.markup">01:33:59.383000000</property>
  <property name="meta.attr.8.stream.NUMBER_OF_FRAMES-eng.markup">1355</property>
  <property name="meta.attr.8.stream.NUMBER_OF_BYTES-eng.markup">13352216</property>
  <property name="meta.attr.8.stream._STATISTICS_WRITING_APP-eng.markup">mkvmerge v40.0.0 ('Old Town Road + Pony') 64-bit</property>
  <property name="meta.attr.8.stream._STATISTICS_WRITING_DATE_UTC-eng.markup">2019-12-29 15:49:45</property>
  <property name="meta.attr.8.stream._STATISTICS_TAGS-eng.markup">BPS DURATION NUMBER_OF_FRAMES NUMBER_OF_BYTES</property>
  <property name="meta.media.9.codec.name">pgssub</property>
  <property name="meta.media.9.codec.long_name">HDMV Presentation Graphic Stream subtitles</property>
  <property name="meta.media.9.codec.bit_rate">0</property>
  <property name="meta.attr.9.stream.language.markup">cze</property>
  <property name="meta.attr.9.stream.title.markup">Czech</property>
  <property name="meta.attr.9.stream.BPS-eng.markup">21071</property>
  <property name="meta.attr.9.stream.DURATION-eng.markup">01:33:59.300000000</property>
  <property name="meta.attr.9.stream.NUMBER_OF_FRAMES-eng.markup">1688</property>
  <property name="meta.attr.9.stream.NUMBER_OF_BYTES-eng.markup">14853464</property>
  <property name="meta.attr.9.stream._STATISTICS_WRITING_APP-eng.markup">mkvmerge v40.0.0 ('Old Town Road + Pony') 64-bit</property>
  <property name="meta.attr.9.stream._STATISTICS_WRITING_DATE_UTC-eng.markup">2019-12-29 15:49:45</property>
  <property name="meta.attr.9.stream._STATISTICS_TAGS-eng.markup">BPS DURATION NUMBER_OF_FRAMES NUMBER_OF_BYTES</property>
  <property name="meta.media.10.codec.name">pgssub</property>
  <property name="meta.media.10.codec.long_name">HDMV Presentation Graphic Stream subtitles</property>
  <property name="meta.media.10.codec.bit_rate">0</property>
  <property name="meta.attr.10.stream.language.markup">dan</property>
  <property name="meta.attr.10.stream.title.markup">Danish</property>
  <property name="meta.attr.10.stream.BPS-eng.markup">20546</property>
  <property name="meta.attr.10.stream.DURATION-eng.markup">01:33:59.717000000</property>
  <property name="meta.attr.10.stream.NUMBER_OF_FRAMES-eng.markup">1184</property>
  <property name="meta.attr.10.stream.NUMBER_OF_BYTES-eng.markup">14484283</property>
  <property name="meta.attr.10.stream._STATISTICS_WRITING_APP-eng.markup">mkvmerge v40.0.0 ('Old Town Road + Pony') 64-bit</property>
  <property name="meta.attr.10.stream._STATISTICS_WRITING_DATE_UTC-eng.markup">2019-12-29 15:49:45</property>
  <property name="meta.attr.10.stream._STATISTICS_TAGS-eng.markup">BPS DURATION NUMBER_OF_FRAMES NUMBER_OF_BYTES</property>
  <property name="meta.media.11.codec.name">pgssub</property>
  <property name="meta.media.11.codec.long_name">HDMV Presentation Graphic Stream subtitles</property>
  <property name="meta.media.11.codec.bit_rate">0</property>
  <property name="meta.attr.11.stream.language.markup">dut</property>
  <property name="meta.attr.11.stream.title.markup">Dutch</property>
  <property name="meta.attr.11.stream.BPS-eng.markup">23897</property>
  <property name="meta.attr.11.stream.DURATION-eng.markup">01:33:59.675000000</property>
  <property name="meta.attr.11.stream.NUMBER_OF_FRAMES-eng.markup">1258</property>
  <property name="meta.attr.11.stream.NUMBER_OF_BYTES-eng.markup">16846710</property>
  <property name="meta.attr.11.stream._STATISTICS_WRITING_APP-eng.markup">mkvmerge v40.0.0 ('Old Town Road + Pony') 64-bit</property>
  <property name="meta.attr.11.stream._STATISTICS_WRITING_DATE_UTC-eng.markup">2019-12-29 15:49:45</property>
  <property name="meta.attr.11.stream._STATISTICS_TAGS-eng.markup">BPS DURATION NUMBER_OF_FRAMES NUMBER_OF_BYTES</property>
  <property name="meta.media.12.codec.name">pgssub</property>
  <property name="meta.media.12.codec.long_name">HDMV Presentation Graphic Stream subtitles</property>
  <property name="meta.media.12.codec.bit_rate">0</property>
  <property name="meta.attr.12.stream.language.markup">fin</property>
  <property name="meta.attr.12.stream.title.markup">Finnish</property>
  <property name="meta.attr.12.stream.BPS-eng.markup">20857</property>
  <property name="meta.attr.12.stream.DURATION-eng.markup">01:34:00.718000000</property>
  <property name="meta.attr.12.stream.NUMBER_OF_FRAMES-eng.markup">1209</property>
  <property name="meta.attr.12.stream.NUMBER_OF_BYTES-eng.markup">14706553</property>
  <property name="meta.attr.12.stream._STATISTICS_WRITING_APP-eng.markup">mkvmerge v40.0.0 ('Old Town Road + Pony') 64-bit</property>
  <property name="meta.attr.12.stream._STATISTICS_WRITING_DATE_UTC-eng.markup">2019-12-29 15:49:45</property>
  <property name="meta.attr.12.stream._STATISTICS_TAGS-eng.markup">BPS DURATION NUMBER_OF_FRAMES NUMBER_OF_BYTES</property>
  <property name="meta.media.13.codec.name">pgssub</property>
  <property name="meta.media.13.codec.long_name">HDMV Presentation Graphic Stream subtitles</property>
  <property name="meta.media.13.codec.bit_rate">0</property>
  <property name="meta.attr.13.stream.language.markup">fre</property>
  <property name="meta.attr.13.stream.title.markup">French</property>
  <property name="meta.attr.13.stream.BPS-eng.markup">21198</property>
  <property name="meta.attr.13.stream.DURATION-eng.markup">01:43:41.006000000</property>
  <property name="meta.attr.13.stream.NUMBER_OF_FRAMES-eng.markup">1642</property>
  <property name="meta.attr.13.stream.NUMBER_OF_BYTES-eng.markup">16484862</property>
  <property name="meta.attr.13.stream._STATISTICS_WRITING_APP-eng.markup">mkvmerge v40.0.0 ('Old Town Road + Pony') 64-bit</property>
  <property name="meta.attr.13.stream._STATISTICS_WRITING_DATE_UTC-eng.markup">2019-12-29 15:49:45</property>
  <property name="meta.attr.13.stream._STATISTICS_TAGS-eng.markup">BPS DURATION NUMBER_OF_FRAMES NUMBER_OF_BYTES</property>
  <property name="meta.media.14.codec.name">pgssub</property>
  <property name="meta.media.14.codec.long_name">HDMV Presentation Graphic Stream subtitles</property>
  <property name="meta.media.14.codec.bit_rate">0</property>
  <property name="meta.attr.14.stream.language.markup">ger</property>
  <property name="meta.attr.14.stream.title.markup">German</property>
  <property name="meta.attr.14.stream.BPS-eng.markup">24239</property>
  <property name="meta.attr.14.stream.DURATION-eng.markup">01:34:00.260000000</property>
  <property name="meta.attr.14.stream.NUMBER_OF_FRAMES-eng.markup">1493</property>
  <property name="meta.attr.14.stream.NUMBER_OF_BYTES-eng.markup">17089540</property>
  <property name="meta.attr.14.stream._STATISTICS_WRITING_APP-eng.markup">mkvmerge v40.0.0 ('Old Town Road + Pony') 64-bit</property>
  <property name="meta.attr.14.stream._STATISTICS_WRITING_DATE_UTC-eng.markup">2019-12-29 15:49:45</property>
  <property name="meta.attr.14.stream._STATISTICS_TAGS-eng.markup">BPS DURATION NUMBER_OF_FRAMES NUMBER_OF_BYTES</property>
  <property name="meta.media.15.codec.name">pgssub</property>
  <property name="meta.media.15.codec.long_name">HDMV Presentation Graphic Stream subtitles</property>
  <property name="meta.media.15.codec.bit_rate">0</property>
  <property name="meta.attr.15.stream.language.markup">gre</property>
  <property name="meta.attr.15.stream.title.markup">Greek</property>
  <property name="meta.attr.15.stream.BPS-eng.markup">24963</property>
  <property name="meta.attr.15.stream.DURATION-eng.markup">01:33:59.300000000</property>
  <property name="meta.attr.15.stream.NUMBER_OF_FRAMES-eng.markup">1694</property>
  <property name="meta.attr.15.stream.NUMBER_OF_BYTES-eng.markup">17597238</property>
  <property name="meta.attr.15.stream._STATISTICS_WRITING_APP-eng.markup">mkvmerge v40.0.0 ('Old Town Road + Pony') 64-bit</property>
  <property name="meta.attr.15.stream._STATISTICS_WRITING_DATE_UTC-eng.markup">2019-12-29 15:49:45</property>
  <property name="meta.attr.15.stream._STATISTICS_TAGS-eng.markup">BPS DURATION NUMBER_OF_FRAMES NUMBER_OF_BYTES</property>
  <property name="meta.media.16.codec.name">pgssub</property>
  <property name="meta.media.16.codec.long_name">HDMV Presentation Graphic Stream subtitles</property>
  <property name="meta.media.16.codec.bit_rate">0</property>
  <property name="meta.attr.16.stream.language.markup">heb</property>
  <property name="meta.attr.16.stream.title.markup">Hebrew</property>
  <property name="meta.attr.16.stream.BPS-eng.markup">18470</property>
  <property name="meta.attr.16.stream.DURATION-eng.markup">01:33:59.217000000</property>
  <property name="meta.attr.16.stream.NUMBER_OF_FRAMES-eng.markup">1688</property>
  <property name="meta.attr.16.stream.NUMBER_OF_BYTES-eng.markup">13019656</property>
  <property name="meta.attr.16.stream._STATISTICS_WRITING_APP-eng.markup">mkvmerge v40.0.0 ('Old Town Road + Pony') 64-bit</property>
  <property name="meta.attr.16.stream._STATISTICS_WRITING_DATE_UTC-eng.markup">2019-12-29 15:49:45</property>
  <property name="meta.attr.16.stream._STATISTICS_TAGS-eng.markup">BPS DURATION NUMBER_OF_FRAMES NUMBER_OF_BYTES</property>
  <property name="meta.media.17.codec.name">pgssub</property>
  <property name="meta.media.17.codec.long_name">HDMV Presentation Graphic Stream subtitles</property>
  <property name="meta.media.17.codec.bit_rate">0</property>
  <property name="meta.attr.17.stream.language.markup">hin</property>
  <property name="meta.attr.17.stream.title.markup">Hindi</property>
  <property name="meta.attr.17.stream.BPS-eng.markup">21017</property>
  <property name="meta.attr.17.stream.DURATION-eng.markup">01:33:59.300000000</property>
  <property name="meta.attr.17.stream.NUMBER_OF_FRAMES-eng.markup">1690</property>
  <property name="meta.attr.17.stream.NUMBER_OF_BYTES-eng.markup">14815519</property>
  <property name="meta.attr.17.stream._STATISTICS_WRITING_APP-eng.markup">mkvmerge v40.0.0 ('Old Town Road + Pony') 64-bit</property>
  <property name="meta.attr.17.stream._STATISTICS_WRITING_DATE_UTC-eng.markup">2019-12-29 15:49:45</property>
  <property name="meta.attr.17.stream._STATISTICS_TAGS-eng.markup">BPS DURATION NUMBER_OF_FRAMES NUMBER_OF_BYTES</property>
  <property name="meta.media.18.codec.name">pgssub</property>
  <property name="meta.media.18.codec.long_name">HDMV Presentation Graphic Stream subtitles</property>
  <property name="meta.media.18.codec.bit_rate">0</property>
  <property name="meta.attr.18.stream.language.markup">hun</property>
  <property name="meta.attr.18.stream.title.markup">Hungarian</property>
  <property name="meta.attr.18.stream.BPS-eng.markup">19042</property>
  <property name="meta.attr.18.stream.DURATION-eng.markup">01:33:59.175000000</property>
  <property name="meta.attr.18.stream.NUMBER_OF_FRAMES-eng.markup">1690</property>
  <property name="meta.attr.18.stream.NUMBER_OF_BYTES-eng.markup">13423018</property>
  <property name="meta.attr.18.stream._STATISTICS_WRITING_APP-eng.markup">mkvmerge v40.0.0 ('Old Town Road + Pony') 64-bit</property>
  <property name="meta.attr.18.stream._STATISTICS_WRITING_DATE_UTC-eng.markup">2019-12-29 15:49:45</property>
  <property name="meta.attr.18.stream._STATISTICS_TAGS-eng.markup">BPS DURATION NUMBER_OF_FRAMES NUMBER_OF_BYTES</property>
  <property name="meta.media.19.codec.name">pgssub</property>
  <property name="meta.media.19.codec.long_name">HDMV Presentation Graphic Stream subtitles</property>
  <property name="meta.media.19.codec.bit_rate">0</property>
  <property name="meta.attr.19.stream.language.markup">ice</property>
  <property name="meta.attr.19.stream.title.markup">Icelandic</property>
  <property name="meta.attr.19.stream.BPS-eng.markup">23876</property>
  <property name="meta.attr.19.stream.DURATION-eng.markup">01:33:59.217000000</property>
  <property name="meta.attr.19.stream.NUMBER_OF_FRAMES-eng.markup">1688</property>
  <property name="meta.attr.19.stream.NUMBER_OF_BYTES-eng.markup">16830422</property>
  <property name="meta.attr.19.stream._STATISTICS_WRITING_APP-eng.markup">mkvmerge v40.0.0 ('Old Town Road + Pony') 64-bit</property>
  <property name="meta.attr.19.stream._STATISTICS_WRITING_DATE_UTC-eng.markup">2019-12-29 15:49:45</property>
  <property name="meta.attr.19.stream._STATISTICS_TAGS-eng.markup">BPS DURATION NUMBER_OF_FRAMES NUMBER_OF_BYTES</property>
  <property name="meta.media.20.codec.name">pgssub</property>
  <property name="meta.media.20.codec.long_name">HDMV Presentation Graphic Stream subtitles</property>
  <property name="meta.media.20.codec.bit_rate">0</property>
  <property name="meta.attr.20.stream.language.markup">ind</property>
  <property name="meta.attr.20.stream.title.markup">Indonesian</property>
  <property name="meta.attr.20.stream.BPS-eng.markup">26444</property>
  <property name="meta.attr.20.stream.DURATION-eng.markup">01:33:59.300000000</property>
  <property name="meta.attr.20.stream.NUMBER_OF_FRAMES-eng.markup">1662</property>
  <property name="meta.attr.20.stream.NUMBER_OF_BYTES-eng.markup">18640975</property>
  <property name="meta.attr.20.stream._STATISTICS_WRITING_APP-eng.markup">mkvmerge v40.0.0 ('Old Town Road + Pony') 64-bit</property>
  <property name="meta.attr.20.stream._STATISTICS_WRITING_DATE_UTC-eng.markup">2019-12-29 15:49:45</property>
  <property name="meta.attr.20.stream._STATISTICS_TAGS-eng.markup">BPS DURATION NUMBER_OF_FRAMES NUMBER_OF_BYTES</property>
  <property name="meta.media.21.codec.name">pgssub</property>
  <property name="meta.media.21.codec.long_name">HDMV Presentation Graphic Stream subtitles</property>
  <property name="meta.media.21.codec.bit_rate">0</property>
  <property name="meta.attr.21.stream.language.markup">ita</property>
  <property name="meta.attr.21.stream.title.markup">Italian</property>
  <property name="meta.attr.21.stream.BPS-eng.markup">23573</property>
  <property name="meta.attr.21.stream.DURATION-eng.markup">01:42:58.922000000</property>
  <property name="meta.attr.21.stream.NUMBER_OF_FRAMES-eng.markup">1698</property>
  <property name="meta.attr.21.stream.NUMBER_OF_BYTES-eng.markup">18207609</property>
  <property name="meta.attr.21.stream._STATISTICS_WRITING_APP-eng.markup">mkvmerge v40.0.0 ('Old Town Road + Pony') 64-bit</property>
  <property name="meta.attr.21.stream._STATISTICS_WRITING_DATE_UTC-eng.markup">2019-12-29 15:49:45</property>
  <property name="meta.attr.21.stream._STATISTICS_TAGS-eng.markup">BPS DURATION NUMBER_OF_FRAMES NUMBER_OF_BYTES</property>
  <property name="meta.media.22.codec.name">pgssub</property>
  <property name="meta.media.22.codec.long_name">HDMV Presentation Graphic Stream subtitles</property>
  <property name="meta.media.22.codec.bit_rate">0</property>
  <property name="meta.attr.22.stream.language.markup">kor</property>
  <property name="meta.attr.22.stream.title.markup">Korean</property>
  <property name="meta.attr.22.stream.BPS-eng.markup">19788</property>
  <property name="meta.attr.22.stream.DURATION-eng.markup">01:35:32.477000000</property>
  <property name="meta.attr.22.stream.NUMBER_OF_FRAMES-eng.markup">1708</property>
  <property name="meta.attr.22.stream.NUMBER_OF_BYTES-eng.markup">14179403</property>
  <property name="meta.attr.22.stream._STATISTICS_WRITING_APP-eng.markup">mkvmerge v40.0.0 ('Old Town Road + Pony') 64-bit</property>
  <property name="meta.attr.22.stream._STATISTICS_WRITING_DATE_UTC-eng.markup">2019-12-29 15:49:45</property>
  <property name="meta.attr.22.stream._STATISTICS_TAGS-eng.markup">BPS DURATION NUMBER_OF_FRAMES NUMBER_OF_BYTES</property>
  <property name="meta.media.23.codec.name">pgssub</property>
  <property name="meta.media.23.codec.long_name">HDMV Presentation Graphic Stream subtitles</property>
  <property name="meta.media.23.codec.bit_rate">0</property>
  <property name="meta.attr.23.stream.language.markup">nor</property>
  <property name="meta.attr.23.stream.title.markup">Norwegian</property>
  <property name="meta.attr.23.stream.BPS-eng.markup">20066</property>
  <property name="meta.attr.23.stream.DURATION-eng.markup">01:33:59.675000000</property>
  <property name="meta.attr.23.stream.NUMBER_OF_FRAMES-eng.markup">1184</property>
  <property name="meta.attr.23.stream.NUMBER_OF_BYTES-eng.markup">14146014</property>
  <property name="meta.attr.23.stream._STATISTICS_WRITING_APP-eng.markup">mkvmerge v40.0.0 ('Old Town Road + Pony') 64-bit</property>
  <property name="meta.attr.23.stream._STATISTICS_WRITING_DATE_UTC-eng.markup">2019-12-29 15:49:45</property>
  <property name="meta.attr.23.stream._STATISTICS_TAGS-eng.markup">BPS DURATION NUMBER_OF_FRAMES NUMBER_OF_BYTES</property>
  <property name="meta.media.24.codec.name">pgssub</property>
  <property name="meta.media.24.codec.long_name">HDMV Presentation Graphic Stream subtitles</property>
  <property name="meta.media.24.codec.bit_rate">0</property>
  <property name="meta.attr.24.stream.language.markup">pol</property>
  <property name="meta.attr.24.stream.title.markup">Polish</property>
  <property name="meta.attr.24.stream.BPS-eng.markup">18199</property>
  <property name="meta.attr.24.stream.DURATION-eng.markup">01:33:59.300000000</property>
  <property name="meta.attr.24.stream.NUMBER_OF_FRAMES-eng.markup">1688</property>
  <property name="meta.attr.24.stream.NUMBER_OF_BYTES-eng.markup">12829046</property>
  <property name="meta.attr.24.stream._STATISTICS_WRITING_APP-eng.markup">mkvmerge v40.0.0 ('Old Town Road + Pony') 64-bit</property>
  <property name="meta.attr.24.stream._STATISTICS_WRITING_DATE_UTC-eng.markup">2019-12-29 15:49:45</property>
  <property name="meta.attr.24.stream._STATISTICS_TAGS-eng.markup">BPS DURATION NUMBER_OF_FRAMES NUMBER_OF_BYTES</property>
  <property name="meta.media.25.codec.name">pgssub</property>
  <property name="meta.media.25.codec.long_name">HDMV Presentation Graphic Stream subtitles</property>
  <property name="meta.media.25.codec.bit_rate">0</property>
  <property name="meta.attr.25.stream.language.markup">por</property>
  <property name="meta.attr.25.stream.title.markup">Brazilian Portuguese</property>
  <property name="meta.attr.25.stream.BPS-eng.markup">29654</property>
  <property name="meta.attr.25.stream.DURATION-eng.markup">01:33:59.300000000</property>
  <property name="meta.attr.25.stream.NUMBER_OF_FRAMES-eng.markup">1836</property>
  <property name="meta.attr.25.stream.NUMBER_OF_BYTES-eng.markup">20903964</property>
  <property name="meta.attr.25.stream._STATISTICS_WRITING_APP-eng.markup">mkvmerge v40.0.0 ('Old Town Road + Pony') 64-bit</property>
  <property name="meta.attr.25.stream._STATISTICS_WRITING_DATE_UTC-eng.markup">2019-12-29 15:49:45</property>
  <property name="meta.attr.25.stream._STATISTICS_TAGS-eng.markup">BPS DURATION NUMBER_OF_FRAMES NUMBER_OF_BYTES</property>
  <property name="meta.media.26.codec.name">pgssub</property>
  <property name="meta.media.26.codec.long_name">HDMV Presentation Graphic Stream subtitles</property>
  <property name="meta.media.26.codec.bit_rate">0</property>
  <property name="meta.attr.26.stream.language.markup">por</property>
  <property name="meta.attr.26.stream.title.markup">Iberian Portuguese</property>
  <property name="meta.attr.26.stream.BPS-eng.markup">27145</property>
  <property name="meta.attr.26.stream.DURATION-eng.markup">01:33:59.300000000</property>
  <property name="meta.attr.26.stream.NUMBER_OF_FRAMES-eng.markup">1720</property>
  <property name="meta.attr.26.stream.NUMBER_OF_BYTES-eng.markup">19134971</property>
  <property name="meta.attr.26.stream._STATISTICS_WRITING_APP-eng.markup">mkvmerge v40.0.0 ('Old Town Road + Pony') 64-bit</property>
  <property name="meta.attr.26.stream._STATISTICS_WRITING_DATE_UTC-eng.markup">2019-12-29 15:49:45</property>
  <property name="meta.attr.26.stream._STATISTICS_TAGS-eng.markup">BPS DURATION NUMBER_OF_FRAMES NUMBER_OF_BYTES</property>
  <property name="meta.media.27.codec.name">pgssub</property>
  <property name="meta.media.27.codec.long_name">HDMV Presentation Graphic Stream subtitles</property>
  <property name="meta.media.27.codec.bit_rate">0</property>
  <property name="meta.attr.27.stream.language.markup">rum</property>
  <property name="meta.attr.27.stream.title.markup">Romanian</property>
  <property name="meta.attr.27.stream.BPS-eng.markup">25197</property>
  <property name="meta.attr.27.stream.DURATION-eng.markup">01:35:32.519000000</property>
  <property name="meta.attr.27.stream.NUMBER_OF_FRAMES-eng.markup">1706</property>
  <property name="meta.attr.27.stream.NUMBER_OF_BYTES-eng.markup">18055771</property>
  <property name="meta.attr.27.stream._STATISTICS_WRITING_APP-eng.markup">mkvmerge v40.0.0 ('Old Town Road + Pony') 64-bit</property>
  <property name="meta.attr.27.stream._STATISTICS_WRITING_DATE_UTC-eng.markup">2019-12-29 15:49:45</property>
  <property name="meta.attr.27.stream._STATISTICS_TAGS-eng.markup">BPS DURATION NUMBER_OF_FRAMES NUMBER_OF_BYTES</property>
  <property name="meta.media.28.codec.name">pgssub</property>
  <property name="meta.media.28.codec.long_name">HDMV Presentation Graphic Stream subtitles</property>
  <property name="meta.media.28.codec.bit_rate">0</property>
  <property name="meta.attr.28.stream.language.markup">slv</property>
  <property name="meta.attr.28.stream.title.markup">Slovenian</property>
  <property name="meta.attr.28.stream.BPS-eng.markup">22934</property>
  <property name="meta.attr.28.stream.DURATION-eng.markup">01:33:59.300000000</property>
  <property name="meta.attr.28.stream.NUMBER_OF_FRAMES-eng.markup">1706</property>
  <property name="meta.attr.28.stream.NUMBER_OF_BYTES-eng.markup">16167012</property>
  <property name="meta.attr.28.stream._STATISTICS_WRITING_APP-eng.markup">mkvmerge v40.0.0 ('Old Town Road + Pony') 64-bit</property>
  <property name="meta.attr.28.stream._STATISTICS_WRITING_DATE_UTC-eng.markup">2019-12-29 15:49:45</property>
  <property name="meta.attr.28.stream._STATISTICS_TAGS-eng.markup">BPS DURATION NUMBER_OF_FRAMES NUMBER_OF_BYTES</property>
  <property name="meta.media.29.codec.name">pgssub</property>
  <property name="meta.media.29.codec.long_name">HDMV Presentation Graphic Stream subtitles</property>
  <property name="meta.media.29.codec.bit_rate">0</property>
  <property name="meta.attr.29.stream.language.markup">spa</property>
  <property name="meta.attr.29.stream.title.markup">Spanish (Latin America)</property>
  <property name="meta.attr.29.stream.BPS-eng.markup">25790</property>
  <property name="meta.attr.29.stream.DURATION-eng.markup">01:35:32.519000000</property>
  <property name="meta.attr.29.stream.NUMBER_OF_FRAMES-eng.markup">1699</property>
  <property name="meta.attr.29.stream.NUMBER_OF_BYTES-eng.markup">18480666</property>
  <property name="meta.attr.29.stream._STATISTICS_WRITING_APP-eng.markup">mkvmerge v40.0.0 ('Old Town Road + Pony') 64-bit</property>
  <property name="meta.attr.29.stream._STATISTICS_WRITING_DATE_UTC-eng.markup">2019-12-29 15:49:45</property>
  <property name="meta.attr.29.stream._STATISTICS_TAGS-eng.markup">BPS DURATION NUMBER_OF_FRAMES NUMBER_OF_BYTES</property>
  <property name="meta.media.30.codec.name">pgssub</property>
  <property name="meta.media.30.codec.long_name">HDMV Presentation Graphic Stream subtitles</property>
  <property name="meta.media.30.codec.bit_rate">0</property>
  <property name="meta.attr.30.stream.language.markup">spa</property>
  <property name="meta.attr.30.stream.title.markup">Spanish (Spain)</property>
  <property name="meta.attr.30.stream.BPS-eng.markup">20473</property>
  <property name="meta.attr.30.stream.DURATION-eng.markup">01:33:59.300000000</property>
  <property name="meta.attr.30.stream.NUMBER_OF_FRAMES-eng.markup">1702</property>
  <property name="meta.attr.30.stream.NUMBER_OF_BYTES-eng.markup">14432022</property>
  <property name="meta.attr.30.stream._STATISTICS_WRITING_APP-eng.markup">mkvmerge v40.0.0 ('Old Town Road + Pony') 64-bit</property>
  <property name="meta.attr.30.stream._STATISTICS_WRITING_DATE_UTC-eng.markup">2019-12-29 15:49:45</property>
  <property name="meta.attr.30.stream._STATISTICS_TAGS-eng.markup">BPS DURATION NUMBER_OF_FRAMES NUMBER_OF_BYTES</property>
  <property name="meta.media.31.codec.name">pgssub</property>
  <property name="meta.media.31.codec.long_name">HDMV Presentation Graphic Stream subtitles</property>
  <property name="meta.media.31.codec.bit_rate">0</property>
  <property name="meta.attr.31.stream.language.markup">swe</property>
  <property name="meta.attr.31.stream.title.markup">Swedish</property>
  <property name="meta.attr.31.stream.BPS-eng.markup">19711</property>
  <property name="meta.attr.31.stream.DURATION-eng.markup">01:33:59.675000000</property>
  <property name="meta.attr.31.stream.NUMBER_OF_FRAMES-eng.markup">1184</property>
  <property name="meta.attr.31.stream.NUMBER_OF_BYTES-eng.markup">13895741</property>
  <property name="meta.attr.31.stream._STATISTICS_WRITING_APP-eng.markup">mkvmerge v40.0.0 ('Old Town Road + Pony') 64-bit</property>
  <property name="meta.attr.31.stream._STATISTICS_WRITING_DATE_UTC-eng.markup">2019-12-29 15:49:45</property>
  <property name="meta.attr.31.stream._STATISTICS_TAGS-eng.markup">BPS DURATION NUMBER_OF_FRAMES NUMBER_OF_BYTES</property>
  <property name="meta.media.32.codec.name">pgssub</property>
  <property name="meta.media.32.codec.long_name">HDMV Presentation Graphic Stream subtitles</property>
  <property name="meta.media.32.codec.bit_rate">0</property>
  <property name="meta.attr.32.stream.language.markup">tha</property>
  <property name="meta.attr.32.stream.title.markup">Thai</property>
  <property name="meta.attr.32.stream.BPS-eng.markup">20455</property>
  <property name="meta.attr.32.stream.DURATION-eng.markup">01:44:32.308000000</property>
  <property name="meta.attr.32.stream.NUMBER_OF_FRAMES-eng.markup">1708</property>
  <property name="meta.attr.32.stream.NUMBER_OF_BYTES-eng.markup">16038127</property>
  <property name="meta.attr.32.stream._STATISTICS_WRITING_APP-eng.markup">mkvmerge v40.0.0 ('Old Town Road + Pony') 64-bit</property>
  <property name="meta.attr.32.stream._STATISTICS_WRITING_DATE_UTC-eng.markup">2019-12-29 15:49:45</property>
  <property name="meta.attr.32.stream._STATISTICS_TAGS-eng.markup">BPS DURATION NUMBER_OF_FRAMES NUMBER_OF_BYTES</property>
  <property name="meta.media.33.codec.name">pgssub</property>
  <property name="meta.media.33.codec.long_name">HDMV Presentation Graphic Stream subtitles</property>
  <property name="meta.media.33.codec.bit_rate">0</property>
  <property name="meta.attr.33.stream.language.markup">tur</property>
  <property name="meta.attr.33.stream.title.markup">Turkish</property>
  <property name="meta.attr.33.stream.BPS-eng.markup">22418</property>
  <property name="meta.attr.33.stream.DURATION-eng.markup">01:33:59.217000000</property>
  <property name="meta.attr.33.stream.NUMBER_OF_FRAMES-eng.markup">1674</property>
  <property name="meta.attr.33.stream.NUMBER_OF_BYTES-eng.markup">15802734</property>
  <property name="meta.attr.33.stream._STATISTICS_WRITING_APP-eng.markup">mkvmerge v40.0.0 ('Old Town Road + Pony') 64-bit</property>
  <property name="meta.attr.33.stream._STATISTICS_WRITING_DATE_UTC-eng.markup">2019-12-29 15:49:45</property>
  <property name="meta.attr.33.stream._STATISTICS_TAGS-eng.markup">BPS DURATION NUMBER_OF_FRAMES NUMBER_OF_BYTES</property>
  <property name="meta.media.34.codec.name">srt</property>
  <property name="meta.media.34.codec.long_name">SubRip subtitle</property>
  <property name="meta.media.34.codec.bit_rate">0</property>
  <property name="meta.attr.34.stream.language.markup">eng</property>
  <property name="meta.attr.34.stream.BPS-eng.markup">48</property>
  <property name="meta.attr.34.stream.DURATION-eng.markup">01:33:45.538000000</property>
  <property name="meta.attr.34.stream.NUMBER_OF_FRAMES-eng.markup">842</property>
  <property name="meta.attr.34.stream.NUMBER_OF_BYTES-eng.markup">34158</property>
  <property name="meta.attr.34.stream._STATISTICS_WRITING_APP-eng.markup">mkvmerge v40.0.0 ('Old Town Road + Pony') 64-bit</property>
  <property name="meta.attr.34.stream._STATISTICS_WRITING_DATE_UTC-eng.markup">2019-12-29 15:49:45</property>
  <property name="meta.attr.34.stream._STATISTICS_TAGS-eng.markup">BPS DURATION NUMBER_OF_FRAMES NUMBER_OF_BYTES</property>
  <property name="meta.media.35.codec.name">srt</property>
  <property name="meta.media.35.codec.long_name">SubRip subtitle</property>
  <property name="meta.media.35.codec.bit_rate">0</property>
  <property name="meta.attr.35.stream.language.markup">eng</property>
  <property name="meta.attr.35.stream.title.markup">SDH</property>
  <property name="meta.attr.35.stream.BPS-eng.markup">43</property>
  <property name="meta.attr.35.stream.DURATION-eng.markup">01:31:41.370000000</property>
  <property name="meta.attr.35.stream.NUMBER_OF_FRAMES-eng.markup">833</property>
  <property name="meta.attr.35.stream.NUMBER_OF_BYTES-eng.markup">29767</property>
  <property name="meta.attr.35.stream._STATISTICS_WRITING_APP-eng.markup">mkvmerge v40.0.0 ('Old Town Road + Pony') 64-bit</property>
  <property name="meta.attr.35.stream._STATISTICS_WRITING_DATE_UTC-eng.markup">2019-12-29 15:49:45</property>
  <property name="meta.attr.35.stream._STATISTICS_TAGS-eng.markup">BPS DURATION NUMBER_OF_FRAMES NUMBER_OF_BYTES</property>
  <property name="meta.media.36.codec.name">srt</property>
  <property name="meta.media.36.codec.long_name">SubRip subtitle</property>
  <property name="meta.media.36.codec.bit_rate">0</property>
  <property name="meta.attr.36.stream.language.markup">swe</property>
  <property name="meta.attr.36.stream.BPS-eng.markup">47</property>
  <property name="meta.attr.36.stream.DURATION-eng.markup">01:33:48.363000000</property>
  <property name="meta.attr.36.stream.NUMBER_OF_FRAMES-eng.markup">683</property>
  <property name="meta.attr.36.stream.NUMBER_OF_BYTES-eng.markup">33075</property>
  <property name="meta.attr.36.stream._STATISTICS_WRITING_APP-eng.markup">mkvmerge v40.0.0 ('Old Town Road + Pony') 64-bit</property>
  <property name="meta.attr.36.stream._STATISTICS_WRITING_DATE_UTC-eng.markup">2019-12-29 15:49:45</property>
  <property name="meta.attr.36.stream._STATISTICS_TAGS-eng.markup">BPS DURATION NUMBER_OF_FRAMES NUMBER_OF_BYTES</property>
  <property name="meta.attr.creation_time.markup">2019-12-29T15:49:45.000000Z</property>
  <property name="meta.attr.ENCODER.markup">Lavf58.29.100</property>
  <property name="seekable">1</property>
  <property name="meta.media.sample_aspect_num">1</property>
  <property name="meta.media.sample_aspect_den">1</property>
  <property name="audio_index">1</property>
  <property name="video_index">0</property>
  <property name="vstream">0</property>
  <property name="meta.media.frame_rate_num">24000</property>
  <property name="meta.media.frame_rate_den">1001</property>
  <property name="meta.media.colorspace">709</property>
  <property name="meta.media.color_trc">1</property>
  <property name="meta.media.has_b_frames">2</property>
  <property name="meta.media.width">1916</property>
  <property name="meta.media.height">1036</property>
  <property name="meta.media.aspect_ratio">1</property>
  <property name="meta.media.color_range">mpeg</property>
  <property name="astream">0</property>
  <property name="meta.media.top_field_first">0</property>
  <property name="meta.media.progressive">1</property>
  <property name="kdenlive:control_uuid">{193136b1-969a-4943-bfcd-55058a6808f2}</property>
  <property name="kdenlive:id">4</property>
  <property name="kdenlive:clip_type">0</property>
  <property name="kdenlive:file_size">5331297763</property>
  <property name="kdenlive:file_hash">691e768d68c55b9a28cb9a278fdc8b17</property>
  <property name="kdenlive:folderid">-1</property>
  <property name="kdenlive:monitorPosition">0</property>
  <property name="mute_on_pause">0</property>
 </chain>
 <chain id="chain5" out="00:01:50.133">
  <property name="length">2641</property>
  <property name="eof">pause</property>
  <property name="resource">ost/Final_Fantasy_A_Temple_of_Chaos_OC_ReMix.mp3</property>
  <property name="mlt_service">avformat-novalidate</property>
  <property name="meta.media.nb_streams">2</property>
  <property name="meta.media.0.stream.type">audio</property>
  <property name="meta.media.0.codec.sample_fmt">fltp</property>
  <property name="meta.media.0.codec.sample_rate">44100</property>
  <property name="meta.media.0.codec.channels">2</property>
  <property name="meta.media.0.codec.layout">stereo</property>
  <property name="meta.media.0.codec.name">mp3float</property>
  <property name="meta.media.0.codec.long_name">MP3 (MPEG audio layer 3)</property>
  <property name="meta.media.0.codec.bit_rate">192000</property>
  <property name="meta.media.1.stream.type">video</property>
  <property name="meta.media.1.stream.frame_rate">90000</property>
  <property name="meta.media.1.stream.sample_aspect_ratio">0</property>
  <property name="meta.media.1.codec.width">700</property>
  <property name="meta.media.1.codec.height">700</property>
  <property name="meta.media.1.codec.rotate">0</property>
  <property name="meta.media.1.codec.pix_fmt">yuvj444p</property>
  <property name="meta.media.1.codec.sample_aspect_ratio">0</property>
  <property name="meta.media.1.codec.colorspace">601</property>
  <property name="meta.media.1.codec.name">mjpeg</property>
  <property name="meta.media.1.codec.long_name">MJPEG (Motion JPEG)</property>
  <property name="meta.media.1.codec.bit_rate">0</property>
  <property name="meta.attr.1.stream.comment.markup">Cover (front)</property>
  <property name="meta.attr.album.markup">ocremix.org</property>
  <property name="meta.attr.artist.markup">Tim Sheehy</property>
  <property name="meta.attr.album_artist.markup">OverClocked ReMix</property>
  <property name="meta.attr.comment.markup">Tim Sheehy&#xd;
tim@timsheehy.com&#xd;
http://timsheehy.com</property>
  <property name="meta.attr.composer.markup">Nobuo Uematsu</property>
  <property name="meta.attr.grouping.markup">Final Fantasy</property>
  <property name="meta.attr.copyright.markup">Square</property>
  <property name="meta.attr.encoded_by.markup">Tim Sheehy (tim@timsheehy.com)</property>
  <property name="meta.attr.genre.markup">Game</property>
  <property name="meta.attr.compilation.markup">1</property>
  <property name="meta.attr.TOPE.markup">NES</property>
  <property name="meta.attr.publisher.markup">OverClocked ReMix</property>
  <property name="meta.attr.SETSUBTITLE.markup">OCR00429</property>
  <property name="meta.attr.TIT3.markup">A Temple of Chaos</property>
  <property name="meta.attr.title.markup">Final Fantasy "A Temple of Chaos" OC ReMix</property>
  <property name="meta.attr.track.markup">429</property>
  <property name="meta.attr.date.markup">2001</property>
  <property name="seekable">1</property>
  <property name="meta.media.sample_aspect_num">1</property>
  <property name="meta.media.sample_aspect_den">1</property>
  <property name="audio_index">0</property>
  <property name="video_index">1</property>
  <property name="vstream">0</property>
  <property name="meta.media.frame_rate_num">90000</property>
  <property name="meta.media.frame_rate_den">1</property>
  <property name="meta.media.colorspace">601</property>
  <property name="meta.media.color_trc">2</property>
  <property name="meta.media.has_b_frames">0</property>
  <property name="meta.media.width">700</property>
  <property name="meta.media.height">700</property>
  <property name="meta.media.aspect_ratio">1</property>
  <property name="meta.media.color_range">full</property>
  <property name="astream">0</property>
  <property name="meta.media.top_field_first">0</property>
  <property name="meta.media.progressive">1</property>
  <property name="kdenlive:folderid">5</property>
  <property name="kdenlive:id">6</property>
  <property name="kdenlive:control_uuid">{231dcc23-c66b-44d6-befc-7e885658511a}</property>
  <property name="mute_on_pause">0</property>
  <property name="kdenlive:clip_type">0</property>
  <property name="kdenlive:coverartstream">1</property>
  <property name="kdenlive:file_size">2730289</property>
  <property name="kdenlive:file_hash">30b244bf6bc335b7c0baec37d4f8f949</property>
  <property name="kdenlive:monitorPosition">628</property>
 </chain>
 <chain id="chain6" out="00:02:46.296">
  <property name="length">3988</property>
  <property name="eof">pause</property>
  <property name="resource">ost/Final_Fantasy_The_Beginning_of_the_Fantasy_OC_ReMix.mp3</property>
  <property name="mlt_service">avformat-novalidate</property>
  <property name="meta.media.nb_streams">2</property>
  <property name="meta.media.0.stream.type">audio</property>
  <property name="meta.media.0.codec.sample_fmt">fltp</property>
  <property name="meta.media.0.codec.sample_rate">44100</property>
  <property name="meta.media.0.codec.channels">2</property>
  <property name="meta.media.0.codec.layout">stereo</property>
  <property name="meta.media.0.codec.name">mp3float</property>
  <property name="meta.media.0.codec.long_name">MP3 (MPEG audio layer 3)</property>
  <property name="meta.media.0.codec.bit_rate">192000</property>
  <property name="meta.media.1.stream.type">video</property>
  <property name="meta.media.1.stream.frame_rate">90000</property>
  <property name="meta.media.1.stream.sample_aspect_ratio">0</property>
  <property name="meta.media.1.codec.width">700</property>
  <property name="meta.media.1.codec.height">700</property>
  <property name="meta.media.1.codec.rotate">0</property>
  <property name="meta.media.1.codec.pix_fmt">yuvj444p</property>
  <property name="meta.media.1.codec.sample_aspect_ratio">0</property>
  <property name="meta.media.1.codec.colorspace">601</property>
  <property name="meta.media.1.codec.name">mjpeg</property>
  <property name="meta.media.1.codec.long_name">MJPEG (Motion JPEG)</property>
  <property name="meta.media.1.codec.bit_rate">0</property>
  <property name="meta.attr.1.stream.comment.markup">Cover (front)</property>
  <property name="meta.attr.album.markup">ocremix.org</property>
  <property name="meta.attr.artist.markup">mp</property>
  <property name="meta.attr.album_artist.markup">OverClocked ReMix</property>
  <property name="meta.attr.comment.markup">Remix of "Prelude" from Final Fantasy [x] for the NES, SNES, and PSX.&#xd;
&#xd;
My own version of the Final Fantasy "Prelude" in a... style I can't exactly define. Kind of generic electronic percussion, a steel-stringed guitar, some crazy electronic bass, and a Rhodes. I dunno.&#xd;
&#xd;
Matt Pollard&#xd;
http://mattpollard.net</property>
  <property name="meta.attr.composer.markup">Nobuo Uematsu</property>
  <property name="meta.attr.grouping.markup">Final Fantasy</property>
  <property name="meta.attr.copyright.markup">Square</property>
  <property name="meta.attr.encoded_by.markup">Matt Pollard</property>
  <property name="meta.attr.encoder.markup">LAME Encoder</property>
  <property name="meta.attr.genre.markup">Game</property>
  <property name="meta.attr.compilation.markup">1</property>
  <property name="meta.attr.TOPE.markup">NES</property>
  <property name="meta.attr.publisher.markup">OverClocked ReMix</property>
  <property name="meta.attr.SETSUBTITLE.markup">OCR00642</property>
  <property name="meta.attr.TIT3.markup">The Beginning of the Fantasy</property>
  <property name="meta.attr.title.markup">Final Fantasy "The Beginning of the Fantasy" OC ReMix</property>
  <property name="meta.attr.track.markup">642</property>
  <property name="meta.attr.date.markup">2001</property>
  <property name="seekable">1</property>
  <property name="meta.media.sample_aspect_num">1</property>
  <property name="meta.media.sample_aspect_den">1</property>
  <property name="audio_index">0</property>
  <property name="video_index">1</property>
  <property name="vstream">0</property>
  <property name="meta.media.frame_rate_num">90000</property>
  <property name="meta.media.frame_rate_den">1</property>
  <property name="meta.media.colorspace">601</property>
  <property name="meta.media.color_trc">2</property>
  <property name="meta.media.has_b_frames">0</property>
  <property name="meta.media.width">700</property>
  <property name="meta.media.height">700</property>
  <property name="meta.media.aspect_ratio">1</property>
  <property name="meta.media.color_range">full</property>
  <property name="astream">0</property>
  <property name="meta.media.top_field_first">0</property>
  <property name="meta.media.progressive">1</property>
  <property name="kdenlive:folderid">5</property>
  <property name="kdenlive:id">7</property>
  <property name="kdenlive:control_uuid">{07b818e9-3c1c-4c90-bb32-ed3aa9807e67}</property>
  <property name="mute_on_pause">0</property>
  <property name="kdenlive:clip_type">0</property>
  <property name="kdenlive:coverartstream">1</property>
  <property name="kdenlive:file_size">4079378</property>
  <property name="kdenlive:file_hash">3d0b99a2c02c9f099aabedd7daf6fc39</property>
  <property name="kdenlive:monitorPosition">855</property>
 </chain>
 <chain id="chain9" out="00:05:27.819">
  <property name="length">7860</property>
  <property name="eof">pause</property>
  <property name="resource">ost/Final_Fantasy_Matoya's_Grave_OC_ReMix.mp3</property>
  <property name="mlt_service">avformat-novalidate</property>
  <property name="meta.media.nb_streams">2</property>
  <property name="meta.media.0.stream.type">audio</property>
  <property name="meta.media.0.codec.sample_fmt">fltp</property>
  <property name="meta.media.0.codec.sample_rate">44100</property>
  <property name="meta.media.0.codec.channels">2</property>
  <property name="meta.media.0.codec.layout">stereo</property>
  <property name="meta.media.0.codec.name">mp3float</property>
  <property name="meta.media.0.codec.long_name">MP3 (MPEG audio layer 3)</property>
  <property name="meta.media.0.codec.bit_rate">128000</property>
  <property name="meta.media.1.stream.type">video</property>
  <property name="meta.media.1.stream.frame_rate">90000</property>
  <property name="meta.media.1.stream.sample_aspect_ratio">0</property>
  <property name="meta.media.1.codec.width">700</property>
  <property name="meta.media.1.codec.height">700</property>
  <property name="meta.media.1.codec.rotate">0</property>
  <property name="meta.media.1.codec.pix_fmt">yuvj444p</property>
  <property name="meta.media.1.codec.sample_aspect_ratio">0</property>
  <property name="meta.media.1.codec.colorspace">601</property>
  <property name="meta.media.1.codec.name">mjpeg</property>
  <property name="meta.media.1.codec.long_name">MJPEG (Motion JPEG)</property>
  <property name="meta.media.1.codec.bit_rate">0</property>
  <property name="meta.attr.1.stream.comment.markup">Cover (front)</property>
  <property name="meta.attr.album.markup">ocremix.org</property>
  <property name="meta.attr.artist.markup">Deimos</property>
  <property name="meta.attr.album_artist.markup">OverClocked ReMix</property>
  <property name="meta.attr.comment.markup">Chad Birch&#xd;
chad.birch@gmail.com</property>
  <property name="meta.attr.composer.markup">Nobuo Uematsu</property>
  <property name="meta.attr.grouping.markup">Final Fantasy</property>
  <property name="meta.attr.copyright.markup">Square</property>
  <property name="meta.attr.encoded_by.markup">Chad Birch (chad.birch@gmail.com)</property>
  <property name="meta.attr.genre.markup">Game</property>
  <property name="meta.attr.compilation.markup">1</property>
  <property name="meta.attr.TOPE.markup">NES</property>
  <property name="meta.attr.publisher.markup">OverClocked ReMix</property>
  <property name="meta.attr.SETSUBTITLE.markup">OCR00460</property>
  <property name="meta.attr.TIT3.markup">Matoya's Grave</property>
  <property name="meta.attr.title.markup">Final Fantasy "Matoya's Grave" OC ReMix</property>
  <property name="meta.attr.track.markup">460</property>
  <property name="meta.attr.date.markup">2001</property>
  <property name="seekable">1</property>
  <property name="meta.media.sample_aspect_num">1</property>
  <property name="meta.media.sample_aspect_den">1</property>
  <property name="audio_index">0</property>
  <property name="video_index">1</property>
  <property name="vstream">0</property>
  <property name="meta.media.frame_rate_num">90000</property>
  <property name="meta.media.frame_rate_den">1</property>
  <property name="meta.media.colorspace">601</property>
  <property name="meta.media.color_trc">2</property>
  <property name="meta.media.has_b_frames">0</property>
  <property name="meta.media.width">700</property>
  <property name="meta.media.height">700</property>
  <property name="meta.media.aspect_ratio">1</property>
  <property name="meta.media.color_range">full</property>
  <property name="astream">0</property>
  <property name="meta.media.top_field_first">0</property>
  <property name="meta.media.progressive">1</property>
  <property name="kdenlive:folderid">5</property>
  <property name="kdenlive:id">8</property>
  <property name="kdenlive:control_uuid">{64284bdd-2a79-4fbd-955f-325bc0a12c16}</property>
  <property name="mute_on_pause">0</property>
  <property name="kdenlive:clip_type">0</property>
  <property name="kdenlive:coverartstream">1</property>
  <property name="kdenlive:file_size">5332503</property>
  <property name="kdenlive:file_hash">2f1c5e46c2311f69957004ce47477373</property>
  <property name="kdenlive:monitorPosition">941</property>
 </chain>
 <chain id="chain8" out="00:03:59.810">
  <property name="length">5750</property>
  <property name="eof">pause</property>
  <property name="resource">ost/Final_Fantasy_Hardcore_OC_ReMix.mp3</property>
  <property name="mlt_service">avformat-novalidate</property>
  <property name="meta.media.nb_streams">2</property>
  <property name="meta.media.0.stream.type">audio</property>
  <property name="meta.media.0.codec.sample_fmt">fltp</property>
  <property name="meta.media.0.codec.sample_rate">44100</property>
  <property name="meta.media.0.codec.channels">2</property>
  <property name="meta.media.0.codec.layout">stereo</property>
  <property name="meta.media.0.codec.name">mp3float</property>
  <property name="meta.media.0.codec.long_name">MP3 (MPEG audio layer 3)</property>
  <property name="meta.media.0.codec.bit_rate">128000</property>
  <property name="meta.media.1.stream.type">video</property>
  <property name="meta.media.1.stream.frame_rate">90000</property>
  <property name="meta.media.1.stream.sample_aspect_ratio">0</property>
  <property name="meta.media.1.codec.width">700</property>
  <property name="meta.media.1.codec.height">700</property>
  <property name="meta.media.1.codec.rotate">0</property>
  <property name="meta.media.1.codec.pix_fmt">yuvj444p</property>
  <property name="meta.media.1.codec.sample_aspect_ratio">0</property>
  <property name="meta.media.1.codec.colorspace">601</property>
  <property name="meta.media.1.codec.name">mjpeg</property>
  <property name="meta.media.1.codec.long_name">MJPEG (Motion JPEG)</property>
  <property name="meta.media.1.codec.bit_rate">0</property>
  <property name="meta.attr.1.stream.comment.markup">Cover (front)</property>
  <property name="meta.attr.album.markup">ocremix.org</property>
  <property name="meta.attr.artist.markup">Jared Hudson</property>
  <property name="meta.attr.album_artist.markup">OverClocked ReMix</property>
  <property name="meta.attr.comment.markup">Yes, the guitar is fake, but go with it, and see what you think. You might hate it considering the amazing guitar work done by other arrangers on this site. HAHA! Anyways, I went crazy making this, 9 hours straight, and turned a once peaceful song, into a violent head banging activity! Enjoy! :D&#xd;
&#xd;
Jared Hudson&#xd;
jared@jaredhudson.com&#xd;
http://jaredhudson.com</property>
  <property name="meta.attr.composer.markup">Nobuo Uematsu</property>
  <property name="meta.attr.grouping.markup">Final Fantasy</property>
  <property name="meta.attr.copyright.markup">Square</property>
  <property name="meta.attr.encoded_by.markup">Jared Hudson (jared@jaredhudson.com)</property>
  <property name="meta.attr.genre.markup">Game</property>
  <property name="meta.attr.compilation.markup">1</property>
  <property name="meta.attr.TOPE.markup">NES</property>
  <property name="meta.attr.publisher.markup">OverClocked ReMix</property>
  <property name="meta.attr.SETSUBTITLE.markup">OCR00738</property>
  <property name="meta.attr.TIT3.markup">Hardcore</property>
  <property name="meta.attr.title.markup">Final Fantasy "Hardcore" OC ReMix</property>
  <property name="meta.attr.track.markup">738</property>
  <property name="meta.attr.date.markup">2002</property>
  <property name="seekable">1</property>
  <property name="meta.media.sample_aspect_num">1</property>
  <property name="meta.media.sample_aspect_den">1</property>
  <property name="audio_index">0</property>
  <property name="video_index">1</property>
  <property name="vstream">0</property>
  <property name="meta.media.frame_rate_num">90000</property>
  <property name="meta.media.frame_rate_den">1</property>
  <property name="meta.media.colorspace">601</property>
  <property name="meta.media.color_trc">2</property>
  <property name="meta.media.has_b_frames">0</property>
  <property name="meta.media.width">700</property>
  <property name="meta.media.height">700</property>
  <property name="meta.media.aspect_ratio">1</property>
  <property name="meta.media.color_range">full</property>
  <property name="astream">0</property>
  <property name="meta.media.top_field_first">0</property>
  <property name="meta.media.progressive">1</property>
  <property name="kdenlive:folderid">5</property>
  <property name="kdenlive:id">9</property>
  <property name="kdenlive:control_uuid">{f2a3ada8-976e-4fb9-9919-a6d0f69a033d}</property>
  <property name="mute_on_pause">0</property>
  <property name="kdenlive:clip_type">0</property>
  <property name="kdenlive:coverartstream">1</property>
  <property name="kdenlive:file_size">3924579</property>
  <property name="kdenlive:file_hash">6e98a3841c994bfe20018e827a7e8ee9</property>
  <property name="kdenlive:monitorPosition">5589</property>
 </chain>
 <chain id="chain10" out="00:04:18.227">
  <property name="length">6192</property>
  <property name="eof">pause</property>
  <property name="resource">ost/Final_Fantasy_Warriors_of_Light_OC_ReMix.mp3</property>
  <property name="mlt_service">avformat-novalidate</property>
  <property name="meta.media.nb_streams">2</property>
  <property name="meta.media.0.stream.type">audio</property>
  <property name="meta.media.0.codec.sample_fmt">fltp</property>
  <property name="meta.media.0.codec.sample_rate">44100</property>
  <property name="meta.media.0.codec.channels">2</property>
  <property name="meta.media.0.codec.layout">stereo</property>
  <property name="meta.media.0.codec.name">mp3float</property>
  <property name="meta.media.0.codec.long_name">MP3 (MPEG audio layer 3)</property>
  <property name="meta.media.0.codec.bit_rate">173888</property>
  <property name="meta.attr.0.stream.encoder.markup">LAME3.96 </property>
  <property name="meta.media.1.stream.type">video</property>
  <property name="meta.media.1.stream.frame_rate">90000</property>
  <property name="meta.media.1.stream.sample_aspect_ratio">0</property>
  <property name="meta.media.1.codec.width">700</property>
  <property name="meta.media.1.codec.height">700</property>
  <property name="meta.media.1.codec.rotate">0</property>
  <property name="meta.media.1.codec.pix_fmt">yuvj444p</property>
  <property name="meta.media.1.codec.sample_aspect_ratio">0</property>
  <property name="meta.media.1.codec.colorspace">601</property>
  <property name="meta.media.1.codec.name">mjpeg</property>
  <property name="meta.media.1.codec.long_name">MJPEG (Motion JPEG)</property>
  <property name="meta.media.1.codec.bit_rate">0</property>
  <property name="meta.attr.1.stream.comment.markup">Cover (front)</property>
  <property name="meta.attr.album.markup">ocremix.org</property>
  <property name="meta.attr.artist.markup">Darangen</property>
  <property name="meta.attr.album_artist.markup">OverClocked ReMix</property>
  <property name="meta.attr.comment.markup">This was my submission to RPGamer's Sonic Revolution contest in February.&#xd;
http://rpgamer.com/music/compo/sonicrev/srfinal.html&#xd;
&#xd;
Nostalgia... This was always one of my favorite VG themes ever, and still is to this day. I can remember when my friend down the street brought Final Fantasy 1 over, we all thought it was the neatest thing to have 4 black mages with confuse and watch the enemies hit themselves (well, the few times that confuse would work). A few weeks later, my brother and I begged our parents enough to buy the game for ourselves. We finally got it, and I've loved the music ever since, the whole Final Fantasy 1 soundtrack is amazing.&#xd;
&#xd;
OK, enough rambling and onto something about this release. :)&#xd;
&#xd;
This is my take on the Chaos Temple theme (which also plays in the Underwater Shrine) and my entry to RPGamer's Sonic Revolution contest. I've given it a brighter feel than the original, changed the chord progression to give it a major key feel.&#xd;
&#xd;
So kick of them shoes, relax those feet, and enjoy! :)&#xd;
&#xd;
Michael Boyd&#xd;
mike@darangen.com&#xd;
https://youtube.com/darangen</property>
  <property name="meta.attr.composer.markup">Nobuo Uematsu</property>
  <property name="meta.attr.grouping.markup">Final Fantasy</property>
  <property name="meta.attr.copyright.markup">Square</property>
  <property name="meta.attr.encoded_by.markup">Michael Boyd (mike@darangen.com)</property>
  <property name="meta.attr.genre.markup">Game</property>
  <property name="meta.attr.compilation.markup">1</property>
  <property name="meta.attr.TOPE.markup">NES</property>
  <property name="meta.attr.publisher.markup">OverClocked ReMix</property>
  <property name="meta.attr.SETSUBTITLE.markup">OCR01339</property>
  <property name="meta.attr.TIT3.markup">Warriors of Light</property>
  <property name="meta.attr.title.markup">Final Fantasy "Warriors of Light" OC ReMix</property>
  <property name="meta.attr.track.markup">1339</property>
  <property name="meta.attr.date.markup">2005</property>
  <property name="seekable">1</property>
  <property name="meta.media.sample_aspect_num">1</property>
  <property name="meta.media.sample_aspect_den">1</property>
  <property name="audio_index">0</property>
  <property name="video_index">1</property>
  <property name="vstream">0</property>
  <property name="meta.media.frame_rate_num">90000</property>
  <property name="meta.media.frame_rate_den">1</property>
  <property name="meta.media.colorspace">601</property>
  <property name="meta.media.color_trc">2</property>
  <property name="meta.media.has_b_frames">0</property>
  <property name="meta.media.width">700</property>
  <property name="meta.media.height">700</property>
  <property name="meta.media.aspect_ratio">1</property>
  <property name="meta.media.color_range">full</property>
  <property name="astream">0</property>
  <property name="meta.media.top_field_first">0</property>
  <property name="meta.media.progressive">1</property>
  <property name="kdenlive:folderid">5</property>
  <property name="kdenlive:id">10</property>
  <property name="kdenlive:control_uuid">{da9b3f27-75cc-437e-b20d-47f255f6a0be}</property>
  <property name="mute_on_pause">0</property>
  <property name="kdenlive:clip_type">0</property>
  <property name="kdenlive:coverartstream">1</property>
  <property name="kdenlive:file_size">5702418</property>
  <property name="kdenlive:file_hash">39c40b348b2ee6086b4c9689bc2596bf</property>
  <property name="kdenlive:monitorPosition">0</property>
 </chain>
 <chain id="chain11" out="00:01:00.334">
  <property name="length">1447</property>
  <property name="eof">pause</property>
  <property name="resource">ost/カオスの神殿.mp3</property>
  <property name="mlt_service">avformat</property>
  <property name="meta.media.nb_streams">1</property>
  <property name="meta.media.0.stream.type">audio</property>
  <property name="meta.media.0.codec.sample_fmt">fltp</property>
  <property name="meta.media.0.codec.sample_rate">44100</property>
  <property name="meta.media.0.codec.channels">2</property>
  <property name="meta.media.0.codec.layout">stereo</property>
  <property name="meta.media.0.codec.name">mp3float</property>
  <property name="meta.media.0.codec.long_name">MP3 (MPEG audio layer 3)</property>
  <property name="meta.media.0.codec.bit_rate">192000</property>
  <property name="meta.attr.0.stream.encoder.markup">Lavc60.31</property>
  <property name="meta.attr.major_brand.markup">dash</property>
  <property name="meta.attr.minor_version.markup">0</property>
  <property name="meta.attr.compatible_brands.markup">iso6mp41</property>
  <property name="meta.attr.encoder.markup">Lavf60.16.100</property>
  <property name="seekable">1</property>
  <property name="audio_index">0</property>
  <property name="video_index">-1</property>
  <property name="astream">0</property>
  <property name="kdenlive:folderid">5</property>
  <property name="kdenlive:id">11</property>
  <property name="kdenlive:control_uuid">{222c6794-13ef-440d-b74b-f48d5ee1cb06}</property>
  <property name="kdenlive:clip_type">1</property>
  <property name="kdenlive:file_size">1448992</property>
  <property name="kdenlive:file_hash">d430439c594d6d96bb83e3d83dd0159b</property>
  <property name="kdenlive:monitorPosition">40</property>
 </chain>
 <chain id="chain12" out="00:01:06.673">
  <property name="length">1599</property>
  <property name="eof">pause</property>
  <property name="resource">ost/05. カオスの神殿 (SFC Style mix feat.FF5).flac</property>
  <property name="mlt_service">avformat</property>
  <property name="meta.media.nb_streams">1</property>
  <property name="meta.media.0.stream.type">audio</property>
  <property name="meta.media.0.codec.sample_fmt">s16</property>
  <property name="meta.media.0.codec.sample_rate">44100</property>
  <property name="meta.media.0.codec.channels">2</property>
  <property name="meta.media.0.codec.layout">stereo</property>
  <property name="meta.media.0.codec.name">flac</property>
  <property name="meta.media.0.codec.long_name">FLAC (Free Lossless Audio Codec)</property>
  <property name="meta.media.0.codec.bit_rate">0</property>
  <property name="meta.attr.DATE.markup">2021</property>
  <property name="meta.attr.YEAR.markup">2021</property>
  <property name="meta.attr.ARTIST.markup">Ｊ.Ｍ.</property>
  <property name="meta.attr.TITLE.markup">カオスの神殿 (SFC Style mix feat.FF5)</property>
  <property name="meta.attr.GENRE.markup">Game</property>
  <property name="meta.attr.BAND.markup">J.M.'s Home</property>
  <property name="meta.attr.track.markup">5</property>
  <property name="meta.attr.ALBUM.markup">FINAL FANTASY I 《SFC Style mix》 ～All Sounds Collection～ 【APOLLO 11 Edition】</property>
  <property name="meta.attr.album_artist.markup">J.M.'s Home</property>
  <property name="meta.attr.ALBUM ARTIST.markup">J.M.'s Home</property>
  <property name="meta.attr.ENSEMBLE.markup">J.M.'s Home</property>
  <property name="seekable">1</property>
  <property name="audio_index">0</property>
  <property name="video_index">-1</property>
  <property name="astream">0</property>
  <property name="kdenlive:folderid">5</property>
  <property name="kdenlive:id">12</property>
  <property name="kdenlive:control_uuid">{80c255c3-3585-41d8-9c07-21b7e995e980}</property>
  <property name="kdenlive:clip_type">1</property>
  <property name="kdenlive:file_size">6741267</property>
  <property name="kdenlive:file_hash">b10b53d50bb9b2aef3c44847356cd3b2</property>
 </chain>
 <chain id="chain13" out="00:00:52.511">
  <property name="length">1260</property>
  <property name="eof">pause</property>
  <property name="resource">ost/プレリュード.mp3</property>
  <property name="mlt_service">avformat</property>
  <property name="meta.media.nb_streams">1</property>
  <property name="meta.media.0.stream.type">audio</property>
  <property name="meta.media.0.codec.sample_fmt">fltp</property>
  <property name="meta.media.0.codec.sample_rate">44100</property>
  <property name="meta.media.0.codec.channels">2</property>
  <property name="meta.media.0.codec.layout">stereo</property>
  <property name="meta.media.0.codec.name">mp3float</property>
  <property name="meta.media.0.codec.long_name">MP3 (MPEG audio layer 3)</property>
  <property name="meta.media.0.codec.bit_rate">192000</property>
  <property name="meta.attr.0.stream.encoder.markup">Lavc60.31</property>
  <property name="meta.attr.major_brand.markup">dash</property>
  <property name="meta.attr.minor_version.markup">0</property>
  <property name="meta.attr.compatible_brands.markup">iso6mp41</property>
  <property name="meta.attr.encoder.markup">Lavf60.16.100</property>
  <property name="seekable">1</property>
  <property name="audio_index">0</property>
  <property name="video_index">-1</property>
  <property name="astream">0</property>
  <property name="kdenlive:folderid">5</property>
  <property name="kdenlive:id">13</property>
  <property name="kdenlive:control_uuid">{7978c387-4288-407c-b247-88ff094c35f7}</property>
  <property name="kdenlive:clip_type">1</property>
  <property name="kdenlive:file_size">1261537</property>
  <property name="kdenlive:file_hash">4f534d448f24dd6758741114d12be415</property>
  <property name="kdenlive:monitorPosition">0</property>
 </chain>
 <chain id="chain14" out="00:04:05.797">
  <property name="length">5894</property>
  <property name="eof">pause</property>
  <property name="resource">ost/Final_Fantasy_4_Hymn_to_the_Crystals_OC_ReMix.mp3</property>
  <property name="mlt_service">avformat-novalidate</property>
  <property name="meta.media.nb_streams">2</property>
  <property name="meta.media.0.stream.type">audio</property>
  <property name="meta.media.0.codec.sample_fmt">fltp</property>
  <property name="meta.media.0.codec.sample_rate">44100</property>
  <property name="meta.media.0.codec.channels">2</property>
  <property name="meta.media.0.codec.layout">stereo</property>
  <property name="meta.media.0.codec.name">mp3float</property>
  <property name="meta.media.0.codec.long_name">MP3 (MPEG audio layer 3)</property>
  <property name="meta.media.0.codec.bit_rate">218271</property>
  <property name="meta.attr.0.stream.encoder.markup">LAME3.100</property>
  <property name="meta.media.1.stream.type">video</property>
  <property name="meta.media.1.stream.frame_rate">90000</property>
  <property name="meta.media.1.stream.sample_aspect_ratio">0</property>
  <property name="meta.media.1.codec.width">700</property>
  <property name="meta.media.1.codec.height">700</property>
  <property name="meta.media.1.codec.rotate">0</property>
  <property name="meta.media.1.codec.pix_fmt">yuvj444p</property>
  <property name="meta.media.1.codec.sample_aspect_ratio">0</property>
  <property name="meta.media.1.codec.colorspace">601</property>
  <property name="meta.media.1.codec.name">mjpeg</property>
  <property name="meta.media.1.codec.long_name">MJPEG (Motion JPEG)</property>
  <property name="meta.media.1.codec.bit_rate">0</property>
  <property name="meta.attr.1.stream.comment.markup">Cover (front)</property>
  <property name="meta.attr.album.markup">ocremix.org</property>
  <property name="meta.attr.artist.markup">RebeccaETripp</property>
  <property name="meta.attr.album_artist.markup">OverClocked ReMix</property>
  <property name="meta.attr.comment.markup">This was my attempt to encapsulate the spiritual essence of the Final Fantasy series. I was going for a sort of mystical/reverent feeling. There are many versions of the FF prelude out there already, so it was difficult to find a new take on it in one sense. However, nobody had composed an arrangement of this main theme that emphasized the spiritual essence of the ever-prominent crystals in quite the same way -- so I used that to guide me: a feeling that this particular facet of the crystal had somehow been, for the most part, unnoticed.&#xd;
&#xd;
This is sort of how I've been wanting to hear the song all along, emphasizing the more ethereal aspects of the games, as opposed to making the theme more grandiose or, adversely, tame and relaxing. In my mind, this could be a version of the tune that might play inside a temple in some kind of ancient magical village guarding an elemental crystal shard, such as Cleyra or Mysidia.&#xd;
&#xd;
I used 3 harps, harpsichord, VSTs of a full choir, a soprano soloist, and a young boy soloist in this track, along with some temple bells and some mystical/spacey-sounding synths. I was sort of trying to combine the medieval aesthetic of most of the older games with the new-agey depth I have come to associate with the various alien and otherworldly races in FF, such as the Lunarians who are very knowledgeable and detached as compared with the protagonists.&#xd;
&#xd;
Rebecca E. Tripp&#xd;
https://youtube.com/rebeccaetripp</property>
  <property name="meta.attr.composer.markup">Nobuo Uematsu</property>
  <property name="meta.attr.grouping.markup">Final Fantasy IV</property>
  <property name="meta.attr.copyright.markup">Square</property>
  <property name="meta.attr.encoded_by.markup">Rebecca E. Tripp</property>
  <property name="meta.attr.genre.markup">Game</property>
  <property name="meta.attr.compilation.markup">1</property>
  <property name="meta.attr.TOPE.markup">SNES</property>
  <property name="meta.attr.publisher.markup">OverClocked ReMix</property>
  <property name="meta.attr.setsubtitle.markup">OCR03621</property>
  <property name="meta.attr.TIT3.markup">Hymn to the Crystals</property>
  <property name="meta.attr.title.markup">Final Fantasy IV "Hymn to the Crystals" OC ReMix</property>
  <property name="meta.attr.track.markup">3621</property>
  <property name="meta.attr.date.markup">2017</property>
  <property name="seekable">1</property>
  <property name="meta.media.sample_aspect_num">1</property>
  <property name="meta.media.sample_aspect_den">1</property>
  <property name="audio_index">0</property>
  <property name="video_index">1</property>
  <property name="vstream">0</property>
  <property name="meta.media.frame_rate_num">90000</property>
  <property name="meta.media.frame_rate_den">1</property>
  <property name="meta.media.colorspace">601</property>
  <property name="meta.media.color_trc">2</property>
  <property name="meta.media.has_b_frames">0</property>
  <property name="meta.media.width">700</property>
  <property name="meta.media.height">700</property>
  <property name="meta.media.aspect_ratio">1</property>
  <property name="meta.media.color_range">full</property>
  <property name="astream">0</property>
  <property name="meta.media.top_field_first">0</property>
  <property name="meta.media.progressive">1</property>
  <property name="kdenlive:folderid">5</property>
  <property name="kdenlive:id">14</property>
  <property name="kdenlive:control_uuid">{93e86435-4609-41f8-acc6-be87cdccf41b}</property>
  <property name="mute_on_pause">0</property>
  <property name="kdenlive:clip_type">0</property>
  <property name="kdenlive:coverartstream">1</property>
  <property name="kdenlive:file_size">6797335</property>
  <property name="kdenlive:file_hash">89c39d837ae5299f73020f770ce7b7b7</property>
 </chain>
 <chain id="chain15" out="00:05:41.041">
  <property name="length">8177</property>
  <property name="eof">pause</property>
  <property name="resource">ost/Final_Fantasy_Roaming_Please_Wait_OC_ReMix.mp3</property>
  <property name="mlt_service">avformat-novalidate</property>
  <property name="meta.media.nb_streams">2</property>
  <property name="meta.media.0.stream.type">audio</property>
  <property name="meta.media.0.codec.sample_fmt">fltp</property>
  <property name="meta.media.0.codec.sample_rate">44100</property>
  <property name="meta.media.0.codec.channels">2</property>
  <property name="meta.media.0.codec.layout">stereo</property>
  <property name="meta.media.0.codec.name">mp3float</property>
  <property name="meta.media.0.codec.long_name">MP3 (MPEG audio layer 3)</property>
  <property name="meta.media.0.codec.bit_rate">220133</property>
  <property name="meta.attr.0.stream.encoder.markup">LAME3.100</property>
  <property name="meta.media.1.stream.type">video</property>
  <property name="meta.media.1.stream.frame_rate">90000</property>
  <property name="meta.media.1.stream.sample_aspect_ratio">0</property>
  <property name="meta.media.1.codec.width">700</property>
  <property name="meta.media.1.codec.height">700</property>
  <property name="meta.media.1.codec.rotate">0</property>
  <property name="meta.media.1.codec.pix_fmt">yuvj444p</property>
  <property name="meta.media.1.codec.sample_aspect_ratio">0</property>
  <property name="meta.media.1.codec.colorspace">601</property>
  <property name="meta.media.1.codec.name">mjpeg</property>
  <property name="meta.media.1.codec.long_name">MJPEG (Motion JPEG)</property>
  <property name="meta.media.1.codec.bit_rate">0</property>
  <property name="meta.attr.1.stream.comment.markup">Cover (front)</property>
  <property name="meta.attr.album.markup">ocremix.org</property>
  <property name="meta.attr.artist.markup">BONKERS</property>
  <property name="meta.attr.album_artist.markup">OverClocked ReMix</property>
  <property name="meta.attr.comment.markup">https://encounter.ocremix.org&#xd;
Final Fantasy: Random Encounter&#xd;
&#xd;
This song was decisively a very difficult and eye-opening experience for me. For one, transforming the loveable very happy and adventureous melodies/feelings of the original song in to a hard rock/metal song without it changing those feelings. Metal songs, in general, are usually in just about any mode/key that is NOT a major key. The few, such as "Party Hard" by Andrew W.K., are condemed by the average metalhead as "LOL THIS ISN'T METAL" Even though by all means and purposes it sounds metal (production-wise), even if not to the average guy. (Disagree? Sue me. &lt;(0.0&lt;()&#xd;
&#xd;
So you can imagine my agony whether to change the song into a minor without destroying the original melodic feelings/integrity of the song -- I had even had discussions with IBBAZ (a.k.a. Kidd Cabbage/Jon Peros) about changing it into a minor, which actually does happen in one section of the song ;) -- or find a way to turn it into major metal.&#xd;
&#xd;
Originally, I was going to make an orchestral metal/just orchestral song. (If you visit the extra site Brandon Strader puts up, you can hear my early attempts at just such a thing.) I toiled for months slaving away trying to come up with ideas how to make it work. From scrapping sheet music over and over again, to long walks with my body on autopilot trying to figure it out. Soon after, I was shown some Children of Bodom songs by Strader; following this, the song became an attempt to start off as a CoB song that fakeout-ed into the main theme (another idea you can hear on the side site). This too was a BUST, as I could just not make it work and make sense. Then one day, whilst working on sheets, I had come up with extensions of the melody and played some guitar to it. ALL OF A SUDDEN, MY MIND WAS BLOWN. Every single line fell into place perfectly and it all worked and made sense. Writing the rest of the song was no problem as I could hear in my head all of the ideas clearly.&#xd;
&#xd;
Though that is not to say it was without challenge. Without Brandon, who's to say how the song would've turned out. He challenged ideas that I thought were just fine, but in actuality, that I could not see, did not work. Such as an extended chiptune section, that was essentially the song evolving from NES to Genesis to SNES, and planned to, PSX; adding in new lines of music for each hardware's extended audio capabilities/channels; however each version did essentially sound similar to the original song and, as Brandon pointed out to me, it dragged on too long. Much to my own dismay, I hated the idea of getting rid of it and fought to argue against changing it. I eventually gave in of course, and looking back, for the better.&#xd;
&#xd;
Where "Gurgu Volcano" came in was I believe the song hadn't been claimed yet and I voiced my opinion about probably being able to work it in my song somewhere as a break from the main theme. I came up with concept audio, then working it into the song in various stages/ideas until the current version, which was inspired by the Wild Arms arrangement album -rocking heart- (which is one of my favorite CDs of ALL TIME). I am personally extremely glad the way this section of music turned out. When I finished it, for the first time I was impressed with myself, and excited as well.&#xd;
&#xd;
Technically (not going to say much about this, since it's exactly the same problems I went through with "Prelude," so go and read that if you are interested) and logistically, this song, just like the "Prelude," was a nightmare. This is where I went through trial and extreme error in coming up with ways of making the project file within the DAW coherent and understandable, as well as smart integration of automation envelopes, track grouping, sends/recieves, you name it. At the end of the day, the song ended up being with all tracks counting grouping/sends/recieves/etc./a few unused tracks, 63 tracks large (my average is probably between 30-45). Now that is, at least to me, an extremely large amount of stuff to manage and balance out. But I did. And I'm very pleased.&#xd;
&#xd;
Anyways, overall, the general idea has been that this song was to be done in a way that has never been done before. I think that myself together with the other's working on this project as well as the judge's critcisms, have helped to make this possible. And, for that, I thank you all. It's been a long road for me personally from spending days thinking of ideas, to coming home from work during the Christmas 2010 season and doing nothing but working on the song, from going back to completely overhauling the song in various ways, to micro-managing the mastering process to make the song sound good.&#xd;
&#xd;
I hope you all can enjoy the song in its entirety.&#xd;
&#xd;
Also, for anyone who might curious, here is the list of the VST software (one, bass and electric guitar) I used in making the final version of the song.&#xd;
&#xd;
• Poulin HyBrit Full Stack&#xd;
• LePou LeGion (from same maker as above)&#xd;
• keFIR&#xd;
• ReaComp&#xd;
• ReaEQ&#xd;
• ReaGate&#xd;
• Voxengo SPAN&#xd;
• Voxengo Analogflux Tapebus&#xd;
• Voxengo Analogflux Chrous&#xd;
• Voxengo Analogflux TapeDelay&#xd;
• Recabinet 1/2&#xd;
• free impulses from GuitarAmpModeling.com&#xd;
• AmpliTube Metal&#xd;
• GearBox&#xd;
• ABSYNTH 4&#xd;
• CSR Hall&#xd;
• CSR Inverse&#xd;
• CamelPhat 3&#xd;
• Classic Chorus&#xd;
• Prophet V 2&#xd;
• Albino 2&#xd;
• Cockos REAPER&#xd;
• Panipulator&#xd;
• Ampeg SVX&#xd;
• PRO-53&#xd;
• Miroslav Philharmonik&#xd;
• Minimoog V&#xd;
• EZ Drummer w/DFH Expansion&#xd;
• EWQLSO Gold&#xd;
• SynthFont&#xd;
• T-RackS EQ 1.x&#xd;
• T-RackS 3&#xd;
• Wavestation&#xd;
• Legacy Cell&#xd;
• Gibson Les Paul Smartwood Studio Series 2001&#xd;
• Ibanez Soundgear GSR200&#xd;
&#xd;
Nicholas Steven Perry&#xd;
buttwipinglord@yahoo.com&#xd;
https://twitter.com/n_bonkers_p</property>
  <property name="meta.attr.composer.markup">Nobuo Uematsu</property>
  <property name="meta.attr.grouping.markup">Final Fantasy</property>
  <property name="meta.attr.copyright.markup">Square</property>
  <property name="meta.attr.encoded_by.markup">Nicholas Steven Perry (buttwipinglord@yahoo.com)</property>
  <property name="meta.attr.genre.markup">Game</property>
  <property name="meta.attr.compilation.markup">1</property>
  <property name="meta.attr.TOAL.markup">Final Fantasy: Random Encounter</property>
  <property name="meta.attr.TOPE.markup">NES</property>
  <property name="meta.attr.publisher.markup">OverClocked ReMix</property>
  <property name="meta.attr.setsubtitle.markup">OCR02662</property>
  <property name="meta.attr.TIT3.markup">Roaming... Please Wait</property>
  <property name="meta.attr.title.markup">Final Fantasy "Roaming... Please Wait" OC ReMix</property>
  <property name="meta.attr.track.markup">2662</property>
  <property name="meta.attr.date.markup">2013</property>
  <property name="seekable">1</property>
  <property name="meta.media.sample_aspect_num">1</property>
  <property name="meta.media.sample_aspect_den">1</property>
  <property name="audio_index">0</property>
  <property name="video_index">1</property>
  <property name="vstream">0</property>
  <property name="meta.media.frame_rate_num">90000</property>
  <property name="meta.media.frame_rate_den">1</property>
  <property name="meta.media.colorspace">601</property>
  <property name="meta.media.color_trc">2</property>
  <property name="meta.media.has_b_frames">0</property>
  <property name="meta.media.width">700</property>
  <property name="meta.media.height">700</property>
  <property name="meta.media.aspect_ratio">1</property>
  <property name="meta.media.color_range">full</property>
  <property name="astream">0</property>
  <property name="meta.media.top_field_first">0</property>
  <property name="meta.media.progressive">1</property>
  <property name="kdenlive:folderid">5</property>
  <property name="kdenlive:id">15</property>
  <property name="kdenlive:control_uuid">{d00efd4a-4eff-4bbe-9f89-d30fae4d23a8}</property>
  <property name="mute_on_pause">0</property>
  <property name="kdenlive:clip_type">0</property>
  <property name="kdenlive:coverartstream">1</property>
  <property name="kdenlive:file_size">9482448</property>
  <property name="kdenlive:file_hash">250e329c8d45463766e5e6240c13d42d</property>
  <property name="kdenlive:monitorPosition">2570</property>
 </chain>
 <producer id="producer0" in="00:00:00.000" out="01:50:58.392">
  <property name="length">2147483647</property>
  <property name="eof">continue</property>
  <property name="resource">black</property>
  <property name="aspect_ratio">1</property>
  <property name="mlt_service">color</property>
  <property name="kdenlive:playlistid">black_track</property>
  <property name="mlt_image_format">rgba</property>
  <property name="set.test_audio">0</property>
 </producer>
 <chain id="chain0" out="00:03:36.870">
  <property name="length">5200</property>
  <property name="eof">pause</property>
  <property name="resource">ost/Final_Fantasy_10_Lake_in_Ontario_OC_ReMix.mp3</property>
  <property name="mlt_service">avformat-novalidate</property>
  <property name="seekable">1</property>
  <property name="audio_index">0</property>
  <property name="video_index">1</property>
  <property name="vstream">0</property>
  <property name="astream">0</property>
  <property name="kdenlive:folderid">5</property>
  <property name="kdenlive:id">16</property>
  <property name="kdenlive:control_uuid">{706a63b7-ae4c-4049-b185-bc0848649b24}</property>
  <property name="mute_on_pause">0</property>
  <property name="kdenlive:clip_type">0</property>
  <property name="kdenlive:coverartstream">1</property>
  <property name="kdenlive:file_size">5292699</property>
  <property name="kdenlive:file_hash">33b8cca8fdd7cb417563e7cd62304a4d</property>
  <property name="meta.media.nb_streams">2</property>
  <property name="meta.media.0.stream.type">audio</property>
  <property name="meta.media.0.codec.sample_fmt">fltp</property>
  <property name="meta.media.0.codec.sample_rate">44100</property>
  <property name="meta.media.0.codec.channels">2</property>
  <property name="meta.media.0.codec.layout">stereo</property>
  <property name="meta.media.0.codec.name">mp3float</property>
  <property name="meta.media.0.codec.long_name">MP3 (MPEG audio layer 3)</property>
  <property name="meta.media.0.codec.bit_rate">192000</property>
  <property name="meta.media.1.stream.type">video</property>
  <property name="meta.media.1.stream.frame_rate">90000</property>
  <property name="meta.media.1.stream.sample_aspect_ratio">0</property>
  <property name="meta.media.1.codec.width">700</property>
  <property name="meta.media.1.codec.height">700</property>
  <property name="meta.media.1.codec.rotate">0</property>
  <property name="meta.media.1.codec.pix_fmt">yuvj444p</property>
  <property name="meta.media.1.codec.sample_aspect_ratio">0</property>
  <property name="meta.media.1.codec.colorspace">601</property>
  <property name="meta.media.1.codec.name">mjpeg</property>
  <property name="meta.media.1.codec.long_name">MJPEG (Motion JPEG)</property>
  <property name="meta.media.1.codec.bit_rate">0</property>
  <property name="meta.attr.1.stream.comment.markup">Cover (front)</property>
  <property name="meta.attr.album.markup">ocremix.org</property>
  <property name="meta.attr.artist.markup">ilp0</property>
  <property name="meta.attr.album_artist.markup">OverClocked ReMix</property>
  <property name="meta.attr.comment.markup">Ilari Nieminen&#xd;
isniemin@cs.helsinki.fi&#xd;
http://last.fm/music/ilp0</property>
  <property name="meta.attr.composer.markup">Nobuo Uematsu</property>
  <property name="meta.attr.grouping.markup">Final Fantasy X</property>
  <property name="meta.attr.copyright.markup">Square</property>
  <property name="meta.attr.encoded_by.markup">Ilari Nieminen (isniemin@cs.helsinki.fi)</property>
  <property name="meta.attr.genre.markup">Game</property>
  <property name="meta.attr.compilation.markup">1</property>
  <property name="meta.attr.TOPE.markup">PlayStation 2</property>
  <property name="meta.attr.publisher.markup">OverClocked ReMix</property>
  <property name="meta.attr.SETSUBTITLE.markup">OCR01560</property>
  <property name="meta.attr.TIT3.markup">Lake in Ontario?</property>
  <property name="meta.attr.title.markup">Final Fantasy X "Lake in Ontario?" OC ReMix</property>
  <property name="meta.attr.track.markup">1560</property>
  <property name="meta.attr.date.markup">2007</property>
  <property name="meta.media.sample_aspect_num">1</property>
  <property name="meta.media.sample_aspect_den">1</property>
  <property name="meta.media.frame_rate_num">90000</property>
  <property name="meta.media.frame_rate_den">1</property>
  <property name="meta.media.colorspace">601</property>
  <property name="meta.media.color_trc">2</property>
  <property name="meta.media.has_b_frames">0</property>
  <property name="meta.media.width">700</property>
  <property name="meta.media.height">700</property>
  <property name="meta.media.aspect_ratio">1</property>
  <property name="meta.media.color_range">full</property>
  <property name="xml">was here</property>
  <property name="meta.media.top_field_first">0</property>
  <property name="meta.media.progressive">1</property>
  <property name="set.test_audio">0</property>
  <property name="set.test_image">1</property>
 </chain>
 <playlist id="playlist0">
  <property name="kdenlive:audio_track">1</property>
  <blank length="01:42:14.389"/>
  <entry in="00:00:00.000" out="00:03:36.870" producer="chain0">
   <property name="kdenlive:id">16</property>
   <filter id="filter0">
    <property name="window">75</property>
    <property name="max_gain">20dB</property>
    <property name="level">00:00:00.000=-8</property>
    <property name="mlt_service">volume</property>
    <property name="kdenlive_id">volume</property>
    <property name="kdenlive:collapsed">0</property>
   </filter>
  </entry>
 </playlist>
 <playlist id="playlist1">
  <property name="kdenlive:audio_track">1</property>
 </playlist>
 <tractor id="tractor0" in="00:00:00.000" out="01:45:51.218">
  <property name="kdenlive:audio_track">1</property>
  <property name="kdenlive:trackheight">84</property>
  <property name="kdenlive:timeline_active">1</property>
  <property name="kdenlive:collapsed">0</property>
  <property name="kdenlive:thumbs_format"/>
  <property name="kdenlive:audio_rec"/>
  <track hide="both" producer="playlist0"/>
  <track hide="both" producer="playlist1"/>
  <filter id="filter1">
   <property name="window">75</property>
   <property name="max_gain">20dB</property>
   <property name="mlt_service">volume</property>
   <property name="internal_added">237</property>
   <property name="disable">1</property>
  </filter>
  <filter id="filter2">
   <property name="channel">-1</property>
   <property name="mlt_service">panner</property>
   <property name="internal_added">237</property>
   <property name="start">0.5</property>
   <property name="disable">1</property>
  </filter>
  <filter id="filter3">
   <property name="iec_scale">0</property>
   <property name="mlt_service">audiolevel</property>
   <property name="dbpeak">1</property>
   <property name="disable">1</property>
  </filter>
 </tractor>
 <chain id="chain1" out="00:01:50.133">
  <property name="length">2641</property>
  <property name="eof">pause</property>
  <property name="resource">ost/Final_Fantasy_A_Temple_of_Chaos_OC_ReMix.mp3</property>
  <property name="mlt_service">avformat-novalidate</property>
  <property name="seekable">1</property>
  <property name="audio_index">0</property>
  <property name="video_index">1</property>
  <property name="vstream">0</property>
  <property name="astream">0</property>
  <property name="kdenlive:folderid">5</property>
  <property name="kdenlive:id">6</property>
  <property name="kdenlive:control_uuid">{231dcc23-c66b-44d6-befc-7e885658511a}</property>
  <property name="mute_on_pause">0</property>
  <property name="kdenlive:clip_type">0</property>
  <property name="kdenlive:coverartstream">1</property>
  <property name="kdenlive:file_size">2730289</property>
  <property name="kdenlive:file_hash">30b244bf6bc335b7c0baec37d4f8f949</property>
  <property name="meta.media.nb_streams">2</property>
  <property name="meta.media.0.stream.type">audio</property>
  <property name="meta.media.0.codec.sample_fmt">fltp</property>
  <property name="meta.media.0.codec.sample_rate">44100</property>
  <property name="meta.media.0.codec.channels">2</property>
  <property name="meta.media.0.codec.layout">stereo</property>
  <property name="meta.media.0.codec.name">mp3float</property>
  <property name="meta.media.0.codec.long_name">MP3 (MPEG audio layer 3)</property>
  <property name="meta.media.0.codec.bit_rate">192000</property>
  <property name="meta.media.1.stream.type">video</property>
  <property name="meta.media.1.stream.frame_rate">90000</property>
  <property name="meta.media.1.stream.sample_aspect_ratio">0</property>
  <property name="meta.media.1.codec.width">700</property>
  <property name="meta.media.1.codec.height">700</property>
  <property name="meta.media.1.codec.rotate">0</property>
  <property name="meta.media.1.codec.pix_fmt">yuvj444p</property>
  <property name="meta.media.1.codec.sample_aspect_ratio">0</property>
  <property name="meta.media.1.codec.colorspace">601</property>
  <property name="meta.media.1.codec.name">mjpeg</property>
  <property name="meta.media.1.codec.long_name">MJPEG (Motion JPEG)</property>
  <property name="meta.media.1.codec.bit_rate">0</property>
  <property name="meta.attr.1.stream.comment.markup">Cover (front)</property>
  <property name="meta.attr.album.markup">ocremix.org</property>
  <property name="meta.attr.artist.markup">Tim Sheehy</property>
  <property name="meta.attr.album_artist.markup">OverClocked ReMix</property>
  <property name="meta.attr.comment.markup">Tim Sheehy&#xd;
tim@timsheehy.com&#xd;
http://timsheehy.com</property>
  <property name="meta.attr.composer.markup">Nobuo Uematsu</property>
  <property name="meta.attr.grouping.markup">Final Fantasy</property>
  <property name="meta.attr.copyright.markup">Square</property>
  <property name="meta.attr.encoded_by.markup">Tim Sheehy (tim@timsheehy.com)</property>
  <property name="meta.attr.genre.markup">Game</property>
  <property name="meta.attr.compilation.markup">1</property>
  <property name="meta.attr.TOPE.markup">NES</property>
  <property name="meta.attr.publisher.markup">OverClocked ReMix</property>
  <property name="meta.attr.SETSUBTITLE.markup">OCR00429</property>
  <property name="meta.attr.TIT3.markup">A Temple of Chaos</property>
  <property name="meta.attr.title.markup">Final Fantasy "A Temple of Chaos" OC ReMix</property>
  <property name="meta.attr.track.markup">429</property>
  <property name="meta.attr.date.markup">2001</property>
  <property name="meta.media.sample_aspect_num">1</property>
  <property name="meta.media.sample_aspect_den">1</property>
  <property name="meta.media.frame_rate_num">90000</property>
  <property name="meta.media.frame_rate_den">1</property>
  <property name="meta.media.colorspace">601</property>
  <property name="meta.media.color_trc">2</property>
  <property name="meta.media.has_b_frames">0</property>
  <property name="meta.media.width">700</property>
  <property name="meta.media.height">700</property>
  <property name="meta.media.aspect_ratio">1</property>
  <property name="meta.media.color_range">full</property>
  <property name="xml">was here</property>
  <property name="meta.media.top_field_first">0</property>
  <property name="meta.media.progressive">1</property>
  <property name="set.test_audio">0</property>
  <property name="set.test_image">1</property>
 </chain>
 <playlist id="playlist2">
  <property name="kdenlive:audio_track">1</property>
  <blank length="00:00:19.561"/>
  <entry in="00:00:19.561" out="00:00:29.905" producer="chain1">
   <property name="kdenlive:id">6</property>
   <property name="kdenlive:activeeffect">1</property>
   <filter id="filter4">
    <property name="window">75</property>
    <property name="max_gain">20dB</property>
    <property name="level">00:00:19.561=-15</property>
    <property name="mlt_service">volume</property>
    <property name="kdenlive_id">volume</property>
    <property name="kdenlive:collapsed">0</property>
   </filter>
   <filter id="filter5" in="00:00:27.319" out="00:00:29.905">
    <property name="window">75</property>
    <property name="max_gain">20dB</property>
    <property name="mlt_service">volume</property>
    <property name="kdenlive_id">fadeout</property>
    <property name="gain">1</property>
    <property name="end">0</property>
    <property name="kdenlive:collapsed">0</property>
    <property name="disable">1</property>
   </filter>
   <filter id="filter6" in="00:00:19.561" out="00:00:29.947">
    <property name="window">75</property>
    <property name="max_gain">20dB</property>
    <property name="mlt_service">volume</property>
    <property name="kdenlive_id">fadein</property>
    <property name="gain">0</property>
    <property name="end">1</property>
   </filter>
  </entry>
  <entry in="00:00:02.502" out="00:00:09.509" producer="chain1">
   <property name="kdenlive:id">6</property>
   <filter id="filter7">
    <property name="window">75</property>
    <property name="max_gain">20dB</property>
    <property name="level">00:00:02.502=-10</property>
    <property name="mlt_service">volume</property>
    <property name="kdenlive_id">volume</property>
    <property name="kdenlive:collapsed">0</property>
   </filter>
   <filter id="filter8" in="00:00:03.462" out="00:00:09.509">
    <property name="window">75</property>
    <property name="max_gain">20dB</property>
    <property name="mlt_service">volume</property>
    <property name="kdenlive_id">fadeout</property>
    <property name="gain">1</property>
    <property name="end">0</property>
    <property name="kdenlive:collapsed">0</property>
   </filter>
   <filter id="filter9" in="00:00:02.502" out="00:00:05.505">
    <property name="window">75</property>
    <property name="max_gain">20dB</property>
    <property name="mlt_service">volume</property>
    <property name="kdenlive_id">fadein</property>
    <property name="gain">0</property>
    <property name="end">1</property>
    <property name="kdenlive:collapsed">0</property>
   </filter>
   <filter id="filter10">
    <property name="window">75</property>
    <property name="max_gain">20dB</property>
    <property name="level">00:00:02.502=-16</property>
    <property name="mlt_service">volume</property>
    <property name="kdenlive_id">volume</property>
    <property name="kdenlive:collapsed">0</property>
   </filter>
  </entry>
  <entry in="00:00:02.502" out="00:00:10.260" producer="chain1">
   <property name="kdenlive:id">6</property>
   <filter id="filter11">
    <property name="window">75</property>
    <property name="max_gain">20dB</property>
    <property name="level">00:00:02.502=-10</property>
    <property name="mlt_service">volume</property>
    <property name="kdenlive_id">volume</property>
    <property name="kdenlive:collapsed">0</property>
   </filter>
   <filter id="filter12" in="00:00:04.213" out="00:00:10.260">
    <property name="window">75</property>
    <property name="max_gain">20dB</property>
    <property name="mlt_service">volume</property>
    <property name="kdenlive_id">fadeout</property>
    <property name="gain">1</property>
    <property name="end">0</property>
    <property name="kdenlive:collapsed">0</property>
   </filter>
   <filter id="filter13" in="00:00:02.502" out="00:00:05.505">
    <property name="window">75</property>
    <property name="max_gain">20dB</property>
    <property name="mlt_service">volume</property>
    <property name="kdenlive_id">fadein</property>
    <property name="gain">0</property>
    <property name="end">1</property>
    <property name="kdenlive:collapsed">0</property>
   </filter>
   <filter id="filter14">
    <property name="window">75</property>
    <property name="max_gain">20dB</property>
    <property name="level">00:00:02.502=-16</property>
    <property name="mlt_service">volume</property>
    <property name="kdenlive_id">volume</property>
    <property name="kdenlive:collapsed">0</property>
   </filter>
   <filter id="filter15">
    <property name="window">75</property>
    <property name="max_gain">20dB</property>
    <property name="mlt_service">volume</property>
    <property name="kdenlive_id">mute</property>
    <property name="gain">0</property>
    <property name="kdenlive:collapsed">0</property>
   </filter>
  </entry>
 </playlist>
 <playlist id="playlist3">
  <property name="kdenlive:audio_track">1</property>
 </playlist>
 <tractor id="tractor1" in="00:00:00.000" out="00:00:44.753">
  <property name="kdenlive:audio_track">1</property>
  <property name="kdenlive:trackheight">84</property>
  <property name="kdenlive:timeline_active">1</property>
  <property name="kdenlive:collapsed">0</property>
  <property name="kdenlive:track_name">Reverb</property>
  <property name="kdenlive:thumbs_format"/>
  <property name="kdenlive:audio_rec"/>
  <track hide="video" producer="playlist2"/>
  <track hide="video" producer="playlist3"/>
  <filter id="filter18" out="00:00:44.795">
   <property name="mlt_service">ladspa.2142</property>
   <property name="kdenlive_id">ladspa.2142</property>
   <property name="0">5000</property>
   <property name="1">-70</property>
   <property name="2">-9</property>
   <property name="3">1</property>
   <property name="4">1</property>
   <property name="5">1</property>
   <property name="6">1</property>
   <property name="7">23</property>
   <property name="wetness">1</property>
   <property name="kdenlive:collapsed">0</property>
   <property name="instances">1</property>
  </filter>
  <filter id="filter19" out="00:00:44.795">
   <property name="mlt_service">ladspa.2142</property>
   <property name="kdenlive_id">ladspa.2142</property>
   <property name="0">10000</property>
   <property name="1">-70</property>
   <property name="2">0</property>
   <property name="3">1</property>
   <property name="4">1</property>
   <property name="5">1</property>
   <property name="6">1</property>
   <property name="7">38</property>
   <property name="wetness">1</property>
   <property name="kdenlive:collapsed">0</property>
   <property name="instances">1</property>
  </filter>
  <filter id="filter16">
   <property name="window">75</property>
   <property name="max_gain">20dB</property>
   <property name="level">-10.0014</property>
   <property name="mlt_service">volume</property>
   <property name="internal_added">237</property>
   <property name="disable">0</property>
  </filter>
  <filter id="filter17">
   <property name="channel">-1</property>
   <property name="mlt_service">panner</property>
   <property name="internal_added">237</property>
   <property name="start">0.5</property>
   <property name="disable">1</property>
  </filter>
  <filter id="filter20">
   <property name="iec_scale">0</property>
   <property name="mlt_service">audiolevel</property>
   <property name="dbpeak">1</property>
   <property name="disable">1</property>
  </filter>
 </tractor>
 <chain id="chain2" out="00:01:50.133">
  <property name="length">2641</property>
  <property name="eof">pause</property>
  <property name="resource">ost/Final_Fantasy_A_Temple_of_Chaos_OC_ReMix.mp3</property>
  <property name="mlt_service">avformat-novalidate</property>
  <property name="seekable">1</property>
  <property name="audio_index">0</property>
  <property name="video_index">1</property>
  <property name="vstream">0</property>
  <property name="astream">0</property>
  <property name="kdenlive:folderid">5</property>
  <property name="kdenlive:id">6</property>
  <property name="kdenlive:control_uuid">{231dcc23-c66b-44d6-befc-7e885658511a}</property>
  <property name="mute_on_pause">0</property>
  <property name="kdenlive:clip_type">0</property>
  <property name="kdenlive:coverartstream">1</property>
  <property name="kdenlive:file_size">2730289</property>
  <property name="kdenlive:file_hash">30b244bf6bc335b7c0baec37d4f8f949</property>
  <property name="meta.media.nb_streams">2</property>
  <property name="meta.media.0.stream.type">audio</property>
  <property name="meta.media.0.codec.sample_fmt">fltp</property>
  <property name="meta.media.0.codec.sample_rate">44100</property>
  <property name="meta.media.0.codec.channels">2</property>
  <property name="meta.media.0.codec.layout">stereo</property>
  <property name="meta.media.0.codec.name">mp3float</property>
  <property name="meta.media.0.codec.long_name">MP3 (MPEG audio layer 3)</property>
  <property name="meta.media.0.codec.bit_rate">192000</property>
  <property name="meta.media.1.stream.type">video</property>
  <property name="meta.media.1.stream.frame_rate">90000</property>
  <property name="meta.media.1.stream.sample_aspect_ratio">0</property>
  <property name="meta.media.1.codec.width">700</property>
  <property name="meta.media.1.codec.height">700</property>
  <property name="meta.media.1.codec.rotate">0</property>
  <property name="meta.media.1.codec.pix_fmt">yuvj444p</property>
  <property name="meta.media.1.codec.sample_aspect_ratio">0</property>
  <property name="meta.media.1.codec.colorspace">601</property>
  <property name="meta.media.1.codec.name">mjpeg</property>
  <property name="meta.media.1.codec.long_name">MJPEG (Motion JPEG)</property>
  <property name="meta.media.1.codec.bit_rate">0</property>
  <property name="meta.attr.1.stream.comment.markup">Cover (front)</property>
  <property name="meta.attr.album.markup">ocremix.org</property>
  <property name="meta.attr.artist.markup">Tim Sheehy</property>
  <property name="meta.attr.album_artist.markup">OverClocked ReMix</property>
  <property name="meta.attr.comment.markup">Tim Sheehy&#xd;
tim@timsheehy.com&#xd;
http://timsheehy.com</property>
  <property name="meta.attr.composer.markup">Nobuo Uematsu</property>
  <property name="meta.attr.grouping.markup">Final Fantasy</property>
  <property name="meta.attr.copyright.markup">Square</property>
  <property name="meta.attr.encoded_by.markup">Tim Sheehy (tim@timsheehy.com)</property>
  <property name="meta.attr.genre.markup">Game</property>
  <property name="meta.attr.compilation.markup">1</property>
  <property name="meta.attr.TOPE.markup">NES</property>
  <property name="meta.attr.publisher.markup">OverClocked ReMix</property>
  <property name="meta.attr.SETSUBTITLE.markup">OCR00429</property>
  <property name="meta.attr.TIT3.markup">A Temple of Chaos</property>
  <property name="meta.attr.title.markup">Final Fantasy "A Temple of Chaos" OC ReMix</property>
  <property name="meta.attr.track.markup">429</property>
  <property name="meta.attr.date.markup">2001</property>
  <property name="meta.media.sample_aspect_num">1</property>
  <property name="meta.media.sample_aspect_den">1</property>
  <property name="meta.media.frame_rate_num">90000</property>
  <property name="meta.media.frame_rate_den">1</property>
  <property name="meta.media.colorspace">601</property>
  <property name="meta.media.color_trc">2</property>
  <property name="meta.media.has_b_frames">0</property>
  <property name="meta.media.width">700</property>
  <property name="meta.media.height">700</property>
  <property name="meta.media.aspect_ratio">1</property>
  <property name="meta.media.color_range">full</property>
  <property name="xml">was here</property>
  <property name="meta.media.top_field_first">0</property>
  <property name="meta.media.progressive">1</property>
  <property name="set.test_audio">0</property>
  <property name="set.test_image">1</property>
 </chain>
 <playlist id="playlist4">
  <property name="kdenlive:audio_track">1</property>
  <entry in="00:00:00.000" out="00:00:29.905" producer="chain2">
   <property name="kdenlive:id">6</property>
   <filter id="filter21">
    <property name="window">75</property>
    <property name="max_gain">20dB</property>
    <property name="level">00:00:00.000=-10</property>
    <property name="mlt_service">volume</property>
    <property name="kdenlive_id">volume</property>
    <property name="kdenlive:collapsed">0</property>
   </filter>
   <filter id="filter22" in="00:00:27.444" out="00:00:29.905">
    <property name="window">75</property>
    <property name="max_gain">20dB</property>
    <property name="mlt_service">volume</property>
    <property name="kdenlive_id">fadeout</property>
    <property name="gain">1</property>
    <property name="end">0</property>
    <property name="kdenlive:collapsed">0</property>
   </filter>
  </entry>
  <entry in="00:00:02.502" out="00:00:08.967" producer="chain2">
   <property name="kdenlive:id">6</property>
   <filter id="filter23">
    <property name="window">75</property>
    <property name="max_gain">20dB</property>
    <property name="level">00:00:02.502=-10</property>
    <property name="mlt_service">volume</property>
    <property name="kdenlive_id">volume</property>
    <property name="kdenlive:collapsed">0</property>
   </filter>
   <filter id="filter24" in="00:00:02.920" out="00:00:08.967">
    <property name="window">75</property>
    <property name="max_gain">20dB</property>
    <property name="mlt_service">volume</property>
    <property name="kdenlive_id">fadeout</property>
    <property name="gain">1</property>
    <property name="end">0</property>
    <property name="kdenlive:collapsed">0</property>
   </filter>
   <filter id="filter25" in="00:00:02.502" out="00:00:02.628">
    <property name="window">75</property>
    <property name="max_gain">20dB</property>
    <property name="mlt_service">volume</property>
    <property name="kdenlive_id">fadein</property>
    <property name="gain">0</property>
    <property name="end">1</property>
    <property name="kdenlive:collapsed">0</property>
   </filter>
   <filter id="filter26">
    <property name="window">75</property>
    <property name="max_gain">20dB</property>
    <property name="level">00:00:02.502=-6</property>
    <property name="mlt_service">volume</property>
    <property name="kdenlive_id">volume</property>
    <property name="kdenlive:collapsed">0</property>
   </filter>
  </entry>
 </playlist>
 <playlist id="playlist5">
  <property name="kdenlive:audio_track">1</property>
 </playlist>
 <tractor id="tractor2" in="00:00:00.000" out="00:00:36.411">
  <property name="kdenlive:audio_track">1</property>
  <property name="kdenlive:trackheight">84</property>
  <property name="kdenlive:timeline_active">1</property>
  <property name="kdenlive:collapsed">0</property>
  <property name="kdenlive:thumbs_format"/>
  <property name="kdenlive:audio_rec"/>
  <track hide="video" producer="playlist4"/>
  <track hide="video" producer="playlist5"/>
  <filter id="filter29">
   <property name="window">75</property>
   <property name="max_gain">20dB</property>
   <property name="mlt_service">volume</property>
   <property name="internal_added">237</property>
   <property name="disable">1</property>
  </filter>
  <filter id="filter30">
   <property name="channel">-1</property>
   <property name="mlt_service">panner</property>
   <property name="internal_added">237</property>
   <property name="start">0.5</property>
   <property name="disable">1</property>
  </filter>
  <filter id="filter27">
   <property name="iec_scale">0</property>
   <property name="mlt_service">audiolevel</property>
   <property name="dbpeak">1</property>
   <property name="disable">1</property>
  </filter>
 </tractor>
 <chain id="chain3" out="01:45:58.350">
  <property name="length">152448</property>
  <property name="eof">pause</property>
  <property name="resource">N:/Videos/Horror and SciFi/Final Fantasy/Final.Fantasy.The.Spirits.Within.2001.1080p.BluRay.HEVC.DTS-LiNUX/Final.Fantasy.The.Spirits.Within.2001.1080p.BluRay.HEVC.DTS-LiNUX.mkv</property>
  <property name="mlt_service">avformat-novalidate</property>
  <property name="seekable">1</property>
  <property name="audio_index">1</property>
  <property name="video_index">0</property>
  <property name="vstream">0</property>
  <property name="astream">0</property>
  <property name="kdenlive:control_uuid">{193136b1-969a-4943-bfcd-55058a6808f2}</property>
  <property name="kdenlive:id">4</property>
  <property name="kdenlive:clip_type">0</property>
  <property name="kdenlive:file_size">5331297763</property>
  <property name="kdenlive:file_hash">691e768d68c55b9a28cb9a278fdc8b17</property>
  <property name="kdenlive:folderid">-1</property>
  <property name="meta.media.nb_streams">37</property>
  <property name="meta.media.0.stream.type">video</property>
  <property name="meta.media.0.stream.frame_rate">23.976</property>
  <property name="meta.media.0.stream.sample_aspect_ratio">1</property>
  <property name="meta.media.0.codec.width">1916</property>
  <property name="meta.media.0.codec.height">1036</property>
  <property name="meta.media.0.codec.rotate">0</property>
  <property name="meta.media.0.codec.pix_fmt">yuv420p10le</property>
  <property name="meta.media.0.codec.sample_aspect_ratio">1</property>
  <property name="meta.media.0.codec.colorspace">709</property>
  <property name="meta.media.0.codec.color_trc">1</property>
  <property name="meta.media.0.codec.name">hevc</property>
  <property name="meta.media.0.codec.long_name">HEVC (High Efficiency Video Coding)</property>
  <property name="meta.media.0.codec.bit_rate">0</property>
  <property name="meta.attr.0.stream.BPS-eng.markup">4999776</property>
  <property name="meta.attr.0.stream.DURATION-eng.markup">01:45:58.352000000</property>
  <property name="meta.attr.0.stream.NUMBER_OF_FRAMES-eng.markup">152448</property>
  <property name="meta.attr.0.stream.NUMBER_OF_BYTES-eng.markup">3973792365</property>
  <property name="meta.attr.0.stream._STATISTICS_WRITING_APP-eng.markup">mkvmerge v40.0.0 ('Old Town Road + Pony') 64-bit</property>
  <property name="meta.attr.0.stream._STATISTICS_WRITING_DATE_UTC-eng.markup">2019-12-29 15:49:45</property>
  <property name="meta.attr.0.stream._STATISTICS_TAGS-eng.markup">BPS DURATION NUMBER_OF_FRAMES NUMBER_OF_BYTES</property>
  <property name="meta.media.1.stream.type">audio</property>
  <property name="meta.media.1.codec.sample_fmt">fltp</property>
  <property name="meta.media.1.codec.sample_rate">48000</property>
  <property name="meta.media.1.codec.channels">6</property>
  <property name="meta.media.1.codec.layout">5.1(side)</property>
  <property name="meta.media.1.codec.name">dca</property>
  <property name="meta.media.1.codec.long_name">DCA (DTS Coherent Acoustics)</property>
  <property name="meta.media.1.codec.bit_rate">1411200</property>
  <property name="meta.attr.1.stream.language.markup">eng</property>
  <property name="meta.attr.1.stream.title.markup">Surround</property>
  <property name="meta.attr.1.stream.BPS-eng.markup">1412999</property>
  <property name="meta.attr.1.stream.DURATION-eng.markup">01:45:58.358000000</property>
  <property name="meta.attr.1.stream.NUMBER_OF_FRAMES-eng.markup">596096</property>
  <property name="meta.attr.1.stream.NUMBER_OF_BYTES-eng.markup">1123044864</property>
  <property name="meta.attr.1.stream._STATISTICS_WRITING_APP-eng.markup">mkvmerge v40.0.0 ('Old Town Road + Pony') 64-bit</property>
  <property name="meta.attr.1.stream._STATISTICS_WRITING_DATE_UTC-eng.markup">2019-12-29 15:49:45</property>
  <property name="meta.attr.1.stream._STATISTICS_TAGS-eng.markup">BPS DURATION NUMBER_OF_FRAMES NUMBER_OF_BYTES</property>
  <property name="meta.media.2.codec.name">pgssub</property>
  <property name="meta.media.2.codec.long_name">HDMV Presentation Graphic Stream subtitles</property>
  <property name="meta.media.2.codec.bit_rate">0</property>
  <property name="meta.attr.2.stream.language.markup">eng</property>
  <property name="meta.attr.2.stream.title.markup">English</property>
  <property name="meta.attr.2.stream.BPS-eng.markup">24594</property>
  <property name="meta.attr.2.stream.DURATION-eng.markup">01:33:45.954000000</property>
  <property name="meta.attr.2.stream.NUMBER_OF_FRAMES-eng.markup">1686</property>
  <property name="meta.attr.2.stream.NUMBER_OF_BYTES-eng.markup">17296140</property>
  <property name="meta.attr.2.stream._STATISTICS_WRITING_APP-eng.markup">mkvmerge v40.0.0 ('Old Town Road + Pony') 64-bit</property>
  <property name="meta.attr.2.stream._STATISTICS_WRITING_DATE_UTC-eng.markup">2019-12-29 15:49:45</property>
  <property name="meta.attr.2.stream._STATISTICS_TAGS-eng.markup">BPS DURATION NUMBER_OF_FRAMES NUMBER_OF_BYTES</property>
  <property name="meta.media.3.codec.name">pgssub</property>
  <property name="meta.media.3.codec.long_name">HDMV Presentation Graphic Stream subtitles</property>
  <property name="meta.media.3.codec.bit_rate">0</property>
  <property name="meta.attr.3.stream.language.markup">eng</property>
  <property name="meta.attr.3.stream.title.markup">English SDH</property>
  <property name="meta.attr.3.stream.BPS-eng.markup">32739</property>
  <property name="meta.attr.3.stream.DURATION-eng.markup">01:41:48.102000000</property>
  <property name="meta.attr.3.stream.NUMBER_OF_FRAMES-eng.markup">2103</property>
  <property name="meta.attr.3.stream.NUMBER_OF_BYTES-eng.markup">24997093</property>
  <property name="meta.attr.3.stream._STATISTICS_WRITING_APP-eng.markup">mkvmerge v40.0.0 ('Old Town Road + Pony') 64-bit</property>
  <property name="meta.attr.3.stream._STATISTICS_WRITING_DATE_UTC-eng.markup">2019-12-29 15:49:45</property>
  <property name="meta.attr.3.stream._STATISTICS_TAGS-eng.markup">BPS DURATION NUMBER_OF_FRAMES NUMBER_OF_BYTES</property>
  <property name="meta.media.4.codec.name">pgssub</property>
  <property name="meta.media.4.codec.long_name">HDMV Presentation Graphic Stream subtitles</property>
  <property name="meta.media.4.codec.bit_rate">0</property>
  <property name="meta.attr.4.stream.language.markup">ara</property>
  <property name="meta.attr.4.stream.title.markup">Arabic</property>
  <property name="meta.attr.4.stream.BPS-eng.markup">13581</property>
  <property name="meta.attr.4.stream.DURATION-eng.markup">01:33:59.217000000</property>
  <property name="meta.attr.4.stream.NUMBER_OF_FRAMES-eng.markup">1690</property>
  <property name="meta.attr.4.stream.NUMBER_OF_BYTES-eng.markup">9573918</property>
  <property name="meta.attr.4.stream._STATISTICS_WRITING_APP-eng.markup">mkvmerge v40.0.0 ('Old Town Road + Pony') 64-bit</property>
  <property name="meta.attr.4.stream._STATISTICS_WRITING_DATE_UTC-eng.markup">2019-12-29 15:49:45</property>
  <property name="meta.attr.4.stream._STATISTICS_TAGS-eng.markup">BPS DURATION NUMBER_OF_FRAMES NUMBER_OF_BYTES</property>
  <property name="meta.media.5.codec.name">pgssub</property>
  <property name="meta.media.5.codec.long_name">HDMV Presentation Graphic Stream subtitles</property>
  <property name="meta.media.5.codec.bit_rate">0</property>
  <property name="meta.attr.5.stream.language.markup">bul</property>
  <property name="meta.attr.5.stream.title.markup">Bulgarian</property>
  <property name="meta.attr.5.stream.BPS-eng.markup">23121</property>
  <property name="meta.attr.5.stream.DURATION-eng.markup">01:35:32.310000000</property>
  <property name="meta.attr.5.stream.NUMBER_OF_FRAMES-eng.markup">1656</property>
  <property name="meta.attr.5.stream.NUMBER_OF_BYTES-eng.markup">16567112</property>
  <property name="meta.attr.5.stream._STATISTICS_WRITING_APP-eng.markup">mkvmerge v40.0.0 ('Old Town Road + Pony') 64-bit</property>
  <property name="meta.attr.5.stream._STATISTICS_WRITING_DATE_UTC-eng.markup">2019-12-29 15:49:45</property>
  <property name="meta.attr.5.stream._STATISTICS_TAGS-eng.markup">BPS DURATION NUMBER_OF_FRAMES NUMBER_OF_BYTES</property>
  <property name="meta.media.6.codec.name">pgssub</property>
  <property name="meta.media.6.codec.long_name">HDMV Presentation Graphic Stream subtitles</property>
  <property name="meta.media.6.codec.bit_rate">0</property>
  <property name="meta.attr.6.stream.language.markup">chi</property>
  <property name="meta.attr.6.stream.title.markup">Cantonese</property>
  <property name="meta.attr.6.stream.BPS-eng.markup">19607</property>
  <property name="meta.attr.6.stream.DURATION-eng.markup">01:42:59.006000000</property>
  <property name="meta.attr.6.stream.NUMBER_OF_FRAMES-eng.markup">1709</property>
  <property name="meta.attr.6.stream.NUMBER_OF_BYTES-eng.markup">15144515</property>
  <property name="meta.attr.6.stream._STATISTICS_WRITING_APP-eng.markup">mkvmerge v40.0.0 ('Old Town Road + Pony') 64-bit</property>
  <property name="meta.attr.6.stream._STATISTICS_WRITING_DATE_UTC-eng.markup">2019-12-29 15:49:45</property>
  <property name="meta.attr.6.stream._STATISTICS_TAGS-eng.markup">BPS DURATION NUMBER_OF_FRAMES NUMBER_OF_BYTES</property>
  <property name="meta.media.7.codec.name">pgssub</property>
  <property name="meta.media.7.codec.long_name">HDMV Presentation Graphic Stream subtitles</property>
  <property name="meta.media.7.codec.bit_rate">0</property>
  <property name="meta.attr.7.stream.language.markup">chi</property>
  <property name="meta.attr.7.stream.title.markup">Mandarin</property>
  <property name="meta.attr.7.stream.BPS-eng.markup">21248</property>
  <property name="meta.attr.7.stream.DURATION-eng.markup">01:33:59.258000000</property>
  <property name="meta.attr.7.stream.NUMBER_OF_FRAMES-eng.markup">1704</property>
  <property name="meta.attr.7.stream.NUMBER_OF_BYTES-eng.markup">14978356</property>
  <property name="meta.attr.7.stream._STATISTICS_WRITING_APP-eng.markup">mkvmerge v40.0.0 ('Old Town Road + Pony') 64-bit</property>
  <property name="meta.attr.7.stream._STATISTICS_WRITING_DATE_UTC-eng.markup">2019-12-29 15:49:45</property>
  <property name="meta.attr.7.stream._STATISTICS_TAGS-eng.markup">BPS DURATION NUMBER_OF_FRAMES NUMBER_OF_BYTES</property>
  <property name="meta.media.8.codec.name">pgssub</property>
  <property name="meta.media.8.codec.long_name">HDMV Presentation Graphic Stream subtitles</property>
  <property name="meta.media.8.codec.bit_rate">0</property>
  <property name="meta.attr.8.stream.language.markup">hrv</property>
  <property name="meta.attr.8.stream.title.markup">Croatian</property>
  <property name="meta.attr.8.stream.BPS-eng.markup">18941</property>
  <property name="meta.attr.8.stream.DURATION-eng.markup">01:33:59.383000000</property>
  <property name="meta.attr.8.stream.NUMBER_OF_FRAMES-eng.markup">1355</property>
  <property name="meta.attr.8.stream.NUMBER_OF_BYTES-eng.markup">13352216</property>
  <property name="meta.attr.8.stream._STATISTICS_WRITING_APP-eng.markup">mkvmerge v40.0.0 ('Old Town Road + Pony') 64-bit</property>
  <property name="meta.attr.8.stream._STATISTICS_WRITING_DATE_UTC-eng.markup">2019-12-29 15:49:45</property>
  <property name="meta.attr.8.stream._STATISTICS_TAGS-eng.markup">BPS DURATION NUMBER_OF_FRAMES NUMBER_OF_BYTES</property>
  <property name="meta.media.9.codec.name">pgssub</property>
  <property name="meta.media.9.codec.long_name">HDMV Presentation Graphic Stream subtitles</property>
  <property name="meta.media.9.codec.bit_rate">0</property>
  <property name="meta.attr.9.stream.language.markup">cze</property>
  <property name="meta.attr.9.stream.title.markup">Czech</property>
  <property name="meta.attr.9.stream.BPS-eng.markup">21071</property>
  <property name="meta.attr.9.stream.DURATION-eng.markup">01:33:59.300000000</property>
  <property name="meta.attr.9.stream.NUMBER_OF_FRAMES-eng.markup">1688</property>
  <property name="meta.attr.9.stream.NUMBER_OF_BYTES-eng.markup">14853464</property>
  <property name="meta.attr.9.stream._STATISTICS_WRITING_APP-eng.markup">mkvmerge v40.0.0 ('Old Town Road + Pony') 64-bit</property>
  <property name="meta.attr.9.stream._STATISTICS_WRITING_DATE_UTC-eng.markup">2019-12-29 15:49:45</property>
  <property name="meta.attr.9.stream._STATISTICS_TAGS-eng.markup">BPS DURATION NUMBER_OF_FRAMES NUMBER_OF_BYTES</property>
  <property name="meta.media.10.codec.name">pgssub</property>
  <property name="meta.media.10.codec.long_name">HDMV Presentation Graphic Stream subtitles</property>
  <property name="meta.media.10.codec.bit_rate">0</property>
  <property name="meta.attr.10.stream.language.markup">dan</property>
  <property name="meta.attr.10.stream.title.markup">Danish</property>
  <property name="meta.attr.10.stream.BPS-eng.markup">20546</property>
  <property name="meta.attr.10.stream.DURATION-eng.markup">01:33:59.717000000</property>
  <property name="meta.attr.10.stream.NUMBER_OF_FRAMES-eng.markup">1184</property>
  <property name="meta.attr.10.stream.NUMBER_OF_BYTES-eng.markup">14484283</property>
  <property name="meta.attr.10.stream._STATISTICS_WRITING_APP-eng.markup">mkvmerge v40.0.0 ('Old Town Road + Pony') 64-bit</property>
  <property name="meta.attr.10.stream._STATISTICS_WRITING_DATE_UTC-eng.markup">2019-12-29 15:49:45</property>
  <property name="meta.attr.10.stream._STATISTICS_TAGS-eng.markup">BPS DURATION NUMBER_OF_FRAMES NUMBER_OF_BYTES</property>
  <property name="meta.media.11.codec.name">pgssub</property>
  <property name="meta.media.11.codec.long_name">HDMV Presentation Graphic Stream subtitles</property>
  <property name="meta.media.11.codec.bit_rate">0</property>
  <property name="meta.attr.11.stream.language.markup">dut</property>
  <property name="meta.attr.11.stream.title.markup">Dutch</property>
  <property name="meta.attr.11.stream.BPS-eng.markup">23897</property>
  <property name="meta.attr.11.stream.DURATION-eng.markup">01:33:59.675000000</property>
  <property name="meta.attr.11.stream.NUMBER_OF_FRAMES-eng.markup">1258</property>
  <property name="meta.attr.11.stream.NUMBER_OF_BYTES-eng.markup">16846710</property>
  <property name="meta.attr.11.stream._STATISTICS_WRITING_APP-eng.markup">mkvmerge v40.0.0 ('Old Town Road + Pony') 64-bit</property>
  <property name="meta.attr.11.stream._STATISTICS_WRITING_DATE_UTC-eng.markup">2019-12-29 15:49:45</property>
  <property name="meta.attr.11.stream._STATISTICS_TAGS-eng.markup">BPS DURATION NUMBER_OF_FRAMES NUMBER_OF_BYTES</property>
  <property name="meta.media.12.codec.name">pgssub</property>
  <property name="meta.media.12.codec.long_name">HDMV Presentation Graphic Stream subtitles</property>
  <property name="meta.media.12.codec.bit_rate">0</property>
  <property name="meta.attr.12.stream.language.markup">fin</property>
  <property name="meta.attr.12.stream.title.markup">Finnish</property>
  <property name="meta.attr.12.stream.BPS-eng.markup">20857</property>
  <property name="meta.attr.12.stream.DURATION-eng.markup">01:34:00.718000000</property>
  <property name="meta.attr.12.stream.NUMBER_OF_FRAMES-eng.markup">1209</property>
  <property name="meta.attr.12.stream.NUMBER_OF_BYTES-eng.markup">14706553</property>
  <property name="meta.attr.12.stream._STATISTICS_WRITING_APP-eng.markup">mkvmerge v40.0.0 ('Old Town Road + Pony') 64-bit</property>
  <property name="meta.attr.12.stream._STATISTICS_WRITING_DATE_UTC-eng.markup">2019-12-29 15:49:45</property>
  <property name="meta.attr.12.stream._STATISTICS_TAGS-eng.markup">BPS DURATION NUMBER_OF_FRAMES NUMBER_OF_BYTES</property>
  <property name="meta.media.13.codec.name">pgssub</property>
  <property name="meta.media.13.codec.long_name">HDMV Presentation Graphic Stream subtitles</property>
  <property name="meta.media.13.codec.bit_rate">0</property>
  <property name="meta.attr.13.stream.language.markup">fre</property>
  <property name="meta.attr.13.stream.title.markup">French</property>
  <property name="meta.attr.13.stream.BPS-eng.markup">21198</property>
  <property name="meta.attr.13.stream.DURATION-eng.markup">01:43:41.006000000</property>
  <property name="meta.attr.13.stream.NUMBER_OF_FRAMES-eng.markup">1642</property>
  <property name="meta.attr.13.stream.NUMBER_OF_BYTES-eng.markup">16484862</property>
  <property name="meta.attr.13.stream._STATISTICS_WRITING_APP-eng.markup">mkvmerge v40.0.0 ('Old Town Road + Pony') 64-bit</property>
  <property name="meta.attr.13.stream._STATISTICS_WRITING_DATE_UTC-eng.markup">2019-12-29 15:49:45</property>
  <property name="meta.attr.13.stream._STATISTICS_TAGS-eng.markup">BPS DURATION NUMBER_OF_FRAMES NUMBER_OF_BYTES</property>
  <property name="meta.media.14.codec.name">pgssub</property>
  <property name="meta.media.14.codec.long_name">HDMV Presentation Graphic Stream subtitles</property>
  <property name="meta.media.14.codec.bit_rate">0</property>
  <property name="meta.attr.14.stream.language.markup">ger</property>
  <property name="meta.attr.14.stream.title.markup">German</property>
  <property name="meta.attr.14.stream.BPS-eng.markup">24239</property>
  <property name="meta.attr.14.stream.DURATION-eng.markup">01:34:00.260000000</property>
  <property name="meta.attr.14.stream.NUMBER_OF_FRAMES-eng.markup">1493</property>
  <property name="meta.attr.14.stream.NUMBER_OF_BYTES-eng.markup">17089540</property>
  <property name="meta.attr.14.stream._STATISTICS_WRITING_APP-eng.markup">mkvmerge v40.0.0 ('Old Town Road + Pony') 64-bit</property>
  <property name="meta.attr.14.stream._STATISTICS_WRITING_DATE_UTC-eng.markup">2019-12-29 15:49:45</property>
  <property name="meta.attr.14.stream._STATISTICS_TAGS-eng.markup">BPS DURATION NUMBER_OF_FRAMES NUMBER_OF_BYTES</property>
  <property name="meta.media.15.codec.name">pgssub</property>
  <property name="meta.media.15.codec.long_name">HDMV Presentation Graphic Stream subtitles</property>
  <property name="meta.media.15.codec.bit_rate">0</property>
  <property name="meta.attr.15.stream.language.markup">gre</property>
  <property name="meta.attr.15.stream.title.markup">Greek</property>
  <property name="meta.attr.15.stream.BPS-eng.markup">24963</property>
  <property name="meta.attr.15.stream.DURATION-eng.markup">01:33:59.300000000</property>
  <property name="meta.attr.15.stream.NUMBER_OF_FRAMES-eng.markup">1694</property>
  <property name="meta.attr.15.stream.NUMBER_OF_BYTES-eng.markup">17597238</property>
  <property name="meta.attr.15.stream._STATISTICS_WRITING_APP-eng.markup">mkvmerge v40.0.0 ('Old Town Road + Pony') 64-bit</property>
  <property name="meta.attr.15.stream._STATISTICS_WRITING_DATE_UTC-eng.markup">2019-12-29 15:49:45</property>
  <property name="meta.attr.15.stream._STATISTICS_TAGS-eng.markup">BPS DURATION NUMBER_OF_FRAMES NUMBER_OF_BYTES</property>
  <property name="meta.media.16.codec.name">pgssub</property>
  <property name="meta.media.16.codec.long_name">HDMV Presentation Graphic Stream subtitles</property>
  <property name="meta.media.16.codec.bit_rate">0</property>
  <property name="meta.attr.16.stream.language.markup">heb</property>
  <property name="meta.attr.16.stream.title.markup">Hebrew</property>
  <property name="meta.attr.16.stream.BPS-eng.markup">18470</property>
  <property name="meta.attr.16.stream.DURATION-eng.markup">01:33:59.217000000</property>
  <property name="meta.attr.16.stream.NUMBER_OF_FRAMES-eng.markup">1688</property>
  <property name="meta.attr.16.stream.NUMBER_OF_BYTES-eng.markup">13019656</property>
  <property name="meta.attr.16.stream._STATISTICS_WRITING_APP-eng.markup">mkvmerge v40.0.0 ('Old Town Road + Pony') 64-bit</property>
  <property name="meta.attr.16.stream._STATISTICS_WRITING_DATE_UTC-eng.markup">2019-12-29 15:49:45</property>
  <property name="meta.attr.16.stream._STATISTICS_TAGS-eng.markup">BPS DURATION NUMBER_OF_FRAMES NUMBER_OF_BYTES</property>
  <property name="meta.media.17.codec.name">pgssub</property>
  <property name="meta.media.17.codec.long_name">HDMV Presentation Graphic Stream subtitles</property>
  <property name="meta.media.17.codec.bit_rate">0</property>
  <property name="meta.attr.17.stream.language.markup">hin</property>
  <property name="meta.attr.17.stream.title.markup">Hindi</property>
  <property name="meta.attr.17.stream.BPS-eng.markup">21017</property>
  <property name="meta.attr.17.stream.DURATION-eng.markup">01:33:59.300000000</property>
  <property name="meta.attr.17.stream.NUMBER_OF_FRAMES-eng.markup">1690</property>
  <property name="meta.attr.17.stream.NUMBER_OF_BYTES-eng.markup">14815519</property>
  <property name="meta.attr.17.stream._STATISTICS_WRITING_APP-eng.markup">mkvmerge v40.0.0 ('Old Town Road + Pony') 64-bit</property>
  <property name="meta.attr.17.stream._STATISTICS_WRITING_DATE_UTC-eng.markup">2019-12-29 15:49:45</property>
  <property name="meta.attr.17.stream._STATISTICS_TAGS-eng.markup">BPS DURATION NUMBER_OF_FRAMES NUMBER_OF_BYTES</property>
  <property name="meta.media.18.codec.name">pgssub</property>
  <property name="meta.media.18.codec.long_name">HDMV Presentation Graphic Stream subtitles</property>
  <property name="meta.media.18.codec.bit_rate">0</property>
  <property name="meta.attr.18.stream.language.markup">hun</property>
  <property name="meta.attr.18.stream.title.markup">Hungarian</property>
  <property name="meta.attr.18.stream.BPS-eng.markup">19042</property>
  <property name="meta.attr.18.stream.DURATION-eng.markup">01:33:59.175000000</property>
  <property name="meta.attr.18.stream.NUMBER_OF_FRAMES-eng.markup">1690</property>
  <property name="meta.attr.18.stream.NUMBER_OF_BYTES-eng.markup">13423018</property>
  <property name="meta.attr.18.stream._STATISTICS_WRITING_APP-eng.markup">mkvmerge v40.0.0 ('Old Town Road + Pony') 64-bit</property>
  <property name="meta.attr.18.stream._STATISTICS_WRITING_DATE_UTC-eng.markup">2019-12-29 15:49:45</property>
  <property name="meta.attr.18.stream._STATISTICS_TAGS-eng.markup">BPS DURATION NUMBER_OF_FRAMES NUMBER_OF_BYTES</property>
  <property name="meta.media.19.codec.name">pgssub</property>
  <property name="meta.media.19.codec.long_name">HDMV Presentation Graphic Stream subtitles</property>
  <property name="meta.media.19.codec.bit_rate">0</property>
  <property name="meta.attr.19.stream.language.markup">ice</property>
  <property name="meta.attr.19.stream.title.markup">Icelandic</property>
  <property name="meta.attr.19.stream.BPS-eng.markup">23876</property>
  <property name="meta.attr.19.stream.DURATION-eng.markup">01:33:59.217000000</property>
  <property name="meta.attr.19.stream.NUMBER_OF_FRAMES-eng.markup">1688</property>
  <property name="meta.attr.19.stream.NUMBER_OF_BYTES-eng.markup">16830422</property>
  <property name="meta.attr.19.stream._STATISTICS_WRITING_APP-eng.markup">mkvmerge v40.0.0 ('Old Town Road + Pony') 64-bit</property>
  <property name="meta.attr.19.stream._STATISTICS_WRITING_DATE_UTC-eng.markup">2019-12-29 15:49:45</property>
  <property name="meta.attr.19.stream._STATISTICS_TAGS-eng.markup">BPS DURATION NUMBER_OF_FRAMES NUMBER_OF_BYTES</property>
  <property name="meta.media.20.codec.name">pgssub</property>
  <property name="meta.media.20.codec.long_name">HDMV Presentation Graphic Stream subtitles</property>
  <property name="meta.media.20.codec.bit_rate">0</property>
  <property name="meta.attr.20.stream.language.markup">ind</property>
  <property name="meta.attr.20.stream.title.markup">Indonesian</property>
  <property name="meta.attr.20.stream.BPS-eng.markup">26444</property>
  <property name="meta.attr.20.stream.DURATION-eng.markup">01:33:59.300000000</property>
  <property name="meta.attr.20.stream.NUMBER_OF_FRAMES-eng.markup">1662</property>
  <property name="meta.attr.20.stream.NUMBER_OF_BYTES-eng.markup">18640975</property>
  <property name="meta.attr.20.stream._STATISTICS_WRITING_APP-eng.markup">mkvmerge v40.0.0 ('Old Town Road + Pony') 64-bit</property>
  <property name="meta.attr.20.stream._STATISTICS_WRITING_DATE_UTC-eng.markup">2019-12-29 15:49:45</property>
  <property name="meta.attr.20.stream._STATISTICS_TAGS-eng.markup">BPS DURATION NUMBER_OF_FRAMES NUMBER_OF_BYTES</property>
  <property name="meta.media.21.codec.name">pgssub</property>
  <property name="meta.media.21.codec.long_name">HDMV Presentation Graphic Stream subtitles</property>
  <property name="meta.media.21.codec.bit_rate">0</property>
  <property name="meta.attr.21.stream.language.markup">ita</property>
  <property name="meta.attr.21.stream.title.markup">Italian</property>
  <property name="meta.attr.21.stream.BPS-eng.markup">23573</property>
  <property name="meta.attr.21.stream.DURATION-eng.markup">01:42:58.922000000</property>
  <property name="meta.attr.21.stream.NUMBER_OF_FRAMES-eng.markup">1698</property>
  <property name="meta.attr.21.stream.NUMBER_OF_BYTES-eng.markup">18207609</property>
  <property name="meta.attr.21.stream._STATISTICS_WRITING_APP-eng.markup">mkvmerge v40.0.0 ('Old Town Road + Pony') 64-bit</property>
  <property name="meta.attr.21.stream._STATISTICS_WRITING_DATE_UTC-eng.markup">2019-12-29 15:49:45</property>
  <property name="meta.attr.21.stream._STATISTICS_TAGS-eng.markup">BPS DURATION NUMBER_OF_FRAMES NUMBER_OF_BYTES</property>
  <property name="meta.media.22.codec.name">pgssub</property>
  <property name="meta.media.22.codec.long_name">HDMV Presentation Graphic Stream subtitles</property>
  <property name="meta.media.22.codec.bit_rate">0</property>
  <property name="meta.attr.22.stream.language.markup">kor</property>
  <property name="meta.attr.22.stream.title.markup">Korean</property>
  <property name="meta.attr.22.stream.BPS-eng.markup">19788</property>
  <property name="meta.attr.22.stream.DURATION-eng.markup">01:35:32.477000000</property>
  <property name="meta.attr.22.stream.NUMBER_OF_FRAMES-eng.markup">1708</property>
  <property name="meta.attr.22.stream.NUMBER_OF_BYTES-eng.markup">14179403</property>
  <property name="meta.attr.22.stream._STATISTICS_WRITING_APP-eng.markup">mkvmerge v40.0.0 ('Old Town Road + Pony') 64-bit</property>
  <property name="meta.attr.22.stream._STATISTICS_WRITING_DATE_UTC-eng.markup">2019-12-29 15:49:45</property>
  <property name="meta.attr.22.stream._STATISTICS_TAGS-eng.markup">BPS DURATION NUMBER_OF_FRAMES NUMBER_OF_BYTES</property>
  <property name="meta.media.23.codec.name">pgssub</property>
  <property name="meta.media.23.codec.long_name">HDMV Presentation Graphic Stream subtitles</property>
  <property name="meta.media.23.codec.bit_rate">0</property>
  <property name="meta.attr.23.stream.language.markup">nor</property>
  <property name="meta.attr.23.stream.title.markup">Norwegian</property>
  <property name="meta.attr.23.stream.BPS-eng.markup">20066</property>
  <property name="meta.attr.23.stream.DURATION-eng.markup">01:33:59.675000000</property>
  <property name="meta.attr.23.stream.NUMBER_OF_FRAMES-eng.markup">1184</property>
  <property name="meta.attr.23.stream.NUMBER_OF_BYTES-eng.markup">14146014</property>
  <property name="meta.attr.23.stream._STATISTICS_WRITING_APP-eng.markup">mkvmerge v40.0.0 ('Old Town Road + Pony') 64-bit</property>
  <property name="meta.attr.23.stream._STATISTICS_WRITING_DATE_UTC-eng.markup">2019-12-29 15:49:45</property>
  <property name="meta.attr.23.stream._STATISTICS_TAGS-eng.markup">BPS DURATION NUMBER_OF_FRAMES NUMBER_OF_BYTES</property>
  <property name="meta.media.24.codec.name">pgssub</property>
  <property name="meta.media.24.codec.long_name">HDMV Presentation Graphic Stream subtitles</property>
  <property name="meta.media.24.codec.bit_rate">0</property>
  <property name="meta.attr.24.stream.language.markup">pol</property>
  <property name="meta.attr.24.stream.title.markup">Polish</property>
  <property name="meta.attr.24.stream.BPS-eng.markup">18199</property>
  <property name="meta.attr.24.stream.DURATION-eng.markup">01:33:59.300000000</property>
  <property name="meta.attr.24.stream.NUMBER_OF_FRAMES-eng.markup">1688</property>
  <property name="meta.attr.24.stream.NUMBER_OF_BYTES-eng.markup">12829046</property>
  <property name="meta.attr.24.stream._STATISTICS_WRITING_APP-eng.markup">mkvmerge v40.0.0 ('Old Town Road + Pony') 64-bit</property>
  <property name="meta.attr.24.stream._STATISTICS_WRITING_DATE_UTC-eng.markup">2019-12-29 15:49:45</property>
  <property name="meta.attr.24.stream._STATISTICS_TAGS-eng.markup">BPS DURATION NUMBER_OF_FRAMES NUMBER_OF_BYTES</property>
  <property name="meta.media.25.codec.name">pgssub</property>
  <property name="meta.media.25.codec.long_name">HDMV Presentation Graphic Stream subtitles</property>
  <property name="meta.media.25.codec.bit_rate">0</property>
  <property name="meta.attr.25.stream.language.markup">por</property>
  <property name="meta.attr.25.stream.title.markup">Brazilian Portuguese</property>
  <property name="meta.attr.25.stream.BPS-eng.markup">29654</property>
  <property name="meta.attr.25.stream.DURATION-eng.markup">01:33:59.300000000</property>
  <property name="meta.attr.25.stream.NUMBER_OF_FRAMES-eng.markup">1836</property>
  <property name="meta.attr.25.stream.NUMBER_OF_BYTES-eng.markup">20903964</property>
  <property name="meta.attr.25.stream._STATISTICS_WRITING_APP-eng.markup">mkvmerge v40.0.0 ('Old Town Road + Pony') 64-bit</property>
  <property name="meta.attr.25.stream._STATISTICS_WRITING_DATE_UTC-eng.markup">2019-12-29 15:49:45</property>
  <property name="meta.attr.25.stream._STATISTICS_TAGS-eng.markup">BPS DURATION NUMBER_OF_FRAMES NUMBER_OF_BYTES</property>
  <property name="meta.media.26.codec.name">pgssub</property>
  <property name="meta.media.26.codec.long_name">HDMV Presentation Graphic Stream subtitles</property>
  <property name="meta.media.26.codec.bit_rate">0</property>
  <property name="meta.attr.26.stream.language.markup">por</property>
  <property name="meta.attr.26.stream.title.markup">Iberian Portuguese</property>
  <property name="meta.attr.26.stream.BPS-eng.markup">27145</property>
  <property name="meta.attr.26.stream.DURATION-eng.markup">01:33:59.300000000</property>
  <property name="meta.attr.26.stream.NUMBER_OF_FRAMES-eng.markup">1720</property>
  <property name="meta.attr.26.stream.NUMBER_OF_BYTES-eng.markup">19134971</property>
  <property name="meta.attr.26.stream._STATISTICS_WRITING_APP-eng.markup">mkvmerge v40.0.0 ('Old Town Road + Pony') 64-bit</property>
  <property name="meta.attr.26.stream._STATISTICS_WRITING_DATE_UTC-eng.markup">2019-12-29 15:49:45</property>
  <property name="meta.attr.26.stream._STATISTICS_TAGS-eng.markup">BPS DURATION NUMBER_OF_FRAMES NUMBER_OF_BYTES</property>
  <property name="meta.media.27.codec.name">pgssub</property>
  <property name="meta.media.27.codec.long_name">HDMV Presentation Graphic Stream subtitles</property>
  <property name="meta.media.27.codec.bit_rate">0</property>
  <property name="meta.attr.27.stream.language.markup">rum</property>
  <property name="meta.attr.27.stream.title.markup">Romanian</property>
  <property name="meta.attr.27.stream.BPS-eng.markup">25197</property>
  <property name="meta.attr.27.stream.DURATION-eng.markup">01:35:32.519000000</property>
  <property name="meta.attr.27.stream.NUMBER_OF_FRAMES-eng.markup">1706</property>
  <property name="meta.attr.27.stream.NUMBER_OF_BYTES-eng.markup">18055771</property>
  <property name="meta.attr.27.stream._STATISTICS_WRITING_APP-eng.markup">mkvmerge v40.0.0 ('Old Town Road + Pony') 64-bit</property>
  <property name="meta.attr.27.stream._STATISTICS_WRITING_DATE_UTC-eng.markup">2019-12-29 15:49:45</property>
  <property name="meta.attr.27.stream._STATISTICS_TAGS-eng.markup">BPS DURATION NUMBER_OF_FRAMES NUMBER_OF_BYTES</property>
  <property name="meta.media.28.codec.name">pgssub</property>
  <property name="meta.media.28.codec.long_name">HDMV Presentation Graphic Stream subtitles</property>
  <property name="meta.media.28.codec.bit_rate">0</property>
  <property name="meta.attr.28.stream.language.markup">slv</property>
  <property name="meta.attr.28.stream.title.markup">Slovenian</property>
  <property name="meta.attr.28.stream.BPS-eng.markup">22934</property>
  <property name="meta.attr.28.stream.DURATION-eng.markup">01:33:59.300000000</property>
  <property name="meta.attr.28.stream.NUMBER_OF_FRAMES-eng.markup">1706</property>
  <property name="meta.attr.28.stream.NUMBER_OF_BYTES-eng.markup">16167012</property>
  <property name="meta.attr.28.stream._STATISTICS_WRITING_APP-eng.markup">mkvmerge v40.0.0 ('Old Town Road + Pony') 64-bit</property>
  <property name="meta.attr.28.stream._STATISTICS_WRITING_DATE_UTC-eng.markup">2019-12-29 15:49:45</property>
  <property name="meta.attr.28.stream._STATISTICS_TAGS-eng.markup">BPS DURATION NUMBER_OF_FRAMES NUMBER_OF_BYTES</property>
  <property name="meta.media.29.codec.name">pgssub</property>
  <property name="meta.media.29.codec.long_name">HDMV Presentation Graphic Stream subtitles</property>
  <property name="meta.media.29.codec.bit_rate">0</property>
  <property name="meta.attr.29.stream.language.markup">spa</property>
  <property name="meta.attr.29.stream.title.markup">Spanish (Latin America)</property>
  <property name="meta.attr.29.stream.BPS-eng.markup">25790</property>
  <property name="meta.attr.29.stream.DURATION-eng.markup">01:35:32.519000000</property>
  <property name="meta.attr.29.stream.NUMBER_OF_FRAMES-eng.markup">1699</property>
  <property name="meta.attr.29.stream.NUMBER_OF_BYTES-eng.markup">18480666</property>
  <property name="meta.attr.29.stream._STATISTICS_WRITING_APP-eng.markup">mkvmerge v40.0.0 ('Old Town Road + Pony') 64-bit</property>
  <property name="meta.attr.29.stream._STATISTICS_WRITING_DATE_UTC-eng.markup">2019-12-29 15:49:45</property>
  <property name="meta.attr.29.stream._STATISTICS_TAGS-eng.markup">BPS DURATION NUMBER_OF_FRAMES NUMBER_OF_BYTES</property>
  <property name="meta.media.30.codec.name">pgssub</property>
  <property name="meta.media.30.codec.long_name">HDMV Presentation Graphic Stream subtitles</property>
  <property name="meta.media.30.codec.bit_rate">0</property>
  <property name="meta.attr.30.stream.language.markup">spa</property>
  <property name="meta.attr.30.stream.title.markup">Spanish (Spain)</property>
  <property name="meta.attr.30.stream.BPS-eng.markup">20473</property>
  <property name="meta.attr.30.stream.DURATION-eng.markup">01:33:59.300000000</property>
  <property name="meta.attr.30.stream.NUMBER_OF_FRAMES-eng.markup">1702</property>
  <property name="meta.attr.30.stream.NUMBER_OF_BYTES-eng.markup">14432022</property>
  <property name="meta.attr.30.stream._STATISTICS_WRITING_APP-eng.markup">mkvmerge v40.0.0 ('Old Town Road + Pony') 64-bit</property>
  <property name="meta.attr.30.stream._STATISTICS_WRITING_DATE_UTC-eng.markup">2019-12-29 15:49:45</property>
  <property name="meta.attr.30.stream._STATISTICS_TAGS-eng.markup">BPS DURATION NUMBER_OF_FRAMES NUMBER_OF_BYTES</property>
  <property name="meta.media.31.codec.name">pgssub</property>
  <property name="meta.media.31.codec.long_name">HDMV Presentation Graphic Stream subtitles</property>
  <property name="meta.media.31.codec.bit_rate">0</property>
  <property name="meta.attr.31.stream.language.markup">swe</property>
  <property name="meta.attr.31.stream.title.markup">Swedish</property>
  <property name="meta.attr.31.stream.BPS-eng.markup">19711</property>
  <property name="meta.attr.31.stream.DURATION-eng.markup">01:33:59.675000000</property>
  <property name="meta.attr.31.stream.NUMBER_OF_FRAMES-eng.markup">1184</property>
  <property name="meta.attr.31.stream.NUMBER_OF_BYTES-eng.markup">13895741</property>
  <property name="meta.attr.31.stream._STATISTICS_WRITING_APP-eng.markup">mkvmerge v40.0.0 ('Old Town Road + Pony') 64-bit</property>
  <property name="meta.attr.31.stream._STATISTICS_WRITING_DATE_UTC-eng.markup">2019-12-29 15:49:45</property>
  <property name="meta.attr.31.stream._STATISTICS_TAGS-eng.markup">BPS DURATION NUMBER_OF_FRAMES NUMBER_OF_BYTES</property>
  <property name="meta.media.32.codec.name">pgssub</property>
  <property name="meta.media.32.codec.long_name">HDMV Presentation Graphic Stream subtitles</property>
  <property name="meta.media.32.codec.bit_rate">0</property>
  <property name="meta.attr.32.stream.language.markup">tha</property>
  <property name="meta.attr.32.stream.title.markup">Thai</property>
  <property name="meta.attr.32.stream.BPS-eng.markup">20455</property>
  <property name="meta.attr.32.stream.DURATION-eng.markup">01:44:32.308000000</property>
  <property name="meta.attr.32.stream.NUMBER_OF_FRAMES-eng.markup">1708</property>
  <property name="meta.attr.32.stream.NUMBER_OF_BYTES-eng.markup">16038127</property>
  <property name="meta.attr.32.stream._STATISTICS_WRITING_APP-eng.markup">mkvmerge v40.0.0 ('Old Town Road + Pony') 64-bit</property>
  <property name="meta.attr.32.stream._STATISTICS_WRITING_DATE_UTC-eng.markup">2019-12-29 15:49:45</property>
  <property name="meta.attr.32.stream._STATISTICS_TAGS-eng.markup">BPS DURATION NUMBER_OF_FRAMES NUMBER_OF_BYTES</property>
  <property name="meta.media.33.codec.name">pgssub</property>
  <property name="meta.media.33.codec.long_name">HDMV Presentation Graphic Stream subtitles</property>
  <property name="meta.media.33.codec.bit_rate">0</property>
  <property name="meta.attr.33.stream.language.markup">tur</property>
  <property name="meta.attr.33.stream.title.markup">Turkish</property>
  <property name="meta.attr.33.stream.BPS-eng.markup">22418</property>
  <property name="meta.attr.33.stream.DURATION-eng.markup">01:33:59.217000000</property>
  <property name="meta.attr.33.stream.NUMBER_OF_FRAMES-eng.markup">1674</property>
  <property name="meta.attr.33.stream.NUMBER_OF_BYTES-eng.markup">15802734</property>
  <property name="meta.attr.33.stream._STATISTICS_WRITING_APP-eng.markup">mkvmerge v40.0.0 ('Old Town Road + Pony') 64-bit</property>
  <property name="meta.attr.33.stream._STATISTICS_WRITING_DATE_UTC-eng.markup">2019-12-29 15:49:45</property>
  <property name="meta.attr.33.stream._STATISTICS_TAGS-eng.markup">BPS DURATION NUMBER_OF_FRAMES NUMBER_OF_BYTES</property>
  <property name="meta.media.34.codec.name">srt</property>
  <property name="meta.media.34.codec.long_name">SubRip subtitle</property>
  <property name="meta.media.34.codec.bit_rate">0</property>
  <property name="meta.attr.34.stream.language.markup">eng</property>
  <property name="meta.attr.34.stream.BPS-eng.markup">48</property>
  <property name="meta.attr.34.stream.DURATION-eng.markup">01:33:45.538000000</property>
  <property name="meta.attr.34.stream.NUMBER_OF_FRAMES-eng.markup">842</property>
  <property name="meta.attr.34.stream.NUMBER_OF_BYTES-eng.markup">34158</property>
  <property name="meta.attr.34.stream._STATISTICS_WRITING_APP-eng.markup">mkvmerge v40.0.0 ('Old Town Road + Pony') 64-bit</property>
  <property name="meta.attr.34.stream._STATISTICS_WRITING_DATE_UTC-eng.markup">2019-12-29 15:49:45</property>
  <property name="meta.attr.34.stream._STATISTICS_TAGS-eng.markup">BPS DURATION NUMBER_OF_FRAMES NUMBER_OF_BYTES</property>
  <property name="meta.media.35.codec.name">srt</property>
  <property name="meta.media.35.codec.long_name">SubRip subtitle</property>
  <property name="meta.media.35.codec.bit_rate">0</property>
  <property name="meta.attr.35.stream.language.markup">eng</property>
  <property name="meta.attr.35.stream.title.markup">SDH</property>
  <property name="meta.attr.35.stream.BPS-eng.markup">43</property>
  <property name="meta.attr.35.stream.DURATION-eng.markup">01:31:41.370000000</property>
  <property name="meta.attr.35.stream.NUMBER_OF_FRAMES-eng.markup">833</property>
  <property name="meta.attr.35.stream.NUMBER_OF_BYTES-eng.markup">29767</property>
  <property name="meta.attr.35.stream._STATISTICS_WRITING_APP-eng.markup">mkvmerge v40.0.0 ('Old Town Road + Pony') 64-bit</property>
  <property name="meta.attr.35.stream._STATISTICS_WRITING_DATE_UTC-eng.markup">2019-12-29 15:49:45</property>
  <property name="meta.attr.35.stream._STATISTICS_TAGS-eng.markup">BPS DURATION NUMBER_OF_FRAMES NUMBER_OF_BYTES</property>
  <property name="meta.media.36.codec.name">srt</property>
  <property name="meta.media.36.codec.long_name">SubRip subtitle</property>
  <property name="meta.media.36.codec.bit_rate">0</property>
  <property name="meta.attr.36.stream.language.markup">swe</property>
  <property name="meta.attr.36.stream.BPS-eng.markup">47</property>
  <property name="meta.attr.36.stream.DURATION-eng.markup">01:33:48.363000000</property>
  <property name="meta.attr.36.stream.NUMBER_OF_FRAMES-eng.markup">683</property>
  <property name="meta.attr.36.stream.NUMBER_OF_BYTES-eng.markup">33075</property>
  <property name="meta.attr.36.stream._STATISTICS_WRITING_APP-eng.markup">mkvmerge v40.0.0 ('Old Town Road + Pony') 64-bit</property>
  <property name="meta.attr.36.stream._STATISTICS_WRITING_DATE_UTC-eng.markup">2019-12-29 15:49:45</property>
  <property name="meta.attr.36.stream._STATISTICS_TAGS-eng.markup">BPS DURATION NUMBER_OF_FRAMES NUMBER_OF_BYTES</property>
  <property name="meta.attr.creation_time.markup">2019-12-29T15:49:45.000000Z</property>
  <property name="meta.attr.ENCODER.markup">Lavf58.29.100</property>
  <property name="meta.media.sample_aspect_num">1</property>
  <property name="meta.media.sample_aspect_den">1</property>
  <property name="meta.media.frame_rate_num">24000</property>
  <property name="meta.media.frame_rate_den">1001</property>
  <property name="meta.media.colorspace">709</property>
  <property name="meta.media.color_trc">1</property>
  <property name="meta.media.has_b_frames">2</property>
  <property name="meta.media.width">1916</property>
  <property name="meta.media.height">1036</property>
  <property name="meta.media.aspect_ratio">1</property>
  <property name="meta.media.color_range">mpeg</property>
  <property name="xml">was here</property>
  <property name="mute_on_pause">0</property>
  <property name="meta.media.top_field_first">0</property>
  <property name="meta.media.progressive">1</property>
  <property name="set.test_audio">0</property>
  <property name="set.test_image">1</property>
 </chain>
 <chain id="chain7" out="00:04:05.797">
  <property name="length">5894</property>
  <property name="eof">pause</property>
  <property name="resource">ost/Final_Fantasy_4_Hymn_to_the_Crystals_OC_ReMix.mp3</property>
  <property name="mlt_service">avformat-novalidate</property>
  <property name="seekable">1</property>
  <property name="audio_index">0</property>
  <property name="video_index">1</property>
  <property name="vstream">0</property>
  <property name="astream">0</property>
  <property name="kdenlive:folderid">5</property>
  <property name="kdenlive:id">14</property>
  <property name="kdenlive:control_uuid">{93e86435-4609-41f8-acc6-be87cdccf41b}</property>
  <property name="mute_on_pause">0</property>
  <property name="kdenlive:clip_type">0</property>
  <property name="kdenlive:coverartstream">1</property>
  <property name="kdenlive:file_size">6797335</property>
  <property name="kdenlive:file_hash">89c39d837ae5299f73020f770ce7b7b7</property>
  <property name="meta.media.nb_streams">2</property>
  <property name="meta.media.0.stream.type">audio</property>
  <property name="meta.media.0.codec.sample_fmt">fltp</property>
  <property name="meta.media.0.codec.sample_rate">44100</property>
  <property name="meta.media.0.codec.channels">2</property>
  <property name="meta.media.0.codec.layout">stereo</property>
  <property name="meta.media.0.codec.name">mp3float</property>
  <property name="meta.media.0.codec.long_name">MP3 (MPEG audio layer 3)</property>
  <property name="meta.media.0.codec.bit_rate">218271</property>
  <property name="meta.attr.0.stream.encoder.markup">LAME3.100</property>
  <property name="meta.media.1.stream.type">video</property>
  <property name="meta.media.1.stream.frame_rate">90000</property>
  <property name="meta.media.1.stream.sample_aspect_ratio">0</property>
  <property name="meta.media.1.codec.width">700</property>
  <property name="meta.media.1.codec.height">700</property>
  <property name="meta.media.1.codec.rotate">0</property>
  <property name="meta.media.1.codec.pix_fmt">yuvj444p</property>
  <property name="meta.media.1.codec.sample_aspect_ratio">0</property>
  <property name="meta.media.1.codec.colorspace">601</property>
  <property name="meta.media.1.codec.name">mjpeg</property>
  <property name="meta.media.1.codec.long_name">MJPEG (Motion JPEG)</property>
  <property name="meta.media.1.codec.bit_rate">0</property>
  <property name="meta.attr.1.stream.comment.markup">Cover (front)</property>
  <property name="meta.attr.album.markup">ocremix.org</property>
  <property name="meta.attr.artist.markup">RebeccaETripp</property>
  <property name="meta.attr.album_artist.markup">OverClocked ReMix</property>
  <property name="meta.attr.comment.markup">This was my attempt to encapsulate the spiritual essence of the Final Fantasy series. I was going for a sort of mystical/reverent feeling. There are many versions of the FF prelude out there already, so it was difficult to find a new take on it in one sense. However, nobody had composed an arrangement of this main theme that emphasized the spiritual essence of the ever-prominent crystals in quite the same way -- so I used that to guide me: a feeling that this particular facet of the crystal had somehow been, for the most part, unnoticed.&#xd;
&#xd;
This is sort of how I've been wanting to hear the song all along, emphasizing the more ethereal aspects of the games, as opposed to making the theme more grandiose or, adversely, tame and relaxing. In my mind, this could be a version of the tune that might play inside a temple in some kind of ancient magical village guarding an elemental crystal shard, such as Cleyra or Mysidia.&#xd;
&#xd;
I used 3 harps, harpsichord, VSTs of a full choir, a soprano soloist, and a young boy soloist in this track, along with some temple bells and some mystical/spacey-sounding synths. I was sort of trying to combine the medieval aesthetic of most of the older games with the new-agey depth I have come to associate with the various alien and otherworldly races in FF, such as the Lunarians who are very knowledgeable and detached as compared with the protagonists.&#xd;
&#xd;
Rebecca E. Tripp&#xd;
https://youtube.com/rebeccaetripp</property>
  <property name="meta.attr.composer.markup">Nobuo Uematsu</property>
  <property name="meta.attr.grouping.markup">Final Fantasy IV</property>
  <property name="meta.attr.copyright.markup">Square</property>
  <property name="meta.attr.encoded_by.markup">Rebecca E. Tripp</property>
  <property name="meta.attr.genre.markup">Game</property>
  <property name="meta.attr.compilation.markup">1</property>
  <property name="meta.attr.TOPE.markup">SNES</property>
  <property name="meta.attr.publisher.markup">OverClocked ReMix</property>
  <property name="meta.attr.setsubtitle.markup">OCR03621</property>
  <property name="meta.attr.TIT3.markup">Hymn to the Crystals</property>
  <property name="meta.attr.title.markup">Final Fantasy IV "Hymn to the Crystals" OC ReMix</property>
  <property name="meta.attr.track.markup">3621</property>
  <property name="meta.attr.date.markup">2017</property>
  <property name="meta.media.sample_aspect_num">1</property>
  <property name="meta.media.sample_aspect_den">1</property>
  <property name="meta.media.frame_rate_num">90000</property>
  <property name="meta.media.frame_rate_den">1</property>
  <property name="meta.media.colorspace">601</property>
  <property name="meta.media.color_trc">2</property>
  <property name="meta.media.has_b_frames">0</property>
  <property name="meta.media.width">700</property>
  <property name="meta.media.height">700</property>
  <property name="meta.media.aspect_ratio">1</property>
  <property name="meta.media.color_range">full</property>
  <property name="xml">was here</property>
  <property name="meta.media.top_field_first">0</property>
  <property name="meta.media.progressive">1</property>
  <property name="set.test_audio">0</property>
  <property name="set.test_image">1</property>
 </chain>
 <playlist id="playlist6">
  <property name="kdenlive:audio_track">1</property>
  <entry in="00:00:00.000" out="00:00:36.411" producer="chain3">
   <property name="kdenlive:id">4</property>
  </entry>
  <entry in="00:00:36.453" out="00:08:42.209" producer="chain3">
   <property name="kdenlive:id">4</property>
  </entry>
  <entry in="00:08:42.251" out="00:08:54.721" producer="chain3">
   <property name="kdenlive:id">4</property>
  </entry>
  <entry in="00:08:54.763" out="00:09:40.332" producer="chain3">
   <property name="kdenlive:id">4</property>
  </entry>
  <entry in="00:09:40.374" out="00:09:42.209" producer="chain3">
   <property name="kdenlive:id">4</property>
  </entry>
  <entry in="00:09:42.251" out="00:09:42.542" producer="chain3">
   <property name="kdenlive:id">4</property>
  </entry>
  <entry in="00:09:42.584" out="00:09:47.047" producer="chain3">
   <property name="kdenlive:id">4</property>
  </entry>
  <entry in="00:09:47.089" out="00:09:49.800" producer="chain3">
   <property name="kdenlive:id">4</property>
  </entry>
  <entry in="00:09:49.841" out="00:09:52.094" producer="chain3">
   <property name="kdenlive:id">4</property>
  </entry>
  <entry in="00:09:52.135" out="00:11:27.236" producer="chain3">
   <property name="kdenlive:id">4</property>
  </entry>
  <entry in="00:11:27.277" out="00:12:16.225" producer="chain3">
   <property name="kdenlive:id">4</property>
  </entry>
  <entry in="00:12:16.266" out="00:13:16.975" producer="chain3">
   <property name="kdenlive:id">4</property>
  </entry>
  <entry in="00:13:17.017" out="00:13:37.120" producer="chain3">
   <property name="kdenlive:id">4</property>
  </entry>
  <entry in="00:13:37.162" out="00:13:52.135" producer="chain3">
   <property name="kdenlive:id">4</property>
  </entry>
  <entry in="00:13:52.177" out="00:13:57.766" producer="chain3">
   <property name="kdenlive:id">4</property>
  </entry>
  <entry in="00:13:57.808" out="00:14:11.637" producer="chain3">
   <property name="kdenlive:id">4</property>
  </entry>
  <entry in="00:14:11.678" out="00:14:19.353" producer="chain3">
   <property name="kdenlive:id">4</property>
  </entry>
  <entry in="00:14:19.394" out="00:17:18.477" producer="chain3">
   <property name="kdenlive:id">4</property>
  </entry>
  <entry in="00:17:18.518" out="00:17:28.362" producer="chain3">
   <property name="kdenlive:id">4</property>
  </entry>
  <entry in="00:17:28.403" out="00:19:47.714" producer="chain3">
   <property name="kdenlive:id">4</property>
  </entry>
  <entry in="00:19:47.756" out="00:20:11.011" producer="chain3">
   <property name="kdenlive:id">4</property>
  </entry>
  <entry in="00:20:11.053" out="00:21:04.713" producer="chain3">
   <property name="kdenlive:id">4</property>
  </entry>
  <entry in="00:21:04.755" out="00:21:11.845" producer="chain3">
   <property name="kdenlive:id">4</property>
  </entry>
  <entry in="00:21:11.887" out="00:23:40.123" producer="chain3">
   <property name="kdenlive:id">4</property>
  </entry>
  <entry in="00:23:40.165" out="00:23:50.092" producer="chain3">
   <property name="kdenlive:id">4</property>
  </entry>
  <entry in="00:23:50.133" out="00:25:19.853" producer="chain3">
   <property name="kdenlive:id">4</property>
  </entry>
  <entry in="00:25:19.895" out="00:25:24.316" producer="chain3">
   <property name="kdenlive:id">4</property>
  </entry>
  <entry in="00:25:24.358" out="00:26:31.782" producer="chain3">
   <property name="kdenlive:id">4</property>
  </entry>
  <entry in="00:26:31.823" out="00:26:42.960" producer="chain3">
   <property name="kdenlive:id">4</property>
  </entry>
  <entry in="00:26:43.001" out="00:26:53.220" producer="chain3">
   <property name="kdenlive:id">4</property>
  </entry>
  <entry in="00:26:53.262" out="00:27:08.926" producer="chain3">
   <property name="kdenlive:id">4</property>
  </entry>
  <entry in="00:27:08.967" out="00:27:19.353" producer="chain3">
   <property name="kdenlive:id">4</property>
  </entry>
  <entry in="00:27:19.394" out="00:27:35.869" producer="chain3">
   <property name="kdenlive:id">4</property>
  </entry>
  <entry in="00:27:35.911" out="00:27:40.040" producer="chain3">
   <property name="kdenlive:id">4</property>
  </entry>
  <entry in="00:27:40.082" out="00:30:38.997" producer="chain3">
   <property name="kdenlive:id">4</property>
  </entry>
  <entry in="00:30:39.039" out="00:32:06.173" producer="chain3">
   <property name="kdenlive:id">4</property>
  </entry>
  <entry in="00:32:06.215" out="00:32:14.681" producer="chain3">
   <property name="kdenlive:id">4</property>
  </entry>
  <entry in="00:32:14.723" out="00:51:03.879" producer="chain3">
   <property name="kdenlive:id">4</property>
  </entry>
  <entry in="00:51:03.921" out="00:51:12.846" producer="chain3">
   <property name="kdenlive:id">4</property>
  </entry>
  <entry in="00:51:12.888" out="00:51:21.146" producer="chain3">
   <property name="kdenlive:id">4</property>
  </entry>
  <entry in="00:51:21.188" out="00:51:36.119" producer="chain3">
   <property name="kdenlive:id">4</property>
  </entry>
  <entry in="00:51:36.161" out="00:52:15.057" producer="chain3">
   <property name="kdenlive:id">4</property>
  </entry>
  <entry in="00:52:15.098" out="00:52:19.519" producer="chain3">
   <property name="kdenlive:id">4</property>
  </entry>
  <entry in="00:52:19.561" out="00:54:34.409" producer="chain3">
   <property name="kdenlive:id">4</property>
  </entry>
  <entry in="00:54:34.451" out="00:54:46.338" producer="chain3">
   <property name="kdenlive:id">4</property>
  </entry>
  <entry in="00:54:46.380" out="00:54:50.217" producer="chain3">
   <property name="kdenlive:id">4</property>
  </entry>
  <entry in="00:54:50.259" out="00:55:02.920" producer="chain3">
   <property name="kdenlive:id">4</property>
  </entry>
  <entry in="00:55:02.961" out="00:58:43.335" producer="chain3">
   <property name="kdenlive:id">4</property>
  </entry>
  <entry in="00:58:43.377" out="00:58:45.212" producer="chain3">
   <property name="kdenlive:id">4</property>
  </entry>
  <entry in="00:58:45.254" out="00:58:46.046" producer="chain3">
   <property name="kdenlive:id">4</property>
  </entry>
  <entry in="00:58:46.088" out="00:58:47.339" producer="chain3">
   <property name="kdenlive:id">4</property>
  </entry>
  <entry in="00:58:47.381" out="00:59:05.297" producer="chain3">
   <property name="kdenlive:id">4</property>
  </entry>
  <entry in="00:59:05.339" out="00:59:05.964" producer="chain3">
   <property name="kdenlive:id">4</property>
  </entry>
  <entry in="00:59:06.006" out="00:59:07.299" producer="chain3">
   <property name="kdenlive:id">4</property>
  </entry>
  <entry in="00:59:07.341" out="01:01:30.822" producer="chain3">
   <property name="kdenlive:id">4</property>
  </entry>
  <entry in="01:01:30.864" out="01:01:43.502" producer="chain3">
   <property name="kdenlive:id">4</property>
  </entry>
  <entry in="01:01:43.543" out="01:03:21.563" producer="chain3">
   <property name="kdenlive:id">4</property>
  </entry>
  <entry in="01:03:21.605" out="01:03:28.737" producer="chain3">
   <property name="kdenlive:id">4</property>
  </entry>
  <entry in="01:03:28.779" out="01:03:56.014" producer="chain3">
   <property name="kdenlive:id">4</property>
  </entry>
  <entry in="01:03:56.056" out="01:04:16.308" producer="chain3">
   <property name="kdenlive:id">4</property>
  </entry>
  <entry in="01:04:16.350" out="01:08:25.692" producer="chain3">
   <property name="kdenlive:id">4</property>
  </entry>
  <entry in="01:08:25.734" out="01:08:42.167" producer="chain3">
   <property name="kdenlive:id">4</property>
  </entry>
  <entry in="01:08:42.209" out="01:11:26.235" producer="chain3">
   <property name="kdenlive:id">4</property>
  </entry>
  <entry in="01:11:26.276" out="01:12:19.770" producer="chain3">
   <property name="kdenlive:id">4</property>
  </entry>
  <entry in="01:12:19.811" out="01:14:44.503" producer="chain3">
   <property name="kdenlive:id">4</property>
  </entry>
  <entry in="01:14:44.544" out="01:15:06.715" producer="chain3">
   <property name="kdenlive:id">4</property>
  </entry>
  <entry in="01:15:06.757" out="01:24:13.555" producer="chain3">
   <property name="kdenlive:id">4</property>
  </entry>
  <entry in="01:24:13.597" out="01:24:21.021" producer="chain3">
   <property name="kdenlive:id">4</property>
  </entry>
  <entry in="01:24:21.063" out="01:28:40.916" producer="chain3">
   <property name="kdenlive:id">4</property>
  </entry>
  <entry in="01:28:40.958" out="01:28:52.511" producer="chain3">
   <property name="kdenlive:id">4</property>
  </entry>
  <entry in="01:28:52.552" out="01:29:10.969" producer="chain3">
   <property name="kdenlive:id">4</property>
  </entry>
  <entry in="01:29:11.011" out="01:29:18.518" producer="chain3">
   <property name="kdenlive:id">4</property>
  </entry>
  <entry in="01:29:18.560" out="01:29:28.904" producer="chain3">
   <property name="kdenlive:id">4</property>
  </entry>
  <entry in="01:29:28.946" out="01:29:30.572" producer="chain3">
   <property name="kdenlive:id">4</property>
  </entry>
  <entry in="01:29:30.614" out="01:29:39.206" producer="chain3">
   <property name="kdenlive:id">4</property>
  </entry>
  <entry in="01:29:39.248" out="01:30:28.487" producer="chain3">
   <property name="kdenlive:id">4</property>
  </entry>
  <entry in="01:30:28.528" out="01:30:35.285" producer="chain3">
   <property name="kdenlive:id">4</property>
  </entry>
  <entry in="01:30:35.327" out="01:32:48.674" producer="chain3">
   <property name="kdenlive:id">4</property>
  </entry>
  <entry in="01:32:48.715" out="01:33:14.014" producer="chain3">
   <property name="kdenlive:id">4</property>
  </entry>
  <entry in="01:33:14.056" out="01:33:37.120" producer="chain3">
   <property name="kdenlive:id">4</property>
  </entry>
  <entry in="01:33:37.162" out="01:33:50.592" producer="chain3">
   <property name="kdenlive:id">4</property>
  </entry>
  <entry in="01:33:50.634" out="01:34:00.417" producer="chain3">
   <property name="kdenlive:id">4</property>
  </entry>
  <entry in="01:34:00.459" out="01:34:10.636" producer="chain3">
   <property name="kdenlive:id">4</property>
  </entry>
  <entry in="01:34:10.677" out="01:34:19.102" producer="chain3">
   <property name="kdenlive:id">4</property>
  </entry>
  <entry in="01:34:19.144" out="01:34:22.272" producer="chain3">
   <property name="kdenlive:id">4</property>
  </entry>
  <entry in="01:34:22.314" out="01:34:23.607" producer="chain3">
   <property name="kdenlive:id">4</property>
  </entry>
  <entry in="01:34:23.649" out="01:37:13.513" producer="chain3">
   <property name="kdenlive:id">4</property>
  </entry>
  <entry in="01:37:13.555" out="01:37:20.187" producer="chain3">
   <property name="kdenlive:id">4</property>
  </entry>
  <entry in="01:37:20.229" out="01:42:14.348" producer="chain3">
   <property name="kdenlive:id">4</property>
  </entry>
  <entry in="00:00:08.258" out="00:03:52.261" producer="chain7">
   <property name="kdenlive:id">14</property>
   <filter id="filter28" in="00:00:08.258" out="00:00:30.906">
    <property name="window">75</property>
    <property name="max_gain">20dB</property>
    <property name="mlt_service">volume</property>
    <property name="kdenlive_id">fadein</property>
    <property name="gain">0</property>
    <property name="end">1</property>
    <property name="kdenlive:collapsed">0</property>
   </filter>
   <filter id="filter31" in="00:03:37.412" out="00:03:52.261">
    <property name="window">75</property>
    <property name="max_gain">20dB</property>
    <property name="mlt_service">volume</property>
    <property name="kdenlive_id">fadeout</property>
    <property name="gain">1</property>
    <property name="end">0</property>
    <property name="kdenlive:collapsed">0</property>
   </filter>
   <filter id="filter32">
    <property name="window">75</property>
    <property name="max_gain">20dB</property>
    <property name="level">00:00:08.258=-6</property>
    <property name="mlt_service">volume</property>
    <property name="kdenlive_id">volume</property>
    <property name="kdenlive:collapsed">0</property>
   </filter>
  </entry>
 </playlist>
 <playlist id="playlist7">
  <property name="kdenlive:audio_track">1</property>
 </playlist>
 <tractor id="tractor3" in="00:00:00.000" out="01:45:58.350">
  <property name="kdenlive:audio_track">1</property>
  <property name="kdenlive:trackheight">84</property>
  <property name="kdenlive:timeline_active">1</property>
  <property name="kdenlive:collapsed">0</property>
  <property name="kdenlive:thumbs_format"/>
  <property name="kdenlive:audio_rec"/>
  <track hide="video" producer="playlist6"/>
  <track hide="video" producer="playlist7"/>
  <filter id="filter33">
   <property name="window">75</property>
   <property name="max_gain">20dB</property>
   <property name="mlt_service">volume</property>
   <property name="internal_added">237</property>
   <property name="disable">1</property>
  </filter>
  <filter id="filter34">
   <property name="channel">-1</property>
   <property name="mlt_service">panner</property>
   <property name="internal_added">237</property>
   <property name="start">0.5</property>
   <property name="disable">1</property>
  </filter>
  <filter id="filter35">
   <property name="iec_scale">0</property>
   <property name="mlt_service">audiolevel</property>
   <property name="dbpeak">1</property>
   <property name="disable">1</property>
  </filter>
 </tractor>
 <chain id="chain16" out="01:45:58.350">
  <property name="length">152448</property>
  <property name="eof">pause</property>
  <property name="resource">N:/Videos/Horror and SciFi/Final Fantasy/Final.Fantasy.The.Spirits.Within.2001.1080p.BluRay.HEVC.DTS-LiNUX/Final.Fantasy.The.Spirits.Within.2001.1080p.BluRay.HEVC.DTS-LiNUX.mkv</property>
  <property name="mlt_service">avformat-novalidate</property>
  <property name="seekable">1</property>
  <property name="audio_index">1</property>
  <property name="video_index">0</property>
  <property name="vstream">0</property>
  <property name="astream">0</property>
  <property name="kdenlive:control_uuid">{193136b1-969a-4943-bfcd-55058a6808f2}</property>
  <property name="kdenlive:id">4</property>
  <property name="kdenlive:clip_type">0</property>
  <property name="kdenlive:file_size">5331297763</property>
  <property name="kdenlive:file_hash">691e768d68c55b9a28cb9a278fdc8b17</property>
  <property name="kdenlive:folderid">-1</property>
  <property name="meta.media.nb_streams">37</property>
  <property name="meta.media.0.stream.type">video</property>
  <property name="meta.media.0.stream.frame_rate">23.976</property>
  <property name="meta.media.0.stream.sample_aspect_ratio">1</property>
  <property name="meta.media.0.codec.width">1916</property>
  <property name="meta.media.0.codec.height">1036</property>
  <property name="meta.media.0.codec.rotate">0</property>
  <property name="meta.media.0.codec.pix_fmt">yuv420p10le</property>
  <property name="meta.media.0.codec.sample_aspect_ratio">1</property>
  <property name="meta.media.0.codec.colorspace">709</property>
  <property name="meta.media.0.codec.color_trc">1</property>
  <property name="meta.media.0.codec.name">hevc</property>
  <property name="meta.media.0.codec.long_name">HEVC (High Efficiency Video Coding)</property>
  <property name="meta.media.0.codec.bit_rate">0</property>
  <property name="meta.attr.0.stream.BPS-eng.markup">4999776</property>
  <property name="meta.attr.0.stream.DURATION-eng.markup">01:45:58.352000000</property>
  <property name="meta.attr.0.stream.NUMBER_OF_FRAMES-eng.markup">152448</property>
  <property name="meta.attr.0.stream.NUMBER_OF_BYTES-eng.markup">3973792365</property>
  <property name="meta.attr.0.stream._STATISTICS_WRITING_APP-eng.markup">mkvmerge v40.0.0 ('Old Town Road + Pony') 64-bit</property>
  <property name="meta.attr.0.stream._STATISTICS_WRITING_DATE_UTC-eng.markup">2019-12-29 15:49:45</property>
  <property name="meta.attr.0.stream._STATISTICS_TAGS-eng.markup">BPS DURATION NUMBER_OF_FRAMES NUMBER_OF_BYTES</property>
  <property name="meta.media.1.stream.type">audio</property>
  <property name="meta.media.1.codec.sample_fmt">fltp</property>
  <property name="meta.media.1.codec.sample_rate">48000</property>
  <property name="meta.media.1.codec.channels">6</property>
  <property name="meta.media.1.codec.layout">5.1(side)</property>
  <property name="meta.media.1.codec.name">dca</property>
  <property name="meta.media.1.codec.long_name">DCA (DTS Coherent Acoustics)</property>
  <property name="meta.media.1.codec.bit_rate">1411200</property>
  <property name="meta.attr.1.stream.language.markup">eng</property>
  <property name="meta.attr.1.stream.title.markup">Surround</property>
  <property name="meta.attr.1.stream.BPS-eng.markup">1412999</property>
  <property name="meta.attr.1.stream.DURATION-eng.markup">01:45:58.358000000</property>
  <property name="meta.attr.1.stream.NUMBER_OF_FRAMES-eng.markup">596096</property>
  <property name="meta.attr.1.stream.NUMBER_OF_BYTES-eng.markup">1123044864</property>
  <property name="meta.attr.1.stream._STATISTICS_WRITING_APP-eng.markup">mkvmerge v40.0.0 ('Old Town Road + Pony') 64-bit</property>
  <property name="meta.attr.1.stream._STATISTICS_WRITING_DATE_UTC-eng.markup">2019-12-29 15:49:45</property>
  <property name="meta.attr.1.stream._STATISTICS_TAGS-eng.markup">BPS DURATION NUMBER_OF_FRAMES NUMBER_OF_BYTES</property>
  <property name="meta.media.2.codec.name">pgssub</property>
  <property name="meta.media.2.codec.long_name">HDMV Presentation Graphic Stream subtitles</property>
  <property name="meta.media.2.codec.bit_rate">0</property>
  <property name="meta.attr.2.stream.language.markup">eng</property>
  <property name="meta.attr.2.stream.title.markup">English</property>
  <property name="meta.attr.2.stream.BPS-eng.markup">24594</property>
  <property name="meta.attr.2.stream.DURATION-eng.markup">01:33:45.954000000</property>
  <property name="meta.attr.2.stream.NUMBER_OF_FRAMES-eng.markup">1686</property>
  <property name="meta.attr.2.stream.NUMBER_OF_BYTES-eng.markup">17296140</property>
  <property name="meta.attr.2.stream._STATISTICS_WRITING_APP-eng.markup">mkvmerge v40.0.0 ('Old Town Road + Pony') 64-bit</property>
  <property name="meta.attr.2.stream._STATISTICS_WRITING_DATE_UTC-eng.markup">2019-12-29 15:49:45</property>
  <property name="meta.attr.2.stream._STATISTICS_TAGS-eng.markup">BPS DURATION NUMBER_OF_FRAMES NUMBER_OF_BYTES</property>
  <property name="meta.media.3.codec.name">pgssub</property>
  <property name="meta.media.3.codec.long_name">HDMV Presentation Graphic Stream subtitles</property>
  <property name="meta.media.3.codec.bit_rate">0</property>
  <property name="meta.attr.3.stream.language.markup">eng</property>
  <property name="meta.attr.3.stream.title.markup">English SDH</property>
  <property name="meta.attr.3.stream.BPS-eng.markup">32739</property>
  <property name="meta.attr.3.stream.DURATION-eng.markup">01:41:48.102000000</property>
  <property name="meta.attr.3.stream.NUMBER_OF_FRAMES-eng.markup">2103</property>
  <property name="meta.attr.3.stream.NUMBER_OF_BYTES-eng.markup">24997093</property>
  <property name="meta.attr.3.stream._STATISTICS_WRITING_APP-eng.markup">mkvmerge v40.0.0 ('Old Town Road + Pony') 64-bit</property>
  <property name="meta.attr.3.stream._STATISTICS_WRITING_DATE_UTC-eng.markup">2019-12-29 15:49:45</property>
  <property name="meta.attr.3.stream._STATISTICS_TAGS-eng.markup">BPS DURATION NUMBER_OF_FRAMES NUMBER_OF_BYTES</property>
  <property name="meta.media.4.codec.name">pgssub</property>
  <property name="meta.media.4.codec.long_name">HDMV Presentation Graphic Stream subtitles</property>
  <property name="meta.media.4.codec.bit_rate">0</property>
  <property name="meta.attr.4.stream.language.markup">ara</property>
  <property name="meta.attr.4.stream.title.markup">Arabic</property>
  <property name="meta.attr.4.stream.BPS-eng.markup">13581</property>
  <property name="meta.attr.4.stream.DURATION-eng.markup">01:33:59.217000000</property>
  <property name="meta.attr.4.stream.NUMBER_OF_FRAMES-eng.markup">1690</property>
  <property name="meta.attr.4.stream.NUMBER_OF_BYTES-eng.markup">9573918</property>
  <property name="meta.attr.4.stream._STATISTICS_WRITING_APP-eng.markup">mkvmerge v40.0.0 ('Old Town Road + Pony') 64-bit</property>
  <property name="meta.attr.4.stream._STATISTICS_WRITING_DATE_UTC-eng.markup">2019-12-29 15:49:45</property>
  <property name="meta.attr.4.stream._STATISTICS_TAGS-eng.markup">BPS DURATION NUMBER_OF_FRAMES NUMBER_OF_BYTES</property>
  <property name="meta.media.5.codec.name">pgssub</property>
  <property name="meta.media.5.codec.long_name">HDMV Presentation Graphic Stream subtitles</property>
  <property name="meta.media.5.codec.bit_rate">0</property>
  <property name="meta.attr.5.stream.language.markup">bul</property>
  <property name="meta.attr.5.stream.title.markup">Bulgarian</property>
  <property name="meta.attr.5.stream.BPS-eng.markup">23121</property>
  <property name="meta.attr.5.stream.DURATION-eng.markup">01:35:32.310000000</property>
  <property name="meta.attr.5.stream.NUMBER_OF_FRAMES-eng.markup">1656</property>
  <property name="meta.attr.5.stream.NUMBER_OF_BYTES-eng.markup">16567112</property>
  <property name="meta.attr.5.stream._STATISTICS_WRITING_APP-eng.markup">mkvmerge v40.0.0 ('Old Town Road + Pony') 64-bit</property>
  <property name="meta.attr.5.stream._STATISTICS_WRITING_DATE_UTC-eng.markup">2019-12-29 15:49:45</property>
  <property name="meta.attr.5.stream._STATISTICS_TAGS-eng.markup">BPS DURATION NUMBER_OF_FRAMES NUMBER_OF_BYTES</property>
  <property name="meta.media.6.codec.name">pgssub</property>
  <property name="meta.media.6.codec.long_name">HDMV Presentation Graphic Stream subtitles</property>
  <property name="meta.media.6.codec.bit_rate">0</property>
  <property name="meta.attr.6.stream.language.markup">chi</property>
  <property name="meta.attr.6.stream.title.markup">Cantonese</property>
  <property name="meta.attr.6.stream.BPS-eng.markup">19607</property>
  <property name="meta.attr.6.stream.DURATION-eng.markup">01:42:59.006000000</property>
  <property name="meta.attr.6.stream.NUMBER_OF_FRAMES-eng.markup">1709</property>
  <property name="meta.attr.6.stream.NUMBER_OF_BYTES-eng.markup">15144515</property>
  <property name="meta.attr.6.stream._STATISTICS_WRITING_APP-eng.markup">mkvmerge v40.0.0 ('Old Town Road + Pony') 64-bit</property>
  <property name="meta.attr.6.stream._STATISTICS_WRITING_DATE_UTC-eng.markup">2019-12-29 15:49:45</property>
  <property name="meta.attr.6.stream._STATISTICS_TAGS-eng.markup">BPS DURATION NUMBER_OF_FRAMES NUMBER_OF_BYTES</property>
  <property name="meta.media.7.codec.name">pgssub</property>
  <property name="meta.media.7.codec.long_name">HDMV Presentation Graphic Stream subtitles</property>
  <property name="meta.media.7.codec.bit_rate">0</property>
  <property name="meta.attr.7.stream.language.markup">chi</property>
  <property name="meta.attr.7.stream.title.markup">Mandarin</property>
  <property name="meta.attr.7.stream.BPS-eng.markup">21248</property>
  <property name="meta.attr.7.stream.DURATION-eng.markup">01:33:59.258000000</property>
  <property name="meta.attr.7.stream.NUMBER_OF_FRAMES-eng.markup">1704</property>
  <property name="meta.attr.7.stream.NUMBER_OF_BYTES-eng.markup">14978356</property>
  <property name="meta.attr.7.stream._STATISTICS_WRITING_APP-eng.markup">mkvmerge v40.0.0 ('Old Town Road + Pony') 64-bit</property>
  <property name="meta.attr.7.stream._STATISTICS_WRITING_DATE_UTC-eng.markup">2019-12-29 15:49:45</property>
  <property name="meta.attr.7.stream._STATISTICS_TAGS-eng.markup">BPS DURATION NUMBER_OF_FRAMES NUMBER_OF_BYTES</property>
  <property name="meta.media.8.codec.name">pgssub</property>
  <property name="meta.media.8.codec.long_name">HDMV Presentation Graphic Stream subtitles</property>
  <property name="meta.media.8.codec.bit_rate">0</property>
  <property name="meta.attr.8.stream.language.markup">hrv</property>
  <property name="meta.attr.8.stream.title.markup">Croatian</property>
  <property name="meta.attr.8.stream.BPS-eng.markup">18941</property>
  <property name="meta.attr.8.stream.DURATION-eng.markup">01:33:59.383000000</property>
  <property name="meta.attr.8.stream.NUMBER_OF_FRAMES-eng.markup">1355</property>
  <property name="meta.attr.8.stream.NUMBER_OF_BYTES-eng.markup">13352216</property>
  <property name="meta.attr.8.stream._STATISTICS_WRITING_APP-eng.markup">mkvmerge v40.0.0 ('Old Town Road + Pony') 64-bit</property>
  <property name="meta.attr.8.stream._STATISTICS_WRITING_DATE_UTC-eng.markup">2019-12-29 15:49:45</property>
  <property name="meta.attr.8.stream._STATISTICS_TAGS-eng.markup">BPS DURATION NUMBER_OF_FRAMES NUMBER_OF_BYTES</property>
  <property name="meta.media.9.codec.name">pgssub</property>
  <property name="meta.media.9.codec.long_name">HDMV Presentation Graphic Stream subtitles</property>
  <property name="meta.media.9.codec.bit_rate">0</property>
  <property name="meta.attr.9.stream.language.markup">cze</property>
  <property name="meta.attr.9.stream.title.markup">Czech</property>
  <property name="meta.attr.9.stream.BPS-eng.markup">21071</property>
  <property name="meta.attr.9.stream.DURATION-eng.markup">01:33:59.300000000</property>
  <property name="meta.attr.9.stream.NUMBER_OF_FRAMES-eng.markup">1688</property>
  <property name="meta.attr.9.stream.NUMBER_OF_BYTES-eng.markup">14853464</property>
  <property name="meta.attr.9.stream._STATISTICS_WRITING_APP-eng.markup">mkvmerge v40.0.0 ('Old Town Road + Pony') 64-bit</property>
  <property name="meta.attr.9.stream._STATISTICS_WRITING_DATE_UTC-eng.markup">2019-12-29 15:49:45</property>
  <property name="meta.attr.9.stream._STATISTICS_TAGS-eng.markup">BPS DURATION NUMBER_OF_FRAMES NUMBER_OF_BYTES</property>
  <property name="meta.media.10.codec.name">pgssub</property>
  <property name="meta.media.10.codec.long_name">HDMV Presentation Graphic Stream subtitles</property>
  <property name="meta.media.10.codec.bit_rate">0</property>
  <property name="meta.attr.10.stream.language.markup">dan</property>
  <property name="meta.attr.10.stream.title.markup">Danish</property>
  <property name="meta.attr.10.stream.BPS-eng.markup">20546</property>
  <property name="meta.attr.10.stream.DURATION-eng.markup">01:33:59.717000000</property>
  <property name="meta.attr.10.stream.NUMBER_OF_FRAMES-eng.markup">1184</property>
  <property name="meta.attr.10.stream.NUMBER_OF_BYTES-eng.markup">14484283</property>
  <property name="meta.attr.10.stream._STATISTICS_WRITING_APP-eng.markup">mkvmerge v40.0.0 ('Old Town Road + Pony') 64-bit</property>
  <property name="meta.attr.10.stream._STATISTICS_WRITING_DATE_UTC-eng.markup">2019-12-29 15:49:45</property>
  <property name="meta.attr.10.stream._STATISTICS_TAGS-eng.markup">BPS DURATION NUMBER_OF_FRAMES NUMBER_OF_BYTES</property>
  <property name="meta.media.11.codec.name">pgssub</property>
  <property name="meta.media.11.codec.long_name">HDMV Presentation Graphic Stream subtitles</property>
  <property name="meta.media.11.codec.bit_rate">0</property>
  <property name="meta.attr.11.stream.language.markup">dut</property>
  <property name="meta.attr.11.stream.title.markup">Dutch</property>
  <property name="meta.attr.11.stream.BPS-eng.markup">23897</property>
  <property name="meta.attr.11.stream.DURATION-eng.markup">01:33:59.675000000</property>
  <property name="meta.attr.11.stream.NUMBER_OF_FRAMES-eng.markup">1258</property>
  <property name="meta.attr.11.stream.NUMBER_OF_BYTES-eng.markup">16846710</property>
  <property name="meta.attr.11.stream._STATISTICS_WRITING_APP-eng.markup">mkvmerge v40.0.0 ('Old Town Road + Pony') 64-bit</property>
  <property name="meta.attr.11.stream._STATISTICS_WRITING_DATE_UTC-eng.markup">2019-12-29 15:49:45</property>
  <property name="meta.attr.11.stream._STATISTICS_TAGS-eng.markup">BPS DURATION NUMBER_OF_FRAMES NUMBER_OF_BYTES</property>
  <property name="meta.media.12.codec.name">pgssub</property>
  <property name="meta.media.12.codec.long_name">HDMV Presentation Graphic Stream subtitles</property>
  <property name="meta.media.12.codec.bit_rate">0</property>
  <property name="meta.attr.12.stream.language.markup">fin</property>
  <property name="meta.attr.12.stream.title.markup">Finnish</property>
  <property name="meta.attr.12.stream.BPS-eng.markup">20857</property>
  <property name="meta.attr.12.stream.DURATION-eng.markup">01:34:00.718000000</property>
  <property name="meta.attr.12.stream.NUMBER_OF_FRAMES-eng.markup">1209</property>
  <property name="meta.attr.12.stream.NUMBER_OF_BYTES-eng.markup">14706553</property>
  <property name="meta.attr.12.stream._STATISTICS_WRITING_APP-eng.markup">mkvmerge v40.0.0 ('Old Town Road + Pony') 64-bit</property>
  <property name="meta.attr.12.stream._STATISTICS_WRITING_DATE_UTC-eng.markup">2019-12-29 15:49:45</property>
  <property name="meta.attr.12.stream._STATISTICS_TAGS-eng.markup">BPS DURATION NUMBER_OF_FRAMES NUMBER_OF_BYTES</property>
  <property name="meta.media.13.codec.name">pgssub</property>
  <property name="meta.media.13.codec.long_name">HDMV Presentation Graphic Stream subtitles</property>
  <property name="meta.media.13.codec.bit_rate">0</property>
  <property name="meta.attr.13.stream.language.markup">fre</property>
  <property name="meta.attr.13.stream.title.markup">French</property>
  <property name="meta.attr.13.stream.BPS-eng.markup">21198</property>
  <property name="meta.attr.13.stream.DURATION-eng.markup">01:43:41.006000000</property>
  <property name="meta.attr.13.stream.NUMBER_OF_FRAMES-eng.markup">1642</property>
  <property name="meta.attr.13.stream.NUMBER_OF_BYTES-eng.markup">16484862</property>
  <property name="meta.attr.13.stream._STATISTICS_WRITING_APP-eng.markup">mkvmerge v40.0.0 ('Old Town Road + Pony') 64-bit</property>
  <property name="meta.attr.13.stream._STATISTICS_WRITING_DATE_UTC-eng.markup">2019-12-29 15:49:45</property>
  <property name="meta.attr.13.stream._STATISTICS_TAGS-eng.markup">BPS DURATION NUMBER_OF_FRAMES NUMBER_OF_BYTES</property>
  <property name="meta.media.14.codec.name">pgssub</property>
  <property name="meta.media.14.codec.long_name">HDMV Presentation Graphic Stream subtitles</property>
  <property name="meta.media.14.codec.bit_rate">0</property>
  <property name="meta.attr.14.stream.language.markup">ger</property>
  <property name="meta.attr.14.stream.title.markup">German</property>
  <property name="meta.attr.14.stream.BPS-eng.markup">24239</property>
  <property name="meta.attr.14.stream.DURATION-eng.markup">01:34:00.260000000</property>
  <property name="meta.attr.14.stream.NUMBER_OF_FRAMES-eng.markup">1493</property>
  <property name="meta.attr.14.stream.NUMBER_OF_BYTES-eng.markup">17089540</property>
  <property name="meta.attr.14.stream._STATISTICS_WRITING_APP-eng.markup">mkvmerge v40.0.0 ('Old Town Road + Pony') 64-bit</property>
  <property name="meta.attr.14.stream._STATISTICS_WRITING_DATE_UTC-eng.markup">2019-12-29 15:49:45</property>
  <property name="meta.attr.14.stream._STATISTICS_TAGS-eng.markup">BPS DURATION NUMBER_OF_FRAMES NUMBER_OF_BYTES</property>
  <property name="meta.media.15.codec.name">pgssub</property>
  <property name="meta.media.15.codec.long_name">HDMV Presentation Graphic Stream subtitles</property>
  <property name="meta.media.15.codec.bit_rate">0</property>
  <property name="meta.attr.15.stream.language.markup">gre</property>
  <property name="meta.attr.15.stream.title.markup">Greek</property>
  <property name="meta.attr.15.stream.BPS-eng.markup">24963</property>
  <property name="meta.attr.15.stream.DURATION-eng.markup">01:33:59.300000000</property>
  <property name="meta.attr.15.stream.NUMBER_OF_FRAMES-eng.markup">1694</property>
  <property name="meta.attr.15.stream.NUMBER_OF_BYTES-eng.markup">17597238</property>
  <property name="meta.attr.15.stream._STATISTICS_WRITING_APP-eng.markup">mkvmerge v40.0.0 ('Old Town Road + Pony') 64-bit</property>
  <property name="meta.attr.15.stream._STATISTICS_WRITING_DATE_UTC-eng.markup">2019-12-29 15:49:45</property>
  <property name="meta.attr.15.stream._STATISTICS_TAGS-eng.markup">BPS DURATION NUMBER_OF_FRAMES NUMBER_OF_BYTES</property>
  <property name="meta.media.16.codec.name">pgssub</property>
  <property name="meta.media.16.codec.long_name">HDMV Presentation Graphic Stream subtitles</property>
  <property name="meta.media.16.codec.bit_rate">0</property>
  <property name="meta.attr.16.stream.language.markup">heb</property>
  <property name="meta.attr.16.stream.title.markup">Hebrew</property>
  <property name="meta.attr.16.stream.BPS-eng.markup">18470</property>
  <property name="meta.attr.16.stream.DURATION-eng.markup">01:33:59.217000000</property>
  <property name="meta.attr.16.stream.NUMBER_OF_FRAMES-eng.markup">1688</property>
  <property name="meta.attr.16.stream.NUMBER_OF_BYTES-eng.markup">13019656</property>
  <property name="meta.attr.16.stream._STATISTICS_WRITING_APP-eng.markup">mkvmerge v40.0.0 ('Old Town Road + Pony') 64-bit</property>
  <property name="meta.attr.16.stream._STATISTICS_WRITING_DATE_UTC-eng.markup">2019-12-29 15:49:45</property>
  <property name="meta.attr.16.stream._STATISTICS_TAGS-eng.markup">BPS DURATION NUMBER_OF_FRAMES NUMBER_OF_BYTES</property>
  <property name="meta.media.17.codec.name">pgssub</property>
  <property name="meta.media.17.codec.long_name">HDMV Presentation Graphic Stream subtitles</property>
  <property name="meta.media.17.codec.bit_rate">0</property>
  <property name="meta.attr.17.stream.language.markup">hin</property>
  <property name="meta.attr.17.stream.title.markup">Hindi</property>
  <property name="meta.attr.17.stream.BPS-eng.markup">21017</property>
  <property name="meta.attr.17.stream.DURATION-eng.markup">01:33:59.300000000</property>
  <property name="meta.attr.17.stream.NUMBER_OF_FRAMES-eng.markup">1690</property>
  <property name="meta.attr.17.stream.NUMBER_OF_BYTES-eng.markup">14815519</property>
  <property name="meta.attr.17.stream._STATISTICS_WRITING_APP-eng.markup">mkvmerge v40.0.0 ('Old Town Road + Pony') 64-bit</property>
  <property name="meta.attr.17.stream._STATISTICS_WRITING_DATE_UTC-eng.markup">2019-12-29 15:49:45</property>
  <property name="meta.attr.17.stream._STATISTICS_TAGS-eng.markup">BPS DURATION NUMBER_OF_FRAMES NUMBER_OF_BYTES</property>
  <property name="meta.media.18.codec.name">pgssub</property>
  <property name="meta.media.18.codec.long_name">HDMV Presentation Graphic Stream subtitles</property>
  <property name="meta.media.18.codec.bit_rate">0</property>
  <property name="meta.attr.18.stream.language.markup">hun</property>
  <property name="meta.attr.18.stream.title.markup">Hungarian</property>
  <property name="meta.attr.18.stream.BPS-eng.markup">19042</property>
  <property name="meta.attr.18.stream.DURATION-eng.markup">01:33:59.175000000</property>
  <property name="meta.attr.18.stream.NUMBER_OF_FRAMES-eng.markup">1690</property>
  <property name="meta.attr.18.stream.NUMBER_OF_BYTES-eng.markup">13423018</property>
  <property name="meta.attr.18.stream._STATISTICS_WRITING_APP-eng.markup">mkvmerge v40.0.0 ('Old Town Road + Pony') 64-bit</property>
  <property name="meta.attr.18.stream._STATISTICS_WRITING_DATE_UTC-eng.markup">2019-12-29 15:49:45</property>
  <property name="meta.attr.18.stream._STATISTICS_TAGS-eng.markup">BPS DURATION NUMBER_OF_FRAMES NUMBER_OF_BYTES</property>
  <property name="meta.media.19.codec.name">pgssub</property>
  <property name="meta.media.19.codec.long_name">HDMV Presentation Graphic Stream subtitles</property>
  <property name="meta.media.19.codec.bit_rate">0</property>
  <property name="meta.attr.19.stream.language.markup">ice</property>
  <property name="meta.attr.19.stream.title.markup">Icelandic</property>
  <property name="meta.attr.19.stream.BPS-eng.markup">23876</property>
  <property name="meta.attr.19.stream.DURATION-eng.markup">01:33:59.217000000</property>
  <property name="meta.attr.19.stream.NUMBER_OF_FRAMES-eng.markup">1688</property>
  <property name="meta.attr.19.stream.NUMBER_OF_BYTES-eng.markup">16830422</property>
  <property name="meta.attr.19.stream._STATISTICS_WRITING_APP-eng.markup">mkvmerge v40.0.0 ('Old Town Road + Pony') 64-bit</property>
  <property name="meta.attr.19.stream._STATISTICS_WRITING_DATE_UTC-eng.markup">2019-12-29 15:49:45</property>
  <property name="meta.attr.19.stream._STATISTICS_TAGS-eng.markup">BPS DURATION NUMBER_OF_FRAMES NUMBER_OF_BYTES</property>
  <property name="meta.media.20.codec.name">pgssub</property>
  <property name="meta.media.20.codec.long_name">HDMV Presentation Graphic Stream subtitles</property>
  <property name="meta.media.20.codec.bit_rate">0</property>
  <property name="meta.attr.20.stream.language.markup">ind</property>
  <property name="meta.attr.20.stream.title.markup">Indonesian</property>
  <property name="meta.attr.20.stream.BPS-eng.markup">26444</property>
  <property name="meta.attr.20.stream.DURATION-eng.markup">01:33:59.300000000</property>
  <property name="meta.attr.20.stream.NUMBER_OF_FRAMES-eng.markup">1662</property>
  <property name="meta.attr.20.stream.NUMBER_OF_BYTES-eng.markup">18640975</property>
  <property name="meta.attr.20.stream._STATISTICS_WRITING_APP-eng.markup">mkvmerge v40.0.0 ('Old Town Road + Pony') 64-bit</property>
  <property name="meta.attr.20.stream._STATISTICS_WRITING_DATE_UTC-eng.markup">2019-12-29 15:49:45</property>
  <property name="meta.attr.20.stream._STATISTICS_TAGS-eng.markup">BPS DURATION NUMBER_OF_FRAMES NUMBER_OF_BYTES</property>
  <property name="meta.media.21.codec.name">pgssub</property>
  <property name="meta.media.21.codec.long_name">HDMV Presentation Graphic Stream subtitles</property>
  <property name="meta.media.21.codec.bit_rate">0</property>
  <property name="meta.attr.21.stream.language.markup">ita</property>
  <property name="meta.attr.21.stream.title.markup">Italian</property>
  <property name="meta.attr.21.stream.BPS-eng.markup">23573</property>
  <property name="meta.attr.21.stream.DURATION-eng.markup">01:42:58.922000000</property>
  <property name="meta.attr.21.stream.NUMBER_OF_FRAMES-eng.markup">1698</property>
  <property name="meta.attr.21.stream.NUMBER_OF_BYTES-eng.markup">18207609</property>
  <property name="meta.attr.21.stream._STATISTICS_WRITING_APP-eng.markup">mkvmerge v40.0.0 ('Old Town Road + Pony') 64-bit</property>
  <property name="meta.attr.21.stream._STATISTICS_WRITING_DATE_UTC-eng.markup">2019-12-29 15:49:45</property>
  <property name="meta.attr.21.stream._STATISTICS_TAGS-eng.markup">BPS DURATION NUMBER_OF_FRAMES NUMBER_OF_BYTES</property>
  <property name="meta.media.22.codec.name">pgssub</property>
  <property name="meta.media.22.codec.long_name">HDMV Presentation Graphic Stream subtitles</property>
  <property name="meta.media.22.codec.bit_rate">0</property>
  <property name="meta.attr.22.stream.language.markup">kor</property>
  <property name="meta.attr.22.stream.title.markup">Korean</property>
  <property name="meta.attr.22.stream.BPS-eng.markup">19788</property>
  <property name="meta.attr.22.stream.DURATION-eng.markup">01:35:32.477000000</property>
  <property name="meta.attr.22.stream.NUMBER_OF_FRAMES-eng.markup">1708</property>
  <property name="meta.attr.22.stream.NUMBER_OF_BYTES-eng.markup">14179403</property>
  <property name="meta.attr.22.stream._STATISTICS_WRITING_APP-eng.markup">mkvmerge v40.0.0 ('Old Town Road + Pony') 64-bit</property>
  <property name="meta.attr.22.stream._STATISTICS_WRITING_DATE_UTC-eng.markup">2019-12-29 15:49:45</property>
  <property name="meta.attr.22.stream._STATISTICS_TAGS-eng.markup">BPS DURATION NUMBER_OF_FRAMES NUMBER_OF_BYTES</property>
  <property name="meta.media.23.codec.name">pgssub</property>
  <property name="meta.media.23.codec.long_name">HDMV Presentation Graphic Stream subtitles</property>
  <property name="meta.media.23.codec.bit_rate">0</property>
  <property name="meta.attr.23.stream.language.markup">nor</property>
  <property name="meta.attr.23.stream.title.markup">Norwegian</property>
  <property name="meta.attr.23.stream.BPS-eng.markup">20066</property>
  <property name="meta.attr.23.stream.DURATION-eng.markup">01:33:59.675000000</property>
  <property name="meta.attr.23.stream.NUMBER_OF_FRAMES-eng.markup">1184</property>
  <property name="meta.attr.23.stream.NUMBER_OF_BYTES-eng.markup">14146014</property>
  <property name="meta.attr.23.stream._STATISTICS_WRITING_APP-eng.markup">mkvmerge v40.0.0 ('Old Town Road + Pony') 64-bit</property>
  <property name="meta.attr.23.stream._STATISTICS_WRITING_DATE_UTC-eng.markup">2019-12-29 15:49:45</property>
  <property name="meta.attr.23.stream._STATISTICS_TAGS-eng.markup">BPS DURATION NUMBER_OF_FRAMES NUMBER_OF_BYTES</property>
  <property name="meta.media.24.codec.name">pgssub</property>
  <property name="meta.media.24.codec.long_name">HDMV Presentation Graphic Stream subtitles</property>
  <property name="meta.media.24.codec.bit_rate">0</property>
  <property name="meta.attr.24.stream.language.markup">pol</property>
  <property name="meta.attr.24.stream.title.markup">Polish</property>
  <property name="meta.attr.24.stream.BPS-eng.markup">18199</property>
  <property name="meta.attr.24.stream.DURATION-eng.markup">01:33:59.300000000</property>
  <property name="meta.attr.24.stream.NUMBER_OF_FRAMES-eng.markup">1688</property>
  <property name="meta.attr.24.stream.NUMBER_OF_BYTES-eng.markup">12829046</property>
  <property name="meta.attr.24.stream._STATISTICS_WRITING_APP-eng.markup">mkvmerge v40.0.0 ('Old Town Road + Pony') 64-bit</property>
  <property name="meta.attr.24.stream._STATISTICS_WRITING_DATE_UTC-eng.markup">2019-12-29 15:49:45</property>
  <property name="meta.attr.24.stream._STATISTICS_TAGS-eng.markup">BPS DURATION NUMBER_OF_FRAMES NUMBER_OF_BYTES</property>
  <property name="meta.media.25.codec.name">pgssub</property>
  <property name="meta.media.25.codec.long_name">HDMV Presentation Graphic Stream subtitles</property>
  <property name="meta.media.25.codec.bit_rate">0</property>
  <property name="meta.attr.25.stream.language.markup">por</property>
  <property name="meta.attr.25.stream.title.markup">Brazilian Portuguese</property>
  <property name="meta.attr.25.stream.BPS-eng.markup">29654</property>
  <property name="meta.attr.25.stream.DURATION-eng.markup">01:33:59.300000000</property>
  <property name="meta.attr.25.stream.NUMBER_OF_FRAMES-eng.markup">1836</property>
  <property name="meta.attr.25.stream.NUMBER_OF_BYTES-eng.markup">20903964</property>
  <property name="meta.attr.25.stream._STATISTICS_WRITING_APP-eng.markup">mkvmerge v40.0.0 ('Old Town Road + Pony') 64-bit</property>
  <property name="meta.attr.25.stream._STATISTICS_WRITING_DATE_UTC-eng.markup">2019-12-29 15:49:45</property>
  <property name="meta.attr.25.stream._STATISTICS_TAGS-eng.markup">BPS DURATION NUMBER_OF_FRAMES NUMBER_OF_BYTES</property>
  <property name="meta.media.26.codec.name">pgssub</property>
  <property name="meta.media.26.codec.long_name">HDMV Presentation Graphic Stream subtitles</property>
  <property name="meta.media.26.codec.bit_rate">0</property>
  <property name="meta.attr.26.stream.language.markup">por</property>
  <property name="meta.attr.26.stream.title.markup">Iberian Portuguese</property>
  <property name="meta.attr.26.stream.BPS-eng.markup">27145</property>
  <property name="meta.attr.26.stream.DURATION-eng.markup">01:33:59.300000000</property>
  <property name="meta.attr.26.stream.NUMBER_OF_FRAMES-eng.markup">1720</property>
  <property name="meta.attr.26.stream.NUMBER_OF_BYTES-eng.markup">19134971</property>
  <property name="meta.attr.26.stream._STATISTICS_WRITING_APP-eng.markup">mkvmerge v40.0.0 ('Old Town Road + Pony') 64-bit</property>
  <property name="meta.attr.26.stream._STATISTICS_WRITING_DATE_UTC-eng.markup">2019-12-29 15:49:45</property>
  <property name="meta.attr.26.stream._STATISTICS_TAGS-eng.markup">BPS DURATION NUMBER_OF_FRAMES NUMBER_OF_BYTES</property>
  <property name="meta.media.27.codec.name">pgssub</property>
  <property name="meta.media.27.codec.long_name">HDMV Presentation Graphic Stream subtitles</property>
  <property name="meta.media.27.codec.bit_rate">0</property>
  <property name="meta.attr.27.stream.language.markup">rum</property>
  <property name="meta.attr.27.stream.title.markup">Romanian</property>
  <property name="meta.attr.27.stream.BPS-eng.markup">25197</property>
  <property name="meta.attr.27.stream.DURATION-eng.markup">01:35:32.519000000</property>
  <property name="meta.attr.27.stream.NUMBER_OF_FRAMES-eng.markup">1706</property>
  <property name="meta.attr.27.stream.NUMBER_OF_BYTES-eng.markup">18055771</property>
  <property name="meta.attr.27.stream._STATISTICS_WRITING_APP-eng.markup">mkvmerge v40.0.0 ('Old Town Road + Pony') 64-bit</property>
  <property name="meta.attr.27.stream._STATISTICS_WRITING_DATE_UTC-eng.markup">2019-12-29 15:49:45</property>
  <property name="meta.attr.27.stream._STATISTICS_TAGS-eng.markup">BPS DURATION NUMBER_OF_FRAMES NUMBER_OF_BYTES</property>
  <property name="meta.media.28.codec.name">pgssub</property>
  <property name="meta.media.28.codec.long_name">HDMV Presentation Graphic Stream subtitles</property>
  <property name="meta.media.28.codec.bit_rate">0</property>
  <property name="meta.attr.28.stream.language.markup">slv</property>
  <property name="meta.attr.28.stream.title.markup">Slovenian</property>
  <property name="meta.attr.28.stream.BPS-eng.markup">22934</property>
  <property name="meta.attr.28.stream.DURATION-eng.markup">01:33:59.300000000</property>
  <property name="meta.attr.28.stream.NUMBER_OF_FRAMES-eng.markup">1706</property>
  <property name="meta.attr.28.stream.NUMBER_OF_BYTES-eng.markup">16167012</property>
  <property name="meta.attr.28.stream._STATISTICS_WRITING_APP-eng.markup">mkvmerge v40.0.0 ('Old Town Road + Pony') 64-bit</property>
  <property name="meta.attr.28.stream._STATISTICS_WRITING_DATE_UTC-eng.markup">2019-12-29 15:49:45</property>
  <property name="meta.attr.28.stream._STATISTICS_TAGS-eng.markup">BPS DURATION NUMBER_OF_FRAMES NUMBER_OF_BYTES</property>
  <property name="meta.media.29.codec.name">pgssub</property>
  <property name="meta.media.29.codec.long_name">HDMV Presentation Graphic Stream subtitles</property>
  <property name="meta.media.29.codec.bit_rate">0</property>
  <property name="meta.attr.29.stream.language.markup">spa</property>
  <property name="meta.attr.29.stream.title.markup">Spanish (Latin America)</property>
  <property name="meta.attr.29.stream.BPS-eng.markup">25790</property>
  <property name="meta.attr.29.stream.DURATION-eng.markup">01:35:32.519000000</property>
  <property name="meta.attr.29.stream.NUMBER_OF_FRAMES-eng.markup">1699</property>
  <property name="meta.attr.29.stream.NUMBER_OF_BYTES-eng.markup">18480666</property>
  <property name="meta.attr.29.stream._STATISTICS_WRITING_APP-eng.markup">mkvmerge v40.0.0 ('Old Town Road + Pony') 64-bit</property>
  <property name="meta.attr.29.stream._STATISTICS_WRITING_DATE_UTC-eng.markup">2019-12-29 15:49:45</property>
  <property name="meta.attr.29.stream._STATISTICS_TAGS-eng.markup">BPS DURATION NUMBER_OF_FRAMES NUMBER_OF_BYTES</property>
  <property name="meta.media.30.codec.name">pgssub</property>
  <property name="meta.media.30.codec.long_name">HDMV Presentation Graphic Stream subtitles</property>
  <property name="meta.media.30.codec.bit_rate">0</property>
  <property name="meta.attr.30.stream.language.markup">spa</property>
  <property name="meta.attr.30.stream.title.markup">Spanish (Spain)</property>
  <property name="meta.attr.30.stream.BPS-eng.markup">20473</property>
  <property name="meta.attr.30.stream.DURATION-eng.markup">01:33:59.300000000</property>
  <property name="meta.attr.30.stream.NUMBER_OF_FRAMES-eng.markup">1702</property>
  <property name="meta.attr.30.stream.NUMBER_OF_BYTES-eng.markup">14432022</property>
  <property name="meta.attr.30.stream._STATISTICS_WRITING_APP-eng.markup">mkvmerge v40.0.0 ('Old Town Road + Pony') 64-bit</property>
  <property name="meta.attr.30.stream._STATISTICS_WRITING_DATE_UTC-eng.markup">2019-12-29 15:49:45</property>
  <property name="meta.attr.30.stream._STATISTICS_TAGS-eng.markup">BPS DURATION NUMBER_OF_FRAMES NUMBER_OF_BYTES</property>
  <property name="meta.media.31.codec.name">pgssub</property>
  <property name="meta.media.31.codec.long_name">HDMV Presentation Graphic Stream subtitles</property>
  <property name="meta.media.31.codec.bit_rate">0</property>
  <property name="meta.attr.31.stream.language.markup">swe</property>
  <property name="meta.attr.31.stream.title.markup">Swedish</property>
  <property name="meta.attr.31.stream.BPS-eng.markup">19711</property>
  <property name="meta.attr.31.stream.DURATION-eng.markup">01:33:59.675000000</property>
  <property name="meta.attr.31.stream.NUMBER_OF_FRAMES-eng.markup">1184</property>
  <property name="meta.attr.31.stream.NUMBER_OF_BYTES-eng.markup">13895741</property>
  <property name="meta.attr.31.stream._STATISTICS_WRITING_APP-eng.markup">mkvmerge v40.0.0 ('Old Town Road + Pony') 64-bit</property>
  <property name="meta.attr.31.stream._STATISTICS_WRITING_DATE_UTC-eng.markup">2019-12-29 15:49:45</property>
  <property name="meta.attr.31.stream._STATISTICS_TAGS-eng.markup">BPS DURATION NUMBER_OF_FRAMES NUMBER_OF_BYTES</property>
  <property name="meta.media.32.codec.name">pgssub</property>
  <property name="meta.media.32.codec.long_name">HDMV Presentation Graphic Stream subtitles</property>
  <property name="meta.media.32.codec.bit_rate">0</property>
  <property name="meta.attr.32.stream.language.markup">tha</property>
  <property name="meta.attr.32.stream.title.markup">Thai</property>
  <property name="meta.attr.32.stream.BPS-eng.markup">20455</property>
  <property name="meta.attr.32.stream.DURATION-eng.markup">01:44:32.308000000</property>
  <property name="meta.attr.32.stream.NUMBER_OF_FRAMES-eng.markup">1708</property>
  <property name="meta.attr.32.stream.NUMBER_OF_BYTES-eng.markup">16038127</property>
  <property name="meta.attr.32.stream._STATISTICS_WRITING_APP-eng.markup">mkvmerge v40.0.0 ('Old Town Road + Pony') 64-bit</property>
  <property name="meta.attr.32.stream._STATISTICS_WRITING_DATE_UTC-eng.markup">2019-12-29 15:49:45</property>
  <property name="meta.attr.32.stream._STATISTICS_TAGS-eng.markup">BPS DURATION NUMBER_OF_FRAMES NUMBER_OF_BYTES</property>
  <property name="meta.media.33.codec.name">pgssub</property>
  <property name="meta.media.33.codec.long_name">HDMV Presentation Graphic Stream subtitles</property>
  <property name="meta.media.33.codec.bit_rate">0</property>
  <property name="meta.attr.33.stream.language.markup">tur</property>
  <property name="meta.attr.33.stream.title.markup">Turkish</property>
  <property name="meta.attr.33.stream.BPS-eng.markup">22418</property>
  <property name="meta.attr.33.stream.DURATION-eng.markup">01:33:59.217000000</property>
  <property name="meta.attr.33.stream.NUMBER_OF_FRAMES-eng.markup">1674</property>
  <property name="meta.attr.33.stream.NUMBER_OF_BYTES-eng.markup">15802734</property>
  <property name="meta.attr.33.stream._STATISTICS_WRITING_APP-eng.markup">mkvmerge v40.0.0 ('Old Town Road + Pony') 64-bit</property>
  <property name="meta.attr.33.stream._STATISTICS_WRITING_DATE_UTC-eng.markup">2019-12-29 15:49:45</property>
  <property name="meta.attr.33.stream._STATISTICS_TAGS-eng.markup">BPS DURATION NUMBER_OF_FRAMES NUMBER_OF_BYTES</property>
  <property name="meta.media.34.codec.name">srt</property>
  <property name="meta.media.34.codec.long_name">SubRip subtitle</property>
  <property name="meta.media.34.codec.bit_rate">0</property>
  <property name="meta.attr.34.stream.language.markup">eng</property>
  <property name="meta.attr.34.stream.BPS-eng.markup">48</property>
  <property name="meta.attr.34.stream.DURATION-eng.markup">01:33:45.538000000</property>
  <property name="meta.attr.34.stream.NUMBER_OF_FRAMES-eng.markup">842</property>
  <property name="meta.attr.34.stream.NUMBER_OF_BYTES-eng.markup">34158</property>
  <property name="meta.attr.34.stream._STATISTICS_WRITING_APP-eng.markup">mkvmerge v40.0.0 ('Old Town Road + Pony') 64-bit</property>
  <property name="meta.attr.34.stream._STATISTICS_WRITING_DATE_UTC-eng.markup">2019-12-29 15:49:45</property>
  <property name="meta.attr.34.stream._STATISTICS_TAGS-eng.markup">BPS DURATION NUMBER_OF_FRAMES NUMBER_OF_BYTES</property>
  <property name="meta.media.35.codec.name">srt</property>
  <property name="meta.media.35.codec.long_name">SubRip subtitle</property>
  <property name="meta.media.35.codec.bit_rate">0</property>
  <property name="meta.attr.35.stream.language.markup">eng</property>
  <property name="meta.attr.35.stream.title.markup">SDH</property>
  <property name="meta.attr.35.stream.BPS-eng.markup">43</property>
  <property name="meta.attr.35.stream.DURATION-eng.markup">01:31:41.370000000</property>
  <property name="meta.attr.35.stream.NUMBER_OF_FRAMES-eng.markup">833</property>
  <property name="meta.attr.35.stream.NUMBER_OF_BYTES-eng.markup">29767</property>
  <property name="meta.attr.35.stream._STATISTICS_WRITING_APP-eng.markup">mkvmerge v40.0.0 ('Old Town Road + Pony') 64-bit</property>
  <property name="meta.attr.35.stream._STATISTICS_WRITING_DATE_UTC-eng.markup">2019-12-29 15:49:45</property>
  <property name="meta.attr.35.stream._STATISTICS_TAGS-eng.markup">BPS DURATION NUMBER_OF_FRAMES NUMBER_OF_BYTES</property>
  <property name="meta.media.36.codec.name">srt</property>
  <property name="meta.media.36.codec.long_name">SubRip subtitle</property>
  <property name="meta.media.36.codec.bit_rate">0</property>
  <property name="meta.attr.36.stream.language.markup">swe</property>
  <property name="meta.attr.36.stream.BPS-eng.markup">47</property>
  <property name="meta.attr.36.stream.DURATION-eng.markup">01:33:48.363000000</property>
  <property name="meta.attr.36.stream.NUMBER_OF_FRAMES-eng.markup">683</property>
  <property name="meta.attr.36.stream.NUMBER_OF_BYTES-eng.markup">33075</property>
  <property name="meta.attr.36.stream._STATISTICS_WRITING_APP-eng.markup">mkvmerge v40.0.0 ('Old Town Road + Pony') 64-bit</property>
  <property name="meta.attr.36.stream._STATISTICS_WRITING_DATE_UTC-eng.markup">2019-12-29 15:49:45</property>
  <property name="meta.attr.36.stream._STATISTICS_TAGS-eng.markup">BPS DURATION NUMBER_OF_FRAMES NUMBER_OF_BYTES</property>
  <property name="meta.attr.creation_time.markup">2019-12-29T15:49:45.000000Z</property>
  <property name="meta.attr.ENCODER.markup">Lavf58.29.100</property>
  <property name="meta.media.sample_aspect_num">1</property>
  <property name="meta.media.sample_aspect_den">1</property>
  <property name="meta.media.frame_rate_num">24000</property>
  <property name="meta.media.frame_rate_den">1001</property>
  <property name="meta.media.colorspace">709</property>
  <property name="meta.media.color_trc">1</property>
  <property name="meta.media.has_b_frames">2</property>
  <property name="meta.media.width">1916</property>
  <property name="meta.media.height">1036</property>
  <property name="meta.media.aspect_ratio">1</property>
  <property name="meta.media.color_range">mpeg</property>
  <property name="xml">was here</property>
  <property name="mute_on_pause">0</property>
  <property name="meta.media.top_field_first">0</property>
  <property name="meta.media.progressive">1</property>
  <property name="set.test_audio">1</property>
  <property name="set.test_image">0</property>
 </chain>
 <playlist id="playlist8">
  <entry in="00:00:00.000" out="00:00:36.411" producer="chain16">
   <property name="kdenlive:id">4</property>
  </entry>
  <entry in="00:00:36.453" out="00:08:42.209" producer="chain16">
   <property name="kdenlive:id">4</property>
  </entry>
  <entry in="00:08:42.251" out="00:08:54.721" producer="chain16">
   <property name="kdenlive:id">4</property>
  </entry>
  <entry in="00:08:54.763" out="00:09:40.332" producer="chain16">
   <property name="kdenlive:id">4</property>
  </entry>
  <entry in="00:09:40.374" out="00:09:42.209" producer="chain16">
   <property name="kdenlive:id">4</property>
  </entry>
  <entry in="00:09:42.251" out="00:09:42.542" producer="chain16">
   <property name="kdenlive:id">4</property>
  </entry>
  <entry in="00:09:42.584" out="00:09:47.047" producer="chain16">
   <property name="kdenlive:id">4</property>
  </entry>
  <entry in="00:09:47.089" out="00:09:49.800" producer="chain16">
   <property name="kdenlive:id">4</property>
  </entry>
  <entry in="00:09:49.841" out="00:09:52.094" producer="chain16">
   <property name="kdenlive:id">4</property>
  </entry>
  <entry in="00:09:52.135" out="00:11:27.236" producer="chain16">
   <property name="kdenlive:id">4</property>
  </entry>
  <entry in="00:11:27.277" out="00:12:16.225" producer="chain16">
   <property name="kdenlive:id">4</property>
  </entry>
  <entry in="00:12:16.266" out="00:13:16.975" producer="chain16">
   <property name="kdenlive:id">4</property>
  </entry>
  <entry in="00:13:17.017" out="00:13:37.120" producer="chain16">
   <property name="kdenlive:id">4</property>
  </entry>
  <entry in="00:13:37.162" out="00:13:52.135" producer="chain16">
   <property name="kdenlive:id">4</property>
  </entry>
  <entry in="00:13:52.177" out="00:13:57.766" producer="chain16">
   <property name="kdenlive:id">4</property>
  </entry>
  <entry in="00:13:57.808" out="00:14:11.637" producer="chain16">
   <property name="kdenlive:id">4</property>
  </entry>
  <entry in="00:14:11.678" out="00:14:19.353" producer="chain16">
   <property name="kdenlive:id">4</property>
  </entry>
  <entry in="00:14:19.394" out="00:17:18.477" producer="chain16">
   <property name="kdenlive:id">4</property>
  </entry>
  <entry in="00:17:18.518" out="00:17:28.362" producer="chain16">
   <property name="kdenlive:id">4</property>
  </entry>
  <entry in="00:17:28.403" out="00:19:47.714" producer="chain16">
   <property name="kdenlive:id">4</property>
  </entry>
  <entry in="00:19:47.756" out="00:20:11.011" producer="chain16">
   <property name="kdenlive:id">4</property>
  </entry>
  <entry in="00:20:11.053" out="00:21:04.713" producer="chain16">
   <property name="kdenlive:id">4</property>
  </entry>
  <entry in="00:21:04.755" out="00:21:11.845" producer="chain16">
   <property name="kdenlive:id">4</property>
  </entry>
  <entry in="00:21:11.887" out="00:23:40.123" producer="chain16">
   <property name="kdenlive:id">4</property>
  </entry>
  <entry in="00:23:40.165" out="00:23:50.092" producer="chain16">
   <property name="kdenlive:id">4</property>
  </entry>
  <entry in="00:23:50.133" out="00:25:19.853" producer="chain16">
   <property name="kdenlive:id">4</property>
  </entry>
  <entry in="00:25:19.895" out="00:25:24.316" producer="chain16">
   <property name="kdenlive:id">4</property>
  </entry>
  <entry in="00:25:24.358" out="00:26:31.782" producer="chain16">
   <property name="kdenlive:id">4</property>
  </entry>
  <entry in="00:26:31.823" out="00:26:42.960" producer="chain16">
   <property name="kdenlive:id">4</property>
  </entry>
  <entry in="00:26:43.001" out="00:26:53.220" producer="chain16">
   <property name="kdenlive:id">4</property>
  </entry>
  <entry in="00:26:53.262" out="00:27:08.926" producer="chain16">
   <property name="kdenlive:id">4</property>
  </entry>
  <entry in="00:27:08.967" out="00:27:19.353" producer="chain16">
   <property name="kdenlive:id">4</property>
  </entry>
  <entry in="00:27:19.394" out="00:27:35.869" producer="chain16">
   <property name="kdenlive:id">4</property>
  </entry>
  <entry in="00:27:35.911" out="00:27:40.040" producer="chain16">
   <property name="kdenlive:id">4</property>
  </entry>
  <entry in="00:27:40.082" out="00:30:38.997" producer="chain16">
   <property name="kdenlive:id">4</property>
  </entry>
  <entry in="00:30:39.039" out="00:32:06.173" producer="chain16">
   <property name="kdenlive:id">4</property>
  </entry>
  <entry in="00:32:06.215" out="00:32:14.681" producer="chain16">
   <property name="kdenlive:id">4</property>
  </entry>
  <entry in="00:32:14.723" out="00:51:03.879" producer="chain16">
   <property name="kdenlive:id">4</property>
  </entry>
  <entry in="00:51:03.921" out="00:51:12.846" producer="chain16">
   <property name="kdenlive:id">4</property>
  </entry>
  <entry in="00:51:12.888" out="00:51:21.146" producer="chain16">
   <property name="kdenlive:id">4</property>
  </entry>
  <entry in="00:51:21.188" out="00:51:36.119" producer="chain16">
   <property name="kdenlive:id">4</property>
  </entry>
  <entry in="00:51:36.161" out="00:52:15.057" producer="chain16">
   <property name="kdenlive:id">4</property>
  </entry>
  <entry in="00:52:15.098" out="00:52:19.519" producer="chain16">
   <property name="kdenlive:id">4</property>
  </entry>
  <entry in="00:52:19.561" out="00:54:34.409" producer="chain16">
   <property name="kdenlive:id">4</property>
  </entry>
  <entry in="00:54:34.451" out="00:54:46.338" producer="chain16">
   <property name="kdenlive:id">4</property>
  </entry>
  <entry in="00:54:46.380" out="00:54:50.217" producer="chain16">
   <property name="kdenlive:id">4</property>
  </entry>
  <entry in="00:54:50.259" out="00:55:02.920" producer="chain16">
   <property name="kdenlive:id">4</property>
  </entry>
  <entry in="00:55:02.961" out="00:58:43.335" producer="chain16">
   <property name="kdenlive:id">4</property>
  </entry>
  <entry in="00:58:43.377" out="00:58:45.212" producer="chain16">
   <property name="kdenlive:id">4</property>
  </entry>
  <entry in="00:58:45.254" out="00:58:46.046" producer="chain16">
   <property name="kdenlive:id">4</property>
  </entry>
  <entry in="00:58:46.088" out="00:58:47.339" producer="chain16">
   <property name="kdenlive:id">4</property>
  </entry>
  <entry in="00:58:47.381" out="00:59:05.297" producer="chain16">
   <property name="kdenlive:id">4</property>
  </entry>
  <entry in="00:59:05.339" out="00:59:05.964" producer="chain16">
   <property name="kdenlive:id">4</property>
  </entry>
  <entry in="00:59:06.006" out="00:59:07.299" producer="chain16">
   <property name="kdenlive:id">4</property>
  </entry>
  <entry in="00:59:07.341" out="01:01:30.822" producer="chain16">
   <property name="kdenlive:id">4</property>
  </entry>
  <entry in="01:01:30.864" out="01:01:43.502" producer="chain16">
   <property name="kdenlive:id">4</property>
  </entry>
  <entry in="01:01:43.543" out="01:03:21.563" producer="chain16">
   <property name="kdenlive:id">4</property>
  </entry>
  <entry in="01:03:21.605" out="01:03:28.737" producer="chain16">
   <property name="kdenlive:id">4</property>
  </entry>
  <entry in="01:03:28.779" out="01:03:56.014" producer="chain16">
   <property name="kdenlive:id">4</property>
  </entry>
  <entry in="01:03:56.056" out="01:04:16.308" producer="chain16">
   <property name="kdenlive:id">4</property>
  </entry>
  <entry in="01:04:16.350" out="01:08:25.692" producer="chain16">
   <property name="kdenlive:id">4</property>
  </entry>
  <entry in="01:08:25.734" out="01:08:42.167" producer="chain16">
   <property name="kdenlive:id">4</property>
  </entry>
  <entry in="01:08:42.209" out="01:11:26.235" producer="chain16">
   <property name="kdenlive:id">4</property>
  </entry>
  <entry in="01:11:26.276" out="01:12:19.770" producer="chain16">
   <property name="kdenlive:id">4</property>
  </entry>
  <entry in="01:12:19.811" out="01:14:44.503" producer="chain16">
   <property name="kdenlive:id">4</property>
  </entry>
  <entry in="01:14:44.544" out="01:15:06.715" producer="chain16">
   <property name="kdenlive:id">4</property>
  </entry>
  <entry in="01:15:06.757" out="01:24:13.555" producer="chain16">
   <property name="kdenlive:id">4</property>
  </entry>
  <entry in="01:24:13.597" out="01:24:21.021" producer="chain16">
   <property name="kdenlive:id">4</property>
  </entry>
  <entry in="01:24:21.063" out="01:28:40.916" producer="chain16">
   <property name="kdenlive:id">4</property>
  </entry>
  <entry in="01:28:40.958" out="01:28:52.511" producer="chain16">
   <property name="kdenlive:id">4</property>
  </entry>
  <entry in="01:28:52.552" out="01:29:10.969" producer="chain16">
   <property name="kdenlive:id">4</property>
  </entry>
  <entry in="01:29:11.011" out="01:29:18.518" producer="chain16">
   <property name="kdenlive:id">4</property>
  </entry>
  <entry in="01:29:18.560" out="01:29:28.904" producer="chain16">
   <property name="kdenlive:id">4</property>
  </entry>
  <entry in="01:29:28.946" out="01:29:30.572" producer="chain16">
   <property name="kdenlive:id">4</property>
  </entry>
  <entry in="01:29:30.614" out="01:29:39.206" producer="chain16">
   <property name="kdenlive:id">4</property>
  </entry>
  <entry in="01:29:39.248" out="01:30:28.487" producer="chain16">
   <property name="kdenlive:id">4</property>
  </entry>
  <entry in="01:30:28.528" out="01:30:35.285" producer="chain16">
   <property name="kdenlive:id">4</property>
  </entry>
  <entry in="01:30:35.327" out="01:32:48.674" producer="chain16">
   <property name="kdenlive:id">4</property>
  </entry>
  <entry in="01:32:48.715" out="01:33:14.014" producer="chain16">
   <property name="kdenlive:id">4</property>
  </entry>
  <entry in="01:33:14.056" out="01:33:37.120" producer="chain16">
   <property name="kdenlive:id">4</property>
  </entry>
  <entry in="01:33:37.162" out="01:33:50.592" producer="chain16">
   <property name="kdenlive:id">4</property>
  </entry>
  <entry in="01:33:50.634" out="01:34:00.417" producer="chain16">
   <property name="kdenlive:id">4</property>
  </entry>
  <entry in="01:34:00.459" out="01:34:10.636" producer="chain16">
   <property name="kdenlive:id">4</property>
  </entry>
  <entry in="01:34:10.677" out="01:34:19.102" producer="chain16">
   <property name="kdenlive:id">4</property>
  </entry>
  <entry in="01:34:19.144" out="01:34:22.272" producer="chain16">
   <property name="kdenlive:id">4</property>
  </entry>
  <entry in="01:34:22.314" out="01:34:23.607" producer="chain16">
   <property name="kdenlive:id">4</property>
  </entry>
  <entry in="01:34:23.649" out="01:37:13.513" producer="chain16">
   <property name="kdenlive:id">4</property>
  </entry>
  <entry in="01:37:13.555" out="01:37:20.187" producer="chain16">
   <property name="kdenlive:id">4</property>
  </entry>
  <entry in="01:37:20.229" out="01:42:14.348" producer="chain16">
   <property name="kdenlive:id">4</property>
  </entry>
  <entry in="01:42:14.389" out="01:45:58.350" producer="chain16">
   <property name="kdenlive:id">4</property>
  </entry>
 </playlist>
 <playlist id="playlist9"/>
 <tractor id="tractor4" in="00:00:00.000" out="01:45:58.350">
  <property name="kdenlive:trackheight">84</property>
  <property name="kdenlive:timeline_active">1</property>
  <property name="kdenlive:collapsed">0</property>
  <property name="kdenlive:thumbs_format"/>
  <property name="kdenlive:audio_rec"/>
  <track hide="audio" producer="playlist8"/>
  <track hide="audio" producer="playlist9"/>
 </tractor>
 <playlist id="playlist10"/>
 <playlist id="playlist11"/>
 <tractor id="tractor5" in="00:00:00.000">
  <property name="kdenlive:trackheight">84</property>
  <property name="kdenlive:timeline_active">1</property>
  <property name="kdenlive:collapsed">0</property>
  <property name="kdenlive:thumbs_format"/>
  <property name="kdenlive:audio_rec"/>
  <track hide="audio" producer="playlist10"/>
  <track hide="audio" producer="playlist11"/>
 </tractor>
 <tractor id="tractor6" in="00:00:00.000" out="01:45:58.350">
  <property name="kdenlive:duration">01:45:58.392</property>
  <property name="kdenlive:maxduration">152448</property>
  <property name="kdenlive:clipname">Sequence 1</property>
  <property name="kdenlive:description"/>
  <property name="kdenlive:uuid">{1db74e36-f274-4325-a5be-2dc513831cf7}</property>
  <property name="kdenlive:producer_type">17</property>
  <property name="kdenlive:control_uuid">{1db74e36-f274-4325-a5be-2dc513831cf7}</property>
  <property name="kdenlive:id">3</property>
  <property name="kdenlive:clip_type">0</property>
  <property name="kdenlive:file_hash">becb503f1a4343e88c2c3b673120b8ec</property>
  <property name="kdenlive:folderid">2</property>
  <property name="kdenlive:sequenceproperties.activeTrack">3</property>
  <property name="kdenlive:sequenceproperties.audioTarget">1</property>
  <property name="kdenlive:sequenceproperties.disablepreview">0</property>
  <property name="kdenlive:sequenceproperties.documentuuid">{1db74e36-f274-4325-a5be-2dc513831cf7}</property>
  <property name="kdenlive:sequenceproperties.globalSubtitleStyles">[
]
</property>
  <property name="kdenlive:sequenceproperties.hasAudio">1</property>
  <property name="kdenlive:sequenceproperties.hasVideo">1</property>
  <property name="kdenlive:sequenceproperties.hidesubtitle">0</property>
  <property name="kdenlive:sequenceproperties.position">152313</property>
  <property name="kdenlive:sequenceproperties.scrollPos">34082</property>
  <property name="kdenlive:sequenceproperties.subtitlesList">[
    {
        "file": "C:/Users/kado/AppData/Local/Temp/1753192907790-{5a4fb020-dfb8-4678-ae51-410861766279}.ass",
        "id": 0,
        "name": "Subtitles"
    }
]
</property>
  <property name="kdenlive:sequenceproperties.tracks">4</property>
  <property name="kdenlive:sequenceproperties.tracksCount">6</property>
  <property name="kdenlive:sequenceproperties.verticalzoom">1</property>
  <property name="kdenlive:sequenceproperties.videoTarget">2</property>
  <property name="kdenlive:sequenceproperties.zonein">612</property>
  <property name="kdenlive:sequenceproperties.zoneout">823</property>
  <property name="kdenlive:sequenceproperties.zoom">11</property>
  <property name="kdenlive:sequenceproperties.groups">[
    {
        "children": [
            {
                "data": "4:98438:-1",
                "leaf": "clip",
                "type": "Leaf"
            },
            {
                "data": "3:98438:-1",
                "leaf": "clip",
                "type": "Leaf"
            }
        ],
        "type": "AVSplit"
    },
    {
        "children": [
            {
                "data": "3:104050:-1",
                "leaf": "clip",
                "type": "Leaf"
            },
            {
                "data": "4:104050:-1",
                "leaf": "clip",
                "type": "Leaf"
            }
        ],
        "type": "AVSplit"
    },
    {
        "children": [
            {
                "data": "4:13915:-1",
                "leaf": "clip",
                "type": "Leaf"
            },
            {
                "data": "3:13915:-1",
                "leaf": "clip",
                "type": "Leaf"
            }
        ],
        "type": "AVSplit"
    },
    {
        "children": [
            {
                "data": "4:108053:-1",
                "leaf": "clip",
                "type": "Leaf"
            },
            {
                "data": "3:108053:-1",
                "leaf": "clip",
                "type": "Leaf"
            }
        ],
        "type": "AVSplit"
    },
    {
        "children": [
            {
                "data": "4:39306:-1",
                "leaf": "clip",
                "type": "Leaf"
            },
            {
                "data": "3:39306:-1",
                "leaf": "clip",
                "type": "Leaf"
            }
        ],
        "type": "AVSplit"
    },
    {
        "children": [
            {
                "data": "4:46182:-1",
                "leaf": "clip",
                "type": "Leaf"
            },
            {
                "data": "3:46182:-1",
                "leaf": "clip",
                "type": "Leaf"
            }
        ],
        "type": "AVSplit"
    },
    {
        "children": [
            {
                "data": "4:91972:-1",
                "leaf": "clip",
                "type": "Leaf"
            },
            {
                "data": "3:91972:-1",
                "leaf": "clip",
                "type": "Leaf"
            }
        ],
        "type": "AVSplit"
    },
    {
        "children": [
            {
                "data": "4:14197:-1",
                "leaf": "clip",
                "type": "Leaf"
            },
            {
                "data": "3:14197:-1",
                "leaf": "clip",
                "type": "Leaf"
            }
        ],
        "type": "AVSplit"
    },
    {
        "children": [
            {
                "data": "4:38679:-1",
                "leaf": "clip",
                "type": "Leaf"
            },
            {
                "data": "3:38679:-1",
                "leaf": "clip",
                "type": "Leaf"
            }
        ],
        "type": "AVSplit"
    },
    {
        "children": [
            {
                "data": "4:73460:-1",
                "leaf": "clip",
                "type": "Leaf"
            },
            {
                "data": "3:73460:-1",
                "leaf": "clip",
                "type": "Leaf"
            }
        ],
        "type": "AVSplit"
    },
    {
        "children": [
            {
                "data": "4:39702:-1",
                "leaf": "clip",
                "type": "Leaf"
            },
            {
                "data": "3:39702:-1",
                "leaf": "clip",
                "type": "Leaf"
            }
        ],
        "type": "AVSplit"
    },
    {
        "children": [
            {
                "data": "3:88491:-1",
                "leaf": "clip",
                "type": "Leaf"
            },
            {
                "data": "4:88491:-1",
                "leaf": "clip",
                "type": "Leaf"
            }
        ],
        "type": "AVSplit"
    },
    {
        "children": [
            {
                "data": "4:20419:-1",
                "leaf": "clip",
                "type": "Leaf"
            },
            {
                "data": "3:20419:-1",
                "leaf": "clip",
                "type": "Leaf"
            }
        ],
        "type": "AVSplit"
    },
    {
        "children": [
            {
                "data": "4:107520:-1",
                "leaf": "clip",
                "type": "Leaf"
            },
            {
                "data": "3:107520:-1",
                "leaf": "clip",
                "type": "Leaf"
            }
        ],
        "type": "AVSplit"
    },
    {
        "children": [
            {
                "data": "4:24899:-1",
                "leaf": "clip",
                "type": "Leaf"
            },
            {
                "data": "3:24899:-1",
                "leaf": "clip",
                "type": "Leaf"
            }
        ],
        "type": "AVSplit"
    },
    {
        "children": [
            {
                "data": "3:46386:-1",
                "leaf": "clip",
                "type": "Leaf"
            },
            {
                "data": "4:46386:-1",
                "leaf": "clip",
                "type": "Leaf"
            }
        ],
        "type": "AVSplit"
    },
    {
        "children": [
            {
                "data": "4:84521:-1",
                "leaf": "clip",
                "type": "Leaf"
            },
            {
                "data": "3:84521:-1",
                "leaf": "clip",
                "type": "Leaf"
            }
        ],
        "type": "AVSplit"
    },
    {
        "children": [
            {
                "data": "4:73675:-1",
                "leaf": "clip",
                "type": "Leaf"
            },
            {
                "data": "3:73675:-1",
                "leaf": "clip",
                "type": "Leaf"
            }
        ],
        "type": "AVSplit"
    },
    {
        "children": [
            {
                "data": "3:20604:-1",
                "leaf": "clip",
                "type": "Leaf"
            },
            {
                "data": "4:20604:-1",
                "leaf": "clip",
                "type": "Leaf"
            }
        ],
        "type": "AVSplit"
    },
    {
        "children": [
            {
                "data": "4:73874:-1",
                "leaf": "clip",
                "type": "Leaf"
            },
            {
                "data": "3:73874:-1",
                "leaf": "clip",
                "type": "Leaf"
            }
        ],
        "type": "AVSplit"
    },
    {
        "children": [
            {
                "data": "3:25136:-1",
                "leaf": "clip",
                "type": "Leaf"
            },
            {
                "data": "4:25136:-1",
                "leaf": "clip",
                "type": "Leaf"
            }
        ],
        "type": "AVSplit"
    },
    {
        "children": [
            {
                "data": "4:75167:-1",
                "leaf": "clip",
                "type": "Leaf"
            },
            {
                "data": "3:75167:-1",
                "leaf": "clip",
                "type": "Leaf"
            }
        ],
        "type": "AVSplit"
    },
    {
        "children": [
            {
                "data": "4:85019:-1",
                "leaf": "clip",
                "type": "Leaf"
            },
            {
                "data": "3:85019:-1",
                "leaf": "clip",
                "type": "Leaf"
            }
        ],
        "type": "AVSplit"
    },
    {
        "children": [
            {
                "data": "3:78508:-1",
                "leaf": "clip",
                "type": "Leaf"
            },
            {
                "data": "4:78508:-1",
                "leaf": "clip",
                "type": "Leaf"
            }
        ],
        "type": "AVSplit"
    },
    {
        "children": [
            {
                "data": "3:28477:-1",
                "leaf": "clip",
                "type": "Leaf"
            },
            {
                "data": "4:28477:-1",
                "leaf": "clip",
                "type": "Leaf"
            }
        ],
        "type": "AVSplit"
    },
    {
        "children": [
            {
                "data": "3:78794:-1",
                "leaf": "clip",
                "type": "Leaf"
            },
            {
                "data": "4:78794:-1",
                "leaf": "clip",
                "type": "Leaf"
            }
        ],
        "type": "AVSplit"
    },
    {
        "children": [
            {
                "data": "4:130153:-1",
                "leaf": "clip",
                "type": "Leaf"
            },
            {
                "data": "3:130153:-1",
                "leaf": "clip",
                "type": "Leaf"
            }
        ],
        "type": "AVSplit"
    },
    {
        "children": [
            {
                "data": "3:78887:-1",
                "leaf": "clip",
                "type": "Leaf"
            },
            {
                "data": "4:78887:-1",
                "leaf": "clip",
                "type": "Leaf"
            }
        ],
        "type": "AVSplit"
    },
    {
        "children": [
            {
                "data": "4:29036:-1",
                "leaf": "clip",
                "type": "Leaf"
            },
            {
                "data": "3:29036:-1",
                "leaf": "clip",
                "type": "Leaf"
            }
        ],
        "type": "AVSplit"
    },
    {
        "children": [
            {
                "data": "4:121164:-1",
                "leaf": "clip",
                "type": "Leaf"
            },
            {
                "data": "3:121164:-1",
                "leaf": "clip",
                "type": "Leaf"
            }
        ],
        "type": "AVSplit"
    },
    {
        "children": [
            {
                "data": "3:874:-1",
                "leaf": "clip",
                "type": "Leaf"
            },
            {
                "data": "4:874:-1",
                "leaf": "clip",
                "type": "Leaf"
            }
        ],
        "type": "AVSplit"
    },
    {
        "children": [
            {
                "data": "4:128972:-1",
                "leaf": "clip",
                "type": "Leaf"
            },
            {
                "data": "3:128972:-1",
                "leaf": "clip",
                "type": "Leaf"
            }
        ],
        "type": "AVSplit"
    },
    {
        "children": [
            {
                "data": "4:19952:-1",
                "leaf": "clip",
                "type": "Leaf"
            },
            {
                "data": "3:19952:-1",
                "leaf": "clip",
                "type": "Leaf"
            }
        ],
        "type": "AVSplit"
    },
    {
        "children": [
            {
                "data": "4:36548:-1",
                "leaf": "clip",
                "type": "Leaf"
            },
            {
                "data": "3:36548:-1",
                "leaf": "clip",
                "type": "Leaf"
            }
        ],
        "type": "AVSplit"
    },
    {
        "children": [
            {
                "data": "4:75274:-1",
                "leaf": "clip",
                "type": "Leaf"
            },
            {
                "data": "3:75274:-1",
                "leaf": "clip",
                "type": "Leaf"
            }
        ],
        "type": "AVSplit"
    },
    {
        "children": [
            {
                "data": "3:134122:-1",
                "leaf": "clip",
                "type": "Leaf"
            },
            {
                "data": "4:134122:-1",
                "leaf": "clip",
                "type": "Leaf"
            }
        ],
        "type": "AVSplit"
    },
    {
        "children": [
            {
                "data": "3:12521:-1",
                "leaf": "clip",
                "type": "Leaf"
            },
            {
                "data": "4:12521:-1",
                "leaf": "clip",
                "type": "Leaf"
            }
        ],
        "type": "AVSplit"
    },
    {
        "children": [
            {
                "data": "4:79191:-1",
                "leaf": "clip",
                "type": "Leaf"
            },
            {
                "data": "3:79191:-1",
                "leaf": "clip",
                "type": "Leaf"
            }
        ],
        "type": "AVSplit"
    },
    {
        "children": [
            {
                "data": "3:38433:-1",
                "leaf": "clip",
                "type": "Leaf"
            },
            {
                "data": "4:38433:-1",
                "leaf": "clip",
                "type": "Leaf"
            }
        ],
        "type": "AVSplit"
    },
    {
        "children": [
            {
                "data": "4:34288:-1",
                "leaf": "clip",
                "type": "Leaf"
            },
            {
                "data": "3:34288:-1",
                "leaf": "clip",
                "type": "Leaf"
            }
        ],
        "type": "AVSplit"
    },
    {
        "children": [
            {
                "data": "4:20087:-1",
                "leaf": "clip",
                "type": "Leaf"
            },
            {
                "data": "3:20087:-1",
                "leaf": "clip",
                "type": "Leaf"
            }
        ],
        "type": "AVSplit"
    },
    {
        "children": [
            {
                "data": "4:128295:-1",
                "leaf": "clip",
                "type": "Leaf"
            },
            {
                "data": "3:128295:-1",
                "leaf": "clip",
                "type": "Leaf"
            }
        ],
        "type": "AVSplit"
    },
    {
        "children": [
            {
                "data": "4:135759:-1",
                "leaf": "clip",
                "type": "Leaf"
            },
            {
                "data": "3:135759:-1",
                "leaf": "clip",
                "type": "Leaf"
            }
        ],
        "type": "AVSplit"
    },
    {
        "children": [
            {
                "data": "4:19592:-1",
                "leaf": "clip",
                "type": "Leaf"
            },
            {
                "data": "3:19592:-1",
                "leaf": "clip",
                "type": "Leaf"
            }
        ],
        "type": "AVSplit"
    },
    {
        "children": [
            {
                "data": "3:128765:-1",
                "leaf": "clip",
                "type": "Leaf"
            },
            {
                "data": "4:128765:-1",
                "leaf": "clip",
                "type": "Leaf"
            }
        ],
        "type": "AVSplit"
    },
    {
        "children": [
            {
                "data": "3:134999:-1",
                "leaf": "clip",
                "type": "Leaf"
            },
            {
                "data": "4:134999:-1",
                "leaf": "clip",
                "type": "Leaf"
            }
        ],
        "type": "AVSplit"
    },
    {
        "children": [
            {
                "data": "3:135683:-1",
                "leaf": "clip",
                "type": "Leaf"
            },
            {
                "data": "4:135683:-1",
                "leaf": "clip",
                "type": "Leaf"
            }
        ],
        "type": "AVSplit"
    },
    {
        "children": [
            {
                "data": "4:135235:-1",
                "leaf": "clip",
                "type": "Leaf"
            },
            {
                "data": "3:135235:-1",
                "leaf": "clip",
                "type": "Leaf"
            }
        ],
        "type": "AVSplit"
    },
    {
        "children": [
            {
                "data": "4:17652:-1",
                "leaf": "clip",
                "type": "Leaf"
            },
            {
                "data": "3:17652:-1",
                "leaf": "clip",
                "type": "Leaf"
            }
        ],
        "type": "AVSplit"
    },
    {
        "children": [
            {
                "data": "3:135791:-1",
                "leaf": "clip",
                "type": "Leaf"
            },
            {
                "data": "4:135791:-1",
                "leaf": "clip",
                "type": "Leaf"
            }
        ],
        "type": "AVSplit"
    },
    {
        "children": [
            {
                "data": "4:30494:-1",
                "leaf": "clip",
                "type": "Leaf"
            },
            {
                "data": "3:30494:-1",
                "leaf": "clip",
                "type": "Leaf"
            }
        ],
        "type": "AVSplit"
    },
    {
        "children": [
            {
                "data": "3:91146:-1",
                "leaf": "clip",
                "type": "Leaf"
            },
            {
                "data": "4:91146:-1",
                "leaf": "clip",
                "type": "Leaf"
            }
        ],
        "type": "AVSplit"
    },
    {
        "children": [
            {
                "data": "4:134676:-1",
                "leaf": "clip",
                "type": "Leaf"
            },
            {
                "data": "3:134676:-1",
                "leaf": "clip",
                "type": "Leaf"
            }
        ],
        "type": "AVSplit"
    },
    {
        "children": [
            {
                "data": "3:38165:-1",
                "leaf": "clip",
                "type": "Leaf"
            },
            {
                "data": "4:38165:-1",
                "leaf": "clip",
                "type": "Leaf"
            }
        ],
        "type": "AVSplit"
    },
    {
        "children": [
            {
                "data": "3:74233:-1",
                "leaf": "clip",
                "type": "Leaf"
            },
            {
                "data": "4:74233:-1",
                "leaf": "clip",
                "type": "Leaf"
            }
        ],
        "type": "AVSplit"
    },
    {
        "children": [
            {
                "data": "3:34049:-1",
                "leaf": "clip",
                "type": "Leaf"
            },
            {
                "data": "4:34049:-1",
                "leaf": "clip",
                "type": "Leaf"
            }
        ],
        "type": "AVSplit"
    },
    {
        "children": [
            {
                "data": "4:39802:-1",
                "leaf": "clip",
                "type": "Leaf"
            },
            {
                "data": "3:39802:-1",
                "leaf": "clip",
                "type": "Leaf"
            }
        ],
        "type": "AVSplit"
    },
    {
        "children": [
            {
                "data": "4:130316:-1",
                "leaf": "clip",
                "type": "Leaf"
            },
            {
                "data": "3:130316:-1",
                "leaf": "clip",
                "type": "Leaf"
            }
        ],
        "type": "AVSplit"
    },
    {
        "children": [
            {
                "data": "4:16478:-1",
                "leaf": "clip",
                "type": "Leaf"
            },
            {
                "data": "3:16478:-1",
                "leaf": "clip",
                "type": "Leaf"
            }
        ],
        "type": "AVSplit"
    },
    {
        "children": [
            {
                "data": "4:128476:-1",
                "leaf": "clip",
                "type": "Leaf"
            },
            {
                "data": "3:128476:-1",
                "leaf": "clip",
                "type": "Leaf"
            }
        ],
        "type": "AVSplit"
    },
    {
        "children": [
            {
                "data": "3:140024:-1",
                "leaf": "clip",
                "type": "Leaf"
            },
            {
                "data": "4:140024:-1",
                "leaf": "clip",
                "type": "Leaf"
            }
        ],
        "type": "AVSplit"
    },
    {
        "children": [
            {
                "data": "4:139864:-1",
                "leaf": "clip",
                "type": "Leaf"
            },
            {
                "data": "3:139864:-1",
                "leaf": "clip",
                "type": "Leaf"
            }
        ],
        "type": "AVSplit"
    },
    {
        "children": [
            {
                "data": "4:85051:-1",
                "leaf": "clip",
                "type": "Leaf"
            },
            {
                "data": "3:85051:-1",
                "leaf": "clip",
                "type": "Leaf"
            }
        ],
        "type": "AVSplit"
    },
    {
        "children": [
            {
                "data": "4:85003:-1",
                "leaf": "clip",
                "type": "Leaf"
            },
            {
                "data": "3:85003:-1",
                "leaf": "clip",
                "type": "Leaf"
            }
        ],
        "type": "AVSplit"
    },
    {
        "children": [
            {
                "data": "4:121343:-1",
                "leaf": "clip",
                "type": "Leaf"
            },
            {
                "data": "3:121343:-1",
                "leaf": "clip",
                "type": "Leaf"
            }
        ],
        "type": "AVSplit"
    },
    {
        "children": [
            {
                "data": "3:84541:-1",
                "leaf": "clip",
                "type": "Leaf"
            },
            {
                "data": "4:84541:-1",
                "leaf": "clip",
                "type": "Leaf"
            }
        ],
        "type": "AVSplit"
    },
    {
        "children": [
            {
                "data": "3:19109:-1",
                "leaf": "clip",
                "type": "Leaf"
            },
            {
                "data": "4:19109:-1",
                "leaf": "clip",
                "type": "Leaf"
            }
        ],
        "type": "AVSplit"
    },
    {
        "children": [
            {
                "data": "3:30323:-1",
                "leaf": "clip",
                "type": "Leaf"
            },
            {
                "data": "4:30323:-1",
                "leaf": "clip",
                "type": "Leaf"
            }
        ],
        "type": "AVSplit"
    },
    {
        "children": [
            {
                "data": "3:127852:-1",
                "leaf": "clip",
                "type": "Leaf"
            },
            {
                "data": "4:127852:-1",
                "leaf": "clip",
                "type": "Leaf"
            }
        ],
        "type": "AVSplit"
    },
    {
        "children": [
            {
                "data": "4:44092:-1",
                "leaf": "clip",
                "type": "Leaf"
            },
            {
                "data": "3:44092:-1",
                "leaf": "clip",
                "type": "Leaf"
            }
        ],
        "type": "AVSplit"
    },
    {
        "children": [
            {
                "data": "3:39056:-1",
                "leaf": "clip",
                "type": "Leaf"
            },
            {
                "data": "4:39056:-1",
                "leaf": "clip",
                "type": "Leaf"
            }
        ],
        "type": "AVSplit"
    },
    {
        "children": [
            {
                "data": "4:14142:-1",
                "leaf": "clip",
                "type": "Leaf"
            },
            {
                "data": "3:14142:-1",
                "leaf": "clip",
                "type": "Leaf"
            }
        ],
        "type": "AVSplit"
    },
    {
        "children": [
            {
                "data": "3:12821:-1",
                "leaf": "clip",
                "type": "Leaf"
            },
            {
                "data": "4:12821:-1",
                "leaf": "clip",
                "type": "Leaf"
            }
        ],
        "type": "AVSplit"
    },
    {
        "children": [
            {
                "data": "3:92459:-1",
                "leaf": "clip",
                "type": "Leaf"
            },
            {
                "data": "4:92459:-1",
                "leaf": "clip",
                "type": "Leaf"
            }
        ],
        "type": "AVSplit"
    },
    {
        "children": [
            {
                "data": "4:91318:-1",
                "leaf": "clip",
                "type": "Leaf"
            },
            {
                "data": "3:91318:-1",
                "leaf": "clip",
                "type": "Leaf"
            }
        ],
        "type": "AVSplit"
    },
    {
        "children": [
            {
                "data": "4:13968:-1",
                "leaf": "clip",
                "type": "Leaf"
            },
            {
                "data": "3:13968:-1",
                "leaf": "clip",
                "type": "Leaf"
            }
        ],
        "type": "AVSplit"
    },
    {
        "children": [
            {
                "data": "4:128725:-1",
                "leaf": "clip",
                "type": "Leaf"
            },
            {
                "data": "3:128725:-1",
                "leaf": "clip",
                "type": "Leaf"
            }
        ],
        "type": "AVSplit"
    },
    {
        "children": [
            {
                "data": "3:98833:-1",
                "leaf": "clip",
                "type": "Leaf"
            },
            {
                "data": "4:98833:-1",
                "leaf": "clip",
                "type": "Leaf"
            }
        ],
        "type": "AVSplit"
    },
    {
        "children": [
            {
                "data": "3:0:-1",
                "leaf": "clip",
                "type": "Leaf"
            },
            {
                "data": "4:0:-1",
                "leaf": "clip",
                "type": "Leaf"
            }
        ],
        "type": "AVSplit"
    },
    {
        "children": [
            {
                "data": "4:84476:-1",
                "leaf": "clip",
                "type": "Leaf"
            },
            {
                "data": "3:84476:-1",
                "leaf": "clip",
                "type": "Leaf"
            }
        ],
        "type": "AVSplit"
    },
    {
        "children": [
            {
                "data": "3:84572:-1",
                "leaf": "clip",
                "type": "Leaf"
            },
            {
                "data": "4:84572:-1",
                "leaf": "clip",
                "type": "Leaf"
            }
        ],
        "type": "AVSplit"
    },
    {
        "children": [
            {
                "data": "4:13960:-1",
                "leaf": "clip",
                "type": "Leaf"
            },
            {
                "data": "3:13960:-1",
                "leaf": "clip",
                "type": "Leaf"
            }
        ],
        "type": "AVSplit"
    },
    {
        "children": [
            {
                "data": "4:133514:-1",
                "leaf": "clip",
                "type": "Leaf"
            },
            {
                "data": "3:133514:-1",
                "leaf": "clip",
                "type": "Leaf"
            }
        ],
        "type": "AVSplit"
    },
    {
        "children": [
            {
                "data": "4:102767:-1",
                "leaf": "clip",
                "type": "Leaf"
            },
            {
                "data": "3:102767:-1",
                "leaf": "clip",
                "type": "Leaf"
            }
        ],
        "type": "AVSplit"
    },
    {
        "children": [
            {
                "data": "4:36441:-1",
                "leaf": "clip",
                "type": "Leaf"
            },
            {
                "data": "3:36441:-1",
                "leaf": "clip",
                "type": "Leaf"
            }
        ],
        "type": "AVSplit"
    },
    {
        "children": [
            {
                "data": "4:127574:-1",
                "leaf": "clip",
                "type": "Leaf"
            },
            {
                "data": "3:127574:-1",
                "leaf": "clip",
                "type": "Leaf"
            }
        ],
        "type": "AVSplit"
    },
    {
        "children": [
            {
                "data": "3:88795:-1",
                "leaf": "clip",
                "type": "Leaf"
            },
            {
                "data": "4:88795:-1",
                "leaf": "clip",
                "type": "Leaf"
            }
        ],
        "type": "AVSplit"
    },
    {
        "children": [
            {
                "data": "4:14076:-1",
                "leaf": "clip",
                "type": "Leaf"
            },
            {
                "data": "3:14076:-1",
                "leaf": "clip",
                "type": "Leaf"
            }
        ],
        "type": "AVSplit"
    },
    {
        "children": [
            {
                "data": "4:135480:-1",
                "leaf": "clip",
                "type": "Leaf"
            },
            {
                "data": "3:135480:-1",
                "leaf": "clip",
                "type": "Leaf"
            }
        ],
        "type": "AVSplit"
    }
]
</property>
  <property name="kdenlive:sequenceproperties.guides">[
]
</property>
  <track producer="producer0"/>
  <track producer="tractor0"/>
  <track producer="tractor1"/>
  <track producer="tractor2"/>
  <track producer="tractor3"/>
  <track producer="tractor4"/>
  <track producer="tractor5"/>
  <transition id="transition0">
   <property name="a_track">0</property>
   <property name="b_track">1</property>
   <property name="mlt_service">mix</property>
   <property name="kdenlive_id">mix</property>
   <property name="internal_added">237</property>
   <property name="always_active">1</property>
   <property name="accepts_blanks">1</property>
   <property name="sum">1</property>
  </transition>
  <transition id="transition1">
   <property name="a_track">0</property>
   <property name="b_track">2</property>
   <property name="mlt_service">mix</property>
   <property name="kdenlive_id">mix</property>
   <property name="internal_added">237</property>
   <property name="always_active">1</property>
   <property name="accepts_blanks">1</property>
   <property name="sum">1</property>
  </transition>
  <transition id="transition2">
   <property name="a_track">0</property>
   <property name="b_track">3</property>
   <property name="mlt_service">mix</property>
   <property name="kdenlive_id">mix</property>
   <property name="internal_added">237</property>
   <property name="always_active">1</property>
   <property name="accepts_blanks">1</property>
   <property name="sum">1</property>
  </transition>
  <transition id="transition3">
   <property name="a_track">0</property>
   <property name="b_track">4</property>
   <property name="mlt_service">mix</property>
   <property name="kdenlive_id">mix</property>
   <property name="internal_added">237</property>
   <property name="always_active">1</property>
   <property name="accepts_blanks">1</property>
   <property name="sum">1</property>
  </transition>
  <transition id="transition4">
   <property name="a_track">0</property>
   <property name="b_track">5</property>
   <property name="compositing">0</property>
   <property name="distort">0</property>
   <property name="rotate_center">0</property>
   <property name="mlt_service">qtblend</property>
   <property name="kdenlive_id">qtblend</property>
   <property name="internal_added">237</property>
   <property name="always_active">1</property>
  </transition>
  <transition id="transition5">
   <property name="a_track">0</property>
   <property name="b_track">6</property>
   <property name="compositing">0</property>
   <property name="distort">0</property>
   <property name="rotate_center">0</property>
   <property name="mlt_service">qtblend</property>
   <property name="kdenlive_id">qtblend</property>
   <property name="internal_added">237</property>
   <property name="always_active">1</property>
  </transition>
  <filter id="filter36">
   <property name="window">75</property>
   <property name="max_gain">20dB</property>
   <property name="mlt_service">volume</property>
   <property name="internal_added">237</property>
   <property name="disable">1</property>
  </filter>
  <filter id="filter37">
   <property name="channel">-1</property>
   <property name="mlt_service">panner</property>
   <property name="internal_added">237</property>
   <property name="start">0.5</property>
   <property name="disable">1</property>
  </filter>
  <filter id="filter38">
   <property name="mlt_service">avfilter.subtitles</property>
   <property name="av.alpha">1</property>
   <property name="internal_added">237</property>
   <property name="av.filename">Final Fantasy (2001) Restoration.kdenlive.ass</property>
  </filter>
 </tractor>
 <chain id="chain17" out="00:03:36.870">
  <property name="length">5200</property>
  <property name="eof">pause</property>
  <property name="resource">ost/Final_Fantasy_10_Lake_in_Ontario_OC_ReMix.mp3</property>
  <property name="mlt_service">avformat-novalidate</property>
  <property name="meta.media.nb_streams">2</property>
  <property name="meta.media.0.stream.type">audio</property>
  <property name="meta.media.0.codec.sample_fmt">fltp</property>
  <property name="meta.media.0.codec.sample_rate">44100</property>
  <property name="meta.media.0.codec.channels">2</property>
  <property name="meta.media.0.codec.layout">stereo</property>
  <property name="meta.media.0.codec.name">mp3float</property>
  <property name="meta.media.0.codec.long_name">MP3 (MPEG audio layer 3)</property>
  <property name="meta.media.0.codec.bit_rate">192000</property>
  <property name="meta.media.1.stream.type">video</property>
  <property name="meta.media.1.stream.frame_rate">90000</property>
  <property name="meta.media.1.stream.sample_aspect_ratio">0</property>
  <property name="meta.media.1.codec.width">700</property>
  <property name="meta.media.1.codec.height">700</property>
  <property name="meta.media.1.codec.rotate">0</property>
  <property name="meta.media.1.codec.pix_fmt">yuvj444p</property>
  <property name="meta.media.1.codec.sample_aspect_ratio">0</property>
  <property name="meta.media.1.codec.colorspace">601</property>
  <property name="meta.media.1.codec.name">mjpeg</property>
  <property name="meta.media.1.codec.long_name">MJPEG (Motion JPEG)</property>
  <property name="meta.media.1.codec.bit_rate">0</property>
  <property name="meta.attr.1.stream.comment.markup">Cover (front)</property>
  <property name="meta.attr.album.markup">ocremix.org</property>
  <property name="meta.attr.artist.markup">ilp0</property>
  <property name="meta.attr.album_artist.markup">OverClocked ReMix</property>
  <property name="meta.attr.comment.markup">Ilari Nieminen&#xd;
isniemin@cs.helsinki.fi&#xd;
http://last.fm/music/ilp0</property>
  <property name="meta.attr.composer.markup">Nobuo Uematsu</property>
  <property name="meta.attr.grouping.markup">Final Fantasy X</property>
  <property name="meta.attr.copyright.markup">Square</property>
  <property name="meta.attr.encoded_by.markup">Ilari Nieminen (isniemin@cs.helsinki.fi)</property>
  <property name="meta.attr.genre.markup">Game</property>
  <property name="meta.attr.compilation.markup">1</property>
  <property name="meta.attr.TOPE.markup">PlayStation 2</property>
  <property name="meta.attr.publisher.markup">OverClocked ReMix</property>
  <property name="meta.attr.SETSUBTITLE.markup">OCR01560</property>
  <property name="meta.attr.TIT3.markup">Lake in Ontario?</property>
  <property name="meta.attr.title.markup">Final Fantasy X "Lake in Ontario?" OC ReMix</property>
  <property name="meta.attr.track.markup">1560</property>
  <property name="meta.attr.date.markup">2007</property>
  <property name="seekable">1</property>
  <property name="meta.media.sample_aspect_num">1</property>
  <property name="meta.media.sample_aspect_den">1</property>
  <property name="audio_index">0</property>
  <property name="video_index">1</property>
  <property name="vstream">0</property>
  <property name="meta.media.frame_rate_num">90000</property>
  <property name="meta.media.frame_rate_den">1</property>
  <property name="meta.media.colorspace">601</property>
  <property name="meta.media.color_trc">2</property>
  <property name="meta.media.has_b_frames">0</property>
  <property name="meta.media.width">700</property>
  <property name="meta.media.height">700</property>
  <property name="meta.media.aspect_ratio">1</property>
  <property name="meta.media.color_range">full</property>
  <property name="astream">0</property>
  <property name="meta.media.top_field_first">0</property>
  <property name="meta.media.progressive">1</property>
  <property name="kdenlive:folderid">5</property>
  <property name="kdenlive:id">16</property>
  <property name="kdenlive:control_uuid">{706a63b7-ae4c-4049-b185-bc0848649b24}</property>
  <property name="mute_on_pause">0</property>
  <property name="kdenlive:clip_type">0</property>
  <property name="kdenlive:coverartstream">1</property>
  <property name="kdenlive:file_size">5292699</property>
  <property name="kdenlive:file_hash">33b8cca8fdd7cb417563e7cd62304a4d</property>
 </chain>
 <playlist id="main_bin">
  <property name="kdenlive:folder.-1.2">Sequences</property>
  <property name="kdenlive:folder.-1.5">ost</property>
  <property name="kdenlive:sequenceFolder">2</property>
  <property name="kdenlive:docproperties.activetimeline">{1db74e36-f274-4325-a5be-2dc513831cf7}</property>
  <property name="kdenlive:docproperties.audioChannels">2</property>
  <property name="kdenlive:docproperties.binsort">0</property>
  <property name="kdenlive:docproperties.browserurl">N:/Videos/Horror and SciFi/The Day After Tomorrow (2004) [2160p] [4K] [WEB] [HDR] [5.1] [YTS.MX]/</property>
  <property name="kdenlive:docproperties.documentid">1753192907790</property>
  <property name="kdenlive:docproperties.enableTimelineZone">0</property>
  <property name="kdenlive:docproperties.enableexternalproxy">0</property>
  <property name="kdenlive:docproperties.enableproxy">0</property>
  <property name="kdenlive:docproperties.externalproxyparams">./;;.LRV;./;;.MP4</property>
  <property name="kdenlive:docproperties.generateimageproxy">0</property>
  <property name="kdenlive:docproperties.generateproxy">0</property>
  <property name="kdenlive:docproperties.guidesCategories">[
    {
        "color": "#9b59b6",
        "comment": "Category 1",
        "index": 0
    },
    {
        "color": "#3daee9",
        "comment": "Category 2",
        "index": 1
    },
    {
        "color": "#1abc9c",
        "comment": "Category 3",
        "index": 2
    },
    {
        "color": "#1cdc9a",
        "comment": "Category 4",
        "index": 3
    },
    {
        "color": "#c9ce3b",
        "comment": "Category 5",
        "index": 4
    },
    {
        "color": "#fdbc4b",
        "comment": "Category 6",
        "index": 5
    },
    {
        "color": "#f39c1f",
        "comment": "Category 7",
        "index": 6
    },
    {
        "color": "#f47750",
        "comment": "Category 8",
        "index": 7
    },
    {
        "color": "#da4453",
        "comment": "Category 9",
        "index": 8
    }
]
</property>
  <property name="kdenlive:docproperties.kdenliveversion">25.04.2</property>
  <property name="kdenlive:docproperties.opensequences">{1db74e36-f274-4325-a5be-2dc513831cf7}</property>
  <property name="kdenlive:docproperties.previewextension"/>
  <property name="kdenlive:docproperties.previewparameters"/>
  <property name="kdenlive:docproperties.profile">C:/Users/kado/AppData/Roaming/kdenlive/profiles/customprofile12</property>
  <property name="kdenlive:docproperties.proxyextension"/>
  <property name="kdenlive:docproperties.proxyimageminsize">2000</property>
  <property name="kdenlive:docproperties.proxyimagesize">800</property>
  <property name="kdenlive:docproperties.proxyminsize">1000</property>
  <property name="kdenlive:docproperties.proxyparams"/>
  <property name="kdenlive:docproperties.proxyresize">640</property>
  <property name="kdenlive:docproperties.seekOffset">30000</property>
  <property name="kdenlive:docproperties.sessionid">{15b9103a-5e1c-4e87-99d3-23d5bf887716}</property>
  <property name="kdenlive:docproperties.uuid">{1db74e36-f274-4325-a5be-2dc513831cf7}</property>
  <property name="kdenlive:docproperties.version">1.1</property>
  <property name="kdenlive:expandedFolders">5</property>
  <property name="kdenlive:binZoom">4</property>
  <property name="kdenlive:extraBins">project_bin:-1:0</property>
  <property name="kdenlive:documentnotes"/>
  <property name="kdenlive:documentnotesversion">2</property>
  <property name="xml_retain">1</property>
  <entry in="00:00:00.000" out="01:45:58.350" producer="chain4"/>
  <entry in="00:00:00.000" out="00:01:50.133" producer="chain5"/>
  <entry in="00:00:00.000" out="00:02:46.296" producer="chain6"/>
  <entry in="00:00:00.000" out="00:05:27.819" producer="chain9"/>
  <entry in="00:00:00.000" out="00:03:59.810" producer="chain8"/>
  <entry in="00:00:00.000" out="00:04:18.227" producer="chain10"/>
  <entry in="00:00:00.000" out="00:01:00.334" producer="chain11"/>
  <entry in="00:00:00.000" out="00:01:06.673" producer="chain12"/>
  <entry in="00:00:00.000" out="00:00:52.511" producer="chain13"/>
  <entry in="00:00:00.000" out="00:04:05.797" producer="chain14"/>
  <entry in="00:00:00.000" out="00:05:41.041" producer="chain15"/>
  <entry in="00:00:00.000" out="01:45:58.350" producer="tractor6"/>
  <entry in="00:00:00.000" out="00:03:36.870" producer="chain17"/>
 </playlist>
 <tractor id="tractor7" in="00:00:00.000" out="01:45:58.350">
  <property name="kdenlive:projectTractor">1</property>
  <track in="00:00:00.000" out="01:45:58.350" producer="tractor6"/>
 </tractor>
</mlt>
