<?xml version='1.0' encoding='utf-8'?>
<mlt LC_NUMERIC="en_US.UTF-8" producer="main_bin" root="N:/Videos/FanEdits/FanMixes/Final Fantasy (2001) - The Phantom Menace" version="7.33.0">
 <profile colorspace="709" description="1916x1036 23.98fps" display_aspect_den="259" display_aspect_num="479" frame_rate_den="1001" frame_rate_num="24000" height="1036" progressive="1" sample_aspect_den="1" sample_aspect_num="1" width="1916"/>
 <chain id="chain4" out="01:45:58.350">
  <property name="length">152448</property>
  <property name="eof">pause</property>
  <property name="resource">N:/Videos/Horror and SciFi/Final Fantasy/Final.Fantasy.The.Spirits.Within.2001.1080p.BluRay.HEVC.DTS-LiNUX/Final.Fantasy.The.Spirits.Within.2001.1080p.BluRay.HEVC.DTS-LiNUX.mkv</property>
  <property name="mlt_service">avformat-novalidate</property>
  <property name="meta.media.nb_streams">37</property>
  <property name="meta.media.0.stream.type">video</property>
  <property name="meta.media.0.stream.frame_rate">23.976</property>
  <property name="meta.media.0.stream.sample_aspect_ratio">1</property>
  <property name="meta.media.0.codec.width">1916</property>
  <property name="meta.media.0.codec.height">1036</property>
  <property name="meta.media.0.codec.rotate">0</property>
  <property name="meta.media.0.codec.pix_fmt">yuv420p10le</property>
  <property name="meta.media.0.codec.sample_aspect_ratio">1</property>
  <property name="meta.media.0.codec.colorspace">709</property>
  <property name="meta.media.0.codec.color_trc">1</property>
  <property name="meta.media.0.codec.name">hevc</property>
  <property name="meta.media.0.codec.long_name">HEVC (High Efficiency Video Coding)</property>
  <property name="meta.media.0.codec.bit_rate">0</property>
  <property name="meta.attr.0.stream.BPS-eng.markup">4999776</property>
  <property name="meta.attr.0.stream.DURATION-eng.markup">01:45:58.352000000</property>
  <property name="meta.attr.0.stream.NUMBER_OF_FRAMES-eng.markup">152448</property>
  <property name="meta.attr.0.stream.NUMBER_OF_BYTES-eng.markup">3973792365</property>
  <property name="meta.attr.0.stream._STATISTICS_WRITING_APP-eng.markup">mkvmerge v40.0.0 ('Old Town Road + Pony') 64-bit</property>
  <property name="meta.attr.0.stream._STATISTICS_WRITING_DATE_UTC-eng.markup">2019-12-29 15:49:45</property>
  <property name="meta.attr.0.stream._STATISTICS_TAGS-eng.markup">BPS DURATION NUMBER_OF_FRAMES NUMBER_OF_BYTES</property>
  <property name="meta.media.1.stream.type">audio</property>
  <property name="meta.media.1.codec.sample_fmt">fltp</property>
  <property name="meta.media.1.codec.sample_rate">48000</property>
  <property name="meta.media.1.codec.channels">6</property>
  <property name="meta.media.1.codec.layout">5.1(side)</property>
  <property name="meta.media.1.codec.name">dca</property>
  <property name="meta.media.1.codec.long_name">DCA (DTS Coherent Acoustics)</property>
  <property name="meta.media.1.codec.bit_rate">1411200</property>
  <property name="meta.attr.1.stream.language.markup">eng</property>
  <property name="meta.attr.1.stream.title.markup">Surround</property>
  <property name="meta.attr.1.stream.BPS-eng.markup">1412999</property>
  <property name="meta.attr.1.stream.DURATION-eng.markup">01:45:58.358000000</property>
  <property name="meta.attr.1.stream.NUMBER_OF_FRAMES-eng.markup">596096</property>
  <property name="meta.attr.1.stream.NUMBER_OF_BYTES-eng.markup">1123044864</property>
  <property name="meta.attr.1.stream._STATISTICS_WRITING_APP-eng.markup">mkvmerge v40.0.0 ('Old Town Road + Pony') 64-bit</property>
  <property name="meta.attr.1.stream._STATISTICS_WRITING_DATE_UTC-eng.markup">2019-12-29 15:49:45</property>
  <property name="meta.attr.1.stream._STATISTICS_TAGS-eng.markup">BPS DURATION NUMBER_OF_FRAMES NUMBER_OF_BYTES</property>
  <property name="meta.media.2.codec.name">pgssub</property>
  <property name="meta.media.2.codec.long_name">HDMV Presentation Graphic Stream subtitles</property>
  <property name="meta.media.2.codec.bit_rate">0</property>
  <property name="meta.attr.2.stream.language.markup">eng</property>
  <property name="meta.attr.2.stream.title.markup">English</property>
  <property name="meta.attr.2.stream.BPS-eng.markup">24594</property>
  <property name="meta.attr.2.stream.DURATION-eng.markup">01:33:45.954000000</property>
  <property name="meta.attr.2.stream.NUMBER_OF_FRAMES-eng.markup">1686</property>
  <property name="meta.attr.2.stream.NUMBER_OF_BYTES-eng.markup">17296140</property>
  <property name="meta.attr.2.stream._STATISTICS_WRITING_APP-eng.markup">mkvmerge v40.0.0 ('Old Town Road + Pony') 64-bit</property>
  <property name="meta.attr.2.stream._STATISTICS_WRITING_DATE_UTC-eng.markup">2019-12-29 15:49:45</property>
  <property name="meta.attr.2.stream._STATISTICS_TAGS-eng.markup">BPS DURATION NUMBER_OF_FRAMES NUMBER_OF_BYTES</property>
  <property name="meta.media.3.codec.name">pgssub</property>
  <property name="meta.media.3.codec.long_name">HDMV Presentation Graphic Stream subtitles</property>
  <property name="meta.media.3.codec.bit_rate">0</property>
  <property name="meta.attr.3.stream.language.markup">eng</property>
  <property name="meta.attr.3.stream.title.markup">English SDH</property>
  <property name="meta.attr.3.stream.BPS-eng.markup">32739</property>
  <property name="meta.attr.3.stream.DURATION-eng.markup">01:41:48.102000000</property>
  <property name="meta.attr.3.stream.NUMBER_OF_FRAMES-eng.markup">2103</property>
  <property name="meta.attr.3.stream.NUMBER_OF_BYTES-eng.markup">24997093</property>
  <property name="meta.attr.3.stream._STATISTICS_WRITING_APP-eng.markup">mkvmerge v40.0.0 ('Old Town Road + Pony') 64-bit</property>
  <property name="meta.attr.3.stream._STATISTICS_WRITING_DATE_UTC-eng.markup">2019-12-29 15:49:45</property>
  <property name="meta.attr.3.stream._STATISTICS_TAGS-eng.markup">BPS DURATION NUMBER_OF_FRAMES NUMBER_OF_BYTES</property>
  <property name="meta.media.4.codec.name">pgssub</property>
  <property name="meta.media.4.codec.long_name">HDMV Presentation Graphic Stream subtitles</property>
  <property name="meta.media.4.codec.bit_rate">0</property>
  <property name="meta.attr.4.stream.language.markup">ara</property>
  <property name="meta.attr.4.stream.title.markup">Arabic</property>
  <property name="meta.attr.4.stream.BPS-eng.markup">13581</property>
  <property name="meta.attr.4.stream.DURATION-eng.markup">01:33:59.217000000</property>
  <property name="meta.attr.4.stream.NUMBER_OF_FRAMES-eng.markup">1690</property>
  <property name="meta.attr.4.stream.NUMBER_OF_BYTES-eng.markup">9573918</property>
  <property name="meta.attr.4.stream._STATISTICS_WRITING_APP-eng.markup">mkvmerge v40.0.0 ('Old Town Road + Pony') 64-bit</property>
  <property name="meta.attr.4.stream._STATISTICS_WRITING_DATE_UTC-eng.markup">2019-12-29 15:49:45</property>
  <property name="meta.attr.4.stream._STATISTICS_TAGS-eng.markup">BPS DURATION NUMBER_OF_FRAMES NUMBER_OF_BYTES</property>
  <property name="meta.media.5.codec.name">pgssub</property>
  <property name="meta.media.5.codec.long_name">HDMV Presentation Graphic Stream subtitles</property>
  <property name="meta.media.5.codec.bit_rate">0</property>
  <property name="meta.attr.5.stream.language.markup">bul</property>
  <property name="meta.attr.5.stream.title.markup">Bulgarian</property>
  <property name="meta.attr.5.stream.BPS-eng.markup">23121</property>
  <property name="meta.attr.5.stream.DURATION-eng.markup">01:35:32.310000000</property>
  <property name="meta.attr.5.stream.NUMBER_OF_FRAMES-eng.markup">1656</property>
  <property name="meta.attr.5.stream.NUMBER_OF_BYTES-eng.markup">16567112</property>
  <property name="meta.attr.5.stream._STATISTICS_WRITING_APP-eng.markup">mkvmerge v40.0.0 ('Old Town Road + Pony') 64-bit</property>
  <property name="meta.attr.5.stream._STATISTICS_WRITING_DATE_UTC-eng.markup">2019-12-29 15:49:45</property>
  <property name="meta.attr.5.stream._STATISTICS_TAGS-eng.markup">BPS DURATION NUMBER_OF_FRAMES NUMBER_OF_BYTES</property>
  <property name="meta.media.6.codec.name">pgssub</property>
  <property name="meta.media.6.codec.long_name">HDMV Presentation Graphic Stream subtitles</property>
  <property name="meta.media.6.codec.bit_rate">0</property>
  <property name="meta.attr.6.stream.language.markup">chi</property>
  <property name="meta.attr.6.stream.title.markup">Cantonese</property>
  <property name="meta.attr.6.stream.BPS-eng.markup">19607</property>
  <property name="meta.attr.6.stream.DURATION-eng.markup">01:42:59.006000000</property>
  <property name="meta.attr.6.stream.NUMBER_OF_FRAMES-eng.markup">1709</property>
  <property name="meta.attr.6.stream.NUMBER_OF_BYTES-eng.markup">15144515</property>
  <property name="meta.attr.6.stream._STATISTICS_WRITING_APP-eng.markup">mkvmerge v40.0.0 ('Old Town Road + Pony') 64-bit</property>
  <property name="meta.attr.6.stream._STATISTICS_WRITING_DATE_UTC-eng.markup">2019-12-29 15:49:45</property>
  <property name="meta.attr.6.stream._STATISTICS_TAGS-eng.markup">BPS DURATION NUMBER_OF_FRAMES NUMBER_OF_BYTES</property>
  <property name="meta.media.7.codec.name">pgssub</property>
  <property name="meta.media.7.codec.long_name">HDMV Presentation Graphic Stream subtitles</property>
  <property name="meta.media.7.codec.bit_rate">0</property>
  <property name="meta.attr.7.stream.language.markup">chi</property>
  <property name="meta.attr.7.stream.title.markup">Mandarin</property>
  <property name="meta.attr.7.stream.BPS-eng.markup">21248</property>
  <property name="meta.attr.7.stream.DURATION-eng.markup">01:33:59.258000000</property>
  <property name="meta.attr.7.stream.NUMBER_OF_FRAMES-eng.markup">1704</property>
  <property name="meta.attr.7.stream.NUMBER_OF_BYTES-eng.markup">14978356</property>
  <property name="meta.attr.7.stream._STATISTICS_WRITING_APP-eng.markup">mkvmerge v40.0.0 ('Old Town Road + Pony') 64-bit</property>
  <property name="meta.attr.7.stream._STATISTICS_WRITING_DATE_UTC-eng.markup">2019-12-29 15:49:45</property>
  <property name="meta.attr.7.stream._STATISTICS_TAGS-eng.markup">BPS DURATION NUMBER_OF_FRAMES NUMBER_OF_BYTES</property>
  <property name="meta.media.8.codec.name">pgssub</property>
  <property name="meta.media.8.codec.long_name">HDMV Presentation Graphic Stream subtitles</property>
  <property name="meta.media.8.codec.bit_rate">0</property>
  <property name="meta.attr.8.stream.language.markup">hrv</property>
  <property name="meta.attr.8.stream.title.markup">Croatian</property>
  <property name="meta.attr.8.stream.BPS-eng.markup">18941</property>
  <property name="meta.attr.8.stream.DURATION-eng.markup">01:33:59.383000000</property>
  <property name="meta.attr.8.stream.NUMBER_OF_FRAMES-eng.markup">1355</property>
  <property name="meta.attr.8.stream.NUMBER_OF_BYTES-eng.markup">13352216</property>
  <property name="meta.attr.8.stream._STATISTICS_WRITING_APP-eng.markup">mkvmerge v40.0.0 ('Old Town Road + Pony') 64-bit</property>
  <property name="meta.attr.8.stream._STATISTICS_WRITING_DATE_UTC-eng.markup">2019-12-29 15:49:45</property>
  <property name="meta.attr.8.stream._STATISTICS_TAGS-eng.markup">BPS DURATION NUMBER_OF_FRAMES NUMBER_OF_BYTES</property>
  <property name="meta.media.9.codec.name">pgssub</property>
  <property name="meta.media.9.codec.long_name">HDMV Presentation Graphic Stream subtitles</property>
  <property name="meta.media.9.codec.bit_rate">0</property>
  <property name="meta.attr.9.stream.language.markup">cze</property>
  <property name="meta.attr.9.stream.title.markup">Czech</property>
  <property name="meta.attr.9.stream.BPS-eng.markup">21071</property>
  <property name="meta.attr.9.stream.DURATION-eng.markup">01:33:59.300000000</property>
  <property name="meta.attr.9.stream.NUMBER_OF_FRAMES-eng.markup">1688</property>
  <property name="meta.attr.9.stream.NUMBER_OF_BYTES-eng.markup">14853464</property>
  <property name="meta.attr.9.stream._STATISTICS_WRITING_APP-eng.markup">mkvmerge v40.0.0 ('Old Town Road + Pony') 64-bit</property>
  <property name="meta.attr.9.stream._STATISTICS_WRITING_DATE_UTC-eng.markup">2019-12-29 15:49:45</property>
  <property name="meta.attr.9.stream._STATISTICS_TAGS-eng.markup">BPS DURATION NUMBER_OF_FRAMES NUMBER_OF_BYTES</property>
  <property name="meta.media.10.codec.name">pgssub</property>
  <property name="meta.media.10.codec.long_name">HDMV Presentation Graphic Stream subtitles</property>
  <property name="meta.media.10.codec.bit_rate">0</property>
  <property name="meta.attr.10.stream.language.markup">dan</property>
  <property name="meta.attr.10.stream.title.markup">Danish</property>
  <property name="meta.attr.10.stream.BPS-eng.markup">20546</property>
  <property name="meta.attr.10.stream.DURATION-eng.markup">01:33:59.717000000</property>
  <property name="meta.attr.10.stream.NUMBER_OF_FRAMES-eng.markup">1184</property>
  <property name="meta.attr.10.stream.NUMBER_OF_BYTES-eng.markup">14484283</property>
  <property name="meta.attr.10.stream._STATISTICS_WRITING_APP-eng.markup">mkvmerge v40.0.0 ('Old Town Road + Pony') 64-bit</property>
  <property name="meta.attr.10.stream._STATISTICS_WRITING_DATE_UTC-eng.markup">2019-12-29 15:49:45</property>
  <property name="meta.attr.10.stream._STATISTICS_TAGS-eng.markup">BPS DURATION NUMBER_OF_FRAMES NUMBER_OF_BYTES</property>
  <property name="meta.media.11.codec.name">pgssub</property>
  <property name="meta.media.11.codec.long_name">HDMV Presentation Graphic Stream subtitles</property>
  <property name="meta.media.11.codec.bit_rate">0</property>
  <property name="meta.attr.11.stream.language.markup">dut</property>
  <property name="meta.attr.11.stream.title.markup">Dutch</property>
  <property name="meta.attr.11.stream.BPS-eng.markup">23897</property>
  <property name="meta.attr.11.stream.DURATION-eng.markup">01:33:59.675000000</property>
  <property name="meta.attr.11.stream.NUMBER_OF_FRAMES-eng.markup">1258</property>
  <property name="meta.attr.11.stream.NUMBER_OF_BYTES-eng.markup">16846710</property>
  <property name="meta.attr.11.stream._STATISTICS_WRITING_APP-eng.markup">mkvmerge v40.0.0 ('Old Town Road + Pony') 64-bit</property>
  <property name="meta.attr.11.stream._STATISTICS_WRITING_DATE_UTC-eng.markup">2019-12-29 15:49:45</property>
  <property name="meta.attr.11.stream._STATISTICS_TAGS-eng.markup">BPS DURATION NUMBER_OF_FRAMES NUMBER_OF_BYTES</property>
  <property name="meta.media.12.codec.name">pgssub</property>
  <property name="meta.media.12.codec.long_name">HDMV Presentation Graphic Stream subtitles</property>
  <property name="meta.media.12.codec.bit_rate">0</property>
  <property name="meta.attr.12.stream.language.markup">fin</property>
  <property name="meta.attr.12.stream.title.markup">Finnish</property>
  <property name="meta.attr.12.stream.BPS-eng.markup">20857</property>
  <property name="meta.attr.12.stream.DURATION-eng.markup">01:34:00.718000000</property>
  <property name="meta.attr.12.stream.NUMBER_OF_FRAMES-eng.markup">1209</property>
  <property name="meta.attr.12.stream.NUMBER_OF_BYTES-eng.markup">14706553</property>
  <property name="meta.attr.12.stream._STATISTICS_WRITING_APP-eng.markup">mkvmerge v40.0.0 ('Old Town Road + Pony') 64-bit</property>
  <property name="meta.attr.12.stream._STATISTICS_WRITING_DATE_UTC-eng.markup">2019-12-29 15:49:45</property>
  <property name="meta.attr.12.stream._STATISTICS_TAGS-eng.markup">BPS DURATION NUMBER_OF_FRAMES NUMBER_OF_BYTES</property>
  <property name="meta.media.13.codec.name">pgssub</property>
  <property name="meta.media.13.codec.long_name">HDMV Presentation Graphic Stream subtitles</property>
  <property name="meta.media.13.codec.bit_rate">0</property>
  <property name="meta.attr.13.stream.language.markup">fre</property>
  <property name="meta.attr.13.stream.title.markup">French</property>
  <property name="meta.attr.13.stream.BPS-eng.markup">21198</property>
  <property name="meta.attr.13.stream.DURATION-eng.markup">01:43:41.006000000</property>
  <property name="meta.attr.13.stream.NUMBER_OF_FRAMES-eng.markup">1642</property>
  <property name="meta.attr.13.stream.NUMBER_OF_BYTES-eng.markup">16484862</property>
  <property name="meta.attr.13.stream._STATISTICS_WRITING_APP-eng.markup">mkvmerge v40.0.0 ('Old Town Road + Pony') 64-bit</property>
  <property name="meta.attr.13.stream._STATISTICS_WRITING_DATE_UTC-eng.markup">2019-12-29 15:49:45</property>
  <property name="meta.attr.13.stream._STATISTICS_TAGS-eng.markup">BPS DURATION NUMBER_OF_FRAMES NUMBER_OF_BYTES</property>
  <property name="meta.media.14.codec.name">pgssub</property>
  <property name="meta.media.14.codec.long_name">HDMV Presentation Graphic Stream subtitles</property>
  <property name="meta.media.14.codec.bit_rate">0</property>
  <property name="meta.attr.14.stream.language.markup">ger</property>
  <property name="meta.attr.14.stream.title.markup">German</property>
  <property name="meta.attr.14.stream.BPS-eng.markup">24239</property>
  <property name="meta.attr.14.stream.DURATION-eng.markup">01:34:00.260000000</property>
  <property name="meta.attr.14.stream.NUMBER_OF_FRAMES-eng.markup">1493</property>
  <property name="meta.attr.14.stream.NUMBER_OF_BYTES-eng.markup">17089540</property>
  <property name="meta.attr.14.stream._STATISTICS_WRITING_APP-eng.markup">mkvmerge v40.0.0 ('Old Town Road + Pony') 64-bit</property>
  <property name="meta.attr.14.stream._STATISTICS_WRITING_DATE_UTC-eng.markup">2019-12-29 15:49:45</property>
  <property name="meta.attr.14.stream._STATISTICS_TAGS-eng.markup">BPS DURATION NUMBER_OF_FRAMES NUMBER_OF_BYTES</property>
  <property name="meta.media.15.codec.name">pgssub</property>
  <property name="meta.media.15.codec.long_name">HDMV Presentation Graphic Stream subtitles</property>
  <property name="meta.media.15.codec.bit_rate">0</property>
  <property name="meta.attr.15.stream.language.markup">gre</property>
  <property name="meta.attr.15.stream.title.markup">Greek</property>
  <property name="meta.attr.15.stream.BPS-eng.markup">24963</property>
  <property name="meta.attr.15.stream.DURATION-eng.markup">01:33:59.300000000</property>
  <property name="meta.attr.15.stream.NUMBER_OF_FRAMES-eng.markup">1694</property>
  <property name="meta.attr.15.stream.NUMBER_OF_BYTES-eng.markup">17597238</property>
  <property name="meta.attr.15.stream._STATISTICS_WRITING_APP-eng.markup">mkvmerge v40.0.0 ('Old Town Road + Pony') 64-bit</property>
  <property name="meta.attr.15.stream._STATISTICS_WRITING_DATE_UTC-eng.markup">2019-12-29 15:49:45</property>
  <property name="meta.attr.15.stream._STATISTICS_TAGS-eng.markup">BPS DURATION NUMBER_OF_FRAMES NUMBER_OF_BYTES</property>
  <property name="meta.media.16.codec.name">pgssub</property>
  <property name="meta.media.16.codec.long_name">HDMV Presentation Graphic Stream subtitles</property>
  <property name="meta.media.16.codec.bit_rate">0</property>
  <property name="meta.attr.16.stream.language.markup">heb</property>
  <property name="meta.attr.16.stream.title.markup">Hebrew</property>
  <property name="meta.attr.16.stream.BPS-eng.markup">18470</property>
  <property name="meta.attr.16.stream.DURATION-eng.markup">01:33:59.217000000</property>
  <property name="meta.attr.16.stream.NUMBER_OF_FRAMES-eng.markup">1688</property>
  <property name="meta.attr.16.stream.NUMBER_OF_BYTES-eng.markup">13019656</property>
  <property name="meta.attr.16.stream._STATISTICS_WRITING_APP-eng.markup">mkvmerge v40.0.0 ('Old Town Road + Pony') 64-bit</property>
  <property name="meta.attr.16.stream._STATISTICS_WRITING_DATE_UTC-eng.markup">2019-12-29 15:49:45</property>
  <property name="meta.attr.16.stream._STATISTICS_TAGS-eng.markup">BPS DURATION NUMBER_OF_FRAMES NUMBER_OF_BYTES</property>
  <property name="meta.media.17.codec.name">pgssub</property>
  <property name="meta.media.17.codec.long_name">HDMV Presentation Graphic Stream subtitles</property>
  <property name="meta.media.17.codec.bit_rate">0</property>
  <property name="meta.attr.17.stream.language.markup">hin</property>
  <property name="meta.attr.17.stream.title.markup">Hindi</property>
  <property name="meta.attr.17.stream.BPS-eng.markup">21017</property>
  <property name="meta.attr.17.stream.DURATION-eng.markup">01:33:59.300000000</property>
  <property name="meta.attr.17.stream.NUMBER_OF_FRAMES-eng.markup">1690</property>
  <property name="meta.attr.17.stream.NUMBER_OF_BYTES-eng.markup">14815519</property>
  <property name="meta.attr.17.stream._STATISTICS_WRITING_APP-eng.markup">mkvmerge v40.0.0 ('Old Town Road + Pony') 64-bit</property>
  <property name="meta.attr.17.stream._STATISTICS_WRITING_DATE_UTC-eng.markup">2019-12-29 15:49:45</property>
  <property name="meta.attr.17.stream._STATISTICS_TAGS-eng.markup">BPS DURATION NUMBER_OF_FRAMES NUMBER_OF_BYTES</property>
  <property name="meta.media.18.codec.name">pgssub</property>
  <property name="meta.media.18.codec.long_name">HDMV Presentation Graphic Stream subtitles</property>
  <property name="meta.media.18.codec.bit_rate">0</property>
  <property name="meta.attr.18.stream.language.markup">hun</property>
  <property name="meta.attr.18.stream.title.markup">Hungarian</property>
  <property name="meta.attr.18.stream.BPS-eng.markup">19042</property>
  <property name="meta.attr.18.stream.DURATION-eng.markup">01:33:59.175000000</property>
  <property name="meta.attr.18.stream.NUMBER_OF_FRAMES-eng.markup">1690</property>
  <property name="meta.attr.18.stream.NUMBER_OF_BYTES-eng.markup">13423018</property>
  <property name="meta.attr.18.stream._STATISTICS_WRITING_APP-eng.markup">mkvmerge v40.0.0 ('Old Town Road + Pony') 64-bit</property>
  <property name="meta.attr.18.stream._STATISTICS_WRITING_DATE_UTC-eng.markup">2019-12-29 15:49:45</property>
  <property name="meta.attr.18.stream._STATISTICS_TAGS-eng.markup">BPS DURATION NUMBER_OF_FRAMES NUMBER_OF_BYTES</property>
  <property name="meta.media.19.codec.name">pgssub</property>
  <property name="meta.media.19.codec.long_name">HDMV Presentation Graphic Stream subtitles</property>
  <property name="meta.media.19.codec.bit_rate">0</property>
  <property name="meta.attr.19.stream.language.markup">ice</property>
  <property name="meta.attr.19.stream.title.markup">Icelandic</property>
  <property name="meta.attr.19.stream.BPS-eng.markup">23876</property>
  <property name="meta.attr.19.stream.DURATION-eng.markup">01:33:59.217000000</property>
  <property name="meta.attr.19.stream.NUMBER_OF_FRAMES-eng.markup">1688</property>
  <property name="meta.attr.19.stream.NUMBER_OF_BYTES-eng.markup">16830422</property>
  <property name="meta.attr.19.stream._STATISTICS_WRITING_APP-eng.markup">mkvmerge v40.0.0 ('Old Town Road + Pony') 64-bit</property>
  <property name="meta.attr.19.stream._STATISTICS_WRITING_DATE_UTC-eng.markup">2019-12-29 15:49:45</property>
  <property name="meta.attr.19.stream._STATISTICS_TAGS-eng.markup">BPS DURATION NUMBER_OF_FRAMES NUMBER_OF_BYTES</property>
  <property name="meta.media.20.codec.name">pgssub</property>
  <property name="meta.media.20.codec.long_name">HDMV Presentation Graphic Stream subtitles</property>
  <property name="meta.media.20.codec.bit_rate">0</property>
  <property name="meta.attr.20.stream.language.markup">ind</property>
  <property name="meta.attr.20.stream.title.markup">Indonesian</property>
  <property name="meta.attr.20.stream.BPS-eng.markup">26444</property>
  <property name="meta.attr.20.stream.DURATION-eng.markup">01:33:59.300000000</property>
  <property name="meta.attr.20.stream.NUMBER_OF_FRAMES-eng.markup">1662</property>
  <property name="meta.attr.20.stream.NUMBER_OF_BYTES-eng.markup">18640975</property>
  <property name="meta.attr.20.stream._STATISTICS_WRITING_APP-eng.markup">mkvmerge v40.0.0 ('Old Town Road + Pony') 64-bit</property>
  <property name="meta.attr.20.stream._STATISTICS_WRITING_DATE_UTC-eng.markup">2019-12-29 15:49:45</property>
  <property name="meta.attr.20.stream._STATISTICS_TAGS-eng.markup">BPS DURATION NUMBER_OF_FRAMES NUMBER_OF_BYTES</property>
  <property name="meta.media.21.codec.name">pgssub</property>
  <property name="meta.media.21.codec.long_name">HDMV Presentation Graphic Stream subtitles</property>
  <property name="meta.media.21.codec.bit_rate">0</property>
  <property name="meta.attr.21.stream.language.markup">ita</property>
  <property name="meta.attr.21.stream.title.markup">Italian</property>
  <property name="meta.attr.21.stream.BPS-eng.markup">23573</property>
  <property name="meta.attr.21.stream.DURATION-eng.markup">01:42:58.922000000</property>
  <property name="meta.attr.21.stream.NUMBER_OF_FRAMES-eng.markup">1698</property>
  <property name="meta.attr.21.stream.NUMBER_OF_BYTES-eng.markup">18207609</property>
  <property name="meta.attr.21.stream._STATISTICS_WRITING_APP-eng.markup">mkvmerge v40.0.0 ('Old Town Road + Pony') 64-bit</property>
  <property name="meta.attr.21.stream._STATISTICS_WRITING_DATE_UTC-eng.markup">2019-12-29 15:49:45</property>
  <property name="meta.attr.21.stream._STATISTICS_TAGS-eng.markup">BPS DURATION NUMBER_OF_FRAMES NUMBER_OF_BYTES</property>
  <property name="meta.media.22.codec.name">pgssub</property>
  <property name="meta.media.22.codec.long_name">HDMV Presentation Graphic Stream subtitles</property>
  <property name="meta.media.22.codec.bit_rate">0</property>
  <property name="meta.attr.22.stream.language.markup">kor</property>
  <property name="meta.attr.22.stream.title.markup">Korean</property>
  <property name="meta.attr.22.stream.BPS-eng.markup">19788</property>
  <property name="meta.attr.22.stream.DURATION-eng.markup">01:35:32.477000000</property>
  <property name="meta.attr.22.stream.NUMBER_OF_FRAMES-eng.markup">1708</property>
  <property name="meta.attr.22.stream.NUMBER_OF_BYTES-eng.markup">14179403</property>
  <property name="meta.attr.22.stream._STATISTICS_WRITING_APP-eng.markup">mkvmerge v40.0.0 ('Old Town Road + Pony') 64-bit</property>
  <property name="meta.attr.22.stream._STATISTICS_WRITING_DATE_UTC-eng.markup">2019-12-29 15:49:45</property>
  <property name="meta.attr.22.stream._STATISTICS_TAGS-eng.markup">BPS DURATION NUMBER_OF_FRAMES NUMBER_OF_BYTES</property>
  <property name="meta.media.23.codec.name">pgssub</property>
  <property name="meta.media.23.codec.long_name">HDMV Presentation Graphic Stream subtitles</property>
  <property name="meta.media.23.codec.bit_rate">0</property>
  <property name="meta.attr.23.stream.language.markup">nor</property>
  <property name="meta.attr.23.stream.title.markup">Norwegian</property>
  <property name="meta.attr.23.stream.BPS-eng.markup">20066</property>
  <property name="meta.attr.23.stream.DURATION-eng.markup">01:33:59.675000000</property>
  <property name="meta.attr.23.stream.NUMBER_OF_FRAMES-eng.markup">1184</property>
  <property name="meta.attr.23.stream.NUMBER_OF_BYTES-eng.markup">14146014</property>
  <property name="meta.attr.23.stream._STATISTICS_WRITING_APP-eng.markup">mkvmerge v40.0.0 ('Old Town Road + Pony') 64-bit</property>
  <property name="meta.attr.23.stream._STATISTICS_WRITING_DATE_UTC-eng.markup">2019-12-29 15:49:45</property>
  <property name="meta.attr.23.stream._STATISTICS_TAGS-eng.markup">BPS DURATION NUMBER_OF_FRAMES NUMBER_OF_BYTES</property>
  <property name="meta.media.24.codec.name">pgssub</property>
  <property name="meta.media.24.codec.long_name">HDMV Presentation Graphic Stream subtitles</property>
  <property name="meta.media.24.codec.bit_rate">0</property>
  <property name="meta.attr.24.stream.language.markup">pol</property>
  <property name="meta.attr.24.stream.title.markup">Polish</property>
  <property name="meta.attr.24.stream.BPS-eng.markup">18199</property>
  <property name="meta.attr.24.stream.DURATION-eng.markup">01:33:59.300000000</property>
  <property name="meta.attr.24.stream.NUMBER_OF_FRAMES-eng.markup">1688</property>
  <property name="meta.attr.24.stream.NUMBER_OF_BYTES-eng.markup">12829046</property>
  <property name="meta.attr.24.stream._STATISTICS_WRITING_APP-eng.markup">mkvmerge v40.0.0 ('Old Town Road + Pony') 64-bit</property>
  <property name="meta.attr.24.stream._STATISTICS_WRITING_DATE_UTC-eng.markup">2019-12-29 15:49:45</property>
  <property name="meta.attr.24.stream._STATISTICS_TAGS-eng.markup">BPS DURATION NUMBER_OF_FRAMES NUMBER_OF_BYTES</property>
  <property name="meta.media.25.codec.name">pgssub</property>
  <property name="meta.media.25.codec.long_name">HDMV Presentation Graphic Stream subtitles</property>
  <property name="meta.media.25.codec.bit_rate">0</property>
  <property name="meta.attr.25.stream.language.markup">por</property>
  <property name="meta.attr.25.stream.title.markup">Brazilian Portuguese</property>
  <property name="meta.attr.25.stream.BPS-eng.markup">29654</property>
  <property name="meta.attr.25.stream.DURATION-eng.markup">01:33:59.300000000</property>
  <property name="meta.attr.25.stream.NUMBER_OF_FRAMES-eng.markup">1836</property>
  <property name="meta.attr.25.stream.NUMBER_OF_BYTES-eng.markup">20903964</property>
  <property name="meta.attr.25.stream._STATISTICS_WRITING_APP-eng.markup">mkvmerge v40.0.0 ('Old Town Road + Pony') 64-bit</property>
  <property name="meta.attr.25.stream._STATISTICS_WRITING_DATE_UTC-eng.markup">2019-12-29 15:49:45</property>
  <property name="meta.attr.25.stream._STATISTICS_TAGS-eng.markup">BPS DURATION NUMBER_OF_FRAMES NUMBER_OF_BYTES</property>
  <property name="meta.media.26.codec.name">pgssub</property>
  <property name="meta.media.26.codec.long_name">HDMV Presentation Graphic Stream subtitles</property>
  <property name="meta.media.26.codec.bit_rate">0</property>
  <property name="meta.attr.26.stream.language.markup">por</property>
  <property name="meta.attr.26.stream.title.markup">Iberian Portuguese</property>
  <property name="meta.attr.26.stream.BPS-eng.markup">27145</property>
  <property name="meta.attr.26.stream.DURATION-eng.markup">01:33:59.300000000</property>
  <property name="meta.attr.26.stream.NUMBER_OF_FRAMES-eng.markup">1720</property>
  <property name="meta.attr.26.stream.NUMBER_OF_BYTES-eng.markup">19134971</property>
  <property name="meta.attr.26.stream._STATISTICS_WRITING_APP-eng.markup">mkvmerge v40.0.0 ('Old Town Road + Pony') 64-bit</property>
  <property name="meta.attr.26.stream._STATISTICS_WRITING_DATE_UTC-eng.markup">2019-12-29 15:49:45</property>
  <property name="meta.attr.26.stream._STATISTICS_TAGS-eng.markup">BPS DURATION NUMBER_OF_FRAMES NUMBER_OF_BYTES</property>
  <property name="meta.media.27.codec.name">pgssub</property>
  <property name="meta.media.27.codec.long_name">HDMV Presentation Graphic Stream subtitles</property>
  <property name="meta.media.27.codec.bit_rate">0</property>
  <property name="meta.attr.27.stream.language.markup">rum</property>
  <property name="meta.attr.27.stream.title.markup">Romanian</property>
  <property name="meta.attr.27.stream.BPS-eng.markup">25197</property>
  <property name="meta.attr.27.stream.DURATION-eng.markup">01:35:32.519000000</property>
  <property name="meta.attr.27.stream.NUMBER_OF_FRAMES-eng.markup">1706</property>
  <property name="meta.attr.27.stream.NUMBER_OF_BYTES-eng.markup">18055771</property>
  <property name="meta.attr.27.stream._STATISTICS_WRITING_APP-eng.markup">mkvmerge v40.0.0 ('Old Town Road + Pony') 64-bit</property>
  <property name="meta.attr.27.stream._STATISTICS_WRITING_DATE_UTC-eng.markup">2019-12-29 15:49:45</property>
  <property name="meta.attr.27.stream._STATISTICS_TAGS-eng.markup">BPS DURATION NUMBER_OF_FRAMES NUMBER_OF_BYTES</property>
  <property name="meta.media.28.codec.name">pgssub</property>
  <property name="meta.media.28.codec.long_name">HDMV Presentation Graphic Stream subtitles</property>
  <property name="meta.media.28.codec.bit_rate">0</property>
  <property name="meta.attr.28.stream.language.markup">slv</property>
  <property name="meta.attr.28.stream.title.markup">Slovenian</property>
  <property name="meta.attr.28.stream.BPS-eng.markup">22934</property>
  <property name="meta.attr.28.stream.DURATION-eng.markup">01:33:59.300000000</property>
  <property name="meta.attr.28.stream.NUMBER_OF_FRAMES-eng.markup">1706</property>
  <property name="meta.attr.28.stream.NUMBER_OF_BYTES-eng.markup">16167012</property>
  <property name="meta.attr.28.stream._STATISTICS_WRITING_APP-eng.markup">mkvmerge v40.0.0 ('Old Town Road + Pony') 64-bit</property>
  <property name="meta.attr.28.stream._STATISTICS_WRITING_DATE_UTC-eng.markup">2019-12-29 15:49:45</property>
  <property name="meta.attr.28.stream._STATISTICS_TAGS-eng.markup">BPS DURATION NUMBER_OF_FRAMES NUMBER_OF_BYTES</property>
  <property name="meta.media.29.codec.name">pgssub</property>
  <property name="meta.media.29.codec.long_name">HDMV Presentation Graphic Stream subtitles</property>
  <property name="meta.media.29.codec.bit_rate">0</property>
  <property name="meta.attr.29.stream.language.markup">spa</property>
  <property name="meta.attr.29.stream.title.markup">Spanish (Latin America)</property>
  <property name="meta.attr.29.stream.BPS-eng.markup">25790</property>
  <property name="meta.attr.29.stream.DURATION-eng.markup">01:35:32.519000000</property>
  <property name="meta.attr.29.stream.NUMBER_OF_FRAMES-eng.markup">1699</property>
  <property name="meta.attr.29.stream.NUMBER_OF_BYTES-eng.markup">18480666</property>
  <property name="meta.attr.29.stream._STATISTICS_WRITING_APP-eng.markup">mkvmerge v40.0.0 ('Old Town Road + Pony') 64-bit</property>
  <property name="meta.attr.29.stream._STATISTICS_WRITING_DATE_UTC-eng.markup">2019-12-29 15:49:45</property>
  <property name="meta.attr.29.stream._STATISTICS_TAGS-eng.markup">BPS DURATION NUMBER_OF_FRAMES NUMBER_OF_BYTES</property>
  <property name="meta.media.30.codec.name">pgssub</property>
  <property name="meta.media.30.codec.long_name">HDMV Presentation Graphic Stream subtitles</property>
  <property name="meta.media.30.codec.bit_rate">0</property>
  <property name="meta.attr.30.stream.language.markup">spa</property>
  <property name="meta.attr.30.stream.title.markup">Spanish (Spain)</property>
  <property name="meta.attr.30.stream.BPS-eng.markup">20473</property>
  <property name="meta.attr.30.stream.DURATION-eng.markup">01:33:59.300000000</property>
  <property name="meta.attr.30.stream.NUMBER_OF_FRAMES-eng.markup">1702</property>
  <property name="meta.attr.30.stream.NUMBER_OF_BYTES-eng.markup">14432022</property>
  <property name="meta.attr.30.stream._STATISTICS_WRITING_APP-eng.markup">mkvmerge v40.0.0 ('Old Town Road + Pony') 64-bit</property>
  <property name="meta.attr.30.stream._STATISTICS_WRITING_DATE_UTC-eng.markup">2019-12-29 15:49:45</property>
  <property name="meta.attr.30.stream._STATISTICS_TAGS-eng.markup">BPS DURATION NUMBER_OF_FRAMES NUMBER_OF_BYTES</property>
  <property name="meta.media.31.codec.name">pgssub</property>
  <property name="meta.media.31.codec.long_name">HDMV Presentation Graphic Stream subtitles</property>
  <property name="meta.media.31.codec.bit_rate">0</property>
  <property name="meta.attr.31.stream.language.markup">swe</property>
  <property name="meta.attr.31.stream.title.markup">Swedish</property>
  <property name="meta.attr.31.stream.BPS-eng.markup">19711</property>
  <property name="meta.attr.31.stream.DURATION-eng.markup">01:33:59.675000000</property>
  <property name="meta.attr.31.stream.NUMBER_OF_FRAMES-eng.markup">1184</property>
  <property name="meta.attr.31.stream.NUMBER_OF_BYTES-eng.markup">13895741</property>
  <property name="meta.attr.31.stream._STATISTICS_WRITING_APP-eng.markup">mkvmerge v40.0.0 ('Old Town Road + Pony') 64-bit</property>
  <property name="meta.attr.31.stream._STATISTICS_WRITING_DATE_UTC-eng.markup">2019-12-29 15:49:45</property>
  <property name="meta.attr.31.stream._STATISTICS_TAGS-eng.markup">BPS DURATION NUMBER_OF_FRAMES NUMBER_OF_BYTES</property>
  <property name="meta.media.32.codec.name">pgssub</property>
  <property name="meta.media.32.codec.long_name">HDMV Presentation Graphic Stream subtitles</property>
  <property name="meta.media.32.codec.bit_rate">0</property>
  <property name="meta.attr.32.stream.language.markup">tha</property>
  <property name="meta.attr.32.stream.title.markup">Thai</property>
  <property name="meta.attr.32.stream.BPS-eng.markup">20455</property>
  <property name="meta.attr.32.stream.DURATION-eng.markup">01:44:32.308000000</property>
  <property name="meta.attr.32.stream.NUMBER_OF_FRAMES-eng.markup">1708</property>
  <property name="meta.attr.32.stream.NUMBER_OF_BYTES-eng.markup">16038127</property>
  <property name="meta.attr.32.stream._STATISTICS_WRITING_APP-eng.markup">mkvmerge v40.0.0 ('Old Town Road + Pony') 64-bit</property>
  <property name="meta.attr.32.stream._STATISTICS_WRITING_DATE_UTC-eng.markup">2019-12-29 15:49:45</property>
  <property name="meta.attr.32.stream._STATISTICS_TAGS-eng.markup">BPS DURATION NUMBER_OF_FRAMES NUMBER_OF_BYTES</property>
  <property name="meta.media.33.codec.name">pgssub</property>
  <property name="meta.media.33.codec.long_name">HDMV Presentation Graphic Stream subtitles</property>
  <property name="meta.media.33.codec.bit_rate">0</property>
  <property name="meta.attr.33.stream.language.markup">tur</property>
  <property name="meta.attr.33.stream.title.markup">Turkish</property>
  <property name="meta.attr.33.stream.BPS-eng.markup">22418</property>
  <property name="meta.attr.33.stream.DURATION-eng.markup">01:33:59.217000000</property>
  <property name="meta.attr.33.stream.NUMBER_OF_FRAMES-eng.markup">1674</property>
  <property name="meta.attr.33.stream.NUMBER_OF_BYTES-eng.markup">15802734</property>
  <property name="meta.attr.33.stream._STATISTICS_WRITING_APP-eng.markup">mkvmerge v40.0.0 ('Old Town Road + Pony') 64-bit</property>
  <property name="meta.attr.33.stream._STATISTICS_WRITING_DATE_UTC-eng.markup">2019-12-29 15:49:45</property>
  <property name="meta.attr.33.stream._STATISTICS_TAGS-eng.markup">BPS DURATION NUMBER_OF_FRAMES NUMBER_OF_BYTES</property>
  <property name="meta.media.34.codec.name">srt</property>
  <property name="meta.media.34.codec.long_name">SubRip subtitle</property>
  <property name="meta.media.34.codec.bit_rate">0</property>
  <property name="meta.attr.34.stream.language.markup">eng</property>
  <property name="meta.attr.34.stream.BPS-eng.markup">48</property>
  <property name="meta.attr.34.stream.DURATION-eng.markup">01:33:45.538000000</property>
  <property name="meta.attr.34.stream.NUMBER_OF_FRAMES-eng.markup">842</property>
  <property name="meta.attr.34.stream.NUMBER_OF_BYTES-eng.markup">34158</property>
  <property name="meta.attr.34.stream._STATISTICS_WRITING_APP-eng.markup">mkvmerge v40.0.0 ('Old Town Road + Pony') 64-bit</property>
  <property name="meta.attr.34.stream._STATISTICS_WRITING_DATE_UTC-eng.markup">2019-12-29 15:49:45</property>
  <property name="meta.attr.34.stream._STATISTICS_TAGS-eng.markup">BPS DURATION NUMBER_OF_FRAMES NUMBER_OF_BYTES</property>
  <property name="meta.media.35.codec.name">srt</property>
  <property name="meta.media.35.codec.long_name">SubRip subtitle</property>
  <property name="meta.media.35.codec.bit_rate">0</property>
  <property name="meta.attr.35.stream.language.markup">eng</property>
  <property name="meta.attr.35.stream.title.markup">SDH</property>
  <property name="meta.attr.35.stream.BPS-eng.markup">43</property>
  <property name="meta.attr.35.stream.DURATION-eng.markup">01:31:41.370000000</property>
  <property name="meta.attr.35.stream.NUMBER_OF_FRAMES-eng.markup">833</property>
  <property name="meta.attr.35.stream.NUMBER_OF_BYTES-eng.markup">29767</property>
  <property name="meta.attr.35.stream._STATISTICS_WRITING_APP-eng.markup">mkvmerge v40.0.0 ('Old Town Road + Pony') 64-bit</property>
  <property name="meta.attr.35.stream._STATISTICS_WRITING_DATE_UTC-eng.markup">2019-12-29 15:49:45</property>
  <property name="meta.attr.35.stream._STATISTICS_TAGS-eng.markup">BPS DURATION NUMBER_OF_FRAMES NUMBER_OF_BYTES</property>
  <property name="meta.media.36.codec.name">srt</property>
  <property name="meta.media.36.codec.long_name">SubRip subtitle</property>
  <property name="meta.media.36.codec.bit_rate">0</property>
  <property name="meta.attr.36.stream.language.markup">swe</property>
  <property name="meta.attr.36.stream.BPS-eng.markup">47</property>
  <property name="meta.attr.36.stream.DURATION-eng.markup">01:33:48.363000000</property>
  <property name="meta.attr.36.stream.NUMBER_OF_FRAMES-eng.markup">683</property>
  <property name="meta.attr.36.stream.NUMBER_OF_BYTES-eng.markup">33075</property>
  <property name="meta.attr.36.stream._STATISTICS_WRITING_APP-eng.markup">mkvmerge v40.0.0 ('Old Town Road + Pony') 64-bit</property>
  <property name="meta.attr.36.stream._STATISTICS_WRITING_DATE_UTC-eng.markup">2019-12-29 15:49:45</property>
  <property name="meta.attr.36.stream._STATISTICS_TAGS-eng.markup">BPS DURATION NUMBER_OF_FRAMES NUMBER_OF_BYTES</property>
  <property name="meta.attr.creation_time.markup">2019-12-29T15:49:45.000000Z</property>
  <property name="meta.attr.ENCODER.markup">Lavf58.29.100</property>
  <property name="seekable">1</property>
  <property name="meta.media.sample_aspect_num">1</property>
  <property name="meta.media.sample_aspect_den">1</property>
  <property name="audio_index">1</property>
  <property name="video_index">0</property>
  <property name="vstream">0</property>
  <property name="meta.media.frame_rate_num">24000</property>
  <property name="meta.media.frame_rate_den">1001</property>
  <property name="meta.media.colorspace">709</property>
  <property name="meta.media.color_trc">1</property>
  <property name="meta.media.has_b_frames">2</property>
  <property name="meta.media.width">1916</property>
  <property name="meta.media.height">1036</property>
  <property name="meta.media.aspect_ratio">1</property>
  <property name="meta.media.color_range">mpeg</property>
  <property name="astream">0</property>
  <property name="meta.media.top_field_first">0</property>
  <property name="meta.media.progressive">1</property>
  <property name="kdenlive:control_uuid">{193136b1-969a-4943-bfcd-55058a6808f2}</property>
  <property name="kdenlive:id">4</property>
  <property name="kdenlive:clip_type">0</property>
  <property name="kdenlive:file_size">5331297763</property>
  <property name="kdenlive:file_hash">691e768d68c55b9a28cb9a278fdc8b17</property>
  <property name="kdenlive:folderid">-1</property>
  <property name="kdenlive:monitorPosition">0</property>
  <property name="mute_on_pause">0</property>
 </chain>
 <chain id="chain5" out="00:01:50.133">
  <property name="length">2641</property>
  <property name="eof">pause</property>
  <property name="resource">C:/Users/kado/Videos/FanEdits/FanMixes/Final Fantasy (2001) - The Phantom Menace/ost/Final_Fantasy_A_Temple_of_Chaos_OC_ReMix.mp3</property>
  <property name="mlt_service">avformat-novalidate</property>
  <property name="meta.media.nb_streams">2</property>
  <property name="meta.media.0.stream.type">audio</property>
  <property name="meta.media.0.codec.sample_fmt">fltp</property>
  <property name="meta.media.0.codec.sample_rate">44100</property>
  <property name="meta.media.0.codec.channels">2</property>
  <property name="meta.media.0.codec.layout">stereo</property>
  <property name="meta.media.0.codec.name">mp3float</property>
  <property name="meta.media.0.codec.long_name">MP3 (MPEG audio layer 3)</property>
  <property name="meta.media.0.codec.bit_rate">192000</property>
  <property name="meta.media.1.stream.type">video</property>
  <property name="meta.media.1.stream.frame_rate">90000</property>
  <property name="meta.media.1.stream.sample_aspect_ratio">0</property>
  <property name="meta.media.1.codec.width">700</property>
  <property name="meta.media.1.codec.height">700</property>
  <property name="meta.media.1.codec.rotate">0</property>
  <property name="meta.media.1.codec.pix_fmt">yuvj444p</property>
  <property name="meta.media.1.codec.sample_aspect_ratio">0</property>
  <property name="meta.media.1.codec.colorspace">601</property>
  <property name="meta.media.1.codec.name">mjpeg</property>
  <property name="meta.media.1.codec.long_name">MJPEG (Motion JPEG)</property>
  <property name="meta.media.1.codec.bit_rate">0</property>
  <property name="meta.attr.1.stream.comment.markup">Cover (front)</property>
  <property name="meta.attr.album.markup">ocremix.org</property>
  <property name="meta.attr.artist.markup">Tim Sheehy</property>
  <property name="meta.attr.album_artist.markup">OverClocked ReMix</property>
  <property name="meta.attr.comment.markup">Tim Sheehy&#xd;
tim@timsheehy.com&#xd;
http://timsheehy.com</property>
  <property name="meta.attr.composer.markup">Nobuo Uematsu</property>
  <property name="meta.attr.grouping.markup">Final Fantasy</property>
  <property name="meta.attr.copyright.markup">Square</property>
  <property name="meta.attr.encoded_by.markup">Tim Sheehy (tim@timsheehy.com)</property>
  <property name="meta.attr.genre.markup">Game</property>
  <property name="meta.attr.compilation.markup">1</property>
  <property name="meta.attr.TOPE.markup">NES</property>
  <property name="meta.attr.publisher.markup">OverClocked ReMix</property>
  <property name="meta.attr.SETSUBTITLE.markup">OCR00429</property>
  <property name="meta.attr.TIT3.markup">A Temple of Chaos</property>
  <property name="meta.attr.title.markup">Final Fantasy "A Temple of Chaos" OC ReMix</property>
  <property name="meta.attr.track.markup">429</property>
  <property name="meta.attr.date.markup">2001</property>
  <property name="seekable">1</property>
  <property name="meta.media.sample_aspect_num">1</property>
  <property name="meta.media.sample_aspect_den">1</property>
  <property name="audio_index">0</property>
  <property name="video_index">1</property>
  <property name="vstream">0</property>
  <property name="meta.media.frame_rate_num">90000</property>
  <property name="meta.media.frame_rate_den">1</property>
  <property name="meta.media.colorspace">601</property>
  <property name="meta.media.color_trc">2</property>
  <property name="meta.media.has_b_frames">0</property>
  <property name="meta.media.width">700</property>
  <property name="meta.media.height">700</property>
  <property name="meta.media.aspect_ratio">1</property>
  <property name="meta.media.color_range">full</property>
  <property name="astream">0</property>
  <property name="meta.media.top_field_first">0</property>
  <property name="meta.media.progressive">1</property>
  <property name="kdenlive:folderid">5</property>
  <property name="kdenlive:id">6</property>
  <property name="kdenlive:control_uuid">{231dcc23-c66b-44d6-befc-7e885658511a}</property>
  <property name="mute_on_pause">0</property>
  <property name="kdenlive:clip_type">0</property>
  <property name="kdenlive:coverartstream">1</property>
  <property name="kdenlive:file_size">2730289</property>
  <property name="kdenlive:file_hash">30b244bf6bc335b7c0baec37d4f8f949</property>
  <property name="kdenlive:monitorPosition">628</property>
 </chain>
 <chain id="chain14" out="00:04:05.797">
  <property name="length">5894</property>
  <property name="eof">pause</property>
  <property name="resource">C:/Users/kado/Videos/FanEdits/FanMixes/Final Fantasy (2001) - The Phantom Menace/ost/Final_Fantasy_4_Hymn_to_the_Crystals_OC_ReMix.mp3</property>
  <property name="mlt_service">avformat-novalidate</property>
  <property name="meta.media.nb_streams">2</property>
  <property name="meta.media.0.stream.type">audio</property>
  <property name="meta.media.0.codec.sample_fmt">fltp</property>
  <property name="meta.media.0.codec.sample_rate">44100</property>
  <property name="meta.media.0.codec.channels">2</property>
  <property name="meta.media.0.codec.layout">stereo</property>
  <property name="meta.media.0.codec.name">mp3float</property>
  <property name="meta.media.0.codec.long_name">MP3 (MPEG audio layer 3)</property>
  <property name="meta.media.0.codec.bit_rate">218271</property>
  <property name="meta.attr.0.stream.encoder.markup">LAME3.100</property>
  <property name="meta.media.1.stream.type">video</property>
  <property name="meta.media.1.stream.frame_rate">90000</property>
  <property name="meta.media.1.stream.sample_aspect_ratio">0</property>
  <property name="meta.media.1.codec.width">700</property>
  <property name="meta.media.1.codec.height">700</property>
  <property name="meta.media.1.codec.rotate">0</property>
  <property name="meta.media.1.codec.pix_fmt">yuvj444p</property>
  <property name="meta.media.1.codec.sample_aspect_ratio">0</property>
  <property name="meta.media.1.codec.colorspace">601</property>
  <property name="meta.media.1.codec.name">mjpeg</property>
  <property name="meta.media.1.codec.long_name">MJPEG (Motion JPEG)</property>
  <property name="meta.media.1.codec.bit_rate">0</property>
  <property name="meta.attr.1.stream.comment.markup">Cover (front)</property>
  <property name="meta.attr.album.markup">ocremix.org</property>
  <property name="meta.attr.artist.markup">RebeccaETripp</property>
  <property name="meta.attr.album_artist.markup">OverClocked ReMix</property>
  <property name="meta.attr.comment.markup">This was my attempt to encapsulate the spiritual essence of the Final Fantasy series. I was going for a sort of mystical/reverent feeling. There are many versions of the FF prelude out there already, so it was difficult to find a new take on it in one sense. However, nobody had composed an arrangement of this main theme that emphasized the spiritual essence of the ever-prominent crystals in quite the same way -- so I used that to guide me: a feeling that this particular facet of the crystal had somehow been, for the most part, unnoticed.&#xd;
&#xd;
This is sort of how I've been wanting to hear the song all along, emphasizing the more ethereal aspects of the games, as opposed to making the theme more grandiose or, adversely, tame and relaxing. In my mind, this could be a version of the tune that might play inside a temple in some kind of ancient magical village guarding an elemental crystal shard, such as Cleyra or Mysidia.&#xd;
&#xd;
I used 3 harps, harpsichord, VSTs of a full choir, a soprano soloist, and a young boy soloist in this track, along with some temple bells and some mystical/spacey-sounding synths. I was sort of trying to combine the medieval aesthetic of most of the older games with the new-agey depth I have come to associate with the various alien and otherworldly races in FF, such as the Lunarians who are very knowledgeable and detached as compared with the protagonists.&#xd;
&#xd;
Rebecca E. Tripp&#xd;
https://youtube.com/rebeccaetripp</property>
  <property name="meta.attr.composer.markup">Nobuo Uematsu</property>
  <property name="meta.attr.grouping.markup">Final Fantasy IV</property>
  <property name="meta.attr.copyright.markup">Square</property>
  <property name="meta.attr.encoded_by.markup">Rebecca E. Tripp</property>
  <property name="meta.attr.genre.markup">Game</property>
  <property name="meta.attr.compilation.markup">1</property>
  <property name="meta.attr.TOPE.markup">SNES</property>
  <property name="meta.attr.publisher.markup">OverClocked ReMix</property>
  <property name="meta.attr.setsubtitle.markup">OCR03621</property>
  <property name="meta.attr.TIT3.markup">Hymn to the Crystals</property>
  <property name="meta.attr.title.markup">Final Fantasy IV "Hymn to the Crystals" OC ReMix</property>
  <property name="meta.attr.track.markup">3621</property>
  <property name="meta.attr.date.markup">2017</property>
  <property name="seekable">1</property>
  <property name="meta.media.sample_aspect_num">1</property>
  <property name="meta.media.sample_aspect_den">1</property>
  <property name="audio_index">0</property>
  <property name="video_index">1</property>
  <property name="vstream">0</property>
  <property name="meta.media.frame_rate_num">90000</property>
  <property name="meta.media.frame_rate_den">1</property>
  <property name="meta.media.colorspace">601</property>
  <property name="meta.media.color_trc">2</property>
  <property name="meta.media.has_b_frames">0</property>
  <property name="meta.media.width">700</property>
  <property name="meta.media.height">700</property>
  <property name="meta.media.aspect_ratio">1</property>
  <property name="meta.media.color_range">full</property>
  <property name="astream">0</property>
  <property name="meta.media.top_field_first">0</property>
  <property name="meta.media.progressive">1</property>
  <property name="kdenlive:folderid">5</property>
  <property name="kdenlive:id">7</property>
  <property name="kdenlive:control_uuid">{93e86435-4609-41f8-acc6-be87cdccf41b}</property>
  <property name="mute_on_pause">0</property>
  <property name="kdenlive:clip_type">0</property>
  <property name="kdenlive:coverartstream">1</property>
  <property name="kdenlive:file_size">6797335</property>
  <property name="kdenlive:file_hash">89c39d837ae5299f73020f770ce7b7b7</property>
  <property name="kdenlive:monitorPosition">0</property>
 </chain>
 <chain id="chain17" out="00:03:36.870">
  <property name="length">5200</property>
  <property name="eof">pause</property>
  <property name="resource">C:/Users/kado/Videos/FanEdits/FanMixes/Final Fantasy (2001) - The Phantom Menace/ost/Final_Fantasy_10_Lake_in_Ontario_OC_ReMix.mp3</property>
  <property name="mlt_service">avformat-novalidate</property>
  <property name="meta.media.nb_streams">2</property>
  <property name="meta.media.0.stream.type">audio</property>
  <property name="meta.media.0.codec.sample_fmt">fltp</property>
  <property name="meta.media.0.codec.sample_rate">44100</property>
  <property name="meta.media.0.codec.channels">2</property>
  <property name="meta.media.0.codec.layout">stereo</property>
  <property name="meta.media.0.codec.name">mp3float</property>
  <property name="meta.media.0.codec.long_name">MP3 (MPEG audio layer 3)</property>
  <property name="meta.media.0.codec.bit_rate">192000</property>
  <property name="meta.media.1.stream.type">video</property>
  <property name="meta.media.1.stream.frame_rate">90000</property>
  <property name="meta.media.1.stream.sample_aspect_ratio">0</property>
  <property name="meta.media.1.codec.width">700</property>
  <property name="meta.media.1.codec.height">700</property>
  <property name="meta.media.1.codec.rotate">0</property>
  <property name="meta.media.1.codec.pix_fmt">yuvj444p</property>
  <property name="meta.media.1.codec.sample_aspect_ratio">0</property>
  <property name="meta.media.1.codec.colorspace">601</property>
  <property name="meta.media.1.codec.name">mjpeg</property>
  <property name="meta.media.1.codec.long_name">MJPEG (Motion JPEG)</property>
  <property name="meta.media.1.codec.bit_rate">0</property>
  <property name="meta.attr.1.stream.comment.markup">Cover (front)</property>
  <property name="meta.attr.album.markup">ocremix.org</property>
  <property name="meta.attr.artist.markup">ilp0</property>
  <property name="meta.attr.album_artist.markup">OverClocked ReMix</property>
  <property name="meta.attr.comment.markup">Ilari Nieminen&#xd;
isniemin@cs.helsinki.fi&#xd;
http://last.fm/music/ilp0</property>
  <property name="meta.attr.composer.markup">Nobuo Uematsu</property>
  <property name="meta.attr.grouping.markup">Final Fantasy X</property>
  <property name="meta.attr.copyright.markup">Square</property>
  <property name="meta.attr.encoded_by.markup">Ilari Nieminen (isniemin@cs.helsinki.fi)</property>
  <property name="meta.attr.genre.markup">Game</property>
  <property name="meta.attr.compilation.markup">1</property>
  <property name="meta.attr.TOPE.markup">PlayStation 2</property>
  <property name="meta.attr.publisher.markup">OverClocked ReMix</property>
  <property name="meta.attr.SETSUBTITLE.markup">OCR01560</property>
  <property name="meta.attr.TIT3.markup">Lake in Ontario?</property>
  <property name="meta.attr.title.markup">Final Fantasy X "Lake in Ontario?" OC ReMix</property>
  <property name="meta.attr.track.markup">1560</property>
  <property name="meta.attr.date.markup">2007</property>
  <property name="seekable">1</property>
  <property name="meta.media.sample_aspect_num">1</property>
  <property name="meta.media.sample_aspect_den">1</property>
  <property name="audio_index">0</property>
  <property name="video_index">1</property>
  <property name="vstream">0</property>
  <property name="meta.media.frame_rate_num">90000</property>
  <property name="meta.media.frame_rate_den">1</property>
  <property name="meta.media.colorspace">601</property>
  <property name="meta.media.color_trc">2</property>
  <property name="meta.media.has_b_frames">0</property>
  <property name="meta.media.width">700</property>
  <property name="meta.media.height">700</property>
  <property name="meta.media.aspect_ratio">1</property>
  <property name="meta.media.color_range">full</property>
  <property name="astream">0</property>
  <property name="meta.media.top_field_first">0</property>
  <property name="meta.media.progressive">1</property>
  <property name="kdenlive:folderid">5</property>
  <property name="kdenlive:id">8</property>
  <property name="kdenlive:control_uuid">{706a63b7-ae4c-4049-b185-bc0848649b24}</property>
  <property name="mute_on_pause">0</property>
  <property name="kdenlive:clip_type">0</property>
  <property name="kdenlive:coverartstream">1</property>
  <property name="kdenlive:file_size">5292699</property>
  <property name="kdenlive:file_hash">33b8cca8fdd7cb417563e7cd62304a4d</property>
  <property name="kdenlive:monitorPosition">0</property>
 </chain>
 <chain id="chain8" out="01:46:27.402">
  <property name="length">153144</property>
  <property name="eof">pause</property>
  <property name="resource">C:/Users/kado/Videos/FanEdits/FanMixes/Final Fantasy (2001) - The Phantom Menace/DVD/A1_t00_Audio03.JPN.ac3</property>
  <property name="mlt_service">avformat</property>
  <property name="meta.media.nb_streams">1</property>
  <property name="meta.media.0.stream.type">audio</property>
  <property name="meta.media.0.codec.sample_fmt">fltp</property>
  <property name="meta.media.0.codec.sample_rate">48000</property>
  <property name="meta.media.0.codec.channels">6</property>
  <property name="meta.media.0.codec.layout">5.1(side)</property>
  <property name="meta.media.0.codec.name">ac3</property>
  <property name="meta.media.0.codec.long_name">ATSC A/52A (AC-3)</property>
  <property name="meta.media.0.codec.bit_rate">384000</property>
  <property name="seekable">1</property>
  <property name="audio_index">0</property>
  <property name="video_index">-1</property>
  <property name="astream">0</property>
  <property name="kdenlive:control_uuid">{e2839f57-3e08-482a-8683-710c59cd7d06}</property>
  <property name="kdenlive:originalurl">C:/Users/kado/Videos/FanEdits/FanMixes/Final Fantasy (2001) - The Phantom Menace/DVD/A1_t00_Audio03.JPN.ac3</property>
  <property name="kdenlive:id">9</property>
  <property name="kdenlive:clip_type">1</property>
  <property name="kdenlive:file_size">306594816</property>
  <property name="kdenlive:file_hash">c802da5bc01af08751d78d0369427df7</property>
  <property name="kdenlive:folderid">17</property>
  <property name="kdenlive:monitorPosition">39543</property>
 </chain>
 <producer id="producer0" in="00:00:00.000" out="01:34:50.425">
  <property name="length">2147483647</property>
  <property name="eof">continue</property>
  <property name="resource">black</property>
  <property name="aspect_ratio">1</property>
  <property name="mlt_service">color</property>
  <property name="kdenlive:playlistid">black_track</property>
  <property name="mlt_image_format">rgba</property>
  <property name="set.test_audio">0</property>
 </producer>
 <playlist id="playlist0">
  <property name="kdenlive:audio_track">1</property>
 </playlist>
 <playlist id="playlist1">
  <property name="kdenlive:audio_track">1</property>
 </playlist>
 <tractor id="tractor0" in="00:00:00.000">
  <property name="kdenlive:audio_track">1</property>
  <property name="kdenlive:trackheight">84</property>
  <property name="kdenlive:timeline_active">1</property>
  <property name="kdenlive:collapsed">0</property>
  <property name="kdenlive:thumbs_format"/>
  <property name="kdenlive:audio_rec"/>
  <track hide="both" producer="playlist0"/>
  <track hide="both" producer="playlist1"/>
  <filter id="filter0">
   <property name="window">75</property>
   <property name="max_gain">20dB</property>
   <property name="mlt_service">volume</property>
   <property name="internal_added">237</property>
   <property name="disable">1</property>
  </filter>
  <filter id="filter1">
   <property name="channel">-1</property>
   <property name="mlt_service">panner</property>
   <property name="internal_added">237</property>
   <property name="start">0.5</property>
   <property name="disable">1</property>
  </filter>
  <filter id="filter2">
   <property name="iec_scale">0</property>
   <property name="mlt_service">audiolevel</property>
   <property name="dbpeak">1</property>
   <property name="disable">1</property>
  </filter>
 </tractor>
 <playlist id="playlist2">
  <property name="kdenlive:audio_track">1</property>
 </playlist>
 <playlist id="playlist3">
  <property name="kdenlive:audio_track">1</property>
 </playlist>
 <tractor id="tractor1" in="00:00:00.000">
  <property name="kdenlive:audio_track">1</property>
  <property name="kdenlive:trackheight">84</property>
  <property name="kdenlive:timeline_active">1</property>
  <property name="kdenlive:collapsed">0</property>
  <property name="kdenlive:thumbs_format"/>
  <property name="kdenlive:audio_rec"/>
  <track hide="video" producer="playlist2"/>
  <track hide="video" producer="playlist3"/>
  <filter id="filter4">
   <property name="window">75</property>
   <property name="max_gain">20dB</property>
   <property name="mlt_service">volume</property>
   <property name="internal_added">237</property>
   <property name="disable">1</property>
  </filter>
  <filter id="filter5">
   <property name="channel">-1</property>
   <property name="mlt_service">panner</property>
   <property name="internal_added">237</property>
   <property name="start">0.5</property>
   <property name="disable">1</property>
  </filter>
  <filter id="filter3">
   <property name="iec_scale">0</property>
   <property name="mlt_service">audiolevel</property>
   <property name="dbpeak">1</property>
   <property name="disable">1</property>
  </filter>
 </tractor>
 <chain id="chain1" out="00:01:50.133">
  <property name="length">2641</property>
  <property name="eof">pause</property>
  <property name="resource">C:/Users/kado/Videos/FanEdits/FanMixes/Final Fantasy (2001) - The Phantom Menace/ost/Final_Fantasy_A_Temple_of_Chaos_OC_ReMix.mp3</property>
  <property name="mlt_service">avformat-novalidate</property>
  <property name="seekable">1</property>
  <property name="audio_index">0</property>
  <property name="video_index">1</property>
  <property name="vstream">0</property>
  <property name="astream">0</property>
  <property name="kdenlive:folderid">5</property>
  <property name="kdenlive:id">6</property>
  <property name="kdenlive:control_uuid">{231dcc23-c66b-44d6-befc-7e885658511a}</property>
  <property name="mute_on_pause">0</property>
  <property name="kdenlive:clip_type">0</property>
  <property name="kdenlive:coverartstream">1</property>
  <property name="kdenlive:file_size">2730289</property>
  <property name="kdenlive:file_hash">30b244bf6bc335b7c0baec37d4f8f949</property>
  <property name="meta.media.nb_streams">2</property>
  <property name="meta.media.0.stream.type">audio</property>
  <property name="meta.media.0.codec.sample_fmt">fltp</property>
  <property name="meta.media.0.codec.sample_rate">44100</property>
  <property name="meta.media.0.codec.channels">2</property>
  <property name="meta.media.0.codec.layout">stereo</property>
  <property name="meta.media.0.codec.name">mp3float</property>
  <property name="meta.media.0.codec.long_name">MP3 (MPEG audio layer 3)</property>
  <property name="meta.media.0.codec.bit_rate">192000</property>
  <property name="meta.media.1.stream.type">video</property>
  <property name="meta.media.1.stream.frame_rate">90000</property>
  <property name="meta.media.1.stream.sample_aspect_ratio">0</property>
  <property name="meta.media.1.codec.width">700</property>
  <property name="meta.media.1.codec.height">700</property>
  <property name="meta.media.1.codec.rotate">0</property>
  <property name="meta.media.1.codec.pix_fmt">yuvj444p</property>
  <property name="meta.media.1.codec.sample_aspect_ratio">0</property>
  <property name="meta.media.1.codec.colorspace">601</property>
  <property name="meta.media.1.codec.name">mjpeg</property>
  <property name="meta.media.1.codec.long_name">MJPEG (Motion JPEG)</property>
  <property name="meta.media.1.codec.bit_rate">0</property>
  <property name="meta.attr.1.stream.comment.markup">Cover (front)</property>
  <property name="meta.attr.album.markup">ocremix.org</property>
  <property name="meta.attr.artist.markup">Tim Sheehy</property>
  <property name="meta.attr.album_artist.markup">OverClocked ReMix</property>
  <property name="meta.attr.comment.markup">Tim Sheehy&#xd;
tim@timsheehy.com&#xd;
http://timsheehy.com</property>
  <property name="meta.attr.composer.markup">Nobuo Uematsu</property>
  <property name="meta.attr.grouping.markup">Final Fantasy</property>
  <property name="meta.attr.copyright.markup">Square</property>
  <property name="meta.attr.encoded_by.markup">Tim Sheehy (tim@timsheehy.com)</property>
  <property name="meta.attr.genre.markup">Game</property>
  <property name="meta.attr.compilation.markup">1</property>
  <property name="meta.attr.TOPE.markup">NES</property>
  <property name="meta.attr.publisher.markup">OverClocked ReMix</property>
  <property name="meta.attr.SETSUBTITLE.markup">OCR00429</property>
  <property name="meta.attr.TIT3.markup">A Temple of Chaos</property>
  <property name="meta.attr.title.markup">Final Fantasy "A Temple of Chaos" OC ReMix</property>
  <property name="meta.attr.track.markup">429</property>
  <property name="meta.attr.date.markup">2001</property>
  <property name="meta.media.sample_aspect_num">1</property>
  <property name="meta.media.sample_aspect_den">1</property>
  <property name="meta.media.frame_rate_num">90000</property>
  <property name="meta.media.frame_rate_den">1</property>
  <property name="meta.media.colorspace">601</property>
  <property name="meta.media.color_trc">2</property>
  <property name="meta.media.has_b_frames">0</property>
  <property name="meta.media.width">700</property>
  <property name="meta.media.height">700</property>
  <property name="meta.media.aspect_ratio">1</property>
  <property name="meta.media.color_range">full</property>
  <property name="xml">was here</property>
  <property name="meta.media.top_field_first">0</property>
  <property name="meta.media.progressive">1</property>
  <property name="set.test_audio">0</property>
  <property name="set.test_image">1</property>
 </chain>
 <playlist id="playlist4">
  <property name="kdenlive:audio_track">1</property>
  <blank length="00:00:19.561"/>
  <entry in="00:00:19.561" out="00:00:28.654" producer="chain1">
   <property name="kdenlive:id">6</property>
   <property name="kdenlive:activeeffect">1</property>
   <filter id="filter7">
    <property name="window">75</property>
    <property name="max_gain">20dB</property>
    <property name="level">00:00:19.561=-15</property>
    <property name="mlt_service">volume</property>
    <property name="kdenlive_id">volume</property>
    <property name="kdenlive:collapsed">0</property>
   </filter>
   <filter id="filter8" in="00:00:19.561" out="00:00:28.695">
    <property name="window">75</property>
    <property name="max_gain">20dB</property>
    <property name="mlt_service">volume</property>
    <property name="kdenlive_id">fadein</property>
    <property name="gain">0</property>
    <property name="end">1</property>
   </filter>
  </entry>
  <entry in="00:00:28.695" out="00:00:29.905" producer="chain1">
   <property name="kdenlive:id">6</property>
   <filter id="filter9">
    <property name="window">75</property>
    <property name="max_gain">20dB</property>
    <property name="level">00:00:28.695=-15</property>
    <property name="mlt_service">volume</property>
    <property name="kdenlive_id">volume</property>
    <property name="kdenlive:collapsed">0</property>
   </filter>
   <filter id="filter10" in="00:00:28.654" out="00:00:29.905">
    <property name="window">75</property>
    <property name="max_gain">20dB</property>
    <property name="mlt_service">volume</property>
    <property name="kdenlive_id">fadeout</property>
    <property name="gain">1</property>
    <property name="end">0</property>
    <property name="kdenlive:collapsed">0</property>
    <property name="disable">1</property>
   </filter>
  </entry>
  <entry in="00:00:02.502" out="00:00:09.509" producer="chain1">
   <property name="kdenlive:id">6</property>
   <filter id="filter11">
    <property name="window">75</property>
    <property name="max_gain">20dB</property>
    <property name="level">00:00:02.502=-10</property>
    <property name="mlt_service">volume</property>
    <property name="kdenlive_id">volume</property>
    <property name="kdenlive:collapsed">0</property>
   </filter>
   <filter id="filter12" in="00:00:03.462" out="00:00:09.509">
    <property name="window">75</property>
    <property name="max_gain">20dB</property>
    <property name="mlt_service">volume</property>
    <property name="kdenlive_id">fadeout</property>
    <property name="gain">1</property>
    <property name="end">0</property>
    <property name="kdenlive:collapsed">0</property>
   </filter>
   <filter id="filter13" in="00:00:02.502" out="00:00:05.505">
    <property name="window">75</property>
    <property name="max_gain">20dB</property>
    <property name="mlt_service">volume</property>
    <property name="kdenlive_id">fadein</property>
    <property name="gain">0</property>
    <property name="end">1</property>
    <property name="kdenlive:collapsed">0</property>
   </filter>
   <filter id="filter14">
    <property name="window">75</property>
    <property name="max_gain">20dB</property>
    <property name="level">00:00:02.502=-16</property>
    <property name="mlt_service">volume</property>
    <property name="kdenlive_id">volume</property>
    <property name="kdenlive:collapsed">0</property>
   </filter>
   <filter id="filter15">
    <property name="window">75</property>
    <property name="max_gain">20dB</property>
    <property name="mlt_service">volume</property>
    <property name="kdenlive_id">mute</property>
    <property name="gain">0</property>
    <property name="kdenlive:collapsed">0</property>
   </filter>
  </entry>
 </playlist>
 <playlist id="playlist5">
  <property name="kdenlive:audio_track">1</property>
 </playlist>
 <tractor id="tractor2" in="00:00:00.000" out="00:00:36.954">
  <property name="kdenlive:audio_track">1</property>
  <property name="kdenlive:trackheight">84</property>
  <property name="kdenlive:timeline_active">1</property>
  <property name="kdenlive:collapsed">0</property>
  <property name="kdenlive:track_name">Reverb</property>
  <property name="kdenlive:thumbs_format"/>
  <property name="kdenlive:audio_rec"/>
  <track hide="video" producer="playlist4"/>
  <track hide="video" producer="playlist5"/>
  <filter id="filter23" out="00:00:36.995">
   <property name="mlt_service">ladspa.2142</property>
   <property name="kdenlive_id">ladspa.2142</property>
   <property name="0">5000</property>
   <property name="1">-70</property>
   <property name="2">-9</property>
   <property name="3">1</property>
   <property name="4">1</property>
   <property name="5">1</property>
   <property name="6">1</property>
   <property name="7">16</property>
   <property name="wetness">1</property>
   <property name="kdenlive:collapsed">0</property>
   <property name="instances">1</property>
  </filter>
  <filter id="filter24" out="00:00:36.995">
   <property name="mlt_service">ladspa.2142</property>
   <property name="kdenlive_id">ladspa.2142</property>
   <property name="0">10000</property>
   <property name="1">-70</property>
   <property name="2">0</property>
   <property name="3">1</property>
   <property name="4">1</property>
   <property name="5">1</property>
   <property name="6">1</property>
   <property name="7">32</property>
   <property name="wetness">1</property>
   <property name="kdenlive:collapsed">0</property>
   <property name="instances">1</property>
  </filter>
  <filter id="filter20">
   <property name="window">75</property>
   <property name="max_gain">20dB</property>
   <property name="level">-10.0014</property>
   <property name="mlt_service">volume</property>
   <property name="internal_added">237</property>
   <property name="disable">0</property>
  </filter>
  <filter id="filter21">
   <property name="channel">-1</property>
   <property name="mlt_service">panner</property>
   <property name="internal_added">237</property>
   <property name="start">0.5</property>
   <property name="disable">1</property>
  </filter>
  <filter id="filter6">
   <property name="iec_scale">0</property>
   <property name="mlt_service">audiolevel</property>
   <property name="dbpeak">1</property>
   <property name="disable">1</property>
  </filter>
 </tractor>
 <chain id="chain3" out="00:01:50.133">
  <property name="length">2641</property>
  <property name="eof">pause</property>
  <property name="resource">C:/Users/kado/Videos/FanEdits/FanMixes/Final Fantasy (2001) - The Phantom Menace/ost/Final_Fantasy_A_Temple_of_Chaos_OC_ReMix.mp3</property>
  <property name="mlt_service">avformat-novalidate</property>
  <property name="seekable">1</property>
  <property name="audio_index">0</property>
  <property name="video_index">1</property>
  <property name="vstream">0</property>
  <property name="astream">0</property>
  <property name="kdenlive:folderid">5</property>
  <property name="kdenlive:id">6</property>
  <property name="kdenlive:control_uuid">{231dcc23-c66b-44d6-befc-7e885658511a}</property>
  <property name="mute_on_pause">0</property>
  <property name="kdenlive:clip_type">0</property>
  <property name="kdenlive:coverartstream">1</property>
  <property name="kdenlive:file_size">2730289</property>
  <property name="kdenlive:file_hash">30b244bf6bc335b7c0baec37d4f8f949</property>
  <property name="meta.media.nb_streams">2</property>
  <property name="meta.media.0.stream.type">audio</property>
  <property name="meta.media.0.codec.sample_fmt">fltp</property>
  <property name="meta.media.0.codec.sample_rate">44100</property>
  <property name="meta.media.0.codec.channels">2</property>
  <property name="meta.media.0.codec.layout">stereo</property>
  <property name="meta.media.0.codec.name">mp3float</property>
  <property name="meta.media.0.codec.long_name">MP3 (MPEG audio layer 3)</property>
  <property name="meta.media.0.codec.bit_rate">192000</property>
  <property name="meta.media.1.stream.type">video</property>
  <property name="meta.media.1.stream.frame_rate">90000</property>
  <property name="meta.media.1.stream.sample_aspect_ratio">0</property>
  <property name="meta.media.1.codec.width">700</property>
  <property name="meta.media.1.codec.height">700</property>
  <property name="meta.media.1.codec.rotate">0</property>
  <property name="meta.media.1.codec.pix_fmt">yuvj444p</property>
  <property name="meta.media.1.codec.sample_aspect_ratio">0</property>
  <property name="meta.media.1.codec.colorspace">601</property>
  <property name="meta.media.1.codec.name">mjpeg</property>
  <property name="meta.media.1.codec.long_name">MJPEG (Motion JPEG)</property>
  <property name="meta.media.1.codec.bit_rate">0</property>
  <property name="meta.attr.1.stream.comment.markup">Cover (front)</property>
  <property name="meta.attr.album.markup">ocremix.org</property>
  <property name="meta.attr.artist.markup">Tim Sheehy</property>
  <property name="meta.attr.album_artist.markup">OverClocked ReMix</property>
  <property name="meta.attr.comment.markup">Tim Sheehy&#xd;
tim@timsheehy.com&#xd;
http://timsheehy.com</property>
  <property name="meta.attr.composer.markup">Nobuo Uematsu</property>
  <property name="meta.attr.grouping.markup">Final Fantasy</property>
  <property name="meta.attr.copyright.markup">Square</property>
  <property name="meta.attr.encoded_by.markup">Tim Sheehy (tim@timsheehy.com)</property>
  <property name="meta.attr.genre.markup">Game</property>
  <property name="meta.attr.compilation.markup">1</property>
  <property name="meta.attr.TOPE.markup">NES</property>
  <property name="meta.attr.publisher.markup">OverClocked ReMix</property>
  <property name="meta.attr.SETSUBTITLE.markup">OCR00429</property>
  <property name="meta.attr.TIT3.markup">A Temple of Chaos</property>
  <property name="meta.attr.title.markup">Final Fantasy "A Temple of Chaos" OC ReMix</property>
  <property name="meta.attr.track.markup">429</property>
  <property name="meta.attr.date.markup">2001</property>
  <property name="meta.media.sample_aspect_num">1</property>
  <property name="meta.media.sample_aspect_den">1</property>
  <property name="meta.media.frame_rate_num">90000</property>
  <property name="meta.media.frame_rate_den">1</property>
  <property name="meta.media.colorspace">601</property>
  <property name="meta.media.color_trc">2</property>
  <property name="meta.media.has_b_frames">0</property>
  <property name="meta.media.width">700</property>
  <property name="meta.media.height">700</property>
  <property name="meta.media.aspect_ratio">1</property>
  <property name="meta.media.color_range">full</property>
  <property name="xml">was here</property>
  <property name="meta.media.top_field_first">0</property>
  <property name="meta.media.progressive">1</property>
  <property name="set.test_audio">0</property>
  <property name="set.test_image">1</property>
 </chain>
 <chain id="chain0" out="01:45:58.350">
  <property name="length">152448</property>
  <property name="eof">pause</property>
  <property name="resource">N:/Videos/Horror and SciFi/Final Fantasy/Final.Fantasy.The.Spirits.Within.2001.1080p.BluRay.HEVC.DTS-LiNUX/Final.Fantasy.The.Spirits.Within.2001.1080p.BluRay.HEVC.DTS-LiNUX.mkv</property>
  <property name="mlt_service">avformat-novalidate</property>
  <property name="seekable">1</property>
  <property name="audio_index">1</property>
  <property name="video_index">0</property>
  <property name="vstream">0</property>
  <property name="astream">0</property>
  <property name="kdenlive:control_uuid">{193136b1-969a-4943-bfcd-55058a6808f2}</property>
  <property name="kdenlive:id">4</property>
  <property name="kdenlive:clip_type">0</property>
  <property name="kdenlive:file_size">5331297763</property>
  <property name="kdenlive:file_hash">691e768d68c55b9a28cb9a278fdc8b17</property>
  <property name="kdenlive:folderid">-1</property>
  <property name="kdenlive:monitorPosition">0</property>
  <property name="mute_on_pause">0</property>
  <property name="meta.media.nb_streams">37</property>
  <property name="meta.media.0.stream.type">video</property>
  <property name="meta.media.0.stream.frame_rate">23.976</property>
  <property name="meta.media.0.stream.sample_aspect_ratio">1</property>
  <property name="meta.media.0.codec.width">1916</property>
  <property name="meta.media.0.codec.height">1036</property>
  <property name="meta.media.0.codec.rotate">0</property>
  <property name="meta.media.0.codec.pix_fmt">yuv420p10le</property>
  <property name="meta.media.0.codec.sample_aspect_ratio">1</property>
  <property name="meta.media.0.codec.colorspace">709</property>
  <property name="meta.media.0.codec.color_trc">1</property>
  <property name="meta.media.0.codec.name">hevc</property>
  <property name="meta.media.0.codec.long_name">HEVC (High Efficiency Video Coding)</property>
  <property name="meta.media.0.codec.bit_rate">0</property>
  <property name="meta.attr.0.stream.BPS-eng.markup">4999776</property>
  <property name="meta.attr.0.stream.DURATION-eng.markup">01:45:58.352000000</property>
  <property name="meta.attr.0.stream.NUMBER_OF_FRAMES-eng.markup">152448</property>
  <property name="meta.attr.0.stream.NUMBER_OF_BYTES-eng.markup">3973792365</property>
  <property name="meta.attr.0.stream._STATISTICS_WRITING_APP-eng.markup">mkvmerge v40.0.0 ('Old Town Road + Pony') 64-bit</property>
  <property name="meta.attr.0.stream._STATISTICS_WRITING_DATE_UTC-eng.markup">2019-12-29 15:49:45</property>
  <property name="meta.attr.0.stream._STATISTICS_TAGS-eng.markup">BPS DURATION NUMBER_OF_FRAMES NUMBER_OF_BYTES</property>
  <property name="meta.media.1.stream.type">audio</property>
  <property name="meta.media.1.codec.sample_fmt">fltp</property>
  <property name="meta.media.1.codec.sample_rate">48000</property>
  <property name="meta.media.1.codec.channels">6</property>
  <property name="meta.media.1.codec.layout">5.1(side)</property>
  <property name="meta.media.1.codec.name">dca</property>
  <property name="meta.media.1.codec.long_name">DCA (DTS Coherent Acoustics)</property>
  <property name="meta.media.1.codec.bit_rate">1411200</property>
  <property name="meta.attr.1.stream.language.markup">eng</property>
  <property name="meta.attr.1.stream.title.markup">Surround</property>
  <property name="meta.attr.1.stream.BPS-eng.markup">1412999</property>
  <property name="meta.attr.1.stream.DURATION-eng.markup">01:45:58.358000000</property>
  <property name="meta.attr.1.stream.NUMBER_OF_FRAMES-eng.markup">596096</property>
  <property name="meta.attr.1.stream.NUMBER_OF_BYTES-eng.markup">1123044864</property>
  <property name="meta.attr.1.stream._STATISTICS_WRITING_APP-eng.markup">mkvmerge v40.0.0 ('Old Town Road + Pony') 64-bit</property>
  <property name="meta.attr.1.stream._STATISTICS_WRITING_DATE_UTC-eng.markup">2019-12-29 15:49:45</property>
  <property name="meta.attr.1.stream._STATISTICS_TAGS-eng.markup">BPS DURATION NUMBER_OF_FRAMES NUMBER_OF_BYTES</property>
  <property name="meta.media.2.codec.name">pgssub</property>
  <property name="meta.media.2.codec.long_name">HDMV Presentation Graphic Stream subtitles</property>
  <property name="meta.media.2.codec.bit_rate">0</property>
  <property name="meta.attr.2.stream.language.markup">eng</property>
  <property name="meta.attr.2.stream.title.markup">English</property>
  <property name="meta.attr.2.stream.BPS-eng.markup">24594</property>
  <property name="meta.attr.2.stream.DURATION-eng.markup">01:33:45.954000000</property>
  <property name="meta.attr.2.stream.NUMBER_OF_FRAMES-eng.markup">1686</property>
  <property name="meta.attr.2.stream.NUMBER_OF_BYTES-eng.markup">17296140</property>
  <property name="meta.attr.2.stream._STATISTICS_WRITING_APP-eng.markup">mkvmerge v40.0.0 ('Old Town Road + Pony') 64-bit</property>
  <property name="meta.attr.2.stream._STATISTICS_WRITING_DATE_UTC-eng.markup">2019-12-29 15:49:45</property>
  <property name="meta.attr.2.stream._STATISTICS_TAGS-eng.markup">BPS DURATION NUMBER_OF_FRAMES NUMBER_OF_BYTES</property>
  <property name="meta.media.3.codec.name">pgssub</property>
  <property name="meta.media.3.codec.long_name">HDMV Presentation Graphic Stream subtitles</property>
  <property name="meta.media.3.codec.bit_rate">0</property>
  <property name="meta.attr.3.stream.language.markup">eng</property>
  <property name="meta.attr.3.stream.title.markup">English SDH</property>
  <property name="meta.attr.3.stream.BPS-eng.markup">32739</property>
  <property name="meta.attr.3.stream.DURATION-eng.markup">01:41:48.102000000</property>
  <property name="meta.attr.3.stream.NUMBER_OF_FRAMES-eng.markup">2103</property>
  <property name="meta.attr.3.stream.NUMBER_OF_BYTES-eng.markup">24997093</property>
  <property name="meta.attr.3.stream._STATISTICS_WRITING_APP-eng.markup">mkvmerge v40.0.0 ('Old Town Road + Pony') 64-bit</property>
  <property name="meta.attr.3.stream._STATISTICS_WRITING_DATE_UTC-eng.markup">2019-12-29 15:49:45</property>
  <property name="meta.attr.3.stream._STATISTICS_TAGS-eng.markup">BPS DURATION NUMBER_OF_FRAMES NUMBER_OF_BYTES</property>
  <property name="meta.media.4.codec.name">pgssub</property>
  <property name="meta.media.4.codec.long_name">HDMV Presentation Graphic Stream subtitles</property>
  <property name="meta.media.4.codec.bit_rate">0</property>
  <property name="meta.attr.4.stream.language.markup">ara</property>
  <property name="meta.attr.4.stream.title.markup">Arabic</property>
  <property name="meta.attr.4.stream.BPS-eng.markup">13581</property>
  <property name="meta.attr.4.stream.DURATION-eng.markup">01:33:59.217000000</property>
  <property name="meta.attr.4.stream.NUMBER_OF_FRAMES-eng.markup">1690</property>
  <property name="meta.attr.4.stream.NUMBER_OF_BYTES-eng.markup">9573918</property>
  <property name="meta.attr.4.stream._STATISTICS_WRITING_APP-eng.markup">mkvmerge v40.0.0 ('Old Town Road + Pony') 64-bit</property>
  <property name="meta.attr.4.stream._STATISTICS_WRITING_DATE_UTC-eng.markup">2019-12-29 15:49:45</property>
  <property name="meta.attr.4.stream._STATISTICS_TAGS-eng.markup">BPS DURATION NUMBER_OF_FRAMES NUMBER_OF_BYTES</property>
  <property name="meta.media.5.codec.name">pgssub</property>
  <property name="meta.media.5.codec.long_name">HDMV Presentation Graphic Stream subtitles</property>
  <property name="meta.media.5.codec.bit_rate">0</property>
  <property name="meta.attr.5.stream.language.markup">bul</property>
  <property name="meta.attr.5.stream.title.markup">Bulgarian</property>
  <property name="meta.attr.5.stream.BPS-eng.markup">23121</property>
  <property name="meta.attr.5.stream.DURATION-eng.markup">01:35:32.310000000</property>
  <property name="meta.attr.5.stream.NUMBER_OF_FRAMES-eng.markup">1656</property>
  <property name="meta.attr.5.stream.NUMBER_OF_BYTES-eng.markup">16567112</property>
  <property name="meta.attr.5.stream._STATISTICS_WRITING_APP-eng.markup">mkvmerge v40.0.0 ('Old Town Road + Pony') 64-bit</property>
  <property name="meta.attr.5.stream._STATISTICS_WRITING_DATE_UTC-eng.markup">2019-12-29 15:49:45</property>
  <property name="meta.attr.5.stream._STATISTICS_TAGS-eng.markup">BPS DURATION NUMBER_OF_FRAMES NUMBER_OF_BYTES</property>
  <property name="meta.media.6.codec.name">pgssub</property>
  <property name="meta.media.6.codec.long_name">HDMV Presentation Graphic Stream subtitles</property>
  <property name="meta.media.6.codec.bit_rate">0</property>
  <property name="meta.attr.6.stream.language.markup">chi</property>
  <property name="meta.attr.6.stream.title.markup">Cantonese</property>
  <property name="meta.attr.6.stream.BPS-eng.markup">19607</property>
  <property name="meta.attr.6.stream.DURATION-eng.markup">01:42:59.006000000</property>
  <property name="meta.attr.6.stream.NUMBER_OF_FRAMES-eng.markup">1709</property>
  <property name="meta.attr.6.stream.NUMBER_OF_BYTES-eng.markup">15144515</property>
  <property name="meta.attr.6.stream._STATISTICS_WRITING_APP-eng.markup">mkvmerge v40.0.0 ('Old Town Road + Pony') 64-bit</property>
  <property name="meta.attr.6.stream._STATISTICS_WRITING_DATE_UTC-eng.markup">2019-12-29 15:49:45</property>
  <property name="meta.attr.6.stream._STATISTICS_TAGS-eng.markup">BPS DURATION NUMBER_OF_FRAMES NUMBER_OF_BYTES</property>
  <property name="meta.media.7.codec.name">pgssub</property>
  <property name="meta.media.7.codec.long_name">HDMV Presentation Graphic Stream subtitles</property>
  <property name="meta.media.7.codec.bit_rate">0</property>
  <property name="meta.attr.7.stream.language.markup">chi</property>
  <property name="meta.attr.7.stream.title.markup">Mandarin</property>
  <property name="meta.attr.7.stream.BPS-eng.markup">21248</property>
  <property name="meta.attr.7.stream.DURATION-eng.markup">01:33:59.258000000</property>
  <property name="meta.attr.7.stream.NUMBER_OF_FRAMES-eng.markup">1704</property>
  <property name="meta.attr.7.stream.NUMBER_OF_BYTES-eng.markup">14978356</property>
  <property name="meta.attr.7.stream._STATISTICS_WRITING_APP-eng.markup">mkvmerge v40.0.0 ('Old Town Road + Pony') 64-bit</property>
  <property name="meta.attr.7.stream._STATISTICS_WRITING_DATE_UTC-eng.markup">2019-12-29 15:49:45</property>
  <property name="meta.attr.7.stream._STATISTICS_TAGS-eng.markup">BPS DURATION NUMBER_OF_FRAMES NUMBER_OF_BYTES</property>
  <property name="meta.media.8.codec.name">pgssub</property>
  <property name="meta.media.8.codec.long_name">HDMV Presentation Graphic Stream subtitles</property>
  <property name="meta.media.8.codec.bit_rate">0</property>
  <property name="meta.attr.8.stream.language.markup">hrv</property>
  <property name="meta.attr.8.stream.title.markup">Croatian</property>
  <property name="meta.attr.8.stream.BPS-eng.markup">18941</property>
  <property name="meta.attr.8.stream.DURATION-eng.markup">01:33:59.383000000</property>
  <property name="meta.attr.8.stream.NUMBER_OF_FRAMES-eng.markup">1355</property>
  <property name="meta.attr.8.stream.NUMBER_OF_BYTES-eng.markup">13352216</property>
  <property name="meta.attr.8.stream._STATISTICS_WRITING_APP-eng.markup">mkvmerge v40.0.0 ('Old Town Road + Pony') 64-bit</property>
  <property name="meta.attr.8.stream._STATISTICS_WRITING_DATE_UTC-eng.markup">2019-12-29 15:49:45</property>
  <property name="meta.attr.8.stream._STATISTICS_TAGS-eng.markup">BPS DURATION NUMBER_OF_FRAMES NUMBER_OF_BYTES</property>
  <property name="meta.media.9.codec.name">pgssub</property>
  <property name="meta.media.9.codec.long_name">HDMV Presentation Graphic Stream subtitles</property>
  <property name="meta.media.9.codec.bit_rate">0</property>
  <property name="meta.attr.9.stream.language.markup">cze</property>
  <property name="meta.attr.9.stream.title.markup">Czech</property>
  <property name="meta.attr.9.stream.BPS-eng.markup">21071</property>
  <property name="meta.attr.9.stream.DURATION-eng.markup">01:33:59.300000000</property>
  <property name="meta.attr.9.stream.NUMBER_OF_FRAMES-eng.markup">1688</property>
  <property name="meta.attr.9.stream.NUMBER_OF_BYTES-eng.markup">14853464</property>
  <property name="meta.attr.9.stream._STATISTICS_WRITING_APP-eng.markup">mkvmerge v40.0.0 ('Old Town Road + Pony') 64-bit</property>
  <property name="meta.attr.9.stream._STATISTICS_WRITING_DATE_UTC-eng.markup">2019-12-29 15:49:45</property>
  <property name="meta.attr.9.stream._STATISTICS_TAGS-eng.markup">BPS DURATION NUMBER_OF_FRAMES NUMBER_OF_BYTES</property>
  <property name="meta.media.10.codec.name">pgssub</property>
  <property name="meta.media.10.codec.long_name">HDMV Presentation Graphic Stream subtitles</property>
  <property name="meta.media.10.codec.bit_rate">0</property>
  <property name="meta.attr.10.stream.language.markup">dan</property>
  <property name="meta.attr.10.stream.title.markup">Danish</property>
  <property name="meta.attr.10.stream.BPS-eng.markup">20546</property>
  <property name="meta.attr.10.stream.DURATION-eng.markup">01:33:59.717000000</property>
  <property name="meta.attr.10.stream.NUMBER_OF_FRAMES-eng.markup">1184</property>
  <property name="meta.attr.10.stream.NUMBER_OF_BYTES-eng.markup">14484283</property>
  <property name="meta.attr.10.stream._STATISTICS_WRITING_APP-eng.markup">mkvmerge v40.0.0 ('Old Town Road + Pony') 64-bit</property>
  <property name="meta.attr.10.stream._STATISTICS_WRITING_DATE_UTC-eng.markup">2019-12-29 15:49:45</property>
  <property name="meta.attr.10.stream._STATISTICS_TAGS-eng.markup">BPS DURATION NUMBER_OF_FRAMES NUMBER_OF_BYTES</property>
  <property name="meta.media.11.codec.name">pgssub</property>
  <property name="meta.media.11.codec.long_name">HDMV Presentation Graphic Stream subtitles</property>
  <property name="meta.media.11.codec.bit_rate">0</property>
  <property name="meta.attr.11.stream.language.markup">dut</property>
  <property name="meta.attr.11.stream.title.markup">Dutch</property>
  <property name="meta.attr.11.stream.BPS-eng.markup">23897</property>
  <property name="meta.attr.11.stream.DURATION-eng.markup">01:33:59.675000000</property>
  <property name="meta.attr.11.stream.NUMBER_OF_FRAMES-eng.markup">1258</property>
  <property name="meta.attr.11.stream.NUMBER_OF_BYTES-eng.markup">16846710</property>
  <property name="meta.attr.11.stream._STATISTICS_WRITING_APP-eng.markup">mkvmerge v40.0.0 ('Old Town Road + Pony') 64-bit</property>
  <property name="meta.attr.11.stream._STATISTICS_WRITING_DATE_UTC-eng.markup">2019-12-29 15:49:45</property>
  <property name="meta.attr.11.stream._STATISTICS_TAGS-eng.markup">BPS DURATION NUMBER_OF_FRAMES NUMBER_OF_BYTES</property>
  <property name="meta.media.12.codec.name">pgssub</property>
  <property name="meta.media.12.codec.long_name">HDMV Presentation Graphic Stream subtitles</property>
  <property name="meta.media.12.codec.bit_rate">0</property>
  <property name="meta.attr.12.stream.language.markup">fin</property>
  <property name="meta.attr.12.stream.title.markup">Finnish</property>
  <property name="meta.attr.12.stream.BPS-eng.markup">20857</property>
  <property name="meta.attr.12.stream.DURATION-eng.markup">01:34:00.718000000</property>
  <property name="meta.attr.12.stream.NUMBER_OF_FRAMES-eng.markup">1209</property>
  <property name="meta.attr.12.stream.NUMBER_OF_BYTES-eng.markup">14706553</property>
  <property name="meta.attr.12.stream._STATISTICS_WRITING_APP-eng.markup">mkvmerge v40.0.0 ('Old Town Road + Pony') 64-bit</property>
  <property name="meta.attr.12.stream._STATISTICS_WRITING_DATE_UTC-eng.markup">2019-12-29 15:49:45</property>
  <property name="meta.attr.12.stream._STATISTICS_TAGS-eng.markup">BPS DURATION NUMBER_OF_FRAMES NUMBER_OF_BYTES</property>
  <property name="meta.media.13.codec.name">pgssub</property>
  <property name="meta.media.13.codec.long_name">HDMV Presentation Graphic Stream subtitles</property>
  <property name="meta.media.13.codec.bit_rate">0</property>
  <property name="meta.attr.13.stream.language.markup">fre</property>
  <property name="meta.attr.13.stream.title.markup">French</property>
  <property name="meta.attr.13.stream.BPS-eng.markup">21198</property>
  <property name="meta.attr.13.stream.DURATION-eng.markup">01:43:41.006000000</property>
  <property name="meta.attr.13.stream.NUMBER_OF_FRAMES-eng.markup">1642</property>
  <property name="meta.attr.13.stream.NUMBER_OF_BYTES-eng.markup">16484862</property>
  <property name="meta.attr.13.stream._STATISTICS_WRITING_APP-eng.markup">mkvmerge v40.0.0 ('Old Town Road + Pony') 64-bit</property>
  <property name="meta.attr.13.stream._STATISTICS_WRITING_DATE_UTC-eng.markup">2019-12-29 15:49:45</property>
  <property name="meta.attr.13.stream._STATISTICS_TAGS-eng.markup">BPS DURATION NUMBER_OF_FRAMES NUMBER_OF_BYTES</property>
  <property name="meta.media.14.codec.name">pgssub</property>
  <property name="meta.media.14.codec.long_name">HDMV Presentation Graphic Stream subtitles</property>
  <property name="meta.media.14.codec.bit_rate">0</property>
  <property name="meta.attr.14.stream.language.markup">ger</property>
  <property name="meta.attr.14.stream.title.markup">German</property>
  <property name="meta.attr.14.stream.BPS-eng.markup">24239</property>
  <property name="meta.attr.14.stream.DURATION-eng.markup">01:34:00.260000000</property>
  <property name="meta.attr.14.stream.NUMBER_OF_FRAMES-eng.markup">1493</property>
  <property name="meta.attr.14.stream.NUMBER_OF_BYTES-eng.markup">17089540</property>
  <property name="meta.attr.14.stream._STATISTICS_WRITING_APP-eng.markup">mkvmerge v40.0.0 ('Old Town Road + Pony') 64-bit</property>
  <property name="meta.attr.14.stream._STATISTICS_WRITING_DATE_UTC-eng.markup">2019-12-29 15:49:45</property>
  <property name="meta.attr.14.stream._STATISTICS_TAGS-eng.markup">BPS DURATION NUMBER_OF_FRAMES NUMBER_OF_BYTES</property>
  <property name="meta.media.15.codec.name">pgssub</property>
  <property name="meta.media.15.codec.long_name">HDMV Presentation Graphic Stream subtitles</property>
  <property name="meta.media.15.codec.bit_rate">0</property>
  <property name="meta.attr.15.stream.language.markup">gre</property>
  <property name="meta.attr.15.stream.title.markup">Greek</property>
  <property name="meta.attr.15.stream.BPS-eng.markup">24963</property>
  <property name="meta.attr.15.stream.DURATION-eng.markup">01:33:59.300000000</property>
  <property name="meta.attr.15.stream.NUMBER_OF_FRAMES-eng.markup">1694</property>
  <property name="meta.attr.15.stream.NUMBER_OF_BYTES-eng.markup">17597238</property>
  <property name="meta.attr.15.stream._STATISTICS_WRITING_APP-eng.markup">mkvmerge v40.0.0 ('Old Town Road + Pony') 64-bit</property>
  <property name="meta.attr.15.stream._STATISTICS_WRITING_DATE_UTC-eng.markup">2019-12-29 15:49:45</property>
  <property name="meta.attr.15.stream._STATISTICS_TAGS-eng.markup">BPS DURATION NUMBER_OF_FRAMES NUMBER_OF_BYTES</property>
  <property name="meta.media.16.codec.name">pgssub</property>
  <property name="meta.media.16.codec.long_name">HDMV Presentation Graphic Stream subtitles</property>
  <property name="meta.media.16.codec.bit_rate">0</property>
  <property name="meta.attr.16.stream.language.markup">heb</property>
  <property name="meta.attr.16.stream.title.markup">Hebrew</property>
  <property name="meta.attr.16.stream.BPS-eng.markup">18470</property>
  <property name="meta.attr.16.stream.DURATION-eng.markup">01:33:59.217000000</property>
  <property name="meta.attr.16.stream.NUMBER_OF_FRAMES-eng.markup">1688</property>
  <property name="meta.attr.16.stream.NUMBER_OF_BYTES-eng.markup">13019656</property>
  <property name="meta.attr.16.stream._STATISTICS_WRITING_APP-eng.markup">mkvmerge v40.0.0 ('Old Town Road + Pony') 64-bit</property>
  <property name="meta.attr.16.stream._STATISTICS_WRITING_DATE_UTC-eng.markup">2019-12-29 15:49:45</property>
  <property name="meta.attr.16.stream._STATISTICS_TAGS-eng.markup">BPS DURATION NUMBER_OF_FRAMES NUMBER_OF_BYTES</property>
  <property name="meta.media.17.codec.name">pgssub</property>
  <property name="meta.media.17.codec.long_name">HDMV Presentation Graphic Stream subtitles</property>
  <property name="meta.media.17.codec.bit_rate">0</property>
  <property name="meta.attr.17.stream.language.markup">hin</property>
  <property name="meta.attr.17.stream.title.markup">Hindi</property>
  <property name="meta.attr.17.stream.BPS-eng.markup">21017</property>
  <property name="meta.attr.17.stream.DURATION-eng.markup">01:33:59.300000000</property>
  <property name="meta.attr.17.stream.NUMBER_OF_FRAMES-eng.markup">1690</property>
  <property name="meta.attr.17.stream.NUMBER_OF_BYTES-eng.markup">14815519</property>
  <property name="meta.attr.17.stream._STATISTICS_WRITING_APP-eng.markup">mkvmerge v40.0.0 ('Old Town Road + Pony') 64-bit</property>
  <property name="meta.attr.17.stream._STATISTICS_WRITING_DATE_UTC-eng.markup">2019-12-29 15:49:45</property>
  <property name="meta.attr.17.stream._STATISTICS_TAGS-eng.markup">BPS DURATION NUMBER_OF_FRAMES NUMBER_OF_BYTES</property>
  <property name="meta.media.18.codec.name">pgssub</property>
  <property name="meta.media.18.codec.long_name">HDMV Presentation Graphic Stream subtitles</property>
  <property name="meta.media.18.codec.bit_rate">0</property>
  <property name="meta.attr.18.stream.language.markup">hun</property>
  <property name="meta.attr.18.stream.title.markup">Hungarian</property>
  <property name="meta.attr.18.stream.BPS-eng.markup">19042</property>
  <property name="meta.attr.18.stream.DURATION-eng.markup">01:33:59.175000000</property>
  <property name="meta.attr.18.stream.NUMBER_OF_FRAMES-eng.markup">1690</property>
  <property name="meta.attr.18.stream.NUMBER_OF_BYTES-eng.markup">13423018</property>
  <property name="meta.attr.18.stream._STATISTICS_WRITING_APP-eng.markup">mkvmerge v40.0.0 ('Old Town Road + Pony') 64-bit</property>
  <property name="meta.attr.18.stream._STATISTICS_WRITING_DATE_UTC-eng.markup">2019-12-29 15:49:45</property>
  <property name="meta.attr.18.stream._STATISTICS_TAGS-eng.markup">BPS DURATION NUMBER_OF_FRAMES NUMBER_OF_BYTES</property>
  <property name="meta.media.19.codec.name">pgssub</property>
  <property name="meta.media.19.codec.long_name">HDMV Presentation Graphic Stream subtitles</property>
  <property name="meta.media.19.codec.bit_rate">0</property>
  <property name="meta.attr.19.stream.language.markup">ice</property>
  <property name="meta.attr.19.stream.title.markup">Icelandic</property>
  <property name="meta.attr.19.stream.BPS-eng.markup">23876</property>
  <property name="meta.attr.19.stream.DURATION-eng.markup">01:33:59.217000000</property>
  <property name="meta.attr.19.stream.NUMBER_OF_FRAMES-eng.markup">1688</property>
  <property name="meta.attr.19.stream.NUMBER_OF_BYTES-eng.markup">16830422</property>
  <property name="meta.attr.19.stream._STATISTICS_WRITING_APP-eng.markup">mkvmerge v40.0.0 ('Old Town Road + Pony') 64-bit</property>
  <property name="meta.attr.19.stream._STATISTICS_WRITING_DATE_UTC-eng.markup">2019-12-29 15:49:45</property>
  <property name="meta.attr.19.stream._STATISTICS_TAGS-eng.markup">BPS DURATION NUMBER_OF_FRAMES NUMBER_OF_BYTES</property>
  <property name="meta.media.20.codec.name">pgssub</property>
  <property name="meta.media.20.codec.long_name">HDMV Presentation Graphic Stream subtitles</property>
  <property name="meta.media.20.codec.bit_rate">0</property>
  <property name="meta.attr.20.stream.language.markup">ind</property>
  <property name="meta.attr.20.stream.title.markup">Indonesian</property>
  <property name="meta.attr.20.stream.BPS-eng.markup">26444</property>
  <property name="meta.attr.20.stream.DURATION-eng.markup">01:33:59.300000000</property>
  <property name="meta.attr.20.stream.NUMBER_OF_FRAMES-eng.markup">1662</property>
  <property name="meta.attr.20.stream.NUMBER_OF_BYTES-eng.markup">18640975</property>
  <property name="meta.attr.20.stream._STATISTICS_WRITING_APP-eng.markup">mkvmerge v40.0.0 ('Old Town Road + Pony') 64-bit</property>
  <property name="meta.attr.20.stream._STATISTICS_WRITING_DATE_UTC-eng.markup">2019-12-29 15:49:45</property>
  <property name="meta.attr.20.stream._STATISTICS_TAGS-eng.markup">BPS DURATION NUMBER_OF_FRAMES NUMBER_OF_BYTES</property>
  <property name="meta.media.21.codec.name">pgssub</property>
  <property name="meta.media.21.codec.long_name">HDMV Presentation Graphic Stream subtitles</property>
  <property name="meta.media.21.codec.bit_rate">0</property>
  <property name="meta.attr.21.stream.language.markup">ita</property>
  <property name="meta.attr.21.stream.title.markup">Italian</property>
  <property name="meta.attr.21.stream.BPS-eng.markup">23573</property>
  <property name="meta.attr.21.stream.DURATION-eng.markup">01:42:58.922000000</property>
  <property name="meta.attr.21.stream.NUMBER_OF_FRAMES-eng.markup">1698</property>
  <property name="meta.attr.21.stream.NUMBER_OF_BYTES-eng.markup">18207609</property>
  <property name="meta.attr.21.stream._STATISTICS_WRITING_APP-eng.markup">mkvmerge v40.0.0 ('Old Town Road + Pony') 64-bit</property>
  <property name="meta.attr.21.stream._STATISTICS_WRITING_DATE_UTC-eng.markup">2019-12-29 15:49:45</property>
  <property name="meta.attr.21.stream._STATISTICS_TAGS-eng.markup">BPS DURATION NUMBER_OF_FRAMES NUMBER_OF_BYTES</property>
  <property name="meta.media.22.codec.name">pgssub</property>
  <property name="meta.media.22.codec.long_name">HDMV Presentation Graphic Stream subtitles</property>
  <property name="meta.media.22.codec.bit_rate">0</property>
  <property name="meta.attr.22.stream.language.markup">kor</property>
  <property name="meta.attr.22.stream.title.markup">Korean</property>
  <property name="meta.attr.22.stream.BPS-eng.markup">19788</property>
  <property name="meta.attr.22.stream.DURATION-eng.markup">01:35:32.477000000</property>
  <property name="meta.attr.22.stream.NUMBER_OF_FRAMES-eng.markup">1708</property>
  <property name="meta.attr.22.stream.NUMBER_OF_BYTES-eng.markup">14179403</property>
  <property name="meta.attr.22.stream._STATISTICS_WRITING_APP-eng.markup">mkvmerge v40.0.0 ('Old Town Road + Pony') 64-bit</property>
  <property name="meta.attr.22.stream._STATISTICS_WRITING_DATE_UTC-eng.markup">2019-12-29 15:49:45</property>
  <property name="meta.attr.22.stream._STATISTICS_TAGS-eng.markup">BPS DURATION NUMBER_OF_FRAMES NUMBER_OF_BYTES</property>
  <property name="meta.media.23.codec.name">pgssub</property>
  <property name="meta.media.23.codec.long_name">HDMV Presentation Graphic Stream subtitles</property>
  <property name="meta.media.23.codec.bit_rate">0</property>
  <property name="meta.attr.23.stream.language.markup">nor</property>
  <property name="meta.attr.23.stream.title.markup">Norwegian</property>
  <property name="meta.attr.23.stream.BPS-eng.markup">20066</property>
  <property name="meta.attr.23.stream.DURATION-eng.markup">01:33:59.675000000</property>
  <property name="meta.attr.23.stream.NUMBER_OF_FRAMES-eng.markup">1184</property>
  <property name="meta.attr.23.stream.NUMBER_OF_BYTES-eng.markup">14146014</property>
  <property name="meta.attr.23.stream._STATISTICS_WRITING_APP-eng.markup">mkvmerge v40.0.0 ('Old Town Road + Pony') 64-bit</property>
  <property name="meta.attr.23.stream._STATISTICS_WRITING_DATE_UTC-eng.markup">2019-12-29 15:49:45</property>
  <property name="meta.attr.23.stream._STATISTICS_TAGS-eng.markup">BPS DURATION NUMBER_OF_FRAMES NUMBER_OF_BYTES</property>
  <property name="meta.media.24.codec.name">pgssub</property>
  <property name="meta.media.24.codec.long_name">HDMV Presentation Graphic Stream subtitles</property>
  <property name="meta.media.24.codec.bit_rate">0</property>
  <property name="meta.attr.24.stream.language.markup">pol</property>
  <property name="meta.attr.24.stream.title.markup">Polish</property>
  <property name="meta.attr.24.stream.BPS-eng.markup">18199</property>
  <property name="meta.attr.24.stream.DURATION-eng.markup">01:33:59.300000000</property>
  <property name="meta.attr.24.stream.NUMBER_OF_FRAMES-eng.markup">1688</property>
  <property name="meta.attr.24.stream.NUMBER_OF_BYTES-eng.markup">12829046</property>
  <property name="meta.attr.24.stream._STATISTICS_WRITING_APP-eng.markup">mkvmerge v40.0.0 ('Old Town Road + Pony') 64-bit</property>
  <property name="meta.attr.24.stream._STATISTICS_WRITING_DATE_UTC-eng.markup">2019-12-29 15:49:45</property>
  <property name="meta.attr.24.stream._STATISTICS_TAGS-eng.markup">BPS DURATION NUMBER_OF_FRAMES NUMBER_OF_BYTES</property>
  <property name="meta.media.25.codec.name">pgssub</property>
  <property name="meta.media.25.codec.long_name">HDMV Presentation Graphic Stream subtitles</property>
  <property name="meta.media.25.codec.bit_rate">0</property>
  <property name="meta.attr.25.stream.language.markup">por</property>
  <property name="meta.attr.25.stream.title.markup">Brazilian Portuguese</property>
  <property name="meta.attr.25.stream.BPS-eng.markup">29654</property>
  <property name="meta.attr.25.stream.DURATION-eng.markup">01:33:59.300000000</property>
  <property name="meta.attr.25.stream.NUMBER_OF_FRAMES-eng.markup">1836</property>
  <property name="meta.attr.25.stream.NUMBER_OF_BYTES-eng.markup">20903964</property>
  <property name="meta.attr.25.stream._STATISTICS_WRITING_APP-eng.markup">mkvmerge v40.0.0 ('Old Town Road + Pony') 64-bit</property>
  <property name="meta.attr.25.stream._STATISTICS_WRITING_DATE_UTC-eng.markup">2019-12-29 15:49:45</property>
  <property name="meta.attr.25.stream._STATISTICS_TAGS-eng.markup">BPS DURATION NUMBER_OF_FRAMES NUMBER_OF_BYTES</property>
  <property name="meta.media.26.codec.name">pgssub</property>
  <property name="meta.media.26.codec.long_name">HDMV Presentation Graphic Stream subtitles</property>
  <property name="meta.media.26.codec.bit_rate">0</property>
  <property name="meta.attr.26.stream.language.markup">por</property>
  <property name="meta.attr.26.stream.title.markup">Iberian Portuguese</property>
  <property name="meta.attr.26.stream.BPS-eng.markup">27145</property>
  <property name="meta.attr.26.stream.DURATION-eng.markup">01:33:59.300000000</property>
  <property name="meta.attr.26.stream.NUMBER_OF_FRAMES-eng.markup">1720</property>
  <property name="meta.attr.26.stream.NUMBER_OF_BYTES-eng.markup">19134971</property>
  <property name="meta.attr.26.stream._STATISTICS_WRITING_APP-eng.markup">mkvmerge v40.0.0 ('Old Town Road + Pony') 64-bit</property>
  <property name="meta.attr.26.stream._STATISTICS_WRITING_DATE_UTC-eng.markup">2019-12-29 15:49:45</property>
  <property name="meta.attr.26.stream._STATISTICS_TAGS-eng.markup">BPS DURATION NUMBER_OF_FRAMES NUMBER_OF_BYTES</property>
  <property name="meta.media.27.codec.name">pgssub</property>
  <property name="meta.media.27.codec.long_name">HDMV Presentation Graphic Stream subtitles</property>
  <property name="meta.media.27.codec.bit_rate">0</property>
  <property name="meta.attr.27.stream.language.markup">rum</property>
  <property name="meta.attr.27.stream.title.markup">Romanian</property>
  <property name="meta.attr.27.stream.BPS-eng.markup">25197</property>
  <property name="meta.attr.27.stream.DURATION-eng.markup">01:35:32.519000000</property>
  <property name="meta.attr.27.stream.NUMBER_OF_FRAMES-eng.markup">1706</property>
  <property name="meta.attr.27.stream.NUMBER_OF_BYTES-eng.markup">18055771</property>
  <property name="meta.attr.27.stream._STATISTICS_WRITING_APP-eng.markup">mkvmerge v40.0.0 ('Old Town Road + Pony') 64-bit</property>
  <property name="meta.attr.27.stream._STATISTICS_WRITING_DATE_UTC-eng.markup">2019-12-29 15:49:45</property>
  <property name="meta.attr.27.stream._STATISTICS_TAGS-eng.markup">BPS DURATION NUMBER_OF_FRAMES NUMBER_OF_BYTES</property>
  <property name="meta.media.28.codec.name">pgssub</property>
  <property name="meta.media.28.codec.long_name">HDMV Presentation Graphic Stream subtitles</property>
  <property name="meta.media.28.codec.bit_rate">0</property>
  <property name="meta.attr.28.stream.language.markup">slv</property>
  <property name="meta.attr.28.stream.title.markup">Slovenian</property>
  <property name="meta.attr.28.stream.BPS-eng.markup">22934</property>
  <property name="meta.attr.28.stream.DURATION-eng.markup">01:33:59.300000000</property>
  <property name="meta.attr.28.stream.NUMBER_OF_FRAMES-eng.markup">1706</property>
  <property name="meta.attr.28.stream.NUMBER_OF_BYTES-eng.markup">16167012</property>
  <property name="meta.attr.28.stream._STATISTICS_WRITING_APP-eng.markup">mkvmerge v40.0.0 ('Old Town Road + Pony') 64-bit</property>
  <property name="meta.attr.28.stream._STATISTICS_WRITING_DATE_UTC-eng.markup">2019-12-29 15:49:45</property>
  <property name="meta.attr.28.stream._STATISTICS_TAGS-eng.markup">BPS DURATION NUMBER_OF_FRAMES NUMBER_OF_BYTES</property>
  <property name="meta.media.29.codec.name">pgssub</property>
  <property name="meta.media.29.codec.long_name">HDMV Presentation Graphic Stream subtitles</property>
  <property name="meta.media.29.codec.bit_rate">0</property>
  <property name="meta.attr.29.stream.language.markup">spa</property>
  <property name="meta.attr.29.stream.title.markup">Spanish (Latin America)</property>
  <property name="meta.attr.29.stream.BPS-eng.markup">25790</property>
  <property name="meta.attr.29.stream.DURATION-eng.markup">01:35:32.519000000</property>
  <property name="meta.attr.29.stream.NUMBER_OF_FRAMES-eng.markup">1699</property>
  <property name="meta.attr.29.stream.NUMBER_OF_BYTES-eng.markup">18480666</property>
  <property name="meta.attr.29.stream._STATISTICS_WRITING_APP-eng.markup">mkvmerge v40.0.0 ('Old Town Road + Pony') 64-bit</property>
  <property name="meta.attr.29.stream._STATISTICS_WRITING_DATE_UTC-eng.markup">2019-12-29 15:49:45</property>
  <property name="meta.attr.29.stream._STATISTICS_TAGS-eng.markup">BPS DURATION NUMBER_OF_FRAMES NUMBER_OF_BYTES</property>
  <property name="meta.media.30.codec.name">pgssub</property>
  <property name="meta.media.30.codec.long_name">HDMV Presentation Graphic Stream subtitles</property>
  <property name="meta.media.30.codec.bit_rate">0</property>
  <property name="meta.attr.30.stream.language.markup">spa</property>
  <property name="meta.attr.30.stream.title.markup">Spanish (Spain)</property>
  <property name="meta.attr.30.stream.BPS-eng.markup">20473</property>
  <property name="meta.attr.30.stream.DURATION-eng.markup">01:33:59.300000000</property>
  <property name="meta.attr.30.stream.NUMBER_OF_FRAMES-eng.markup">1702</property>
  <property name="meta.attr.30.stream.NUMBER_OF_BYTES-eng.markup">14432022</property>
  <property name="meta.attr.30.stream._STATISTICS_WRITING_APP-eng.markup">mkvmerge v40.0.0 ('Old Town Road + Pony') 64-bit</property>
  <property name="meta.attr.30.stream._STATISTICS_WRITING_DATE_UTC-eng.markup">2019-12-29 15:49:45</property>
  <property name="meta.attr.30.stream._STATISTICS_TAGS-eng.markup">BPS DURATION NUMBER_OF_FRAMES NUMBER_OF_BYTES</property>
  <property name="meta.media.31.codec.name">pgssub</property>
  <property name="meta.media.31.codec.long_name">HDMV Presentation Graphic Stream subtitles</property>
  <property name="meta.media.31.codec.bit_rate">0</property>
  <property name="meta.attr.31.stream.language.markup">swe</property>
  <property name="meta.attr.31.stream.title.markup">Swedish</property>
  <property name="meta.attr.31.stream.BPS-eng.markup">19711</property>
  <property name="meta.attr.31.stream.DURATION-eng.markup">01:33:59.675000000</property>
  <property name="meta.attr.31.stream.NUMBER_OF_FRAMES-eng.markup">1184</property>
  <property name="meta.attr.31.stream.NUMBER_OF_BYTES-eng.markup">13895741</property>
  <property name="meta.attr.31.stream._STATISTICS_WRITING_APP-eng.markup">mkvmerge v40.0.0 ('Old Town Road + Pony') 64-bit</property>
  <property name="meta.attr.31.stream._STATISTICS_WRITING_DATE_UTC-eng.markup">2019-12-29 15:49:45</property>
  <property name="meta.attr.31.stream._STATISTICS_TAGS-eng.markup">BPS DURATION NUMBER_OF_FRAMES NUMBER_OF_BYTES</property>
  <property name="meta.media.32.codec.name">pgssub</property>
  <property name="meta.media.32.codec.long_name">HDMV Presentation Graphic Stream subtitles</property>
  <property name="meta.media.32.codec.bit_rate">0</property>
  <property name="meta.attr.32.stream.language.markup">tha</property>
  <property name="meta.attr.32.stream.title.markup">Thai</property>
  <property name="meta.attr.32.stream.BPS-eng.markup">20455</property>
  <property name="meta.attr.32.stream.DURATION-eng.markup">01:44:32.308000000</property>
  <property name="meta.attr.32.stream.NUMBER_OF_FRAMES-eng.markup">1708</property>
  <property name="meta.attr.32.stream.NUMBER_OF_BYTES-eng.markup">16038127</property>
  <property name="meta.attr.32.stream._STATISTICS_WRITING_APP-eng.markup">mkvmerge v40.0.0 ('Old Town Road + Pony') 64-bit</property>
  <property name="meta.attr.32.stream._STATISTICS_WRITING_DATE_UTC-eng.markup">2019-12-29 15:49:45</property>
  <property name="meta.attr.32.stream._STATISTICS_TAGS-eng.markup">BPS DURATION NUMBER_OF_FRAMES NUMBER_OF_BYTES</property>
  <property name="meta.media.33.codec.name">pgssub</property>
  <property name="meta.media.33.codec.long_name">HDMV Presentation Graphic Stream subtitles</property>
  <property name="meta.media.33.codec.bit_rate">0</property>
  <property name="meta.attr.33.stream.language.markup">tur</property>
  <property name="meta.attr.33.stream.title.markup">Turkish</property>
  <property name="meta.attr.33.stream.BPS-eng.markup">22418</property>
  <property name="meta.attr.33.stream.DURATION-eng.markup">01:33:59.217000000</property>
  <property name="meta.attr.33.stream.NUMBER_OF_FRAMES-eng.markup">1674</property>
  <property name="meta.attr.33.stream.NUMBER_OF_BYTES-eng.markup">15802734</property>
  <property name="meta.attr.33.stream._STATISTICS_WRITING_APP-eng.markup">mkvmerge v40.0.0 ('Old Town Road + Pony') 64-bit</property>
  <property name="meta.attr.33.stream._STATISTICS_WRITING_DATE_UTC-eng.markup">2019-12-29 15:49:45</property>
  <property name="meta.attr.33.stream._STATISTICS_TAGS-eng.markup">BPS DURATION NUMBER_OF_FRAMES NUMBER_OF_BYTES</property>
  <property name="meta.media.34.codec.name">srt</property>
  <property name="meta.media.34.codec.long_name">SubRip subtitle</property>
  <property name="meta.media.34.codec.bit_rate">0</property>
  <property name="meta.attr.34.stream.language.markup">eng</property>
  <property name="meta.attr.34.stream.BPS-eng.markup">48</property>
  <property name="meta.attr.34.stream.DURATION-eng.markup">01:33:45.538000000</property>
  <property name="meta.attr.34.stream.NUMBER_OF_FRAMES-eng.markup">842</property>
  <property name="meta.attr.34.stream.NUMBER_OF_BYTES-eng.markup">34158</property>
  <property name="meta.attr.34.stream._STATISTICS_WRITING_APP-eng.markup">mkvmerge v40.0.0 ('Old Town Road + Pony') 64-bit</property>
  <property name="meta.attr.34.stream._STATISTICS_WRITING_DATE_UTC-eng.markup">2019-12-29 15:49:45</property>
  <property name="meta.attr.34.stream._STATISTICS_TAGS-eng.markup">BPS DURATION NUMBER_OF_FRAMES NUMBER_OF_BYTES</property>
  <property name="meta.media.35.codec.name">srt</property>
  <property name="meta.media.35.codec.long_name">SubRip subtitle</property>
  <property name="meta.media.35.codec.bit_rate">0</property>
  <property name="meta.attr.35.stream.language.markup">eng</property>
  <property name="meta.attr.35.stream.title.markup">SDH</property>
  <property name="meta.attr.35.stream.BPS-eng.markup">43</property>
  <property name="meta.attr.35.stream.DURATION-eng.markup">01:31:41.370000000</property>
  <property name="meta.attr.35.stream.NUMBER_OF_FRAMES-eng.markup">833</property>
  <property name="meta.attr.35.stream.NUMBER_OF_BYTES-eng.markup">29767</property>
  <property name="meta.attr.35.stream._STATISTICS_WRITING_APP-eng.markup">mkvmerge v40.0.0 ('Old Town Road + Pony') 64-bit</property>
  <property name="meta.attr.35.stream._STATISTICS_WRITING_DATE_UTC-eng.markup">2019-12-29 15:49:45</property>
  <property name="meta.attr.35.stream._STATISTICS_TAGS-eng.markup">BPS DURATION NUMBER_OF_FRAMES NUMBER_OF_BYTES</property>
  <property name="meta.media.36.codec.name">srt</property>
  <property name="meta.media.36.codec.long_name">SubRip subtitle</property>
  <property name="meta.media.36.codec.bit_rate">0</property>
  <property name="meta.attr.36.stream.language.markup">swe</property>
  <property name="meta.attr.36.stream.BPS-eng.markup">47</property>
  <property name="meta.attr.36.stream.DURATION-eng.markup">01:33:48.363000000</property>
  <property name="meta.attr.36.stream.NUMBER_OF_FRAMES-eng.markup">683</property>
  <property name="meta.attr.36.stream.NUMBER_OF_BYTES-eng.markup">33075</property>
  <property name="meta.attr.36.stream._STATISTICS_WRITING_APP-eng.markup">mkvmerge v40.0.0 ('Old Town Road + Pony') 64-bit</property>
  <property name="meta.attr.36.stream._STATISTICS_WRITING_DATE_UTC-eng.markup">2019-12-29 15:49:45</property>
  <property name="meta.attr.36.stream._STATISTICS_TAGS-eng.markup">BPS DURATION NUMBER_OF_FRAMES NUMBER_OF_BYTES</property>
  <property name="meta.attr.creation_time.markup">2019-12-29T15:49:45.000000Z</property>
  <property name="meta.attr.ENCODER.markup">Lavf58.29.100</property>
  <property name="meta.media.sample_aspect_num">1</property>
  <property name="meta.media.sample_aspect_den">1</property>
  <property name="meta.media.frame_rate_num">24000</property>
  <property name="meta.media.frame_rate_den">1001</property>
  <property name="meta.media.colorspace">709</property>
  <property name="meta.media.color_trc">1</property>
  <property name="meta.media.has_b_frames">2</property>
  <property name="meta.media.width">1916</property>
  <property name="meta.media.height">1036</property>
  <property name="meta.media.aspect_ratio">1</property>
  <property name="meta.media.color_range">mpeg</property>
  <property name="xml">was here</property>
  <property name="meta.media.top_field_first">0</property>
  <property name="meta.media.progressive">1</property>
  <property name="set.test_audio">0</property>
  <property name="set.test_image">1</property>
 </chain>
 <chain id="chain6" out="00:04:05.797">
  <property name="length">5894</property>
  <property name="eof">pause</property>
  <property name="resource">C:/Users/kado/Videos/FanEdits/FanMixes/Final Fantasy (2001) - The Phantom Menace/ost/Final_Fantasy_4_Hymn_to_the_Crystals_OC_ReMix.mp3</property>
  <property name="mlt_service">avformat-novalidate</property>
  <property name="seekable">1</property>
  <property name="audio_index">0</property>
  <property name="video_index">1</property>
  <property name="vstream">0</property>
  <property name="astream">0</property>
  <property name="kdenlive:folderid">5</property>
  <property name="kdenlive:id">7</property>
  <property name="kdenlive:control_uuid">{93e86435-4609-41f8-acc6-be87cdccf41b}</property>
  <property name="mute_on_pause">0</property>
  <property name="kdenlive:clip_type">0</property>
  <property name="kdenlive:coverartstream">1</property>
  <property name="kdenlive:file_size">6797335</property>
  <property name="kdenlive:file_hash">89c39d837ae5299f73020f770ce7b7b7</property>
  <property name="kdenlive:monitorPosition">0</property>
  <property name="meta.media.nb_streams">2</property>
  <property name="meta.media.0.stream.type">audio</property>
  <property name="meta.media.0.codec.sample_fmt">fltp</property>
  <property name="meta.media.0.codec.sample_rate">44100</property>
  <property name="meta.media.0.codec.channels">2</property>
  <property name="meta.media.0.codec.layout">stereo</property>
  <property name="meta.media.0.codec.name">mp3float</property>
  <property name="meta.media.0.codec.long_name">MP3 (MPEG audio layer 3)</property>
  <property name="meta.media.0.codec.bit_rate">218271</property>
  <property name="meta.attr.0.stream.encoder.markup">LAME3.100</property>
  <property name="meta.media.1.stream.type">video</property>
  <property name="meta.media.1.stream.frame_rate">90000</property>
  <property name="meta.media.1.stream.sample_aspect_ratio">0</property>
  <property name="meta.media.1.codec.width">700</property>
  <property name="meta.media.1.codec.height">700</property>
  <property name="meta.media.1.codec.rotate">0</property>
  <property name="meta.media.1.codec.pix_fmt">yuvj444p</property>
  <property name="meta.media.1.codec.sample_aspect_ratio">0</property>
  <property name="meta.media.1.codec.colorspace">601</property>
  <property name="meta.media.1.codec.name">mjpeg</property>
  <property name="meta.media.1.codec.long_name">MJPEG (Motion JPEG)</property>
  <property name="meta.media.1.codec.bit_rate">0</property>
  <property name="meta.attr.1.stream.comment.markup">Cover (front)</property>
  <property name="meta.attr.album.markup">ocremix.org</property>
  <property name="meta.attr.artist.markup">RebeccaETripp</property>
  <property name="meta.attr.album_artist.markup">OverClocked ReMix</property>
  <property name="meta.attr.comment.markup">This was my attempt to encapsulate the spiritual essence of the Final Fantasy series. I was going for a sort of mystical/reverent feeling. There are many versions of the FF prelude out there already, so it was difficult to find a new take on it in one sense. However, nobody had composed an arrangement of this main theme that emphasized the spiritual essence of the ever-prominent crystals in quite the same way -- so I used that to guide me: a feeling that this particular facet of the crystal had somehow been, for the most part, unnoticed.&#xd;
&#xd;
This is sort of how I've been wanting to hear the song all along, emphasizing the more ethereal aspects of the games, as opposed to making the theme more grandiose or, adversely, tame and relaxing. In my mind, this could be a version of the tune that might play inside a temple in some kind of ancient magical village guarding an elemental crystal shard, such as Cleyra or Mysidia.&#xd;
&#xd;
I used 3 harps, harpsichord, VSTs of a full choir, a soprano soloist, and a young boy soloist in this track, along with some temple bells and some mystical/spacey-sounding synths. I was sort of trying to combine the medieval aesthetic of most of the older games with the new-agey depth I have come to associate with the various alien and otherworldly races in FF, such as the Lunarians who are very knowledgeable and detached as compared with the protagonists.&#xd;
&#xd;
Rebecca E. Tripp&#xd;
https://youtube.com/rebeccaetripp</property>
  <property name="meta.attr.composer.markup">Nobuo Uematsu</property>
  <property name="meta.attr.grouping.markup">Final Fantasy IV</property>
  <property name="meta.attr.copyright.markup">Square</property>
  <property name="meta.attr.encoded_by.markup">Rebecca E. Tripp</property>
  <property name="meta.attr.genre.markup">Game</property>
  <property name="meta.attr.compilation.markup">1</property>
  <property name="meta.attr.TOPE.markup">SNES</property>
  <property name="meta.attr.publisher.markup">OverClocked ReMix</property>
  <property name="meta.attr.setsubtitle.markup">OCR03621</property>
  <property name="meta.attr.TIT3.markup">Hymn to the Crystals</property>
  <property name="meta.attr.title.markup">Final Fantasy IV "Hymn to the Crystals" OC ReMix</property>
  <property name="meta.attr.track.markup">3621</property>
  <property name="meta.attr.date.markup">2017</property>
  <property name="meta.media.sample_aspect_num">1</property>
  <property name="meta.media.sample_aspect_den">1</property>
  <property name="meta.media.frame_rate_num">90000</property>
  <property name="meta.media.frame_rate_den">1</property>
  <property name="meta.media.colorspace">601</property>
  <property name="meta.media.color_trc">2</property>
  <property name="meta.media.has_b_frames">0</property>
  <property name="meta.media.width">700</property>
  <property name="meta.media.height">700</property>
  <property name="meta.media.aspect_ratio">1</property>
  <property name="meta.media.color_range">full</property>
  <property name="xml">was here</property>
  <property name="meta.media.top_field_first">0</property>
  <property name="meta.media.progressive">1</property>
  <property name="set.test_audio">0</property>
  <property name="set.test_image">1</property>
 </chain>
 <playlist id="playlist6">
  <property name="kdenlive:audio_track">1</property>
  <entry in="00:00:00.000" out="00:00:28.654" producer="chain3">
   <property name="kdenlive:id">6</property>
   <filter id="filter25">
    <property name="window">75</property>
    <property name="max_gain">20dB</property>
    <property name="level">00:00:00.000=-10</property>
    <property name="mlt_service">volume</property>
    <property name="kdenlive_id">volume</property>
    <property name="kdenlive:collapsed">0</property>
   </filter>
  </entry>
  <entry in="00:00:28.695" out="00:00:29.905" producer="chain3">
   <property name="kdenlive:id">6</property>
   <filter id="filter26">
    <property name="window">75</property>
    <property name="max_gain">20dB</property>
    <property name="level">00:00:28.695=-10</property>
    <property name="mlt_service">volume</property>
    <property name="kdenlive_id">volume</property>
    <property name="kdenlive:collapsed">0</property>
   </filter>
   <filter id="filter27" in="00:00:28.654" out="00:00:29.905">
    <property name="window">75</property>
    <property name="max_gain">20dB</property>
    <property name="mlt_service">volume</property>
    <property name="kdenlive_id">fadeout</property>
    <property name="gain">1</property>
    <property name="end">0</property>
    <property name="kdenlive:collapsed">0</property>
   </filter>
  </entry>
  <blank length="00:14:02.586"/>
  <entry in="00:17:06.006" out="00:17:08.717" producer="chain0">
   <property name="kdenlive:id">4</property>
   <property name="kdenlive:activeeffect">1</property>
   <filter id="filter16" in="00:17:06.006" out="00:17:06.340">
    <property name="window">75</property>
    <property name="max_gain">20dB</property>
    <property name="mlt_service">volume</property>
    <property name="kdenlive_id">fadein</property>
    <property name="gain">0</property>
    <property name="end">1</property>
    <property name="kdenlive:collapsed">0</property>
   </filter>
   <filter id="filter17">
    <property name="window">75</property>
    <property name="max_gain">20dB</property>
    <property name="level">00:17:06.006=7</property>
    <property name="mlt_service">volume</property>
    <property name="kdenlive_id">volume</property>
    <property name="kdenlive:collapsed">0</property>
   </filter>
  </entry>
  <entry in="00:17:09.259" out="00:17:11.428" producer="chain0">
   <property name="kdenlive:id">4</property>
   <filter id="filter18">
    <property name="window">75</property>
    <property name="max_gain">20dB</property>
    <property name="level">00:17:09.259=7;00:17:11.428=0</property>
    <property name="mlt_service">volume</property>
    <property name="kdenlive_id">volume</property>
    <property name="kdenlive:collapsed">0</property>
   </filter>
  </entry>
  <entry in="00:17:09.259" out="00:17:11.428" producer="chain0">
   <property name="kdenlive:id">4</property>
   <filter id="filter19">
    <property name="window">75</property>
    <property name="max_gain">20dB</property>
    <property name="level">00:17:09.259=0</property>
    <property name="mlt_service">volume</property>
    <property name="kdenlive_id">volume</property>
    <property name="kdenlive:collapsed">0</property>
   </filter>
   <filter id="filter22" in="00:17:09.927" out="00:17:11.428">
    <property name="window">75</property>
    <property name="max_gain">20dB</property>
    <property name="mlt_service">volume</property>
    <property name="kdenlive_id">fadeout</property>
    <property name="gain">1</property>
    <property name="end">0</property>
    <property name="kdenlive:collapsed">0</property>
   </filter>
  </entry>
  <blank length="01:11:22.231"/>
  <entry in="00:00:03.754" out="00:03:52.261" producer="chain6">
   <property name="kdenlive:id">7</property>
   <filter id="filter33" in="00:00:03.754" out="00:00:26.401">
    <property name="window">75</property>
    <property name="max_gain">20dB</property>
    <property name="mlt_service">volume</property>
    <property name="kdenlive_id">fadein</property>
    <property name="gain">0</property>
    <property name="end">1</property>
    <property name="kdenlive:collapsed">0</property>
   </filter>
   <filter id="filter35">
    <property name="window">75</property>
    <property name="max_gain">20dB</property>
    <property name="level">00:00:03.754=-11</property>
    <property name="mlt_service">volume</property>
    <property name="kdenlive_id">volume</property>
    <property name="kdenlive:collapsed">0</property>
   </filter>
  </entry>
 </playlist>
 <playlist id="playlist7">
  <property name="kdenlive:audio_track">1</property>
 </playlist>
 <tractor id="tractor3" in="00:00:00.000" out="01:29:50.384">
  <property name="kdenlive:audio_track">1</property>
  <property name="kdenlive:trackheight">84</property>
  <property name="kdenlive:timeline_active">1</property>
  <property name="kdenlive:collapsed">0</property>
  <property name="kdenlive:thumbs_format"/>
  <property name="kdenlive:audio_rec"/>
  <track hide="video" producer="playlist6"/>
  <track hide="video" producer="playlist7"/>
  <filter id="filter32">
   <property name="window">75</property>
   <property name="max_gain">20dB</property>
   <property name="mlt_service">volume</property>
   <property name="internal_added">237</property>
   <property name="disable">1</property>
  </filter>
  <filter id="filter36">
   <property name="channel">-1</property>
   <property name="mlt_service">panner</property>
   <property name="internal_added">237</property>
   <property name="start">0.5</property>
   <property name="disable">1</property>
  </filter>
  <filter id="filter28">
   <property name="iec_scale">0</property>
   <property name="mlt_service">audiolevel</property>
   <property name="dbpeak">1</property>
   <property name="disable">1</property>
  </filter>
 </tractor>
 <chain id="chain2" out="01:46:27.402">
  <property name="length">153144</property>
  <property name="eof">pause</property>
  <property name="resource">C:/Users/kado/Videos/FanEdits/FanMixes/Final Fantasy (2001) - The Phantom Menace/DVD/A1_t00_Audio03.JPN.ac3</property>
  <property name="mlt_service">avformat-novalidate</property>
  <property name="seekable">1</property>
  <property name="audio_index">0</property>
  <property name="video_index">-1</property>
  <property name="astream">0</property>
  <property name="kdenlive:control_uuid">{e2839f57-3e08-482a-8683-710c59cd7d06}</property>
  <property name="kdenlive:originalurl">DVD/A1_t00_Audio03.JPN.ac3</property>
  <property name="kdenlive:id">9</property>
  <property name="kdenlive:clip_type">1</property>
  <property name="kdenlive:file_size">306594816</property>
  <property name="kdenlive:file_hash">c802da5bc01af08751d78d0369427df7</property>
  <property name="kdenlive:folderid">17</property>
  <property name="kdenlive:monitorPosition">39543</property>
  <property name="meta.media.nb_streams">1</property>
  <property name="meta.media.0.stream.type">audio</property>
  <property name="meta.media.0.codec.sample_fmt">fltp</property>
  <property name="meta.media.0.codec.sample_rate">48000</property>
  <property name="meta.media.0.codec.channels">6</property>
  <property name="meta.media.0.codec.layout">5.1(side)</property>
  <property name="meta.media.0.codec.name">ac3</property>
  <property name="meta.media.0.codec.long_name">ATSC A/52A (AC-3)</property>
  <property name="meta.media.0.codec.bit_rate">384000</property>
  <property name="xml">was here</property>
  <property name="mute_on_pause">0</property>
  <property name="set.test_audio">0</property>
  <property name="set.test_image">1</property>
 </chain>
 <playlist id="playlist8">
  <property name="kdenlive:audio_track">1</property>
  <blank length="00:00:01.501"/>
  <entry in="00:00:00.000" out="00:00:27.653" producer="chain2">
   <property name="kdenlive:id">9</property>
  </entry>
  <blank length="00:07:45.504"/>
  <entry in="00:08:56.056" out="00:09:18.560" producer="chain2">
   <property name="kdenlive:id">9</property>
  </entry>
  <blank length="00:00:09.843"/>
  <entry in="00:09:45.629" out="00:09:48.799" producer="chain2">
   <property name="kdenlive:id">9</property>
  </entry>
  <blank length="00:00:06.590"/>
  <entry in="00:10:00.209" out="00:10:02.920" producer="chain2">
   <property name="kdenlive:id">9</property>
  </entry>
  <blank length="00:01:14.514"/>
  <entry in="00:12:14.556" out="00:13:14.223" producer="chain2">
   <property name="kdenlive:id">9</property>
  </entry>
  <entry in="00:13:14.264" out="00:13:15.474" producer="chain2">
   <property name="kdenlive:id">9</property>
  </entry>
  <entry in="00:13:32.741" out="00:13:35.202" producer="chain2">
   <property name="kdenlive:id">9</property>
  </entry>
  <entry in="00:13:35.244" out="00:13:35.619" producer="chain2">
   <property name="kdenlive:id">9</property>
  </entry>
  <entry in="00:13:35.661" out="00:13:50.842" producer="chain2">
   <property name="kdenlive:id">9</property>
  </entry>
  <blank length="00:00:12.804"/>
  <entry in="00:14:17.059" out="00:15:46.004" producer="chain2">
   <property name="kdenlive:id">9</property>
  </entry>
  <blank length="00:00:02.836"/>
  <entry in="00:15:57.182" out="00:17:09.343" producer="chain2">
   <property name="kdenlive:id">9</property>
  </entry>
  <entry in="00:17:09.384" out="00:17:14.473" producer="chain2">
   <property name="kdenlive:id">9</property>
   <filter id="filter29" in="00:17:12.095" out="00:17:14.473">
    <property name="window">75</property>
    <property name="max_gain">20dB</property>
    <property name="mlt_service">volume</property>
    <property name="kdenlive_id">fadeout</property>
    <property name="gain">1</property>
    <property name="end">0</property>
   </filter>
  </entry>
  <blank length="00:00:02.336"/>
  <entry in="00:17:47.506" out="00:18:15.265" producer="chain2">
   <property name="kdenlive:id">9</property>
  </entry>
  <blank length="00:00:53.095"/>
  <entry in="00:21:10.302" out="00:23:22.731" producer="chain2">
   <property name="kdenlive:id">9</property>
  </entry>
  <blank length="00:01:29.446"/>
  <entry in="00:25:22.689" out="00:26:29.112" producer="chain2">
   <property name="kdenlive:id">9</property>
  </entry>
  <blank length="00:00:08.759"/>
  <entry in="00:27:06.965" out="00:27:13.472" producer="chain2">
   <property name="kdenlive:id">9</property>
  </entry>
  <blank length="00:00:01.960"/>
  <entry in="00:30:40.290" out="00:31:34.618" producer="chain2">
   <property name="kdenlive:id">9</property>
  </entry>
  <blank length="00:00:20.646"/>
  <entry in="00:32:12.721" out="00:42:22.397" producer="chain2">
   <property name="kdenlive:id">9</property>
  </entry>
  <blank length="00:03:04.463"/>
  <entry in="00:45:40.999" out="00:46:12.638" producer="chain2">
   <property name="kdenlive:id">9</property>
  </entry>
  <blank length="00:03:06.590"/>
  <entry in="00:49:42.834" out="00:49:53.387" producer="chain2">
   <property name="kdenlive:id">9</property>
  </entry>
  <blank length="00:01:07.466"/>
  <entry in="00:51:10.886" out="00:51:19.770" producer="chain2">
   <property name="kdenlive:id">9</property>
  </entry>
  <blank length="00:00:39.373"/>
  <entry in="00:52:17.851" out="00:54:33.909" producer="chain2">
   <property name="kdenlive:id">9</property>
  </entry>
  <blank length="00:00:01.335"/>
  <entry in="00:54:51.343" out="00:54:55.180" producer="chain2">
   <property name="kdenlive:id">9</property>
  </entry>
  <blank length="00:03:38.205"/>
  <entry in="00:59:04.004" out="00:59:25.651" producer="chain2">
   <property name="kdenlive:id">9</property>
  </entry>
  <blank length="00:00:00.209"/>
  <entry in="00:59:39.539" out="01:01:29.404" producer="chain2">
   <property name="kdenlive:id">9</property>
  </entry>
  <blank length="00:01:37.579"/>
  <entry in="01:03:24.733" out="01:03:26.151" producer="chain2">
   <property name="kdenlive:id">9</property>
  </entry>
  <entry in="01:03:26.568" out="01:03:54.721" producer="chain2">
   <property name="kdenlive:id">9</property>
  </entry>
  <blank length="00:00:58.100"/>
  <entry in="01:05:13.972" out="01:06:20.395" producer="chain2">
   <property name="kdenlive:id">9</property>
  </entry>
  <blank length="00:01:48.674"/>
  <entry in="01:08:40.207" out="01:10:55.931" producer="chain2">
   <property name="kdenlive:id">9</property>
  </entry>
  <blank length="00:00:03.754"/>
  <entry in="01:12:18.310" out="01:14:43.502" producer="chain2">
   <property name="kdenlive:id">9</property>
  </entry>
  <blank length="00:09:10.302"/>
  <entry in="01:24:19.061" out="01:28:39.414" producer="chain2">
   <property name="kdenlive:id">9</property>
  </entry>
  <blank length="00:00:08.175"/>
  <entry in="01:29:09.301" out="01:29:17.517" producer="chain2">
   <property name="kdenlive:id">9</property>
  </entry>
  <blank length="00:00:48.257"/>
  <entry in="01:30:33.325" out="01:32:47.172" producer="chain2">
   <property name="kdenlive:id">9</property>
  </entry>
  <entry in="01:32:47.214" out="01:33:08.008" producer="chain2">
   <property name="kdenlive:id">9</property>
  </entry>
  <blank length="00:00:22.940"/>
  <entry in="01:33:35.994" out="01:33:53.720" producer="chain2">
   <property name="kdenlive:id">9</property>
  </entry>
  <entry in="01:33:53.762" out="01:33:58.517" producer="chain2">
   <property name="kdenlive:id">9</property>
  </entry>
  <blank length="00:03:01.877"/>
  <entry in="01:37:18.227" out="01:42:12.721" producer="chain2">
   <property name="kdenlive:id">9</property>
  </entry>
 </playlist>
 <chain id="chain7" out="01:46:27.402">
  <property name="length">153144</property>
  <property name="eof">pause</property>
  <property name="resource">C:/Users/kado/Videos/FanEdits/FanMixes/Final Fantasy (2001) - The Phantom Menace/DVD/A1_t00_Audio03.JPN.ac3</property>
  <property name="mlt_service">avformat-novalidate</property>
  <property name="seekable">1</property>
  <property name="audio_index">0</property>
  <property name="video_index">-1</property>
  <property name="astream">0</property>
  <property name="kdenlive:control_uuid">{e2839f57-3e08-482a-8683-710c59cd7d06}</property>
  <property name="kdenlive:originalurl">DVD/A1_t00_Audio03.JPN.ac3</property>
  <property name="kdenlive:id">9</property>
  <property name="kdenlive:clip_type">1</property>
  <property name="kdenlive:file_size">306594816</property>
  <property name="kdenlive:file_hash">c802da5bc01af08751d78d0369427df7</property>
  <property name="kdenlive:folderid">17</property>
  <property name="kdenlive:monitorPosition">39543</property>
  <property name="meta.media.nb_streams">1</property>
  <property name="meta.media.0.stream.type">audio</property>
  <property name="meta.media.0.codec.sample_fmt">fltp</property>
  <property name="meta.media.0.codec.sample_rate">48000</property>
  <property name="meta.media.0.codec.channels">6</property>
  <property name="meta.media.0.codec.layout">5.1(side)</property>
  <property name="meta.media.0.codec.name">ac3</property>
  <property name="meta.media.0.codec.long_name">ATSC A/52A (AC-3)</property>
  <property name="meta.media.0.codec.bit_rate">384000</property>
  <property name="xml">was here</property>
  <property name="mute_on_pause">0</property>
  <property name="set.test_audio">0</property>
  <property name="set.test_image">1</property>
 </chain>
 <playlist id="playlist9">
  <property name="kdenlive:audio_track">1</property>
  <blank length="00:00:28.195"/>
  <entry in="00:00:52.761" out="00:03:07.716" producer="chain7">
   <property name="kdenlive:id">9</property>
  </entry>
  <entry in="00:03:07.758" out="00:08:40.207" producer="chain7">
   <property name="kdenlive:id">9</property>
  </entry>
  <blank length="00:00:20.979"/>
  <entry in="00:09:25.484" out="00:09:35.869" producer="chain7">
   <property name="kdenlive:id">9</property>
  </entry>
  <blank length="00:00:02.211"/>
  <entry in="00:09:50.133" out="00:09:58.517" producer="chain7">
   <property name="kdenlive:id">9</property>
  </entry>
  <blank length="00:00:01.501"/>
  <entry in="00:10:06.590" out="00:11:21.855" producer="chain7">
   <property name="kdenlive:id">9</property>
  </entry>
  <blank length="00:01:18.310"/>
  <entry in="00:13:56.098" out="00:14:10.302" producer="chain7">
   <property name="kdenlive:id">9</property>
  </entry>
  <blank length="00:01:27.611"/>
  <entry in="00:15:48.507" out="00:15:52.135" producer="chain7">
   <property name="kdenlive:id">9</property>
  </entry>
  <blank length="00:01:14.932"/>
  <entry in="00:17:26.401" out="00:17:30.697" producer="chain7">
   <property name="kdenlive:id">9</property>
  </entry>
  <blank length="00:00:26.818"/>
  <entry in="00:20:09.051" out="00:21:03.295" producer="chain7">
   <property name="kdenlive:id">9</property>
  </entry>
  <blank length="00:02:11.887"/>
  <entry in="00:23:48.423" out="00:25:18.518" producer="chain7">
   <property name="kdenlive:id">9</property>
  </entry>
  <blank length="00:01:04.129"/>
  <entry in="00:26:40.499" out="00:26:52.219" producer="chain7">
   <property name="kdenlive:id">9</property>
  </entry>
  <blank length="00:00:04.546"/>
  <entry in="00:27:14.431" out="00:27:18.352" producer="chain7">
   <property name="kdenlive:id">9</property>
  </entry>
  <blank length="00:00:52.552"/>
  <entry in="00:31:42.709" out="00:32:05.172" producer="chain7">
   <property name="kdenlive:id">9</property>
  </entry>
  <blank length="00:10:08.342"/>
  <entry in="00:42:25.901" out="00:45:31.698" producer="chain7">
   <property name="kdenlive:id">9</property>
   <filter id="filter30" in="00:42:25.901" out="00:42:28.904">
    <property name="window">75</property>
    <property name="max_gain">20dB</property>
    <property name="mlt_service">volume</property>
    <property name="kdenlive_id">fadein</property>
    <property name="gain">0</property>
    <property name="end">1</property>
   </filter>
  </entry>
  <blank length="00:00:29.655"/>
  <entry in="00:46:13.847" out="00:49:22.189" producer="chain7">
   <property name="kdenlive:id">9</property>
  </entry>
  <blank length="00:00:09.343"/>
  <entry in="00:49:54.054" out="00:51:02.878" producer="chain7">
   <property name="kdenlive:id">9</property>
  </entry>
  <blank length="00:00:07.758"/>
  <entry in="00:51:33.867" out="00:52:13.764" producer="chain7">
   <property name="kdenlive:id">9</property>
  </entry>
  <blank length="00:02:14.681"/>
  <entry in="00:54:44.878" out="00:54:47.589" producer="chain7">
   <property name="kdenlive:id">9</property>
  </entry>
  <blank length="00:00:02.461"/>
  <entry in="00:55:04.087" out="00:58:44.211" producer="chain7">
   <property name="kdenlive:id">9</property>
  </entry>
  <blank length="00:00:19.686"/>
  <entry in="00:59:38.330" out="00:59:39.498" producer="chain7">
   <property name="kdenlive:id">9</property>
  </entry>
  <blank length="00:01:48.882"/>
  <entry in="01:01:41.541" out="01:03:20.062" producer="chain7">
   <property name="kdenlive:id">9</property>
  </entry>
  <blank length="00:00:28.654"/>
  <entry in="01:04:14.848" out="01:05:09.968" producer="chain7">
   <property name="kdenlive:id">9</property>
  </entry>
  <entry in="01:05:10.010" out="01:05:11.386" producer="chain7">
   <property name="kdenlive:id">9</property>
  </entry>
  <entry in="01:05:11.428" out="01:05:12.638" producer="chain7">
   <property name="kdenlive:id">9</property>
  </entry>
  <entry in="01:05:12.679" out="01:05:14.932" producer="chain7">
   <property name="kdenlive:id">9</property>
  </entry>
  <blank length="00:01:02.502"/>
  <entry in="01:06:32.074" out="01:08:24.691" producer="chain7">
   <property name="kdenlive:id">9</property>
  </entry>
  <blank length="00:02:06.757"/>
  <entry in="01:12:06.548" out="01:12:18.268" producer="chain7">
   <property name="kdenlive:id">9</property>
   <filter id="filter31" in="01:12:06.548" out="01:12:12.596">
    <property name="window">75</property>
    <property name="max_gain">20dB</property>
    <property name="mlt_service">volume</property>
    <property name="kdenlive_id">fadein</property>
    <property name="gain">0</property>
    <property name="end">1</property>
   </filter>
  </entry>
  <blank length="00:02:24.233"/>
  <entry in="01:15:00.292" out="01:24:12.554" producer="chain7">
   <property name="kdenlive:id">9</property>
  </entry>
  <blank length="00:04:18.810"/>
  <entry in="01:28:50.467" out="01:28:59.601" producer="chain7">
   <property name="kdenlive:id">9</property>
  </entry>
  <blank length="00:00:06.840"/>
  <entry in="01:29:37.246" out="01:30:27.486" producer="chain7">
   <property name="kdenlive:id">9</property>
  </entry>
  <blank length="00:02:32.741"/>
  <entry in="01:33:12.054" out="01:33:35.953" producer="chain7">
   <property name="kdenlive:id">9</property>
  </entry>
  <blank length="00:00:21.563"/>
  <entry in="01:34:08.675" out="01:37:12.512" producer="chain7">
   <property name="kdenlive:id">9</property>
  </entry>
 </playlist>
 <tractor id="tractor4" in="00:00:00.000" out="01:26:06.256">
  <property name="kdenlive:audio_track">1</property>
  <property name="kdenlive:trackheight">84</property>
  <property name="kdenlive:timeline_active">1</property>
  <property name="kdenlive:collapsed">0</property>
  <property name="kdenlive:track_name">Japan Audio</property>
  <property name="kdenlive:thumbs_format"/>
  <property name="kdenlive:audio_rec"/>
  <track hide="both" producer="playlist8"/>
  <track hide="both" producer="playlist9"/>
  <transition id="transition0" in="00:00:28.195" out="00:00:29.196">
   <property name="a_track">0</property>
   <property name="b_track">1</property>
   <property name="mlt_service">mix</property>
   <property name="kdenlive_id">mix</property>
   <property name="kdenlive:mixcut">12</property>
   <property name="reverse">0</property>
  </transition>
  <transition id="transition1" in="00:11:32.824" out="00:11:33.242">
   <property name="a_track">0</property>
   <property name="b_track">1</property>
   <property name="mlt_service">mix</property>
   <property name="kdenlive_id">mix</property>
   <property name="kdenlive:mixcut">5</property>
   <property name="reverse">0</property>
  </transition>
  <transition id="transition2" in="00:10:14.139" out="00:10:14.556">
   <property name="a_track">0</property>
   <property name="b_track">1</property>
   <property name="mlt_service">mix</property>
   <property name="kdenlive_id">mix</property>
   <property name="kdenlive:mixcut">5</property>
   <property name="reverse">1</property>
  </transition>
  <transition id="transition3" in="00:08:59.226" out="00:08:59.643">
   <property name="a_track">0</property>
   <property name="b_track">1</property>
   <property name="mlt_service">mix</property>
   <property name="kdenlive_id">mix</property>
   <property name="kdenlive:mixcut">5</property>
   <property name="reverse">0</property>
  </transition>
  <transition id="transition4" in="00:08:56.890" out="00:08:57.724">
   <property name="a_track">0</property>
   <property name="b_track">1</property>
   <property name="mlt_service">mix</property>
   <property name="kdenlive_id">mix</property>
   <property name="kdenlive:mixcut">10</property>
   <property name="reverse">1</property>
  </transition>
  <transition id="transition5" in="00:08:49.299" out="00:08:50.300">
   <property name="a_track">0</property>
   <property name="b_track">1</property>
   <property name="mlt_service">mix</property>
   <property name="kdenlive_id">mix</property>
   <property name="kdenlive:mixcut">12</property>
   <property name="reverse">0</property>
  </transition>
  <transition id="transition6" in="00:08:14.681" out="00:08:15.682">
   <property name="a_track">0</property>
   <property name="b_track">1</property>
   <property name="mlt_service">mix</property>
   <property name="kdenlive_id">mix</property>
   <property name="kdenlive:mixcut">20</property>
   <property name="start">-1</property>
   <property name="accepts_blanks">1</property>
   <property name="reverse">1</property>
  </transition>
  <transition id="transition7" in="00:08:36.662" out="00:08:37.246">
   <property name="a_track">0</property>
   <property name="b_track">1</property>
   <property name="mlt_service">mix</property>
   <property name="kdenlive_id">mix</property>
   <property name="kdenlive:mixcut">0</property>
   <property name="start">-1</property>
   <property name="accepts_blanks">1</property>
   <property name="reverse">0</property>
  </transition>
  <transition id="transition8" in="00:11:46.046" out="00:11:47.047">
   <property name="a_track">0</property>
   <property name="b_track">1</property>
   <property name="mlt_service">mix</property>
   <property name="kdenlive_id">mix</property>
   <property name="kdenlive:mixcut">4</property>
   <property name="start">-1</property>
   <property name="accepts_blanks">1</property>
   <property name="reverse">1</property>
  </transition>
  <transition id="transition9" in="00:13:14.640" out="00:13:15.057">
   <property name="a_track">0</property>
   <property name="b_track">1</property>
   <property name="mlt_service">mix</property>
   <property name="kdenlive_id">mix</property>
   <property name="kdenlive:mixcut">2</property>
   <property name="start">-1</property>
   <property name="accepts_blanks">1</property>
   <property name="reverse">0</property>
  </transition>
  <transition id="transition10" in="00:13:17.893" out="00:13:18.310">
   <property name="a_track">0</property>
   <property name="b_track">1</property>
   <property name="mlt_service">mix</property>
   <property name="kdenlive_id">mix</property>
   <property name="kdenlive:mixcut">5</property>
   <property name="start">-1</property>
   <property name="accepts_blanks">1</property>
   <property name="reverse">1</property>
  </transition>
  <transition id="transition11" in="00:14:33.242" out="00:14:35.244">
   <property name="a_track">0</property>
   <property name="b_track">1</property>
   <property name="mlt_service">mix</property>
   <property name="kdenlive_id">mix</property>
   <property name="kdenlive:mixcut">24</property>
   <property name="start">-1</property>
   <property name="accepts_blanks">1</property>
   <property name="reverse">0</property>
  </transition>
  <transition id="transition12" in="00:15:04.379" out="00:15:05.380">
   <property name="a_track">0</property>
   <property name="b_track">1</property>
   <property name="mlt_service">mix</property>
   <property name="kdenlive_id">mix</property>
   <property name="kdenlive:mixcut">12</property>
   <property name="start">-1</property>
   <property name="accepts_blanks">1</property>
   <property name="reverse">0</property>
  </transition>
  <transition id="transition13" in="00:18:10.510" out="00:18:10.928">
   <property name="a_track">0</property>
   <property name="b_track">1</property>
   <property name="mlt_service">mix</property>
   <property name="kdenlive_id">mix</property>
   <property name="kdenlive:mixcut">5</property>
   <property name="start">-1</property>
   <property name="accepts_blanks">1</property>
   <property name="reverse">0</property>
  </transition>
  <transition id="transition14" in="00:15:58.475" out="00:15:58.642">
   <property name="a_track">0</property>
   <property name="b_track">1</property>
   <property name="mlt_service">mix</property>
   <property name="kdenlive_id">mix</property>
   <property name="kdenlive:mixcut">2</property>
   <property name="start">-1</property>
   <property name="accepts_blanks">1</property>
   <property name="reverse">1</property>
  </transition>
  <transition id="transition15" in="00:19:40.374" out="00:19:40.707">
   <property name="a_track">0</property>
   <property name="b_track">1</property>
   <property name="mlt_service">mix</property>
   <property name="kdenlive_id">mix</property>
   <property name="kdenlive:mixcut">4</property>
   <property name="start">-1</property>
   <property name="accepts_blanks">1</property>
   <property name="reverse">1</property>
  </transition>
  <transition id="transition16" in="00:20:44.795" out="00:20:46.797">
   <property name="a_track">0</property>
   <property name="b_track">1</property>
   <property name="mlt_service">mix</property>
   <property name="kdenlive_id">mix</property>
   <property name="kdenlive:mixcut">24</property>
   <property name="reverse">0</property>
  </transition>
  <transition id="transition17" in="00:20:55.555" out="00:20:56.556">
   <property name="a_track">0</property>
   <property name="b_track">1</property>
   <property name="mlt_service">mix</property>
   <property name="kdenlive_id">mix</property>
   <property name="kdenlive:mixcut">12</property>
   <property name="start">-1</property>
   <property name="accepts_blanks">1</property>
   <property name="reverse">1</property>
  </transition>
  <transition id="transition33" in="00:49:28.070" out="00:49:29.071">
   <property name="a_track">0</property>
   <property name="b_track">1</property>
   <property name="mlt_service">mix</property>
   <property name="kdenlive_id">mix</property>
   <property name="kdenlive:mixcut">12</property>
   <property name="start">-1</property>
   <property name="accepts_blanks">1</property>
   <property name="reverse">0</property>
  </transition>
  <transition id="transition34" in="00:51:35.285" out="00:51:36.286">
   <property name="a_track">0</property>
   <property name="b_track">1</property>
   <property name="mlt_service">mix</property>
   <property name="kdenlive_id">mix</property>
   <property name="kdenlive:mixcut">5</property>
   <property name="start">-1</property>
   <property name="accepts_blanks">1</property>
   <property name="reverse">0</property>
  </transition>
  <transition id="transition37" in="01:00:13.263" out="01:00:14.264">
   <property name="a_track">0</property>
   <property name="b_track">1</property>
   <property name="mlt_service">mix</property>
   <property name="kdenlive_id">mix</property>
   <property name="kdenlive:mixcut">12</property>
   <property name="start">-1</property>
   <property name="accepts_blanks">1</property>
   <property name="reverse">0</property>
  </transition>
  <transition id="transition38" in="01:09:24.566" out="01:09:25.567">
   <property name="a_track">0</property>
   <property name="b_track">1</property>
   <property name="mlt_service">mix</property>
   <property name="kdenlive_id">mix</property>
   <property name="kdenlive:mixcut">12</property>
   <property name="start">-1</property>
   <property name="accepts_blanks">1</property>
   <property name="reverse">1</property>
  </transition>
  <transition id="transition39" in="01:13:44.378" out="01:13:44.962">
   <property name="a_track">0</property>
   <property name="b_track">1</property>
   <property name="mlt_service">mix</property>
   <property name="kdenlive_id">mix</property>
   <property name="kdenlive:mixcut">0</property>
   <property name="start">-1</property>
   <property name="accepts_blanks">1</property>
   <property name="reverse">0</property>
  </transition>
  <transition id="transition40" in="01:13:53.136" out="01:13:53.553">
   <property name="a_track">0</property>
   <property name="b_track">1</property>
   <property name="mlt_service">mix</property>
   <property name="kdenlive_id">mix</property>
   <property name="kdenlive:mixcut">5</property>
   <property name="start">-1</property>
   <property name="accepts_blanks">1</property>
   <property name="reverse">1</property>
  </transition>
  <transition id="transition41" in="01:14:00.417" out="01:14:01.418">
   <property name="a_track">0</property>
   <property name="b_track">1</property>
   <property name="mlt_service">mix</property>
   <property name="kdenlive_id">mix</property>
   <property name="kdenlive:mixcut">12</property>
   <property name="start">-1</property>
   <property name="accepts_blanks">1</property>
   <property name="reverse">0</property>
  </transition>
  <transition id="transition42" in="01:14:49.675" out="01:14:50.676">
   <property name="a_track">0</property>
   <property name="b_track">1</property>
   <property name="mlt_service">mix</property>
   <property name="kdenlive_id">mix</property>
   <property name="kdenlive:mixcut">12</property>
   <property name="start">-1</property>
   <property name="accepts_blanks">1</property>
   <property name="reverse">1</property>
  </transition>
  <transition id="transition43" in="01:17:23.398" out="01:17:24.399">
   <property name="a_track">0</property>
   <property name="b_track">1</property>
   <property name="mlt_service">mix</property>
   <property name="kdenlive_id">mix</property>
   <property name="kdenlive:mixcut">12</property>
   <property name="start">-1</property>
   <property name="accepts_blanks">1</property>
   <property name="reverse">0</property>
  </transition>
  <transition id="transition44" in="01:18:08.884" out="01:18:09.885">
   <property name="a_track">0</property>
   <property name="b_track">1</property>
   <property name="mlt_service">mix</property>
   <property name="kdenlive_id">mix</property>
   <property name="kdenlive:mixcut">12</property>
   <property name="start">-1</property>
   <property name="accepts_blanks">1</property>
   <property name="reverse">0</property>
  </transition>
  <transition id="transition45" in="01:21:11.762" out="01:21:12.763">
   <property name="a_track">0</property>
   <property name="b_track">1</property>
   <property name="mlt_service">mix</property>
   <property name="kdenlive_id">mix</property>
   <property name="kdenlive:mixcut">12</property>
   <property name="start">-1</property>
   <property name="accepts_blanks">1</property>
   <property name="reverse">1</property>
  </transition>
  <transition id="transition35" in="00:55:29.529" out="00:55:30.530">
   <property name="a_track">1</property>
   <property name="b_track">0</property>
   <property name="mlt_service">mix</property>
   <property name="kdenlive_id">mix</property>
   <property name="kdenlive:mixcut">12</property>
   <property name="start">-1</property>
   <property name="accepts_blanks">1</property>
   <property name="reverse">0</property>
  </transition>
  <transition id="transition36" in="00:57:37.246" out="00:57:45.254">
   <property name="a_track">0</property>
   <property name="b_track">1</property>
   <property name="mlt_service">mix</property>
   <property name="kdenlive_id">mix</property>
   <property name="kdenlive:mixcut">96</property>
   <property name="start">-1</property>
   <property name="accepts_blanks">1</property>
   <property name="reverse">0</property>
  </transition>
  <transition id="transition18" in="00:53:37.871" out="00:53:40.874">
   <property name="a_track">0</property>
   <property name="b_track">1</property>
   <property name="mlt_service">mix</property>
   <property name="kdenlive_id">mix</property>
   <property name="kdenlive:mixcut">36</property>
   <property name="start">-1</property>
   <property name="accepts_blanks">1</property>
   <property name="reverse">0</property>
  </transition>
  <transition id="transition19" in="00:52:34.368" out="00:52:35.369">
   <property name="a_track">0</property>
   <property name="b_track">1</property>
   <property name="mlt_service">mix</property>
   <property name="kdenlive_id">mix</property>
   <property name="kdenlive:mixcut">12</property>
   <property name="start">-1</property>
   <property name="accepts_blanks">1</property>
   <property name="reverse">1</property>
  </transition>
  <transition id="transition20" in="00:21:57.641" out="00:21:58.475">
   <property name="a_track">0</property>
   <property name="b_track">1</property>
   <property name="mlt_service">mix</property>
   <property name="kdenlive_id">mix</property>
   <property name="kdenlive:mixcut">10</property>
   <property name="start">-1</property>
   <property name="accepts_blanks">1</property>
   <property name="reverse">0</property>
  </transition>
  <transition id="transition21" in="00:32:28.445" out="00:32:28.862">
   <property name="a_track">0</property>
   <property name="b_track">1</property>
   <property name="mlt_service">mix</property>
   <property name="kdenlive_id">mix</property>
   <property name="kdenlive:mixcut">5</property>
   <property name="start">-1</property>
   <property name="accepts_blanks">1</property>
   <property name="reverse">0</property>
  </transition>
  <transition id="transition23" in="00:36:03.921" out="00:36:04.922">
   <property name="a_track">0</property>
   <property name="b_track">1</property>
   <property name="mlt_service">mix</property>
   <property name="kdenlive_id">mix</property>
   <property name="kdenlive:mixcut">12</property>
   <property name="start">-1</property>
   <property name="accepts_blanks">1</property>
   <property name="reverse">0</property>
  </transition>
  <transition id="transition25" in="00:39:21.688" out="00:39:22.105">
   <property name="a_track">0</property>
   <property name="b_track">1</property>
   <property name="mlt_service">mix</property>
   <property name="kdenlive_id">mix</property>
   <property name="kdenlive:mixcut">5</property>
   <property name="start">-1</property>
   <property name="accepts_blanks">1</property>
   <property name="reverse">0</property>
  </transition>
  <transition id="transition27" in="00:40:38.288" out="00:40:38.455">
   <property name="a_track">0</property>
   <property name="b_track">1</property>
   <property name="mlt_service">mix</property>
   <property name="kdenlive_id">mix</property>
   <property name="kdenlive:mixcut">3</property>
   <property name="start">-1</property>
   <property name="accepts_blanks">1</property>
   <property name="reverse">0</property>
  </transition>
  <transition id="transition29" in="00:43:32.908" out="00:43:33.909">
   <property name="a_track">0</property>
   <property name="b_track">1</property>
   <property name="mlt_service">mix</property>
   <property name="kdenlive_id">mix</property>
   <property name="kdenlive:mixcut">24</property>
   <property name="start">-1</property>
   <property name="accepts_blanks">1</property>
   <property name="reverse">0</property>
  </transition>
  <transition id="transition22" in="00:21:04.087" out="00:21:05.088">
   <property name="a_track">1</property>
   <property name="b_track">0</property>
   <property name="mlt_service">mix</property>
   <property name="kdenlive_id">mix</property>
   <property name="kdenlive:mixcut">12</property>
   <property name="start">-1</property>
   <property name="accepts_blanks">1</property>
   <property name="reverse">0</property>
  </transition>
  <transition id="transition24" in="00:22:19.102" out="00:22:20.103">
   <property name="a_track">1</property>
   <property name="b_track">0</property>
   <property name="mlt_service">mix</property>
   <property name="kdenlive_id">mix</property>
   <property name="kdenlive:mixcut">12</property>
   <property name="start">-1</property>
   <property name="accepts_blanks">1</property>
   <property name="reverse">0</property>
  </transition>
  <transition id="transition26" in="00:35:33.283" out="00:35:34.284">
   <property name="a_track">1</property>
   <property name="b_track">0</property>
   <property name="mlt_service">mix</property>
   <property name="kdenlive_id">mix</property>
   <property name="kdenlive:mixcut">1</property>
   <property name="start">-1</property>
   <property name="accepts_blanks">1</property>
   <property name="reverse">0</property>
  </transition>
  <transition id="transition28" in="00:39:11.511" out="00:39:12.346">
   <property name="a_track">1</property>
   <property name="b_track">0</property>
   <property name="mlt_service">mix</property>
   <property name="kdenlive_id">mix</property>
   <property name="kdenlive:mixcut">10</property>
   <property name="start">-1</property>
   <property name="accepts_blanks">1</property>
   <property name="reverse">0</property>
  </transition>
  <transition id="transition30" in="00:40:29.529" out="00:40:30.530">
   <property name="a_track">1</property>
   <property name="b_track">0</property>
   <property name="mlt_service">mix</property>
   <property name="kdenlive_id">mix</property>
   <property name="kdenlive:mixcut">12</property>
   <property name="start">-1</property>
   <property name="accepts_blanks">1</property>
   <property name="reverse">0</property>
  </transition>
  <transition id="transition31" in="00:41:17.809" out="00:41:18.227">
   <property name="a_track">1</property>
   <property name="b_track">0</property>
   <property name="mlt_service">mix</property>
   <property name="kdenlive_id">mix</property>
   <property name="kdenlive:mixcut">5</property>
   <property name="start">-1</property>
   <property name="accepts_blanks">1</property>
   <property name="reverse">0</property>
  </transition>
  <transition id="transition32" in="00:21:01.126" out="00:21:02.127">
   <property name="a_track">0</property>
   <property name="b_track">1</property>
   <property name="mlt_service">mix</property>
   <property name="kdenlive_id">mix</property>
   <property name="kdenlive:mixcut">12</property>
   <property name="reverse">0</property>
  </transition>
  <transition id="transition46" in="00:43:35.244" out="00:43:35.661">
   <property name="a_track">0</property>
   <property name="b_track">1</property>
   <property name="mlt_service">mix</property>
   <property name="kdenlive_id">mix</property>
   <property name="kdenlive:mixcut">5</property>
   <property name="start">-1</property>
   <property name="accepts_blanks">1</property>
   <property name="reverse">1</property>
  </transition>
  <transition id="transition47" in="00:47:17.309" out="00:47:18.310">
   <property name="a_track">1</property>
   <property name="b_track">0</property>
   <property name="mlt_service">mix</property>
   <property name="kdenlive_id">mix</property>
   <property name="kdenlive:mixcut">12</property>
   <property name="start">-1</property>
   <property name="accepts_blanks">1</property>
   <property name="reverse">0</property>
  </transition>
  <transition id="transition48" in="00:47:37.996" out="00:47:38.997">
   <property name="a_track">0</property>
   <property name="b_track">1</property>
   <property name="mlt_service">mix</property>
   <property name="kdenlive_id">mix</property>
   <property name="kdenlive:mixcut">19</property>
   <property name="start">-1</property>
   <property name="accepts_blanks">1</property>
   <property name="reverse">0</property>
  </transition>
  <transition id="transition49" in="00:43:38.121" out="00:43:39.122">
   <property name="a_track">0</property>
   <property name="b_track">1</property>
   <property name="mlt_service">mix</property>
   <property name="kdenlive_id">mix</property>
   <property name="kdenlive:mixcut">12</property>
   <property name="start">-1</property>
   <property name="accepts_blanks">1</property>
   <property name="reverse">0</property>
  </transition>
  <filter id="filter38">
   <property name="window">75</property>
   <property name="max_gain">20dB</property>
   <property name="mlt_service">volume</property>
   <property name="internal_added">237</property>
   <property name="disable">1</property>
  </filter>
  <filter id="filter39">
   <property name="channel">-1</property>
   <property name="mlt_service">panner</property>
   <property name="internal_added">237</property>
   <property name="start">0.5</property>
   <property name="disable">1</property>
  </filter>
  <filter id="filter34">
   <property name="iec_scale">0</property>
   <property name="mlt_service">audiolevel</property>
   <property name="dbpeak">1</property>
   <property name="disable">1</property>
  </filter>
 </tractor>
 <chain id="chain9" out="01:45:58.350">
  <property name="length">152448</property>
  <property name="eof">pause</property>
  <property name="resource">N:/Videos/Horror and SciFi/Final Fantasy/Final.Fantasy.The.Spirits.Within.2001.1080p.BluRay.HEVC.DTS-LiNUX/Final.Fantasy.The.Spirits.Within.2001.1080p.BluRay.HEVC.DTS-LiNUX.mkv</property>
  <property name="mlt_service">avformat-novalidate</property>
  <property name="seekable">1</property>
  <property name="audio_index">1</property>
  <property name="video_index">0</property>
  <property name="vstream">0</property>
  <property name="astream">0</property>
  <property name="kdenlive:control_uuid">{193136b1-969a-4943-bfcd-55058a6808f2}</property>
  <property name="kdenlive:id">4</property>
  <property name="kdenlive:clip_type">0</property>
  <property name="kdenlive:file_size">5331297763</property>
  <property name="kdenlive:file_hash">691e768d68c55b9a28cb9a278fdc8b17</property>
  <property name="kdenlive:folderid">-1</property>
  <property name="kdenlive:monitorPosition">0</property>
  <property name="mute_on_pause">0</property>
  <property name="meta.media.nb_streams">37</property>
  <property name="meta.media.0.stream.type">video</property>
  <property name="meta.media.0.stream.frame_rate">23.976</property>
  <property name="meta.media.0.stream.sample_aspect_ratio">1</property>
  <property name="meta.media.0.codec.width">1916</property>
  <property name="meta.media.0.codec.height">1036</property>
  <property name="meta.media.0.codec.rotate">0</property>
  <property name="meta.media.0.codec.pix_fmt">yuv420p10le</property>
  <property name="meta.media.0.codec.sample_aspect_ratio">1</property>
  <property name="meta.media.0.codec.colorspace">709</property>
  <property name="meta.media.0.codec.color_trc">1</property>
  <property name="meta.media.0.codec.name">hevc</property>
  <property name="meta.media.0.codec.long_name">HEVC (High Efficiency Video Coding)</property>
  <property name="meta.media.0.codec.bit_rate">0</property>
  <property name="meta.attr.0.stream.BPS-eng.markup">4999776</property>
  <property name="meta.attr.0.stream.DURATION-eng.markup">01:45:58.352000000</property>
  <property name="meta.attr.0.stream.NUMBER_OF_FRAMES-eng.markup">152448</property>
  <property name="meta.attr.0.stream.NUMBER_OF_BYTES-eng.markup">3973792365</property>
  <property name="meta.attr.0.stream._STATISTICS_WRITING_APP-eng.markup">mkvmerge v40.0.0 ('Old Town Road + Pony') 64-bit</property>
  <property name="meta.attr.0.stream._STATISTICS_WRITING_DATE_UTC-eng.markup">2019-12-29 15:49:45</property>
  <property name="meta.attr.0.stream._STATISTICS_TAGS-eng.markup">BPS DURATION NUMBER_OF_FRAMES NUMBER_OF_BYTES</property>
  <property name="meta.media.1.stream.type">audio</property>
  <property name="meta.media.1.codec.sample_fmt">fltp</property>
  <property name="meta.media.1.codec.sample_rate">48000</property>
  <property name="meta.media.1.codec.channels">6</property>
  <property name="meta.media.1.codec.layout">5.1(side)</property>
  <property name="meta.media.1.codec.name">dca</property>
  <property name="meta.media.1.codec.long_name">DCA (DTS Coherent Acoustics)</property>
  <property name="meta.media.1.codec.bit_rate">1411200</property>
  <property name="meta.attr.1.stream.language.markup">eng</property>
  <property name="meta.attr.1.stream.title.markup">Surround</property>
  <property name="meta.attr.1.stream.BPS-eng.markup">1412999</property>
  <property name="meta.attr.1.stream.DURATION-eng.markup">01:45:58.358000000</property>
  <property name="meta.attr.1.stream.NUMBER_OF_FRAMES-eng.markup">596096</property>
  <property name="meta.attr.1.stream.NUMBER_OF_BYTES-eng.markup">1123044864</property>
  <property name="meta.attr.1.stream._STATISTICS_WRITING_APP-eng.markup">mkvmerge v40.0.0 ('Old Town Road + Pony') 64-bit</property>
  <property name="meta.attr.1.stream._STATISTICS_WRITING_DATE_UTC-eng.markup">2019-12-29 15:49:45</property>
  <property name="meta.attr.1.stream._STATISTICS_TAGS-eng.markup">BPS DURATION NUMBER_OF_FRAMES NUMBER_OF_BYTES</property>
  <property name="meta.media.2.codec.name">pgssub</property>
  <property name="meta.media.2.codec.long_name">HDMV Presentation Graphic Stream subtitles</property>
  <property name="meta.media.2.codec.bit_rate">0</property>
  <property name="meta.attr.2.stream.language.markup">eng</property>
  <property name="meta.attr.2.stream.title.markup">English</property>
  <property name="meta.attr.2.stream.BPS-eng.markup">24594</property>
  <property name="meta.attr.2.stream.DURATION-eng.markup">01:33:45.954000000</property>
  <property name="meta.attr.2.stream.NUMBER_OF_FRAMES-eng.markup">1686</property>
  <property name="meta.attr.2.stream.NUMBER_OF_BYTES-eng.markup">17296140</property>
  <property name="meta.attr.2.stream._STATISTICS_WRITING_APP-eng.markup">mkvmerge v40.0.0 ('Old Town Road + Pony') 64-bit</property>
  <property name="meta.attr.2.stream._STATISTICS_WRITING_DATE_UTC-eng.markup">2019-12-29 15:49:45</property>
  <property name="meta.attr.2.stream._STATISTICS_TAGS-eng.markup">BPS DURATION NUMBER_OF_FRAMES NUMBER_OF_BYTES</property>
  <property name="meta.media.3.codec.name">pgssub</property>
  <property name="meta.media.3.codec.long_name">HDMV Presentation Graphic Stream subtitles</property>
  <property name="meta.media.3.codec.bit_rate">0</property>
  <property name="meta.attr.3.stream.language.markup">eng</property>
  <property name="meta.attr.3.stream.title.markup">English SDH</property>
  <property name="meta.attr.3.stream.BPS-eng.markup">32739</property>
  <property name="meta.attr.3.stream.DURATION-eng.markup">01:41:48.102000000</property>
  <property name="meta.attr.3.stream.NUMBER_OF_FRAMES-eng.markup">2103</property>
  <property name="meta.attr.3.stream.NUMBER_OF_BYTES-eng.markup">24997093</property>
  <property name="meta.attr.3.stream._STATISTICS_WRITING_APP-eng.markup">mkvmerge v40.0.0 ('Old Town Road + Pony') 64-bit</property>
  <property name="meta.attr.3.stream._STATISTICS_WRITING_DATE_UTC-eng.markup">2019-12-29 15:49:45</property>
  <property name="meta.attr.3.stream._STATISTICS_TAGS-eng.markup">BPS DURATION NUMBER_OF_FRAMES NUMBER_OF_BYTES</property>
  <property name="meta.media.4.codec.name">pgssub</property>
  <property name="meta.media.4.codec.long_name">HDMV Presentation Graphic Stream subtitles</property>
  <property name="meta.media.4.codec.bit_rate">0</property>
  <property name="meta.attr.4.stream.language.markup">ara</property>
  <property name="meta.attr.4.stream.title.markup">Arabic</property>
  <property name="meta.attr.4.stream.BPS-eng.markup">13581</property>
  <property name="meta.attr.4.stream.DURATION-eng.markup">01:33:59.217000000</property>
  <property name="meta.attr.4.stream.NUMBER_OF_FRAMES-eng.markup">1690</property>
  <property name="meta.attr.4.stream.NUMBER_OF_BYTES-eng.markup">9573918</property>
  <property name="meta.attr.4.stream._STATISTICS_WRITING_APP-eng.markup">mkvmerge v40.0.0 ('Old Town Road + Pony') 64-bit</property>
  <property name="meta.attr.4.stream._STATISTICS_WRITING_DATE_UTC-eng.markup">2019-12-29 15:49:45</property>
  <property name="meta.attr.4.stream._STATISTICS_TAGS-eng.markup">BPS DURATION NUMBER_OF_FRAMES NUMBER_OF_BYTES</property>
  <property name="meta.media.5.codec.name">pgssub</property>
  <property name="meta.media.5.codec.long_name">HDMV Presentation Graphic Stream subtitles</property>
  <property name="meta.media.5.codec.bit_rate">0</property>
  <property name="meta.attr.5.stream.language.markup">bul</property>
  <property name="meta.attr.5.stream.title.markup">Bulgarian</property>
  <property name="meta.attr.5.stream.BPS-eng.markup">23121</property>
  <property name="meta.attr.5.stream.DURATION-eng.markup">01:35:32.310000000</property>
  <property name="meta.attr.5.stream.NUMBER_OF_FRAMES-eng.markup">1656</property>
  <property name="meta.attr.5.stream.NUMBER_OF_BYTES-eng.markup">16567112</property>
  <property name="meta.attr.5.stream._STATISTICS_WRITING_APP-eng.markup">mkvmerge v40.0.0 ('Old Town Road + Pony') 64-bit</property>
  <property name="meta.attr.5.stream._STATISTICS_WRITING_DATE_UTC-eng.markup">2019-12-29 15:49:45</property>
  <property name="meta.attr.5.stream._STATISTICS_TAGS-eng.markup">BPS DURATION NUMBER_OF_FRAMES NUMBER_OF_BYTES</property>
  <property name="meta.media.6.codec.name">pgssub</property>
  <property name="meta.media.6.codec.long_name">HDMV Presentation Graphic Stream subtitles</property>
  <property name="meta.media.6.codec.bit_rate">0</property>
  <property name="meta.attr.6.stream.language.markup">chi</property>
  <property name="meta.attr.6.stream.title.markup">Cantonese</property>
  <property name="meta.attr.6.stream.BPS-eng.markup">19607</property>
  <property name="meta.attr.6.stream.DURATION-eng.markup">01:42:59.006000000</property>
  <property name="meta.attr.6.stream.NUMBER_OF_FRAMES-eng.markup">1709</property>
  <property name="meta.attr.6.stream.NUMBER_OF_BYTES-eng.markup">15144515</property>
  <property name="meta.attr.6.stream._STATISTICS_WRITING_APP-eng.markup">mkvmerge v40.0.0 ('Old Town Road + Pony') 64-bit</property>
  <property name="meta.attr.6.stream._STATISTICS_WRITING_DATE_UTC-eng.markup">2019-12-29 15:49:45</property>
  <property name="meta.attr.6.stream._STATISTICS_TAGS-eng.markup">BPS DURATION NUMBER_OF_FRAMES NUMBER_OF_BYTES</property>
  <property name="meta.media.7.codec.name">pgssub</property>
  <property name="meta.media.7.codec.long_name">HDMV Presentation Graphic Stream subtitles</property>
  <property name="meta.media.7.codec.bit_rate">0</property>
  <property name="meta.attr.7.stream.language.markup">chi</property>
  <property name="meta.attr.7.stream.title.markup">Mandarin</property>
  <property name="meta.attr.7.stream.BPS-eng.markup">21248</property>
  <property name="meta.attr.7.stream.DURATION-eng.markup">01:33:59.258000000</property>
  <property name="meta.attr.7.stream.NUMBER_OF_FRAMES-eng.markup">1704</property>
  <property name="meta.attr.7.stream.NUMBER_OF_BYTES-eng.markup">14978356</property>
  <property name="meta.attr.7.stream._STATISTICS_WRITING_APP-eng.markup">mkvmerge v40.0.0 ('Old Town Road + Pony') 64-bit</property>
  <property name="meta.attr.7.stream._STATISTICS_WRITING_DATE_UTC-eng.markup">2019-12-29 15:49:45</property>
  <property name="meta.attr.7.stream._STATISTICS_TAGS-eng.markup">BPS DURATION NUMBER_OF_FRAMES NUMBER_OF_BYTES</property>
  <property name="meta.media.8.codec.name">pgssub</property>
  <property name="meta.media.8.codec.long_name">HDMV Presentation Graphic Stream subtitles</property>
  <property name="meta.media.8.codec.bit_rate">0</property>
  <property name="meta.attr.8.stream.language.markup">hrv</property>
  <property name="meta.attr.8.stream.title.markup">Croatian</property>
  <property name="meta.attr.8.stream.BPS-eng.markup">18941</property>
  <property name="meta.attr.8.stream.DURATION-eng.markup">01:33:59.383000000</property>
  <property name="meta.attr.8.stream.NUMBER_OF_FRAMES-eng.markup">1355</property>
  <property name="meta.attr.8.stream.NUMBER_OF_BYTES-eng.markup">13352216</property>
  <property name="meta.attr.8.stream._STATISTICS_WRITING_APP-eng.markup">mkvmerge v40.0.0 ('Old Town Road + Pony') 64-bit</property>
  <property name="meta.attr.8.stream._STATISTICS_WRITING_DATE_UTC-eng.markup">2019-12-29 15:49:45</property>
  <property name="meta.attr.8.stream._STATISTICS_TAGS-eng.markup">BPS DURATION NUMBER_OF_FRAMES NUMBER_OF_BYTES</property>
  <property name="meta.media.9.codec.name">pgssub</property>
  <property name="meta.media.9.codec.long_name">HDMV Presentation Graphic Stream subtitles</property>
  <property name="meta.media.9.codec.bit_rate">0</property>
  <property name="meta.attr.9.stream.language.markup">cze</property>
  <property name="meta.attr.9.stream.title.markup">Czech</property>
  <property name="meta.attr.9.stream.BPS-eng.markup">21071</property>
  <property name="meta.attr.9.stream.DURATION-eng.markup">01:33:59.300000000</property>
  <property name="meta.attr.9.stream.NUMBER_OF_FRAMES-eng.markup">1688</property>
  <property name="meta.attr.9.stream.NUMBER_OF_BYTES-eng.markup">14853464</property>
  <property name="meta.attr.9.stream._STATISTICS_WRITING_APP-eng.markup">mkvmerge v40.0.0 ('Old Town Road + Pony') 64-bit</property>
  <property name="meta.attr.9.stream._STATISTICS_WRITING_DATE_UTC-eng.markup">2019-12-29 15:49:45</property>
  <property name="meta.attr.9.stream._STATISTICS_TAGS-eng.markup">BPS DURATION NUMBER_OF_FRAMES NUMBER_OF_BYTES</property>
  <property name="meta.media.10.codec.name">pgssub</property>
  <property name="meta.media.10.codec.long_name">HDMV Presentation Graphic Stream subtitles</property>
  <property name="meta.media.10.codec.bit_rate">0</property>
  <property name="meta.attr.10.stream.language.markup">dan</property>
  <property name="meta.attr.10.stream.title.markup">Danish</property>
  <property name="meta.attr.10.stream.BPS-eng.markup">20546</property>
  <property name="meta.attr.10.stream.DURATION-eng.markup">01:33:59.717000000</property>
  <property name="meta.attr.10.stream.NUMBER_OF_FRAMES-eng.markup">1184</property>
  <property name="meta.attr.10.stream.NUMBER_OF_BYTES-eng.markup">14484283</property>
  <property name="meta.attr.10.stream._STATISTICS_WRITING_APP-eng.markup">mkvmerge v40.0.0 ('Old Town Road + Pony') 64-bit</property>
  <property name="meta.attr.10.stream._STATISTICS_WRITING_DATE_UTC-eng.markup">2019-12-29 15:49:45</property>
  <property name="meta.attr.10.stream._STATISTICS_TAGS-eng.markup">BPS DURATION NUMBER_OF_FRAMES NUMBER_OF_BYTES</property>
  <property name="meta.media.11.codec.name">pgssub</property>
  <property name="meta.media.11.codec.long_name">HDMV Presentation Graphic Stream subtitles</property>
  <property name="meta.media.11.codec.bit_rate">0</property>
  <property name="meta.attr.11.stream.language.markup">dut</property>
  <property name="meta.attr.11.stream.title.markup">Dutch</property>
  <property name="meta.attr.11.stream.BPS-eng.markup">23897</property>
  <property name="meta.attr.11.stream.DURATION-eng.markup">01:33:59.675000000</property>
  <property name="meta.attr.11.stream.NUMBER_OF_FRAMES-eng.markup">1258</property>
  <property name="meta.attr.11.stream.NUMBER_OF_BYTES-eng.markup">16846710</property>
  <property name="meta.attr.11.stream._STATISTICS_WRITING_APP-eng.markup">mkvmerge v40.0.0 ('Old Town Road + Pony') 64-bit</property>
  <property name="meta.attr.11.stream._STATISTICS_WRITING_DATE_UTC-eng.markup">2019-12-29 15:49:45</property>
  <property name="meta.attr.11.stream._STATISTICS_TAGS-eng.markup">BPS DURATION NUMBER_OF_FRAMES NUMBER_OF_BYTES</property>
  <property name="meta.media.12.codec.name">pgssub</property>
  <property name="meta.media.12.codec.long_name">HDMV Presentation Graphic Stream subtitles</property>
  <property name="meta.media.12.codec.bit_rate">0</property>
  <property name="meta.attr.12.stream.language.markup">fin</property>
  <property name="meta.attr.12.stream.title.markup">Finnish</property>
  <property name="meta.attr.12.stream.BPS-eng.markup">20857</property>
  <property name="meta.attr.12.stream.DURATION-eng.markup">01:34:00.718000000</property>
  <property name="meta.attr.12.stream.NUMBER_OF_FRAMES-eng.markup">1209</property>
  <property name="meta.attr.12.stream.NUMBER_OF_BYTES-eng.markup">14706553</property>
  <property name="meta.attr.12.stream._STATISTICS_WRITING_APP-eng.markup">mkvmerge v40.0.0 ('Old Town Road + Pony') 64-bit</property>
  <property name="meta.attr.12.stream._STATISTICS_WRITING_DATE_UTC-eng.markup">2019-12-29 15:49:45</property>
  <property name="meta.attr.12.stream._STATISTICS_TAGS-eng.markup">BPS DURATION NUMBER_OF_FRAMES NUMBER_OF_BYTES</property>
  <property name="meta.media.13.codec.name">pgssub</property>
  <property name="meta.media.13.codec.long_name">HDMV Presentation Graphic Stream subtitles</property>
  <property name="meta.media.13.codec.bit_rate">0</property>
  <property name="meta.attr.13.stream.language.markup">fre</property>
  <property name="meta.attr.13.stream.title.markup">French</property>
  <property name="meta.attr.13.stream.BPS-eng.markup">21198</property>
  <property name="meta.attr.13.stream.DURATION-eng.markup">01:43:41.006000000</property>
  <property name="meta.attr.13.stream.NUMBER_OF_FRAMES-eng.markup">1642</property>
  <property name="meta.attr.13.stream.NUMBER_OF_BYTES-eng.markup">16484862</property>
  <property name="meta.attr.13.stream._STATISTICS_WRITING_APP-eng.markup">mkvmerge v40.0.0 ('Old Town Road + Pony') 64-bit</property>
  <property name="meta.attr.13.stream._STATISTICS_WRITING_DATE_UTC-eng.markup">2019-12-29 15:49:45</property>
  <property name="meta.attr.13.stream._STATISTICS_TAGS-eng.markup">BPS DURATION NUMBER_OF_FRAMES NUMBER_OF_BYTES</property>
  <property name="meta.media.14.codec.name">pgssub</property>
  <property name="meta.media.14.codec.long_name">HDMV Presentation Graphic Stream subtitles</property>
  <property name="meta.media.14.codec.bit_rate">0</property>
  <property name="meta.attr.14.stream.language.markup">ger</property>
  <property name="meta.attr.14.stream.title.markup">German</property>
  <property name="meta.attr.14.stream.BPS-eng.markup">24239</property>
  <property name="meta.attr.14.stream.DURATION-eng.markup">01:34:00.260000000</property>
  <property name="meta.attr.14.stream.NUMBER_OF_FRAMES-eng.markup">1493</property>
  <property name="meta.attr.14.stream.NUMBER_OF_BYTES-eng.markup">17089540</property>
  <property name="meta.attr.14.stream._STATISTICS_WRITING_APP-eng.markup">mkvmerge v40.0.0 ('Old Town Road + Pony') 64-bit</property>
  <property name="meta.attr.14.stream._STATISTICS_WRITING_DATE_UTC-eng.markup">2019-12-29 15:49:45</property>
  <property name="meta.attr.14.stream._STATISTICS_TAGS-eng.markup">BPS DURATION NUMBER_OF_FRAMES NUMBER_OF_BYTES</property>
  <property name="meta.media.15.codec.name">pgssub</property>
  <property name="meta.media.15.codec.long_name">HDMV Presentation Graphic Stream subtitles</property>
  <property name="meta.media.15.codec.bit_rate">0</property>
  <property name="meta.attr.15.stream.language.markup">gre</property>
  <property name="meta.attr.15.stream.title.markup">Greek</property>
  <property name="meta.attr.15.stream.BPS-eng.markup">24963</property>
  <property name="meta.attr.15.stream.DURATION-eng.markup">01:33:59.300000000</property>
  <property name="meta.attr.15.stream.NUMBER_OF_FRAMES-eng.markup">1694</property>
  <property name="meta.attr.15.stream.NUMBER_OF_BYTES-eng.markup">17597238</property>
  <property name="meta.attr.15.stream._STATISTICS_WRITING_APP-eng.markup">mkvmerge v40.0.0 ('Old Town Road + Pony') 64-bit</property>
  <property name="meta.attr.15.stream._STATISTICS_WRITING_DATE_UTC-eng.markup">2019-12-29 15:49:45</property>
  <property name="meta.attr.15.stream._STATISTICS_TAGS-eng.markup">BPS DURATION NUMBER_OF_FRAMES NUMBER_OF_BYTES</property>
  <property name="meta.media.16.codec.name">pgssub</property>
  <property name="meta.media.16.codec.long_name">HDMV Presentation Graphic Stream subtitles</property>
  <property name="meta.media.16.codec.bit_rate">0</property>
  <property name="meta.attr.16.stream.language.markup">heb</property>
  <property name="meta.attr.16.stream.title.markup">Hebrew</property>
  <property name="meta.attr.16.stream.BPS-eng.markup">18470</property>
  <property name="meta.attr.16.stream.DURATION-eng.markup">01:33:59.217000000</property>
  <property name="meta.attr.16.stream.NUMBER_OF_FRAMES-eng.markup">1688</property>
  <property name="meta.attr.16.stream.NUMBER_OF_BYTES-eng.markup">13019656</property>
  <property name="meta.attr.16.stream._STATISTICS_WRITING_APP-eng.markup">mkvmerge v40.0.0 ('Old Town Road + Pony') 64-bit</property>
  <property name="meta.attr.16.stream._STATISTICS_WRITING_DATE_UTC-eng.markup">2019-12-29 15:49:45</property>
  <property name="meta.attr.16.stream._STATISTICS_TAGS-eng.markup">BPS DURATION NUMBER_OF_FRAMES NUMBER_OF_BYTES</property>
  <property name="meta.media.17.codec.name">pgssub</property>
  <property name="meta.media.17.codec.long_name">HDMV Presentation Graphic Stream subtitles</property>
  <property name="meta.media.17.codec.bit_rate">0</property>
  <property name="meta.attr.17.stream.language.markup">hin</property>
  <property name="meta.attr.17.stream.title.markup">Hindi</property>
  <property name="meta.attr.17.stream.BPS-eng.markup">21017</property>
  <property name="meta.attr.17.stream.DURATION-eng.markup">01:33:59.300000000</property>
  <property name="meta.attr.17.stream.NUMBER_OF_FRAMES-eng.markup">1690</property>
  <property name="meta.attr.17.stream.NUMBER_OF_BYTES-eng.markup">14815519</property>
  <property name="meta.attr.17.stream._STATISTICS_WRITING_APP-eng.markup">mkvmerge v40.0.0 ('Old Town Road + Pony') 64-bit</property>
  <property name="meta.attr.17.stream._STATISTICS_WRITING_DATE_UTC-eng.markup">2019-12-29 15:49:45</property>
  <property name="meta.attr.17.stream._STATISTICS_TAGS-eng.markup">BPS DURATION NUMBER_OF_FRAMES NUMBER_OF_BYTES</property>
  <property name="meta.media.18.codec.name">pgssub</property>
  <property name="meta.media.18.codec.long_name">HDMV Presentation Graphic Stream subtitles</property>
  <property name="meta.media.18.codec.bit_rate">0</property>
  <property name="meta.attr.18.stream.language.markup">hun</property>
  <property name="meta.attr.18.stream.title.markup">Hungarian</property>
  <property name="meta.attr.18.stream.BPS-eng.markup">19042</property>
  <property name="meta.attr.18.stream.DURATION-eng.markup">01:33:59.175000000</property>
  <property name="meta.attr.18.stream.NUMBER_OF_FRAMES-eng.markup">1690</property>
  <property name="meta.attr.18.stream.NUMBER_OF_BYTES-eng.markup">13423018</property>
  <property name="meta.attr.18.stream._STATISTICS_WRITING_APP-eng.markup">mkvmerge v40.0.0 ('Old Town Road + Pony') 64-bit</property>
  <property name="meta.attr.18.stream._STATISTICS_WRITING_DATE_UTC-eng.markup">2019-12-29 15:49:45</property>
  <property name="meta.attr.18.stream._STATISTICS_TAGS-eng.markup">BPS DURATION NUMBER_OF_FRAMES NUMBER_OF_BYTES</property>
  <property name="meta.media.19.codec.name">pgssub</property>
  <property name="meta.media.19.codec.long_name">HDMV Presentation Graphic Stream subtitles</property>
  <property name="meta.media.19.codec.bit_rate">0</property>
  <property name="meta.attr.19.stream.language.markup">ice</property>
  <property name="meta.attr.19.stream.title.markup">Icelandic</property>
  <property name="meta.attr.19.stream.BPS-eng.markup">23876</property>
  <property name="meta.attr.19.stream.DURATION-eng.markup">01:33:59.217000000</property>
  <property name="meta.attr.19.stream.NUMBER_OF_FRAMES-eng.markup">1688</property>
  <property name="meta.attr.19.stream.NUMBER_OF_BYTES-eng.markup">16830422</property>
  <property name="meta.attr.19.stream._STATISTICS_WRITING_APP-eng.markup">mkvmerge v40.0.0 ('Old Town Road + Pony') 64-bit</property>
  <property name="meta.attr.19.stream._STATISTICS_WRITING_DATE_UTC-eng.markup">2019-12-29 15:49:45</property>
  <property name="meta.attr.19.stream._STATISTICS_TAGS-eng.markup">BPS DURATION NUMBER_OF_FRAMES NUMBER_OF_BYTES</property>
  <property name="meta.media.20.codec.name">pgssub</property>
  <property name="meta.media.20.codec.long_name">HDMV Presentation Graphic Stream subtitles</property>
  <property name="meta.media.20.codec.bit_rate">0</property>
  <property name="meta.attr.20.stream.language.markup">ind</property>
  <property name="meta.attr.20.stream.title.markup">Indonesian</property>
  <property name="meta.attr.20.stream.BPS-eng.markup">26444</property>
  <property name="meta.attr.20.stream.DURATION-eng.markup">01:33:59.300000000</property>
  <property name="meta.attr.20.stream.NUMBER_OF_FRAMES-eng.markup">1662</property>
  <property name="meta.attr.20.stream.NUMBER_OF_BYTES-eng.markup">18640975</property>
  <property name="meta.attr.20.stream._STATISTICS_WRITING_APP-eng.markup">mkvmerge v40.0.0 ('Old Town Road + Pony') 64-bit</property>
  <property name="meta.attr.20.stream._STATISTICS_WRITING_DATE_UTC-eng.markup">2019-12-29 15:49:45</property>
  <property name="meta.attr.20.stream._STATISTICS_TAGS-eng.markup">BPS DURATION NUMBER_OF_FRAMES NUMBER_OF_BYTES</property>
  <property name="meta.media.21.codec.name">pgssub</property>
  <property name="meta.media.21.codec.long_name">HDMV Presentation Graphic Stream subtitles</property>
  <property name="meta.media.21.codec.bit_rate">0</property>
  <property name="meta.attr.21.stream.language.markup">ita</property>
  <property name="meta.attr.21.stream.title.markup">Italian</property>
  <property name="meta.attr.21.stream.BPS-eng.markup">23573</property>
  <property name="meta.attr.21.stream.DURATION-eng.markup">01:42:58.922000000</property>
  <property name="meta.attr.21.stream.NUMBER_OF_FRAMES-eng.markup">1698</property>
  <property name="meta.attr.21.stream.NUMBER_OF_BYTES-eng.markup">18207609</property>
  <property name="meta.attr.21.stream._STATISTICS_WRITING_APP-eng.markup">mkvmerge v40.0.0 ('Old Town Road + Pony') 64-bit</property>
  <property name="meta.attr.21.stream._STATISTICS_WRITING_DATE_UTC-eng.markup">2019-12-29 15:49:45</property>
  <property name="meta.attr.21.stream._STATISTICS_TAGS-eng.markup">BPS DURATION NUMBER_OF_FRAMES NUMBER_OF_BYTES</property>
  <property name="meta.media.22.codec.name">pgssub</property>
  <property name="meta.media.22.codec.long_name">HDMV Presentation Graphic Stream subtitles</property>
  <property name="meta.media.22.codec.bit_rate">0</property>
  <property name="meta.attr.22.stream.language.markup">kor</property>
  <property name="meta.attr.22.stream.title.markup">Korean</property>
  <property name="meta.attr.22.stream.BPS-eng.markup">19788</property>
  <property name="meta.attr.22.stream.DURATION-eng.markup">01:35:32.477000000</property>
  <property name="meta.attr.22.stream.NUMBER_OF_FRAMES-eng.markup">1708</property>
  <property name="meta.attr.22.stream.NUMBER_OF_BYTES-eng.markup">14179403</property>
  <property name="meta.attr.22.stream._STATISTICS_WRITING_APP-eng.markup">mkvmerge v40.0.0 ('Old Town Road + Pony') 64-bit</property>
  <property name="meta.attr.22.stream._STATISTICS_WRITING_DATE_UTC-eng.markup">2019-12-29 15:49:45</property>
  <property name="meta.attr.22.stream._STATISTICS_TAGS-eng.markup">BPS DURATION NUMBER_OF_FRAMES NUMBER_OF_BYTES</property>
  <property name="meta.media.23.codec.name">pgssub</property>
  <property name="meta.media.23.codec.long_name">HDMV Presentation Graphic Stream subtitles</property>
  <property name="meta.media.23.codec.bit_rate">0</property>
  <property name="meta.attr.23.stream.language.markup">nor</property>
  <property name="meta.attr.23.stream.title.markup">Norwegian</property>
  <property name="meta.attr.23.stream.BPS-eng.markup">20066</property>
  <property name="meta.attr.23.stream.DURATION-eng.markup">01:33:59.675000000</property>
  <property name="meta.attr.23.stream.NUMBER_OF_FRAMES-eng.markup">1184</property>
  <property name="meta.attr.23.stream.NUMBER_OF_BYTES-eng.markup">14146014</property>
  <property name="meta.attr.23.stream._STATISTICS_WRITING_APP-eng.markup">mkvmerge v40.0.0 ('Old Town Road + Pony') 64-bit</property>
  <property name="meta.attr.23.stream._STATISTICS_WRITING_DATE_UTC-eng.markup">2019-12-29 15:49:45</property>
  <property name="meta.attr.23.stream._STATISTICS_TAGS-eng.markup">BPS DURATION NUMBER_OF_FRAMES NUMBER_OF_BYTES</property>
  <property name="meta.media.24.codec.name">pgssub</property>
  <property name="meta.media.24.codec.long_name">HDMV Presentation Graphic Stream subtitles</property>
  <property name="meta.media.24.codec.bit_rate">0</property>
  <property name="meta.attr.24.stream.language.markup">pol</property>
  <property name="meta.attr.24.stream.title.markup">Polish</property>
  <property name="meta.attr.24.stream.BPS-eng.markup">18199</property>
  <property name="meta.attr.24.stream.DURATION-eng.markup">01:33:59.300000000</property>
  <property name="meta.attr.24.stream.NUMBER_OF_FRAMES-eng.markup">1688</property>
  <property name="meta.attr.24.stream.NUMBER_OF_BYTES-eng.markup">12829046</property>
  <property name="meta.attr.24.stream._STATISTICS_WRITING_APP-eng.markup">mkvmerge v40.0.0 ('Old Town Road + Pony') 64-bit</property>
  <property name="meta.attr.24.stream._STATISTICS_WRITING_DATE_UTC-eng.markup">2019-12-29 15:49:45</property>
  <property name="meta.attr.24.stream._STATISTICS_TAGS-eng.markup">BPS DURATION NUMBER_OF_FRAMES NUMBER_OF_BYTES</property>
  <property name="meta.media.25.codec.name">pgssub</property>
  <property name="meta.media.25.codec.long_name">HDMV Presentation Graphic Stream subtitles</property>
  <property name="meta.media.25.codec.bit_rate">0</property>
  <property name="meta.attr.25.stream.language.markup">por</property>
  <property name="meta.attr.25.stream.title.markup">Brazilian Portuguese</property>
  <property name="meta.attr.25.stream.BPS-eng.markup">29654</property>
  <property name="meta.attr.25.stream.DURATION-eng.markup">01:33:59.300000000</property>
  <property name="meta.attr.25.stream.NUMBER_OF_FRAMES-eng.markup">1836</property>
  <property name="meta.attr.25.stream.NUMBER_OF_BYTES-eng.markup">20903964</property>
  <property name="meta.attr.25.stream._STATISTICS_WRITING_APP-eng.markup">mkvmerge v40.0.0 ('Old Town Road + Pony') 64-bit</property>
  <property name="meta.attr.25.stream._STATISTICS_WRITING_DATE_UTC-eng.markup">2019-12-29 15:49:45</property>
  <property name="meta.attr.25.stream._STATISTICS_TAGS-eng.markup">BPS DURATION NUMBER_OF_FRAMES NUMBER_OF_BYTES</property>
  <property name="meta.media.26.codec.name">pgssub</property>
  <property name="meta.media.26.codec.long_name">HDMV Presentation Graphic Stream subtitles</property>
  <property name="meta.media.26.codec.bit_rate">0</property>
  <property name="meta.attr.26.stream.language.markup">por</property>
  <property name="meta.attr.26.stream.title.markup">Iberian Portuguese</property>
  <property name="meta.attr.26.stream.BPS-eng.markup">27145</property>
  <property name="meta.attr.26.stream.DURATION-eng.markup">01:33:59.300000000</property>
  <property name="meta.attr.26.stream.NUMBER_OF_FRAMES-eng.markup">1720</property>
  <property name="meta.attr.26.stream.NUMBER_OF_BYTES-eng.markup">19134971</property>
  <property name="meta.attr.26.stream._STATISTICS_WRITING_APP-eng.markup">mkvmerge v40.0.0 ('Old Town Road + Pony') 64-bit</property>
  <property name="meta.attr.26.stream._STATISTICS_WRITING_DATE_UTC-eng.markup">2019-12-29 15:49:45</property>
  <property name="meta.attr.26.stream._STATISTICS_TAGS-eng.markup">BPS DURATION NUMBER_OF_FRAMES NUMBER_OF_BYTES</property>
  <property name="meta.media.27.codec.name">pgssub</property>
  <property name="meta.media.27.codec.long_name">HDMV Presentation Graphic Stream subtitles</property>
  <property name="meta.media.27.codec.bit_rate">0</property>
  <property name="meta.attr.27.stream.language.markup">rum</property>
  <property name="meta.attr.27.stream.title.markup">Romanian</property>
  <property name="meta.attr.27.stream.BPS-eng.markup">25197</property>
  <property name="meta.attr.27.stream.DURATION-eng.markup">01:35:32.519000000</property>
  <property name="meta.attr.27.stream.NUMBER_OF_FRAMES-eng.markup">1706</property>
  <property name="meta.attr.27.stream.NUMBER_OF_BYTES-eng.markup">18055771</property>
  <property name="meta.attr.27.stream._STATISTICS_WRITING_APP-eng.markup">mkvmerge v40.0.0 ('Old Town Road + Pony') 64-bit</property>
  <property name="meta.attr.27.stream._STATISTICS_WRITING_DATE_UTC-eng.markup">2019-12-29 15:49:45</property>
  <property name="meta.attr.27.stream._STATISTICS_TAGS-eng.markup">BPS DURATION NUMBER_OF_FRAMES NUMBER_OF_BYTES</property>
  <property name="meta.media.28.codec.name">pgssub</property>
  <property name="meta.media.28.codec.long_name">HDMV Presentation Graphic Stream subtitles</property>
  <property name="meta.media.28.codec.bit_rate">0</property>
  <property name="meta.attr.28.stream.language.markup">slv</property>
  <property name="meta.attr.28.stream.title.markup">Slovenian</property>
  <property name="meta.attr.28.stream.BPS-eng.markup">22934</property>
  <property name="meta.attr.28.stream.DURATION-eng.markup">01:33:59.300000000</property>
  <property name="meta.attr.28.stream.NUMBER_OF_FRAMES-eng.markup">1706</property>
  <property name="meta.attr.28.stream.NUMBER_OF_BYTES-eng.markup">16167012</property>
  <property name="meta.attr.28.stream._STATISTICS_WRITING_APP-eng.markup">mkvmerge v40.0.0 ('Old Town Road + Pony') 64-bit</property>
  <property name="meta.attr.28.stream._STATISTICS_WRITING_DATE_UTC-eng.markup">2019-12-29 15:49:45</property>
  <property name="meta.attr.28.stream._STATISTICS_TAGS-eng.markup">BPS DURATION NUMBER_OF_FRAMES NUMBER_OF_BYTES</property>
  <property name="meta.media.29.codec.name">pgssub</property>
  <property name="meta.media.29.codec.long_name">HDMV Presentation Graphic Stream subtitles</property>
  <property name="meta.media.29.codec.bit_rate">0</property>
  <property name="meta.attr.29.stream.language.markup">spa</property>
  <property name="meta.attr.29.stream.title.markup">Spanish (Latin America)</property>
  <property name="meta.attr.29.stream.BPS-eng.markup">25790</property>
  <property name="meta.attr.29.stream.DURATION-eng.markup">01:35:32.519000000</property>
  <property name="meta.attr.29.stream.NUMBER_OF_FRAMES-eng.markup">1699</property>
  <property name="meta.attr.29.stream.NUMBER_OF_BYTES-eng.markup">18480666</property>
  <property name="meta.attr.29.stream._STATISTICS_WRITING_APP-eng.markup">mkvmerge v40.0.0 ('Old Town Road + Pony') 64-bit</property>
  <property name="meta.attr.29.stream._STATISTICS_WRITING_DATE_UTC-eng.markup">2019-12-29 15:49:45</property>
  <property name="meta.attr.29.stream._STATISTICS_TAGS-eng.markup">BPS DURATION NUMBER_OF_FRAMES NUMBER_OF_BYTES</property>
  <property name="meta.media.30.codec.name">pgssub</property>
  <property name="meta.media.30.codec.long_name">HDMV Presentation Graphic Stream subtitles</property>
  <property name="meta.media.30.codec.bit_rate">0</property>
  <property name="meta.attr.30.stream.language.markup">spa</property>
  <property name="meta.attr.30.stream.title.markup">Spanish (Spain)</property>
  <property name="meta.attr.30.stream.BPS-eng.markup">20473</property>
  <property name="meta.attr.30.stream.DURATION-eng.markup">01:33:59.300000000</property>
  <property name="meta.attr.30.stream.NUMBER_OF_FRAMES-eng.markup">1702</property>
  <property name="meta.attr.30.stream.NUMBER_OF_BYTES-eng.markup">14432022</property>
  <property name="meta.attr.30.stream._STATISTICS_WRITING_APP-eng.markup">mkvmerge v40.0.0 ('Old Town Road + Pony') 64-bit</property>
  <property name="meta.attr.30.stream._STATISTICS_WRITING_DATE_UTC-eng.markup">2019-12-29 15:49:45</property>
  <property name="meta.attr.30.stream._STATISTICS_TAGS-eng.markup">BPS DURATION NUMBER_OF_FRAMES NUMBER_OF_BYTES</property>
  <property name="meta.media.31.codec.name">pgssub</property>
  <property name="meta.media.31.codec.long_name">HDMV Presentation Graphic Stream subtitles</property>
  <property name="meta.media.31.codec.bit_rate">0</property>
  <property name="meta.attr.31.stream.language.markup">swe</property>
  <property name="meta.attr.31.stream.title.markup">Swedish</property>
  <property name="meta.attr.31.stream.BPS-eng.markup">19711</property>
  <property name="meta.attr.31.stream.DURATION-eng.markup">01:33:59.675000000</property>
  <property name="meta.attr.31.stream.NUMBER_OF_FRAMES-eng.markup">1184</property>
  <property name="meta.attr.31.stream.NUMBER_OF_BYTES-eng.markup">13895741</property>
  <property name="meta.attr.31.stream._STATISTICS_WRITING_APP-eng.markup">mkvmerge v40.0.0 ('Old Town Road + Pony') 64-bit</property>
  <property name="meta.attr.31.stream._STATISTICS_WRITING_DATE_UTC-eng.markup">2019-12-29 15:49:45</property>
  <property name="meta.attr.31.stream._STATISTICS_TAGS-eng.markup">BPS DURATION NUMBER_OF_FRAMES NUMBER_OF_BYTES</property>
  <property name="meta.media.32.codec.name">pgssub</property>
  <property name="meta.media.32.codec.long_name">HDMV Presentation Graphic Stream subtitles</property>
  <property name="meta.media.32.codec.bit_rate">0</property>
  <property name="meta.attr.32.stream.language.markup">tha</property>
  <property name="meta.attr.32.stream.title.markup">Thai</property>
  <property name="meta.attr.32.stream.BPS-eng.markup">20455</property>
  <property name="meta.attr.32.stream.DURATION-eng.markup">01:44:32.308000000</property>
  <property name="meta.attr.32.stream.NUMBER_OF_FRAMES-eng.markup">1708</property>
  <property name="meta.attr.32.stream.NUMBER_OF_BYTES-eng.markup">16038127</property>
  <property name="meta.attr.32.stream._STATISTICS_WRITING_APP-eng.markup">mkvmerge v40.0.0 ('Old Town Road + Pony') 64-bit</property>
  <property name="meta.attr.32.stream._STATISTICS_WRITING_DATE_UTC-eng.markup">2019-12-29 15:49:45</property>
  <property name="meta.attr.32.stream._STATISTICS_TAGS-eng.markup">BPS DURATION NUMBER_OF_FRAMES NUMBER_OF_BYTES</property>
  <property name="meta.media.33.codec.name">pgssub</property>
  <property name="meta.media.33.codec.long_name">HDMV Presentation Graphic Stream subtitles</property>
  <property name="meta.media.33.codec.bit_rate">0</property>
  <property name="meta.attr.33.stream.language.markup">tur</property>
  <property name="meta.attr.33.stream.title.markup">Turkish</property>
  <property name="meta.attr.33.stream.BPS-eng.markup">22418</property>
  <property name="meta.attr.33.stream.DURATION-eng.markup">01:33:59.217000000</property>
  <property name="meta.attr.33.stream.NUMBER_OF_FRAMES-eng.markup">1674</property>
  <property name="meta.attr.33.stream.NUMBER_OF_BYTES-eng.markup">15802734</property>
  <property name="meta.attr.33.stream._STATISTICS_WRITING_APP-eng.markup">mkvmerge v40.0.0 ('Old Town Road + Pony') 64-bit</property>
  <property name="meta.attr.33.stream._STATISTICS_WRITING_DATE_UTC-eng.markup">2019-12-29 15:49:45</property>
  <property name="meta.attr.33.stream._STATISTICS_TAGS-eng.markup">BPS DURATION NUMBER_OF_FRAMES NUMBER_OF_BYTES</property>
  <property name="meta.media.34.codec.name">srt</property>
  <property name="meta.media.34.codec.long_name">SubRip subtitle</property>
  <property name="meta.media.34.codec.bit_rate">0</property>
  <property name="meta.attr.34.stream.language.markup">eng</property>
  <property name="meta.attr.34.stream.BPS-eng.markup">48</property>
  <property name="meta.attr.34.stream.DURATION-eng.markup">01:33:45.538000000</property>
  <property name="meta.attr.34.stream.NUMBER_OF_FRAMES-eng.markup">842</property>
  <property name="meta.attr.34.stream.NUMBER_OF_BYTES-eng.markup">34158</property>
  <property name="meta.attr.34.stream._STATISTICS_WRITING_APP-eng.markup">mkvmerge v40.0.0 ('Old Town Road + Pony') 64-bit</property>
  <property name="meta.attr.34.stream._STATISTICS_WRITING_DATE_UTC-eng.markup">2019-12-29 15:49:45</property>
  <property name="meta.attr.34.stream._STATISTICS_TAGS-eng.markup">BPS DURATION NUMBER_OF_FRAMES NUMBER_OF_BYTES</property>
  <property name="meta.media.35.codec.name">srt</property>
  <property name="meta.media.35.codec.long_name">SubRip subtitle</property>
  <property name="meta.media.35.codec.bit_rate">0</property>
  <property name="meta.attr.35.stream.language.markup">eng</property>
  <property name="meta.attr.35.stream.title.markup">SDH</property>
  <property name="meta.attr.35.stream.BPS-eng.markup">43</property>
  <property name="meta.attr.35.stream.DURATION-eng.markup">01:31:41.370000000</property>
  <property name="meta.attr.35.stream.NUMBER_OF_FRAMES-eng.markup">833</property>
  <property name="meta.attr.35.stream.NUMBER_OF_BYTES-eng.markup">29767</property>
  <property name="meta.attr.35.stream._STATISTICS_WRITING_APP-eng.markup">mkvmerge v40.0.0 ('Old Town Road + Pony') 64-bit</property>
  <property name="meta.attr.35.stream._STATISTICS_WRITING_DATE_UTC-eng.markup">2019-12-29 15:49:45</property>
  <property name="meta.attr.35.stream._STATISTICS_TAGS-eng.markup">BPS DURATION NUMBER_OF_FRAMES NUMBER_OF_BYTES</property>
  <property name="meta.media.36.codec.name">srt</property>
  <property name="meta.media.36.codec.long_name">SubRip subtitle</property>
  <property name="meta.media.36.codec.bit_rate">0</property>
  <property name="meta.attr.36.stream.language.markup">swe</property>
  <property name="meta.attr.36.stream.BPS-eng.markup">47</property>
  <property name="meta.attr.36.stream.DURATION-eng.markup">01:33:48.363000000</property>
  <property name="meta.attr.36.stream.NUMBER_OF_FRAMES-eng.markup">683</property>
  <property name="meta.attr.36.stream.NUMBER_OF_BYTES-eng.markup">33075</property>
  <property name="meta.attr.36.stream._STATISTICS_WRITING_APP-eng.markup">mkvmerge v40.0.0 ('Old Town Road + Pony') 64-bit</property>
  <property name="meta.attr.36.stream._STATISTICS_WRITING_DATE_UTC-eng.markup">2019-12-29 15:49:45</property>
  <property name="meta.attr.36.stream._STATISTICS_TAGS-eng.markup">BPS DURATION NUMBER_OF_FRAMES NUMBER_OF_BYTES</property>
  <property name="meta.attr.creation_time.markup">2019-12-29T15:49:45.000000Z</property>
  <property name="meta.attr.ENCODER.markup">Lavf58.29.100</property>
  <property name="meta.media.sample_aspect_num">1</property>
  <property name="meta.media.sample_aspect_den">1</property>
  <property name="meta.media.frame_rate_num">24000</property>
  <property name="meta.media.frame_rate_den">1001</property>
  <property name="meta.media.colorspace">709</property>
  <property name="meta.media.color_trc">1</property>
  <property name="meta.media.has_b_frames">2</property>
  <property name="meta.media.width">1916</property>
  <property name="meta.media.height">1036</property>
  <property name="meta.media.aspect_ratio">1</property>
  <property name="meta.media.color_range">mpeg</property>
  <property name="xml">was here</property>
  <property name="meta.media.top_field_first">0</property>
  <property name="meta.media.progressive">1</property>
  <property name="set.test_audio">0</property>
  <property name="set.test_image">1</property>
 </chain>
 <playlist id="playlist10">
  <property name="kdenlive:audio_track">1</property>
  <entry in="00:00:00.000" out="00:00:29.154" producer="chain9">
   <property name="kdenlive:id">4</property>
  </entry>
  <blank length="00:07:45.504"/>
  <entry in="00:08:57.557" out="00:09:20.145" producer="chain9">
   <property name="kdenlive:id">4</property>
  </entry>
  <blank length="00:00:09.760"/>
  <entry in="00:09:47.130" out="00:09:50.300" producer="chain9">
   <property name="kdenlive:id">4</property>
  </entry>
  <blank length="00:00:06.673"/>
  <entry in="00:10:01.793" out="00:10:04.421" producer="chain9">
   <property name="kdenlive:id">4</property>
  </entry>
  <blank length="00:01:14.514"/>
  <entry in="00:12:16.058" out="00:13:15.724" producer="chain9">
   <property name="kdenlive:id">4</property>
  </entry>
  <entry in="00:13:15.766" out="00:13:16.975" producer="chain9">
   <property name="kdenlive:id">4</property>
  </entry>
  <entry in="00:13:34.243" out="00:13:36.703" producer="chain9">
   <property name="kdenlive:id">4</property>
  </entry>
  <entry in="00:13:36.745" out="00:13:37.120" producer="chain9">
   <property name="kdenlive:id">4</property>
  </entry>
  <entry in="00:13:37.162" out="00:13:52.344" producer="chain9">
   <property name="kdenlive:id">4</property>
  </entry>
  <blank length="00:00:12.846"/>
  <entry in="00:14:18.602" out="00:15:47.506" producer="chain9">
   <property name="kdenlive:id">4</property>
  </entry>
  <blank length="00:00:02.544"/>
  <entry in="00:15:58.392" out="00:17:10.844" producer="chain9">
   <property name="kdenlive:id">4</property>
  </entry>
  <entry in="00:17:10.886" out="00:17:15.974" producer="chain9">
   <property name="kdenlive:id">4</property>
   <filter id="filter37" in="00:17:13.555" out="00:17:15.974">
    <property name="window">75</property>
    <property name="max_gain">20dB</property>
    <property name="mlt_service">volume</property>
    <property name="kdenlive_id">fadeout</property>
    <property name="gain">1</property>
    <property name="end">0</property>
    <property name="kdenlive:collapsed">0</property>
   </filter>
  </entry>
  <blank length="00:00:02.336"/>
  <entry in="00:17:49.007" out="00:18:16.767" producer="chain9">
   <property name="kdenlive:id">4</property>
  </entry>
  <blank length="00:00:53.095"/>
  <entry in="00:21:11.803" out="00:23:24.024" producer="chain9">
   <property name="kdenlive:id">4</property>
  </entry>
  <blank length="00:01:29.488"/>
  <entry in="00:25:24.024" out="00:26:30.614" producer="chain9">
   <property name="kdenlive:id">4</property>
  </entry>
  <blank length="00:00:08.759"/>
  <entry in="00:27:08.467" out="00:27:14.973" producer="chain9">
   <property name="kdenlive:id">4</property>
  </entry>
  <blank length="00:00:01.960"/>
  <entry in="00:30:41.792" out="00:31:35.911" producer="chain9">
   <property name="kdenlive:id">4</property>
  </entry>
  <blank length="00:00:20.854"/>
  <entry in="00:32:14.223" out="00:42:23.899" producer="chain9">
   <property name="kdenlive:id">4</property>
  </entry>
  <blank length="00:03:04.463"/>
  <entry in="00:45:42.501" out="00:46:14.139" producer="chain9">
   <property name="kdenlive:id">4</property>
  </entry>
  <blank length="00:03:06.590"/>
  <entry in="00:49:44.336" out="00:49:54.888" producer="chain9">
   <property name="kdenlive:id">4</property>
  </entry>
  <blank length="00:01:07.466"/>
  <entry in="00:51:12.387" out="00:51:21.271" producer="chain9">
   <property name="kdenlive:id">4</property>
  </entry>
  <blank length="00:00:00.626"/>
  <entry in="00:51:36.161" out="00:52:15.265" producer="chain9">
   <property name="kdenlive:id">4</property>
  </entry>
  <blank length="00:02:14.681"/>
  <entry in="00:54:46.380" out="00:54:49.091" producer="chain9">
   <property name="kdenlive:id">4</property>
  </entry>
  <blank length="00:00:02.461"/>
  <entry in="00:55:05.589" out="00:58:43.335" producer="chain9">
   <property name="kdenlive:id">4</property>
  </entry>
  <entry in="00:58:43.377" out="00:58:45.712" producer="chain9">
   <property name="kdenlive:id">4</property>
  </entry>
  <blank length="00:00:19.686"/>
  <entry in="00:59:39.831" out="00:59:40.999" producer="chain9">
   <property name="kdenlive:id">4</property>
  </entry>
  <entry in="00:59:41.041" out="01:01:30.906" producer="chain9">
   <property name="kdenlive:id">4</property>
  </entry>
  <blank length="00:01:37.579"/>
  <entry in="01:03:26.235" out="01:03:27.653" producer="chain9">
   <property name="kdenlive:id">4</property>
  </entry>
  <entry in="01:03:28.070" out="01:03:28.737" producer="chain9">
   <property name="kdenlive:id">4</property>
  </entry>
  <entry in="01:03:28.779" out="01:03:56.181" producer="chain9">
   <property name="kdenlive:id">4</property>
  </entry>
  <blank length="00:00:58.141"/>
  <entry in="01:05:15.474" out="01:06:21.897" producer="chain9">
   <property name="kdenlive:id">4</property>
  </entry>
  <blank length="00:01:48.674"/>
  <entry in="01:08:41.708" out="01:10:57.432" producer="chain9">
   <property name="kdenlive:id">4</property>
  </entry>
  <blank length="00:00:03.754"/>
  <entry in="01:12:19.811" out="01:14:45.003" producer="chain9">
   <property name="kdenlive:id">4</property>
  </entry>
  <blank length="00:00:03.962"/>
  <entry in="01:15:06.757" out="01:24:14.056" producer="chain9">
   <property name="kdenlive:id">4</property>
  </entry>
  <blank length="00:04:18.810"/>
  <entry in="01:28:51.969" out="01:29:01.084" producer="chain9">
   <property name="kdenlive:id">4</property>
  </entry>
  <blank length="00:00:06.840"/>
  <entry in="01:29:38.747" out="01:30:28.987" producer="chain9">
   <property name="kdenlive:id">4</property>
  </entry>
  <blank length="00:02:12.888"/>
  <entry in="01:32:48.715" out="01:33:09.509" producer="chain9">
   <property name="kdenlive:id">4</property>
  </entry>
  <blank length="00:00:22.940"/>
  <entry in="01:33:37.496" out="01:33:50.592" producer="chain9">
   <property name="kdenlive:id">4</property>
  </entry>
  <entry in="01:33:50.634" out="01:33:55.222" producer="chain9">
   <property name="kdenlive:id">4</property>
  </entry>
  <entry in="01:33:55.264" out="01:34:00.000" producer="chain9">
   <property name="kdenlive:id">4</property>
  </entry>
  <blank length="00:00:07.966"/>
  <entry in="01:34:19.144" out="01:34:22.272" producer="chain9">
   <property name="kdenlive:id">4</property>
  </entry>
  <entry in="01:34:22.314" out="01:34:23.607" producer="chain9">
   <property name="kdenlive:id">4</property>
  </entry>
  <entry in="01:34:23.649" out="01:37:14.014" producer="chain9">
   <property name="kdenlive:id">4</property>
  </entry>
 </playlist>
 <chain id="chain11" out="01:45:58.350">
  <property name="length">152448</property>
  <property name="eof">pause</property>
  <property name="resource">N:/Videos/Horror and SciFi/Final Fantasy/Final.Fantasy.The.Spirits.Within.2001.1080p.BluRay.HEVC.DTS-LiNUX/Final.Fantasy.The.Spirits.Within.2001.1080p.BluRay.HEVC.DTS-LiNUX.mkv</property>
  <property name="mlt_service">avformat-novalidate</property>
  <property name="seekable">1</property>
  <property name="audio_index">1</property>
  <property name="video_index">0</property>
  <property name="vstream">0</property>
  <property name="astream">0</property>
  <property name="kdenlive:control_uuid">{193136b1-969a-4943-bfcd-55058a6808f2}</property>
  <property name="kdenlive:id">4</property>
  <property name="kdenlive:clip_type">0</property>
  <property name="kdenlive:file_size">5331297763</property>
  <property name="kdenlive:file_hash">691e768d68c55b9a28cb9a278fdc8b17</property>
  <property name="kdenlive:folderid">-1</property>
  <property name="kdenlive:monitorPosition">0</property>
  <property name="mute_on_pause">0</property>
  <property name="meta.media.nb_streams">37</property>
  <property name="meta.media.0.stream.type">video</property>
  <property name="meta.media.0.stream.frame_rate">23.976</property>
  <property name="meta.media.0.stream.sample_aspect_ratio">1</property>
  <property name="meta.media.0.codec.width">1916</property>
  <property name="meta.media.0.codec.height">1036</property>
  <property name="meta.media.0.codec.rotate">0</property>
  <property name="meta.media.0.codec.pix_fmt">yuv420p10le</property>
  <property name="meta.media.0.codec.sample_aspect_ratio">1</property>
  <property name="meta.media.0.codec.colorspace">709</property>
  <property name="meta.media.0.codec.color_trc">1</property>
  <property name="meta.media.0.codec.name">hevc</property>
  <property name="meta.media.0.codec.long_name">HEVC (High Efficiency Video Coding)</property>
  <property name="meta.media.0.codec.bit_rate">0</property>
  <property name="meta.attr.0.stream.BPS-eng.markup">4999776</property>
  <property name="meta.attr.0.stream.DURATION-eng.markup">01:45:58.352000000</property>
  <property name="meta.attr.0.stream.NUMBER_OF_FRAMES-eng.markup">152448</property>
  <property name="meta.attr.0.stream.NUMBER_OF_BYTES-eng.markup">3973792365</property>
  <property name="meta.attr.0.stream._STATISTICS_WRITING_APP-eng.markup">mkvmerge v40.0.0 ('Old Town Road + Pony') 64-bit</property>
  <property name="meta.attr.0.stream._STATISTICS_WRITING_DATE_UTC-eng.markup">2019-12-29 15:49:45</property>
  <property name="meta.attr.0.stream._STATISTICS_TAGS-eng.markup">BPS DURATION NUMBER_OF_FRAMES NUMBER_OF_BYTES</property>
  <property name="meta.media.1.stream.type">audio</property>
  <property name="meta.media.1.codec.sample_fmt">fltp</property>
  <property name="meta.media.1.codec.sample_rate">48000</property>
  <property name="meta.media.1.codec.channels">6</property>
  <property name="meta.media.1.codec.layout">5.1(side)</property>
  <property name="meta.media.1.codec.name">dca</property>
  <property name="meta.media.1.codec.long_name">DCA (DTS Coherent Acoustics)</property>
  <property name="meta.media.1.codec.bit_rate">1411200</property>
  <property name="meta.attr.1.stream.language.markup">eng</property>
  <property name="meta.attr.1.stream.title.markup">Surround</property>
  <property name="meta.attr.1.stream.BPS-eng.markup">1412999</property>
  <property name="meta.attr.1.stream.DURATION-eng.markup">01:45:58.358000000</property>
  <property name="meta.attr.1.stream.NUMBER_OF_FRAMES-eng.markup">596096</property>
  <property name="meta.attr.1.stream.NUMBER_OF_BYTES-eng.markup">1123044864</property>
  <property name="meta.attr.1.stream._STATISTICS_WRITING_APP-eng.markup">mkvmerge v40.0.0 ('Old Town Road + Pony') 64-bit</property>
  <property name="meta.attr.1.stream._STATISTICS_WRITING_DATE_UTC-eng.markup">2019-12-29 15:49:45</property>
  <property name="meta.attr.1.stream._STATISTICS_TAGS-eng.markup">BPS DURATION NUMBER_OF_FRAMES NUMBER_OF_BYTES</property>
  <property name="meta.media.2.codec.name">pgssub</property>
  <property name="meta.media.2.codec.long_name">HDMV Presentation Graphic Stream subtitles</property>
  <property name="meta.media.2.codec.bit_rate">0</property>
  <property name="meta.attr.2.stream.language.markup">eng</property>
  <property name="meta.attr.2.stream.title.markup">English</property>
  <property name="meta.attr.2.stream.BPS-eng.markup">24594</property>
  <property name="meta.attr.2.stream.DURATION-eng.markup">01:33:45.954000000</property>
  <property name="meta.attr.2.stream.NUMBER_OF_FRAMES-eng.markup">1686</property>
  <property name="meta.attr.2.stream.NUMBER_OF_BYTES-eng.markup">17296140</property>
  <property name="meta.attr.2.stream._STATISTICS_WRITING_APP-eng.markup">mkvmerge v40.0.0 ('Old Town Road + Pony') 64-bit</property>
  <property name="meta.attr.2.stream._STATISTICS_WRITING_DATE_UTC-eng.markup">2019-12-29 15:49:45</property>
  <property name="meta.attr.2.stream._STATISTICS_TAGS-eng.markup">BPS DURATION NUMBER_OF_FRAMES NUMBER_OF_BYTES</property>
  <property name="meta.media.3.codec.name">pgssub</property>
  <property name="meta.media.3.codec.long_name">HDMV Presentation Graphic Stream subtitles</property>
  <property name="meta.media.3.codec.bit_rate">0</property>
  <property name="meta.attr.3.stream.language.markup">eng</property>
  <property name="meta.attr.3.stream.title.markup">English SDH</property>
  <property name="meta.attr.3.stream.BPS-eng.markup">32739</property>
  <property name="meta.attr.3.stream.DURATION-eng.markup">01:41:48.102000000</property>
  <property name="meta.attr.3.stream.NUMBER_OF_FRAMES-eng.markup">2103</property>
  <property name="meta.attr.3.stream.NUMBER_OF_BYTES-eng.markup">24997093</property>
  <property name="meta.attr.3.stream._STATISTICS_WRITING_APP-eng.markup">mkvmerge v40.0.0 ('Old Town Road + Pony') 64-bit</property>
  <property name="meta.attr.3.stream._STATISTICS_WRITING_DATE_UTC-eng.markup">2019-12-29 15:49:45</property>
  <property name="meta.attr.3.stream._STATISTICS_TAGS-eng.markup">BPS DURATION NUMBER_OF_FRAMES NUMBER_OF_BYTES</property>
  <property name="meta.media.4.codec.name">pgssub</property>
  <property name="meta.media.4.codec.long_name">HDMV Presentation Graphic Stream subtitles</property>
  <property name="meta.media.4.codec.bit_rate">0</property>
  <property name="meta.attr.4.stream.language.markup">ara</property>
  <property name="meta.attr.4.stream.title.markup">Arabic</property>
  <property name="meta.attr.4.stream.BPS-eng.markup">13581</property>
  <property name="meta.attr.4.stream.DURATION-eng.markup">01:33:59.217000000</property>
  <property name="meta.attr.4.stream.NUMBER_OF_FRAMES-eng.markup">1690</property>
  <property name="meta.attr.4.stream.NUMBER_OF_BYTES-eng.markup">9573918</property>
  <property name="meta.attr.4.stream._STATISTICS_WRITING_APP-eng.markup">mkvmerge v40.0.0 ('Old Town Road + Pony') 64-bit</property>
  <property name="meta.attr.4.stream._STATISTICS_WRITING_DATE_UTC-eng.markup">2019-12-29 15:49:45</property>
  <property name="meta.attr.4.stream._STATISTICS_TAGS-eng.markup">BPS DURATION NUMBER_OF_FRAMES NUMBER_OF_BYTES</property>
  <property name="meta.media.5.codec.name">pgssub</property>
  <property name="meta.media.5.codec.long_name">HDMV Presentation Graphic Stream subtitles</property>
  <property name="meta.media.5.codec.bit_rate">0</property>
  <property name="meta.attr.5.stream.language.markup">bul</property>
  <property name="meta.attr.5.stream.title.markup">Bulgarian</property>
  <property name="meta.attr.5.stream.BPS-eng.markup">23121</property>
  <property name="meta.attr.5.stream.DURATION-eng.markup">01:35:32.310000000</property>
  <property name="meta.attr.5.stream.NUMBER_OF_FRAMES-eng.markup">1656</property>
  <property name="meta.attr.5.stream.NUMBER_OF_BYTES-eng.markup">16567112</property>
  <property name="meta.attr.5.stream._STATISTICS_WRITING_APP-eng.markup">mkvmerge v40.0.0 ('Old Town Road + Pony') 64-bit</property>
  <property name="meta.attr.5.stream._STATISTICS_WRITING_DATE_UTC-eng.markup">2019-12-29 15:49:45</property>
  <property name="meta.attr.5.stream._STATISTICS_TAGS-eng.markup">BPS DURATION NUMBER_OF_FRAMES NUMBER_OF_BYTES</property>
  <property name="meta.media.6.codec.name">pgssub</property>
  <property name="meta.media.6.codec.long_name">HDMV Presentation Graphic Stream subtitles</property>
  <property name="meta.media.6.codec.bit_rate">0</property>
  <property name="meta.attr.6.stream.language.markup">chi</property>
  <property name="meta.attr.6.stream.title.markup">Cantonese</property>
  <property name="meta.attr.6.stream.BPS-eng.markup">19607</property>
  <property name="meta.attr.6.stream.DURATION-eng.markup">01:42:59.006000000</property>
  <property name="meta.attr.6.stream.NUMBER_OF_FRAMES-eng.markup">1709</property>
  <property name="meta.attr.6.stream.NUMBER_OF_BYTES-eng.markup">15144515</property>
  <property name="meta.attr.6.stream._STATISTICS_WRITING_APP-eng.markup">mkvmerge v40.0.0 ('Old Town Road + Pony') 64-bit</property>
  <property name="meta.attr.6.stream._STATISTICS_WRITING_DATE_UTC-eng.markup">2019-12-29 15:49:45</property>
  <property name="meta.attr.6.stream._STATISTICS_TAGS-eng.markup">BPS DURATION NUMBER_OF_FRAMES NUMBER_OF_BYTES</property>
  <property name="meta.media.7.codec.name">pgssub</property>
  <property name="meta.media.7.codec.long_name">HDMV Presentation Graphic Stream subtitles</property>
  <property name="meta.media.7.codec.bit_rate">0</property>
  <property name="meta.attr.7.stream.language.markup">chi</property>
  <property name="meta.attr.7.stream.title.markup">Mandarin</property>
  <property name="meta.attr.7.stream.BPS-eng.markup">21248</property>
  <property name="meta.attr.7.stream.DURATION-eng.markup">01:33:59.258000000</property>
  <property name="meta.attr.7.stream.NUMBER_OF_FRAMES-eng.markup">1704</property>
  <property name="meta.attr.7.stream.NUMBER_OF_BYTES-eng.markup">14978356</property>
  <property name="meta.attr.7.stream._STATISTICS_WRITING_APP-eng.markup">mkvmerge v40.0.0 ('Old Town Road + Pony') 64-bit</property>
  <property name="meta.attr.7.stream._STATISTICS_WRITING_DATE_UTC-eng.markup">2019-12-29 15:49:45</property>
  <property name="meta.attr.7.stream._STATISTICS_TAGS-eng.markup">BPS DURATION NUMBER_OF_FRAMES NUMBER_OF_BYTES</property>
  <property name="meta.media.8.codec.name">pgssub</property>
  <property name="meta.media.8.codec.long_name">HDMV Presentation Graphic Stream subtitles</property>
  <property name="meta.media.8.codec.bit_rate">0</property>
  <property name="meta.attr.8.stream.language.markup">hrv</property>
  <property name="meta.attr.8.stream.title.markup">Croatian</property>
  <property name="meta.attr.8.stream.BPS-eng.markup">18941</property>
  <property name="meta.attr.8.stream.DURATION-eng.markup">01:33:59.383000000</property>
  <property name="meta.attr.8.stream.NUMBER_OF_FRAMES-eng.markup">1355</property>
  <property name="meta.attr.8.stream.NUMBER_OF_BYTES-eng.markup">13352216</property>
  <property name="meta.attr.8.stream._STATISTICS_WRITING_APP-eng.markup">mkvmerge v40.0.0 ('Old Town Road + Pony') 64-bit</property>
  <property name="meta.attr.8.stream._STATISTICS_WRITING_DATE_UTC-eng.markup">2019-12-29 15:49:45</property>
  <property name="meta.attr.8.stream._STATISTICS_TAGS-eng.markup">BPS DURATION NUMBER_OF_FRAMES NUMBER_OF_BYTES</property>
  <property name="meta.media.9.codec.name">pgssub</property>
  <property name="meta.media.9.codec.long_name">HDMV Presentation Graphic Stream subtitles</property>
  <property name="meta.media.9.codec.bit_rate">0</property>
  <property name="meta.attr.9.stream.language.markup">cze</property>
  <property name="meta.attr.9.stream.title.markup">Czech</property>
  <property name="meta.attr.9.stream.BPS-eng.markup">21071</property>
  <property name="meta.attr.9.stream.DURATION-eng.markup">01:33:59.300000000</property>
  <property name="meta.attr.9.stream.NUMBER_OF_FRAMES-eng.markup">1688</property>
  <property name="meta.attr.9.stream.NUMBER_OF_BYTES-eng.markup">14853464</property>
  <property name="meta.attr.9.stream._STATISTICS_WRITING_APP-eng.markup">mkvmerge v40.0.0 ('Old Town Road + Pony') 64-bit</property>
  <property name="meta.attr.9.stream._STATISTICS_WRITING_DATE_UTC-eng.markup">2019-12-29 15:49:45</property>
  <property name="meta.attr.9.stream._STATISTICS_TAGS-eng.markup">BPS DURATION NUMBER_OF_FRAMES NUMBER_OF_BYTES</property>
  <property name="meta.media.10.codec.name">pgssub</property>
  <property name="meta.media.10.codec.long_name">HDMV Presentation Graphic Stream subtitles</property>
  <property name="meta.media.10.codec.bit_rate">0</property>
  <property name="meta.attr.10.stream.language.markup">dan</property>
  <property name="meta.attr.10.stream.title.markup">Danish</property>
  <property name="meta.attr.10.stream.BPS-eng.markup">20546</property>
  <property name="meta.attr.10.stream.DURATION-eng.markup">01:33:59.717000000</property>
  <property name="meta.attr.10.stream.NUMBER_OF_FRAMES-eng.markup">1184</property>
  <property name="meta.attr.10.stream.NUMBER_OF_BYTES-eng.markup">14484283</property>
  <property name="meta.attr.10.stream._STATISTICS_WRITING_APP-eng.markup">mkvmerge v40.0.0 ('Old Town Road + Pony') 64-bit</property>
  <property name="meta.attr.10.stream._STATISTICS_WRITING_DATE_UTC-eng.markup">2019-12-29 15:49:45</property>
  <property name="meta.attr.10.stream._STATISTICS_TAGS-eng.markup">BPS DURATION NUMBER_OF_FRAMES NUMBER_OF_BYTES</property>
  <property name="meta.media.11.codec.name">pgssub</property>
  <property name="meta.media.11.codec.long_name">HDMV Presentation Graphic Stream subtitles</property>
  <property name="meta.media.11.codec.bit_rate">0</property>
  <property name="meta.attr.11.stream.language.markup">dut</property>
  <property name="meta.attr.11.stream.title.markup">Dutch</property>
  <property name="meta.attr.11.stream.BPS-eng.markup">23897</property>
  <property name="meta.attr.11.stream.DURATION-eng.markup">01:33:59.675000000</property>
  <property name="meta.attr.11.stream.NUMBER_OF_FRAMES-eng.markup">1258</property>
  <property name="meta.attr.11.stream.NUMBER_OF_BYTES-eng.markup">16846710</property>
  <property name="meta.attr.11.stream._STATISTICS_WRITING_APP-eng.markup">mkvmerge v40.0.0 ('Old Town Road + Pony') 64-bit</property>
  <property name="meta.attr.11.stream._STATISTICS_WRITING_DATE_UTC-eng.markup">2019-12-29 15:49:45</property>
  <property name="meta.attr.11.stream._STATISTICS_TAGS-eng.markup">BPS DURATION NUMBER_OF_FRAMES NUMBER_OF_BYTES</property>
  <property name="meta.media.12.codec.name">pgssub</property>
  <property name="meta.media.12.codec.long_name">HDMV Presentation Graphic Stream subtitles</property>
  <property name="meta.media.12.codec.bit_rate">0</property>
  <property name="meta.attr.12.stream.language.markup">fin</property>
  <property name="meta.attr.12.stream.title.markup">Finnish</property>
  <property name="meta.attr.12.stream.BPS-eng.markup">20857</property>
  <property name="meta.attr.12.stream.DURATION-eng.markup">01:34:00.718000000</property>
  <property name="meta.attr.12.stream.NUMBER_OF_FRAMES-eng.markup">1209</property>
  <property name="meta.attr.12.stream.NUMBER_OF_BYTES-eng.markup">14706553</property>
  <property name="meta.attr.12.stream._STATISTICS_WRITING_APP-eng.markup">mkvmerge v40.0.0 ('Old Town Road + Pony') 64-bit</property>
  <property name="meta.attr.12.stream._STATISTICS_WRITING_DATE_UTC-eng.markup">2019-12-29 15:49:45</property>
  <property name="meta.attr.12.stream._STATISTICS_TAGS-eng.markup">BPS DURATION NUMBER_OF_FRAMES NUMBER_OF_BYTES</property>
  <property name="meta.media.13.codec.name">pgssub</property>
  <property name="meta.media.13.codec.long_name">HDMV Presentation Graphic Stream subtitles</property>
  <property name="meta.media.13.codec.bit_rate">0</property>
  <property name="meta.attr.13.stream.language.markup">fre</property>
  <property name="meta.attr.13.stream.title.markup">French</property>
  <property name="meta.attr.13.stream.BPS-eng.markup">21198</property>
  <property name="meta.attr.13.stream.DURATION-eng.markup">01:43:41.006000000</property>
  <property name="meta.attr.13.stream.NUMBER_OF_FRAMES-eng.markup">1642</property>
  <property name="meta.attr.13.stream.NUMBER_OF_BYTES-eng.markup">16484862</property>
  <property name="meta.attr.13.stream._STATISTICS_WRITING_APP-eng.markup">mkvmerge v40.0.0 ('Old Town Road + Pony') 64-bit</property>
  <property name="meta.attr.13.stream._STATISTICS_WRITING_DATE_UTC-eng.markup">2019-12-29 15:49:45</property>
  <property name="meta.attr.13.stream._STATISTICS_TAGS-eng.markup">BPS DURATION NUMBER_OF_FRAMES NUMBER_OF_BYTES</property>
  <property name="meta.media.14.codec.name">pgssub</property>
  <property name="meta.media.14.codec.long_name">HDMV Presentation Graphic Stream subtitles</property>
  <property name="meta.media.14.codec.bit_rate">0</property>
  <property name="meta.attr.14.stream.language.markup">ger</property>
  <property name="meta.attr.14.stream.title.markup">German</property>
  <property name="meta.attr.14.stream.BPS-eng.markup">24239</property>
  <property name="meta.attr.14.stream.DURATION-eng.markup">01:34:00.260000000</property>
  <property name="meta.attr.14.stream.NUMBER_OF_FRAMES-eng.markup">1493</property>
  <property name="meta.attr.14.stream.NUMBER_OF_BYTES-eng.markup">17089540</property>
  <property name="meta.attr.14.stream._STATISTICS_WRITING_APP-eng.markup">mkvmerge v40.0.0 ('Old Town Road + Pony') 64-bit</property>
  <property name="meta.attr.14.stream._STATISTICS_WRITING_DATE_UTC-eng.markup">2019-12-29 15:49:45</property>
  <property name="meta.attr.14.stream._STATISTICS_TAGS-eng.markup">BPS DURATION NUMBER_OF_FRAMES NUMBER_OF_BYTES</property>
  <property name="meta.media.15.codec.name">pgssub</property>
  <property name="meta.media.15.codec.long_name">HDMV Presentation Graphic Stream subtitles</property>
  <property name="meta.media.15.codec.bit_rate">0</property>
  <property name="meta.attr.15.stream.language.markup">gre</property>
  <property name="meta.attr.15.stream.title.markup">Greek</property>
  <property name="meta.attr.15.stream.BPS-eng.markup">24963</property>
  <property name="meta.attr.15.stream.DURATION-eng.markup">01:33:59.300000000</property>
  <property name="meta.attr.15.stream.NUMBER_OF_FRAMES-eng.markup">1694</property>
  <property name="meta.attr.15.stream.NUMBER_OF_BYTES-eng.markup">17597238</property>
  <property name="meta.attr.15.stream._STATISTICS_WRITING_APP-eng.markup">mkvmerge v40.0.0 ('Old Town Road + Pony') 64-bit</property>
  <property name="meta.attr.15.stream._STATISTICS_WRITING_DATE_UTC-eng.markup">2019-12-29 15:49:45</property>
  <property name="meta.attr.15.stream._STATISTICS_TAGS-eng.markup">BPS DURATION NUMBER_OF_FRAMES NUMBER_OF_BYTES</property>
  <property name="meta.media.16.codec.name">pgssub</property>
  <property name="meta.media.16.codec.long_name">HDMV Presentation Graphic Stream subtitles</property>
  <property name="meta.media.16.codec.bit_rate">0</property>
  <property name="meta.attr.16.stream.language.markup">heb</property>
  <property name="meta.attr.16.stream.title.markup">Hebrew</property>
  <property name="meta.attr.16.stream.BPS-eng.markup">18470</property>
  <property name="meta.attr.16.stream.DURATION-eng.markup">01:33:59.217000000</property>
  <property name="meta.attr.16.stream.NUMBER_OF_FRAMES-eng.markup">1688</property>
  <property name="meta.attr.16.stream.NUMBER_OF_BYTES-eng.markup">13019656</property>
  <property name="meta.attr.16.stream._STATISTICS_WRITING_APP-eng.markup">mkvmerge v40.0.0 ('Old Town Road + Pony') 64-bit</property>
  <property name="meta.attr.16.stream._STATISTICS_WRITING_DATE_UTC-eng.markup">2019-12-29 15:49:45</property>
  <property name="meta.attr.16.stream._STATISTICS_TAGS-eng.markup">BPS DURATION NUMBER_OF_FRAMES NUMBER_OF_BYTES</property>
  <property name="meta.media.17.codec.name">pgssub</property>
  <property name="meta.media.17.codec.long_name">HDMV Presentation Graphic Stream subtitles</property>
  <property name="meta.media.17.codec.bit_rate">0</property>
  <property name="meta.attr.17.stream.language.markup">hin</property>
  <property name="meta.attr.17.stream.title.markup">Hindi</property>
  <property name="meta.attr.17.stream.BPS-eng.markup">21017</property>
  <property name="meta.attr.17.stream.DURATION-eng.markup">01:33:59.300000000</property>
  <property name="meta.attr.17.stream.NUMBER_OF_FRAMES-eng.markup">1690</property>
  <property name="meta.attr.17.stream.NUMBER_OF_BYTES-eng.markup">14815519</property>
  <property name="meta.attr.17.stream._STATISTICS_WRITING_APP-eng.markup">mkvmerge v40.0.0 ('Old Town Road + Pony') 64-bit</property>
  <property name="meta.attr.17.stream._STATISTICS_WRITING_DATE_UTC-eng.markup">2019-12-29 15:49:45</property>
  <property name="meta.attr.17.stream._STATISTICS_TAGS-eng.markup">BPS DURATION NUMBER_OF_FRAMES NUMBER_OF_BYTES</property>
  <property name="meta.media.18.codec.name">pgssub</property>
  <property name="meta.media.18.codec.long_name">HDMV Presentation Graphic Stream subtitles</property>
  <property name="meta.media.18.codec.bit_rate">0</property>
  <property name="meta.attr.18.stream.language.markup">hun</property>
  <property name="meta.attr.18.stream.title.markup">Hungarian</property>
  <property name="meta.attr.18.stream.BPS-eng.markup">19042</property>
  <property name="meta.attr.18.stream.DURATION-eng.markup">01:33:59.175000000</property>
  <property name="meta.attr.18.stream.NUMBER_OF_FRAMES-eng.markup">1690</property>
  <property name="meta.attr.18.stream.NUMBER_OF_BYTES-eng.markup">13423018</property>
  <property name="meta.attr.18.stream._STATISTICS_WRITING_APP-eng.markup">mkvmerge v40.0.0 ('Old Town Road + Pony') 64-bit</property>
  <property name="meta.attr.18.stream._STATISTICS_WRITING_DATE_UTC-eng.markup">2019-12-29 15:49:45</property>
  <property name="meta.attr.18.stream._STATISTICS_TAGS-eng.markup">BPS DURATION NUMBER_OF_FRAMES NUMBER_OF_BYTES</property>
  <property name="meta.media.19.codec.name">pgssub</property>
  <property name="meta.media.19.codec.long_name">HDMV Presentation Graphic Stream subtitles</property>
  <property name="meta.media.19.codec.bit_rate">0</property>
  <property name="meta.attr.19.stream.language.markup">ice</property>
  <property name="meta.attr.19.stream.title.markup">Icelandic</property>
  <property name="meta.attr.19.stream.BPS-eng.markup">23876</property>
  <property name="meta.attr.19.stream.DURATION-eng.markup">01:33:59.217000000</property>
  <property name="meta.attr.19.stream.NUMBER_OF_FRAMES-eng.markup">1688</property>
  <property name="meta.attr.19.stream.NUMBER_OF_BYTES-eng.markup">16830422</property>
  <property name="meta.attr.19.stream._STATISTICS_WRITING_APP-eng.markup">mkvmerge v40.0.0 ('Old Town Road + Pony') 64-bit</property>
  <property name="meta.attr.19.stream._STATISTICS_WRITING_DATE_UTC-eng.markup">2019-12-29 15:49:45</property>
  <property name="meta.attr.19.stream._STATISTICS_TAGS-eng.markup">BPS DURATION NUMBER_OF_FRAMES NUMBER_OF_BYTES</property>
  <property name="meta.media.20.codec.name">pgssub</property>
  <property name="meta.media.20.codec.long_name">HDMV Presentation Graphic Stream subtitles</property>
  <property name="meta.media.20.codec.bit_rate">0</property>
  <property name="meta.attr.20.stream.language.markup">ind</property>
  <property name="meta.attr.20.stream.title.markup">Indonesian</property>
  <property name="meta.attr.20.stream.BPS-eng.markup">26444</property>
  <property name="meta.attr.20.stream.DURATION-eng.markup">01:33:59.300000000</property>
  <property name="meta.attr.20.stream.NUMBER_OF_FRAMES-eng.markup">1662</property>
  <property name="meta.attr.20.stream.NUMBER_OF_BYTES-eng.markup">18640975</property>
  <property name="meta.attr.20.stream._STATISTICS_WRITING_APP-eng.markup">mkvmerge v40.0.0 ('Old Town Road + Pony') 64-bit</property>
  <property name="meta.attr.20.stream._STATISTICS_WRITING_DATE_UTC-eng.markup">2019-12-29 15:49:45</property>
  <property name="meta.attr.20.stream._STATISTICS_TAGS-eng.markup">BPS DURATION NUMBER_OF_FRAMES NUMBER_OF_BYTES</property>
  <property name="meta.media.21.codec.name">pgssub</property>
  <property name="meta.media.21.codec.long_name">HDMV Presentation Graphic Stream subtitles</property>
  <property name="meta.media.21.codec.bit_rate">0</property>
  <property name="meta.attr.21.stream.language.markup">ita</property>
  <property name="meta.attr.21.stream.title.markup">Italian</property>
  <property name="meta.attr.21.stream.BPS-eng.markup">23573</property>
  <property name="meta.attr.21.stream.DURATION-eng.markup">01:42:58.922000000</property>
  <property name="meta.attr.21.stream.NUMBER_OF_FRAMES-eng.markup">1698</property>
  <property name="meta.attr.21.stream.NUMBER_OF_BYTES-eng.markup">18207609</property>
  <property name="meta.attr.21.stream._STATISTICS_WRITING_APP-eng.markup">mkvmerge v40.0.0 ('Old Town Road + Pony') 64-bit</property>
  <property name="meta.attr.21.stream._STATISTICS_WRITING_DATE_UTC-eng.markup">2019-12-29 15:49:45</property>
  <property name="meta.attr.21.stream._STATISTICS_TAGS-eng.markup">BPS DURATION NUMBER_OF_FRAMES NUMBER_OF_BYTES</property>
  <property name="meta.media.22.codec.name">pgssub</property>
  <property name="meta.media.22.codec.long_name">HDMV Presentation Graphic Stream subtitles</property>
  <property name="meta.media.22.codec.bit_rate">0</property>
  <property name="meta.attr.22.stream.language.markup">kor</property>
  <property name="meta.attr.22.stream.title.markup">Korean</property>
  <property name="meta.attr.22.stream.BPS-eng.markup">19788</property>
  <property name="meta.attr.22.stream.DURATION-eng.markup">01:35:32.477000000</property>
  <property name="meta.attr.22.stream.NUMBER_OF_FRAMES-eng.markup">1708</property>
  <property name="meta.attr.22.stream.NUMBER_OF_BYTES-eng.markup">14179403</property>
  <property name="meta.attr.22.stream._STATISTICS_WRITING_APP-eng.markup">mkvmerge v40.0.0 ('Old Town Road + Pony') 64-bit</property>
  <property name="meta.attr.22.stream._STATISTICS_WRITING_DATE_UTC-eng.markup">2019-12-29 15:49:45</property>
  <property name="meta.attr.22.stream._STATISTICS_TAGS-eng.markup">BPS DURATION NUMBER_OF_FRAMES NUMBER_OF_BYTES</property>
  <property name="meta.media.23.codec.name">pgssub</property>
  <property name="meta.media.23.codec.long_name">HDMV Presentation Graphic Stream subtitles</property>
  <property name="meta.media.23.codec.bit_rate">0</property>
  <property name="meta.attr.23.stream.language.markup">nor</property>
  <property name="meta.attr.23.stream.title.markup">Norwegian</property>
  <property name="meta.attr.23.stream.BPS-eng.markup">20066</property>
  <property name="meta.attr.23.stream.DURATION-eng.markup">01:33:59.675000000</property>
  <property name="meta.attr.23.stream.NUMBER_OF_FRAMES-eng.markup">1184</property>
  <property name="meta.attr.23.stream.NUMBER_OF_BYTES-eng.markup">14146014</property>
  <property name="meta.attr.23.stream._STATISTICS_WRITING_APP-eng.markup">mkvmerge v40.0.0 ('Old Town Road + Pony') 64-bit</property>
  <property name="meta.attr.23.stream._STATISTICS_WRITING_DATE_UTC-eng.markup">2019-12-29 15:49:45</property>
  <property name="meta.attr.23.stream._STATISTICS_TAGS-eng.markup">BPS DURATION NUMBER_OF_FRAMES NUMBER_OF_BYTES</property>
  <property name="meta.media.24.codec.name">pgssub</property>
  <property name="meta.media.24.codec.long_name">HDMV Presentation Graphic Stream subtitles</property>
  <property name="meta.media.24.codec.bit_rate">0</property>
  <property name="meta.attr.24.stream.language.markup">pol</property>
  <property name="meta.attr.24.stream.title.markup">Polish</property>
  <property name="meta.attr.24.stream.BPS-eng.markup">18199</property>
  <property name="meta.attr.24.stream.DURATION-eng.markup">01:33:59.300000000</property>
  <property name="meta.attr.24.stream.NUMBER_OF_FRAMES-eng.markup">1688</property>
  <property name="meta.attr.24.stream.NUMBER_OF_BYTES-eng.markup">12829046</property>
  <property name="meta.attr.24.stream._STATISTICS_WRITING_APP-eng.markup">mkvmerge v40.0.0 ('Old Town Road + Pony') 64-bit</property>
  <property name="meta.attr.24.stream._STATISTICS_WRITING_DATE_UTC-eng.markup">2019-12-29 15:49:45</property>
  <property name="meta.attr.24.stream._STATISTICS_TAGS-eng.markup">BPS DURATION NUMBER_OF_FRAMES NUMBER_OF_BYTES</property>
  <property name="meta.media.25.codec.name">pgssub</property>
  <property name="meta.media.25.codec.long_name">HDMV Presentation Graphic Stream subtitles</property>
  <property name="meta.media.25.codec.bit_rate">0</property>
  <property name="meta.attr.25.stream.language.markup">por</property>
  <property name="meta.attr.25.stream.title.markup">Brazilian Portuguese</property>
  <property name="meta.attr.25.stream.BPS-eng.markup">29654</property>
  <property name="meta.attr.25.stream.DURATION-eng.markup">01:33:59.300000000</property>
  <property name="meta.attr.25.stream.NUMBER_OF_FRAMES-eng.markup">1836</property>
  <property name="meta.attr.25.stream.NUMBER_OF_BYTES-eng.markup">20903964</property>
  <property name="meta.attr.25.stream._STATISTICS_WRITING_APP-eng.markup">mkvmerge v40.0.0 ('Old Town Road + Pony') 64-bit</property>
  <property name="meta.attr.25.stream._STATISTICS_WRITING_DATE_UTC-eng.markup">2019-12-29 15:49:45</property>
  <property name="meta.attr.25.stream._STATISTICS_TAGS-eng.markup">BPS DURATION NUMBER_OF_FRAMES NUMBER_OF_BYTES</property>
  <property name="meta.media.26.codec.name">pgssub</property>
  <property name="meta.media.26.codec.long_name">HDMV Presentation Graphic Stream subtitles</property>
  <property name="meta.media.26.codec.bit_rate">0</property>
  <property name="meta.attr.26.stream.language.markup">por</property>
  <property name="meta.attr.26.stream.title.markup">Iberian Portuguese</property>
  <property name="meta.attr.26.stream.BPS-eng.markup">27145</property>
  <property name="meta.attr.26.stream.DURATION-eng.markup">01:33:59.300000000</property>
  <property name="meta.attr.26.stream.NUMBER_OF_FRAMES-eng.markup">1720</property>
  <property name="meta.attr.26.stream.NUMBER_OF_BYTES-eng.markup">19134971</property>
  <property name="meta.attr.26.stream._STATISTICS_WRITING_APP-eng.markup">mkvmerge v40.0.0 ('Old Town Road + Pony') 64-bit</property>
  <property name="meta.attr.26.stream._STATISTICS_WRITING_DATE_UTC-eng.markup">2019-12-29 15:49:45</property>
  <property name="meta.attr.26.stream._STATISTICS_TAGS-eng.markup">BPS DURATION NUMBER_OF_FRAMES NUMBER_OF_BYTES</property>
  <property name="meta.media.27.codec.name">pgssub</property>
  <property name="meta.media.27.codec.long_name">HDMV Presentation Graphic Stream subtitles</property>
  <property name="meta.media.27.codec.bit_rate">0</property>
  <property name="meta.attr.27.stream.language.markup">rum</property>
  <property name="meta.attr.27.stream.title.markup">Romanian</property>
  <property name="meta.attr.27.stream.BPS-eng.markup">25197</property>
  <property name="meta.attr.27.stream.DURATION-eng.markup">01:35:32.519000000</property>
  <property name="meta.attr.27.stream.NUMBER_OF_FRAMES-eng.markup">1706</property>
  <property name="meta.attr.27.stream.NUMBER_OF_BYTES-eng.markup">18055771</property>
  <property name="meta.attr.27.stream._STATISTICS_WRITING_APP-eng.markup">mkvmerge v40.0.0 ('Old Town Road + Pony') 64-bit</property>
  <property name="meta.attr.27.stream._STATISTICS_WRITING_DATE_UTC-eng.markup">2019-12-29 15:49:45</property>
  <property name="meta.attr.27.stream._STATISTICS_TAGS-eng.markup">BPS DURATION NUMBER_OF_FRAMES NUMBER_OF_BYTES</property>
  <property name="meta.media.28.codec.name">pgssub</property>
  <property name="meta.media.28.codec.long_name">HDMV Presentation Graphic Stream subtitles</property>
  <property name="meta.media.28.codec.bit_rate">0</property>
  <property name="meta.attr.28.stream.language.markup">slv</property>
  <property name="meta.attr.28.stream.title.markup">Slovenian</property>
  <property name="meta.attr.28.stream.BPS-eng.markup">22934</property>
  <property name="meta.attr.28.stream.DURATION-eng.markup">01:33:59.300000000</property>
  <property name="meta.attr.28.stream.NUMBER_OF_FRAMES-eng.markup">1706</property>
  <property name="meta.attr.28.stream.NUMBER_OF_BYTES-eng.markup">16167012</property>
  <property name="meta.attr.28.stream._STATISTICS_WRITING_APP-eng.markup">mkvmerge v40.0.0 ('Old Town Road + Pony') 64-bit</property>
  <property name="meta.attr.28.stream._STATISTICS_WRITING_DATE_UTC-eng.markup">2019-12-29 15:49:45</property>
  <property name="meta.attr.28.stream._STATISTICS_TAGS-eng.markup">BPS DURATION NUMBER_OF_FRAMES NUMBER_OF_BYTES</property>
  <property name="meta.media.29.codec.name">pgssub</property>
  <property name="meta.media.29.codec.long_name">HDMV Presentation Graphic Stream subtitles</property>
  <property name="meta.media.29.codec.bit_rate">0</property>
  <property name="meta.attr.29.stream.language.markup">spa</property>
  <property name="meta.attr.29.stream.title.markup">Spanish (Latin America)</property>
  <property name="meta.attr.29.stream.BPS-eng.markup">25790</property>
  <property name="meta.attr.29.stream.DURATION-eng.markup">01:35:32.519000000</property>
  <property name="meta.attr.29.stream.NUMBER_OF_FRAMES-eng.markup">1699</property>
  <property name="meta.attr.29.stream.NUMBER_OF_BYTES-eng.markup">18480666</property>
  <property name="meta.attr.29.stream._STATISTICS_WRITING_APP-eng.markup">mkvmerge v40.0.0 ('Old Town Road + Pony') 64-bit</property>
  <property name="meta.attr.29.stream._STATISTICS_WRITING_DATE_UTC-eng.markup">2019-12-29 15:49:45</property>
  <property name="meta.attr.29.stream._STATISTICS_TAGS-eng.markup">BPS DURATION NUMBER_OF_FRAMES NUMBER_OF_BYTES</property>
  <property name="meta.media.30.codec.name">pgssub</property>
  <property name="meta.media.30.codec.long_name">HDMV Presentation Graphic Stream subtitles</property>
  <property name="meta.media.30.codec.bit_rate">0</property>
  <property name="meta.attr.30.stream.language.markup">spa</property>
  <property name="meta.attr.30.stream.title.markup">Spanish (Spain)</property>
  <property name="meta.attr.30.stream.BPS-eng.markup">20473</property>
  <property name="meta.attr.30.stream.DURATION-eng.markup">01:33:59.300000000</property>
  <property name="meta.attr.30.stream.NUMBER_OF_FRAMES-eng.markup">1702</property>
  <property name="meta.attr.30.stream.NUMBER_OF_BYTES-eng.markup">14432022</property>
  <property name="meta.attr.30.stream._STATISTICS_WRITING_APP-eng.markup">mkvmerge v40.0.0 ('Old Town Road + Pony') 64-bit</property>
  <property name="meta.attr.30.stream._STATISTICS_WRITING_DATE_UTC-eng.markup">2019-12-29 15:49:45</property>
  <property name="meta.attr.30.stream._STATISTICS_TAGS-eng.markup">BPS DURATION NUMBER_OF_FRAMES NUMBER_OF_BYTES</property>
  <property name="meta.media.31.codec.name">pgssub</property>
  <property name="meta.media.31.codec.long_name">HDMV Presentation Graphic Stream subtitles</property>
  <property name="meta.media.31.codec.bit_rate">0</property>
  <property name="meta.attr.31.stream.language.markup">swe</property>
  <property name="meta.attr.31.stream.title.markup">Swedish</property>
  <property name="meta.attr.31.stream.BPS-eng.markup">19711</property>
  <property name="meta.attr.31.stream.DURATION-eng.markup">01:33:59.675000000</property>
  <property name="meta.attr.31.stream.NUMBER_OF_FRAMES-eng.markup">1184</property>
  <property name="meta.attr.31.stream.NUMBER_OF_BYTES-eng.markup">13895741</property>
  <property name="meta.attr.31.stream._STATISTICS_WRITING_APP-eng.markup">mkvmerge v40.0.0 ('Old Town Road + Pony') 64-bit</property>
  <property name="meta.attr.31.stream._STATISTICS_WRITING_DATE_UTC-eng.markup">2019-12-29 15:49:45</property>
  <property name="meta.attr.31.stream._STATISTICS_TAGS-eng.markup">BPS DURATION NUMBER_OF_FRAMES NUMBER_OF_BYTES</property>
  <property name="meta.media.32.codec.name">pgssub</property>
  <property name="meta.media.32.codec.long_name">HDMV Presentation Graphic Stream subtitles</property>
  <property name="meta.media.32.codec.bit_rate">0</property>
  <property name="meta.attr.32.stream.language.markup">tha</property>
  <property name="meta.attr.32.stream.title.markup">Thai</property>
  <property name="meta.attr.32.stream.BPS-eng.markup">20455</property>
  <property name="meta.attr.32.stream.DURATION-eng.markup">01:44:32.308000000</property>
  <property name="meta.attr.32.stream.NUMBER_OF_FRAMES-eng.markup">1708</property>
  <property name="meta.attr.32.stream.NUMBER_OF_BYTES-eng.markup">16038127</property>
  <property name="meta.attr.32.stream._STATISTICS_WRITING_APP-eng.markup">mkvmerge v40.0.0 ('Old Town Road + Pony') 64-bit</property>
  <property name="meta.attr.32.stream._STATISTICS_WRITING_DATE_UTC-eng.markup">2019-12-29 15:49:45</property>
  <property name="meta.attr.32.stream._STATISTICS_TAGS-eng.markup">BPS DURATION NUMBER_OF_FRAMES NUMBER_OF_BYTES</property>
  <property name="meta.media.33.codec.name">pgssub</property>
  <property name="meta.media.33.codec.long_name">HDMV Presentation Graphic Stream subtitles</property>
  <property name="meta.media.33.codec.bit_rate">0</property>
  <property name="meta.attr.33.stream.language.markup">tur</property>
  <property name="meta.attr.33.stream.title.markup">Turkish</property>
  <property name="meta.attr.33.stream.BPS-eng.markup">22418</property>
  <property name="meta.attr.33.stream.DURATION-eng.markup">01:33:59.217000000</property>
  <property name="meta.attr.33.stream.NUMBER_OF_FRAMES-eng.markup">1674</property>
  <property name="meta.attr.33.stream.NUMBER_OF_BYTES-eng.markup">15802734</property>
  <property name="meta.attr.33.stream._STATISTICS_WRITING_APP-eng.markup">mkvmerge v40.0.0 ('Old Town Road + Pony') 64-bit</property>
  <property name="meta.attr.33.stream._STATISTICS_WRITING_DATE_UTC-eng.markup">2019-12-29 15:49:45</property>
  <property name="meta.attr.33.stream._STATISTICS_TAGS-eng.markup">BPS DURATION NUMBER_OF_FRAMES NUMBER_OF_BYTES</property>
  <property name="meta.media.34.codec.name">srt</property>
  <property name="meta.media.34.codec.long_name">SubRip subtitle</property>
  <property name="meta.media.34.codec.bit_rate">0</property>
  <property name="meta.attr.34.stream.language.markup">eng</property>
  <property name="meta.attr.34.stream.BPS-eng.markup">48</property>
  <property name="meta.attr.34.stream.DURATION-eng.markup">01:33:45.538000000</property>
  <property name="meta.attr.34.stream.NUMBER_OF_FRAMES-eng.markup">842</property>
  <property name="meta.attr.34.stream.NUMBER_OF_BYTES-eng.markup">34158</property>
  <property name="meta.attr.34.stream._STATISTICS_WRITING_APP-eng.markup">mkvmerge v40.0.0 ('Old Town Road + Pony') 64-bit</property>
  <property name="meta.attr.34.stream._STATISTICS_WRITING_DATE_UTC-eng.markup">2019-12-29 15:49:45</property>
  <property name="meta.attr.34.stream._STATISTICS_TAGS-eng.markup">BPS DURATION NUMBER_OF_FRAMES NUMBER_OF_BYTES</property>
  <property name="meta.media.35.codec.name">srt</property>
  <property name="meta.media.35.codec.long_name">SubRip subtitle</property>
  <property name="meta.media.35.codec.bit_rate">0</property>
  <property name="meta.attr.35.stream.language.markup">eng</property>
  <property name="meta.attr.35.stream.title.markup">SDH</property>
  <property name="meta.attr.35.stream.BPS-eng.markup">43</property>
  <property name="meta.attr.35.stream.DURATION-eng.markup">01:31:41.370000000</property>
  <property name="meta.attr.35.stream.NUMBER_OF_FRAMES-eng.markup">833</property>
  <property name="meta.attr.35.stream.NUMBER_OF_BYTES-eng.markup">29767</property>
  <property name="meta.attr.35.stream._STATISTICS_WRITING_APP-eng.markup">mkvmerge v40.0.0 ('Old Town Road + Pony') 64-bit</property>
  <property name="meta.attr.35.stream._STATISTICS_WRITING_DATE_UTC-eng.markup">2019-12-29 15:49:45</property>
  <property name="meta.attr.35.stream._STATISTICS_TAGS-eng.markup">BPS DURATION NUMBER_OF_FRAMES NUMBER_OF_BYTES</property>
  <property name="meta.media.36.codec.name">srt</property>
  <property name="meta.media.36.codec.long_name">SubRip subtitle</property>
  <property name="meta.media.36.codec.bit_rate">0</property>
  <property name="meta.attr.36.stream.language.markup">swe</property>
  <property name="meta.attr.36.stream.BPS-eng.markup">47</property>
  <property name="meta.attr.36.stream.DURATION-eng.markup">01:33:48.363000000</property>
  <property name="meta.attr.36.stream.NUMBER_OF_FRAMES-eng.markup">683</property>
  <property name="meta.attr.36.stream.NUMBER_OF_BYTES-eng.markup">33075</property>
  <property name="meta.attr.36.stream._STATISTICS_WRITING_APP-eng.markup">mkvmerge v40.0.0 ('Old Town Road + Pony') 64-bit</property>
  <property name="meta.attr.36.stream._STATISTICS_WRITING_DATE_UTC-eng.markup">2019-12-29 15:49:45</property>
  <property name="meta.attr.36.stream._STATISTICS_TAGS-eng.markup">BPS DURATION NUMBER_OF_FRAMES NUMBER_OF_BYTES</property>
  <property name="meta.attr.creation_time.markup">2019-12-29T15:49:45.000000Z</property>
  <property name="meta.attr.ENCODER.markup">Lavf58.29.100</property>
  <property name="meta.media.sample_aspect_num">1</property>
  <property name="meta.media.sample_aspect_den">1</property>
  <property name="meta.media.frame_rate_num">24000</property>
  <property name="meta.media.frame_rate_den">1001</property>
  <property name="meta.media.colorspace">709</property>
  <property name="meta.media.color_trc">1</property>
  <property name="meta.media.has_b_frames">2</property>
  <property name="meta.media.width">1916</property>
  <property name="meta.media.height">1036</property>
  <property name="meta.media.aspect_ratio">1</property>
  <property name="meta.media.color_range">mpeg</property>
  <property name="xml">was here</property>
  <property name="meta.media.top_field_first">0</property>
  <property name="meta.media.progressive">1</property>
  <property name="set.test_audio">0</property>
  <property name="set.test_image">1</property>
 </chain>
 <playlist id="playlist11">
  <property name="kdenlive:audio_track">1</property>
  <blank length="00:00:28.195"/>
  <entry in="00:00:54.263" out="00:03:09.218" producer="chain11">
   <property name="kdenlive:id">4</property>
  </entry>
  <entry in="00:03:09.259" out="00:08:41.708" producer="chain11">
   <property name="kdenlive:id">4</property>
  </entry>
  <blank length="00:00:21.188"/>
  <entry in="00:09:27.194" out="00:09:37.371" producer="chain11">
   <property name="kdenlive:id">4</property>
  </entry>
  <blank length="00:00:02.211"/>
  <entry in="00:09:51.635" out="00:10:00.292" producer="chain11">
   <property name="kdenlive:id">4</property>
  </entry>
  <blank length="00:00:01.251"/>
  <entry in="00:10:08.091" out="00:11:23.357" producer="chain11">
   <property name="kdenlive:id">4</property>
  </entry>
  <blank length="00:01:18.310"/>
  <entry in="00:13:57.599" out="00:14:11.845" producer="chain11">
   <property name="kdenlive:id">4</property>
  </entry>
  <blank length="00:01:27.569"/>
  <entry in="00:15:50.008" out="00:15:53.929" producer="chain11">
   <property name="kdenlive:id">4</property>
  </entry>
  <blank length="00:01:14.640"/>
  <entry in="00:17:27.903" out="00:17:32.199" producer="chain11">
   <property name="kdenlive:id">4</property>
  </entry>
  <blank length="00:00:26.818"/>
  <entry in="00:20:10.552" out="00:21:04.796" producer="chain11">
   <property name="kdenlive:id">4</property>
  </entry>
  <blank length="00:02:11.470"/>
  <entry in="00:23:49.508" out="00:25:19.937" producer="chain11">
   <property name="kdenlive:id">4</property>
  </entry>
  <blank length="00:01:04.213"/>
  <entry in="00:26:42.000" out="00:26:53.720" producer="chain11">
   <property name="kdenlive:id">4</property>
  </entry>
  <blank length="00:00:04.546"/>
  <entry in="00:27:15.933" out="00:27:19.853" producer="chain11">
   <property name="kdenlive:id">4</property>
  </entry>
  <blank length="00:00:52.761"/>
  <entry in="00:31:44.419" out="00:32:06.673" producer="chain11">
   <property name="kdenlive:id">4</property>
  </entry>
  <blank length="00:10:08.342"/>
  <entry in="00:42:27.402" out="00:45:33.200" producer="chain11">
   <property name="kdenlive:id">4</property>
   <filter id="filter40" in="00:42:27.402" out="00:42:30.405">
    <property name="window">75</property>
    <property name="max_gain">20dB</property>
    <property name="mlt_service">volume</property>
    <property name="kdenlive_id">fadein</property>
    <property name="gain">0</property>
    <property name="end">1</property>
    <property name="kdenlive:collapsed">0</property>
   </filter>
  </entry>
  <blank length="00:00:29.655"/>
  <entry in="00:46:15.349" out="00:49:23.690" producer="chain11">
   <property name="kdenlive:id">4</property>
  </entry>
  <blank length="00:00:09.343"/>
  <entry in="00:49:55.555" out="00:51:04.379" producer="chain11">
   <property name="kdenlive:id">4</property>
  </entry>
  <blank length="00:00:07.758"/>
  <entry in="00:51:35.369" out="00:51:36.119" producer="chain11">
   <property name="kdenlive:id">4</property>
  </entry>
  <blank length="00:00:38.747"/>
  <entry in="00:52:19.353" out="00:54:35.410" producer="chain11">
   <property name="kdenlive:id">4</property>
  </entry>
  <blank length="00:00:01.335"/>
  <entry in="00:54:52.844" out="00:54:56.682" producer="chain11">
   <property name="kdenlive:id">4</property>
  </entry>
  <blank length="00:03:38.205"/>
  <entry in="00:59:05.505" out="00:59:07.299" producer="chain11">
   <property name="kdenlive:id">4</property>
  </entry>
  <entry in="00:59:07.341" out="00:59:27.152" producer="chain11">
   <property name="kdenlive:id">4</property>
  </entry>
  <blank length="00:01:49.091"/>
  <entry in="01:01:43.043" out="01:03:21.563" producer="chain11">
   <property name="kdenlive:id">4</property>
  </entry>
  <blank length="00:00:28.612"/>
  <entry in="01:04:16.308" out="01:05:11.470" producer="chain11">
   <property name="kdenlive:id">4</property>
  </entry>
  <entry in="01:05:11.511" out="01:05:12.888" producer="chain11">
   <property name="kdenlive:id">4</property>
  </entry>
  <entry in="01:05:12.930" out="01:05:14.139" producer="chain11">
   <property name="kdenlive:id">4</property>
  </entry>
  <entry in="01:05:14.181" out="01:05:16.433" producer="chain11">
   <property name="kdenlive:id">4</property>
  </entry>
  <blank length="00:01:02.502"/>
  <entry in="01:06:33.575" out="01:08:26.193" producer="chain11">
   <property name="kdenlive:id">4</property>
  </entry>
  <blank length="00:02:06.757"/>
  <entry in="01:12:08.050" out="01:12:19.770" producer="chain11">
   <property name="kdenlive:id">4</property>
   <filter id="filter41" in="01:12:08.050" out="01:12:15.098">
    <property name="window">75</property>
    <property name="max_gain">20dB</property>
    <property name="mlt_service">volume</property>
    <property name="kdenlive_id">fadein</property>
    <property name="gain">0</property>
    <property name="end">1</property>
    <property name="kdenlive:collapsed">0</property>
   </filter>
  </entry>
  <blank length="00:02:24.233"/>
  <entry in="01:15:01.793" out="01:15:06.715" producer="chain11">
   <property name="kdenlive:id">4</property>
  </entry>
  <blank length="00:09:06.340"/>
  <entry in="01:24:20.562" out="01:28:40.916" producer="chain11">
   <property name="kdenlive:id">4</property>
  </entry>
  <blank length="00:00:08.175"/>
  <entry in="01:29:10.802" out="01:29:19.019" producer="chain11">
   <property name="kdenlive:id">4</property>
  </entry>
  <blank length="00:00:48.257"/>
  <entry in="01:30:34.826" out="01:32:48.674" producer="chain11">
   <property name="kdenlive:id">4</property>
  </entry>
  <blank length="00:00:19.853"/>
  <entry in="01:33:13.555" out="01:33:37.454" producer="chain11">
   <property name="kdenlive:id">4</property>
  </entry>
  <blank length="00:00:21.563"/>
  <entry in="01:34:10.177" out="01:34:19.102" producer="chain11">
   <property name="kdenlive:id">4</property>
  </entry>
  <blank length="00:02:53.887"/>
  <entry in="01:37:19.728" out="01:42:14.014" producer="chain11">
   <property name="kdenlive:id">4</property>
  </entry>
 </playlist>
 <tractor id="tractor5" in="00:00:00.000" out="01:26:06.048">
  <property name="kdenlive:audio_track">1</property>
  <property name="kdenlive:trackheight">84</property>
  <property name="kdenlive:timeline_active">1</property>
  <property name="kdenlive:collapsed">0</property>
  <property name="kdenlive:track_name">English Audio</property>
  <property name="kdenlive:thumbs_format"/>
  <property name="kdenlive:audio_rec"/>
  <track hide="video" producer="playlist10"/>
  <track hide="video" producer="playlist11"/>
  <transition id="transition59" in="00:15:58.475" out="00:15:58.642">
   <property name="a_track">0</property>
   <property name="b_track">1</property>
   <property name="mlt_service">mix</property>
   <property name="kdenlive_id">mix</property>
   <property name="kdenlive:mixcut">2</property>
   <property name="start">-1</property>
   <property name="accepts_blanks">1</property>
   <property name="reverse">1</property>
  </transition>
  <transition id="transition50" in="00:00:28.195" out="00:00:29.196">
   <property name="a_track">0</property>
   <property name="b_track">1</property>
   <property name="mlt_service">mix</property>
   <property name="kdenlive_id">mix</property>
   <property name="kdenlive:mixcut">12</property>
   <property name="reverse">0</property>
  </transition>
  <transition id="transition51" in="00:11:32.824" out="00:11:33.242">
   <property name="a_track">0</property>
   <property name="b_track">1</property>
   <property name="mlt_service">mix</property>
   <property name="kdenlive_id">mix</property>
   <property name="kdenlive:mixcut">5</property>
   <property name="reverse">0</property>
  </transition>
  <transition id="transition52" in="00:08:59.226" out="00:08:59.643">
   <property name="a_track">0</property>
   <property name="b_track">1</property>
   <property name="mlt_service">mix</property>
   <property name="kdenlive_id">mix</property>
   <property name="kdenlive:mixcut">5</property>
   <property name="reverse">0</property>
  </transition>
  <transition id="transition53" in="00:08:56.974" out="00:08:57.975">
   <property name="a_track">0</property>
   <property name="b_track">1</property>
   <property name="mlt_service">mix</property>
   <property name="kdenlive_id">mix</property>
   <property name="kdenlive:mixcut">16</property>
   <property name="reverse">1</property>
  </transition>
  <transition id="transition54" in="00:08:49.299" out="00:08:50.300">
   <property name="a_track">0</property>
   <property name="b_track">1</property>
   <property name="mlt_service">mix</property>
   <property name="kdenlive_id">mix</property>
   <property name="kdenlive:mixcut">12</property>
   <property name="reverse">0</property>
  </transition>
  <transition id="transition55" in="00:08:36.870" out="00:08:37.329">
   <property name="a_track">0</property>
   <property name="b_track">1</property>
   <property name="mlt_service">mix</property>
   <property name="kdenlive_id">mix</property>
   <property name="kdenlive:mixcut">2</property>
   <property name="reverse">0</property>
  </transition>
  <transition id="transition56" in="00:08:14.681" out="00:08:15.682">
   <property name="a_track">0</property>
   <property name="b_track">1</property>
   <property name="mlt_service">mix</property>
   <property name="kdenlive_id">mix</property>
   <property name="kdenlive:mixcut">20</property>
   <property name="start">-1</property>
   <property name="accepts_blanks">1</property>
   <property name="reverse">1</property>
  </transition>
  <transition id="transition57" in="00:10:14.139" out="00:10:14.556">
   <property name="a_track">0</property>
   <property name="b_track">1</property>
   <property name="mlt_service">mix</property>
   <property name="kdenlive_id">mix</property>
   <property name="kdenlive:mixcut">5</property>
   <property name="start">-1</property>
   <property name="accepts_blanks">1</property>
   <property name="reverse">1</property>
  </transition>
  <transition id="transition58" in="00:11:46.088" out="00:11:47.089">
   <property name="a_track">0</property>
   <property name="b_track">1</property>
   <property name="mlt_service">mix</property>
   <property name="kdenlive_id">mix</property>
   <property name="kdenlive:mixcut">5</property>
   <property name="start">-1</property>
   <property name="accepts_blanks">1</property>
   <property name="reverse">1</property>
  </transition>
  <transition id="transition60" in="00:13:14.640" out="00:13:15.057">
   <property name="a_track">0</property>
   <property name="b_track">1</property>
   <property name="mlt_service">mix</property>
   <property name="kdenlive_id">mix</property>
   <property name="kdenlive:mixcut">2</property>
   <property name="start">-1</property>
   <property name="accepts_blanks">1</property>
   <property name="reverse">0</property>
  </transition>
  <transition id="transition61" in="00:13:17.601" out="00:13:18.602">
   <property name="a_track">0</property>
   <property name="b_track">1</property>
   <property name="mlt_service">mix</property>
   <property name="kdenlive_id">mix</property>
   <property name="kdenlive:mixcut">12</property>
   <property name="start">-1</property>
   <property name="accepts_blanks">1</property>
   <property name="reverse">1</property>
  </transition>
  <transition id="transition62" in="00:14:33.242" out="00:14:35.244">
   <property name="a_track">0</property>
   <property name="b_track">1</property>
   <property name="mlt_service">mix</property>
   <property name="kdenlive_id">mix</property>
   <property name="kdenlive:mixcut">24</property>
   <property name="start">-1</property>
   <property name="accepts_blanks">1</property>
   <property name="reverse">0</property>
  </transition>
  <transition id="transition63" in="00:15:04.379" out="00:15:05.380">
   <property name="a_track">0</property>
   <property name="b_track">1</property>
   <property name="mlt_service">mix</property>
   <property name="kdenlive_id">mix</property>
   <property name="kdenlive:mixcut">12</property>
   <property name="start">-1</property>
   <property name="accepts_blanks">1</property>
   <property name="reverse">0</property>
  </transition>
  <transition id="transition64" in="00:18:10.093" out="00:18:10.719">
   <property name="a_track">0</property>
   <property name="b_track">1</property>
   <property name="mlt_service">mix</property>
   <property name="kdenlive_id">mix</property>
   <property name="kdenlive:mixcut">0</property>
   <property name="start">-1</property>
   <property name="accepts_blanks">1</property>
   <property name="reverse">0</property>
  </transition>
  <transition id="transition65" in="00:19:40.207" out="00:19:40.624">
   <property name="a_track">0</property>
   <property name="b_track">1</property>
   <property name="mlt_service">mix</property>
   <property name="kdenlive_id">mix</property>
   <property name="kdenlive:mixcut">2</property>
   <property name="start">-1</property>
   <property name="accepts_blanks">1</property>
   <property name="reverse">1</property>
  </transition>
  <transition id="transition66" in="00:20:44.795" out="00:20:46.797">
   <property name="a_track">0</property>
   <property name="b_track">1</property>
   <property name="mlt_service">mix</property>
   <property name="kdenlive_id">mix</property>
   <property name="kdenlive:mixcut">24</property>
   <property name="reverse">0</property>
  </transition>
  <transition id="transition67" in="00:20:55.555" out="00:20:56.556">
   <property name="a_track">0</property>
   <property name="b_track">1</property>
   <property name="mlt_service">mix</property>
   <property name="kdenlive_id">mix</property>
   <property name="kdenlive:mixcut">12</property>
   <property name="start">-1</property>
   <property name="accepts_blanks">1</property>
   <property name="reverse">1</property>
  </transition>
  <transition id="transition74" in="00:41:17.809" out="00:41:18.227">
   <property name="a_track">0</property>
   <property name="b_track">1</property>
   <property name="mlt_service">mix</property>
   <property name="kdenlive_id">mix</property>
   <property name="kdenlive:mixcut">5</property>
   <property name="start">-1</property>
   <property name="accepts_blanks">1</property>
   <property name="reverse">0</property>
  </transition>
  <transition id="transition75" in="00:43:32.908" out="00:43:33.909">
   <property name="a_track">0</property>
   <property name="b_track">1</property>
   <property name="mlt_service">mix</property>
   <property name="kdenlive_id">mix</property>
   <property name="kdenlive:mixcut">24</property>
   <property name="start">-1</property>
   <property name="accepts_blanks">1</property>
   <property name="reverse">1</property>
  </transition>
  <transition id="transition77" in="00:47:17.309" out="00:47:18.310">
   <property name="a_track">0</property>
   <property name="b_track">1</property>
   <property name="mlt_service">mix</property>
   <property name="kdenlive_id">mix</property>
   <property name="kdenlive:mixcut">12</property>
   <property name="start">-1</property>
   <property name="accepts_blanks">1</property>
   <property name="reverse">0</property>
  </transition>
  <transition id="transition78" in="00:47:37.996" out="00:47:38.997">
   <property name="a_track">0</property>
   <property name="b_track">1</property>
   <property name="mlt_service">mix</property>
   <property name="kdenlive_id">mix</property>
   <property name="kdenlive:mixcut">19</property>
   <property name="start">-1</property>
   <property name="accepts_blanks">1</property>
   <property name="reverse">1</property>
  </transition>
  <transition id="transition79" in="00:49:28.070" out="00:49:29.071">
   <property name="a_track">0</property>
   <property name="b_track">1</property>
   <property name="mlt_service">mix</property>
   <property name="kdenlive_id">mix</property>
   <property name="kdenlive:mixcut">12</property>
   <property name="start">-1</property>
   <property name="accepts_blanks">1</property>
   <property name="reverse">0</property>
  </transition>
  <transition id="transition80" in="00:51:35.244" out="00:51:36.245">
   <property name="a_track">0</property>
   <property name="b_track">1</property>
   <property name="mlt_service">mix</property>
   <property name="kdenlive_id">mix</property>
   <property name="kdenlive:mixcut">4</property>
   <property name="start">-1</property>
   <property name="accepts_blanks">1</property>
   <property name="reverse">0</property>
  </transition>
  <transition id="transition83" in="01:00:13.263" out="01:00:14.264">
   <property name="a_track">0</property>
   <property name="b_track">1</property>
   <property name="mlt_service">mix</property>
   <property name="kdenlive_id">mix</property>
   <property name="kdenlive:mixcut">12</property>
   <property name="start">-1</property>
   <property name="accepts_blanks">1</property>
   <property name="reverse">0</property>
  </transition>
  <transition id="transition84" in="01:09:24.566" out="01:09:25.567">
   <property name="a_track">0</property>
   <property name="b_track">1</property>
   <property name="mlt_service">mix</property>
   <property name="kdenlive_id">mix</property>
   <property name="kdenlive:mixcut">12</property>
   <property name="start">-1</property>
   <property name="accepts_blanks">1</property>
   <property name="reverse">0</property>
  </transition>
  <transition id="transition85" in="01:13:44.378" out="01:13:44.962">
   <property name="a_track">0</property>
   <property name="b_track">1</property>
   <property name="mlt_service">mix</property>
   <property name="kdenlive_id">mix</property>
   <property name="kdenlive:mixcut">0</property>
   <property name="reverse">1</property>
  </transition>
  <transition id="transition86" in="01:13:53.136" out="01:13:53.553">
   <property name="a_track">0</property>
   <property name="b_track">1</property>
   <property name="mlt_service">mix</property>
   <property name="kdenlive_id">mix</property>
   <property name="kdenlive:mixcut">5</property>
   <property name="start">-1</property>
   <property name="accepts_blanks">1</property>
   <property name="reverse">0</property>
  </transition>
  <transition id="transition87" in="01:14:00.417" out="01:14:01.418">
   <property name="a_track">0</property>
   <property name="b_track">1</property>
   <property name="mlt_service">mix</property>
   <property name="kdenlive_id">mix</property>
   <property name="kdenlive:mixcut">12</property>
   <property name="start">-1</property>
   <property name="accepts_blanks">1</property>
   <property name="reverse">1</property>
  </transition>
  <transition id="transition88" in="01:14:49.675" out="01:14:50.676">
   <property name="a_track">0</property>
   <property name="b_track">1</property>
   <property name="mlt_service">mix</property>
   <property name="kdenlive_id">mix</property>
   <property name="kdenlive:mixcut">12</property>
   <property name="start">-1</property>
   <property name="accepts_blanks">1</property>
   <property name="reverse">0</property>
  </transition>
  <transition id="transition89" in="01:17:23.398" out="01:17:24.399">
   <property name="a_track">0</property>
   <property name="b_track">1</property>
   <property name="mlt_service">mix</property>
   <property name="kdenlive_id">mix</property>
   <property name="kdenlive:mixcut">12</property>
   <property name="start">-1</property>
   <property name="accepts_blanks">1</property>
   <property name="reverse">0</property>
  </transition>
  <transition id="transition90" in="01:18:08.884" out="01:18:09.885">
   <property name="a_track">0</property>
   <property name="b_track">1</property>
   <property name="mlt_service">mix</property>
   <property name="kdenlive_id">mix</property>
   <property name="kdenlive:mixcut">12</property>
   <property name="start">-1</property>
   <property name="accepts_blanks">1</property>
   <property name="reverse">0</property>
  </transition>
  <transition id="transition91" in="01:21:11.762" out="01:21:12.763">
   <property name="a_track">0</property>
   <property name="b_track">1</property>
   <property name="mlt_service">mix</property>
   <property name="kdenlive_id">mix</property>
   <property name="kdenlive:mixcut">12</property>
   <property name="start">-1</property>
   <property name="accepts_blanks">1</property>
   <property name="reverse">0</property>
  </transition>
  <transition id="transition81" in="00:55:29.529" out="00:55:30.530">
   <property name="a_track">1</property>
   <property name="b_track">0</property>
   <property name="mlt_service">mix</property>
   <property name="kdenlive_id">mix</property>
   <property name="kdenlive:mixcut">12</property>
   <property name="start">-1</property>
   <property name="accepts_blanks">1</property>
   <property name="reverse">0</property>
  </transition>
  <transition id="transition82" in="00:57:37.246" out="00:57:45.254">
   <property name="a_track">0</property>
   <property name="b_track">1</property>
   <property name="mlt_service">mix</property>
   <property name="kdenlive_id">mix</property>
   <property name="kdenlive:mixcut">96</property>
   <property name="start">-1</property>
   <property name="accepts_blanks">1</property>
   <property name="reverse">0</property>
  </transition>
  <transition id="transition68" in="00:53:37.871" out="00:53:40.874">
   <property name="a_track">0</property>
   <property name="b_track">1</property>
   <property name="mlt_service">mix</property>
   <property name="kdenlive_id">mix</property>
   <property name="kdenlive:mixcut">36</property>
   <property name="start">-1</property>
   <property name="accepts_blanks">1</property>
   <property name="reverse">0</property>
  </transition>
  <transition id="transition69" in="00:52:34.368" out="00:52:35.369">
   <property name="a_track">0</property>
   <property name="b_track">1</property>
   <property name="mlt_service">mix</property>
   <property name="kdenlive_id">mix</property>
   <property name="kdenlive:mixcut">12</property>
   <property name="start">-1</property>
   <property name="accepts_blanks">1</property>
   <property name="reverse">1</property>
  </transition>
  <transition id="transition70" in="00:21:57.849" out="00:21:58.267">
   <property name="a_track">0</property>
   <property name="b_track">1</property>
   <property name="mlt_service">mix</property>
   <property name="kdenlive_id">mix</property>
   <property name="kdenlive:mixcut">5</property>
   <property name="start">-1</property>
   <property name="accepts_blanks">1</property>
   <property name="reverse">0</property>
  </transition>
  <transition id="transition71" in="00:32:28.445" out="00:32:28.862">
   <property name="a_track">0</property>
   <property name="b_track">1</property>
   <property name="mlt_service">mix</property>
   <property name="kdenlive_id">mix</property>
   <property name="kdenlive:mixcut">5</property>
   <property name="start">-1</property>
   <property name="accepts_blanks">1</property>
   <property name="reverse">0</property>
  </transition>
  <transition id="transition72" in="00:36:03.921" out="00:36:04.922">
   <property name="a_track">0</property>
   <property name="b_track">1</property>
   <property name="mlt_service">mix</property>
   <property name="kdenlive_id">mix</property>
   <property name="kdenlive:mixcut">12</property>
   <property name="start">-1</property>
   <property name="accepts_blanks">1</property>
   <property name="reverse">0</property>
  </transition>
  <transition id="transition73" in="00:39:21.688" out="00:39:22.105">
   <property name="a_track">0</property>
   <property name="b_track">1</property>
   <property name="mlt_service">mix</property>
   <property name="kdenlive_id">mix</property>
   <property name="kdenlive:mixcut">5</property>
   <property name="start">-1</property>
   <property name="accepts_blanks">1</property>
   <property name="reverse">0</property>
  </transition>
  <transition id="transition76" in="00:40:38.288" out="00:40:38.455">
   <property name="a_track">0</property>
   <property name="b_track">1</property>
   <property name="mlt_service">mix</property>
   <property name="kdenlive_id">mix</property>
   <property name="kdenlive:mixcut">3</property>
   <property name="start">-1</property>
   <property name="accepts_blanks">1</property>
   <property name="reverse">0</property>
  </transition>
  <transition id="transition92" in="00:21:04.087" out="00:21:05.088">
   <property name="a_track">1</property>
   <property name="b_track">0</property>
   <property name="mlt_service">mix</property>
   <property name="kdenlive_id">mix</property>
   <property name="kdenlive:mixcut">12</property>
   <property name="start">-1</property>
   <property name="accepts_blanks">1</property>
   <property name="reverse">0</property>
  </transition>
  <transition id="transition93" in="00:22:19.102" out="00:22:20.103">
   <property name="a_track">1</property>
   <property name="b_track">0</property>
   <property name="mlt_service">mix</property>
   <property name="kdenlive_id">mix</property>
   <property name="kdenlive:mixcut">12</property>
   <property name="start">-1</property>
   <property name="accepts_blanks">1</property>
   <property name="reverse">0</property>
  </transition>
  <transition id="transition94" in="00:35:33.283" out="00:35:34.284">
   <property name="a_track">1</property>
   <property name="b_track">0</property>
   <property name="mlt_service">mix</property>
   <property name="kdenlive_id">mix</property>
   <property name="kdenlive:mixcut">1</property>
   <property name="start">-1</property>
   <property name="accepts_blanks">1</property>
   <property name="reverse">0</property>
  </transition>
  <transition id="transition95" in="00:39:11.511" out="00:39:12.346">
   <property name="a_track">1</property>
   <property name="b_track">0</property>
   <property name="mlt_service">mix</property>
   <property name="kdenlive_id">mix</property>
   <property name="kdenlive:mixcut">10</property>
   <property name="start">-1</property>
   <property name="accepts_blanks">1</property>
   <property name="reverse">0</property>
  </transition>
  <transition id="transition96" in="00:40:29.529" out="00:40:30.530">
   <property name="a_track">1</property>
   <property name="b_track">0</property>
   <property name="mlt_service">mix</property>
   <property name="kdenlive_id">mix</property>
   <property name="kdenlive:mixcut">12</property>
   <property name="start">-1</property>
   <property name="accepts_blanks">1</property>
   <property name="reverse">0</property>
  </transition>
  <transition id="transition97" in="00:21:01.126" out="00:21:02.127">
   <property name="a_track">0</property>
   <property name="b_track">1</property>
   <property name="mlt_service">mix</property>
   <property name="kdenlive_id">mix</property>
   <property name="kdenlive:mixcut">12</property>
   <property name="reverse">0</property>
  </transition>
  <transition id="transition98" in="00:43:35.244" out="00:43:35.661">
   <property name="a_track">0</property>
   <property name="b_track">1</property>
   <property name="mlt_service">mix</property>
   <property name="kdenlive_id">mix</property>
   <property name="kdenlive:mixcut">5</property>
   <property name="start">-1</property>
   <property name="accepts_blanks">1</property>
   <property name="reverse">0</property>
  </transition>
  <transition id="transition99" in="00:43:38.121" out="00:43:39.122">
   <property name="a_track">0</property>
   <property name="b_track">1</property>
   <property name="mlt_service">mix</property>
   <property name="kdenlive_id">mix</property>
   <property name="kdenlive:mixcut">12</property>
   <property name="start">-1</property>
   <property name="accepts_blanks">1</property>
   <property name="reverse">1</property>
  </transition>
  <filter id="filter42">
   <property name="window">75</property>
   <property name="max_gain">20dB</property>
   <property name="mlt_service">volume</property>
   <property name="internal_added">237</property>
   <property name="disable">1</property>
  </filter>
  <filter id="filter43">
   <property name="channel">-1</property>
   <property name="mlt_service">panner</property>
   <property name="internal_added">237</property>
   <property name="start">0.5</property>
   <property name="disable">1</property>
  </filter>
  <filter id="filter44">
   <property name="iec_scale">0</property>
   <property name="mlt_service">audiolevel</property>
   <property name="dbpeak">1</property>
   <property name="disable">1</property>
  </filter>
 </tractor>
 <chain id="chain16" out="01:45:58.350">
  <property name="length">152448</property>
  <property name="eof">pause</property>
  <property name="resource">N:/Videos/Horror and SciFi/Final Fantasy/Final.Fantasy.The.Spirits.Within.2001.1080p.BluRay.HEVC.DTS-LiNUX/Final.Fantasy.The.Spirits.Within.2001.1080p.BluRay.HEVC.DTS-LiNUX.mkv</property>
  <property name="mlt_service">avformat-novalidate</property>
  <property name="seekable">1</property>
  <property name="audio_index">1</property>
  <property name="video_index">0</property>
  <property name="vstream">0</property>
  <property name="astream">0</property>
  <property name="kdenlive:control_uuid">{193136b1-969a-4943-bfcd-55058a6808f2}</property>
  <property name="kdenlive:id">4</property>
  <property name="kdenlive:clip_type">0</property>
  <property name="kdenlive:file_size">5331297763</property>
  <property name="kdenlive:file_hash">691e768d68c55b9a28cb9a278fdc8b17</property>
  <property name="kdenlive:folderid">-1</property>
  <property name="meta.media.nb_streams">37</property>
  <property name="meta.media.0.stream.type">video</property>
  <property name="meta.media.0.stream.frame_rate">23.976</property>
  <property name="meta.media.0.stream.sample_aspect_ratio">1</property>
  <property name="meta.media.0.codec.width">1916</property>
  <property name="meta.media.0.codec.height">1036</property>
  <property name="meta.media.0.codec.rotate">0</property>
  <property name="meta.media.0.codec.pix_fmt">yuv420p10le</property>
  <property name="meta.media.0.codec.sample_aspect_ratio">1</property>
  <property name="meta.media.0.codec.colorspace">709</property>
  <property name="meta.media.0.codec.color_trc">1</property>
  <property name="meta.media.0.codec.name">hevc</property>
  <property name="meta.media.0.codec.long_name">HEVC (High Efficiency Video Coding)</property>
  <property name="meta.media.0.codec.bit_rate">0</property>
  <property name="meta.attr.0.stream.BPS-eng.markup">4999776</property>
  <property name="meta.attr.0.stream.DURATION-eng.markup">01:45:58.352000000</property>
  <property name="meta.attr.0.stream.NUMBER_OF_FRAMES-eng.markup">152448</property>
  <property name="meta.attr.0.stream.NUMBER_OF_BYTES-eng.markup">3973792365</property>
  <property name="meta.attr.0.stream._STATISTICS_WRITING_APP-eng.markup">mkvmerge v40.0.0 ('Old Town Road + Pony') 64-bit</property>
  <property name="meta.attr.0.stream._STATISTICS_WRITING_DATE_UTC-eng.markup">2019-12-29 15:49:45</property>
  <property name="meta.attr.0.stream._STATISTICS_TAGS-eng.markup">BPS DURATION NUMBER_OF_FRAMES NUMBER_OF_BYTES</property>
  <property name="meta.media.1.stream.type">audio</property>
  <property name="meta.media.1.codec.sample_fmt">fltp</property>
  <property name="meta.media.1.codec.sample_rate">48000</property>
  <property name="meta.media.1.codec.channels">6</property>
  <property name="meta.media.1.codec.layout">5.1(side)</property>
  <property name="meta.media.1.codec.name">dca</property>
  <property name="meta.media.1.codec.long_name">DCA (DTS Coherent Acoustics)</property>
  <property name="meta.media.1.codec.bit_rate">1411200</property>
  <property name="meta.attr.1.stream.language.markup">eng</property>
  <property name="meta.attr.1.stream.title.markup">Surround</property>
  <property name="meta.attr.1.stream.BPS-eng.markup">1412999</property>
  <property name="meta.attr.1.stream.DURATION-eng.markup">01:45:58.358000000</property>
  <property name="meta.attr.1.stream.NUMBER_OF_FRAMES-eng.markup">596096</property>
  <property name="meta.attr.1.stream.NUMBER_OF_BYTES-eng.markup">1123044864</property>
  <property name="meta.attr.1.stream._STATISTICS_WRITING_APP-eng.markup">mkvmerge v40.0.0 ('Old Town Road + Pony') 64-bit</property>
  <property name="meta.attr.1.stream._STATISTICS_WRITING_DATE_UTC-eng.markup">2019-12-29 15:49:45</property>
  <property name="meta.attr.1.stream._STATISTICS_TAGS-eng.markup">BPS DURATION NUMBER_OF_FRAMES NUMBER_OF_BYTES</property>
  <property name="meta.media.2.codec.name">pgssub</property>
  <property name="meta.media.2.codec.long_name">HDMV Presentation Graphic Stream subtitles</property>
  <property name="meta.media.2.codec.bit_rate">0</property>
  <property name="meta.attr.2.stream.language.markup">eng</property>
  <property name="meta.attr.2.stream.title.markup">English</property>
  <property name="meta.attr.2.stream.BPS-eng.markup">24594</property>
  <property name="meta.attr.2.stream.DURATION-eng.markup">01:33:45.954000000</property>
  <property name="meta.attr.2.stream.NUMBER_OF_FRAMES-eng.markup">1686</property>
  <property name="meta.attr.2.stream.NUMBER_OF_BYTES-eng.markup">17296140</property>
  <property name="meta.attr.2.stream._STATISTICS_WRITING_APP-eng.markup">mkvmerge v40.0.0 ('Old Town Road + Pony') 64-bit</property>
  <property name="meta.attr.2.stream._STATISTICS_WRITING_DATE_UTC-eng.markup">2019-12-29 15:49:45</property>
  <property name="meta.attr.2.stream._STATISTICS_TAGS-eng.markup">BPS DURATION NUMBER_OF_FRAMES NUMBER_OF_BYTES</property>
  <property name="meta.media.3.codec.name">pgssub</property>
  <property name="meta.media.3.codec.long_name">HDMV Presentation Graphic Stream subtitles</property>
  <property name="meta.media.3.codec.bit_rate">0</property>
  <property name="meta.attr.3.stream.language.markup">eng</property>
  <property name="meta.attr.3.stream.title.markup">English SDH</property>
  <property name="meta.attr.3.stream.BPS-eng.markup">32739</property>
  <property name="meta.attr.3.stream.DURATION-eng.markup">01:41:48.102000000</property>
  <property name="meta.attr.3.stream.NUMBER_OF_FRAMES-eng.markup">2103</property>
  <property name="meta.attr.3.stream.NUMBER_OF_BYTES-eng.markup">24997093</property>
  <property name="meta.attr.3.stream._STATISTICS_WRITING_APP-eng.markup">mkvmerge v40.0.0 ('Old Town Road + Pony') 64-bit</property>
  <property name="meta.attr.3.stream._STATISTICS_WRITING_DATE_UTC-eng.markup">2019-12-29 15:49:45</property>
  <property name="meta.attr.3.stream._STATISTICS_TAGS-eng.markup">BPS DURATION NUMBER_OF_FRAMES NUMBER_OF_BYTES</property>
  <property name="meta.media.4.codec.name">pgssub</property>
  <property name="meta.media.4.codec.long_name">HDMV Presentation Graphic Stream subtitles</property>
  <property name="meta.media.4.codec.bit_rate">0</property>
  <property name="meta.attr.4.stream.language.markup">ara</property>
  <property name="meta.attr.4.stream.title.markup">Arabic</property>
  <property name="meta.attr.4.stream.BPS-eng.markup">13581</property>
  <property name="meta.attr.4.stream.DURATION-eng.markup">01:33:59.217000000</property>
  <property name="meta.attr.4.stream.NUMBER_OF_FRAMES-eng.markup">1690</property>
  <property name="meta.attr.4.stream.NUMBER_OF_BYTES-eng.markup">9573918</property>
  <property name="meta.attr.4.stream._STATISTICS_WRITING_APP-eng.markup">mkvmerge v40.0.0 ('Old Town Road + Pony') 64-bit</property>
  <property name="meta.attr.4.stream._STATISTICS_WRITING_DATE_UTC-eng.markup">2019-12-29 15:49:45</property>
  <property name="meta.attr.4.stream._STATISTICS_TAGS-eng.markup">BPS DURATION NUMBER_OF_FRAMES NUMBER_OF_BYTES</property>
  <property name="meta.media.5.codec.name">pgssub</property>
  <property name="meta.media.5.codec.long_name">HDMV Presentation Graphic Stream subtitles</property>
  <property name="meta.media.5.codec.bit_rate">0</property>
  <property name="meta.attr.5.stream.language.markup">bul</property>
  <property name="meta.attr.5.stream.title.markup">Bulgarian</property>
  <property name="meta.attr.5.stream.BPS-eng.markup">23121</property>
  <property name="meta.attr.5.stream.DURATION-eng.markup">01:35:32.310000000</property>
  <property name="meta.attr.5.stream.NUMBER_OF_FRAMES-eng.markup">1656</property>
  <property name="meta.attr.5.stream.NUMBER_OF_BYTES-eng.markup">16567112</property>
  <property name="meta.attr.5.stream._STATISTICS_WRITING_APP-eng.markup">mkvmerge v40.0.0 ('Old Town Road + Pony') 64-bit</property>
  <property name="meta.attr.5.stream._STATISTICS_WRITING_DATE_UTC-eng.markup">2019-12-29 15:49:45</property>
  <property name="meta.attr.5.stream._STATISTICS_TAGS-eng.markup">BPS DURATION NUMBER_OF_FRAMES NUMBER_OF_BYTES</property>
  <property name="meta.media.6.codec.name">pgssub</property>
  <property name="meta.media.6.codec.long_name">HDMV Presentation Graphic Stream subtitles</property>
  <property name="meta.media.6.codec.bit_rate">0</property>
  <property name="meta.attr.6.stream.language.markup">chi</property>
  <property name="meta.attr.6.stream.title.markup">Cantonese</property>
  <property name="meta.attr.6.stream.BPS-eng.markup">19607</property>
  <property name="meta.attr.6.stream.DURATION-eng.markup">01:42:59.006000000</property>
  <property name="meta.attr.6.stream.NUMBER_OF_FRAMES-eng.markup">1709</property>
  <property name="meta.attr.6.stream.NUMBER_OF_BYTES-eng.markup">15144515</property>
  <property name="meta.attr.6.stream._STATISTICS_WRITING_APP-eng.markup">mkvmerge v40.0.0 ('Old Town Road + Pony') 64-bit</property>
  <property name="meta.attr.6.stream._STATISTICS_WRITING_DATE_UTC-eng.markup">2019-12-29 15:49:45</property>
  <property name="meta.attr.6.stream._STATISTICS_TAGS-eng.markup">BPS DURATION NUMBER_OF_FRAMES NUMBER_OF_BYTES</property>
  <property name="meta.media.7.codec.name">pgssub</property>
  <property name="meta.media.7.codec.long_name">HDMV Presentation Graphic Stream subtitles</property>
  <property name="meta.media.7.codec.bit_rate">0</property>
  <property name="meta.attr.7.stream.language.markup">chi</property>
  <property name="meta.attr.7.stream.title.markup">Mandarin</property>
  <property name="meta.attr.7.stream.BPS-eng.markup">21248</property>
  <property name="meta.attr.7.stream.DURATION-eng.markup">01:33:59.258000000</property>
  <property name="meta.attr.7.stream.NUMBER_OF_FRAMES-eng.markup">1704</property>
  <property name="meta.attr.7.stream.NUMBER_OF_BYTES-eng.markup">14978356</property>
  <property name="meta.attr.7.stream._STATISTICS_WRITING_APP-eng.markup">mkvmerge v40.0.0 ('Old Town Road + Pony') 64-bit</property>
  <property name="meta.attr.7.stream._STATISTICS_WRITING_DATE_UTC-eng.markup">2019-12-29 15:49:45</property>
  <property name="meta.attr.7.stream._STATISTICS_TAGS-eng.markup">BPS DURATION NUMBER_OF_FRAMES NUMBER_OF_BYTES</property>
  <property name="meta.media.8.codec.name">pgssub</property>
  <property name="meta.media.8.codec.long_name">HDMV Presentation Graphic Stream subtitles</property>
  <property name="meta.media.8.codec.bit_rate">0</property>
  <property name="meta.attr.8.stream.language.markup">hrv</property>
  <property name="meta.attr.8.stream.title.markup">Croatian</property>
  <property name="meta.attr.8.stream.BPS-eng.markup">18941</property>
  <property name="meta.attr.8.stream.DURATION-eng.markup">01:33:59.383000000</property>
  <property name="meta.attr.8.stream.NUMBER_OF_FRAMES-eng.markup">1355</property>
  <property name="meta.attr.8.stream.NUMBER_OF_BYTES-eng.markup">13352216</property>
  <property name="meta.attr.8.stream._STATISTICS_WRITING_APP-eng.markup">mkvmerge v40.0.0 ('Old Town Road + Pony') 64-bit</property>
  <property name="meta.attr.8.stream._STATISTICS_WRITING_DATE_UTC-eng.markup">2019-12-29 15:49:45</property>
  <property name="meta.attr.8.stream._STATISTICS_TAGS-eng.markup">BPS DURATION NUMBER_OF_FRAMES NUMBER_OF_BYTES</property>
  <property name="meta.media.9.codec.name">pgssub</property>
  <property name="meta.media.9.codec.long_name">HDMV Presentation Graphic Stream subtitles</property>
  <property name="meta.media.9.codec.bit_rate">0</property>
  <property name="meta.attr.9.stream.language.markup">cze</property>
  <property name="meta.attr.9.stream.title.markup">Czech</property>
  <property name="meta.attr.9.stream.BPS-eng.markup">21071</property>
  <property name="meta.attr.9.stream.DURATION-eng.markup">01:33:59.300000000</property>
  <property name="meta.attr.9.stream.NUMBER_OF_FRAMES-eng.markup">1688</property>
  <property name="meta.attr.9.stream.NUMBER_OF_BYTES-eng.markup">14853464</property>
  <property name="meta.attr.9.stream._STATISTICS_WRITING_APP-eng.markup">mkvmerge v40.0.0 ('Old Town Road + Pony') 64-bit</property>
  <property name="meta.attr.9.stream._STATISTICS_WRITING_DATE_UTC-eng.markup">2019-12-29 15:49:45</property>
  <property name="meta.attr.9.stream._STATISTICS_TAGS-eng.markup">BPS DURATION NUMBER_OF_FRAMES NUMBER_OF_BYTES</property>
  <property name="meta.media.10.codec.name">pgssub</property>
  <property name="meta.media.10.codec.long_name">HDMV Presentation Graphic Stream subtitles</property>
  <property name="meta.media.10.codec.bit_rate">0</property>
  <property name="meta.attr.10.stream.language.markup">dan</property>
  <property name="meta.attr.10.stream.title.markup">Danish</property>
  <property name="meta.attr.10.stream.BPS-eng.markup">20546</property>
  <property name="meta.attr.10.stream.DURATION-eng.markup">01:33:59.717000000</property>
  <property name="meta.attr.10.stream.NUMBER_OF_FRAMES-eng.markup">1184</property>
  <property name="meta.attr.10.stream.NUMBER_OF_BYTES-eng.markup">14484283</property>
  <property name="meta.attr.10.stream._STATISTICS_WRITING_APP-eng.markup">mkvmerge v40.0.0 ('Old Town Road + Pony') 64-bit</property>
  <property name="meta.attr.10.stream._STATISTICS_WRITING_DATE_UTC-eng.markup">2019-12-29 15:49:45</property>
  <property name="meta.attr.10.stream._STATISTICS_TAGS-eng.markup">BPS DURATION NUMBER_OF_FRAMES NUMBER_OF_BYTES</property>
  <property name="meta.media.11.codec.name">pgssub</property>
  <property name="meta.media.11.codec.long_name">HDMV Presentation Graphic Stream subtitles</property>
  <property name="meta.media.11.codec.bit_rate">0</property>
  <property name="meta.attr.11.stream.language.markup">dut</property>
  <property name="meta.attr.11.stream.title.markup">Dutch</property>
  <property name="meta.attr.11.stream.BPS-eng.markup">23897</property>
  <property name="meta.attr.11.stream.DURATION-eng.markup">01:33:59.675000000</property>
  <property name="meta.attr.11.stream.NUMBER_OF_FRAMES-eng.markup">1258</property>
  <property name="meta.attr.11.stream.NUMBER_OF_BYTES-eng.markup">16846710</property>
  <property name="meta.attr.11.stream._STATISTICS_WRITING_APP-eng.markup">mkvmerge v40.0.0 ('Old Town Road + Pony') 64-bit</property>
  <property name="meta.attr.11.stream._STATISTICS_WRITING_DATE_UTC-eng.markup">2019-12-29 15:49:45</property>
  <property name="meta.attr.11.stream._STATISTICS_TAGS-eng.markup">BPS DURATION NUMBER_OF_FRAMES NUMBER_OF_BYTES</property>
  <property name="meta.media.12.codec.name">pgssub</property>
  <property name="meta.media.12.codec.long_name">HDMV Presentation Graphic Stream subtitles</property>
  <property name="meta.media.12.codec.bit_rate">0</property>
  <property name="meta.attr.12.stream.language.markup">fin</property>
  <property name="meta.attr.12.stream.title.markup">Finnish</property>
  <property name="meta.attr.12.stream.BPS-eng.markup">20857</property>
  <property name="meta.attr.12.stream.DURATION-eng.markup">01:34:00.718000000</property>
  <property name="meta.attr.12.stream.NUMBER_OF_FRAMES-eng.markup">1209</property>
  <property name="meta.attr.12.stream.NUMBER_OF_BYTES-eng.markup">14706553</property>
  <property name="meta.attr.12.stream._STATISTICS_WRITING_APP-eng.markup">mkvmerge v40.0.0 ('Old Town Road + Pony') 64-bit</property>
  <property name="meta.attr.12.stream._STATISTICS_WRITING_DATE_UTC-eng.markup">2019-12-29 15:49:45</property>
  <property name="meta.attr.12.stream._STATISTICS_TAGS-eng.markup">BPS DURATION NUMBER_OF_FRAMES NUMBER_OF_BYTES</property>
  <property name="meta.media.13.codec.name">pgssub</property>
  <property name="meta.media.13.codec.long_name">HDMV Presentation Graphic Stream subtitles</property>
  <property name="meta.media.13.codec.bit_rate">0</property>
  <property name="meta.attr.13.stream.language.markup">fre</property>
  <property name="meta.attr.13.stream.title.markup">French</property>
  <property name="meta.attr.13.stream.BPS-eng.markup">21198</property>
  <property name="meta.attr.13.stream.DURATION-eng.markup">01:43:41.006000000</property>
  <property name="meta.attr.13.stream.NUMBER_OF_FRAMES-eng.markup">1642</property>
  <property name="meta.attr.13.stream.NUMBER_OF_BYTES-eng.markup">16484862</property>
  <property name="meta.attr.13.stream._STATISTICS_WRITING_APP-eng.markup">mkvmerge v40.0.0 ('Old Town Road + Pony') 64-bit</property>
  <property name="meta.attr.13.stream._STATISTICS_WRITING_DATE_UTC-eng.markup">2019-12-29 15:49:45</property>
  <property name="meta.attr.13.stream._STATISTICS_TAGS-eng.markup">BPS DURATION NUMBER_OF_FRAMES NUMBER_OF_BYTES</property>
  <property name="meta.media.14.codec.name">pgssub</property>
  <property name="meta.media.14.codec.long_name">HDMV Presentation Graphic Stream subtitles</property>
  <property name="meta.media.14.codec.bit_rate">0</property>
  <property name="meta.attr.14.stream.language.markup">ger</property>
  <property name="meta.attr.14.stream.title.markup">German</property>
  <property name="meta.attr.14.stream.BPS-eng.markup">24239</property>
  <property name="meta.attr.14.stream.DURATION-eng.markup">01:34:00.260000000</property>
  <property name="meta.attr.14.stream.NUMBER_OF_FRAMES-eng.markup">1493</property>
  <property name="meta.attr.14.stream.NUMBER_OF_BYTES-eng.markup">17089540</property>
  <property name="meta.attr.14.stream._STATISTICS_WRITING_APP-eng.markup">mkvmerge v40.0.0 ('Old Town Road + Pony') 64-bit</property>
  <property name="meta.attr.14.stream._STATISTICS_WRITING_DATE_UTC-eng.markup">2019-12-29 15:49:45</property>
  <property name="meta.attr.14.stream._STATISTICS_TAGS-eng.markup">BPS DURATION NUMBER_OF_FRAMES NUMBER_OF_BYTES</property>
  <property name="meta.media.15.codec.name">pgssub</property>
  <property name="meta.media.15.codec.long_name">HDMV Presentation Graphic Stream subtitles</property>
  <property name="meta.media.15.codec.bit_rate">0</property>
  <property name="meta.attr.15.stream.language.markup">gre</property>
  <property name="meta.attr.15.stream.title.markup">Greek</property>
  <property name="meta.attr.15.stream.BPS-eng.markup">24963</property>
  <property name="meta.attr.15.stream.DURATION-eng.markup">01:33:59.300000000</property>
  <property name="meta.attr.15.stream.NUMBER_OF_FRAMES-eng.markup">1694</property>
  <property name="meta.attr.15.stream.NUMBER_OF_BYTES-eng.markup">17597238</property>
  <property name="meta.attr.15.stream._STATISTICS_WRITING_APP-eng.markup">mkvmerge v40.0.0 ('Old Town Road + Pony') 64-bit</property>
  <property name="meta.attr.15.stream._STATISTICS_WRITING_DATE_UTC-eng.markup">2019-12-29 15:49:45</property>
  <property name="meta.attr.15.stream._STATISTICS_TAGS-eng.markup">BPS DURATION NUMBER_OF_FRAMES NUMBER_OF_BYTES</property>
  <property name="meta.media.16.codec.name">pgssub</property>
  <property name="meta.media.16.codec.long_name">HDMV Presentation Graphic Stream subtitles</property>
  <property name="meta.media.16.codec.bit_rate">0</property>
  <property name="meta.attr.16.stream.language.markup">heb</property>
  <property name="meta.attr.16.stream.title.markup">Hebrew</property>
  <property name="meta.attr.16.stream.BPS-eng.markup">18470</property>
  <property name="meta.attr.16.stream.DURATION-eng.markup">01:33:59.217000000</property>
  <property name="meta.attr.16.stream.NUMBER_OF_FRAMES-eng.markup">1688</property>
  <property name="meta.attr.16.stream.NUMBER_OF_BYTES-eng.markup">13019656</property>
  <property name="meta.attr.16.stream._STATISTICS_WRITING_APP-eng.markup">mkvmerge v40.0.0 ('Old Town Road + Pony') 64-bit</property>
  <property name="meta.attr.16.stream._STATISTICS_WRITING_DATE_UTC-eng.markup">2019-12-29 15:49:45</property>
  <property name="meta.attr.16.stream._STATISTICS_TAGS-eng.markup">BPS DURATION NUMBER_OF_FRAMES NUMBER_OF_BYTES</property>
  <property name="meta.media.17.codec.name">pgssub</property>
  <property name="meta.media.17.codec.long_name">HDMV Presentation Graphic Stream subtitles</property>
  <property name="meta.media.17.codec.bit_rate">0</property>
  <property name="meta.attr.17.stream.language.markup">hin</property>
  <property name="meta.attr.17.stream.title.markup">Hindi</property>
  <property name="meta.attr.17.stream.BPS-eng.markup">21017</property>
  <property name="meta.attr.17.stream.DURATION-eng.markup">01:33:59.300000000</property>
  <property name="meta.attr.17.stream.NUMBER_OF_FRAMES-eng.markup">1690</property>
  <property name="meta.attr.17.stream.NUMBER_OF_BYTES-eng.markup">14815519</property>
  <property name="meta.attr.17.stream._STATISTICS_WRITING_APP-eng.markup">mkvmerge v40.0.0 ('Old Town Road + Pony') 64-bit</property>
  <property name="meta.attr.17.stream._STATISTICS_WRITING_DATE_UTC-eng.markup">2019-12-29 15:49:45</property>
  <property name="meta.attr.17.stream._STATISTICS_TAGS-eng.markup">BPS DURATION NUMBER_OF_FRAMES NUMBER_OF_BYTES</property>
  <property name="meta.media.18.codec.name">pgssub</property>
  <property name="meta.media.18.codec.long_name">HDMV Presentation Graphic Stream subtitles</property>
  <property name="meta.media.18.codec.bit_rate">0</property>
  <property name="meta.attr.18.stream.language.markup">hun</property>
  <property name="meta.attr.18.stream.title.markup">Hungarian</property>
  <property name="meta.attr.18.stream.BPS-eng.markup">19042</property>
  <property name="meta.attr.18.stream.DURATION-eng.markup">01:33:59.175000000</property>
  <property name="meta.attr.18.stream.NUMBER_OF_FRAMES-eng.markup">1690</property>
  <property name="meta.attr.18.stream.NUMBER_OF_BYTES-eng.markup">13423018</property>
  <property name="meta.attr.18.stream._STATISTICS_WRITING_APP-eng.markup">mkvmerge v40.0.0 ('Old Town Road + Pony') 64-bit</property>
  <property name="meta.attr.18.stream._STATISTICS_WRITING_DATE_UTC-eng.markup">2019-12-29 15:49:45</property>
  <property name="meta.attr.18.stream._STATISTICS_TAGS-eng.markup">BPS DURATION NUMBER_OF_FRAMES NUMBER_OF_BYTES</property>
  <property name="meta.media.19.codec.name">pgssub</property>
  <property name="meta.media.19.codec.long_name">HDMV Presentation Graphic Stream subtitles</property>
  <property name="meta.media.19.codec.bit_rate">0</property>
  <property name="meta.attr.19.stream.language.markup">ice</property>
  <property name="meta.attr.19.stream.title.markup">Icelandic</property>
  <property name="meta.attr.19.stream.BPS-eng.markup">23876</property>
  <property name="meta.attr.19.stream.DURATION-eng.markup">01:33:59.217000000</property>
  <property name="meta.attr.19.stream.NUMBER_OF_FRAMES-eng.markup">1688</property>
  <property name="meta.attr.19.stream.NUMBER_OF_BYTES-eng.markup">16830422</property>
  <property name="meta.attr.19.stream._STATISTICS_WRITING_APP-eng.markup">mkvmerge v40.0.0 ('Old Town Road + Pony') 64-bit</property>
  <property name="meta.attr.19.stream._STATISTICS_WRITING_DATE_UTC-eng.markup">2019-12-29 15:49:45</property>
  <property name="meta.attr.19.stream._STATISTICS_TAGS-eng.markup">BPS DURATION NUMBER_OF_FRAMES NUMBER_OF_BYTES</property>
  <property name="meta.media.20.codec.name">pgssub</property>
  <property name="meta.media.20.codec.long_name">HDMV Presentation Graphic Stream subtitles</property>
  <property name="meta.media.20.codec.bit_rate">0</property>
  <property name="meta.attr.20.stream.language.markup">ind</property>
  <property name="meta.attr.20.stream.title.markup">Indonesian</property>
  <property name="meta.attr.20.stream.BPS-eng.markup">26444</property>
  <property name="meta.attr.20.stream.DURATION-eng.markup">01:33:59.300000000</property>
  <property name="meta.attr.20.stream.NUMBER_OF_FRAMES-eng.markup">1662</property>
  <property name="meta.attr.20.stream.NUMBER_OF_BYTES-eng.markup">18640975</property>
  <property name="meta.attr.20.stream._STATISTICS_WRITING_APP-eng.markup">mkvmerge v40.0.0 ('Old Town Road + Pony') 64-bit</property>
  <property name="meta.attr.20.stream._STATISTICS_WRITING_DATE_UTC-eng.markup">2019-12-29 15:49:45</property>
  <property name="meta.attr.20.stream._STATISTICS_TAGS-eng.markup">BPS DURATION NUMBER_OF_FRAMES NUMBER_OF_BYTES</property>
  <property name="meta.media.21.codec.name">pgssub</property>
  <property name="meta.media.21.codec.long_name">HDMV Presentation Graphic Stream subtitles</property>
  <property name="meta.media.21.codec.bit_rate">0</property>
  <property name="meta.attr.21.stream.language.markup">ita</property>
  <property name="meta.attr.21.stream.title.markup">Italian</property>
  <property name="meta.attr.21.stream.BPS-eng.markup">23573</property>
  <property name="meta.attr.21.stream.DURATION-eng.markup">01:42:58.922000000</property>
  <property name="meta.attr.21.stream.NUMBER_OF_FRAMES-eng.markup">1698</property>
  <property name="meta.attr.21.stream.NUMBER_OF_BYTES-eng.markup">18207609</property>
  <property name="meta.attr.21.stream._STATISTICS_WRITING_APP-eng.markup">mkvmerge v40.0.0 ('Old Town Road + Pony') 64-bit</property>
  <property name="meta.attr.21.stream._STATISTICS_WRITING_DATE_UTC-eng.markup">2019-12-29 15:49:45</property>
  <property name="meta.attr.21.stream._STATISTICS_TAGS-eng.markup">BPS DURATION NUMBER_OF_FRAMES NUMBER_OF_BYTES</property>
  <property name="meta.media.22.codec.name">pgssub</property>
  <property name="meta.media.22.codec.long_name">HDMV Presentation Graphic Stream subtitles</property>
  <property name="meta.media.22.codec.bit_rate">0</property>
  <property name="meta.attr.22.stream.language.markup">kor</property>
  <property name="meta.attr.22.stream.title.markup">Korean</property>
  <property name="meta.attr.22.stream.BPS-eng.markup">19788</property>
  <property name="meta.attr.22.stream.DURATION-eng.markup">01:35:32.477000000</property>
  <property name="meta.attr.22.stream.NUMBER_OF_FRAMES-eng.markup">1708</property>
  <property name="meta.attr.22.stream.NUMBER_OF_BYTES-eng.markup">14179403</property>
  <property name="meta.attr.22.stream._STATISTICS_WRITING_APP-eng.markup">mkvmerge v40.0.0 ('Old Town Road + Pony') 64-bit</property>
  <property name="meta.attr.22.stream._STATISTICS_WRITING_DATE_UTC-eng.markup">2019-12-29 15:49:45</property>
  <property name="meta.attr.22.stream._STATISTICS_TAGS-eng.markup">BPS DURATION NUMBER_OF_FRAMES NUMBER_OF_BYTES</property>
  <property name="meta.media.23.codec.name">pgssub</property>
  <property name="meta.media.23.codec.long_name">HDMV Presentation Graphic Stream subtitles</property>
  <property name="meta.media.23.codec.bit_rate">0</property>
  <property name="meta.attr.23.stream.language.markup">nor</property>
  <property name="meta.attr.23.stream.title.markup">Norwegian</property>
  <property name="meta.attr.23.stream.BPS-eng.markup">20066</property>
  <property name="meta.attr.23.stream.DURATION-eng.markup">01:33:59.675000000</property>
  <property name="meta.attr.23.stream.NUMBER_OF_FRAMES-eng.markup">1184</property>
  <property name="meta.attr.23.stream.NUMBER_OF_BYTES-eng.markup">14146014</property>
  <property name="meta.attr.23.stream._STATISTICS_WRITING_APP-eng.markup">mkvmerge v40.0.0 ('Old Town Road + Pony') 64-bit</property>
  <property name="meta.attr.23.stream._STATISTICS_WRITING_DATE_UTC-eng.markup">2019-12-29 15:49:45</property>
  <property name="meta.attr.23.stream._STATISTICS_TAGS-eng.markup">BPS DURATION NUMBER_OF_FRAMES NUMBER_OF_BYTES</property>
  <property name="meta.media.24.codec.name">pgssub</property>
  <property name="meta.media.24.codec.long_name">HDMV Presentation Graphic Stream subtitles</property>
  <property name="meta.media.24.codec.bit_rate">0</property>
  <property name="meta.attr.24.stream.language.markup">pol</property>
  <property name="meta.attr.24.stream.title.markup">Polish</property>
  <property name="meta.attr.24.stream.BPS-eng.markup">18199</property>
  <property name="meta.attr.24.stream.DURATION-eng.markup">01:33:59.300000000</property>
  <property name="meta.attr.24.stream.NUMBER_OF_FRAMES-eng.markup">1688</property>
  <property name="meta.attr.24.stream.NUMBER_OF_BYTES-eng.markup">12829046</property>
  <property name="meta.attr.24.stream._STATISTICS_WRITING_APP-eng.markup">mkvmerge v40.0.0 ('Old Town Road + Pony') 64-bit</property>
  <property name="meta.attr.24.stream._STATISTICS_WRITING_DATE_UTC-eng.markup">2019-12-29 15:49:45</property>
  <property name="meta.attr.24.stream._STATISTICS_TAGS-eng.markup">BPS DURATION NUMBER_OF_FRAMES NUMBER_OF_BYTES</property>
  <property name="meta.media.25.codec.name">pgssub</property>
  <property name="meta.media.25.codec.long_name">HDMV Presentation Graphic Stream subtitles</property>
  <property name="meta.media.25.codec.bit_rate">0</property>
  <property name="meta.attr.25.stream.language.markup">por</property>
  <property name="meta.attr.25.stream.title.markup">Brazilian Portuguese</property>
  <property name="meta.attr.25.stream.BPS-eng.markup">29654</property>
  <property name="meta.attr.25.stream.DURATION-eng.markup">01:33:59.300000000</property>
  <property name="meta.attr.25.stream.NUMBER_OF_FRAMES-eng.markup">1836</property>
  <property name="meta.attr.25.stream.NUMBER_OF_BYTES-eng.markup">20903964</property>
  <property name="meta.attr.25.stream._STATISTICS_WRITING_APP-eng.markup">mkvmerge v40.0.0 ('Old Town Road + Pony') 64-bit</property>
  <property name="meta.attr.25.stream._STATISTICS_WRITING_DATE_UTC-eng.markup">2019-12-29 15:49:45</property>
  <property name="meta.attr.25.stream._STATISTICS_TAGS-eng.markup">BPS DURATION NUMBER_OF_FRAMES NUMBER_OF_BYTES</property>
  <property name="meta.media.26.codec.name">pgssub</property>
  <property name="meta.media.26.codec.long_name">HDMV Presentation Graphic Stream subtitles</property>
  <property name="meta.media.26.codec.bit_rate">0</property>
  <property name="meta.attr.26.stream.language.markup">por</property>
  <property name="meta.attr.26.stream.title.markup">Iberian Portuguese</property>
  <property name="meta.attr.26.stream.BPS-eng.markup">27145</property>
  <property name="meta.attr.26.stream.DURATION-eng.markup">01:33:59.300000000</property>
  <property name="meta.attr.26.stream.NUMBER_OF_FRAMES-eng.markup">1720</property>
  <property name="meta.attr.26.stream.NUMBER_OF_BYTES-eng.markup">19134971</property>
  <property name="meta.attr.26.stream._STATISTICS_WRITING_APP-eng.markup">mkvmerge v40.0.0 ('Old Town Road + Pony') 64-bit</property>
  <property name="meta.attr.26.stream._STATISTICS_WRITING_DATE_UTC-eng.markup">2019-12-29 15:49:45</property>
  <property name="meta.attr.26.stream._STATISTICS_TAGS-eng.markup">BPS DURATION NUMBER_OF_FRAMES NUMBER_OF_BYTES</property>
  <property name="meta.media.27.codec.name">pgssub</property>
  <property name="meta.media.27.codec.long_name">HDMV Presentation Graphic Stream subtitles</property>
  <property name="meta.media.27.codec.bit_rate">0</property>
  <property name="meta.attr.27.stream.language.markup">rum</property>
  <property name="meta.attr.27.stream.title.markup">Romanian</property>
  <property name="meta.attr.27.stream.BPS-eng.markup">25197</property>
  <property name="meta.attr.27.stream.DURATION-eng.markup">01:35:32.519000000</property>
  <property name="meta.attr.27.stream.NUMBER_OF_FRAMES-eng.markup">1706</property>
  <property name="meta.attr.27.stream.NUMBER_OF_BYTES-eng.markup">18055771</property>
  <property name="meta.attr.27.stream._STATISTICS_WRITING_APP-eng.markup">mkvmerge v40.0.0 ('Old Town Road + Pony') 64-bit</property>
  <property name="meta.attr.27.stream._STATISTICS_WRITING_DATE_UTC-eng.markup">2019-12-29 15:49:45</property>
  <property name="meta.attr.27.stream._STATISTICS_TAGS-eng.markup">BPS DURATION NUMBER_OF_FRAMES NUMBER_OF_BYTES</property>
  <property name="meta.media.28.codec.name">pgssub</property>
  <property name="meta.media.28.codec.long_name">HDMV Presentation Graphic Stream subtitles</property>
  <property name="meta.media.28.codec.bit_rate">0</property>
  <property name="meta.attr.28.stream.language.markup">slv</property>
  <property name="meta.attr.28.stream.title.markup">Slovenian</property>
  <property name="meta.attr.28.stream.BPS-eng.markup">22934</property>
  <property name="meta.attr.28.stream.DURATION-eng.markup">01:33:59.300000000</property>
  <property name="meta.attr.28.stream.NUMBER_OF_FRAMES-eng.markup">1706</property>
  <property name="meta.attr.28.stream.NUMBER_OF_BYTES-eng.markup">16167012</property>
  <property name="meta.attr.28.stream._STATISTICS_WRITING_APP-eng.markup">mkvmerge v40.0.0 ('Old Town Road + Pony') 64-bit</property>
  <property name="meta.attr.28.stream._STATISTICS_WRITING_DATE_UTC-eng.markup">2019-12-29 15:49:45</property>
  <property name="meta.attr.28.stream._STATISTICS_TAGS-eng.markup">BPS DURATION NUMBER_OF_FRAMES NUMBER_OF_BYTES</property>
  <property name="meta.media.29.codec.name">pgssub</property>
  <property name="meta.media.29.codec.long_name">HDMV Presentation Graphic Stream subtitles</property>
  <property name="meta.media.29.codec.bit_rate">0</property>
  <property name="meta.attr.29.stream.language.markup">spa</property>
  <property name="meta.attr.29.stream.title.markup">Spanish (Latin America)</property>
  <property name="meta.attr.29.stream.BPS-eng.markup">25790</property>
  <property name="meta.attr.29.stream.DURATION-eng.markup">01:35:32.519000000</property>
  <property name="meta.attr.29.stream.NUMBER_OF_FRAMES-eng.markup">1699</property>
  <property name="meta.attr.29.stream.NUMBER_OF_BYTES-eng.markup">18480666</property>
  <property name="meta.attr.29.stream._STATISTICS_WRITING_APP-eng.markup">mkvmerge v40.0.0 ('Old Town Road + Pony') 64-bit</property>
  <property name="meta.attr.29.stream._STATISTICS_WRITING_DATE_UTC-eng.markup">2019-12-29 15:49:45</property>
  <property name="meta.attr.29.stream._STATISTICS_TAGS-eng.markup">BPS DURATION NUMBER_OF_FRAMES NUMBER_OF_BYTES</property>
  <property name="meta.media.30.codec.name">pgssub</property>
  <property name="meta.media.30.codec.long_name">HDMV Presentation Graphic Stream subtitles</property>
  <property name="meta.media.30.codec.bit_rate">0</property>
  <property name="meta.attr.30.stream.language.markup">spa</property>
  <property name="meta.attr.30.stream.title.markup">Spanish (Spain)</property>
  <property name="meta.attr.30.stream.BPS-eng.markup">20473</property>
  <property name="meta.attr.30.stream.DURATION-eng.markup">01:33:59.300000000</property>
  <property name="meta.attr.30.stream.NUMBER_OF_FRAMES-eng.markup">1702</property>
  <property name="meta.attr.30.stream.NUMBER_OF_BYTES-eng.markup">14432022</property>
  <property name="meta.attr.30.stream._STATISTICS_WRITING_APP-eng.markup">mkvmerge v40.0.0 ('Old Town Road + Pony') 64-bit</property>
  <property name="meta.attr.30.stream._STATISTICS_WRITING_DATE_UTC-eng.markup">2019-12-29 15:49:45</property>
  <property name="meta.attr.30.stream._STATISTICS_TAGS-eng.markup">BPS DURATION NUMBER_OF_FRAMES NUMBER_OF_BYTES</property>
  <property name="meta.media.31.codec.name">pgssub</property>
  <property name="meta.media.31.codec.long_name">HDMV Presentation Graphic Stream subtitles</property>
  <property name="meta.media.31.codec.bit_rate">0</property>
  <property name="meta.attr.31.stream.language.markup">swe</property>
  <property name="meta.attr.31.stream.title.markup">Swedish</property>
  <property name="meta.attr.31.stream.BPS-eng.markup">19711</property>
  <property name="meta.attr.31.stream.DURATION-eng.markup">01:33:59.675000000</property>
  <property name="meta.attr.31.stream.NUMBER_OF_FRAMES-eng.markup">1184</property>
  <property name="meta.attr.31.stream.NUMBER_OF_BYTES-eng.markup">13895741</property>
  <property name="meta.attr.31.stream._STATISTICS_WRITING_APP-eng.markup">mkvmerge v40.0.0 ('Old Town Road + Pony') 64-bit</property>
  <property name="meta.attr.31.stream._STATISTICS_WRITING_DATE_UTC-eng.markup">2019-12-29 15:49:45</property>
  <property name="meta.attr.31.stream._STATISTICS_TAGS-eng.markup">BPS DURATION NUMBER_OF_FRAMES NUMBER_OF_BYTES</property>
  <property name="meta.media.32.codec.name">pgssub</property>
  <property name="meta.media.32.codec.long_name">HDMV Presentation Graphic Stream subtitles</property>
  <property name="meta.media.32.codec.bit_rate">0</property>
  <property name="meta.attr.32.stream.language.markup">tha</property>
  <property name="meta.attr.32.stream.title.markup">Thai</property>
  <property name="meta.attr.32.stream.BPS-eng.markup">20455</property>
  <property name="meta.attr.32.stream.DURATION-eng.markup">01:44:32.308000000</property>
  <property name="meta.attr.32.stream.NUMBER_OF_FRAMES-eng.markup">1708</property>
  <property name="meta.attr.32.stream.NUMBER_OF_BYTES-eng.markup">16038127</property>
  <property name="meta.attr.32.stream._STATISTICS_WRITING_APP-eng.markup">mkvmerge v40.0.0 ('Old Town Road + Pony') 64-bit</property>
  <property name="meta.attr.32.stream._STATISTICS_WRITING_DATE_UTC-eng.markup">2019-12-29 15:49:45</property>
  <property name="meta.attr.32.stream._STATISTICS_TAGS-eng.markup">BPS DURATION NUMBER_OF_FRAMES NUMBER_OF_BYTES</property>
  <property name="meta.media.33.codec.name">pgssub</property>
  <property name="meta.media.33.codec.long_name">HDMV Presentation Graphic Stream subtitles</property>
  <property name="meta.media.33.codec.bit_rate">0</property>
  <property name="meta.attr.33.stream.language.markup">tur</property>
  <property name="meta.attr.33.stream.title.markup">Turkish</property>
  <property name="meta.attr.33.stream.BPS-eng.markup">22418</property>
  <property name="meta.attr.33.stream.DURATION-eng.markup">01:33:59.217000000</property>
  <property name="meta.attr.33.stream.NUMBER_OF_FRAMES-eng.markup">1674</property>
  <property name="meta.attr.33.stream.NUMBER_OF_BYTES-eng.markup">15802734</property>
  <property name="meta.attr.33.stream._STATISTICS_WRITING_APP-eng.markup">mkvmerge v40.0.0 ('Old Town Road + Pony') 64-bit</property>
  <property name="meta.attr.33.stream._STATISTICS_WRITING_DATE_UTC-eng.markup">2019-12-29 15:49:45</property>
  <property name="meta.attr.33.stream._STATISTICS_TAGS-eng.markup">BPS DURATION NUMBER_OF_FRAMES NUMBER_OF_BYTES</property>
  <property name="meta.media.34.codec.name">srt</property>
  <property name="meta.media.34.codec.long_name">SubRip subtitle</property>
  <property name="meta.media.34.codec.bit_rate">0</property>
  <property name="meta.attr.34.stream.language.markup">eng</property>
  <property name="meta.attr.34.stream.BPS-eng.markup">48</property>
  <property name="meta.attr.34.stream.DURATION-eng.markup">01:33:45.538000000</property>
  <property name="meta.attr.34.stream.NUMBER_OF_FRAMES-eng.markup">842</property>
  <property name="meta.attr.34.stream.NUMBER_OF_BYTES-eng.markup">34158</property>
  <property name="meta.attr.34.stream._STATISTICS_WRITING_APP-eng.markup">mkvmerge v40.0.0 ('Old Town Road + Pony') 64-bit</property>
  <property name="meta.attr.34.stream._STATISTICS_WRITING_DATE_UTC-eng.markup">2019-12-29 15:49:45</property>
  <property name="meta.attr.34.stream._STATISTICS_TAGS-eng.markup">BPS DURATION NUMBER_OF_FRAMES NUMBER_OF_BYTES</property>
  <property name="meta.media.35.codec.name">srt</property>
  <property name="meta.media.35.codec.long_name">SubRip subtitle</property>
  <property name="meta.media.35.codec.bit_rate">0</property>
  <property name="meta.attr.35.stream.language.markup">eng</property>
  <property name="meta.attr.35.stream.title.markup">SDH</property>
  <property name="meta.attr.35.stream.BPS-eng.markup">43</property>
  <property name="meta.attr.35.stream.DURATION-eng.markup">01:31:41.370000000</property>
  <property name="meta.attr.35.stream.NUMBER_OF_FRAMES-eng.markup">833</property>
  <property name="meta.attr.35.stream.NUMBER_OF_BYTES-eng.markup">29767</property>
  <property name="meta.attr.35.stream._STATISTICS_WRITING_APP-eng.markup">mkvmerge v40.0.0 ('Old Town Road + Pony') 64-bit</property>
  <property name="meta.attr.35.stream._STATISTICS_WRITING_DATE_UTC-eng.markup">2019-12-29 15:49:45</property>
  <property name="meta.attr.35.stream._STATISTICS_TAGS-eng.markup">BPS DURATION NUMBER_OF_FRAMES NUMBER_OF_BYTES</property>
  <property name="meta.media.36.codec.name">srt</property>
  <property name="meta.media.36.codec.long_name">SubRip subtitle</property>
  <property name="meta.media.36.codec.bit_rate">0</property>
  <property name="meta.attr.36.stream.language.markup">swe</property>
  <property name="meta.attr.36.stream.BPS-eng.markup">47</property>
  <property name="meta.attr.36.stream.DURATION-eng.markup">01:33:48.363000000</property>
  <property name="meta.attr.36.stream.NUMBER_OF_FRAMES-eng.markup">683</property>
  <property name="meta.attr.36.stream.NUMBER_OF_BYTES-eng.markup">33075</property>
  <property name="meta.attr.36.stream._STATISTICS_WRITING_APP-eng.markup">mkvmerge v40.0.0 ('Old Town Road + Pony') 64-bit</property>
  <property name="meta.attr.36.stream._STATISTICS_WRITING_DATE_UTC-eng.markup">2019-12-29 15:49:45</property>
  <property name="meta.attr.36.stream._STATISTICS_TAGS-eng.markup">BPS DURATION NUMBER_OF_FRAMES NUMBER_OF_BYTES</property>
  <property name="meta.attr.creation_time.markup">2019-12-29T15:49:45.000000Z</property>
  <property name="meta.attr.ENCODER.markup">Lavf58.29.100</property>
  <property name="meta.media.sample_aspect_num">1</property>
  <property name="meta.media.sample_aspect_den">1</property>
  <property name="meta.media.frame_rate_num">24000</property>
  <property name="meta.media.frame_rate_den">1001</property>
  <property name="meta.media.colorspace">709</property>
  <property name="meta.media.color_trc">1</property>
  <property name="meta.media.has_b_frames">2</property>
  <property name="meta.media.width">1916</property>
  <property name="meta.media.height">1036</property>
  <property name="meta.media.aspect_ratio">1</property>
  <property name="meta.media.color_range">mpeg</property>
  <property name="xml">was here</property>
  <property name="mute_on_pause">0</property>
  <property name="meta.media.top_field_first">0</property>
  <property name="meta.media.progressive">1</property>
  <property name="set.test_audio">1</property>
  <property name="set.test_image">0</property>
 </chain>
 <playlist id="playlist12">
  <entry in="00:00:00.000" out="00:00:28.654" producer="chain16">
   <property name="kdenlive:id">4</property>
   <property name="kdenlive:activeeffect">2</property>
   <filter id="filter45">
    <property name="version">0.6</property>
    <property name="mlt_service">frei0r.select0r</property>
    <property name="kdenlive_id">frei0r.select0r</property>
    <property name="Color to select">00:00:00.000=0x00ff00ff</property>
    <property name="Invert selection">1</property>
    <property name="Selection subspace">0</property>
    <property name="Subspace shape">0.5</property>
    <property name="Edge mode">0.9</property>
    <property name="Delta R / A / Hue">00:00:00.000=0.2</property>
    <property name="Delta G / B / Chroma">00:00:00.000=0.2</property>
    <property name="Delta B / I / I">00:00:00.000=0.2</property>
    <property name="Slope">00:00:00.000=0</property>
    <property name="Operation">0.5</property>
   </filter>
   <filter id="filter46">
    <property name="rect">00:00:00.000=0 0 1916 1036</property>
    <property name="circle">0</property>
    <property name="color">00:00:00.000=0x00000000</property>
    <property name="radius">00:00:00.000=0</property>
    <property name="mlt_service">qtcrop</property>
    <property name="kdenlive_id">qtcrop</property>
   </filter>
   <filter id="filter47">
    <property name="color">00:00:00.000=#b4636363</property>
    <property name="radius">00:00:00.000=1</property>
    <property name="x">00:00:00.000=8</property>
    <property name="y">00:00:00.000=8</property>
    <property name="mlt_service">dropshadow</property>
    <property name="kdenlive_id">dropshadow</property>
   </filter>
  </entry>
  <entry in="00:00:54.763" out="00:03:09.218" producer="chain16">
   <property name="kdenlive:id">4</property>
   <filter id="filter48">
    <property name="version">0.6</property>
    <property name="mlt_service">frei0r.select0r</property>
    <property name="kdenlive_id">frei0r.select0r</property>
    <property name="Color to select">00:00:54.763=0x00ff00ff</property>
    <property name="Invert selection">1</property>
    <property name="Selection subspace">0</property>
    <property name="Subspace shape">0.5</property>
    <property name="Edge mode">0.9</property>
    <property name="Delta R / A / Hue">00:00:54.763=0.2</property>
    <property name="Delta G / B / Chroma">00:00:54.763=0.2</property>
    <property name="Delta B / I / I">00:00:54.763=0.2</property>
    <property name="Slope">00:00:54.763=0</property>
    <property name="Operation">0.5</property>
   </filter>
   <filter id="filter49">
    <property name="rect">00:00:54.763=0 0 1916 1036</property>
    <property name="circle">0</property>
    <property name="color">00:00:54.763=0x00000000</property>
    <property name="radius">00:00:54.763=0</property>
    <property name="mlt_service">qtcrop</property>
    <property name="kdenlive_id">qtcrop</property>
   </filter>
   <filter id="filter50">
    <property name="color">00:00:54.763=#b4636363</property>
    <property name="radius">00:00:54.763=1</property>
    <property name="x">00:00:54.763=8</property>
    <property name="y">00:00:54.763=8</property>
    <property name="mlt_service">dropshadow</property>
    <property name="kdenlive_id">dropshadow</property>
   </filter>
  </entry>
  <entry in="00:03:09.259" out="00:08:40.874" producer="chain16">
   <property name="kdenlive:id">4</property>
   <filter id="filter51">
    <property name="version">0.6</property>
    <property name="mlt_service">frei0r.select0r</property>
    <property name="kdenlive_id">frei0r.select0r</property>
    <property name="Color to select">00:03:09.259=0x00ff00ff</property>
    <property name="Invert selection">1</property>
    <property name="Selection subspace">0</property>
    <property name="Subspace shape">0.5</property>
    <property name="Edge mode">0.9</property>
    <property name="Delta R / A / Hue">00:03:09.259=0.2</property>
    <property name="Delta G / B / Chroma">00:03:09.259=0.2</property>
    <property name="Delta B / I / I">00:03:09.259=0.2</property>
    <property name="Slope">00:03:09.259=0</property>
    <property name="Operation">0.5</property>
   </filter>
   <filter id="filter52">
    <property name="rect">00:03:09.259=0 0 1916 1036</property>
    <property name="circle">0</property>
    <property name="color">00:03:09.259=0x00000000</property>
    <property name="radius">00:03:09.259=0</property>
    <property name="mlt_service">qtcrop</property>
    <property name="kdenlive_id">qtcrop</property>
   </filter>
   <filter id="filter53">
    <property name="color">00:03:09.259=#b4636363</property>
    <property name="radius">00:03:09.259=1</property>
    <property name="x">00:03:09.259=8</property>
    <property name="y">00:03:09.259=8</property>
    <property name="mlt_service">dropshadow</property>
    <property name="kdenlive_id">dropshadow</property>
   </filter>
  </entry>
  <entry in="00:08:57.724" out="00:09:20.062" producer="chain16">
   <property name="kdenlive:id">4</property>
  </entry>
  <entry in="00:09:27.569" out="00:09:37.371" producer="chain16">
   <property name="kdenlive:id">4</property>
  </entry>
  <entry in="00:09:47.130" out="00:09:49.800" producer="chain16">
   <property name="kdenlive:id">4</property>
  </entry>
  <entry in="00:09:52.135" out="00:09:59.601" producer="chain16">
   <property name="kdenlive:id">4</property>
  </entry>
  <entry in="00:10:02.127" out="00:10:04.213" producer="chain16">
   <property name="kdenlive:id">4</property>
  </entry>
  <entry in="00:10:08.300" out="00:11:23.148" producer="chain16">
   <property name="kdenlive:id">4</property>
  </entry>
  <entry in="00:12:16.266" out="00:13:15.724" producer="chain16">
   <property name="kdenlive:id">4</property>
  </entry>
  <entry in="00:13:15.766" out="00:13:18.810" producer="chain16">
   <property name="kdenlive:id">4</property>
  </entry>
  <entry in="00:13:36.078" out="00:13:36.703" producer="chain16">
   <property name="kdenlive:id">4</property>
  </entry>
  <entry in="00:13:36.745" out="00:13:37.120" producer="chain16">
   <property name="kdenlive:id">4</property>
  </entry>
  <entry in="00:13:37.162" out="00:13:52.135" producer="chain16">
   <property name="kdenlive:id">4</property>
  </entry>
  <entry in="00:13:57.808" out="00:14:11.637" producer="chain16">
   <property name="kdenlive:id">4</property>
  </entry>
  <entry in="00:14:19.394" out="00:15:47.422" producer="chain16">
   <property name="kdenlive:id">4</property>
  </entry>
  <entry in="00:15:50.342" out="00:15:53.428" producer="chain16">
   <property name="kdenlive:id">4</property>
  </entry>
  <entry in="00:15:58.892" out="00:17:10.844" producer="chain16">
   <property name="kdenlive:id">4</property>
  </entry>
  <entry in="00:17:10.886" out="00:17:15.224" producer="chain16">
   <property name="kdenlive:id">4</property>
  </entry>
  <blank length="00:00:03.086"/>
  <entry in="00:17:49.007" out="00:18:16.266" producer="chain16">
   <property name="kdenlive:id">4</property>
  </entry>
  <entry in="00:20:11.053" out="00:21:04.922" producer="chain16">
   <property name="kdenlive:id">4</property>
   <filter id="filter54" in="00:20:11.053" out="00:20:14.598">
    <property name="start">1</property>
    <property name="level">1</property>
    <property name="mlt_service">brightness</property>
    <property name="kdenlive_id">fade_from_black</property>
    <property name="alpha">00:00:00.000=0;00:00:03.545=1</property>
    <property name="kdenlive:collapsed">0</property>
   </filter>
  </entry>
  <blank length="00:02:11.970"/>
  <entry in="00:23:50.133" out="00:25:19.853" producer="chain16">
   <property name="kdenlive:id">4</property>
  </entry>
  <entry in="00:25:24.358" out="00:26:29.613" producer="chain16">
   <property name="kdenlive:id">4</property>
  </entry>
  <entry in="00:26:43.001" out="00:26:53.220" producer="chain16">
   <property name="kdenlive:id">4</property>
  </entry>
  <entry in="00:27:08.967" out="00:27:14.473" producer="chain16">
   <property name="kdenlive:id">4</property>
  </entry>
  <entry in="00:27:16.433" out="00:27:19.353" producer="chain16">
   <property name="kdenlive:id">4</property>
  </entry>
  <entry in="00:30:42.292" out="00:31:35.702" producer="chain16">
   <property name="kdenlive:id">4</property>
  </entry>
  <entry in="00:31:44.628" out="00:32:06.173" producer="chain16">
   <property name="kdenlive:id">4</property>
  </entry>
  <entry in="00:32:14.723" out="00:42:23.690" producer="chain16">
   <property name="kdenlive:id">4</property>
  </entry>
  <entry in="00:42:27.611" out="00:45:33.158" producer="chain16">
   <property name="kdenlive:id">4</property>
  </entry>
  <entry in="00:45:43.460" out="00:46:13.639" producer="chain16">
   <property name="kdenlive:id">4</property>
  </entry>
  <entry in="00:46:15.849" out="00:49:23.273" producer="chain16">
   <property name="kdenlive:id">4</property>
  </entry>
  <entry in="00:49:44.753" out="00:49:54.680" producer="chain16">
   <property name="kdenlive:id">4</property>
  </entry>
  <entry in="00:49:55.764" out="00:51:03.879" producer="chain16">
   <property name="kdenlive:id">4</property>
  </entry>
  <entry in="00:51:12.888" out="00:51:21.146" producer="chain16">
   <property name="kdenlive:id">4</property>
  </entry>
  <entry in="00:51:35.410" out="00:51:36.119" producer="chain16">
   <property name="kdenlive:id">4</property>
  </entry>
  <entry in="00:51:36.161" out="00:52:15.057" producer="chain16">
   <property name="kdenlive:id">4</property>
  </entry>
  <entry in="00:52:19.561" out="00:54:34.409" producer="chain16">
   <property name="kdenlive:id">4</property>
  </entry>
  <entry in="00:54:46.380" out="00:54:48.882" producer="chain16">
   <property name="kdenlive:id">4</property>
  </entry>
  <entry in="00:54:48.924" out="00:54:50.342" producer="chain16">
   <property name="kdenlive:id">4</property>
  </entry>
  <blank length="00:00:01.710"/>
  <entry in="00:55:06.089" out="00:58:43.335" producer="chain16">
   <property name="kdenlive:id">4</property>
  </entry>
  <entry in="00:58:43.377" out="00:58:45.212" producer="chain16">
   <property name="kdenlive:id">4</property>
  </entry>
  <entry in="00:59:06.006" out="00:59:07.299" producer="chain16">
   <property name="kdenlive:id">4</property>
  </entry>
  <entry in="00:59:07.341" out="00:59:26.902" producer="chain16">
   <property name="kdenlive:id">4</property>
  </entry>
  <entry in="00:59:40.582" out="01:01:30.405" producer="chain16">
   <property name="kdenlive:id">4</property>
  </entry>
  <entry in="01:01:43.543" out="01:03:21.563" producer="chain16">
   <property name="kdenlive:id">4</property>
  </entry>
  <entry in="01:03:26.235" out="01:03:28.362" producer="chain16">
   <property name="kdenlive:id">4</property>
  </entry>
  <entry in="01:03:28.779" out="01:03:56.014" producer="chain16">
   <property name="kdenlive:id">4</property>
  </entry>
  <entry in="01:04:17.142" out="01:05:11.470" producer="chain16">
   <property name="kdenlive:id">4</property>
  </entry>
  <entry in="01:05:12.930" out="01:05:14.139" producer="chain16">
   <property name="kdenlive:id">4</property>
  </entry>
  <entry in="01:05:11.470" out="01:05:12.846" producer="chain16">
   <property name="kdenlive:id">4</property>
  </entry>
  <entry in="01:05:14.181" out="01:05:15.933" producer="chain16">
   <property name="kdenlive:id">4</property>
  </entry>
  <entry in="01:05:15.974" out="01:06:20.395" producer="chain16">
   <property name="kdenlive:id">4</property>
  </entry>
  <entry in="01:06:35.077" out="01:08:25.692" producer="chain16">
   <property name="kdenlive:id">4</property>
  </entry>
  <entry in="01:08:42.209" out="01:10:53.428" producer="chain16">
   <property name="kdenlive:id">4</property>
  </entry>
  <entry in="01:10:53.470" out="01:11:01.168" producer="chain16">
   <property name="kdenlive:id">4</property>
  </entry>
  <entry in="01:12:19.811" out="01:14:44.503" producer="chain16">
   <property name="kdenlive:id">4</property>
  </entry>
  <entry in="01:15:02.294" out="01:15:06.715" producer="chain16">
   <property name="kdenlive:id">4</property>
  </entry>
  <entry in="01:15:06.757" out="01:24:13.555" producer="chain16">
   <property name="kdenlive:id">4</property>
  </entry>
  <entry in="01:24:21.063" out="01:28:40.916" producer="chain16">
   <property name="kdenlive:id">4</property>
  </entry>
  <entry in="01:28:52.552" out="01:29:00.876" producer="chain16">
   <property name="kdenlive:id">4</property>
  </entry>
  <entry in="01:29:11.011" out="01:29:18.518" producer="chain16">
   <property name="kdenlive:id">4</property>
  </entry>
  <entry in="01:29:39.248" out="01:30:28.487" producer="chain16">
   <property name="kdenlive:id">4</property>
  </entry>
  <entry in="01:30:35.327" out="01:32:48.674" producer="chain16">
   <property name="kdenlive:id">4</property>
  </entry>
  <entry in="01:32:48.715" out="01:33:09.009" producer="chain16">
   <property name="kdenlive:id">4</property>
  </entry>
  <entry in="01:33:14.056" out="01:33:37.454" producer="chain16">
   <property name="kdenlive:id">4</property>
  </entry>
  <entry in="01:33:37.496" out="01:33:50.592" producer="chain16">
   <property name="kdenlive:id">4</property>
  </entry>
  <entry in="01:33:50.634" out="01:33:55.222" producer="chain16">
   <property name="kdenlive:id">4</property>
  </entry>
  <entry in="01:33:55.264" out="01:33:59.518" producer="chain16">
   <property name="kdenlive:id">4</property>
  </entry>
  <entry in="01:34:10.677" out="01:34:19.102" producer="chain16">
   <property name="kdenlive:id">4</property>
  </entry>
  <entry in="01:34:19.144" out="01:34:22.272" producer="chain16">
   <property name="kdenlive:id">4</property>
  </entry>
  <entry in="01:34:22.314" out="01:34:23.607" producer="chain16">
   <property name="kdenlive:id">4</property>
  </entry>
  <entry in="01:34:23.649" out="01:37:13.513" producer="chain16">
   <property name="kdenlive:id">4</property>
  </entry>
  <entry in="01:37:20.229" out="01:42:14.014" producer="chain16">
   <property name="kdenlive:id">4</property>
  </entry>
  <entry in="01:42:14.056" out="01:45:58.350" producer="chain16">
   <property name="kdenlive:id">4</property>
  </entry>
 </playlist>
 <chain id="chain10" out="01:45:58.350">
  <property name="length">152448</property>
  <property name="eof">pause</property>
  <property name="resource">N:/Videos/Horror and SciFi/Final Fantasy/Final.Fantasy.The.Spirits.Within.2001.1080p.BluRay.HEVC.DTS-LiNUX/Final.Fantasy.The.Spirits.Within.2001.1080p.BluRay.HEVC.DTS-LiNUX.mkv</property>
  <property name="mlt_service">avformat-novalidate</property>
  <property name="seekable">1</property>
  <property name="audio_index">1</property>
  <property name="video_index">0</property>
  <property name="vstream">0</property>
  <property name="astream">0</property>
  <property name="kdenlive:control_uuid">{193136b1-969a-4943-bfcd-55058a6808f2}</property>
  <property name="kdenlive:id">4</property>
  <property name="kdenlive:clip_type">0</property>
  <property name="kdenlive:file_size">5331297763</property>
  <property name="kdenlive:file_hash">691e768d68c55b9a28cb9a278fdc8b17</property>
  <property name="kdenlive:folderid">-1</property>
  <property name="kdenlive:monitorPosition">0</property>
  <property name="mute_on_pause">0</property>
  <property name="meta.media.nb_streams">37</property>
  <property name="meta.media.0.stream.type">video</property>
  <property name="meta.media.0.stream.frame_rate">23.976</property>
  <property name="meta.media.0.stream.sample_aspect_ratio">1</property>
  <property name="meta.media.0.codec.width">1916</property>
  <property name="meta.media.0.codec.height">1036</property>
  <property name="meta.media.0.codec.rotate">0</property>
  <property name="meta.media.0.codec.pix_fmt">yuv420p10le</property>
  <property name="meta.media.0.codec.sample_aspect_ratio">1</property>
  <property name="meta.media.0.codec.colorspace">709</property>
  <property name="meta.media.0.codec.color_trc">1</property>
  <property name="meta.media.0.codec.name">hevc</property>
  <property name="meta.media.0.codec.long_name">HEVC (High Efficiency Video Coding)</property>
  <property name="meta.media.0.codec.bit_rate">0</property>
  <property name="meta.attr.0.stream.BPS-eng.markup">4999776</property>
  <property name="meta.attr.0.stream.DURATION-eng.markup">01:45:58.352000000</property>
  <property name="meta.attr.0.stream.NUMBER_OF_FRAMES-eng.markup">152448</property>
  <property name="meta.attr.0.stream.NUMBER_OF_BYTES-eng.markup">3973792365</property>
  <property name="meta.attr.0.stream._STATISTICS_WRITING_APP-eng.markup">mkvmerge v40.0.0 ('Old Town Road + Pony') 64-bit</property>
  <property name="meta.attr.0.stream._STATISTICS_WRITING_DATE_UTC-eng.markup">2019-12-29 15:49:45</property>
  <property name="meta.attr.0.stream._STATISTICS_TAGS-eng.markup">BPS DURATION NUMBER_OF_FRAMES NUMBER_OF_BYTES</property>
  <property name="meta.media.1.stream.type">audio</property>
  <property name="meta.media.1.codec.sample_fmt">fltp</property>
  <property name="meta.media.1.codec.sample_rate">48000</property>
  <property name="meta.media.1.codec.channels">6</property>
  <property name="meta.media.1.codec.layout">5.1(side)</property>
  <property name="meta.media.1.codec.name">dca</property>
  <property name="meta.media.1.codec.long_name">DCA (DTS Coherent Acoustics)</property>
  <property name="meta.media.1.codec.bit_rate">1411200</property>
  <property name="meta.attr.1.stream.language.markup">eng</property>
  <property name="meta.attr.1.stream.title.markup">Surround</property>
  <property name="meta.attr.1.stream.BPS-eng.markup">1412999</property>
  <property name="meta.attr.1.stream.DURATION-eng.markup">01:45:58.358000000</property>
  <property name="meta.attr.1.stream.NUMBER_OF_FRAMES-eng.markup">596096</property>
  <property name="meta.attr.1.stream.NUMBER_OF_BYTES-eng.markup">1123044864</property>
  <property name="meta.attr.1.stream._STATISTICS_WRITING_APP-eng.markup">mkvmerge v40.0.0 ('Old Town Road + Pony') 64-bit</property>
  <property name="meta.attr.1.stream._STATISTICS_WRITING_DATE_UTC-eng.markup">2019-12-29 15:49:45</property>
  <property name="meta.attr.1.stream._STATISTICS_TAGS-eng.markup">BPS DURATION NUMBER_OF_FRAMES NUMBER_OF_BYTES</property>
  <property name="meta.media.2.codec.name">pgssub</property>
  <property name="meta.media.2.codec.long_name">HDMV Presentation Graphic Stream subtitles</property>
  <property name="meta.media.2.codec.bit_rate">0</property>
  <property name="meta.attr.2.stream.language.markup">eng</property>
  <property name="meta.attr.2.stream.title.markup">English</property>
  <property name="meta.attr.2.stream.BPS-eng.markup">24594</property>
  <property name="meta.attr.2.stream.DURATION-eng.markup">01:33:45.954000000</property>
  <property name="meta.attr.2.stream.NUMBER_OF_FRAMES-eng.markup">1686</property>
  <property name="meta.attr.2.stream.NUMBER_OF_BYTES-eng.markup">17296140</property>
  <property name="meta.attr.2.stream._STATISTICS_WRITING_APP-eng.markup">mkvmerge v40.0.0 ('Old Town Road + Pony') 64-bit</property>
  <property name="meta.attr.2.stream._STATISTICS_WRITING_DATE_UTC-eng.markup">2019-12-29 15:49:45</property>
  <property name="meta.attr.2.stream._STATISTICS_TAGS-eng.markup">BPS DURATION NUMBER_OF_FRAMES NUMBER_OF_BYTES</property>
  <property name="meta.media.3.codec.name">pgssub</property>
  <property name="meta.media.3.codec.long_name">HDMV Presentation Graphic Stream subtitles</property>
  <property name="meta.media.3.codec.bit_rate">0</property>
  <property name="meta.attr.3.stream.language.markup">eng</property>
  <property name="meta.attr.3.stream.title.markup">English SDH</property>
  <property name="meta.attr.3.stream.BPS-eng.markup">32739</property>
  <property name="meta.attr.3.stream.DURATION-eng.markup">01:41:48.102000000</property>
  <property name="meta.attr.3.stream.NUMBER_OF_FRAMES-eng.markup">2103</property>
  <property name="meta.attr.3.stream.NUMBER_OF_BYTES-eng.markup">24997093</property>
  <property name="meta.attr.3.stream._STATISTICS_WRITING_APP-eng.markup">mkvmerge v40.0.0 ('Old Town Road + Pony') 64-bit</property>
  <property name="meta.attr.3.stream._STATISTICS_WRITING_DATE_UTC-eng.markup">2019-12-29 15:49:45</property>
  <property name="meta.attr.3.stream._STATISTICS_TAGS-eng.markup">BPS DURATION NUMBER_OF_FRAMES NUMBER_OF_BYTES</property>
  <property name="meta.media.4.codec.name">pgssub</property>
  <property name="meta.media.4.codec.long_name">HDMV Presentation Graphic Stream subtitles</property>
  <property name="meta.media.4.codec.bit_rate">0</property>
  <property name="meta.attr.4.stream.language.markup">ara</property>
  <property name="meta.attr.4.stream.title.markup">Arabic</property>
  <property name="meta.attr.4.stream.BPS-eng.markup">13581</property>
  <property name="meta.attr.4.stream.DURATION-eng.markup">01:33:59.217000000</property>
  <property name="meta.attr.4.stream.NUMBER_OF_FRAMES-eng.markup">1690</property>
  <property name="meta.attr.4.stream.NUMBER_OF_BYTES-eng.markup">9573918</property>
  <property name="meta.attr.4.stream._STATISTICS_WRITING_APP-eng.markup">mkvmerge v40.0.0 ('Old Town Road + Pony') 64-bit</property>
  <property name="meta.attr.4.stream._STATISTICS_WRITING_DATE_UTC-eng.markup">2019-12-29 15:49:45</property>
  <property name="meta.attr.4.stream._STATISTICS_TAGS-eng.markup">BPS DURATION NUMBER_OF_FRAMES NUMBER_OF_BYTES</property>
  <property name="meta.media.5.codec.name">pgssub</property>
  <property name="meta.media.5.codec.long_name">HDMV Presentation Graphic Stream subtitles</property>
  <property name="meta.media.5.codec.bit_rate">0</property>
  <property name="meta.attr.5.stream.language.markup">bul</property>
  <property name="meta.attr.5.stream.title.markup">Bulgarian</property>
  <property name="meta.attr.5.stream.BPS-eng.markup">23121</property>
  <property name="meta.attr.5.stream.DURATION-eng.markup">01:35:32.310000000</property>
  <property name="meta.attr.5.stream.NUMBER_OF_FRAMES-eng.markup">1656</property>
  <property name="meta.attr.5.stream.NUMBER_OF_BYTES-eng.markup">16567112</property>
  <property name="meta.attr.5.stream._STATISTICS_WRITING_APP-eng.markup">mkvmerge v40.0.0 ('Old Town Road + Pony') 64-bit</property>
  <property name="meta.attr.5.stream._STATISTICS_WRITING_DATE_UTC-eng.markup">2019-12-29 15:49:45</property>
  <property name="meta.attr.5.stream._STATISTICS_TAGS-eng.markup">BPS DURATION NUMBER_OF_FRAMES NUMBER_OF_BYTES</property>
  <property name="meta.media.6.codec.name">pgssub</property>
  <property name="meta.media.6.codec.long_name">HDMV Presentation Graphic Stream subtitles</property>
  <property name="meta.media.6.codec.bit_rate">0</property>
  <property name="meta.attr.6.stream.language.markup">chi</property>
  <property name="meta.attr.6.stream.title.markup">Cantonese</property>
  <property name="meta.attr.6.stream.BPS-eng.markup">19607</property>
  <property name="meta.attr.6.stream.DURATION-eng.markup">01:42:59.006000000</property>
  <property name="meta.attr.6.stream.NUMBER_OF_FRAMES-eng.markup">1709</property>
  <property name="meta.attr.6.stream.NUMBER_OF_BYTES-eng.markup">15144515</property>
  <property name="meta.attr.6.stream._STATISTICS_WRITING_APP-eng.markup">mkvmerge v40.0.0 ('Old Town Road + Pony') 64-bit</property>
  <property name="meta.attr.6.stream._STATISTICS_WRITING_DATE_UTC-eng.markup">2019-12-29 15:49:45</property>
  <property name="meta.attr.6.stream._STATISTICS_TAGS-eng.markup">BPS DURATION NUMBER_OF_FRAMES NUMBER_OF_BYTES</property>
  <property name="meta.media.7.codec.name">pgssub</property>
  <property name="meta.media.7.codec.long_name">HDMV Presentation Graphic Stream subtitles</property>
  <property name="meta.media.7.codec.bit_rate">0</property>
  <property name="meta.attr.7.stream.language.markup">chi</property>
  <property name="meta.attr.7.stream.title.markup">Mandarin</property>
  <property name="meta.attr.7.stream.BPS-eng.markup">21248</property>
  <property name="meta.attr.7.stream.DURATION-eng.markup">01:33:59.258000000</property>
  <property name="meta.attr.7.stream.NUMBER_OF_FRAMES-eng.markup">1704</property>
  <property name="meta.attr.7.stream.NUMBER_OF_BYTES-eng.markup">14978356</property>
  <property name="meta.attr.7.stream._STATISTICS_WRITING_APP-eng.markup">mkvmerge v40.0.0 ('Old Town Road + Pony') 64-bit</property>
  <property name="meta.attr.7.stream._STATISTICS_WRITING_DATE_UTC-eng.markup">2019-12-29 15:49:45</property>
  <property name="meta.attr.7.stream._STATISTICS_TAGS-eng.markup">BPS DURATION NUMBER_OF_FRAMES NUMBER_OF_BYTES</property>
  <property name="meta.media.8.codec.name">pgssub</property>
  <property name="meta.media.8.codec.long_name">HDMV Presentation Graphic Stream subtitles</property>
  <property name="meta.media.8.codec.bit_rate">0</property>
  <property name="meta.attr.8.stream.language.markup">hrv</property>
  <property name="meta.attr.8.stream.title.markup">Croatian</property>
  <property name="meta.attr.8.stream.BPS-eng.markup">18941</property>
  <property name="meta.attr.8.stream.DURATION-eng.markup">01:33:59.383000000</property>
  <property name="meta.attr.8.stream.NUMBER_OF_FRAMES-eng.markup">1355</property>
  <property name="meta.attr.8.stream.NUMBER_OF_BYTES-eng.markup">13352216</property>
  <property name="meta.attr.8.stream._STATISTICS_WRITING_APP-eng.markup">mkvmerge v40.0.0 ('Old Town Road + Pony') 64-bit</property>
  <property name="meta.attr.8.stream._STATISTICS_WRITING_DATE_UTC-eng.markup">2019-12-29 15:49:45</property>
  <property name="meta.attr.8.stream._STATISTICS_TAGS-eng.markup">BPS DURATION NUMBER_OF_FRAMES NUMBER_OF_BYTES</property>
  <property name="meta.media.9.codec.name">pgssub</property>
  <property name="meta.media.9.codec.long_name">HDMV Presentation Graphic Stream subtitles</property>
  <property name="meta.media.9.codec.bit_rate">0</property>
  <property name="meta.attr.9.stream.language.markup">cze</property>
  <property name="meta.attr.9.stream.title.markup">Czech</property>
  <property name="meta.attr.9.stream.BPS-eng.markup">21071</property>
  <property name="meta.attr.9.stream.DURATION-eng.markup">01:33:59.300000000</property>
  <property name="meta.attr.9.stream.NUMBER_OF_FRAMES-eng.markup">1688</property>
  <property name="meta.attr.9.stream.NUMBER_OF_BYTES-eng.markup">14853464</property>
  <property name="meta.attr.9.stream._STATISTICS_WRITING_APP-eng.markup">mkvmerge v40.0.0 ('Old Town Road + Pony') 64-bit</property>
  <property name="meta.attr.9.stream._STATISTICS_WRITING_DATE_UTC-eng.markup">2019-12-29 15:49:45</property>
  <property name="meta.attr.9.stream._STATISTICS_TAGS-eng.markup">BPS DURATION NUMBER_OF_FRAMES NUMBER_OF_BYTES</property>
  <property name="meta.media.10.codec.name">pgssub</property>
  <property name="meta.media.10.codec.long_name">HDMV Presentation Graphic Stream subtitles</property>
  <property name="meta.media.10.codec.bit_rate">0</property>
  <property name="meta.attr.10.stream.language.markup">dan</property>
  <property name="meta.attr.10.stream.title.markup">Danish</property>
  <property name="meta.attr.10.stream.BPS-eng.markup">20546</property>
  <property name="meta.attr.10.stream.DURATION-eng.markup">01:33:59.717000000</property>
  <property name="meta.attr.10.stream.NUMBER_OF_FRAMES-eng.markup">1184</property>
  <property name="meta.attr.10.stream.NUMBER_OF_BYTES-eng.markup">14484283</property>
  <property name="meta.attr.10.stream._STATISTICS_WRITING_APP-eng.markup">mkvmerge v40.0.0 ('Old Town Road + Pony') 64-bit</property>
  <property name="meta.attr.10.stream._STATISTICS_WRITING_DATE_UTC-eng.markup">2019-12-29 15:49:45</property>
  <property name="meta.attr.10.stream._STATISTICS_TAGS-eng.markup">BPS DURATION NUMBER_OF_FRAMES NUMBER_OF_BYTES</property>
  <property name="meta.media.11.codec.name">pgssub</property>
  <property name="meta.media.11.codec.long_name">HDMV Presentation Graphic Stream subtitles</property>
  <property name="meta.media.11.codec.bit_rate">0</property>
  <property name="meta.attr.11.stream.language.markup">dut</property>
  <property name="meta.attr.11.stream.title.markup">Dutch</property>
  <property name="meta.attr.11.stream.BPS-eng.markup">23897</property>
  <property name="meta.attr.11.stream.DURATION-eng.markup">01:33:59.675000000</property>
  <property name="meta.attr.11.stream.NUMBER_OF_FRAMES-eng.markup">1258</property>
  <property name="meta.attr.11.stream.NUMBER_OF_BYTES-eng.markup">16846710</property>
  <property name="meta.attr.11.stream._STATISTICS_WRITING_APP-eng.markup">mkvmerge v40.0.0 ('Old Town Road + Pony') 64-bit</property>
  <property name="meta.attr.11.stream._STATISTICS_WRITING_DATE_UTC-eng.markup">2019-12-29 15:49:45</property>
  <property name="meta.attr.11.stream._STATISTICS_TAGS-eng.markup">BPS DURATION NUMBER_OF_FRAMES NUMBER_OF_BYTES</property>
  <property name="meta.media.12.codec.name">pgssub</property>
  <property name="meta.media.12.codec.long_name">HDMV Presentation Graphic Stream subtitles</property>
  <property name="meta.media.12.codec.bit_rate">0</property>
  <property name="meta.attr.12.stream.language.markup">fin</property>
  <property name="meta.attr.12.stream.title.markup">Finnish</property>
  <property name="meta.attr.12.stream.BPS-eng.markup">20857</property>
  <property name="meta.attr.12.stream.DURATION-eng.markup">01:34:00.718000000</property>
  <property name="meta.attr.12.stream.NUMBER_OF_FRAMES-eng.markup">1209</property>
  <property name="meta.attr.12.stream.NUMBER_OF_BYTES-eng.markup">14706553</property>
  <property name="meta.attr.12.stream._STATISTICS_WRITING_APP-eng.markup">mkvmerge v40.0.0 ('Old Town Road + Pony') 64-bit</property>
  <property name="meta.attr.12.stream._STATISTICS_WRITING_DATE_UTC-eng.markup">2019-12-29 15:49:45</property>
  <property name="meta.attr.12.stream._STATISTICS_TAGS-eng.markup">BPS DURATION NUMBER_OF_FRAMES NUMBER_OF_BYTES</property>
  <property name="meta.media.13.codec.name">pgssub</property>
  <property name="meta.media.13.codec.long_name">HDMV Presentation Graphic Stream subtitles</property>
  <property name="meta.media.13.codec.bit_rate">0</property>
  <property name="meta.attr.13.stream.language.markup">fre</property>
  <property name="meta.attr.13.stream.title.markup">French</property>
  <property name="meta.attr.13.stream.BPS-eng.markup">21198</property>
  <property name="meta.attr.13.stream.DURATION-eng.markup">01:43:41.006000000</property>
  <property name="meta.attr.13.stream.NUMBER_OF_FRAMES-eng.markup">1642</property>
  <property name="meta.attr.13.stream.NUMBER_OF_BYTES-eng.markup">16484862</property>
  <property name="meta.attr.13.stream._STATISTICS_WRITING_APP-eng.markup">mkvmerge v40.0.0 ('Old Town Road + Pony') 64-bit</property>
  <property name="meta.attr.13.stream._STATISTICS_WRITING_DATE_UTC-eng.markup">2019-12-29 15:49:45</property>
  <property name="meta.attr.13.stream._STATISTICS_TAGS-eng.markup">BPS DURATION NUMBER_OF_FRAMES NUMBER_OF_BYTES</property>
  <property name="meta.media.14.codec.name">pgssub</property>
  <property name="meta.media.14.codec.long_name">HDMV Presentation Graphic Stream subtitles</property>
  <property name="meta.media.14.codec.bit_rate">0</property>
  <property name="meta.attr.14.stream.language.markup">ger</property>
  <property name="meta.attr.14.stream.title.markup">German</property>
  <property name="meta.attr.14.stream.BPS-eng.markup">24239</property>
  <property name="meta.attr.14.stream.DURATION-eng.markup">01:34:00.260000000</property>
  <property name="meta.attr.14.stream.NUMBER_OF_FRAMES-eng.markup">1493</property>
  <property name="meta.attr.14.stream.NUMBER_OF_BYTES-eng.markup">17089540</property>
  <property name="meta.attr.14.stream._STATISTICS_WRITING_APP-eng.markup">mkvmerge v40.0.0 ('Old Town Road + Pony') 64-bit</property>
  <property name="meta.attr.14.stream._STATISTICS_WRITING_DATE_UTC-eng.markup">2019-12-29 15:49:45</property>
  <property name="meta.attr.14.stream._STATISTICS_TAGS-eng.markup">BPS DURATION NUMBER_OF_FRAMES NUMBER_OF_BYTES</property>
  <property name="meta.media.15.codec.name">pgssub</property>
  <property name="meta.media.15.codec.long_name">HDMV Presentation Graphic Stream subtitles</property>
  <property name="meta.media.15.codec.bit_rate">0</property>
  <property name="meta.attr.15.stream.language.markup">gre</property>
  <property name="meta.attr.15.stream.title.markup">Greek</property>
  <property name="meta.attr.15.stream.BPS-eng.markup">24963</property>
  <property name="meta.attr.15.stream.DURATION-eng.markup">01:33:59.300000000</property>
  <property name="meta.attr.15.stream.NUMBER_OF_FRAMES-eng.markup">1694</property>
  <property name="meta.attr.15.stream.NUMBER_OF_BYTES-eng.markup">17597238</property>
  <property name="meta.attr.15.stream._STATISTICS_WRITING_APP-eng.markup">mkvmerge v40.0.0 ('Old Town Road + Pony') 64-bit</property>
  <property name="meta.attr.15.stream._STATISTICS_WRITING_DATE_UTC-eng.markup">2019-12-29 15:49:45</property>
  <property name="meta.attr.15.stream._STATISTICS_TAGS-eng.markup">BPS DURATION NUMBER_OF_FRAMES NUMBER_OF_BYTES</property>
  <property name="meta.media.16.codec.name">pgssub</property>
  <property name="meta.media.16.codec.long_name">HDMV Presentation Graphic Stream subtitles</property>
  <property name="meta.media.16.codec.bit_rate">0</property>
  <property name="meta.attr.16.stream.language.markup">heb</property>
  <property name="meta.attr.16.stream.title.markup">Hebrew</property>
  <property name="meta.attr.16.stream.BPS-eng.markup">18470</property>
  <property name="meta.attr.16.stream.DURATION-eng.markup">01:33:59.217000000</property>
  <property name="meta.attr.16.stream.NUMBER_OF_FRAMES-eng.markup">1688</property>
  <property name="meta.attr.16.stream.NUMBER_OF_BYTES-eng.markup">13019656</property>
  <property name="meta.attr.16.stream._STATISTICS_WRITING_APP-eng.markup">mkvmerge v40.0.0 ('Old Town Road + Pony') 64-bit</property>
  <property name="meta.attr.16.stream._STATISTICS_WRITING_DATE_UTC-eng.markup">2019-12-29 15:49:45</property>
  <property name="meta.attr.16.stream._STATISTICS_TAGS-eng.markup">BPS DURATION NUMBER_OF_FRAMES NUMBER_OF_BYTES</property>
  <property name="meta.media.17.codec.name">pgssub</property>
  <property name="meta.media.17.codec.long_name">HDMV Presentation Graphic Stream subtitles</property>
  <property name="meta.media.17.codec.bit_rate">0</property>
  <property name="meta.attr.17.stream.language.markup">hin</property>
  <property name="meta.attr.17.stream.title.markup">Hindi</property>
  <property name="meta.attr.17.stream.BPS-eng.markup">21017</property>
  <property name="meta.attr.17.stream.DURATION-eng.markup">01:33:59.300000000</property>
  <property name="meta.attr.17.stream.NUMBER_OF_FRAMES-eng.markup">1690</property>
  <property name="meta.attr.17.stream.NUMBER_OF_BYTES-eng.markup">14815519</property>
  <property name="meta.attr.17.stream._STATISTICS_WRITING_APP-eng.markup">mkvmerge v40.0.0 ('Old Town Road + Pony') 64-bit</property>
  <property name="meta.attr.17.stream._STATISTICS_WRITING_DATE_UTC-eng.markup">2019-12-29 15:49:45</property>
  <property name="meta.attr.17.stream._STATISTICS_TAGS-eng.markup">BPS DURATION NUMBER_OF_FRAMES NUMBER_OF_BYTES</property>
  <property name="meta.media.18.codec.name">pgssub</property>
  <property name="meta.media.18.codec.long_name">HDMV Presentation Graphic Stream subtitles</property>
  <property name="meta.media.18.codec.bit_rate">0</property>
  <property name="meta.attr.18.stream.language.markup">hun</property>
  <property name="meta.attr.18.stream.title.markup">Hungarian</property>
  <property name="meta.attr.18.stream.BPS-eng.markup">19042</property>
  <property name="meta.attr.18.stream.DURATION-eng.markup">01:33:59.175000000</property>
  <property name="meta.attr.18.stream.NUMBER_OF_FRAMES-eng.markup">1690</property>
  <property name="meta.attr.18.stream.NUMBER_OF_BYTES-eng.markup">13423018</property>
  <property name="meta.attr.18.stream._STATISTICS_WRITING_APP-eng.markup">mkvmerge v40.0.0 ('Old Town Road + Pony') 64-bit</property>
  <property name="meta.attr.18.stream._STATISTICS_WRITING_DATE_UTC-eng.markup">2019-12-29 15:49:45</property>
  <property name="meta.attr.18.stream._STATISTICS_TAGS-eng.markup">BPS DURATION NUMBER_OF_FRAMES NUMBER_OF_BYTES</property>
  <property name="meta.media.19.codec.name">pgssub</property>
  <property name="meta.media.19.codec.long_name">HDMV Presentation Graphic Stream subtitles</property>
  <property name="meta.media.19.codec.bit_rate">0</property>
  <property name="meta.attr.19.stream.language.markup">ice</property>
  <property name="meta.attr.19.stream.title.markup">Icelandic</property>
  <property name="meta.attr.19.stream.BPS-eng.markup">23876</property>
  <property name="meta.attr.19.stream.DURATION-eng.markup">01:33:59.217000000</property>
  <property name="meta.attr.19.stream.NUMBER_OF_FRAMES-eng.markup">1688</property>
  <property name="meta.attr.19.stream.NUMBER_OF_BYTES-eng.markup">16830422</property>
  <property name="meta.attr.19.stream._STATISTICS_WRITING_APP-eng.markup">mkvmerge v40.0.0 ('Old Town Road + Pony') 64-bit</property>
  <property name="meta.attr.19.stream._STATISTICS_WRITING_DATE_UTC-eng.markup">2019-12-29 15:49:45</property>
  <property name="meta.attr.19.stream._STATISTICS_TAGS-eng.markup">BPS DURATION NUMBER_OF_FRAMES NUMBER_OF_BYTES</property>
  <property name="meta.media.20.codec.name">pgssub</property>
  <property name="meta.media.20.codec.long_name">HDMV Presentation Graphic Stream subtitles</property>
  <property name="meta.media.20.codec.bit_rate">0</property>
  <property name="meta.attr.20.stream.language.markup">ind</property>
  <property name="meta.attr.20.stream.title.markup">Indonesian</property>
  <property name="meta.attr.20.stream.BPS-eng.markup">26444</property>
  <property name="meta.attr.20.stream.DURATION-eng.markup">01:33:59.300000000</property>
  <property name="meta.attr.20.stream.NUMBER_OF_FRAMES-eng.markup">1662</property>
  <property name="meta.attr.20.stream.NUMBER_OF_BYTES-eng.markup">18640975</property>
  <property name="meta.attr.20.stream._STATISTICS_WRITING_APP-eng.markup">mkvmerge v40.0.0 ('Old Town Road + Pony') 64-bit</property>
  <property name="meta.attr.20.stream._STATISTICS_WRITING_DATE_UTC-eng.markup">2019-12-29 15:49:45</property>
  <property name="meta.attr.20.stream._STATISTICS_TAGS-eng.markup">BPS DURATION NUMBER_OF_FRAMES NUMBER_OF_BYTES</property>
  <property name="meta.media.21.codec.name">pgssub</property>
  <property name="meta.media.21.codec.long_name">HDMV Presentation Graphic Stream subtitles</property>
  <property name="meta.media.21.codec.bit_rate">0</property>
  <property name="meta.attr.21.stream.language.markup">ita</property>
  <property name="meta.attr.21.stream.title.markup">Italian</property>
  <property name="meta.attr.21.stream.BPS-eng.markup">23573</property>
  <property name="meta.attr.21.stream.DURATION-eng.markup">01:42:58.922000000</property>
  <property name="meta.attr.21.stream.NUMBER_OF_FRAMES-eng.markup">1698</property>
  <property name="meta.attr.21.stream.NUMBER_OF_BYTES-eng.markup">18207609</property>
  <property name="meta.attr.21.stream._STATISTICS_WRITING_APP-eng.markup">mkvmerge v40.0.0 ('Old Town Road + Pony') 64-bit</property>
  <property name="meta.attr.21.stream._STATISTICS_WRITING_DATE_UTC-eng.markup">2019-12-29 15:49:45</property>
  <property name="meta.attr.21.stream._STATISTICS_TAGS-eng.markup">BPS DURATION NUMBER_OF_FRAMES NUMBER_OF_BYTES</property>
  <property name="meta.media.22.codec.name">pgssub</property>
  <property name="meta.media.22.codec.long_name">HDMV Presentation Graphic Stream subtitles</property>
  <property name="meta.media.22.codec.bit_rate">0</property>
  <property name="meta.attr.22.stream.language.markup">kor</property>
  <property name="meta.attr.22.stream.title.markup">Korean</property>
  <property name="meta.attr.22.stream.BPS-eng.markup">19788</property>
  <property name="meta.attr.22.stream.DURATION-eng.markup">01:35:32.477000000</property>
  <property name="meta.attr.22.stream.NUMBER_OF_FRAMES-eng.markup">1708</property>
  <property name="meta.attr.22.stream.NUMBER_OF_BYTES-eng.markup">14179403</property>
  <property name="meta.attr.22.stream._STATISTICS_WRITING_APP-eng.markup">mkvmerge v40.0.0 ('Old Town Road + Pony') 64-bit</property>
  <property name="meta.attr.22.stream._STATISTICS_WRITING_DATE_UTC-eng.markup">2019-12-29 15:49:45</property>
  <property name="meta.attr.22.stream._STATISTICS_TAGS-eng.markup">BPS DURATION NUMBER_OF_FRAMES NUMBER_OF_BYTES</property>
  <property name="meta.media.23.codec.name">pgssub</property>
  <property name="meta.media.23.codec.long_name">HDMV Presentation Graphic Stream subtitles</property>
  <property name="meta.media.23.codec.bit_rate">0</property>
  <property name="meta.attr.23.stream.language.markup">nor</property>
  <property name="meta.attr.23.stream.title.markup">Norwegian</property>
  <property name="meta.attr.23.stream.BPS-eng.markup">20066</property>
  <property name="meta.attr.23.stream.DURATION-eng.markup">01:33:59.675000000</property>
  <property name="meta.attr.23.stream.NUMBER_OF_FRAMES-eng.markup">1184</property>
  <property name="meta.attr.23.stream.NUMBER_OF_BYTES-eng.markup">14146014</property>
  <property name="meta.attr.23.stream._STATISTICS_WRITING_APP-eng.markup">mkvmerge v40.0.0 ('Old Town Road + Pony') 64-bit</property>
  <property name="meta.attr.23.stream._STATISTICS_WRITING_DATE_UTC-eng.markup">2019-12-29 15:49:45</property>
  <property name="meta.attr.23.stream._STATISTICS_TAGS-eng.markup">BPS DURATION NUMBER_OF_FRAMES NUMBER_OF_BYTES</property>
  <property name="meta.media.24.codec.name">pgssub</property>
  <property name="meta.media.24.codec.long_name">HDMV Presentation Graphic Stream subtitles</property>
  <property name="meta.media.24.codec.bit_rate">0</property>
  <property name="meta.attr.24.stream.language.markup">pol</property>
  <property name="meta.attr.24.stream.title.markup">Polish</property>
  <property name="meta.attr.24.stream.BPS-eng.markup">18199</property>
  <property name="meta.attr.24.stream.DURATION-eng.markup">01:33:59.300000000</property>
  <property name="meta.attr.24.stream.NUMBER_OF_FRAMES-eng.markup">1688</property>
  <property name="meta.attr.24.stream.NUMBER_OF_BYTES-eng.markup">12829046</property>
  <property name="meta.attr.24.stream._STATISTICS_WRITING_APP-eng.markup">mkvmerge v40.0.0 ('Old Town Road + Pony') 64-bit</property>
  <property name="meta.attr.24.stream._STATISTICS_WRITING_DATE_UTC-eng.markup">2019-12-29 15:49:45</property>
  <property name="meta.attr.24.stream._STATISTICS_TAGS-eng.markup">BPS DURATION NUMBER_OF_FRAMES NUMBER_OF_BYTES</property>
  <property name="meta.media.25.codec.name">pgssub</property>
  <property name="meta.media.25.codec.long_name">HDMV Presentation Graphic Stream subtitles</property>
  <property name="meta.media.25.codec.bit_rate">0</property>
  <property name="meta.attr.25.stream.language.markup">por</property>
  <property name="meta.attr.25.stream.title.markup">Brazilian Portuguese</property>
  <property name="meta.attr.25.stream.BPS-eng.markup">29654</property>
  <property name="meta.attr.25.stream.DURATION-eng.markup">01:33:59.300000000</property>
  <property name="meta.attr.25.stream.NUMBER_OF_FRAMES-eng.markup">1836</property>
  <property name="meta.attr.25.stream.NUMBER_OF_BYTES-eng.markup">20903964</property>
  <property name="meta.attr.25.stream._STATISTICS_WRITING_APP-eng.markup">mkvmerge v40.0.0 ('Old Town Road + Pony') 64-bit</property>
  <property name="meta.attr.25.stream._STATISTICS_WRITING_DATE_UTC-eng.markup">2019-12-29 15:49:45</property>
  <property name="meta.attr.25.stream._STATISTICS_TAGS-eng.markup">BPS DURATION NUMBER_OF_FRAMES NUMBER_OF_BYTES</property>
  <property name="meta.media.26.codec.name">pgssub</property>
  <property name="meta.media.26.codec.long_name">HDMV Presentation Graphic Stream subtitles</property>
  <property name="meta.media.26.codec.bit_rate">0</property>
  <property name="meta.attr.26.stream.language.markup">por</property>
  <property name="meta.attr.26.stream.title.markup">Iberian Portuguese</property>
  <property name="meta.attr.26.stream.BPS-eng.markup">27145</property>
  <property name="meta.attr.26.stream.DURATION-eng.markup">01:33:59.300000000</property>
  <property name="meta.attr.26.stream.NUMBER_OF_FRAMES-eng.markup">1720</property>
  <property name="meta.attr.26.stream.NUMBER_OF_BYTES-eng.markup">19134971</property>
  <property name="meta.attr.26.stream._STATISTICS_WRITING_APP-eng.markup">mkvmerge v40.0.0 ('Old Town Road + Pony') 64-bit</property>
  <property name="meta.attr.26.stream._STATISTICS_WRITING_DATE_UTC-eng.markup">2019-12-29 15:49:45</property>
  <property name="meta.attr.26.stream._STATISTICS_TAGS-eng.markup">BPS DURATION NUMBER_OF_FRAMES NUMBER_OF_BYTES</property>
  <property name="meta.media.27.codec.name">pgssub</property>
  <property name="meta.media.27.codec.long_name">HDMV Presentation Graphic Stream subtitles</property>
  <property name="meta.media.27.codec.bit_rate">0</property>
  <property name="meta.attr.27.stream.language.markup">rum</property>
  <property name="meta.attr.27.stream.title.markup">Romanian</property>
  <property name="meta.attr.27.stream.BPS-eng.markup">25197</property>
  <property name="meta.attr.27.stream.DURATION-eng.markup">01:35:32.519000000</property>
  <property name="meta.attr.27.stream.NUMBER_OF_FRAMES-eng.markup">1706</property>
  <property name="meta.attr.27.stream.NUMBER_OF_BYTES-eng.markup">18055771</property>
  <property name="meta.attr.27.stream._STATISTICS_WRITING_APP-eng.markup">mkvmerge v40.0.0 ('Old Town Road + Pony') 64-bit</property>
  <property name="meta.attr.27.stream._STATISTICS_WRITING_DATE_UTC-eng.markup">2019-12-29 15:49:45</property>
  <property name="meta.attr.27.stream._STATISTICS_TAGS-eng.markup">BPS DURATION NUMBER_OF_FRAMES NUMBER_OF_BYTES</property>
  <property name="meta.media.28.codec.name">pgssub</property>
  <property name="meta.media.28.codec.long_name">HDMV Presentation Graphic Stream subtitles</property>
  <property name="meta.media.28.codec.bit_rate">0</property>
  <property name="meta.attr.28.stream.language.markup">slv</property>
  <property name="meta.attr.28.stream.title.markup">Slovenian</property>
  <property name="meta.attr.28.stream.BPS-eng.markup">22934</property>
  <property name="meta.attr.28.stream.DURATION-eng.markup">01:33:59.300000000</property>
  <property name="meta.attr.28.stream.NUMBER_OF_FRAMES-eng.markup">1706</property>
  <property name="meta.attr.28.stream.NUMBER_OF_BYTES-eng.markup">16167012</property>
  <property name="meta.attr.28.stream._STATISTICS_WRITING_APP-eng.markup">mkvmerge v40.0.0 ('Old Town Road + Pony') 64-bit</property>
  <property name="meta.attr.28.stream._STATISTICS_WRITING_DATE_UTC-eng.markup">2019-12-29 15:49:45</property>
  <property name="meta.attr.28.stream._STATISTICS_TAGS-eng.markup">BPS DURATION NUMBER_OF_FRAMES NUMBER_OF_BYTES</property>
  <property name="meta.media.29.codec.name">pgssub</property>
  <property name="meta.media.29.codec.long_name">HDMV Presentation Graphic Stream subtitles</property>
  <property name="meta.media.29.codec.bit_rate">0</property>
  <property name="meta.attr.29.stream.language.markup">spa</property>
  <property name="meta.attr.29.stream.title.markup">Spanish (Latin America)</property>
  <property name="meta.attr.29.stream.BPS-eng.markup">25790</property>
  <property name="meta.attr.29.stream.DURATION-eng.markup">01:35:32.519000000</property>
  <property name="meta.attr.29.stream.NUMBER_OF_FRAMES-eng.markup">1699</property>
  <property name="meta.attr.29.stream.NUMBER_OF_BYTES-eng.markup">18480666</property>
  <property name="meta.attr.29.stream._STATISTICS_WRITING_APP-eng.markup">mkvmerge v40.0.0 ('Old Town Road + Pony') 64-bit</property>
  <property name="meta.attr.29.stream._STATISTICS_WRITING_DATE_UTC-eng.markup">2019-12-29 15:49:45</property>
  <property name="meta.attr.29.stream._STATISTICS_TAGS-eng.markup">BPS DURATION NUMBER_OF_FRAMES NUMBER_OF_BYTES</property>
  <property name="meta.media.30.codec.name">pgssub</property>
  <property name="meta.media.30.codec.long_name">HDMV Presentation Graphic Stream subtitles</property>
  <property name="meta.media.30.codec.bit_rate">0</property>
  <property name="meta.attr.30.stream.language.markup">spa</property>
  <property name="meta.attr.30.stream.title.markup">Spanish (Spain)</property>
  <property name="meta.attr.30.stream.BPS-eng.markup">20473</property>
  <property name="meta.attr.30.stream.DURATION-eng.markup">01:33:59.300000000</property>
  <property name="meta.attr.30.stream.NUMBER_OF_FRAMES-eng.markup">1702</property>
  <property name="meta.attr.30.stream.NUMBER_OF_BYTES-eng.markup">14432022</property>
  <property name="meta.attr.30.stream._STATISTICS_WRITING_APP-eng.markup">mkvmerge v40.0.0 ('Old Town Road + Pony') 64-bit</property>
  <property name="meta.attr.30.stream._STATISTICS_WRITING_DATE_UTC-eng.markup">2019-12-29 15:49:45</property>
  <property name="meta.attr.30.stream._STATISTICS_TAGS-eng.markup">BPS DURATION NUMBER_OF_FRAMES NUMBER_OF_BYTES</property>
  <property name="meta.media.31.codec.name">pgssub</property>
  <property name="meta.media.31.codec.long_name">HDMV Presentation Graphic Stream subtitles</property>
  <property name="meta.media.31.codec.bit_rate">0</property>
  <property name="meta.attr.31.stream.language.markup">swe</property>
  <property name="meta.attr.31.stream.title.markup">Swedish</property>
  <property name="meta.attr.31.stream.BPS-eng.markup">19711</property>
  <property name="meta.attr.31.stream.DURATION-eng.markup">01:33:59.675000000</property>
  <property name="meta.attr.31.stream.NUMBER_OF_FRAMES-eng.markup">1184</property>
  <property name="meta.attr.31.stream.NUMBER_OF_BYTES-eng.markup">13895741</property>
  <property name="meta.attr.31.stream._STATISTICS_WRITING_APP-eng.markup">mkvmerge v40.0.0 ('Old Town Road + Pony') 64-bit</property>
  <property name="meta.attr.31.stream._STATISTICS_WRITING_DATE_UTC-eng.markup">2019-12-29 15:49:45</property>
  <property name="meta.attr.31.stream._STATISTICS_TAGS-eng.markup">BPS DURATION NUMBER_OF_FRAMES NUMBER_OF_BYTES</property>
  <property name="meta.media.32.codec.name">pgssub</property>
  <property name="meta.media.32.codec.long_name">HDMV Presentation Graphic Stream subtitles</property>
  <property name="meta.media.32.codec.bit_rate">0</property>
  <property name="meta.attr.32.stream.language.markup">tha</property>
  <property name="meta.attr.32.stream.title.markup">Thai</property>
  <property name="meta.attr.32.stream.BPS-eng.markup">20455</property>
  <property name="meta.attr.32.stream.DURATION-eng.markup">01:44:32.308000000</property>
  <property name="meta.attr.32.stream.NUMBER_OF_FRAMES-eng.markup">1708</property>
  <property name="meta.attr.32.stream.NUMBER_OF_BYTES-eng.markup">16038127</property>
  <property name="meta.attr.32.stream._STATISTICS_WRITING_APP-eng.markup">mkvmerge v40.0.0 ('Old Town Road + Pony') 64-bit</property>
  <property name="meta.attr.32.stream._STATISTICS_WRITING_DATE_UTC-eng.markup">2019-12-29 15:49:45</property>
  <property name="meta.attr.32.stream._STATISTICS_TAGS-eng.markup">BPS DURATION NUMBER_OF_FRAMES NUMBER_OF_BYTES</property>
  <property name="meta.media.33.codec.name">pgssub</property>
  <property name="meta.media.33.codec.long_name">HDMV Presentation Graphic Stream subtitles</property>
  <property name="meta.media.33.codec.bit_rate">0</property>
  <property name="meta.attr.33.stream.language.markup">tur</property>
  <property name="meta.attr.33.stream.title.markup">Turkish</property>
  <property name="meta.attr.33.stream.BPS-eng.markup">22418</property>
  <property name="meta.attr.33.stream.DURATION-eng.markup">01:33:59.217000000</property>
  <property name="meta.attr.33.stream.NUMBER_OF_FRAMES-eng.markup">1674</property>
  <property name="meta.attr.33.stream.NUMBER_OF_BYTES-eng.markup">15802734</property>
  <property name="meta.attr.33.stream._STATISTICS_WRITING_APP-eng.markup">mkvmerge v40.0.0 ('Old Town Road + Pony') 64-bit</property>
  <property name="meta.attr.33.stream._STATISTICS_WRITING_DATE_UTC-eng.markup">2019-12-29 15:49:45</property>
  <property name="meta.attr.33.stream._STATISTICS_TAGS-eng.markup">BPS DURATION NUMBER_OF_FRAMES NUMBER_OF_BYTES</property>
  <property name="meta.media.34.codec.name">srt</property>
  <property name="meta.media.34.codec.long_name">SubRip subtitle</property>
  <property name="meta.media.34.codec.bit_rate">0</property>
  <property name="meta.attr.34.stream.language.markup">eng</property>
  <property name="meta.attr.34.stream.BPS-eng.markup">48</property>
  <property name="meta.attr.34.stream.DURATION-eng.markup">01:33:45.538000000</property>
  <property name="meta.attr.34.stream.NUMBER_OF_FRAMES-eng.markup">842</property>
  <property name="meta.attr.34.stream.NUMBER_OF_BYTES-eng.markup">34158</property>
  <property name="meta.attr.34.stream._STATISTICS_WRITING_APP-eng.markup">mkvmerge v40.0.0 ('Old Town Road + Pony') 64-bit</property>
  <property name="meta.attr.34.stream._STATISTICS_WRITING_DATE_UTC-eng.markup">2019-12-29 15:49:45</property>
  <property name="meta.attr.34.stream._STATISTICS_TAGS-eng.markup">BPS DURATION NUMBER_OF_FRAMES NUMBER_OF_BYTES</property>
  <property name="meta.media.35.codec.name">srt</property>
  <property name="meta.media.35.codec.long_name">SubRip subtitle</property>
  <property name="meta.media.35.codec.bit_rate">0</property>
  <property name="meta.attr.35.stream.language.markup">eng</property>
  <property name="meta.attr.35.stream.title.markup">SDH</property>
  <property name="meta.attr.35.stream.BPS-eng.markup">43</property>
  <property name="meta.attr.35.stream.DURATION-eng.markup">01:31:41.370000000</property>
  <property name="meta.attr.35.stream.NUMBER_OF_FRAMES-eng.markup">833</property>
  <property name="meta.attr.35.stream.NUMBER_OF_BYTES-eng.markup">29767</property>
  <property name="meta.attr.35.stream._STATISTICS_WRITING_APP-eng.markup">mkvmerge v40.0.0 ('Old Town Road + Pony') 64-bit</property>
  <property name="meta.attr.35.stream._STATISTICS_WRITING_DATE_UTC-eng.markup">2019-12-29 15:49:45</property>
  <property name="meta.attr.35.stream._STATISTICS_TAGS-eng.markup">BPS DURATION NUMBER_OF_FRAMES NUMBER_OF_BYTES</property>
  <property name="meta.media.36.codec.name">srt</property>
  <property name="meta.media.36.codec.long_name">SubRip subtitle</property>
  <property name="meta.media.36.codec.bit_rate">0</property>
  <property name="meta.attr.36.stream.language.markup">swe</property>
  <property name="meta.attr.36.stream.BPS-eng.markup">47</property>
  <property name="meta.attr.36.stream.DURATION-eng.markup">01:33:48.363000000</property>
  <property name="meta.attr.36.stream.NUMBER_OF_FRAMES-eng.markup">683</property>
  <property name="meta.attr.36.stream.NUMBER_OF_BYTES-eng.markup">33075</property>
  <property name="meta.attr.36.stream._STATISTICS_WRITING_APP-eng.markup">mkvmerge v40.0.0 ('Old Town Road + Pony') 64-bit</property>
  <property name="meta.attr.36.stream._STATISTICS_WRITING_DATE_UTC-eng.markup">2019-12-29 15:49:45</property>
  <property name="meta.attr.36.stream._STATISTICS_TAGS-eng.markup">BPS DURATION NUMBER_OF_FRAMES NUMBER_OF_BYTES</property>
  <property name="meta.attr.creation_time.markup">2019-12-29T15:49:45.000000Z</property>
  <property name="meta.attr.ENCODER.markup">Lavf58.29.100</property>
  <property name="meta.media.sample_aspect_num">1</property>
  <property name="meta.media.sample_aspect_den">1</property>
  <property name="meta.media.frame_rate_num">24000</property>
  <property name="meta.media.frame_rate_den">1001</property>
  <property name="meta.media.colorspace">709</property>
  <property name="meta.media.color_trc">1</property>
  <property name="meta.media.has_b_frames">2</property>
  <property name="meta.media.width">1916</property>
  <property name="meta.media.height">1036</property>
  <property name="meta.media.aspect_ratio">1</property>
  <property name="meta.media.color_range">mpeg</property>
  <property name="xml">was here</property>
  <property name="meta.media.top_field_first">0</property>
  <property name="meta.media.progressive">1</property>
  <property name="set.test_audio">1</property>
  <property name="set.test_image">0</property>
 </chain>
 <playlist id="playlist13">
  <blank length="00:14:33.659"/>
  <entry in="00:17:28.320" out="00:17:32.199" producer="chain10">
   <property name="kdenlive:id">4</property>
  </entry>
  <blank length="00:01:20.812"/>
  <entry in="00:21:11.678" out="00:23:24.024" producer="chain10">
   <property name="kdenlive:id">4</property>
  </entry>
  <blank length="00:25:25.943"/>
  <entry in="00:55:02.920" out="00:55:04.838" producer="chain10">
   <property name="kdenlive:id">4</property>
  </entry>
 </playlist>
 <tractor id="tractor6" in="00:00:00.000" out="01:29:50.384">
  <property name="kdenlive:trackheight">84</property>
  <property name="kdenlive:timeline_active">1</property>
  <property name="kdenlive:collapsed">0</property>
  <property name="kdenlive:thumbs_format"/>
  <property name="kdenlive:audio_rec"/>
  <track hide="audio" producer="playlist12"/>
  <track hide="audio" producer="playlist13"/>
  <transition id="transition100" in="00:14:33.659" out="00:14:34.493">
   <property name="a_track">0</property>
   <property name="b_track">1</property>
   <property name="factory">loader</property>
   <property name="resource"/>
   <property name="mlt_service">luma</property>
   <property name="kdenlive_id">luma</property>
   <property name="kdenlive:mixcut">6</property>
   <property name="softness">0</property>
   <property name="alpha_over">1</property>
   <property name="fix_background_alpha">1</property>
   <property name="invert">0</property>
   <property name="reverse">0</property>
  </transition>
  <transition id="transition101" in="00:15:58.350" out="00:15:58.767">
   <property name="a_track">0</property>
   <property name="b_track">1</property>
   <property name="factory">loader</property>
   <property name="resource">C:/Users/kado/Videos/FanEdits/FanMixes/Final Fantasy (2001) - The Phantom Menace/luma01.pgm</property>
   <property name="mlt_service">luma</property>
   <property name="kdenlive_id">luma</property>
   <property name="kdenlive:mixcut">5</property>
   <property name="softness">0.84</property>
   <property name="alpha_over">1</property>
   <property name="fix_background_alpha">1</property>
   <property name="invert">1</property>
   <property name="reverse">0</property>
  </transition>
  <transition id="transition102" in="00:43:36.662" out="00:43:36.912">
   <property name="a_track">0</property>
   <property name="b_track">1</property>
   <property name="factory">loader</property>
   <property name="resource">luma01.pgm</property>
   <property name="mlt_service">luma</property>
   <property name="kdenlive_id">luma</property>
   <property name="kdenlive:mixcut">3</property>
   <property name="softness">0.73</property>
   <property name="alpha_over">1</property>
   <property name="fix_background_alpha">1</property>
   <property name="invert">0</property>
   <property name="reverse">0</property>
  </transition>
 </tractor>
 <chain id="chain13" out="01:45:58.350">
  <property name="length">152448</property>
  <property name="eof">pause</property>
  <property name="resource">N:/Videos/Horror and SciFi/Final Fantasy/Final.Fantasy.The.Spirits.Within.2001.1080p.BluRay.HEVC.DTS-LiNUX/Final.Fantasy.The.Spirits.Within.2001.1080p.BluRay.HEVC.DTS-LiNUX.mkv</property>
  <property name="mlt_service">avformat-novalidate</property>
  <property name="seekable">1</property>
  <property name="audio_index">1</property>
  <property name="video_index">0</property>
  <property name="vstream">0</property>
  <property name="astream">0</property>
  <property name="kdenlive:control_uuid">{193136b1-969a-4943-bfcd-55058a6808f2}</property>
  <property name="kdenlive:id">4</property>
  <property name="kdenlive:clip_type">0</property>
  <property name="kdenlive:file_size">5331297763</property>
  <property name="kdenlive:file_hash">691e768d68c55b9a28cb9a278fdc8b17</property>
  <property name="kdenlive:folderid">-1</property>
  <property name="kdenlive:monitorPosition">0</property>
  <property name="mute_on_pause">0</property>
  <property name="meta.media.nb_streams">37</property>
  <property name="meta.media.0.stream.type">video</property>
  <property name="meta.media.0.stream.frame_rate">23.976</property>
  <property name="meta.media.0.stream.sample_aspect_ratio">1</property>
  <property name="meta.media.0.codec.width">1916</property>
  <property name="meta.media.0.codec.height">1036</property>
  <property name="meta.media.0.codec.rotate">0</property>
  <property name="meta.media.0.codec.pix_fmt">yuv420p10le</property>
  <property name="meta.media.0.codec.sample_aspect_ratio">1</property>
  <property name="meta.media.0.codec.colorspace">709</property>
  <property name="meta.media.0.codec.color_trc">1</property>
  <property name="meta.media.0.codec.name">hevc</property>
  <property name="meta.media.0.codec.long_name">HEVC (High Efficiency Video Coding)</property>
  <property name="meta.media.0.codec.bit_rate">0</property>
  <property name="meta.attr.0.stream.BPS-eng.markup">4999776</property>
  <property name="meta.attr.0.stream.DURATION-eng.markup">01:45:58.352000000</property>
  <property name="meta.attr.0.stream.NUMBER_OF_FRAMES-eng.markup">152448</property>
  <property name="meta.attr.0.stream.NUMBER_OF_BYTES-eng.markup">3973792365</property>
  <property name="meta.attr.0.stream._STATISTICS_WRITING_APP-eng.markup">mkvmerge v40.0.0 ('Old Town Road + Pony') 64-bit</property>
  <property name="meta.attr.0.stream._STATISTICS_WRITING_DATE_UTC-eng.markup">2019-12-29 15:49:45</property>
  <property name="meta.attr.0.stream._STATISTICS_TAGS-eng.markup">BPS DURATION NUMBER_OF_FRAMES NUMBER_OF_BYTES</property>
  <property name="meta.media.1.stream.type">audio</property>
  <property name="meta.media.1.codec.sample_fmt">fltp</property>
  <property name="meta.media.1.codec.sample_rate">48000</property>
  <property name="meta.media.1.codec.channels">6</property>
  <property name="meta.media.1.codec.layout">5.1(side)</property>
  <property name="meta.media.1.codec.name">dca</property>
  <property name="meta.media.1.codec.long_name">DCA (DTS Coherent Acoustics)</property>
  <property name="meta.media.1.codec.bit_rate">1411200</property>
  <property name="meta.attr.1.stream.language.markup">eng</property>
  <property name="meta.attr.1.stream.title.markup">Surround</property>
  <property name="meta.attr.1.stream.BPS-eng.markup">1412999</property>
  <property name="meta.attr.1.stream.DURATION-eng.markup">01:45:58.358000000</property>
  <property name="meta.attr.1.stream.NUMBER_OF_FRAMES-eng.markup">596096</property>
  <property name="meta.attr.1.stream.NUMBER_OF_BYTES-eng.markup">1123044864</property>
  <property name="meta.attr.1.stream._STATISTICS_WRITING_APP-eng.markup">mkvmerge v40.0.0 ('Old Town Road + Pony') 64-bit</property>
  <property name="meta.attr.1.stream._STATISTICS_WRITING_DATE_UTC-eng.markup">2019-12-29 15:49:45</property>
  <property name="meta.attr.1.stream._STATISTICS_TAGS-eng.markup">BPS DURATION NUMBER_OF_FRAMES NUMBER_OF_BYTES</property>
  <property name="meta.media.2.codec.name">pgssub</property>
  <property name="meta.media.2.codec.long_name">HDMV Presentation Graphic Stream subtitles</property>
  <property name="meta.media.2.codec.bit_rate">0</property>
  <property name="meta.attr.2.stream.language.markup">eng</property>
  <property name="meta.attr.2.stream.title.markup">English</property>
  <property name="meta.attr.2.stream.BPS-eng.markup">24594</property>
  <property name="meta.attr.2.stream.DURATION-eng.markup">01:33:45.954000000</property>
  <property name="meta.attr.2.stream.NUMBER_OF_FRAMES-eng.markup">1686</property>
  <property name="meta.attr.2.stream.NUMBER_OF_BYTES-eng.markup">17296140</property>
  <property name="meta.attr.2.stream._STATISTICS_WRITING_APP-eng.markup">mkvmerge v40.0.0 ('Old Town Road + Pony') 64-bit</property>
  <property name="meta.attr.2.stream._STATISTICS_WRITING_DATE_UTC-eng.markup">2019-12-29 15:49:45</property>
  <property name="meta.attr.2.stream._STATISTICS_TAGS-eng.markup">BPS DURATION NUMBER_OF_FRAMES NUMBER_OF_BYTES</property>
  <property name="meta.media.3.codec.name">pgssub</property>
  <property name="meta.media.3.codec.long_name">HDMV Presentation Graphic Stream subtitles</property>
  <property name="meta.media.3.codec.bit_rate">0</property>
  <property name="meta.attr.3.stream.language.markup">eng</property>
  <property name="meta.attr.3.stream.title.markup">English SDH</property>
  <property name="meta.attr.3.stream.BPS-eng.markup">32739</property>
  <property name="meta.attr.3.stream.DURATION-eng.markup">01:41:48.102000000</property>
  <property name="meta.attr.3.stream.NUMBER_OF_FRAMES-eng.markup">2103</property>
  <property name="meta.attr.3.stream.NUMBER_OF_BYTES-eng.markup">24997093</property>
  <property name="meta.attr.3.stream._STATISTICS_WRITING_APP-eng.markup">mkvmerge v40.0.0 ('Old Town Road + Pony') 64-bit</property>
  <property name="meta.attr.3.stream._STATISTICS_WRITING_DATE_UTC-eng.markup">2019-12-29 15:49:45</property>
  <property name="meta.attr.3.stream._STATISTICS_TAGS-eng.markup">BPS DURATION NUMBER_OF_FRAMES NUMBER_OF_BYTES</property>
  <property name="meta.media.4.codec.name">pgssub</property>
  <property name="meta.media.4.codec.long_name">HDMV Presentation Graphic Stream subtitles</property>
  <property name="meta.media.4.codec.bit_rate">0</property>
  <property name="meta.attr.4.stream.language.markup">ara</property>
  <property name="meta.attr.4.stream.title.markup">Arabic</property>
  <property name="meta.attr.4.stream.BPS-eng.markup">13581</property>
  <property name="meta.attr.4.stream.DURATION-eng.markup">01:33:59.217000000</property>
  <property name="meta.attr.4.stream.NUMBER_OF_FRAMES-eng.markup">1690</property>
  <property name="meta.attr.4.stream.NUMBER_OF_BYTES-eng.markup">9573918</property>
  <property name="meta.attr.4.stream._STATISTICS_WRITING_APP-eng.markup">mkvmerge v40.0.0 ('Old Town Road + Pony') 64-bit</property>
  <property name="meta.attr.4.stream._STATISTICS_WRITING_DATE_UTC-eng.markup">2019-12-29 15:49:45</property>
  <property name="meta.attr.4.stream._STATISTICS_TAGS-eng.markup">BPS DURATION NUMBER_OF_FRAMES NUMBER_OF_BYTES</property>
  <property name="meta.media.5.codec.name">pgssub</property>
  <property name="meta.media.5.codec.long_name">HDMV Presentation Graphic Stream subtitles</property>
  <property name="meta.media.5.codec.bit_rate">0</property>
  <property name="meta.attr.5.stream.language.markup">bul</property>
  <property name="meta.attr.5.stream.title.markup">Bulgarian</property>
  <property name="meta.attr.5.stream.BPS-eng.markup">23121</property>
  <property name="meta.attr.5.stream.DURATION-eng.markup">01:35:32.310000000</property>
  <property name="meta.attr.5.stream.NUMBER_OF_FRAMES-eng.markup">1656</property>
  <property name="meta.attr.5.stream.NUMBER_OF_BYTES-eng.markup">16567112</property>
  <property name="meta.attr.5.stream._STATISTICS_WRITING_APP-eng.markup">mkvmerge v40.0.0 ('Old Town Road + Pony') 64-bit</property>
  <property name="meta.attr.5.stream._STATISTICS_WRITING_DATE_UTC-eng.markup">2019-12-29 15:49:45</property>
  <property name="meta.attr.5.stream._STATISTICS_TAGS-eng.markup">BPS DURATION NUMBER_OF_FRAMES NUMBER_OF_BYTES</property>
  <property name="meta.media.6.codec.name">pgssub</property>
  <property name="meta.media.6.codec.long_name">HDMV Presentation Graphic Stream subtitles</property>
  <property name="meta.media.6.codec.bit_rate">0</property>
  <property name="meta.attr.6.stream.language.markup">chi</property>
  <property name="meta.attr.6.stream.title.markup">Cantonese</property>
  <property name="meta.attr.6.stream.BPS-eng.markup">19607</property>
  <property name="meta.attr.6.stream.DURATION-eng.markup">01:42:59.006000000</property>
  <property name="meta.attr.6.stream.NUMBER_OF_FRAMES-eng.markup">1709</property>
  <property name="meta.attr.6.stream.NUMBER_OF_BYTES-eng.markup">15144515</property>
  <property name="meta.attr.6.stream._STATISTICS_WRITING_APP-eng.markup">mkvmerge v40.0.0 ('Old Town Road + Pony') 64-bit</property>
  <property name="meta.attr.6.stream._STATISTICS_WRITING_DATE_UTC-eng.markup">2019-12-29 15:49:45</property>
  <property name="meta.attr.6.stream._STATISTICS_TAGS-eng.markup">BPS DURATION NUMBER_OF_FRAMES NUMBER_OF_BYTES</property>
  <property name="meta.media.7.codec.name">pgssub</property>
  <property name="meta.media.7.codec.long_name">HDMV Presentation Graphic Stream subtitles</property>
  <property name="meta.media.7.codec.bit_rate">0</property>
  <property name="meta.attr.7.stream.language.markup">chi</property>
  <property name="meta.attr.7.stream.title.markup">Mandarin</property>
  <property name="meta.attr.7.stream.BPS-eng.markup">21248</property>
  <property name="meta.attr.7.stream.DURATION-eng.markup">01:33:59.258000000</property>
  <property name="meta.attr.7.stream.NUMBER_OF_FRAMES-eng.markup">1704</property>
  <property name="meta.attr.7.stream.NUMBER_OF_BYTES-eng.markup">14978356</property>
  <property name="meta.attr.7.stream._STATISTICS_WRITING_APP-eng.markup">mkvmerge v40.0.0 ('Old Town Road + Pony') 64-bit</property>
  <property name="meta.attr.7.stream._STATISTICS_WRITING_DATE_UTC-eng.markup">2019-12-29 15:49:45</property>
  <property name="meta.attr.7.stream._STATISTICS_TAGS-eng.markup">BPS DURATION NUMBER_OF_FRAMES NUMBER_OF_BYTES</property>
  <property name="meta.media.8.codec.name">pgssub</property>
  <property name="meta.media.8.codec.long_name">HDMV Presentation Graphic Stream subtitles</property>
  <property name="meta.media.8.codec.bit_rate">0</property>
  <property name="meta.attr.8.stream.language.markup">hrv</property>
  <property name="meta.attr.8.stream.title.markup">Croatian</property>
  <property name="meta.attr.8.stream.BPS-eng.markup">18941</property>
  <property name="meta.attr.8.stream.DURATION-eng.markup">01:33:59.383000000</property>
  <property name="meta.attr.8.stream.NUMBER_OF_FRAMES-eng.markup">1355</property>
  <property name="meta.attr.8.stream.NUMBER_OF_BYTES-eng.markup">13352216</property>
  <property name="meta.attr.8.stream._STATISTICS_WRITING_APP-eng.markup">mkvmerge v40.0.0 ('Old Town Road + Pony') 64-bit</property>
  <property name="meta.attr.8.stream._STATISTICS_WRITING_DATE_UTC-eng.markup">2019-12-29 15:49:45</property>
  <property name="meta.attr.8.stream._STATISTICS_TAGS-eng.markup">BPS DURATION NUMBER_OF_FRAMES NUMBER_OF_BYTES</property>
  <property name="meta.media.9.codec.name">pgssub</property>
  <property name="meta.media.9.codec.long_name">HDMV Presentation Graphic Stream subtitles</property>
  <property name="meta.media.9.codec.bit_rate">0</property>
  <property name="meta.attr.9.stream.language.markup">cze</property>
  <property name="meta.attr.9.stream.title.markup">Czech</property>
  <property name="meta.attr.9.stream.BPS-eng.markup">21071</property>
  <property name="meta.attr.9.stream.DURATION-eng.markup">01:33:59.300000000</property>
  <property name="meta.attr.9.stream.NUMBER_OF_FRAMES-eng.markup">1688</property>
  <property name="meta.attr.9.stream.NUMBER_OF_BYTES-eng.markup">14853464</property>
  <property name="meta.attr.9.stream._STATISTICS_WRITING_APP-eng.markup">mkvmerge v40.0.0 ('Old Town Road + Pony') 64-bit</property>
  <property name="meta.attr.9.stream._STATISTICS_WRITING_DATE_UTC-eng.markup">2019-12-29 15:49:45</property>
  <property name="meta.attr.9.stream._STATISTICS_TAGS-eng.markup">BPS DURATION NUMBER_OF_FRAMES NUMBER_OF_BYTES</property>
  <property name="meta.media.10.codec.name">pgssub</property>
  <property name="meta.media.10.codec.long_name">HDMV Presentation Graphic Stream subtitles</property>
  <property name="meta.media.10.codec.bit_rate">0</property>
  <property name="meta.attr.10.stream.language.markup">dan</property>
  <property name="meta.attr.10.stream.title.markup">Danish</property>
  <property name="meta.attr.10.stream.BPS-eng.markup">20546</property>
  <property name="meta.attr.10.stream.DURATION-eng.markup">01:33:59.717000000</property>
  <property name="meta.attr.10.stream.NUMBER_OF_FRAMES-eng.markup">1184</property>
  <property name="meta.attr.10.stream.NUMBER_OF_BYTES-eng.markup">14484283</property>
  <property name="meta.attr.10.stream._STATISTICS_WRITING_APP-eng.markup">mkvmerge v40.0.0 ('Old Town Road + Pony') 64-bit</property>
  <property name="meta.attr.10.stream._STATISTICS_WRITING_DATE_UTC-eng.markup">2019-12-29 15:49:45</property>
  <property name="meta.attr.10.stream._STATISTICS_TAGS-eng.markup">BPS DURATION NUMBER_OF_FRAMES NUMBER_OF_BYTES</property>
  <property name="meta.media.11.codec.name">pgssub</property>
  <property name="meta.media.11.codec.long_name">HDMV Presentation Graphic Stream subtitles</property>
  <property name="meta.media.11.codec.bit_rate">0</property>
  <property name="meta.attr.11.stream.language.markup">dut</property>
  <property name="meta.attr.11.stream.title.markup">Dutch</property>
  <property name="meta.attr.11.stream.BPS-eng.markup">23897</property>
  <property name="meta.attr.11.stream.DURATION-eng.markup">01:33:59.675000000</property>
  <property name="meta.attr.11.stream.NUMBER_OF_FRAMES-eng.markup">1258</property>
  <property name="meta.attr.11.stream.NUMBER_OF_BYTES-eng.markup">16846710</property>
  <property name="meta.attr.11.stream._STATISTICS_WRITING_APP-eng.markup">mkvmerge v40.0.0 ('Old Town Road + Pony') 64-bit</property>
  <property name="meta.attr.11.stream._STATISTICS_WRITING_DATE_UTC-eng.markup">2019-12-29 15:49:45</property>
  <property name="meta.attr.11.stream._STATISTICS_TAGS-eng.markup">BPS DURATION NUMBER_OF_FRAMES NUMBER_OF_BYTES</property>
  <property name="meta.media.12.codec.name">pgssub</property>
  <property name="meta.media.12.codec.long_name">HDMV Presentation Graphic Stream subtitles</property>
  <property name="meta.media.12.codec.bit_rate">0</property>
  <property name="meta.attr.12.stream.language.markup">fin</property>
  <property name="meta.attr.12.stream.title.markup">Finnish</property>
  <property name="meta.attr.12.stream.BPS-eng.markup">20857</property>
  <property name="meta.attr.12.stream.DURATION-eng.markup">01:34:00.718000000</property>
  <property name="meta.attr.12.stream.NUMBER_OF_FRAMES-eng.markup">1209</property>
  <property name="meta.attr.12.stream.NUMBER_OF_BYTES-eng.markup">14706553</property>
  <property name="meta.attr.12.stream._STATISTICS_WRITING_APP-eng.markup">mkvmerge v40.0.0 ('Old Town Road + Pony') 64-bit</property>
  <property name="meta.attr.12.stream._STATISTICS_WRITING_DATE_UTC-eng.markup">2019-12-29 15:49:45</property>
  <property name="meta.attr.12.stream._STATISTICS_TAGS-eng.markup">BPS DURATION NUMBER_OF_FRAMES NUMBER_OF_BYTES</property>
  <property name="meta.media.13.codec.name">pgssub</property>
  <property name="meta.media.13.codec.long_name">HDMV Presentation Graphic Stream subtitles</property>
  <property name="meta.media.13.codec.bit_rate">0</property>
  <property name="meta.attr.13.stream.language.markup">fre</property>
  <property name="meta.attr.13.stream.title.markup">French</property>
  <property name="meta.attr.13.stream.BPS-eng.markup">21198</property>
  <property name="meta.attr.13.stream.DURATION-eng.markup">01:43:41.006000000</property>
  <property name="meta.attr.13.stream.NUMBER_OF_FRAMES-eng.markup">1642</property>
  <property name="meta.attr.13.stream.NUMBER_OF_BYTES-eng.markup">16484862</property>
  <property name="meta.attr.13.stream._STATISTICS_WRITING_APP-eng.markup">mkvmerge v40.0.0 ('Old Town Road + Pony') 64-bit</property>
  <property name="meta.attr.13.stream._STATISTICS_WRITING_DATE_UTC-eng.markup">2019-12-29 15:49:45</property>
  <property name="meta.attr.13.stream._STATISTICS_TAGS-eng.markup">BPS DURATION NUMBER_OF_FRAMES NUMBER_OF_BYTES</property>
  <property name="meta.media.14.codec.name">pgssub</property>
  <property name="meta.media.14.codec.long_name">HDMV Presentation Graphic Stream subtitles</property>
  <property name="meta.media.14.codec.bit_rate">0</property>
  <property name="meta.attr.14.stream.language.markup">ger</property>
  <property name="meta.attr.14.stream.title.markup">German</property>
  <property name="meta.attr.14.stream.BPS-eng.markup">24239</property>
  <property name="meta.attr.14.stream.DURATION-eng.markup">01:34:00.260000000</property>
  <property name="meta.attr.14.stream.NUMBER_OF_FRAMES-eng.markup">1493</property>
  <property name="meta.attr.14.stream.NUMBER_OF_BYTES-eng.markup">17089540</property>
  <property name="meta.attr.14.stream._STATISTICS_WRITING_APP-eng.markup">mkvmerge v40.0.0 ('Old Town Road + Pony') 64-bit</property>
  <property name="meta.attr.14.stream._STATISTICS_WRITING_DATE_UTC-eng.markup">2019-12-29 15:49:45</property>
  <property name="meta.attr.14.stream._STATISTICS_TAGS-eng.markup">BPS DURATION NUMBER_OF_FRAMES NUMBER_OF_BYTES</property>
  <property name="meta.media.15.codec.name">pgssub</property>
  <property name="meta.media.15.codec.long_name">HDMV Presentation Graphic Stream subtitles</property>
  <property name="meta.media.15.codec.bit_rate">0</property>
  <property name="meta.attr.15.stream.language.markup">gre</property>
  <property name="meta.attr.15.stream.title.markup">Greek</property>
  <property name="meta.attr.15.stream.BPS-eng.markup">24963</property>
  <property name="meta.attr.15.stream.DURATION-eng.markup">01:33:59.300000000</property>
  <property name="meta.attr.15.stream.NUMBER_OF_FRAMES-eng.markup">1694</property>
  <property name="meta.attr.15.stream.NUMBER_OF_BYTES-eng.markup">17597238</property>
  <property name="meta.attr.15.stream._STATISTICS_WRITING_APP-eng.markup">mkvmerge v40.0.0 ('Old Town Road + Pony') 64-bit</property>
  <property name="meta.attr.15.stream._STATISTICS_WRITING_DATE_UTC-eng.markup">2019-12-29 15:49:45</property>
  <property name="meta.attr.15.stream._STATISTICS_TAGS-eng.markup">BPS DURATION NUMBER_OF_FRAMES NUMBER_OF_BYTES</property>
  <property name="meta.media.16.codec.name">pgssub</property>
  <property name="meta.media.16.codec.long_name">HDMV Presentation Graphic Stream subtitles</property>
  <property name="meta.media.16.codec.bit_rate">0</property>
  <property name="meta.attr.16.stream.language.markup">heb</property>
  <property name="meta.attr.16.stream.title.markup">Hebrew</property>
  <property name="meta.attr.16.stream.BPS-eng.markup">18470</property>
  <property name="meta.attr.16.stream.DURATION-eng.markup">01:33:59.217000000</property>
  <property name="meta.attr.16.stream.NUMBER_OF_FRAMES-eng.markup">1688</property>
  <property name="meta.attr.16.stream.NUMBER_OF_BYTES-eng.markup">13019656</property>
  <property name="meta.attr.16.stream._STATISTICS_WRITING_APP-eng.markup">mkvmerge v40.0.0 ('Old Town Road + Pony') 64-bit</property>
  <property name="meta.attr.16.stream._STATISTICS_WRITING_DATE_UTC-eng.markup">2019-12-29 15:49:45</property>
  <property name="meta.attr.16.stream._STATISTICS_TAGS-eng.markup">BPS DURATION NUMBER_OF_FRAMES NUMBER_OF_BYTES</property>
  <property name="meta.media.17.codec.name">pgssub</property>
  <property name="meta.media.17.codec.long_name">HDMV Presentation Graphic Stream subtitles</property>
  <property name="meta.media.17.codec.bit_rate">0</property>
  <property name="meta.attr.17.stream.language.markup">hin</property>
  <property name="meta.attr.17.stream.title.markup">Hindi</property>
  <property name="meta.attr.17.stream.BPS-eng.markup">21017</property>
  <property name="meta.attr.17.stream.DURATION-eng.markup">01:33:59.300000000</property>
  <property name="meta.attr.17.stream.NUMBER_OF_FRAMES-eng.markup">1690</property>
  <property name="meta.attr.17.stream.NUMBER_OF_BYTES-eng.markup">14815519</property>
  <property name="meta.attr.17.stream._STATISTICS_WRITING_APP-eng.markup">mkvmerge v40.0.0 ('Old Town Road + Pony') 64-bit</property>
  <property name="meta.attr.17.stream._STATISTICS_WRITING_DATE_UTC-eng.markup">2019-12-29 15:49:45</property>
  <property name="meta.attr.17.stream._STATISTICS_TAGS-eng.markup">BPS DURATION NUMBER_OF_FRAMES NUMBER_OF_BYTES</property>
  <property name="meta.media.18.codec.name">pgssub</property>
  <property name="meta.media.18.codec.long_name">HDMV Presentation Graphic Stream subtitles</property>
  <property name="meta.media.18.codec.bit_rate">0</property>
  <property name="meta.attr.18.stream.language.markup">hun</property>
  <property name="meta.attr.18.stream.title.markup">Hungarian</property>
  <property name="meta.attr.18.stream.BPS-eng.markup">19042</property>
  <property name="meta.attr.18.stream.DURATION-eng.markup">01:33:59.175000000</property>
  <property name="meta.attr.18.stream.NUMBER_OF_FRAMES-eng.markup">1690</property>
  <property name="meta.attr.18.stream.NUMBER_OF_BYTES-eng.markup">13423018</property>
  <property name="meta.attr.18.stream._STATISTICS_WRITING_APP-eng.markup">mkvmerge v40.0.0 ('Old Town Road + Pony') 64-bit</property>
  <property name="meta.attr.18.stream._STATISTICS_WRITING_DATE_UTC-eng.markup">2019-12-29 15:49:45</property>
  <property name="meta.attr.18.stream._STATISTICS_TAGS-eng.markup">BPS DURATION NUMBER_OF_FRAMES NUMBER_OF_BYTES</property>
  <property name="meta.media.19.codec.name">pgssub</property>
  <property name="meta.media.19.codec.long_name">HDMV Presentation Graphic Stream subtitles</property>
  <property name="meta.media.19.codec.bit_rate">0</property>
  <property name="meta.attr.19.stream.language.markup">ice</property>
  <property name="meta.attr.19.stream.title.markup">Icelandic</property>
  <property name="meta.attr.19.stream.BPS-eng.markup">23876</property>
  <property name="meta.attr.19.stream.DURATION-eng.markup">01:33:59.217000000</property>
  <property name="meta.attr.19.stream.NUMBER_OF_FRAMES-eng.markup">1688</property>
  <property name="meta.attr.19.stream.NUMBER_OF_BYTES-eng.markup">16830422</property>
  <property name="meta.attr.19.stream._STATISTICS_WRITING_APP-eng.markup">mkvmerge v40.0.0 ('Old Town Road + Pony') 64-bit</property>
  <property name="meta.attr.19.stream._STATISTICS_WRITING_DATE_UTC-eng.markup">2019-12-29 15:49:45</property>
  <property name="meta.attr.19.stream._STATISTICS_TAGS-eng.markup">BPS DURATION NUMBER_OF_FRAMES NUMBER_OF_BYTES</property>
  <property name="meta.media.20.codec.name">pgssub</property>
  <property name="meta.media.20.codec.long_name">HDMV Presentation Graphic Stream subtitles</property>
  <property name="meta.media.20.codec.bit_rate">0</property>
  <property name="meta.attr.20.stream.language.markup">ind</property>
  <property name="meta.attr.20.stream.title.markup">Indonesian</property>
  <property name="meta.attr.20.stream.BPS-eng.markup">26444</property>
  <property name="meta.attr.20.stream.DURATION-eng.markup">01:33:59.300000000</property>
  <property name="meta.attr.20.stream.NUMBER_OF_FRAMES-eng.markup">1662</property>
  <property name="meta.attr.20.stream.NUMBER_OF_BYTES-eng.markup">18640975</property>
  <property name="meta.attr.20.stream._STATISTICS_WRITING_APP-eng.markup">mkvmerge v40.0.0 ('Old Town Road + Pony') 64-bit</property>
  <property name="meta.attr.20.stream._STATISTICS_WRITING_DATE_UTC-eng.markup">2019-12-29 15:49:45</property>
  <property name="meta.attr.20.stream._STATISTICS_TAGS-eng.markup">BPS DURATION NUMBER_OF_FRAMES NUMBER_OF_BYTES</property>
  <property name="meta.media.21.codec.name">pgssub</property>
  <property name="meta.media.21.codec.long_name">HDMV Presentation Graphic Stream subtitles</property>
  <property name="meta.media.21.codec.bit_rate">0</property>
  <property name="meta.attr.21.stream.language.markup">ita</property>
  <property name="meta.attr.21.stream.title.markup">Italian</property>
  <property name="meta.attr.21.stream.BPS-eng.markup">23573</property>
  <property name="meta.attr.21.stream.DURATION-eng.markup">01:42:58.922000000</property>
  <property name="meta.attr.21.stream.NUMBER_OF_FRAMES-eng.markup">1698</property>
  <property name="meta.attr.21.stream.NUMBER_OF_BYTES-eng.markup">18207609</property>
  <property name="meta.attr.21.stream._STATISTICS_WRITING_APP-eng.markup">mkvmerge v40.0.0 ('Old Town Road + Pony') 64-bit</property>
  <property name="meta.attr.21.stream._STATISTICS_WRITING_DATE_UTC-eng.markup">2019-12-29 15:49:45</property>
  <property name="meta.attr.21.stream._STATISTICS_TAGS-eng.markup">BPS DURATION NUMBER_OF_FRAMES NUMBER_OF_BYTES</property>
  <property name="meta.media.22.codec.name">pgssub</property>
  <property name="meta.media.22.codec.long_name">HDMV Presentation Graphic Stream subtitles</property>
  <property name="meta.media.22.codec.bit_rate">0</property>
  <property name="meta.attr.22.stream.language.markup">kor</property>
  <property name="meta.attr.22.stream.title.markup">Korean</property>
  <property name="meta.attr.22.stream.BPS-eng.markup">19788</property>
  <property name="meta.attr.22.stream.DURATION-eng.markup">01:35:32.477000000</property>
  <property name="meta.attr.22.stream.NUMBER_OF_FRAMES-eng.markup">1708</property>
  <property name="meta.attr.22.stream.NUMBER_OF_BYTES-eng.markup">14179403</property>
  <property name="meta.attr.22.stream._STATISTICS_WRITING_APP-eng.markup">mkvmerge v40.0.0 ('Old Town Road + Pony') 64-bit</property>
  <property name="meta.attr.22.stream._STATISTICS_WRITING_DATE_UTC-eng.markup">2019-12-29 15:49:45</property>
  <property name="meta.attr.22.stream._STATISTICS_TAGS-eng.markup">BPS DURATION NUMBER_OF_FRAMES NUMBER_OF_BYTES</property>
  <property name="meta.media.23.codec.name">pgssub</property>
  <property name="meta.media.23.codec.long_name">HDMV Presentation Graphic Stream subtitles</property>
  <property name="meta.media.23.codec.bit_rate">0</property>
  <property name="meta.attr.23.stream.language.markup">nor</property>
  <property name="meta.attr.23.stream.title.markup">Norwegian</property>
  <property name="meta.attr.23.stream.BPS-eng.markup">20066</property>
  <property name="meta.attr.23.stream.DURATION-eng.markup">01:33:59.675000000</property>
  <property name="meta.attr.23.stream.NUMBER_OF_FRAMES-eng.markup">1184</property>
  <property name="meta.attr.23.stream.NUMBER_OF_BYTES-eng.markup">14146014</property>
  <property name="meta.attr.23.stream._STATISTICS_WRITING_APP-eng.markup">mkvmerge v40.0.0 ('Old Town Road + Pony') 64-bit</property>
  <property name="meta.attr.23.stream._STATISTICS_WRITING_DATE_UTC-eng.markup">2019-12-29 15:49:45</property>
  <property name="meta.attr.23.stream._STATISTICS_TAGS-eng.markup">BPS DURATION NUMBER_OF_FRAMES NUMBER_OF_BYTES</property>
  <property name="meta.media.24.codec.name">pgssub</property>
  <property name="meta.media.24.codec.long_name">HDMV Presentation Graphic Stream subtitles</property>
  <property name="meta.media.24.codec.bit_rate">0</property>
  <property name="meta.attr.24.stream.language.markup">pol</property>
  <property name="meta.attr.24.stream.title.markup">Polish</property>
  <property name="meta.attr.24.stream.BPS-eng.markup">18199</property>
  <property name="meta.attr.24.stream.DURATION-eng.markup">01:33:59.300000000</property>
  <property name="meta.attr.24.stream.NUMBER_OF_FRAMES-eng.markup">1688</property>
  <property name="meta.attr.24.stream.NUMBER_OF_BYTES-eng.markup">12829046</property>
  <property name="meta.attr.24.stream._STATISTICS_WRITING_APP-eng.markup">mkvmerge v40.0.0 ('Old Town Road + Pony') 64-bit</property>
  <property name="meta.attr.24.stream._STATISTICS_WRITING_DATE_UTC-eng.markup">2019-12-29 15:49:45</property>
  <property name="meta.attr.24.stream._STATISTICS_TAGS-eng.markup">BPS DURATION NUMBER_OF_FRAMES NUMBER_OF_BYTES</property>
  <property name="meta.media.25.codec.name">pgssub</property>
  <property name="meta.media.25.codec.long_name">HDMV Presentation Graphic Stream subtitles</property>
  <property name="meta.media.25.codec.bit_rate">0</property>
  <property name="meta.attr.25.stream.language.markup">por</property>
  <property name="meta.attr.25.stream.title.markup">Brazilian Portuguese</property>
  <property name="meta.attr.25.stream.BPS-eng.markup">29654</property>
  <property name="meta.attr.25.stream.DURATION-eng.markup">01:33:59.300000000</property>
  <property name="meta.attr.25.stream.NUMBER_OF_FRAMES-eng.markup">1836</property>
  <property name="meta.attr.25.stream.NUMBER_OF_BYTES-eng.markup">20903964</property>
  <property name="meta.attr.25.stream._STATISTICS_WRITING_APP-eng.markup">mkvmerge v40.0.0 ('Old Town Road + Pony') 64-bit</property>
  <property name="meta.attr.25.stream._STATISTICS_WRITING_DATE_UTC-eng.markup">2019-12-29 15:49:45</property>
  <property name="meta.attr.25.stream._STATISTICS_TAGS-eng.markup">BPS DURATION NUMBER_OF_FRAMES NUMBER_OF_BYTES</property>
  <property name="meta.media.26.codec.name">pgssub</property>
  <property name="meta.media.26.codec.long_name">HDMV Presentation Graphic Stream subtitles</property>
  <property name="meta.media.26.codec.bit_rate">0</property>
  <property name="meta.attr.26.stream.language.markup">por</property>
  <property name="meta.attr.26.stream.title.markup">Iberian Portuguese</property>
  <property name="meta.attr.26.stream.BPS-eng.markup">27145</property>
  <property name="meta.attr.26.stream.DURATION-eng.markup">01:33:59.300000000</property>
  <property name="meta.attr.26.stream.NUMBER_OF_FRAMES-eng.markup">1720</property>
  <property name="meta.attr.26.stream.NUMBER_OF_BYTES-eng.markup">19134971</property>
  <property name="meta.attr.26.stream._STATISTICS_WRITING_APP-eng.markup">mkvmerge v40.0.0 ('Old Town Road + Pony') 64-bit</property>
  <property name="meta.attr.26.stream._STATISTICS_WRITING_DATE_UTC-eng.markup">2019-12-29 15:49:45</property>
  <property name="meta.attr.26.stream._STATISTICS_TAGS-eng.markup">BPS DURATION NUMBER_OF_FRAMES NUMBER_OF_BYTES</property>
  <property name="meta.media.27.codec.name">pgssub</property>
  <property name="meta.media.27.codec.long_name">HDMV Presentation Graphic Stream subtitles</property>
  <property name="meta.media.27.codec.bit_rate">0</property>
  <property name="meta.attr.27.stream.language.markup">rum</property>
  <property name="meta.attr.27.stream.title.markup">Romanian</property>
  <property name="meta.attr.27.stream.BPS-eng.markup">25197</property>
  <property name="meta.attr.27.stream.DURATION-eng.markup">01:35:32.519000000</property>
  <property name="meta.attr.27.stream.NUMBER_OF_FRAMES-eng.markup">1706</property>
  <property name="meta.attr.27.stream.NUMBER_OF_BYTES-eng.markup">18055771</property>
  <property name="meta.attr.27.stream._STATISTICS_WRITING_APP-eng.markup">mkvmerge v40.0.0 ('Old Town Road + Pony') 64-bit</property>
  <property name="meta.attr.27.stream._STATISTICS_WRITING_DATE_UTC-eng.markup">2019-12-29 15:49:45</property>
  <property name="meta.attr.27.stream._STATISTICS_TAGS-eng.markup">BPS DURATION NUMBER_OF_FRAMES NUMBER_OF_BYTES</property>
  <property name="meta.media.28.codec.name">pgssub</property>
  <property name="meta.media.28.codec.long_name">HDMV Presentation Graphic Stream subtitles</property>
  <property name="meta.media.28.codec.bit_rate">0</property>
  <property name="meta.attr.28.stream.language.markup">slv</property>
  <property name="meta.attr.28.stream.title.markup">Slovenian</property>
  <property name="meta.attr.28.stream.BPS-eng.markup">22934</property>
  <property name="meta.attr.28.stream.DURATION-eng.markup">01:33:59.300000000</property>
  <property name="meta.attr.28.stream.NUMBER_OF_FRAMES-eng.markup">1706</property>
  <property name="meta.attr.28.stream.NUMBER_OF_BYTES-eng.markup">16167012</property>
  <property name="meta.attr.28.stream._STATISTICS_WRITING_APP-eng.markup">mkvmerge v40.0.0 ('Old Town Road + Pony') 64-bit</property>
  <property name="meta.attr.28.stream._STATISTICS_WRITING_DATE_UTC-eng.markup">2019-12-29 15:49:45</property>
  <property name="meta.attr.28.stream._STATISTICS_TAGS-eng.markup">BPS DURATION NUMBER_OF_FRAMES NUMBER_OF_BYTES</property>
  <property name="meta.media.29.codec.name">pgssub</property>
  <property name="meta.media.29.codec.long_name">HDMV Presentation Graphic Stream subtitles</property>
  <property name="meta.media.29.codec.bit_rate">0</property>
  <property name="meta.attr.29.stream.language.markup">spa</property>
  <property name="meta.attr.29.stream.title.markup">Spanish (Latin America)</property>
  <property name="meta.attr.29.stream.BPS-eng.markup">25790</property>
  <property name="meta.attr.29.stream.DURATION-eng.markup">01:35:32.519000000</property>
  <property name="meta.attr.29.stream.NUMBER_OF_FRAMES-eng.markup">1699</property>
  <property name="meta.attr.29.stream.NUMBER_OF_BYTES-eng.markup">18480666</property>
  <property name="meta.attr.29.stream._STATISTICS_WRITING_APP-eng.markup">mkvmerge v40.0.0 ('Old Town Road + Pony') 64-bit</property>
  <property name="meta.attr.29.stream._STATISTICS_WRITING_DATE_UTC-eng.markup">2019-12-29 15:49:45</property>
  <property name="meta.attr.29.stream._STATISTICS_TAGS-eng.markup">BPS DURATION NUMBER_OF_FRAMES NUMBER_OF_BYTES</property>
  <property name="meta.media.30.codec.name">pgssub</property>
  <property name="meta.media.30.codec.long_name">HDMV Presentation Graphic Stream subtitles</property>
  <property name="meta.media.30.codec.bit_rate">0</property>
  <property name="meta.attr.30.stream.language.markup">spa</property>
  <property name="meta.attr.30.stream.title.markup">Spanish (Spain)</property>
  <property name="meta.attr.30.stream.BPS-eng.markup">20473</property>
  <property name="meta.attr.30.stream.DURATION-eng.markup">01:33:59.300000000</property>
  <property name="meta.attr.30.stream.NUMBER_OF_FRAMES-eng.markup">1702</property>
  <property name="meta.attr.30.stream.NUMBER_OF_BYTES-eng.markup">14432022</property>
  <property name="meta.attr.30.stream._STATISTICS_WRITING_APP-eng.markup">mkvmerge v40.0.0 ('Old Town Road + Pony') 64-bit</property>
  <property name="meta.attr.30.stream._STATISTICS_WRITING_DATE_UTC-eng.markup">2019-12-29 15:49:45</property>
  <property name="meta.attr.30.stream._STATISTICS_TAGS-eng.markup">BPS DURATION NUMBER_OF_FRAMES NUMBER_OF_BYTES</property>
  <property name="meta.media.31.codec.name">pgssub</property>
  <property name="meta.media.31.codec.long_name">HDMV Presentation Graphic Stream subtitles</property>
  <property name="meta.media.31.codec.bit_rate">0</property>
  <property name="meta.attr.31.stream.language.markup">swe</property>
  <property name="meta.attr.31.stream.title.markup">Swedish</property>
  <property name="meta.attr.31.stream.BPS-eng.markup">19711</property>
  <property name="meta.attr.31.stream.DURATION-eng.markup">01:33:59.675000000</property>
  <property name="meta.attr.31.stream.NUMBER_OF_FRAMES-eng.markup">1184</property>
  <property name="meta.attr.31.stream.NUMBER_OF_BYTES-eng.markup">13895741</property>
  <property name="meta.attr.31.stream._STATISTICS_WRITING_APP-eng.markup">mkvmerge v40.0.0 ('Old Town Road + Pony') 64-bit</property>
  <property name="meta.attr.31.stream._STATISTICS_WRITING_DATE_UTC-eng.markup">2019-12-29 15:49:45</property>
  <property name="meta.attr.31.stream._STATISTICS_TAGS-eng.markup">BPS DURATION NUMBER_OF_FRAMES NUMBER_OF_BYTES</property>
  <property name="meta.media.32.codec.name">pgssub</property>
  <property name="meta.media.32.codec.long_name">HDMV Presentation Graphic Stream subtitles</property>
  <property name="meta.media.32.codec.bit_rate">0</property>
  <property name="meta.attr.32.stream.language.markup">tha</property>
  <property name="meta.attr.32.stream.title.markup">Thai</property>
  <property name="meta.attr.32.stream.BPS-eng.markup">20455</property>
  <property name="meta.attr.32.stream.DURATION-eng.markup">01:44:32.308000000</property>
  <property name="meta.attr.32.stream.NUMBER_OF_FRAMES-eng.markup">1708</property>
  <property name="meta.attr.32.stream.NUMBER_OF_BYTES-eng.markup">16038127</property>
  <property name="meta.attr.32.stream._STATISTICS_WRITING_APP-eng.markup">mkvmerge v40.0.0 ('Old Town Road + Pony') 64-bit</property>
  <property name="meta.attr.32.stream._STATISTICS_WRITING_DATE_UTC-eng.markup">2019-12-29 15:49:45</property>
  <property name="meta.attr.32.stream._STATISTICS_TAGS-eng.markup">BPS DURATION NUMBER_OF_FRAMES NUMBER_OF_BYTES</property>
  <property name="meta.media.33.codec.name">pgssub</property>
  <property name="meta.media.33.codec.long_name">HDMV Presentation Graphic Stream subtitles</property>
  <property name="meta.media.33.codec.bit_rate">0</property>
  <property name="meta.attr.33.stream.language.markup">tur</property>
  <property name="meta.attr.33.stream.title.markup">Turkish</property>
  <property name="meta.attr.33.stream.BPS-eng.markup">22418</property>
  <property name="meta.attr.33.stream.DURATION-eng.markup">01:33:59.217000000</property>
  <property name="meta.attr.33.stream.NUMBER_OF_FRAMES-eng.markup">1674</property>
  <property name="meta.attr.33.stream.NUMBER_OF_BYTES-eng.markup">15802734</property>
  <property name="meta.attr.33.stream._STATISTICS_WRITING_APP-eng.markup">mkvmerge v40.0.0 ('Old Town Road + Pony') 64-bit</property>
  <property name="meta.attr.33.stream._STATISTICS_WRITING_DATE_UTC-eng.markup">2019-12-29 15:49:45</property>
  <property name="meta.attr.33.stream._STATISTICS_TAGS-eng.markup">BPS DURATION NUMBER_OF_FRAMES NUMBER_OF_BYTES</property>
  <property name="meta.media.34.codec.name">srt</property>
  <property name="meta.media.34.codec.long_name">SubRip subtitle</property>
  <property name="meta.media.34.codec.bit_rate">0</property>
  <property name="meta.attr.34.stream.language.markup">eng</property>
  <property name="meta.attr.34.stream.BPS-eng.markup">48</property>
  <property name="meta.attr.34.stream.DURATION-eng.markup">01:33:45.538000000</property>
  <property name="meta.attr.34.stream.NUMBER_OF_FRAMES-eng.markup">842</property>
  <property name="meta.attr.34.stream.NUMBER_OF_BYTES-eng.markup">34158</property>
  <property name="meta.attr.34.stream._STATISTICS_WRITING_APP-eng.markup">mkvmerge v40.0.0 ('Old Town Road + Pony') 64-bit</property>
  <property name="meta.attr.34.stream._STATISTICS_WRITING_DATE_UTC-eng.markup">2019-12-29 15:49:45</property>
  <property name="meta.attr.34.stream._STATISTICS_TAGS-eng.markup">BPS DURATION NUMBER_OF_FRAMES NUMBER_OF_BYTES</property>
  <property name="meta.media.35.codec.name">srt</property>
  <property name="meta.media.35.codec.long_name">SubRip subtitle</property>
  <property name="meta.media.35.codec.bit_rate">0</property>
  <property name="meta.attr.35.stream.language.markup">eng</property>
  <property name="meta.attr.35.stream.title.markup">SDH</property>
  <property name="meta.attr.35.stream.BPS-eng.markup">43</property>
  <property name="meta.attr.35.stream.DURATION-eng.markup">01:31:41.370000000</property>
  <property name="meta.attr.35.stream.NUMBER_OF_FRAMES-eng.markup">833</property>
  <property name="meta.attr.35.stream.NUMBER_OF_BYTES-eng.markup">29767</property>
  <property name="meta.attr.35.stream._STATISTICS_WRITING_APP-eng.markup">mkvmerge v40.0.0 ('Old Town Road + Pony') 64-bit</property>
  <property name="meta.attr.35.stream._STATISTICS_WRITING_DATE_UTC-eng.markup">2019-12-29 15:49:45</property>
  <property name="meta.attr.35.stream._STATISTICS_TAGS-eng.markup">BPS DURATION NUMBER_OF_FRAMES NUMBER_OF_BYTES</property>
  <property name="meta.media.36.codec.name">srt</property>
  <property name="meta.media.36.codec.long_name">SubRip subtitle</property>
  <property name="meta.media.36.codec.bit_rate">0</property>
  <property name="meta.attr.36.stream.language.markup">swe</property>
  <property name="meta.attr.36.stream.BPS-eng.markup">47</property>
  <property name="meta.attr.36.stream.DURATION-eng.markup">01:33:48.363000000</property>
  <property name="meta.attr.36.stream.NUMBER_OF_FRAMES-eng.markup">683</property>
  <property name="meta.attr.36.stream.NUMBER_OF_BYTES-eng.markup">33075</property>
  <property name="meta.attr.36.stream._STATISTICS_WRITING_APP-eng.markup">mkvmerge v40.0.0 ('Old Town Road + Pony') 64-bit</property>
  <property name="meta.attr.36.stream._STATISTICS_WRITING_DATE_UTC-eng.markup">2019-12-29 15:49:45</property>
  <property name="meta.attr.36.stream._STATISTICS_TAGS-eng.markup">BPS DURATION NUMBER_OF_FRAMES NUMBER_OF_BYTES</property>
  <property name="meta.attr.creation_time.markup">2019-12-29T15:49:45.000000Z</property>
  <property name="meta.attr.ENCODER.markup">Lavf58.29.100</property>
  <property name="meta.media.sample_aspect_num">1</property>
  <property name="meta.media.sample_aspect_den">1</property>
  <property name="meta.media.frame_rate_num">24000</property>
  <property name="meta.media.frame_rate_den">1001</property>
  <property name="meta.media.colorspace">709</property>
  <property name="meta.media.color_trc">1</property>
  <property name="meta.media.has_b_frames">2</property>
  <property name="meta.media.width">1916</property>
  <property name="meta.media.height">1036</property>
  <property name="meta.media.aspect_ratio">1</property>
  <property name="meta.media.color_range">mpeg</property>
  <property name="xml">was here</property>
  <property name="meta.media.top_field_first">0</property>
  <property name="meta.media.progressive">1</property>
  <property name="set.test_audio">1</property>
  <property name="set.test_image">0</property>
 </chain>
 <playlist id="playlist14">
  <blank length="00:02:40.290"/>
  <entry in="00:00:36.286" out="00:00:54.721" producer="chain13">
   <property name="kdenlive:id">4</property>
   <property name="kdenlive:activeeffect">1</property>
   <filter id="filter55">
    <property name="version">0.9</property>
    <property name="mlt_service">frei0r.transparency</property>
    <property name="kdenlive_id">frei0r.transparency</property>
    <property name="0">00:00:36.286=0.746193</property>
    <property name="kdenlive:collapsed">0</property>
    <property name="disable">1</property>
   </filter>
   <filter id="filter56">
    <property name="version">0.6</property>
    <property name="mlt_service">frei0r.select0r</property>
    <property name="kdenlive_id">frei0r.select0r</property>
    <property name="Color to select">00:00:36.286=0x000000ff</property>
    <property name="Invert selection">1</property>
    <property name="Selection subspace">0</property>
    <property name="Subspace shape">0.5</property>
    <property name="Edge mode">0.9</property>
    <property name="Delta R / A / Hue">00:00:36.286=0.2</property>
    <property name="Delta G / B / Chroma">00:00:36.286=0.2</property>
    <property name="Delta B / I / I">00:00:36.286=0.2</property>
    <property name="Slope">00:00:36.286=0.188</property>
    <property name="Operation">0.5</property>
    <property name="kdenlive:collapsed">0</property>
   </filter>
   <filter id="filter57">
    <property name="color">00:00:36.286=0xffffffb4</property>
    <property name="radius">00:00:36.286=100</property>
    <property name="x">00:00:36.286=0</property>
    <property name="y">00:00:36.286=0</property>
    <property name="mlt_service">dropshadow</property>
    <property name="kdenlive_id">dropshadow</property>
    <property name="kdenlive:collapsed">0</property>
    <property name="disable">1</property>
   </filter>
   <filter id="filter58" in="00:00:50.926" out="00:00:54.721">
    <property name="start">1</property>
    <property name="level">1</property>
    <property name="mlt_service">brightness</property>
    <property name="kdenlive_id">fade_to_black</property>
    <property name="alpha">00:00:00.000=1;00:00:03.795=0</property>
    <property name="kdenlive:collapsed">0</property>
   </filter>
  </entry>
 </playlist>
 <playlist id="playlist15"/>
 <tractor id="tractor7" in="00:00:00.000" out="00:02:58.725">
  <property name="kdenlive:trackheight">84</property>
  <property name="kdenlive:timeline_active">1</property>
  <property name="kdenlive:collapsed">0</property>
  <property name="kdenlive:thumbs_format"/>
  <property name="kdenlive:audio_rec"/>
  <track hide="audio" producer="playlist14"/>
  <track hide="audio" producer="playlist15"/>
 </tractor>
 <tractor id="tractor8" in="00:00:00.000" out="01:29:50.384">
  <property name="kdenlive:duration">01:29:50.425</property>
  <property name="kdenlive:maxduration">129240</property>
  <property name="kdenlive:clipname">Sequence 1</property>
  <property name="kdenlive:description"/>
  <property name="kdenlive:uuid">{1db74e36-f274-4325-a5be-2dc513831cf7}</property>
  <property name="kdenlive:producer_type">17</property>
  <property name="kdenlive:control_uuid">{1db74e36-f274-4325-a5be-2dc513831cf7}</property>
  <property name="kdenlive:id">3</property>
  <property name="kdenlive:clip_type">0</property>
  <property name="kdenlive:file_hash">becb503f1a4343e88c2c3b673120b8ec</property>
  <property name="kdenlive:folderid">2</property>
  <property name="kdenlive:sequenceproperties.activeTrack">6</property>
  <property name="kdenlive:sequenceproperties.audioTarget">1</property>
  <property name="kdenlive:sequenceproperties.disablepreview">0</property>
  <property name="kdenlive:sequenceproperties.documentuuid">{1db74e36-f274-4325-a5be-2dc513831cf7}</property>
  <property name="kdenlive:sequenceproperties.globalSubtitleStyles">[
]
</property>
  <property name="kdenlive:sequenceproperties.hasAudio">1</property>
  <property name="kdenlive:sequenceproperties.hasVideo">1</property>
  <property name="kdenlive:sequenceproperties.hidesubtitle">0</property>
  <property name="kdenlive:sequenceproperties.position">12441</property>
  <property name="kdenlive:sequenceproperties.scrollPos">1697</property>
  <property name="kdenlive:sequenceproperties.subtitlesList">[
    {
        "file": "C:/Users/kado/AppData/Local/Temp/1753192907790-{5a4fb020-dfb8-4678-ae51-410861766279}.ass",
        "id": 0,
        "name": "Subtitles"
    }
]
</property>
  <property name="kdenlive:sequenceproperties.tracks">4</property>
  <property name="kdenlive:sequenceproperties.tracksCount">8</property>
  <property name="kdenlive:sequenceproperties.verticalzoom">1</property>
  <property name="kdenlive:sequenceproperties.videoTarget">2</property>
  <property name="kdenlive:sequenceproperties.zonein">20924</property>
  <property name="kdenlive:sequenceproperties.zoneout">21488</property>
  <property name="kdenlive:sequenceproperties.zoom">11</property>
  <property name="kdenlive:sequenceproperties.groups">[
    {
        "children": [
            {
                "data": "5:75534:-1",
                "leaf": "clip",
                "type": "Leaf"
            },
            {
                "data": "4:75568:-1",
                "leaf": "clip",
                "type": "Leaf"
            },
            {
                "data": "6:75564:-1",
                "leaf": "clip",
                "type": "Leaf"
            },
            {
                "data": "6:75534:-1",
                "leaf": "clip",
                "type": "Leaf"
            },
            {
                "data": "4:75534:-1",
                "leaf": "clip",
                "type": "Leaf"
            },
            {
                "children": [
                    {
                        "children": [
                            {
                                "data": "5:75598:-1",
                                "leaf": "clip",
                                "type": "Leaf"
                            },
                            {
                                "data": "6:75598:-1",
                                "leaf": "clip",
                                "type": "Leaf"
                            }
                        ],
                        "type": "AVSplit"
                    },
                    {
                        "data": "4:75598:-1",
                        "leaf": "clip",
                        "type": "Leaf"
                    }
                ],
                "type": "Normal"
            },
            {
                "children": [
                    {
                        "data": "4:62772:-1",
                        "leaf": "clip",
                        "type": "Leaf"
                    },
                    {
                        "data": "-2:68976:0",
                        "leaf": "subtitle",
                        "type": "Leaf"
                    },
                    {
                        "children": [
                            {
                                "data": "6:67994:-1",
                                "leaf": "clip",
                                "type": "Leaf"
                            },
                            {
                                "data": "5:67994:-1",
                                "leaf": "clip",
                                "type": "Leaf"
                            }
                        ],
                        "type": "AVSplit"
                    },
                    {
                        "children": [
                            {
                                "data": "6:68039:-1",
                                "leaf": "clip",
                                "type": "Leaf"
                            },
                            {
                                "data": "5:68027:-1",
                                "leaf": "clip",
                                "type": "Leaf"
                            }
                        ],
                        "type": "AVSplit"
                    },
                    {
                        "data": "4:71162:-1",
                        "leaf": "clip",
                        "type": "Leaf"
                    },
                    {
                        "data": "-2:68528:0",
                        "leaf": "subtitle",
                        "type": "Leaf"
                    },
                    {
                        "data": "-2:72935:0",
                        "leaf": "subtitle",
                        "type": "Leaf"
                    },
                    {
                        "data": "-2:68911:0",
                        "leaf": "subtitle",
                        "type": "Leaf"
                    },
                    {
                        "data": "-2:67393:0",
                        "leaf": "subtitle",
                        "type": "Leaf"
                    },
                    {
                        "data": "4:73525:-1",
                        "leaf": "clip",
                        "type": "Leaf"
                    },
                    {
                        "data": "-2:69269:0",
                        "leaf": "subtitle",
                        "type": "Leaf"
                    },
                    {
                        "data": "4:73560:-1",
                        "leaf": "clip",
                        "type": "Leaf"
                    },
                    {
                        "data": "-2:69492:0",
                        "leaf": "subtitle",
                        "type": "Leaf"
                    },
                    {
                        "data": "4:74212:-1",
                        "leaf": "clip",
                        "type": "Leaf"
                    },
                    {
                        "data": "-2:68670:0",
                        "leaf": "subtitle",
                        "type": "Leaf"
                    },
                    {
                        "data": "-2:69155:0",
                        "leaf": "subtitle",
                        "type": "Leaf"
                    },
                    {
                        "data": "-2:69441:0",
                        "leaf": "subtitle",
                        "type": "Leaf"
                    },
                    {
                        "data": "-2:69111:0",
                        "leaf": "subtitle",
                        "type": "Leaf"
                    },
                    {
                        "data": "-2:75371:0",
                        "leaf": "subtitle",
                        "type": "Leaf"
                    },
                    {
                        "data": "-2:68741:0",
                        "leaf": "subtitle",
                        "type": "Leaf"
                    },
                    {
                        "data": "-2:65372:0",
                        "leaf": "subtitle",
                        "type": "Leaf"
                    },
                    {
                        "data": "-2:68039:0",
                        "leaf": "subtitle",
                        "type": "Leaf"
                    },
                    {
                        "data": "-2:63295:0",
                        "leaf": "subtitle",
                        "type": "Leaf"
                    },
                    {
                        "data": "-2:67037:0",
                        "leaf": "subtitle",
                        "type": "Leaf"
                    },
                    {
                        "data": "-2:71455:0",
                        "leaf": "subtitle",
                        "type": "Leaf"
                    },
                    {
                        "data": "6:73525:-1",
                        "leaf": "clip",
                        "type": "Leaf"
                    },
                    {
                        "data": "-2:67612:0",
                        "leaf": "subtitle",
                        "type": "Leaf"
                    },
                    {
                        "data": "-2:70869:0",
                        "leaf": "subtitle",
                        "type": "Leaf"
                    },
                    {
                        "data": "-2:71116:0",
                        "leaf": "subtitle",
                        "type": "Leaf"
                    },
                    {
                        "data": "-2:69064:0",
                        "leaf": "subtitle",
                        "type": "Leaf"
                    },
                    {
                        "data": "-2:63597:0",
                        "leaf": "subtitle",
                        "type": "Leaf"
                    },
                    {
                        "data": "-2:63654:0",
                        "leaf": "subtitle",
                        "type": "Leaf"
                    },
                    {
                        "data": "-2:69320:0",
                        "leaf": "subtitle",
                        "type": "Leaf"
                    },
                    {
                        "data": "-2:70931:0",
                        "leaf": "subtitle",
                        "type": "Leaf"
                    },
                    {
                        "data": "4:68027:-1",
                        "leaf": "clip",
                        "type": "Leaf"
                    },
                    {
                        "data": "-2:75189:0",
                        "leaf": "subtitle",
                        "type": "Leaf"
                    },
                    {
                        "data": "-2:67136:0",
                        "leaf": "subtitle",
                        "type": "Leaf"
                    },
                    {
                        "data": "-2:71486:0",
                        "leaf": "subtitle",
                        "type": "Leaf"
                    },
                    {
                        "data": "-2:67067:0",
                        "leaf": "subtitle",
                        "type": "Leaf"
                    },
                    {
                        "data": "-2:69525:0",
                        "leaf": "subtitle",
                        "type": "Leaf"
                    },
                    {
                        "data": "-2:68771:0",
                        "leaf": "subtitle",
                        "type": "Leaf"
                    },
                    {
                        "data": "-2:71033:0",
                        "leaf": "subtitle",
                        "type": "Leaf"
                    },
                    {
                        "data": "-2:63852:0",
                        "leaf": "subtitle",
                        "type": "Leaf"
                    },
                    {
                        "data": "-2:75026:0",
                        "leaf": "subtitle",
                        "type": "Leaf"
                    },
                    {
                        "data": "-2:69614:0",
                        "leaf": "subtitle",
                        "type": "Leaf"
                    },
                    {
                        "data": "-2:69202:0",
                        "leaf": "subtitle",
                        "type": "Leaf"
                    },
                    {
                        "data": "5:73525:-1",
                        "leaf": "clip",
                        "type": "Leaf"
                    },
                    {
                        "data": "-2:74902:0",
                        "leaf": "subtitle",
                        "type": "Leaf"
                    },
                    {
                        "children": [
                            {
                                "data": "6:62784:-1",
                                "leaf": "clip",
                                "type": "Leaf"
                            },
                            {
                                "data": "5:62772:-1",
                                "leaf": "clip",
                                "type": "Leaf"
                            }
                        ],
                        "type": "AVSplit"
                    },
                    {
                        "data": "6:68541:-1",
                        "leaf": "clip",
                        "type": "Leaf"
                    },
                    {
                        "children": [
                            {
                                "data": "6:73577:-1",
                                "leaf": "clip",
                                "type": "Leaf"
                            },
                            {
                                "data": "5:73577:-1",
                                "leaf": "clip",
                                "type": "Leaf"
                            }
                        ],
                        "type": "AVSplit"
                    },
                    {
                        "data": "-2:72977:0",
                        "leaf": "subtitle",
                        "type": "Leaf"
                    },
                    {
                        "data": "-2:63363:0",
                        "leaf": "subtitle",
                        "type": "Leaf"
                    },
                    {
                        "data": "6:68071:-1",
                        "leaf": "clip",
                        "type": "Leaf"
                    },
                    {
                        "data": "5:68071:-1",
                        "leaf": "clip",
                        "type": "Leaf"
                    },
                    {
                        "data": "5:73560:-1",
                        "leaf": "clip",
                        "type": "Leaf"
                    },
                    {
                        "data": "-2:74984:0",
                        "leaf": "subtitle",
                        "type": "Leaf"
                    },
                    {
                        "data": "-2:73244:0",
                        "leaf": "subtitle",
                        "type": "Leaf"
                    },
                    {
                        "children": [
                            {
                                "data": "6:71174:-1",
                                "leaf": "clip",
                                "type": "Leaf"
                            },
                            {
                                "data": "5:71162:-1",
                                "leaf": "clip",
                                "type": "Leaf"
                            }
                        ],
                        "type": "AVSplit"
                    },
                    {
                        "data": "-2:75121:0",
                        "leaf": "subtitle",
                        "type": "Leaf"
                    },
                    {
                        "data": "4:68552:-1",
                        "leaf": "clip",
                        "type": "Leaf"
                    },
                    {
                        "data": "-2:72533:0",
                        "leaf": "subtitle",
                        "type": "Leaf"
                    },
                    {
                        "data": "5:68552:-1",
                        "leaf": "clip",
                        "type": "Leaf"
                    },
                    {
                        "data": "-2:74556:0",
                        "leaf": "subtitle",
                        "type": "Leaf"
                    },
                    {
                        "data": "-2:68808:0",
                        "leaf": "subtitle",
                        "type": "Leaf"
                    },
                    {
                        "children": [
                            {
                                "data": "6:74231:-1",
                                "leaf": "clip",
                                "type": "Leaf"
                            },
                            {
                                "data": "5:74211:-1",
                                "leaf": "clip",
                                "type": "Leaf"
                            }
                        ],
                        "type": "AVSplit"
                    },
                    {
                        "data": "-2:73280:0",
                        "leaf": "subtitle",
                        "type": "Leaf"
                    },
                    {
                        "data": "-2:73852:0",
                        "leaf": "subtitle",
                        "type": "Leaf"
                    },
                    {
                        "data": "-2:74102:0",
                        "leaf": "subtitle",
                        "type": "Leaf"
                    },
                    {
                        "data": "-2:73400:0",
                        "leaf": "subtitle",
                        "type": "Leaf"
                    },
                    {
                        "data": "-2:73019:0",
                        "leaf": "subtitle",
                        "type": "Leaf"
                    },
                    {
                        "data": "4:68523:-1",
                        "leaf": "clip",
                        "type": "Leaf"
                    },
                    {
                        "data": "5:68523:-1",
                        "leaf": "clip",
                        "type": "Leaf"
                    },
                    {
                        "data": "-2:74508:0",
                        "leaf": "subtitle",
                        "type": "Leaf"
                    },
                    {
                        "data": "-2:73458:0",
                        "leaf": "subtitle",
                        "type": "Leaf"
                    }
                ],
                "type": "Normal"
            },
            {
                "data": "5:75568:-1",
                "leaf": "clip",
                "type": "Leaf"
            },
            {
                "children": [
                    {
                        "children": [
                            {
                                "data": "4:77151:-1",
                                "leaf": "clip",
                                "type": "Leaf"
                            },
                            {
                                "data": "-2:85637:0",
                                "leaf": "subtitle",
                                "type": "Leaf"
                            },
                            {
                                "data": "-2:105599:0",
                                "leaf": "subtitle",
                                "type": "Leaf"
                            },
                            {
                                "data": "-2:86254:0",
                                "leaf": "subtitle",
                                "type": "Leaf"
                            },
                            {
                                "data": "-2:106971:0",
                                "leaf": "subtitle",
                                "type": "Leaf"
                            },
                            {
                                "data": "-2:86188:0",
                                "leaf": "subtitle",
                                "type": "Leaf"
                            },
                            {
                                "data": "-2:105419:0",
                                "leaf": "subtitle",
                                "type": "Leaf"
                            },
                            {
                                "data": "-2:99942:0",
                                "leaf": "subtitle",
                                "type": "Leaf"
                            },
                            {
                                "data": "-2:105199:0",
                                "leaf": "subtitle",
                                "type": "Leaf"
                            },
                            {
                                "data": "-2:99910:0",
                                "leaf": "subtitle",
                                "type": "Leaf"
                            },
                            {
                                "data": "-2:98615:0",
                                "leaf": "subtitle",
                                "type": "Leaf"
                            },
                            {
                                "data": "-2:105140:0",
                                "leaf": "subtitle",
                                "type": "Leaf"
                            },
                            {
                                "data": "-2:99608:0",
                                "leaf": "subtitle",
                                "type": "Leaf"
                            },
                            {
                                "data": "-2:98514:0",
                                "leaf": "subtitle",
                                "type": "Leaf"
                            },
                            {
                                "data": "-2:102847:0",
                                "leaf": "subtitle",
                                "type": "Leaf"
                            },
                            {
                                "data": "-2:99587:0",
                                "leaf": "subtitle",
                                "type": "Leaf"
                            },
                            {
                                "data": "-2:98458:0",
                                "leaf": "subtitle",
                                "type": "Leaf"
                            },
                            {
                                "data": "-2:102698:0",
                                "leaf": "subtitle",
                                "type": "Leaf"
                            },
                            {
                                "data": "-2:98989:0",
                                "leaf": "subtitle",
                                "type": "Leaf"
                            },
                            {
                                "data": "-2:97395:0",
                                "leaf": "subtitle",
                                "type": "Leaf"
                            },
                            {
                                "data": "-2:98767:0",
                                "leaf": "subtitle",
                                "type": "Leaf"
                            },
                            {
                                "data": "-2:85172:0",
                                "leaf": "subtitle",
                                "type": "Leaf"
                            },
                            {
                                "data": "-2:106302:0",
                                "leaf": "subtitle",
                                "type": "Leaf"
                            },
                            {
                                "data": "-2:107688:0",
                                "leaf": "subtitle",
                                "type": "Leaf"
                            },
                            {
                                "data": "-2:107785:0",
                                "leaf": "subtitle",
                                "type": "Leaf"
                            },
                            {
                                "data": "-2:77716:0",
                                "leaf": "subtitle",
                                "type": "Leaf"
                            },
                            {
                                "data": "-2:80765:0",
                                "leaf": "subtitle",
                                "type": "Leaf"
                            },
                            {
                                "data": "-2:102492:0",
                                "leaf": "subtitle",
                                "type": "Leaf"
                            },
                            {
                                "data": "-2:85222:0",
                                "leaf": "subtitle",
                                "type": "Leaf"
                            },
                            {
                                "data": "-2:98681:0",
                                "leaf": "subtitle",
                                "type": "Leaf"
                            },
                            {
                                "data": "-2:98868:0",
                                "leaf": "subtitle",
                                "type": "Leaf"
                            },
                            {
                                "data": "-2:96639:0",
                                "leaf": "subtitle",
                                "type": "Leaf"
                            },
                            {
                                "data": "-2:96507:0",
                                "leaf": "subtitle",
                                "type": "Leaf"
                            },
                            {
                                "data": "-2:96460:0",
                                "leaf": "subtitle",
                                "type": "Leaf"
                            },
                            {
                                "data": "-2:96392:0",
                                "leaf": "subtitle",
                                "type": "Leaf"
                            },
                            {
                                "data": "-2:96284:0",
                                "leaf": "subtitle",
                                "type": "Leaf"
                            },
                            {
                                "data": "-2:96218:0",
                                "leaf": "subtitle",
                                "type": "Leaf"
                            },
                            {
                                "data": "-2:96159:0",
                                "leaf": "subtitle",
                                "type": "Leaf"
                            },
                            {
                                "data": "-2:96083:0",
                                "leaf": "subtitle",
                                "type": "Leaf"
                            },
                            {
                                "data": "-2:95929:0",
                                "leaf": "subtitle",
                                "type": "Leaf"
                            },
                            {
                                "data": "-2:95855:0",
                                "leaf": "subtitle",
                                "type": "Leaf"
                            },
                            {
                                "data": "-2:95790:0",
                                "leaf": "subtitle",
                                "type": "Leaf"
                            },
                            {
                                "data": "-2:95159:0",
                                "leaf": "subtitle",
                                "type": "Leaf"
                            },
                            {
                                "data": "-2:94928:0",
                                "leaf": "subtitle",
                                "type": "Leaf"
                            },
                            {
                                "data": "-2:94770:0",
                                "leaf": "subtitle",
                                "type": "Leaf"
                            },
                            {
                                "data": "-2:94520:0",
                                "leaf": "subtitle",
                                "type": "Leaf"
                            },
                            {
                                "data": "-2:94155:0",
                                "leaf": "subtitle",
                                "type": "Leaf"
                            },
                            {
                                "data": "-2:94109:0",
                                "leaf": "subtitle",
                                "type": "Leaf"
                            },
                            {
                                "data": "-2:93302:0",
                                "leaf": "subtitle",
                                "type": "Leaf"
                            },
                            {
                                "data": "-2:93202:0",
                                "leaf": "subtitle",
                                "type": "Leaf"
                            },
                            {
                                "children": [
                                    {
                                        "data": "6:112218:-1",
                                        "leaf": "clip",
                                        "type": "Leaf"
                                    },
                                    {
                                        "data": "5:112218:-1",
                                        "leaf": "clip",
                                        "type": "Leaf"
                                    }
                                ],
                                "type": "AVSplit"
                            },
                            {
                                "children": [
                                    {
                                        "data": "6:110853:-1",
                                        "leaf": "clip",
                                        "type": "Leaf"
                                    },
                                    {
                                        "data": "5:110853:-1",
                                        "leaf": "clip",
                                        "type": "Leaf"
                                    }
                                ],
                                "type": "AVSplit"
                            },
                            {
                                "children": [
                                    {
                                        "data": "6:86643:-1",
                                        "leaf": "clip",
                                        "type": "Leaf"
                                    },
                                    {
                                        "data": "5:86631:-1",
                                        "leaf": "clip",
                                        "type": "Leaf"
                                    }
                                ],
                                "type": "AVSplit"
                            },
                            {
                                "children": [
                                    {
                                        "data": "5:83173:-1",
                                        "leaf": "clip",
                                        "type": "Leaf"
                                    },
                                    {
                                        "data": "6:83173:-1",
                                        "leaf": "clip",
                                        "type": "Leaf"
                                    }
                                ],
                                "type": "AVSplit"
                            },
                            {
                                "data": "-2:111180:0",
                                "leaf": "subtitle",
                                "type": "Leaf"
                            },
                            {
                                "children": [
                                    {
                                        "data": "5:112711:-1",
                                        "leaf": "clip",
                                        "type": "Leaf"
                                    },
                                    {
                                        "data": "6:112711:-1",
                                        "leaf": "clip",
                                        "type": "Leaf"
                                    }
                                ],
                                "type": "AVSplit"
                            },
                            {
                                "data": "-2:115365:0",
                                "leaf": "subtitle",
                                "type": "Leaf"
                            },
                            {
                                "children": [
                                    {
                                        "data": "6:86750:-1",
                                        "leaf": "clip",
                                        "type": "Leaf"
                                    },
                                    {
                                        "data": "5:86750:-1",
                                        "leaf": "clip",
                                        "type": "Leaf"
                                    }
                                ],
                                "type": "AVSplit"
                            },
                            {
                                "data": "4:82891:-1",
                                "leaf": "clip",
                                "type": "Leaf"
                            },
                            {
                                "data": "4:86631:-1",
                                "leaf": "clip",
                                "type": "Leaf"
                            },
                            {
                                "data": "-2:93150:0",
                                "leaf": "subtitle",
                                "type": "Leaf"
                            },
                            {
                                "data": "-2:93087:0",
                                "leaf": "subtitle",
                                "type": "Leaf"
                            },
                            {
                                "data": "-2:92965:0",
                                "leaf": "subtitle",
                                "type": "Leaf"
                            },
                            {
                                "data": "-2:92877:0",
                                "leaf": "subtitle",
                                "type": "Leaf"
                            },
                            {
                                "data": "-2:92812:0",
                                "leaf": "subtitle",
                                "type": "Leaf"
                            },
                            {
                                "data": "-2:92778:0",
                                "leaf": "subtitle",
                                "type": "Leaf"
                            },
                            {
                                "data": "-2:91897:0",
                                "leaf": "subtitle",
                                "type": "Leaf"
                            },
                            {
                                "data": "-2:91829:0",
                                "leaf": "subtitle",
                                "type": "Leaf"
                            },
                            {
                                "data": "-2:91674:0",
                                "leaf": "subtitle",
                                "type": "Leaf"
                            },
                            {
                                "data": "-2:91634:0",
                                "leaf": "subtitle",
                                "type": "Leaf"
                            },
                            {
                                "data": "-2:91506:0",
                                "leaf": "subtitle",
                                "type": "Leaf"
                            },
                            {
                                "data": "-2:111020:0",
                                "leaf": "subtitle",
                                "type": "Leaf"
                            },
                            {
                                "data": "-2:111129:0",
                                "leaf": "subtitle",
                                "type": "Leaf"
                            },
                            {
                                "data": "-2:111660:0",
                                "leaf": "subtitle",
                                "type": "Leaf"
                            },
                            {
                                "data": "-2:111988:0",
                                "leaf": "subtitle",
                                "type": "Leaf"
                            },
                            {
                                "data": "6:82987:-1",
                                "leaf": "clip",
                                "type": "Leaf"
                            },
                            {
                                "data": "-2:100961:0",
                                "leaf": "subtitle",
                                "type": "Leaf"
                            },
                            {
                                "data": "-2:101205:0",
                                "leaf": "subtitle",
                                "type": "Leaf"
                            },
                            {
                                "data": "-2:105846:0",
                                "leaf": "subtitle",
                                "type": "Leaf"
                            },
                            {
                                "data": "-2:107198:0",
                                "leaf": "subtitle",
                                "type": "Leaf"
                            },
                            {
                                "data": "-2:86293:0",
                                "leaf": "subtitle",
                                "type": "Leaf"
                            },
                            {
                                "data": "-2:101038:0",
                                "leaf": "subtitle",
                                "type": "Leaf"
                            },
                            {
                                "data": "-2:105685:0",
                                "leaf": "subtitle",
                                "type": "Leaf"
                            },
                            {
                                "data": "-2:101331:0",
                                "leaf": "subtitle",
                                "type": "Leaf"
                            },
                            {
                                "data": "-2:105921:0",
                                "leaf": "subtitle",
                                "type": "Leaf"
                            },
                            {
                                "data": "-2:107342:0",
                                "leaf": "subtitle",
                                "type": "Leaf"
                            },
                            {
                                "data": "-2:86350:0",
                                "leaf": "subtitle",
                                "type": "Leaf"
                            },
                            {
                                "data": "-2:101096:0",
                                "leaf": "subtitle",
                                "type": "Leaf"
                            },
                            {
                                "data": "-2:105763:0",
                                "leaf": "subtitle",
                                "type": "Leaf"
                            },
                            {
                                "data": "-2:85521:0",
                                "leaf": "subtitle",
                                "type": "Leaf"
                            },
                            {
                                "data": "-2:106207:0",
                                "leaf": "subtitle",
                                "type": "Leaf"
                            },
                            {
                                "data": "-2:86400:0",
                                "leaf": "subtitle",
                                "type": "Leaf"
                            },
                            {
                                "data": "-2:85556:0",
                                "leaf": "subtitle",
                                "type": "Leaf"
                            },
                            {
                                "data": "-2:86531:0",
                                "leaf": "subtitle",
                                "type": "Leaf"
                            },
                            {
                                "data": "-2:86140:0",
                                "leaf": "subtitle",
                                "type": "Leaf"
                            },
                            {
                                "data": "-2:85460:0",
                                "leaf": "subtitle",
                                "type": "Leaf"
                            },
                            {
                                "data": "-2:106142:0",
                                "leaf": "subtitle",
                                "type": "Leaf"
                            },
                            {
                                "data": "-2:86085:0",
                                "leaf": "subtitle",
                                "type": "Leaf"
                            },
                            {
                                "data": "-2:85416:0",
                                "leaf": "subtitle",
                                "type": "Leaf"
                            },
                            {
                                "data": "-2:101417:0",
                                "leaf": "subtitle",
                                "type": "Leaf"
                            },
                            {
                                "data": "-2:106097:0",
                                "leaf": "subtitle",
                                "type": "Leaf"
                            },
                            {
                                "data": "-2:86042:0",
                                "leaf": "subtitle",
                                "type": "Leaf"
                            },
                            {
                                "data": "-2:85362:0",
                                "leaf": "subtitle",
                                "type": "Leaf"
                            },
                            {
                                "data": "-2:101370:0",
                                "leaf": "subtitle",
                                "type": "Leaf"
                            },
                            {
                                "data": "-2:106023:0",
                                "leaf": "subtitle",
                                "type": "Leaf"
                            },
                            {
                                "data": "-2:85883:0",
                                "leaf": "subtitle",
                                "type": "Leaf"
                            },
                            {
                                "data": "-2:85803:0",
                                "leaf": "subtitle",
                                "type": "Leaf"
                            },
                            {
                                "data": "-2:85719:0",
                                "leaf": "subtitle",
                                "type": "Leaf"
                            },
                            {
                                "data": "-2:85294:0",
                                "leaf": "subtitle",
                                "type": "Leaf"
                            },
                            {
                                "data": "-2:86566:0",
                                "leaf": "subtitle",
                                "type": "Leaf"
                            },
                            {
                                "data": "-2:87367:0",
                                "leaf": "subtitle",
                                "type": "Leaf"
                            },
                            {
                                "data": "-2:87475:0",
                                "leaf": "subtitle",
                                "type": "Leaf"
                            },
                            {
                                "data": "-2:87524:0",
                                "leaf": "subtitle",
                                "type": "Leaf"
                            },
                            {
                                "data": "-2:87611:0",
                                "leaf": "subtitle",
                                "type": "Leaf"
                            },
                            {
                                "data": "-2:87675:0",
                                "leaf": "subtitle",
                                "type": "Leaf"
                            },
                            {
                                "data": "-2:87764:0",
                                "leaf": "subtitle",
                                "type": "Leaf"
                            },
                            {
                                "data": "-2:87834:0",
                                "leaf": "subtitle",
                                "type": "Leaf"
                            },
                            {
                                "data": "-2:87912:0",
                                "leaf": "subtitle",
                                "type": "Leaf"
                            },
                            {
                                "data": "-2:89031:0",
                                "leaf": "subtitle",
                                "type": "Leaf"
                            },
                            {
                                "data": "-2:89244:0",
                                "leaf": "subtitle",
                                "type": "Leaf"
                            },
                            {
                                "data": "-2:89404:0",
                                "leaf": "subtitle",
                                "type": "Leaf"
                            },
                            {
                                "data": "4:107643:-1",
                                "leaf": "clip",
                                "type": "Leaf"
                            },
                            {
                                "data": "4:99849:-1",
                                "leaf": "clip",
                                "type": "Leaf"
                            },
                            {
                                "data": "-2:85922:0",
                                "leaf": "subtitle",
                                "type": "Leaf"
                            },
                            {
                                "data": "4:110853:-1",
                                "leaf": "clip",
                                "type": "Leaf"
                            },
                            {
                                "data": "-2:91171:0",
                                "leaf": "subtitle",
                                "type": "Leaf"
                            },
                            {
                                "data": "4:112420:-1",
                                "leaf": "clip",
                                "type": "Leaf"
                            },
                            {
                                "data": "4:111329:-1",
                                "leaf": "clip",
                                "type": "Leaf"
                            },
                            {
                                "data": "4:106462:-1",
                                "leaf": "clip",
                                "type": "Leaf"
                            },
                            {
                                "data": "-2:90902:0",
                                "leaf": "subtitle",
                                "type": "Leaf"
                            },
                            {
                                "data": "4:79828:-1",
                                "leaf": "clip",
                                "type": "Leaf"
                            },
                            {
                                "data": "-2:90753:0",
                                "leaf": "subtitle",
                                "type": "Leaf"
                            },
                            {
                                "data": "4:106288:-1",
                                "leaf": "clip",
                                "type": "Leaf"
                            },
                            {
                                "data": "-2:90955:0",
                                "leaf": "subtitle",
                                "type": "Leaf"
                            },
                            {
                                "data": "4:106078:-1",
                                "leaf": "clip",
                                "type": "Leaf"
                            },
                            {
                                "data": "4:83173:-1",
                                "leaf": "clip",
                                "type": "Leaf"
                            },
                            {
                                "data": "-2:91028:0",
                                "leaf": "subtitle",
                                "type": "Leaf"
                            },
                            {
                                "data": "-2:90799:0",
                                "leaf": "subtitle",
                                "type": "Leaf"
                            },
                            {
                                "data": "-2:91353:0",
                                "leaf": "subtitle",
                                "type": "Leaf"
                            },
                            {
                                "data": "-2:91209:0",
                                "leaf": "subtitle",
                                "type": "Leaf"
                            },
                            {
                                "data": "-2:89714:0",
                                "leaf": "subtitle",
                                "type": "Leaf"
                            },
                            {
                                "data": "-2:89464:0",
                                "leaf": "subtitle",
                                "type": "Leaf"
                            },
                            {
                                "data": "4:111903:-1",
                                "leaf": "clip",
                                "type": "Leaf"
                            },
                            {
                                "data": "-2:91241:0",
                                "leaf": "subtitle",
                                "type": "Leaf"
                            },
                            {
                                "data": "-2:111940:0",
                                "leaf": "subtitle",
                                "type": "Leaf"
                            },
                            {
                                "data": "-2:88051:0",
                                "leaf": "subtitle",
                                "type": "Leaf"
                            },
                            {
                                "data": "4:116804:-1",
                                "leaf": "clip",
                                "type": "Leaf"
                            },
                            {
                                "data": "-2:96825:0",
                                "leaf": "subtitle",
                                "type": "Leaf"
                            },
                            {
                                "data": "-2:91306:0",
                                "leaf": "subtitle",
                                "type": "Leaf"
                            },
                            {
                                "data": "-2:97033:0",
                                "leaf": "subtitle",
                                "type": "Leaf"
                            },
                            {
                                "data": "-2:85960:0",
                                "leaf": "subtitle",
                                "type": "Leaf"
                            },
                            {
                                "data": "-2:97506:0",
                                "leaf": "subtitle",
                                "type": "Leaf"
                            },
                            {
                                "data": "-2:97344:0",
                                "leaf": "subtitle",
                                "type": "Leaf"
                            },
                            {
                                "data": "-2:97235:0",
                                "leaf": "subtitle",
                                "type": "Leaf"
                            },
                            {
                                "data": "-2:97162:0",
                                "leaf": "subtitle",
                                "type": "Leaf"
                            },
                            {
                                "data": "-2:97095:0",
                                "leaf": "subtitle",
                                "type": "Leaf"
                            },
                            {
                                "data": "-2:96962:0",
                                "leaf": "subtitle",
                                "type": "Leaf"
                            },
                            {
                                "data": "-2:96870:0",
                                "leaf": "subtitle",
                                "type": "Leaf"
                            },
                            {
                                "data": "-2:96755:0",
                                "leaf": "subtitle",
                                "type": "Leaf"
                            },
                            {
                                "data": "-2:89601:0",
                                "leaf": "subtitle",
                                "type": "Leaf"
                            },
                            {
                                "data": "-2:89571:0",
                                "leaf": "subtitle",
                                "type": "Leaf"
                            },
                            {
                                "data": "-2:89356:0",
                                "leaf": "subtitle",
                                "type": "Leaf"
                            },
                            {
                                "data": "-2:88349:0",
                                "leaf": "subtitle",
                                "type": "Leaf"
                            },
                            {
                                "data": "-2:88282:0",
                                "leaf": "subtitle",
                                "type": "Leaf"
                            },
                            {
                                "data": "-2:88240:0",
                                "leaf": "subtitle",
                                "type": "Leaf"
                            },
                            {
                                "data": "-2:88116:0",
                                "leaf": "subtitle",
                                "type": "Leaf"
                            },
                            {
                                "data": "-2:87950:0",
                                "leaf": "subtitle",
                                "type": "Leaf"
                            },
                            {
                                "children": [
                                    {
                                        "data": "5:106288:-1",
                                        "leaf": "clip",
                                        "type": "Leaf"
                                    },
                                    {
                                        "data": "6:106293:-1",
                                        "leaf": "clip",
                                        "type": "Leaf"
                                    }
                                ],
                                "type": "AVSplit"
                            },
                            {
                                "data": "-2:101992:0",
                                "leaf": "subtitle",
                                "type": "Leaf"
                            },
                            {
                                "data": "3:123761:-1",
                                "leaf": "clip",
                                "type": "Leaf"
                            },
                            {
                                "data": "-2:102090:0",
                                "leaf": "subtitle",
                                "type": "Leaf"
                            },
                            {
                                "data": "5:82891:-1",
                                "leaf": "clip",
                                "type": "Leaf"
                            },
                            {
                                "children": [
                                    {
                                        "data": "6:116816:-1",
                                        "leaf": "clip",
                                        "type": "Leaf"
                                    },
                                    {
                                        "data": "5:116804:-1",
                                        "leaf": "clip",
                                        "type": "Leaf"
                                    }
                                ],
                                "type": "AVSplit"
                            },
                            {
                                "children": [
                                    {
                                        "data": "5:111329:-1",
                                        "leaf": "clip",
                                        "type": "Leaf"
                                    },
                                    {
                                        "data": "6:111341:-1",
                                        "leaf": "clip",
                                        "type": "Leaf"
                                    }
                                ],
                                "type": "AVSplit"
                            },
                            {
                                "data": "-2:101461:0",
                                "leaf": "subtitle",
                                "type": "Leaf"
                            },
                            {
                                "data": "-2:101727:0",
                                "leaf": "subtitle",
                                "type": "Leaf"
                            },
                            {
                                "data": "-2:108857:0",
                                "leaf": "subtitle",
                                "type": "Leaf"
                            },
                            {
                                "data": "-2:101562:0",
                                "leaf": "subtitle",
                                "type": "Leaf"
                            },
                            {
                                "data": "-2:101645:0",
                                "leaf": "subtitle",
                                "type": "Leaf"
                            },
                            {
                                "children": [
                                    {
                                        "children": [
                                            {
                                                "data": "6:112329:-1",
                                                "leaf": "clip",
                                                "type": "Leaf"
                                            },
                                            {
                                                "data": "5:112329:-1",
                                                "leaf": "clip",
                                                "type": "Leaf"
                                            }
                                        ],
                                        "type": "AVSplit"
                                    },
                                    {
                                        "data": "4:112329:-1",
                                        "leaf": "clip",
                                        "type": "Leaf"
                                    }
                                ],
                                "type": "Normal"
                            },
                            {
                                "children": [
                                    {
                                        "data": "5:77151:-1",
                                        "leaf": "clip",
                                        "type": "Leaf"
                                    },
                                    {
                                        "data": "6:77187:-1",
                                        "leaf": "clip",
                                        "type": "Leaf"
                                    }
                                ],
                                "type": "AVSplit"
                            },
                            {
                                "data": "-2:102147:0",
                                "leaf": "subtitle",
                                "type": "Leaf"
                            },
                            {
                                "data": "-2:101862:0",
                                "leaf": "subtitle",
                                "type": "Leaf"
                            },
                            {
                                "children": [
                                    {
                                        "data": "5:107643:-1",
                                        "leaf": "clip",
                                        "type": "Leaf"
                                    },
                                    {
                                        "data": "6:107655:-1",
                                        "leaf": "clip",
                                        "type": "Leaf"
                                    }
                                ],
                                "type": "AVSplit"
                            },
                            {
                                "data": "-2:101808:0",
                                "leaf": "subtitle",
                                "type": "Leaf"
                            },
                            {
                                "children": [
                                    {
                                        "data": "6:106474:-1",
                                        "leaf": "clip",
                                        "type": "Leaf"
                                    },
                                    {
                                        "data": "5:106462:-1",
                                        "leaf": "clip",
                                        "type": "Leaf"
                                    }
                                ],
                                "type": "AVSplit"
                            },
                            {
                                "data": "-2:102613:0",
                                "leaf": "subtitle",
                                "type": "Leaf"
                            },
                            {
                                "data": "-2:111067:0",
                                "leaf": "subtitle",
                                "type": "Leaf"
                            },
                            {
                                "data": "-2:102426:0",
                                "leaf": "subtitle",
                                "type": "Leaf"
                            },
                            {
                                "data": "-2:110937:0",
                                "leaf": "subtitle",
                                "type": "Leaf"
                            },
                            {
                                "data": "-2:102405:0",
                                "leaf": "subtitle",
                                "type": "Leaf"
                            },
                            {
                                "data": "-2:110855:0",
                                "leaf": "subtitle",
                                "type": "Leaf"
                            },
                            {
                                "data": "6:123861:-1",
                                "leaf": "clip",
                                "type": "Leaf"
                            },
                            {
                                "data": "-2:102297:0",
                                "leaf": "subtitle",
                                "type": "Leaf"
                            },
                            {
                                "data": "-2:108953:0",
                                "leaf": "subtitle",
                                "type": "Leaf"
                            },
                            {
                                "data": "-2:102218:0",
                                "leaf": "subtitle",
                                "type": "Leaf"
                            },
                            {
                                "data": "-2:108887:0",
                                "leaf": "subtitle",
                                "type": "Leaf"
                            },
                            {
                                "children": [
                                    {
                                        "data": "6:112743:-1",
                                        "leaf": "clip",
                                        "type": "Leaf"
                                    },
                                    {
                                        "data": "5:112743:-1",
                                        "leaf": "clip",
                                        "type": "Leaf"
                                    }
                                ],
                                "type": "AVSplit"
                            },
                            {
                                "children": [
                                    {
                                        "data": "5:99849:-1",
                                        "leaf": "clip",
                                        "type": "Leaf"
                                    },
                                    {
                                        "data": "6:99861:-1",
                                        "leaf": "clip",
                                        "type": "Leaf"
                                    }
                                ],
                                "type": "AVSplit"
                            },
                            {
                                "children": [
                                    {
                                        "data": "5:111903:-1",
                                        "leaf": "clip",
                                        "type": "Leaf"
                                    },
                                    {
                                        "data": "6:111903:-1",
                                        "leaf": "clip",
                                        "type": "Leaf"
                                    }
                                ],
                                "type": "AVSplit"
                            },
                            {
                                "children": [
                                    {
                                        "data": "6:106092:-1",
                                        "leaf": "clip",
                                        "type": "Leaf"
                                    },
                                    {
                                        "data": "5:106078:-1",
                                        "leaf": "clip",
                                        "type": "Leaf"
                                    }
                                ],
                                "type": "AVSplit"
                            },
                            {
                                "children": [
                                    {
                                        "data": "5:112420:-1",
                                        "leaf": "clip",
                                        "type": "Leaf"
                                    },
                                    {
                                        "data": "6:112432:-1",
                                        "leaf": "clip",
                                        "type": "Leaf"
                                    }
                                ],
                                "type": "AVSplit"
                            },
                            {
                                "data": "-2:112093:0",
                                "leaf": "subtitle",
                                "type": "Leaf"
                            },
                            {
                                "children": [
                                    {
                                        "data": "6:79840:-1",
                                        "leaf": "clip",
                                        "type": "Leaf"
                                    },
                                    {
                                        "data": "5:79828:-1",
                                        "leaf": "clip",
                                        "type": "Leaf"
                                    }
                                ],
                                "type": "AVSplit"
                            },
                            {
                                "data": "-2:112140:0",
                                "leaf": "subtitle",
                                "type": "Leaf"
                            },
                            {
                                "children": [
                                    {
                                        "data": "6:112635:-1",
                                        "leaf": "clip",
                                        "type": "Leaf"
                                    },
                                    {
                                        "data": "5:112635:-1",
                                        "leaf": "clip",
                                        "type": "Leaf"
                                    }
                                ],
                                "type": "AVSplit"
                            },
                            {
                                "data": "-2:112712:0",
                                "leaf": "subtitle",
                                "type": "Leaf"
                            }
                        ],
                        "type": "Normal"
                    },
                    {
                        "children": [
                            {
                                "data": "4:75629:-1",
                                "leaf": "clip",
                                "type": "Leaf"
                            },
                            {
                                "children": [
                                    {
                                        "data": "5:75629:-1",
                                        "leaf": "clip",
                                        "type": "Leaf"
                                    },
                                    {
                                        "data": "6:75641:-1",
                                        "leaf": "clip",
                                        "type": "Leaf"
                                    }
                                ],
                                "type": "AVSplit"
                            },
                            {
                                "data": "-2:76524:0",
                                "leaf": "subtitle",
                                "type": "Leaf"
                            },
                            {
                                "data": "-2:76444:0",
                                "leaf": "subtitle",
                                "type": "Leaf"
                            },
                            {
                                "data": "-2:76395:0",
                                "leaf": "subtitle",
                                "type": "Leaf"
                            }
                        ],
                        "type": "Normal"
                    }
                ],
                "type": "Normal"
            }
        ],
        "type": "Normal"
    },
    {
        "children": [
            {
                "data": "-2:24562:0",
                "leaf": "subtitle",
                "type": "Leaf"
            },
            {
                "data": "4:16156:-1",
                "leaf": "clip",
                "type": "Leaf"
            },
            {
                "data": "-2:24241:0",
                "leaf": "subtitle",
                "type": "Leaf"
            },
            {
                "data": "4:11860:-1",
                "leaf": "clip",
                "type": "Leaf"
            },
            {
                "children": [
                    {
                        "data": "4:12872:-1",
                        "leaf": "clip",
                        "type": "Leaf"
                    },
                    {
                        "children": [
                            {
                                "data": "6:12882:-1",
                                "leaf": "clip",
                                "type": "Leaf"
                            },
                            {
                                "data": "5:12874:-1",
                                "leaf": "clip",
                                "type": "Leaf"
                            }
                        ],
                        "type": "AVSplit"
                    }
                ],
                "type": "Normal"
            },
            {
                "data": "-2:20805:0",
                "leaf": "subtitle",
                "type": "Leaf"
            },
            {
                "data": "-2:16837:0",
                "leaf": "subtitle",
                "type": "Leaf"
            },
            {
                "data": "-2:13460:0",
                "leaf": "subtitle",
                "type": "Leaf"
            },
            {
                "data": "-2:12504:0",
                "leaf": "subtitle",
                "type": "Leaf"
            },
            {
                "data": "-2:28901:0",
                "leaf": "subtitle",
                "type": "Leaf"
            },
            {
                "data": "-2:19223:0",
                "leaf": "subtitle",
                "type": "Leaf"
            },
            {
                "data": "-2:26324:0",
                "leaf": "subtitle",
                "type": "Leaf"
            },
            {
                "data": "-2:13609:0",
                "leaf": "subtitle",
                "type": "Leaf"
            },
            {
                "data": "-2:21580:0",
                "leaf": "subtitle",
                "type": "Leaf"
            },
            {
                "children": [
                    {
                        "data": "5:19052:-1",
                        "leaf": "clip",
                        "type": "Leaf"
                    },
                    {
                        "data": "6:19060:-1",
                        "leaf": "clip",
                        "type": "Leaf"
                    }
                ],
                "type": "AVSplit"
            },
            {
                "data": "5:16186:-1",
                "leaf": "clip",
                "type": "Leaf"
            },
            {
                "data": "-2:16640:0",
                "leaf": "subtitle",
                "type": "Leaf"
            },
            {
                "data": "-2:24758:0",
                "leaf": "subtitle",
                "type": "Leaf"
            },
            {
                "data": "4:16246:-1",
                "leaf": "clip",
                "type": "Leaf"
            },
            {
                "data": "-2:27733:0",
                "leaf": "subtitle",
                "type": "Leaf"
            },
            {
                "data": "-2:11097:0",
                "leaf": "subtitle",
                "type": "Leaf"
            },
            {
                "data": "-2:3307:0",
                "leaf": "subtitle",
                "type": "Leaf"
            },
            {
                "data": "-2:27029:0",
                "leaf": "subtitle",
                "type": "Leaf"
            },
            {
                "data": "4:12928:-1",
                "leaf": "clip",
                "type": "Leaf"
            },
            {
                "data": "-2:24861:0",
                "leaf": "subtitle",
                "type": "Leaf"
            },
            {
                "data": "4:16928:-1",
                "leaf": "clip",
                "type": "Leaf"
            },
            {
                "data": "-2:27903:0",
                "leaf": "subtitle",
                "type": "Leaf"
            },
            {
                "data": "-2:11332:0",
                "leaf": "subtitle",
                "type": "Leaf"
            },
            {
                "children": [
                    {
                        "data": "6:12933:-1",
                        "leaf": "clip",
                        "type": "Leaf"
                    },
                    {
                        "data": "5:12928:-1",
                        "leaf": "clip",
                        "type": "Leaf"
                    }
                ],
                "type": "AVSplit"
            },
            {
                "data": "-2:20876:0",
                "leaf": "subtitle",
                "type": "Leaf"
            },
            {
                "data": "-2:27624:0",
                "leaf": "subtitle",
                "type": "Leaf"
            },
            {
                "data": "-2:11062:0",
                "leaf": "subtitle",
                "type": "Leaf"
            },
            {
                "data": "-2:26151:0",
                "leaf": "subtitle",
                "type": "Leaf"
            },
            {
                "data": "-2:13023:0",
                "leaf": "subtitle",
                "type": "Leaf"
            },
            {
                "data": "-2:29138:0",
                "leaf": "subtitle",
                "type": "Leaf"
            },
            {
                "children": [
                    {
                        "data": "4:12690:-1",
                        "leaf": "clip",
                        "type": "Leaf"
                    },
                    {
                        "children": [
                            {
                                "data": "6:12702:-1",
                                "leaf": "clip",
                                "type": "Leaf"
                            },
                            {
                                "data": "5:12690:-1",
                                "leaf": "clip",
                                "type": "Leaf"
                            }
                        ],
                        "type": "AVSplit"
                    }
                ],
                "type": "Normal"
            },
            {
                "data": "-2:20552:0",
                "leaf": "subtitle",
                "type": "Leaf"
            },
            {
                "data": "-2:18446:0",
                "leaf": "subtitle",
                "type": "Leaf"
            },
            {
                "data": "-2:26670:0",
                "leaf": "subtitle",
                "type": "Leaf"
            },
            {
                "data": "-2:2957:0",
                "leaf": "subtitle",
                "type": "Leaf"
            },
            {
                "data": "-2:26046:0",
                "leaf": "subtitle",
                "type": "Leaf"
            },
            {
                "data": "-2:24045:0",
                "leaf": "subtitle",
                "type": "Leaf"
            },
            {
                "data": "-2:23003:0",
                "leaf": "subtitle",
                "type": "Leaf"
            },
            {
                "children": [
                    {
                        "data": "5:26136:-1",
                        "leaf": "clip",
                        "type": "Leaf"
                    },
                    {
                        "data": "6:26151:-1",
                        "leaf": "clip",
                        "type": "Leaf"
                    }
                ],
                "type": "AVSplit"
            },
            {
                "data": "-2:27478:0",
                "leaf": "subtitle",
                "type": "Leaf"
            },
            {
                "data": "-2:6464:0",
                "leaf": "subtitle",
                "type": "Leaf"
            },
            {
                "children": [
                    {
                        "data": "4:29845:-1",
                        "leaf": "clip",
                        "type": "Leaf"
                    },
                    {
                        "children": [
                            {
                                "data": "6:29869:-1",
                                "leaf": "clip",
                                "type": "Leaf"
                            },
                            {
                                "data": "5:29845:-1",
                                "leaf": "clip",
                                "type": "Leaf"
                            }
                        ],
                        "type": "AVSplit"
                    }
                ],
                "type": "Normal"
            },
            {
                "data": "-2:23382:0",
                "leaf": "subtitle",
                "type": "Leaf"
            },
            {
                "data": "-2:25642:0",
                "leaf": "subtitle",
                "type": "Leaf"
            },
            {
                "data": "4:28300:-1",
                "leaf": "clip",
                "type": "Leaf"
            },
            {
                "data": "-2:25255:0",
                "leaf": "subtitle",
                "type": "Leaf"
            },
            {
                "data": "-2:20460:0",
                "leaf": "subtitle",
                "type": "Leaf"
            },
            {
                "data": "-2:19484:0",
                "leaf": "subtitle",
                "type": "Leaf"
            },
            {
                "data": "-2:24641:0",
                "leaf": "subtitle",
                "type": "Leaf"
            },
            {
                "data": "4:16186:-1",
                "leaf": "clip",
                "type": "Leaf"
            },
            {
                "data": "4:21040:-1",
                "leaf": "clip",
                "type": "Leaf"
            },
            {
                "data": "-2:25169:0",
                "leaf": "subtitle",
                "type": "Leaf"
            },
            {
                "data": "-2:23842:0",
                "leaf": "subtitle",
                "type": "Leaf"
            },
            {
                "data": "3:21038:-1",
                "leaf": "clip",
                "type": "Leaf"
            },
            {
                "data": "-2:24423:0",
                "leaf": "subtitle",
                "type": "Leaf"
            },
            {
                "data": "-2:16096:0",
                "leaf": "subtitle",
                "type": "Leaf"
            },
            {
                "data": "-2:26790:0",
                "leaf": "subtitle",
                "type": "Leaf"
            },
            {
                "data": "-2:3068:0",
                "leaf": "subtitle",
                "type": "Leaf"
            },
            {
                "data": "-2:25750:0",
                "leaf": "subtitle",
                "type": "Leaf"
            },
            {
                "data": "-2:25862:0",
                "leaf": "subtitle",
                "type": "Leaf"
            },
            {
                "data": "4:16611:-1",
                "leaf": "clip",
                "type": "Leaf"
            },
            {
                "data": "-2:27084:0",
                "leaf": "subtitle",
                "type": "Leaf"
            },
            {
                "data": "-2:27550:0",
                "leaf": "subtitle",
                "type": "Leaf"
            },
            {
                "data": "-2:11009:0",
                "leaf": "subtitle",
                "type": "Leaf"
            },
            {
                "data": "-2:3108:0",
                "leaf": "subtitle",
                "type": "Leaf"
            },
            {
                "data": "-2:26879:0",
                "leaf": "subtitle",
                "type": "Leaf"
            },
            {
                "data": "4:12387:-1",
                "leaf": "clip",
                "type": "Leaf"
            },
            {
                "data": "-2:20650:0",
                "leaf": "subtitle",
                "type": "Leaf"
            },
            {
                "children": [
                    {
                        "data": "5:28296:-1",
                        "leaf": "clip",
                        "type": "Leaf"
                    },
                    {
                        "data": "6:28304:-1",
                        "leaf": "clip",
                        "type": "Leaf"
                    }
                ],
                "type": "AVSplit"
            },
            {
                "data": "-2:25369:0",
                "leaf": "subtitle",
                "type": "Leaf"
            },
            {
                "data": "4:19130:-1",
                "leaf": "clip",
                "type": "Leaf"
            },
            {
                "data": "-2:24942:0",
                "leaf": "subtitle",
                "type": "Leaf"
            },
            {
                "data": "-2:25965:0",
                "leaf": "subtitle",
                "type": "Leaf"
            },
            {
                "data": "6:16156:-1",
                "leaf": "clip",
                "type": "Leaf"
            },
            {
                "data": "-2:21307:0",
                "leaf": "subtitle",
                "type": "Leaf"
            },
            {
                "children": [
                    {
                        "data": "2:469:-1",
                        "leaf": "clip",
                        "type": "Leaf"
                    },
                    {
                        "data": "3:0:-1",
                        "leaf": "clip",
                        "type": "Leaf"
                    },
                    {
                        "data": "4:36:-1",
                        "leaf": "clip",
                        "type": "Leaf"
                    },
                    {
                        "children": [
                            {
                                "data": "5:0:-1",
                                "leaf": "clip",
                                "type": "Leaf"
                            },
                            {
                                "data": "6:0:-1",
                                "leaf": "clip",
                                "type": "Leaf"
                            }
                        ],
                        "type": "AVSplit"
                    }
                ],
                "type": "Normal"
            },
            {
                "data": "-2:12941:0",
                "leaf": "subtitle",
                "type": "Leaf"
            },
            {
                "data": "-2:17340:0",
                "leaf": "subtitle",
                "type": "Leaf"
            },
            {
                "data": "7:3843:-1",
                "leaf": "clip",
                "type": "Leaf"
            },
            {
                "data": "-2:16720:0",
                "leaf": "subtitle",
                "type": "Leaf"
            },
            {
                "children": [
                    {
                        "data": "4:30103:-1",
                        "leaf": "clip",
                        "type": "Leaf"
                    },
                    {
                        "children": [
                            {
                                "data": "6:30115:-1",
                                "leaf": "clip",
                                "type": "Leaf"
                            },
                            {
                                "data": "5:30103:-1",
                                "leaf": "clip",
                                "type": "Leaf"
                            }
                        ],
                        "type": "AVSplit"
                    }
                ],
                "type": "Normal"
            },
            {
                "data": "-2:24795:0",
                "leaf": "subtitle",
                "type": "Leaf"
            },
            {
                "data": "4:16256:-1",
                "leaf": "clip",
                "type": "Leaf"
            },
            {
                "data": "6:16230:-1",
                "leaf": "clip",
                "type": "Leaf"
            },
            {
                "data": "-2:26014:0",
                "leaf": "subtitle",
                "type": "Leaf"
            },
            {
                "children": [
                    {
                        "data": "6:14729:-1",
                        "leaf": "clip",
                        "type": "Leaf"
                    },
                    {
                        "data": "5:14724:-1",
                        "leaf": "clip",
                        "type": "Leaf"
                    }
                ],
                "type": "AVSplit"
            },
            {
                "data": "-2:21447:0",
                "leaf": "subtitle",
                "type": "Leaf"
            },
            {
                "children": [
                    {
                        "data": "6:19135:-1",
                        "leaf": "clip",
                        "type": "Leaf"
                    },
                    {
                        "data": "5:19123:-1",
                        "leaf": "clip",
                        "type": "Leaf"
                    }
                ],
                "type": "AVSplit"
            },
            {
                "data": "-2:21508:0",
                "leaf": "subtitle",
                "type": "Leaf"
            },
            {
                "children": [
                    {
                        "data": "6:16246:-1",
                        "leaf": "clip",
                        "type": "Leaf"
                    },
                    {
                        "data": "5:16246:-1",
                        "leaf": "clip",
                        "type": "Leaf"
                    }
                ],
                "type": "AVSplit"
            },
            {
                "data": "-2:19155:0",
                "leaf": "subtitle",
                "type": "Leaf"
            },
            {
                "data": "-2:11183:0",
                "leaf": "subtitle",
                "type": "Leaf"
            },
            {
                "data": "-2:27809:0",
                "leaf": "subtitle",
                "type": "Leaf"
            },
            {
                "data": "-2:21361:0",
                "leaf": "subtitle",
                "type": "Leaf"
            },
            {
                "children": [
                    {
                        "data": "6:16256:-1",
                        "leaf": "clip",
                        "type": "Leaf"
                    },
                    {
                        "data": "5:16256:-1",
                        "leaf": "clip",
                        "type": "Leaf"
                    }
                ],
                "type": "AVSplit"
            },
            {
                "data": "-2:18413:0",
                "leaf": "subtitle",
                "type": "Leaf"
            },
            {
                "data": "-2:23110:0",
                "leaf": "subtitle",
                "type": "Leaf"
            },
            {
                "children": [
                    {
                        "data": "5:11860:-1",
                        "leaf": "clip",
                        "type": "Leaf"
                    },
                    {
                        "data": "6:11864:-1",
                        "leaf": "clip",
                        "type": "Leaf"
                    }
                ],
                "type": "AVSplit"
            },
            {
                "data": "-2:16186:0",
                "leaf": "subtitle",
                "type": "Leaf"
            },
            {
                "data": "-2:27209:0",
                "leaf": "subtitle",
                "type": "Leaf"
            },
            {
                "data": "-2:3555:0",
                "leaf": "subtitle",
                "type": "Leaf"
            },
            {
                "data": "-2:23313:0",
                "leaf": "subtitle",
                "type": "Leaf"
            },
            {
                "data": "2:718:-1",
                "leaf": "clip",
                "type": "Leaf"
            },
            {
                "data": "-2:20351:0",
                "leaf": "subtitle",
                "type": "Leaf"
            },
            {
                "children": [
                    {
                        "data": "5:12392:-1",
                        "leaf": "clip",
                        "type": "Leaf"
                    },
                    {
                        "data": "6:12401:-1",
                        "leaf": "clip",
                        "type": "Leaf"
                    }
                ],
                "type": "AVSplit"
            },
            {
                "data": "-2:24352:0",
                "leaf": "subtitle",
                "type": "Leaf"
            },
            {
                "data": "-2:23727:0",
                "leaf": "subtitle",
                "type": "Leaf"
            },
            {
                "data": "3:20985:-1",
                "leaf": "clip",
                "type": "Leaf"
            },
            {
                "children": [
                    {
                        "data": "4:20936:-1",
                        "leaf": "clip",
                        "type": "Leaf"
                    },
                    {
                        "children": [
                            {
                                "data": "6:20946:-1",
                                "leaf": "clip",
                                "type": "Leaf"
                            },
                            {
                                "data": "5:20936:-1",
                                "leaf": "clip",
                                "type": "Leaf"
                            }
                        ],
                        "type": "AVSplit"
                    }
                ],
                "type": "Normal"
            },
            {
                "data": "-2:17103:0",
                "leaf": "subtitle",
                "type": "Leaf"
            },
            {
                "children": [
                    {
                        "data": "5:16611:-1",
                        "leaf": "clip",
                        "type": "Leaf"
                    },
                    {
                        "data": "6:16616:-1",
                        "leaf": "clip",
                        "type": "Leaf"
                    }
                ],
                "type": "AVSplit"
            },
            {
                "data": "2:688:-1",
                "leaf": "clip",
                "type": "Leaf"
            },
            {
                "data": "-2:23210:0",
                "leaf": "subtitle",
                "type": "Leaf"
            },
            {
                "data": "-2:25603:0",
                "leaf": "subtitle",
                "type": "Leaf"
            },
            {
                "data": "-2:12401:0",
                "leaf": "subtitle",
                "type": "Leaf"
            },
            {
                "data": "-2:28741:0",
                "leaf": "subtitle",
                "type": "Leaf"
            },
            {
                "data": "-2:19065:0",
                "leaf": "subtitle",
                "type": "Leaf"
            },
            {
                "data": "-2:26202:0",
                "leaf": "subtitle",
                "type": "Leaf"
            },
            {
                "data": "-2:24145:0",
                "leaf": "subtitle",
                "type": "Leaf"
            },
            {
                "children": [
                    {
                        "data": "4:3912:-1",
                        "leaf": "clip",
                        "type": "Leaf"
                    },
                    {
                        "children": [
                            {
                                "data": "6:3912:-1",
                                "leaf": "clip",
                                "type": "Leaf"
                            },
                            {
                                "data": "5:3912:-1",
                                "leaf": "clip",
                                "type": "Leaf"
                            }
                        ],
                        "type": "AVSplit"
                    }
                ],
                "type": "Normal"
            },
            {
                "data": "-2:28831:0",
                "leaf": "subtitle",
                "type": "Leaf"
            },
            {
                "data": "-2:12448:0",
                "leaf": "subtitle",
                "type": "Leaf"
            },
            {
                "data": "3:688:-1",
                "leaf": "clip",
                "type": "Leaf"
            },
            {
                "data": "-2:23578:0",
                "leaf": "subtitle",
                "type": "Leaf"
            },
            {
                "children": [
                    {
                        "data": "4:12637:-1",
                        "leaf": "clip",
                        "type": "Leaf"
                    },
                    {
                        "children": [
                            {
                                "data": "5:12637:-1",
                                "leaf": "clip",
                                "type": "Leaf"
                            },
                            {
                                "data": "6:12637:-1",
                                "leaf": "clip",
                                "type": "Leaf"
                            }
                        ],
                        "type": "AVSplit"
                    }
                ],
                "type": "Normal"
            },
            {
                "data": "-2:18342:0",
                "leaf": "subtitle",
                "type": "Leaf"
            },
            {
                "data": "-2:17774:0",
                "leaf": "subtitle",
                "type": "Leaf"
            },
            {
                "data": "4:22980:-1",
                "leaf": "clip",
                "type": "Leaf"
            },
            {
                "data": "-2:25218:0",
                "leaf": "subtitle",
                "type": "Leaf"
            },
            {
                "data": "-2:17134:0",
                "leaf": "subtitle",
                "type": "Leaf"
            },
            {
                "data": "-2:17256:0",
                "leaf": "subtitle",
                "type": "Leaf"
            },
            {
                "data": "-2:23939:0",
                "leaf": "subtitle",
                "type": "Leaf"
            },
            {
                "children": [
                    {
                        "data": "4:21683:-1",
                        "leaf": "clip",
                        "type": "Leaf"
                    },
                    {
                        "children": [
                            {
                                "data": "5:21683:-1",
                                "leaf": "clip",
                                "type": "Leaf"
                            },
                            {
                                "data": "6:21695:-1",
                                "leaf": "clip",
                                "type": "Leaf"
                            }
                        ],
                        "type": "AVSplit"
                    }
                ],
                "type": "Normal"
            },
            {
                "data": "-2:26121:0",
                "leaf": "subtitle",
                "type": "Leaf"
            },
            {
                "data": "-2:18478:0",
                "leaf": "subtitle",
                "type": "Leaf"
            },
            {
                "data": "-2:23493:0",
                "leaf": "subtitle",
                "type": "Leaf"
            },
            {
                "children": [
                    {
                        "data": "5:16929:-1",
                        "leaf": "clip",
                        "type": "Leaf"
                    },
                    {
                        "data": "6:16948:-1",
                        "leaf": "clip",
                        "type": "Leaf"
                    }
                ],
                "type": "AVSplit"
            },
            {
                "data": "-2:17513:0",
                "leaf": "subtitle",
                "type": "Leaf"
            },
            {
                "data": "-2:18138:0",
                "leaf": "subtitle",
                "type": "Leaf"
            },
            {
                "data": "-2:3458:0",
                "leaf": "subtitle",
                "type": "Leaf"
            },
            {
                "data": "-2:27165:0",
                "leaf": "subtitle",
                "type": "Leaf"
            },
            {
                "data": "4:19052:-1",
                "leaf": "clip",
                "type": "Leaf"
            },
            {
                "data": "-2:14673:0",
                "leaf": "subtitle",
                "type": "Leaf"
            },
            {
                "data": "4:14724:-1",
                "leaf": "clip",
                "type": "Leaf"
            },
            {
                "data": "-2:24493:0",
                "leaf": "subtitle",
                "type": "Leaf"
            },
            {
                "data": "-2:17475:0",
                "leaf": "subtitle",
                "type": "Leaf"
            },
            {
                "data": "-2:25485:0",
                "leaf": "subtitle",
                "type": "Leaf"
            },
            {
                "data": "-2:26557:0",
                "leaf": "subtitle",
                "type": "Leaf"
            },
            {
                "data": "-2:13675:0",
                "leaf": "subtitle",
                "type": "Leaf"
            },
            {
                "data": "-2:11602:0",
                "leaf": "subtitle",
                "type": "Leaf"
            },
            {
                "data": "-2:28037:0",
                "leaf": "subtitle",
                "type": "Leaf"
            },
            {
                "data": "-2:13254:0",
                "leaf": "subtitle",
                "type": "Leaf"
            },
            {
                "data": "-2:12252:0",
                "leaf": "subtitle",
                "type": "Leaf"
            },
            {
                "data": "-2:28196:0",
                "leaf": "subtitle",
                "type": "Leaf"
            },
            {
                "children": [
                    {
                        "data": "4:676:-1",
                        "leaf": "clip",
                        "type": "Leaf"
                    },
                    {
                        "children": [
                            {
                                "data": "6:688:-1",
                                "leaf": "clip",
                                "type": "Leaf"
                            },
                            {
                                "data": "5:676:-1",
                                "leaf": "clip",
                                "type": "Leaf"
                            }
                        ],
                        "type": "AVSplit"
                    }
                ],
                "type": "Normal"
            },
            {
                "data": "-2:23658:0",
                "leaf": "subtitle",
                "type": "Leaf"
            },
            {
                "data": "3:20919:-1",
                "leaf": "clip",
                "type": "Leaf"
            },
            {
                "data": "-2:11744:0",
                "leaf": "subtitle",
                "type": "Leaf"
            },
            {
                "data": "-2:28116:0",
                "leaf": "subtitle",
                "type": "Leaf"
            },
            {
                "data": "-2:29201:0",
                "leaf": "subtitle",
                "type": "Leaf"
            },
            {
                "data": "-2:13157:0",
                "leaf": "subtitle",
                "type": "Leaf"
            },
            {
                "children": [
                    {
                        "data": "6:22977:-1",
                        "leaf": "clip",
                        "type": "Leaf"
                    },
                    {
                        "data": "5:22980:-1",
                        "leaf": "clip",
                        "type": "Leaf"
                    }
                ],
                "type": "AVSplit"
            },
            {
                "data": "-2:21395:0",
                "leaf": "subtitle",
                "type": "Leaf"
            },
            {
                "data": "-2:16158:0",
                "leaf": "subtitle",
                "type": "Leaf"
            },
            {
                "data": "-2:3676:0",
                "leaf": "subtitle",
                "type": "Leaf"
            },
            {
                "data": "-2:27388:0",
                "leaf": "subtitle",
                "type": "Leaf"
            },
            {
                "data": "4:26146:-1",
                "leaf": "clip",
                "type": "Leaf"
            },
            {
                "data": "-2:11297:0",
                "leaf": "subtitle",
                "type": "Leaf"
            },
            {
                "data": "-2:27842:0",
                "leaf": "subtitle",
                "type": "Leaf"
            },
            {
                "data": "-2:16802:0",
                "leaf": "subtitle",
                "type": "Leaf"
            },
            {
                "data": "-2:26461:0",
                "leaf": "subtitle",
                "type": "Leaf"
            },
            {
                "data": "-2:26525:0",
                "leaf": "subtitle",
                "type": "Leaf"
            },
            {
                "data": "-2:13724:0",
                "leaf": "subtitle",
                "type": "Leaf"
            },
            {
                "data": "-2:28650:0",
                "leaf": "subtitle",
                "type": "Leaf"
            },
            {
                "data": "-2:12326:0",
                "leaf": "subtitle",
                "type": "Leaf"
            },
            {
                "data": "-2:17165:0",
                "leaf": "subtitle",
                "type": "Leaf"
            },
            {
                "data": "-2:28989:0",
                "leaf": "subtitle",
                "type": "Leaf"
            },
            {
                "data": "-2:12601:0",
                "leaf": "subtitle",
                "type": "Leaf"
            },
            {
                "data": "-2:25306:0",
                "leaf": "subtitle",
                "type": "Leaf"
            },
            {
                "data": "-2:17209:0",
                "leaf": "subtitle",
                "type": "Leaf"
            },
            {
                "data": "-2:25699:0",
                "leaf": "subtitle",
                "type": "Leaf"
            },
            {
                "data": "-2:17712:0",
                "leaf": "subtitle",
                "type": "Leaf"
            },
            {
                "data": "5:16156:-1",
                "leaf": "clip",
                "type": "Leaf"
            },
            {
                "data": "-2:16516:0",
                "leaf": "subtitle",
                "type": "Leaf"
            },
            {
                "data": "-2:3285:0",
                "leaf": "subtitle",
                "type": "Leaf"
            },
            {
                "data": "-2:26944:0",
                "leaf": "subtitle",
                "type": "Leaf"
            },
            {
                "data": "-2:18567:0",
                "leaf": "subtitle",
                "type": "Leaf"
            },
            {
                "children": [
                    {
                        "data": "5:21040:-1",
                        "leaf": "clip",
                        "type": "Leaf"
                    },
                    {
                        "data": "6:21040:-1",
                        "leaf": "clip",
                        "type": "Leaf"
                    }
                ],
                "type": "AVSplit"
            },
            {
                "data": "-2:21637:0",
                "leaf": "subtitle",
                "type": "Leaf"
            },
            {
                "data": "-2:16217:0",
                "leaf": "subtitle",
                "type": "Leaf"
            },
            {
                "data": "-2:3612:0",
                "leaf": "subtitle",
                "type": "Leaf"
            },
            {
                "data": "-2:27290:0",
                "leaf": "subtitle",
                "type": "Leaf"
            },
            {
                "data": "-2:25454:0",
                "leaf": "subtitle",
                "type": "Leaf"
            },
            {
                "data": "-2:11536:0",
                "leaf": "subtitle",
                "type": "Leaf"
            },
            {
                "data": "-2:27970:0",
                "leaf": "subtitle",
                "type": "Leaf"
            },
            {
                "data": "-2:26405:0",
                "leaf": "subtitle",
                "type": "Leaf"
            },
            {
                "data": "-2:3395:0",
                "leaf": "subtitle",
                "type": "Leaf"
            },
            {
                "data": "-2:17571:0",
                "leaf": "subtitle",
                "type": "Leaf"
            },
            {
                "data": "-2:16914:0",
                "leaf": "subtitle",
                "type": "Leaf"
            },
            {
                "children": [
                    {
                        "data": "5:20861:-1",
                        "leaf": "clip",
                        "type": "Leaf"
                    },
                    {
                        "data": "6:20861:-1",
                        "leaf": "clip",
                        "type": "Leaf"
                    }
                ],
                "type": "AVSplit"
            },
            {
                "data": "-2:23165:0",
                "leaf": "subtitle",
                "type": "Leaf"
            },
            {
                "data": "4:20861:-1",
                "leaf": "clip",
                "type": "Leaf"
            },
            {
                "data": "-2:25069:0",
                "leaf": "subtitle",
                "type": "Leaf"
            },
            {
                "data": "-2:29065:0",
                "leaf": "subtitle",
                "type": "Leaf"
            }
        ],
        "type": "Normal"
    },
    {
        "children": [
            {
                "data": "-2:58833:0",
                "leaf": "subtitle",
                "type": "Leaf"
            },
            {
                "data": "-2:39395:0",
                "leaf": "subtitle",
                "type": "Leaf"
            },
            {
                "data": "-2:48497:0",
                "leaf": "subtitle",
                "type": "Leaf"
            },
            {
                "data": "-2:41334:0",
                "leaf": "subtitle",
                "type": "Leaf"
            },
            {
                "data": "-2:57480:0",
                "leaf": "subtitle",
                "type": "Leaf"
            },
            {
                "data": "-2:37830:0",
                "leaf": "subtitle",
                "type": "Leaf"
            },
            {
                "data": "-2:50592:0",
                "leaf": "subtitle",
                "type": "Leaf"
            },
            {
                "data": "4:51147:-1",
                "leaf": "clip",
                "type": "Leaf"
            },
            {
                "data": "-2:58913:0",
                "leaf": "subtitle",
                "type": "Leaf"
            },
            {
                "data": "-2:39441:0",
                "leaf": "subtitle",
                "type": "Leaf"
            },
            {
                "data": "-2:40365:0",
                "leaf": "subtitle",
                "type": "Leaf"
            },
            {
                "data": "-2:43416:0",
                "leaf": "subtitle",
                "type": "Leaf"
            },
            {
                "data": "-2:60919:0",
                "leaf": "subtitle",
                "type": "Leaf"
            },
            {
                "data": "-2:59519:0",
                "leaf": "subtitle",
                "type": "Leaf"
            },
            {
                "children": [
                    {
                        "data": "6:51894:-1",
                        "leaf": "clip",
                        "type": "Leaf"
                    },
                    {
                        "data": "5:51882:-1",
                        "leaf": "clip",
                        "type": "Leaf"
                    }
                ],
                "type": "AVSplit"
            },
            {
                "data": "-2:40293:0",
                "leaf": "subtitle",
                "type": "Leaf"
            },
            {
                "data": "-2:37756:0",
                "leaf": "subtitle",
                "type": "Leaf"
            },
            {
                "data": "-2:57442:0",
                "leaf": "subtitle",
                "type": "Leaf"
            },
            {
                "data": "-2:48198:0",
                "leaf": "subtitle",
                "type": "Leaf"
            },
            {
                "data": "-2:38297:0",
                "leaf": "subtitle",
                "type": "Leaf"
            },
            {
                "data": "-2:57206:0",
                "leaf": "subtitle",
                "type": "Leaf"
            },
            {
                "data": "-2:36748:0",
                "leaf": "subtitle",
                "type": "Leaf"
            },
            {
                "data": "-2:38728:0",
                "leaf": "subtitle",
                "type": "Leaf"
            },
            {
                "data": "-2:48288:0",
                "leaf": "subtitle",
                "type": "Leaf"
            },
            {
                "data": "-2:48141:0",
                "leaf": "subtitle",
                "type": "Leaf"
            },
            {
                "data": "-2:57060:0",
                "leaf": "subtitle",
                "type": "Leaf"
            },
            {
                "data": "-2:35856:0",
                "leaf": "subtitle",
                "type": "Leaf"
            },
            {
                "data": "-2:48427:0",
                "leaf": "subtitle",
                "type": "Leaf"
            },
            {
                "data": "-2:47706:0",
                "leaf": "subtitle",
                "type": "Leaf"
            },
            {
                "data": "-2:59424:0",
                "leaf": "subtitle",
                "type": "Leaf"
            },
            {
                "children": [
                    {
                        "data": "6:58479:-1",
                        "leaf": "clip",
                        "type": "Leaf"
                    },
                    {
                        "data": "5:58479:-1",
                        "leaf": "clip",
                        "type": "Leaf"
                    }
                ],
                "type": "AVSplit"
            },
            {
                "data": "-2:56089:0",
                "leaf": "subtitle",
                "type": "Leaf"
            },
            {
                "data": "-2:34889:0",
                "leaf": "subtitle",
                "type": "Leaf"
            },
            {
                "data": "-2:47323:0",
                "leaf": "subtitle",
                "type": "Leaf"
            },
            {
                "data": "-2:48930:0",
                "leaf": "subtitle",
                "type": "Leaf"
            },
            {
                "data": "-2:58003:0",
                "leaf": "subtitle",
                "type": "Leaf"
            },
            {
                "data": "-2:38255:0",
                "leaf": "subtitle",
                "type": "Leaf"
            },
            {
                "data": "-2:55076:0",
                "leaf": "subtitle",
                "type": "Leaf"
            },
            {
                "data": "-2:31747:0",
                "leaf": "subtitle",
                "type": "Leaf"
            },
            {
                "data": "-2:34650:0",
                "leaf": "subtitle",
                "type": "Leaf"
            },
            {
                "data": "-2:47258:0",
                "leaf": "subtitle",
                "type": "Leaf"
            },
            {
                "data": "-2:56050:0",
                "leaf": "subtitle",
                "type": "Leaf"
            },
            {
                "data": "-2:34848:0",
                "leaf": "subtitle",
                "type": "Leaf"
            },
            {
                "data": "-2:59141:0",
                "leaf": "subtitle",
                "type": "Leaf"
            },
            {
                "data": "-2:31023:0",
                "leaf": "subtitle",
                "type": "Leaf"
            },
            {
                "data": "-2:51960:0",
                "leaf": "subtitle",
                "type": "Leaf"
            },
            {
                "data": "-2:47828:0",
                "leaf": "subtitle",
                "type": "Leaf"
            },
            {
                "data": "-2:57730:0",
                "leaf": "subtitle",
                "type": "Leaf"
            },
            {
                "data": "-2:37926:0",
                "leaf": "subtitle",
                "type": "Leaf"
            },
            {
                "data": "-2:56898:0",
                "leaf": "subtitle",
                "type": "Leaf"
            },
            {
                "data": "-2:35500:0",
                "leaf": "subtitle",
                "type": "Leaf"
            },
            {
                "data": "-2:47891:0",
                "leaf": "subtitle",
                "type": "Leaf"
            },
            {
                "data": "-2:31604:0",
                "leaf": "subtitle",
                "type": "Leaf"
            },
            {
                "data": "-2:54912:0",
                "leaf": "subtitle",
                "type": "Leaf"
            },
            {
                "data": "-2:31463:0",
                "leaf": "subtitle",
                "type": "Leaf"
            },
            {
                "data": "-2:58467:0",
                "leaf": "subtitle",
                "type": "Leaf"
            },
            {
                "data": "-2:38820:0",
                "leaf": "subtitle",
                "type": "Leaf"
            },
            {
                "data": "-2:56569:0",
                "leaf": "subtitle",
                "type": "Leaf"
            },
            {
                "data": "-2:35391:0",
                "leaf": "subtitle",
                "type": "Leaf"
            },
            {
                "data": "-2:50773:0",
                "leaf": "subtitle",
                "type": "Leaf"
            },
            {
                "data": "4:59408:-1",
                "leaf": "clip",
                "type": "Leaf"
            },
            {
                "data": "-2:41729:0",
                "leaf": "subtitle",
                "type": "Leaf"
            },
            {
                "data": "-2:60274:0",
                "leaf": "subtitle",
                "type": "Leaf"
            },
            {
                "children": [
                    {
                        "data": "6:58461:-1",
                        "leaf": "clip",
                        "type": "Leaf"
                    },
                    {
                        "data": "5:58460:-1",
                        "leaf": "clip",
                        "type": "Leaf"
                    }
                ],
                "type": "AVSplit"
            },
            {
                "data": "-2:34726:0",
                "leaf": "subtitle",
                "type": "Leaf"
            },
            {
                "data": "-2:43700:0",
                "leaf": "subtitle",
                "type": "Leaf"
            },
            {
                "data": "-2:62120:0",
                "leaf": "subtitle",
                "type": "Leaf"
            },
            {
                "data": "-2:50812:0",
                "leaf": "subtitle",
                "type": "Leaf"
            },
            {
                "data": "-2:47364:0",
                "leaf": "subtitle",
                "type": "Leaf"
            },
            {
                "data": "-2:36593:0",
                "leaf": "subtitle",
                "type": "Leaf"
            },
            {
                "data": "-2:57129:0",
                "leaf": "subtitle",
                "type": "Leaf"
            },
            {
                "children": [
                    {
                        "data": "4:30236:-1",
                        "leaf": "clip",
                        "type": "Leaf"
                    },
                    {
                        "children": [
                            {
                                "data": "6:30248:-1",
                                "leaf": "clip",
                                "type": "Leaf"
                            },
                            {
                                "data": "5:30236:-1",
                                "leaf": "clip",
                                "type": "Leaf"
                            }
                        ],
                        "type": "AVSplit"
                    }
                ],
                "type": "Normal"
            },
            {
                "data": "-2:59881:0",
                "leaf": "subtitle",
                "type": "Leaf"
            },
            {
                "data": "-2:51248:0",
                "leaf": "subtitle",
                "type": "Leaf"
            },
            {
                "data": "-2:60387:0",
                "leaf": "subtitle",
                "type": "Leaf"
            },
            {
                "data": "-2:42512:0",
                "leaf": "subtitle",
                "type": "Leaf"
            },
            {
                "children": [
                    {
                        "data": "5:56623:-1",
                        "leaf": "clip",
                        "type": "Leaf"
                    },
                    {
                        "data": "6:56628:-1",
                        "leaf": "clip",
                        "type": "Leaf"
                    }
                ],
                "type": "AVSplit"
            },
            {
                "data": "-2:59685:0",
                "leaf": "subtitle",
                "type": "Leaf"
            },
            {
                "data": "-2:31194:0",
                "leaf": "subtitle",
                "type": "Leaf"
            },
            {
                "data": "-2:52159:0",
                "leaf": "subtitle",
                "type": "Leaf"
            },
            {
                "data": "-2:37248:0",
                "leaf": "subtitle",
                "type": "Leaf"
            },
            {
                "data": "-2:57341:0",
                "leaf": "subtitle",
                "type": "Leaf"
            },
            {
                "data": "-2:52297:0",
                "leaf": "subtitle",
                "type": "Leaf"
            },
            {
                "data": "4:46715:-1",
                "leaf": "clip",
                "type": "Leaf"
            },
            {
                "data": "-2:59287:0",
                "leaf": "subtitle",
                "type": "Leaf"
            },
            {
                "data": "-2:40159:0",
                "leaf": "subtitle",
                "type": "Leaf"
            },
            {
                "data": "4:58460:-1",
                "leaf": "clip",
                "type": "Leaf"
            },
            {
                "data": "-2:40963:0",
                "leaf": "subtitle",
                "type": "Leaf"
            },
            {
                "data": "-2:60160:0",
                "leaf": "subtitle",
                "type": "Leaf"
            },
            {
                "children": [
                    {
                        "data": "6:46720:-1",
                        "leaf": "clip",
                        "type": "Leaf"
                    },
                    {
                        "data": "5:46715:-1",
                        "leaf": "clip",
                        "type": "Leaf"
                    }
                ],
                "type": "AVSplit"
            },
            {
                "data": "-2:41517:0",
                "leaf": "subtitle",
                "type": "Leaf"
            },
            {
                "data": "-2:57388:0",
                "leaf": "subtitle",
                "type": "Leaf"
            },
            {
                "data": "-2:48348:0",
                "leaf": "subtitle",
                "type": "Leaf"
            },
            {
                "data": "-2:35056:0",
                "leaf": "subtitle",
                "type": "Leaf"
            },
            {
                "data": "-2:56311:0",
                "leaf": "subtitle",
                "type": "Leaf"
            },
            {
                "data": "-2:35776:0",
                "leaf": "subtitle",
                "type": "Leaf"
            },
            {
                "data": "-2:56959:0",
                "leaf": "subtitle",
                "type": "Leaf"
            },
            {
                "data": "-2:46083:0",
                "leaf": "subtitle",
                "type": "Leaf"
            },
            {
                "data": "4:31591:-1",
                "leaf": "clip",
                "type": "Leaf"
            },
            {
                "data": "-2:30833:0",
                "leaf": "subtitle",
                "type": "Leaf"
            },
            {
                "data": "-2:51777:0",
                "leaf": "subtitle",
                "type": "Leaf"
            },
            {
                "data": "-2:40448:0",
                "leaf": "subtitle",
                "type": "Leaf"
            },
            {
                "data": "-2:59758:0",
                "leaf": "subtitle",
                "type": "Leaf"
            },
            {
                "children": [
                    {
                        "data": "5:51147:-1",
                        "leaf": "clip",
                        "type": "Leaf"
                    },
                    {
                        "data": "6:51170:-1",
                        "leaf": "clip",
                        "type": "Leaf"
                    }
                ],
                "type": "AVSplit"
            },
            {
                "data": "-2:56194:0",
                "leaf": "subtitle",
                "type": "Leaf"
            },
            {
                "data": "-2:34960:0",
                "leaf": "subtitle",
                "type": "Leaf"
            },
            {
                "data": "-2:50909:0",
                "leaf": "subtitle",
                "type": "Leaf"
            },
            {
                "data": "-2:48812:0",
                "leaf": "subtitle",
                "type": "Leaf"
            },
            {
                "data": "-2:48569:0",
                "leaf": "subtitle",
                "type": "Leaf"
            },
            {
                "data": "-2:53662:0",
                "leaf": "subtitle",
                "type": "Leaf"
            },
            {
                "data": "-2:31526:0",
                "leaf": "subtitle",
                "type": "Leaf"
            },
            {
                "data": "-2:49104:0",
                "leaf": "subtitle",
                "type": "Leaf"
            },
            {
                "data": "-2:58264:0",
                "leaf": "subtitle",
                "type": "Leaf"
            },
            {
                "data": "-2:38763:0",
                "leaf": "subtitle",
                "type": "Leaf"
            },
            {
                "data": "-2:58360:0",
                "leaf": "subtitle",
                "type": "Leaf"
            },
            {
                "data": "-2:37675:0",
                "leaf": "subtitle",
                "type": "Leaf"
            },
            {
                "data": "-2:56528:0",
                "leaf": "subtitle",
                "type": "Leaf"
            },
            {
                "data": "-2:35348:0",
                "leaf": "subtitle",
                "type": "Leaf"
            },
            {
                "data": "-2:53606:0",
                "leaf": "subtitle",
                "type": "Leaf"
            },
            {
                "data": "-2:34532:0",
                "leaf": "subtitle",
                "type": "Leaf"
            },
            {
                "data": "-2:55500:0",
                "leaf": "subtitle",
                "type": "Leaf"
            },
            {
                "data": "-2:43368:0",
                "leaf": "subtitle",
                "type": "Leaf"
            },
            {
                "data": "-2:60645:0",
                "leaf": "subtitle",
                "type": "Leaf"
            },
            {
                "data": "4:51882:-1",
                "leaf": "clip",
                "type": "Leaf"
            },
            {
                "data": "-2:46981:0",
                "leaf": "subtitle",
                "type": "Leaf"
            },
            {
                "data": "4:58250:-1",
                "leaf": "clip",
                "type": "Leaf"
            },
            {
                "data": "-2:50690:0",
                "leaf": "subtitle",
                "type": "Leaf"
            },
            {
                "data": "-2:50514:0",
                "leaf": "subtitle",
                "type": "Leaf"
            },
            {
                "data": "4:32106:-1",
                "leaf": "clip",
                "type": "Leaf"
            },
            {
                "data": "-2:58542:0",
                "leaf": "subtitle",
                "type": "Leaf"
            },
            {
                "data": "-2:38861:0",
                "leaf": "subtitle",
                "type": "Leaf"
            },
            {
                "data": "-2:37998:0",
                "leaf": "subtitle",
                "type": "Leaf"
            },
            {
                "data": "-2:57827:0",
                "leaf": "subtitle",
                "type": "Leaf"
            },
            {
                "data": "-2:51640:0",
                "leaf": "subtitle",
                "type": "Leaf"
            },
            {
                "data": "-2:30638:0",
                "leaf": "subtitle",
                "type": "Leaf"
            },
            {
                "data": "-2:56655:0",
                "leaf": "subtitle",
                "type": "Leaf"
            },
            {
                "data": "-2:35445:0",
                "leaf": "subtitle",
                "type": "Leaf"
            },
            {
                "children": [
                    {
                        "data": "5:59408:-1",
                        "leaf": "clip",
                        "type": "Leaf"
                    },
                    {
                        "data": "6:59413:-1",
                        "leaf": "clip",
                        "type": "Leaf"
                    }
                ],
                "type": "AVSplit"
            },
            {
                "data": "-2:59966:0",
                "leaf": "subtitle",
                "type": "Leaf"
            },
            {
                "data": "-2:41117:0",
                "leaf": "subtitle",
                "type": "Leaf"
            },
            {
                "data": "-2:52073:0",
                "leaf": "subtitle",
                "type": "Leaf"
            },
            {
                "data": "-2:31104:0",
                "leaf": "subtitle",
                "type": "Leaf"
            },
            {
                "data": "-2:58103:0",
                "leaf": "subtitle",
                "type": "Leaf"
            },
            {
                "data": "-2:39526:0",
                "leaf": "subtitle",
                "type": "Leaf"
            },
            {
                "data": "-2:58976:0",
                "leaf": "subtitle",
                "type": "Leaf"
            },
            {
                "data": "-2:59175:0",
                "leaf": "subtitle",
                "type": "Leaf"
            },
            {
                "data": "-2:40060:0",
                "leaf": "subtitle",
                "type": "Leaf"
            },
            {
                "data": "4:56379:-1",
                "leaf": "clip",
                "type": "Leaf"
            },
            {
                "data": "-2:50649:0",
                "leaf": "subtitle",
                "type": "Leaf"
            },
            {
                "data": "-2:34386:0",
                "leaf": "subtitle",
                "type": "Leaf"
            },
            {
                "data": "-2:55340:0",
                "leaf": "subtitle",
                "type": "Leaf"
            },
            {
                "data": "-2:43311:0",
                "leaf": "subtitle",
                "type": "Leaf"
            },
            {
                "data": "-2:60540:0",
                "leaf": "subtitle",
                "type": "Leaf"
            },
            {
                "data": "-2:31975:0",
                "leaf": "subtitle",
                "type": "Leaf"
            },
            {
                "data": "-2:55180:0",
                "leaf": "subtitle",
                "type": "Leaf"
            },
            {
                "data": "-2:47643:0",
                "leaf": "subtitle",
                "type": "Leaf"
            },
            {
                "data": "-2:48698:0",
                "leaf": "subtitle",
                "type": "Leaf"
            },
            {
                "data": "-2:51736:0",
                "leaf": "subtitle",
                "type": "Leaf"
            },
            {
                "data": "-2:30746:0",
                "leaf": "subtitle",
                "type": "Leaf"
            },
            {
                "data": "-2:30590:0",
                "leaf": "subtitle",
                "type": "Leaf"
            },
            {
                "data": "-2:51552:0",
                "leaf": "subtitle",
                "type": "Leaf"
            },
            {
                "data": "-2:55549:0",
                "leaf": "subtitle",
                "type": "Leaf"
            },
            {
                "data": "-2:47058:0",
                "leaf": "subtitle",
                "type": "Leaf"
            },
            {
                "data": "4:56623:-1",
                "leaf": "clip",
                "type": "Leaf"
            },
            {
                "data": "-2:47103:0",
                "leaf": "subtitle",
                "type": "Leaf"
            },
            {
                "data": "-2:30918:0",
                "leaf": "subtitle",
                "type": "Leaf"
            },
            {
                "data": "-2:51835:0",
                "leaf": "subtitle",
                "type": "Leaf"
            },
            {
                "data": "-2:41463:0",
                "leaf": "subtitle",
                "type": "Leaf"
            },
            {
                "data": "-2:31334:0",
                "leaf": "subtitle",
                "type": "Leaf"
            },
            {
                "data": "-2:60132:0",
                "leaf": "subtitle",
                "type": "Leaf"
            },
            {
                "children": [
                    {
                        "data": "5:30307:-1",
                        "leaf": "clip",
                        "type": "Leaf"
                    },
                    {
                        "data": "6:30319:-1",
                        "leaf": "clip",
                        "type": "Leaf"
                    }
                ],
                "type": "AVSplit"
            },
            {
                "data": "-2:40206:0",
                "leaf": "subtitle",
                "type": "Leaf"
            },
            {
                "data": "-2:51015:0",
                "leaf": "subtitle",
                "type": "Leaf"
            },
            {
                "data": "-2:47440:0",
                "leaf": "subtitle",
                "type": "Leaf"
            },
            {
                "data": "-2:42177:0",
                "leaf": "subtitle",
                "type": "Leaf"
            },
            {
                "data": "-2:60314:0",
                "leaf": "subtitle",
                "type": "Leaf"
            },
            {
                "children": [
                    {
                        "data": "5:62647:-1",
                        "leaf": "clip",
                        "type": "Leaf"
                    },
                    {
                        "data": "6:62647:-1",
                        "leaf": "clip",
                        "type": "Leaf"
                    }
                ],
                "type": "AVSplit"
            },
            {
                "data": "-2:59610:0",
                "leaf": "subtitle",
                "type": "Leaf"
            },
            {
                "data": "-2:47978:0",
                "leaf": "subtitle",
                "type": "Leaf"
            },
            {
                "data": "-2:34479:0",
                "leaf": "subtitle",
                "type": "Leaf"
            },
            {
                "data": "-2:55456:0",
                "leaf": "subtitle",
                "type": "Leaf"
            },
            {
                "data": "-2:46438:0",
                "leaf": "subtitle",
                "type": "Leaf"
            },
            {
                "data": "-2:49030:0",
                "leaf": "subtitle",
                "type": "Leaf"
            },
            {
                "data": "-2:55644:0",
                "leaf": "subtitle",
                "type": "Leaf"
            },
            {
                "data": "-2:43508:0",
                "leaf": "subtitle",
                "type": "Leaf"
            },
            {
                "data": "-2:60969:0",
                "leaf": "subtitle",
                "type": "Leaf"
            },
            {
                "children": [
                    {
                        "data": "5:32106:-1",
                        "leaf": "clip",
                        "type": "Leaf"
                    },
                    {
                        "data": "6:32118:-1",
                        "leaf": "clip",
                        "type": "Leaf"
                    }
                ],
                "type": "AVSplit"
            },
            {
                "data": "-2:60051:0",
                "leaf": "subtitle",
                "type": "Leaf"
            },
            {
                "data": "4:62647:-1",
                "leaf": "clip",
                "type": "Leaf"
            },
            {
                "data": "-2:47176:0",
                "leaf": "subtitle",
                "type": "Leaf"
            },
            {
                "data": "-2:43872:0",
                "leaf": "subtitle",
                "type": "Leaf"
            },
            {
                "data": "-2:31895:0",
                "leaf": "subtitle",
                "type": "Leaf"
            },
            {
                "data": "-2:55121:0",
                "leaf": "subtitle",
                "type": "Leaf"
            },
            {
                "data": "-2:55985:0",
                "leaf": "subtitle",
                "type": "Leaf"
            },
            {
                "data": "-2:34818:0",
                "leaf": "subtitle",
                "type": "Leaf"
            },
            {
                "data": "-2:47524:0",
                "leaf": "subtitle",
                "type": "Leaf"
            },
            {
                "data": "-2:41261:0",
                "leaf": "subtitle",
                "type": "Leaf"
            },
            {
                "data": "-2:60002:0",
                "leaf": "subtitle",
                "type": "Leaf"
            },
            {
                "children": [
                    {
                        "data": "5:31596:-1",
                        "leaf": "clip",
                        "type": "Leaf"
                    },
                    {
                        "data": "6:31601:-1",
                        "leaf": "clip",
                        "type": "Leaf"
                    }
                ],
                "type": "AVSplit"
            },
            {
                "data": "-2:55025:0",
                "leaf": "subtitle",
                "type": "Leaf"
            },
            {
                "data": "-2:31679:0",
                "leaf": "subtitle",
                "type": "Leaf"
            },
            {
                "data": "-2:40498:0",
                "leaf": "subtitle",
                "type": "Leaf"
            },
            {
                "data": "-2:59831:0",
                "leaf": "subtitle",
                "type": "Leaf"
            },
            {
                "children": [
                    {
                        "data": "5:56379:-1",
                        "leaf": "clip",
                        "type": "Leaf"
                    },
                    {
                        "data": "6:56389:-1",
                        "leaf": "clip",
                        "type": "Leaf"
                    }
                ],
                "type": "AVSplit"
            },
            {
                "data": "-2:43241:0",
                "leaf": "subtitle",
                "type": "Leaf"
            },
            {
                "data": "-2:60473:0",
                "leaf": "subtitle",
                "type": "Leaf"
            },
            {
                "data": "-2:39727:0",
                "leaf": "subtitle",
                "type": "Leaf"
            },
            {
                "data": "-2:59068:0",
                "leaf": "subtitle",
                "type": "Leaf"
            },
            {
                "data": "-2:45920:0",
                "leaf": "subtitle",
                "type": "Leaf"
            },
            {
                "data": "4:30307:-1",
                "leaf": "clip",
                "type": "Leaf"
            },
            {
                "data": "-2:50464:0",
                "leaf": "subtitle",
                "type": "Leaf"
            },
            {
                "data": "-2:40012:0",
                "leaf": "subtitle",
                "type": "Leaf"
            },
            {
                "data": "-2:50403:0",
                "leaf": "subtitle",
                "type": "Leaf"
            },
            {
                "data": "-2:38120:0",
                "leaf": "subtitle",
                "type": "Leaf"
            },
            {
                "data": "-2:57924:0",
                "leaf": "subtitle",
                "type": "Leaf"
            },
            {
                "data": "-2:35258:0",
                "leaf": "subtitle",
                "type": "Leaf"
            },
            {
                "data": "-2:56465:0",
                "leaf": "subtitle",
                "type": "Leaf"
            },
            {
                "data": "-2:39030:0",
                "leaf": "subtitle",
                "type": "Leaf"
            },
            {
                "data": "-2:58724:0",
                "leaf": "subtitle",
                "type": "Leaf"
            },
            {
                "data": "-2:43753:0",
                "leaf": "subtitle",
                "type": "Leaf"
            },
            {
                "data": "-2:41596:0",
                "leaf": "subtitle",
                "type": "Leaf"
            },
            {
                "data": "-2:43806:0",
                "leaf": "subtitle",
                "type": "Leaf"
            },
            {
                "data": "-2:60227:0",
                "leaf": "subtitle",
                "type": "Leaf"
            },
            {
                "children": [
                    {
                        "data": "6:58262:-1",
                        "leaf": "clip",
                        "type": "Leaf"
                    },
                    {
                        "data": "5:58250:-1",
                        "leaf": "clip",
                        "type": "Leaf"
                    }
                ],
                "type": "AVSplit"
            },
            {
                "data": "-2:51493:0",
                "leaf": "subtitle",
                "type": "Leaf"
            },
            {
                "data": "-2:31299:0",
                "leaf": "subtitle",
                "type": "Leaf"
            },
            {
                "data": "-2:52225:0",
                "leaf": "subtitle",
                "type": "Leaf"
            },
            {
                "data": "-2:40415:0",
                "leaf": "subtitle",
                "type": "Leaf"
            },
            {
                "data": "-2:58631:0",
                "leaf": "subtitle",
                "type": "Leaf"
            },
            {
                "data": "-2:38941:0",
                "leaf": "subtitle",
                "type": "Leaf"
            },
            {
                "data": "-2:51052:0",
                "leaf": "subtitle",
                "type": "Leaf"
            },
            {
                "data": "-2:47568:0",
                "leaf": "subtitle",
                "type": "Leaf"
            },
            {
                "data": "-2:42568:0",
                "leaf": "subtitle",
                "type": "Leaf"
            },
            {
                "data": "-2:60435:0",
                "leaf": "subtitle",
                "type": "Leaf"
            }
        ],
        "type": "Normal"
    }
]
</property>
  <property name="kdenlive:sequenceproperties.guides">[
]
</property>
  <track producer="producer0"/>
  <track producer="tractor0"/>
  <track producer="tractor1"/>
  <track producer="tractor2"/>
  <track producer="tractor3"/>
  <track producer="tractor4"/>
  <track producer="tractor5"/>
  <track producer="tractor6"/>
  <track producer="tractor7"/>
  <transition id="transition103">
   <property name="a_track">0</property>
   <property name="b_track">1</property>
   <property name="mlt_service">mix</property>
   <property name="kdenlive_id">mix</property>
   <property name="internal_added">237</property>
   <property name="always_active">1</property>
   <property name="accepts_blanks">1</property>
   <property name="sum">1</property>
  </transition>
  <transition id="transition104">
   <property name="a_track">0</property>
   <property name="b_track">2</property>
   <property name="mlt_service">mix</property>
   <property name="kdenlive_id">mix</property>
   <property name="internal_added">237</property>
   <property name="always_active">1</property>
   <property name="accepts_blanks">1</property>
   <property name="sum">1</property>
  </transition>
  <transition id="transition105">
   <property name="a_track">0</property>
   <property name="b_track">3</property>
   <property name="mlt_service">mix</property>
   <property name="kdenlive_id">mix</property>
   <property name="internal_added">237</property>
   <property name="always_active">1</property>
   <property name="accepts_blanks">1</property>
   <property name="sum">1</property>
  </transition>
  <transition id="transition106">
   <property name="a_track">0</property>
   <property name="b_track">4</property>
   <property name="mlt_service">mix</property>
   <property name="kdenlive_id">mix</property>
   <property name="internal_added">237</property>
   <property name="always_active">1</property>
   <property name="accepts_blanks">1</property>
   <property name="sum">1</property>
  </transition>
  <transition id="transition107">
   <property name="a_track">0</property>
   <property name="b_track">5</property>
   <property name="mlt_service">mix</property>
   <property name="kdenlive_id">mix</property>
   <property name="internal_added">237</property>
   <property name="always_active">1</property>
   <property name="accepts_blanks">1</property>
   <property name="sum">1</property>
  </transition>
  <transition id="transition108">
   <property name="a_track">0</property>
   <property name="b_track">6</property>
   <property name="mlt_service">mix</property>
   <property name="kdenlive_id">mix</property>
   <property name="internal_added">237</property>
   <property name="always_active">1</property>
   <property name="accepts_blanks">1</property>
   <property name="sum">1</property>
  </transition>
  <transition id="transition109">
   <property name="a_track">0</property>
   <property name="b_track">7</property>
   <property name="compositing">0</property>
   <property name="distort">0</property>
   <property name="rotate_center">0</property>
   <property name="mlt_service">qtblend</property>
   <property name="kdenlive_id">qtblend</property>
   <property name="internal_added">237</property>
   <property name="always_active">1</property>
  </transition>
  <transition id="transition110">
   <property name="a_track">0</property>
   <property name="b_track">8</property>
   <property name="compositing">0</property>
   <property name="distort">0</property>
   <property name="rotate_center">0</property>
   <property name="mlt_service">qtblend</property>
   <property name="kdenlive_id">qtblend</property>
   <property name="internal_added">237</property>
   <property name="always_active">1</property>
  </transition>
  <filter id="filter59">
   <property name="window">75</property>
   <property name="max_gain">20dB</property>
   <property name="mlt_service">volume</property>
   <property name="internal_added">237</property>
   <property name="disable">1</property>
  </filter>
  <filter id="filter60">
   <property name="channel">-1</property>
   <property name="mlt_service">panner</property>
   <property name="internal_added">237</property>
   <property name="start">0.5</property>
   <property name="disable">1</property>
  </filter>
  <filter id="filter61">
   <property name="mlt_service">avfilter.subtitles</property>
   <property name="av.alpha">1</property>
   <property name="internal_added">237</property>
   <property name="av.filename">Final Fantasy (2001) - The Phantom Menace.kdenlive.ass</property>
   <property name="disable">1</property>
  </filter>
 </tractor>
 <playlist id="main_bin">
  <property name="kdenlive:folder.-1.2">Sequences</property>
  <property name="kdenlive:folder.-1.5">ost</property>
  <property name="kdenlive:folder.-1.17">DVD</property>
  <property name="kdenlive:folder.2.10">img</property>
  <property name="kdenlive:sequenceFolder">2</property>
  <property name="kdenlive:docproperties.activetimeline">{1db74e36-f274-4325-a5be-2dc513831cf7}</property>
  <property name="kdenlive:docproperties.audioChannels">2</property>
  <property name="kdenlive:docproperties.binsort">0</property>
  <property name="kdenlive:docproperties.browserurl">N:/Videos/Horror and SciFi/The Day After Tomorrow (2004) [2160p] [4K] [WEB] [HDR] [5.1] [YTS.MX]/</property>
  <property name="kdenlive:docproperties.documentid">1753192907790</property>
  <property name="kdenlive:docproperties.enableTimelineZone">0</property>
  <property name="kdenlive:docproperties.enableexternalproxy">0</property>
  <property name="kdenlive:docproperties.enableproxy">0</property>
  <property name="kdenlive:docproperties.externalproxyparams">./;;.LRV;./;;.MP4</property>
  <property name="kdenlive:docproperties.generateimageproxy">0</property>
  <property name="kdenlive:docproperties.generateproxy">0</property>
  <property name="kdenlive:docproperties.guidesCategories">[
    {
        "color": "#9b59b6",
        "comment": "Category 1",
        "index": 0
    },
    {
        "color": "#3daee9",
        "comment": "Category 2",
        "index": 1
    },
    {
        "color": "#1abc9c",
        "comment": "Category 3",
        "index": 2
    },
    {
        "color": "#1cdc9a",
        "comment": "Category 4",
        "index": 3
    },
    {
        "color": "#c9ce3b",
        "comment": "Category 5",
        "index": 4
    },
    {
        "color": "#fdbc4b",
        "comment": "Category 6",
        "index": 5
    },
    {
        "color": "#f39c1f",
        "comment": "Category 7",
        "index": 6
    },
    {
        "color": "#f47750",
        "comment": "Category 8",
        "index": 7
    },
    {
        "color": "#da4453",
        "comment": "Category 9",
        "index": 8
    }
]
</property>
  <property name="kdenlive:docproperties.kdenliveversion">25.04.2</property>
  <property name="kdenlive:docproperties.opensequences">{1db74e36-f274-4325-a5be-2dc513831cf7}</property>
  <property name="kdenlive:docproperties.previewextension"/>
  <property name="kdenlive:docproperties.previewparameters"/>
  <property name="kdenlive:docproperties.profile">C:/Users/kado/AppData/Roaming/kdenlive/profiles/customprofile12</property>
  <property name="kdenlive:docproperties.proxyextension"/>
  <property name="kdenlive:docproperties.proxyimageminsize">2000</property>
  <property name="kdenlive:docproperties.proxyimagesize">800</property>
  <property name="kdenlive:docproperties.proxyminsize">1000</property>
  <property name="kdenlive:docproperties.proxyparams"/>
  <property name="kdenlive:docproperties.proxyresize">640</property>
  <property name="kdenlive:docproperties.rendercategory">Ultra-High Definition (4K)</property>
  <property name="kdenlive:docproperties.rendercustomquality">-1</property>
  <property name="kdenlive:docproperties.renderendguide">-1</property>
  <property name="kdenlive:docproperties.renderexportaudio">0</property>
  <property name="kdenlive:docproperties.renderfullcolorrange">0</property>
  <property name="kdenlive:docproperties.rendermode">1</property>
  <property name="kdenlive:docproperties.renderplay">0</property>
  <property name="kdenlive:docproperties.renderpreview">0</property>
  <property name="kdenlive:docproperties.renderprofile">MP4-H265 (HEVC)</property>
  <property name="kdenlive:docproperties.renderrescale">0</property>
  <property name="kdenlive:docproperties.renderrescaleheight">518</property>
  <property name="kdenlive:docproperties.renderrescalewidth">958</property>
  <property name="kdenlive:docproperties.renderspeed">6</property>
  <property name="kdenlive:docproperties.renderstartguide">-1</property>
  <property name="kdenlive:docproperties.rendertcoverlay">0</property>
  <property name="kdenlive:docproperties.rendertctype">-1</property>
  <property name="kdenlive:docproperties.rendertwopass">0</property>
  <property name="kdenlive:docproperties.renderurl">C:/Users/kado/Videos/Final Fantasy (2001) - The Phantom Menace.mp4</property>
  <property name="kdenlive:docproperties.seekOffset">30000</property>
  <property name="kdenlive:docproperties.sessionid">{1a81bc47-488a-4e4e-b4d9-04ebcb77ec5b}</property>
  <property name="kdenlive:docproperties.uuid">{1db74e36-f274-4325-a5be-2dc513831cf7}</property>
  <property name="kdenlive:docproperties.version">1.1</property>
  <property name="kdenlive:expandedFolders">10;17;5;2</property>
  <property name="kdenlive:binZoom">4</property>
  <property name="kdenlive:extraBins">project_bin:-1:0</property>
  <property name="kdenlive:documentnotes">&lt;!DOCTYPE HTML PUBLIC "-//W3C//DTD HTML 4.0//EN" "http://www.w3.org/TR/REC-html40/strict.dtd">
&lt;html>&lt;head>&lt;meta name="qrichtext" content="1" />&lt;meta charset="utf-8" />&lt;style type="text/css">
p, li { white-space: pre-wrap; }
hr { height: 1px; border-width: 0; }
li.unchecked::marker { content: "\2610"; }
li.checked::marker { content: "\2612"; }
&lt;/style>&lt;/head>&lt;body style=" font-family:'Segoe UI'; font-size:9pt; font-weight:400; font-style:normal;">
&lt;p style=" margin-top:0px; margin-bottom:0px; margin-left:0px; margin-right:0px; -qt-block-indent:0; text-indent:0px;">Errors found when opening project file (Sat Jul 26 20:48:38 2025)&lt;br />&lt;a href="{1db74e36-f274-4325-a5be-2dc513831cf7}!19135?7">&lt;span style=" text-decoration: underline; color:#1d99f3;">V1 00:13:18:02&lt;/span>&lt;/a> Clip (chain12) on incorrect subtrack found and fixed / 741&lt;/p>&lt;/body>&lt;/html></property>
  <property name="kdenlive:documentnotesversion">2</property>
  <property name="xml_retain">1</property>
  <entry in="00:00:00.000" out="01:45:58.350" producer="chain4"/>
  <entry in="00:00:00.000" out="00:01:50.133" producer="chain5"/>
  <entry in="00:00:00.000" out="00:04:05.797" producer="chain14"/>
  <entry in="00:00:00.000" out="00:03:36.870" producer="chain17"/>
  <entry in="00:00:00.000" out="01:46:27.402" producer="chain8"/>
  <entry in="00:00:00.000" out="01:30:06.965" producer="tractor8"/>
 </playlist>
 <tractor id="tractor9" in="00:00:00.000" out="01:29:50.384">
  <property name="kdenlive:projectTractor">1</property>
  <track in="00:00:00.000" out="01:29:50.384" producer="tractor8"/>
 </tractor>
</mlt>
