<?xml version='1.0' encoding='utf-8'?>
<mlt LC_NUMERIC="en_US.UTF-8" producer="main_bin" root="N:/Videos/FanEdits/FanMixes/Congo" version="7.33.0">
 <profile colorspace="709" description="1920x1072 23.98fps" display_aspect_den="67" display_aspect_num="120" frame_rate_den="1001" frame_rate_num="24000" height="1072" progressive="1" sample_aspect_den="1" sample_aspect_num="1" width="1920"/>
 <producer id="producer0" in="00:00:00.000" out="01:46:25.234">
  <property name="length">2147483647</property>
  <property name="eof">continue</property>
  <property name="resource">black</property>
  <property name="aspect_ratio">1</property>
  <property name="mlt_service">color</property>
  <property name="kdenlive:playlistid">black_track</property>
  <property name="mlt_image_format">rgba</property>
  <property name="set.test_audio">0</property>
 </producer>
 <playlist id="playlist0">
  <property name="kdenlive:audio_track">1</property>
 </playlist>
 <playlist id="playlist1">
  <property name="kdenlive:audio_track">1</property>
 </playlist>
 <tractor id="tractor0" in="00:00:00.000">
  <property name="kdenlive:audio_track">1</property>
  <property name="kdenlive:trackheight">84</property>
  <property name="kdenlive:timeline_active">1</property>
  <property name="kdenlive:collapsed">0</property>
  <property name="kdenlive:thumbs_format"/>
  <property name="kdenlive:audio_rec"/>
  <track hide="video" producer="playlist0"/>
  <track hide="video" producer="playlist1"/>
  <filter id="filter0">
   <property name="window">75</property>
   <property name="max_gain">20dB</property>
   <property name="mlt_service">volume</property>
   <property name="internal_added">237</property>
   <property name="disable">1</property>
  </filter>
  <filter id="filter1">
   <property name="channel">-1</property>
   <property name="mlt_service">panner</property>
   <property name="internal_added">237</property>
   <property name="start">0.5</property>
   <property name="disable">1</property>
  </filter>
  <filter id="filter2">
   <property name="iec_scale">0</property>
   <property name="mlt_service">audiolevel</property>
   <property name="dbpeak">1</property>
   <property name="disable">1</property>
  </filter>
 </tractor>
 <chain id="chain0" out="01:48:15.682">
  <property name="length">155740</property>
  <property name="eof">pause</property>
  <property name="resource">N:/Videos/General Movies/Congo (1995)/Congo.1995.1080p.BluRay.x264.AAC5.1-[YTS.MX].mp4</property>
  <property name="mlt_service">avformat-novalidate</property>
  <property name="seekable">1</property>
  <property name="audio_index">1</property>
  <property name="video_index">0</property>
  <property name="vstream">0</property>
  <property name="astream">0</property>
  <property name="kdenlive:control_uuid">{db2eedd1-8326-4103-b081-6a667e58b483}</property>
  <property name="kdenlive:id">4</property>
  <property name="kdenlive:clip_type">0</property>
  <property name="kdenlive:file_size">2142594276</property>
  <property name="kdenlive:file_hash">46c4b5e152b03d872d56e70fcd3f602d</property>
  <property name="kdenlive:folderid">-1</property>
  <property name="meta.media.nb_streams">2</property>
  <property name="meta.media.0.stream.type">video</property>
  <property name="meta.media.0.stream.frame_rate">23.976</property>
  <property name="meta.media.0.stream.sample_aspect_ratio">1</property>
  <property name="meta.media.0.codec.width">1920</property>
  <property name="meta.media.0.codec.height">1072</property>
  <property name="meta.media.0.codec.rotate">0</property>
  <property name="meta.media.0.codec.pix_fmt">yuv420p</property>
  <property name="meta.media.0.codec.sample_aspect_ratio">1</property>
  <property name="meta.media.0.codec.colorspace">709</property>
  <property name="meta.media.0.codec.name">h264</property>
  <property name="meta.media.0.codec.long_name">H.264 / AVC / MPEG-4 AVC / MPEG-4 part 10</property>
  <property name="meta.media.0.codec.bit_rate">2248274</property>
  <property name="meta.attr.0.stream.handler_name.markup">VideoHandler</property>
  <property name="meta.attr.0.stream.vendor_id.markup">[0][0][0][0]</property>
  <property name="meta.media.1.stream.type">audio</property>
  <property name="meta.media.1.codec.sample_fmt">fltp</property>
  <property name="meta.media.1.codec.sample_rate">48000</property>
  <property name="meta.media.1.codec.channels">6</property>
  <property name="meta.media.1.codec.layout">5.1</property>
  <property name="meta.media.1.codec.name">aac</property>
  <property name="meta.media.1.codec.long_name">AAC (Advanced Audio Coding)</property>
  <property name="meta.media.1.codec.bit_rate">384000</property>
  <property name="meta.attr.1.stream.handler_name.markup">SoundHandler</property>
  <property name="meta.attr.1.stream.vendor_id.markup">[0][0][0][0]</property>
  <property name="meta.attr.major_brand.markup">isom</property>
  <property name="meta.attr.minor_version.markup">512</property>
  <property name="meta.attr.compatible_brands.markup">isomiso2avc1mp41</property>
  <property name="meta.attr.encoder.markup">Lavf58.35.100</property>
  <property name="meta.media.sample_aspect_num">1</property>
  <property name="meta.media.sample_aspect_den">1</property>
  <property name="meta.media.frame_rate_num">24000</property>
  <property name="meta.media.frame_rate_den">1001</property>
  <property name="meta.media.colorspace">709</property>
  <property name="meta.media.color_trc">2</property>
  <property name="meta.media.has_b_frames">2</property>
  <property name="meta.media.width">1920</property>
  <property name="meta.media.height">1072</property>
  <property name="meta.media.aspect_ratio">1</property>
  <property name="meta.media.color_range">mpeg</property>
  <property name="xml">was here</property>
  <property name="mute_on_pause">0</property>
  <property name="meta.media.top_field_first">0</property>
  <property name="meta.media.progressive">1</property>
  <property name="set.test_audio">0</property>
  <property name="set.test_image">1</property>
 </chain>
 <playlist id="playlist2">
  <property name="kdenlive:audio_track">1</property>
  <entry in="00:00:00.000" out="00:06:34.743" producer="chain0">
   <property name="kdenlive:id">4</property>
   <property name="kdenlive:activeeffect">0</property>
  </entry>
  <blank length="00:00:51.551"/>
  <entry in="00:08:14.139" out="00:08:39.498" producer="chain0">
   <property name="kdenlive:id">4</property>
   <property name="kdenlive:activeeffect">0</property>
  </entry>
  <blank length="00:02:25.776"/>
  <entry in="00:11:14.932" out="00:13:37.746" producer="chain0">
   <property name="kdenlive:id">4</property>
   <property name="kdenlive:activeeffect">0</property>
  </entry>
  <blank length="00:05:25.609"/>
  <entry in="00:19:35.202" out="00:19:50.133" producer="chain0">
   <property name="kdenlive:id">4</property>
   <property name="kdenlive:activeeffect">0</property>
  </entry>
  <blank length="00:00:04.004"/>
  <entry in="00:20:29.696" out="00:21:30.322" producer="chain0">
   <property name="kdenlive:id">4</property>
   <property name="kdenlive:activeeffect">0</property>
  </entry>
  <blank length="00:00:03.128"/>
  <entry in="00:23:09.718" out="00:29:49.466" producer="chain0">
   <property name="kdenlive:id">4</property>
   <property name="kdenlive:activeeffect">1</property>
   <filter id="filter3" in="00:23:09.718" out="00:23:16.558">
    <property name="window">75</property>
    <property name="max_gain">20dB</property>
    <property name="mlt_service">volume</property>
    <property name="kdenlive_id">fadein</property>
    <property name="gain">0</property>
    <property name="end">1</property>
    <property name="kdenlive:collapsed">0</property>
   </filter>
  </entry>
  <blank length="00:00:23.148"/>
  <entry in="00:30:40.540" out="00:32:02.461" producer="chain0">
   <property name="kdenlive:id">4</property>
   <property name="kdenlive:activeeffect">0</property>
  </entry>
  <blank length="00:00:31.740"/>
  <entry in="00:33:07.591" out="00:36:16.099" producer="chain0">
   <property name="kdenlive:id">4</property>
   <property name="kdenlive:activeeffect">0</property>
  </entry>
  <blank length="00:00:01.126"/>
  <entry in="00:36:34.076" out="00:47:50.717" producer="chain0">
   <property name="kdenlive:id">4</property>
   <property name="kdenlive:activeeffect">0</property>
   <filter id="filter4" in="00:47:47.714" out="00:47:50.717">
    <property name="window">75</property>
    <property name="max_gain">20dB</property>
    <property name="mlt_service">volume</property>
    <property name="kdenlive_id">fadeout</property>
    <property name="gain">1</property>
    <property name="end">0</property>
    <property name="kdenlive:collapsed">0</property>
   </filter>
  </entry>
  <blank length="00:00:59.810"/>
  <entry in="00:49:24.274" out="00:49:26.235" producer="chain0">
   <property name="kdenlive:id">4</property>
   <property name="kdenlive:activeeffect">0</property>
  </entry>
  <blank length="00:09:40.249"/>
  <entry in="00:49:24.816" out="00:50:25.859" producer="chain0">
   <property name="kdenlive:id">4</property>
   <property name="kdenlive:activeeffect">0</property>
  </entry>
  <entry in="00:50:25.901" out="00:50:48.632" producer="chain0">
   <property name="kdenlive:id">4</property>
   <property name="kdenlive:activeeffect">0</property>
  </entry>
  <blank length="00:03:26.026"/>
  <entry in="00:54:21.355" out="00:54:22.731" producer="chain0">
   <property name="kdenlive:id">4</property>
   <property name="kdenlive:activeeffect">0</property>
  </entry>
  <blank length="00:00:47.464"/>
  <entry in="01:07:06.965" out="01:16:21.605" producer="chain0">
   <property name="kdenlive:id">4</property>
  </entry>
  <blank length="00:00:00.626"/>
  <entry in="01:16:27.110" out="01:23:30.239" producer="chain0">
   <property name="kdenlive:id">4</property>
   <filter id="filter5" in="01:16:27.110" out="01:16:27.945">
    <property name="window">75</property>
    <property name="max_gain">20dB</property>
    <property name="mlt_service">volume</property>
    <property name="kdenlive_id">fadein</property>
    <property name="gain">0</property>
    <property name="end">1</property>
    <property name="kdenlive:collapsed">0</property>
   </filter>
  </entry>
 </playlist>
 <chain id="chain1" out="01:48:15.682">
  <property name="length">155740</property>
  <property name="eof">pause</property>
  <property name="resource">N:/Videos/General Movies/Congo (1995)/Congo.1995.1080p.BluRay.x264.AAC5.1-[YTS.MX].mp4</property>
  <property name="mlt_service">avformat-novalidate</property>
  <property name="seekable">1</property>
  <property name="audio_index">1</property>
  <property name="video_index">0</property>
  <property name="vstream">0</property>
  <property name="astream">0</property>
  <property name="kdenlive:control_uuid">{db2eedd1-8326-4103-b081-6a667e58b483}</property>
  <property name="kdenlive:id">4</property>
  <property name="kdenlive:clip_type">0</property>
  <property name="kdenlive:file_size">2142594276</property>
  <property name="kdenlive:file_hash">46c4b5e152b03d872d56e70fcd3f602d</property>
  <property name="kdenlive:folderid">-1</property>
  <property name="meta.media.nb_streams">2</property>
  <property name="meta.media.0.stream.type">video</property>
  <property name="meta.media.0.stream.frame_rate">23.976</property>
  <property name="meta.media.0.stream.sample_aspect_ratio">1</property>
  <property name="meta.media.0.codec.width">1920</property>
  <property name="meta.media.0.codec.height">1072</property>
  <property name="meta.media.0.codec.rotate">0</property>
  <property name="meta.media.0.codec.pix_fmt">yuv420p</property>
  <property name="meta.media.0.codec.sample_aspect_ratio">1</property>
  <property name="meta.media.0.codec.colorspace">709</property>
  <property name="meta.media.0.codec.name">h264</property>
  <property name="meta.media.0.codec.long_name">H.264 / AVC / MPEG-4 AVC / MPEG-4 part 10</property>
  <property name="meta.media.0.codec.bit_rate">2248274</property>
  <property name="meta.attr.0.stream.handler_name.markup">VideoHandler</property>
  <property name="meta.attr.0.stream.vendor_id.markup">[0][0][0][0]</property>
  <property name="meta.media.1.stream.type">audio</property>
  <property name="meta.media.1.codec.sample_fmt">fltp</property>
  <property name="meta.media.1.codec.sample_rate">48000</property>
  <property name="meta.media.1.codec.channels">6</property>
  <property name="meta.media.1.codec.layout">5.1</property>
  <property name="meta.media.1.codec.name">aac</property>
  <property name="meta.media.1.codec.long_name">AAC (Advanced Audio Coding)</property>
  <property name="meta.media.1.codec.bit_rate">384000</property>
  <property name="meta.attr.1.stream.handler_name.markup">SoundHandler</property>
  <property name="meta.attr.1.stream.vendor_id.markup">[0][0][0][0]</property>
  <property name="meta.attr.major_brand.markup">isom</property>
  <property name="meta.attr.minor_version.markup">512</property>
  <property name="meta.attr.compatible_brands.markup">isomiso2avc1mp41</property>
  <property name="meta.attr.encoder.markup">Lavf58.35.100</property>
  <property name="meta.media.sample_aspect_num">1</property>
  <property name="meta.media.sample_aspect_den">1</property>
  <property name="meta.media.frame_rate_num">24000</property>
  <property name="meta.media.frame_rate_den">1001</property>
  <property name="meta.media.colorspace">709</property>
  <property name="meta.media.color_trc">2</property>
  <property name="meta.media.has_b_frames">2</property>
  <property name="meta.media.width">1920</property>
  <property name="meta.media.height">1072</property>
  <property name="meta.media.aspect_ratio">1</property>
  <property name="meta.media.color_range">mpeg</property>
  <property name="xml">was here</property>
  <property name="mute_on_pause">0</property>
  <property name="meta.media.top_field_first">0</property>
  <property name="meta.media.progressive">1</property>
  <property name="set.test_audio">0</property>
  <property name="set.test_image">1</property>
 </chain>
 <playlist id="playlist3">
  <property name="kdenlive:audio_track">1</property>
  <blank length="00:06:33.784"/>
  <entry in="00:07:20.437" out="00:08:13.931" producer="chain1">
   <property name="kdenlive:id">4</property>
   <property name="kdenlive:activeeffect">0</property>
  </entry>
  <blank length="00:00:23.565"/>
  <entry in="00:08:41.541" out="00:11:09.092" producer="chain1">
   <property name="kdenlive:id">4</property>
   <property name="kdenlive:activeeffect">0</property>
  </entry>
  <blank length="00:02:20.854"/>
  <entry in="00:13:50.259" out="00:19:17.809" producer="chain1">
   <property name="kdenlive:id">4</property>
   <property name="kdenlive:activeeffect">0</property>
  </entry>
  <blank length="00:00:12.971"/>
  <entry in="00:20:21.188" out="00:20:27.152" producer="chain1">
   <property name="kdenlive:id">4</property>
   <property name="kdenlive:activeeffect">0</property>
  </entry>
  <blank length="00:00:58.642"/>
  <entry in="00:21:33.033" out="00:21:40.123" producer="chain1">
   <property name="kdenlive:id">4</property>
   <property name="kdenlive:activeeffect">0</property>
  </entry>
  <blank length="00:06:32.824"/>
  <entry in="00:30:12.137" out="00:30:39.248" producer="chain1">
   <property name="kdenlive:id">4</property>
   <property name="kdenlive:activeeffect">0</property>
  </entry>
  <blank length="00:01:21.647"/>
  <entry in="00:32:08.091" out="00:32:37.246" producer="chain1">
   <property name="kdenlive:id">4</property>
   <property name="kdenlive:activeeffect">0</property>
  </entry>
  <entry in="00:32:37.287" out="00:32:41.124" producer="chain1">
   <property name="kdenlive:id">4</property>
   <property name="kdenlive:activeeffect">0</property>
  </entry>
  <blank length="00:03:06.590"/>
  <entry in="00:36:31.949" out="00:36:34.034" producer="chain1">
   <property name="kdenlive:id">4</property>
   <property name="kdenlive:activeeffect">0</property>
  </entry>
  <blank length="00:11:15.682"/>
  <entry in="00:48:22.356" out="00:49:24.107" producer="chain1">
   <property name="kdenlive:id">4</property>
   <property name="kdenlive:activeeffect">0</property>
  </entry>
  <entry in="00:55:16.099" out="01:05:00.334" producer="chain1">
   <property name="kdenlive:id">4</property>
   <property name="kdenlive:activeeffect">0</property>
   <filter id="filter6" in="01:04:57.349" out="01:05:00.375">
    <property name="window">75</property>
    <property name="max_gain">20dB</property>
    <property name="mlt_service">volume</property>
    <property name="kdenlive_id">fadeout</property>
    <property name="gain">1</property>
    <property name="end">0</property>
    <property name="kdenlive:collapsed">0</property>
   </filter>
  </entry>
  <blank length="00:01:19.895"/>
  <entry in="00:50:53.178" out="00:54:20.562" producer="chain1">
   <property name="kdenlive:id">4</property>
   <property name="kdenlive:activeeffect">0</property>
  </entry>
  <blank length="00:00:00.584"/>
  <entry in="00:54:24.399" out="00:55:16.266" producer="chain1">
   <property name="kdenlive:id">4</property>
   <property name="kdenlive:activeeffect">0</property>
  </entry>
  <blank length="00:09:09.843"/>
  <entry in="01:16:22.564" out="01:16:24.399" producer="chain1">
   <property name="kdenlive:id">4</property>
  </entry>
  <blank length="00:07:01.793"/>
  <entry in="01:23:35.535" out="01:48:15.682" producer="chain1">
   <property name="kdenlive:id">4</property>
  </entry>
 </playlist>
 <tractor id="tractor1" in="00:00:00.000" out="01:40:10.177">
  <property name="kdenlive:audio_track">1</property>
  <property name="kdenlive:trackheight">84</property>
  <property name="kdenlive:timeline_active">1</property>
  <property name="kdenlive:collapsed">0</property>
  <property name="kdenlive:thumbs_format"/>
  <property name="kdenlive:audio_rec"/>
  <track hide="video" producer="playlist2"/>
  <track hide="video" producer="playlist3"/>
  <transition id="transition0" in="00:06:33.784" out="00:06:34.785">
   <property name="a_track">0</property>
   <property name="b_track">1</property>
   <property name="mlt_service">mix</property>
   <property name="kdenlive_id">mix</property>
   <property name="kdenlive:mixcut">24</property>
   <property name="start">-1</property>
   <property name="accepts_blanks">1</property>
   <property name="reverse">0</property>
  </transition>
  <transition id="transition1" in="00:07:26.360" out="00:07:27.361">
   <property name="a_track">0</property>
   <property name="b_track">1</property>
   <property name="mlt_service">mix</property>
   <property name="kdenlive_id">mix</property>
   <property name="kdenlive:mixcut">12</property>
   <property name="start">-1</property>
   <property name="accepts_blanks">1</property>
   <property name="reverse">1</property>
  </transition>
  <transition id="transition2" in="00:07:50.926" out="00:07:51.760">
   <property name="a_track">0</property>
   <property name="b_track">1</property>
   <property name="mlt_service">mix</property>
   <property name="kdenlive_id">mix</property>
   <property name="kdenlive:mixcut">17</property>
   <property name="start">-1</property>
   <property name="accepts_blanks">1</property>
   <property name="reverse">0</property>
  </transition>
  <transition id="transition3" in="00:10:17.517" out="00:10:18.518">
   <property name="a_track">0</property>
   <property name="b_track">1</property>
   <property name="mlt_service">mix</property>
   <property name="kdenlive_id">mix</property>
   <property name="kdenlive:mixcut">12</property>
   <property name="start">-1</property>
   <property name="accepts_blanks">1</property>
   <property name="reverse">1</property>
  </transition>
  <transition id="transition4" in="00:12:39.373" out="00:12:40.374">
   <property name="a_track">0</property>
   <property name="b_track">1</property>
   <property name="mlt_service">mix</property>
   <property name="kdenlive_id">mix</property>
   <property name="kdenlive:mixcut">3</property>
   <property name="start">-1</property>
   <property name="accepts_blanks">1</property>
   <property name="reverse">0</property>
  </transition>
  <transition id="transition5" in="00:18:05.923" out="00:18:06.924">
   <property name="a_track">0</property>
   <property name="b_track">1</property>
   <property name="mlt_service">mix</property>
   <property name="kdenlive_id">mix</property>
   <property name="kdenlive:mixcut">4</property>
   <property name="start">-1</property>
   <property name="accepts_blanks">1</property>
   <property name="reverse">1</property>
  </transition>
  <transition id="transition6" in="00:18:24.900" out="00:18:25.901">
   <property name="a_track">0</property>
   <property name="b_track">1</property>
   <property name="mlt_service">mix</property>
   <property name="kdenlive_id">mix</property>
   <property name="kdenlive:mixcut">5</property>
   <property name="reverse">1</property>
  </transition>
  <transition id="transition7" in="00:18:19.895" out="00:18:20.896">
   <property name="a_track">0</property>
   <property name="b_track">1</property>
   <property name="mlt_service">mix</property>
   <property name="kdenlive_id">mix</property>
   <property name="kdenlive:mixcut">7</property>
   <property name="start">-1</property>
   <property name="accepts_blanks">1</property>
   <property name="reverse">0</property>
  </transition>
  <transition id="transition8" in="00:19:24.566" out="00:19:25.567">
   <property name="a_track">0</property>
   <property name="b_track">1</property>
   <property name="mlt_service">mix</property>
   <property name="kdenlive_id">mix</property>
   <property name="kdenlive:mixcut">12</property>
   <property name="start">-1</property>
   <property name="accepts_blanks">1</property>
   <property name="reverse">0</property>
  </transition>
  <transition id="transition9" in="00:19:28.695" out="00:19:31.698">
   <property name="a_track">0</property>
   <property name="b_track">1</property>
   <property name="mlt_service">mix</property>
   <property name="kdenlive_id">mix</property>
   <property name="kdenlive:mixcut">36</property>
   <property name="start">-1</property>
   <property name="accepts_blanks">1</property>
   <property name="reverse">1</property>
  </transition>
  <transition id="transition10" in="00:26:04.504" out="00:26:08.508">
   <property name="a_track">0</property>
   <property name="b_track">1</property>
   <property name="mlt_service">mix</property>
   <property name="kdenlive_id">mix</property>
   <property name="kdenlive:mixcut">48</property>
   <property name="start">-1</property>
   <property name="accepts_blanks">1</property>
   <property name="reverse">0</property>
  </transition>
  <transition id="transition11" in="00:27:53.262" out="00:27:53.595">
   <property name="a_track">0</property>
   <property name="b_track">1</property>
   <property name="mlt_service">mix</property>
   <property name="kdenlive_id">mix</property>
   <property name="kdenlive:mixcut">8</property>
   <property name="start">-1</property>
   <property name="accepts_blanks">1</property>
   <property name="reverse">0</property>
  </transition>
  <transition id="transition12" in="00:28:25.359" out="00:28:26.360">
   <property name="a_track">0</property>
   <property name="b_track">1</property>
   <property name="mlt_service">mix</property>
   <property name="kdenlive_id">mix</property>
   <property name="kdenlive:mixcut">12</property>
   <property name="start">-1</property>
   <property name="accepts_blanks">1</property>
   <property name="reverse">1</property>
  </transition>
  <transition id="transition13" in="00:31:32.908" out="00:31:33.909">
   <property name="a_track">0</property>
   <property name="b_track">1</property>
   <property name="mlt_service">mix</property>
   <property name="kdenlive_id">mix</property>
   <property name="kdenlive:mixcut">12</property>
   <property name="start">-1</property>
   <property name="accepts_blanks">1</property>
   <property name="reverse">0</property>
  </transition>
  <transition id="transition14" in="00:42:50.717" out="00:42:51.718">
   <property name="a_track">0</property>
   <property name="b_track">1</property>
   <property name="mlt_service">mix</property>
   <property name="kdenlive_id">mix</property>
   <property name="kdenlive:mixcut">12</property>
   <property name="start">-1</property>
   <property name="accepts_blanks">1</property>
   <property name="reverse">0</property>
  </transition>
  <transition id="transition15" in="00:58:23.649" out="00:58:24.066">
   <property name="a_track">0</property>
   <property name="b_track">1</property>
   <property name="mlt_service">mix</property>
   <property name="kdenlive_id">mix</property>
   <property name="kdenlive:mixcut">5</property>
   <property name="reverse">1</property>
  </transition>
  <transition id="transition16" in="00:54:56.640" out="00:54:57.641">
   <property name="a_track">0</property>
   <property name="b_track">1</property>
   <property name="mlt_service">mix</property>
   <property name="kdenlive_id">mix</property>
   <property name="kdenlive:mixcut">12</property>
   <property name="reverse">0</property>
  </transition>
  <transition id="transition17" in="00:58:24.650" out="00:58:25.067">
   <property name="a_track">0</property>
   <property name="b_track">1</property>
   <property name="mlt_service">mix</property>
   <property name="kdenlive_id">mix</property>
   <property name="kdenlive:mixcut">5</property>
   <property name="reverse">0</property>
  </transition>
  <transition id="transition18" in="00:43:51.510" out="00:43:52.511">
   <property name="a_track">0</property>
   <property name="b_track">1</property>
   <property name="mlt_service">mix</property>
   <property name="kdenlive_id">mix</property>
   <property name="kdenlive:mixcut">12</property>
   <property name="start">-1</property>
   <property name="accepts_blanks">1</property>
   <property name="reverse">1</property>
  </transition>
  <transition id="transition19" in="00:43:52.511" out="00:43:53.512">
   <property name="a_track">0</property>
   <property name="b_track">1</property>
   <property name="mlt_service">mix</property>
   <property name="kdenlive_id">mix</property>
   <property name="kdenlive:mixcut">14</property>
   <property name="start">-1</property>
   <property name="accepts_blanks">1</property>
   <property name="reverse">0</property>
  </transition>
  <transition id="transition20" in="00:53:33.784" out="00:53:36.787">
   <property name="a_track">0</property>
   <property name="b_track">1</property>
   <property name="mlt_service">mix</property>
   <property name="kdenlive_id">mix</property>
   <property name="kdenlive:mixcut">36</property>
   <property name="start">-1</property>
   <property name="accepts_blanks">1</property>
   <property name="reverse">1</property>
  </transition>
  <transition id="transition21" in="00:59:12.512" out="00:59:16.516">
   <property name="a_track">0</property>
   <property name="b_track">1</property>
   <property name="mlt_service">mix</property>
   <property name="kdenlive_id">mix</property>
   <property name="kdenlive:mixcut">9</property>
   <property name="start">-1</property>
   <property name="accepts_blanks">1</property>
   <property name="reverse">1</property>
  </transition>
  <transition id="transition22" in="01:08:27.861" out="01:08:28.278">
   <property name="a_track">0</property>
   <property name="b_track">1</property>
   <property name="mlt_service">mix</property>
   <property name="kdenlive_id">mix</property>
   <property name="kdenlive:mixcut">1</property>
   <property name="start">-1</property>
   <property name="accepts_blanks">1</property>
   <property name="reverse">1</property>
  </transition>
  <transition id="transition23" in="01:08:26.401" out="01:08:27.236">
   <property name="a_track">0</property>
   <property name="b_track">1</property>
   <property name="mlt_service">mix</property>
   <property name="kdenlive_id">mix</property>
   <property name="kdenlive:mixcut">1</property>
   <property name="start">-1</property>
   <property name="accepts_blanks">1</property>
   <property name="reverse">0</property>
  </transition>
  <transition id="transition24" in="01:15:30.030" out="01:15:31.031">
   <property name="a_track">0</property>
   <property name="b_track">1</property>
   <property name="mlt_service">mix</property>
   <property name="kdenlive_id">mix</property>
   <property name="kdenlive:mixcut">12</property>
   <property name="start">-1</property>
   <property name="accepts_blanks">1</property>
   <property name="reverse">0</property>
  </transition>
  <filter id="filter7">
   <property name="window">75</property>
   <property name="max_gain">20dB</property>
   <property name="mlt_service">volume</property>
   <property name="internal_added">237</property>
   <property name="disable">1</property>
  </filter>
  <filter id="filter8">
   <property name="channel">-1</property>
   <property name="mlt_service">panner</property>
   <property name="internal_added">237</property>
   <property name="start">0.5</property>
   <property name="disable">1</property>
  </filter>
  <filter id="filter9">
   <property name="iec_scale">0</property>
   <property name="mlt_service">audiolevel</property>
   <property name="dbpeak">1</property>
   <property name="disable">1</property>
  </filter>
 </tractor>
 <chain id="chain2" out="01:48:15.682">
  <property name="length">155740</property>
  <property name="eof">pause</property>
  <property name="resource">N:/Videos/General Movies/Congo (1995)/Congo.1995.1080p.BluRay.x264.AAC5.1-[YTS.MX].mp4</property>
  <property name="mlt_service">avformat-novalidate</property>
  <property name="seekable">1</property>
  <property name="audio_index">1</property>
  <property name="video_index">0</property>
  <property name="vstream">0</property>
  <property name="astream">0</property>
  <property name="kdenlive:control_uuid">{db2eedd1-8326-4103-b081-6a667e58b483}</property>
  <property name="kdenlive:id">4</property>
  <property name="kdenlive:clip_type">0</property>
  <property name="kdenlive:file_size">2142594276</property>
  <property name="kdenlive:file_hash">46c4b5e152b03d872d56e70fcd3f602d</property>
  <property name="kdenlive:folderid">-1</property>
  <property name="meta.media.nb_streams">2</property>
  <property name="meta.media.0.stream.type">video</property>
  <property name="meta.media.0.stream.frame_rate">23.976</property>
  <property name="meta.media.0.stream.sample_aspect_ratio">1</property>
  <property name="meta.media.0.codec.width">1920</property>
  <property name="meta.media.0.codec.height">1072</property>
  <property name="meta.media.0.codec.rotate">0</property>
  <property name="meta.media.0.codec.pix_fmt">yuv420p</property>
  <property name="meta.media.0.codec.sample_aspect_ratio">1</property>
  <property name="meta.media.0.codec.colorspace">709</property>
  <property name="meta.media.0.codec.name">h264</property>
  <property name="meta.media.0.codec.long_name">H.264 / AVC / MPEG-4 AVC / MPEG-4 part 10</property>
  <property name="meta.media.0.codec.bit_rate">2248274</property>
  <property name="meta.attr.0.stream.handler_name.markup">VideoHandler</property>
  <property name="meta.attr.0.stream.vendor_id.markup">[0][0][0][0]</property>
  <property name="meta.media.1.stream.type">audio</property>
  <property name="meta.media.1.codec.sample_fmt">fltp</property>
  <property name="meta.media.1.codec.sample_rate">48000</property>
  <property name="meta.media.1.codec.channels">6</property>
  <property name="meta.media.1.codec.layout">5.1</property>
  <property name="meta.media.1.codec.name">aac</property>
  <property name="meta.media.1.codec.long_name">AAC (Advanced Audio Coding)</property>
  <property name="meta.media.1.codec.bit_rate">384000</property>
  <property name="meta.attr.1.stream.handler_name.markup">SoundHandler</property>
  <property name="meta.attr.1.stream.vendor_id.markup">[0][0][0][0]</property>
  <property name="meta.attr.major_brand.markup">isom</property>
  <property name="meta.attr.minor_version.markup">512</property>
  <property name="meta.attr.compatible_brands.markup">isomiso2avc1mp41</property>
  <property name="meta.attr.encoder.markup">Lavf58.35.100</property>
  <property name="meta.media.sample_aspect_num">1</property>
  <property name="meta.media.sample_aspect_den">1</property>
  <property name="meta.media.frame_rate_num">24000</property>
  <property name="meta.media.frame_rate_den">1001</property>
  <property name="meta.media.colorspace">709</property>
  <property name="meta.media.color_trc">2</property>
  <property name="meta.media.has_b_frames">2</property>
  <property name="meta.media.width">1920</property>
  <property name="meta.media.height">1072</property>
  <property name="meta.media.aspect_ratio">1</property>
  <property name="meta.media.color_range">mpeg</property>
  <property name="xml">was here</property>
  <property name="mute_on_pause">0</property>
  <property name="meta.media.top_field_first">0</property>
  <property name="meta.media.progressive">1</property>
  <property name="set.test_audio">1</property>
  <property name="set.test_image">0</property>
 </chain>
 <playlist id="playlist4">
  <entry in="00:00:00.000" out="00:06:33.742" producer="chain2">
   <property name="kdenlive:id">4</property>
  </entry>
  <entry in="00:07:20.437" out="00:08:13.430" producer="chain2">
   <property name="kdenlive:id">4</property>
  </entry>
  <entry in="00:08:14.640" out="00:08:38.789" producer="chain2">
   <property name="kdenlive:id">4</property>
  </entry>
  <entry in="00:08:41.667" out="00:11:08.592" producer="chain2">
   <property name="kdenlive:id">4</property>
  </entry>
  <entry in="00:11:15.432" out="00:13:37.621" producer="chain2">
   <property name="kdenlive:id">4</property>
  </entry>
  <entry in="00:13:51.134" out="00:19:17.643" producer="chain2">
   <property name="kdenlive:id">4</property>
  </entry>
  <entry in="00:19:36.036" out="00:19:49.841" producer="chain2">
   <property name="kdenlive:id">4</property>
  </entry>
  <entry in="00:20:21.897" out="00:20:26.944" producer="chain2">
   <property name="kdenlive:id">4</property>
  </entry>
  <entry in="00:20:30.489" out="00:21:29.821" producer="chain2">
   <property name="kdenlive:id">4</property>
  </entry>
  <entry in="00:21:33.533" out="00:21:39.122" producer="chain2">
   <property name="kdenlive:id">4</property>
  </entry>
  <blank length="00:06:35.827"/>
  <entry in="00:30:14.139" out="00:30:39.248" producer="chain2">
   <property name="kdenlive:id">4</property>
  </entry>
  <entry in="00:30:40.540" out="00:32:02.127" producer="chain2">
   <property name="kdenlive:id">4</property>
  </entry>
  <entry in="00:32:08.091" out="00:32:37.246" producer="chain2">
   <property name="kdenlive:id">4</property>
  </entry>
  <entry in="00:32:37.287" out="00:32:40.624" producer="chain2">
   <property name="kdenlive:id">4</property>
   <property name="kdenlive:activeeffect">0</property>
   <filter id="filter10">
    <property name="background">colour:0</property>
    <property name="mlt_service">affine</property>
    <property name="kdenlive_id">pan_zoom</property>
    <property name="transition.rect">00:32:37.287=-71 -4 2813 1570</property>
    <property name="transition.distort">0</property>
    <property name="use_normalised">0</property>
    <property name="producer.resource">0x00000000</property>
    <property name="transition.repeat_off">1</property>
    <property name="transition.mirror_off">1</property>
    <property name="kdenlive:collapsed">0</property>
   </filter>
  </entry>
  <entry in="00:33:08.091" out="00:36:15.599" producer="chain2">
   <property name="kdenlive:id">4</property>
  </entry>
  <entry in="00:36:32.449" out="00:36:34.034" producer="chain2">
   <property name="kdenlive:id">4</property>
   <property name="kdenlive:activeeffect">0</property>
   <filter id="filter11">
    <property name="background">colour:0</property>
    <property name="mlt_service">affine</property>
    <property name="kdenlive_id">pan_zoom</property>
    <property name="transition.rect">00:36:32.449=-519 -154 2448 1366</property>
    <property name="transition.distort">0</property>
    <property name="use_normalised">0</property>
    <property name="producer.resource">0x00000000</property>
    <property name="transition.repeat_off">1</property>
    <property name="transition.mirror_off">1</property>
    <property name="kdenlive:collapsed">0</property>
   </filter>
  </entry>
  <entry in="00:36:34.076" out="00:47:50.217" producer="chain2">
   <property name="kdenlive:id">4</property>
  </entry>
  <entry in="00:48:22.856" out="00:49:23.607" producer="chain2">
   <property name="kdenlive:id">4</property>
  </entry>
  <entry in="00:49:24.775" out="00:49:25.651" producer="chain2">
   <property name="kdenlive:id">4</property>
  </entry>
  <entry in="00:55:16.516" out="01:04:59.142" producer="chain2">
   <property name="kdenlive:id">4</property>
   <property name="kdenlive:activeeffect">0</property>
  </entry>
  <blank length="00:00:59.268"/>
  <entry in="00:50:25.901" out="00:50:48.131" producer="chain2">
   <property name="kdenlive:id">4</property>
  </entry>
  <entry in="00:50:53.679" out="00:54:20.354" producer="chain2">
   <property name="kdenlive:id">4</property>
  </entry>
  <entry in="00:54:21.563" out="00:54:22.522" producer="chain2">
   <property name="kdenlive:id">4</property>
  </entry>
  <entry in="00:54:24.608" out="00:55:16.099" producer="chain2">
   <property name="kdenlive:id">4</property>
  </entry>
  <blank length="00:09:10.802"/>
  <entry in="01:16:23.357" out="01:16:24.358" producer="chain2">
   <property name="kdenlive:id">4</property>
  </entry>
  <entry in="01:16:27.486" out="01:23:29.738" producer="chain2">
   <property name="kdenlive:id">4</property>
  </entry>
  <entry in="01:23:36.036" out="01:48:15.682" producer="chain2">
   <property name="kdenlive:id">4</property>
  </entry>
 </playlist>
 <chain id="chain3" out="01:48:15.682">
  <property name="length">155740</property>
  <property name="eof">pause</property>
  <property name="resource">N:/Videos/General Movies/Congo (1995)/Congo.1995.1080p.BluRay.x264.AAC5.1-[YTS.MX].mp4</property>
  <property name="mlt_service">avformat-novalidate</property>
  <property name="seekable">1</property>
  <property name="audio_index">1</property>
  <property name="video_index">0</property>
  <property name="vstream">0</property>
  <property name="astream">0</property>
  <property name="kdenlive:control_uuid">{db2eedd1-8326-4103-b081-6a667e58b483}</property>
  <property name="kdenlive:id">4</property>
  <property name="kdenlive:clip_type">0</property>
  <property name="kdenlive:file_size">2142594276</property>
  <property name="kdenlive:file_hash">46c4b5e152b03d872d56e70fcd3f602d</property>
  <property name="kdenlive:folderid">-1</property>
  <property name="meta.media.nb_streams">2</property>
  <property name="meta.media.0.stream.type">video</property>
  <property name="meta.media.0.stream.frame_rate">23.976</property>
  <property name="meta.media.0.stream.sample_aspect_ratio">1</property>
  <property name="meta.media.0.codec.width">1920</property>
  <property name="meta.media.0.codec.height">1072</property>
  <property name="meta.media.0.codec.rotate">0</property>
  <property name="meta.media.0.codec.pix_fmt">yuv420p</property>
  <property name="meta.media.0.codec.sample_aspect_ratio">1</property>
  <property name="meta.media.0.codec.colorspace">709</property>
  <property name="meta.media.0.codec.name">h264</property>
  <property name="meta.media.0.codec.long_name">H.264 / AVC / MPEG-4 AVC / MPEG-4 part 10</property>
  <property name="meta.media.0.codec.bit_rate">2248274</property>
  <property name="meta.attr.0.stream.handler_name.markup">VideoHandler</property>
  <property name="meta.attr.0.stream.vendor_id.markup">[0][0][0][0]</property>
  <property name="meta.media.1.stream.type">audio</property>
  <property name="meta.media.1.codec.sample_fmt">fltp</property>
  <property name="meta.media.1.codec.sample_rate">48000</property>
  <property name="meta.media.1.codec.channels">6</property>
  <property name="meta.media.1.codec.layout">5.1</property>
  <property name="meta.media.1.codec.name">aac</property>
  <property name="meta.media.1.codec.long_name">AAC (Advanced Audio Coding)</property>
  <property name="meta.media.1.codec.bit_rate">384000</property>
  <property name="meta.attr.1.stream.handler_name.markup">SoundHandler</property>
  <property name="meta.attr.1.stream.vendor_id.markup">[0][0][0][0]</property>
  <property name="meta.attr.major_brand.markup">isom</property>
  <property name="meta.attr.minor_version.markup">512</property>
  <property name="meta.attr.compatible_brands.markup">isomiso2avc1mp41</property>
  <property name="meta.attr.encoder.markup">Lavf58.35.100</property>
  <property name="meta.media.sample_aspect_num">1</property>
  <property name="meta.media.sample_aspect_den">1</property>
  <property name="meta.media.frame_rate_num">24000</property>
  <property name="meta.media.frame_rate_den">1001</property>
  <property name="meta.media.colorspace">709</property>
  <property name="meta.media.color_trc">2</property>
  <property name="meta.media.has_b_frames">2</property>
  <property name="meta.media.width">1920</property>
  <property name="meta.media.height">1072</property>
  <property name="meta.media.aspect_ratio">1</property>
  <property name="meta.media.color_range">mpeg</property>
  <property name="xml">was here</property>
  <property name="mute_on_pause">0</property>
  <property name="meta.media.top_field_first">0</property>
  <property name="meta.media.progressive">1</property>
  <property name="set.test_audio">1</property>
  <property name="set.test_image">0</property>
 </chain>
 <playlist id="playlist5">
  <blank length="00:19:29.696"/>
  <entry in="00:23:10.719" out="00:29:47.464" producer="chain3">
   <property name="kdenlive:id">4</property>
  </entry>
  <blank length="00:27:28.695"/>
  <entry in="00:49:26.235" out="00:50:25.859" producer="chain3">
   <property name="kdenlive:id">4</property>
  </entry>
  <blank length="00:04:41.083"/>
  <entry in="01:07:10.385" out="01:16:21.563" producer="chain3">
   <property name="kdenlive:id">4</property>
  </entry>
 </playlist>
 <tractor id="tractor2" in="00:00:00.000" out="01:40:10.177">
  <property name="kdenlive:trackheight">84</property>
  <property name="kdenlive:timeline_active">1</property>
  <property name="kdenlive:collapsed">0</property>
  <property name="kdenlive:thumbs_format"/>
  <property name="kdenlive:audio_rec"/>
  <track hide="audio" producer="playlist4"/>
  <track hide="audio" producer="playlist5"/>
  <transition id="transition25" in="00:19:29.696" out="00:19:30.697">
   <property name="a_track">0</property>
   <property name="b_track">1</property>
   <property name="factory">loader</property>
   <property name="resource">luma01.pgm</property>
   <property name="mlt_service">luma</property>
   <property name="kdenlive_id">luma</property>
   <property name="kdenlive:mixcut">12</property>
   <property name="softness">0.63</property>
   <property name="alpha_over">1</property>
   <property name="fix_background_alpha">1</property>
   <property name="invert">0</property>
   <property name="reverse">0</property>
  </transition>
  <transition id="transition26" in="00:53:35.202" out="00:53:35.619">
   <property name="a_track">0</property>
   <property name="b_track">1</property>
   <property name="factory">loader</property>
   <property name="resource">luma01.pgm</property>
   <property name="mlt_service">luma</property>
   <property name="kdenlive_id">luma</property>
   <property name="kdenlive:mixcut">8</property>
   <property name="softness">0.52</property>
   <property name="alpha_over">1</property>
   <property name="fix_background_alpha">1</property>
   <property name="invert">0</property>
   <property name="reverse">0</property>
  </transition>
  <transition id="transition27" in="00:59:15.933" out="00:59:16.350">
   <property name="a_track">0</property>
   <property name="b_track">1</property>
   <property name="factory">loader</property>
   <property name="resource">luma01.pgm</property>
   <property name="mlt_service">luma</property>
   <property name="kdenlive_id">luma</property>
   <property name="kdenlive:mixcut">5</property>
   <property name="softness">0.53</property>
   <property name="alpha_over">1</property>
   <property name="fix_background_alpha">1</property>
   <property name="invert">0</property>
   <property name="reverse">0</property>
  </transition>
 </tractor>
 <playlist id="playlist6"/>
 <playlist id="playlist7"/>
 <tractor id="tractor3" in="00:00:00.000">
  <property name="kdenlive:trackheight">84</property>
  <property name="kdenlive:timeline_active">1</property>
  <property name="kdenlive:collapsed">0</property>
  <property name="kdenlive:thumbs_format"/>
  <property name="kdenlive:audio_rec"/>
  <track hide="audio" producer="playlist6"/>
  <track hide="audio" producer="playlist7"/>
 </tractor>
 <tractor id="{2eff404b-ac55-4a01-8e81-71f432cedf0b}" in="00:00:00.000" out="01:40:10.177">
  <property name="kdenlive:uuid">{2eff404b-ac55-4a01-8e81-71f432cedf0b}</property>
  <property name="kdenlive:clipname">Sequence 1</property>
  <property name="kdenlive:sequenceproperties.hasAudio">1</property>
  <property name="kdenlive:sequenceproperties.hasVideo">1</property>
  <property name="kdenlive:sequenceproperties.activeTrack">2</property>
  <property name="kdenlive:sequenceproperties.tracksCount">4</property>
  <property name="kdenlive:sequenceproperties.documentuuid">{2eff404b-ac55-4a01-8e81-71f432cedf0b}</property>
  <property name="kdenlive:control_uuid">{2eff404b-ac55-4a01-8e81-71f432cedf0b}</property>
  <property name="kdenlive:duration">01:40:10.219</property>
  <property name="kdenlive:maxduration">144100</property>
  <property name="kdenlive:producer_type">17</property>
  <property name="kdenlive:id">3</property>
  <property name="kdenlive:clip_type">0</property>
  <property name="kdenlive:file_size">0</property>
  <property name="kdenlive:folderid">2</property>
  <property name="kdenlive:sequenceproperties.audioTarget">1</property>
  <property name="kdenlive:sequenceproperties.disablepreview">0</property>
  <property name="kdenlive:sequenceproperties.globalSubtitleStyles">[
]
</property>
  <property name="kdenlive:sequenceproperties.position">131862</property>
  <property name="kdenlive:sequenceproperties.scrollPos">10378</property>
  <property name="kdenlive:sequenceproperties.subtitlesList">[
    {
        "file": "C:/Users/kado/AppData/Local/Temp/1753751336090-{6e47e85e-d44d-4d7f-bdb6-9f4b40723125}.ass",
        "id": 0,
        "name": "Subtitles"
    }
]
</property>
  <property name="kdenlive:sequenceproperties.tracks">4</property>
  <property name="kdenlive:sequenceproperties.verticalzoom">1</property>
  <property name="kdenlive:sequenceproperties.videoTarget">2</property>
  <property name="kdenlive:sequenceproperties.zonein">0</property>
  <property name="kdenlive:sequenceproperties.zoneout">75</property>
  <property name="kdenlive:sequenceproperties.zoom">13</property>
  <property name="kdenlive:sequenceproperties.groups">[
    {
        "children": [
            {
                "data": "-2:37741:0",
                "leaf": "subtitle",
                "type": "Leaf"
            },
            {
                "data": "-2:37833:0",
                "leaf": "subtitle",
                "type": "Leaf"
            },
            {
                "data": "-2:38022:0",
                "leaf": "subtitle",
                "type": "Leaf"
            },
            {
                "children": [
                    {
                        "data": "1:37510:-1",
                        "leaf": "clip",
                        "type": "Leaf"
                    },
                    {
                        "data": "2:37558:-1",
                        "leaf": "clip",
                        "type": "Leaf"
                    }
                ],
                "type": "AVSplit"
            }
        ],
        "type": "Normal"
    },
    {
        "children": [
            {
                "data": "-2:54021:0",
                "leaf": "subtitle",
                "type": "Leaf"
            },
            {
                "data": "-2:60319:0",
                "leaf": "subtitle",
                "type": "Leaf"
            },
            {
                "data": "-2:59202:0",
                "leaf": "subtitle",
                "type": "Leaf"
            },
            {
                "data": "-2:58188:0",
                "leaf": "subtitle",
                "type": "Leaf"
            },
            {
                "data": "-2:57929:0",
                "leaf": "subtitle",
                "type": "Leaf"
            },
            {
                "data": "-2:58129:0",
                "leaf": "subtitle",
                "type": "Leaf"
            },
            {
                "data": "-2:57823:0",
                "leaf": "subtitle",
                "type": "Leaf"
            },
            {
                "data": "-2:57129:0",
                "leaf": "subtitle",
                "type": "Leaf"
            },
            {
                "data": "-2:47756:0",
                "leaf": "subtitle",
                "type": "Leaf"
            },
            {
                "data": "-2:53761:0",
                "leaf": "subtitle",
                "type": "Leaf"
            },
            {
                "data": "-2:60058:0",
                "leaf": "subtitle",
                "type": "Leaf"
            },
            {
                "data": "-2:56734:0",
                "leaf": "subtitle",
                "type": "Leaf"
            },
            {
                "data": "-2:47072:0",
                "leaf": "subtitle",
                "type": "Leaf"
            },
            {
                "data": "-2:56672:0",
                "leaf": "subtitle",
                "type": "Leaf"
            },
            {
                "data": "-2:46977:0",
                "leaf": "subtitle",
                "type": "Leaf"
            },
            {
                "data": "-2:52179:0",
                "leaf": "subtitle",
                "type": "Leaf"
            },
            {
                "data": "-2:60009:0",
                "leaf": "subtitle",
                "type": "Leaf"
            },
            {
                "data": "-2:56976:0",
                "leaf": "subtitle",
                "type": "Leaf"
            },
            {
                "data": "-2:47150:0",
                "leaf": "subtitle",
                "type": "Leaf"
            },
            {
                "data": "-2:53904:0",
                "leaf": "subtitle",
                "type": "Leaf"
            },
            {
                "data": "-2:60222:0",
                "leaf": "subtitle",
                "type": "Leaf"
            },
            {
                "data": "-2:57367:0",
                "leaf": "subtitle",
                "type": "Leaf"
            },
            {
                "data": "-2:57688:0",
                "leaf": "subtitle",
                "type": "Leaf"
            },
            {
                "data": "-2:60832:0",
                "leaf": "subtitle",
                "type": "Leaf"
            },
            {
                "data": "-2:59597:0",
                "leaf": "subtitle",
                "type": "Leaf"
            },
            {
                "data": "-2:56276:0",
                "leaf": "subtitle",
                "type": "Leaf"
            },
            {
                "data": "-2:46244:0",
                "leaf": "subtitle",
                "type": "Leaf"
            },
            {
                "data": "-2:56785:0",
                "leaf": "subtitle",
                "type": "Leaf"
            },
            {
                "data": "-2:47105:0",
                "leaf": "subtitle",
                "type": "Leaf"
            },
            {
                "data": "-2:45945:0",
                "leaf": "subtitle",
                "type": "Leaf"
            },
            {
                "data": "-2:46071:0",
                "leaf": "subtitle",
                "type": "Leaf"
            },
            {
                "data": "-2:46146:0",
                "leaf": "subtitle",
                "type": "Leaf"
            },
            {
                "data": "-2:54774:0",
                "leaf": "subtitle",
                "type": "Leaf"
            },
            {
                "data": "-2:57533:0",
                "leaf": "subtitle",
                "type": "Leaf"
            },
            {
                "data": "-2:55002:0",
                "leaf": "subtitle",
                "type": "Leaf"
            },
            {
                "data": "-2:45799:0",
                "leaf": "subtitle",
                "type": "Leaf"
            },
            {
                "data": "-2:55223:0",
                "leaf": "subtitle",
                "type": "Leaf"
            },
            {
                "data": "-2:45850:0",
                "leaf": "subtitle",
                "type": "Leaf"
            },
            {
                "data": "-2:55312:0",
                "leaf": "subtitle",
                "type": "Leaf"
            },
            {
                "data": "-2:45905:0",
                "leaf": "subtitle",
                "type": "Leaf"
            },
            {
                "data": "-2:55430:0",
                "leaf": "subtitle",
                "type": "Leaf"
            },
            {
                "data": "-2:45677:0",
                "leaf": "subtitle",
                "type": "Leaf"
            },
            {
                "data": "-2:58637:0",
                "leaf": "subtitle",
                "type": "Leaf"
            },
            {
                "data": "-2:45641:0",
                "leaf": "subtitle",
                "type": "Leaf"
            },
            {
                "data": "-2:58491:0",
                "leaf": "subtitle",
                "type": "Leaf"
            },
            {
                "data": "-2:55571:0",
                "leaf": "subtitle",
                "type": "Leaf"
            },
            {
                "data": "-2:45562:0",
                "leaf": "subtitle",
                "type": "Leaf"
            },
            {
                "data": "-2:58260:0",
                "leaf": "subtitle",
                "type": "Leaf"
            },
            {
                "data": "-2:57474:0",
                "leaf": "subtitle",
                "type": "Leaf"
            },
            {
                "data": "-2:47801:0",
                "leaf": "subtitle",
                "type": "Leaf"
            },
            {
                "data": "-2:57182:0",
                "leaf": "subtitle",
                "type": "Leaf"
            },
            {
                "data": "-2:48452:0",
                "leaf": "subtitle",
                "type": "Leaf"
            },
            {
                "data": "-2:48182:0",
                "leaf": "subtitle",
                "type": "Leaf"
            },
            {
                "data": "-2:57629:0",
                "leaf": "subtitle",
                "type": "Leaf"
            },
            {
                "data": "-2:48142:0",
                "leaf": "subtitle",
                "type": "Leaf"
            },
            {
                "data": "-2:48071:0",
                "leaf": "subtitle",
                "type": "Leaf"
            },
            {
                "data": "-2:48003:0",
                "leaf": "subtitle",
                "type": "Leaf"
            },
            {
                "data": "-2:47877:0",
                "leaf": "subtitle",
                "type": "Leaf"
            },
            {
                "data": "-2:50570:0",
                "leaf": "subtitle",
                "type": "Leaf"
            },
            {
                "data": "-2:58863:0",
                "leaf": "subtitle",
                "type": "Leaf"
            },
            {
                "data": "-2:50680:0",
                "leaf": "subtitle",
                "type": "Leaf"
            },
            {
                "data": "-2:58940:0",
                "leaf": "subtitle",
                "type": "Leaf"
            },
            {
                "data": "-2:50761:0",
                "leaf": "subtitle",
                "type": "Leaf"
            },
            {
                "data": "-2:59085:0",
                "leaf": "subtitle",
                "type": "Leaf"
            },
            {
                "data": "-2:50815:0",
                "leaf": "subtitle",
                "type": "Leaf"
            },
            {
                "data": "-2:50899:0",
                "leaf": "subtitle",
                "type": "Leaf"
            },
            {
                "data": "-2:59352:0",
                "leaf": "subtitle",
                "type": "Leaf"
            },
            {
                "data": "-2:56006:0",
                "leaf": "subtitle",
                "type": "Leaf"
            },
            {
                "data": "-2:54922:0",
                "leaf": "subtitle",
                "type": "Leaf"
            },
            {
                "children": [
                    {
                        "data": "1:45435:-1",
                        "leaf": "clip",
                        "type": "Leaf"
                    },
                    {
                        "data": "2:45435:-1",
                        "leaf": "clip",
                        "type": "Leaf"
                    }
                ],
                "type": "AVSplit"
            },
            {
                "data": "-2:51917:0",
                "leaf": "subtitle",
                "type": "Leaf"
            },
            {
                "data": "-2:59874:0",
                "leaf": "subtitle",
                "type": "Leaf"
            },
            {
                "data": "-2:46308:0",
                "leaf": "subtitle",
                "type": "Leaf"
            },
            {
                "data": "-2:56347:0",
                "leaf": "subtitle",
                "type": "Leaf"
            },
            {
                "data": "-2:50954:0",
                "leaf": "subtitle",
                "type": "Leaf"
            },
            {
                "data": "-2:59417:0",
                "leaf": "subtitle",
                "type": "Leaf"
            },
            {
                "data": "-2:56110:0",
                "leaf": "subtitle",
                "type": "Leaf"
            },
            {
                "data": "-2:46343:0",
                "leaf": "subtitle",
                "type": "Leaf"
            },
            {
                "data": "-2:56557:0",
                "leaf": "subtitle",
                "type": "Leaf"
            },
            {
                "data": "-2:51268:0",
                "leaf": "subtitle",
                "type": "Leaf"
            },
            {
                "data": "-2:59487:0",
                "leaf": "subtitle",
                "type": "Leaf"
            },
            {
                "data": "-2:51359:0",
                "leaf": "subtitle",
                "type": "Leaf"
            },
            {
                "data": "-2:48262:0",
                "leaf": "subtitle",
                "type": "Leaf"
            },
            {
                "data": "-2:48404:0",
                "leaf": "subtitle",
                "type": "Leaf"
            },
            {
                "data": "-2:56215:0",
                "leaf": "subtitle",
                "type": "Leaf"
            },
            {
                "data": "-2:60517:0",
                "leaf": "subtitle",
                "type": "Leaf"
            },
            {
                "data": "-2:54209:0",
                "leaf": "subtitle",
                "type": "Leaf"
            },
            {
                "data": "-2:55466:0",
                "leaf": "subtitle",
                "type": "Leaf"
            },
            {
                "data": "-2:50134:0",
                "leaf": "subtitle",
                "type": "Leaf"
            },
            {
                "data": "-2:55956:0",
                "leaf": "subtitle",
                "type": "Leaf"
            },
            {
                "data": "-2:55887:0",
                "leaf": "subtitle",
                "type": "Leaf"
            },
            {
                "data": "-2:55762:0",
                "leaf": "subtitle",
                "type": "Leaf"
            },
            {
                "data": "-2:52071:0",
                "leaf": "subtitle",
                "type": "Leaf"
            },
            {
                "data": "-2:59952:0",
                "leaf": "subtitle",
                "type": "Leaf"
            },
            {
                "data": "-2:60460:0",
                "leaf": "subtitle",
                "type": "Leaf"
            },
            {
                "data": "-2:54137:0",
                "leaf": "subtitle",
                "type": "Leaf"
            },
            {
                "data": "-2:55687:0",
                "leaf": "subtitle",
                "type": "Leaf"
            },
            {
                "data": "-2:60129:0",
                "leaf": "subtitle",
                "type": "Leaf"
            },
            {
                "data": "-2:53825:0",
                "leaf": "subtitle",
                "type": "Leaf"
            },
            {
                "data": "-2:54524:0",
                "leaf": "subtitle",
                "type": "Leaf"
            },
            {
                "data": "-2:60749:0",
                "leaf": "subtitle",
                "type": "Leaf"
            },
            {
                "data": "-2:54392:0",
                "leaf": "subtitle",
                "type": "Leaf"
            },
            {
                "data": "-2:54310:0",
                "leaf": "subtitle",
                "type": "Leaf"
            },
            {
                "data": "-2:60608:0",
                "leaf": "subtitle",
                "type": "Leaf"
            },
            {
                "data": "-2:60394:0",
                "leaf": "subtitle",
                "type": "Leaf"
            },
            {
                "data": "-2:54069:0",
                "leaf": "subtitle",
                "type": "Leaf"
            },
            {
                "data": "-2:56142:0",
                "leaf": "subtitle",
                "type": "Leaf"
            },
            {
                "data": "-2:50207:0",
                "leaf": "subtitle",
                "type": "Leaf"
            },
            {
                "data": "-2:50021:0",
                "leaf": "subtitle",
                "type": "Leaf"
            },
            {
                "data": "-2:49416:0",
                "leaf": "subtitle",
                "type": "Leaf"
            },
            {
                "data": "-2:48826:0",
                "leaf": "subtitle",
                "type": "Leaf"
            },
            {
                "data": "-2:57974:0",
                "leaf": "subtitle",
                "type": "Leaf"
            }
        ],
        "type": "Normal"
    },
    {
        "children": [
            {
                "data": "-2:62532:0",
                "leaf": "subtitle",
                "type": "Leaf"
            },
            {
                "children": [
                    {
                        "data": "1:61635:-1",
                        "leaf": "clip",
                        "type": "Leaf"
                    },
                    {
                        "data": "2:61647:-1",
                        "leaf": "clip",
                        "type": "Leaf"
                    }
                ],
                "type": "AVSplit"
            }
        ],
        "type": "Normal"
    },
    {
        "children": [
            {
                "data": "-2:44852:0",
                "leaf": "subtitle",
                "type": "Leaf"
            },
            {
                "data": "-2:44905:0",
                "leaf": "subtitle",
                "type": "Leaf"
            },
            {
                "data": "-2:45085:0",
                "leaf": "subtitle",
                "type": "Leaf"
            },
            {
                "data": "-2:44977:0",
                "leaf": "subtitle",
                "type": "Leaf"
            },
            {
                "data": "-2:44759:0",
                "leaf": "subtitle",
                "type": "Leaf"
            },
            {
                "data": "-2:44692:0",
                "leaf": "subtitle",
                "type": "Leaf"
            },
            {
                "data": "-2:41330:0",
                "leaf": "subtitle",
                "type": "Leaf"
            },
            {
                "data": "-2:44627:0",
                "leaf": "subtitle",
                "type": "Leaf"
            },
            {
                "data": "-2:41168:0",
                "leaf": "subtitle",
                "type": "Leaf"
            },
            {
                "data": "-2:41028:0",
                "leaf": "subtitle",
                "type": "Leaf"
            },
            {
                "data": "-2:40917:0",
                "leaf": "subtitle",
                "type": "Leaf"
            },
            {
                "data": "-2:41883:0",
                "leaf": "subtitle",
                "type": "Leaf"
            },
            {
                "data": "-2:41837:0",
                "leaf": "subtitle",
                "type": "Leaf"
            },
            {
                "children": [
                    {
                        "data": "1:40887:-1",
                        "leaf": "clip",
                        "type": "Leaf"
                    },
                    {
                        "data": "2:40899:-1",
                        "leaf": "clip",
                        "type": "Leaf"
                    }
                ],
                "type": "AVSplit"
            },
            {
                "data": "-2:44358:0",
                "leaf": "subtitle",
                "type": "Leaf"
            },
            {
                "data": "-2:45281:0",
                "leaf": "subtitle",
                "type": "Leaf"
            },
            {
                "data": "-2:43108:0",
                "leaf": "subtitle",
                "type": "Leaf"
            },
            {
                "data": "-2:43237:0",
                "leaf": "subtitle",
                "type": "Leaf"
            },
            {
                "data": "-2:43288:0",
                "leaf": "subtitle",
                "type": "Leaf"
            },
            {
                "data": "-2:43795:0",
                "leaf": "subtitle",
                "type": "Leaf"
            },
            {
                "data": "-2:45180:0",
                "leaf": "subtitle",
                "type": "Leaf"
            },
            {
                "data": "-2:44429:0",
                "leaf": "subtitle",
                "type": "Leaf"
            },
            {
                "data": "-2:44506:0",
                "leaf": "subtitle",
                "type": "Leaf"
            },
            {
                "data": "-2:44576:0",
                "leaf": "subtitle",
                "type": "Leaf"
            },
            {
                "data": "-2:44149:0",
                "leaf": "subtitle",
                "type": "Leaf"
            },
            {
                "data": "-2:45222:0",
                "leaf": "subtitle",
                "type": "Leaf"
            }
        ],
        "type": "Normal"
    },
    {
        "children": [
            {
                "data": "-2:40435:0",
                "leaf": "subtitle",
                "type": "Leaf"
            },
            {
                "data": "-2:40157:0",
                "leaf": "subtitle",
                "type": "Leaf"
            },
            {
                "data": "-2:40231:0",
                "leaf": "subtitle",
                "type": "Leaf"
            },
            {
                "data": "-2:40322:0",
                "leaf": "subtitle",
                "type": "Leaf"
            },
            {
                "data": "-2:40586:0",
                "leaf": "subtitle",
                "type": "Leaf"
            },
            {
                "data": "-2:40731:0",
                "leaf": "subtitle",
                "type": "Leaf"
            },
            {
                "children": [
                    {
                        "data": "1:40118:-1",
                        "leaf": "clip",
                        "type": "Leaf"
                    },
                    {
                        "data": "2:40118:-1",
                        "leaf": "clip",
                        "type": "Leaf"
                    }
                ],
                "type": "AVSplit"
            }
        ],
        "type": "Normal"
    },
    {
        "children": [
            {
                "data": "-2:11061:0",
                "leaf": "subtitle",
                "type": "Leaf"
            },
            {
                "data": "-2:11134:0",
                "leaf": "subtitle",
                "type": "Leaf"
            },
            {
                "data": "-2:11200:0",
                "leaf": "subtitle",
                "type": "Leaf"
            },
            {
                "data": "-2:11234:0",
                "leaf": "subtitle",
                "type": "Leaf"
            },
            {
                "data": "-2:10945:0",
                "leaf": "subtitle",
                "type": "Leaf"
            },
            {
                "children": [
                    {
                        "data": "1:10701:-1",
                        "leaf": "clip",
                        "type": "Leaf"
                    },
                    {
                        "data": "2:10713:-1",
                        "leaf": "clip",
                        "type": "Leaf"
                    }
                ],
                "type": "AVSplit"
            }
        ],
        "type": "Normal"
    },
    {
        "children": [
            {
                "data": "-2:106287:0",
                "leaf": "subtitle",
                "type": "Leaf"
            },
            {
                "children": [
                    {
                        "data": "2:98498:-1",
                        "leaf": "clip",
                        "type": "Leaf"
                    },
                    {
                        "data": "1:98489:-1",
                        "leaf": "clip",
                        "type": "Leaf"
                    }
                ],
                "type": "AVSplit"
            },
            {
                "data": "-2:103380:0",
                "leaf": "subtitle",
                "type": "Leaf"
            },
            {
                "data": "-2:108143:0",
                "leaf": "subtitle",
                "type": "Leaf"
            },
            {
                "data": "-2:101069:0",
                "leaf": "subtitle",
                "type": "Leaf"
            },
            {
                "data": "-2:101507:0",
                "leaf": "subtitle",
                "type": "Leaf"
            },
            {
                "data": "-2:102309:0",
                "leaf": "subtitle",
                "type": "Leaf"
            },
            {
                "data": "-2:102861:0",
                "leaf": "subtitle",
                "type": "Leaf"
            },
            {
                "data": "-2:101758:0",
                "leaf": "subtitle",
                "type": "Leaf"
            },
            {
                "data": "-2:101854:0",
                "leaf": "subtitle",
                "type": "Leaf"
            },
            {
                "data": "-2:101992:0",
                "leaf": "subtitle",
                "type": "Leaf"
            },
            {
                "data": "-2:106251:0",
                "leaf": "subtitle",
                "type": "Leaf"
            },
            {
                "data": "-2:100195:0",
                "leaf": "subtitle",
                "type": "Leaf"
            },
            {
                "data": "-2:101400:0",
                "leaf": "subtitle",
                "type": "Leaf"
            },
            {
                "data": "-2:105288:0",
                "leaf": "subtitle",
                "type": "Leaf"
            },
            {
                "data": "-2:105988:0",
                "leaf": "subtitle",
                "type": "Leaf"
            },
            {
                "data": "-2:99531:0",
                "leaf": "subtitle",
                "type": "Leaf"
            },
            {
                "data": "-2:101922:0",
                "leaf": "subtitle",
                "type": "Leaf"
            },
            {
                "data": "-2:105429:0",
                "leaf": "subtitle",
                "type": "Leaf"
            },
            {
                "data": "-2:98500:0",
                "leaf": "subtitle",
                "type": "Leaf"
            },
            {
                "data": "-2:105181:0",
                "leaf": "subtitle",
                "type": "Leaf"
            },
            {
                "data": "-2:99953:0",
                "leaf": "subtitle",
                "type": "Leaf"
            },
            {
                "data": "-2:106039:0",
                "leaf": "subtitle",
                "type": "Leaf"
            },
            {
                "data": "-2:100315:0",
                "leaf": "subtitle",
                "type": "Leaf"
            },
            {
                "data": "-2:103105:0",
                "leaf": "subtitle",
                "type": "Leaf"
            },
            {
                "data": "-2:104818:0",
                "leaf": "subtitle",
                "type": "Leaf"
            },
            {
                "data": "-2:105106:0",
                "leaf": "subtitle",
                "type": "Leaf"
            },
            {
                "data": "-2:99393:0",
                "leaf": "subtitle",
                "type": "Leaf"
            },
            {
                "data": "-2:105909:0",
                "leaf": "subtitle",
                "type": "Leaf"
            },
            {
                "data": "-2:106410:0",
                "leaf": "subtitle",
                "type": "Leaf"
            },
            {
                "data": "-2:100991:0",
                "leaf": "subtitle",
                "type": "Leaf"
            },
            {
                "data": "-2:103143:0",
                "leaf": "subtitle",
                "type": "Leaf"
            },
            {
                "data": "-2:106155:0",
                "leaf": "subtitle",
                "type": "Leaf"
            },
            {
                "data": "-2:100077:0",
                "leaf": "subtitle",
                "type": "Leaf"
            },
            {
                "data": "-2:101234:0",
                "leaf": "subtitle",
                "type": "Leaf"
            },
            {
                "data": "-2:103293:0",
                "leaf": "subtitle",
                "type": "Leaf"
            },
            {
                "data": "-2:103204:0",
                "leaf": "subtitle",
                "type": "Leaf"
            },
            {
                "data": "-2:101354:0",
                "leaf": "subtitle",
                "type": "Leaf"
            },
            {
                "data": "-2:105486:0",
                "leaf": "subtitle",
                "type": "Leaf"
            },
            {
                "data": "-2:99354:0",
                "leaf": "subtitle",
                "type": "Leaf"
            }
        ],
        "type": "Normal"
    },
    {
        "children": [
            {
                "children": [
                    {
                        "data": "1:108611:-1",
                        "leaf": "clip",
                        "type": "Leaf"
                    },
                    {
                        "data": "2:108623:-1",
                        "leaf": "clip",
                        "type": "Leaf"
                    }
                ],
                "type": "AVSplit"
            },
            {
                "data": "-2:129283:0",
                "leaf": "subtitle",
                "type": "Leaf"
            },
            {
                "data": "-2:110662:0",
                "leaf": "subtitle",
                "type": "Leaf"
            },
            {
                "data": "-2:118825:0",
                "leaf": "subtitle",
                "type": "Leaf"
            },
            {
                "data": "-2:110731:0",
                "leaf": "subtitle",
                "type": "Leaf"
            },
            {
                "data": "-2:128414:0",
                "leaf": "subtitle",
                "type": "Leaf"
            },
            {
                "data": "-2:117813:0",
                "leaf": "subtitle",
                "type": "Leaf"
            },
            {
                "data": "-2:109371:0",
                "leaf": "subtitle",
                "type": "Leaf"
            },
            {
                "data": "-2:115255:0",
                "leaf": "subtitle",
                "type": "Leaf"
            },
            {
                "data": "-2:116592:0",
                "leaf": "subtitle",
                "type": "Leaf"
            },
            {
                "data": "-2:110462:0",
                "leaf": "subtitle",
                "type": "Leaf"
            },
            {
                "data": "-2:128549:0",
                "leaf": "subtitle",
                "type": "Leaf"
            },
            {
                "data": "-2:109509:0",
                "leaf": "subtitle",
                "type": "Leaf"
            },
            {
                "data": "-2:115574:0",
                "leaf": "subtitle",
                "type": "Leaf"
            },
            {
                "data": "-2:116960:0",
                "leaf": "subtitle",
                "type": "Leaf"
            },
            {
                "data": "-2:110564:0",
                "leaf": "subtitle",
                "type": "Leaf"
            },
            {
                "data": "-2:117880:0",
                "leaf": "subtitle",
                "type": "Leaf"
            },
            {
                "data": "-2:109577:0",
                "leaf": "subtitle",
                "type": "Leaf"
            },
            {
                "data": "-2:116205:0",
                "leaf": "subtitle",
                "type": "Leaf"
            },
            {
                "data": "-2:118669:0",
                "leaf": "subtitle",
                "type": "Leaf"
            },
            {
                "data": "-2:109990:0",
                "leaf": "subtitle",
                "type": "Leaf"
            },
            {
                "data": "-2:116290:0",
                "leaf": "subtitle",
                "type": "Leaf"
            },
            {
                "data": "-2:110215:0",
                "leaf": "subtitle",
                "type": "Leaf"
            },
            {
                "data": "-2:116358:0",
                "leaf": "subtitle",
                "type": "Leaf"
            },
            {
                "data": "-2:110366:0",
                "leaf": "subtitle",
                "type": "Leaf"
            },
            {
                "data": "-2:116424:0",
                "leaf": "subtitle",
                "type": "Leaf"
            },
            {
                "data": "-2:123196:0",
                "leaf": "subtitle",
                "type": "Leaf"
            },
            {
                "data": "-2:132511:0",
                "leaf": "subtitle",
                "type": "Leaf"
            },
            {
                "data": "-2:126967:0",
                "leaf": "subtitle",
                "type": "Leaf"
            },
            {
                "data": "-2:132417:0",
                "leaf": "subtitle",
                "type": "Leaf"
            },
            {
                "data": "-2:126794:0",
                "leaf": "subtitle",
                "type": "Leaf"
            },
            {
                "data": "-2:132234:0",
                "leaf": "subtitle",
                "type": "Leaf"
            },
            {
                "data": "-2:126718:0",
                "leaf": "subtitle",
                "type": "Leaf"
            },
            {
                "data": "-2:132117:0",
                "leaf": "subtitle",
                "type": "Leaf"
            },
            {
                "data": "-2:126673:0",
                "leaf": "subtitle",
                "type": "Leaf"
            },
            {
                "data": "-2:132052:0",
                "leaf": "subtitle",
                "type": "Leaf"
            },
            {
                "data": "-2:126546:0",
                "leaf": "subtitle",
                "type": "Leaf"
            },
            {
                "data": "-2:131986:0",
                "leaf": "subtitle",
                "type": "Leaf"
            },
            {
                "data": "-2:126473:0",
                "leaf": "subtitle",
                "type": "Leaf"
            },
            {
                "data": "-2:131058:0",
                "leaf": "subtitle",
                "type": "Leaf"
            },
            {
                "data": "-2:126347:0",
                "leaf": "subtitle",
                "type": "Leaf"
            },
            {
                "data": "-2:125535:0",
                "leaf": "subtitle",
                "type": "Leaf"
            },
            {
                "data": "-2:131023:0",
                "leaf": "subtitle",
                "type": "Leaf"
            },
            {
                "data": "-2:124730:0",
                "leaf": "subtitle",
                "type": "Leaf"
            },
            {
                "data": "-2:125632:0",
                "leaf": "subtitle",
                "type": "Leaf"
            },
            {
                "data": "-2:124871:0",
                "leaf": "subtitle",
                "type": "Leaf"
            },
            {
                "data": "-2:125172:0",
                "leaf": "subtitle",
                "type": "Leaf"
            },
            {
                "data": "-2:125864:0",
                "leaf": "subtitle",
                "type": "Leaf"
            },
            {
                "data": "-2:130502:0",
                "leaf": "subtitle",
                "type": "Leaf"
            },
            {
                "data": "-2:125250:0",
                "leaf": "subtitle",
                "type": "Leaf"
            },
            {
                "data": "-2:126055:0",
                "leaf": "subtitle",
                "type": "Leaf"
            },
            {
                "data": "-2:126207:0",
                "leaf": "subtitle",
                "type": "Leaf"
            },
            {
                "data": "-2:124993:0",
                "leaf": "subtitle",
                "type": "Leaf"
            },
            {
                "data": "-2:130328:0",
                "leaf": "subtitle",
                "type": "Leaf"
            },
            {
                "data": "-2:125043:0",
                "leaf": "subtitle",
                "type": "Leaf"
            },
            {
                "data": "-2:125316:0",
                "leaf": "subtitle",
                "type": "Leaf"
            },
            {
                "data": "-2:125707:0",
                "leaf": "subtitle",
                "type": "Leaf"
            },
            {
                "data": "-2:124937:0",
                "leaf": "subtitle",
                "type": "Leaf"
            },
            {
                "data": "-2:123109:0",
                "leaf": "subtitle",
                "type": "Leaf"
            },
            {
                "data": "-2:123527:0",
                "leaf": "subtitle",
                "type": "Leaf"
            },
            {
                "data": "-2:127230:0",
                "leaf": "subtitle",
                "type": "Leaf"
            },
            {
                "data": "-2:123639:0",
                "leaf": "subtitle",
                "type": "Leaf"
            },
            {
                "data": "-2:127366:0",
                "leaf": "subtitle",
                "type": "Leaf"
            },
            {
                "data": "-2:123694:0",
                "leaf": "subtitle",
                "type": "Leaf"
            },
            {
                "data": "-2:123757:0",
                "leaf": "subtitle",
                "type": "Leaf"
            },
            {
                "data": "-2:124535:0",
                "leaf": "subtitle",
                "type": "Leaf"
            },
            {
                "data": "-2:124613:0",
                "leaf": "subtitle",
                "type": "Leaf"
            },
            {
                "data": "-2:112687:0",
                "leaf": "subtitle",
                "type": "Leaf"
            },
            {
                "data": "-2:114900:0",
                "leaf": "subtitle",
                "type": "Leaf"
            },
            {
                "data": "-2:114340:0",
                "leaf": "subtitle",
                "type": "Leaf"
            },
            {
                "data": "-2:113474:0",
                "leaf": "subtitle",
                "type": "Leaf"
            },
            {
                "data": "-2:113395:0",
                "leaf": "subtitle",
                "type": "Leaf"
            },
            {
                "data": "-2:113319:0",
                "leaf": "subtitle",
                "type": "Leaf"
            },
            {
                "data": "-2:108830:0",
                "leaf": "subtitle",
                "type": "Leaf"
            },
            {
                "data": "-2:112994:0",
                "leaf": "subtitle",
                "type": "Leaf"
            },
            {
                "data": "-2:108751:0",
                "leaf": "subtitle",
                "type": "Leaf"
            },
            {
                "data": "-2:112333:0",
                "leaf": "subtitle",
                "type": "Leaf"
            },
            {
                "data": "-2:130962:0",
                "leaf": "subtitle",
                "type": "Leaf"
            },
            {
                "data": "-2:130192:0",
                "leaf": "subtitle",
                "type": "Leaf"
            },
            {
                "data": "-2:130127:0",
                "leaf": "subtitle",
                "type": "Leaf"
            },
            {
                "data": "-2:128765:0",
                "leaf": "subtitle",
                "type": "Leaf"
            },
            {
                "data": "-2:128645:0",
                "leaf": "subtitle",
                "type": "Leaf"
            },
            {
                "data": "-2:109227:0",
                "leaf": "subtitle",
                "type": "Leaf"
            },
            {
                "data": "-2:109102:0",
                "leaf": "subtitle",
                "type": "Leaf"
            },
            {
                "data": "-2:109012:0",
                "leaf": "subtitle",
                "type": "Leaf"
            },
            {
                "data": "-2:108900:0",
                "leaf": "subtitle",
                "type": "Leaf"
            },
            {
                "data": "-2:119435:0",
                "leaf": "subtitle",
                "type": "Leaf"
            },
            {
                "data": "-2:119335:0",
                "leaf": "subtitle",
                "type": "Leaf"
            },
            {
                "data": "-2:109324:0",
                "leaf": "subtitle",
                "type": "Leaf"
            },
            {
                "data": "-2:115116:0",
                "leaf": "subtitle",
                "type": "Leaf"
            },
            {
                "data": "-2:117052:0",
                "leaf": "subtitle",
                "type": "Leaf"
            },
            {
                "data": "-2:127950:0",
                "leaf": "subtitle",
                "type": "Leaf"
            },
            {
                "data": "-2:127479:0",
                "leaf": "subtitle",
                "type": "Leaf"
            },
            {
                "data": "-2:127834:0",
                "leaf": "subtitle",
                "type": "Leaf"
            },
            {
                "data": "-2:119131:0",
                "leaf": "subtitle",
                "type": "Leaf"
            },
            {
                "data": "-2:127582:0",
                "leaf": "subtitle",
                "type": "Leaf"
            },
            {
                "data": "-2:129933:0",
                "leaf": "subtitle",
                "type": "Leaf"
            },
            {
                "data": "-2:128877:0",
                "leaf": "subtitle",
                "type": "Leaf"
            },
            {
                "data": "-2:128996:0",
                "leaf": "subtitle",
                "type": "Leaf"
            },
            {
                "data": "-2:123267:0",
                "leaf": "subtitle",
                "type": "Leaf"
            },
            {
                "data": "-2:122982:0",
                "leaf": "subtitle",
                "type": "Leaf"
            },
            {
                "data": "-2:122478:0",
                "leaf": "subtitle",
                "type": "Leaf"
            },
            {
                "data": "-2:120062:0",
                "leaf": "subtitle",
                "type": "Leaf"
            },
            {
                "data": "-2:112186:0",
                "leaf": "subtitle",
                "type": "Leaf"
            },
            {
                "data": "-2:119968:0",
                "leaf": "subtitle",
                "type": "Leaf"
            },
            {
                "data": "-2:112034:0",
                "leaf": "subtitle",
                "type": "Leaf"
            },
            {
                "data": "-2:119890:0",
                "leaf": "subtitle",
                "type": "Leaf"
            },
            {
                "data": "-2:112883:0",
                "leaf": "subtitle",
                "type": "Leaf"
            },
            {
                "data": "-2:111868:0",
                "leaf": "subtitle",
                "type": "Leaf"
            },
            {
                "data": "-2:119793:0",
                "leaf": "subtitle",
                "type": "Leaf"
            },
            {
                "data": "-2:121040:0",
                "leaf": "subtitle",
                "type": "Leaf"
            },
            {
                "data": "-2:119502:0",
                "leaf": "subtitle",
                "type": "Leaf"
            },
            {
                "data": "-2:119552:0",
                "leaf": "subtitle",
                "type": "Leaf"
            },
            {
                "data": "-2:112511:0",
                "leaf": "subtitle",
                "type": "Leaf"
            },
            {
                "data": "-2:121238:0",
                "leaf": "subtitle",
                "type": "Leaf"
            },
            {
                "data": "-2:121556:0",
                "leaf": "subtitle",
                "type": "Leaf"
            },
            {
                "data": "-2:122123:0",
                "leaf": "subtitle",
                "type": "Leaf"
            },
            {
                "data": "-2:122225:0",
                "leaf": "subtitle",
                "type": "Leaf"
            },
            {
                "data": "-2:111107:0",
                "leaf": "subtitle",
                "type": "Leaf"
            },
            {
                "data": "-2:111626:0",
                "leaf": "subtitle",
                "type": "Leaf"
            },
            {
                "data": "-2:111740:0",
                "leaf": "subtitle",
                "type": "Leaf"
            },
            {
                "data": "-2:122381:0",
                "leaf": "subtitle",
                "type": "Leaf"
            }
        ],
        "type": "Normal"
    },
    {
        "children": [
            {
                "data": "-2:96341:0",
                "leaf": "subtitle",
                "type": "Leaf"
            },
            {
                "data": "-2:96661:0",
                "leaf": "subtitle",
                "type": "Leaf"
            },
            {
                "data": "-2:93880:0",
                "leaf": "subtitle",
                "type": "Leaf"
            },
            {
                "data": "-2:97927:0",
                "leaf": "subtitle",
                "type": "Leaf"
            },
            {
                "data": "-2:89460:0",
                "leaf": "subtitle",
                "type": "Leaf"
            },
            {
                "data": "-2:94970:0",
                "leaf": "subtitle",
                "type": "Leaf"
            },
            {
                "data": "-2:97606:0",
                "leaf": "subtitle",
                "type": "Leaf"
            },
            {
                "data": "-2:92506:0",
                "leaf": "subtitle",
                "type": "Leaf"
            },
            {
                "data": "-2:85760:0",
                "leaf": "subtitle",
                "type": "Leaf"
            },
            {
                "data": "-2:98233:0",
                "leaf": "subtitle",
                "type": "Leaf"
            },
            {
                "data": "-2:96717:0",
                "leaf": "subtitle",
                "type": "Leaf"
            },
            {
                "data": "-2:88889:0",
                "leaf": "subtitle",
                "type": "Leaf"
            },
            {
                "data": "-2:95489:0",
                "leaf": "subtitle",
                "type": "Leaf"
            },
            {
                "data": "-2:98011:0",
                "leaf": "subtitle",
                "type": "Leaf"
            },
            {
                "data": "-2:85643:0",
                "leaf": "subtitle",
                "type": "Leaf"
            },
            {
                "data": "-2:86248:0",
                "leaf": "subtitle",
                "type": "Leaf"
            },
            {
                "data": "-2:98279:0",
                "leaf": "subtitle",
                "type": "Leaf"
            },
            {
                "data": "-2:98350:0",
                "leaf": "subtitle",
                "type": "Leaf"
            },
            {
                "data": "-2:86366:0",
                "leaf": "subtitle",
                "type": "Leaf"
            },
            {
                "data": "-2:96817:0",
                "leaf": "subtitle",
                "type": "Leaf"
            },
            {
                "data": "-2:92962:0",
                "leaf": "subtitle",
                "type": "Leaf"
            },
            {
                "data": "-2:97438:0",
                "leaf": "subtitle",
                "type": "Leaf"
            },
            {
                "data": "-2:93258:0",
                "leaf": "subtitle",
                "type": "Leaf"
            },
            {
                "data": "-2:95702:0",
                "leaf": "subtitle",
                "type": "Leaf"
            },
            {
                "data": "-2:89240:0",
                "leaf": "subtitle",
                "type": "Leaf"
            },
            {
                "data": "-2:93734:0",
                "leaf": "subtitle",
                "type": "Leaf"
            },
            {
                "data": "-2:97839:0",
                "leaf": "subtitle",
                "type": "Leaf"
            },
            {
                "data": "-2:94749:0",
                "leaf": "subtitle",
                "type": "Leaf"
            },
            {
                "data": "-2:88719:0",
                "leaf": "subtitle",
                "type": "Leaf"
            },
            {
                "data": "-2:96486:0",
                "leaf": "subtitle",
                "type": "Leaf"
            },
            {
                "data": "-2:89663:0",
                "leaf": "subtitle",
                "type": "Leaf"
            },
            {
                "data": "-2:96181:0",
                "leaf": "subtitle",
                "type": "Leaf"
            },
            {
                "data": "-2:93689:0",
                "leaf": "subtitle",
                "type": "Leaf"
            },
            {
                "data": "-2:97742:0",
                "leaf": "subtitle",
                "type": "Leaf"
            },
            {
                "data": "-2:95995:0",
                "leaf": "subtitle",
                "type": "Leaf"
            },
            {
                "data": "-2:93477:0",
                "leaf": "subtitle",
                "type": "Leaf"
            },
            {
                "data": "-2:87428:0",
                "leaf": "subtitle",
                "type": "Leaf"
            },
            {
                "data": "-2:89343:0",
                "leaf": "subtitle",
                "type": "Leaf"
            },
            {
                "data": "-2:95866:0",
                "leaf": "subtitle",
                "type": "Leaf"
            },
            {
                "data": "-2:92781:0",
                "leaf": "subtitle",
                "type": "Leaf"
            },
            {
                "children": [
                    {
                        "data": "1:85175:-1",
                        "leaf": "clip",
                        "type": "Leaf"
                    },
                    {
                        "data": "2:85257:-1",
                        "leaf": "clip",
                        "type": "Leaf"
                    }
                ],
                "type": "AVSplit"
            },
            {
                "data": "-2:93178:0",
                "leaf": "subtitle",
                "type": "Leaf"
            },
            {
                "data": "-2:95344:0",
                "leaf": "subtitle",
                "type": "Leaf"
            },
            {
                "data": "-2:92855:0",
                "leaf": "subtitle",
                "type": "Leaf"
            },
            {
                "data": "-2:89013:0",
                "leaf": "subtitle",
                "type": "Leaf"
            },
            {
                "data": "-2:95546:0",
                "leaf": "subtitle",
                "type": "Leaf"
            },
            {
                "data": "-2:97381:0",
                "leaf": "subtitle",
                "type": "Leaf"
            },
            {
                "data": "-2:92340:0",
                "leaf": "subtitle",
                "type": "Leaf"
            },
            {
                "data": "-2:96432:0",
                "leaf": "subtitle",
                "type": "Leaf"
            },
            {
                "data": "-2:97196:0",
                "leaf": "subtitle",
                "type": "Leaf"
            },
            {
                "data": "-2:93065:0",
                "leaf": "subtitle",
                "type": "Leaf"
            },
            {
                "data": "-2:95403:0",
                "leaf": "subtitle",
                "type": "Leaf"
            },
            {
                "data": "-2:88803:0",
                "leaf": "subtitle",
                "type": "Leaf"
            },
            {
                "data": "-2:94073:0",
                "leaf": "subtitle",
                "type": "Leaf"
            },
            {
                "data": "-2:92618:0",
                "leaf": "subtitle",
                "type": "Leaf"
            },
            {
                "data": "-2:93960:0",
                "leaf": "subtitle",
                "type": "Leaf"
            },
            {
                "data": "-2:85695:0",
                "leaf": "subtitle",
                "type": "Leaf"
            },
            {
                "data": "-2:98152:0",
                "leaf": "subtitle",
                "type": "Leaf"
            },
            {
                "data": "-2:94031:0",
                "leaf": "subtitle",
                "type": "Leaf"
            },
            {
                "data": "-2:97511:0",
                "leaf": "subtitle",
                "type": "Leaf"
            },
            {
                "data": "-2:93427:0",
                "leaf": "subtitle",
                "type": "Leaf"
            },
            {
                "data": "-2:95129:0",
                "leaf": "subtitle",
                "type": "Leaf"
            },
            {
                "data": "-2:87104:0",
                "leaf": "subtitle",
                "type": "Leaf"
            },
            {
                "data": "-2:93120:0",
                "leaf": "subtitle",
                "type": "Leaf"
            },
            {
                "data": "-2:97292:0",
                "leaf": "subtitle",
                "type": "Leaf"
            }
        ],
        "type": "Normal"
    },
    {
        "children": [
            {
                "data": "-2:98478:0",
                "leaf": "subtitle",
                "type": "Leaf"
            },
            {
                "children": [
                    {
                        "data": "1:98454:-1",
                        "leaf": "clip",
                        "type": "Leaf"
                    },
                    {
                        "data": "2:98473:-1",
                        "leaf": "clip",
                        "type": "Leaf"
                    }
                ],
                "type": "AVSplit"
            }
        ],
        "type": "Normal"
    },
    {
        "children": [
            {
                "children": [
                    {
                        "data": "2:78518:-1",
                        "leaf": "clip",
                        "type": "Leaf"
                    },
                    {
                        "data": "1:78518:-1",
                        "leaf": "clip",
                        "type": "Leaf"
                    }
                ],
                "type": "AVSplit"
            },
            {
                "data": "-2:80271:0",
                "leaf": "subtitle",
                "type": "Leaf"
            },
            {
                "children": [
                    {
                        "data": "2:84032:-1",
                        "leaf": "clip",
                        "type": "Leaf"
                    },
                    {
                        "data": "1:84027:-1",
                        "leaf": "clip",
                        "type": "Leaf"
                    }
                ],
                "type": "AVSplit"
            },
            {
                "data": "-2:79785:0",
                "leaf": "subtitle",
                "type": "Leaf"
            },
            {
                "data": "-2:78977:0",
                "leaf": "subtitle",
                "type": "Leaf"
            },
            {
                "data": "-2:80119:0",
                "leaf": "subtitle",
                "type": "Leaf"
            },
            {
                "data": "-2:83413:0",
                "leaf": "subtitle",
                "type": "Leaf"
            },
            {
                "data": "-2:82943:0",
                "leaf": "subtitle",
                "type": "Leaf"
            },
            {
                "data": "-2:82048:0",
                "leaf": "subtitle",
                "type": "Leaf"
            },
            {
                "data": "-2:78521:0",
                "leaf": "subtitle",
                "type": "Leaf"
            },
            {
                "data": "-2:80526:0",
                "leaf": "subtitle",
                "type": "Leaf"
            },
            {
                "data": "-2:83351:0",
                "leaf": "subtitle",
                "type": "Leaf"
            },
            {
                "data": "-2:83790:0",
                "leaf": "subtitle",
                "type": "Leaf"
            },
            {
                "data": "-2:80964:0",
                "leaf": "subtitle",
                "type": "Leaf"
            },
            {
                "data": "-2:85227:0",
                "leaf": "subtitle",
                "type": "Leaf"
            },
            {
                "data": "-2:79424:0",
                "leaf": "subtitle",
                "type": "Leaf"
            },
            {
                "children": [
                    {
                        "data": "2:79052:-1",
                        "leaf": "clip",
                        "type": "Leaf"
                    },
                    {
                        "data": "1:79040:-1",
                        "leaf": "clip",
                        "type": "Leaf"
                    }
                ],
                "type": "AVSplit"
            },
            {
                "data": "-2:84555:0",
                "leaf": "subtitle",
                "type": "Leaf"
            },
            {
                "data": "-2:81020:0",
                "leaf": "subtitle",
                "type": "Leaf"
            },
            {
                "data": "-2:78763:0",
                "leaf": "subtitle",
                "type": "Leaf"
            },
            {
                "data": "-2:83316:0",
                "leaf": "subtitle",
                "type": "Leaf"
            },
            {
                "data": "-2:78687:0",
                "leaf": "subtitle",
                "type": "Leaf"
            },
            {
                "data": "-2:84937:0",
                "leaf": "subtitle",
                "type": "Leaf"
            },
            {
                "data": "-2:80773:0",
                "leaf": "subtitle",
                "type": "Leaf"
            },
            {
                "data": "-2:80577:0",
                "leaf": "subtitle",
                "type": "Leaf"
            },
            {
                "data": "-2:80844:0",
                "leaf": "subtitle",
                "type": "Leaf"
            },
            {
                "data": "-2:85059:0",
                "leaf": "subtitle",
                "type": "Leaf"
            },
            {
                "data": "-2:83687:0",
                "leaf": "subtitle",
                "type": "Leaf"
            },
            {
                "data": "-2:78881:0",
                "leaf": "subtitle",
                "type": "Leaf"
            },
            {
                "data": "-2:79707:0",
                "leaf": "subtitle",
                "type": "Leaf"
            },
            {
                "data": "-2:83525:0",
                "leaf": "subtitle",
                "type": "Leaf"
            },
            {
                "data": "-2:82219:0",
                "leaf": "subtitle",
                "type": "Leaf"
            },
            {
                "data": "-2:85187:0",
                "leaf": "subtitle",
                "type": "Leaf"
            },
            {
                "children": [
                    {
                        "data": "1:84003:-1",
                        "leaf": "clip",
                        "type": "Leaf"
                    },
                    {
                        "data": "2:84008:-1",
                        "leaf": "clip",
                        "type": "Leaf"
                    }
                ],
                "type": "AVSplit"
            },
            {
                "data": "-2:80216:0",
                "leaf": "subtitle",
                "type": "Leaf"
            },
            {
                "data": "-2:79187:0",
                "leaf": "subtitle",
                "type": "Leaf"
            },
            {
                "data": "-2:83473:0",
                "leaf": "subtitle",
                "type": "Leaf"
            },
            {
                "data": "-2:84827:0",
                "leaf": "subtitle",
                "type": "Leaf"
            },
            {
                "data": "-2:85006:0",
                "leaf": "subtitle",
                "type": "Leaf"
            },
            {
                "data": "-2:83653:0",
                "leaf": "subtitle",
                "type": "Leaf"
            },
            {
                "data": "-2:82133:0",
                "leaf": "subtitle",
                "type": "Leaf"
            },
            {
                "data": "-2:85123:0",
                "leaf": "subtitle",
                "type": "Leaf"
            },
            {
                "data": "-2:78843:0",
                "leaf": "subtitle",
                "type": "Leaf"
            },
            {
                "data": "-2:79535:0",
                "leaf": "subtitle",
                "type": "Leaf"
            },
            {
                "children": [
                    {
                        "data": "1:77053:-1",
                        "leaf": "clip",
                        "type": "Leaf"
                    },
                    {
                        "data": "2:77087:-1",
                        "leaf": "clip",
                        "type": "Leaf"
                    }
                ],
                "type": "AVSplit"
            },
            {
                "data": "-2:84881:0",
                "leaf": "subtitle",
                "type": "Leaf"
            },
            {
                "data": "-2:78611:0",
                "leaf": "subtitle",
                "type": "Leaf"
            },
            {
                "data": "-2:78939:0",
                "leaf": "subtitle",
                "type": "Leaf"
            }
        ],
        "type": "Normal"
    },
    {
        "children": [
            {
                "data": "-2:9781:0",
                "leaf": "subtitle",
                "type": "Leaf"
            },
            {
                "data": "-2:10088:0",
                "leaf": "subtitle",
                "type": "Leaf"
            },
            {
                "data": "-2:10309:0",
                "leaf": "subtitle",
                "type": "Leaf"
            },
            {
                "data": "-2:10495:0",
                "leaf": "subtitle",
                "type": "Leaf"
            },
            {
                "data": "-2:9457:0",
                "leaf": "subtitle",
                "type": "Leaf"
            },
            {
                "data": "-2:9498:0",
                "leaf": "subtitle",
                "type": "Leaf"
            },
            {
                "data": "-2:9574:0",
                "leaf": "subtitle",
                "type": "Leaf"
            },
            {
                "children": [
                    {
                        "data": "1:9441:-1",
                        "leaf": "clip",
                        "type": "Leaf"
                    },
                    {
                        "data": "2:9441:-1",
                        "leaf": "clip",
                        "type": "Leaf"
                    }
                ],
                "type": "AVSplit"
            }
        ],
        "type": "Normal"
    },
    {
        "children": [
            {
                "data": "2:45396:-1",
                "leaf": "clip",
                "type": "Leaf"
            },
            {
                "data": "1:45384:-1",
                "leaf": "clip",
                "type": "Leaf"
            }
        ],
        "type": "AVSplit"
    },
    {
        "children": [
            {
                "data": "1:40818:-1",
                "leaf": "clip",
                "type": "Leaf"
            },
            {
                "data": "2:40818:-1",
                "leaf": "clip",
                "type": "Leaf"
            }
        ],
        "type": "AVSplit"
    },
    {
        "children": [
            {
                "data": "-2:20344:0",
                "leaf": "subtitle",
                "type": "Leaf"
            },
            {
                "data": "-2:23344:0",
                "leaf": "subtitle",
                "type": "Leaf"
            },
            {
                "data": "-2:23307:0",
                "leaf": "subtitle",
                "type": "Leaf"
            },
            {
                "data": "-2:18308:0",
                "leaf": "subtitle",
                "type": "Leaf"
            },
            {
                "data": "-2:24453:0",
                "leaf": "subtitle",
                "type": "Leaf"
            },
            {
                "data": "-2:18441:0",
                "leaf": "subtitle",
                "type": "Leaf"
            },
            {
                "data": "-2:24505:0",
                "leaf": "subtitle",
                "type": "Leaf"
            },
            {
                "data": "-2:23883:0",
                "leaf": "subtitle",
                "type": "Leaf"
            },
            {
                "data": "-2:21031:0",
                "leaf": "subtitle",
                "type": "Leaf"
            },
            {
                "data": "-2:21278:0",
                "leaf": "subtitle",
                "type": "Leaf"
            },
            {
                "data": "-2:24035:0",
                "leaf": "subtitle",
                "type": "Leaf"
            },
            {
                "data": "-2:23803:0",
                "leaf": "subtitle",
                "type": "Leaf"
            },
            {
                "data": "-2:21151:0",
                "leaf": "subtitle",
                "type": "Leaf"
            },
            {
                "data": "-2:23947:0",
                "leaf": "subtitle",
                "type": "Leaf"
            },
            {
                "data": "-2:23764:0",
                "leaf": "subtitle",
                "type": "Leaf"
            },
            {
                "data": "-2:20852:0",
                "leaf": "subtitle",
                "type": "Leaf"
            },
            {
                "data": "-2:23671:0",
                "leaf": "subtitle",
                "type": "Leaf"
            },
            {
                "data": "-2:20773:0",
                "leaf": "subtitle",
                "type": "Leaf"
            },
            {
                "data": "-2:23574:0",
                "leaf": "subtitle",
                "type": "Leaf"
            },
            {
                "data": "-2:23518:0",
                "leaf": "subtitle",
                "type": "Leaf"
            },
            {
                "data": "-2:25915:0",
                "leaf": "subtitle",
                "type": "Leaf"
            },
            {
                "data": "-2:24389:0",
                "leaf": "subtitle",
                "type": "Leaf"
            },
            {
                "data": "-2:18251:0",
                "leaf": "subtitle",
                "type": "Leaf"
            },
            {
                "data": "-2:21792:0",
                "leaf": "subtitle",
                "type": "Leaf"
            },
            {
                "data": "-2:20971:0",
                "leaf": "subtitle",
                "type": "Leaf"
            },
            {
                "children": [
                    {
                        "data": "2:18227:-1",
                        "leaf": "clip",
                        "type": "Leaf"
                    },
                    {
                        "data": "1:18206:-1",
                        "leaf": "clip",
                        "type": "Leaf"
                    }
                ],
                "type": "AVSplit"
            },
            {
                "data": "-2:24179:0",
                "leaf": "subtitle",
                "type": "Leaf"
            },
            {
                "data": "-2:21492:0",
                "leaf": "subtitle",
                "type": "Leaf"
            },
            {
                "data": "-2:20313:0",
                "leaf": "subtitle",
                "type": "Leaf"
            },
            {
                "data": "-2:25635:0",
                "leaf": "subtitle",
                "type": "Leaf"
            },
            {
                "data": "-2:21563:0",
                "leaf": "subtitle",
                "type": "Leaf"
            },
            {
                "data": "-2:24272:0",
                "leaf": "subtitle",
                "type": "Leaf"
            },
            {
                "data": "-2:23114:0",
                "leaf": "subtitle",
                "type": "Leaf"
            },
            {
                "data": "-2:20695:0",
                "leaf": "subtitle",
                "type": "Leaf"
            },
            {
                "data": "-2:26005:0",
                "leaf": "subtitle",
                "type": "Leaf"
            },
            {
                "data": "-2:19439:0",
                "leaf": "subtitle",
                "type": "Leaf"
            },
            {
                "data": "-2:24906:0",
                "leaf": "subtitle",
                "type": "Leaf"
            },
            {
                "data": "-2:21883:0",
                "leaf": "subtitle",
                "type": "Leaf"
            },
            {
                "data": "-2:20653:0",
                "leaf": "subtitle",
                "type": "Leaf"
            },
            {
                "data": "-2:25818:0",
                "leaf": "subtitle",
                "type": "Leaf"
            },
            {
                "data": "-2:20585:0",
                "leaf": "subtitle",
                "type": "Leaf"
            },
            {
                "data": "-2:23465:0",
                "leaf": "subtitle",
                "type": "Leaf"
            },
            {
                "data": "-2:25205:0",
                "leaf": "subtitle",
                "type": "Leaf"
            },
            {
                "data": "-2:19766:0",
                "leaf": "subtitle",
                "type": "Leaf"
            },
            {
                "data": "-2:24329:0",
                "leaf": "subtitle",
                "type": "Leaf"
            },
            {
                "data": "-2:25114:0",
                "leaf": "subtitle",
                "type": "Leaf"
            },
            {
                "data": "-2:19620:0",
                "leaf": "subtitle",
                "type": "Leaf"
            },
            {
                "data": "-2:22637:0",
                "leaf": "subtitle",
                "type": "Leaf"
            },
            {
                "data": "-2:19494:0",
                "leaf": "subtitle",
                "type": "Leaf"
            },
            {
                "data": "-2:25004:0",
                "leaf": "subtitle",
                "type": "Leaf"
            },
            {
                "data": "-2:21683:0",
                "leaf": "subtitle",
                "type": "Leaf"
            },
            {
                "data": "-2:23190:0",
                "leaf": "subtitle",
                "type": "Leaf"
            },
            {
                "data": "-2:23008:0",
                "leaf": "subtitle",
                "type": "Leaf"
            },
            {
                "data": "-2:22072:0",
                "leaf": "subtitle",
                "type": "Leaf"
            },
            {
                "data": "-2:18682:0",
                "leaf": "subtitle",
                "type": "Leaf"
            },
            {
                "data": "-2:24685:0",
                "leaf": "subtitle",
                "type": "Leaf"
            },
            {
                "data": "-2:22127:0",
                "leaf": "subtitle",
                "type": "Leaf"
            },
            {
                "data": "-2:20236:0",
                "leaf": "subtitle",
                "type": "Leaf"
            },
            {
                "data": "-2:25427:0",
                "leaf": "subtitle",
                "type": "Leaf"
            },
            {
                "data": "-2:22265:0",
                "leaf": "subtitle",
                "type": "Leaf"
            },
            {
                "data": "-2:18816:0",
                "leaf": "subtitle",
                "type": "Leaf"
            },
            {
                "data": "-2:24765:0",
                "leaf": "subtitle",
                "type": "Leaf"
            },
            {
                "data": "-2:19892:0",
                "leaf": "subtitle",
                "type": "Leaf"
            },
            {
                "data": "-2:25314:0",
                "leaf": "subtitle",
                "type": "Leaf"
            },
            {
                "data": "-2:25385:0",
                "leaf": "subtitle",
                "type": "Leaf"
            },
            {
                "data": "-2:20047:0",
                "leaf": "subtitle",
                "type": "Leaf"
            },
            {
                "data": "-2:22782:0",
                "leaf": "subtitle",
                "type": "Leaf"
            },
            {
                "data": "-2:22744:0",
                "leaf": "subtitle",
                "type": "Leaf"
            },
            {
                "data": "-2:22556:0",
                "leaf": "subtitle",
                "type": "Leaf"
            },
            {
                "data": "-2:18910:0",
                "leaf": "subtitle",
                "type": "Leaf"
            },
            {
                "data": "-2:24835:0",
                "leaf": "subtitle",
                "type": "Leaf"
            },
            {
                "data": "-2:25721:0",
                "leaf": "subtitle",
                "type": "Leaf"
            },
            {
                "data": "-2:23411:0",
                "leaf": "subtitle",
                "type": "Leaf"
            },
            {
                "data": "-2:21432:0",
                "leaf": "subtitle",
                "type": "Leaf"
            },
            {
                "data": "-2:24138:0",
                "leaf": "subtitle",
                "type": "Leaf"
            },
            {
                "data": "-2:20488:0",
                "leaf": "subtitle",
                "type": "Leaf"
            },
            {
                "data": "-2:25765:0",
                "leaf": "subtitle",
                "type": "Leaf"
            },
            {
                "data": "-2:24606:0",
                "leaf": "subtitle",
                "type": "Leaf"
            },
            {
                "data": "-2:18560:0",
                "leaf": "subtitle",
                "type": "Leaf"
            },
            {
                "data": "-2:21977:0",
                "leaf": "subtitle",
                "type": "Leaf"
            }
        ],
        "type": "Normal"
    },
    {
        "children": [
            {
                "data": "-2:26792:0",
                "leaf": "subtitle",
                "type": "Leaf"
            },
            {
                "children": [
                    {
                        "data": "1:26491:-1",
                        "leaf": "clip",
                        "type": "Leaf"
                    },
                    {
                        "data": "2:26510:-1",
                        "leaf": "clip",
                        "type": "Leaf"
                    }
                ],
                "type": "AVSplit"
            },
            {
                "data": "-2:26514:0",
                "leaf": "subtitle",
                "type": "Leaf"
            },
            {
                "data": "-2:26903:0",
                "leaf": "subtitle",
                "type": "Leaf"
            },
            {
                "data": "-2:26665:0",
                "leaf": "subtitle",
                "type": "Leaf"
            },
            {
                "data": "-2:26609:0",
                "leaf": "subtitle",
                "type": "Leaf"
            },
            {
                "data": "-2:27186:0",
                "leaf": "subtitle",
                "type": "Leaf"
            },
            {
                "data": "-2:27269:0",
                "leaf": "subtitle",
                "type": "Leaf"
            },
            {
                "data": "-2:26547:0",
                "leaf": "subtitle",
                "type": "Leaf"
            },
            {
                "data": "-2:27039:0",
                "leaf": "subtitle",
                "type": "Leaf"
            },
            {
                "data": "-2:27480:0",
                "leaf": "subtitle",
                "type": "Leaf"
            },
            {
                "data": "-2:27646:0",
                "leaf": "subtitle",
                "type": "Leaf"
            },
            {
                "data": "-2:27740:0",
                "leaf": "subtitle",
                "type": "Leaf"
            },
            {
                "data": "-2:26974:0",
                "leaf": "subtitle",
                "type": "Leaf"
            }
        ],
        "type": "Normal"
    },
    {
        "children": [
            {
                "data": "2:63105:-1",
                "leaf": "clip",
                "type": "Leaf"
            },
            {
                "data": "1:63093:-1",
                "leaf": "clip",
                "type": "Leaf"
            }
        ],
        "type": "AVSplit"
    },
    {
        "children": [
            {
                "data": "-2:5195:0",
                "leaf": "subtitle",
                "type": "Leaf"
            },
            {
                "data": "-2:9143:0",
                "leaf": "subtitle",
                "type": "Leaf"
            },
            {
                "data": "-2:5073:0",
                "leaf": "subtitle",
                "type": "Leaf"
            },
            {
                "data": "-2:8650:0",
                "leaf": "subtitle",
                "type": "Leaf"
            },
            {
                "data": "-2:4422:0",
                "leaf": "subtitle",
                "type": "Leaf"
            },
            {
                "data": "-2:7835:0",
                "leaf": "subtitle",
                "type": "Leaf"
            },
            {
                "data": "-2:6475:0",
                "leaf": "subtitle",
                "type": "Leaf"
            },
            {
                "data": "-2:6380:0",
                "leaf": "subtitle",
                "type": "Leaf"
            },
            {
                "data": "-2:6303:0",
                "leaf": "subtitle",
                "type": "Leaf"
            },
            {
                "data": "-2:6195:0",
                "leaf": "subtitle",
                "type": "Leaf"
            },
            {
                "data": "-2:6091:0",
                "leaf": "subtitle",
                "type": "Leaf"
            },
            {
                "data": "-2:4159:0",
                "leaf": "subtitle",
                "type": "Leaf"
            },
            {
                "data": "-2:4225:0",
                "leaf": "subtitle",
                "type": "Leaf"
            },
            {
                "data": "-2:5238:0",
                "leaf": "subtitle",
                "type": "Leaf"
            },
            {
                "data": "-2:9188:0",
                "leaf": "subtitle",
                "type": "Leaf"
            },
            {
                "data": "-2:9288:0",
                "leaf": "subtitle",
                "type": "Leaf"
            },
            {
                "data": "-2:5421:0",
                "leaf": "subtitle",
                "type": "Leaf"
            },
            {
                "data": "-2:9256:0",
                "leaf": "subtitle",
                "type": "Leaf"
            },
            {
                "data": "-2:4046:0",
                "leaf": "subtitle",
                "type": "Leaf"
            },
            {
                "data": "-2:8481:0",
                "leaf": "subtitle",
                "type": "Leaf"
            },
            {
                "data": "-2:4904:0",
                "leaf": "subtitle",
                "type": "Leaf"
            },
            {
                "data": "-2:5123:0",
                "leaf": "subtitle",
                "type": "Leaf"
            },
            {
                "data": "-2:9035:0",
                "leaf": "subtitle",
                "type": "Leaf"
            },
            {
                "data": "-2:5008:0",
                "leaf": "subtitle",
                "type": "Leaf"
            },
            {
                "data": "-2:8587:0",
                "leaf": "subtitle",
                "type": "Leaf"
            },
            {
                "data": "-2:8216:0",
                "leaf": "subtitle",
                "type": "Leaf"
            },
            {
                "data": "-2:4821:0",
                "leaf": "subtitle",
                "type": "Leaf"
            },
            {
                "data": "-2:8040:0",
                "leaf": "subtitle",
                "type": "Leaf"
            },
            {
                "data": "-2:4610:0",
                "leaf": "subtitle",
                "type": "Leaf"
            },
            {
                "data": "-2:6019:0",
                "leaf": "subtitle",
                "type": "Leaf"
            },
            {
                "data": "-2:4308:0",
                "leaf": "subtitle",
                "type": "Leaf"
            },
            {
                "data": "-2:7256:0",
                "leaf": "subtitle",
                "type": "Leaf"
            },
            {
                "data": "-2:7069:0",
                "leaf": "subtitle",
                "type": "Leaf"
            },
            {
                "children": [
                    {
                        "data": "1:0:-1",
                        "leaf": "clip",
                        "type": "Leaf"
                    },
                    {
                        "data": "2:0:-1",
                        "leaf": "clip",
                        "type": "Leaf"
                    }
                ],
                "type": "AVSplit"
            },
            {
                "data": "-2:5317:0",
                "leaf": "subtitle",
                "type": "Leaf"
            },
            {
                "data": "-2:8108:0",
                "leaf": "subtitle",
                "type": "Leaf"
            },
            {
                "data": "-2:4673:0",
                "leaf": "subtitle",
                "type": "Leaf"
            },
            {
                "data": "-2:6632:0",
                "leaf": "subtitle",
                "type": "Leaf"
            },
            {
                "data": "-2:6772:0",
                "leaf": "subtitle",
                "type": "Leaf"
            },
            {
                "data": "-2:7930:0",
                "leaf": "subtitle",
                "type": "Leaf"
            },
            {
                "data": "-2:4551:0",
                "leaf": "subtitle",
                "type": "Leaf"
            },
            {
                "data": "-2:5621:0",
                "leaf": "subtitle",
                "type": "Leaf"
            },
            {
                "data": "-2:5956:0",
                "leaf": "subtitle",
                "type": "Leaf"
            },
            {
                "data": "-2:5550:0",
                "leaf": "subtitle",
                "type": "Leaf"
            },
            {
                "data": "-2:9392:0",
                "leaf": "subtitle",
                "type": "Leaf"
            },
            {
                "data": "-2:6980:0",
                "leaf": "subtitle",
                "type": "Leaf"
            },
            {
                "data": "-2:7698:0",
                "leaf": "subtitle",
                "type": "Leaf"
            },
            {
                "data": "-2:4362:0",
                "leaf": "subtitle",
                "type": "Leaf"
            },
            {
                "data": "-2:6867:0",
                "leaf": "subtitle",
                "type": "Leaf"
            }
        ],
        "type": "Normal"
    },
    {
        "children": [
            {
                "data": "1:26371:-1",
                "leaf": "clip",
                "type": "Leaf"
            },
            {
                "data": "2:26388:-1",
                "leaf": "clip",
                "type": "Leaf"
            }
        ],
        "type": "AVSplit"
    },
    {
        "children": [
            {
                "data": "2:27933:-1",
                "leaf": "clip",
                "type": "Leaf"
            },
            {
                "data": "1:27921:-1",
                "leaf": "clip",
                "type": "Leaf"
            }
        ],
        "type": "AVSplit"
    },
    {
        "children": [
            {
                "data": "-2:26205:0",
                "leaf": "subtitle",
                "type": "Leaf"
            },
            {
                "data": "-2:26075:0",
                "leaf": "subtitle",
                "type": "Leaf"
            },
            {
                "data": "-2:26233:0",
                "leaf": "subtitle",
                "type": "Leaf"
            },
            {
                "data": "-2:26322:0",
                "leaf": "subtitle",
                "type": "Leaf"
            },
            {
                "children": [
                    {
                        "data": "1:26036:-1",
                        "leaf": "clip",
                        "type": "Leaf"
                    },
                    {
                        "data": "2:26056:-1",
                        "leaf": "clip",
                        "type": "Leaf"
                    }
                ],
                "type": "AVSplit"
            }
        ],
        "type": "Normal"
    },
    {
        "children": [
            {
                "data": "-2:15156:0",
                "leaf": "subtitle",
                "type": "Leaf"
            },
            {
                "data": "-2:16088:0",
                "leaf": "subtitle",
                "type": "Leaf"
            },
            {
                "data": "-2:16209:0",
                "leaf": "subtitle",
                "type": "Leaf"
            },
            {
                "data": "-2:15021:0",
                "leaf": "subtitle",
                "type": "Leaf"
            },
            {
                "data": "-2:17940:0",
                "leaf": "subtitle",
                "type": "Leaf"
            },
            {
                "data": "-2:15629:0",
                "leaf": "subtitle",
                "type": "Leaf"
            },
            {
                "data": "-2:17242:0",
                "leaf": "subtitle",
                "type": "Leaf"
            },
            {
                "data": "-2:16740:0",
                "leaf": "subtitle",
                "type": "Leaf"
            },
            {
                "data": "-2:16509:0",
                "leaf": "subtitle",
                "type": "Leaf"
            },
            {
                "data": "-2:17726:0",
                "leaf": "subtitle",
                "type": "Leaf"
            },
            {
                "data": "-2:18034:0",
                "leaf": "subtitle",
                "type": "Leaf"
            },
            {
                "data": "-2:16285:0",
                "leaf": "subtitle",
                "type": "Leaf"
            },
            {
                "data": "-2:15225:0",
                "leaf": "subtitle",
                "type": "Leaf"
            },
            {
                "data": "-2:16857:0",
                "leaf": "subtitle",
                "type": "Leaf"
            },
            {
                "children": [
                    {
                        "data": "2:14817:-1",
                        "leaf": "clip",
                        "type": "Leaf"
                    },
                    {
                        "data": "1:14805:-1",
                        "leaf": "clip",
                        "type": "Leaf"
                    }
                ],
                "type": "AVSplit"
            },
            {
                "data": "-2:15360:0",
                "leaf": "subtitle",
                "type": "Leaf"
            },
            {
                "data": "-2:15929:0",
                "leaf": "subtitle",
                "type": "Leaf"
            },
            {
                "data": "-2:15113:0",
                "leaf": "subtitle",
                "type": "Leaf"
            },
            {
                "data": "-2:17814:0",
                "leaf": "subtitle",
                "type": "Leaf"
            },
            {
                "data": "-2:15066:0",
                "leaf": "subtitle",
                "type": "Leaf"
            },
            {
                "data": "-2:17875:0",
                "leaf": "subtitle",
                "type": "Leaf"
            },
            {
                "data": "-2:17131:0",
                "leaf": "subtitle",
                "type": "Leaf"
            },
            {
                "data": "-2:15542:0",
                "leaf": "subtitle",
                "type": "Leaf"
            },
            {
                "data": "-2:17312:0",
                "leaf": "subtitle",
                "type": "Leaf"
            },
            {
                "data": "-2:15697:0",
                "leaf": "subtitle",
                "type": "Leaf"
            },
            {
                "data": "-2:14855:0",
                "leaf": "subtitle",
                "type": "Leaf"
            },
            {
                "data": "-2:18179:0",
                "leaf": "subtitle",
                "type": "Leaf"
            },
            {
                "data": "-2:15782:0",
                "leaf": "subtitle",
                "type": "Leaf"
            },
            {
                "data": "-2:17012:0",
                "leaf": "subtitle",
                "type": "Leaf"
            },
            {
                "data": "-2:15418:0",
                "leaf": "subtitle",
                "type": "Leaf"
            },
            {
                "data": "-2:17067:0",
                "leaf": "subtitle",
                "type": "Leaf"
            }
        ],
        "type": "Normal"
    },
    {
        "children": [
            {
                "data": "-2:74938:0",
                "leaf": "subtitle",
                "type": "Leaf"
            },
            {
                "data": "-2:64678:0",
                "leaf": "subtitle",
                "type": "Leaf"
            },
            {
                "data": "-2:70896:0",
                "leaf": "subtitle",
                "type": "Leaf"
            },
            {
                "data": "-2:74766:0",
                "leaf": "subtitle",
                "type": "Leaf"
            },
            {
                "data": "-2:64319:0",
                "leaf": "subtitle",
                "type": "Leaf"
            },
            {
                "data": "-2:75356:0",
                "leaf": "subtitle",
                "type": "Leaf"
            },
            {
                "data": "-2:65525:0",
                "leaf": "subtitle",
                "type": "Leaf"
            },
            {
                "data": "-2:70841:0",
                "leaf": "subtitle",
                "type": "Leaf"
            },
            {
                "data": "-2:76843:0",
                "leaf": "subtitle",
                "type": "Leaf"
            },
            {
                "data": "-2:66057:0",
                "leaf": "subtitle",
                "type": "Leaf"
            },
            {
                "data": "-2:65976:0",
                "leaf": "subtitle",
                "type": "Leaf"
            },
            {
                "data": "-2:76753:0",
                "leaf": "subtitle",
                "type": "Leaf"
            },
            {
                "data": "-2:74680:0",
                "leaf": "subtitle",
                "type": "Leaf"
            },
            {
                "data": "-2:64225:0",
                "leaf": "subtitle",
                "type": "Leaf"
            },
            {
                "data": "-2:75098:0",
                "leaf": "subtitle",
                "type": "Leaf"
            },
            {
                "data": "-2:64762:0",
                "leaf": "subtitle",
                "type": "Leaf"
            },
            {
                "data": "-2:71235:0",
                "leaf": "subtitle",
                "type": "Leaf"
            },
            {
                "data": "-2:71132:0",
                "leaf": "subtitle",
                "type": "Leaf"
            },
            {
                "data": "-2:76530:0",
                "leaf": "subtitle",
                "type": "Leaf"
            },
            {
                "data": "-2:65784:0",
                "leaf": "subtitle",
                "type": "Leaf"
            },
            {
                "data": "-2:71060:0",
                "leaf": "subtitle",
                "type": "Leaf"
            },
            {
                "data": "-2:67311:0",
                "leaf": "subtitle",
                "type": "Leaf"
            },
            {
                "data": "-2:63946:0",
                "leaf": "subtitle",
                "type": "Leaf"
            },
            {
                "data": "-2:74351:0",
                "leaf": "subtitle",
                "type": "Leaf"
            },
            {
                "data": "-2:64035:0",
                "leaf": "subtitle",
                "type": "Leaf"
            },
            {
                "data": "-2:74525:0",
                "leaf": "subtitle",
                "type": "Leaf"
            },
            {
                "data": "-2:74261:0",
                "leaf": "subtitle",
                "type": "Leaf"
            },
            {
                "data": "-2:63900:0",
                "leaf": "subtitle",
                "type": "Leaf"
            },
            {
                "data": "-2:69878:0",
                "leaf": "subtitle",
                "type": "Leaf"
            },
            {
                "data": "-2:67445:0",
                "leaf": "subtitle",
                "type": "Leaf"
            },
            {
                "data": "-2:67641:0",
                "leaf": "subtitle",
                "type": "Leaf"
            },
            {
                "data": "-2:71822:0",
                "leaf": "subtitle",
                "type": "Leaf"
            },
            {
                "children": [
                    {
                        "data": "2:63127:-1",
                        "leaf": "clip",
                        "type": "Leaf"
                    },
                    {
                        "data": "1:63117:-1",
                        "leaf": "clip",
                        "type": "Leaf"
                    }
                ],
                "type": "AVSplit"
            },
            {
                "data": "-2:64132:0",
                "leaf": "subtitle",
                "type": "Leaf"
            },
            {
                "data": "-2:74631:0",
                "leaf": "subtitle",
                "type": "Leaf"
            },
            {
                "data": "-2:63289:0",
                "leaf": "subtitle",
                "type": "Leaf"
            },
            {
                "data": "-2:72111:0",
                "leaf": "subtitle",
                "type": "Leaf"
            },
            {
                "data": "-2:76985:0",
                "leaf": "subtitle",
                "type": "Leaf"
            },
            {
                "data": "-2:66104:0",
                "leaf": "subtitle",
                "type": "Leaf"
            },
            {
                "data": "-2:67850:0",
                "leaf": "subtitle",
                "type": "Leaf"
            },
            {
                "data": "-2:65570:0",
                "leaf": "subtitle",
                "type": "Leaf"
            },
            {
                "data": "-2:75503:0",
                "leaf": "subtitle",
                "type": "Leaf"
            },
            {
                "data": "-2:73785:0",
                "leaf": "subtitle",
                "type": "Leaf"
            },
            {
                "data": "-2:63656:0",
                "leaf": "subtitle",
                "type": "Leaf"
            },
            {
                "data": "-2:63717:0",
                "leaf": "subtitle",
                "type": "Leaf"
            },
            {
                "data": "-2:73861:0",
                "leaf": "subtitle",
                "type": "Leaf"
            },
            {
                "data": "-2:63339:0",
                "leaf": "subtitle",
                "type": "Leaf"
            },
            {
                "data": "-2:72316:0",
                "leaf": "subtitle",
                "type": "Leaf"
            },
            {
                "data": "-2:75304:0",
                "leaf": "subtitle",
                "type": "Leaf"
            },
            {
                "data": "-2:65440:0",
                "leaf": "subtitle",
                "type": "Leaf"
            },
            {
                "data": "-2:73689:0",
                "leaf": "subtitle",
                "type": "Leaf"
            },
            {
                "data": "-2:63605:0",
                "leaf": "subtitle",
                "type": "Leaf"
            },
            {
                "data": "-2:71870:0",
                "leaf": "subtitle",
                "type": "Leaf"
            },
            {
                "data": "-2:72929:0",
                "leaf": "subtitle",
                "type": "Leaf"
            },
            {
                "data": "-2:63507:0",
                "leaf": "subtitle",
                "type": "Leaf"
            },
            {
                "data": "-2:75810:0",
                "leaf": "subtitle",
                "type": "Leaf"
            },
            {
                "data": "-2:65685:0",
                "leaf": "subtitle",
                "type": "Leaf"
            },
            {
                "data": "-2:72865:0",
                "leaf": "subtitle",
                "type": "Leaf"
            },
            {
                "data": "-2:63426:0",
                "leaf": "subtitle",
                "type": "Leaf"
            },
            {
                "data": "-2:71381:0",
                "leaf": "subtitle",
                "type": "Leaf"
            },
            {
                "data": "-2:68177:0",
                "leaf": "subtitle",
                "type": "Leaf"
            },
            {
                "data": "-2:67200:0",
                "leaf": "subtitle",
                "type": "Leaf"
            },
            {
                "data": "-2:66746:0",
                "leaf": "subtitle",
                "type": "Leaf"
            },
            {
                "data": "-2:74221:0",
                "leaf": "subtitle",
                "type": "Leaf"
            },
            {
                "data": "-2:63850:0",
                "leaf": "subtitle",
                "type": "Leaf"
            },
            {
                "data": "-2:67099:0",
                "leaf": "subtitle",
                "type": "Leaf"
            },
            {
                "data": "-2:66648:0",
                "leaf": "subtitle",
                "type": "Leaf"
            },
            {
                "data": "-2:73987:0",
                "leaf": "subtitle",
                "type": "Leaf"
            },
            {
                "data": "-2:63787:0",
                "leaf": "subtitle",
                "type": "Leaf"
            },
            {
                "data": "-2:66997:0",
                "leaf": "subtitle",
                "type": "Leaf"
            },
            {
                "data": "-2:66807:0",
                "leaf": "subtitle",
                "type": "Leaf"
            },
            {
                "data": "-2:66528:0",
                "leaf": "subtitle",
                "type": "Leaf"
            },
            {
                "data": "-2:68107:0",
                "leaf": "subtitle",
                "type": "Leaf"
            },
            {
                "data": "-2:71960:0",
                "leaf": "subtitle",
                "type": "Leaf"
            },
            {
                "data": "-2:66220:0",
                "leaf": "subtitle",
                "type": "Leaf"
            },
            {
                "data": "-2:63193:0",
                "leaf": "subtitle",
                "type": "Leaf"
            },
            {
                "data": "-2:72050:0",
                "leaf": "subtitle",
                "type": "Leaf"
            },
            {
                "data": "-2:66323:0",
                "leaf": "subtitle",
                "type": "Leaf"
            },
            {
                "data": "-2:68394:0",
                "leaf": "subtitle",
                "type": "Leaf"
            },
            {
                "data": "-2:64826:0",
                "leaf": "subtitle",
                "type": "Leaf"
            },
            {
                "data": "-2:75154:0",
                "leaf": "subtitle",
                "type": "Leaf"
            },
            {
                "data": "-2:65311:0",
                "leaf": "subtitle",
                "type": "Leaf"
            },
            {
                "data": "-2:75262:0",
                "leaf": "subtitle",
                "type": "Leaf"
            },
            {
                "data": "-2:70563:0",
                "leaf": "subtitle",
                "type": "Leaf"
            },
            {
                "data": "-2:68257:0",
                "leaf": "subtitle",
                "type": "Leaf"
            },
            {
                "data": "-2:66377:0",
                "leaf": "subtitle",
                "type": "Leaf"
            },
            {
                "data": "-2:66421:0",
                "leaf": "subtitle",
                "type": "Leaf"
            },
            {
                "data": "-2:65906:0",
                "leaf": "subtitle",
                "type": "Leaf"
            },
            {
                "data": "-2:76659:0",
                "leaf": "subtitle",
                "type": "Leaf"
            }
        ],
        "type": "Normal"
    },
    {
        "children": [
            {
                "data": "-2:40036:0",
                "leaf": "subtitle",
                "type": "Leaf"
            },
            {
                "data": "-2:39016:0",
                "leaf": "subtitle",
                "type": "Leaf"
            },
            {
                "data": "-2:38623:0",
                "leaf": "subtitle",
                "type": "Leaf"
            },
            {
                "data": "-2:38830:0",
                "leaf": "subtitle",
                "type": "Leaf"
            },
            {
                "data": "-2:38734:0",
                "leaf": "subtitle",
                "type": "Leaf"
            },
            {
                "data": "-2:38952:0",
                "leaf": "subtitle",
                "type": "Leaf"
            },
            {
                "data": "-2:40079:0",
                "leaf": "subtitle",
                "type": "Leaf"
            },
            {
                "data": "-2:38453:0",
                "leaf": "subtitle",
                "type": "Leaf"
            },
            {
                "children": [
                    {
                        "data": "1:38161:-1",
                        "leaf": "clip",
                        "type": "Leaf"
                    },
                    {
                        "data": "2:38161:-1",
                        "leaf": "clip",
                        "type": "Leaf"
                    }
                ],
                "type": "AVSplit"
            },
            {
                "data": "-2:39563:0",
                "leaf": "subtitle",
                "type": "Leaf"
            },
            {
                "data": "-2:38202:0",
                "leaf": "subtitle",
                "type": "Leaf"
            },
            {
                "data": "-2:38300:0",
                "leaf": "subtitle",
                "type": "Leaf"
            },
            {
                "data": "-2:39939:0",
                "leaf": "subtitle",
                "type": "Leaf"
            },
            {
                "data": "-2:38350:0",
                "leaf": "subtitle",
                "type": "Leaf"
            },
            {
                "data": "-2:39278:0",
                "leaf": "subtitle",
                "type": "Leaf"
            },
            {
                "data": "-2:39220:0",
                "leaf": "subtitle",
                "type": "Leaf"
            },
            {
                "data": "-2:39047:0",
                "leaf": "subtitle",
                "type": "Leaf"
            },
            {
                "data": "-2:39111:0",
                "leaf": "subtitle",
                "type": "Leaf"
            }
        ],
        "type": "Normal"
    },
    {
        "children": [
            {
                "data": "-2:34556:0",
                "leaf": "subtitle",
                "type": "Leaf"
            },
            {
                "data": "-2:31148:0",
                "leaf": "subtitle",
                "type": "Leaf"
            },
            {
                "data": "-2:32474:0",
                "leaf": "subtitle",
                "type": "Leaf"
            },
            {
                "data": "-2:28688:0",
                "leaf": "subtitle",
                "type": "Leaf"
            },
            {
                "data": "-2:34711:0",
                "leaf": "subtitle",
                "type": "Leaf"
            },
            {
                "data": "-2:32742:0",
                "leaf": "subtitle",
                "type": "Leaf"
            },
            {
                "data": "-2:33292:0",
                "leaf": "subtitle",
                "type": "Leaf"
            },
            {
                "data": "-2:33578:0",
                "leaf": "subtitle",
                "type": "Leaf"
            },
            {
                "data": "-2:29047:0",
                "leaf": "subtitle",
                "type": "Leaf"
            },
            {
                "data": "-2:34975:0",
                "leaf": "subtitle",
                "type": "Leaf"
            },
            {
                "data": "-2:33695:0",
                "leaf": "subtitle",
                "type": "Leaf"
            },
            {
                "data": "-2:30404:0",
                "leaf": "subtitle",
                "type": "Leaf"
            },
            {
                "data": "-2:36384:0",
                "leaf": "subtitle",
                "type": "Leaf"
            },
            {
                "data": "-2:33881:0",
                "leaf": "subtitle",
                "type": "Leaf"
            },
            {
                "data": "-2:34072:0",
                "leaf": "subtitle",
                "type": "Leaf"
            },
            {
                "data": "-2:34319:0",
                "leaf": "subtitle",
                "type": "Leaf"
            },
            {
                "data": "-2:31237:0",
                "leaf": "subtitle",
                "type": "Leaf"
            },
            {
                "data": "-2:34439:0",
                "leaf": "subtitle",
                "type": "Leaf"
            },
            {
                "data": "-2:29293:0",
                "leaf": "subtitle",
                "type": "Leaf"
            },
            {
                "data": "-2:35176:0",
                "leaf": "subtitle",
                "type": "Leaf"
            },
            {
                "data": "-2:29345:0",
                "leaf": "subtitle",
                "type": "Leaf"
            },
            {
                "data": "-2:35242:0",
                "leaf": "subtitle",
                "type": "Leaf"
            },
            {
                "data": "-2:28611:0",
                "leaf": "subtitle",
                "type": "Leaf"
            },
            {
                "data": "-2:34652:0",
                "leaf": "subtitle",
                "type": "Leaf"
            },
            {
                "data": "-2:36101:0",
                "leaf": "subtitle",
                "type": "Leaf"
            },
            {
                "data": "-2:30204:0",
                "leaf": "subtitle",
                "type": "Leaf"
            },
            {
                "data": "-2:29386:0",
                "leaf": "subtitle",
                "type": "Leaf"
            },
            {
                "data": "-2:35287:0",
                "leaf": "subtitle",
                "type": "Leaf"
            },
            {
                "data": "-2:29449:0",
                "leaf": "subtitle",
                "type": "Leaf"
            },
            {
                "data": "-2:35401:0",
                "leaf": "subtitle",
                "type": "Leaf"
            },
            {
                "data": "-2:35498:0",
                "leaf": "subtitle",
                "type": "Leaf"
            },
            {
                "data": "-2:29643:0",
                "leaf": "subtitle",
                "type": "Leaf"
            },
            {
                "data": "-2:35566:0",
                "leaf": "subtitle",
                "type": "Leaf"
            },
            {
                "data": "-2:29793:0",
                "leaf": "subtitle",
                "type": "Leaf"
            },
            {
                "data": "-2:35664:0",
                "leaf": "subtitle",
                "type": "Leaf"
            },
            {
                "data": "-2:32564:0",
                "leaf": "subtitle",
                "type": "Leaf"
            },
            {
                "data": "-2:35927:0",
                "leaf": "subtitle",
                "type": "Leaf"
            },
            {
                "data": "-2:30038:0",
                "leaf": "subtitle",
                "type": "Leaf"
            },
            {
                "data": "-2:30794:0",
                "leaf": "subtitle",
                "type": "Leaf"
            },
            {
                "data": "-2:36626:0",
                "leaf": "subtitle",
                "type": "Leaf"
            },
            {
                "data": "-2:36523:0",
                "leaf": "subtitle",
                "type": "Leaf"
            },
            {
                "data": "-2:30497:0",
                "leaf": "subtitle",
                "type": "Leaf"
            },
            {
                "data": "-2:29522:0",
                "leaf": "subtitle",
                "type": "Leaf"
            },
            {
                "children": [
                    {
                        "data": "1:28020:-1",
                        "leaf": "clip",
                        "type": "Leaf"
                    },
                    {
                        "data": "2:28044:-1",
                        "leaf": "clip",
                        "type": "Leaf"
                    }
                ],
                "type": "AVSplit"
            },
            {
                "data": "-2:35105:0",
                "leaf": "subtitle",
                "type": "Leaf"
            },
            {
                "data": "-2:29158:0",
                "leaf": "subtitle",
                "type": "Leaf"
            },
            {
                "data": "-2:30953:0",
                "leaf": "subtitle",
                "type": "Leaf"
            },
            {
                "data": "-2:34244:0",
                "leaf": "subtitle",
                "type": "Leaf"
            },
            {
                "data": "-2:30904:0",
                "leaf": "subtitle",
                "type": "Leaf"
            },
            {
                "data": "-2:34170:0",
                "leaf": "subtitle",
                "type": "Leaf"
            },
            {
                "data": "-2:35855:0",
                "leaf": "subtitle",
                "type": "Leaf"
            },
            {
                "data": "-2:29957:0",
                "leaf": "subtitle",
                "type": "Leaf"
            },
            {
                "data": "-2:30439:0",
                "leaf": "subtitle",
                "type": "Leaf"
            },
            {
                "data": "-2:36457:0",
                "leaf": "subtitle",
                "type": "Leaf"
            },
            {
                "data": "-2:31000:0",
                "leaf": "subtitle",
                "type": "Leaf"
            },
            {
                "data": "-2:29900:0",
                "leaf": "subtitle",
                "type": "Leaf"
            },
            {
                "data": "-2:35766:0",
                "leaf": "subtitle",
                "type": "Leaf"
            },
            {
                "data": "-2:32031:0",
                "leaf": "subtitle",
                "type": "Leaf"
            },
            {
                "data": "-2:32191:0",
                "leaf": "subtitle",
                "type": "Leaf"
            },
            {
                "data": "-2:32136:0",
                "leaf": "subtitle",
                "type": "Leaf"
            },
            {
                "data": "-2:31753:0",
                "leaf": "subtitle",
                "type": "Leaf"
            },
            {
                "data": "-2:31526:0",
                "leaf": "subtitle",
                "type": "Leaf"
            },
            {
                "data": "-2:28932:0",
                "leaf": "subtitle",
                "type": "Leaf"
            },
            {
                "data": "-2:34906:0",
                "leaf": "subtitle",
                "type": "Leaf"
            },
            {
                "data": "-2:31323:0",
                "leaf": "subtitle",
                "type": "Leaf"
            },
            {
                "data": "-2:31404:0",
                "leaf": "subtitle",
                "type": "Leaf"
            },
            {
                "data": "-2:31684:0",
                "leaf": "subtitle",
                "type": "Leaf"
            },
            {
                "data": "-2:31475:0",
                "leaf": "subtitle",
                "type": "Leaf"
            },
            {
                "data": "-2:28828:0",
                "leaf": "subtitle",
                "type": "Leaf"
            },
            {
                "data": "-2:34823:0",
                "leaf": "subtitle",
                "type": "Leaf"
            },
            {
                "data": "-2:31624:0",
                "leaf": "subtitle",
                "type": "Leaf"
            },
            {
                "data": "-2:34600:0",
                "leaf": "subtitle",
                "type": "Leaf"
            },
            {
                "data": "-2:28476:0",
                "leaf": "subtitle",
                "type": "Leaf"
            },
            {
                "data": "-2:32245:0",
                "leaf": "subtitle",
                "type": "Leaf"
            },
            {
                "data": "-2:31585:0",
                "leaf": "subtitle",
                "type": "Leaf"
            },
            {
                "data": "-2:32289:0",
                "leaf": "subtitle",
                "type": "Leaf"
            },
            {
                "data": "-2:32405:0",
                "leaf": "subtitle",
                "type": "Leaf"
            },
            {
                "data": "-2:32681:0",
                "leaf": "subtitle",
                "type": "Leaf"
            },
            {
                "data": "-2:30275:0",
                "leaf": "subtitle",
                "type": "Leaf"
            },
            {
                "data": "-2:36219:0",
                "leaf": "subtitle",
                "type": "Leaf"
            },
            {
                "data": "-2:31060:0",
                "leaf": "subtitle",
                "type": "Leaf"
            },
            {
                "data": "-2:30314:0",
                "leaf": "subtitle",
                "type": "Leaf"
            },
            {
                "data": "-2:36278:0",
                "leaf": "subtitle",
                "type": "Leaf"
            },
            {
                "data": "-2:35991:0",
                "leaf": "subtitle",
                "type": "Leaf"
            },
            {
                "data": "-2:30110:0",
                "leaf": "subtitle",
                "type": "Leaf"
            }
        ],
        "type": "Normal"
    },
    {
        "children": [
            {
                "data": "-2:12959:0",
                "leaf": "subtitle",
                "type": "Leaf"
            },
            {
                "data": "-2:12997:0",
                "leaf": "subtitle",
                "type": "Leaf"
            },
            {
                "data": "-2:14651:0",
                "leaf": "subtitle",
                "type": "Leaf"
            },
            {
                "data": "-2:11994:0",
                "leaf": "subtitle",
                "type": "Leaf"
            },
            {
                "data": "-2:13432:0",
                "leaf": "subtitle",
                "type": "Leaf"
            },
            {
                "data": "-2:13482:0",
                "leaf": "subtitle",
                "type": "Leaf"
            },
            {
                "data": "-2:12273:0",
                "leaf": "subtitle",
                "type": "Leaf"
            },
            {
                "data": "-2:12210:0",
                "leaf": "subtitle",
                "type": "Leaf"
            },
            {
                "data": "-2:14722:0",
                "leaf": "subtitle",
                "type": "Leaf"
            },
            {
                "data": "-2:13304:0",
                "leaf": "subtitle",
                "type": "Leaf"
            },
            {
                "data": "-2:14322:0",
                "leaf": "subtitle",
                "type": "Leaf"
            },
            {
                "data": "-2:11724:0",
                "leaf": "subtitle",
                "type": "Leaf"
            },
            {
                "data": "-2:13094:0",
                "leaf": "subtitle",
                "type": "Leaf"
            },
            {
                "data": "-2:12879:0",
                "leaf": "subtitle",
                "type": "Leaf"
            },
            {
                "data": "-2:12804:0",
                "leaf": "subtitle",
                "type": "Leaf"
            },
            {
                "data": "-2:12623:0",
                "leaf": "subtitle",
                "type": "Leaf"
            },
            {
                "data": "-2:12533:0",
                "leaf": "subtitle",
                "type": "Leaf"
            },
            {
                "data": "-2:12404:0",
                "leaf": "subtitle",
                "type": "Leaf"
            },
            {
                "data": "-2:13153:0",
                "leaf": "subtitle",
                "type": "Leaf"
            },
            {
                "data": "-2:12053:0",
                "leaf": "subtitle",
                "type": "Leaf"
            },
            {
                "data": "-2:12721:0",
                "leaf": "subtitle",
                "type": "Leaf"
            },
            {
                "data": "-2:13924:0",
                "leaf": "subtitle",
                "type": "Leaf"
            },
            {
                "data": "-2:13377:0",
                "leaf": "subtitle",
                "type": "Leaf"
            },
            {
                "data": "-2:13624:0",
                "leaf": "subtitle",
                "type": "Leaf"
            },
            {
                "children": [
                    {
                        "data": "1:11290:-1",
                        "leaf": "clip",
                        "type": "Leaf"
                    },
                    {
                        "data": "2:11293:-1",
                        "leaf": "clip",
                        "type": "Leaf"
                    }
                ],
                "type": "AVSplit"
            },
            {
                "data": "-2:12676:0",
                "leaf": "subtitle",
                "type": "Leaf"
            },
            {
                "data": "-2:11446:0",
                "leaf": "subtitle",
                "type": "Leaf"
            },
            {
                "data": "-2:13981:0",
                "leaf": "subtitle",
                "type": "Leaf"
            },
            {
                "data": "-2:13255:0",
                "leaf": "subtitle",
                "type": "Leaf"
            },
            {
                "data": "-2:14554:0",
                "leaf": "subtitle",
                "type": "Leaf"
            },
            {
                "data": "-2:11935:0",
                "leaf": "subtitle",
                "type": "Leaf"
            },
            {
                "data": "-2:11837:0",
                "leaf": "subtitle",
                "type": "Leaf"
            },
            {
                "data": "-2:14423:0",
                "leaf": "subtitle",
                "type": "Leaf"
            },
            {
                "data": "-2:14031:0",
                "leaf": "subtitle",
                "type": "Leaf"
            },
            {
                "data": "-2:11561:0",
                "leaf": "subtitle",
                "type": "Leaf"
            },
            {
                "data": "-2:13867:0",
                "leaf": "subtitle",
                "type": "Leaf"
            },
            {
                "data": "-2:14175:0",
                "leaf": "subtitle",
                "type": "Leaf"
            },
            {
                "data": "-2:11660:0",
                "leaf": "subtitle",
                "type": "Leaf"
            }
        ],
        "type": "Normal"
    }
]
</property>
  <property name="kdenlive:sequenceproperties.guides">[
]
</property>
  <track producer="producer0"/>
  <track producer="tractor0"/>
  <track producer="tractor1"/>
  <track producer="tractor2"/>
  <track producer="tractor3"/>
  <transition id="transition28">
   <property name="a_track">0</property>
   <property name="b_track">1</property>
   <property name="mlt_service">mix</property>
   <property name="kdenlive_id">mix</property>
   <property name="internal_added">237</property>
   <property name="always_active">1</property>
   <property name="accepts_blanks">1</property>
   <property name="sum">1</property>
  </transition>
  <transition id="transition29">
   <property name="a_track">0</property>
   <property name="b_track">2</property>
   <property name="mlt_service">mix</property>
   <property name="kdenlive_id">mix</property>
   <property name="internal_added">237</property>
   <property name="always_active">1</property>
   <property name="accepts_blanks">1</property>
   <property name="sum">1</property>
  </transition>
  <transition id="transition30">
   <property name="a_track">0</property>
   <property name="b_track">3</property>
   <property name="compositing">0</property>
   <property name="distort">0</property>
   <property name="rotate_center">0</property>
   <property name="mlt_service">qtblend</property>
   <property name="kdenlive_id">qtblend</property>
   <property name="internal_added">237</property>
   <property name="always_active">1</property>
  </transition>
  <transition id="transition31">
   <property name="a_track">0</property>
   <property name="b_track">4</property>
   <property name="compositing">0</property>
   <property name="distort">0</property>
   <property name="rotate_center">0</property>
   <property name="mlt_service">qtblend</property>
   <property name="kdenlive_id">qtblend</property>
   <property name="internal_added">237</property>
   <property name="always_active">1</property>
  </transition>
  <filter id="filter12">
   <property name="window">75</property>
   <property name="max_gain">20dB</property>
   <property name="mlt_service">volume</property>
   <property name="internal_added">237</property>
   <property name="disable">1</property>
  </filter>
  <filter id="filter13">
   <property name="channel">-1</property>
   <property name="mlt_service">panner</property>
   <property name="internal_added">237</property>
   <property name="start">0.5</property>
   <property name="disable">1</property>
  </filter>
  <filter id="filter14">
   <property name="mlt_service">avfilter.subtitles</property>
   <property name="av.alpha">1</property>
   <property name="internal_added">237</property>
   <property name="av.filename">Congo.kdenlive.ass</property>
  </filter>
 </tractor>
 <chain id="chain4" out="01:48:15.682">
  <property name="length">155740</property>
  <property name="eof">pause</property>
  <property name="resource">N:/Videos/General Movies/Congo (1995)/Congo.1995.1080p.BluRay.x264.AAC5.1-[YTS.MX].mp4</property>
  <property name="mlt_service">avformat</property>
  <property name="meta.media.nb_streams">2</property>
  <property name="meta.media.0.stream.type">video</property>
  <property name="meta.media.0.stream.frame_rate">23.976</property>
  <property name="meta.media.0.stream.sample_aspect_ratio">1</property>
  <property name="meta.media.0.codec.width">1920</property>
  <property name="meta.media.0.codec.height">1072</property>
  <property name="meta.media.0.codec.rotate">0</property>
  <property name="meta.media.0.codec.pix_fmt">yuv420p</property>
  <property name="meta.media.0.codec.sample_aspect_ratio">1</property>
  <property name="meta.media.0.codec.colorspace">709</property>
  <property name="meta.media.0.codec.name">h264</property>
  <property name="meta.media.0.codec.long_name">H.264 / AVC / MPEG-4 AVC / MPEG-4 part 10</property>
  <property name="meta.media.0.codec.bit_rate">2248274</property>
  <property name="meta.attr.0.stream.handler_name.markup">VideoHandler</property>
  <property name="meta.attr.0.stream.vendor_id.markup">[0][0][0][0]</property>
  <property name="meta.media.1.stream.type">audio</property>
  <property name="meta.media.1.codec.sample_fmt">fltp</property>
  <property name="meta.media.1.codec.sample_rate">48000</property>
  <property name="meta.media.1.codec.channels">6</property>
  <property name="meta.media.1.codec.layout">5.1</property>
  <property name="meta.media.1.codec.name">aac</property>
  <property name="meta.media.1.codec.long_name">AAC (Advanced Audio Coding)</property>
  <property name="meta.media.1.codec.bit_rate">384000</property>
  <property name="meta.attr.1.stream.handler_name.markup">SoundHandler</property>
  <property name="meta.attr.1.stream.vendor_id.markup">[0][0][0][0]</property>
  <property name="meta.attr.major_brand.markup">isom</property>
  <property name="meta.attr.minor_version.markup">512</property>
  <property name="meta.attr.compatible_brands.markup">isomiso2avc1mp41</property>
  <property name="meta.attr.encoder.markup">Lavf58.35.100</property>
  <property name="seekable">1</property>
  <property name="meta.media.sample_aspect_num">1</property>
  <property name="meta.media.sample_aspect_den">1</property>
  <property name="audio_index">1</property>
  <property name="video_index">0</property>
  <property name="vstream">0</property>
  <property name="meta.media.frame_rate_num">24000</property>
  <property name="meta.media.frame_rate_den">1001</property>
  <property name="meta.media.colorspace">709</property>
  <property name="meta.media.color_trc">2</property>
  <property name="meta.media.has_b_frames">2</property>
  <property name="meta.media.width">1920</property>
  <property name="meta.media.height">1072</property>
  <property name="meta.media.aspect_ratio">1</property>
  <property name="meta.media.color_range">mpeg</property>
  <property name="astream">0</property>
  <property name="meta.media.top_field_first">0</property>
  <property name="meta.media.progressive">1</property>
  <property name="kdenlive:control_uuid">{db2eedd1-8326-4103-b081-6a667e58b483}</property>
  <property name="kdenlive:id">4</property>
  <property name="kdenlive:clip_type">0</property>
  <property name="kdenlive:file_size">2142594276</property>
  <property name="kdenlive:file_hash">46c4b5e152b03d872d56e70fcd3f602d</property>
  <property name="kdenlive:folderid">-1</property>
 </chain>
 <playlist id="main_bin">
  <property name="kdenlive:folder.-1.2">Sequences</property>
  <property name="kdenlive:sequenceFolder">2</property>
  <property name="kdenlive:docproperties.audioChannels">2</property>
  <property name="kdenlive:docproperties.binsort">0</property>
  <property name="kdenlive:docproperties.browserurl">N:/Videos/Horror and SciFi/The Day After Tomorrow (2004) [2160p] [4K] [WEB] [HDR] [5.1] [YTS.MX]/</property>
  <property name="kdenlive:docproperties.documentid">1753751336090</property>
  <property name="kdenlive:docproperties.enableTimelineZone">0</property>
  <property name="kdenlive:docproperties.enableexternalproxy">0</property>
  <property name="kdenlive:docproperties.enableproxy">0</property>
  <property name="kdenlive:docproperties.externalproxyparams">./;;.LRV;./;;.MP4</property>
  <property name="kdenlive:docproperties.generateimageproxy">0</property>
  <property name="kdenlive:docproperties.generateproxy">0</property>
  <property name="kdenlive:docproperties.guidesCategories">[
    {
        "color": "#9b59b6",
        "comment": "Category 1",
        "index": 0
    },
    {
        "color": "#3daee9",
        "comment": "Category 2",
        "index": 1
    },
    {
        "color": "#1abc9c",
        "comment": "Category 3",
        "index": 2
    },
    {
        "color": "#1cdc9a",
        "comment": "Category 4",
        "index": 3
    },
    {
        "color": "#c9ce3b",
        "comment": "Category 5",
        "index": 4
    },
    {
        "color": "#fdbc4b",
        "comment": "Category 6",
        "index": 5
    },
    {
        "color": "#f39c1f",
        "comment": "Category 7",
        "index": 6
    },
    {
        "color": "#f47750",
        "comment": "Category 8",
        "index": 7
    },
    {
        "color": "#da4453",
        "comment": "Category 9",
        "index": 8
    }
]
</property>
  <property name="kdenlive:docproperties.kdenliveversion">25.04.2</property>
  <property name="kdenlive:docproperties.previewextension"/>
  <property name="kdenlive:docproperties.previewparameters"/>
  <property name="kdenlive:docproperties.profile">C:/Users/kado/AppData/Roaming/kdenlive/profiles/customprofile15</property>
  <property name="kdenlive:docproperties.proxyextension"/>
  <property name="kdenlive:docproperties.proxyimageminsize">2000</property>
  <property name="kdenlive:docproperties.proxyimagesize">800</property>
  <property name="kdenlive:docproperties.proxyminsize">1000</property>
  <property name="kdenlive:docproperties.proxyparams"/>
  <property name="kdenlive:docproperties.proxyresize">640</property>
  <property name="kdenlive:docproperties.seekOffset">30000</property>
  <property name="kdenlive:docproperties.sessionid">{6e47e85e-d44d-4d7f-bdb6-9f4b40723125}</property>
  <property name="kdenlive:docproperties.uuid">{2eff404b-ac55-4a01-8e81-71f432cedf0b}</property>
  <property name="kdenlive:docproperties.version">1.1</property>
  <property name="kdenlive:expandedFolders"/>
  <property name="kdenlive:binZoom">4</property>
  <property name="kdenlive:extraBins">project_bin:-1:0</property>
  <property name="kdenlive:documentnotes"/>
  <property name="kdenlive:documentnotesversion">2</property>
  <property name="kdenlive:docproperties.opensequences">{2eff404b-ac55-4a01-8e81-71f432cedf0b}</property>
  <property name="kdenlive:docproperties.activetimeline">{2eff404b-ac55-4a01-8e81-71f432cedf0b}</property>
  <property name="xml_retain">1</property>
  <entry in="00:00:00.000" out="00:00:00.000" producer="{2eff404b-ac55-4a01-8e81-71f432cedf0b}"/>
  <entry in="00:00:00.000" out="01:48:15.682" producer="chain4"/>
 </playlist>
 <tractor id="tractor4" in="00:00:00.000" out="01:40:10.177">
  <property name="kdenlive:projectTractor">1</property>
  <track in="00:00:00.000" out="01:40:10.177" producer="{2eff404b-ac55-4a01-8e81-71f432cedf0b}"/>
 </tractor>
</mlt>
