<?xml version='1.0' encoding='utf-8'?>
<mlt LC_NUMERIC="en_US.UTF-8" producer="main_bin" root="N:/Videos/Horror and SciFi/Riddick Movies/Riddick (2013) [1080p]" version="7.33.0">
 <profile colorspace="709" description="1920x800 23.98fps" display_aspect_den="5" display_aspect_num="12" frame_rate_den="1001" frame_rate_num="24000" height="800" progressive="1" sample_aspect_den="1" sample_aspect_num="1" width="1920"/>
 <chain id="chain3" out="02:06:47.631">
  <property name="length">182401</property>
  <property name="eof">pause</property>
  <property name="resource">Riddick.2013.1080p.BluRay.x264.YIFY.mp4</property>
  <property name="mlt_service">avformat-novalidate</property>
  <property name="meta.media.nb_streams">2</property>
  <property name="meta.media.0.stream.type">video</property>
  <property name="meta.media.0.stream.frame_rate">23.976</property>
  <property name="meta.media.0.stream.sample_aspect_ratio">0</property>
  <property name="meta.media.0.codec.width">1920</property>
  <property name="meta.media.0.codec.height">800</property>
  <property name="meta.media.0.codec.rotate">0</property>
  <property name="meta.media.0.codec.pix_fmt">yuv420p</property>
  <property name="meta.media.0.codec.sample_aspect_ratio">0</property>
  <property name="meta.media.0.codec.colorspace">709</property>
  <property name="meta.media.0.codec.name">h264</property>
  <property name="meta.media.0.codec.long_name">H.264 / AVC / MPEG-4 AVC / MPEG-4 part 10</property>
  <property name="meta.media.0.codec.bit_rate">2107731</property>
  <property name="meta.attr.0.stream.creation_time.markup">2014-01-01T06:09:09.000000Z</property>
  <property name="meta.attr.0.stream.handler_name.markup">video.264#trackID=1:fps=23.976 - Imported with GPAC 0.5.0-rev</property>
  <property name="meta.attr.0.stream.vendor_id.markup">[0][0][0][0]</property>
  <property name="meta.media.1.stream.type">audio</property>
  <property name="meta.media.1.codec.sample_fmt">fltp</property>
  <property name="meta.media.1.codec.sample_rate">48000</property>
  <property name="meta.media.1.codec.channels">2</property>
  <property name="meta.media.1.codec.layout">stereo</property>
  <property name="meta.media.1.codec.name">aac</property>
  <property name="meta.media.1.codec.long_name">AAC (Advanced Audio Coding)</property>
  <property name="meta.media.1.codec.bit_rate">93710</property>
  <property name="meta.attr.1.stream.creation_time.markup">2014-01-01T06:09:34.000000Z</property>
  <property name="meta.attr.1.stream.language.markup">eng</property>
  <property name="meta.attr.1.stream.handler_name.markup">GPAC ISO Audio Handler</property>
  <property name="meta.attr.1.stream.vendor_id.markup">[0][0][0][0]</property>
  <property name="meta.attr.major_brand.markup">isom</property>
  <property name="meta.attr.minor_version.markup">1</property>
  <property name="meta.attr.compatible_brands.markup">isomavc1</property>
  <property name="meta.attr.creation_time.markup">2014-01-01T06:09:09.000000Z</property>
  <property name="seekable">1</property>
  <property name="meta.media.sample_aspect_num">1</property>
  <property name="meta.media.sample_aspect_den">1</property>
  <property name="audio_index">1</property>
  <property name="video_index">0</property>
  <property name="vstream">0</property>
  <property name="meta.media.frame_rate_num">24000</property>
  <property name="meta.media.frame_rate_den">1001</property>
  <property name="meta.media.colorspace">709</property>
  <property name="meta.media.color_trc">2</property>
  <property name="meta.media.has_b_frames">2</property>
  <property name="meta.media.width">1920</property>
  <property name="meta.media.height">800</property>
  <property name="meta.media.aspect_ratio">1</property>
  <property name="meta.media.color_range">mpeg</property>
  <property name="astream">0</property>
  <property name="meta.media.top_field_first">0</property>
  <property name="meta.media.progressive">1</property>
  <property name="kdenlive:control_uuid">{e80b47a4-3b8d-4a5d-b2cf-1ee175c48bb2}</property>
  <property name="kdenlive:id">4</property>
  <property name="kdenlive:clip_type">0</property>
  <property name="kdenlive:file_size">2097361940</property>
  <property name="kdenlive:file_hash">477949b6f7d78e0ebec11dbfda1a7ca5</property>
  <property name="kdenlive:folderid">-1</property>
  <property name="mute_on_pause">0</property>
  <property name="kdenlive:monitorPosition">171427</property>
 </chain>
 <producer id="producer0" in="00:00:00.000" out="01:51:44.211">
  <property name="length">2147483647</property>
  <property name="eof">continue</property>
  <property name="resource">black</property>
  <property name="aspect_ratio">1</property>
  <property name="mlt_service">color</property>
  <property name="kdenlive:playlistid">black_track</property>
  <property name="mlt_image_format">rgba</property>
  <property name="set.test_audio">0</property>
 </producer>
 <chain id="chain0" out="02:06:47.631">
  <property name="length">182401</property>
  <property name="eof">pause</property>
  <property name="resource">Riddick.2013.1080p.BluRay.x264.YIFY.mp4</property>
  <property name="mlt_service">avformat-novalidate</property>
  <property name="seekable">1</property>
  <property name="audio_index">1</property>
  <property name="video_index">0</property>
  <property name="vstream">0</property>
  <property name="astream">0</property>
  <property name="kdenlive:control_uuid">{e80b47a4-3b8d-4a5d-b2cf-1ee175c48bb2}</property>
  <property name="kdenlive:id">4</property>
  <property name="kdenlive:clip_type">0</property>
  <property name="kdenlive:file_size">2097361940</property>
  <property name="kdenlive:file_hash">477949b6f7d78e0ebec11dbfda1a7ca5</property>
  <property name="kdenlive:folderid">-1</property>
  <property name="meta.media.nb_streams">2</property>
  <property name="meta.media.0.stream.type">video</property>
  <property name="meta.media.0.stream.frame_rate">23.976</property>
  <property name="meta.media.0.stream.sample_aspect_ratio">0</property>
  <property name="meta.media.0.codec.width">1920</property>
  <property name="meta.media.0.codec.height">800</property>
  <property name="meta.media.0.codec.rotate">0</property>
  <property name="meta.media.0.codec.pix_fmt">yuv420p</property>
  <property name="meta.media.0.codec.sample_aspect_ratio">0</property>
  <property name="meta.media.0.codec.colorspace">709</property>
  <property name="meta.media.0.codec.name">h264</property>
  <property name="meta.media.0.codec.long_name">H.264 / AVC / MPEG-4 AVC / MPEG-4 part 10</property>
  <property name="meta.media.0.codec.bit_rate">2107731</property>
  <property name="meta.attr.0.stream.creation_time.markup">2014-01-01T06:09:09.000000Z</property>
  <property name="meta.attr.0.stream.handler_name.markup">video.264#trackID=1:fps=23.976 - Imported with GPAC 0.5.0-rev</property>
  <property name="meta.attr.0.stream.vendor_id.markup">[0][0][0][0]</property>
  <property name="meta.media.1.stream.type">audio</property>
  <property name="meta.media.1.codec.sample_fmt">fltp</property>
  <property name="meta.media.1.codec.sample_rate">48000</property>
  <property name="meta.media.1.codec.channels">2</property>
  <property name="meta.media.1.codec.layout">stereo</property>
  <property name="meta.media.1.codec.name">aac</property>
  <property name="meta.media.1.codec.long_name">AAC (Advanced Audio Coding)</property>
  <property name="meta.media.1.codec.bit_rate">93710</property>
  <property name="meta.attr.1.stream.creation_time.markup">2014-01-01T06:09:34.000000Z</property>
  <property name="meta.attr.1.stream.language.markup">eng</property>
  <property name="meta.attr.1.stream.handler_name.markup">GPAC ISO Audio Handler</property>
  <property name="meta.attr.1.stream.vendor_id.markup">[0][0][0][0]</property>
  <property name="meta.attr.major_brand.markup">isom</property>
  <property name="meta.attr.minor_version.markup">1</property>
  <property name="meta.attr.compatible_brands.markup">isomavc1</property>
  <property name="meta.attr.creation_time.markup">2014-01-01T06:09:09.000000Z</property>
  <property name="meta.media.sample_aspect_num">1</property>
  <property name="meta.media.sample_aspect_den">1</property>
  <property name="meta.media.frame_rate_num">24000</property>
  <property name="meta.media.frame_rate_den">1001</property>
  <property name="meta.media.colorspace">709</property>
  <property name="meta.media.color_trc">2</property>
  <property name="meta.media.has_b_frames">2</property>
  <property name="meta.media.width">1920</property>
  <property name="meta.media.height">800</property>
  <property name="meta.media.aspect_ratio">1</property>
  <property name="meta.media.color_range">mpeg</property>
  <property name="xml">was here</property>
  <property name="mute_on_pause">0</property>
  <property name="meta.media.top_field_first">0</property>
  <property name="meta.media.progressive">1</property>
  <property name="set.test_audio">0</property>
  <property name="set.test_image">1</property>
 </chain>
 <chain id="chain1" out="02:06:47.631">
  <property name="length">182401</property>
  <property name="eof">pause</property>
  <property name="resource">Riddick.2013.1080p.BluRay.x264.YIFY.mp4</property>
  <property name="mlt_service">avformat-novalidate</property>
  <property name="seekable">1</property>
  <property name="audio_index">1</property>
  <property name="video_index">0</property>
  <property name="vstream">0</property>
  <property name="astream">0</property>
  <property name="kdenlive:control_uuid">{e80b47a4-3b8d-4a5d-b2cf-1ee175c48bb2}</property>
  <property name="kdenlive:id">4</property>
  <property name="kdenlive:clip_type">0</property>
  <property name="kdenlive:file_size">2097361940</property>
  <property name="kdenlive:file_hash">477949b6f7d78e0ebec11dbfda1a7ca5</property>
  <property name="kdenlive:folderid">-1</property>
  <property name="mute_on_pause">0</property>
  <property name="kdenlive:monitorPosition">171427</property>
  <property name="meta.media.nb_streams">2</property>
  <property name="meta.media.0.stream.type">video</property>
  <property name="meta.media.0.stream.frame_rate">23.976</property>
  <property name="meta.media.0.stream.sample_aspect_ratio">0</property>
  <property name="meta.media.0.codec.width">1920</property>
  <property name="meta.media.0.codec.height">800</property>
  <property name="meta.media.0.codec.rotate">0</property>
  <property name="meta.media.0.codec.pix_fmt">yuv420p</property>
  <property name="meta.media.0.codec.sample_aspect_ratio">0</property>
  <property name="meta.media.0.codec.colorspace">709</property>
  <property name="meta.media.0.codec.name">h264</property>
  <property name="meta.media.0.codec.long_name">H.264 / AVC / MPEG-4 AVC / MPEG-4 part 10</property>
  <property name="meta.media.0.codec.bit_rate">2107731</property>
  <property name="meta.attr.0.stream.creation_time.markup">2014-01-01T06:09:09.000000Z</property>
  <property name="meta.attr.0.stream.handler_name.markup">video.264#trackID=1:fps=23.976 - Imported with GPAC 0.5.0-rev</property>
  <property name="meta.attr.0.stream.vendor_id.markup">[0][0][0][0]</property>
  <property name="meta.media.1.stream.type">audio</property>
  <property name="meta.media.1.codec.sample_fmt">fltp</property>
  <property name="meta.media.1.codec.sample_rate">48000</property>
  <property name="meta.media.1.codec.channels">2</property>
  <property name="meta.media.1.codec.layout">stereo</property>
  <property name="meta.media.1.codec.name">aac</property>
  <property name="meta.media.1.codec.long_name">AAC (Advanced Audio Coding)</property>
  <property name="meta.media.1.codec.bit_rate">93710</property>
  <property name="meta.attr.1.stream.creation_time.markup">2014-01-01T06:09:34.000000Z</property>
  <property name="meta.attr.1.stream.language.markup">eng</property>
  <property name="meta.attr.1.stream.handler_name.markup">GPAC ISO Audio Handler</property>
  <property name="meta.attr.1.stream.vendor_id.markup">[0][0][0][0]</property>
  <property name="meta.attr.major_brand.markup">isom</property>
  <property name="meta.attr.minor_version.markup">1</property>
  <property name="meta.attr.compatible_brands.markup">isomavc1</property>
  <property name="meta.attr.creation_time.markup">2014-01-01T06:09:09.000000Z</property>
  <property name="meta.media.sample_aspect_num">1</property>
  <property name="meta.media.sample_aspect_den">1</property>
  <property name="meta.media.frame_rate_num">24000</property>
  <property name="meta.media.frame_rate_den">1001</property>
  <property name="meta.media.colorspace">709</property>
  <property name="meta.media.color_trc">2</property>
  <property name="meta.media.has_b_frames">2</property>
  <property name="meta.media.width">1920</property>
  <property name="meta.media.height">800</property>
  <property name="meta.media.aspect_ratio">1</property>
  <property name="meta.media.color_range">mpeg</property>
  <property name="xml">was here</property>
  <property name="meta.media.top_field_first">0</property>
  <property name="meta.media.progressive">1</property>
  <property name="set.test_audio">0</property>
  <property name="set.test_image">1</property>
 </chain>
 <producer id="producer1" in="00:00:00.000" out="04:13:35.285">
  <property name="length">364802</property>
  <property name="eof">pause</property>
  <property name="resource">0.500000:Riddick.2013.1080p.BluRay.x264.YIFY.mp4</property>
  <property name="aspect_ratio">1</property>
  <property name="meta.media.nb_streams">2</property>
  <property name="meta.media.0.stream.type">video</property>
  <property name="meta.media.0.stream.frame_rate">23.976</property>
  <property name="meta.media.0.stream.sample_aspect_ratio">0</property>
  <property name="meta.media.0.codec.width">1920</property>
  <property name="meta.media.0.codec.height">800</property>
  <property name="meta.media.0.codec.rotate">0</property>
  <property name="meta.media.0.codec.pix_fmt">yuv420p</property>
  <property name="meta.media.0.codec.sample_aspect_ratio">0</property>
  <property name="meta.media.0.codec.colorspace">709</property>
  <property name="meta.media.0.codec.name">h264</property>
  <property name="meta.media.0.codec.long_name">H.264 / AVC / MPEG-4 AVC / MPEG-4 part 10</property>
  <property name="meta.media.0.codec.bit_rate">2107731</property>
  <property name="meta.attr.0.stream.creation_time.markup">2014-01-01T06:09:09.000000Z</property>
  <property name="meta.attr.0.stream.handler_name.markup">video.264#trackID=1:fps=23.976 - Imported with GPAC 0.5.0-rev</property>
  <property name="meta.attr.0.stream.vendor_id.markup">[0][0][0][0]</property>
  <property name="meta.media.1.stream.type">audio</property>
  <property name="meta.media.1.codec.sample_fmt">fltp</property>
  <property name="meta.media.1.codec.sample_rate">48000</property>
  <property name="meta.media.1.codec.channels">2</property>
  <property name="meta.media.1.codec.layout">stereo</property>
  <property name="meta.media.1.codec.name">aac</property>
  <property name="meta.media.1.codec.long_name">AAC (Advanced Audio Coding)</property>
  <property name="meta.media.1.codec.bit_rate">93710</property>
  <property name="meta.attr.1.stream.creation_time.markup">2014-01-01T06:09:34.000000Z</property>
  <property name="meta.attr.1.stream.language.markup">eng</property>
  <property name="meta.attr.1.stream.handler_name.markup">GPAC ISO Audio Handler</property>
  <property name="meta.attr.1.stream.vendor_id.markup">[0][0][0][0]</property>
  <property name="meta.attr.major_brand.markup">isom</property>
  <property name="meta.attr.minor_version.markup">1</property>
  <property name="meta.attr.compatible_brands.markup">isomavc1</property>
  <property name="meta.attr.creation_time.markup">2014-01-01T06:09:09.000000Z</property>
  <property name="seekable">1</property>
  <property name="meta.media.sample_aspect_num">1</property>
  <property name="meta.media.sample_aspect_den">1</property>
  <property name="audio_index">1</property>
  <property name="video_index">0</property>
  <property name="warp_speed">0.5</property>
  <property name="warp_resource">Riddick.2013.1080p.BluRay.x264.YIFY.mp4</property>
  <property name="mlt_service">timewarp</property>
  <property name="kdenlive:control_uuid">{e80b47a4-3b8d-4a5d-b2cf-1ee175c48bb2}</property>
  <property name="vstream">0</property>
  <property name="astream">0</property>
  <property name="set.test_audio">0</property>
  <property name="set.test_image">1</property>
  <property name="kdenlive:id">4</property>
  <property name="warp_pitch">1</property>
  <property name="meta.media.frame_rate_num">24000</property>
  <property name="meta.media.frame_rate_den">1001</property>
  <property name="meta.media.colorspace">709</property>
  <property name="meta.media.color_trc">2</property>
  <property name="meta.media.has_b_frames">2</property>
  <property name="meta.media.width">1920</property>
  <property name="meta.media.height">800</property>
  <property name="meta.media.aspect_ratio">1</property>
  <property name="meta.media.color_range">mpeg</property>
 </producer>
 <playlist id="playlist0">
  <property name="kdenlive:audio_track">1</property>
  <blank length="00:01:26.151"/>
  <entry in="00:01:36.119" out="00:13:25.567" producer="chain0">
   <property name="kdenlive:id">4</property>
  </entry>
  <blank length="00:20:37.955"/>
  <entry in="00:36:31.907" out="00:40:50.842" producer="chain1">
   <property name="kdenlive:id">4</property>
  </entry>
  <blank length="00:11:05.839"/>
  <entry in="00:55:37.454" out="01:04:22.648" producer="chain1">
   <property name="kdenlive:id">4</property>
  </entry>
  <blank length="00:01:19.728"/>
  <entry in="01:08:59.142" out="01:10:30.614" producer="chain1">
   <property name="kdenlive:id">4</property>
  </entry>
  <blank length="00:08:13.722"/>
  <entry in="01:22:34.034" out="01:22:44.795" producer="chain1">
   <property name="kdenlive:id">4</property>
  </entry>
  <blank length="00:00:12.554"/>
  <entry in="01:24:36.328" out="01:24:39.331" producer="chain1">
   <property name="kdenlive:id">4</property>
  </entry>
  <blank length="00:00:01.335"/>
  <entry in="01:24:42.709" out="01:24:49.132" producer="chain1">
   <property name="kdenlive:id">4</property>
  </entry>
  <blank length="00:00:30.614"/>
  <entry in="01:25:26.818" out="01:25:45.337" producer="chain1">
   <property name="kdenlive:id">4</property>
  </entry>
  <blank length="00:00:10.719"/>
  <entry in="01:26:27.110" out="01:28:15.015" producer="chain1">
   <property name="kdenlive:id">4</property>
  </entry>
  <blank length="00:00:47.631"/>
  <entry in="02:59:55.222" out="02:59:57.766" producer="producer1">
   <property name="kdenlive:id">4</property>
  </entry>
  <blank length="00:00:23.690"/>
  <entry in="01:31:27.319" out="01:36:04.546" producer="chain1">
   <property name="kdenlive:id">4</property>
  </entry>
  <blank length="00:01:28.487"/>
  <entry in="01:38:36.536" out="01:38:56.265" producer="chain1">
   <property name="kdenlive:id">4</property>
  </entry>
  <blank length="00:00:05.505"/>
  <entry in="01:39:32.282" out="01:39:41.416" producer="chain1">
   <property name="kdenlive:id">4</property>
   <filter id="filter1" in="01:39:32.282" out="01:39:32.491">
    <property name="window">75</property>
    <property name="max_gain">20dB</property>
    <property name="mlt_service">volume</property>
    <property name="kdenlive_id">fadein</property>
    <property name="gain">0</property>
    <property name="end">1</property>
   </filter>
  </entry>
  <blank length="00:00:32.324"/>
  <entry in="01:40:32.282" out="01:41:27.945" producer="chain1">
   <property name="kdenlive:id">4</property>
  </entry>
  <blank length="00:03:31.531"/>
  <entry in="01:45:21.063" out="01:58:58.767" producer="chain1">
   <property name="kdenlive:id">4</property>
  </entry>
  <blank length="00:00:25.275"/>
  <entry in="01:59:30.739" out="02:06:47.631" producer="chain1">
   <property name="kdenlive:id">4</property>
  </entry>
 </playlist>
 <chain id="chain2" out="02:06:47.631">
  <property name="length">182401</property>
  <property name="eof">pause</property>
  <property name="resource">Riddick.2013.1080p.BluRay.x264.YIFY.mp4</property>
  <property name="mlt_service">avformat-novalidate</property>
  <property name="seekable">1</property>
  <property name="audio_index">1</property>
  <property name="video_index">0</property>
  <property name="vstream">0</property>
  <property name="astream">0</property>
  <property name="kdenlive:control_uuid">{e80b47a4-3b8d-4a5d-b2cf-1ee175c48bb2}</property>
  <property name="kdenlive:id">4</property>
  <property name="kdenlive:clip_type">0</property>
  <property name="kdenlive:file_size">2097361940</property>
  <property name="kdenlive:file_hash">477949b6f7d78e0ebec11dbfda1a7ca5</property>
  <property name="kdenlive:folderid">-1</property>
  <property name="meta.media.nb_streams">2</property>
  <property name="meta.media.0.stream.type">video</property>
  <property name="meta.media.0.stream.frame_rate">23.976</property>
  <property name="meta.media.0.stream.sample_aspect_ratio">0</property>
  <property name="meta.media.0.codec.width">1920</property>
  <property name="meta.media.0.codec.height">800</property>
  <property name="meta.media.0.codec.rotate">0</property>
  <property name="meta.media.0.codec.pix_fmt">yuv420p</property>
  <property name="meta.media.0.codec.sample_aspect_ratio">0</property>
  <property name="meta.media.0.codec.colorspace">709</property>
  <property name="meta.media.0.codec.name">h264</property>
  <property name="meta.media.0.codec.long_name">H.264 / AVC / MPEG-4 AVC / MPEG-4 part 10</property>
  <property name="meta.media.0.codec.bit_rate">2107731</property>
  <property name="meta.attr.0.stream.creation_time.markup">2014-01-01T06:09:09.000000Z</property>
  <property name="meta.attr.0.stream.handler_name.markup">video.264#trackID=1:fps=23.976 - Imported with GPAC 0.5.0-rev</property>
  <property name="meta.attr.0.stream.vendor_id.markup">[0][0][0][0]</property>
  <property name="meta.media.1.stream.type">audio</property>
  <property name="meta.media.1.codec.sample_fmt">fltp</property>
  <property name="meta.media.1.codec.sample_rate">48000</property>
  <property name="meta.media.1.codec.channels">2</property>
  <property name="meta.media.1.codec.layout">stereo</property>
  <property name="meta.media.1.codec.name">aac</property>
  <property name="meta.media.1.codec.long_name">AAC (Advanced Audio Coding)</property>
  <property name="meta.media.1.codec.bit_rate">93710</property>
  <property name="meta.attr.1.stream.creation_time.markup">2014-01-01T06:09:34.000000Z</property>
  <property name="meta.attr.1.stream.language.markup">eng</property>
  <property name="meta.attr.1.stream.handler_name.markup">GPAC ISO Audio Handler</property>
  <property name="meta.attr.1.stream.vendor_id.markup">[0][0][0][0]</property>
  <property name="meta.attr.major_brand.markup">isom</property>
  <property name="meta.attr.minor_version.markup">1</property>
  <property name="meta.attr.compatible_brands.markup">isomavc1</property>
  <property name="meta.attr.creation_time.markup">2014-01-01T06:09:09.000000Z</property>
  <property name="meta.media.sample_aspect_num">1</property>
  <property name="meta.media.sample_aspect_den">1</property>
  <property name="meta.media.frame_rate_num">24000</property>
  <property name="meta.media.frame_rate_den">1001</property>
  <property name="meta.media.colorspace">709</property>
  <property name="meta.media.color_trc">2</property>
  <property name="meta.media.has_b_frames">2</property>
  <property name="meta.media.width">1920</property>
  <property name="meta.media.height">800</property>
  <property name="meta.media.aspect_ratio">1</property>
  <property name="meta.media.color_range">mpeg</property>
  <property name="xml">was here</property>
  <property name="mute_on_pause">0</property>
  <property name="meta.media.top_field_first">0</property>
  <property name="meta.media.progressive">1</property>
  <property name="set.test_audio">0</property>
  <property name="set.test_image">1</property>
 </chain>
 <playlist id="playlist1">
  <property name="kdenlive:audio_track">1</property>
  <entry in="00:00:00.000" out="00:01:27.110" producer="chain2">
   <property name="kdenlive:id">4</property>
  </entry>
  <blank length="00:11:47.506"/>
  <entry in="00:15:50.217" out="00:36:30.113" producer="chain2">
   <property name="kdenlive:id">4</property>
  </entry>
  <blank length="00:04:16.975"/>
  <entry in="00:44:10.594" out="00:55:18.393" producer="chain2">
   <property name="kdenlive:id">4</property>
  </entry>
  <blank length="00:08:43.252"/>
  <entry in="01:06:41.500" out="01:08:03.170" producer="chain2">
   <property name="kdenlive:id">4</property>
   <filter id="filter0" in="01:07:59.476" out="01:08:03.212">
    <property name="window">75</property>
    <property name="max_gain">20dB</property>
    <property name="mlt_service">volume</property>
    <property name="kdenlive_id">fadeout</property>
    <property name="gain">1</property>
    <property name="end">0</property>
    <property name="kdenlive:collapsed">0</property>
   </filter>
  </entry>
  <blank length="00:01:29.529"/>
  <entry in="01:14:19.353" out="01:22:34.993" producer="chain2">
   <property name="kdenlive:id">4</property>
  </entry>
  <blank length="00:00:08.800"/>
  <entry in="01:24:22.773" out="01:24:37.287" producer="chain2">
   <property name="kdenlive:id">4</property>
   <filter id="filter2" in="01:24:22.773" out="01:24:27.110">
    <property name="window">75</property>
    <property name="max_gain">20dB</property>
    <property name="mlt_service">volume</property>
    <property name="kdenlive_id">fadein</property>
    <property name="gain">0</property>
    <property name="end">1</property>
   </filter>
  </entry>
  <blank length="00:00:01.043"/>
  <entry in="01:24:40.374" out="01:24:43.669" producer="chain2">
   <property name="kdenlive:id">4</property>
  </entry>
  <blank length="00:00:04.463"/>
  <entry in="01:24:53.220" out="01:25:25.776" producer="chain2">
   <property name="kdenlive:id">4</property>
  </entry>
  <blank length="00:00:15.390"/>
  <entry in="01:26:14.223" out="01:26:28.070" producer="chain2">
   <property name="kdenlive:id">4</property>
  </entry>
  <blank length="00:01:45.963"/>
  <entry in="01:28:36.078" out="01:29:25.651" producer="chain2">
   <property name="kdenlive:id">4</property>
  </entry>
  <blank length="00:00:00.584"/>
  <entry in="01:29:58.183" out="01:30:23.857" producer="chain2">
   <property name="kdenlive:id">4</property>
  </entry>
  <blank length="00:04:35.285"/>
  <entry in="01:37:07.090" out="01:38:37.496" producer="chain2">
   <property name="kdenlive:id">4</property>
  </entry>
  <blank length="00:00:17.768"/>
  <entry in="01:39:06.340" out="01:39:13.805" producer="chain2">
   <property name="kdenlive:id">4</property>
  </entry>
  <blank length="00:00:07.174"/>
  <entry in="01:39:40.457" out="01:40:14.723" producer="chain2">
   <property name="kdenlive:id">4</property>
  </entry>
  <blank length="00:00:53.720"/>
  <entry in="01:41:37.996" out="01:45:11.470" producer="chain2">
   <property name="kdenlive:id">4</property>
  </entry>
  <blank length="00:13:35.744"/>
  <entry in="01:59:04.463" out="01:59:31.698" producer="chain2">
   <property name="kdenlive:id">4</property>
  </entry>
 </playlist>
 <tractor id="tractor0" in="00:00:00.000" out="01:46:44.169">
  <property name="kdenlive:audio_track">1</property>
  <property name="kdenlive:trackheight">84</property>
  <property name="kdenlive:timeline_active">1</property>
  <property name="kdenlive:collapsed">0</property>
  <property name="kdenlive:thumbs_format"/>
  <property name="kdenlive:audio_rec"/>
  <track hide="video" producer="playlist0"/>
  <track hide="video" producer="playlist1"/>
  <transition id="transition0" in="00:13:14.640" out="00:13:15.641">
   <property name="a_track">0</property>
   <property name="b_track">1</property>
   <property name="mlt_service">mix</property>
   <property name="kdenlive_id">mix</property>
   <property name="kdenlive:mixcut">12</property>
   <property name="start">-1</property>
   <property name="accepts_blanks">1</property>
   <property name="reverse">0</property>
  </transition>
  <transition id="transition1" in="00:01:26.151" out="00:01:27.152">
   <property name="a_track">0</property>
   <property name="b_track">1</property>
   <property name="mlt_service">mix</property>
   <property name="kdenlive_id">mix</property>
   <property name="kdenlive:mixcut">12</property>
   <property name="start">-1</property>
   <property name="accepts_blanks">1</property>
   <property name="reverse">1</property>
  </transition>
  <transition id="transition2" in="00:38:11.553" out="00:38:12.554">
   <property name="a_track">0</property>
   <property name="b_track">1</property>
   <property name="mlt_service">mix</property>
   <property name="kdenlive_id">mix</property>
   <property name="kdenlive:mixcut">12</property>
   <property name="start">-1</property>
   <property name="accepts_blanks">1</property>
   <property name="reverse">0</property>
  </transition>
  <transition id="transition3" in="00:33:53.595" out="00:33:54.596">
   <property name="a_track">0</property>
   <property name="b_track">1</property>
   <property name="mlt_service">mix</property>
   <property name="kdenlive_id">mix</property>
   <property name="kdenlive:mixcut">12</property>
   <property name="start">-1</property>
   <property name="accepts_blanks">1</property>
   <property name="reverse">1</property>
  </transition>
  <transition id="transition4" in="00:58:02.628" out="00:58:03.629">
   <property name="a_track">0</property>
   <property name="b_track">1</property>
   <property name="mlt_service">mix</property>
   <property name="kdenlive_id">mix</property>
   <property name="kdenlive:mixcut">12</property>
   <property name="start">-1</property>
   <property name="accepts_blanks">1</property>
   <property name="reverse">0</property>
  </transition>
  <transition id="transition5" in="00:59:23.315" out="00:59:24.316">
   <property name="a_track">1</property>
   <property name="b_track">0</property>
   <property name="mlt_service">mix</property>
   <property name="kdenlive_id">mix</property>
   <property name="kdenlive:mixcut">12</property>
   <property name="start">-1</property>
   <property name="accepts_blanks">1</property>
   <property name="reverse">0</property>
  </transition>
  <transition id="transition6" in="01:09:08.550" out="01:09:09.551">
   <property name="a_track">1</property>
   <property name="b_track">0</property>
   <property name="mlt_service">mix</property>
   <property name="kdenlive_id">mix</property>
   <property name="kdenlive:mixcut">12</property>
   <property name="start">-1</property>
   <property name="accepts_blanks">1</property>
   <property name="reverse">0</property>
  </transition>
  <transition id="transition7" in="01:09:31.907" out="01:09:32.908">
   <property name="a_track">1</property>
   <property name="b_track">0</property>
   <property name="mlt_service">mix</property>
   <property name="kdenlive_id">mix</property>
   <property name="kdenlive:mixcut">12</property>
   <property name="start">-1</property>
   <property name="accepts_blanks">1</property>
   <property name="reverse">0</property>
  </transition>
  <transition id="transition8" in="01:09:36.286" out="01:09:37.287">
   <property name="a_track">1</property>
   <property name="b_track">0</property>
   <property name="mlt_service">mix</property>
   <property name="kdenlive_id">mix</property>
   <property name="kdenlive:mixcut">12</property>
   <property name="start">-1</property>
   <property name="accepts_blanks">1</property>
   <property name="reverse">0</property>
  </transition>
  <transition id="transition9" in="01:09:41.750" out="01:09:42.751">
   <property name="a_track">0</property>
   <property name="b_track">1</property>
   <property name="mlt_service">mix</property>
   <property name="kdenlive_id">mix</property>
   <property name="kdenlive:mixcut">12</property>
   <property name="start">-1</property>
   <property name="accepts_blanks">1</property>
   <property name="reverse">0</property>
  </transition>
  <transition id="transition10" in="01:10:13.388" out="01:10:14.389">
   <property name="a_track">1</property>
   <property name="b_track">0</property>
   <property name="mlt_service">mix</property>
   <property name="kdenlive_id">mix</property>
   <property name="kdenlive:mixcut">12</property>
   <property name="start">-1</property>
   <property name="accepts_blanks">1</property>
   <property name="reverse">0</property>
  </transition>
  <transition id="transition11" in="01:10:42.668" out="01:10:43.669">
   <property name="a_track">1</property>
   <property name="b_track">0</property>
   <property name="mlt_service">mix</property>
   <property name="kdenlive_id">mix</property>
   <property name="kdenlive:mixcut">12</property>
   <property name="start">-1</property>
   <property name="accepts_blanks">1</property>
   <property name="reverse">0</property>
  </transition>
  <transition id="transition12" in="01:12:29.613" out="01:12:30.614">
   <property name="a_track">0</property>
   <property name="b_track">1</property>
   <property name="mlt_service">mix</property>
   <property name="kdenlive_id">mix</property>
   <property name="kdenlive:mixcut">12</property>
   <property name="start">-1</property>
   <property name="accepts_blanks">1</property>
   <property name="reverse">0</property>
  </transition>
  <transition id="transition13" in="01:13:18.227" out="01:13:19.228">
   <property name="a_track">1</property>
   <property name="b_track">0</property>
   <property name="mlt_service">mix</property>
   <property name="kdenlive_id">mix</property>
   <property name="kdenlive:mixcut">12</property>
   <property name="start">-1</property>
   <property name="accepts_blanks">1</property>
   <property name="reverse">0</property>
  </transition>
  <transition id="transition14" in="01:13:44.503" out="01:13:45.504">
   <property name="a_track">1</property>
   <property name="b_track">0</property>
   <property name="mlt_service">mix</property>
   <property name="kdenlive_id">mix</property>
   <property name="kdenlive:mixcut">12</property>
   <property name="start">-1</property>
   <property name="accepts_blanks">1</property>
   <property name="reverse">0</property>
  </transition>
  <transition id="transition15" in="01:19:50.259" out="01:19:51.260">
   <property name="a_track">1</property>
   <property name="b_track">0</property>
   <property name="mlt_service">mix</property>
   <property name="kdenlive_id">mix</property>
   <property name="kdenlive:mixcut">12</property>
   <property name="start">-1</property>
   <property name="accepts_blanks">1</property>
   <property name="reverse">0</property>
  </transition>
  <transition id="transition16" in="01:20:15.515" out="01:20:16.516">
   <property name="a_track">1</property>
   <property name="b_track">0</property>
   <property name="mlt_service">mix</property>
   <property name="kdenlive_id">mix</property>
   <property name="kdenlive:mixcut">12</property>
   <property name="start">-1</property>
   <property name="accepts_blanks">1</property>
   <property name="reverse">0</property>
  </transition>
  <transition id="transition17" in="01:20:23.690" out="01:20:24.691">
   <property name="a_track">0</property>
   <property name="b_track">1</property>
   <property name="mlt_service">mix</property>
   <property name="kdenlive_id">mix</property>
   <property name="kdenlive:mixcut">12</property>
   <property name="start">-1</property>
   <property name="accepts_blanks">1</property>
   <property name="reverse">0</property>
  </transition>
  <transition id="transition18" in="01:20:57.015" out="01:20:58.016">
   <property name="a_track">1</property>
   <property name="b_track">0</property>
   <property name="mlt_service">mix</property>
   <property name="kdenlive_id">mix</property>
   <property name="kdenlive:mixcut">12</property>
   <property name="start">-1</property>
   <property name="accepts_blanks">1</property>
   <property name="reverse">0</property>
  </transition>
  <transition id="transition19" in="01:21:51.760" out="01:21:52.761">
   <property name="a_track">0</property>
   <property name="b_track">1</property>
   <property name="mlt_service">mix</property>
   <property name="kdenlive_id">mix</property>
   <property name="kdenlive:mixcut">12</property>
   <property name="start">-1</property>
   <property name="accepts_blanks">1</property>
   <property name="reverse">0</property>
  </transition>
  <transition id="transition20" in="01:39:01.001" out="01:39:02.002">
   <property name="a_track">0</property>
   <property name="b_track">1</property>
   <property name="mlt_service">mix</property>
   <property name="kdenlive_id">mix</property>
   <property name="kdenlive:mixcut">0</property>
   <property name="start">-1</property>
   <property name="accepts_blanks">1</property>
   <property name="reverse">0</property>
  </transition>
  <transition id="transition21" in="01:39:27.277" out="01:39:28.278">
   <property name="a_track">1</property>
   <property name="b_track">0</property>
   <property name="mlt_service">mix</property>
   <property name="kdenlive_id">mix</property>
   <property name="kdenlive:mixcut">12</property>
   <property name="start">-1</property>
   <property name="accepts_blanks">1</property>
   <property name="reverse">0</property>
  </transition>
  <transition id="transition22" in="00:49:18.393" out="00:49:19.394">
   <property name="a_track">1</property>
   <property name="b_track">0</property>
   <property name="mlt_service">mix</property>
   <property name="kdenlive_id">mix</property>
   <property name="kdenlive:mixcut">12</property>
   <property name="start">-1</property>
   <property name="accepts_blanks">1</property>
   <property name="reverse">0</property>
  </transition>
  <transition id="transition23" in="01:00:53.845" out="01:00:54.846">
   <property name="a_track">0</property>
   <property name="b_track">1</property>
   <property name="mlt_service">mix</property>
   <property name="kdenlive_id">mix</property>
   <property name="kdenlive:mixcut">12</property>
   <property name="start">-1</property>
   <property name="accepts_blanks">1</property>
   <property name="reverse">0</property>
  </transition>
  <transition id="transition24" in="01:09:18.352" out="01:09:19.353">
   <property name="a_track">0</property>
   <property name="b_track">1</property>
   <property name="mlt_service">mix</property>
   <property name="kdenlive_id">mix</property>
   <property name="kdenlive:mixcut">12</property>
   <property name="start">-1</property>
   <property name="accepts_blanks">1</property>
   <property name="reverse">0</property>
  </transition>
  <transition id="transition25" in="01:09:33.951" out="01:09:34.952">
   <property name="a_track">0</property>
   <property name="b_track">1</property>
   <property name="mlt_service">mix</property>
   <property name="kdenlive_id">mix</property>
   <property name="kdenlive:mixcut">12</property>
   <property name="start">-1</property>
   <property name="accepts_blanks">1</property>
   <property name="reverse">0</property>
  </transition>
  <transition id="transition26" in="01:10:29.780" out="01:10:31.949">
   <property name="a_track">0</property>
   <property name="b_track">1</property>
   <property name="mlt_service">mix</property>
   <property name="kdenlive_id">mix</property>
   <property name="kdenlive:mixcut">0</property>
   <property name="start">-1</property>
   <property name="accepts_blanks">1</property>
   <property name="reverse">0</property>
  </transition>
  <transition id="transition27" in="01:13:19.811" out="01:13:20.812">
   <property name="a_track">0</property>
   <property name="b_track">1</property>
   <property name="mlt_service">mix</property>
   <property name="kdenlive_id">mix</property>
   <property name="kdenlive:mixcut">12</property>
   <property name="start">-1</property>
   <property name="accepts_blanks">1</property>
   <property name="reverse">0</property>
  </transition>
  <transition id="transition28" in="01:18:20.771" out="01:18:21.772">
   <property name="a_track">0</property>
   <property name="b_track">1</property>
   <property name="mlt_service">mix</property>
   <property name="kdenlive_id">mix</property>
   <property name="kdenlive:mixcut">12</property>
   <property name="start">-1</property>
   <property name="accepts_blanks">1</property>
   <property name="reverse">0</property>
  </transition>
  <transition id="transition29" in="01:20:09.009" out="01:20:10.010">
   <property name="a_track">0</property>
   <property name="b_track">1</property>
   <property name="mlt_service">mix</property>
   <property name="kdenlive_id">mix</property>
   <property name="kdenlive:mixcut">12</property>
   <property name="reverse">0</property>
  </transition>
  <transition id="transition30" in="01:25:24.233" out="01:25:25.234">
   <property name="a_track">1</property>
   <property name="b_track">0</property>
   <property name="mlt_service">mix</property>
   <property name="kdenlive_id">mix</property>
   <property name="kdenlive:mixcut">12</property>
   <property name="reverse">0</property>
  </transition>
  <filter id="filter3">
   <property name="window">75</property>
   <property name="max_gain">20dB</property>
   <property name="mlt_service">volume</property>
   <property name="internal_added">237</property>
   <property name="disable">1</property>
  </filter>
  <filter id="filter4">
   <property name="channel">-1</property>
   <property name="mlt_service">panner</property>
   <property name="internal_added">237</property>
   <property name="start">0.5</property>
   <property name="disable">1</property>
  </filter>
  <filter id="filter5">
   <property name="iec_scale">0</property>
   <property name="mlt_service">audiolevel</property>
   <property name="dbpeak">1</property>
   <property name="disable">1</property>
  </filter>
 </tractor>
 <chain id="chain4" out="02:06:47.631">
  <property name="length">182401</property>
  <property name="eof">pause</property>
  <property name="resource">Riddick.2013.1080p.BluRay.x264.YIFY.mp4</property>
  <property name="mlt_service">avformat-novalidate</property>
  <property name="seekable">1</property>
  <property name="audio_index">1</property>
  <property name="video_index">0</property>
  <property name="vstream">0</property>
  <property name="astream">0</property>
  <property name="kdenlive:control_uuid">{e80b47a4-3b8d-4a5d-b2cf-1ee175c48bb2}</property>
  <property name="kdenlive:id">4</property>
  <property name="kdenlive:clip_type">0</property>
  <property name="kdenlive:file_size">2097361940</property>
  <property name="kdenlive:file_hash">477949b6f7d78e0ebec11dbfda1a7ca5</property>
  <property name="kdenlive:folderid">-1</property>
  <property name="meta.media.nb_streams">2</property>
  <property name="meta.media.0.stream.type">video</property>
  <property name="meta.media.0.stream.frame_rate">23.976</property>
  <property name="meta.media.0.stream.sample_aspect_ratio">0</property>
  <property name="meta.media.0.codec.width">1920</property>
  <property name="meta.media.0.codec.height">800</property>
  <property name="meta.media.0.codec.rotate">0</property>
  <property name="meta.media.0.codec.pix_fmt">yuv420p</property>
  <property name="meta.media.0.codec.sample_aspect_ratio">0</property>
  <property name="meta.media.0.codec.colorspace">709</property>
  <property name="meta.media.0.codec.name">h264</property>
  <property name="meta.media.0.codec.long_name">H.264 / AVC / MPEG-4 AVC / MPEG-4 part 10</property>
  <property name="meta.media.0.codec.bit_rate">2107731</property>
  <property name="meta.attr.0.stream.creation_time.markup">2014-01-01T06:09:09.000000Z</property>
  <property name="meta.attr.0.stream.handler_name.markup">video.264#trackID=1:fps=23.976 - Imported with GPAC 0.5.0-rev</property>
  <property name="meta.attr.0.stream.vendor_id.markup">[0][0][0][0]</property>
  <property name="meta.media.1.stream.type">audio</property>
  <property name="meta.media.1.codec.sample_fmt">fltp</property>
  <property name="meta.media.1.codec.sample_rate">48000</property>
  <property name="meta.media.1.codec.channels">2</property>
  <property name="meta.media.1.codec.layout">stereo</property>
  <property name="meta.media.1.codec.name">aac</property>
  <property name="meta.media.1.codec.long_name">AAC (Advanced Audio Coding)</property>
  <property name="meta.media.1.codec.bit_rate">93710</property>
  <property name="meta.attr.1.stream.creation_time.markup">2014-01-01T06:09:34.000000Z</property>
  <property name="meta.attr.1.stream.language.markup">eng</property>
  <property name="meta.attr.1.stream.handler_name.markup">GPAC ISO Audio Handler</property>
  <property name="meta.attr.1.stream.vendor_id.markup">[0][0][0][0]</property>
  <property name="meta.attr.major_brand.markup">isom</property>
  <property name="meta.attr.minor_version.markup">1</property>
  <property name="meta.attr.compatible_brands.markup">isomavc1</property>
  <property name="meta.attr.creation_time.markup">2014-01-01T06:09:09.000000Z</property>
  <property name="meta.media.sample_aspect_num">1</property>
  <property name="meta.media.sample_aspect_den">1</property>
  <property name="meta.media.frame_rate_num">24000</property>
  <property name="meta.media.frame_rate_den">1001</property>
  <property name="meta.media.colorspace">709</property>
  <property name="meta.media.color_trc">2</property>
  <property name="meta.media.has_b_frames">2</property>
  <property name="meta.media.width">1920</property>
  <property name="meta.media.height">800</property>
  <property name="meta.media.aspect_ratio">1</property>
  <property name="meta.media.color_range">mpeg</property>
  <property name="xml">was here</property>
  <property name="mute_on_pause">0</property>
  <property name="meta.media.top_field_first">0</property>
  <property name="meta.media.progressive">1</property>
  <property name="set.test_audio">1</property>
  <property name="set.test_image">0</property>
 </chain>
 <playlist id="playlist2">
  <entry in="00:00:00.000" out="00:01:26.610" producer="chain4">
   <property name="kdenlive:id">4</property>
  </entry>
  <blank length="00:11:48.006"/>
  <entry in="00:15:50.217" out="00:36:29.613" producer="chain4">
   <property name="kdenlive:id">4</property>
  </entry>
  <blank length="00:04:17.476"/>
  <entry in="00:44:10.594" out="00:55:18.393" producer="chain4">
   <property name="kdenlive:id">4</property>
   <filter id="filter7" in="00:44:10.594" out="00:44:17.559">
    <property name="start">1</property>
    <property name="level">1</property>
    <property name="mlt_service">brightness</property>
    <property name="kdenlive_id">fade_from_black</property>
    <property name="alpha">00:00:00.000=0;00:00:06.965=1</property>
    <property name="kdenlive:collapsed">0</property>
   </filter>
  </entry>
  <blank length="00:08:43.252"/>
  <entry in="01:06:41.500" out="01:08:03.170" producer="chain4">
   <property name="kdenlive:id">4</property>
   <filter id="filter8" in="01:06:41.500" out="01:06:44.586">
    <property name="start">1</property>
    <property name="level">1</property>
    <property name="mlt_service">brightness</property>
    <property name="kdenlive_id">fade_from_black</property>
    <property name="alpha">00:00:00.000=0;00:00:03.086=1</property>
    <property name="kdenlive:collapsed">0</property>
   </filter>
  </entry>
  <blank length="00:01:29.529"/>
  <entry in="01:14:19.353" out="01:22:34.993" producer="chain4">
   <property name="kdenlive:id">4</property>
  </entry>
  <blank length="00:00:08.800"/>
  <entry in="01:24:22.773" out="01:24:37.287" producer="chain4">
   <property name="kdenlive:id">4</property>
  </entry>
  <blank length="00:00:01.043"/>
  <entry in="01:24:40.374" out="01:24:43.669" producer="chain4">
   <property name="kdenlive:id">4</property>
  </entry>
  <blank length="00:00:04.463"/>
  <entry in="01:24:53.220" out="01:25:25.776" producer="chain4">
   <property name="kdenlive:id">4</property>
  </entry>
  <blank length="00:00:17.059"/>
  <entry in="01:26:15.891" out="01:26:28.070" producer="chain4">
   <property name="kdenlive:id">4</property>
  </entry>
  <blank length="00:01:45.963"/>
  <entry in="01:28:36.078" out="01:29:25.651" producer="chain4">
   <property name="kdenlive:id">4</property>
  </entry>
  <blank length="00:00:00.584"/>
  <entry in="01:29:58.183" out="01:30:23.857" producer="chain4">
   <property name="kdenlive:id">4</property>
  </entry>
  <blank length="00:04:35.285"/>
  <entry in="01:37:07.090" out="01:38:37.496" producer="chain4">
   <property name="kdenlive:id">4</property>
  </entry>
  <blank length="00:00:17.768"/>
  <entry in="01:39:06.340" out="01:39:13.805" producer="chain4">
   <property name="kdenlive:id">4</property>
  </entry>
  <blank length="00:00:07.174"/>
  <entry in="01:39:40.457" out="01:40:14.723" producer="chain4">
   <property name="kdenlive:id">4</property>
  </entry>
  <blank length="00:00:53.720"/>
  <entry in="01:41:37.996" out="01:45:11.470" producer="chain4">
   <property name="kdenlive:id">4</property>
  </entry>
  <blank length="00:13:40.207"/>
  <entry in="01:59:08.926" out="01:59:31.698" producer="chain4">
   <property name="kdenlive:id">4</property>
   <filter id="filter11" in="01:59:08.926" out="01:59:15.224">
    <property name="start">1</property>
    <property name="level">1</property>
    <property name="mlt_service">brightness</property>
    <property name="kdenlive_id">fade_from_black</property>
    <property name="alpha">00:00:00.000=0;00:00:06.298=1</property>
    <property name="kdenlive:collapsed">0</property>
   </filter>
  </entry>
 </playlist>
 <chain id="chain5" out="02:06:47.631">
  <property name="length">182401</property>
  <property name="eof">pause</property>
  <property name="resource">Riddick.2013.1080p.BluRay.x264.YIFY.mp4</property>
  <property name="mlt_service">avformat-novalidate</property>
  <property name="seekable">1</property>
  <property name="audio_index">1</property>
  <property name="video_index">0</property>
  <property name="vstream">0</property>
  <property name="astream">0</property>
  <property name="kdenlive:control_uuid">{e80b47a4-3b8d-4a5d-b2cf-1ee175c48bb2}</property>
  <property name="kdenlive:id">4</property>
  <property name="kdenlive:clip_type">0</property>
  <property name="kdenlive:file_size">2097361940</property>
  <property name="kdenlive:file_hash">477949b6f7d78e0ebec11dbfda1a7ca5</property>
  <property name="kdenlive:folderid">-1</property>
  <property name="mute_on_pause">0</property>
  <property name="kdenlive:monitorPosition">171427</property>
  <property name="meta.media.nb_streams">2</property>
  <property name="meta.media.0.stream.type">video</property>
  <property name="meta.media.0.stream.frame_rate">23.976</property>
  <property name="meta.media.0.stream.sample_aspect_ratio">0</property>
  <property name="meta.media.0.codec.width">1920</property>
  <property name="meta.media.0.codec.height">800</property>
  <property name="meta.media.0.codec.rotate">0</property>
  <property name="meta.media.0.codec.pix_fmt">yuv420p</property>
  <property name="meta.media.0.codec.sample_aspect_ratio">0</property>
  <property name="meta.media.0.codec.colorspace">709</property>
  <property name="meta.media.0.codec.name">h264</property>
  <property name="meta.media.0.codec.long_name">H.264 / AVC / MPEG-4 AVC / MPEG-4 part 10</property>
  <property name="meta.media.0.codec.bit_rate">2107731</property>
  <property name="meta.attr.0.stream.creation_time.markup">2014-01-01T06:09:09.000000Z</property>
  <property name="meta.attr.0.stream.handler_name.markup">video.264#trackID=1:fps=23.976 - Imported with GPAC 0.5.0-rev</property>
  <property name="meta.attr.0.stream.vendor_id.markup">[0][0][0][0]</property>
  <property name="meta.media.1.stream.type">audio</property>
  <property name="meta.media.1.codec.sample_fmt">fltp</property>
  <property name="meta.media.1.codec.sample_rate">48000</property>
  <property name="meta.media.1.codec.channels">2</property>
  <property name="meta.media.1.codec.layout">stereo</property>
  <property name="meta.media.1.codec.name">aac</property>
  <property name="meta.media.1.codec.long_name">AAC (Advanced Audio Coding)</property>
  <property name="meta.media.1.codec.bit_rate">93710</property>
  <property name="meta.attr.1.stream.creation_time.markup">2014-01-01T06:09:34.000000Z</property>
  <property name="meta.attr.1.stream.language.markup">eng</property>
  <property name="meta.attr.1.stream.handler_name.markup">GPAC ISO Audio Handler</property>
  <property name="meta.attr.1.stream.vendor_id.markup">[0][0][0][0]</property>
  <property name="meta.attr.major_brand.markup">isom</property>
  <property name="meta.attr.minor_version.markup">1</property>
  <property name="meta.attr.compatible_brands.markup">isomavc1</property>
  <property name="meta.attr.creation_time.markup">2014-01-01T06:09:09.000000Z</property>
  <property name="meta.media.sample_aspect_num">1</property>
  <property name="meta.media.sample_aspect_den">1</property>
  <property name="meta.media.frame_rate_num">24000</property>
  <property name="meta.media.frame_rate_den">1001</property>
  <property name="meta.media.colorspace">709</property>
  <property name="meta.media.color_trc">2</property>
  <property name="meta.media.has_b_frames">2</property>
  <property name="meta.media.width">1920</property>
  <property name="meta.media.height">800</property>
  <property name="meta.media.aspect_ratio">1</property>
  <property name="meta.media.color_range">mpeg</property>
  <property name="xml">was here</property>
  <property name="meta.media.top_field_first">0</property>
  <property name="meta.media.progressive">1</property>
  <property name="set.test_audio">1</property>
  <property name="set.test_image">0</property>
 </chain>
 <producer id="producer2" in="00:00:00.000" out="04:13:35.285">
  <property name="length">364802</property>
  <property name="eof">pause</property>
  <property name="resource">0.500000:Riddick.2013.1080p.BluRay.x264.YIFY.mp4</property>
  <property name="aspect_ratio">1</property>
  <property name="meta.media.nb_streams">2</property>
  <property name="meta.media.0.stream.type">video</property>
  <property name="meta.media.0.stream.frame_rate">23.976</property>
  <property name="meta.media.0.stream.sample_aspect_ratio">0</property>
  <property name="meta.media.0.codec.width">1920</property>
  <property name="meta.media.0.codec.height">800</property>
  <property name="meta.media.0.codec.rotate">0</property>
  <property name="meta.media.0.codec.pix_fmt">yuv420p</property>
  <property name="meta.media.0.codec.sample_aspect_ratio">0</property>
  <property name="meta.media.0.codec.colorspace">709</property>
  <property name="meta.media.0.codec.name">h264</property>
  <property name="meta.media.0.codec.long_name">H.264 / AVC / MPEG-4 AVC / MPEG-4 part 10</property>
  <property name="meta.media.0.codec.bit_rate">2107731</property>
  <property name="meta.attr.0.stream.creation_time.markup">2014-01-01T06:09:09.000000Z</property>
  <property name="meta.attr.0.stream.handler_name.markup">video.264#trackID=1:fps=23.976 - Imported with GPAC 0.5.0-rev</property>
  <property name="meta.attr.0.stream.vendor_id.markup">[0][0][0][0]</property>
  <property name="meta.media.1.stream.type">audio</property>
  <property name="meta.media.1.codec.sample_fmt">fltp</property>
  <property name="meta.media.1.codec.sample_rate">48000</property>
  <property name="meta.media.1.codec.channels">2</property>
  <property name="meta.media.1.codec.layout">stereo</property>
  <property name="meta.media.1.codec.name">aac</property>
  <property name="meta.media.1.codec.long_name">AAC (Advanced Audio Coding)</property>
  <property name="meta.media.1.codec.bit_rate">93710</property>
  <property name="meta.attr.1.stream.creation_time.markup">2014-01-01T06:09:34.000000Z</property>
  <property name="meta.attr.1.stream.language.markup">eng</property>
  <property name="meta.attr.1.stream.handler_name.markup">GPAC ISO Audio Handler</property>
  <property name="meta.attr.1.stream.vendor_id.markup">[0][0][0][0]</property>
  <property name="meta.attr.major_brand.markup">isom</property>
  <property name="meta.attr.minor_version.markup">1</property>
  <property name="meta.attr.compatible_brands.markup">isomavc1</property>
  <property name="meta.attr.creation_time.markup">2014-01-01T06:09:09.000000Z</property>
  <property name="seekable">1</property>
  <property name="meta.media.sample_aspect_num">1</property>
  <property name="meta.media.sample_aspect_den">1</property>
  <property name="audio_index">1</property>
  <property name="video_index">0</property>
  <property name="warp_speed">0.5</property>
  <property name="warp_resource">Riddick.2013.1080p.BluRay.x264.YIFY.mp4</property>
  <property name="mlt_service">timewarp</property>
  <property name="kdenlive:control_uuid">{e80b47a4-3b8d-4a5d-b2cf-1ee175c48bb2}</property>
  <property name="vstream">0</property>
  <property name="astream">0</property>
  <property name="set.test_audio">1</property>
  <property name="set.test_image">0</property>
  <property name="kdenlive:id">4</property>
  <property name="warp_pitch">1</property>
  <property name="meta.media.frame_rate_num">24000</property>
  <property name="meta.media.frame_rate_den">1001</property>
  <property name="meta.media.colorspace">709</property>
  <property name="meta.media.color_trc">2</property>
  <property name="meta.media.has_b_frames">2</property>
  <property name="meta.media.width">1920</property>
  <property name="meta.media.height">800</property>
  <property name="meta.media.aspect_ratio">1</property>
  <property name="meta.media.color_range">mpeg</property>
  <property name="meta.media.top_field_first">0</property>
  <property name="meta.media.progressive">1</property>
 </producer>
 <playlist id="playlist3">
  <blank length="00:01:26.652"/>
  <entry in="00:01:36.620" out="00:13:25.567" producer="chain5">
   <property name="kdenlive:id">4</property>
  </entry>
  <blank length="00:20:38.455"/>
  <entry in="00:36:32.407" out="00:40:50.842" producer="chain5">
   <property name="kdenlive:id">4</property>
   <filter id="filter6" in="00:40:49.424" out="00:40:50.884">
    <property name="start">1</property>
    <property name="level">1</property>
    <property name="mlt_service">brightness</property>
    <property name="kdenlive_id">fade_to_black</property>
    <property name="alpha">0=1;-1=0</property>
    <property name="kdenlive:collapsed">0</property>
   </filter>
  </entry>
  <blank length="00:11:05.839"/>
  <entry in="00:55:37.454" out="01:04:22.648" producer="chain5">
   <property name="kdenlive:id">4</property>
  </entry>
  <blank length="00:01:19.728"/>
  <entry in="01:08:59.142" out="01:10:30.614" producer="chain5">
   <property name="kdenlive:id">4</property>
   <filter id="filter9" in="01:08:59.142" out="01:09:04.296">
    <property name="start">1</property>
    <property name="level">1</property>
    <property name="mlt_service">brightness</property>
    <property name="kdenlive_id">fade_from_black</property>
    <property name="alpha">00:00:00.000=0;00:00:05.172=1</property>
   </filter>
  </entry>
  <blank length="00:08:13.722"/>
  <entry in="01:22:34.034" out="01:22:44.795" producer="chain5">
   <property name="kdenlive:id">4</property>
  </entry>
  <blank length="00:00:12.554"/>
  <entry in="01:24:36.328" out="01:24:39.331" producer="chain5">
   <property name="kdenlive:id">4</property>
  </entry>
  <blank length="00:00:01.335"/>
  <entry in="01:24:42.709" out="01:24:49.132" producer="chain5">
   <property name="kdenlive:id">4</property>
  </entry>
  <blank length="00:00:30.614"/>
  <entry in="01:25:26.818" out="01:25:45.837" producer="chain5">
   <property name="kdenlive:id">4</property>
  </entry>
  <blank length="00:00:10.219"/>
  <entry in="01:26:27.110" out="01:28:15.015" producer="chain5">
   <property name="kdenlive:id">4</property>
  </entry>
  <blank length="00:00:47.631"/>
  <entry in="02:59:55.222" out="02:59:57.766" producer="producer2">
   <property name="kdenlive:id">4</property>
  </entry>
  <blank length="00:00:23.690"/>
  <entry in="01:31:27.319" out="01:36:04.546" producer="chain5">
   <property name="kdenlive:id">4</property>
  </entry>
  <blank length="00:01:28.487"/>
  <entry in="01:38:36.536" out="01:38:56.265" producer="chain5">
   <property name="kdenlive:id">4</property>
  </entry>
  <blank length="00:00:05.505"/>
  <entry in="01:39:32.282" out="01:39:41.416" producer="chain5">
   <property name="kdenlive:id">4</property>
  </entry>
  <blank length="00:00:32.324"/>
  <entry in="01:40:32.282" out="01:41:27.945" producer="chain5">
   <property name="kdenlive:id">4</property>
  </entry>
  <blank length="00:03:31.531"/>
  <entry in="01:45:21.063" out="01:59:03.212" producer="chain5">
   <property name="kdenlive:id">4</property>
   <filter id="filter10" in="01:59:00.334" out="01:59:03.253">
    <property name="start">1</property>
    <property name="level">1</property>
    <property name="mlt_service">brightness</property>
    <property name="kdenlive_id">fade_to_black</property>
    <property name="alpha">00:00:00.000=1;00:00:02.920=0</property>
    <property name="kdenlive:collapsed">0</property>
   </filter>
  </entry>
  <blank length="00:00:20.812"/>
  <entry in="01:59:30.739" out="02:06:47.631" producer="chain5">
   <property name="kdenlive:id">4</property>
  </entry>
 </playlist>
 <tractor id="tractor1" in="00:00:00.000" out="01:46:44.169">
  <property name="kdenlive:trackheight">84</property>
  <property name="kdenlive:timeline_active">1</property>
  <property name="kdenlive:collapsed">0</property>
  <property name="kdenlive:thumbs_format"/>
  <property name="kdenlive:audio_rec"/>
  <track hide="audio" producer="playlist2"/>
  <track hide="audio" producer="playlist3"/>
  <transition id="transition31" in="00:13:14.640" out="00:13:15.641">
   <property name="a_track">1</property>
   <property name="b_track">0</property>
   <property name="factory">loader</property>
   <property name="resource"/>
   <property name="mlt_service">luma</property>
   <property name="kdenlive_id">luma</property>
   <property name="kdenlive:mixcut">12</property>
   <property name="softness">0</property>
   <property name="alpha_over">1</property>
   <property name="fix_background_alpha">1</property>
   <property name="invert">0</property>
   <property name="reverse">0</property>
  </transition>
  <transition id="transition32" in="00:38:11.553" out="00:38:12.554">
   <property name="a_track">1</property>
   <property name="b_track">0</property>
   <property name="factory">loader</property>
   <property name="resource"/>
   <property name="mlt_service">luma</property>
   <property name="kdenlive_id">luma</property>
   <property name="kdenlive:mixcut">12</property>
   <property name="softness">0</property>
   <property name="alpha_over">1</property>
   <property name="fix_background_alpha">1</property>
   <property name="invert">0</property>
   <property name="reverse">0</property>
  </transition>
  <transition id="transition33" in="00:49:18.393" out="00:49:19.394">
   <property name="a_track">0</property>
   <property name="b_track">1</property>
   <property name="factory">loader</property>
   <property name="resource"/>
   <property name="mlt_service">luma</property>
   <property name="kdenlive_id">luma</property>
   <property name="kdenlive:mixcut">12</property>
   <property name="softness">0</property>
   <property name="alpha_over">1</property>
   <property name="fix_background_alpha">1</property>
   <property name="invert">0</property>
   <property name="reverse">0</property>
  </transition>
  <transition id="transition34" in="00:58:02.628" out="00:58:03.629">
   <property name="a_track">1</property>
   <property name="b_track">0</property>
   <property name="factory">loader</property>
   <property name="resource"/>
   <property name="mlt_service">luma</property>
   <property name="kdenlive_id">luma</property>
   <property name="kdenlive:mixcut">12</property>
   <property name="softness">0</property>
   <property name="alpha_over">1</property>
   <property name="fix_background_alpha">1</property>
   <property name="invert">0</property>
   <property name="reverse">0</property>
  </transition>
  <transition id="transition35" in="00:59:23.315" out="00:59:24.316">
   <property name="a_track">0</property>
   <property name="b_track">1</property>
   <property name="factory">loader</property>
   <property name="resource"/>
   <property name="mlt_service">luma</property>
   <property name="kdenlive_id">luma</property>
   <property name="kdenlive:mixcut">12</property>
   <property name="softness">0</property>
   <property name="alpha_over">1</property>
   <property name="fix_background_alpha">1</property>
   <property name="invert">0</property>
   <property name="reverse">0</property>
  </transition>
  <transition id="transition36" in="01:00:53.845" out="01:00:54.846">
   <property name="a_track">1</property>
   <property name="b_track">0</property>
   <property name="factory">loader</property>
   <property name="resource"/>
   <property name="mlt_service">luma</property>
   <property name="kdenlive_id">luma</property>
   <property name="kdenlive:mixcut">12</property>
   <property name="softness">0</property>
   <property name="alpha_over">1</property>
   <property name="fix_background_alpha">1</property>
   <property name="invert">0</property>
   <property name="reverse">0</property>
  </transition>
  <transition id="transition37" in="01:09:08.550" out="01:09:09.551">
   <property name="a_track">0</property>
   <property name="b_track">1</property>
   <property name="factory">loader</property>
   <property name="resource"/>
   <property name="mlt_service">luma</property>
   <property name="kdenlive_id">luma</property>
   <property name="kdenlive:mixcut">12</property>
   <property name="softness">0</property>
   <property name="alpha_over">1</property>
   <property name="fix_background_alpha">1</property>
   <property name="invert">0</property>
   <property name="reverse">0</property>
  </transition>
  <transition id="transition38" in="01:09:18.352" out="01:09:19.353">
   <property name="a_track">1</property>
   <property name="b_track">0</property>
   <property name="factory">loader</property>
   <property name="resource"/>
   <property name="mlt_service">luma</property>
   <property name="kdenlive_id">luma</property>
   <property name="kdenlive:mixcut">12</property>
   <property name="softness">0</property>
   <property name="alpha_over">1</property>
   <property name="fix_background_alpha">1</property>
   <property name="invert">0</property>
   <property name="reverse">0</property>
  </transition>
  <transition id="transition39" in="01:09:31.907" out="01:09:32.908">
   <property name="a_track">0</property>
   <property name="b_track">1</property>
   <property name="factory">loader</property>
   <property name="resource"/>
   <property name="mlt_service">luma</property>
   <property name="kdenlive_id">luma</property>
   <property name="kdenlive:mixcut">12</property>
   <property name="softness">0</property>
   <property name="alpha_over">1</property>
   <property name="fix_background_alpha">1</property>
   <property name="invert">0</property>
   <property name="reverse">0</property>
  </transition>
  <transition id="transition40" in="01:09:33.951" out="01:09:34.952">
   <property name="a_track">1</property>
   <property name="b_track">0</property>
   <property name="factory">loader</property>
   <property name="resource"/>
   <property name="mlt_service">luma</property>
   <property name="kdenlive_id">luma</property>
   <property name="kdenlive:mixcut">12</property>
   <property name="softness">0</property>
   <property name="alpha_over">1</property>
   <property name="fix_background_alpha">1</property>
   <property name="invert">0</property>
   <property name="reverse">0</property>
  </transition>
  <transition id="transition41" in="01:09:36.286" out="01:09:37.287">
   <property name="a_track">0</property>
   <property name="b_track">1</property>
   <property name="factory">loader</property>
   <property name="resource"/>
   <property name="mlt_service">luma</property>
   <property name="kdenlive_id">luma</property>
   <property name="kdenlive:mixcut">12</property>
   <property name="softness">0</property>
   <property name="alpha_over">1</property>
   <property name="fix_background_alpha">1</property>
   <property name="invert">0</property>
   <property name="reverse">0</property>
  </transition>
  <transition id="transition42" in="01:09:41.750" out="01:09:42.751">
   <property name="a_track">1</property>
   <property name="b_track">0</property>
   <property name="factory">loader</property>
   <property name="resource"/>
   <property name="mlt_service">luma</property>
   <property name="kdenlive_id">luma</property>
   <property name="kdenlive:mixcut">12</property>
   <property name="softness">0</property>
   <property name="alpha_over">1</property>
   <property name="fix_background_alpha">1</property>
   <property name="invert">0</property>
   <property name="reverse">0</property>
  </transition>
  <transition id="transition43" in="01:10:13.388" out="01:10:14.389">
   <property name="a_track">0</property>
   <property name="b_track">1</property>
   <property name="factory">loader</property>
   <property name="resource"/>
   <property name="mlt_service">luma</property>
   <property name="kdenlive_id">luma</property>
   <property name="kdenlive:mixcut">12</property>
   <property name="softness">0</property>
   <property name="alpha_over">1</property>
   <property name="fix_background_alpha">1</property>
   <property name="invert">0</property>
   <property name="reverse">0</property>
  </transition>
  <transition id="transition44" in="01:10:31.448" out="01:10:32.449">
   <property name="a_track">1</property>
   <property name="b_track">0</property>
   <property name="factory">loader</property>
   <property name="resource"/>
   <property name="mlt_service">luma</property>
   <property name="kdenlive_id">luma</property>
   <property name="kdenlive:mixcut">12</property>
   <property name="softness">0</property>
   <property name="alpha_over">1</property>
   <property name="fix_background_alpha">1</property>
   <property name="invert">0</property>
   <property name="reverse">0</property>
  </transition>
  <transition id="transition45" in="01:10:42.668" out="01:10:43.669">
   <property name="a_track">0</property>
   <property name="b_track">1</property>
   <property name="factory">loader</property>
   <property name="resource"/>
   <property name="mlt_service">luma</property>
   <property name="kdenlive_id">luma</property>
   <property name="kdenlive:mixcut">12</property>
   <property name="softness">0</property>
   <property name="alpha_over">1</property>
   <property name="fix_background_alpha">1</property>
   <property name="invert">0</property>
   <property name="reverse">0</property>
  </transition>
  <transition id="transition46" in="01:12:29.613" out="01:12:30.614">
   <property name="a_track">1</property>
   <property name="b_track">0</property>
   <property name="factory">loader</property>
   <property name="resource"/>
   <property name="mlt_service">luma</property>
   <property name="kdenlive_id">luma</property>
   <property name="kdenlive:mixcut">12</property>
   <property name="softness">0</property>
   <property name="alpha_over">1</property>
   <property name="fix_background_alpha">1</property>
   <property name="invert">0</property>
   <property name="reverse">0</property>
  </transition>
  <transition id="transition47" in="01:13:18.227" out="01:13:19.228">
   <property name="a_track">0</property>
   <property name="b_track">1</property>
   <property name="factory">loader</property>
   <property name="resource"/>
   <property name="mlt_service">luma</property>
   <property name="kdenlive_id">luma</property>
   <property name="kdenlive:mixcut">12</property>
   <property name="softness">0</property>
   <property name="alpha_over">1</property>
   <property name="fix_background_alpha">1</property>
   <property name="invert">0</property>
   <property name="reverse">0</property>
  </transition>
  <transition id="transition48" in="01:13:19.811" out="01:13:20.812">
   <property name="a_track">1</property>
   <property name="b_track">0</property>
   <property name="factory">loader</property>
   <property name="resource"/>
   <property name="mlt_service">luma</property>
   <property name="kdenlive_id">luma</property>
   <property name="kdenlive:mixcut">12</property>
   <property name="softness">0</property>
   <property name="alpha_over">1</property>
   <property name="fix_background_alpha">1</property>
   <property name="invert">0</property>
   <property name="reverse">0</property>
  </transition>
  <transition id="transition49" in="01:13:44.503" out="01:13:45.504">
   <property name="a_track">0</property>
   <property name="b_track">1</property>
   <property name="factory">loader</property>
   <property name="resource"/>
   <property name="mlt_service">luma</property>
   <property name="kdenlive_id">luma</property>
   <property name="kdenlive:mixcut">12</property>
   <property name="softness">0</property>
   <property name="alpha_over">1</property>
   <property name="fix_background_alpha">1</property>
   <property name="invert">0</property>
   <property name="reverse">0</property>
  </transition>
  <transition id="transition50" in="01:18:20.771" out="01:18:21.772">
   <property name="a_track">1</property>
   <property name="b_track">0</property>
   <property name="factory">loader</property>
   <property name="resource"/>
   <property name="mlt_service">luma</property>
   <property name="kdenlive_id">luma</property>
   <property name="kdenlive:mixcut">12</property>
   <property name="softness">0</property>
   <property name="alpha_over">1</property>
   <property name="fix_background_alpha">1</property>
   <property name="invert">0</property>
   <property name="reverse">0</property>
  </transition>
  <transition id="transition51" in="01:19:50.259" out="01:19:51.260">
   <property name="a_track">0</property>
   <property name="b_track">1</property>
   <property name="factory">loader</property>
   <property name="resource"/>
   <property name="mlt_service">luma</property>
   <property name="kdenlive_id">luma</property>
   <property name="kdenlive:mixcut">12</property>
   <property name="softness">0</property>
   <property name="alpha_over">1</property>
   <property name="fix_background_alpha">1</property>
   <property name="invert">0</property>
   <property name="reverse">0</property>
  </transition>
  <transition id="transition52" in="01:20:09.009" out="01:20:10.010">
   <property name="a_track">1</property>
   <property name="b_track">0</property>
   <property name="factory">loader</property>
   <property name="resource"/>
   <property name="mlt_service">luma</property>
   <property name="kdenlive_id">luma</property>
   <property name="kdenlive:mixcut">12</property>
   <property name="softness">0</property>
   <property name="alpha_over">1</property>
   <property name="fix_background_alpha">1</property>
   <property name="invert">0</property>
   <property name="reverse">0</property>
  </transition>
  <transition id="transition53" in="01:20:15.515" out="01:20:16.516">
   <property name="a_track">0</property>
   <property name="b_track">1</property>
   <property name="factory">loader</property>
   <property name="resource"/>
   <property name="mlt_service">luma</property>
   <property name="kdenlive_id">luma</property>
   <property name="kdenlive:mixcut">12</property>
   <property name="softness">0</property>
   <property name="alpha_over">1</property>
   <property name="fix_background_alpha">1</property>
   <property name="invert">0</property>
   <property name="reverse">0</property>
  </transition>
  <transition id="transition54" in="01:20:23.690" out="01:20:24.691">
   <property name="a_track">1</property>
   <property name="b_track">0</property>
   <property name="factory">loader</property>
   <property name="resource"/>
   <property name="mlt_service">luma</property>
   <property name="kdenlive_id">luma</property>
   <property name="kdenlive:mixcut">12</property>
   <property name="softness">0</property>
   <property name="alpha_over">1</property>
   <property name="fix_background_alpha">1</property>
   <property name="invert">0</property>
   <property name="reverse">0</property>
  </transition>
  <transition id="transition55" in="01:20:57.015" out="01:20:58.016">
   <property name="a_track">0</property>
   <property name="b_track">1</property>
   <property name="factory">loader</property>
   <property name="resource"/>
   <property name="mlt_service">luma</property>
   <property name="kdenlive_id">luma</property>
   <property name="kdenlive:mixcut">12</property>
   <property name="softness">0</property>
   <property name="alpha_over">1</property>
   <property name="fix_background_alpha">1</property>
   <property name="invert">0</property>
   <property name="reverse">0</property>
  </transition>
  <transition id="transition56" in="01:21:51.760" out="01:21:52.761">
   <property name="a_track">1</property>
   <property name="b_track">0</property>
   <property name="factory">loader</property>
   <property name="resource"/>
   <property name="mlt_service">luma</property>
   <property name="kdenlive_id">luma</property>
   <property name="kdenlive:mixcut">12</property>
   <property name="softness">0</property>
   <property name="alpha_over">1</property>
   <property name="fix_background_alpha">1</property>
   <property name="invert">0</property>
   <property name="reverse">0</property>
  </transition>
  <transition id="transition57" in="01:25:24.233" out="01:25:25.234">
   <property name="a_track">0</property>
   <property name="b_track">1</property>
   <property name="factory">loader</property>
   <property name="resource"/>
   <property name="mlt_service">luma</property>
   <property name="kdenlive_id">luma</property>
   <property name="kdenlive:mixcut">12</property>
   <property name="softness">0</property>
   <property name="alpha_over">1</property>
   <property name="fix_background_alpha">1</property>
   <property name="invert">0</property>
   <property name="reverse">0</property>
  </transition>
  <transition id="transition58" in="01:39:05.464" out="01:39:06.465">
   <property name="a_track">1</property>
   <property name="b_track">0</property>
   <property name="factory">loader</property>
   <property name="resource"/>
   <property name="mlt_service">luma</property>
   <property name="kdenlive_id">luma</property>
   <property name="kdenlive:mixcut">12</property>
   <property name="softness">0</property>
   <property name="alpha_over">1</property>
   <property name="fix_background_alpha">1</property>
   <property name="invert">0</property>
   <property name="reverse">0</property>
  </transition>
  <transition id="transition59" in="01:39:27.277" out="01:39:28.278">
   <property name="a_track">0</property>
   <property name="b_track">1</property>
   <property name="factory">loader</property>
   <property name="resource"/>
   <property name="mlt_service">luma</property>
   <property name="kdenlive_id">luma</property>
   <property name="kdenlive:mixcut">12</property>
   <property name="softness">0</property>
   <property name="alpha_over">1</property>
   <property name="fix_background_alpha">1</property>
   <property name="invert">0</property>
   <property name="reverse">0</property>
  </transition>
 </tractor>
 <tractor id="tractor2" in="00:00:00.000" out="01:46:44.169">
  <property name="kdenlive:duration">01:46:44.211</property>
  <property name="kdenlive:maxduration">153546</property>
  <property name="kdenlive:clipname">Sequence 1</property>
  <property name="kdenlive:description"/>
  <property name="kdenlive:uuid">{4b126a86-8850-45da-8263-caa46739adeb}</property>
  <property name="kdenlive:producer_type">17</property>
  <property name="kdenlive:control_uuid">{4b126a86-8850-45da-8263-caa46739adeb}</property>
  <property name="kdenlive:id">3</property>
  <property name="kdenlive:clip_type">0</property>
  <property name="kdenlive:file_hash">a3a467c23785df261cf8eb780997a6b4</property>
  <property name="kdenlive:folderid">2</property>
  <property name="kdenlive:sequenceproperties.activeTrack">1</property>
  <property name="kdenlive:sequenceproperties.audioTarget">1</property>
  <property name="kdenlive:sequenceproperties.disablepreview">0</property>
  <property name="kdenlive:sequenceproperties.documentuuid">{4b126a86-8850-45da-8263-caa46739adeb}</property>
  <property name="kdenlive:sequenceproperties.globalSubtitleStyles">[
]
</property>
  <property name="kdenlive:sequenceproperties.hasAudio">1</property>
  <property name="kdenlive:sequenceproperties.hasVideo">1</property>
  <property name="kdenlive:sequenceproperties.hidesubtitle">0</property>
  <property name="kdenlive:sequenceproperties.position">103625</property>
  <property name="kdenlive:sequenceproperties.scrollPos">3097</property>
  <property name="kdenlive:sequenceproperties.subtitlesList">[
    {
        "file": "C:/Users/kado/AppData/Local/Temp/1750806985643-{77a78c80-31ff-4353-9b51-8a7a55d34f04}.ass",
        "id": 0,
        "name": "Subtitles"
    }
]
</property>
  <property name="kdenlive:sequenceproperties.tracks">4</property>
  <property name="kdenlive:sequenceproperties.tracksCount">2</property>
  <property name="kdenlive:sequenceproperties.verticalzoom">1</property>
  <property name="kdenlive:sequenceproperties.videoTarget">2</property>
  <property name="kdenlive:sequenceproperties.zonein">0</property>
  <property name="kdenlive:sequenceproperties.zoneout">75</property>
  <property name="kdenlive:sequenceproperties.zoom">15</property>
  <property name="kdenlive:sequenceproperties.groups">[
    {
        "children": [
            {
                "data": "0:0:-1",
                "leaf": "clip",
                "type": "Leaf"
            },
            {
                "data": "1:0:-1",
                "leaf": "clip",
                "type": "Leaf"
            }
        ],
        "type": "AVSplit"
    },
    {
        "children": [
            {
                "data": "-2:16887:0",
                "leaf": "subtitle",
                "type": "Leaf"
            },
            {
                "data": "-2:17079:0",
                "leaf": "subtitle",
                "type": "Leaf"
            },
            {
                "data": "-2:29933:0",
                "leaf": "subtitle",
                "type": "Leaf"
            },
            {
                "data": "-2:24557:0",
                "leaf": "subtitle",
                "type": "Leaf"
            },
            {
                "data": "-2:17810:0",
                "leaf": "subtitle",
                "type": "Leaf"
            },
            {
                "data": "-2:34376:0",
                "leaf": "subtitle",
                "type": "Leaf"
            },
            {
                "data": "-2:21255:0",
                "leaf": "subtitle",
                "type": "Leaf"
            },
            {
                "data": "-2:24459:0",
                "leaf": "subtitle",
                "type": "Leaf"
            },
            {
                "data": "-2:17728:0",
                "leaf": "subtitle",
                "type": "Leaf"
            },
            {
                "data": "-2:24382:0",
                "leaf": "subtitle",
                "type": "Leaf"
            },
            {
                "data": "-2:17248:0",
                "leaf": "subtitle",
                "type": "Leaf"
            },
            {
                "data": "-2:32576:0",
                "leaf": "subtitle",
                "type": "Leaf"
            },
            {
                "data": "-2:32450:0",
                "leaf": "subtitle",
                "type": "Leaf"
            },
            {
                "data": "-2:24329:0",
                "leaf": "subtitle",
                "type": "Leaf"
            },
            {
                "data": "-2:17153:0",
                "leaf": "subtitle",
                "type": "Leaf"
            },
            {
                "data": "-2:19741:0",
                "leaf": "subtitle",
                "type": "Leaf"
            },
            {
                "data": "-2:19500:0",
                "leaf": "subtitle",
                "type": "Leaf"
            },
            {
                "data": "-2:22839:0",
                "leaf": "subtitle",
                "type": "Leaf"
            },
            {
                "data": "-2:48456:0",
                "leaf": "subtitle",
                "type": "Leaf"
            },
            {
                "data": "-2:22471:0",
                "leaf": "subtitle",
                "type": "Leaf"
            },
            {
                "data": "-2:15664:0",
                "leaf": "subtitle",
                "type": "Leaf"
            },
            {
                "data": "-2:22597:0",
                "leaf": "subtitle",
                "type": "Leaf"
            },
            {
                "data": "-2:25734:0",
                "leaf": "subtitle",
                "type": "Leaf"
            },
            {
                "data": "-2:18684:0",
                "leaf": "subtitle",
                "type": "Leaf"
            },
            {
                "data": "-2:25146:0",
                "leaf": "subtitle",
                "type": "Leaf"
            },
            {
                "data": "-2:25666:0",
                "leaf": "subtitle",
                "type": "Leaf"
            },
            {
                "data": "-2:16456:0",
                "leaf": "subtitle",
                "type": "Leaf"
            },
            {
                "data": "-2:19575:0",
                "leaf": "subtitle",
                "type": "Leaf"
            },
            {
                "data": "-2:32299:0",
                "leaf": "subtitle",
                "type": "Leaf"
            },
            {
                "data": "-2:18776:0",
                "leaf": "subtitle",
                "type": "Leaf"
            },
            {
                "data": "-2:24775:0",
                "leaf": "subtitle",
                "type": "Leaf"
            },
            {
                "data": "-2:44177:0",
                "leaf": "subtitle",
                "type": "Leaf"
            },
            {
                "data": "-2:15929:0",
                "leaf": "subtitle",
                "type": "Leaf"
            },
            {
                "data": "-2:20154:0",
                "leaf": "subtitle",
                "type": "Leaf"
            },
            {
                "data": "-2:24623:0",
                "leaf": "subtitle",
                "type": "Leaf"
            },
            {
                "data": "-2:40223:0",
                "leaf": "subtitle",
                "type": "Leaf"
            },
            {
                "data": "-2:15834:0",
                "leaf": "subtitle",
                "type": "Leaf"
            },
            {
                "data": "-2:20066:0",
                "leaf": "subtitle",
                "type": "Leaf"
            },
            {
                "data": "-2:19659:0",
                "leaf": "subtitle",
                "type": "Leaf"
            },
            {
                "data": "-2:16686:0",
                "leaf": "subtitle",
                "type": "Leaf"
            },
            {
                "data": "-2:16631:0",
                "leaf": "subtitle",
                "type": "Leaf"
            },
            {
                "data": "-2:20259:0",
                "leaf": "subtitle",
                "type": "Leaf"
            },
            {
                "data": "-2:16825:0",
                "leaf": "subtitle",
                "type": "Leaf"
            },
            {
                "data": "-2:38407:0",
                "leaf": "subtitle",
                "type": "Leaf"
            },
            {
                "data": "-2:21378:0",
                "leaf": "subtitle",
                "type": "Leaf"
            },
            {
                "data": "-2:18977:0",
                "leaf": "subtitle",
                "type": "Leaf"
            },
            {
                "data": "-2:44513:0",
                "leaf": "subtitle",
                "type": "Leaf"
            },
            {
                "data": "-2:24921:0",
                "leaf": "subtitle",
                "type": "Leaf"
            },
            {
                "data": "-2:25595:0",
                "leaf": "subtitle",
                "type": "Leaf"
            },
            {
                "data": "-2:22109:0",
                "leaf": "subtitle",
                "type": "Leaf"
            },
            {
                "data": "-2:47442:0",
                "leaf": "subtitle",
                "type": "Leaf"
            },
            {
                "data": "-2:22019:0",
                "leaf": "subtitle",
                "type": "Leaf"
            },
            {
                "data": "-2:25019:0",
                "leaf": "subtitle",
                "type": "Leaf"
            },
            {
                "data": "-2:46553:0",
                "leaf": "subtitle",
                "type": "Leaf"
            },
            {
                "data": "-2:21943:0",
                "leaf": "subtitle",
                "type": "Leaf"
            },
            {
                "data": "-2:22182:0",
                "leaf": "subtitle",
                "type": "Leaf"
            },
            {
                "data": "-2:23039:0",
                "leaf": "subtitle",
                "type": "Leaf"
            },
            {
                "data": "-2:23260:0",
                "leaf": "subtitle",
                "type": "Leaf"
            },
            {
                "data": "-2:19817:0",
                "leaf": "subtitle",
                "type": "Leaf"
            },
            {
                "data": "-2:22259:0",
                "leaf": "subtitle",
                "type": "Leaf"
            },
            {
                "data": "-2:18450:0",
                "leaf": "subtitle",
                "type": "Leaf"
            },
            {
                "data": "-2:29785:0",
                "leaf": "subtitle",
                "type": "Leaf"
            },
            {
                "data": "-2:20587:0",
                "leaf": "subtitle",
                "type": "Leaf"
            },
            {
                "data": "-2:18310:0",
                "leaf": "subtitle",
                "type": "Leaf"
            },
            {
                "data": "-2:18131:0",
                "leaf": "subtitle",
                "type": "Leaf"
            },
            {
                "data": "-2:29672:0",
                "leaf": "subtitle",
                "type": "Leaf"
            },
            {
                "data": "-2:20499:0",
                "leaf": "subtitle",
                "type": "Leaf"
            },
            {
                "data": "-2:48309:0",
                "leaf": "subtitle",
                "type": "Leaf"
            },
            {
                "data": "-2:26350:0",
                "leaf": "subtitle",
                "type": "Leaf"
            },
            {
                "data": "-2:48200:0",
                "leaf": "subtitle",
                "type": "Leaf"
            },
            {
                "data": "-2:26486:0",
                "leaf": "subtitle",
                "type": "Leaf"
            },
            {
                "data": "-2:22365:0",
                "leaf": "subtitle",
                "type": "Leaf"
            },
            {
                "data": "-2:48027:0",
                "leaf": "subtitle",
                "type": "Leaf"
            },
            {
                "data": "-2:29458:0",
                "leaf": "subtitle",
                "type": "Leaf"
            },
            {
                "data": "-2:20394:0",
                "leaf": "subtitle",
                "type": "Leaf"
            },
            {
                "data": "-2:28920:0",
                "leaf": "subtitle",
                "type": "Leaf"
            },
            {
                "data": "-2:19440:0",
                "leaf": "subtitle",
                "type": "Leaf"
            },
            {
                "children": [
                    {
                        "data": "1:19052:-1",
                        "leaf": "clip",
                        "type": "Leaf"
                    },
                    {
                        "data": "0:19052:-1",
                        "leaf": "clip",
                        "type": "Leaf"
                    }
                ],
                "type": "AVSplit"
            },
            {
                "data": "-2:18590:0",
                "leaf": "subtitle",
                "type": "Leaf"
            },
            {
                "data": "-2:23419:0",
                "leaf": "subtitle",
                "type": "Leaf"
            },
            {
                "data": "-2:29253:0",
                "leaf": "subtitle",
                "type": "Leaf"
            },
            {
                "data": "-2:29108:0",
                "leaf": "subtitle",
                "type": "Leaf"
            },
            {
                "data": "-2:23322:0",
                "leaf": "subtitle",
                "type": "Leaf"
            },
            {
                "data": "-2:48533:0",
                "leaf": "subtitle",
                "type": "Leaf"
            },
            {
                "data": "-2:26581:0",
                "leaf": "subtitle",
                "type": "Leaf"
            },
            {
                "data": "-2:23128:0",
                "leaf": "subtitle",
                "type": "Leaf"
            },
            {
                "data": "-2:48716:0",
                "leaf": "subtitle",
                "type": "Leaf"
            },
            {
                "data": "-2:28833:0",
                "leaf": "subtitle",
                "type": "Leaf"
            },
            {
                "data": "-2:29195:0",
                "leaf": "subtitle",
                "type": "Leaf"
            },
            {
                "data": "-2:23366:0",
                "leaf": "subtitle",
                "type": "Leaf"
            },
            {
                "data": "-2:29345:0",
                "leaf": "subtitle",
                "type": "Leaf"
            },
            {
                "data": "-2:47970:0",
                "leaf": "subtitle",
                "type": "Leaf"
            },
            {
                "data": "-2:18042:0",
                "leaf": "subtitle",
                "type": "Leaf"
            },
            {
                "data": "-2:21610:0",
                "leaf": "subtitle",
                "type": "Leaf"
            },
            {
                "data": "-2:23691:0",
                "leaf": "subtitle",
                "type": "Leaf"
            },
            {
                "data": "-2:23633:0",
                "leaf": "subtitle",
                "type": "Leaf"
            },
            {
                "data": "-2:25830:0",
                "leaf": "subtitle",
                "type": "Leaf"
            },
            {
                "children": [
                    {
                        "data": "0:2065:-1",
                        "leaf": "clip",
                        "type": "Leaf"
                    },
                    {
                        "data": "1:2077:-1",
                        "leaf": "clip",
                        "type": "Leaf"
                    }
                ],
                "type": "AVSplit"
            },
            {
                "data": "-2:19368:0",
                "leaf": "subtitle",
                "type": "Leaf"
            },
            {
                "data": "-2:26092:0",
                "leaf": "subtitle",
                "type": "Leaf"
            },
            {
                "data": "-2:25945:0",
                "leaf": "subtitle",
                "type": "Leaf"
            },
            {
                "data": "-2:47919:0",
                "leaf": "subtitle",
                "type": "Leaf"
            },
            {
                "data": "-2:45122:0",
                "leaf": "subtitle",
                "type": "Leaf"
            },
            {
                "data": "-2:21831:0",
                "leaf": "subtitle",
                "type": "Leaf"
            },
            {
                "data": "-2:18195:0",
                "leaf": "subtitle",
                "type": "Leaf"
            },
            {
                "data": "-2:47848:0",
                "leaf": "subtitle",
                "type": "Leaf"
            },
            {
                "data": "-2:24183:0",
                "leaf": "subtitle",
                "type": "Leaf"
            },
            {
                "data": "-2:21040:0",
                "leaf": "subtitle",
                "type": "Leaf"
            },
            {
                "data": "-2:21150:0",
                "leaf": "subtitle",
                "type": "Leaf"
            },
            {
                "data": "-2:21527:0",
                "leaf": "subtitle",
                "type": "Leaf"
            },
            {
                "data": "-2:17954:0",
                "leaf": "subtitle",
                "type": "Leaf"
            },
            {
                "data": "-2:15545:0",
                "leaf": "subtitle",
                "type": "Leaf"
            },
            {
                "data": "-2:23198:0",
                "leaf": "subtitle",
                "type": "Leaf"
            },
            {
                "data": "-2:15453:0",
                "leaf": "subtitle",
                "type": "Leaf"
            },
            {
                "data": "-2:24029:0",
                "leaf": "subtitle",
                "type": "Leaf"
            },
            {
                "data": "-2:20793:0",
                "leaf": "subtitle",
                "type": "Leaf"
            },
            {
                "data": "-2:23551:0",
                "leaf": "subtitle",
                "type": "Leaf"
            },
            {
                "data": "-2:23951:0",
                "leaf": "subtitle",
                "type": "Leaf"
            },
            {
                "data": "-2:20741:0",
                "leaf": "subtitle",
                "type": "Leaf"
            },
            {
                "data": "-2:21739:0",
                "leaf": "subtitle",
                "type": "Leaf"
            }
        ],
        "type": "Normal"
    },
    {
        "children": [
            {
                "data": "-2:53951:0",
                "leaf": "subtitle",
                "type": "Leaf"
            },
            {
                "data": "-2:53819:0",
                "leaf": "subtitle",
                "type": "Leaf"
            },
            {
                "data": "-2:59779:0",
                "leaf": "subtitle",
                "type": "Leaf"
            },
            {
                "data": "-2:56384:0",
                "leaf": "subtitle",
                "type": "Leaf"
            },
            {
                "data": "-2:59307:0",
                "leaf": "subtitle",
                "type": "Leaf"
            },
            {
                "data": "-2:56224:0",
                "leaf": "subtitle",
                "type": "Leaf"
            },
            {
                "data": "-2:54030:0",
                "leaf": "subtitle",
                "type": "Leaf"
            },
            {
                "data": "-2:59985:0",
                "leaf": "subtitle",
                "type": "Leaf"
            },
            {
                "data": "-2:59083:0",
                "leaf": "subtitle",
                "type": "Leaf"
            },
            {
                "data": "-2:62350:0",
                "leaf": "subtitle",
                "type": "Leaf"
            },
            {
                "data": "-2:59393:0",
                "leaf": "subtitle",
                "type": "Leaf"
            },
            {
                "data": "-2:55912:0",
                "leaf": "subtitle",
                "type": "Leaf"
            },
            {
                "data": "-2:55972:0",
                "leaf": "subtitle",
                "type": "Leaf"
            },
            {
                "data": "-2:57390:0",
                "leaf": "subtitle",
                "type": "Leaf"
            },
            {
                "data": "-2:59351:0",
                "leaf": "subtitle",
                "type": "Leaf"
            },
            {
                "data": "-2:54148:0",
                "leaf": "subtitle",
                "type": "Leaf"
            },
            {
                "data": "-2:55859:0",
                "leaf": "subtitle",
                "type": "Leaf"
            },
            {
                "data": "-2:58573:0",
                "leaf": "subtitle",
                "type": "Leaf"
            },
            {
                "data": "-2:56856:0",
                "leaf": "subtitle",
                "type": "Leaf"
            },
            {
                "data": "-2:59431:0",
                "leaf": "subtitle",
                "type": "Leaf"
            },
            {
                "data": "-2:56943:0",
                "leaf": "subtitle",
                "type": "Leaf"
            },
            {
                "data": "-2:59667:0",
                "leaf": "subtitle",
                "type": "Leaf"
            },
            {
                "data": "-2:55310:0",
                "leaf": "subtitle",
                "type": "Leaf"
            },
            {
                "data": "-2:56193:0",
                "leaf": "subtitle",
                "type": "Leaf"
            },
            {
                "data": "-2:59256:0",
                "leaf": "subtitle",
                "type": "Leaf"
            },
            {
                "data": "-2:55527:0",
                "leaf": "subtitle",
                "type": "Leaf"
            },
            {
                "data": "-2:56071:0",
                "leaf": "subtitle",
                "type": "Leaf"
            },
            {
                "data": "-2:59132:0",
                "leaf": "subtitle",
                "type": "Leaf"
            },
            {
                "data": "-2:54448:0",
                "leaf": "subtitle",
                "type": "Leaf"
            },
            {
                "data": "-2:55760:0",
                "leaf": "subtitle",
                "type": "Leaf"
            },
            {
                "data": "-2:59196:0",
                "leaf": "subtitle",
                "type": "Leaf"
            },
            {
                "data": "-2:59527:0",
                "leaf": "subtitle",
                "type": "Leaf"
            },
            {
                "data": "-2:60095:0",
                "leaf": "subtitle",
                "type": "Leaf"
            },
            {
                "data": "-2:59709:0",
                "leaf": "subtitle",
                "type": "Leaf"
            },
            {
                "data": "-2:60807:0",
                "leaf": "subtitle",
                "type": "Leaf"
            },
            {
                "data": "-2:60835:0",
                "leaf": "subtitle",
                "type": "Leaf"
            },
            {
                "data": "-2:57619:0",
                "leaf": "subtitle",
                "type": "Leaf"
            },
            {
                "data": "-2:60862:0",
                "leaf": "subtitle",
                "type": "Leaf"
            },
            {
                "data": "-2:61353:0",
                "leaf": "subtitle",
                "type": "Leaf"
            },
            {
                "data": "-2:61969:0",
                "leaf": "subtitle",
                "type": "Leaf"
            },
            {
                "data": "-2:58325:0",
                "leaf": "subtitle",
                "type": "Leaf"
            },
            {
                "data": "-2:62019:0",
                "leaf": "subtitle",
                "type": "Leaf"
            },
            {
                "data": "-2:60147:0",
                "leaf": "subtitle",
                "type": "Leaf"
            },
            {
                "data": "-2:57889:0",
                "leaf": "subtitle",
                "type": "Leaf"
            },
            {
                "data": "-2:62076:0",
                "leaf": "subtitle",
                "type": "Leaf"
            },
            {
                "data": "-2:62142:0",
                "leaf": "subtitle",
                "type": "Leaf"
            },
            {
                "data": "-2:62212:0",
                "leaf": "subtitle",
                "type": "Leaf"
            },
            {
                "data": "-2:60027:0",
                "leaf": "subtitle",
                "type": "Leaf"
            },
            {
                "data": "-2:57478:0",
                "leaf": "subtitle",
                "type": "Leaf"
            },
            {
                "data": "-2:57546:0",
                "leaf": "subtitle",
                "type": "Leaf"
            },
            {
                "data": "-2:57665:0",
                "leaf": "subtitle",
                "type": "Leaf"
            },
            {
                "data": "-2:57788:0",
                "leaf": "subtitle",
                "type": "Leaf"
            },
            {
                "data": "-2:57857:0",
                "leaf": "subtitle",
                "type": "Leaf"
            },
            {
                "data": "-2:57977:0",
                "leaf": "subtitle",
                "type": "Leaf"
            },
            {
                "data": "-2:58017:0",
                "leaf": "subtitle",
                "type": "Leaf"
            },
            {
                "data": "-2:58097:0",
                "leaf": "subtitle",
                "type": "Leaf"
            },
            {
                "data": "-2:48899:0",
                "leaf": "subtitle",
                "type": "Leaf"
            },
            {
                "data": "-2:57012:0",
                "leaf": "subtitle",
                "type": "Leaf"
            },
            {
                "data": "-2:57248:0",
                "leaf": "subtitle",
                "type": "Leaf"
            },
            {
                "data": "-2:59943:0",
                "leaf": "subtitle",
                "type": "Leaf"
            },
            {
                "data": "-2:59908:0",
                "leaf": "subtitle",
                "type": "Leaf"
            },
            {
                "data": "-2:58508:0",
                "leaf": "subtitle",
                "type": "Leaf"
            },
            {
                "data": "-2:58417:0",
                "leaf": "subtitle",
                "type": "Leaf"
            },
            {
                "data": "-2:58259:0",
                "leaf": "subtitle",
                "type": "Leaf"
            },
            {
                "data": "-2:58145:0",
                "leaf": "subtitle",
                "type": "Leaf"
            },
            {
                "data": "-2:49074:0",
                "leaf": "subtitle",
                "type": "Leaf"
            },
            {
                "data": "-2:49462:0",
                "leaf": "subtitle",
                "type": "Leaf"
            },
            {
                "data": "-2:50208:0",
                "leaf": "subtitle",
                "type": "Leaf"
            },
            {
                "data": "-2:50320:0",
                "leaf": "subtitle",
                "type": "Leaf"
            },
            {
                "data": "-2:50424:0",
                "leaf": "subtitle",
                "type": "Leaf"
            },
            {
                "data": "-2:50820:0",
                "leaf": "subtitle",
                "type": "Leaf"
            },
            {
                "data": "-2:50253:0",
                "leaf": "subtitle",
                "type": "Leaf"
            },
            {
                "data": "-2:53731:0",
                "leaf": "subtitle",
                "type": "Leaf"
            },
            {
                "children": [
                    {
                        "data": "0:48757:-1",
                        "leaf": "clip",
                        "type": "Leaf"
                    },
                    {
                        "data": "1:48769:-1",
                        "leaf": "clip",
                        "type": "Leaf"
                    }
                ],
                "type": "AVSplit"
            },
            {
                "data": "-2:62411:0",
                "leaf": "subtitle",
                "type": "Leaf"
            },
            {
                "data": "-2:63051:0",
                "leaf": "subtitle",
                "type": "Leaf"
            },
            {
                "data": "-2:62983:0",
                "leaf": "subtitle",
                "type": "Leaf"
            },
            {
                "data": "-2:62919:0",
                "leaf": "subtitle",
                "type": "Leaf"
            },
            {
                "data": "-2:62531:0",
                "leaf": "subtitle",
                "type": "Leaf"
            },
            {
                "data": "-2:62818:0",
                "leaf": "subtitle",
                "type": "Leaf"
            },
            {
                "data": "-2:63270:0",
                "leaf": "subtitle",
                "type": "Leaf"
            },
            {
                "data": "-2:63218:0",
                "leaf": "subtitle",
                "type": "Leaf"
            },
            {
                "data": "-2:63150:0",
                "leaf": "subtitle",
                "type": "Leaf"
            },
            {
                "data": "-2:63375:0",
                "leaf": "subtitle",
                "type": "Leaf"
            },
            {
                "data": "-2:63431:0",
                "leaf": "subtitle",
                "type": "Leaf"
            },
            {
                "data": "-2:63554:0",
                "leaf": "subtitle",
                "type": "Leaf"
            },
            {
                "data": "-2:67865:0",
                "leaf": "subtitle",
                "type": "Leaf"
            },
            {
                "data": "-2:64490:0",
                "leaf": "subtitle",
                "type": "Leaf"
            },
            {
                "data": "-2:67913:0",
                "leaf": "subtitle",
                "type": "Leaf"
            },
            {
                "data": "-2:64574:0",
                "leaf": "subtitle",
                "type": "Leaf"
            },
            {
                "data": "-2:67968:0",
                "leaf": "subtitle",
                "type": "Leaf"
            },
            {
                "data": "-2:68069:0",
                "leaf": "subtitle",
                "type": "Leaf"
            },
            {
                "data": "-2:64814:0",
                "leaf": "subtitle",
                "type": "Leaf"
            },
            {
                "data": "-2:68112:0",
                "leaf": "subtitle",
                "type": "Leaf"
            },
            {
                "data": "-2:64842:0",
                "leaf": "subtitle",
                "type": "Leaf"
            },
            {
                "data": "-2:68175:0",
                "leaf": "subtitle",
                "type": "Leaf"
            },
            {
                "data": "-2:68384:0",
                "leaf": "subtitle",
                "type": "Leaf"
            },
            {
                "data": "-2:68579:0",
                "leaf": "subtitle",
                "type": "Leaf"
            },
            {
                "data": "-2:67177:0",
                "leaf": "subtitle",
                "type": "Leaf"
            },
            {
                "data": "-2:66977:0",
                "leaf": "subtitle",
                "type": "Leaf"
            },
            {
                "data": "-2:67333:0",
                "leaf": "subtitle",
                "type": "Leaf"
            },
            {
                "data": "-2:64315:0",
                "leaf": "subtitle",
                "type": "Leaf"
            },
            {
                "data": "-2:67263:0",
                "leaf": "subtitle",
                "type": "Leaf"
            },
            {
                "data": "-2:63602:0",
                "leaf": "subtitle",
                "type": "Leaf"
            },
            {
                "data": "-2:67466:0",
                "leaf": "subtitle",
                "type": "Leaf"
            },
            {
                "data": "-2:67797:0",
                "leaf": "subtitle",
                "type": "Leaf"
            },
            {
                "data": "-2:67398:0",
                "leaf": "subtitle",
                "type": "Leaf"
            },
            {
                "data": "-2:66579:0",
                "leaf": "subtitle",
                "type": "Leaf"
            },
            {
                "data": "-2:65246:0",
                "leaf": "subtitle",
                "type": "Leaf"
            },
            {
                "data": "-2:65313:0",
                "leaf": "subtitle",
                "type": "Leaf"
            },
            {
                "data": "-2:66935:0",
                "leaf": "subtitle",
                "type": "Leaf"
            },
            {
                "data": "-2:67106:0",
                "leaf": "subtitle",
                "type": "Leaf"
            },
            {
                "data": "-2:63638:0",
                "leaf": "subtitle",
                "type": "Leaf"
            },
            {
                "data": "-2:67743:0",
                "leaf": "subtitle",
                "type": "Leaf"
            },
            {
                "data": "-2:64743:0",
                "leaf": "subtitle",
                "type": "Leaf"
            },
            {
                "data": "-2:65025:0",
                "leaf": "subtitle",
                "type": "Leaf"
            },
            {
                "data": "-2:65202:0",
                "leaf": "subtitle",
                "type": "Leaf"
            },
            {
                "data": "-2:65160:0",
                "leaf": "subtitle",
                "type": "Leaf"
            },
            {
                "data": "-2:67023:0",
                "leaf": "subtitle",
                "type": "Leaf"
            },
            {
                "data": "-2:65109:0",
                "leaf": "subtitle",
                "type": "Leaf"
            },
            {
                "data": "-2:66677:0",
                "leaf": "subtitle",
                "type": "Leaf"
            },
            {
                "data": "-2:66519:0",
                "leaf": "subtitle",
                "type": "Leaf"
            },
            {
                "data": "-2:66867:0",
                "leaf": "subtitle",
                "type": "Leaf"
            },
            {
                "data": "-2:65946:0",
                "leaf": "subtitle",
                "type": "Leaf"
            },
            {
                "data": "-2:68704:0",
                "leaf": "subtitle",
                "type": "Leaf"
            },
            {
                "data": "-2:70182:0",
                "leaf": "subtitle",
                "type": "Leaf"
            },
            {
                "data": "-2:70269:0",
                "leaf": "subtitle",
                "type": "Leaf"
            },
            {
                "data": "-2:68990:0",
                "leaf": "subtitle",
                "type": "Leaf"
            },
            {
                "data": "-2:69023:0",
                "leaf": "subtitle",
                "type": "Leaf"
            },
            {
                "data": "-2:70031:0",
                "leaf": "subtitle",
                "type": "Leaf"
            },
            {
                "data": "-2:69929:0",
                "leaf": "subtitle",
                "type": "Leaf"
            },
            {
                "data": "-2:69860:0",
                "leaf": "subtitle",
                "type": "Leaf"
            },
            {
                "data": "-2:72167:0",
                "leaf": "subtitle",
                "type": "Leaf"
            },
            {
                "data": "-2:72225:0",
                "leaf": "subtitle",
                "type": "Leaf"
            },
            {
                "data": "-2:72292:0",
                "leaf": "subtitle",
                "type": "Leaf"
            },
            {
                "data": "-2:72412:0",
                "leaf": "subtitle",
                "type": "Leaf"
            },
            {
                "data": "-2:72459:0",
                "leaf": "subtitle",
                "type": "Leaf"
            },
            {
                "data": "-2:72597:0",
                "leaf": "subtitle",
                "type": "Leaf"
            },
            {
                "data": "-2:72657:0",
                "leaf": "subtitle",
                "type": "Leaf"
            },
            {
                "data": "-2:73002:0",
                "leaf": "subtitle",
                "type": "Leaf"
            },
            {
                "data": "-2:72255:0",
                "leaf": "subtitle",
                "type": "Leaf"
            },
            {
                "data": "-2:75229:0",
                "leaf": "subtitle",
                "type": "Leaf"
            },
            {
                "data": "-2:75127:0",
                "leaf": "subtitle",
                "type": "Leaf"
            },
            {
                "data": "-2:71792:0",
                "leaf": "subtitle",
                "type": "Leaf"
            },
            {
                "data": "-2:71743:0",
                "leaf": "subtitle",
                "type": "Leaf"
            },
            {
                "data": "-2:70453:0",
                "leaf": "subtitle",
                "type": "Leaf"
            },
            {
                "data": "-2:72107:0",
                "leaf": "subtitle",
                "type": "Leaf"
            },
            {
                "data": "-2:70416:0",
                "leaf": "subtitle",
                "type": "Leaf"
            },
            {
                "data": "-2:70801:0",
                "leaf": "subtitle",
                "type": "Leaf"
            },
            {
                "data": "-2:71869:0",
                "leaf": "subtitle",
                "type": "Leaf"
            },
            {
                "data": "-2:70383:0",
                "leaf": "subtitle",
                "type": "Leaf"
            },
            {
                "data": "-2:70524:0",
                "leaf": "subtitle",
                "type": "Leaf"
            },
            {
                "data": "-2:71819:0",
                "leaf": "subtitle",
                "type": "Leaf"
            },
            {
                "data": "-2:70772:0",
                "leaf": "subtitle",
                "type": "Leaf"
            },
            {
                "data": "-2:71204:0",
                "leaf": "subtitle",
                "type": "Leaf"
            },
            {
                "data": "-2:71103:0",
                "leaf": "subtitle",
                "type": "Leaf"
            },
            {
                "data": "-2:71232:0",
                "leaf": "subtitle",
                "type": "Leaf"
            },
            {
                "data": "-2:71263:0",
                "leaf": "subtitle",
                "type": "Leaf"
            },
            {
                "data": "-2:71509:0",
                "leaf": "subtitle",
                "type": "Leaf"
            },
            {
                "data": "-2:71584:0",
                "leaf": "subtitle",
                "type": "Leaf"
            },
            {
                "data": "-2:71718:0",
                "leaf": "subtitle",
                "type": "Leaf"
            },
            {
                "data": "-2:71656:0",
                "leaf": "subtitle",
                "type": "Leaf"
            },
            {
                "data": "-2:71687:0",
                "leaf": "subtitle",
                "type": "Leaf"
            },
            {
                "data": "-2:75039:0",
                "leaf": "subtitle",
                "type": "Leaf"
            },
            {
                "data": "-2:74984:0",
                "leaf": "subtitle",
                "type": "Leaf"
            },
            {
                "data": "-2:74947:0",
                "leaf": "subtitle",
                "type": "Leaf"
            },
            {
                "data": "-2:74867:0",
                "leaf": "subtitle",
                "type": "Leaf"
            },
            {
                "data": "-2:74667:0",
                "leaf": "subtitle",
                "type": "Leaf"
            },
            {
                "data": "-2:74607:0",
                "leaf": "subtitle",
                "type": "Leaf"
            },
            {
                "data": "-2:74543:0",
                "leaf": "subtitle",
                "type": "Leaf"
            },
            {
                "data": "-2:74411:0",
                "leaf": "subtitle",
                "type": "Leaf"
            },
            {
                "data": "-2:74304:0",
                "leaf": "subtitle",
                "type": "Leaf"
            },
            {
                "data": "-2:74181:0",
                "leaf": "subtitle",
                "type": "Leaf"
            },
            {
                "data": "-2:74125:0",
                "leaf": "subtitle",
                "type": "Leaf"
            },
            {
                "data": "-2:73968:0",
                "leaf": "subtitle",
                "type": "Leaf"
            },
            {
                "data": "-2:73924:0",
                "leaf": "subtitle",
                "type": "Leaf"
            },
            {
                "data": "-2:73851:0",
                "leaf": "subtitle",
                "type": "Leaf"
            },
            {
                "data": "-2:73801:0",
                "leaf": "subtitle",
                "type": "Leaf"
            },
            {
                "data": "-2:73536:0",
                "leaf": "subtitle",
                "type": "Leaf"
            },
            {
                "data": "-2:73387:0",
                "leaf": "subtitle",
                "type": "Leaf"
            },
            {
                "data": "-2:73341:0",
                "leaf": "subtitle",
                "type": "Leaf"
            },
            {
                "data": "-2:73228:0",
                "leaf": "subtitle",
                "type": "Leaf"
            },
            {
                "data": "-2:73178:0",
                "leaf": "subtitle",
                "type": "Leaf"
            },
            {
                "data": "-2:73084:0",
                "leaf": "subtitle",
                "type": "Leaf"
            },
            {
                "data": "-2:69289:0",
                "leaf": "subtitle",
                "type": "Leaf"
            },
            {
                "data": "-2:69430:0",
                "leaf": "subtitle",
                "type": "Leaf"
            },
            {
                "data": "-2:69539:0",
                "leaf": "subtitle",
                "type": "Leaf"
            },
            {
                "data": "-2:69643:0",
                "leaf": "subtitle",
                "type": "Leaf"
            },
            {
                "data": "-2:69727:0",
                "leaf": "subtitle",
                "type": "Leaf"
            },
            {
                "data": "-2:69800:0",
                "leaf": "subtitle",
                "type": "Leaf"
            },
            {
                "data": "-2:69133:0",
                "leaf": "subtitle",
                "type": "Leaf"
            },
            {
                "children": [
                    {
                        "data": "0:54942:-1",
                        "leaf": "clip",
                        "type": "Leaf"
                    },
                    {
                        "data": "1:54942:-1",
                        "leaf": "clip",
                        "type": "Leaf"
                    }
                ],
                "type": "AVSplit"
            },
            {
                "data": "-2:75311:0",
                "leaf": "subtitle",
                "type": "Leaf"
            },
            {
                "data": "-2:75771:0",
                "leaf": "subtitle",
                "type": "Leaf"
            },
            {
                "data": "-2:75707:0",
                "leaf": "subtitle",
                "type": "Leaf"
            },
            {
                "data": "-2:75606:0",
                "leaf": "subtitle",
                "type": "Leaf"
            },
            {
                "data": "-2:75543:0",
                "leaf": "subtitle",
                "type": "Leaf"
            },
            {
                "data": "-2:75471:0",
                "leaf": "subtitle",
                "type": "Leaf"
            },
            {
                "data": "-2:75404:0",
                "leaf": "subtitle",
                "type": "Leaf"
            },
            {
                "data": "-2:94770:0",
                "leaf": "subtitle",
                "type": "Leaf"
            },
            {
                "data": "-2:94729:0",
                "leaf": "subtitle",
                "type": "Leaf"
            },
            {
                "data": "-2:94673:0",
                "leaf": "subtitle",
                "type": "Leaf"
            },
            {
                "data": "-2:94613:0",
                "leaf": "subtitle",
                "type": "Leaf"
            },
            {
                "data": "-2:94551:0",
                "leaf": "subtitle",
                "type": "Leaf"
            },
            {
                "data": "-2:94487:0",
                "leaf": "subtitle",
                "type": "Leaf"
            },
            {
                "data": "-2:94444:0",
                "leaf": "subtitle",
                "type": "Leaf"
            },
            {
                "data": "-2:94383:0",
                "leaf": "subtitle",
                "type": "Leaf"
            },
            {
                "data": "-2:94343:0",
                "leaf": "subtitle",
                "type": "Leaf"
            },
            {
                "data": "-2:94292:0",
                "leaf": "subtitle",
                "type": "Leaf"
            },
            {
                "data": "-2:94219:0",
                "leaf": "subtitle",
                "type": "Leaf"
            },
            {
                "data": "-2:94184:0",
                "leaf": "subtitle",
                "type": "Leaf"
            },
            {
                "data": "-2:94135:0",
                "leaf": "subtitle",
                "type": "Leaf"
            },
            {
                "data": "-2:94055:0",
                "leaf": "subtitle",
                "type": "Leaf"
            },
            {
                "data": "-2:94009:0",
                "leaf": "subtitle",
                "type": "Leaf"
            },
            {
                "data": "-2:95643:0",
                "leaf": "subtitle",
                "type": "Leaf"
            },
            {
                "data": "-2:96192:0",
                "leaf": "subtitle",
                "type": "Leaf"
            },
            {
                "data": "-2:96246:0",
                "leaf": "subtitle",
                "type": "Leaf"
            },
            {
                "data": "-2:96357:0",
                "leaf": "subtitle",
                "type": "Leaf"
            },
            {
                "data": "-2:96470:0",
                "leaf": "subtitle",
                "type": "Leaf"
            },
            {
                "data": "-2:96497:0",
                "leaf": "subtitle",
                "type": "Leaf"
            },
            {
                "data": "-2:96589:0",
                "leaf": "subtitle",
                "type": "Leaf"
            },
            {
                "data": "-2:97152:0",
                "leaf": "subtitle",
                "type": "Leaf"
            },
            {
                "data": "-2:97741:0",
                "leaf": "subtitle",
                "type": "Leaf"
            },
            {
                "data": "-2:97797:0",
                "leaf": "subtitle",
                "type": "Leaf"
            },
            {
                "data": "-2:97865:0",
                "leaf": "subtitle",
                "type": "Leaf"
            },
            {
                "data": "-2:97925:0",
                "leaf": "subtitle",
                "type": "Leaf"
            },
            {
                "data": "-2:98001:0",
                "leaf": "subtitle",
                "type": "Leaf"
            },
            {
                "data": "-2:98106:0",
                "leaf": "subtitle",
                "type": "Leaf"
            },
            {
                "data": "-2:98177:0",
                "leaf": "subtitle",
                "type": "Leaf"
            },
            {
                "data": "-2:98286:0",
                "leaf": "subtitle",
                "type": "Leaf"
            },
            {
                "data": "-2:98341:0",
                "leaf": "subtitle",
                "type": "Leaf"
            },
            {
                "data": "-2:98469:0",
                "leaf": "subtitle",
                "type": "Leaf"
            },
            {
                "data": "-2:98609:0",
                "leaf": "subtitle",
                "type": "Leaf"
            },
            {
                "data": "-2:98737:0",
                "leaf": "subtitle",
                "type": "Leaf"
            },
            {
                "data": "-2:98772:0",
                "leaf": "subtitle",
                "type": "Leaf"
            },
            {
                "data": "-2:98812:0",
                "leaf": "subtitle",
                "type": "Leaf"
            },
            {
                "data": "-2:98955:0",
                "leaf": "subtitle",
                "type": "Leaf"
            },
            {
                "data": "-2:98998:0",
                "leaf": "subtitle",
                "type": "Leaf"
            },
            {
                "data": "-2:99025:0",
                "leaf": "subtitle",
                "type": "Leaf"
            },
            {
                "data": "-2:99078:0",
                "leaf": "subtitle",
                "type": "Leaf"
            },
            {
                "data": "-2:99154:0",
                "leaf": "subtitle",
                "type": "Leaf"
            },
            {
                "data": "-2:99235:0",
                "leaf": "subtitle",
                "type": "Leaf"
            },
            {
                "data": "-2:99284:0",
                "leaf": "subtitle",
                "type": "Leaf"
            },
            {
                "data": "-2:99378:0",
                "leaf": "subtitle",
                "type": "Leaf"
            },
            {
                "data": "-2:99449:0",
                "leaf": "subtitle",
                "type": "Leaf"
            },
            {
                "data": "-2:99514:0",
                "leaf": "subtitle",
                "type": "Leaf"
            },
            {
                "data": "-2:99566:0",
                "leaf": "subtitle",
                "type": "Leaf"
            },
            {
                "data": "-2:99717:0",
                "leaf": "subtitle",
                "type": "Leaf"
            },
            {
                "data": "-2:99803:0",
                "leaf": "subtitle",
                "type": "Leaf"
            },
            {
                "data": "-2:99884:0",
                "leaf": "subtitle",
                "type": "Leaf"
            },
            {
                "data": "-2:99980:0",
                "leaf": "subtitle",
                "type": "Leaf"
            },
            {
                "data": "-2:100017:0",
                "leaf": "subtitle",
                "type": "Leaf"
            },
            {
                "data": "-2:100151:0",
                "leaf": "subtitle",
                "type": "Leaf"
            },
            {
                "data": "-2:100284:0",
                "leaf": "subtitle",
                "type": "Leaf"
            },
            {
                "data": "-2:104175:0",
                "leaf": "subtitle",
                "type": "Leaf"
            },
            {
                "data": "-2:105035:0",
                "leaf": "subtitle",
                "type": "Leaf"
            },
            {
                "data": "-2:105071:0",
                "leaf": "subtitle",
                "type": "Leaf"
            },
            {
                "data": "-2:105325:0",
                "leaf": "subtitle",
                "type": "Leaf"
            },
            {
                "data": "-2:83445:0",
                "leaf": "subtitle",
                "type": "Leaf"
            },
            {
                "data": "-2:89578:0",
                "leaf": "subtitle",
                "type": "Leaf"
            },
            {
                "data": "-2:89659:0",
                "leaf": "subtitle",
                "type": "Leaf"
            },
            {
                "data": "-2:90563:0",
                "leaf": "subtitle",
                "type": "Leaf"
            },
            {
                "data": "-2:90658:0",
                "leaf": "subtitle",
                "type": "Leaf"
            },
            {
                "data": "-2:90782:0",
                "leaf": "subtitle",
                "type": "Leaf"
            },
            {
                "data": "-2:90868:0",
                "leaf": "subtitle",
                "type": "Leaf"
            },
            {
                "data": "-2:91063:0",
                "leaf": "subtitle",
                "type": "Leaf"
            },
            {
                "data": "-2:91143:0",
                "leaf": "subtitle",
                "type": "Leaf"
            },
            {
                "data": "-2:91199:0",
                "leaf": "subtitle",
                "type": "Leaf"
            },
            {
                "data": "-2:91277:0",
                "leaf": "subtitle",
                "type": "Leaf"
            },
            {
                "data": "-2:91343:0",
                "leaf": "subtitle",
                "type": "Leaf"
            },
            {
                "data": "-2:91550:0",
                "leaf": "subtitle",
                "type": "Leaf"
            },
            {
                "data": "-2:83691:0",
                "leaf": "subtitle",
                "type": "Leaf"
            },
            {
                "data": "-2:100332:0",
                "leaf": "subtitle",
                "type": "Leaf"
            },
            {
                "data": "-2:84960:0",
                "leaf": "subtitle",
                "type": "Leaf"
            },
            {
                "data": "-2:100378:0",
                "leaf": "subtitle",
                "type": "Leaf"
            },
            {
                "data": "-2:85031:0",
                "leaf": "subtitle",
                "type": "Leaf"
            },
            {
                "data": "-2:100457:0",
                "leaf": "subtitle",
                "type": "Leaf"
            },
            {
                "data": "-2:85141:0",
                "leaf": "subtitle",
                "type": "Leaf"
            },
            {
                "data": "-2:100542:0",
                "leaf": "subtitle",
                "type": "Leaf"
            },
            {
                "data": "-2:100629:0",
                "leaf": "subtitle",
                "type": "Leaf"
            },
            {
                "data": "-2:100684:0",
                "leaf": "subtitle",
                "type": "Leaf"
            },
            {
                "data": "-2:100817:0",
                "leaf": "subtitle",
                "type": "Leaf"
            },
            {
                "data": "-2:101057:0",
                "leaf": "subtitle",
                "type": "Leaf"
            },
            {
                "data": "-2:100889:0",
                "leaf": "subtitle",
                "type": "Leaf"
            },
            {
                "data": "-2:101136:0",
                "leaf": "subtitle",
                "type": "Leaf"
            },
            {
                "data": "-2:100949:0",
                "leaf": "subtitle",
                "type": "Leaf"
            },
            {
                "data": "-2:101178:0",
                "leaf": "subtitle",
                "type": "Leaf"
            },
            {
                "data": "-2:101292:0",
                "leaf": "subtitle",
                "type": "Leaf"
            },
            {
                "data": "-2:101357:0",
                "leaf": "subtitle",
                "type": "Leaf"
            },
            {
                "data": "-2:101407:0",
                "leaf": "subtitle",
                "type": "Leaf"
            },
            {
                "data": "-2:93696:0",
                "leaf": "subtitle",
                "type": "Leaf"
            },
            {
                "data": "-2:93748:0",
                "leaf": "subtitle",
                "type": "Leaf"
            },
            {
                "data": "-2:93776:0",
                "leaf": "subtitle",
                "type": "Leaf"
            },
            {
                "data": "-2:93842:0",
                "leaf": "subtitle",
                "type": "Leaf"
            },
            {
                "data": "-2:101488:0",
                "leaf": "subtitle",
                "type": "Leaf"
            },
            {
                "data": "-2:101581:0",
                "leaf": "subtitle",
                "type": "Leaf"
            },
            {
                "data": "-2:101726:0",
                "leaf": "subtitle",
                "type": "Leaf"
            },
            {
                "data": "-2:101774:0",
                "leaf": "subtitle",
                "type": "Leaf"
            },
            {
                "data": "-2:91660:0",
                "leaf": "subtitle",
                "type": "Leaf"
            },
            {
                "data": "-2:93656:0",
                "leaf": "subtitle",
                "type": "Leaf"
            },
            {
                "data": "-2:89484:0",
                "leaf": "subtitle",
                "type": "Leaf"
            },
            {
                "data": "-2:103616:0",
                "leaf": "subtitle",
                "type": "Leaf"
            },
            {
                "data": "-2:92191:0",
                "leaf": "subtitle",
                "type": "Leaf"
            },
            {
                "data": "-2:93516:0",
                "leaf": "subtitle",
                "type": "Leaf"
            },
            {
                "data": "-2:89402:0",
                "leaf": "subtitle",
                "type": "Leaf"
            },
            {
                "data": "-2:103453:0",
                "leaf": "subtitle",
                "type": "Leaf"
            },
            {
                "data": "-2:92130:0",
                "leaf": "subtitle",
                "type": "Leaf"
            },
            {
                "data": "-2:92290:0",
                "leaf": "subtitle",
                "type": "Leaf"
            },
            {
                "data": "-2:89328:0",
                "leaf": "subtitle",
                "type": "Leaf"
            },
            {
                "data": "-2:103371:0",
                "leaf": "subtitle",
                "type": "Leaf"
            },
            {
                "data": "-2:92090:0",
                "leaf": "subtitle",
                "type": "Leaf"
            },
            {
                "data": "-2:101611:0",
                "leaf": "subtitle",
                "type": "Leaf"
            },
            {
                "data": "-2:87058:0",
                "leaf": "subtitle",
                "type": "Leaf"
            },
            {
                "data": "-2:87278:0",
                "leaf": "subtitle",
                "type": "Leaf"
            },
            {
                "data": "-2:87338:0",
                "leaf": "subtitle",
                "type": "Leaf"
            },
            {
                "data": "-2:82316:0",
                "leaf": "subtitle",
                "type": "Leaf"
            },
            {
                "data": "-2:87680:0",
                "leaf": "subtitle",
                "type": "Leaf"
            },
            {
                "data": "-2:82523:0",
                "leaf": "subtitle",
                "type": "Leaf"
            },
            {
                "data": "-2:87727:0",
                "leaf": "subtitle",
                "type": "Leaf"
            },
            {
                "data": "-2:82763:0",
                "leaf": "subtitle",
                "type": "Leaf"
            },
            {
                "data": "-2:87819:0",
                "leaf": "subtitle",
                "type": "Leaf"
            },
            {
                "data": "-2:82795:0",
                "leaf": "subtitle",
                "type": "Leaf"
            },
            {
                "data": "-2:94913:0",
                "leaf": "subtitle",
                "type": "Leaf"
            },
            {
                "data": "-2:94946:0",
                "leaf": "subtitle",
                "type": "Leaf"
            },
            {
                "data": "-2:95369:0",
                "leaf": "subtitle",
                "type": "Leaf"
            },
            {
                "data": "-2:95021:0",
                "leaf": "subtitle",
                "type": "Leaf"
            },
            {
                "data": "-2:95445:0",
                "leaf": "subtitle",
                "type": "Leaf"
            },
            {
                "data": "-2:95297:0",
                "leaf": "subtitle",
                "type": "Leaf"
            },
            {
                "data": "-2:80249:0",
                "leaf": "subtitle",
                "type": "Leaf"
            },
            {
                "data": "-2:80137:0",
                "leaf": "subtitle",
                "type": "Leaf"
            },
            {
                "data": "-2:95067:0",
                "leaf": "subtitle",
                "type": "Leaf"
            },
            {
                "data": "1:101452:-1",
                "leaf": "clip",
                "type": "Leaf"
            },
            {
                "data": "0:100074:-1",
                "leaf": "clip",
                "type": "Leaf"
            },
            {
                "data": "-2:77917:0",
                "leaf": "subtitle",
                "type": "Leaf"
            },
            {
                "data": "0:99700:-1",
                "leaf": "clip",
                "type": "Leaf"
            },
            {
                "data": "0:101412:-1",
                "leaf": "clip",
                "type": "Leaf"
            },
            {
                "data": "-2:86697:0",
                "leaf": "subtitle",
                "type": "Leaf"
            },
            {
                "data": "-2:86293:0",
                "leaf": "subtitle",
                "type": "Leaf"
            },
            {
                "data": "-2:86544:0",
                "leaf": "subtitle",
                "type": "Leaf"
            },
            {
                "data": "-2:95204:0",
                "leaf": "subtitle",
                "type": "Leaf"
            },
            {
                "data": "-2:94816:0",
                "leaf": "subtitle",
                "type": "Leaf"
            },
            {
                "data": "-2:85212:0",
                "leaf": "subtitle",
                "type": "Leaf"
            },
            {
                "data": "-2:93908:0",
                "leaf": "subtitle",
                "type": "Leaf"
            },
            {
                "data": "-2:93967:0",
                "leaf": "subtitle",
                "type": "Leaf"
            },
            {
                "data": "-2:95512:0",
                "leaf": "subtitle",
                "type": "Leaf"
            },
            {
                "data": "-2:95164:0",
                "leaf": "subtitle",
                "type": "Leaf"
            },
            {
                "data": "-2:80074:0",
                "leaf": "subtitle",
                "type": "Leaf"
            },
            {
                "data": "0:99465:-1",
                "leaf": "clip",
                "type": "Leaf"
            },
            {
                "data": "1:99465:-1",
                "leaf": "clip",
                "type": "Leaf"
            },
            {
                "data": "1:99700:-1",
                "leaf": "clip",
                "type": "Leaf"
            },
            {
                "data": "1:100074:-1",
                "leaf": "clip",
                "type": "Leaf"
            },
            {
                "data": "0:101019:-1",
                "leaf": "clip",
                "type": "Leaf"
            },
            {
                "data": "1:101019:-1",
                "leaf": "clip",
                "type": "Leaf"
            },
            {
                "data": "-2:86597:0",
                "leaf": "subtitle",
                "type": "Leaf"
            },
            {
                "data": "-2:76036:0",
                "leaf": "subtitle",
                "type": "Leaf"
            },
            {
                "data": "-2:105434:0",
                "leaf": "subtitle",
                "type": "Leaf"
            },
            {
                "data": "-2:77867:0",
                "leaf": "subtitle",
                "type": "Leaf"
            },
            {
                "data": "-2:78292:0",
                "leaf": "subtitle",
                "type": "Leaf"
            },
            {
                "data": "-2:75979:0",
                "leaf": "subtitle",
                "type": "Leaf"
            },
            {
                "data": "-2:76235:0",
                "leaf": "subtitle",
                "type": "Leaf"
            },
            {
                "data": "-2:105784:0",
                "leaf": "subtitle",
                "type": "Leaf"
            },
            {
                "data": "-2:75895:0",
                "leaf": "subtitle",
                "type": "Leaf"
            },
            {
                "data": "-2:105647:0",
                "leaf": "subtitle",
                "type": "Leaf"
            },
            {
                "data": "-2:76191:0",
                "leaf": "subtitle",
                "type": "Leaf"
            },
            {
                "data": "-2:105757:0",
                "leaf": "subtitle",
                "type": "Leaf"
            },
            {
                "data": "-2:105852:0",
                "leaf": "subtitle",
                "type": "Leaf"
            },
            {
                "data": "-2:76371:0",
                "leaf": "subtitle",
                "type": "Leaf"
            },
            {
                "data": "-2:105819:0",
                "leaf": "subtitle",
                "type": "Leaf"
            },
            {
                "data": "-2:76083:0",
                "leaf": "subtitle",
                "type": "Leaf"
            },
            {
                "data": "-2:105970:0",
                "leaf": "subtitle",
                "type": "Leaf"
            },
            {
                "data": "-2:106108:0",
                "leaf": "subtitle",
                "type": "Leaf"
            },
            {
                "data": "-2:86793:0",
                "leaf": "subtitle",
                "type": "Leaf"
            },
            {
                "data": "-2:86959:0",
                "leaf": "subtitle",
                "type": "Leaf"
            },
            {
                "data": "-2:77647:0",
                "leaf": "subtitle",
                "type": "Leaf"
            },
            {
                "data": "-2:77944:0",
                "leaf": "subtitle",
                "type": "Leaf"
            },
            {
                "data": "-2:77566:0",
                "leaf": "subtitle",
                "type": "Leaf"
            },
            {
                "data": "-2:77495:0",
                "leaf": "subtitle",
                "type": "Leaf"
            },
            {
                "data": "-2:77147:0",
                "leaf": "subtitle",
                "type": "Leaf"
            },
            {
                "data": "-2:76987:0",
                "leaf": "subtitle",
                "type": "Leaf"
            },
            {
                "data": "-2:76861:0",
                "leaf": "subtitle",
                "type": "Leaf"
            },
            {
                "data": "-2:76758:0",
                "leaf": "subtitle",
                "type": "Leaf"
            },
            {
                "data": "-2:76710:0",
                "leaf": "subtitle",
                "type": "Leaf"
            },
            {
                "data": "-2:76652:0",
                "leaf": "subtitle",
                "type": "Leaf"
            },
            {
                "data": "-2:76613:0",
                "leaf": "subtitle",
                "type": "Leaf"
            },
            {
                "data": "-2:76553:0",
                "leaf": "subtitle",
                "type": "Leaf"
            },
            {
                "data": "-2:76479:0",
                "leaf": "subtitle",
                "type": "Leaf"
            },
            {
                "data": "-2:87899:0",
                "leaf": "subtitle",
                "type": "Leaf"
            },
            {
                "data": "-2:82822:0",
                "leaf": "subtitle",
                "type": "Leaf"
            },
            {
                "data": "-2:87991:0",
                "leaf": "subtitle",
                "type": "Leaf"
            },
            {
                "data": "-2:82871:0",
                "leaf": "subtitle",
                "type": "Leaf"
            },
            {
                "data": "-2:88044:0",
                "leaf": "subtitle",
                "type": "Leaf"
            },
            {
                "data": "-2:82919:0",
                "leaf": "subtitle",
                "type": "Leaf"
            },
            {
                "data": "-2:88114:0",
                "leaf": "subtitle",
                "type": "Leaf"
            },
            {
                "data": "-2:82989:0",
                "leaf": "subtitle",
                "type": "Leaf"
            },
            {
                "data": "-2:88183:0",
                "leaf": "subtitle",
                "type": "Leaf"
            },
            {
                "data": "-2:83046:0",
                "leaf": "subtitle",
                "type": "Leaf"
            },
            {
                "data": "-2:88279:0",
                "leaf": "subtitle",
                "type": "Leaf"
            },
            {
                "data": "-2:83184:0",
                "leaf": "subtitle",
                "type": "Leaf"
            },
            {
                "data": "-2:88388:0",
                "leaf": "subtitle",
                "type": "Leaf"
            },
            {
                "data": "-2:83259:0",
                "leaf": "subtitle",
                "type": "Leaf"
            },
            {
                "data": "-2:83373:0",
                "leaf": "subtitle",
                "type": "Leaf"
            },
            {
                "data": "-2:101998:0",
                "leaf": "subtitle",
                "type": "Leaf"
            },
            {
                "data": "-2:88462:0",
                "leaf": "subtitle",
                "type": "Leaf"
            },
            {
                "data": "-2:102126:0",
                "leaf": "subtitle",
                "type": "Leaf"
            },
            {
                "data": "-2:102254:0",
                "leaf": "subtitle",
                "type": "Leaf"
            },
            {
                "data": "-2:88776:0",
                "leaf": "subtitle",
                "type": "Leaf"
            },
            {
                "data": "-2:102479:0",
                "leaf": "subtitle",
                "type": "Leaf"
            },
            {
                "data": "-2:88846:0",
                "leaf": "subtitle",
                "type": "Leaf"
            },
            {
                "data": "-2:102753:0",
                "leaf": "subtitle",
                "type": "Leaf"
            },
            {
                "data": "-2:89143:0",
                "leaf": "subtitle",
                "type": "Leaf"
            },
            {
                "data": "-2:88643:0",
                "leaf": "subtitle",
                "type": "Leaf"
            },
            {
                "data": "-2:103196:0",
                "leaf": "subtitle",
                "type": "Leaf"
            },
            {
                "data": "-2:89255:0",
                "leaf": "subtitle",
                "type": "Leaf"
            },
            {
                "data": "-2:92241:0",
                "leaf": "subtitle",
                "type": "Leaf"
            },
            {
                "data": "-2:91794:0",
                "leaf": "subtitle",
                "type": "Leaf"
            },
            {
                "data": "-2:91735:0",
                "leaf": "subtitle",
                "type": "Leaf"
            },
            {
                "data": "-2:101870:0",
                "leaf": "subtitle",
                "type": "Leaf"
            },
            {
                "children": [
                    {
                        "data": "1:87604:-1",
                        "leaf": "clip",
                        "type": "Leaf"
                    },
                    {
                        "data": "0:87604:-1",
                        "leaf": "clip",
                        "type": "Leaf"
                    }
                ],
                "type": "AVSplit"
            },
            {
                "children": [
                    {
                        "data": "1:70930:-1",
                        "leaf": "clip",
                        "type": "Leaf"
                    },
                    {
                        "data": "0:70930:-1",
                        "leaf": "clip",
                        "type": "Leaf"
                    }
                ],
                "type": "AVSplit"
            },
            {
                "children": [
                    {
                        "data": "1:100025:-1",
                        "leaf": "clip",
                        "type": "Leaf"
                    },
                    {
                        "data": "0:100025:-1",
                        "leaf": "clip",
                        "type": "Leaf"
                    }
                ],
                "type": "AVSplit"
            },
            {
                "children": [
                    {
                        "data": "0:100261:-1",
                        "leaf": "clip",
                        "type": "Leaf"
                    },
                    {
                        "data": "1:100261:-1",
                        "leaf": "clip",
                        "type": "Leaf"
                    }
                ],
                "type": "AVSplit"
            },
            {
                "children": [
                    {
                        "data": "0:104285:-1",
                        "leaf": "clip",
                        "type": "Leaf"
                    },
                    {
                        "data": "1:104285:-1",
                        "leaf": "clip",
                        "type": "Leaf"
                    }
                ],
                "type": "AVSplit"
            },
            {
                "children": [
                    {
                        "data": "1:105451:-1",
                        "leaf": "clip",
                        "type": "Leaf"
                    },
                    {
                        "data": "0:105451:-1",
                        "leaf": "clip",
                        "type": "Leaf"
                    }
                ],
                "type": "AVSplit"
            },
            {
                "children": [
                    {
                        "data": "0:83499:-1",
                        "leaf": "clip",
                        "type": "Leaf"
                    },
                    {
                        "data": "1:83499:-1",
                        "leaf": "clip",
                        "type": "Leaf"
                    }
                ],
                "type": "AVSplit"
            },
            {
                "children": [
                    {
                        "data": "0:85434:-1",
                        "leaf": "clip",
                        "type": "Leaf"
                    },
                    {
                        "data": "1:85434:-1",
                        "leaf": "clip",
                        "type": "Leaf"
                    }
                ],
                "type": "AVSplit"
            },
            {
                "children": [
                    {
                        "data": "0:100130:-1",
                        "leaf": "clip",
                        "type": "Leaf"
                    },
                    {
                        "data": "1:100130:-1",
                        "leaf": "clip",
                        "type": "Leaf"
                    }
                ],
                "type": "AVSplit"
            },
            {
                "children": [
                    {
                        "data": "1:101721:-1",
                        "leaf": "clip",
                        "type": "Leaf"
                    },
                    {
                        "data": "0:101721:-1",
                        "leaf": "clip",
                        "type": "Leaf"
                    }
                ],
                "type": "AVSplit"
            },
            {
                "children": [
                    {
                        "data": "0:105489:-1",
                        "leaf": "clip",
                        "type": "Leaf"
                    },
                    {
                        "data": "1:105489:-1",
                        "leaf": "clip",
                        "type": "Leaf"
                    }
                ],
                "type": "AVSplit"
            },
            {
                "data": "-2:106479:0",
                "leaf": "subtitle",
                "type": "Leaf"
            },
            {
                "data": "-2:106185:0",
                "leaf": "subtitle",
                "type": "Leaf"
            },
            {
                "data": "-2:106260:0",
                "leaf": "subtitle",
                "type": "Leaf"
            },
            {
                "data": "-2:106408:0",
                "leaf": "subtitle",
                "type": "Leaf"
            },
            {
                "data": "-2:106683:0",
                "leaf": "subtitle",
                "type": "Leaf"
            },
            {
                "data": "-2:106528:0",
                "leaf": "subtitle",
                "type": "Leaf"
            },
            {
                "data": "-2:106888:0",
                "leaf": "subtitle",
                "type": "Leaf"
            },
            {
                "data": "-2:106795:0",
                "leaf": "subtitle",
                "type": "Leaf"
            },
            {
                "data": "-2:125388:0",
                "leaf": "subtitle",
                "type": "Leaf"
            },
            {
                "data": "-2:121605:0",
                "leaf": "subtitle",
                "type": "Leaf"
            },
            {
                "data": "-2:121525:0",
                "leaf": "subtitle",
                "type": "Leaf"
            },
            {
                "data": "-2:111891:0",
                "leaf": "subtitle",
                "type": "Leaf"
            },
            {
                "data": "-2:119257:0",
                "leaf": "subtitle",
                "type": "Leaf"
            },
            {
                "data": "-2:111211:0",
                "leaf": "subtitle",
                "type": "Leaf"
            },
            {
                "data": "-2:119163:0",
                "leaf": "subtitle",
                "type": "Leaf"
            },
            {
                "data": "-2:126644:0",
                "leaf": "subtitle",
                "type": "Leaf"
            },
            {
                "data": "-2:119065:0",
                "leaf": "subtitle",
                "type": "Leaf"
            },
            {
                "data": "-2:117750:0",
                "leaf": "subtitle",
                "type": "Leaf"
            },
            {
                "data": "-2:117701:0",
                "leaf": "subtitle",
                "type": "Leaf"
            },
            {
                "data": "-2:117071:0",
                "leaf": "subtitle",
                "type": "Leaf"
            },
            {
                "data": "-2:116952:0",
                "leaf": "subtitle",
                "type": "Leaf"
            },
            {
                "data": "-2:116881:0",
                "leaf": "subtitle",
                "type": "Leaf"
            },
            {
                "data": "-2:116763:0",
                "leaf": "subtitle",
                "type": "Leaf"
            },
            {
                "data": "-2:107705:0",
                "leaf": "subtitle",
                "type": "Leaf"
            },
            {
                "data": "-2:107433:0",
                "leaf": "subtitle",
                "type": "Leaf"
            },
            {
                "data": "-2:107512:0",
                "leaf": "subtitle",
                "type": "Leaf"
            },
            {
                "data": "-2:107557:0",
                "leaf": "subtitle",
                "type": "Leaf"
            },
            {
                "data": "-2:107637:0",
                "leaf": "subtitle",
                "type": "Leaf"
            },
            {
                "data": "-2:107367:0",
                "leaf": "subtitle",
                "type": "Leaf"
            },
            {
                "data": "-2:107068:0",
                "leaf": "subtitle",
                "type": "Leaf"
            },
            {
                "data": "-2:107302:0",
                "leaf": "subtitle",
                "type": "Leaf"
            },
            {
                "data": "-2:148032:0",
                "leaf": "subtitle",
                "type": "Leaf"
            },
            {
                "data": "-2:107197:0",
                "leaf": "subtitle",
                "type": "Leaf"
            },
            {
                "data": "-2:147922:0",
                "leaf": "subtitle",
                "type": "Leaf"
            },
            {
                "data": "0:122858:-1",
                "leaf": "clip",
                "type": "Leaf"
            },
            {
                "data": "-2:149491:0",
                "leaf": "subtitle",
                "type": "Leaf"
            },
            {
                "data": "-2:149399:0",
                "leaf": "subtitle",
                "type": "Leaf"
            },
            {
                "data": "1:115456:-1",
                "leaf": "clip",
                "type": "Leaf"
            },
            {
                "data": "-2:107883:0",
                "leaf": "subtitle",
                "type": "Leaf"
            },
            {
                "data": "-2:134133:0",
                "leaf": "subtitle",
                "type": "Leaf"
            },
            {
                "data": "-2:134422:0",
                "leaf": "subtitle",
                "type": "Leaf"
            },
            {
                "data": "-2:132240:0",
                "leaf": "subtitle",
                "type": "Leaf"
            },
            {
                "data": "-2:148078:0",
                "leaf": "subtitle",
                "type": "Leaf"
            },
            {
                "data": "-2:132316:0",
                "leaf": "subtitle",
                "type": "Leaf"
            },
            {
                "data": "-2:126787:0",
                "leaf": "subtitle",
                "type": "Leaf"
            },
            {
                "data": "-2:126850:0",
                "leaf": "subtitle",
                "type": "Leaf"
            },
            {
                "data": "-2:126922:0",
                "leaf": "subtitle",
                "type": "Leaf"
            },
            {
                "data": "-2:126992:0",
                "leaf": "subtitle",
                "type": "Leaf"
            },
            {
                "data": "-2:127059:0",
                "leaf": "subtitle",
                "type": "Leaf"
            },
            {
                "data": "-2:128408:0",
                "leaf": "subtitle",
                "type": "Leaf"
            },
            {
                "data": "-2:137404:0",
                "leaf": "subtitle",
                "type": "Leaf"
            },
            {
                "data": "-2:128466:0",
                "leaf": "subtitle",
                "type": "Leaf"
            },
            {
                "data": "-2:137798:0",
                "leaf": "subtitle",
                "type": "Leaf"
            },
            {
                "data": "-2:128520:0",
                "leaf": "subtitle",
                "type": "Leaf"
            },
            {
                "data": "-2:137844:0",
                "leaf": "subtitle",
                "type": "Leaf"
            },
            {
                "data": "-2:128663:0",
                "leaf": "subtitle",
                "type": "Leaf"
            },
            {
                "data": "-2:137907:0",
                "leaf": "subtitle",
                "type": "Leaf"
            },
            {
                "data": "-2:128779:0",
                "leaf": "subtitle",
                "type": "Leaf"
            },
            {
                "data": "-2:138044:0",
                "leaf": "subtitle",
                "type": "Leaf"
            },
            {
                "data": "-2:128885:0",
                "leaf": "subtitle",
                "type": "Leaf"
            },
            {
                "data": "-2:138070:0",
                "leaf": "subtitle",
                "type": "Leaf"
            },
            {
                "data": "-2:129623:0",
                "leaf": "subtitle",
                "type": "Leaf"
            },
            {
                "data": "-2:119324:0",
                "leaf": "subtitle",
                "type": "Leaf"
            },
            {
                "data": "-2:111957:0",
                "leaf": "subtitle",
                "type": "Leaf"
            },
            {
                "data": "-2:126315:0",
                "leaf": "subtitle",
                "type": "Leaf"
            },
            {
                "data": "-2:119356:0",
                "leaf": "subtitle",
                "type": "Leaf"
            },
            {
                "data": "-2:112125:0",
                "leaf": "subtitle",
                "type": "Leaf"
            },
            {
                "data": "-2:126446:0",
                "leaf": "subtitle",
                "type": "Leaf"
            },
            {
                "data": "-2:119593:0",
                "leaf": "subtitle",
                "type": "Leaf"
            },
            {
                "data": "-2:112189:0",
                "leaf": "subtitle",
                "type": "Leaf"
            },
            {
                "data": "-2:120422:0",
                "leaf": "subtitle",
                "type": "Leaf"
            },
            {
                "data": "-2:114567:0",
                "leaf": "subtitle",
                "type": "Leaf"
            },
            {
                "data": "-2:126546:0",
                "leaf": "subtitle",
                "type": "Leaf"
            },
            {
                "data": "-2:119651:0",
                "leaf": "subtitle",
                "type": "Leaf"
            },
            {
                "data": "-2:112245:0",
                "leaf": "subtitle",
                "type": "Leaf"
            },
            {
                "data": "-2:120503:0",
                "leaf": "subtitle",
                "type": "Leaf"
            },
            {
                "data": "-2:115137:0",
                "leaf": "subtitle",
                "type": "Leaf"
            },
            {
                "data": "-2:119710:0",
                "leaf": "subtitle",
                "type": "Leaf"
            },
            {
                "data": "-2:112296:0",
                "leaf": "subtitle",
                "type": "Leaf"
            },
            {
                "data": "-2:119881:0",
                "leaf": "subtitle",
                "type": "Leaf"
            },
            {
                "data": "-2:114193:0",
                "leaf": "subtitle",
                "type": "Leaf"
            },
            {
                "data": "-2:121470:0",
                "leaf": "subtitle",
                "type": "Leaf"
            },
            {
                "data": "-2:119797:0",
                "leaf": "subtitle",
                "type": "Leaf"
            },
            {
                "data": "-2:113631:0",
                "leaf": "subtitle",
                "type": "Leaf"
            },
            {
                "data": "-2:121170:0",
                "leaf": "subtitle",
                "type": "Leaf"
            },
            {
                "data": "-2:127203:0",
                "leaf": "subtitle",
                "type": "Leaf"
            },
            {
                "data": "0:142440:-1",
                "leaf": "clip",
                "type": "Leaf"
            },
            {
                "data": "-2:115898:0",
                "leaf": "subtitle",
                "type": "Leaf"
            },
            {
                "data": "-2:119751:0",
                "leaf": "subtitle",
                "type": "Leaf"
            },
            {
                "data": "-2:127811:0",
                "leaf": "subtitle",
                "type": "Leaf"
            },
            {
                "data": "-2:148507:0",
                "leaf": "subtitle",
                "type": "Leaf"
            },
            {
                "data": "-2:128040:0",
                "leaf": "subtitle",
                "type": "Leaf"
            },
            {
                "data": "-2:148544:0",
                "leaf": "subtitle",
                "type": "Leaf"
            },
            {
                "data": "-2:127632:0",
                "leaf": "subtitle",
                "type": "Leaf"
            },
            {
                "data": "-2:132529:0",
                "leaf": "subtitle",
                "type": "Leaf"
            },
            {
                "data": "-2:148164:0",
                "leaf": "subtitle",
                "type": "Leaf"
            },
            {
                "data": "-2:148450:0",
                "leaf": "subtitle",
                "type": "Leaf"
            },
            {
                "data": "-2:149659:0",
                "leaf": "subtitle",
                "type": "Leaf"
            },
            {
                "data": "-2:127268:0",
                "leaf": "subtitle",
                "type": "Leaf"
            },
            {
                "data": "-2:116012:0",
                "leaf": "subtitle",
                "type": "Leaf"
            },
            {
                "data": "-2:150238:0",
                "leaf": "subtitle",
                "type": "Leaf"
            },
            {
                "data": "1:115300:-1",
                "leaf": "clip",
                "type": "Leaf"
            },
            {
                "data": "-2:132624:0",
                "leaf": "subtitle",
                "type": "Leaf"
            },
            {
                "data": "-2:127364:0",
                "leaf": "subtitle",
                "type": "Leaf"
            },
            {
                "data": "-2:148292:0",
                "leaf": "subtitle",
                "type": "Leaf"
            },
            {
                "data": "-2:149254:0",
                "leaf": "subtitle",
                "type": "Leaf"
            },
            {
                "data": "-2:148344:0",
                "leaf": "subtitle",
                "type": "Leaf"
            },
            {
                "data": "1:122858:-1",
                "leaf": "clip",
                "type": "Leaf"
            },
            {
                "data": "-2:133952:0",
                "leaf": "subtitle",
                "type": "Leaf"
            },
            {
                "data": "-2:148856:0",
                "leaf": "subtitle",
                "type": "Leaf"
            },
            {
                "data": "-2:148207:0",
                "leaf": "subtitle",
                "type": "Leaf"
            },
            {
                "data": "-2:127456:0",
                "leaf": "subtitle",
                "type": "Leaf"
            },
            {
                "data": "-2:116177:0",
                "leaf": "subtitle",
                "type": "Leaf"
            },
            {
                "data": "-2:116392:0",
                "leaf": "subtitle",
                "type": "Leaf"
            },
            {
                "data": "-2:148386:0",
                "leaf": "subtitle",
                "type": "Leaf"
            },
            {
                "data": "-2:127900:0",
                "leaf": "subtitle",
                "type": "Leaf"
            },
            {
                "data": "-2:127546:0",
                "leaf": "subtitle",
                "type": "Leaf"
            },
            {
                "data": "0:115300:-1",
                "leaf": "clip",
                "type": "Leaf"
            },
            {
                "data": "-2:115465:0",
                "leaf": "subtitle",
                "type": "Leaf"
            },
            {
                "data": "-2:115220:0",
                "leaf": "subtitle",
                "type": "Leaf"
            },
            {
                "data": "-2:115802:0",
                "leaf": "subtitle",
                "type": "Leaf"
            },
            {
                "data": "-2:115316:0",
                "leaf": "subtitle",
                "type": "Leaf"
            },
            {
                "data": "-2:120710:0",
                "leaf": "subtitle",
                "type": "Leaf"
            },
            {
                "data": "-2:120771:0",
                "leaf": "subtitle",
                "type": "Leaf"
            },
            {
                "data": "-2:112595:0",
                "leaf": "subtitle",
                "type": "Leaf"
            },
            {
                "data": "0:115456:-1",
                "leaf": "clip",
                "type": "Leaf"
            },
            {
                "children": [
                    {
                        "data": "1:106081:-1",
                        "leaf": "clip",
                        "type": "Leaf"
                    },
                    {
                        "data": "0:106081:-1",
                        "leaf": "clip",
                        "type": "Leaf"
                    }
                ],
                "type": "AVSplit"
            },
            {
                "children": [
                    {
                        "data": "1:112705:-1",
                        "leaf": "clip",
                        "type": "Leaf"
                    },
                    {
                        "data": "0:112705:-1",
                        "leaf": "clip",
                        "type": "Leaf"
                    }
                ],
                "type": "AVSplit"
            },
            {
                "data": "1:142547:-1",
                "leaf": "clip",
                "type": "Leaf"
            },
            {
                "data": "-2:127958:0",
                "leaf": "subtitle",
                "type": "Leaf"
            },
            {
                "data": "-2:146044:0",
                "leaf": "subtitle",
                "type": "Leaf"
            },
            {
                "data": "-2:132082:0",
                "leaf": "subtitle",
                "type": "Leaf"
            },
            {
                "data": "-2:107921:0",
                "leaf": "subtitle",
                "type": "Leaf"
            },
            {
                "data": "-2:131985:0",
                "leaf": "subtitle",
                "type": "Leaf"
            },
            {
                "data": "-2:145993:0",
                "leaf": "subtitle",
                "type": "Leaf"
            },
            {
                "data": "-2:128231:0",
                "leaf": "subtitle",
                "type": "Leaf"
            },
            {
                "data": "-2:131800:0",
                "leaf": "subtitle",
                "type": "Leaf"
            },
            {
                "data": "-2:108431:0",
                "leaf": "subtitle",
                "type": "Leaf"
            },
            {
                "children": [
                    {
                        "data": "0:114850:-1",
                        "leaf": "clip",
                        "type": "Leaf"
                    },
                    {
                        "data": "1:114850:-1",
                        "leaf": "clip",
                        "type": "Leaf"
                    }
                ],
                "type": "AVSplit"
            },
            {
                "data": "-2:131733:0",
                "leaf": "subtitle",
                "type": "Leaf"
            },
            {
                "data": "-2:108299:0",
                "leaf": "subtitle",
                "type": "Leaf"
            },
            {
                "data": "-2:108361:0",
                "leaf": "subtitle",
                "type": "Leaf"
            },
            {
                "data": "-2:132145:0",
                "leaf": "subtitle",
                "type": "Leaf"
            },
            {
                "data": "-2:108945:0",
                "leaf": "subtitle",
                "type": "Leaf"
            },
            {
                "data": "-2:108477:0",
                "leaf": "subtitle",
                "type": "Leaf"
            },
            {
                "data": "-2:109131:0",
                "leaf": "subtitle",
                "type": "Leaf"
            },
            {
                "data": "-2:109207:0",
                "leaf": "subtitle",
                "type": "Leaf"
            },
            {
                "data": "-2:128100:0",
                "leaf": "subtitle",
                "type": "Leaf"
            },
            {
                "data": "-2:109415:0",
                "leaf": "subtitle",
                "type": "Leaf"
            },
            {
                "data": "-2:110283:0",
                "leaf": "subtitle",
                "type": "Leaf"
            },
            {
                "data": "-2:110622:0",
                "leaf": "subtitle",
                "type": "Leaf"
            },
            {
                "data": "-2:110432:0",
                "leaf": "subtitle",
                "type": "Leaf"
            },
            {
                "data": "-2:110544:0",
                "leaf": "subtitle",
                "type": "Leaf"
            },
            {
                "children": [
                    {
                        "data": "0:116451:-1",
                        "leaf": "clip",
                        "type": "Leaf"
                    },
                    {
                        "data": "1:116451:-1",
                        "leaf": "clip",
                        "type": "Leaf"
                    }
                ],
                "type": "AVSplit"
            },
            {
                "children": [
                    {
                        "data": "0:115652:-1",
                        "leaf": "clip",
                        "type": "Leaf"
                    },
                    {
                        "data": "1:115652:-1",
                        "leaf": "clip",
                        "type": "Leaf"
                    }
                ],
                "type": "AVSplit"
            },
            {
                "data": "-2:144013:0",
                "leaf": "subtitle",
                "type": "Leaf"
            },
            {
                "data": "-2:129684:0",
                "leaf": "subtitle",
                "type": "Leaf"
            },
            {
                "data": "-2:145836:0",
                "leaf": "subtitle",
                "type": "Leaf"
            },
            {
                "data": "-2:130991:0",
                "leaf": "subtitle",
                "type": "Leaf"
            },
            {
                "data": "-2:145890:0",
                "leaf": "subtitle",
                "type": "Leaf"
            },
            {
                "data": "-2:131142:0",
                "leaf": "subtitle",
                "type": "Leaf"
            },
            {
                "data": "-2:131248:0",
                "leaf": "subtitle",
                "type": "Leaf"
            },
            {
                "data": "-2:131389:0",
                "leaf": "subtitle",
                "type": "Leaf"
            },
            {
                "data": "-2:146165:0",
                "leaf": "subtitle",
                "type": "Leaf"
            },
            {
                "data": "-2:131468:0",
                "leaf": "subtitle",
                "type": "Leaf"
            },
            {
                "data": "-2:146230:0",
                "leaf": "subtitle",
                "type": "Leaf"
            },
            {
                "data": "-2:131532:0",
                "leaf": "subtitle",
                "type": "Leaf"
            },
            {
                "data": "-2:131580:0",
                "leaf": "subtitle",
                "type": "Leaf"
            },
            {
                "children": [
                    {
                        "data": "1:143070:-1",
                        "leaf": "clip",
                        "type": "Leaf"
                    },
                    {
                        "data": "0:143070:-1",
                        "leaf": "clip",
                        "type": "Leaf"
                    }
                ],
                "type": "AVSplit"
            },
            {
                "data": "-2:146344:0",
                "leaf": "subtitle",
                "type": "Leaf"
            },
            {
                "data": "-2:146502:0",
                "leaf": "subtitle",
                "type": "Leaf"
            },
            {
                "data": "-2:146574:0",
                "leaf": "subtitle",
                "type": "Leaf"
            },
            {
                "data": "-2:146640:0",
                "leaf": "subtitle",
                "type": "Leaf"
            },
            {
                "data": "-2:146401:0",
                "leaf": "subtitle",
                "type": "Leaf"
            },
            {
                "data": "-2:147826:0",
                "leaf": "subtitle",
                "type": "Leaf"
            },
            {
                "data": "-2:107139:0",
                "leaf": "subtitle",
                "type": "Leaf"
            },
            {
                "children": [
                    {
                        "data": "0:117763:-1",
                        "leaf": "clip",
                        "type": "Leaf"
                    },
                    {
                        "data": "1:117763:-1",
                        "leaf": "clip",
                        "type": "Leaf"
                    }
                ],
                "type": "AVSplit"
            }
        ],
        "type": "Normal"
    }
]
</property>
  <property name="kdenlive:sequenceproperties.guides">[
]
</property>
  <track producer="producer0"/>
  <track producer="tractor0"/>
  <track producer="tractor1"/>
  <transition id="transition60">
   <property name="a_track">0</property>
   <property name="b_track">1</property>
   <property name="mlt_service">mix</property>
   <property name="kdenlive_id">mix</property>
   <property name="internal_added">237</property>
   <property name="always_active">1</property>
   <property name="accepts_blanks">1</property>
   <property name="sum">1</property>
  </transition>
  <transition id="transition61">
   <property name="a_track">0</property>
   <property name="b_track">2</property>
   <property name="compositing">0</property>
   <property name="distort">0</property>
   <property name="rotate_center">0</property>
   <property name="mlt_service">qtblend</property>
   <property name="kdenlive_id">qtblend</property>
   <property name="internal_added">237</property>
   <property name="always_active">1</property>
  </transition>
  <filter id="filter12">
   <property name="window">75</property>
   <property name="max_gain">20dB</property>
   <property name="mlt_service">volume</property>
   <property name="internal_added">237</property>
   <property name="disable">1</property>
  </filter>
  <filter id="filter13">
   <property name="channel">-1</property>
   <property name="mlt_service">panner</property>
   <property name="internal_added">237</property>
   <property name="start">0.5</property>
   <property name="disable">1</property>
  </filter>
  <filter id="filter14">
   <property name="mlt_service">avfilter.subtitles</property>
   <property name="av.alpha">1</property>
   <property name="internal_added">237</property>
   <property name="av.filename">Riddick (2013) - Unperverted Edition-bad.kdenlive.ass</property>
   <property name="disable">1</property>
  </filter>
 </tractor>
 <playlist id="main_bin">
  <property name="kdenlive:folder.-1.2">Sequences</property>
  <property name="kdenlive:sequenceFolder">2</property>
  <property name="kdenlive:docproperties.activetimeline">{4b126a86-8850-45da-8263-caa46739adeb}</property>
  <property name="kdenlive:docproperties.audioChannels">2</property>
  <property name="kdenlive:docproperties.binsort">0</property>
  <property name="kdenlive:docproperties.browserurl">C:/Users/kado/Videos/Alien Resurrection/</property>
  <property name="kdenlive:docproperties.documentid">1750806985643</property>
  <property name="kdenlive:docproperties.enableTimelineZone">0</property>
  <property name="kdenlive:docproperties.enableexternalproxy">0</property>
  <property name="kdenlive:docproperties.enableproxy">0</property>
  <property name="kdenlive:docproperties.externalproxyparams">./;;.LRV;./;;.MP4</property>
  <property name="kdenlive:docproperties.generateimageproxy">0</property>
  <property name="kdenlive:docproperties.generateproxy">0</property>
  <property name="kdenlive:docproperties.guidesCategories">[
    {
        "color": "#9b59b6",
        "comment": "Category 1",
        "index": 0
    },
    {
        "color": "#3daee9",
        "comment": "Category 2",
        "index": 1
    },
    {
        "color": "#1abc9c",
        "comment": "Category 3",
        "index": 2
    },
    {
        "color": "#1cdc9a",
        "comment": "Category 4",
        "index": 3
    },
    {
        "color": "#c9ce3b",
        "comment": "Category 5",
        "index": 4
    },
    {
        "color": "#fdbc4b",
        "comment": "Category 6",
        "index": 5
    },
    {
        "color": "#f39c1f",
        "comment": "Category 7",
        "index": 6
    },
    {
        "color": "#f47750",
        "comment": "Category 8",
        "index": 7
    },
    {
        "color": "#da4453",
        "comment": "Category 9",
        "index": 8
    }
]
</property>
  <property name="kdenlive:docproperties.kdenliveversion">25.04.2</property>
  <property name="kdenlive:docproperties.opensequences">{4b126a86-8850-45da-8263-caa46739adeb}</property>
  <property name="kdenlive:docproperties.previewextension"/>
  <property name="kdenlive:docproperties.previewparameters"/>
  <property name="kdenlive:docproperties.profile">C:/Users/kado/AppData/Roaming/kdenlive/profiles/customprofile7</property>
  <property name="kdenlive:docproperties.proxyextension"/>
  <property name="kdenlive:docproperties.proxyimageminsize">2000</property>
  <property name="kdenlive:docproperties.proxyimagesize">800</property>
  <property name="kdenlive:docproperties.proxyminsize">1000</property>
  <property name="kdenlive:docproperties.proxyparams"/>
  <property name="kdenlive:docproperties.proxyresize">640</property>
  <property name="kdenlive:docproperties.rendercategory">Generic (HD for web, mobile devices...)</property>
  <property name="kdenlive:docproperties.rendercustomquality">-1</property>
  <property name="kdenlive:docproperties.renderendguide">-1</property>
  <property name="kdenlive:docproperties.renderexportaudio">0</property>
  <property name="kdenlive:docproperties.renderfullcolorrange">0</property>
  <property name="kdenlive:docproperties.rendermode">0</property>
  <property name="kdenlive:docproperties.renderplay">0</property>
  <property name="kdenlive:docproperties.renderpreview">0</property>
  <property name="kdenlive:docproperties.renderprofile">MP4-H264/AAC</property>
  <property name="kdenlive:docproperties.renderrescale">0</property>
  <property name="kdenlive:docproperties.renderrescaleheight">400</property>
  <property name="kdenlive:docproperties.renderrescalewidth">960</property>
  <property name="kdenlive:docproperties.renderspeed">6</property>
  <property name="kdenlive:docproperties.renderstartguide">-1</property>
  <property name="kdenlive:docproperties.rendertcoverlay">0</property>
  <property name="kdenlive:docproperties.rendertctype">-1</property>
  <property name="kdenlive:docproperties.rendertwopass">0</property>
  <property name="kdenlive:docproperties.seekOffset">30000</property>
  <property name="kdenlive:docproperties.sessionid">{0106d699-55df-40b6-82bf-92c9ec479433}</property>
  <property name="kdenlive:docproperties.uuid">{4b126a86-8850-45da-8263-caa46739adeb}</property>
  <property name="kdenlive:docproperties.version">1.1</property>
  <property name="kdenlive:expandedFolders"/>
  <property name="kdenlive:binZoom">4</property>
  <property name="kdenlive:extraBins">project_bin:-1:0</property>
  <property name="kdenlive:documentnotes"/>
  <property name="kdenlive:documentnotesversion">2</property>
  <property name="xml_retain">1</property>
  <entry in="00:00:00.000" out="02:06:47.631" producer="chain3"/>
  <entry in="00:00:00.000" out="01:46:56.890" producer="tractor2"/>
 </playlist>
 <tractor id="tractor3" in="00:00:00.000" out="01:46:44.169">
  <property name="kdenlive:projectTractor">1</property>
  <track in="00:00:00.000" out="01:46:44.169" producer="tractor2"/>
 </tractor>
</mlt>
