<?xml version='1.0' encoding='utf-8'?>
<mlt LC_NUMERIC="en_US.UTF-8" producer="main_bin" root="/FanEdits/FanMixes/Sonic - DeSchwartzed" version="7.33.0">
 <profile colorspace="709" description="3840x1606 23.98fps" display_aspect_den="803" display_aspect_num="1920" frame_rate_den="1001" frame_rate_num="24000" height="1606" progressive="1" sample_aspect_den="1" sample_aspect_num="1" width="3840"/>
 <chain id="chain4" out="02:04:23.941">
  <property name="length">178956</property>
  <property name="eof">pause</property>
  <property name="resource">/Kids Movies/Sonic/Sonic 2022/Sonic 2 Il Film (2023) 2160p 4K H265 10 Bit iTA ENG AC3 5.1 Sub Ita Eng - iDN_CreW.mkv</property>
  <property name="mlt_service">avformat-novalidate</property>
  <property name="meta.media.nb_streams">7</property>
  <property name="meta.media.0.stream.type">video</property>
  <property name="meta.media.0.stream.frame_rate">23.976</property>
  <property name="meta.media.0.stream.sample_aspect_ratio">1</property>
  <property name="meta.media.0.codec.width">3840</property>
  <property name="meta.media.0.codec.height">1606</property>
  <property name="meta.media.0.codec.rotate">0</property>
  <property name="meta.media.0.codec.pix_fmt">yuv420p10le</property>
  <property name="meta.media.0.codec.sample_aspect_ratio">1</property>
  <property name="meta.media.0.codec.colorspace">709</property>
  <property name="meta.media.0.codec.color_trc">1</property>
  <property name="meta.media.0.codec.name">hevc</property>
  <property name="meta.media.0.codec.long_name">HEVC (High Efficiency Video Coding)</property>
  <property name="meta.media.0.codec.bit_rate">0</property>
  <property name="meta.attr.0.stream.BPS-eng.markup">6000404</property>
  <property name="meta.attr.0.stream.DURATION-eng.markup">02:02:18.123000000</property>
  <property name="meta.attr.0.stream.NUMBER_OF_FRAMES-eng.markup">175939</property>
  <property name="meta.attr.0.stream.NUMBER_OF_BYTES-eng.markup">5503962903</property>
  <property name="meta.attr.0.stream._STATISTICS_WRITING_APP-eng.markup">mkvmerge v49.0.0 ('Sick Of Losing Soulmates') 64-bit</property>
  <property name="meta.attr.0.stream._STATISTICS_WRITING_DATE_UTC-eng.markup">2022-05-31 19:08:19</property>
  <property name="meta.attr.0.stream._STATISTICS_TAGS-eng.markup">BPS DURATION NUMBER_OF_FRAMES NUMBER_OF_BYTES</property>
  <property name="meta.media.1.stream.type">audio</property>
  <property name="meta.media.1.codec.sample_fmt">fltp</property>
  <property name="meta.media.1.codec.sample_rate">48000</property>
  <property name="meta.media.1.codec.channels">6</property>
  <property name="meta.media.1.codec.layout">5.1(side)</property>
  <property name="meta.media.1.codec.name">ac3</property>
  <property name="meta.media.1.codec.long_name">ATSC A/52A (AC-3)</property>
  <property name="meta.media.1.codec.bit_rate">640000</property>
  <property name="meta.attr.1.stream.language.markup">ita</property>
  <property name="meta.attr.1.stream.title.markup">AC3 iTA</property>
  <property name="meta.attr.1.stream.BPS-eng.markup">640000</property>
  <property name="meta.attr.1.stream.DURATION-eng.markup">02:04:23.968000000</property>
  <property name="meta.attr.1.stream.NUMBER_OF_FRAMES-eng.markup">233249</property>
  <property name="meta.attr.1.stream.NUMBER_OF_BYTES-eng.markup">597117440</property>
  <property name="meta.attr.1.stream._STATISTICS_WRITING_APP-eng.markup">mkvmerge v49.0.0 ('Sick Of Losing Soulmates') 64-bit</property>
  <property name="meta.attr.1.stream._STATISTICS_WRITING_DATE_UTC-eng.markup">2022-05-31 19:08:19</property>
  <property name="meta.attr.1.stream._STATISTICS_TAGS-eng.markup">BPS DURATION NUMBER_OF_FRAMES NUMBER_OF_BYTES</property>
  <property name="meta.media.2.stream.type">audio</property>
  <property name="meta.media.2.codec.sample_fmt">fltp</property>
  <property name="meta.media.2.codec.sample_rate">48000</property>
  <property name="meta.media.2.codec.channels">6</property>
  <property name="meta.media.2.codec.layout">5.1(side)</property>
  <property name="meta.media.2.codec.name">ac3</property>
  <property name="meta.media.2.codec.long_name">ATSC A/52A (AC-3)</property>
  <property name="meta.media.2.codec.bit_rate">384000</property>
  <property name="meta.attr.2.stream.language.markup">eng</property>
  <property name="meta.attr.2.stream.title.markup">AC3 Eng</property>
  <property name="meta.attr.2.stream.BPS-eng.markup">384000</property>
  <property name="meta.attr.2.stream.DURATION-eng.markup">02:02:18.304000000</property>
  <property name="meta.attr.2.stream.NUMBER_OF_FRAMES-eng.markup">229322</property>
  <property name="meta.attr.2.stream.NUMBER_OF_BYTES-eng.markup">352238592</property>
  <property name="meta.attr.2.stream._STATISTICS_WRITING_APP-eng.markup">mkvmerge v49.0.0 ('Sick Of Losing Soulmates') 64-bit</property>
  <property name="meta.attr.2.stream._STATISTICS_WRITING_DATE_UTC-eng.markup">2022-05-31 19:08:19</property>
  <property name="meta.attr.2.stream._STATISTICS_TAGS-eng.markup">BPS DURATION NUMBER_OF_FRAMES NUMBER_OF_BYTES</property>
  <property name="meta.media.3.codec.name">srt</property>
  <property name="meta.media.3.codec.long_name">SubRip subtitle</property>
  <property name="meta.media.3.codec.bit_rate">0</property>
  <property name="meta.attr.3.stream.language.markup">ita</property>
  <property name="meta.attr.3.stream.title.markup">Forced</property>
  <property name="meta.attr.3.stream.BPS-eng.markup">0</property>
  <property name="meta.attr.3.stream.DURATION-eng.markup">02:01:21.816000000</property>
  <property name="meta.attr.3.stream.NUMBER_OF_FRAMES-eng.markup">25</property>
  <property name="meta.attr.3.stream.NUMBER_OF_BYTES-eng.markup">600</property>
  <property name="meta.attr.3.stream._STATISTICS_WRITING_APP-eng.markup">mkvmerge v49.0.0 ('Sick Of Losing Soulmates') 64-bit</property>
  <property name="meta.attr.3.stream._STATISTICS_WRITING_DATE_UTC-eng.markup">2022-05-31 19:08:19</property>
  <property name="meta.attr.3.stream._STATISTICS_TAGS-eng.markup">BPS DURATION NUMBER_OF_FRAMES NUMBER_OF_BYTES</property>
  <property name="meta.media.4.codec.name">srt</property>
  <property name="meta.media.4.codec.long_name">SubRip subtitle</property>
  <property name="meta.media.4.codec.bit_rate">0</property>
  <property name="meta.attr.4.stream.language.markup">ita</property>
  <property name="meta.attr.4.stream.title.markup">Regular</property>
  <property name="meta.attr.4.stream.BPS-eng.markup">45</property>
  <property name="meta.attr.4.stream.DURATION-eng.markup">02:01:21.816000000</property>
  <property name="meta.attr.4.stream.NUMBER_OF_FRAMES-eng.markup">1376</property>
  <property name="meta.attr.4.stream.NUMBER_OF_BYTES-eng.markup">41271</property>
  <property name="meta.attr.4.stream._STATISTICS_WRITING_APP-eng.markup">mkvmerge v49.0.0 ('Sick Of Losing Soulmates') 64-bit</property>
  <property name="meta.attr.4.stream._STATISTICS_WRITING_DATE_UTC-eng.markup">2022-05-31 19:08:19</property>
  <property name="meta.attr.4.stream._STATISTICS_TAGS-eng.markup">BPS DURATION NUMBER_OF_FRAMES NUMBER_OF_BYTES</property>
  <property name="meta.media.5.codec.name">srt</property>
  <property name="meta.media.5.codec.long_name">SubRip subtitle</property>
  <property name="meta.media.5.codec.bit_rate">0</property>
  <property name="meta.attr.5.stream.language.markup">eng</property>
  <property name="meta.attr.5.stream.title.markup">Forced</property>
  <property name="meta.attr.5.stream.BPS-eng.markup">0</property>
  <property name="meta.attr.5.stream.DURATION-eng.markup">00:42:25.379000000</property>
  <property name="meta.attr.5.stream.NUMBER_OF_FRAMES-eng.markup">7</property>
  <property name="meta.attr.5.stream.NUMBER_OF_BYTES-eng.markup">170</property>
  <property name="meta.attr.5.stream._STATISTICS_WRITING_APP-eng.markup">mkvmerge v49.0.0 ('Sick Of Losing Soulmates') 64-bit</property>
  <property name="meta.attr.5.stream._STATISTICS_WRITING_DATE_UTC-eng.markup">2022-05-31 19:08:19</property>
  <property name="meta.attr.5.stream._STATISTICS_TAGS-eng.markup">BPS DURATION NUMBER_OF_FRAMES NUMBER_OF_BYTES</property>
  <property name="meta.media.6.codec.name">srt</property>
  <property name="meta.media.6.codec.long_name">SubRip subtitle</property>
  <property name="meta.media.6.codec.bit_rate">0</property>
  <property name="meta.attr.6.stream.language.markup">eng</property>
  <property name="meta.attr.6.stream.title.markup">Regular</property>
  <property name="meta.attr.6.stream.BPS-eng.markup">60</property>
  <property name="meta.attr.6.stream.DURATION-eng.markup">01:52:04.859000000</property>
  <property name="meta.attr.6.stream.NUMBER_OF_FRAMES-eng.markup">1647</property>
  <property name="meta.attr.6.stream.NUMBER_OF_BYTES-eng.markup">50781</property>
  <property name="meta.attr.6.stream._STATISTICS_WRITING_APP-eng.markup">mkvmerge v49.0.0 ('Sick Of Losing Soulmates') 64-bit</property>
  <property name="meta.attr.6.stream._STATISTICS_WRITING_DATE_UTC-eng.markup">2022-05-31 19:08:19</property>
  <property name="meta.attr.6.stream._STATISTICS_TAGS-eng.markup">BPS DURATION NUMBER_OF_FRAMES NUMBER_OF_BYTES</property>
  <property name="meta.attr.title.markup">UHD 4K - iDN_CreW</property>
  <property name="meta.attr.encoder.markup">libebml v1.4.0 + libmatroska v1.6.1</property>
  <property name="meta.attr.creation_time.markup">2022-05-31T19:08:19.000000Z</property>
  <property name="seekable">1</property>
  <property name="meta.media.sample_aspect_num">1</property>
  <property name="meta.media.sample_aspect_den">1</property>
  <property name="audio_index">1</property>
  <property name="video_index">0</property>
  <property name="vstream">0</property>
  <property name="meta.media.frame_rate_num">24000</property>
  <property name="meta.media.frame_rate_den">1001</property>
  <property name="meta.media.colorspace">709</property>
  <property name="meta.media.color_trc">1</property>
  <property name="meta.media.has_b_frames">2</property>
  <property name="meta.media.width">3840</property>
  <property name="meta.media.height">1606</property>
  <property name="meta.media.aspect_ratio">1</property>
  <property name="meta.media.color_range">mpeg</property>
  <property name="astream">0</property>
  <property name="meta.media.top_field_first">0</property>
  <property name="meta.media.progressive">1</property>
  <property name="kdenlive:control_uuid">{8662ceb9-f96f-4607-812c-ea78d123d3ef}</property>
  <property name="kdenlive:id">4</property>
  <property name="kdenlive:clip_type">0</property>
  <property name="kdenlive:file_size">6455506204</property>
  <property name="kdenlive:file_hash">c805e36cb967f0098696aec55aa79048</property>
  <property name="kdenlive:folderid">-1</property>
  <property name="kdenlive:monitorPosition">2741</property>
  <property name="kdenlive:markers">[
]
</property>
  <property name="mute_on_pause">0</property>
  <property name="kdenlive:active_streams">1;2</property>
 </chain>
 <chain id="chain2" out="00:02:05.839">
  <property name="length">3018</property>
  <property name="eof">pause</property>
  <property name="resource">ost2/Sonic_the_Hedgehog_2_Bluest_Sky_OC_ReMix.mp3</property>
  <property name="mlt_service">avformat-novalidate</property>
  <property name="meta.media.nb_streams">2</property>
  <property name="meta.media.0.stream.type">audio</property>
  <property name="meta.media.0.codec.sample_fmt">fltp</property>
  <property name="meta.media.0.codec.sample_rate">44100</property>
  <property name="meta.media.0.codec.channels">2</property>
  <property name="meta.media.0.codec.layout">stereo</property>
  <property name="meta.media.0.codec.name">mp3float</property>
  <property name="meta.media.0.codec.long_name">MP3 (MPEG audio layer 3)</property>
  <property name="meta.media.0.codec.bit_rate">192000</property>
  <property name="meta.media.1.stream.type">video</property>
  <property name="meta.media.1.stream.frame_rate">90000</property>
  <property name="meta.media.1.stream.sample_aspect_ratio">0</property>
  <property name="meta.media.1.codec.width">700</property>
  <property name="meta.media.1.codec.height">700</property>
  <property name="meta.media.1.codec.rotate">0</property>
  <property name="meta.media.1.codec.pix_fmt">yuvj444p</property>
  <property name="meta.media.1.codec.sample_aspect_ratio">0</property>
  <property name="meta.media.1.codec.colorspace">601</property>
  <property name="meta.media.1.codec.name">mjpeg</property>
  <property name="meta.media.1.codec.long_name">MJPEG (Motion JPEG)</property>
  <property name="meta.media.1.codec.bit_rate">0</property>
  <property name="meta.attr.1.stream.comment.markup">Cover (front)</property>
  <property name="meta.attr.album.markup">ocremix.org</property>
  <property name="meta.attr.artist.markup">Tim Sheehy</property>
  <property name="meta.attr.album_artist.markup">OverClocked ReMix</property>
  <property name="meta.attr.comment.markup">"Sky Chase Zone" from Sonic the Hedgehog 2 for the Sega Genesis/Mega Drive game console. Always loved this one ^^&#xd;
&#xd;
Tim Sheehy&#xd;
tim@timsheehy.com&#xd;
http://timsheehy.com</property>
  <property name="meta.attr.composer.markup">Masato Nakamura</property>
  <property name="meta.attr.grouping.markup">Sonic the Hedgehog 2</property>
  <property name="meta.attr.copyright.markup">Sega</property>
  <property name="meta.attr.encoded_by.markup">Tim Sheehy (tim@timsheehy.com)</property>
  <property name="meta.attr.genre.markup">Game</property>
  <property name="meta.attr.compilation.markup">1</property>
  <property name="meta.attr.TOPE.markup">Sega Genesis</property>
  <property name="meta.attr.publisher.markup">OverClocked ReMix</property>
  <property name="meta.attr.SETSUBTITLE.markup">OCR00337</property>
  <property name="meta.attr.TIT3.markup">Bluest Sky</property>
  <property name="meta.attr.title.markup">Sonic the Hedgehog 2 "Bluest Sky" OC ReMix</property>
  <property name="meta.attr.track.markup">337</property>
  <property name="meta.attr.date.markup">2001</property>
  <property name="seekable">1</property>
  <property name="meta.media.sample_aspect_num">1</property>
  <property name="meta.media.sample_aspect_den">1</property>
  <property name="audio_index">0</property>
  <property name="video_index">1</property>
  <property name="vstream">0</property>
  <property name="meta.media.frame_rate_num">90000</property>
  <property name="meta.media.frame_rate_den">1</property>
  <property name="meta.media.colorspace">601</property>
  <property name="meta.media.color_trc">2</property>
  <property name="meta.media.has_b_frames">0</property>
  <property name="meta.media.width">700</property>
  <property name="meta.media.height">700</property>
  <property name="meta.media.aspect_ratio">1</property>
  <property name="meta.media.color_range">full</property>
  <property name="astream">0</property>
  <property name="meta.media.top_field_first">0</property>
  <property name="meta.media.progressive">1</property>
  <property name="kdenlive:folderid">12</property>
  <property name="kdenlive:id">5</property>
  <property name="kdenlive:control_uuid">{6ed7488d-c853-49ad-8914-bc6f655495c3}</property>
  <property name="mute_on_pause">0</property>
  <property name="kdenlive:clip_type">0</property>
  <property name="kdenlive:coverartstream">1</property>
  <property name="kdenlive:file_size">3108600</property>
  <property name="kdenlive:file_hash">9e39754832bc3be94f9d0f80a60c6450</property>
  <property name="kdenlive:monitorPosition">65</property>
 </chain>
 <chain id="chain5" out="00:02:44.836">
  <property name="length">3953</property>
  <property name="eof">pause</property>
  <property name="resource">ost2/Sonic_the_Hedgehog_2_Bottled_Metro_OC_ReMix.mp3</property>
  <property name="mlt_service">avformat-novalidate</property>
  <property name="meta.media.nb_streams">2</property>
  <property name="meta.media.0.stream.type">audio</property>
  <property name="meta.media.0.codec.sample_fmt">fltp</property>
  <property name="meta.media.0.codec.sample_rate">44100</property>
  <property name="meta.media.0.codec.channels">2</property>
  <property name="meta.media.0.codec.layout">stereo</property>
  <property name="meta.media.0.codec.name">mp3float</property>
  <property name="meta.media.0.codec.long_name">MP3 (MPEG audio layer 3)</property>
  <property name="meta.media.0.codec.bit_rate">192000</property>
  <property name="meta.media.1.stream.type">video</property>
  <property name="meta.media.1.stream.frame_rate">90000</property>
  <property name="meta.media.1.stream.sample_aspect_ratio">0</property>
  <property name="meta.media.1.codec.width">700</property>
  <property name="meta.media.1.codec.height">700</property>
  <property name="meta.media.1.codec.rotate">0</property>
  <property name="meta.media.1.codec.pix_fmt">yuvj444p</property>
  <property name="meta.media.1.codec.sample_aspect_ratio">0</property>
  <property name="meta.media.1.codec.colorspace">601</property>
  <property name="meta.media.1.codec.name">mjpeg</property>
  <property name="meta.media.1.codec.long_name">MJPEG (Motion JPEG)</property>
  <property name="meta.media.1.codec.bit_rate">0</property>
  <property name="meta.attr.1.stream.comment.markup">Cover (front)</property>
  <property name="meta.attr.album.markup">ocremix.org</property>
  <property name="meta.attr.artist.markup">BitMaP</property>
  <property name="meta.attr.album_artist.markup">OverClocked ReMix</property>
  <property name="meta.attr.comment.markup">"Metropolis Zone," Sonic the Hedgehog 2&#xd;
"Hydrocity Zone," Sonic the Hedgehog 3&#xd;
&#xd;
Since this is generally liked in the forums, I decided to send it in after all this time. Thank you for listening.&#xd;
&#xd;
Ben Ritter&#xd;
ritter1960@aol.com&#xd;
http://bitmap.9cy.com</property>
  <property name="meta.attr.composer.markup">Masato Nakamura, Sachio Ogawa, Yoshiaki Kashima, Tatsuyuki Maeda, Tomonori Sawada, Masayuki Nagao, Jun Senoue, Masanori Hikichi</property>
  <property name="meta.attr.grouping.markup">Sonic the Hedgehog 2</property>
  <property name="meta.attr.copyright.markup">Sega</property>
  <property name="meta.attr.encoded_by.markup">Ben Ritter (ritter1960@aol.com)</property>
  <property name="meta.attr.genre.markup">Game</property>
  <property name="meta.attr.compilation.markup">1</property>
  <property name="meta.attr.TOPE.markup">Sega Genesis</property>
  <property name="meta.attr.publisher.markup">OverClocked ReMix</property>
  <property name="meta.attr.SETSUBTITLE.markup">OCR01032</property>
  <property name="meta.attr.TIT3.markup">Bottled Metro</property>
  <property name="meta.attr.title.markup">Sonic the Hedgehog 2 "Bottled Metro" OC ReMix</property>
  <property name="meta.attr.track.markup">1032</property>
  <property name="meta.attr.date.markup">2003</property>
  <property name="seekable">1</property>
  <property name="meta.media.sample_aspect_num">1</property>
  <property name="meta.media.sample_aspect_den">1</property>
  <property name="audio_index">0</property>
  <property name="video_index">1</property>
  <property name="vstream">0</property>
  <property name="meta.media.frame_rate_num">90000</property>
  <property name="meta.media.frame_rate_den">1</property>
  <property name="meta.media.colorspace">601</property>
  <property name="meta.media.color_trc">2</property>
  <property name="meta.media.has_b_frames">0</property>
  <property name="meta.media.width">700</property>
  <property name="meta.media.height">700</property>
  <property name="meta.media.aspect_ratio">1</property>
  <property name="meta.media.color_range">full</property>
  <property name="astream">0</property>
  <property name="meta.media.top_field_first">0</property>
  <property name="meta.media.progressive">1</property>
  <property name="kdenlive:folderid">12</property>
  <property name="kdenlive:id">6</property>
  <property name="kdenlive:control_uuid">{8e1cf057-e39b-4c03-b5bb-44a38372c215}</property>
  <property name="mute_on_pause">0</property>
  <property name="kdenlive:clip_type">0</property>
  <property name="kdenlive:coverartstream">1</property>
  <property name="kdenlive:file_size">4044795</property>
  <property name="kdenlive:file_hash">04c614cfd4b1e9a0c597596145b884c4</property>
  <property name="kdenlive:monitorPosition">150</property>
 </chain>
 <chain id="chain6" out="00:03:35.077">
  <property name="length">5157</property>
  <property name="eof">pause</property>
  <property name="resource">ost2/Sonic_the_Hedgehog_2_Chemical_Blip_OC_ReMix.mp3</property>
  <property name="mlt_service">avformat-novalidate</property>
  <property name="meta.media.nb_streams">2</property>
  <property name="meta.media.0.stream.type">audio</property>
  <property name="meta.media.0.codec.sample_fmt">fltp</property>
  <property name="meta.media.0.codec.sample_rate">44100</property>
  <property name="meta.media.0.codec.channels">2</property>
  <property name="meta.media.0.codec.layout">stereo</property>
  <property name="meta.media.0.codec.name">mp3float</property>
  <property name="meta.media.0.codec.long_name">MP3 (MPEG audio layer 3)</property>
  <property name="meta.media.0.codec.bit_rate">192000</property>
  <property name="meta.media.1.stream.type">video</property>
  <property name="meta.media.1.stream.frame_rate">90000</property>
  <property name="meta.media.1.stream.sample_aspect_ratio">0</property>
  <property name="meta.media.1.codec.width">700</property>
  <property name="meta.media.1.codec.height">700</property>
  <property name="meta.media.1.codec.rotate">0</property>
  <property name="meta.media.1.codec.pix_fmt">yuvj444p</property>
  <property name="meta.media.1.codec.sample_aspect_ratio">0</property>
  <property name="meta.media.1.codec.colorspace">601</property>
  <property name="meta.media.1.codec.name">mjpeg</property>
  <property name="meta.media.1.codec.long_name">MJPEG (Motion JPEG)</property>
  <property name="meta.media.1.codec.bit_rate">0</property>
  <property name="meta.attr.1.stream.comment.markup">Cover (front)</property>
  <property name="meta.attr.album.markup">ocremix.org</property>
  <property name="meta.attr.artist.markup">Anti-Syne</property>
  <property name="meta.attr.album_artist.markup">OverClocked ReMix</property>
  <property name="meta.attr.comment.markup">So this ReMix was a bit of a wonderful accident. It started life as an original track until, whilst playing 'round with it, I accidentally played those first two chords of "Chemical Plant Zone." Out of curiosity, I played the "Chemical" melody into my original and it just seemed to work. This is my first ReMix to really offer a major tonality change from the source, and I'm extremely pleased with how it turned out. Out of interest, it's called "Chemical Blip" not in reference to the blippy, glitchy part, but in reference to a little blip sound that I couldn't seem to stop in early versions of this ReMix. Blip is now gone, but hopefully not forgotten. Enjoy!&#xd;
&#xd;
Jack Lewis&#xd;
jack_lewis13@hotmail.com&#xd;
https://soundcloud.com/jack-lewis</property>
  <property name="meta.attr.composer.markup">Masato Nakamura</property>
  <property name="meta.attr.grouping.markup">Sonic the Hedgehog 2</property>
  <property name="meta.attr.copyright.markup">Sega</property>
  <property name="meta.attr.encoded_by.markup">Jack Lewis (jack_lewis13@hotmail.com)</property>
  <property name="meta.attr.genre.markup">Game</property>
  <property name="meta.attr.compilation.markup">1</property>
  <property name="meta.attr.TOPE.markup">Sega Genesis</property>
  <property name="meta.attr.publisher.markup">OverClocked ReMix</property>
  <property name="meta.attr.setsubtitle.markup">OCR02337</property>
  <property name="meta.attr.TIT3.markup">Chemical Blip</property>
  <property name="meta.attr.title.markup">Sonic the Hedgehog 2 "Chemical Blip" OC ReMix</property>
  <property name="meta.attr.track.markup">2337</property>
  <property name="meta.attr.date.markup">2011</property>
  <property name="seekable">1</property>
  <property name="meta.media.sample_aspect_num">1</property>
  <property name="meta.media.sample_aspect_den">1</property>
  <property name="audio_index">0</property>
  <property name="video_index">1</property>
  <property name="vstream">0</property>
  <property name="meta.media.frame_rate_num">90000</property>
  <property name="meta.media.frame_rate_den">1</property>
  <property name="meta.media.colorspace">601</property>
  <property name="meta.media.color_trc">2</property>
  <property name="meta.media.has_b_frames">0</property>
  <property name="meta.media.width">700</property>
  <property name="meta.media.height">700</property>
  <property name="meta.media.aspect_ratio">1</property>
  <property name="meta.media.color_range">full</property>
  <property name="astream">0</property>
  <property name="meta.media.top_field_first">0</property>
  <property name="meta.media.progressive">1</property>
  <property name="kdenlive:folderid">12</property>
  <property name="kdenlive:id">7</property>
  <property name="kdenlive:control_uuid">{ea76cd46-2956-4881-81d6-896b8f059165}</property>
  <property name="mute_on_pause">0</property>
  <property name="kdenlive:clip_type">0</property>
  <property name="kdenlive:coverartstream">1</property>
  <property name="kdenlive:file_size">5251163</property>
  <property name="kdenlive:file_hash">f3a97edae151d9f4f2613f27bb8801d2</property>
  <property name="kdenlive:monitorPosition">67</property>
 </chain>
 <chain id="chain7" out="00:04:53.929">
  <property name="length">7048</property>
  <property name="eof">pause</property>
  <property name="resource">ost2/Sonic_the_Hedgehog_2_Chemixtrixx_OC_ReMix.mp3</property>
  <property name="mlt_service">avformat-novalidate</property>
  <property name="meta.media.nb_streams">2</property>
  <property name="meta.media.0.stream.type">audio</property>
  <property name="meta.media.0.codec.sample_fmt">fltp</property>
  <property name="meta.media.0.codec.sample_rate">44100</property>
  <property name="meta.media.0.codec.channels">2</property>
  <property name="meta.media.0.codec.layout">stereo</property>
  <property name="meta.media.0.codec.name">mp3float</property>
  <property name="meta.media.0.codec.long_name">MP3 (MPEG audio layer 3)</property>
  <property name="meta.media.0.codec.bit_rate">244270</property>
  <property name="meta.attr.0.stream.encoder.markup">LAME3.100</property>
  <property name="meta.media.1.stream.type">video</property>
  <property name="meta.media.1.stream.frame_rate">90000</property>
  <property name="meta.media.1.stream.sample_aspect_ratio">0</property>
  <property name="meta.media.1.codec.width">700</property>
  <property name="meta.media.1.codec.height">700</property>
  <property name="meta.media.1.codec.rotate">0</property>
  <property name="meta.media.1.codec.pix_fmt">yuvj444p</property>
  <property name="meta.media.1.codec.sample_aspect_ratio">0</property>
  <property name="meta.media.1.codec.colorspace">601</property>
  <property name="meta.media.1.codec.name">mjpeg</property>
  <property name="meta.media.1.codec.long_name">MJPEG (Motion JPEG)</property>
  <property name="meta.media.1.codec.bit_rate">0</property>
  <property name="meta.attr.1.stream.comment.markup">Cover (front)</property>
  <property name="meta.attr.album.markup">ocremix.org</property>
  <property name="meta.attr.artist.markup">PrototypeRaptor</property>
  <property name="meta.attr.album_artist.markup">OverClocked ReMix</property>
  <property name="meta.attr.comment.markup">PrototypeRaptor here with a mix of one of everyone's favorite themes - the Chemical Plant Zone from Sonic 2.&#xd;
&#xd;
This was done in the course of about 3 days after being inspired by Luke Terry's fantastic remix of the same source - I wanted to adapt the theme to a more "modern house" setting rather than the trance-ish side.&#xd;
&#xd;
So I took some of the sounds I've made for my upcoming album and did this mix as sort of a sound test, and I'm pretty happy with the result.&#xd;
&#xd;
Heavily influenced by Electrixx, deadmau5, and Daft Punk - it features an obnoxious bass line that I probably had way too much fun writing and some hard hitting 4-on-the-floor beats interspersed with a cut-up version of the Chemical Plant Zone theme.&#xd;
&#xd;
Best served while one is standing up and played really, really loud.&#xd;
&#xd;
Enjoy,&#xd;
&#xd;
Jonathan Paulsen&#xd;
tyer222@hotmail.com&#xd;
https://soundcloud.com/prototyperaptor</property>
  <property name="meta.attr.composer.markup">Masato Nakamura</property>
  <property name="meta.attr.grouping.markup">Sonic the Hedgehog 2</property>
  <property name="meta.attr.copyright.markup">Sega</property>
  <property name="meta.attr.encoded_by.markup">Jonathan Paulsen (tyer222@hotmail.com)</property>
  <property name="meta.attr.genre.markup">Game</property>
  <property name="meta.attr.compilation.markup">1</property>
  <property name="meta.attr.TOPE.markup">Sega Genesis</property>
  <property name="meta.attr.publisher.markup">OverClocked ReMix</property>
  <property name="meta.attr.SETSUBTITLE.markup">OCR02064</property>
  <property name="meta.attr.TIT3.markup">Chemixtrixx</property>
  <property name="meta.attr.title.markup">Sonic the Hedgehog 2 "Chemixtrixx" OC ReMix</property>
  <property name="meta.attr.track.markup">2064</property>
  <property name="meta.attr.date.markup">2010</property>
  <property name="seekable">1</property>
  <property name="meta.media.sample_aspect_num">1</property>
  <property name="meta.media.sample_aspect_den">1</property>
  <property name="audio_index">0</property>
  <property name="video_index">1</property>
  <property name="vstream">0</property>
  <property name="meta.media.frame_rate_num">90000</property>
  <property name="meta.media.frame_rate_den">1</property>
  <property name="meta.media.colorspace">601</property>
  <property name="meta.media.color_trc">2</property>
  <property name="meta.media.has_b_frames">0</property>
  <property name="meta.media.width">700</property>
  <property name="meta.media.height">700</property>
  <property name="meta.media.aspect_ratio">1</property>
  <property name="meta.media.color_range">full</property>
  <property name="astream">0</property>
  <property name="meta.media.top_field_first">0</property>
  <property name="meta.media.progressive">1</property>
  <property name="kdenlive:folderid">12</property>
  <property name="kdenlive:id">8</property>
  <property name="kdenlive:control_uuid">{2a742ad1-2f78-4745-912c-5e67ba14e2d7}</property>
  <property name="mute_on_pause">0</property>
  <property name="kdenlive:clip_type">0</property>
  <property name="kdenlive:coverartstream">1</property>
  <property name="kdenlive:file_size">9064422</property>
  <property name="kdenlive:file_hash">5dff0b1d3e75a6d6aa416e74da35ff22</property>
  <property name="kdenlive:monitorPosition">3392</property>
 </chain>
 <chain id="chain8" out="00:03:25.525">
  <property name="length">4928</property>
  <property name="eof">pause</property>
  <property name="resource">ost2/Sonic_the_Hedgehog_2_Oil_Ocean_(WT-40_Mix)_OC_ReMix.mp3</property>
  <property name="mlt_service">avformat-novalidate</property>
  <property name="meta.media.nb_streams">2</property>
  <property name="meta.media.0.stream.type">audio</property>
  <property name="meta.media.0.codec.sample_fmt">fltp</property>
  <property name="meta.media.0.codec.sample_rate">44100</property>
  <property name="meta.media.0.codec.channels">2</property>
  <property name="meta.media.0.codec.layout">stereo</property>
  <property name="meta.media.0.codec.name">mp3float</property>
  <property name="meta.media.0.codec.long_name">MP3 (MPEG audio layer 3)</property>
  <property name="meta.media.0.codec.bit_rate">192072</property>
  <property name="meta.attr.0.stream.encoder.markup">LAME3.97 </property>
  <property name="meta.media.1.stream.type">video</property>
  <property name="meta.media.1.stream.frame_rate">90000</property>
  <property name="meta.media.1.stream.sample_aspect_ratio">0</property>
  <property name="meta.media.1.codec.width">700</property>
  <property name="meta.media.1.codec.height">700</property>
  <property name="meta.media.1.codec.rotate">0</property>
  <property name="meta.media.1.codec.pix_fmt">yuvj444p</property>
  <property name="meta.media.1.codec.sample_aspect_ratio">0</property>
  <property name="meta.media.1.codec.colorspace">601</property>
  <property name="meta.media.1.codec.name">mjpeg</property>
  <property name="meta.media.1.codec.long_name">MJPEG (Motion JPEG)</property>
  <property name="meta.media.1.codec.bit_rate">0</property>
  <property name="meta.attr.1.stream.comment.markup">Cover (front)</property>
  <property name="meta.attr.album.markup">ocremix.org</property>
  <property name="meta.attr.artist.markup">PlanetSkill</property>
  <property name="meta.attr.album_artist.markup">OverClocked ReMix</property>
  <property name="meta.attr.comment.markup">A_Rival, Digimatic, RansomRath, tumult&#xd;
http://planetskill.com&#xd;
&#xd;
Lyrics:&#xd;
&#xd;
You're looking like ya think that I don't know&#xd;
Thinking that the signs of a lie don't show&#xd;
Little by little, you rhyme or so&#xd;
I'mma give ya something so ya don't try no more&#xd;
&#xd;
Oh my lord, what ya gonna say next?&#xd;
Do anything for a little paycheck&#xd;
I'mma tell ya short, simple, and basic&#xd;
It really doesn't look like you're gonna make it&#xd;
&#xd;
[Chorus]&#xd;
You make me sick, with all your tricks&#xd;
You just might slip, your feet lose grip&#xd;
You're not that slick, I'm much too quick&#xd;
You've broken something that you just can't fix&#xd;
You know that oil and water don't mix&#xd;
&#xd;
I'm only trying to make things run smooth&#xd;
But now I gotta worry 'bout whatchu gon' do&#xd;
You shoulda came to me to tell me whatcha goin' through&#xd;
But now you're on the wrong team, gotta own you&#xd;
&#xd;
Don't you ever think about how they all say&#xd;
Everything that you do comes back always&#xd;
You made a big leak, and your ship might sink&#xd;
I woulda thought you woulda thought, but I guess you don't think&#xd;
&#xd;
[Chorus]&#xd;
&#xd;
Open the floodgates!&#xd;
Get ready for the flow!</property>
  <property name="meta.attr.composer.markup">Masato Nakamura</property>
  <property name="meta.attr.grouping.markup">Sonic the Hedgehog 2</property>
  <property name="meta.attr.copyright.markup">Sega</property>
  <property name="meta.attr.encoded_by.markup">Luke Esquivel (supersquaremusic@gmail.com)</property>
  <property name="meta.attr.genre.markup">Game</property>
  <property name="meta.attr.compilation.markup">1</property>
  <property name="meta.attr.TEXT.markup">A_Rival</property>
  <property name="meta.attr.TOPE.markup">Sega Genesis</property>
  <property name="meta.attr.publisher.markup">OverClocked ReMix</property>
  <property name="meta.attr.SETSUBTITLE.markup">OCR01600</property>
  <property name="meta.attr.TIT3.markup">Oil Ocean (WT-40 Mix)</property>
  <property name="meta.attr.title.markup">Sonic the Hedgehog 2 "Oil Ocean (WT-40 Mix)" OC ReMix</property>
  <property name="meta.attr.track.markup">1600</property>
  <property name="meta.attr.lyrics-eng.markup">You're looking like ya think that I don't know&#xd;
Thinking that the signs of a lie don't show&#xd;
Little by little, you rhyme or so&#xd;
I'mma give ya something so ya don't try no more&#xd;
&#xd;
Oh my lord, what ya gonna say next?&#xd;
Do anything for a little paycheck&#xd;
I'mma tell ya short, simple, and basic&#xd;
It really doesn't look like you're gonna make it&#xd;
&#xd;
[Chorus]&#xd;
You make me sick, with all your tricks&#xd;
You just might slip, your feet lose grip&#xd;
You're not that slick, I'm much too quick&#xd;
You've broken something that you just can't fix&#xd;
You know that oil and water don't mix&#xd;
&#xd;
I'm only trying to make things run smooth&#xd;
But now I gotta worry 'bout whatchu gon' do&#xd;
You shoulda came to me to tell me whatcha goin' through&#xd;
But now you're on the wrong team, gotta own you&#xd;
&#xd;
Don't you ever think about how they all say&#xd;
Everything that you do comes back always&#xd;
You made a big leak, and your ship might sink&#xd;
I woulda thought you woulda thought, but I guess you don't think&#xd;
&#xd;
[Chorus]&#xd;
&#xd;
Open the floodgates!&#xd;
Get ready for the flow!</property>
  <property name="meta.attr.date.markup">2007</property>
  <property name="seekable">1</property>
  <property name="meta.media.sample_aspect_num">1</property>
  <property name="meta.media.sample_aspect_den">1</property>
  <property name="audio_index">0</property>
  <property name="video_index">1</property>
  <property name="vstream">0</property>
  <property name="meta.media.frame_rate_num">90000</property>
  <property name="meta.media.frame_rate_den">1</property>
  <property name="meta.media.colorspace">601</property>
  <property name="meta.media.color_trc">2</property>
  <property name="meta.media.has_b_frames">0</property>
  <property name="meta.media.width">700</property>
  <property name="meta.media.height">700</property>
  <property name="meta.media.aspect_ratio">1</property>
  <property name="meta.media.color_range">full</property>
  <property name="astream">0</property>
  <property name="meta.media.top_field_first">0</property>
  <property name="meta.media.progressive">1</property>
  <property name="kdenlive:folderid">12</property>
  <property name="kdenlive:id">9</property>
  <property name="kdenlive:control_uuid">{47f1a427-b4c4-4abf-b3ac-5c02c23f5acd}</property>
  <property name="mute_on_pause">0</property>
  <property name="kdenlive:clip_type">0</property>
  <property name="kdenlive:coverartstream">1</property>
  <property name="kdenlive:file_size">5025972</property>
  <property name="kdenlive:file_hash">abe0098423569abecf1ada84794d8439</property>
  <property name="kdenlive:monitorPosition">1613</property>
 </chain>
 <chain id="chain9" out="00:03:20.229">
  <property name="length">4801</property>
  <property name="eof">pause</property>
  <property name="resource">ost2/Sonic_the_Hedgehog_2_Robotnik's_Trippin'_on_Ecstasy_OC_ReMix.mp3</property>
  <property name="mlt_service">avformat-novalidate</property>
  <property name="meta.media.nb_streams">2</property>
  <property name="meta.media.0.stream.type">audio</property>
  <property name="meta.media.0.codec.sample_fmt">fltp</property>
  <property name="meta.media.0.codec.sample_rate">44100</property>
  <property name="meta.media.0.codec.channels">2</property>
  <property name="meta.media.0.codec.layout">stereo</property>
  <property name="meta.media.0.codec.name">mp3float</property>
  <property name="meta.media.0.codec.long_name">MP3 (MPEG audio layer 3)</property>
  <property name="meta.media.0.codec.bit_rate">128000</property>
  <property name="meta.media.1.stream.type">video</property>
  <property name="meta.media.1.stream.frame_rate">90000</property>
  <property name="meta.media.1.stream.sample_aspect_ratio">0</property>
  <property name="meta.media.1.codec.width">700</property>
  <property name="meta.media.1.codec.height">700</property>
  <property name="meta.media.1.codec.rotate">0</property>
  <property name="meta.media.1.codec.pix_fmt">yuvj444p</property>
  <property name="meta.media.1.codec.sample_aspect_ratio">0</property>
  <property name="meta.media.1.codec.colorspace">601</property>
  <property name="meta.media.1.codec.name">mjpeg</property>
  <property name="meta.media.1.codec.long_name">MJPEG (Motion JPEG)</property>
  <property name="meta.media.1.codec.bit_rate">0</property>
  <property name="meta.attr.1.stream.comment.markup">Cover (front)</property>
  <property name="meta.attr.album.markup">ocremix.org</property>
  <property name="meta.attr.artist.markup">PxFury</property>
  <property name="meta.attr.album_artist.markup">OverClocked ReMix</property>
  <property name="meta.attr.comment.markup">Sean Morrison&#xd;
px3x@hotmail.com&#xd;
https://youtube.com/pxfury</property>
  <property name="meta.attr.composer.markup">Masato Nakamura</property>
  <property name="meta.attr.grouping.markup">Sonic the Hedgehog 2</property>
  <property name="meta.attr.copyright.markup">Sega</property>
  <property name="meta.attr.encoded_by.markup">Sean Morrison (px3x@hotmail.com)</property>
  <property name="meta.attr.genre.markup">Game</property>
  <property name="meta.attr.compilation.markup">1</property>
  <property name="meta.attr.TOPE.markup">Sega Genesis</property>
  <property name="meta.attr.publisher.markup">OverClocked ReMix</property>
  <property name="meta.attr.SETSUBTITLE.markup">OCR00797</property>
  <property name="meta.attr.TIT3.markup">Robotnik's Trippin' on Ecstasy</property>
  <property name="meta.attr.title.markup">Sonic the Hedgehog 2 "Robotnik's Trippin' on Ecstasy" OC ReMix</property>
  <property name="meta.attr.track.markup">797</property>
  <property name="meta.attr.date.markup">2002</property>
  <property name="seekable">1</property>
  <property name="meta.media.sample_aspect_num">1</property>
  <property name="meta.media.sample_aspect_den">1</property>
  <property name="audio_index">0</property>
  <property name="video_index">1</property>
  <property name="vstream">0</property>
  <property name="meta.media.frame_rate_num">90000</property>
  <property name="meta.media.frame_rate_den">1</property>
  <property name="meta.media.colorspace">601</property>
  <property name="meta.media.color_trc">2</property>
  <property name="meta.media.has_b_frames">0</property>
  <property name="meta.media.width">700</property>
  <property name="meta.media.height">700</property>
  <property name="meta.media.aspect_ratio">1</property>
  <property name="meta.media.color_range">full</property>
  <property name="astream">0</property>
  <property name="meta.media.top_field_first">0</property>
  <property name="meta.media.progressive">1</property>
  <property name="kdenlive:folderid">12</property>
  <property name="kdenlive:id">10</property>
  <property name="kdenlive:control_uuid">{1f6ff581-a7b7-4c72-ba67-945e527fab2c}</property>
  <property name="mute_on_pause">0</property>
  <property name="kdenlive:clip_type">0</property>
  <property name="kdenlive:coverartstream">1</property>
  <property name="kdenlive:file_size">3290891</property>
  <property name="kdenlive:file_hash">c2475e38e4af86f8299a6277919be160</property>
  <property name="kdenlive:monitorPosition">79</property>
 </chain>
 <chain id="chain10" out="00:03:54.221">
  <property name="length">5616</property>
  <property name="eof">pause</property>
  <property name="resource">ost2/Sonic_the_Hedgehog_2_sonik_metro_OC_ReMix.mp3</property>
  <property name="mlt_service">avformat-novalidate</property>
  <property name="meta.media.nb_streams">2</property>
  <property name="meta.media.0.stream.type">audio</property>
  <property name="meta.media.0.codec.sample_fmt">fltp</property>
  <property name="meta.media.0.codec.sample_rate">44100</property>
  <property name="meta.media.0.codec.channels">2</property>
  <property name="meta.media.0.codec.layout">stereo</property>
  <property name="meta.media.0.codec.name">mp3float</property>
  <property name="meta.media.0.codec.long_name">MP3 (MPEG audio layer 3)</property>
  <property name="meta.media.0.codec.bit_rate">164368</property>
  <property name="meta.attr.0.stream.encoder.markup">LAME3.92 </property>
  <property name="meta.media.1.stream.type">video</property>
  <property name="meta.media.1.stream.frame_rate">90000</property>
  <property name="meta.media.1.stream.sample_aspect_ratio">0</property>
  <property name="meta.media.1.codec.width">700</property>
  <property name="meta.media.1.codec.height">700</property>
  <property name="meta.media.1.codec.rotate">0</property>
  <property name="meta.media.1.codec.pix_fmt">yuvj444p</property>
  <property name="meta.media.1.codec.sample_aspect_ratio">0</property>
  <property name="meta.media.1.codec.colorspace">601</property>
  <property name="meta.media.1.codec.name">mjpeg</property>
  <property name="meta.media.1.codec.long_name">MJPEG (Motion JPEG)</property>
  <property name="meta.media.1.codec.bit_rate">0</property>
  <property name="meta.attr.1.stream.comment.markup">Cover (front)</property>
  <property name="meta.attr.album.markup">ocremix.org</property>
  <property name="meta.attr.artist.markup">analoq</property>
  <property name="meta.attr.album_artist.markup">OverClocked ReMix</property>
  <property name="meta.attr.comment.markup">https://sonic2.ocremix.org&#xd;
Sonic the Hedgehog 2: Hedgehog Heaven&#xd;
&#xd;
a. p. matthews&#xd;
apmatthews@gmail.com&#xd;
https://youtube.com/analoq</property>
  <property name="meta.attr.composer.markup">Masato Nakamura</property>
  <property name="meta.attr.grouping.markup">Sonic the Hedgehog 2</property>
  <property name="meta.attr.copyright.markup">Sega</property>
  <property name="meta.attr.encoded_by.markup">a. p. matthews (apmatthews@gmail.com)</property>
  <property name="meta.attr.genre.markup">Game</property>
  <property name="meta.attr.compilation.markup">1</property>
  <property name="meta.attr.TOAL.markup">Sonic the Hedgehog 2: Hedgehog Heaven</property>
  <property name="meta.attr.TOPE.markup">Sega Genesis</property>
  <property name="meta.attr.publisher.markup">OverClocked ReMix</property>
  <property name="meta.attr.SETSUBTITLE.markup">OCR01327</property>
  <property name="meta.attr.TIT3.markup">sonik metro</property>
  <property name="meta.attr.title.markup">Sonic the Hedgehog 2 "sonik metro" OC ReMix</property>
  <property name="meta.attr.track.markup">1327</property>
  <property name="meta.attr.date.markup">2005</property>
  <property name="seekable">1</property>
  <property name="meta.media.sample_aspect_num">1</property>
  <property name="meta.media.sample_aspect_den">1</property>
  <property name="audio_index">0</property>
  <property name="video_index">1</property>
  <property name="vstream">0</property>
  <property name="meta.media.frame_rate_num">90000</property>
  <property name="meta.media.frame_rate_den">1</property>
  <property name="meta.media.colorspace">601</property>
  <property name="meta.media.color_trc">2</property>
  <property name="meta.media.has_b_frames">0</property>
  <property name="meta.media.width">700</property>
  <property name="meta.media.height">700</property>
  <property name="meta.media.aspect_ratio">1</property>
  <property name="meta.media.color_range">full</property>
  <property name="astream">0</property>
  <property name="meta.media.top_field_first">0</property>
  <property name="meta.media.progressive">1</property>
  <property name="kdenlive:folderid">12</property>
  <property name="kdenlive:id">11</property>
  <property name="kdenlive:control_uuid">{e633b308-7ef1-448b-8c37-7ba7e1180a02}</property>
  <property name="mute_on_pause">0</property>
  <property name="kdenlive:clip_type">0</property>
  <property name="kdenlive:coverartstream">1</property>
  <property name="kdenlive:file_size">4899562</property>
  <property name="kdenlive:file_hash">2bd5926da0489116305cd14cf22e632b</property>
  <property name="kdenlive:monitorPosition">1135</property>
 </chain>
 <chain id="chain13" out="00:03:35.661">
  <property name="length">5171</property>
  <property name="eof">pause</property>
  <property name="resource">ost2/Sonic_the_Hedgehog_2_Welcome_to_the_Metropolis_OC_ReMix.mp3</property>
  <property name="mlt_service">avformat-novalidate</property>
  <property name="meta.media.nb_streams">2</property>
  <property name="meta.media.0.stream.type">audio</property>
  <property name="meta.media.0.codec.sample_fmt">fltp</property>
  <property name="meta.media.0.codec.sample_rate">44100</property>
  <property name="meta.media.0.codec.channels">2</property>
  <property name="meta.media.0.codec.layout">stereo</property>
  <property name="meta.media.0.codec.name">mp3float</property>
  <property name="meta.media.0.codec.long_name">MP3 (MPEG audio layer 3)</property>
  <property name="meta.media.0.codec.bit_rate">155676</property>
  <property name="meta.media.1.stream.type">video</property>
  <property name="meta.media.1.stream.frame_rate">90000</property>
  <property name="meta.media.1.stream.sample_aspect_ratio">0</property>
  <property name="meta.media.1.codec.width">700</property>
  <property name="meta.media.1.codec.height">700</property>
  <property name="meta.media.1.codec.rotate">0</property>
  <property name="meta.media.1.codec.pix_fmt">yuvj444p</property>
  <property name="meta.media.1.codec.sample_aspect_ratio">0</property>
  <property name="meta.media.1.codec.colorspace">601</property>
  <property name="meta.media.1.codec.name">mjpeg</property>
  <property name="meta.media.1.codec.long_name">MJPEG (Motion JPEG)</property>
  <property name="meta.media.1.codec.bit_rate">0</property>
  <property name="meta.attr.1.stream.comment.markup">Cover (front)</property>
  <property name="meta.attr.album.markup">ocremix.org</property>
  <property name="meta.attr.artist.markup">Sir_NutS</property>
  <property name="meta.attr.album_artist.markup">OverClocked ReMix</property>
  <property name="meta.attr.comment.markup">Well, this was a remix I made for IMC12, the Metropolis Zone - Sonic the Hedgehog 2. It got good reviews and I think it sounds good too. Though I have better songs than this now. Anyways, I used lots of effects for this, filtering, gating, panning, flange. This was made with FruityLoops 3.5, 3xOSC, tst404 and, umm, some drum samples, it's fast, as Sonic would be, and well I like it a lot, and I hope that you and all the OCR listeners will too.&#xd;
&#xd;
Paul Michael Molina&#xd;
pmmolinar@yahoo.com&#xd;
http://sirnuts.blogspot.com</property>
  <property name="meta.attr.composer.markup">Masato Nakamura</property>
  <property name="meta.attr.grouping.markup">Sonic the Hedgehog 2</property>
  <property name="meta.attr.copyright.markup">Sega</property>
  <property name="meta.attr.encoded_by.markup">Michael Molina (pmmolinar@yahoo.com)</property>
  <property name="meta.attr.genre.markup">Game</property>
  <property name="meta.attr.compilation.markup">1</property>
  <property name="meta.attr.TOPE.markup">Sega Genesis</property>
  <property name="meta.attr.publisher.markup">OverClocked ReMix</property>
  <property name="meta.attr.SETSUBTITLE.markup">OCR00968</property>
  <property name="meta.attr.TIT3.markup">Welcome to the Metropolis</property>
  <property name="meta.attr.title.markup">Sonic the Hedgehog 2 "Welcome to the Metropolis" OC ReMix</property>
  <property name="meta.attr.track.markup">968</property>
  <property name="meta.attr.date.markup">2003</property>
  <property name="seekable">1</property>
  <property name="meta.media.sample_aspect_num">1</property>
  <property name="meta.media.sample_aspect_den">1</property>
  <property name="audio_index">0</property>
  <property name="video_index">1</property>
  <property name="vstream">0</property>
  <property name="meta.media.frame_rate_num">90000</property>
  <property name="meta.media.frame_rate_den">1</property>
  <property name="meta.media.colorspace">601</property>
  <property name="meta.media.color_trc">2</property>
  <property name="meta.media.has_b_frames">0</property>
  <property name="meta.media.width">700</property>
  <property name="meta.media.height">700</property>
  <property name="meta.media.aspect_ratio">1</property>
  <property name="meta.media.color_range">full</property>
  <property name="astream">0</property>
  <property name="meta.media.top_field_first">0</property>
  <property name="meta.media.progressive">1</property>
  <property name="kdenlive:folderid">12</property>
  <property name="kdenlive:id">13</property>
  <property name="kdenlive:control_uuid">{9c1092af-6ac8-482e-ad1f-77493be82ce9}</property>
  <property name="mute_on_pause">0</property>
  <property name="kdenlive:clip_type">0</property>
  <property name="kdenlive:coverartstream">1</property>
  <property name="kdenlive:file_size">4284915</property>
  <property name="kdenlive:file_hash">831b88e6bd93d08da51968114b8a42be</property>
  <property name="kdenlive:monitorPosition">90</property>
 </chain>
 <producer id="producer0" in="00:00:00.000" out="01:16:44.461">
  <property name="length">2147483647</property>
  <property name="eof">continue</property>
  <property name="resource">black</property>
  <property name="aspect_ratio">1</property>
  <property name="mlt_service">color</property>
  <property name="kdenlive:playlistid">black_track</property>
  <property name="mlt_image_format">rgba</property>
  <property name="set.test_audio">0</property>
 </producer>
 <chain id="chain0" out="00:02:08.467">
  <property name="length">3081</property>
  <property name="eof">pause</property>
  <property name="resource">ost2/Sonic The Hedgehog 2 - OST/06_chemical_plant_zone.mp3</property>
  <property name="mlt_service">avformat-novalidate</property>
  <property name="seekable">1</property>
  <property name="audio_index">0</property>
  <property name="video_index">-1</property>
  <property name="astream">0</property>
  <property name="kdenlive:control_uuid">{2c20eed3-4cfb-467e-a42b-803cac875c76}</property>
  <property name="kdenlive:proxy">-</property>
  <property name="kdenlive:originalurl">ost2/Sonic The Hedgehog 2 - OST/06_chemical_plant_zone.mp3</property>
  <property name="kdenlive:id">14</property>
  <property name="kdenlive:clip_type">1</property>
  <property name="kdenlive:file_size">2747039</property>
  <property name="kdenlive:file_hash">d686a2a2c6a913b404284a67fa95dd1a</property>
  <property name="kdenlive:folderid">12</property>
  <property name="meta.media.nb_streams">1</property>
  <property name="meta.media.0.stream.type">audio</property>
  <property name="meta.media.0.codec.sample_fmt">fltp</property>
  <property name="meta.media.0.codec.sample_rate">44100</property>
  <property name="meta.media.0.codec.channels">2</property>
  <property name="meta.media.0.codec.layout">stereo</property>
  <property name="meta.media.0.codec.name">mp3float</property>
  <property name="meta.media.0.codec.long_name">MP3 (MPEG audio layer 3)</property>
  <property name="meta.media.0.codec.bit_rate">170987</property>
  <property name="meta.attr.artist.markup">Masato Nakamura 2</property>
  <property name="meta.attr.album.markup">Sonic the Hedgehog 2 OST</property>
  <property name="meta.attr.TSIZ.markup">2746527</property>
  <property name="meta.attr.title.markup">Chemical Plant Zone</property>
  <property name="meta.attr.track.markup">6</property>
  <property name="meta.attr.comment.markup">#gamemp3s / DALnet</property>
  <property name="meta.attr.genre.markup">Game</property>
  <property name="meta.attr.date.markup">1992</property>
  <property name="xml">was here</property>
  <property name="mute_on_pause">0</property>
  <property name="set.test_audio">0</property>
  <property name="set.test_image">1</property>
 </chain>
 <playlist id="playlist0">
  <property name="kdenlive:audio_track">1</property>
  <blank length="01:00:58.183"/>
  <entry in="00:00:00.000" out="00:01:34.743" producer="chain0">
   <property name="kdenlive:id">14</property>
   <property name="kdenlive:activeeffect">0</property>
   <filter id="filter0" in="00:01:28.195" out="00:01:34.743">
    <property name="window">75</property>
    <property name="max_gain">20dB</property>
    <property name="mlt_service">volume</property>
    <property name="kdenlive_id">fadeout</property>
    <property name="gain">1</property>
    <property name="end">0</property>
    <property name="kdenlive:collapsed">0</property>
   </filter>
   <filter id="filter1">
    <property name="mlt_service">ladspa.2142</property>
    <property name="kdenlive_id">ladspa.2142</property>
    <property name="0">2500</property>
    <property name="1">0</property>
    <property name="2">0</property>
    <property name="3">1</property>
    <property name="4">1</property>
    <property name="5">1</property>
    <property name="6">1</property>
    <property name="7">16</property>
    <property name="wetness">0.154762</property>
    <property name="kdenlive:collapsed">0</property>
    <property name="instances">1</property>
   </filter>
  </entry>
 </playlist>
 <playlist id="playlist1">
  <property name="kdenlive:audio_track">1</property>
 </playlist>
 <tractor id="tractor0" in="00:00:00.000" out="01:02:32.908">
  <property name="kdenlive:audio_track">1</property>
  <property name="kdenlive:trackheight">84</property>
  <property name="kdenlive:timeline_active">1</property>
  <property name="kdenlive:collapsed">0</property>
  <property name="kdenlive:thumbs_format"/>
  <property name="kdenlive:audio_rec"/>
  <track hide="video" producer="playlist0"/>
  <track hide="video" producer="playlist1"/>
  <filter id="filter2">
   <property name="window">75</property>
   <property name="max_gain">20dB</property>
   <property name="mlt_service">volume</property>
   <property name="internal_added">237</property>
   <property name="disable">1</property>
  </filter>
  <filter id="filter3">
   <property name="channel">-1</property>
   <property name="mlt_service">panner</property>
   <property name="internal_added">237</property>
   <property name="start">0.5</property>
   <property name="disable">1</property>
  </filter>
  <filter id="filter4">
   <property name="iec_scale">0</property>
   <property name="mlt_service">audiolevel</property>
   <property name="dbpeak">1</property>
   <property name="disable">1</property>
  </filter>
 </tractor>
 <chain id="chain1" out="00:03:25.525">
  <property name="length">4928</property>
  <property name="eof">pause</property>
  <property name="resource">ost2/Sonic_the_Hedgehog_2_Oil_Ocean_(WT-40_Mix)_OC_ReMix.mp3</property>
  <property name="mlt_service">avformat-novalidate</property>
  <property name="seekable">1</property>
  <property name="audio_index">0</property>
  <property name="video_index">1</property>
  <property name="vstream">0</property>
  <property name="astream">0</property>
  <property name="kdenlive:folderid">12</property>
  <property name="kdenlive:id">9</property>
  <property name="kdenlive:control_uuid">{47f1a427-b4c4-4abf-b3ac-5c02c23f5acd}</property>
  <property name="mute_on_pause">0</property>
  <property name="kdenlive:clip_type">0</property>
  <property name="kdenlive:coverartstream">1</property>
  <property name="kdenlive:file_size">5025972</property>
  <property name="kdenlive:file_hash">abe0098423569abecf1ada84794d8439</property>
  <property name="kdenlive:monitorPosition">1414</property>
  <property name="meta.media.nb_streams">2</property>
  <property name="meta.media.0.stream.type">audio</property>
  <property name="meta.media.0.codec.sample_fmt">fltp</property>
  <property name="meta.media.0.codec.sample_rate">44100</property>
  <property name="meta.media.0.codec.channels">2</property>
  <property name="meta.media.0.codec.layout">stereo</property>
  <property name="meta.media.0.codec.name">mp3float</property>
  <property name="meta.media.0.codec.long_name">MP3 (MPEG audio layer 3)</property>
  <property name="meta.media.0.codec.bit_rate">192072</property>
  <property name="meta.attr.0.stream.encoder.markup">LAME3.97 </property>
  <property name="meta.media.1.stream.type">video</property>
  <property name="meta.media.1.stream.frame_rate">90000</property>
  <property name="meta.media.1.stream.sample_aspect_ratio">0</property>
  <property name="meta.media.1.codec.width">700</property>
  <property name="meta.media.1.codec.height">700</property>
  <property name="meta.media.1.codec.rotate">0</property>
  <property name="meta.media.1.codec.pix_fmt">yuvj444p</property>
  <property name="meta.media.1.codec.sample_aspect_ratio">0</property>
  <property name="meta.media.1.codec.colorspace">601</property>
  <property name="meta.media.1.codec.name">mjpeg</property>
  <property name="meta.media.1.codec.long_name">MJPEG (Motion JPEG)</property>
  <property name="meta.media.1.codec.bit_rate">0</property>
  <property name="meta.attr.1.stream.comment.markup">Cover (front)</property>
  <property name="meta.attr.album.markup">ocremix.org</property>
  <property name="meta.attr.artist.markup">PlanetSkill</property>
  <property name="meta.attr.album_artist.markup">OverClocked ReMix</property>
  <property name="meta.attr.comment.markup">A_Rival, Digimatic, RansomRath, tumult&#xd;
http://planetskill.com&#xd;
&#xd;
Lyrics:&#xd;
&#xd;
You're looking like ya think that I don't know&#xd;
Thinking that the signs of a lie don't show&#xd;
Little by little, you rhyme or so&#xd;
I'mma give ya something so ya don't try no more&#xd;
&#xd;
Oh my lord, what ya gonna say next?&#xd;
Do anything for a little paycheck&#xd;
I'mma tell ya short, simple, and basic&#xd;
It really doesn't look like you're gonna make it&#xd;
&#xd;
[Chorus]&#xd;
You make me sick, with all your tricks&#xd;
You just might slip, your feet lose grip&#xd;
You're not that slick, I'm much too quick&#xd;
You've broken something that you just can't fix&#xd;
You know that oil and water don't mix&#xd;
&#xd;
I'm only trying to make things run smooth&#xd;
But now I gotta worry 'bout whatchu gon' do&#xd;
You shoulda came to me to tell me whatcha goin' through&#xd;
But now you're on the wrong team, gotta own you&#xd;
&#xd;
Don't you ever think about how they all say&#xd;
Everything that you do comes back always&#xd;
You made a big leak, and your ship might sink&#xd;
I woulda thought you woulda thought, but I guess you don't think&#xd;
&#xd;
[Chorus]&#xd;
&#xd;
Open the floodgates!&#xd;
Get ready for the flow!</property>
  <property name="meta.attr.composer.markup">Masato Nakamura</property>
  <property name="meta.attr.grouping.markup">Sonic the Hedgehog 2</property>
  <property name="meta.attr.copyright.markup">Sega</property>
  <property name="meta.attr.encoded_by.markup">Luke Esquivel (supersquaremusic@gmail.com)</property>
  <property name="meta.attr.genre.markup">Game</property>
  <property name="meta.attr.compilation.markup">1</property>
  <property name="meta.attr.TEXT.markup">A_Rival</property>
  <property name="meta.attr.TOPE.markup">Sega Genesis</property>
  <property name="meta.attr.publisher.markup">OverClocked ReMix</property>
  <property name="meta.attr.SETSUBTITLE.markup">OCR01600</property>
  <property name="meta.attr.TIT3.markup">Oil Ocean (WT-40 Mix)</property>
  <property name="meta.attr.title.markup">Sonic the Hedgehog 2 "Oil Ocean (WT-40 Mix)" OC ReMix</property>
  <property name="meta.attr.track.markup">1600</property>
  <property name="meta.attr.lyrics-eng.markup">You're looking like ya think that I don't know&#xd;
Thinking that the signs of a lie don't show&#xd;
Little by little, you rhyme or so&#xd;
I'mma give ya something so ya don't try no more&#xd;
&#xd;
Oh my lord, what ya gonna say next?&#xd;
Do anything for a little paycheck&#xd;
I'mma tell ya short, simple, and basic&#xd;
It really doesn't look like you're gonna make it&#xd;
&#xd;
[Chorus]&#xd;
You make me sick, with all your tricks&#xd;
You just might slip, your feet lose grip&#xd;
You're not that slick, I'm much too quick&#xd;
You've broken something that you just can't fix&#xd;
You know that oil and water don't mix&#xd;
&#xd;
I'm only trying to make things run smooth&#xd;
But now I gotta worry 'bout whatchu gon' do&#xd;
You shoulda came to me to tell me whatcha goin' through&#xd;
But now you're on the wrong team, gotta own you&#xd;
&#xd;
Don't you ever think about how they all say&#xd;
Everything that you do comes back always&#xd;
You made a big leak, and your ship might sink&#xd;
I woulda thought you woulda thought, but I guess you don't think&#xd;
&#xd;
[Chorus]&#xd;
&#xd;
Open the floodgates!&#xd;
Get ready for the flow!</property>
  <property name="meta.attr.date.markup">2007</property>
  <property name="meta.media.sample_aspect_num">1</property>
  <property name="meta.media.sample_aspect_den">1</property>
  <property name="meta.media.frame_rate_num">90000</property>
  <property name="meta.media.frame_rate_den">1</property>
  <property name="meta.media.colorspace">601</property>
  <property name="meta.media.color_trc">2</property>
  <property name="meta.media.has_b_frames">0</property>
  <property name="meta.media.width">700</property>
  <property name="meta.media.height">700</property>
  <property name="meta.media.aspect_ratio">1</property>
  <property name="meta.media.color_range">full</property>
  <property name="xml">was here</property>
  <property name="meta.media.top_field_first">0</property>
  <property name="meta.media.progressive">1</property>
  <property name="set.test_audio">0</property>
  <property name="set.test_image">1</property>
 </chain>
 <chain id="chain3" out="00:03:54.221">
  <property name="length">5616</property>
  <property name="eof">pause</property>
  <property name="resource">ost2/Sonic_the_Hedgehog_2_sonik_metro_OC_ReMix.mp3</property>
  <property name="mlt_service">avformat-novalidate</property>
  <property name="seekable">1</property>
  <property name="audio_index">0</property>
  <property name="video_index">1</property>
  <property name="vstream">0</property>
  <property name="astream">0</property>
  <property name="kdenlive:folderid">12</property>
  <property name="kdenlive:id">11</property>
  <property name="kdenlive:control_uuid">{e633b308-7ef1-448b-8c37-7ba7e1180a02}</property>
  <property name="mute_on_pause">0</property>
  <property name="kdenlive:clip_type">0</property>
  <property name="kdenlive:coverartstream">1</property>
  <property name="kdenlive:file_size">4899562</property>
  <property name="kdenlive:file_hash">2bd5926da0489116305cd14cf22e632b</property>
  <property name="meta.media.nb_streams">2</property>
  <property name="meta.media.0.stream.type">audio</property>
  <property name="meta.media.0.codec.sample_fmt">fltp</property>
  <property name="meta.media.0.codec.sample_rate">44100</property>
  <property name="meta.media.0.codec.channels">2</property>
  <property name="meta.media.0.codec.layout">stereo</property>
  <property name="meta.media.0.codec.name">mp3float</property>
  <property name="meta.media.0.codec.long_name">MP3 (MPEG audio layer 3)</property>
  <property name="meta.media.0.codec.bit_rate">164368</property>
  <property name="meta.attr.0.stream.encoder.markup">LAME3.92 </property>
  <property name="meta.media.1.stream.type">video</property>
  <property name="meta.media.1.stream.frame_rate">90000</property>
  <property name="meta.media.1.stream.sample_aspect_ratio">0</property>
  <property name="meta.media.1.codec.width">700</property>
  <property name="meta.media.1.codec.height">700</property>
  <property name="meta.media.1.codec.rotate">0</property>
  <property name="meta.media.1.codec.pix_fmt">yuvj444p</property>
  <property name="meta.media.1.codec.sample_aspect_ratio">0</property>
  <property name="meta.media.1.codec.colorspace">601</property>
  <property name="meta.media.1.codec.name">mjpeg</property>
  <property name="meta.media.1.codec.long_name">MJPEG (Motion JPEG)</property>
  <property name="meta.media.1.codec.bit_rate">0</property>
  <property name="meta.attr.1.stream.comment.markup">Cover (front)</property>
  <property name="meta.attr.album.markup">ocremix.org</property>
  <property name="meta.attr.artist.markup">analoq</property>
  <property name="meta.attr.album_artist.markup">OverClocked ReMix</property>
  <property name="meta.attr.comment.markup">https://sonic2.ocremix.org&#xd;
Sonic the Hedgehog 2: Hedgehog Heaven&#xd;
&#xd;
a. p. matthews&#xd;
apmatthews@gmail.com&#xd;
https://youtube.com/analoq</property>
  <property name="meta.attr.composer.markup">Masato Nakamura</property>
  <property name="meta.attr.grouping.markup">Sonic the Hedgehog 2</property>
  <property name="meta.attr.copyright.markup">Sega</property>
  <property name="meta.attr.encoded_by.markup">a. p. matthews (apmatthews@gmail.com)</property>
  <property name="meta.attr.genre.markup">Game</property>
  <property name="meta.attr.compilation.markup">1</property>
  <property name="meta.attr.TOAL.markup">Sonic the Hedgehog 2: Hedgehog Heaven</property>
  <property name="meta.attr.TOPE.markup">Sega Genesis</property>
  <property name="meta.attr.publisher.markup">OverClocked ReMix</property>
  <property name="meta.attr.SETSUBTITLE.markup">OCR01327</property>
  <property name="meta.attr.TIT3.markup">sonik metro</property>
  <property name="meta.attr.title.markup">Sonic the Hedgehog 2 "sonik metro" OC ReMix</property>
  <property name="meta.attr.track.markup">1327</property>
  <property name="meta.attr.date.markup">2005</property>
  <property name="meta.media.sample_aspect_num">1</property>
  <property name="meta.media.sample_aspect_den">1</property>
  <property name="meta.media.frame_rate_num">90000</property>
  <property name="meta.media.frame_rate_den">1</property>
  <property name="meta.media.colorspace">601</property>
  <property name="meta.media.color_trc">2</property>
  <property name="meta.media.has_b_frames">0</property>
  <property name="meta.media.width">700</property>
  <property name="meta.media.height">700</property>
  <property name="meta.media.aspect_ratio">1</property>
  <property name="meta.media.color_range">full</property>
  <property name="xml">was here</property>
  <property name="meta.media.top_field_first">0</property>
  <property name="meta.media.progressive">1</property>
  <property name="set.test_audio">0</property>
  <property name="set.test_image">1</property>
 </chain>
 <playlist id="playlist2">
  <blank length="01:03:16.308"/>
  <entry in="00:00:53.136" out="00:03:25.525" producer="chain1">
   <property name="kdenlive:id">9</property>
   <filter id="filter5">
    <property name="window">75</property>
    <property name="max_gain">20dB</property>
    <property name="level">00:00:53.136=-9</property>
    <property name="mlt_service">volume</property>
    <property name="kdenlive_id">volume</property>
    <property name="kdenlive:collapsed">0</property>
   </filter>
   <filter id="filter6" in="00:00:53.136" out="00:00:54.054">
    <property name="window">75</property>
    <property name="max_gain">20dB</property>
    <property name="mlt_service">volume</property>
    <property name="kdenlive_id">fadein</property>
    <property name="gain">0</property>
    <property name="end">1</property>
    <property name="kdenlive:collapsed">0</property>
   </filter>
  </entry>
  <blank length="00:02:01.501"/>
  <entry in="00:00:00.000" out="00:03:54.221" producer="chain3">
   <property name="kdenlive:id">11</property>
  </entry>
 </playlist>
 <playlist id="playlist3"/>
 <tractor id="tractor1" in="00:00:00.000" out="01:11:44.378">
  <property name="kdenlive:audio_track">1</property>
  <property name="kdenlive:trackheight">84</property>
  <property name="kdenlive:timeline_active">1</property>
  <track hide="video" producer="playlist2"/>
  <track hide="video" producer="playlist3"/>
  <filter id="filter7">
   <property name="window">75</property>
   <property name="max_gain">20dB</property>
   <property name="mlt_service">volume</property>
   <property name="internal_added">237</property>
   <property name="disable">1</property>
  </filter>
  <filter id="filter8">
   <property name="channel">-1</property>
   <property name="mlt_service">panner</property>
   <property name="internal_added">237</property>
   <property name="start">0.5</property>
   <property name="disable">1</property>
  </filter>
  <filter id="filter9">
   <property name="iec_scale">0</property>
   <property name="mlt_service">audiolevel</property>
   <property name="dbpeak">1</property>
   <property name="disable">1</property>
  </filter>
 </tractor>
 <chain id="chain11" out="02:04:23.941">
  <property name="length">178956</property>
  <property name="eof">pause</property>
  <property name="resource">/Kids Movies/Sonic/Sonic 2022/Sonic 2 Il Film (2023) 2160p 4K H265 10 Bit iTA ENG AC3 5.1 Sub Ita Eng - iDN_CreW.mkv</property>
  <property name="mlt_service">avformat-novalidate</property>
  <property name="seekable">1</property>
  <property name="audio_index">2</property>
  <property name="video_index">0</property>
  <property name="vstream">0</property>
  <property name="astream">1</property>
  <property name="kdenlive:control_uuid">{8662ceb9-f96f-4607-812c-ea78d123d3ef}</property>
  <property name="kdenlive:id">4</property>
  <property name="kdenlive:clip_type">0</property>
  <property name="kdenlive:file_size">6455506204</property>
  <property name="kdenlive:file_hash">c805e36cb967f0098696aec55aa79048</property>
  <property name="kdenlive:folderid">-1</property>
  <property name="meta.media.nb_streams">7</property>
  <property name="meta.media.0.stream.type">video</property>
  <property name="meta.media.0.stream.frame_rate">23.976</property>
  <property name="meta.media.0.stream.sample_aspect_ratio">1</property>
  <property name="meta.media.0.codec.width">3840</property>
  <property name="meta.media.0.codec.height">1606</property>
  <property name="meta.media.0.codec.rotate">0</property>
  <property name="meta.media.0.codec.pix_fmt">yuv420p10le</property>
  <property name="meta.media.0.codec.sample_aspect_ratio">1</property>
  <property name="meta.media.0.codec.colorspace">709</property>
  <property name="meta.media.0.codec.color_trc">1</property>
  <property name="meta.media.0.codec.name">hevc</property>
  <property name="meta.media.0.codec.long_name">HEVC (High Efficiency Video Coding)</property>
  <property name="meta.media.0.codec.bit_rate">0</property>
  <property name="meta.attr.0.stream.BPS-eng.markup">6000404</property>
  <property name="meta.attr.0.stream.DURATION-eng.markup">02:02:18.123000000</property>
  <property name="meta.attr.0.stream.NUMBER_OF_FRAMES-eng.markup">175939</property>
  <property name="meta.attr.0.stream.NUMBER_OF_BYTES-eng.markup">5503962903</property>
  <property name="meta.attr.0.stream._STATISTICS_WRITING_APP-eng.markup">mkvmerge v49.0.0 ('Sick Of Losing Soulmates') 64-bit</property>
  <property name="meta.attr.0.stream._STATISTICS_WRITING_DATE_UTC-eng.markup">2022-05-31 19:08:19</property>
  <property name="meta.attr.0.stream._STATISTICS_TAGS-eng.markup">BPS DURATION NUMBER_OF_FRAMES NUMBER_OF_BYTES</property>
  <property name="meta.media.1.stream.type">audio</property>
  <property name="meta.media.1.codec.sample_fmt">fltp</property>
  <property name="meta.media.1.codec.sample_rate">48000</property>
  <property name="meta.media.1.codec.channels">6</property>
  <property name="meta.media.1.codec.layout">5.1(side)</property>
  <property name="meta.media.1.codec.name">ac3</property>
  <property name="meta.media.1.codec.long_name">ATSC A/52A (AC-3)</property>
  <property name="meta.media.1.codec.bit_rate">640000</property>
  <property name="meta.attr.1.stream.language.markup">ita</property>
  <property name="meta.attr.1.stream.title.markup">AC3 iTA</property>
  <property name="meta.attr.1.stream.BPS-eng.markup">640000</property>
  <property name="meta.attr.1.stream.DURATION-eng.markup">02:04:23.968000000</property>
  <property name="meta.attr.1.stream.NUMBER_OF_FRAMES-eng.markup">233249</property>
  <property name="meta.attr.1.stream.NUMBER_OF_BYTES-eng.markup">597117440</property>
  <property name="meta.attr.1.stream._STATISTICS_WRITING_APP-eng.markup">mkvmerge v49.0.0 ('Sick Of Losing Soulmates') 64-bit</property>
  <property name="meta.attr.1.stream._STATISTICS_WRITING_DATE_UTC-eng.markup">2022-05-31 19:08:19</property>
  <property name="meta.attr.1.stream._STATISTICS_TAGS-eng.markup">BPS DURATION NUMBER_OF_FRAMES NUMBER_OF_BYTES</property>
  <property name="meta.media.2.stream.type">audio</property>
  <property name="meta.media.2.codec.sample_fmt">fltp</property>
  <property name="meta.media.2.codec.sample_rate">48000</property>
  <property name="meta.media.2.codec.channels">6</property>
  <property name="meta.media.2.codec.layout">5.1(side)</property>
  <property name="meta.media.2.codec.name">ac3</property>
  <property name="meta.media.2.codec.long_name">ATSC A/52A (AC-3)</property>
  <property name="meta.media.2.codec.bit_rate">384000</property>
  <property name="meta.attr.2.stream.language.markup">eng</property>
  <property name="meta.attr.2.stream.title.markup">AC3 Eng</property>
  <property name="meta.attr.2.stream.BPS-eng.markup">384000</property>
  <property name="meta.attr.2.stream.DURATION-eng.markup">02:02:18.304000000</property>
  <property name="meta.attr.2.stream.NUMBER_OF_FRAMES-eng.markup">229322</property>
  <property name="meta.attr.2.stream.NUMBER_OF_BYTES-eng.markup">352238592</property>
  <property name="meta.attr.2.stream._STATISTICS_WRITING_APP-eng.markup">mkvmerge v49.0.0 ('Sick Of Losing Soulmates') 64-bit</property>
  <property name="meta.attr.2.stream._STATISTICS_WRITING_DATE_UTC-eng.markup">2022-05-31 19:08:19</property>
  <property name="meta.attr.2.stream._STATISTICS_TAGS-eng.markup">BPS DURATION NUMBER_OF_FRAMES NUMBER_OF_BYTES</property>
  <property name="meta.media.3.codec.name">srt</property>
  <property name="meta.media.3.codec.long_name">SubRip subtitle</property>
  <property name="meta.media.3.codec.bit_rate">0</property>
  <property name="meta.attr.3.stream.language.markup">ita</property>
  <property name="meta.attr.3.stream.title.markup">Forced</property>
  <property name="meta.attr.3.stream.BPS-eng.markup">0</property>
  <property name="meta.attr.3.stream.DURATION-eng.markup">02:01:21.816000000</property>
  <property name="meta.attr.3.stream.NUMBER_OF_FRAMES-eng.markup">25</property>
  <property name="meta.attr.3.stream.NUMBER_OF_BYTES-eng.markup">600</property>
  <property name="meta.attr.3.stream._STATISTICS_WRITING_APP-eng.markup">mkvmerge v49.0.0 ('Sick Of Losing Soulmates') 64-bit</property>
  <property name="meta.attr.3.stream._STATISTICS_WRITING_DATE_UTC-eng.markup">2022-05-31 19:08:19</property>
  <property name="meta.attr.3.stream._STATISTICS_TAGS-eng.markup">BPS DURATION NUMBER_OF_FRAMES NUMBER_OF_BYTES</property>
  <property name="meta.media.4.codec.name">srt</property>
  <property name="meta.media.4.codec.long_name">SubRip subtitle</property>
  <property name="meta.media.4.codec.bit_rate">0</property>
  <property name="meta.attr.4.stream.language.markup">ita</property>
  <property name="meta.attr.4.stream.title.markup">Regular</property>
  <property name="meta.attr.4.stream.BPS-eng.markup">45</property>
  <property name="meta.attr.4.stream.DURATION-eng.markup">02:01:21.816000000</property>
  <property name="meta.attr.4.stream.NUMBER_OF_FRAMES-eng.markup">1376</property>
  <property name="meta.attr.4.stream.NUMBER_OF_BYTES-eng.markup">41271</property>
  <property name="meta.attr.4.stream._STATISTICS_WRITING_APP-eng.markup">mkvmerge v49.0.0 ('Sick Of Losing Soulmates') 64-bit</property>
  <property name="meta.attr.4.stream._STATISTICS_WRITING_DATE_UTC-eng.markup">2022-05-31 19:08:19</property>
  <property name="meta.attr.4.stream._STATISTICS_TAGS-eng.markup">BPS DURATION NUMBER_OF_FRAMES NUMBER_OF_BYTES</property>
  <property name="meta.media.5.codec.name">srt</property>
  <property name="meta.media.5.codec.long_name">SubRip subtitle</property>
  <property name="meta.media.5.codec.bit_rate">0</property>
  <property name="meta.attr.5.stream.language.markup">eng</property>
  <property name="meta.attr.5.stream.title.markup">Forced</property>
  <property name="meta.attr.5.stream.BPS-eng.markup">0</property>
  <property name="meta.attr.5.stream.DURATION-eng.markup">00:42:25.379000000</property>
  <property name="meta.attr.5.stream.NUMBER_OF_FRAMES-eng.markup">7</property>
  <property name="meta.attr.5.stream.NUMBER_OF_BYTES-eng.markup">170</property>
  <property name="meta.attr.5.stream._STATISTICS_WRITING_APP-eng.markup">mkvmerge v49.0.0 ('Sick Of Losing Soulmates') 64-bit</property>
  <property name="meta.attr.5.stream._STATISTICS_WRITING_DATE_UTC-eng.markup">2022-05-31 19:08:19</property>
  <property name="meta.attr.5.stream._STATISTICS_TAGS-eng.markup">BPS DURATION NUMBER_OF_FRAMES NUMBER_OF_BYTES</property>
  <property name="meta.media.6.codec.name">srt</property>
  <property name="meta.media.6.codec.long_name">SubRip subtitle</property>
  <property name="meta.media.6.codec.bit_rate">0</property>
  <property name="meta.attr.6.stream.language.markup">eng</property>
  <property name="meta.attr.6.stream.title.markup">Regular</property>
  <property name="meta.attr.6.stream.BPS-eng.markup">60</property>
  <property name="meta.attr.6.stream.DURATION-eng.markup">01:52:04.859000000</property>
  <property name="meta.attr.6.stream.NUMBER_OF_FRAMES-eng.markup">1647</property>
  <property name="meta.attr.6.stream.NUMBER_OF_BYTES-eng.markup">50781</property>
  <property name="meta.attr.6.stream._STATISTICS_WRITING_APP-eng.markup">mkvmerge v49.0.0 ('Sick Of Losing Soulmates') 64-bit</property>
  <property name="meta.attr.6.stream._STATISTICS_WRITING_DATE_UTC-eng.markup">2022-05-31 19:08:19</property>
  <property name="meta.attr.6.stream._STATISTICS_TAGS-eng.markup">BPS DURATION NUMBER_OF_FRAMES NUMBER_OF_BYTES</property>
  <property name="meta.attr.title.markup">UHD 4K - iDN_CreW</property>
  <property name="meta.attr.encoder.markup">libebml v1.4.0 + libmatroska v1.6.1</property>
  <property name="meta.attr.creation_time.markup">2022-05-31T19:08:19.000000Z</property>
  <property name="meta.media.sample_aspect_num">1</property>
  <property name="meta.media.sample_aspect_den">1</property>
  <property name="meta.media.frame_rate_num">24000</property>
  <property name="meta.media.frame_rate_den">1001</property>
  <property name="meta.media.colorspace">709</property>
  <property name="meta.media.color_trc">1</property>
  <property name="meta.media.has_b_frames">2</property>
  <property name="meta.media.width">3840</property>
  <property name="meta.media.height">1606</property>
  <property name="meta.media.aspect_ratio">1</property>
  <property name="meta.media.color_range">mpeg</property>
  <property name="xml">was here</property>
  <property name="mute_on_pause">0</property>
  <property name="meta.media.top_field_first">0</property>
  <property name="meta.media.progressive">1</property>
  <property name="set.test_audio">0</property>
  <property name="set.test_image">1</property>
 </chain>
 <chain id="chain12" out="00:02:05.839">
  <property name="length">3018</property>
  <property name="eof">pause</property>
  <property name="resource">ost2/Sonic_the_Hedgehog_2_Bluest_Sky_OC_ReMix.mp3</property>
  <property name="mlt_service">avformat-novalidate</property>
  <property name="seekable">1</property>
  <property name="audio_index">0</property>
  <property name="video_index">1</property>
  <property name="vstream">0</property>
  <property name="astream">0</property>
  <property name="kdenlive:folderid">12</property>
  <property name="kdenlive:id">5</property>
  <property name="kdenlive:control_uuid">{6ed7488d-c853-49ad-8914-bc6f655495c3}</property>
  <property name="mute_on_pause">0</property>
  <property name="kdenlive:clip_type">0</property>
  <property name="kdenlive:coverartstream">1</property>
  <property name="kdenlive:file_size">3108600</property>
  <property name="kdenlive:file_hash">9e39754832bc3be94f9d0f80a60c6450</property>
  <property name="kdenlive:monitorPosition">65</property>
  <property name="meta.media.nb_streams">2</property>
  <property name="meta.media.0.stream.type">audio</property>
  <property name="meta.media.0.codec.sample_fmt">fltp</property>
  <property name="meta.media.0.codec.sample_rate">44100</property>
  <property name="meta.media.0.codec.channels">2</property>
  <property name="meta.media.0.codec.layout">stereo</property>
  <property name="meta.media.0.codec.name">mp3float</property>
  <property name="meta.media.0.codec.long_name">MP3 (MPEG audio layer 3)</property>
  <property name="meta.media.0.codec.bit_rate">192000</property>
  <property name="meta.media.1.stream.type">video</property>
  <property name="meta.media.1.stream.frame_rate">90000</property>
  <property name="meta.media.1.stream.sample_aspect_ratio">0</property>
  <property name="meta.media.1.codec.width">700</property>
  <property name="meta.media.1.codec.height">700</property>
  <property name="meta.media.1.codec.rotate">0</property>
  <property name="meta.media.1.codec.pix_fmt">yuvj444p</property>
  <property name="meta.media.1.codec.sample_aspect_ratio">0</property>
  <property name="meta.media.1.codec.colorspace">601</property>
  <property name="meta.media.1.codec.name">mjpeg</property>
  <property name="meta.media.1.codec.long_name">MJPEG (Motion JPEG)</property>
  <property name="meta.media.1.codec.bit_rate">0</property>
  <property name="meta.attr.1.stream.comment.markup">Cover (front)</property>
  <property name="meta.attr.album.markup">ocremix.org</property>
  <property name="meta.attr.artist.markup">Tim Sheehy</property>
  <property name="meta.attr.album_artist.markup">OverClocked ReMix</property>
  <property name="meta.attr.comment.markup">"Sky Chase Zone" from Sonic the Hedgehog 2 for the Sega Genesis/Mega Drive game console. Always loved this one ^^&#xd;
&#xd;
Tim Sheehy&#xd;
tim@timsheehy.com&#xd;
http://timsheehy.com</property>
  <property name="meta.attr.composer.markup">Masato Nakamura</property>
  <property name="meta.attr.grouping.markup">Sonic the Hedgehog 2</property>
  <property name="meta.attr.copyright.markup">Sega</property>
  <property name="meta.attr.encoded_by.markup">Tim Sheehy (tim@timsheehy.com)</property>
  <property name="meta.attr.genre.markup">Game</property>
  <property name="meta.attr.compilation.markup">1</property>
  <property name="meta.attr.TOPE.markup">Sega Genesis</property>
  <property name="meta.attr.publisher.markup">OverClocked ReMix</property>
  <property name="meta.attr.SETSUBTITLE.markup">OCR00337</property>
  <property name="meta.attr.TIT3.markup">Bluest Sky</property>
  <property name="meta.attr.title.markup">Sonic the Hedgehog 2 "Bluest Sky" OC ReMix</property>
  <property name="meta.attr.track.markup">337</property>
  <property name="meta.attr.date.markup">2001</property>
  <property name="meta.media.sample_aspect_num">1</property>
  <property name="meta.media.sample_aspect_den">1</property>
  <property name="meta.media.frame_rate_num">90000</property>
  <property name="meta.media.frame_rate_den">1</property>
  <property name="meta.media.colorspace">601</property>
  <property name="meta.media.color_trc">2</property>
  <property name="meta.media.has_b_frames">0</property>
  <property name="meta.media.width">700</property>
  <property name="meta.media.height">700</property>
  <property name="meta.media.aspect_ratio">1</property>
  <property name="meta.media.color_range">full</property>
  <property name="xml">was here</property>
  <property name="meta.media.top_field_first">0</property>
  <property name="meta.media.progressive">1</property>
  <property name="set.test_audio">0</property>
  <property name="set.test_image">1</property>
 </chain>
 <playlist id="playlist4">
  <property name="kdenlive:audio_track">1</property>
  <entry in="00:00:00.000" out="00:05:50.342" producer="chain11">
   <property name="kdenlive:id">4</property>
  </entry>
  <blank length="00:00:15.432"/>
  <entry in="00:15:39.581" out="00:15:45.963" producer="chain11">
   <property name="kdenlive:id">4</property>
  </entry>
  <blank length="00:00:04.087"/>
  <entry in="00:16:12.262" out="00:16:17.476" producer="chain11">
   <property name="kdenlive:id">4</property>
  </entry>
  <blank length="00:00:15.140"/>
  <entry in="00:17:18.268" out="00:18:55.347" producer="chain11">
   <property name="kdenlive:id">4</property>
  </entry>
  <entry in="00:19:41.625" out="00:19:48.090" producer="chain11">
   <property name="kdenlive:id">4</property>
  </entry>
  <blank length="00:00:09.092"/>
  <entry in="00:21:06.006" out="00:21:29.571" producer="chain11">
   <property name="kdenlive:id">4</property>
  </entry>
  <blank length="00:02:11.470"/>
  <entry in="00:23:55.681" out="00:24:46.088" producer="chain11">
   <property name="kdenlive:id">4</property>
  </entry>
  <blank length="00:00:23.023"/>
  <entry in="00:25:36.662" out="00:25:49.841" producer="chain11">
   <property name="kdenlive:id">4</property>
  </entry>
  <blank length="00:00:31.406"/>
  <entry in="00:26:39.289" out="00:26:47.422" producer="chain11">
   <property name="kdenlive:id">4</property>
  </entry>
  <blank length="00:00:04.630"/>
  <entry in="00:26:59.476" out="00:27:15.766" producer="chain11">
   <property name="kdenlive:id">4</property>
  </entry>
  <blank length="00:00:01.293"/>
  <entry in="00:27:32.115" out="00:30:49.591" producer="chain11">
   <property name="kdenlive:id">4</property>
  </entry>
  <entry in="00:30:49.633" out="00:30:51.677" producer="chain11">
   <property name="kdenlive:id">4</property>
  </entry>
  <blank length="00:01:17.351"/>
  <entry in="00:34:13.847" out="00:34:23.440" producer="chain11">
   <property name="kdenlive:id">4</property>
  </entry>
  <blank length="00:00:01.919"/>
  <entry in="00:34:59.768" out="00:35:50.592" producer="chain11">
   <property name="kdenlive:id">4</property>
  </entry>
  <blank length="00:00:25.108"/>
  <entry in="00:40:34.201" out="00:40:39.373" producer="chain11">
   <property name="kdenlive:id">4</property>
  </entry>
  <entry in="00:40:45.921" out="00:40:46.088" producer="chain11">
   <property name="kdenlive:id">4</property>
  </entry>
  <entry in="00:40:46.129" out="00:42:07.174" producer="chain11">
   <property name="kdenlive:id">4</property>
  </entry>
  <blank length="00:00:04.504"/>
  <entry in="00:50:16.767" out="00:50:39.748" producer="chain11">
   <property name="kdenlive:id">4</property>
  </entry>
  <blank length="00:00:54.680"/>
  <entry in="00:51:48.966" out="00:51:53.553" producer="chain11">
   <property name="kdenlive:id">4</property>
  </entry>
  <blank length="00:01:27.110"/>
  <entry in="00:53:40.749" out="00:54:15.390" producer="chain11">
   <property name="kdenlive:id">4</property>
  </entry>
  <blank length="00:00:14.723"/>
  <entry in="00:54:33.242" out="00:55:13.138" producer="chain11">
   <property name="kdenlive:id">4</property>
  </entry>
  <blank length="00:00:00.834"/>
  <entry in="00:55:47.798" out="00:55:48.924" producer="chain11">
   <property name="kdenlive:id">4</property>
  </entry>
  <entry in="00:55:48.966" out="00:55:55.347" producer="chain11">
   <property name="kdenlive:id">4</property>
  </entry>
  <blank length="00:00:02.920"/>
  <entry in="00:56:09.259" out="00:56:33.367" producer="chain11">
   <property name="kdenlive:id">4</property>
  </entry>
  <blank length="00:00:03.587"/>
  <entry in="00:57:18.685" out="00:57:20.354" producer="chain11">
   <property name="kdenlive:id">4</property>
  </entry>
  <blank length="00:01:29.196"/>
  <entry in="00:59:29.696" out="00:59:31.281" producer="chain11">
   <property name="kdenlive:id">4</property>
  </entry>
  <entry in="00:59:31.323" out="00:59:33.200" producer="chain11">
   <property name="kdenlive:id">4</property>
  </entry>
  <entry in="00:59:34.159" out="00:59:37.704" producer="chain11">
   <property name="kdenlive:id">4</property>
  </entry>
  <blank length="00:00:38.205"/>
  <entry in="01:00:25.859" out="01:00:45.796" producer="chain11">
   <property name="kdenlive:id">4</property>
  </entry>
  <blank length="00:01:10.510"/>
  <entry in="01:02:16.016" out="01:02:28.779" producer="chain11">
   <property name="kdenlive:id">4</property>
  </entry>
  <entry in="01:02:27.778" out="01:02:28.820" producer="chain11">
   <property name="kdenlive:id">4</property>
  </entry>
  <entry in="01:04:19.561" out="01:04:24.274" producer="chain11">
   <property name="kdenlive:id">4</property>
  </entry>
  <blank length="00:00:06.465"/>
  <entry in="01:04:36.078" out="01:05:03.962" producer="chain11">
   <property name="kdenlive:id">4</property>
  </entry>
  <blank length="00:00:05.839"/>
  <entry in="01:06:00.042" out="01:06:03.462" producer="chain11">
   <property name="kdenlive:id">4</property>
  </entry>
  <blank length="00:00:36.745"/>
  <entry in="01:10:43.335" out="01:11:06.882" producer="chain11">
   <property name="kdenlive:id">4</property>
  </entry>
  <blank length="00:01:15.724"/>
  <entry in="01:12:27.653" out="01:12:40.165" producer="chain11">
   <property name="kdenlive:id">4</property>
  </entry>
  <entry in="01:12:40.207" out="01:12:44.795" producer="chain11">
   <property name="kdenlive:id">4</property>
  </entry>
  <blank length="00:00:25.067"/>
  <entry in="01:14:56.098" out="01:21:39.039" producer="chain11">
   <property name="kdenlive:id">4</property>
  </entry>
  <entry in="01:21:48.674" out="01:22:19.645" producer="chain11">
   <property name="kdenlive:id">4</property>
  </entry>
  <blank length="00:01:26.693"/>
  <entry in="01:23:52.886" out="01:23:55.264" producer="chain11">
   <property name="kdenlive:id">4</property>
  </entry>
  <blank length="00:00:03.045"/>
  <entry in="01:26:03.503" out="01:26:05.964" producer="chain11">
   <property name="kdenlive:id">4</property>
  </entry>
  <blank length="00:00:07.716"/>
  <entry in="01:27:26.693" out="01:28:05.505" producer="chain11">
   <property name="kdenlive:id">4</property>
  </entry>
  <blank length="00:00:26.735"/>
  <entry in="01:28:38.413" out="01:29:05.464" producer="chain11">
   <property name="kdenlive:id">4</property>
  </entry>
  <blank length="00:00:34.618"/>
  <entry in="01:29:49.091" out="01:32:02.127" producer="chain11">
   <property name="kdenlive:id">4</property>
  </entry>
  <blank length="00:00:46.004"/>
  <entry in="01:33:18.393" out="01:33:42.960" producer="chain11">
   <property name="kdenlive:id">4</property>
  </entry>
  <blank length="00:00:05.881"/>
  <entry in="01:34:08.884" out="01:34:33.075" producer="chain11">
   <property name="kdenlive:id">4</property>
  </entry>
  <blank length="00:01:29.071"/>
  <entry in="01:36:36.119" out="01:36:46.838" producer="chain11">
   <property name="kdenlive:id">4</property>
  </entry>
  <blank length="00:00:01.293"/>
  <entry in="01:37:03.587" out="01:37:10.093" producer="chain11">
   <property name="kdenlive:id">4</property>
  </entry>
  <blank length="00:00:01.960"/>
  <entry in="01:37:36.370" out="01:37:38.747" producer="chain11">
   <property name="kdenlive:id">4</property>
  </entry>
  <blank length="00:00:05.714"/>
  <entry in="01:37:42.834" out="01:37:53.804" producer="chain11">
   <property name="kdenlive:id">4</property>
  </entry>
  <blank length="00:00:01.293"/>
  <entry in="01:38:04.755" out="01:38:59.351" producer="chain11">
   <property name="kdenlive:id">4</property>
  </entry>
  <blank length="00:01:00.250"/>
  <entry in="01:40:07.424" out="01:40:54.888" producer="chain11">
   <property name="kdenlive:id">4</property>
  </entry>
  <blank length="00:00:05.547"/>
  <entry in="01:41:13.764" out="01:42:44.920" producer="chain11">
   <property name="kdenlive:id">4</property>
  </entry>
  <blank length="00:02:30.113"/>
  <entry in="01:45:50.759" out="01:46:12.054" producer="chain11">
   <property name="kdenlive:id">4</property>
  </entry>
  <blank length="00:00:17.851"/>
  <entry in="01:47:12.763" out="01:47:29.279" producer="chain11">
   <property name="kdenlive:id">4</property>
  </entry>
  <blank length="00:00:04.296"/>
  <entry in="01:47:56.431" out="01:48:38.872" producer="chain11">
   <property name="kdenlive:id">4</property>
  </entry>
  <blank length="00:00:03.754"/>
  <entry in="01:49:19.353" out="01:49:47.214" producer="chain11">
   <property name="kdenlive:id">4</property>
  </entry>
  <blank length="00:00:25.025"/>
  <entry in="01:50:32.407" out="01:50:43.085" producer="chain11">
   <property name="kdenlive:id">4</property>
  </entry>
  <entry in="01:50:43.126" out="01:51:01.210" producer="chain11">
   <property name="kdenlive:id">4</property>
   <property name="kdenlive:activeeffect">0</property>
   <filter id="filter10" in="01:51:00.834" out="01:51:01.210">
    <property name="window">75</property>
    <property name="max_gain">20dB</property>
    <property name="mlt_service">volume</property>
    <property name="kdenlive_id">fadeout</property>
    <property name="gain">1</property>
    <property name="end">0</property>
   </filter>
  </entry>
  <blank length="00:01:32.866"/>
  <entry in="01:53:04.129" out="01:53:50.717" producer="chain11">
   <property name="kdenlive:id">4</property>
  </entry>
  <blank length="00:02:28.528"/>
  <entry in="00:00:00.000" out="00:02:05.839" producer="chain12">
   <property name="kdenlive:id">5</property>
  </entry>
 </playlist>
 <chain id="chain14" out="02:04:23.941">
  <property name="length">178956</property>
  <property name="eof">pause</property>
  <property name="resource">/Kids Movies/Sonic/Sonic 2022/Sonic 2 Il Film (2023) 2160p 4K H265 10 Bit iTA ENG AC3 5.1 Sub Ita Eng - iDN_CreW.mkv</property>
  <property name="mlt_service">avformat-novalidate</property>
  <property name="seekable">1</property>
  <property name="audio_index">2</property>
  <property name="video_index">0</property>
  <property name="vstream">0</property>
  <property name="astream">1</property>
  <property name="kdenlive:control_uuid">{8662ceb9-f96f-4607-812c-ea78d123d3ef}</property>
  <property name="kdenlive:id">4</property>
  <property name="kdenlive:clip_type">0</property>
  <property name="kdenlive:file_size">6455506204</property>
  <property name="kdenlive:file_hash">c805e36cb967f0098696aec55aa79048</property>
  <property name="kdenlive:folderid">-1</property>
  <property name="meta.media.nb_streams">7</property>
  <property name="meta.media.0.stream.type">video</property>
  <property name="meta.media.0.stream.frame_rate">23.976</property>
  <property name="meta.media.0.stream.sample_aspect_ratio">1</property>
  <property name="meta.media.0.codec.width">3840</property>
  <property name="meta.media.0.codec.height">1606</property>
  <property name="meta.media.0.codec.rotate">0</property>
  <property name="meta.media.0.codec.pix_fmt">yuv420p10le</property>
  <property name="meta.media.0.codec.sample_aspect_ratio">1</property>
  <property name="meta.media.0.codec.colorspace">709</property>
  <property name="meta.media.0.codec.color_trc">1</property>
  <property name="meta.media.0.codec.name">hevc</property>
  <property name="meta.media.0.codec.long_name">HEVC (High Efficiency Video Coding)</property>
  <property name="meta.media.0.codec.bit_rate">0</property>
  <property name="meta.attr.0.stream.BPS-eng.markup">6000404</property>
  <property name="meta.attr.0.stream.DURATION-eng.markup">02:02:18.123000000</property>
  <property name="meta.attr.0.stream.NUMBER_OF_FRAMES-eng.markup">175939</property>
  <property name="meta.attr.0.stream.NUMBER_OF_BYTES-eng.markup">5503962903</property>
  <property name="meta.attr.0.stream._STATISTICS_WRITING_APP-eng.markup">mkvmerge v49.0.0 ('Sick Of Losing Soulmates') 64-bit</property>
  <property name="meta.attr.0.stream._STATISTICS_WRITING_DATE_UTC-eng.markup">2022-05-31 19:08:19</property>
  <property name="meta.attr.0.stream._STATISTICS_TAGS-eng.markup">BPS DURATION NUMBER_OF_FRAMES NUMBER_OF_BYTES</property>
  <property name="meta.media.1.stream.type">audio</property>
  <property name="meta.media.1.codec.sample_fmt">fltp</property>
  <property name="meta.media.1.codec.sample_rate">48000</property>
  <property name="meta.media.1.codec.channels">6</property>
  <property name="meta.media.1.codec.layout">5.1(side)</property>
  <property name="meta.media.1.codec.name">ac3</property>
  <property name="meta.media.1.codec.long_name">ATSC A/52A (AC-3)</property>
  <property name="meta.media.1.codec.bit_rate">640000</property>
  <property name="meta.attr.1.stream.language.markup">ita</property>
  <property name="meta.attr.1.stream.title.markup">AC3 iTA</property>
  <property name="meta.attr.1.stream.BPS-eng.markup">640000</property>
  <property name="meta.attr.1.stream.DURATION-eng.markup">02:04:23.968000000</property>
  <property name="meta.attr.1.stream.NUMBER_OF_FRAMES-eng.markup">233249</property>
  <property name="meta.attr.1.stream.NUMBER_OF_BYTES-eng.markup">597117440</property>
  <property name="meta.attr.1.stream._STATISTICS_WRITING_APP-eng.markup">mkvmerge v49.0.0 ('Sick Of Losing Soulmates') 64-bit</property>
  <property name="meta.attr.1.stream._STATISTICS_WRITING_DATE_UTC-eng.markup">2022-05-31 19:08:19</property>
  <property name="meta.attr.1.stream._STATISTICS_TAGS-eng.markup">BPS DURATION NUMBER_OF_FRAMES NUMBER_OF_BYTES</property>
  <property name="meta.media.2.stream.type">audio</property>
  <property name="meta.media.2.codec.sample_fmt">fltp</property>
  <property name="meta.media.2.codec.sample_rate">48000</property>
  <property name="meta.media.2.codec.channels">6</property>
  <property name="meta.media.2.codec.layout">5.1(side)</property>
  <property name="meta.media.2.codec.name">ac3</property>
  <property name="meta.media.2.codec.long_name">ATSC A/52A (AC-3)</property>
  <property name="meta.media.2.codec.bit_rate">384000</property>
  <property name="meta.attr.2.stream.language.markup">eng</property>
  <property name="meta.attr.2.stream.title.markup">AC3 Eng</property>
  <property name="meta.attr.2.stream.BPS-eng.markup">384000</property>
  <property name="meta.attr.2.stream.DURATION-eng.markup">02:02:18.304000000</property>
  <property name="meta.attr.2.stream.NUMBER_OF_FRAMES-eng.markup">229322</property>
  <property name="meta.attr.2.stream.NUMBER_OF_BYTES-eng.markup">352238592</property>
  <property name="meta.attr.2.stream._STATISTICS_WRITING_APP-eng.markup">mkvmerge v49.0.0 ('Sick Of Losing Soulmates') 64-bit</property>
  <property name="meta.attr.2.stream._STATISTICS_WRITING_DATE_UTC-eng.markup">2022-05-31 19:08:19</property>
  <property name="meta.attr.2.stream._STATISTICS_TAGS-eng.markup">BPS DURATION NUMBER_OF_FRAMES NUMBER_OF_BYTES</property>
  <property name="meta.media.3.codec.name">srt</property>
  <property name="meta.media.3.codec.long_name">SubRip subtitle</property>
  <property name="meta.media.3.codec.bit_rate">0</property>
  <property name="meta.attr.3.stream.language.markup">ita</property>
  <property name="meta.attr.3.stream.title.markup">Forced</property>
  <property name="meta.attr.3.stream.BPS-eng.markup">0</property>
  <property name="meta.attr.3.stream.DURATION-eng.markup">02:01:21.816000000</property>
  <property name="meta.attr.3.stream.NUMBER_OF_FRAMES-eng.markup">25</property>
  <property name="meta.attr.3.stream.NUMBER_OF_BYTES-eng.markup">600</property>
  <property name="meta.attr.3.stream._STATISTICS_WRITING_APP-eng.markup">mkvmerge v49.0.0 ('Sick Of Losing Soulmates') 64-bit</property>
  <property name="meta.attr.3.stream._STATISTICS_WRITING_DATE_UTC-eng.markup">2022-05-31 19:08:19</property>
  <property name="meta.attr.3.stream._STATISTICS_TAGS-eng.markup">BPS DURATION NUMBER_OF_FRAMES NUMBER_OF_BYTES</property>
  <property name="meta.media.4.codec.name">srt</property>
  <property name="meta.media.4.codec.long_name">SubRip subtitle</property>
  <property name="meta.media.4.codec.bit_rate">0</property>
  <property name="meta.attr.4.stream.language.markup">ita</property>
  <property name="meta.attr.4.stream.title.markup">Regular</property>
  <property name="meta.attr.4.stream.BPS-eng.markup">45</property>
  <property name="meta.attr.4.stream.DURATION-eng.markup">02:01:21.816000000</property>
  <property name="meta.attr.4.stream.NUMBER_OF_FRAMES-eng.markup">1376</property>
  <property name="meta.attr.4.stream.NUMBER_OF_BYTES-eng.markup">41271</property>
  <property name="meta.attr.4.stream._STATISTICS_WRITING_APP-eng.markup">mkvmerge v49.0.0 ('Sick Of Losing Soulmates') 64-bit</property>
  <property name="meta.attr.4.stream._STATISTICS_WRITING_DATE_UTC-eng.markup">2022-05-31 19:08:19</property>
  <property name="meta.attr.4.stream._STATISTICS_TAGS-eng.markup">BPS DURATION NUMBER_OF_FRAMES NUMBER_OF_BYTES</property>
  <property name="meta.media.5.codec.name">srt</property>
  <property name="meta.media.5.codec.long_name">SubRip subtitle</property>
  <property name="meta.media.5.codec.bit_rate">0</property>
  <property name="meta.attr.5.stream.language.markup">eng</property>
  <property name="meta.attr.5.stream.title.markup">Forced</property>
  <property name="meta.attr.5.stream.BPS-eng.markup">0</property>
  <property name="meta.attr.5.stream.DURATION-eng.markup">00:42:25.379000000</property>
  <property name="meta.attr.5.stream.NUMBER_OF_FRAMES-eng.markup">7</property>
  <property name="meta.attr.5.stream.NUMBER_OF_BYTES-eng.markup">170</property>
  <property name="meta.attr.5.stream._STATISTICS_WRITING_APP-eng.markup">mkvmerge v49.0.0 ('Sick Of Losing Soulmates') 64-bit</property>
  <property name="meta.attr.5.stream._STATISTICS_WRITING_DATE_UTC-eng.markup">2022-05-31 19:08:19</property>
  <property name="meta.attr.5.stream._STATISTICS_TAGS-eng.markup">BPS DURATION NUMBER_OF_FRAMES NUMBER_OF_BYTES</property>
  <property name="meta.media.6.codec.name">srt</property>
  <property name="meta.media.6.codec.long_name">SubRip subtitle</property>
  <property name="meta.media.6.codec.bit_rate">0</property>
  <property name="meta.attr.6.stream.language.markup">eng</property>
  <property name="meta.attr.6.stream.title.markup">Regular</property>
  <property name="meta.attr.6.stream.BPS-eng.markup">60</property>
  <property name="meta.attr.6.stream.DURATION-eng.markup">01:52:04.859000000</property>
  <property name="meta.attr.6.stream.NUMBER_OF_FRAMES-eng.markup">1647</property>
  <property name="meta.attr.6.stream.NUMBER_OF_BYTES-eng.markup">50781</property>
  <property name="meta.attr.6.stream._STATISTICS_WRITING_APP-eng.markup">mkvmerge v49.0.0 ('Sick Of Losing Soulmates') 64-bit</property>
  <property name="meta.attr.6.stream._STATISTICS_WRITING_DATE_UTC-eng.markup">2022-05-31 19:08:19</property>
  <property name="meta.attr.6.stream._STATISTICS_TAGS-eng.markup">BPS DURATION NUMBER_OF_FRAMES NUMBER_OF_BYTES</property>
  <property name="meta.attr.title.markup">UHD 4K - iDN_CreW</property>
  <property name="meta.attr.encoder.markup">libebml v1.4.0 + libmatroska v1.6.1</property>
  <property name="meta.attr.creation_time.markup">2022-05-31T19:08:19.000000Z</property>
  <property name="meta.media.sample_aspect_num">1</property>
  <property name="meta.media.sample_aspect_den">1</property>
  <property name="meta.media.frame_rate_num">24000</property>
  <property name="meta.media.frame_rate_den">1001</property>
  <property name="meta.media.colorspace">709</property>
  <property name="meta.media.color_trc">1</property>
  <property name="meta.media.has_b_frames">2</property>
  <property name="meta.media.width">3840</property>
  <property name="meta.media.height">1606</property>
  <property name="meta.media.aspect_ratio">1</property>
  <property name="meta.media.color_range">mpeg</property>
  <property name="xml">was here</property>
  <property name="mute_on_pause">0</property>
  <property name="meta.media.top_field_first">0</property>
  <property name="meta.media.progressive">1</property>
  <property name="set.test_audio">0</property>
  <property name="set.test_image">1</property>
 </chain>
 <playlist id="playlist5">
  <property name="kdenlive:audio_track">1</property>
  <blank length="00:05:46.380"/>
  <entry in="00:14:59.434" out="00:15:19.811" producer="chain14">
   <property name="kdenlive:id">4</property>
  </entry>
  <blank length="00:00:04.421"/>
  <entry in="00:16:01.001" out="00:16:06.882" producer="chain14">
   <property name="kdenlive:id">4</property>
  </entry>
  <blank length="00:00:03.420"/>
  <entry in="00:16:23.774" out="00:16:40.874" producer="chain14">
   <property name="kdenlive:id">4</property>
  </entry>
  <blank length="00:01:41.667"/>
  <entry in="00:20:52.803" out="00:21:02.878" producer="chain14">
   <property name="kdenlive:id">4</property>
  </entry>
  <blank length="00:00:22.773"/>
  <entry in="00:21:39.456" out="00:23:52.719" producer="chain14">
   <property name="kdenlive:id">4</property>
  </entry>
  <blank length="00:00:49.049"/>
  <entry in="00:24:59.977" out="00:25:24.358" producer="chain14">
   <property name="kdenlive:id">4</property>
  </entry>
  <blank length="00:00:12.054"/>
  <entry in="00:26:04.046" out="00:26:35.994" producer="chain14">
   <property name="kdenlive:id">4</property>
  </entry>
  <blank length="00:00:07.341"/>
  <entry in="00:26:49.591" out="00:26:55.597" producer="chain14">
   <property name="kdenlive:id">4</property>
  </entry>
  <blank length="00:00:14.348"/>
  <entry in="00:27:18.727" out="00:27:21.980" producer="chain14">
   <property name="kdenlive:id">4</property>
  </entry>
  <blank length="00:03:18.602"/>
  <entry in="00:30:55.430" out="00:32:13.722" producer="chain14">
   <property name="kdenlive:id">4</property>
  </entry>
  <blank length="00:00:08.217"/>
  <entry in="00:34:35.244" out="00:34:38.538" producer="chain14">
   <property name="kdenlive:id">4</property>
  </entry>
  <blank length="00:00:49.424"/>
  <entry in="00:35:59.142" out="00:36:25.609" producer="chain14">
   <property name="kdenlive:id">4</property>
  </entry>
  <blank length="00:01:24.524"/>
  <entry in="00:50:03.795" out="00:50:09.676" producer="chain14">
   <property name="kdenlive:id">4</property>
  </entry>
  <blank length="00:00:21.605"/>
  <entry in="00:50:45.545" out="00:51:42.209" producer="chain14">
   <property name="kdenlive:id">4</property>
  </entry>
  <blank length="00:00:02.628"/>
  <entry in="00:51:56.974" out="00:53:26.026" producer="chain14">
   <property name="kdenlive:id">4</property>
  </entry>
  <blank length="00:00:33.283"/>
  <entry in="00:54:16.725" out="00:54:32.241" producer="chain14">
   <property name="kdenlive:id">4</property>
  </entry>
  <blank length="00:00:38.497"/>
  <entry in="00:55:44.253" out="00:55:46.255" producer="chain14">
   <property name="kdenlive:id">4</property>
  </entry>
  <blank length="00:00:06.965"/>
  <entry in="00:55:57.933" out="00:56:01.460" producer="chain14">
   <property name="kdenlive:id">4</property>
  </entry>
  <blank length="00:00:23.482"/>
  <entry in="00:57:14.681" out="00:57:18.644" producer="chain14">
   <property name="kdenlive:id">4</property>
  </entry>
  <blank length="00:00:01.335"/>
  <entry in="00:57:23.440" out="00:58:52.970" producer="chain14">
   <property name="kdenlive:id">4</property>
  </entry>
  <blank length="00:00:06.715"/>
  <entry in="00:59:41.959" out="01:00:20.729" producer="chain14">
   <property name="kdenlive:id">4</property>
  </entry>
  <blank length="00:00:19.394"/>
  <entry in="01:00:59.309" out="01:02:11.178" producer="chain14">
   <property name="kdenlive:id">4</property>
  </entry>
  <blank length="00:00:17.643"/>
  <entry in="01:04:24.316" out="01:04:31.740" producer="chain14">
   <property name="kdenlive:id">4</property>
  </entry>
  <blank length="00:00:23.899"/>
  <entry in="01:05:39.623" out="01:05:49.424" producer="chain14">
   <property name="kdenlive:id">4</property>
  </entry>
  <blank length="00:00:01.835"/>
  <entry in="01:06:30.948" out="01:07:09.301" producer="chain14">
   <property name="kdenlive:id">4</property>
  </entry>
  <blank length="00:00:22.189"/>
  <entry in="01:11:09.801" out="01:12:26.902" producer="chain14">
   <property name="kdenlive:id">4</property>
  </entry>
  <blank length="00:00:15.766"/>
  <entry in="01:13:07.466" out="01:13:33.909" producer="chain14">
   <property name="kdenlive:id">4</property>
  </entry>
  <blank length="00:07:12.054"/>
  <entry in="01:22:23.357" out="01:23:52.010" producer="chain14">
   <property name="kdenlive:id">4</property>
  </entry>
  <blank length="00:00:00.417"/>
  <entry in="01:25:06.465" out="01:25:11.220" producer="chain14">
   <property name="kdenlive:id">4</property>
  </entry>
  <blank length="00:00:01.335"/>
  <entry in="01:26:09.176" out="01:26:18.268" producer="chain14">
   <property name="kdenlive:id">4</property>
  </entry>
  <blank length="00:00:36.828"/>
  <entry in="01:28:07.966" out="01:28:36.662" producer="chain14">
   <property name="kdenlive:id">4</property>
  </entry>
  <blank length="00:00:25.108"/>
  <entry in="01:29:05.756" out="01:29:42.334" producer="chain14">
   <property name="kdenlive:id">4</property>
  </entry>
  <blank length="00:02:11.053"/>
  <entry in="01:32:25.776" out="01:33:13.722" producer="chain14">
   <property name="kdenlive:id">4</property>
  </entry>
  <blank length="00:00:22.773"/>
  <entry in="01:33:56.598" out="01:34:04.254" producer="chain14">
   <property name="kdenlive:id">4</property>
  </entry>
  <blank length="00:00:22.231"/>
  <entry in="01:34:36.995" out="01:36:08.008" producer="chain14">
   <property name="kdenlive:id">4</property>
  </entry>
  <blank length="00:00:09.343"/>
  <entry in="01:36:52.594" out="01:36:55.097" producer="chain14">
   <property name="kdenlive:id">4</property>
  </entry>
  <blank length="00:00:04.713"/>
  <entry in="01:37:13.555" out="01:37:16.892" producer="chain14">
   <property name="kdenlive:id">4</property>
  </entry>
  <blank length="00:00:01.001"/>
  <entry in="01:37:35.035" out="01:37:41.875" producer="chain14">
   <property name="kdenlive:id">4</property>
  </entry>
  <blank length="00:00:09.843"/>
  <entry in="01:37:56.223" out="01:37:58.892" producer="chain14">
   <property name="kdenlive:id">4</property>
  </entry>
  <blank length="00:00:53.220"/>
  <entry in="01:39:00.626" out="01:40:02.794" producer="chain14">
   <property name="kdenlive:id">4</property>
  </entry>
  <blank length="00:00:45.671"/>
  <entry in="01:41:03.921" out="01:41:11.261" producer="chain14">
   <property name="kdenlive:id">4</property>
  </entry>
  <blank length="00:01:29.780"/>
  <entry in="01:43:08.467" out="01:45:39.957" producer="chain14">
   <property name="kdenlive:id">4</property>
  </entry>
  <blank length="00:00:19.311"/>
  <entry in="01:46:21.605" out="01:46:41.416" producer="chain14">
   <property name="kdenlive:id">4</property>
  </entry>
  <blank length="00:00:15.432"/>
  <entry in="01:47:47.381" out="01:47:52.594" producer="chain14">
   <property name="kdenlive:id">4</property>
  </entry>
  <blank length="00:00:40.624"/>
  <entry in="01:49:13.096" out="01:49:17.976" producer="chain14">
   <property name="kdenlive:id">4</property>
  </entry>
  <blank length="00:00:26.735"/>
  <entry in="01:49:58.767" out="01:50:27.736" producer="chain14">
   <property name="kdenlive:id">4</property>
  </entry>
 </playlist>
 <tractor id="tractor2" in="00:00:00.000" out="01:07:52.177">
  <property name="kdenlive:audio_track">1</property>
  <property name="kdenlive:trackheight">84</property>
  <property name="kdenlive:timeline_active">1</property>
  <property name="kdenlive:collapsed">0</property>
  <property name="kdenlive:thumbs_format"/>
  <property name="kdenlive:audio_rec"/>
  <track hide="video" producer="playlist4"/>
  <track hide="video" producer="playlist5"/>
  <transition id="transition0" in="00:06:20.562" out="00:06:21.563">
   <property name="a_track">0</property>
   <property name="b_track">1</property>
   <property name="mlt_service">mix</property>
   <property name="kdenlive_id">mix</property>
   <property name="kdenlive:mixcut">12</property>
   <property name="reverse">0</property>
  </transition>
  <transition id="transition1" in="00:28:22.564" out="00:28:22.731">
   <property name="a_track">0</property>
   <property name="b_track">1</property>
   <property name="mlt_service">mix</property>
   <property name="kdenlive_id">mix</property>
   <property name="kdenlive:mixcut">0</property>
   <property name="reverse">1</property>
  </transition>
  <transition id="transition2" in="00:24:47.339" out="00:24:47.756">
   <property name="a_track">0</property>
   <property name="b_track">1</property>
   <property name="mlt_service">mix</property>
   <property name="kdenlive_id">mix</property>
   <property name="kdenlive:mixcut">5</property>
   <property name="reverse">1</property>
  </transition>
  <transition id="transition3" in="00:06:05.797" out="00:06:06.798">
   <property name="a_track">0</property>
   <property name="b_track">1</property>
   <property name="mlt_service">mix</property>
   <property name="kdenlive_id">mix</property>
   <property name="kdenlive:mixcut">12</property>
   <property name="reverse">1</property>
  </transition>
  <transition id="transition4" in="00:05:46.380" out="00:05:50.384">
   <property name="a_track">0</property>
   <property name="b_track">1</property>
   <property name="mlt_service">mix</property>
   <property name="kdenlive_id">mix</property>
   <property name="kdenlive:mixcut">48</property>
   <property name="reverse">0</property>
  </transition>
  <transition id="transition5" in="00:25:26.235" out="00:25:27.236">
   <property name="a_track">0</property>
   <property name="b_track">1</property>
   <property name="mlt_service">mix</property>
   <property name="kdenlive_id">mix</property>
   <property name="kdenlive:mixcut">12</property>
   <property name="reverse">0</property>
  </transition>
  <transition id="transition6" in="00:30:18.143" out="00:30:19.144">
   <property name="a_track">0</property>
   <property name="b_track">1</property>
   <property name="mlt_service">mix</property>
   <property name="kdenlive_id">mix</property>
   <property name="kdenlive:mixcut">0</property>
   <property name="reverse">1</property>
  </transition>
  <transition id="transition7" in="00:06:16.308" out="00:06:17.142">
   <property name="a_track">0</property>
   <property name="b_track">1</property>
   <property name="mlt_service">mix</property>
   <property name="kdenlive_id">mix</property>
   <property name="kdenlive:mixcut">10</property>
   <property name="reverse">1</property>
  </transition>
  <transition id="transition8" in="00:06:11.220" out="00:06:12.221">
   <property name="a_track">0</property>
   <property name="b_track">1</property>
   <property name="mlt_service">mix</property>
   <property name="kdenlive_id">mix</property>
   <property name="kdenlive:mixcut">12</property>
   <property name="reverse">0</property>
  </transition>
  <transition id="transition9" in="00:27:43.919" out="00:27:44.336">
   <property name="a_track">0</property>
   <property name="b_track">1</property>
   <property name="mlt_service">mix</property>
   <property name="kdenlive_id">mix</property>
   <property name="kdenlive:mixcut">5</property>
   <property name="reverse">0</property>
  </transition>
  <transition id="transition10" in="00:13:33.075" out="00:13:34.076">
   <property name="a_track">0</property>
   <property name="b_track">1</property>
   <property name="mlt_service">mix</property>
   <property name="kdenlive_id">mix</property>
   <property name="kdenlive:mixcut">0</property>
   <property name="reverse">1</property>
  </transition>
  <transition id="transition11" in="00:22:29.821" out="00:22:30.822">
   <property name="a_track">0</property>
   <property name="b_track">1</property>
   <property name="mlt_service">mix</property>
   <property name="kdenlive_id">mix</property>
   <property name="kdenlive:mixcut">12</property>
   <property name="reverse">0</property>
  </transition>
  <transition id="transition12" in="00:11:04.504" out="00:11:05.505">
   <property name="a_track">0</property>
   <property name="b_track">1</property>
   <property name="mlt_service">mix</property>
   <property name="kdenlive_id">mix</property>
   <property name="kdenlive:mixcut">24</property>
   <property name="reverse">1</property>
  </transition>
  <transition id="transition13" in="00:18:09.968" out="00:18:10.969">
   <property name="a_track">0</property>
   <property name="b_track">1</property>
   <property name="mlt_service">mix</property>
   <property name="kdenlive_id">mix</property>
   <property name="kdenlive:mixcut">12</property>
   <property name="reverse">1</property>
  </transition>
  <transition id="transition14" in="00:11:54.554" out="00:11:54.972">
   <property name="a_track">0</property>
   <property name="b_track">1</property>
   <property name="mlt_service">mix</property>
   <property name="kdenlive_id">mix</property>
   <property name="kdenlive:mixcut">5</property>
   <property name="reverse">0</property>
  </transition>
  <transition id="transition15" in="00:26:02.336" out="00:26:02.753">
   <property name="a_track">0</property>
   <property name="b_track">1</property>
   <property name="mlt_service">mix</property>
   <property name="kdenlive_id">mix</property>
   <property name="kdenlive:mixcut">10</property>
   <property name="reverse">0</property>
  </transition>
  <transition id="transition16" in="00:33:28.153" out="00:33:28.570">
   <property name="a_track">0</property>
   <property name="b_track">1</property>
   <property name="mlt_service">mix</property>
   <property name="kdenlive_id">mix</property>
   <property name="kdenlive:mixcut">0</property>
   <property name="reverse">0</property>
  </transition>
  <transition id="transition17" in="00:50:37.704" out="00:50:38.705">
   <property name="a_track">0</property>
   <property name="b_track">1</property>
   <property name="mlt_service">mix</property>
   <property name="kdenlive_id">mix</property>
   <property name="kdenlive:mixcut">12</property>
   <property name="reverse">0</property>
  </transition>
  <transition id="transition18" in="00:42:35.744" out="00:42:36.745">
   <property name="a_track">0</property>
   <property name="b_track">1</property>
   <property name="mlt_service">mix</property>
   <property name="kdenlive_id">mix</property>
   <property name="kdenlive:mixcut">12</property>
   <property name="reverse">0</property>
  </transition>
  <transition id="transition19" in="00:06:36.703" out="00:06:37.704">
   <property name="a_track">0</property>
   <property name="b_track">1</property>
   <property name="mlt_service">mix</property>
   <property name="kdenlive_id">mix</property>
   <property name="kdenlive:mixcut">12</property>
   <property name="reverse">1</property>
  </transition>
  <transition id="transition20" in="00:42:41.875" out="00:42:42.292">
   <property name="a_track">0</property>
   <property name="b_track">1</property>
   <property name="mlt_service">mix</property>
   <property name="kdenlive_id">mix</property>
   <property name="kdenlive:mixcut">10</property>
   <property name="reverse">0</property>
  </transition>
  <transition id="transition21" in="00:42:39.790" out="00:42:40.540">
   <property name="a_track">0</property>
   <property name="b_track">1</property>
   <property name="mlt_service">mix</property>
   <property name="kdenlive_id">mix</property>
   <property name="kdenlive:mixcut">18</property>
   <property name="reverse">1</property>
  </transition>
  <transition id="transition22" in="00:29:53.011" out="00:29:54.012">
   <property name="a_track">0</property>
   <property name="b_track">1</property>
   <property name="mlt_service">mix</property>
   <property name="kdenlive_id">mix</property>
   <property name="kdenlive:mixcut">0</property>
   <property name="reverse">1</property>
  </transition>
  <transition id="transition23" in="00:28:42.125" out="00:28:42.542">
   <property name="a_track">0</property>
   <property name="b_track">1</property>
   <property name="mlt_service">mix</property>
   <property name="kdenlive_id">mix</property>
   <property name="kdenlive:mixcut">5</property>
   <property name="reverse">0</property>
  </transition>
  <transition id="transition24" in="00:26:07.674" out="00:26:08.050">
   <property name="a_track">0</property>
   <property name="b_track">1</property>
   <property name="mlt_service">mix</property>
   <property name="kdenlive_id">mix</property>
   <property name="kdenlive:mixcut">9</property>
   <property name="reverse">0</property>
  </transition>
  <transition id="transition25" in="00:13:10.385" out="00:13:10.802">
   <property name="a_track">0</property>
   <property name="b_track">1</property>
   <property name="mlt_service">mix</property>
   <property name="kdenlive_id">mix</property>
   <property name="kdenlive:mixcut">0</property>
   <property name="reverse">0</property>
  </transition>
  <transition id="transition26" in="00:13:02.628" out="00:13:03.045">
   <property name="a_track">0</property>
   <property name="b_track">1</property>
   <property name="mlt_service">mix</property>
   <property name="kdenlive_id">mix</property>
   <property name="kdenlive:mixcut">5</property>
   <property name="reverse">1</property>
  </transition>
  <transition id="transition27" in="00:44:57.307" out="00:44:58.308">
   <property name="a_track">0</property>
   <property name="b_track">1</property>
   <property name="mlt_service">mix</property>
   <property name="kdenlive_id">mix</property>
   <property name="kdenlive:mixcut">19</property>
   <property name="reverse">1</property>
  </transition>
  <transition id="transition28" in="00:12:31.073" out="00:12:31.240">
   <property name="a_track">0</property>
   <property name="b_track">1</property>
   <property name="mlt_service">mix</property>
   <property name="kdenlive_id">mix</property>
   <property name="kdenlive:mixcut">2</property>
   <property name="reverse">0</property>
  </transition>
  <transition id="transition29" in="00:12:18.018" out="00:12:19.019">
   <property name="a_track">0</property>
   <property name="b_track">1</property>
   <property name="mlt_service">mix</property>
   <property name="kdenlive_id">mix</property>
   <property name="kdenlive:mixcut">12</property>
   <property name="reverse">1</property>
  </transition>
  <transition id="transition30" in="00:47:09.343" out="00:47:10.344">
   <property name="a_track">0</property>
   <property name="b_track">1</property>
   <property name="mlt_service">mix</property>
   <property name="kdenlive_id">mix</property>
   <property name="kdenlive:mixcut">12</property>
   <property name="reverse">0</property>
  </transition>
  <transition id="transition31" in="00:08:52.219" out="00:08:53.053">
   <property name="a_track">0</property>
   <property name="b_track">1</property>
   <property name="mlt_service">mix</property>
   <property name="kdenlive_id">mix</property>
   <property name="kdenlive:mixcut">0</property>
   <property name="reverse">0</property>
  </transition>
  <transition id="transition32" in="00:50:32.157" out="00:50:32.991">
   <property name="a_track">0</property>
   <property name="b_track">1</property>
   <property name="mlt_service">mix</property>
   <property name="kdenlive_id">mix</property>
   <property name="kdenlive:mixcut">4</property>
   <property name="reverse">1</property>
  </transition>
  <transition id="transition33" in="00:50:30.447" out="00:50:30.864">
   <property name="a_track">0</property>
   <property name="b_track">1</property>
   <property name="mlt_service">mix</property>
   <property name="kdenlive_id">mix</property>
   <property name="kdenlive:mixcut">0</property>
   <property name="reverse">0</property>
  </transition>
  <transition id="transition34" in="00:30:54.721" out="00:30:55.347">
   <property name="a_track">0</property>
   <property name="b_track">1</property>
   <property name="mlt_service">mix</property>
   <property name="kdenlive_id">mix</property>
   <property name="kdenlive:mixcut">15</property>
   <property name="reverse">0</property>
  </transition>
  <transition id="transition35" in="00:33:53.637" out="00:33:54.638">
   <property name="a_track">0</property>
   <property name="b_track">1</property>
   <property name="mlt_service">mix</property>
   <property name="kdenlive_id">mix</property>
   <property name="kdenlive:mixcut">12</property>
   <property name="reverse">1</property>
  </transition>
  <transition id="transition36" in="00:44:21.688" out="00:44:22.689">
   <property name="a_track">0</property>
   <property name="b_track">1</property>
   <property name="mlt_service">mix</property>
   <property name="kdenlive_id">mix</property>
   <property name="kdenlive:mixcut">12</property>
   <property name="reverse">0</property>
  </transition>
  <transition id="transition37" in="00:43:55.555" out="00:43:56.556">
   <property name="a_track">0</property>
   <property name="b_track">1</property>
   <property name="mlt_service">mix</property>
   <property name="kdenlive_id">mix</property>
   <property name="kdenlive:mixcut">12</property>
   <property name="reverse">1</property>
  </transition>
  <transition id="transition38" in="00:18:21.521" out="00:18:22.522">
   <property name="a_track">0</property>
   <property name="b_track">1</property>
   <property name="mlt_service">mix</property>
   <property name="kdenlive_id">mix</property>
   <property name="kdenlive:mixcut">0</property>
   <property name="reverse">1</property>
  </transition>
  <transition id="transition39" in="00:18:19.186" out="00:18:19.603">
   <property name="a_track">0</property>
   <property name="b_track">1</property>
   <property name="mlt_service">mix</property>
   <property name="kdenlive_id">mix</property>
   <property name="kdenlive:mixcut">5</property>
   <property name="reverse">0</property>
  </transition>
  <transition id="transition40" in="00:43:27.819" out="00:43:28.820">
   <property name="a_track">0</property>
   <property name="b_track">1</property>
   <property name="mlt_service">mix</property>
   <property name="kdenlive_id">mix</property>
   <property name="kdenlive:mixcut">12</property>
   <property name="reverse">0</property>
  </transition>
  <transition id="transition41" in="00:42:50.008" out="00:42:51.009">
   <property name="a_track">0</property>
   <property name="b_track">1</property>
   <property name="mlt_service">mix</property>
   <property name="kdenlive_id">mix</property>
   <property name="kdenlive:mixcut">12</property>
   <property name="reverse">1</property>
  </transition>
  <transition id="transition42" in="00:19:37.496" out="00:19:38.497">
   <property name="a_track">0</property>
   <property name="b_track">1</property>
   <property name="mlt_service">mix</property>
   <property name="kdenlive_id">mix</property>
   <property name="kdenlive:mixcut">24</property>
   <property name="reverse">1</property>
  </transition>
  <transition id="transition43" in="00:19:11.970" out="00:19:12.387">
   <property name="a_track">0</property>
   <property name="b_track">1</property>
   <property name="mlt_service">mix</property>
   <property name="kdenlive_id">mix</property>
   <property name="kdenlive:mixcut">5</property>
   <property name="reverse">0</property>
  </transition>
  <transition id="transition44" in="00:21:08.508" out="00:21:08.926">
   <property name="a_track">0</property>
   <property name="b_track">1</property>
   <property name="mlt_service">mix</property>
   <property name="kdenlive_id">mix</property>
   <property name="kdenlive:mixcut">5</property>
   <property name="reverse">1</property>
  </transition>
  <transition id="transition45" in="00:21:03.003" out="00:21:04.004">
   <property name="a_track">0</property>
   <property name="b_track">1</property>
   <property name="mlt_service">mix</property>
   <property name="kdenlive_id">mix</property>
   <property name="kdenlive:mixcut">12</property>
   <property name="reverse">0</property>
  </transition>
  <transition id="transition46" in="00:50:20.103" out="00:50:21.104">
   <property name="a_track">0</property>
   <property name="b_track">1</property>
   <property name="mlt_service">mix</property>
   <property name="kdenlive_id">mix</property>
   <property name="kdenlive:mixcut">12</property>
   <property name="reverse">1</property>
  </transition>
  <transition id="transition47" in="00:48:50.092" out="00:48:51.093">
   <property name="a_track">0</property>
   <property name="b_track">1</property>
   <property name="mlt_service">mix</property>
   <property name="kdenlive_id">mix</property>
   <property name="kdenlive:mixcut">12</property>
   <property name="reverse">0</property>
  </transition>
  <transition id="transition48" in="00:42:34.326" out="00:42:35.327">
   <property name="a_track">0</property>
   <property name="b_track">1</property>
   <property name="mlt_service">mix</property>
   <property name="kdenlive_id">mix</property>
   <property name="kdenlive:mixcut">24</property>
   <property name="reverse">1</property>
  </transition>
  <transition id="transition49" in="00:41:06.632" out="00:41:07.633">
   <property name="a_track">0</property>
   <property name="b_track">1</property>
   <property name="mlt_service">mix</property>
   <property name="kdenlive_id">mix</property>
   <property name="kdenlive:mixcut">0</property>
   <property name="reverse">0</property>
  </transition>
  <transition id="transition50" in="00:30:51.885" out="00:30:52.886">
   <property name="a_track">0</property>
   <property name="b_track">1</property>
   <property name="mlt_service">mix</property>
   <property name="kdenlive_id">mix</property>
   <property name="kdenlive:mixcut">24</property>
   <property name="reverse">1</property>
  </transition>
  <transition id="transition51" in="00:30:43.043" out="00:30:46.046">
   <property name="a_track">0</property>
   <property name="b_track">1</property>
   <property name="mlt_service">mix</property>
   <property name="kdenlive_id">mix</property>
   <property name="kdenlive:mixcut">36</property>
   <property name="reverse">0</property>
  </transition>
  <transition id="transition52" in="00:48:26.860" out="00:48:27.861">
   <property name="a_track">0</property>
   <property name="b_track">1</property>
   <property name="mlt_service">mix</property>
   <property name="kdenlive_id">mix</property>
   <property name="kdenlive:mixcut">0</property>
   <property name="reverse">1</property>
  </transition>
  <transition id="transition53" in="00:22:26.193" out="00:22:27.194">
   <property name="a_track">0</property>
   <property name="b_track">1</property>
   <property name="mlt_service">mix</property>
   <property name="kdenlive_id">mix</property>
   <property name="kdenlive:mixcut">12</property>
   <property name="reverse">1</property>
  </transition>
  <transition id="transition54" in="00:21:30.530" out="00:21:31.531">
   <property name="a_track">0</property>
   <property name="b_track">1</property>
   <property name="mlt_service">mix</property>
   <property name="kdenlive_id">mix</property>
   <property name="kdenlive:mixcut">20</property>
   <property name="reverse">0</property>
  </transition>
  <transition id="transition55" in="00:48:20.145" out="00:48:20.979">
   <property name="a_track">0</property>
   <property name="b_track">1</property>
   <property name="mlt_service">mix</property>
   <property name="kdenlive_id">mix</property>
   <property name="kdenlive:mixcut">10</property>
   <property name="reverse">0</property>
  </transition>
  <transition id="transition56" in="00:47:56.348" out="00:47:57.349">
   <property name="a_track">0</property>
   <property name="b_track">1</property>
   <property name="mlt_service">mix</property>
   <property name="kdenlive_id">mix</property>
   <property name="kdenlive:mixcut">12</property>
   <property name="reverse">1</property>
  </transition>
  <transition id="transition57" in="00:31:32.074" out="00:31:33.075">
   <property name="a_track">0</property>
   <property name="b_track">1</property>
   <property name="mlt_service">mix</property>
   <property name="kdenlive_id">mix</property>
   <property name="kdenlive:mixcut">12</property>
   <property name="reverse">1</property>
  </transition>
  <transition id="transition58" in="00:25:28.070" out="00:25:28.278">
   <property name="a_track">0</property>
   <property name="b_track">1</property>
   <property name="mlt_service">mix</property>
   <property name="kdenlive_id">mix</property>
   <property name="kdenlive:mixcut">5</property>
   <property name="reverse">1</property>
  </transition>
  <transition id="transition59" in="00:24:32.199" out="00:24:32.616">
   <property name="a_track">0</property>
   <property name="b_track">1</property>
   <property name="mlt_service">mix</property>
   <property name="kdenlive_id">mix</property>
   <property name="kdenlive:mixcut">5</property>
   <property name="reverse">0</property>
  </transition>
  <transition id="transition60" in="00:23:57.933" out="00:23:58.934">
   <property name="a_track">0</property>
   <property name="b_track">1</property>
   <property name="mlt_service">mix</property>
   <property name="kdenlive_id">mix</property>
   <property name="kdenlive:mixcut">12</property>
   <property name="reverse">1</property>
  </transition>
  <transition id="transition61" in="00:13:30.781" out="00:13:31.782">
   <property name="a_track">0</property>
   <property name="b_track">1</property>
   <property name="mlt_service">mix</property>
   <property name="kdenlive_id">mix</property>
   <property name="kdenlive:mixcut">0</property>
   <property name="reverse">0</property>
  </transition>
  <transition id="transition62" in="00:13:15.432" out="00:13:16.433">
   <property name="a_track">0</property>
   <property name="b_track">1</property>
   <property name="mlt_service">mix</property>
   <property name="kdenlive_id">mix</property>
   <property name="kdenlive:mixcut">12</property>
   <property name="reverse">1</property>
  </transition>
  <transition id="transition63" in="00:08:19.353" out="00:08:20.354">
   <property name="a_track">0</property>
   <property name="b_track">1</property>
   <property name="mlt_service">mix</property>
   <property name="kdenlive_id">mix</property>
   <property name="kdenlive:mixcut">12</property>
   <property name="reverse">0</property>
  </transition>
  <transition id="transition64" in="00:25:38.580" out="00:25:38.830">
   <property name="a_track">0</property>
   <property name="b_track">1</property>
   <property name="mlt_service">mix</property>
   <property name="kdenlive_id">mix</property>
   <property name="kdenlive:mixcut">0</property>
   <property name="reverse">1</property>
  </transition>
  <transition id="transition65" in="00:25:35.244" out="00:25:35.661">
   <property name="a_track">0</property>
   <property name="b_track">1</property>
   <property name="mlt_service">mix</property>
   <property name="kdenlive_id">mix</property>
   <property name="kdenlive:mixcut">5</property>
   <property name="reverse">0</property>
  </transition>
  <transition id="transition66" in="00:33:11.386" out="00:33:12.387">
   <property name="a_track">0</property>
   <property name="b_track">1</property>
   <property name="mlt_service">mix</property>
   <property name="kdenlive_id">mix</property>
   <property name="kdenlive:mixcut">12</property>
   <property name="reverse">1</property>
  </transition>
  <transition id="transition67" in="00:31:55.264" out="00:31:55.681">
   <property name="a_track">0</property>
   <property name="b_track">1</property>
   <property name="mlt_service">mix</property>
   <property name="kdenlive_id">mix</property>
   <property name="kdenlive:mixcut">10</property>
   <property name="reverse">0</property>
  </transition>
  <transition id="transition68" in="00:50:40.666" out="00:50:41.083">
   <property name="a_track">0</property>
   <property name="b_track">1</property>
   <property name="mlt_service">mix</property>
   <property name="kdenlive_id">mix</property>
   <property name="kdenlive:mixcut">0</property>
   <property name="reverse">1</property>
  </transition>
  <transition id="transition69" in="00:50:42.084" out="00:50:43.085">
   <property name="a_track">0</property>
   <property name="b_track">1</property>
   <property name="mlt_service">mix</property>
   <property name="kdenlive_id">mix</property>
   <property name="kdenlive:mixcut">12</property>
   <property name="start">-1</property>
   <property name="accepts_blanks">1</property>
   <property name="reverse">0</property>
  </transition>
  <transition id="transition70" in="00:50:48.799" out="00:50:48.966">
   <property name="a_track">0</property>
   <property name="b_track">1</property>
   <property name="mlt_service">mix</property>
   <property name="kdenlive_id">mix</property>
   <property name="kdenlive:mixcut">2</property>
   <property name="start">-1</property>
   <property name="accepts_blanks">1</property>
   <property name="reverse">1</property>
  </transition>
  <transition id="transition71" in="00:50:58.809" out="00:50:59.810">
   <property name="a_track">0</property>
   <property name="b_track">1</property>
   <property name="mlt_service">mix</property>
   <property name="kdenlive_id">mix</property>
   <property name="kdenlive:mixcut">0</property>
   <property name="start">-1</property>
   <property name="accepts_blanks">1</property>
   <property name="reverse">0</property>
  </transition>
  <transition id="transition72" in="00:51:01.126" out="00:51:01.543">
   <property name="a_track">0</property>
   <property name="b_track">1</property>
   <property name="mlt_service">mix</property>
   <property name="kdenlive_id">mix</property>
   <property name="kdenlive:mixcut">5</property>
   <property name="start">-1</property>
   <property name="accepts_blanks">1</property>
   <property name="reverse">1</property>
  </transition>
  <transition id="transition73" in="00:51:54.763" out="00:51:55.764">
   <property name="a_track">0</property>
   <property name="b_track">1</property>
   <property name="mlt_service">mix</property>
   <property name="kdenlive_id">mix</property>
   <property name="kdenlive:mixcut">12</property>
   <property name="start">-1</property>
   <property name="accepts_blanks">1</property>
   <property name="reverse">0</property>
  </transition>
  <transition id="transition74" in="00:52:55.973" out="00:52:56.974">
   <property name="a_track">0</property>
   <property name="b_track">1</property>
   <property name="mlt_service">mix</property>
   <property name="kdenlive_id">mix</property>
   <property name="kdenlive:mixcut">0</property>
   <property name="start">-1</property>
   <property name="accepts_blanks">1</property>
   <property name="reverse">1</property>
  </transition>
  <transition id="transition75" in="00:53:42.668" out="00:53:43.502">
   <property name="a_track">0</property>
   <property name="b_track">1</property>
   <property name="mlt_service">mix</property>
   <property name="kdenlive_id">mix</property>
   <property name="kdenlive:mixcut">10</property>
   <property name="start">-1</property>
   <property name="accepts_blanks">1</property>
   <property name="reverse">0</property>
  </transition>
  <transition id="transition76" in="00:53:49.049" out="00:53:50.050">
   <property name="a_track">0</property>
   <property name="b_track">1</property>
   <property name="mlt_service">mix</property>
   <property name="kdenlive_id">mix</property>
   <property name="kdenlive:mixcut">12</property>
   <property name="start">-1</property>
   <property name="accepts_blanks">1</property>
   <property name="reverse">1</property>
  </transition>
  <transition id="transition77" in="00:55:19.811" out="00:55:20.229">
   <property name="a_track">0</property>
   <property name="b_track">1</property>
   <property name="mlt_service">mix</property>
   <property name="kdenlive_id">mix</property>
   <property name="kdenlive:mixcut">0</property>
   <property name="start">-1</property>
   <property name="accepts_blanks">1</property>
   <property name="reverse">0</property>
  </transition>
  <transition id="transition78" in="00:57:50.300" out="00:57:51.301">
   <property name="a_track">0</property>
   <property name="b_track">1</property>
   <property name="mlt_service">mix</property>
   <property name="kdenlive_id">mix</property>
   <property name="kdenlive:mixcut">12</property>
   <property name="start">-1</property>
   <property name="accepts_blanks">1</property>
   <property name="reverse">1</property>
  </transition>
  <transition id="transition79" in="00:58:10.636" out="00:58:11.637">
   <property name="a_track">0</property>
   <property name="b_track">1</property>
   <property name="mlt_service">mix</property>
   <property name="kdenlive_id">mix</property>
   <property name="kdenlive:mixcut">12</property>
   <property name="start">-1</property>
   <property name="accepts_blanks">1</property>
   <property name="reverse">0</property>
  </transition>
  <transition id="transition80" in="00:58:29.488" out="00:58:30.489">
   <property name="a_track">0</property>
   <property name="b_track">1</property>
   <property name="mlt_service">mix</property>
   <property name="kdenlive_id">mix</property>
   <property name="kdenlive:mixcut">0</property>
   <property name="start">-1</property>
   <property name="accepts_blanks">1</property>
   <property name="reverse">1</property>
  </transition>
  <transition id="transition81" in="00:58:45.921" out="00:58:46.046">
   <property name="a_track">0</property>
   <property name="b_track">1</property>
   <property name="mlt_service">mix</property>
   <property name="kdenlive_id">mix</property>
   <property name="kdenlive:mixcut">3</property>
   <property name="start">-1</property>
   <property name="accepts_blanks">1</property>
   <property name="reverse">0</property>
  </transition>
  <transition id="transition82" in="00:58:50.342" out="00:58:51.176">
   <property name="a_track">0</property>
   <property name="b_track">1</property>
   <property name="mlt_service">mix</property>
   <property name="kdenlive_id">mix</property>
   <property name="kdenlive:mixcut">10</property>
   <property name="start">-1</property>
   <property name="accepts_blanks">1</property>
   <property name="reverse">1</property>
  </transition>
  <transition id="transition83" in="00:59:31.782" out="00:59:32.783">
   <property name="a_track">0</property>
   <property name="b_track">1</property>
   <property name="mlt_service">mix</property>
   <property name="kdenlive_id">mix</property>
   <property name="kdenlive:mixcut">24</property>
   <property name="start">-1</property>
   <property name="accepts_blanks">1</property>
   <property name="reverse">0</property>
  </transition>
  <transition id="transition84" in="00:59:36.536" out="00:59:36.703">
   <property name="a_track">0</property>
   <property name="b_track">1</property>
   <property name="mlt_service">mix</property>
   <property name="kdenlive_id">mix</property>
   <property name="kdenlive:mixcut">4</property>
   <property name="start">-1</property>
   <property name="accepts_blanks">1</property>
   <property name="reverse">1</property>
  </transition>
  <transition id="transition85" in="01:00:03.462" out="01:00:04.463">
   <property name="a_track">0</property>
   <property name="b_track">1</property>
   <property name="mlt_service">mix</property>
   <property name="kdenlive_id">mix</property>
   <property name="kdenlive:mixcut">12</property>
   <property name="start">-1</property>
   <property name="accepts_blanks">1</property>
   <property name="reverse">0</property>
  </transition>
  <transition id="transition86" in="01:00:29.488" out="01:00:32.491">
   <property name="a_track">0</property>
   <property name="b_track">1</property>
   <property name="mlt_service">mix</property>
   <property name="kdenlive_id">mix</property>
   <property name="kdenlive:mixcut">36</property>
   <property name="start">-1</property>
   <property name="accepts_blanks">1</property>
   <property name="reverse">1</property>
  </transition>
  <filter id="filter11">
   <property name="window">75</property>
   <property name="max_gain">20dB</property>
   <property name="mlt_service">volume</property>
   <property name="internal_added">237</property>
   <property name="disable">1</property>
  </filter>
  <filter id="filter12">
   <property name="channel">-1</property>
   <property name="mlt_service">panner</property>
   <property name="internal_added">237</property>
   <property name="start">0.5</property>
   <property name="disable">1</property>
  </filter>
  <filter id="filter13">
   <property name="iec_scale">0</property>
   <property name="mlt_service">audiolevel</property>
   <property name="dbpeak">1</property>
   <property name="disable">1</property>
  </filter>
 </tractor>
 <chain id="chain15" out="02:04:23.941">
  <property name="length">178956</property>
  <property name="eof">pause</property>
  <property name="resource">/Kids Movies/Sonic/Sonic 2022/Sonic 2 Il Film (2023) 2160p 4K H265 10 Bit iTA ENG AC3 5.1 Sub Ita Eng - iDN_CreW.mkv</property>
  <property name="mlt_service">avformat-novalidate</property>
  <property name="seekable">1</property>
  <property name="audio_index">1</property>
  <property name="video_index">0</property>
  <property name="vstream">0</property>
  <property name="astream">0</property>
  <property name="kdenlive:control_uuid">{8662ceb9-f96f-4607-812c-ea78d123d3ef}</property>
  <property name="kdenlive:id">4</property>
  <property name="kdenlive:clip_type">0</property>
  <property name="kdenlive:file_size">6455506204</property>
  <property name="kdenlive:file_hash">c805e36cb967f0098696aec55aa79048</property>
  <property name="kdenlive:folderid">-1</property>
  <property name="kdenlive:monitorPosition">2741</property>
  <property name="kdenlive:markers">[
]
</property>
  <property name="mute_on_pause">0</property>
  <property name="kdenlive:active_streams">1;2</property>
  <property name="meta.media.nb_streams">7</property>
  <property name="meta.media.0.stream.type">video</property>
  <property name="meta.media.0.stream.frame_rate">23.976</property>
  <property name="meta.media.0.stream.sample_aspect_ratio">1</property>
  <property name="meta.media.0.codec.width">3840</property>
  <property name="meta.media.0.codec.height">1606</property>
  <property name="meta.media.0.codec.rotate">0</property>
  <property name="meta.media.0.codec.pix_fmt">yuv420p10le</property>
  <property name="meta.media.0.codec.sample_aspect_ratio">1</property>
  <property name="meta.media.0.codec.colorspace">709</property>
  <property name="meta.media.0.codec.color_trc">1</property>
  <property name="meta.media.0.codec.name">hevc</property>
  <property name="meta.media.0.codec.long_name">HEVC (High Efficiency Video Coding)</property>
  <property name="meta.media.0.codec.bit_rate">0</property>
  <property name="meta.attr.0.stream.BPS-eng.markup">6000404</property>
  <property name="meta.attr.0.stream.DURATION-eng.markup">02:02:18.123000000</property>
  <property name="meta.attr.0.stream.NUMBER_OF_FRAMES-eng.markup">175939</property>
  <property name="meta.attr.0.stream.NUMBER_OF_BYTES-eng.markup">5503962903</property>
  <property name="meta.attr.0.stream._STATISTICS_WRITING_APP-eng.markup">mkvmerge v49.0.0 ('Sick Of Losing Soulmates') 64-bit</property>
  <property name="meta.attr.0.stream._STATISTICS_WRITING_DATE_UTC-eng.markup">2022-05-31 19:08:19</property>
  <property name="meta.attr.0.stream._STATISTICS_TAGS-eng.markup">BPS DURATION NUMBER_OF_FRAMES NUMBER_OF_BYTES</property>
  <property name="meta.media.1.stream.type">audio</property>
  <property name="meta.media.1.codec.sample_fmt">fltp</property>
  <property name="meta.media.1.codec.sample_rate">48000</property>
  <property name="meta.media.1.codec.channels">6</property>
  <property name="meta.media.1.codec.layout">5.1(side)</property>
  <property name="meta.media.1.codec.name">ac3</property>
  <property name="meta.media.1.codec.long_name">ATSC A/52A (AC-3)</property>
  <property name="meta.media.1.codec.bit_rate">640000</property>
  <property name="meta.attr.1.stream.language.markup">ita</property>
  <property name="meta.attr.1.stream.title.markup">AC3 iTA</property>
  <property name="meta.attr.1.stream.BPS-eng.markup">640000</property>
  <property name="meta.attr.1.stream.DURATION-eng.markup">02:04:23.968000000</property>
  <property name="meta.attr.1.stream.NUMBER_OF_FRAMES-eng.markup">233249</property>
  <property name="meta.attr.1.stream.NUMBER_OF_BYTES-eng.markup">597117440</property>
  <property name="meta.attr.1.stream._STATISTICS_WRITING_APP-eng.markup">mkvmerge v49.0.0 ('Sick Of Losing Soulmates') 64-bit</property>
  <property name="meta.attr.1.stream._STATISTICS_WRITING_DATE_UTC-eng.markup">2022-05-31 19:08:19</property>
  <property name="meta.attr.1.stream._STATISTICS_TAGS-eng.markup">BPS DURATION NUMBER_OF_FRAMES NUMBER_OF_BYTES</property>
  <property name="meta.media.2.stream.type">audio</property>
  <property name="meta.media.2.codec.sample_fmt">fltp</property>
  <property name="meta.media.2.codec.sample_rate">48000</property>
  <property name="meta.media.2.codec.channels">6</property>
  <property name="meta.media.2.codec.layout">5.1(side)</property>
  <property name="meta.media.2.codec.name">ac3</property>
  <property name="meta.media.2.codec.long_name">ATSC A/52A (AC-3)</property>
  <property name="meta.media.2.codec.bit_rate">384000</property>
  <property name="meta.attr.2.stream.language.markup">eng</property>
  <property name="meta.attr.2.stream.title.markup">AC3 Eng</property>
  <property name="meta.attr.2.stream.BPS-eng.markup">384000</property>
  <property name="meta.attr.2.stream.DURATION-eng.markup">02:02:18.304000000</property>
  <property name="meta.attr.2.stream.NUMBER_OF_FRAMES-eng.markup">229322</property>
  <property name="meta.attr.2.stream.NUMBER_OF_BYTES-eng.markup">352238592</property>
  <property name="meta.attr.2.stream._STATISTICS_WRITING_APP-eng.markup">mkvmerge v49.0.0 ('Sick Of Losing Soulmates') 64-bit</property>
  <property name="meta.attr.2.stream._STATISTICS_WRITING_DATE_UTC-eng.markup">2022-05-31 19:08:19</property>
  <property name="meta.attr.2.stream._STATISTICS_TAGS-eng.markup">BPS DURATION NUMBER_OF_FRAMES NUMBER_OF_BYTES</property>
  <property name="meta.media.3.codec.name">srt</property>
  <property name="meta.media.3.codec.long_name">SubRip subtitle</property>
  <property name="meta.media.3.codec.bit_rate">0</property>
  <property name="meta.attr.3.stream.language.markup">ita</property>
  <property name="meta.attr.3.stream.title.markup">Forced</property>
  <property name="meta.attr.3.stream.BPS-eng.markup">0</property>
  <property name="meta.attr.3.stream.DURATION-eng.markup">02:01:21.816000000</property>
  <property name="meta.attr.3.stream.NUMBER_OF_FRAMES-eng.markup">25</property>
  <property name="meta.attr.3.stream.NUMBER_OF_BYTES-eng.markup">600</property>
  <property name="meta.attr.3.stream._STATISTICS_WRITING_APP-eng.markup">mkvmerge v49.0.0 ('Sick Of Losing Soulmates') 64-bit</property>
  <property name="meta.attr.3.stream._STATISTICS_WRITING_DATE_UTC-eng.markup">2022-05-31 19:08:19</property>
  <property name="meta.attr.3.stream._STATISTICS_TAGS-eng.markup">BPS DURATION NUMBER_OF_FRAMES NUMBER_OF_BYTES</property>
  <property name="meta.media.4.codec.name">srt</property>
  <property name="meta.media.4.codec.long_name">SubRip subtitle</property>
  <property name="meta.media.4.codec.bit_rate">0</property>
  <property name="meta.attr.4.stream.language.markup">ita</property>
  <property name="meta.attr.4.stream.title.markup">Regular</property>
  <property name="meta.attr.4.stream.BPS-eng.markup">45</property>
  <property name="meta.attr.4.stream.DURATION-eng.markup">02:01:21.816000000</property>
  <property name="meta.attr.4.stream.NUMBER_OF_FRAMES-eng.markup">1376</property>
  <property name="meta.attr.4.stream.NUMBER_OF_BYTES-eng.markup">41271</property>
  <property name="meta.attr.4.stream._STATISTICS_WRITING_APP-eng.markup">mkvmerge v49.0.0 ('Sick Of Losing Soulmates') 64-bit</property>
  <property name="meta.attr.4.stream._STATISTICS_WRITING_DATE_UTC-eng.markup">2022-05-31 19:08:19</property>
  <property name="meta.attr.4.stream._STATISTICS_TAGS-eng.markup">BPS DURATION NUMBER_OF_FRAMES NUMBER_OF_BYTES</property>
  <property name="meta.media.5.codec.name">srt</property>
  <property name="meta.media.5.codec.long_name">SubRip subtitle</property>
  <property name="meta.media.5.codec.bit_rate">0</property>
  <property name="meta.attr.5.stream.language.markup">eng</property>
  <property name="meta.attr.5.stream.title.markup">Forced</property>
  <property name="meta.attr.5.stream.BPS-eng.markup">0</property>
  <property name="meta.attr.5.stream.DURATION-eng.markup">00:42:25.379000000</property>
  <property name="meta.attr.5.stream.NUMBER_OF_FRAMES-eng.markup">7</property>
  <property name="meta.attr.5.stream.NUMBER_OF_BYTES-eng.markup">170</property>
  <property name="meta.attr.5.stream._STATISTICS_WRITING_APP-eng.markup">mkvmerge v49.0.0 ('Sick Of Losing Soulmates') 64-bit</property>
  <property name="meta.attr.5.stream._STATISTICS_WRITING_DATE_UTC-eng.markup">2022-05-31 19:08:19</property>
  <property name="meta.attr.5.stream._STATISTICS_TAGS-eng.markup">BPS DURATION NUMBER_OF_FRAMES NUMBER_OF_BYTES</property>
  <property name="meta.media.6.codec.name">srt</property>
  <property name="meta.media.6.codec.long_name">SubRip subtitle</property>
  <property name="meta.media.6.codec.bit_rate">0</property>
  <property name="meta.attr.6.stream.language.markup">eng</property>
  <property name="meta.attr.6.stream.title.markup">Regular</property>
  <property name="meta.attr.6.stream.BPS-eng.markup">60</property>
  <property name="meta.attr.6.stream.DURATION-eng.markup">01:52:04.859000000</property>
  <property name="meta.attr.6.stream.NUMBER_OF_FRAMES-eng.markup">1647</property>
  <property name="meta.attr.6.stream.NUMBER_OF_BYTES-eng.markup">50781</property>
  <property name="meta.attr.6.stream._STATISTICS_WRITING_APP-eng.markup">mkvmerge v49.0.0 ('Sick Of Losing Soulmates') 64-bit</property>
  <property name="meta.attr.6.stream._STATISTICS_WRITING_DATE_UTC-eng.markup">2022-05-31 19:08:19</property>
  <property name="meta.attr.6.stream._STATISTICS_TAGS-eng.markup">BPS DURATION NUMBER_OF_FRAMES NUMBER_OF_BYTES</property>
  <property name="meta.attr.title.markup">UHD 4K - iDN_CreW</property>
  <property name="meta.attr.encoder.markup">libebml v1.4.0 + libmatroska v1.6.1</property>
  <property name="meta.attr.creation_time.markup">2022-05-31T19:08:19.000000Z</property>
  <property name="meta.media.sample_aspect_num">1</property>
  <property name="meta.media.sample_aspect_den">1</property>
  <property name="meta.media.frame_rate_num">24000</property>
  <property name="meta.media.frame_rate_den">1001</property>
  <property name="meta.media.colorspace">709</property>
  <property name="meta.media.color_trc">1</property>
  <property name="meta.media.has_b_frames">2</property>
  <property name="meta.media.width">3840</property>
  <property name="meta.media.height">1606</property>
  <property name="meta.media.aspect_ratio">1</property>
  <property name="meta.media.color_range">mpeg</property>
  <property name="xml">was here</property>
  <property name="meta.media.top_field_first">0</property>
  <property name="meta.media.progressive">1</property>
  <property name="set.test_audio">0</property>
  <property name="set.test_image">1</property>
 </chain>
 <playlist id="playlist6">
  <property name="kdenlive:audio_track">1</property>
  <entry in="00:00:00.000" out="00:05:48.340" producer="chain15">
   <property name="kdenlive:id">4</property>
  </entry>
  <entry in="00:15:01.418" out="00:15:19.311" producer="chain15">
   <property name="kdenlive:id">4</property>
  </entry>
  <entry in="00:15:40.082" out="00:15:45.462" producer="chain15">
   <property name="kdenlive:id">4</property>
  </entry>
  <entry in="00:16:01.501" out="00:16:06.465" producer="chain15">
   <property name="kdenlive:id">4</property>
  </entry>
  <entry in="00:16:12.679" out="00:16:16.975" producer="chain15">
   <property name="kdenlive:id">4</property>
  </entry>
  <entry in="00:16:24.274" out="00:16:40.374" producer="chain15">
   <property name="kdenlive:id">4</property>
  </entry>
  <entry in="00:17:18.769" out="00:18:55.347" producer="chain15">
   <property name="kdenlive:id">4</property>
  </entry>
  <entry in="00:19:41.625" out="00:19:47.589" producer="chain15">
   <property name="kdenlive:id">4</property>
  </entry>
  <entry in="00:20:53.303" out="00:21:02.878" producer="chain15">
   <property name="kdenlive:id">4</property>
  </entry>
  <entry in="00:21:06.006" out="00:21:29.571" producer="chain15">
   <property name="kdenlive:id">4</property>
  </entry>
  <entry in="00:21:40.290" out="00:23:51.718" producer="chain15">
   <property name="kdenlive:id">4</property>
  </entry>
  <entry in="00:23:55.681" out="00:24:45.879" producer="chain15">
   <property name="kdenlive:id">4</property>
  </entry>
  <entry in="00:25:00.167" out="00:25:23.857" producer="chain15">
   <property name="kdenlive:id">4</property>
  </entry>
  <entry in="00:25:37.162" out="00:25:49.758" producer="chain15">
   <property name="kdenlive:id">4</property>
  </entry>
  <entry in="00:26:04.129" out="00:26:35.786" producer="chain15">
   <property name="kdenlive:id">4</property>
  </entry>
  <entry in="00:26:39.498" out="00:26:47.422" producer="chain15">
   <property name="kdenlive:id">4</property>
  </entry>
  <entry in="00:26:50.008" out="00:26:55.097" producer="chain15">
   <property name="kdenlive:id">4</property>
  </entry>
  <entry in="00:26:59.977" out="00:27:15.766" producer="chain15">
   <property name="kdenlive:id">4</property>
  </entry>
  <entry in="00:27:19.728" out="00:27:21.980" producer="chain15">
   <property name="kdenlive:id">4</property>
  </entry>
  <entry in="00:27:33.116" out="00:30:49.591" producer="chain15">
   <property name="kdenlive:id">4</property>
  </entry>
  <entry in="00:30:49.633" out="00:30:51.677" producer="chain15">
   <property name="kdenlive:id">4</property>
  </entry>
  <entry in="00:30:55.430" out="00:32:13.222" producer="chain15">
   <property name="kdenlive:id">4</property>
  </entry>
  <entry in="00:34:14.348" out="00:34:23.232" producer="chain15">
   <property name="kdenlive:id">4</property>
  </entry>
  <entry in="00:34:35.452" out="00:34:38.538" producer="chain15">
   <property name="kdenlive:id">4</property>
  </entry>
  <entry in="00:35:00.792" out="00:35:50.384" producer="chain15">
   <property name="kdenlive:id">4</property>
  </entry>
  <entry in="00:35:59.351" out="00:36:24.608" producer="chain15">
   <property name="kdenlive:id">4</property>
  </entry>
  <entry in="00:40:34.201" out="00:40:39.373" producer="chain15">
   <property name="kdenlive:id">4</property>
  </entry>
  <entry in="00:40:45.921" out="00:40:46.088" producer="chain15">
   <property name="kdenlive:id">4</property>
  </entry>
  <entry in="00:40:46.129" out="00:42:06.673" producer="chain15">
   <property name="kdenlive:id">4</property>
  </entry>
  <entry in="00:50:04.296" out="00:50:09.468" producer="chain15">
   <property name="kdenlive:id">4</property>
  </entry>
  <entry in="00:50:16.975" out="00:50:38.914" producer="chain15">
   <property name="kdenlive:id">4</property>
  </entry>
  <entry in="00:50:45.712" out="00:51:41.708" producer="chain15">
   <property name="kdenlive:id">4</property>
  </entry>
  <entry in="00:51:49.466" out="00:51:53.053" producer="chain15">
   <property name="kdenlive:id">4</property>
  </entry>
  <entry in="00:51:57.474" out="00:53:25.525" producer="chain15">
   <property name="kdenlive:id">4</property>
  </entry>
  <entry in="00:53:41.250" out="00:54:15.182" producer="chain15">
   <property name="kdenlive:id">4</property>
  </entry>
  <entry in="00:54:16.934" out="00:54:32.032" producer="chain15">
   <property name="kdenlive:id">4</property>
  </entry>
  <entry in="00:54:33.450" out="00:55:12.638" producer="chain15">
   <property name="kdenlive:id">4</property>
  </entry>
  <entry in="00:55:44.753" out="00:55:46.046" producer="chain15">
   <property name="kdenlive:id">4</property>
  </entry>
  <entry in="00:55:47.798" out="00:55:48.924" producer="chain15">
   <property name="kdenlive:id">4</property>
  </entry>
  <entry in="00:55:48.966" out="00:55:55.138" producer="chain15">
   <property name="kdenlive:id">4</property>
  </entry>
  <entry in="00:55:58.141" out="00:56:01.460" producer="chain15">
   <property name="kdenlive:id">4</property>
  </entry>
  <entry in="00:56:09.509" out="00:56:32.950" producer="chain15">
   <property name="kdenlive:id">4</property>
  </entry>
  <entry in="00:57:14.681" out="00:57:18.644" producer="chain15">
   <property name="kdenlive:id">4</property>
  </entry>
  <entry in="00:57:18.685" out="00:57:19.978" producer="chain15">
   <property name="kdenlive:id">4</property>
  </entry>
  <entry in="00:57:23.440" out="00:58:52.970" producer="chain15">
   <property name="kdenlive:id">4</property>
  </entry>
  <entry in="00:59:29.696" out="00:59:31.281" producer="chain15">
   <property name="kdenlive:id">4</property>
  </entry>
  <entry in="00:59:31.323" out="00:59:33.200" producer="chain15">
   <property name="kdenlive:id">4</property>
  </entry>
  <entry in="00:59:34.159" out="00:59:37.496" producer="chain15">
   <property name="kdenlive:id">4</property>
  </entry>
  <entry in="00:59:42.167" out="01:00:20.729" producer="chain15">
   <property name="kdenlive:id">4</property>
  </entry>
  <entry in="01:00:26.026" out="01:00:45.587" producer="chain15">
   <property name="kdenlive:id">4</property>
  </entry>
  <entry in="01:00:59.518" out="01:02:11.178" producer="chain15">
   <property name="kdenlive:id">4</property>
  </entry>
  <entry in="01:02:17.017" out="01:02:28.779" producer="chain15">
   <property name="kdenlive:id">4</property>
  </entry>
  <blank length="00:00:00.125"/>
  <entry in="01:02:28.946" out="01:02:30.364" producer="chain15">
   <property name="kdenlive:id">4</property>
  </entry>
  <entry in="01:04:20.062" out="01:04:24.274" producer="chain15">
   <property name="kdenlive:id">4</property>
  </entry>
  <entry in="01:04:24.316" out="01:04:31.740" producer="chain15">
   <property name="kdenlive:id">4</property>
  </entry>
  <entry in="01:04:37.079" out="01:05:02.461" producer="chain15">
   <property name="kdenlive:id">4</property>
  </entry>
  <entry in="01:05:41.124" out="01:05:48.423" producer="chain15">
   <property name="kdenlive:id">4</property>
  </entry>
  <entry in="01:06:00.042" out="01:06:02.836" producer="chain15">
   <property name="kdenlive:id">4</property>
  </entry>
  <entry in="01:06:30.948" out="01:07:08.800" producer="chain15">
   <property name="kdenlive:id">4</property>
  </entry>
  <entry in="01:10:43.835" out="01:11:06.465" producer="chain15">
   <property name="kdenlive:id">4</property>
  </entry>
  <entry in="01:11:09.801" out="01:12:26.401" producer="chain15">
   <property name="kdenlive:id">4</property>
  </entry>
  <entry in="01:12:28.153" out="01:12:40.165" producer="chain15">
   <property name="kdenlive:id">4</property>
  </entry>
  <entry in="01:12:40.207" out="01:12:44.795" producer="chain15">
   <property name="kdenlive:id">4</property>
  </entry>
  <entry in="01:13:07.883" out="01:13:33.408" producer="chain15">
   <property name="kdenlive:id">4</property>
  </entry>
  <entry in="01:14:56.598" out="01:21:39.039" producer="chain15">
   <property name="kdenlive:id">4</property>
  </entry>
  <entry in="01:21:48.674" out="01:22:19.645" producer="chain15">
   <property name="kdenlive:id">4</property>
  </entry>
  <entry in="01:22:24.358" out="01:23:51.009" producer="chain15">
   <property name="kdenlive:id">4</property>
  </entry>
  <entry in="01:23:52.886" out="01:23:54.763" producer="chain15">
   <property name="kdenlive:id">4</property>
  </entry>
  <entry in="01:25:06.965" out="01:25:10.469" producer="chain15">
   <property name="kdenlive:id">4</property>
  </entry>
  <entry in="01:26:03.503" out="01:26:05.547" producer="chain15">
   <property name="kdenlive:id">4</property>
  </entry>
  <entry in="01:26:09.176" out="01:26:17.768" producer="chain15">
   <property name="kdenlive:id">4</property>
  </entry>
  <entry in="01:27:27.194" out="01:28:05.005" producer="chain15">
   <property name="kdenlive:id">4</property>
  </entry>
  <entry in="01:28:08.467" out="01:28:36.161" producer="chain15">
   <property name="kdenlive:id">4</property>
  </entry>
  <entry in="01:28:38.914" out="01:29:04.963" producer="chain15">
   <property name="kdenlive:id">4</property>
  </entry>
  <entry in="01:29:06.256" out="01:29:41.541" producer="chain15">
   <property name="kdenlive:id">4</property>
  </entry>
  <entry in="01:29:49.299" out="01:32:01.627" producer="chain15">
   <property name="kdenlive:id">4</property>
  </entry>
  <entry in="01:32:26.276" out="01:33:13.222" producer="chain15">
   <property name="kdenlive:id">4</property>
  </entry>
  <entry in="01:33:18.894" out="01:33:42.542" producer="chain15">
   <property name="kdenlive:id">4</property>
  </entry>
  <entry in="01:33:57.015" out="01:34:04.254" producer="chain15">
   <property name="kdenlive:id">4</property>
  </entry>
  <entry in="01:34:09.885" out="01:34:32.574" producer="chain15">
   <property name="kdenlive:id">4</property>
  </entry>
  <entry in="01:34:37.496" out="01:36:07.507" producer="chain15">
   <property name="kdenlive:id">4</property>
  </entry>
  <entry in="01:36:36.620" out="01:36:46.838" producer="chain15">
   <property name="kdenlive:id">4</property>
  </entry>
  <entry in="01:36:53.011" out="01:36:54.930" producer="chain15">
   <property name="kdenlive:id">4</property>
  </entry>
  <entry in="01:37:04.254" out="01:37:09.593" producer="chain15">
   <property name="kdenlive:id">4</property>
  </entry>
  <entry in="01:37:14.056" out="01:37:16.892" producer="chain15">
   <property name="kdenlive:id">4</property>
  </entry>
  <entry in="01:37:16.934" out="01:37:17.392" producer="chain15">
   <property name="kdenlive:id">4</property>
  </entry>
  <entry in="01:37:37.287" out="01:37:37.329" producer="chain15">
   <property name="kdenlive:id">4</property>
  </entry>
  <entry in="01:37:41.833" out="01:37:42.709" producer="chain15">
   <property name="kdenlive:id">4</property>
  </entry>
  <entry in="01:37:35.535" out="01:37:41.792" producer="chain15">
   <property name="kdenlive:id">4</property>
  </entry>
  <entry in="01:37:42.918" out="01:37:53.804" producer="chain15">
   <property name="kdenlive:id">4</property>
  </entry>
  <entry in="01:37:57.224" out="01:37:58.684" producer="chain15">
   <property name="kdenlive:id">4</property>
  </entry>
  <entry in="01:38:04.963" out="01:38:58.850" producer="chain15">
   <property name="kdenlive:id">4</property>
  </entry>
  <entry in="01:39:01.126" out="01:40:02.794" producer="chain15">
   <property name="kdenlive:id">4</property>
  </entry>
  <entry in="01:40:08.425" out="01:40:54.471" producer="chain15">
   <property name="kdenlive:id">4</property>
  </entry>
  <entry in="01:41:04.338" out="01:41:10.761" producer="chain15">
   <property name="kdenlive:id">4</property>
  </entry>
  <entry in="01:41:14.264" out="01:42:44.920" producer="chain15">
   <property name="kdenlive:id">4</property>
  </entry>
  <entry in="01:43:08.884" out="01:45:39.456" producer="chain15">
   <property name="kdenlive:id">4</property>
  </entry>
  <entry in="01:45:51.260" out="01:46:11.553" producer="chain15">
   <property name="kdenlive:id">4</property>
  </entry>
  <entry in="01:46:22.105" out="01:46:41.416" producer="chain15">
   <property name="kdenlive:id">4</property>
  </entry>
  <entry in="01:47:13.764" out="01:47:29.154" producer="chain15">
   <property name="kdenlive:id">4</property>
  </entry>
  <entry in="01:47:47.381" out="01:47:52.177" producer="chain15">
   <property name="kdenlive:id">4</property>
  </entry>
  <entry in="01:47:56.848" out="01:48:37.871" producer="chain15">
   <property name="kdenlive:id">4</property>
  </entry>
  <entry in="01:49:13.096" out="01:49:17.809" producer="chain15">
   <property name="kdenlive:id">4</property>
  </entry>
  <entry in="01:49:19.353" out="01:49:46.713" producer="chain15">
   <property name="kdenlive:id">4</property>
  </entry>
  <entry in="01:49:59.268" out="01:50:26.235" producer="chain15">
   <property name="kdenlive:id">4</property>
  </entry>
  <entry in="01:50:33.909" out="01:50:43.085" producer="chain15">
   <property name="kdenlive:id">4</property>
  </entry>
  <entry in="01:50:43.126" out="01:51:01.210" producer="chain15">
   <property name="kdenlive:id">4</property>
  </entry>
  <blank length="00:01:32.866"/>
  <entry in="01:53:04.129" out="01:53:50.717" producer="chain15">
   <property name="kdenlive:id">4</property>
  </entry>
 </playlist>
 <playlist id="playlist7">
  <property name="kdenlive:audio_track">1</property>
 </playlist>
 <tractor id="tractor3" in="00:00:00.000" out="01:03:17.768">
  <property name="kdenlive:audio_track">1</property>
  <property name="kdenlive:trackheight">84</property>
  <property name="kdenlive:timeline_active">1</property>
  <property name="kdenlive:collapsed">32</property>
  <property name="kdenlive:thumbs_format"/>
  <property name="kdenlive:audio_rec"/>
  <track hide="both" producer="playlist6"/>
  <track hide="both" producer="playlist7"/>
  <filter id="filter14">
   <property name="window">75</property>
   <property name="max_gain">20dB</property>
   <property name="mlt_service">volume</property>
   <property name="internal_added">237</property>
   <property name="disable">1</property>
  </filter>
  <filter id="filter15">
   <property name="channel">-1</property>
   <property name="mlt_service">panner</property>
   <property name="internal_added">237</property>
   <property name="start">0.5</property>
   <property name="disable">1</property>
  </filter>
  <filter id="filter16">
   <property name="iec_scale">0</property>
   <property name="mlt_service">audiolevel</property>
   <property name="dbpeak">1</property>
   <property name="disable">1</property>
  </filter>
 </tractor>
 <chain id="chain16" out="02:04:23.941">
  <property name="length">178956</property>
  <property name="eof">pause</property>
  <property name="resource">/Kids Movies/Sonic/Sonic 2022/Sonic 2 Il Film (2023) 2160p 4K H265 10 Bit iTA ENG AC3 5.1 Sub Ita Eng - iDN_CreW.mkv</property>
  <property name="mlt_service">avformat-novalidate</property>
  <property name="seekable">1</property>
  <property name="audio_index">1</property>
  <property name="video_index">0</property>
  <property name="vstream">0</property>
  <property name="astream">0</property>
  <property name="kdenlive:control_uuid">{8662ceb9-f96f-4607-812c-ea78d123d3ef}</property>
  <property name="kdenlive:id">4</property>
  <property name="kdenlive:clip_type">0</property>
  <property name="kdenlive:file_size">6455506204</property>
  <property name="kdenlive:file_hash">c805e36cb967f0098696aec55aa79048</property>
  <property name="kdenlive:folderid">-1</property>
  <property name="meta.media.nb_streams">7</property>
  <property name="meta.media.0.stream.type">video</property>
  <property name="meta.media.0.stream.frame_rate">23.976</property>
  <property name="meta.media.0.stream.sample_aspect_ratio">1</property>
  <property name="meta.media.0.codec.width">3840</property>
  <property name="meta.media.0.codec.height">1606</property>
  <property name="meta.media.0.codec.rotate">0</property>
  <property name="meta.media.0.codec.pix_fmt">yuv420p10le</property>
  <property name="meta.media.0.codec.sample_aspect_ratio">1</property>
  <property name="meta.media.0.codec.colorspace">709</property>
  <property name="meta.media.0.codec.color_trc">1</property>
  <property name="meta.media.0.codec.name">hevc</property>
  <property name="meta.media.0.codec.long_name">HEVC (High Efficiency Video Coding)</property>
  <property name="meta.media.0.codec.bit_rate">0</property>
  <property name="meta.attr.0.stream.BPS-eng.markup">6000404</property>
  <property name="meta.attr.0.stream.DURATION-eng.markup">02:02:18.123000000</property>
  <property name="meta.attr.0.stream.NUMBER_OF_FRAMES-eng.markup">175939</property>
  <property name="meta.attr.0.stream.NUMBER_OF_BYTES-eng.markup">5503962903</property>
  <property name="meta.attr.0.stream._STATISTICS_WRITING_APP-eng.markup">mkvmerge v49.0.0 ('Sick Of Losing Soulmates') 64-bit</property>
  <property name="meta.attr.0.stream._STATISTICS_WRITING_DATE_UTC-eng.markup">2022-05-31 19:08:19</property>
  <property name="meta.attr.0.stream._STATISTICS_TAGS-eng.markup">BPS DURATION NUMBER_OF_FRAMES NUMBER_OF_BYTES</property>
  <property name="meta.media.1.stream.type">audio</property>
  <property name="meta.media.1.codec.sample_fmt">fltp</property>
  <property name="meta.media.1.codec.sample_rate">48000</property>
  <property name="meta.media.1.codec.channels">6</property>
  <property name="meta.media.1.codec.layout">5.1(side)</property>
  <property name="meta.media.1.codec.name">ac3</property>
  <property name="meta.media.1.codec.long_name">ATSC A/52A (AC-3)</property>
  <property name="meta.media.1.codec.bit_rate">640000</property>
  <property name="meta.attr.1.stream.language.markup">ita</property>
  <property name="meta.attr.1.stream.title.markup">AC3 iTA</property>
  <property name="meta.attr.1.stream.BPS-eng.markup">640000</property>
  <property name="meta.attr.1.stream.DURATION-eng.markup">02:04:23.968000000</property>
  <property name="meta.attr.1.stream.NUMBER_OF_FRAMES-eng.markup">233249</property>
  <property name="meta.attr.1.stream.NUMBER_OF_BYTES-eng.markup">597117440</property>
  <property name="meta.attr.1.stream._STATISTICS_WRITING_APP-eng.markup">mkvmerge v49.0.0 ('Sick Of Losing Soulmates') 64-bit</property>
  <property name="meta.attr.1.stream._STATISTICS_WRITING_DATE_UTC-eng.markup">2022-05-31 19:08:19</property>
  <property name="meta.attr.1.stream._STATISTICS_TAGS-eng.markup">BPS DURATION NUMBER_OF_FRAMES NUMBER_OF_BYTES</property>
  <property name="meta.media.2.stream.type">audio</property>
  <property name="meta.media.2.codec.sample_fmt">fltp</property>
  <property name="meta.media.2.codec.sample_rate">48000</property>
  <property name="meta.media.2.codec.channels">6</property>
  <property name="meta.media.2.codec.layout">5.1(side)</property>
  <property name="meta.media.2.codec.name">ac3</property>
  <property name="meta.media.2.codec.long_name">ATSC A/52A (AC-3)</property>
  <property name="meta.media.2.codec.bit_rate">384000</property>
  <property name="meta.attr.2.stream.language.markup">eng</property>
  <property name="meta.attr.2.stream.title.markup">AC3 Eng</property>
  <property name="meta.attr.2.stream.BPS-eng.markup">384000</property>
  <property name="meta.attr.2.stream.DURATION-eng.markup">02:02:18.304000000</property>
  <property name="meta.attr.2.stream.NUMBER_OF_FRAMES-eng.markup">229322</property>
  <property name="meta.attr.2.stream.NUMBER_OF_BYTES-eng.markup">352238592</property>
  <property name="meta.attr.2.stream._STATISTICS_WRITING_APP-eng.markup">mkvmerge v49.0.0 ('Sick Of Losing Soulmates') 64-bit</property>
  <property name="meta.attr.2.stream._STATISTICS_WRITING_DATE_UTC-eng.markup">2022-05-31 19:08:19</property>
  <property name="meta.attr.2.stream._STATISTICS_TAGS-eng.markup">BPS DURATION NUMBER_OF_FRAMES NUMBER_OF_BYTES</property>
  <property name="meta.media.3.codec.name">srt</property>
  <property name="meta.media.3.codec.long_name">SubRip subtitle</property>
  <property name="meta.media.3.codec.bit_rate">0</property>
  <property name="meta.attr.3.stream.language.markup">ita</property>
  <property name="meta.attr.3.stream.title.markup">Forced</property>
  <property name="meta.attr.3.stream.BPS-eng.markup">0</property>
  <property name="meta.attr.3.stream.DURATION-eng.markup">02:01:21.816000000</property>
  <property name="meta.attr.3.stream.NUMBER_OF_FRAMES-eng.markup">25</property>
  <property name="meta.attr.3.stream.NUMBER_OF_BYTES-eng.markup">600</property>
  <property name="meta.attr.3.stream._STATISTICS_WRITING_APP-eng.markup">mkvmerge v49.0.0 ('Sick Of Losing Soulmates') 64-bit</property>
  <property name="meta.attr.3.stream._STATISTICS_WRITING_DATE_UTC-eng.markup">2022-05-31 19:08:19</property>
  <property name="meta.attr.3.stream._STATISTICS_TAGS-eng.markup">BPS DURATION NUMBER_OF_FRAMES NUMBER_OF_BYTES</property>
  <property name="meta.media.4.codec.name">srt</property>
  <property name="meta.media.4.codec.long_name">SubRip subtitle</property>
  <property name="meta.media.4.codec.bit_rate">0</property>
  <property name="meta.attr.4.stream.language.markup">ita</property>
  <property name="meta.attr.4.stream.title.markup">Regular</property>
  <property name="meta.attr.4.stream.BPS-eng.markup">45</property>
  <property name="meta.attr.4.stream.DURATION-eng.markup">02:01:21.816000000</property>
  <property name="meta.attr.4.stream.NUMBER_OF_FRAMES-eng.markup">1376</property>
  <property name="meta.attr.4.stream.NUMBER_OF_BYTES-eng.markup">41271</property>
  <property name="meta.attr.4.stream._STATISTICS_WRITING_APP-eng.markup">mkvmerge v49.0.0 ('Sick Of Losing Soulmates') 64-bit</property>
  <property name="meta.attr.4.stream._STATISTICS_WRITING_DATE_UTC-eng.markup">2022-05-31 19:08:19</property>
  <property name="meta.attr.4.stream._STATISTICS_TAGS-eng.markup">BPS DURATION NUMBER_OF_FRAMES NUMBER_OF_BYTES</property>
  <property name="meta.media.5.codec.name">srt</property>
  <property name="meta.media.5.codec.long_name">SubRip subtitle</property>
  <property name="meta.media.5.codec.bit_rate">0</property>
  <property name="meta.attr.5.stream.language.markup">eng</property>
  <property name="meta.attr.5.stream.title.markup">Forced</property>
  <property name="meta.attr.5.stream.BPS-eng.markup">0</property>
  <property name="meta.attr.5.stream.DURATION-eng.markup">00:42:25.379000000</property>
  <property name="meta.attr.5.stream.NUMBER_OF_FRAMES-eng.markup">7</property>
  <property name="meta.attr.5.stream.NUMBER_OF_BYTES-eng.markup">170</property>
  <property name="meta.attr.5.stream._STATISTICS_WRITING_APP-eng.markup">mkvmerge v49.0.0 ('Sick Of Losing Soulmates') 64-bit</property>
  <property name="meta.attr.5.stream._STATISTICS_WRITING_DATE_UTC-eng.markup">2022-05-31 19:08:19</property>
  <property name="meta.attr.5.stream._STATISTICS_TAGS-eng.markup">BPS DURATION NUMBER_OF_FRAMES NUMBER_OF_BYTES</property>
  <property name="meta.media.6.codec.name">srt</property>
  <property name="meta.media.6.codec.long_name">SubRip subtitle</property>
  <property name="meta.media.6.codec.bit_rate">0</property>
  <property name="meta.attr.6.stream.language.markup">eng</property>
  <property name="meta.attr.6.stream.title.markup">Regular</property>
  <property name="meta.attr.6.stream.BPS-eng.markup">60</property>
  <property name="meta.attr.6.stream.DURATION-eng.markup">01:52:04.859000000</property>
  <property name="meta.attr.6.stream.NUMBER_OF_FRAMES-eng.markup">1647</property>
  <property name="meta.attr.6.stream.NUMBER_OF_BYTES-eng.markup">50781</property>
  <property name="meta.attr.6.stream._STATISTICS_WRITING_APP-eng.markup">mkvmerge v49.0.0 ('Sick Of Losing Soulmates') 64-bit</property>
  <property name="meta.attr.6.stream._STATISTICS_WRITING_DATE_UTC-eng.markup">2022-05-31 19:08:19</property>
  <property name="meta.attr.6.stream._STATISTICS_TAGS-eng.markup">BPS DURATION NUMBER_OF_FRAMES NUMBER_OF_BYTES</property>
  <property name="meta.attr.title.markup">UHD 4K - iDN_CreW</property>
  <property name="meta.attr.encoder.markup">libebml v1.4.0 + libmatroska v1.6.1</property>
  <property name="meta.attr.creation_time.markup">2022-05-31T19:08:19.000000Z</property>
  <property name="meta.media.sample_aspect_num">1</property>
  <property name="meta.media.sample_aspect_den">1</property>
  <property name="meta.media.frame_rate_num">24000</property>
  <property name="meta.media.frame_rate_den">1001</property>
  <property name="meta.media.colorspace">709</property>
  <property name="meta.media.color_trc">1</property>
  <property name="meta.media.has_b_frames">2</property>
  <property name="meta.media.width">3840</property>
  <property name="meta.media.height">1606</property>
  <property name="meta.media.aspect_ratio">1</property>
  <property name="meta.media.color_range">mpeg</property>
  <property name="xml">was here</property>
  <property name="mute_on_pause">0</property>
  <property name="meta.media.top_field_first">0</property>
  <property name="meta.media.progressive">1</property>
  <property name="set.test_audio">1</property>
  <property name="set.test_image">0</property>
 </chain>
 <producer id="producer1" in="00:00:00.000" out="01:39:31.198">
  <property name="length">143165</property>
  <property name="eof">pause</property>
  <property name="resource">1.250000:/Kids Movies/Sonic/Sonic 2022/Sonic 2 Il Film (2023) 2160p 4K H265 10 Bit iTA ENG AC3 5.1 Sub Ita Eng - iDN_CreW.mkv</property>
  <property name="aspect_ratio">1</property>
  <property name="meta.media.nb_streams">7</property>
  <property name="meta.media.0.stream.type">video</property>
  <property name="meta.media.0.stream.frame_rate">23.976</property>
  <property name="meta.media.0.stream.sample_aspect_ratio">1</property>
  <property name="meta.media.0.codec.width">3840</property>
  <property name="meta.media.0.codec.height">1606</property>
  <property name="meta.media.0.codec.rotate">0</property>
  <property name="meta.media.0.codec.pix_fmt">yuv420p10le</property>
  <property name="meta.media.0.codec.sample_aspect_ratio">1</property>
  <property name="meta.media.0.codec.colorspace">709</property>
  <property name="meta.media.0.codec.color_trc">1</property>
  <property name="meta.media.0.codec.name">hevc</property>
  <property name="meta.media.0.codec.long_name">HEVC (High Efficiency Video Coding)</property>
  <property name="meta.media.0.codec.bit_rate">0</property>
  <property name="meta.attr.0.stream.BPS-eng.markup">6000404</property>
  <property name="meta.attr.0.stream.DURATION-eng.markup">02:02:18.123000000</property>
  <property name="meta.attr.0.stream.NUMBER_OF_FRAMES-eng.markup">175939</property>
  <property name="meta.attr.0.stream.NUMBER_OF_BYTES-eng.markup">5503962903</property>
  <property name="meta.attr.0.stream._STATISTICS_WRITING_APP-eng.markup">mkvmerge v49.0.0 ('Sick Of Losing Soulmates') 64-bit</property>
  <property name="meta.attr.0.stream._STATISTICS_WRITING_DATE_UTC-eng.markup">2022-05-31 19:08:19</property>
  <property name="meta.attr.0.stream._STATISTICS_TAGS-eng.markup">BPS DURATION NUMBER_OF_FRAMES NUMBER_OF_BYTES</property>
  <property name="meta.media.1.stream.type">audio</property>
  <property name="meta.media.1.codec.sample_fmt">fltp</property>
  <property name="meta.media.1.codec.sample_rate">48000</property>
  <property name="meta.media.1.codec.channels">6</property>
  <property name="meta.media.1.codec.layout">5.1(side)</property>
  <property name="meta.media.1.codec.name">ac3</property>
  <property name="meta.media.1.codec.long_name">ATSC A/52A (AC-3)</property>
  <property name="meta.media.1.codec.bit_rate">640000</property>
  <property name="meta.attr.1.stream.language.markup">ita</property>
  <property name="meta.attr.1.stream.title.markup">AC3 iTA</property>
  <property name="meta.attr.1.stream.BPS-eng.markup">640000</property>
  <property name="meta.attr.1.stream.DURATION-eng.markup">02:04:23.968000000</property>
  <property name="meta.attr.1.stream.NUMBER_OF_FRAMES-eng.markup">233249</property>
  <property name="meta.attr.1.stream.NUMBER_OF_BYTES-eng.markup">597117440</property>
  <property name="meta.attr.1.stream._STATISTICS_WRITING_APP-eng.markup">mkvmerge v49.0.0 ('Sick Of Losing Soulmates') 64-bit</property>
  <property name="meta.attr.1.stream._STATISTICS_WRITING_DATE_UTC-eng.markup">2022-05-31 19:08:19</property>
  <property name="meta.attr.1.stream._STATISTICS_TAGS-eng.markup">BPS DURATION NUMBER_OF_FRAMES NUMBER_OF_BYTES</property>
  <property name="meta.media.2.stream.type">audio</property>
  <property name="meta.media.2.codec.sample_fmt">fltp</property>
  <property name="meta.media.2.codec.sample_rate">48000</property>
  <property name="meta.media.2.codec.channels">6</property>
  <property name="meta.media.2.codec.layout">5.1(side)</property>
  <property name="meta.media.2.codec.name">ac3</property>
  <property name="meta.media.2.codec.long_name">ATSC A/52A (AC-3)</property>
  <property name="meta.media.2.codec.bit_rate">384000</property>
  <property name="meta.attr.2.stream.language.markup">eng</property>
  <property name="meta.attr.2.stream.title.markup">AC3 Eng</property>
  <property name="meta.attr.2.stream.BPS-eng.markup">384000</property>
  <property name="meta.attr.2.stream.DURATION-eng.markup">02:02:18.304000000</property>
  <property name="meta.attr.2.stream.NUMBER_OF_FRAMES-eng.markup">229322</property>
  <property name="meta.attr.2.stream.NUMBER_OF_BYTES-eng.markup">352238592</property>
  <property name="meta.attr.2.stream._STATISTICS_WRITING_APP-eng.markup">mkvmerge v49.0.0 ('Sick Of Losing Soulmates') 64-bit</property>
  <property name="meta.attr.2.stream._STATISTICS_WRITING_DATE_UTC-eng.markup">2022-05-31 19:08:19</property>
  <property name="meta.attr.2.stream._STATISTICS_TAGS-eng.markup">BPS DURATION NUMBER_OF_FRAMES NUMBER_OF_BYTES</property>
  <property name="meta.media.3.codec.name">srt</property>
  <property name="meta.media.3.codec.long_name">SubRip subtitle</property>
  <property name="meta.media.3.codec.bit_rate">0</property>
  <property name="meta.attr.3.stream.language.markup">ita</property>
  <property name="meta.attr.3.stream.title.markup">Forced</property>
  <property name="meta.attr.3.stream.BPS-eng.markup">0</property>
  <property name="meta.attr.3.stream.DURATION-eng.markup">02:01:21.816000000</property>
  <property name="meta.attr.3.stream.NUMBER_OF_FRAMES-eng.markup">25</property>
  <property name="meta.attr.3.stream.NUMBER_OF_BYTES-eng.markup">600</property>
  <property name="meta.attr.3.stream._STATISTICS_WRITING_APP-eng.markup">mkvmerge v49.0.0 ('Sick Of Losing Soulmates') 64-bit</property>
  <property name="meta.attr.3.stream._STATISTICS_WRITING_DATE_UTC-eng.markup">2022-05-31 19:08:19</property>
  <property name="meta.attr.3.stream._STATISTICS_TAGS-eng.markup">BPS DURATION NUMBER_OF_FRAMES NUMBER_OF_BYTES</property>
  <property name="meta.media.4.codec.name">srt</property>
  <property name="meta.media.4.codec.long_name">SubRip subtitle</property>
  <property name="meta.media.4.codec.bit_rate">0</property>
  <property name="meta.attr.4.stream.language.markup">ita</property>
  <property name="meta.attr.4.stream.title.markup">Regular</property>
  <property name="meta.attr.4.stream.BPS-eng.markup">45</property>
  <property name="meta.attr.4.stream.DURATION-eng.markup">02:01:21.816000000</property>
  <property name="meta.attr.4.stream.NUMBER_OF_FRAMES-eng.markup">1376</property>
  <property name="meta.attr.4.stream.NUMBER_OF_BYTES-eng.markup">41271</property>
  <property name="meta.attr.4.stream._STATISTICS_WRITING_APP-eng.markup">mkvmerge v49.0.0 ('Sick Of Losing Soulmates') 64-bit</property>
  <property name="meta.attr.4.stream._STATISTICS_WRITING_DATE_UTC-eng.markup">2022-05-31 19:08:19</property>
  <property name="meta.attr.4.stream._STATISTICS_TAGS-eng.markup">BPS DURATION NUMBER_OF_FRAMES NUMBER_OF_BYTES</property>
  <property name="meta.media.5.codec.name">srt</property>
  <property name="meta.media.5.codec.long_name">SubRip subtitle</property>
  <property name="meta.media.5.codec.bit_rate">0</property>
  <property name="meta.attr.5.stream.language.markup">eng</property>
  <property name="meta.attr.5.stream.title.markup">Forced</property>
  <property name="meta.attr.5.stream.BPS-eng.markup">0</property>
  <property name="meta.attr.5.stream.DURATION-eng.markup">00:42:25.379000000</property>
  <property name="meta.attr.5.stream.NUMBER_OF_FRAMES-eng.markup">7</property>
  <property name="meta.attr.5.stream.NUMBER_OF_BYTES-eng.markup">170</property>
  <property name="meta.attr.5.stream._STATISTICS_WRITING_APP-eng.markup">mkvmerge v49.0.0 ('Sick Of Losing Soulmates') 64-bit</property>
  <property name="meta.attr.5.stream._STATISTICS_WRITING_DATE_UTC-eng.markup">2022-05-31 19:08:19</property>
  <property name="meta.attr.5.stream._STATISTICS_TAGS-eng.markup">BPS DURATION NUMBER_OF_FRAMES NUMBER_OF_BYTES</property>
  <property name="meta.media.6.codec.name">srt</property>
  <property name="meta.media.6.codec.long_name">SubRip subtitle</property>
  <property name="meta.media.6.codec.bit_rate">0</property>
  <property name="meta.attr.6.stream.language.markup">eng</property>
  <property name="meta.attr.6.stream.title.markup">Regular</property>
  <property name="meta.attr.6.stream.BPS-eng.markup">60</property>
  <property name="meta.attr.6.stream.DURATION-eng.markup">01:52:04.859000000</property>
  <property name="meta.attr.6.stream.NUMBER_OF_FRAMES-eng.markup">1647</property>
  <property name="meta.attr.6.stream.NUMBER_OF_BYTES-eng.markup">50781</property>
  <property name="meta.attr.6.stream._STATISTICS_WRITING_APP-eng.markup">mkvmerge v49.0.0 ('Sick Of Losing Soulmates') 64-bit</property>
  <property name="meta.attr.6.stream._STATISTICS_WRITING_DATE_UTC-eng.markup">2022-05-31 19:08:19</property>
  <property name="meta.attr.6.stream._STATISTICS_TAGS-eng.markup">BPS DURATION NUMBER_OF_FRAMES NUMBER_OF_BYTES</property>
  <property name="meta.attr.title.markup">UHD 4K - iDN_CreW</property>
  <property name="meta.attr.encoder.markup">libebml v1.4.0 + libmatroska v1.6.1</property>
  <property name="meta.attr.creation_time.markup">2022-05-31T19:08:19.000000Z</property>
  <property name="seekable">1</property>
  <property name="meta.media.sample_aspect_num">1</property>
  <property name="meta.media.sample_aspect_den">1</property>
  <property name="audio_index">1</property>
  <property name="video_index">0</property>
  <property name="warp_speed">1.25</property>
  <property name="warp_resource">/Kids Movies/Sonic/Sonic 2022/Sonic 2 Il Film (2023) 2160p 4K H265 10 Bit iTA ENG AC3 5.1 Sub Ita Eng - iDN_CreW.mkv</property>
  <property name="mlt_service">timewarp</property>
  <property name="kdenlive:control_uuid">{8662ceb9-f96f-4607-812c-ea78d123d3ef}</property>
  <property name="vstream">0</property>
  <property name="astream">0</property>
  <property name="kdenlive:markers">[
]
</property>
  <property name="set.test_audio">1</property>
  <property name="set.test_image">0</property>
  <property name="kdenlive:id">4</property>
  <property name="warp_pitch">0</property>
  <property name="meta.media.frame_rate_num">24000</property>
  <property name="meta.media.frame_rate_den">1001</property>
  <property name="meta.media.colorspace">709</property>
  <property name="meta.media.color_trc">1</property>
  <property name="meta.media.has_b_frames">2</property>
  <property name="meta.media.width">3840</property>
  <property name="meta.media.height">1606</property>
  <property name="meta.media.aspect_ratio">1</property>
  <property name="meta.media.color_range">mpeg</property>
  <property name="meta.media.top_field_first">0</property>
  <property name="meta.media.progressive">1</property>
 </producer>
 <playlist id="playlist8">
  <entry in="00:00:00.000" out="00:05:48.340" producer="chain16">
   <property name="kdenlive:id">4</property>
  </entry>
  <entry in="00:15:01.418" out="00:15:19.311" producer="chain16">
   <property name="kdenlive:id">4</property>
   <filter id="filter17" in="00:15:01.418" out="00:15:04.129">
    <property name="start">1</property>
    <property name="level">1</property>
    <property name="mlt_service">brightness</property>
    <property name="kdenlive_id">fade_from_black</property>
    <property name="alpha">00:00:00.000=0;00:00:02.711=1</property>
    <property name="kdenlive:collapsed">0</property>
   </filter>
  </entry>
  <entry in="00:15:40.082" out="00:15:45.462" producer="chain16">
   <property name="kdenlive:id">4</property>
  </entry>
  <entry in="00:16:01.501" out="00:16:06.465" producer="chain16">
   <property name="kdenlive:id">4</property>
  </entry>
  <entry in="00:16:12.679" out="00:16:16.975" producer="chain16">
   <property name="kdenlive:id">4</property>
  </entry>
  <entry in="00:16:24.274" out="00:16:40.374" producer="chain16">
   <property name="kdenlive:id">4</property>
  </entry>
  <entry in="00:17:18.769" out="00:18:55.347" producer="chain16">
   <property name="kdenlive:id">4</property>
  </entry>
  <entry in="00:19:41.625" out="00:19:47.589" producer="chain16">
   <property name="kdenlive:id">4</property>
  </entry>
  <entry in="00:20:53.303" out="00:21:02.878" producer="chain16">
   <property name="kdenlive:id">4</property>
  </entry>
  <entry in="00:21:06.006" out="00:21:29.571" producer="chain16">
   <property name="kdenlive:id">4</property>
  </entry>
  <entry in="00:21:40.290" out="00:23:51.718" producer="chain16">
   <property name="kdenlive:id">4</property>
  </entry>
  <entry in="00:23:55.681" out="00:24:45.879" producer="chain16">
   <property name="kdenlive:id">4</property>
  </entry>
  <entry in="00:25:00.167" out="00:25:23.857" producer="chain16">
   <property name="kdenlive:id">4</property>
  </entry>
  <entry in="00:25:37.162" out="00:25:49.758" producer="chain16">
   <property name="kdenlive:id">4</property>
  </entry>
  <entry in="00:26:04.129" out="00:26:35.786" producer="chain16">
   <property name="kdenlive:id">4</property>
  </entry>
  <entry in="00:26:39.498" out="00:26:47.422" producer="chain16">
   <property name="kdenlive:id">4</property>
  </entry>
  <entry in="00:26:50.008" out="00:26:55.097" producer="chain16">
   <property name="kdenlive:id">4</property>
  </entry>
  <entry in="00:26:59.977" out="00:27:15.766" producer="chain16">
   <property name="kdenlive:id">4</property>
  </entry>
  <entry in="00:27:19.728" out="00:27:21.980" producer="chain16">
   <property name="kdenlive:id">4</property>
  </entry>
  <entry in="00:27:33.116" out="00:30:49.591" producer="chain16">
   <property name="kdenlive:id">4</property>
  </entry>
  <entry in="00:30:49.633" out="00:30:51.677" producer="chain16">
   <property name="kdenlive:id">4</property>
   <filter id="filter18">
    <property name="background">colour:0</property>
    <property name="mlt_service">affine</property>
    <property name="kdenlive_id">pan_zoom</property>
    <property name="transition.rect">00:30:49.633=-1118 -12 6594 2757</property>
    <property name="transition.distort">0</property>
    <property name="use_normalised">0</property>
    <property name="producer.resource">0x00000000</property>
    <property name="transition.repeat_off">1</property>
    <property name="transition.mirror_off">1</property>
    <property name="kdenlive:collapsed">0</property>
   </filter>
  </entry>
  <entry in="00:30:55.430" out="00:32:13.222" producer="chain16">
   <property name="kdenlive:id">4</property>
  </entry>
  <entry in="00:34:14.348" out="00:34:23.232" producer="chain16">
   <property name="kdenlive:id">4</property>
  </entry>
  <entry in="00:34:35.452" out="00:34:38.538" producer="chain16">
   <property name="kdenlive:id">4</property>
  </entry>
  <entry in="00:35:00.792" out="00:35:50.384" producer="chain16">
   <property name="kdenlive:id">4</property>
   <filter id="filter19" in="00:35:00.792" out="00:35:02.211">
    <property name="start">1</property>
    <property name="level">1</property>
    <property name="mlt_service">brightness</property>
    <property name="kdenlive_id">fade_from_black</property>
    <property name="alpha">00:00:00.000=0;00:00:01.418=1</property>
   </filter>
  </entry>
  <entry in="00:35:59.351" out="00:36:24.608" producer="chain16">
   <property name="kdenlive:id">4</property>
  </entry>
  <entry in="00:40:34.201" out="00:40:39.373" producer="chain16">
   <property name="kdenlive:id">4</property>
   <filter id="filter20">
    <property name="background">colour:0</property>
    <property name="mlt_service">affine</property>
    <property name="kdenlive_id">pan_zoom</property>
    <property name="transition.rect">00:40:34.201=-287 -9 4422 1849;00:40:39.373=-758 4 5366 2244</property>
    <property name="transition.distort">0</property>
    <property name="use_normalised">0</property>
    <property name="producer.resource">0x00000000</property>
    <property name="transition.repeat_off">1</property>
    <property name="transition.mirror_off">1</property>
    <property name="kdenlive:collapsed">0</property>
   </filter>
  </entry>
  <entry in="00:40:45.921" out="00:40:46.088" producer="chain16">
   <property name="kdenlive:id">4</property>
   <filter id="filter21">
    <property name="background">colour:0</property>
    <property name="mlt_service">affine</property>
    <property name="kdenlive_id">pan_zoom</property>
    <property name="transition.rect">00:40:45.921=-1922 -483 7680 3212;00:40:46.088=0 0 3840 1606</property>
    <property name="transition.distort">0</property>
    <property name="use_normalised">0</property>
    <property name="producer.resource">0x00000000</property>
    <property name="transition.repeat_off">1</property>
    <property name="transition.mirror_off">1</property>
    <property name="kdenlive:collapsed">1</property>
   </filter>
   <filter id="filter22">
    <property name="hradius">00:40:45.921=30;00:40:46.088=10</property>
    <property name="vradius">00:40:45.921=1;00:40:46.088=1</property>
    <property name="mlt_service">box_blur</property>
    <property name="kdenlive_id">box_blur</property>
    <property name="preserve_alpha">0</property>
    <property name="kdenlive:collapsed">0</property>
   </filter>
  </entry>
  <entry in="00:40:46.129" out="00:42:06.673" producer="chain16">
   <property name="kdenlive:id">4</property>
  </entry>
  <entry in="00:50:04.296" out="00:50:09.468" producer="chain16">
   <property name="kdenlive:id">4</property>
  </entry>
  <entry in="00:50:16.975" out="00:50:38.914" producer="chain16">
   <property name="kdenlive:id">4</property>
  </entry>
  <entry in="00:50:45.712" out="00:51:41.708" producer="chain16">
   <property name="kdenlive:id">4</property>
  </entry>
  <entry in="00:51:49.466" out="00:51:53.053" producer="chain16">
   <property name="kdenlive:id">4</property>
  </entry>
  <entry in="00:51:57.474" out="00:53:25.525" producer="chain16">
   <property name="kdenlive:id">4</property>
  </entry>
  <entry in="00:53:41.250" out="00:54:15.182" producer="chain16">
   <property name="kdenlive:id">4</property>
  </entry>
  <entry in="00:54:16.934" out="00:54:32.032" producer="chain16">
   <property name="kdenlive:id">4</property>
  </entry>
  <entry in="00:54:33.450" out="00:55:12.638" producer="chain16">
   <property name="kdenlive:id">4</property>
  </entry>
  <entry in="00:55:44.753" out="00:55:46.046" producer="chain16">
   <property name="kdenlive:id">4</property>
  </entry>
  <entry in="00:55:47.798" out="00:55:48.924" producer="chain16">
   <property name="kdenlive:id">4</property>
  </entry>
  <entry in="00:55:48.966" out="00:55:55.138" producer="chain16">
   <property name="kdenlive:id">4</property>
  </entry>
  <entry in="00:55:58.141" out="00:56:01.460" producer="chain16">
   <property name="kdenlive:id">4</property>
  </entry>
  <entry in="00:56:09.509" out="00:56:32.950" producer="chain16">
   <property name="kdenlive:id">4</property>
  </entry>
  <entry in="00:57:14.681" out="00:57:18.644" producer="chain16">
   <property name="kdenlive:id">4</property>
  </entry>
  <entry in="00:57:18.685" out="00:57:19.978" producer="chain16">
   <property name="kdenlive:id">4</property>
  </entry>
  <entry in="00:57:23.440" out="00:58:52.970" producer="chain16">
   <property name="kdenlive:id">4</property>
  </entry>
  <entry in="00:59:29.696" out="00:59:31.281" producer="chain16">
   <property name="kdenlive:id">4</property>
  </entry>
  <entry in="00:59:31.323" out="00:59:33.200" producer="chain16">
   <property name="kdenlive:id">4</property>
  </entry>
  <entry in="00:59:34.159" out="00:59:37.496" producer="chain16">
   <property name="kdenlive:id">4</property>
  </entry>
  <entry in="00:59:42.167" out="01:00:20.729" producer="chain16">
   <property name="kdenlive:id">4</property>
  </entry>
  <entry in="01:00:26.026" out="01:00:45.587" producer="chain16">
   <property name="kdenlive:id">4</property>
  </entry>
  <entry in="01:00:59.518" out="01:02:11.178" producer="chain16">
   <property name="kdenlive:id">4</property>
  </entry>
  <entry in="01:02:17.017" out="01:02:28.779" producer="chain16">
   <property name="kdenlive:id">4</property>
  </entry>
  <entry in="01:02:28.820" out="01:02:30.364" producer="chain16">
   <property name="kdenlive:id">4</property>
  </entry>
  <entry in="01:04:20.062" out="01:04:24.274" producer="chain16">
   <property name="kdenlive:id">4</property>
  </entry>
  <entry in="01:04:24.316" out="01:04:31.740" producer="chain16">
   <property name="kdenlive:id">4</property>
  </entry>
  <entry in="01:04:37.079" out="01:05:02.461" producer="chain16">
   <property name="kdenlive:id">4</property>
  </entry>
  <entry in="01:05:41.124" out="01:05:48.423" producer="chain16">
   <property name="kdenlive:id">4</property>
  </entry>
  <entry in="01:06:00.042" out="01:06:02.836" producer="chain16">
   <property name="kdenlive:id">4</property>
  </entry>
  <entry in="01:06:30.948" out="01:07:08.800" producer="chain16">
   <property name="kdenlive:id">4</property>
  </entry>
  <entry in="01:10:43.835" out="01:11:06.465" producer="chain16">
   <property name="kdenlive:id">4</property>
  </entry>
  <entry in="01:11:09.801" out="01:12:26.401" producer="chain16">
   <property name="kdenlive:id">4</property>
  </entry>
  <entry in="01:12:28.153" out="01:12:40.165" producer="chain16">
   <property name="kdenlive:id">4</property>
  </entry>
  <entry in="01:12:40.207" out="01:12:44.795" producer="chain16">
   <property name="kdenlive:id">4</property>
  </entry>
  <entry in="01:13:07.883" out="01:13:33.408" producer="chain16">
   <property name="kdenlive:id">4</property>
  </entry>
  <entry in="01:14:56.598" out="01:21:39.039" producer="chain16">
   <property name="kdenlive:id">4</property>
  </entry>
  <entry in="01:21:48.674" out="01:22:19.645" producer="chain16">
   <property name="kdenlive:id">4</property>
  </entry>
  <entry in="01:22:24.358" out="01:23:51.009" producer="chain16">
   <property name="kdenlive:id">4</property>
  </entry>
  <entry in="01:23:52.886" out="01:23:54.763" producer="chain16">
   <property name="kdenlive:id">4</property>
  </entry>
  <entry in="01:25:06.965" out="01:25:10.469" producer="chain16">
   <property name="kdenlive:id">4</property>
  </entry>
  <entry in="01:26:03.503" out="01:26:05.547" producer="chain16">
   <property name="kdenlive:id">4</property>
  </entry>
  <entry in="01:26:09.176" out="01:26:17.768" producer="chain16">
   <property name="kdenlive:id">4</property>
  </entry>
  <entry in="01:27:27.194" out="01:28:05.005" producer="chain16">
   <property name="kdenlive:id">4</property>
  </entry>
  <entry in="01:28:08.467" out="01:28:36.161" producer="chain16">
   <property name="kdenlive:id">4</property>
  </entry>
  <entry in="01:28:38.914" out="01:29:04.963" producer="chain16">
   <property name="kdenlive:id">4</property>
  </entry>
  <entry in="01:29:06.256" out="01:29:41.541" producer="chain16">
   <property name="kdenlive:id">4</property>
  </entry>
  <entry in="01:29:49.299" out="01:32:01.627" producer="chain16">
   <property name="kdenlive:id">4</property>
  </entry>
  <entry in="01:32:26.276" out="01:33:13.222" producer="chain16">
   <property name="kdenlive:id">4</property>
  </entry>
  <entry in="01:33:18.894" out="01:33:42.542" producer="chain16">
   <property name="kdenlive:id">4</property>
  </entry>
  <entry in="01:33:57.015" out="01:34:04.254" producer="chain16">
   <property name="kdenlive:id">4</property>
  </entry>
  <entry in="01:34:09.885" out="01:34:32.574" producer="chain16">
   <property name="kdenlive:id">4</property>
  </entry>
  <entry in="01:34:37.496" out="01:36:07.507" producer="chain16">
   <property name="kdenlive:id">4</property>
  </entry>
  <entry in="01:36:36.620" out="01:36:46.838" producer="chain16">
   <property name="kdenlive:id">4</property>
  </entry>
  <entry in="01:36:53.011" out="01:36:54.930" producer="chain16">
   <property name="kdenlive:id">4</property>
  </entry>
  <entry in="01:37:04.254" out="01:37:09.593" producer="chain16">
   <property name="kdenlive:id">4</property>
  </entry>
  <entry in="01:37:14.056" out="01:37:16.892" producer="chain16">
   <property name="kdenlive:id">4</property>
  </entry>
  <entry in="01:37:16.934" out="01:37:17.476" producer="chain16">
   <property name="kdenlive:id">4</property>
  </entry>
  <entry in="01:37:41.833" out="01:37:42.709" producer="chain16">
   <property name="kdenlive:id">4</property>
  </entry>
  <entry in="01:37:35.535" out="01:37:41.792" producer="chain16">
   <property name="kdenlive:id">4</property>
  </entry>
  <entry in="01:37:42.918" out="01:37:53.804" producer="chain16">
   <property name="kdenlive:id">4</property>
  </entry>
  <entry in="01:37:57.224" out="01:37:58.684" producer="chain16">
   <property name="kdenlive:id">4</property>
  </entry>
  <entry in="01:38:04.963" out="01:38:58.850" producer="chain16">
   <property name="kdenlive:id">4</property>
  </entry>
  <entry in="01:39:01.126" out="01:40:02.794" producer="chain16">
   <property name="kdenlive:id">4</property>
  </entry>
  <entry in="01:40:08.425" out="01:40:54.471" producer="chain16">
   <property name="kdenlive:id">4</property>
  </entry>
  <entry in="01:41:04.338" out="01:41:10.761" producer="chain16">
   <property name="kdenlive:id">4</property>
  </entry>
  <entry in="01:41:14.264" out="01:42:44.920" producer="chain16">
   <property name="kdenlive:id">4</property>
  </entry>
  <entry in="01:43:08.884" out="01:45:39.456" producer="chain16">
   <property name="kdenlive:id">4</property>
  </entry>
  <entry in="01:45:51.260" out="01:46:11.553" producer="chain16">
   <property name="kdenlive:id">4</property>
  </entry>
  <entry in="01:46:22.105" out="01:46:41.416" producer="chain16">
   <property name="kdenlive:id">4</property>
  </entry>
  <entry in="01:47:13.764" out="01:47:29.154" producer="chain16">
   <property name="kdenlive:id">4</property>
  </entry>
  <entry in="01:47:47.381" out="01:47:52.177" producer="chain16">
   <property name="kdenlive:id">4</property>
  </entry>
  <entry in="01:47:56.848" out="01:48:37.871" producer="chain16">
   <property name="kdenlive:id">4</property>
  </entry>
  <entry in="01:49:13.096" out="01:49:17.809" producer="chain16">
   <property name="kdenlive:id">4</property>
  </entry>
  <entry in="01:49:19.353" out="01:49:46.713" producer="chain16">
   <property name="kdenlive:id">4</property>
  </entry>
  <entry in="01:49:59.268" out="01:50:26.235" producer="chain16">
   <property name="kdenlive:id">4</property>
  </entry>
  <entry in="01:50:33.909" out="01:50:43.085" producer="chain16">
   <property name="kdenlive:id">4</property>
  </entry>
  <entry in="01:50:43.126" out="01:51:01.210" producer="chain16">
   <property name="kdenlive:id">4</property>
   <property name="kdenlive:activeeffect">0</property>
   <filter id="filter23" in="01:50:54.930" out="01:51:01.251">
    <property name="start">1</property>
    <property name="level">1</property>
    <property name="mlt_service">brightness</property>
    <property name="kdenlive_id">fade_to_black</property>
    <property name="alpha">00:00:00.000=1;00:00:06.298=0</property>
   </filter>
  </entry>
  <entry in="01:28:54.429" out="01:30:27.236" producer="producer1">
   <property name="kdenlive:id">4</property>
  </entry>
  <entry in="01:53:04.129" out="01:53:50.467" producer="chain16">
   <property name="kdenlive:id">4</property>
  </entry>
  <entry in="01:53:50.509" out="02:02:17.309" producer="chain16">
   <property name="kdenlive:id">4</property>
  </entry>
 </playlist>
 <playlist id="playlist9"/>
 <tractor id="tractor4" in="00:00:00.000" out="01:11:44.378">
  <property name="kdenlive:trackheight">84</property>
  <property name="kdenlive:timeline_active">0</property>
  <property name="kdenlive:collapsed">0</property>
  <property name="kdenlive:thumbs_format"/>
  <property name="kdenlive:audio_rec"/>
  <track hide="audio" producer="playlist8"/>
  <track hide="audio" producer="playlist9"/>
 </tractor>
 <playlist id="playlist10"/>
 <playlist id="playlist11"/>
 <tractor id="tractor5" in="00:00:00.000">
  <property name="kdenlive:trackheight">84</property>
  <property name="kdenlive:timeline_active">1</property>
  <property name="kdenlive:collapsed">32</property>
  <property name="kdenlive:thumbs_format"/>
  <property name="kdenlive:audio_rec"/>
  <track hide="audio" producer="playlist10"/>
  <track hide="audio" producer="playlist11"/>
 </tractor>
 <tractor id="tractor6" in="00:00:00.000" out="01:11:44.378">
  <property name="kdenlive:duration">01:11:44.419</property>
  <property name="kdenlive:maxduration">103202</property>
  <property name="kdenlive:clipname">Sequence 1</property>
  <property name="kdenlive:description"/>
  <property name="kdenlive:uuid">{a1c6ff07-0e79-459a-9520-a33d3eb81031}</property>
  <property name="kdenlive:producer_type">17</property>
  <property name="kdenlive:control_uuid">{a1c6ff07-0e79-459a-9520-a33d3eb81031}</property>
  <property name="kdenlive:id">3</property>
  <property name="kdenlive:clip_type">0</property>
  <property name="kdenlive:file_hash">313fd5f3f1ee7049fba4a7f871c01cd5</property>
  <property name="kdenlive:folderid">2</property>
  <property name="kdenlive:sequenceproperties.activeTrack">4</property>
  <property name="kdenlive:sequenceproperties.audioTarget">1</property>
  <property name="kdenlive:sequenceproperties.disablepreview">0</property>
  <property name="kdenlive:sequenceproperties.documentuuid">{a1c6ff07-0e79-459a-9520-a33d3eb81031}</property>
  <property name="kdenlive:sequenceproperties.globalSubtitleStyles">[
]
</property>
  <property name="kdenlive:sequenceproperties.hasAudio">1</property>
  <property name="kdenlive:sequenceproperties.hasVideo">1</property>
  <property name="kdenlive:sequenceproperties.hidesubtitle">0</property>
  <property name="kdenlive:sequenceproperties.position">102166</property>
  <property name="kdenlive:sequenceproperties.scrollPos">0</property>
  <property name="kdenlive:sequenceproperties.subtitlesList">[
    {
        "file": "/FanEdits/FanMixes/Sonic - DeSchwartzed/Sonic - DeSchwartzed 2022.kdenlive.ass",
        "id": 0,
        "name": "Subtitles"
    }
]
</property>
  <property name="kdenlive:sequenceproperties.tracks">4</property>
  <property name="kdenlive:sequenceproperties.tracksCount">6</property>
  <property name="kdenlive:sequenceproperties.verticalzoom">1</property>
  <property name="kdenlive:sequenceproperties.videoTarget">2</property>
  <property name="kdenlive:sequenceproperties.zonein">28344</property>
  <property name="kdenlive:sequenceproperties.zoneout">28427</property>
  <property name="kdenlive:sequenceproperties.zoom">18</property>
  <property name="kdenlive:sequenceproperties.groups">[
    {
        "children": [
            {
                "data": "2:61423:-1",
                "leaf": "clip",
                "type": "Leaf"
            },
            {
                "data": "4:61423:-1",
                "leaf": "clip",
                "type": "Leaf"
            },
            {
                "data": "3:61423:-1",
                "leaf": "clip",
                "type": "Leaf"
            }
        ],
        "type": "AVSplit"
    },
    {
        "children": [
            {
                "data": "2:44188:-1",
                "leaf": "clip",
                "type": "Leaf"
            },
            {
                "data": "3:44224:-1",
                "leaf": "clip",
                "type": "Leaf"
            },
            {
                "data": "4:44224:-1",
                "leaf": "clip",
                "type": "Leaf"
            }
        ],
        "type": "AVSplit"
    },
    {
        "children": [
            {
                "data": "2:72658:-1",
                "leaf": "clip",
                "type": "Leaf"
            },
            {
                "data": "4:72668:-1",
                "leaf": "clip",
                "type": "Leaf"
            },
            {
                "data": "3:72668:-1",
                "leaf": "clip",
                "type": "Leaf"
            }
        ],
        "type": "AVSplit"
    },
    {
        "children": [
            {
                "data": "4:47757:-1",
                "leaf": "clip",
                "type": "Leaf"
            },
            {
                "data": "2:47745:-1",
                "leaf": "clip",
                "type": "Leaf"
            },
            {
                "data": "3:47757:-1",
                "leaf": "clip",
                "type": "Leaf"
            }
        ],
        "type": "AVSplit"
    },
    {
        "children": [
            {
                "data": "2:70251:-1",
                "leaf": "clip",
                "type": "Leaf"
            },
            {
                "data": "4:70263:-1",
                "leaf": "clip",
                "type": "Leaf"
            },
            {
                "data": "3:70263:-1",
                "leaf": "clip",
                "type": "Leaf"
            }
        ],
        "type": "AVSplit"
    },
    {
        "children": [
            {
                "data": "4:48046:-1",
                "leaf": "clip",
                "type": "Leaf"
            },
            {
                "data": "2:48046:-1",
                "leaf": "clip",
                "type": "Leaf"
            },
            {
                "data": "3:48046:-1",
                "leaf": "clip",
                "type": "Leaf"
            }
        ],
        "type": "AVSplit"
    },
    {
        "children": [
            {
                "data": "2:64670:-1",
                "leaf": "clip",
                "type": "Leaf"
            },
            {
                "data": "4:64675:-1",
                "leaf": "clip",
                "type": "Leaf"
            },
            {
                "data": "3:64675:-1",
                "leaf": "clip",
                "type": "Leaf"
            }
        ],
        "type": "AVSplit"
    },
    {
        "children": [
            {
                "data": "2:45364:-1",
                "leaf": "clip",
                "type": "Leaf"
            },
            {
                "data": "3:45376:-1",
                "leaf": "clip",
                "type": "Leaf"
            },
            {
                "data": "4:45376:-1",
                "leaf": "clip",
                "type": "Leaf"
            }
        ],
        "type": "AVSplit"
    },
    {
        "children": [
            {
                "data": "3:61242:-1",
                "leaf": "clip",
                "type": "Leaf"
            },
            {
                "data": "4:61242:-1",
                "leaf": "clip",
                "type": "Leaf"
            },
            {
                "data": "2:61242:-1",
                "leaf": "clip",
                "type": "Leaf"
            }
        ],
        "type": "AVSplit"
    },
    {
        "children": [
            {
                "data": "3:44400:-1",
                "leaf": "clip",
                "type": "Leaf"
            },
            {
                "data": "2:44400:-1",
                "leaf": "clip",
                "type": "Leaf"
            },
            {
                "data": "4:44400:-1",
                "leaf": "clip",
                "type": "Leaf"
            }
        ],
        "type": "AVSplit"
    },
    {
        "children": [
            {
                "data": "3:44468:-1",
                "leaf": "clip",
                "type": "Leaf"
            },
            {
                "data": "4:44468:-1",
                "leaf": "clip",
                "type": "Leaf"
            },
            {
                "data": "2:44468:-1",
                "leaf": "clip",
                "type": "Leaf"
            }
        ],
        "type": "AVSplit"
    },
    {
        "children": [
            {
                "data": "3:69718:-1",
                "leaf": "clip",
                "type": "Leaf"
            },
            {
                "data": "2:69694:-1",
                "leaf": "clip",
                "type": "Leaf"
            },
            {
                "data": "4:69718:-1",
                "leaf": "clip",
                "type": "Leaf"
            }
        ],
        "type": "AVSplit"
    },
    {
        "children": [
            {
                "data": "4:45920:-1",
                "leaf": "clip",
                "type": "Leaf"
            },
            {
                "data": "2:45920:-1",
                "leaf": "clip",
                "type": "Leaf"
            },
            {
                "data": "3:45920:-1",
                "leaf": "clip",
                "type": "Leaf"
            }
        ],
        "type": "AVSplit"
    },
    {
        "children": [
            {
                "data": "2:61373:-1",
                "leaf": "clip",
                "type": "Leaf"
            },
            {
                "data": "4:61373:-1",
                "leaf": "clip",
                "type": "Leaf"
            },
            {
                "data": "3:61373:-1",
                "leaf": "clip",
                "type": "Leaf"
            }
        ],
        "type": "AVSplit"
    },
    {
        "children": [
            {
                "data": "4:48157:-1",
                "leaf": "clip",
                "type": "Leaf"
            },
            {
                "data": "3:48157:-1",
                "leaf": "clip",
                "type": "Leaf"
            },
            {
                "data": "2:48147:-1",
                "leaf": "clip",
                "type": "Leaf"
            }
        ],
        "type": "AVSplit"
    },
    {
        "children": [
            {
                "data": "3:69543:-1",
                "leaf": "clip",
                "type": "Leaf"
            },
            {
                "data": "4:69543:-1",
                "leaf": "clip",
                "type": "Leaf"
            },
            {
                "data": "2:69533:-1",
                "leaf": "clip",
                "type": "Leaf"
            }
        ],
        "type": "AVSplit"
    },
    {
        "children": [
            {
                "data": "3:8912:-1",
                "leaf": "clip",
                "type": "Leaf"
            },
            {
                "data": "2:8900:-1",
                "leaf": "clip",
                "type": "Leaf"
            },
            {
                "data": "4:8912:-1",
                "leaf": "clip",
                "type": "Leaf"
            }
        ],
        "type": "AVSplit"
    },
    {
        "children": [
            {
                "data": "3:85637:-1",
                "leaf": "clip",
                "type": "Leaf"
            },
            {
                "data": "2:85637:-1",
                "leaf": "clip",
                "type": "Leaf"
            },
            {
                "data": "4:85637:-1",
                "leaf": "clip",
                "type": "Leaf"
            }
        ],
        "type": "AVSplit"
    },
    {
        "children": [
            {
                "data": "2:73393:-1",
                "leaf": "clip",
                "type": "Leaf"
            },
            {
                "data": "3:73398:-1",
                "leaf": "clip",
                "type": "Leaf"
            },
            {
                "data": "4:73398:-1",
                "leaf": "clip",
                "type": "Leaf"
            }
        ],
        "type": "AVSplit"
    },
    {
        "children": [
            {
                "data": "3:74691:-1",
                "leaf": "clip",
                "type": "Leaf"
            },
            {
                "data": "2:74679:-1",
                "leaf": "clip",
                "type": "Leaf"
            },
            {
                "data": "4:74691:-1",
                "leaf": "clip",
                "type": "Leaf"
            }
        ],
        "type": "AVSplit"
    },
    {
        "children": [
            {
                "data": "4:84167:-1",
                "leaf": "clip",
                "type": "Leaf"
            },
            {
                "data": "2:84143:-1",
                "leaf": "clip",
                "type": "Leaf"
            },
            {
                "data": "3:84167:-1",
                "leaf": "clip",
                "type": "Leaf"
            }
        ],
        "type": "AVSplit"
    },
    {
        "children": [
            {
                "data": "4:83703:-1",
                "leaf": "clip",
                "type": "Leaf"
            },
            {
                "data": "3:83703:-1",
                "leaf": "clip",
                "type": "Leaf"
            },
            {
                "data": "2:83691:-1",
                "leaf": "clip",
                "type": "Leaf"
            }
        ],
        "type": "AVSplit"
    },
    {
        "children": [
            {
                "data": "3:77431:-1",
                "leaf": "clip",
                "type": "Leaf"
            },
            {
                "data": "4:77431:-1",
                "leaf": "clip",
                "type": "Leaf"
            },
            {
                "data": "2:77419:-1",
                "leaf": "clip",
                "type": "Leaf"
            }
        ],
        "type": "AVSplit"
    },
    {
        "children": [
            {
                "data": "3:76171:-1",
                "leaf": "clip",
                "type": "Leaf"
            },
            {
                "data": "2:76147:-1",
                "leaf": "clip",
                "type": "Leaf"
            },
            {
                "data": "4:76171:-1",
                "leaf": "clip",
                "type": "Leaf"
            }
        ],
        "type": "AVSplit"
    },
    {
        "children": [
            {
                "data": "2:77266:-1",
                "leaf": "clip",
                "type": "Leaf"
            },
            {
                "data": "3:77276:-1",
                "leaf": "clip",
                "type": "Leaf"
            },
            {
                "data": "4:77276:-1",
                "leaf": "clip",
                "type": "Leaf"
            }
        ],
        "type": "AVSplit"
    },
    {
        "children": [
            {
                "data": "2:83204:-1",
                "leaf": "clip",
                "type": "Leaf"
            },
            {
                "data": "3:83216:-1",
                "leaf": "clip",
                "type": "Leaf"
            },
            {
                "data": "4:83216:-1",
                "leaf": "clip",
                "type": "Leaf"
            }
        ],
        "type": "AVSplit"
    },
    {
        "children": [
            {
                "data": "2:72937:-1",
                "leaf": "clip",
                "type": "Leaf"
            },
            {
                "data": "4:72949:-1",
                "leaf": "clip",
                "type": "Leaf"
            },
            {
                "data": "3:72949:-1",
                "leaf": "clip",
                "type": "Leaf"
            }
        ],
        "type": "AVSplit"
    },
    {
        "children": [
            {
                "data": "3:73100:-1",
                "leaf": "clip",
                "type": "Leaf"
            },
            {
                "data": "2:73098:-1",
                "leaf": "clip",
                "type": "Leaf"
            },
            {
                "data": "4:73100:-1",
                "leaf": "clip",
                "type": "Leaf"
            }
        ],
        "type": "AVSplit"
    },
    {
        "children": [
            {
                "data": "2:61618:-1",
                "leaf": "clip",
                "type": "Leaf"
            },
            {
                "data": "4:61630:-1",
                "leaf": "clip",
                "type": "Leaf"
            },
            {
                "data": "3:61630:-1",
                "leaf": "clip",
                "type": "Leaf"
            }
        ],
        "type": "AVSplit"
    },
    {
        "children": [
            {
                "data": "3:36665:-1",
                "leaf": "clip",
                "type": "Leaf"
            },
            {
                "data": "4:36665:-1",
                "leaf": "clip",
                "type": "Leaf"
            },
            {
                "data": "2:36665:-1",
                "leaf": "clip",
                "type": "Leaf"
            }
        ],
        "type": "AVSplit"
    },
    {
        "children": [
            {
                "data": "4:35665:-1",
                "leaf": "clip",
                "type": "Leaf"
            },
            {
                "data": "2:35660:-1",
                "leaf": "clip",
                "type": "Leaf"
            },
            {
                "data": "3:35665:-1",
                "leaf": "clip",
                "type": "Leaf"
            }
        ],
        "type": "AVSplit"
    },
    {
        "children": [
            {
                "data": "3:36895:-1",
                "leaf": "clip",
                "type": "Leaf"
            },
            {
                "data": "4:36895:-1",
                "leaf": "clip",
                "type": "Leaf"
            },
            {
                "data": "2:36889:-1",
                "leaf": "clip",
                "type": "Leaf"
            }
        ],
        "type": "AVSplit"
    },
    {
        "children": [
            {
                "data": "4:32288:-1",
                "leaf": "clip",
                "type": "Leaf"
            },
            {
                "data": "2:32276:-1",
                "leaf": "clip",
                "type": "Leaf"
            },
            {
                "data": "3:32288:-1",
                "leaf": "clip",
                "type": "Leaf"
            }
        ],
        "type": "AVSplit"
    },
    {
        "children": [
            {
                "data": "2:28356:-1",
                "leaf": "clip",
                "type": "Leaf"
            },
            {
                "data": "4:28356:-1",
                "leaf": "clip",
                "type": "Leaf"
            },
            {
                "data": "3:28356:-1",
                "leaf": "clip",
                "type": "Leaf"
            }
        ],
        "type": "AVSplit"
    },
    {
        "children": [
            {
                "data": "2:9022:-1",
                "leaf": "clip",
                "type": "Leaf"
            },
            {
                "data": "3:9032:-1",
                "leaf": "clip",
                "type": "Leaf"
            },
            {
                "data": "4:9032:-1",
                "leaf": "clip",
                "type": "Leaf"
            }
        ],
        "type": "AVSplit"
    },
    {
        "children": [
            {
                "data": "2:19439:-1",
                "leaf": "clip",
                "type": "Leaf"
            },
            {
                "data": "3:19463:-1",
                "leaf": "clip",
                "type": "Leaf"
            },
            {
                "data": "4:19463:-1",
                "leaf": "clip",
                "type": "Leaf"
            }
        ],
        "type": "AVSplit"
    },
    {
        "children": [
            {
                "data": "3:37458:-1",
                "leaf": "clip",
                "type": "Leaf"
            },
            {
                "data": "4:37458:-1",
                "leaf": "clip",
                "type": "Leaf"
            },
            {
                "data": "2:37458:-1",
                "leaf": "clip",
                "type": "Leaf"
            }
        ],
        "type": "AVSplit"
    },
    {
        "children": [
            {
                "data": "4:19518:-1",
                "leaf": "clip",
                "type": "Leaf"
            },
            {
                "data": "3:19518:-1",
                "leaf": "clip",
                "type": "Leaf"
            },
            {
                "data": "2:19494:-1",
                "leaf": "clip",
                "type": "Leaf"
            }
        ],
        "type": "AVSplit"
    },
    {
        "children": [
            {
                "data": "2:43436:-1",
                "leaf": "clip",
                "type": "Leaf"
            },
            {
                "data": "4:43436:-1",
                "leaf": "clip",
                "type": "Leaf"
            },
            {
                "data": "3:43436:-1",
                "leaf": "clip",
                "type": "Leaf"
            }
        ],
        "type": "AVSplit"
    },
    {
        "children": [
            {
                "data": "2:39772:-1",
                "leaf": "clip",
                "type": "Leaf"
            },
            {
                "data": "3:39772:-1",
                "leaf": "clip",
                "type": "Leaf"
            },
            {
                "data": "4:39772:-1",
                "leaf": "clip",
                "type": "Leaf"
            }
        ],
        "type": "AVSplit"
    },
    {
        "children": [
            {
                "data": "2:34475:-1",
                "leaf": "clip",
                "type": "Leaf"
            },
            {
                "data": "4:34487:-1",
                "leaf": "clip",
                "type": "Leaf"
            },
            {
                "data": "3:34487:-1",
                "leaf": "clip",
                "type": "Leaf"
            }
        ],
        "type": "AVSplit"
    },
    {
        "children": [
            {
                "data": "3:67848:-1",
                "leaf": "clip",
                "type": "Leaf"
            },
            {
                "data": "2:67836:-1",
                "leaf": "clip",
                "type": "Leaf"
            },
            {
                "data": "4:67848:-1",
                "leaf": "clip",
                "type": "Leaf"
            }
        ],
        "type": "AVSplit"
    },
    {
        "children": [
            {
                "data": "4:41294:-1",
                "leaf": "clip",
                "type": "Leaf"
            },
            {
                "data": "2:41289:-1",
                "leaf": "clip",
                "type": "Leaf"
            },
            {
                "data": "3:41294:-1",
                "leaf": "clip",
                "type": "Leaf"
            }
        ],
        "type": "AVSplit"
    },
    {
        "children": [
            {
                "data": "2:26133:-1",
                "leaf": "clip",
                "type": "Leaf"
            },
            {
                "data": "3:26145:-1",
                "leaf": "clip",
                "type": "Leaf"
            },
            {
                "data": "4:26145:-1",
                "leaf": "clip",
                "type": "Leaf"
            }
        ],
        "type": "AVSplit"
    },
    {
        "children": [
            {
                "data": "4:30293:-1",
                "leaf": "clip",
                "type": "Leaf"
            },
            {
                "data": "2:30281:-1",
                "leaf": "clip",
                "type": "Leaf"
            },
            {
                "data": "3:30293:-1",
                "leaf": "clip",
                "type": "Leaf"
            }
        ],
        "type": "AVSplit"
    },
    {
        "children": [
            {
                "data": "3:87056:-1",
                "leaf": "clip",
                "type": "Leaf"
            },
            {
                "data": "4:87056:-1",
                "leaf": "clip",
                "type": "Leaf"
            },
            {
                "data": "2:87020:-1",
                "leaf": "clip",
                "type": "Leaf"
            }
        ],
        "type": "AVSplit"
    },
    {
        "children": [
            {
                "data": "2:24279:-1",
                "leaf": "clip",
                "type": "Leaf"
            },
            {
                "data": "3:24279:-1",
                "leaf": "clip",
                "type": "Leaf"
            },
            {
                "data": "4:24279:-1",
                "leaf": "clip",
                "type": "Leaf"
            }
        ],
        "type": "AVSplit"
    },
    {
        "children": [
            {
                "data": "4:85751:-1",
                "leaf": "clip",
                "type": "Leaf"
            },
            {
                "data": "2:85751:-1",
                "leaf": "clip",
                "type": "Leaf"
            },
            {
                "data": "3:85751:-1",
                "leaf": "clip",
                "type": "Leaf"
            }
        ],
        "type": "AVSplit"
    },
    {
        "children": [
            {
                "data": "4:35302:-1",
                "leaf": "clip",
                "type": "Leaf"
            },
            {
                "data": "3:35302:-1",
                "leaf": "clip",
                "type": "Leaf"
            },
            {
                "data": "2:35297:-1",
                "leaf": "clip",
                "type": "Leaf"
            }
        ],
        "type": "AVSplit"
    },
    {
        "children": [
            {
                "data": "4:84537:-1",
                "leaf": "clip",
                "type": "Leaf"
            },
            {
                "data": "2:84537:-1",
                "leaf": "clip",
                "type": "Leaf"
            },
            {
                "data": "3:84537:-1",
                "leaf": "clip",
                "type": "Leaf"
            }
        ],
        "type": "AVSplit"
    },
    {
        "children": [
            {
                "data": "2:0:-1",
                "leaf": "clip",
                "type": "Leaf"
            },
            {
                "data": "3:0:-1",
                "leaf": "clip",
                "type": "Leaf"
            },
            {
                "data": "4:0:-1",
                "leaf": "clip",
                "type": "Leaf"
            }
        ],
        "type": "AVSplit"
    },
    {
        "children": [
            {
                "data": "3:79605:-1",
                "leaf": "clip",
                "type": "Leaf"
            },
            {
                "data": "4:79605:-1",
                "leaf": "clip",
                "type": "Leaf"
            },
            {
                "data": "2:79595:-1",
                "leaf": "clip",
                "type": "Leaf"
            }
        ],
        "type": "AVSplit"
    },
    {
        "children": [
            {
                "data": "3:36605:-1",
                "leaf": "clip",
                "type": "Leaf"
            },
            {
                "data": "4:36605:-1",
                "leaf": "clip",
                "type": "Leaf"
            },
            {
                "data": "2:36593:-1",
                "leaf": "clip",
                "type": "Leaf"
            }
        ],
        "type": "AVSplit"
    },
    {
        "children": [
            {
                "data": "2:73338:-1",
                "leaf": "clip",
                "type": "Leaf"
            },
            {
                "data": "3:73362:-1",
                "leaf": "clip",
                "type": "Leaf"
            },
            {
                "data": "4:73362:-1",
                "leaf": "clip",
                "type": "Leaf"
            }
        ],
        "type": "AVSplit"
    },
    {
        "children": [
            {
                "data": "3:8352:-1",
                "leaf": "clip",
                "type": "Leaf"
            },
            {
                "data": "4:8352:-1",
                "leaf": "clip",
                "type": "Leaf"
            },
            {
                "data": "2:8304:-1",
                "leaf": "clip",
                "type": "Leaf"
            }
        ],
        "type": "AVSplit"
    },
    {
        "children": [
            {
                "data": "3:72715:-1",
                "leaf": "clip",
                "type": "Leaf"
            },
            {
                "data": "2:72699:-1",
                "leaf": "clip",
                "type": "Leaf"
            },
            {
                "data": "4:72715:-1",
                "leaf": "clip",
                "type": "Leaf"
            }
        ],
        "type": "AVSplit"
    },
    {
        "children": [
            {
                "data": "3:39818:-1",
                "leaf": "clip",
                "type": "Leaf"
            },
            {
                "data": "4:39818:-1",
                "leaf": "clip",
                "type": "Leaf"
            },
            {
                "data": "2:39818:-1",
                "leaf": "clip",
                "type": "Leaf"
            }
        ],
        "type": "AVSplit"
    },
    {
        "children": [
            {
                "data": "3:72844:-1",
                "leaf": "clip",
                "type": "Leaf"
            },
            {
                "data": "2:72832:-1",
                "leaf": "clip",
                "type": "Leaf"
            },
            {
                "data": "4:72844:-1",
                "leaf": "clip",
                "type": "Leaf"
            }
        ],
        "type": "AVSplit"
    },
    {
        "children": [
            {
                "data": "2:28231:-1",
                "leaf": "clip",
                "type": "Leaf"
            },
            {
                "data": "4:28231:-1",
                "leaf": "clip",
                "type": "Leaf"
            },
            {
                "data": "3:28231:-1",
                "leaf": "clip",
                "type": "Leaf"
            }
        ],
        "type": "AVSplit"
    },
    {
        "children": [
            {
                "data": "2:63816:-1",
                "leaf": "clip",
                "type": "Leaf"
            },
            {
                "data": "4:63828:-1",
                "leaf": "clip",
                "type": "Leaf"
            },
            {
                "data": "3:63828:-1",
                "leaf": "clip",
                "type": "Leaf"
            }
        ],
        "type": "AVSplit"
    },
    {
        "children": [
            {
                "data": "4:12780:-1",
                "leaf": "clip",
                "type": "Leaf"
            },
            {
                "data": "3:12780:-1",
                "leaf": "clip",
                "type": "Leaf"
            },
            {
                "data": "2:12760:-1",
                "leaf": "clip",
                "type": "Leaf"
            }
        ],
        "type": "AVSplit"
    },
    {
        "children": [
            {
                "data": "2:61276:-1",
                "leaf": "clip",
                "type": "Leaf"
            },
            {
                "data": "4:61288:-1",
                "leaf": "clip",
                "type": "Leaf"
            },
            {
                "data": "3:61288:-1",
                "leaf": "clip",
                "type": "Leaf"
            }
        ],
        "type": "AVSplit"
    },
    {
        "children": [
            {
                "data": "3:26359:-1",
                "leaf": "clip",
                "type": "Leaf"
            },
            {
                "data": "2:26354:-1",
                "leaf": "clip",
                "type": "Leaf"
            },
            {
                "data": "4:26359:-1",
                "leaf": "clip",
                "type": "Leaf"
            }
        ],
        "type": "AVSplit"
    },
    {
        "children": [
            {
                "data": "2:68963:-1",
                "leaf": "clip",
                "type": "Leaf"
            },
            {
                "data": "4:68975:-1",
                "leaf": "clip",
                "type": "Leaf"
            },
            {
                "data": "3:68975:-1",
                "leaf": "clip",
                "type": "Leaf"
            }
        ],
        "type": "AVSplit"
    },
    {
        "children": [
            {
                "data": "3:26434:-1",
                "leaf": "clip",
                "type": "Leaf"
            },
            {
                "data": "2:26410:-1",
                "leaf": "clip",
                "type": "Leaf"
            },
            {
                "data": "4:26434:-1",
                "leaf": "clip",
                "type": "Leaf"
            }
        ],
        "type": "AVSplit"
    },
    {
        "children": [
            {
                "data": "3:39733:-1",
                "leaf": "clip",
                "type": "Leaf"
            },
            {
                "data": "2:39733:-1",
                "leaf": "clip",
                "type": "Leaf"
            },
            {
                "data": "4:39733:-1",
                "leaf": "clip",
                "type": "Leaf"
            }
        ],
        "type": "AVSplit"
    },
    {
        "children": [
            {
                "data": "4:9523:-1",
                "leaf": "clip",
                "type": "Leaf"
            },
            {
                "data": "2:9511:-1",
                "leaf": "clip",
                "type": "Leaf"
            },
            {
                "data": "3:9523:-1",
                "leaf": "clip",
                "type": "Leaf"
            }
        ],
        "type": "AVSplit"
    },
    {
        "children": [
            {
                "data": "2:27619:-1",
                "leaf": "clip",
                "type": "Leaf"
            },
            {
                "data": "4:27624:-1",
                "leaf": "clip",
                "type": "Leaf"
            },
            {
                "data": "3:27624:-1",
                "leaf": "clip",
                "type": "Leaf"
            }
        ],
        "type": "AVSplit"
    },
    {
        "children": [
            {
                "data": "3:86408:-1",
                "leaf": "clip",
                "type": "Leaf"
            },
            {
                "data": "4:86408:-1",
                "leaf": "clip",
                "type": "Leaf"
            },
            {
                "data": "2:86396:-1",
                "leaf": "clip",
                "type": "Leaf"
            }
        ],
        "type": "AVSplit"
    },
    {
        "children": [
            {
                "data": "4:15932:-1",
                "leaf": "clip",
                "type": "Leaf"
            },
            {
                "data": "2:15932:-1",
                "leaf": "clip",
                "type": "Leaf"
            },
            {
                "data": "3:15932:-1",
                "leaf": "clip",
                "type": "Leaf"
            }
        ],
        "type": "AVSplit"
    },
    {
        "children": [
            {
                "data": "2:87277:-1",
                "leaf": "clip",
                "type": "Leaf"
            },
            {
                "data": "4:87277:-1",
                "leaf": "clip",
                "type": "Leaf"
            },
            {
                "data": "3:87277:-1",
                "leaf": "clip",
                "type": "Leaf"
            }
        ],
        "type": "AVSplit"
    },
    {
        "children": [
            {
                "data": "3:30418:-1",
                "leaf": "clip",
                "type": "Leaf"
            },
            {
                "data": "4:30418:-1",
                "leaf": "clip",
                "type": "Leaf"
            },
            {
                "data": "2:30413:-1",
                "leaf": "clip",
                "type": "Leaf"
            }
        ],
        "type": "AVSplit"
    },
    {
        "children": [
            {
                "data": "3:36814:-1",
                "leaf": "clip",
                "type": "Leaf"
            },
            {
                "data": "4:36814:-1",
                "leaf": "clip",
                "type": "Leaf"
            },
            {
                "data": "2:36809:-1",
                "leaf": "clip",
                "type": "Leaf"
            }
        ],
        "type": "AVSplit"
    },
    {
        "children": [
            {
                "data": "3:84653:-1",
                "leaf": "clip",
                "type": "Leaf"
            },
            {
                "data": "2:84643:-1",
                "leaf": "clip",
                "type": "Leaf"
            },
            {
                "data": "4:84653:-1",
                "leaf": "clip",
                "type": "Leaf"
            }
        ],
        "type": "AVSplit"
    },
    {
        "children": [
            {
                "data": "4:32375:-1",
                "leaf": "clip",
                "type": "Leaf"
            },
            {
                "data": "2:32363:-1",
                "leaf": "clip",
                "type": "Leaf"
            },
            {
                "data": "3:32375:-1",
                "leaf": "clip",
                "type": "Leaf"
            }
        ],
        "type": "AVSplit"
    },
    {
        "children": [
            {
                "data": "2:37586:-1",
                "leaf": "clip",
                "type": "Leaf"
            },
            {
                "data": "3:37586:-1",
                "leaf": "clip",
                "type": "Leaf"
            },
            {
                "data": "4:37586:-1",
                "leaf": "clip",
                "type": "Leaf"
            }
        ],
        "type": "AVSplit"
    },
    {
        "children": [
            {
                "data": "4:28361:-1",
                "leaf": "clip",
                "type": "Leaf"
            },
            {
                "data": "2:28361:-1",
                "leaf": "clip",
                "type": "Leaf"
            },
            {
                "data": "3:28361:-1",
                "leaf": "clip",
                "type": "Leaf"
            }
        ],
        "type": "AVSplit"
    },
    {
        "children": [
            {
                "data": "4:24229:-1",
                "leaf": "clip",
                "type": "Leaf"
            },
            {
                "data": "2:24229:-1",
                "leaf": "clip",
                "type": "Leaf"
            },
            {
                "data": "3:24229:-1",
                "leaf": "clip",
                "type": "Leaf"
            }
        ],
        "type": "AVSplit"
    },
    {
        "children": [
            {
                "data": "4:17137:-1",
                "leaf": "clip",
                "type": "Leaf"
            },
            {
                "data": "2:17132:-1",
                "leaf": "clip",
                "type": "Leaf"
            },
            {
                "data": "3:17137:-1",
                "leaf": "clip",
                "type": "Leaf"
            }
        ],
        "type": "AVSplit"
    },
    {
        "children": [
            {
                "data": "3:43013:-1",
                "leaf": "clip",
                "type": "Leaf"
            },
            {
                "data": "2:42989:-1",
                "leaf": "clip",
                "type": "Leaf"
            },
            {
                "data": "4:43013:-1",
                "leaf": "clip",
                "type": "Leaf"
            }
        ],
        "type": "AVSplit"
    },
    {
        "children": [
            {
                "data": "3:39899:-1",
                "leaf": "clip",
                "type": "Leaf"
            },
            {
                "data": "2:39894:-1",
                "leaf": "clip",
                "type": "Leaf"
            },
            {
                "data": "4:39899:-1",
                "leaf": "clip",
                "type": "Leaf"
            }
        ],
        "type": "AVSplit"
    },
    {
        "children": [
            {
                "data": "2:8770:-1",
                "leaf": "clip",
                "type": "Leaf"
            },
            {
                "data": "4:8782:-1",
                "leaf": "clip",
                "type": "Leaf"
            },
            {
                "data": "3:8782:-1",
                "leaf": "clip",
                "type": "Leaf"
            }
        ],
        "type": "AVSplit"
    },
    {
        "children": [
            {
                "data": "2:11840:-1",
                "leaf": "clip",
                "type": "Leaf"
            },
            {
                "data": "4:11840:-1",
                "leaf": "clip",
                "type": "Leaf"
            },
            {
                "data": "3:11840:-1",
                "leaf": "clip",
                "type": "Leaf"
            }
        ],
        "type": "AVSplit"
    },
    {
        "children": [
            {
                "data": "2:37554:-1",
                "leaf": "clip",
                "type": "Leaf"
            },
            {
                "data": "3:37554:-1",
                "leaf": "clip",
                "type": "Leaf"
            },
            {
                "data": "4:37554:-1",
                "leaf": "clip",
                "type": "Leaf"
            }
        ],
        "type": "AVSplit"
    },
    {
        "children": [
            {
                "data": "4:58420:-1",
                "leaf": "clip",
                "type": "Leaf"
            },
            {
                "data": "3:58420:-1",
                "leaf": "clip",
                "type": "Leaf"
            },
            {
                "data": "2:58420:-1",
                "leaf": "clip",
                "type": "Leaf"
            }
        ],
        "type": "AVSplit"
    },
    {
        "children": [
            {
                "data": "3:17706:-1",
                "leaf": "clip",
                "type": "Leaf"
            },
            {
                "data": "2:17694:-1",
                "leaf": "clip",
                "type": "Leaf"
            },
            {
                "data": "4:17706:-1",
                "leaf": "clip",
                "type": "Leaf"
            }
        ],
        "type": "AVSplit"
    },
    {
        "children": [
            {
                "data": "4:63202:-1",
                "leaf": "clip",
                "type": "Leaf"
            },
            {
                "data": "2:63190:-1",
                "leaf": "clip",
                "type": "Leaf"
            },
            {
                "data": "3:63202:-1",
                "leaf": "clip",
                "type": "Leaf"
            }
        ],
        "type": "AVSplit"
    },
    {
        "children": [
            {
                "data": "3:30945:-1",
                "leaf": "clip",
                "type": "Leaf"
            },
            {
                "data": "2:30941:-1",
                "leaf": "clip",
                "type": "Leaf"
            },
            {
                "data": "4:30945:-1",
                "leaf": "clip",
                "type": "Leaf"
            }
        ],
        "type": "AVSplit"
    },
    {
        "children": [
            {
                "data": "3:72422:-1",
                "leaf": "clip",
                "type": "Leaf"
            },
            {
                "data": "4:72422:-1",
                "leaf": "clip",
                "type": "Leaf"
            },
            {
                "data": "2:72410:-1",
                "leaf": "clip",
                "type": "Leaf"
            }
        ],
        "type": "AVSplit"
    },
    {
        "children": [
            {
                "data": "3:19083:-1",
                "leaf": "clip",
                "type": "Leaf"
            },
            {
                "data": "2:19071:-1",
                "leaf": "clip",
                "type": "Leaf"
            },
            {
                "data": "4:19083:-1",
                "leaf": "clip",
                "type": "Leaf"
            }
        ],
        "type": "AVSplit"
    },
    {
        "children": [
            {
                "data": "2:62525:-1",
                "leaf": "clip",
                "type": "Leaf"
            },
            {
                "data": "3:62537:-1",
                "leaf": "clip",
                "type": "Leaf"
            },
            {
                "data": "4:62537:-1",
                "leaf": "clip",
                "type": "Leaf"
            }
        ],
        "type": "AVSplit"
    },
    {
        "children": [
            {
                "data": "4:12214:-1",
                "leaf": "clip",
                "type": "Leaf"
            },
            {
                "data": "2:12214:-1",
                "leaf": "clip",
                "type": "Leaf"
            },
            {
                "data": "3:12214:-1",
                "leaf": "clip",
                "type": "Leaf"
            }
        ],
        "type": "AVSplit"
    },
    {
        "children": [
            {
                "data": "2:48758:-1",
                "leaf": "clip",
                "type": "Leaf"
            },
            {
                "data": "3:48770:-1",
                "leaf": "clip",
                "type": "Leaf"
            },
            {
                "data": "4:48770:-1",
                "leaf": "clip",
                "type": "Leaf"
            }
        ],
        "type": "AVSplit"
    },
    {
        "children": [
            {
                "data": "3:40824:-1",
                "leaf": "clip",
                "type": "Leaf"
            },
            {
                "data": "2:40820:-1",
                "leaf": "clip",
                "type": "Leaf"
            },
            {
                "data": "4:40824:-1",
                "leaf": "clip",
                "type": "Leaf"
            }
        ],
        "type": "AVSplit"
    },
    {
        "children": [
            {
                "data": "2:59140:-1",
                "leaf": "clip",
                "type": "Leaf"
            },
            {
                "data": "4:59164:-1",
                "leaf": "clip",
                "type": "Leaf"
            },
            {
                "data": "3:59164:-1",
                "leaf": "clip",
                "type": "Leaf"
            }
        ],
        "type": "AVSplit"
    },
    {
        "children": [
            {
                "data": "3:9136:-1",
                "leaf": "clip",
                "type": "Leaf"
            },
            {
                "data": "2:9124:-1",
                "leaf": "clip",
                "type": "Leaf"
            },
            {
                "data": "4:9136:-1",
                "leaf": "clip",
                "type": "Leaf"
            }
        ],
        "type": "AVSplit"
    },
    {
        "children": [
            {
                "data": "3:43615:-1",
                "leaf": "clip",
                "type": "Leaf"
            },
            {
                "data": "2:43591:-1",
                "leaf": "clip",
                "type": "Leaf"
            },
            {
                "data": "4:43615:-1",
                "leaf": "clip",
                "type": "Leaf"
            }
        ],
        "type": "AVSplit"
    },
    {
        "children": [
            {
                "data": "4:11984:-1",
                "leaf": "clip",
                "type": "Leaf"
            },
            {
                "data": "2:11972:-1",
                "leaf": "clip",
                "type": "Leaf"
            },
            {
                "data": "3:11984:-1",
                "leaf": "clip",
                "type": "Leaf"
            }
        ],
        "type": "AVSplit"
    },
    {
        "children": [
            {
                "data": "3:18009:-1",
                "leaf": "clip",
                "type": "Leaf"
            },
            {
                "data": "2:18007:-1",
                "leaf": "clip",
                "type": "Leaf"
            },
            {
                "data": "4:18009:-1",
                "leaf": "clip",
                "type": "Leaf"
            }
        ],
        "type": "AVSplit"
    },
    {
        "children": [
            {
                "data": "2:36637:-1",
                "leaf": "clip",
                "type": "Leaf"
            },
            {
                "data": "4:36637:-1",
                "leaf": "clip",
                "type": "Leaf"
            },
            {
                "data": "3:36637:-1",
                "leaf": "clip",
                "type": "Leaf"
            }
        ],
        "type": "AVSplit"
    }
]
</property>
  <property name="kdenlive:sequenceproperties.guides">[
]
</property>
  <track producer="producer0"/>
  <track producer="tractor0"/>
  <track producer="tractor1"/>
  <track producer="tractor2"/>
  <track producer="tractor3"/>
  <track producer="tractor4"/>
  <track producer="tractor5"/>
  <transition id="transition87">
   <property name="a_track">0</property>
   <property name="b_track">1</property>
   <property name="mlt_service">mix</property>
   <property name="kdenlive_id">mix</property>
   <property name="internal_added">237</property>
   <property name="always_active">1</property>
   <property name="accepts_blanks">1</property>
   <property name="sum">1</property>
  </transition>
  <transition id="transition88">
   <property name="a_track">0</property>
   <property name="b_track">2</property>
   <property name="mlt_service">mix</property>
   <property name="kdenlive_id">mix</property>
   <property name="internal_added">237</property>
   <property name="always_active">1</property>
   <property name="accepts_blanks">1</property>
   <property name="sum">1</property>
  </transition>
  <transition id="transition89">
   <property name="a_track">0</property>
   <property name="b_track">3</property>
   <property name="mlt_service">mix</property>
   <property name="kdenlive_id">mix</property>
   <property name="internal_added">237</property>
   <property name="always_active">1</property>
   <property name="accepts_blanks">1</property>
   <property name="sum">1</property>
  </transition>
  <transition id="transition90">
   <property name="a_track">0</property>
   <property name="b_track">4</property>
   <property name="mlt_service">mix</property>
   <property name="kdenlive_id">mix</property>
   <property name="internal_added">237</property>
   <property name="always_active">1</property>
   <property name="accepts_blanks">1</property>
   <property name="sum">1</property>
  </transition>
  <transition id="transition91">
   <property name="a_track">0</property>
   <property name="b_track">5</property>
   <property name="compositing">0</property>
   <property name="distort">0</property>
   <property name="rotate_center">0</property>
   <property name="mlt_service">qtblend</property>
   <property name="kdenlive_id">qtblend</property>
   <property name="internal_added">237</property>
   <property name="always_active">1</property>
  </transition>
  <transition id="transition92">
   <property name="a_track">0</property>
   <property name="b_track">6</property>
   <property name="compositing">0</property>
   <property name="distort">0</property>
   <property name="rotate_center">0</property>
   <property name="mlt_service">qtblend</property>
   <property name="kdenlive_id">qtblend</property>
   <property name="internal_added">237</property>
   <property name="always_active">1</property>
  </transition>
  <filter id="filter24">
   <property name="window">75</property>
   <property name="max_gain">20dB</property>
   <property name="mlt_service">volume</property>
   <property name="internal_added">237</property>
   <property name="disable">1</property>
  </filter>
  <filter id="filter25">
   <property name="channel">-1</property>
   <property name="mlt_service">panner</property>
   <property name="internal_added">237</property>
   <property name="start">0.5</property>
   <property name="disable">1</property>
  </filter>
  <filter id="filter26">
   <property name="mlt_service">avfilter.subtitles</property>
   <property name="av.alpha">1</property>
   <property name="internal_added">237</property>
   <property name="av.filename">Sonic - DeSchwartzed 2022.kdenlive.ass</property>
   <property name="disable">0</property>
  </filter>
 </tractor>
 <chain id="chain17" out="00:02:08.467">
  <property name="length">3081</property>
  <property name="eof">pause</property>
  <property name="resource">ost2/Sonic The Hedgehog 2 - OST/06_chemical_plant_zone.mp3</property>
  <property name="mlt_service">avformat</property>
  <property name="meta.media.nb_streams">1</property>
  <property name="meta.media.0.stream.type">audio</property>
  <property name="meta.media.0.codec.sample_fmt">fltp</property>
  <property name="meta.media.0.codec.sample_rate">44100</property>
  <property name="meta.media.0.codec.channels">2</property>
  <property name="meta.media.0.codec.layout">stereo</property>
  <property name="meta.media.0.codec.name">mp3float</property>
  <property name="meta.media.0.codec.long_name">MP3 (MPEG audio layer 3)</property>
  <property name="meta.media.0.codec.bit_rate">170987</property>
  <property name="meta.attr.artist.markup">Masato Nakamura 2</property>
  <property name="meta.attr.album.markup">Sonic the Hedgehog 2 OST</property>
  <property name="meta.attr.TSIZ.markup">2746527</property>
  <property name="meta.attr.title.markup">Chemical Plant Zone</property>
  <property name="meta.attr.track.markup">6</property>
  <property name="meta.attr.comment.markup">#gamemp3s / DALnet</property>
  <property name="meta.attr.genre.markup">Game</property>
  <property name="meta.attr.date.markup">1992</property>
  <property name="seekable">1</property>
  <property name="audio_index">0</property>
  <property name="video_index">-1</property>
  <property name="astream">0</property>
  <property name="kdenlive:control_uuid">{2c20eed3-4cfb-467e-a42b-803cac875c76}</property>
  <property name="kdenlive:proxy">-</property>
  <property name="kdenlive:originalurl">ost2/Sonic The Hedgehog 2 - OST/06_chemical_plant_zone.mp3</property>
  <property name="kdenlive:id">14</property>
  <property name="kdenlive:clip_type">1</property>
  <property name="kdenlive:file_size">2747039</property>
  <property name="kdenlive:file_hash">d686a2a2c6a913b404284a67fa95dd1a</property>
  <property name="kdenlive:folderid">12</property>
  <property name="kdenlive:monitorPosition">0</property>
 </chain>
 <chain id="chain18" out="00:00:11.220">
  <property name="length">270</property>
  <property name="eof">pause</property>
  <property name="resource">ost2/Sonic The Hedgehog 2 - OST/01_title_screen.mp3</property>
  <property name="mlt_service">avformat</property>
  <property name="meta.media.nb_streams">1</property>
  <property name="meta.media.0.stream.type">audio</property>
  <property name="meta.media.0.codec.sample_fmt">fltp</property>
  <property name="meta.media.0.codec.sample_rate">44100</property>
  <property name="meta.media.0.codec.channels">2</property>
  <property name="meta.media.0.codec.layout">stereo</property>
  <property name="meta.media.0.codec.name">mp3float</property>
  <property name="meta.media.0.codec.long_name">MP3 (MPEG audio layer 3)</property>
  <property name="meta.media.0.codec.bit_rate">126741</property>
  <property name="meta.attr.artist.markup">Masato Nakamura 2</property>
  <property name="meta.attr.album.markup">Sonic the Hedgehog 2 OST</property>
  <property name="meta.attr.TSIZ.markup">178496</property>
  <property name="meta.attr.title.markup">Title Screen</property>
  <property name="meta.attr.track.markup">1</property>
  <property name="meta.attr.comment.markup">#gamemp3s / DALnet</property>
  <property name="meta.attr.genre.markup">Game</property>
  <property name="meta.attr.date.markup">1992</property>
  <property name="seekable">1</property>
  <property name="audio_index">0</property>
  <property name="video_index">-1</property>
  <property name="astream">0</property>
  <property name="kdenlive:folderid">15</property>
  <property name="kdenlive:id">16</property>
  <property name="kdenlive:control_uuid">{74917dac-196e-4839-b1ff-00f3b58587b1}</property>
  <property name="kdenlive:clip_type">1</property>
  <property name="kdenlive:file_size">179008</property>
  <property name="kdenlive:file_hash">90f2a733034551100379fb05fc67c282</property>
 </chain>
 <chain id="chain19" out="00:01:41.458">
  <property name="length">2433</property>
  <property name="eof">pause</property>
  <property name="resource">ost2/Sonic The Hedgehog 2 - OST/02_options_screen.mp3</property>
  <property name="mlt_service">avformat</property>
  <property name="meta.media.nb_streams">1</property>
  <property name="meta.media.0.stream.type">audio</property>
  <property name="meta.media.0.codec.sample_fmt">fltp</property>
  <property name="meta.media.0.codec.sample_rate">44100</property>
  <property name="meta.media.0.codec.channels">2</property>
  <property name="meta.media.0.codec.layout">stereo</property>
  <property name="meta.media.0.codec.name">mp3float</property>
  <property name="meta.media.0.codec.long_name">MP3 (MPEG audio layer 3)</property>
  <property name="meta.media.0.codec.bit_rate">140222</property>
  <property name="meta.attr.artist.markup">Masato Nakamura 2</property>
  <property name="meta.attr.album.markup">Sonic the Hedgehog 2 OST</property>
  <property name="meta.attr.TSIZ.markup">1778940</property>
  <property name="meta.attr.title.markup">Options Screen</property>
  <property name="meta.attr.track.markup">2</property>
  <property name="meta.attr.comment.markup">#gamemp3s / DALnet</property>
  <property name="meta.attr.genre.markup">Game</property>
  <property name="meta.attr.date.markup">1992</property>
  <property name="seekable">1</property>
  <property name="audio_index">0</property>
  <property name="video_index">-1</property>
  <property name="astream">0</property>
  <property name="kdenlive:folderid">15</property>
  <property name="kdenlive:id">17</property>
  <property name="kdenlive:control_uuid">{643f0824-607a-4e14-8f33-b317d5d4625c}</property>
  <property name="kdenlive:clip_type">1</property>
  <property name="kdenlive:file_size">1779452</property>
  <property name="kdenlive:file_hash">7a59a51f18eada8703eaa3e548d3157b</property>
 </chain>
 <chain id="chain20" out="00:00:43.210">
  <property name="length">1037</property>
  <property name="eof">pause</property>
  <property name="resource">ost2/Sonic The Hedgehog 2 - OST/03_stage_select.mp3</property>
  <property name="mlt_service">avformat</property>
  <property name="meta.media.nb_streams">1</property>
  <property name="meta.media.0.stream.type">audio</property>
  <property name="meta.media.0.codec.sample_fmt">fltp</property>
  <property name="meta.media.0.codec.sample_rate">44100</property>
  <property name="meta.media.0.codec.channels">2</property>
  <property name="meta.media.0.codec.layout">stereo</property>
  <property name="meta.media.0.codec.name">mp3float</property>
  <property name="meta.media.0.codec.long_name">MP3 (MPEG audio layer 3)</property>
  <property name="meta.media.0.codec.bit_rate">151943</property>
  <property name="meta.attr.artist.markup">Masato Nakamura 2</property>
  <property name="meta.attr.album.markup">Sonic the Hedgehog 2 OST</property>
  <property name="meta.attr.TSIZ.markup">821734</property>
  <property name="meta.attr.title.markup">Stage Select</property>
  <property name="meta.attr.track.markup">3</property>
  <property name="meta.attr.comment.markup">#gamemp3s / DALnet</property>
  <property name="meta.attr.genre.markup">Game</property>
  <property name="meta.attr.date.markup">1992</property>
  <property name="seekable">1</property>
  <property name="audio_index">0</property>
  <property name="video_index">-1</property>
  <property name="astream">0</property>
  <property name="kdenlive:folderid">15</property>
  <property name="kdenlive:id">18</property>
  <property name="kdenlive:control_uuid">{8ea2e5c6-1b4e-44f2-8025-8845a63729ad}</property>
  <property name="kdenlive:clip_type">1</property>
  <property name="kdenlive:file_size">822246</property>
  <property name="kdenlive:file_hash">97a3582e626bfb8461c06fcbe8ec38f0</property>
  <property name="kdenlive:monitorPosition">0</property>
 </chain>
 <chain id="chain21" out="00:01:46.838">
  <property name="length">2562</property>
  <property name="eof">pause</property>
  <property name="resource">ost2/Sonic The Hedgehog 2 - OST/04_emerald_hill_zone.mp3</property>
  <property name="mlt_service">avformat</property>
  <property name="meta.media.nb_streams">1</property>
  <property name="meta.media.0.stream.type">audio</property>
  <property name="meta.media.0.codec.sample_fmt">fltp</property>
  <property name="meta.media.0.codec.sample_rate">44100</property>
  <property name="meta.media.0.codec.channels">2</property>
  <property name="meta.media.0.codec.layout">stereo</property>
  <property name="meta.media.0.codec.name">mp3float</property>
  <property name="meta.media.0.codec.long_name">MP3 (MPEG audio layer 3)</property>
  <property name="meta.media.0.codec.bit_rate">162371</property>
  <property name="meta.attr.artist.markup">Masato Nakamura 2</property>
  <property name="meta.attr.album.markup">Sonic the Hedgehog 2 OST</property>
  <property name="meta.attr.TSIZ.markup">2169145</property>
  <property name="meta.attr.title.markup">Emerald Hill Zone</property>
  <property name="meta.attr.track.markup">4</property>
  <property name="meta.attr.comment.markup">#gamemp3s / DALnet</property>
  <property name="meta.attr.genre.markup">Game</property>
  <property name="meta.attr.date.markup">1992</property>
  <property name="seekable">1</property>
  <property name="audio_index">0</property>
  <property name="video_index">-1</property>
  <property name="astream">0</property>
  <property name="kdenlive:folderid">15</property>
  <property name="kdenlive:id">19</property>
  <property name="kdenlive:control_uuid">{9321ec2b-c44e-477a-93cd-260312bf943d}</property>
  <property name="kdenlive:clip_type">1</property>
  <property name="kdenlive:file_size">2169657</property>
  <property name="kdenlive:file_hash">8b5075c7e10e56d0b3870cfeb700d605</property>
  <property name="kdenlive:monitorPosition">32</property>
 </chain>
 <chain id="chain22" out="00:01:32.199">
  <property name="length">2211</property>
  <property name="eof">pause</property>
  <property name="resource">ost2/Sonic The Hedgehog 2 - OST/05_emerald_hill_zone_(2_player).mp3</property>
  <property name="mlt_service">avformat</property>
  <property name="meta.media.nb_streams">1</property>
  <property name="meta.media.0.stream.type">audio</property>
  <property name="meta.media.0.codec.sample_fmt">fltp</property>
  <property name="meta.media.0.codec.sample_rate">44100</property>
  <property name="meta.media.0.codec.channels">2</property>
  <property name="meta.media.0.codec.layout">stereo</property>
  <property name="meta.media.0.codec.name">mp3float</property>
  <property name="meta.media.0.codec.long_name">MP3 (MPEG audio layer 3)</property>
  <property name="meta.media.0.codec.bit_rate">159509</property>
  <property name="meta.attr.artist.markup">Masato Nakamura 2</property>
  <property name="meta.attr.album.markup">Sonic the Hedgehog 2 OST</property>
  <property name="meta.attr.TSIZ.markup">1838708</property>
  <property name="meta.attr.title.markup">Emerald Hill Zone (2 Player)</property>
  <property name="meta.attr.track.markup">5</property>
  <property name="meta.attr.comment.markup">#gamemp3s / DALnet</property>
  <property name="meta.attr.genre.markup">Game</property>
  <property name="meta.attr.date.markup">1992</property>
  <property name="seekable">1</property>
  <property name="audio_index">0</property>
  <property name="video_index">-1</property>
  <property name="astream">0</property>
  <property name="kdenlive:folderid">15</property>
  <property name="kdenlive:id">20</property>
  <property name="kdenlive:control_uuid">{f4cc0a5e-4970-4a8d-88eb-b9456337c952}</property>
  <property name="kdenlive:clip_type">1</property>
  <property name="kdenlive:file_size">1839220</property>
  <property name="kdenlive:file_hash">a81735ca4d3196d5cfd0613d53355915</property>
  <property name="kdenlive:monitorPosition">0</property>
 </chain>
 <chain id="chain23" out="00:02:08.467">
  <property name="length">3081</property>
  <property name="eof">pause</property>
  <property name="resource">ost2/Sonic The Hedgehog 2 - OST/06_chemical_plant_zone.mp3</property>
  <property name="mlt_service">avformat</property>
  <property name="meta.media.nb_streams">1</property>
  <property name="meta.media.0.stream.type">audio</property>
  <property name="meta.media.0.codec.sample_fmt">fltp</property>
  <property name="meta.media.0.codec.sample_rate">44100</property>
  <property name="meta.media.0.codec.channels">2</property>
  <property name="meta.media.0.codec.layout">stereo</property>
  <property name="meta.media.0.codec.name">mp3float</property>
  <property name="meta.media.0.codec.long_name">MP3 (MPEG audio layer 3)</property>
  <property name="meta.media.0.codec.bit_rate">170987</property>
  <property name="meta.attr.artist.markup">Masato Nakamura 2</property>
  <property name="meta.attr.album.markup">Sonic the Hedgehog 2 OST</property>
  <property name="meta.attr.TSIZ.markup">2746527</property>
  <property name="meta.attr.title.markup">Chemical Plant Zone</property>
  <property name="meta.attr.track.markup">6</property>
  <property name="meta.attr.comment.markup">#gamemp3s / DALnet</property>
  <property name="meta.attr.genre.markup">Game</property>
  <property name="meta.attr.date.markup">1992</property>
  <property name="seekable">1</property>
  <property name="audio_index">0</property>
  <property name="video_index">-1</property>
  <property name="astream">0</property>
  <property name="kdenlive:folderid">15</property>
  <property name="kdenlive:id">21</property>
  <property name="kdenlive:control_uuid">{1d6def92-f41b-463b-9c78-851d47ce1299}</property>
  <property name="kdenlive:clip_type">1</property>
  <property name="kdenlive:file_size">2747039</property>
  <property name="kdenlive:file_hash">d686a2a2c6a913b404284a67fa95dd1a</property>
 </chain>
 <chain id="chain24" out="00:01:32.449">
  <property name="length">2217</property>
  <property name="eof">pause</property>
  <property name="resource">ost2/Sonic The Hedgehog 2 - OST/07_aquatic_ruin_zone.mp3</property>
  <property name="mlt_service">avformat</property>
  <property name="meta.media.nb_streams">1</property>
  <property name="meta.media.0.stream.type">audio</property>
  <property name="meta.media.0.codec.sample_fmt">fltp</property>
  <property name="meta.media.0.codec.sample_rate">44100</property>
  <property name="meta.media.0.codec.channels">2</property>
  <property name="meta.media.0.codec.layout">stereo</property>
  <property name="meta.media.0.codec.name">mp3float</property>
  <property name="meta.media.0.codec.long_name">MP3 (MPEG audio layer 3)</property>
  <property name="meta.media.0.codec.bit_rate">152464</property>
  <property name="meta.attr.artist.markup">Masato Nakamura 2</property>
  <property name="meta.attr.album.markup">Sonic the Hedgehog 2 OST</property>
  <property name="meta.attr.TSIZ.markup">1762484</property>
  <property name="meta.attr.title.markup">Aquatic Ruin Zone</property>
  <property name="meta.attr.track.markup">7</property>
  <property name="meta.attr.comment.markup">#gamemp3s / DALnet</property>
  <property name="meta.attr.genre.markup">Game</property>
  <property name="meta.attr.date.markup">1992</property>
  <property name="seekable">1</property>
  <property name="audio_index">0</property>
  <property name="video_index">-1</property>
  <property name="astream">0</property>
  <property name="kdenlive:folderid">15</property>
  <property name="kdenlive:id">22</property>
  <property name="kdenlive:control_uuid">{8972a563-44cf-4154-a8e1-04fbad057245}</property>
  <property name="kdenlive:clip_type">1</property>
  <property name="kdenlive:file_size">1762996</property>
  <property name="kdenlive:file_hash">dcfe96033d6592d04c057327d330528c</property>
  <property name="kdenlive:monitorPosition">0</property>
 </chain>
 <chain id="chain25" out="00:02:18.977">
  <property name="length">3333</property>
  <property name="eof">pause</property>
  <property name="resource">ost2/Sonic The Hedgehog 2 - OST/08_casino_night_zone.mp3</property>
  <property name="mlt_service">avformat</property>
  <property name="meta.media.nb_streams">1</property>
  <property name="meta.media.0.stream.type">audio</property>
  <property name="meta.media.0.codec.sample_fmt">fltp</property>
  <property name="meta.media.0.codec.sample_rate">44100</property>
  <property name="meta.media.0.codec.channels">2</property>
  <property name="meta.media.0.codec.layout">stereo</property>
  <property name="meta.media.0.codec.name">mp3float</property>
  <property name="meta.media.0.codec.long_name">MP3 (MPEG audio layer 3)</property>
  <property name="meta.media.0.codec.bit_rate">154934</property>
  <property name="meta.attr.artist.markup">Masato Nakamura 2</property>
  <property name="meta.attr.album.markup">Sonic the Hedgehog 2 OST</property>
  <property name="meta.attr.TSIZ.markup">2692055</property>
  <property name="meta.attr.title.markup">Casino Night Zone</property>
  <property name="meta.attr.track.markup">8</property>
  <property name="meta.attr.comment.markup">#gamemp3s / DALnet</property>
  <property name="meta.attr.genre.markup">Game</property>
  <property name="meta.attr.date.markup">1992</property>
  <property name="seekable">1</property>
  <property name="audio_index">0</property>
  <property name="video_index">-1</property>
  <property name="astream">0</property>
  <property name="kdenlive:folderid">15</property>
  <property name="kdenlive:id">23</property>
  <property name="kdenlive:control_uuid">{20878161-2ad4-4d91-9b77-a1a03cde2e46}</property>
  <property name="kdenlive:clip_type">1</property>
  <property name="kdenlive:file_size">2692567</property>
  <property name="kdenlive:file_hash">92e2fbe0f53baaf90d322958f9b2a99b</property>
  <property name="kdenlive:monitorPosition">0</property>
 </chain>
 <chain id="chain26" out="00:01:47.381">
  <property name="length">2575</property>
  <property name="eof">pause</property>
  <property name="resource">ost2/Sonic The Hedgehog 2 - OST/09_casino_night_zone_(2_player).mp3</property>
  <property name="mlt_service">avformat</property>
  <property name="meta.media.nb_streams">1</property>
  <property name="meta.media.0.stream.type">audio</property>
  <property name="meta.media.0.codec.sample_fmt">fltp</property>
  <property name="meta.media.0.codec.sample_rate">44100</property>
  <property name="meta.media.0.codec.channels">2</property>
  <property name="meta.media.0.codec.layout">stereo</property>
  <property name="meta.media.0.codec.name">mp3float</property>
  <property name="meta.media.0.codec.long_name">MP3 (MPEG audio layer 3)</property>
  <property name="meta.media.0.codec.bit_rate">147209</property>
  <property name="meta.attr.artist.markup">Masato Nakamura 2</property>
  <property name="meta.attr.album.markup">Sonic the Hedgehog 2 OST</property>
  <property name="meta.attr.TSIZ.markup">1976691</property>
  <property name="meta.attr.title.markup">Casino Night Zone (2 Player)</property>
  <property name="meta.attr.track.markup">9</property>
  <property name="meta.attr.comment.markup">#gamemp3s / DALnet</property>
  <property name="meta.attr.genre.markup">Game</property>
  <property name="meta.attr.date.markup">1992</property>
  <property name="seekable">1</property>
  <property name="audio_index">0</property>
  <property name="video_index">-1</property>
  <property name="astream">0</property>
  <property name="kdenlive:folderid">15</property>
  <property name="kdenlive:id">24</property>
  <property name="kdenlive:control_uuid">{16e8fe32-1bd4-41a7-bbc6-3258b7fcfd8d}</property>
  <property name="kdenlive:clip_type">1</property>
  <property name="kdenlive:file_size">1977203</property>
  <property name="kdenlive:file_hash">b2630743c020edb75097b84217944191</property>
 </chain>
 <chain id="chain27" out="00:01:44.920">
  <property name="length">2516</property>
  <property name="eof">pause</property>
  <property name="resource">ost2/Sonic The Hedgehog 2 - OST/10_hill_top_zone.mp3</property>
  <property name="mlt_service">avformat</property>
  <property name="meta.media.nb_streams">1</property>
  <property name="meta.media.0.stream.type">audio</property>
  <property name="meta.media.0.codec.sample_fmt">fltp</property>
  <property name="meta.media.0.codec.sample_rate">44100</property>
  <property name="meta.media.0.codec.channels">2</property>
  <property name="meta.media.0.codec.layout">stereo</property>
  <property name="meta.media.0.codec.name">mp3float</property>
  <property name="meta.media.0.codec.long_name">MP3 (MPEG audio layer 3)</property>
  <property name="meta.media.0.codec.bit_rate">144416</property>
  <property name="meta.attr.artist.markup">Masato Nakamura 2</property>
  <property name="meta.attr.album.markup">Sonic the Hedgehog 2 OST</property>
  <property name="meta.attr.TSIZ.markup">1894389</property>
  <property name="meta.attr.title.markup">Hill Top Zone</property>
  <property name="meta.attr.track.markup">10</property>
  <property name="meta.attr.comment.markup">#gamemp3s / DALnet</property>
  <property name="meta.attr.genre.markup">Game</property>
  <property name="meta.attr.date.markup">1992</property>
  <property name="seekable">1</property>
  <property name="audio_index">0</property>
  <property name="video_index">-1</property>
  <property name="astream">0</property>
  <property name="kdenlive:folderid">15</property>
  <property name="kdenlive:id">25</property>
  <property name="kdenlive:control_uuid">{fa4d4c8d-262c-441e-8142-753fdd7c4e00}</property>
  <property name="kdenlive:clip_type">1</property>
  <property name="kdenlive:file_size">1894901</property>
  <property name="kdenlive:file_hash">3d79127a359bc0c617a14c76359dba09</property>
 </chain>
 <chain id="chain28" out="00:01:59.559">
  <property name="length">2867</property>
  <property name="eof">pause</property>
  <property name="resource">ost2/Sonic The Hedgehog 2 - OST/11_hidden_palace_zone.mp3</property>
  <property name="mlt_service">avformat</property>
  <property name="meta.media.nb_streams">1</property>
  <property name="meta.media.0.stream.type">audio</property>
  <property name="meta.media.0.codec.sample_fmt">fltp</property>
  <property name="meta.media.0.codec.sample_rate">44100</property>
  <property name="meta.media.0.codec.channels">2</property>
  <property name="meta.media.0.codec.layout">stereo</property>
  <property name="meta.media.0.codec.name">mp3float</property>
  <property name="meta.media.0.codec.long_name">MP3 (MPEG audio layer 3)</property>
  <property name="meta.media.0.codec.bit_rate">136365</property>
  <property name="meta.attr.artist.markup">Masato Nakamura 2</property>
  <property name="meta.attr.album.markup">Sonic the Hedgehog 2 OST</property>
  <property name="meta.attr.TSIZ.markup">2038595</property>
  <property name="meta.attr.title.markup">Hidden Palace Zone</property>
  <property name="meta.attr.track.markup">11</property>
  <property name="meta.attr.comment.markup">#gamemp3s / DALnet</property>
  <property name="meta.attr.genre.markup">Game</property>
  <property name="meta.attr.date.markup">1992</property>
  <property name="seekable">1</property>
  <property name="audio_index">0</property>
  <property name="video_index">-1</property>
  <property name="astream">0</property>
  <property name="kdenlive:folderid">15</property>
  <property name="kdenlive:id">26</property>
  <property name="kdenlive:control_uuid">{1ecdeda6-7f85-4a54-ab81-4debc9db5008}</property>
  <property name="kdenlive:clip_type">1</property>
  <property name="kdenlive:file_size">2039107</property>
  <property name="kdenlive:file_hash">64e91970d37e53b64c2e60c1dee12d1e</property>
 </chain>
 <chain id="chain29" out="00:01:31.240">
  <property name="length">2188</property>
  <property name="eof">pause</property>
  <property name="resource">ost2/Sonic The Hedgehog 2 - OST/12_boss.mp3</property>
  <property name="mlt_service">avformat</property>
  <property name="meta.media.nb_streams">1</property>
  <property name="meta.media.0.stream.type">audio</property>
  <property name="meta.media.0.codec.sample_fmt">fltp</property>
  <property name="meta.media.0.codec.sample_rate">44100</property>
  <property name="meta.media.0.codec.channels">2</property>
  <property name="meta.media.0.codec.layout">stereo</property>
  <property name="meta.media.0.codec.name">mp3float</property>
  <property name="meta.media.0.codec.long_name">MP3 (MPEG audio layer 3)</property>
  <property name="meta.media.0.codec.bit_rate">160940</property>
  <property name="meta.attr.artist.markup">Masato Nakamura 2</property>
  <property name="meta.attr.album.markup">Sonic the Hedgehog 2 OST</property>
  <property name="meta.attr.TSIZ.markup">1836293</property>
  <property name="meta.attr.title.markup">Boss</property>
  <property name="meta.attr.track.markup">12</property>
  <property name="meta.attr.comment.markup">#gamemp3s / DALnet</property>
  <property name="meta.attr.genre.markup">Game</property>
  <property name="meta.attr.date.markup">1992</property>
  <property name="seekable">1</property>
  <property name="audio_index">0</property>
  <property name="video_index">-1</property>
  <property name="astream">0</property>
  <property name="kdenlive:folderid">15</property>
  <property name="kdenlive:id">27</property>
  <property name="kdenlive:control_uuid">{dfe9711c-57e0-4e6c-9a54-75263c7e27c5}</property>
  <property name="kdenlive:clip_type">1</property>
  <property name="kdenlive:file_size">1836805</property>
  <property name="kdenlive:file_hash">a5dbdf6fa8e4d0d890583eef29f6201e</property>
  <property name="kdenlive:monitorPosition">165</property>
 </chain>
 <chain id="chain30" out="00:00:11.678">
  <property name="length">281</property>
  <property name="eof">pause</property>
  <property name="resource">ost2/Sonic The Hedgehog 2 - OST/13_continue.mp3</property>
  <property name="mlt_service">avformat</property>
  <property name="meta.media.nb_streams">1</property>
  <property name="meta.media.0.stream.type">audio</property>
  <property name="meta.media.0.codec.sample_fmt">fltp</property>
  <property name="meta.media.0.codec.sample_rate">44100</property>
  <property name="meta.media.0.codec.channels">2</property>
  <property name="meta.media.0.codec.layout">stereo</property>
  <property name="meta.media.0.codec.name">mp3float</property>
  <property name="meta.media.0.codec.long_name">MP3 (MPEG audio layer 3)</property>
  <property name="meta.media.0.codec.bit_rate">127854</property>
  <property name="meta.attr.artist.markup">Masato Nakamura 2</property>
  <property name="meta.attr.album.markup">Sonic the Hedgehog 2 OST</property>
  <property name="meta.attr.TSIZ.markup">187577</property>
  <property name="meta.attr.title.markup">Continue?</property>
  <property name="meta.attr.track.markup">13</property>
  <property name="meta.attr.comment.markup">#gamemp3s / DALnet</property>
  <property name="meta.attr.genre.markup">Game</property>
  <property name="meta.attr.date.markup">1992</property>
  <property name="seekable">1</property>
  <property name="audio_index">0</property>
  <property name="video_index">-1</property>
  <property name="astream">0</property>
  <property name="kdenlive:folderid">15</property>
  <property name="kdenlive:id">28</property>
  <property name="kdenlive:control_uuid">{e72c692c-e7d0-4383-8d5a-bafd09d17cdf}</property>
  <property name="kdenlive:clip_type">1</property>
  <property name="kdenlive:file_size">188089</property>
  <property name="kdenlive:file_hash">0b047e14b5e99bc2401a5a5219540a05</property>
 </chain>
 <chain id="chain31" out="00:00:14.181">
  <property name="length">341</property>
  <property name="eof">pause</property>
  <property name="resource">ost2/Sonic The Hedgehog 2 - OST/14_game_over.mp3</property>
  <property name="mlt_service">avformat</property>
  <property name="meta.media.nb_streams">1</property>
  <property name="meta.media.0.stream.type">audio</property>
  <property name="meta.media.0.codec.sample_fmt">fltp</property>
  <property name="meta.media.0.codec.sample_rate">44100</property>
  <property name="meta.media.0.codec.channels">2</property>
  <property name="meta.media.0.codec.layout">stereo</property>
  <property name="meta.media.0.codec.name">mp3float</property>
  <property name="meta.media.0.codec.long_name">MP3 (MPEG audio layer 3)</property>
  <property name="meta.media.0.codec.bit_rate">127077</property>
  <property name="meta.attr.artist.markup">Masato Nakamura 2</property>
  <property name="meta.attr.album.markup">Sonic the Hedgehog 2 OST</property>
  <property name="meta.attr.TSIZ.markup">226274</property>
  <property name="meta.attr.title.markup">Game Over</property>
  <property name="meta.attr.track.markup">14</property>
  <property name="meta.attr.comment.markup">#gamemp3s / DALnet</property>
  <property name="meta.attr.genre.markup">Game</property>
  <property name="meta.attr.date.markup">1992</property>
  <property name="seekable">1</property>
  <property name="audio_index">0</property>
  <property name="video_index">-1</property>
  <property name="astream">0</property>
  <property name="kdenlive:folderid">15</property>
  <property name="kdenlive:id">29</property>
  <property name="kdenlive:control_uuid">{0d3a3a42-3bcd-4822-b517-38e71d390e6f}</property>
  <property name="kdenlive:clip_type">1</property>
  <property name="kdenlive:file_size">226786</property>
  <property name="kdenlive:file_hash">2587e750f81f1973dddddea863f62b4a</property>
 </chain>
 <chain id="chain32" out="00:00:08.217">
  <property name="length">198</property>
  <property name="eof">pause</property>
  <property name="resource">ost2/Sonic The Hedgehog 2 - OST/15_act_cleared.mp3</property>
  <property name="mlt_service">avformat</property>
  <property name="meta.media.nb_streams">1</property>
  <property name="meta.media.0.stream.type">audio</property>
  <property name="meta.media.0.codec.sample_fmt">fltp</property>
  <property name="meta.media.0.codec.sample_rate">44100</property>
  <property name="meta.media.0.codec.channels">2</property>
  <property name="meta.media.0.codec.layout">stereo</property>
  <property name="meta.media.0.codec.name">mp3float</property>
  <property name="meta.media.0.codec.long_name">MP3 (MPEG audio layer 3)</property>
  <property name="meta.media.0.codec.bit_rate">119501</property>
  <property name="meta.attr.artist.markup">Masato Nakamura 2</property>
  <property name="meta.attr.album.markup">Sonic the Hedgehog 2 OST</property>
  <property name="meta.attr.TSIZ.markup">123434</property>
  <property name="meta.attr.title.markup">Act Cleared</property>
  <property name="meta.attr.track.markup">15</property>
  <property name="meta.attr.comment.markup">#gamemp3s / DALnet</property>
  <property name="meta.attr.genre.markup">Game</property>
  <property name="meta.attr.date.markup">1992</property>
  <property name="seekable">1</property>
  <property name="audio_index">0</property>
  <property name="video_index">-1</property>
  <property name="astream">0</property>
  <property name="kdenlive:folderid">15</property>
  <property name="kdenlive:id">30</property>
  <property name="kdenlive:control_uuid">{54799c4f-1545-42fe-a80f-82740ef261da}</property>
  <property name="kdenlive:clip_type">1</property>
  <property name="kdenlive:file_size">123946</property>
  <property name="kdenlive:file_hash">ed7ad942a8caf5db924aa52337a11bd3</property>
 </chain>
 <chain id="chain33" out="00:01:47.965">
  <property name="length">2589</property>
  <property name="eof">pause</property>
  <property name="resource">ost2/Sonic The Hedgehog 2 - OST/16_special_stage.mp3</property>
  <property name="mlt_service">avformat</property>
  <property name="meta.media.nb_streams">1</property>
  <property name="meta.media.0.stream.type">audio</property>
  <property name="meta.media.0.codec.sample_fmt">fltp</property>
  <property name="meta.media.0.codec.sample_rate">44100</property>
  <property name="meta.media.0.codec.channels">2</property>
  <property name="meta.media.0.codec.layout">stereo</property>
  <property name="meta.media.0.codec.name">mp3float</property>
  <property name="meta.media.0.codec.long_name">MP3 (MPEG audio layer 3)</property>
  <property name="meta.media.0.codec.bit_rate">157553</property>
  <property name="meta.attr.artist.markup">Masato Nakamura 2</property>
  <property name="meta.attr.album.markup">Sonic the Hedgehog 2 OST</property>
  <property name="meta.attr.TSIZ.markup">2126894</property>
  <property name="meta.attr.title.markup">Special Stage</property>
  <property name="meta.attr.track.markup">16</property>
  <property name="meta.attr.comment.markup">#gamemp3s / DALnet</property>
  <property name="meta.attr.genre.markup">Game</property>
  <property name="meta.attr.date.markup">1992</property>
  <property name="seekable">1</property>
  <property name="audio_index">0</property>
  <property name="video_index">-1</property>
  <property name="astream">0</property>
  <property name="kdenlive:folderid">15</property>
  <property name="kdenlive:id">31</property>
  <property name="kdenlive:control_uuid">{319fbf1a-4f8a-4da0-81eb-745a33b11e87}</property>
  <property name="kdenlive:clip_type">1</property>
  <property name="kdenlive:file_size">2127406</property>
  <property name="kdenlive:file_hash">3d880cfd9cb7c0c0dba0bf57e18bbbc4</property>
 </chain>
 <chain id="chain34" out="00:00:05.797">
  <property name="length">140</property>
  <property name="eof">pause</property>
  <property name="resource">ost2/Sonic The Hedgehog 2 - OST/17_extra_life.mp3</property>
  <property name="mlt_service">avformat</property>
  <property name="meta.media.nb_streams">1</property>
  <property name="meta.media.0.stream.type">audio</property>
  <property name="meta.media.0.codec.sample_fmt">fltp</property>
  <property name="meta.media.0.codec.sample_rate">44100</property>
  <property name="meta.media.0.codec.channels">2</property>
  <property name="meta.media.0.codec.layout">stereo</property>
  <property name="meta.media.0.codec.name">mp3float</property>
  <property name="meta.media.0.codec.long_name">MP3 (MPEG audio layer 3)</property>
  <property name="meta.media.0.codec.bit_rate">108955</property>
  <property name="meta.attr.artist.markup">Masato Nakamura 2</property>
  <property name="meta.attr.album.markup">Sonic the Hedgehog 2 OST</property>
  <property name="meta.attr.TSIZ.markup">79821</property>
  <property name="meta.attr.title.markup">Extra Life</property>
  <property name="meta.attr.track.markup">17</property>
  <property name="meta.attr.comment.markup">#gamemp3s / DALnet</property>
  <property name="meta.attr.genre.markup">Game</property>
  <property name="meta.attr.date.markup">1992</property>
  <property name="seekable">1</property>
  <property name="audio_index">0</property>
  <property name="video_index">-1</property>
  <property name="astream">0</property>
  <property name="kdenlive:folderid">15</property>
  <property name="kdenlive:id">32</property>
  <property name="kdenlive:control_uuid">{eb6c1e16-f696-4b57-b1c0-ef4b2e1bedd2}</property>
  <property name="kdenlive:clip_type">1</property>
  <property name="kdenlive:file_size">80333</property>
  <property name="kdenlive:file_hash">2b212103465e50523b58756f8fe7da1e</property>
 </chain>
 <chain id="chain35" out="00:00:40.290">
  <property name="length">967</property>
  <property name="eof">pause</property>
  <property name="resource">ost2/Sonic The Hedgehog 2 - OST/18_invincible.mp3</property>
  <property name="mlt_service">avformat</property>
  <property name="meta.media.nb_streams">1</property>
  <property name="meta.media.0.stream.type">audio</property>
  <property name="meta.media.0.codec.sample_fmt">fltp</property>
  <property name="meta.media.0.codec.sample_rate">44100</property>
  <property name="meta.media.0.codec.channels">2</property>
  <property name="meta.media.0.codec.layout">stereo</property>
  <property name="meta.media.0.codec.name">mp3float</property>
  <property name="meta.media.0.codec.long_name">MP3 (MPEG audio layer 3)</property>
  <property name="meta.media.0.codec.bit_rate">158039</property>
  <property name="meta.attr.artist.markup">Masato Nakamura 2</property>
  <property name="meta.attr.album.markup">Sonic the Hedgehog 2 OST</property>
  <property name="meta.attr.TSIZ.markup">796902</property>
  <property name="meta.attr.title.markup">Invincible</property>
  <property name="meta.attr.track.markup">18</property>
  <property name="meta.attr.comment.markup">#gamemp3s / DALnet</property>
  <property name="meta.attr.genre.markup">Game</property>
  <property name="meta.attr.date.markup">1992</property>
  <property name="seekable">1</property>
  <property name="audio_index">0</property>
  <property name="video_index">-1</property>
  <property name="astream">0</property>
  <property name="kdenlive:folderid">15</property>
  <property name="kdenlive:id">33</property>
  <property name="kdenlive:control_uuid">{656c3872-3c0c-4bf7-b4f2-8fe0bdd94a2b}</property>
  <property name="kdenlive:clip_type">1</property>
  <property name="kdenlive:file_size">797414</property>
  <property name="kdenlive:file_hash">5f29283a3851fab95780d478a6bc8fe6</property>
 </chain>
 <chain id="chain36" out="00:01:01.376">
  <property name="length">1472</property>
  <property name="eof">pause</property>
  <property name="resource">ost2/Sonic The Hedgehog 2 - OST/19_super_sonic.mp3</property>
  <property name="mlt_service">avformat</property>
  <property name="meta.media.nb_streams">1</property>
  <property name="meta.media.0.stream.type">audio</property>
  <property name="meta.media.0.codec.sample_fmt">fltp</property>
  <property name="meta.media.0.codec.sample_rate">44100</property>
  <property name="meta.media.0.codec.channels">2</property>
  <property name="meta.media.0.codec.layout">stereo</property>
  <property name="meta.media.0.codec.name">mp3float</property>
  <property name="meta.media.0.codec.long_name">MP3 (MPEG audio layer 3)</property>
  <property name="meta.media.0.codec.bit_rate">148520</property>
  <property name="meta.attr.artist.markup">Masato Nakamura 2</property>
  <property name="meta.attr.album.markup">Sonic the Hedgehog 2 OST</property>
  <property name="meta.attr.TSIZ.markup">1140279</property>
  <property name="meta.attr.title.markup">Super Sonic</property>
  <property name="meta.attr.track.markup">19</property>
  <property name="meta.attr.comment.markup">#gamemp3s / DALnet</property>
  <property name="meta.attr.genre.markup">Game</property>
  <property name="meta.attr.date.markup">1992</property>
  <property name="seekable">1</property>
  <property name="audio_index">0</property>
  <property name="video_index">-1</property>
  <property name="astream">0</property>
  <property name="kdenlive:folderid">15</property>
  <property name="kdenlive:id">34</property>
  <property name="kdenlive:control_uuid">{ec6c8fc7-8b66-44ec-a50f-e00a39eff5a6}</property>
  <property name="kdenlive:clip_type">1</property>
  <property name="kdenlive:file_size">1140791</property>
  <property name="kdenlive:file_hash">1b20e0a3a3671801101393d3ccec6c80</property>
 </chain>
 <chain id="chain37" out="00:01:51.843">
  <property name="length">2682</property>
  <property name="eof">pause</property>
  <property name="resource">ost2/Sonic The Hedgehog 2 - OST/20_mystic_cave_zone.mp3</property>
  <property name="mlt_service">avformat</property>
  <property name="meta.media.nb_streams">1</property>
  <property name="meta.media.0.stream.type">audio</property>
  <property name="meta.media.0.codec.sample_fmt">fltp</property>
  <property name="meta.media.0.codec.sample_rate">44100</property>
  <property name="meta.media.0.codec.channels">2</property>
  <property name="meta.media.0.codec.layout">stereo</property>
  <property name="meta.media.0.codec.name">mp3float</property>
  <property name="meta.media.0.codec.long_name">MP3 (MPEG audio layer 3)</property>
  <property name="meta.media.0.codec.bit_rate">150763</property>
  <property name="meta.attr.artist.markup">Masato Nakamura 2</property>
  <property name="meta.attr.album.markup">Sonic the Hedgehog 2 OST</property>
  <property name="meta.attr.TSIZ.markup">2108593</property>
  <property name="meta.attr.title.markup">Mystic Cave Zone</property>
  <property name="meta.attr.track.markup">20</property>
  <property name="meta.attr.comment.markup">#gamemp3s / DALnet</property>
  <property name="meta.attr.genre.markup">Game</property>
  <property name="meta.attr.date.markup">1992</property>
  <property name="seekable">1</property>
  <property name="audio_index">0</property>
  <property name="video_index">-1</property>
  <property name="astream">0</property>
  <property name="kdenlive:folderid">15</property>
  <property name="kdenlive:id">35</property>
  <property name="kdenlive:control_uuid">{f432b4fe-33f2-4f7b-83d2-07f2680a7ec8}</property>
  <property name="kdenlive:clip_type">1</property>
  <property name="kdenlive:file_size">2109105</property>
  <property name="kdenlive:file_hash">a21179d22f269be834c0bb652bb71563</property>
 </chain>
 <chain id="chain38" out="00:02:03.462">
  <property name="length">2961</property>
  <property name="eof">pause</property>
  <property name="resource">ost2/Sonic The Hedgehog 2 - OST/21_mystic_cave_zone_(2_player).mp3</property>
  <property name="mlt_service">avformat</property>
  <property name="meta.media.nb_streams">1</property>
  <property name="meta.media.0.stream.type">audio</property>
  <property name="meta.media.0.codec.sample_fmt">fltp</property>
  <property name="meta.media.0.codec.sample_rate">44100</property>
  <property name="meta.media.0.codec.channels">2</property>
  <property name="meta.media.0.codec.layout">stereo</property>
  <property name="meta.media.0.codec.name">mp3float</property>
  <property name="meta.media.0.codec.long_name">MP3 (MPEG audio layer 3)</property>
  <property name="meta.media.0.codec.bit_rate">142290</property>
  <property name="meta.attr.artist.markup">Masato Nakamura 2</property>
  <property name="meta.attr.album.markup">Sonic the Hedgehog 2 OST</property>
  <property name="meta.attr.TSIZ.markup">2196853</property>
  <property name="meta.attr.title.markup">Mystic Cave Zone (2 Player)</property>
  <property name="meta.attr.track.markup">21</property>
  <property name="meta.attr.comment.markup">#gamemp3s / DALnet</property>
  <property name="meta.attr.genre.markup">Game</property>
  <property name="meta.attr.date.markup">1992</property>
  <property name="seekable">1</property>
  <property name="audio_index">0</property>
  <property name="video_index">-1</property>
  <property name="astream">0</property>
  <property name="kdenlive:folderid">15</property>
  <property name="kdenlive:id">36</property>
  <property name="kdenlive:control_uuid">{745d2e03-c0f2-4e8a-86a9-2e388fa52127}</property>
  <property name="kdenlive:clip_type">1</property>
  <property name="kdenlive:file_size">2197365</property>
  <property name="kdenlive:file_hash">68dfa596cec628f806ffc2100f6550ca</property>
 </chain>
 <chain id="chain39" out="00:01:48.006">
  <property name="length">2590</property>
  <property name="eof">pause</property>
  <property name="resource">ost2/Sonic The Hedgehog 2 - OST/22_oil_ocean_zone.mp3</property>
  <property name="mlt_service">avformat</property>
  <property name="meta.media.nb_streams">1</property>
  <property name="meta.media.0.stream.type">audio</property>
  <property name="meta.media.0.codec.sample_fmt">fltp</property>
  <property name="meta.media.0.codec.sample_rate">44100</property>
  <property name="meta.media.0.codec.channels">2</property>
  <property name="meta.media.0.codec.layout">stereo</property>
  <property name="meta.media.0.codec.name">mp3float</property>
  <property name="meta.media.0.codec.long_name">MP3 (MPEG audio layer 3)</property>
  <property name="meta.media.0.codec.bit_rate">137862</property>
  <property name="meta.attr.artist.markup">Masato Nakamura 2</property>
  <property name="meta.attr.album.markup">Sonic the Hedgehog 2 OST</property>
  <property name="meta.attr.TSIZ.markup">1861993</property>
  <property name="meta.attr.title.markup">Oil Ocean Zone</property>
  <property name="meta.attr.track.markup">22</property>
  <property name="meta.attr.comment.markup">#gamemp3s / DALnet</property>
  <property name="meta.attr.genre.markup">Game</property>
  <property name="meta.attr.date.markup">1992</property>
  <property name="seekable">1</property>
  <property name="audio_index">0</property>
  <property name="video_index">-1</property>
  <property name="astream">0</property>
  <property name="kdenlive:folderid">15</property>
  <property name="kdenlive:id">37</property>
  <property name="kdenlive:control_uuid">{d1dedd42-8734-4d97-86f0-5cb1c5f2ef5a}</property>
  <property name="kdenlive:clip_type">1</property>
  <property name="kdenlive:file_size">1862505</property>
  <property name="kdenlive:file_hash">a0119dbba0a5b4f4286e26277410c002</property>
 </chain>
 <chain id="chain40" out="00:01:50.467">
  <property name="length">2649</property>
  <property name="eof">pause</property>
  <property name="resource">ost2/Sonic The Hedgehog 2 - OST/23_metropolis_zone.mp3</property>
  <property name="mlt_service">avformat</property>
  <property name="meta.media.nb_streams">1</property>
  <property name="meta.media.0.stream.type">audio</property>
  <property name="meta.media.0.codec.sample_fmt">fltp</property>
  <property name="meta.media.0.codec.sample_rate">44100</property>
  <property name="meta.media.0.codec.channels">2</property>
  <property name="meta.media.0.codec.layout">stereo</property>
  <property name="meta.media.0.codec.name">mp3float</property>
  <property name="meta.media.0.codec.long_name">MP3 (MPEG audio layer 3)</property>
  <property name="meta.media.0.codec.bit_rate">150326</property>
  <property name="meta.attr.artist.markup">Masato Nakamura 2</property>
  <property name="meta.attr.album.markup">Sonic the Hedgehog 2 OST</property>
  <property name="meta.attr.TSIZ.markup">2076463</property>
  <property name="meta.attr.title.markup">Metropolis Zone</property>
  <property name="meta.attr.track.markup">23</property>
  <property name="meta.attr.comment.markup">#gamemp3s / DALnet</property>
  <property name="meta.attr.genre.markup">Game</property>
  <property name="meta.attr.date.markup">1992</property>
  <property name="seekable">1</property>
  <property name="audio_index">0</property>
  <property name="video_index">-1</property>
  <property name="astream">0</property>
  <property name="kdenlive:folderid">15</property>
  <property name="kdenlive:id">38</property>
  <property name="kdenlive:control_uuid">{bd2403fc-1a97-487f-b308-e5bace636a03}</property>
  <property name="kdenlive:clip_type">1</property>
  <property name="kdenlive:file_size">2076975</property>
  <property name="kdenlive:file_hash">2dbd1a6ec211a805917168c220d15815</property>
 </chain>
 <chain id="chain41" out="00:01:35.035">
  <property name="length">2279</property>
  <property name="eof">pause</property>
  <property name="resource">ost2/Sonic The Hedgehog 2 - OST/24_sky_chase_zone.mp3</property>
  <property name="mlt_service">avformat</property>
  <property name="meta.media.nb_streams">1</property>
  <property name="meta.media.0.stream.type">audio</property>
  <property name="meta.media.0.codec.sample_fmt">fltp</property>
  <property name="meta.media.0.codec.sample_rate">44100</property>
  <property name="meta.media.0.codec.channels">2</property>
  <property name="meta.media.0.codec.layout">stereo</property>
  <property name="meta.media.0.codec.name">mp3float</property>
  <property name="meta.media.0.codec.long_name">MP3 (MPEG audio layer 3)</property>
  <property name="meta.media.0.codec.bit_rate">143821</property>
  <property name="meta.attr.artist.markup">Masato Nakamura 2</property>
  <property name="meta.attr.album.markup">Sonic the Hedgehog 2 OST</property>
  <property name="meta.attr.TSIZ.markup">1709079</property>
  <property name="meta.attr.title.markup">Sky Chase Zone</property>
  <property name="meta.attr.track.markup">24</property>
  <property name="meta.attr.comment.markup">#gamemp3s / DALnet</property>
  <property name="meta.attr.genre.markup">Game</property>
  <property name="meta.attr.date.markup">1992</property>
  <property name="seekable">1</property>
  <property name="audio_index">0</property>
  <property name="video_index">-1</property>
  <property name="astream">0</property>
  <property name="kdenlive:folderid">15</property>
  <property name="kdenlive:id">39</property>
  <property name="kdenlive:control_uuid">{1fa95050-edae-455a-8b05-1a74fcc6d459}</property>
  <property name="kdenlive:clip_type">1</property>
  <property name="kdenlive:file_size">1709591</property>
  <property name="kdenlive:file_hash">588ef7834911c061f31ba53c31fdbe29</property>
 </chain>
 <chain id="chain42" out="00:01:50.509">
  <property name="length">2650</property>
  <property name="eof">pause</property>
  <property name="resource">ost2/Sonic The Hedgehog 2 - OST/25_wing_fortress_zone.mp3</property>
  <property name="mlt_service">avformat</property>
  <property name="meta.media.nb_streams">1</property>
  <property name="meta.media.0.stream.type">audio</property>
  <property name="meta.media.0.codec.sample_fmt">fltp</property>
  <property name="meta.media.0.codec.sample_rate">44100</property>
  <property name="meta.media.0.codec.channels">2</property>
  <property name="meta.media.0.codec.layout">stereo</property>
  <property name="meta.media.0.codec.name">mp3float</property>
  <property name="meta.media.0.codec.long_name">MP3 (MPEG audio layer 3)</property>
  <property name="meta.media.0.codec.bit_rate">154686</property>
  <property name="meta.attr.artist.markup">Masato Nakamura 2</property>
  <property name="meta.attr.album.markup">Sonic the Hedgehog 2 OST</property>
  <property name="meta.attr.TSIZ.markup">2137191</property>
  <property name="meta.attr.title.markup">Wing Fortress Zone</property>
  <property name="meta.attr.track.markup">25</property>
  <property name="meta.attr.comment.markup">#gamemp3s / DALnet</property>
  <property name="meta.attr.genre.markup">Game</property>
  <property name="meta.attr.date.markup">1992</property>
  <property name="seekable">1</property>
  <property name="audio_index">0</property>
  <property name="video_index">-1</property>
  <property name="astream">0</property>
  <property name="kdenlive:folderid">15</property>
  <property name="kdenlive:id">40</property>
  <property name="kdenlive:control_uuid">{b0f662e2-b3de-4eec-9cec-02c4d5e84782}</property>
  <property name="kdenlive:clip_type">1</property>
  <property name="kdenlive:file_size">2137703</property>
  <property name="kdenlive:file_hash">c76c73a77791437d7741a054aeb7c155</property>
 </chain>
 <chain id="chain43" out="00:02:09.384">
  <property name="length">3103</property>
  <property name="eof">pause</property>
  <property name="resource">ost2/Sonic The Hedgehog 2 - OST/26_death_egg_zone.mp3</property>
  <property name="mlt_service">avformat</property>
  <property name="meta.media.nb_streams">1</property>
  <property name="meta.media.0.stream.type">audio</property>
  <property name="meta.media.0.codec.sample_fmt">fltp</property>
  <property name="meta.media.0.codec.sample_rate">44100</property>
  <property name="meta.media.0.codec.channels">2</property>
  <property name="meta.media.0.codec.layout">stereo</property>
  <property name="meta.media.0.codec.name">mp3float</property>
  <property name="meta.media.0.codec.long_name">MP3 (MPEG audio layer 3)</property>
  <property name="meta.media.0.codec.bit_rate">145863</property>
  <property name="meta.attr.artist.markup">Masato Nakamura 2</property>
  <property name="meta.attr.album.markup">Sonic the Hedgehog 2 OST</property>
  <property name="meta.attr.TSIZ.markup">2360134</property>
  <property name="meta.attr.title.markup">Death Egg Zone</property>
  <property name="meta.attr.track.markup">26</property>
  <property name="meta.attr.comment.markup">#gamemp3s / DALnet</property>
  <property name="meta.attr.genre.markup">Game</property>
  <property name="meta.attr.date.markup">1992</property>
  <property name="seekable">1</property>
  <property name="audio_index">0</property>
  <property name="video_index">-1</property>
  <property name="astream">0</property>
  <property name="kdenlive:folderid">15</property>
  <property name="kdenlive:id">41</property>
  <property name="kdenlive:control_uuid">{cfecd582-22cd-46fc-8eee-0a9cdf24d0ed}</property>
  <property name="kdenlive:clip_type">1</property>
  <property name="kdenlive:file_size">2360646</property>
  <property name="kdenlive:file_hash">56b0fca04d82f0b2a10fe745bd068164</property>
 </chain>
 <chain id="chain44" out="00:02:14.765">
  <property name="length">3232</property>
  <property name="eof">pause</property>
  <property name="resource">ost2/Sonic The Hedgehog 2 - OST/27_final_boss.mp3</property>
  <property name="mlt_service">avformat</property>
  <property name="meta.media.nb_streams">1</property>
  <property name="meta.media.0.stream.type">audio</property>
  <property name="meta.media.0.codec.sample_fmt">fltp</property>
  <property name="meta.media.0.codec.sample_rate">44100</property>
  <property name="meta.media.0.codec.channels">2</property>
  <property name="meta.media.0.codec.layout">stereo</property>
  <property name="meta.media.0.codec.name">mp3float</property>
  <property name="meta.media.0.codec.long_name">MP3 (MPEG audio layer 3)</property>
  <property name="meta.media.0.codec.bit_rate">159049</property>
  <property name="meta.attr.artist.markup">Masato Nakamura 2</property>
  <property name="meta.attr.album.markup">Sonic the Hedgehog 2 OST</property>
  <property name="meta.attr.TSIZ.markup">2680464</property>
  <property name="meta.attr.title.markup">Final Boss</property>
  <property name="meta.attr.track.markup">27</property>
  <property name="meta.attr.comment.markup">#gamemp3s / DALnet</property>
  <property name="meta.attr.genre.markup">Game</property>
  <property name="meta.attr.date.markup">1992</property>
  <property name="seekable">1</property>
  <property name="audio_index">0</property>
  <property name="video_index">-1</property>
  <property name="astream">0</property>
  <property name="kdenlive:folderid">15</property>
  <property name="kdenlive:id">42</property>
  <property name="kdenlive:control_uuid">{33dcb2a7-3b32-47a0-831c-2a88a7496dbc}</property>
  <property name="kdenlive:clip_type">1</property>
  <property name="kdenlive:file_size">2680976</property>
  <property name="kdenlive:file_hash">bdeaaab42da102b2893c9d7f09fbca0e</property>
 </chain>
 <chain id="chain45" out="00:01:15.515">
  <property name="length">1811</property>
  <property name="eof">pause</property>
  <property name="resource">ost2/Sonic The Hedgehog 2 - OST/28_ending.mp3</property>
  <property name="mlt_service">avformat</property>
  <property name="meta.media.nb_streams">1</property>
  <property name="meta.media.0.stream.type">audio</property>
  <property name="meta.media.0.codec.sample_fmt">fltp</property>
  <property name="meta.media.0.codec.sample_rate">44100</property>
  <property name="meta.media.0.codec.channels">2</property>
  <property name="meta.media.0.codec.layout">stereo</property>
  <property name="meta.media.0.codec.name">mp3float</property>
  <property name="meta.media.0.codec.long_name">MP3 (MPEG audio layer 3)</property>
  <property name="meta.media.0.codec.bit_rate">134130</property>
  <property name="meta.attr.artist.markup">Masato Nakamura 2</property>
  <property name="meta.attr.album.markup">Sonic the Hedgehog 2 OST</property>
  <property name="meta.attr.TSIZ.markup">1266756</property>
  <property name="meta.attr.title.markup">Ending</property>
  <property name="meta.attr.track.markup">28</property>
  <property name="meta.attr.comment.markup">#gamemp3s / DALnet</property>
  <property name="meta.attr.genre.markup">Game</property>
  <property name="meta.attr.date.markup">1992</property>
  <property name="seekable">1</property>
  <property name="audio_index">0</property>
  <property name="video_index">-1</property>
  <property name="astream">0</property>
  <property name="kdenlive:folderid">15</property>
  <property name="kdenlive:id">43</property>
  <property name="kdenlive:control_uuid">{2478692e-147a-46bd-8db4-36c9282d4e99}</property>
  <property name="kdenlive:clip_type">1</property>
  <property name="kdenlive:file_size">1267268</property>
  <property name="kdenlive:file_hash">e6c635747871d6e8786efe7891a2d149</property>
 </chain>
 <chain id="chain46" out="00:02:41.208">
  <property name="length">3866</property>
  <property name="eof">pause</property>
  <property name="resource">ost2/Sonic The Hedgehog 2 - OST/29_staff_credits.mp3</property>
  <property name="mlt_service">avformat</property>
  <property name="meta.media.nb_streams">1</property>
  <property name="meta.media.0.stream.type">audio</property>
  <property name="meta.media.0.codec.sample_fmt">fltp</property>
  <property name="meta.media.0.codec.sample_rate">44100</property>
  <property name="meta.media.0.codec.channels">2</property>
  <property name="meta.media.0.codec.layout">stereo</property>
  <property name="meta.media.0.codec.name">mp3float</property>
  <property name="meta.media.0.codec.long_name">MP3 (MPEG audio layer 3)</property>
  <property name="meta.media.0.codec.bit_rate">156851</property>
  <property name="meta.attr.artist.markup">Masato Nakamura 2</property>
  <property name="meta.attr.album.markup">Sonic the Hedgehog 2 OST</property>
  <property name="meta.attr.TSIZ.markup">3161213</property>
  <property name="meta.attr.title.markup">Staff Credits</property>
  <property name="meta.attr.track.markup">29</property>
  <property name="meta.attr.comment.markup">#gamemp3s / DALnet</property>
  <property name="meta.attr.genre.markup">Game</property>
  <property name="meta.attr.date.markup">1992</property>
  <property name="seekable">1</property>
  <property name="audio_index">0</property>
  <property name="video_index">-1</property>
  <property name="astream">0</property>
  <property name="kdenlive:folderid">15</property>
  <property name="kdenlive:id">44</property>
  <property name="kdenlive:control_uuid">{50746a1c-acbe-4dee-93fa-4080f86653c0}</property>
  <property name="kdenlive:clip_type">1</property>
  <property name="kdenlive:file_size">3161725</property>
  <property name="kdenlive:file_hash">8f8c2525925a62c554e178b81586e825</property>
 </chain>
 <playlist id="main_bin">
  <property name="kdenlive:folder.-1.2">Sequences</property>
  <property name="kdenlive:folder.-1.12">ost2</property>
  <property name="kdenlive:sequenceFolder">2</property>
  <property name="kdenlive:docproperties.activetimeline">{a1c6ff07-0e79-459a-9520-a33d3eb81031}</property>
  <property name="kdenlive:docproperties.audioChannels">2</property>
  <property name="kdenlive:docproperties.binsort">0</property>
  <property name="kdenlive:docproperties.browserurl">/General Movies/</property>
  <property name="kdenlive:docproperties.documentid">1755349010297</property>
  <property name="kdenlive:docproperties.enableTimelineZone">0</property>
  <property name="kdenlive:docproperties.enableexternalproxy">0</property>
  <property name="kdenlive:docproperties.enableproxy">0</property>
  <property name="kdenlive:docproperties.externalproxyparams">./;;.LRV;./;;.MP4</property>
  <property name="kdenlive:docproperties.generateimageproxy">0</property>
  <property name="kdenlive:docproperties.generateproxy">0</property>
  <property name="kdenlive:docproperties.guidesCategories">[
    {
        "color": "#9b59b6",
        "comment": "Category 1",
        "index": 0
    },
    {
        "color": "#3daee9",
        "comment": "Category 2",
        "index": 1
    },
    {
        "color": "#1abc9c",
        "comment": "Category 3",
        "index": 2
    },
    {
        "color": "#1cdc9a",
        "comment": "Category 4",
        "index": 3
    },
    {
        "color": "#c9ce3b",
        "comment": "Category 5",
        "index": 4
    },
    {
        "color": "#fdbc4b",
        "comment": "Category 6",
        "index": 5
    },
    {
        "color": "#f39c1f",
        "comment": "Category 7",
        "index": 6
    },
    {
        "color": "#f47750",
        "comment": "Category 8",
        "index": 7
    },
    {
        "color": "#da4453",
        "comment": "Category 9",
        "index": 8
    }
]
</property>
  <property name="kdenlive:docproperties.kdenliveversion">25.04.2</property>
  <property name="kdenlive:docproperties.opensequences">{a1c6ff07-0e79-459a-9520-a33d3eb81031}</property>
  <property name="kdenlive:docproperties.previewextension"/>
  <property name="kdenlive:docproperties.previewparameters"/>
  <property name="kdenlive:docproperties.profile">AppData/Roaming/kdenlive/profiles/customprofile22</property>
  <property name="kdenlive:docproperties.proxyextension"/>
  <property name="kdenlive:docproperties.proxyimageminsize">2000</property>
  <property name="kdenlive:docproperties.proxyimagesize">800</property>
  <property name="kdenlive:docproperties.proxyminsize">1000</property>
  <property name="kdenlive:docproperties.proxyparams"/>
  <property name="kdenlive:docproperties.proxyresize">640</property>
  <property name="kdenlive:docproperties.rendercategory">Ultra-High Definition (4K)</property>
  <property name="kdenlive:docproperties.rendercustomquality">-1</property>
  <property name="kdenlive:docproperties.renderendguide">-1</property>
  <property name="kdenlive:docproperties.renderexportaudio">0</property>
  <property name="kdenlive:docproperties.renderfullcolorrange">0</property>
  <property name="kdenlive:docproperties.rendermode">1</property>
  <property name="kdenlive:docproperties.renderplay">0</property>
  <property name="kdenlive:docproperties.renderpreview">0</property>
  <property name="kdenlive:docproperties.renderprofile">MKV-H265 (HEVC)</property>
  <property name="kdenlive:docproperties.renderrescale">0</property>
  <property name="kdenlive:docproperties.renderrescaleheight">803</property>
  <property name="kdenlive:docproperties.renderrescalewidth">1920</property>
  <property name="kdenlive:docproperties.renderspeed">6</property>
  <property name="kdenlive:docproperties.renderstartguide">-1</property>
  <property name="kdenlive:docproperties.rendertcoverlay">0</property>
  <property name="kdenlive:docproperties.rendertctype">-1</property>
  <property name="kdenlive:docproperties.rendertwopass">0</property>
  <property name="kdenlive:docproperties.renderurl">Sonic - DeSchwartzed 2022.mkv</property>
  <property name="kdenlive:docproperties.seekOffset">7193</property>
  <property name="kdenlive:docproperties.sessionid">{194c342b-158b-44dd-9665-842c3de31e80}</property>
  <property name="kdenlive:docproperties.uuid">{a1c6ff07-0e79-459a-9520-a33d3eb81031}</property>
  <property name="kdenlive:docproperties.version">1.1</property>
  <property name="kdenlive:expandedFolders">12</property>
  <property name="kdenlive:binZoom">4</property>
  <property name="kdenlive:extraBins">project_bin:-1:0</property>
  <property name="kdenlive:documentnotes">&lt;!DOCTYPE HTML PUBLIC "-//W3C//DTD HTML 4.0//EN" "http://www.w3.org/TR/REC-html40/strict.dtd">
&lt;html>&lt;head>&lt;meta name="qrichtext" content="1" />&lt;meta charset="utf-8" />&lt;style type="text/css">
p, li { white-space: pre-wrap; }
hr { height: 1px; border-width: 0; }
li.unchecked::marker { content: "\2610"; }
li.checked::marker { content: "\2612"; }
&lt;/style>&lt;/head>&lt;body style=" font-family:'Segoe UI'; font-size:9pt; font-weight:400; font-style:normal;">
&lt;p style=" margin-top:0px; margin-bottom:0px; margin-left:0px; margin-right:0px; -qt-block-indent:0; text-indent:0px;">Errors found when opening project file (Sat Aug 16 22:53:08 2025)&lt;br />&lt;a href="{a1c6ff07-0e79-459a-9520-a33d3eb81031}!133770?1">&lt;span style=" text-decoration: underline; color:#1d99f3;">A2 01:32:59:09&lt;/span>&lt;/a> Clip (chain2) with missing mix found and resized&lt;/p>&lt;/body>&lt;/html></property>
  <property name="kdenlive:documentnotesversion">2</property>
  <property name="kdenlive:folder.12.15">Sonic The Hedgehog 2 - OST</property>
  <property name="xml_retain">1</property>
  <entry in="00:00:00.000" out="02:04:23.941" producer="chain4"/>
  <entry in="00:00:00.000" out="00:02:05.839" producer="chain2"/>
  <entry in="00:00:00.000" out="00:02:44.836" producer="chain5"/>
  <entry in="00:00:00.000" out="00:03:35.077" producer="chain6"/>
  <entry in="00:00:00.000" out="00:04:53.929" producer="chain7"/>
  <entry in="00:00:00.000" out="00:03:25.525" producer="chain8"/>
  <entry in="00:00:00.000" out="00:03:20.229" producer="chain9"/>
  <entry in="00:00:00.000" out="00:03:54.221" producer="chain10"/>
  <entry in="00:00:00.000" out="00:03:35.661" producer="chain13"/>
  <entry in="00:00:00.000" out="01:14:21.063" producer="tractor6"/>
  <entry in="00:00:00.000" out="00:02:08.467" producer="chain17"/>
  <entry in="00:00:00.000" out="00:00:11.220" producer="chain18"/>
  <entry in="00:00:00.000" out="00:01:41.458" producer="chain19"/>
  <entry in="00:00:00.000" out="00:00:43.210" producer="chain20"/>
  <entry in="00:00:00.000" out="00:01:46.838" producer="chain21"/>
  <entry in="00:00:00.000" out="00:01:32.199" producer="chain22"/>
  <entry in="00:00:00.000" out="00:02:08.467" producer="chain23"/>
  <entry in="00:00:00.000" out="00:01:32.449" producer="chain24"/>
  <entry in="00:00:00.000" out="00:02:18.977" producer="chain25"/>
  <entry in="00:00:00.000" out="00:01:47.381" producer="chain26"/>
  <entry in="00:00:00.000" out="00:01:44.920" producer="chain27"/>
  <entry in="00:00:00.000" out="00:01:59.559" producer="chain28"/>
  <entry in="00:00:00.000" out="00:01:31.240" producer="chain29"/>
  <entry in="00:00:00.000" out="00:00:11.678" producer="chain30"/>
  <entry in="00:00:00.000" out="00:00:14.181" producer="chain31"/>
  <entry in="00:00:00.000" out="00:00:08.217" producer="chain32"/>
  <entry in="00:00:00.000" out="00:01:47.965" producer="chain33"/>
  <entry in="00:00:00.000" out="00:00:05.797" producer="chain34"/>
  <entry in="00:00:00.000" out="00:00:40.290" producer="chain35"/>
  <entry in="00:00:00.000" out="00:01:01.376" producer="chain36"/>
  <entry in="00:00:00.000" out="00:01:51.843" producer="chain37"/>
  <entry in="00:00:00.000" out="00:02:03.462" producer="chain38"/>
  <entry in="00:00:00.000" out="00:01:48.006" producer="chain39"/>
  <entry in="00:00:00.000" out="00:01:50.467" producer="chain40"/>
  <entry in="00:00:00.000" out="00:01:35.035" producer="chain41"/>
  <entry in="00:00:00.000" out="00:01:50.509" producer="chain42"/>
  <entry in="00:00:00.000" out="00:02:09.384" producer="chain43"/>
  <entry in="00:00:00.000" out="00:02:14.765" producer="chain44"/>
  <entry in="00:00:00.000" out="00:01:15.515" producer="chain45"/>
  <entry in="00:00:00.000" out="00:02:41.208" producer="chain46"/>
 </playlist>
 <tractor id="tractor7" in="00:00:00.000" out="01:11:44.378">
  <property name="kdenlive:projectTractor">1</property>
  <track in="00:00:00.000" out="01:11:44.378" producer="tractor6"/>
 </tractor>
</mlt>
