<?xml version='1.0' encoding='utf-8'?>
<mlt LC_NUMERIC="en_US.UTF-8" producer="main_bin" root="C:/Users/kado/Videos/FanEdits/FanMixes/War of the Worlds (2005) - Family Therapy" version="7.33.0">
 <profile colorspace="709" description="1920x1040 23.98fps" display_aspect_den="13" display_aspect_num="24" frame_rate_den="1001" frame_rate_num="24000" height="1040" progressive="1" sample_aspect_den="1" sample_aspect_num="1" width="1920"/>
 <chain id="chain14" out="01:56:31.823">
  <property name="length">167636</property>
  <property name="eof">pause</property>
  <property name="resource">N:/Videos/Horror and SciFi/War of the Worlds/War.Of.The.Worlds.2005.2160p.4K.BluRay.x265.10bit.AAC5.1-[YTS.MX].mkv</property>
  <property name="mlt_service">avformat-novalidate</property>
  <property name="meta.media.nb_streams">31</property>
  <property name="meta.media.0.stream.type">video</property>
  <property name="meta.media.0.stream.frame_rate">23.976</property>
  <property name="meta.media.0.stream.sample_aspect_ratio">1</property>
  <property name="meta.media.0.codec.width">3840</property>
  <property name="meta.media.0.codec.height">2160</property>
  <property name="meta.media.0.codec.rotate">0</property>
  <property name="meta.media.0.codec.pix_fmt">yuv420p10le</property>
  <property name="meta.media.0.codec.sample_aspect_ratio">1</property>
  <property name="meta.media.0.codec.colorspace">709</property>
  <property name="meta.media.0.codec.name">hevc</property>
  <property name="meta.media.0.codec.long_name">HEVC (High Efficiency Video Coding)</property>
  <property name="meta.media.0.codec.bit_rate">0</property>
  <property name="meta.attr.0.stream.ENCODER.markup">Lavc58.84.100 libx265</property>
  <property name="meta.attr.0.stream.DURATION.markup">01:56:31.820000000</property>
  <property name="meta.media.1.stream.type">audio</property>
  <property name="meta.media.1.codec.sample_fmt">fltp</property>
  <property name="meta.media.1.codec.sample_rate">48000</property>
  <property name="meta.media.1.codec.channels">6</property>
  <property name="meta.media.1.codec.layout">5.1</property>
  <property name="meta.media.1.codec.name">aac</property>
  <property name="meta.media.1.codec.long_name">AAC (Advanced Audio Coding)</property>
  <property name="meta.media.1.codec.bit_rate">0</property>
  <property name="meta.attr.1.stream.ENCODER.markup">Lavc58.84.100 libfdk_aac</property>
  <property name="meta.attr.1.stream.DURATION.markup">01:56:31.820000000</property>
  <property name="meta.media.2.codec.name">srt</property>
  <property name="meta.media.2.codec.long_name">SubRip subtitle</property>
  <property name="meta.media.2.codec.bit_rate">0</property>
  <property name="meta.attr.2.stream.language.markup">eng</property>
  <property name="meta.attr.2.stream.title.markup">English-SRT</property>
  <property name="meta.attr.2.stream.BPS-eng.markup">46</property>
  <property name="meta.attr.2.stream.DURATION-eng.markup">01:48:15.482000000</property>
  <property name="meta.attr.2.stream.NUMBER_OF_FRAMES-eng.markup">1117</property>
  <property name="meta.attr.2.stream.NUMBER_OF_BYTES-eng.markup">37959</property>
  <property name="meta.attr.2.stream._STATISTICS_TAGS-eng.markup">BPS DURATION NUMBER_OF_FRAMES NUMBER_OF_BYTES</property>
  <property name="meta.attr.2.stream.DURATION.markup">01:49:38.942000000</property>
  <property name="meta.media.3.codec.name">pgssub</property>
  <property name="meta.media.3.codec.long_name">HDMV Presentation Graphic Stream subtitles</property>
  <property name="meta.media.3.codec.bit_rate">0</property>
  <property name="meta.attr.3.stream.DURATION.markup">01:49:38.949000000</property>
  <property name="meta.media.4.codec.name">pgssub</property>
  <property name="meta.media.4.codec.long_name">HDMV Presentation Graphic Stream subtitles</property>
  <property name="meta.media.4.codec.bit_rate">0</property>
  <property name="meta.attr.4.stream.DURATION.markup">01:49:38.949000000</property>
  <property name="meta.media.5.codec.name">pgssub</property>
  <property name="meta.media.5.codec.long_name">HDMV Presentation Graphic Stream subtitles</property>
  <property name="meta.media.5.codec.bit_rate">0</property>
  <property name="meta.attr.5.stream.DURATION.markup">01:56:26.064000000</property>
  <property name="meta.media.6.codec.name">pgssub</property>
  <property name="meta.media.6.codec.long_name">HDMV Presentation Graphic Stream subtitles</property>
  <property name="meta.media.6.codec.bit_rate">0</property>
  <property name="meta.attr.6.stream.DURATION.markup">01:56:26.064000000</property>
  <property name="meta.media.7.codec.name">pgssub</property>
  <property name="meta.media.7.codec.long_name">HDMV Presentation Graphic Stream subtitles</property>
  <property name="meta.media.7.codec.bit_rate">0</property>
  <property name="meta.attr.7.stream.DURATION.markup">01:56:26.064000000</property>
  <property name="meta.media.8.codec.name">pgssub</property>
  <property name="meta.media.8.codec.long_name">HDMV Presentation Graphic Stream subtitles</property>
  <property name="meta.media.8.codec.bit_rate">0</property>
  <property name="meta.attr.8.stream.DURATION.markup">01:56:26.064000000</property>
  <property name="meta.media.9.codec.name">pgssub</property>
  <property name="meta.media.9.codec.long_name">HDMV Presentation Graphic Stream subtitles</property>
  <property name="meta.media.9.codec.bit_rate">0</property>
  <property name="meta.attr.9.stream.DURATION.markup">01:56:26.064000000</property>
  <property name="meta.media.10.codec.name">pgssub</property>
  <property name="meta.media.10.codec.long_name">HDMV Presentation Graphic Stream subtitles</property>
  <property name="meta.media.10.codec.bit_rate">0</property>
  <property name="meta.attr.10.stream.DURATION.markup">01:56:26.064000000</property>
  <property name="meta.media.11.codec.name">pgssub</property>
  <property name="meta.media.11.codec.long_name">HDMV Presentation Graphic Stream subtitles</property>
  <property name="meta.media.11.codec.bit_rate">0</property>
  <property name="meta.attr.11.stream.DURATION.markup">01:56:26.064000000</property>
  <property name="meta.media.12.codec.name">pgssub</property>
  <property name="meta.media.12.codec.long_name">HDMV Presentation Graphic Stream subtitles</property>
  <property name="meta.media.12.codec.bit_rate">0</property>
  <property name="meta.attr.12.stream.DURATION.markup">01:49:38.991000000</property>
  <property name="meta.media.13.codec.name">pgssub</property>
  <property name="meta.media.13.codec.long_name">HDMV Presentation Graphic Stream subtitles</property>
  <property name="meta.media.13.codec.bit_rate">0</property>
  <property name="meta.attr.13.stream.DURATION.markup">01:56:26.064000000</property>
  <property name="meta.media.14.codec.name">pgssub</property>
  <property name="meta.media.14.codec.long_name">HDMV Presentation Graphic Stream subtitles</property>
  <property name="meta.media.14.codec.bit_rate">0</property>
  <property name="meta.attr.14.stream.DURATION.markup">01:56:26.064000000</property>
  <property name="meta.media.15.codec.name">pgssub</property>
  <property name="meta.media.15.codec.long_name">HDMV Presentation Graphic Stream subtitles</property>
  <property name="meta.media.15.codec.bit_rate">0</property>
  <property name="meta.attr.15.stream.DURATION.markup">01:56:26.064000000</property>
  <property name="meta.media.16.codec.name">pgssub</property>
  <property name="meta.media.16.codec.long_name">HDMV Presentation Graphic Stream subtitles</property>
  <property name="meta.media.16.codec.bit_rate">0</property>
  <property name="meta.attr.16.stream.DURATION.markup">01:56:26.064000000</property>
  <property name="meta.media.17.codec.name">pgssub</property>
  <property name="meta.media.17.codec.long_name">HDMV Presentation Graphic Stream subtitles</property>
  <property name="meta.media.17.codec.bit_rate">0</property>
  <property name="meta.attr.17.stream.DURATION.markup">01:56:26.064000000</property>
  <property name="meta.media.18.codec.name">pgssub</property>
  <property name="meta.media.18.codec.long_name">HDMV Presentation Graphic Stream subtitles</property>
  <property name="meta.media.18.codec.bit_rate">0</property>
  <property name="meta.attr.18.stream.DURATION.markup">01:56:26.064000000</property>
  <property name="meta.media.19.codec.name">pgssub</property>
  <property name="meta.media.19.codec.long_name">HDMV Presentation Graphic Stream subtitles</property>
  <property name="meta.media.19.codec.bit_rate">0</property>
  <property name="meta.attr.19.stream.DURATION.markup">01:49:38.991000000</property>
  <property name="meta.media.20.codec.name">pgssub</property>
  <property name="meta.media.20.codec.long_name">HDMV Presentation Graphic Stream subtitles</property>
  <property name="meta.media.20.codec.bit_rate">0</property>
  <property name="meta.attr.20.stream.DURATION.markup">01:56:26.064000000</property>
  <property name="meta.media.21.codec.name">pgssub</property>
  <property name="meta.media.21.codec.long_name">HDMV Presentation Graphic Stream subtitles</property>
  <property name="meta.media.21.codec.bit_rate">0</property>
  <property name="meta.attr.21.stream.DURATION.markup">01:56:26.064000000</property>
  <property name="meta.media.22.codec.name">pgssub</property>
  <property name="meta.media.22.codec.long_name">HDMV Presentation Graphic Stream subtitles</property>
  <property name="meta.media.22.codec.bit_rate">0</property>
  <property name="meta.attr.22.stream.DURATION.markup">01:56:26.064000000</property>
  <property name="meta.media.23.codec.name">pgssub</property>
  <property name="meta.media.23.codec.long_name">HDMV Presentation Graphic Stream subtitles</property>
  <property name="meta.media.23.codec.bit_rate">0</property>
  <property name="meta.attr.23.stream.DURATION.markup">01:56:26.064000000</property>
  <property name="meta.media.24.codec.name">pgssub</property>
  <property name="meta.media.24.codec.long_name">HDMV Presentation Graphic Stream subtitles</property>
  <property name="meta.media.24.codec.bit_rate">0</property>
  <property name="meta.attr.24.stream.DURATION.markup">01:50:30.251000000</property>
  <property name="meta.media.25.codec.name">pgssub</property>
  <property name="meta.media.25.codec.long_name">HDMV Presentation Graphic Stream subtitles</property>
  <property name="meta.media.25.codec.bit_rate">0</property>
  <property name="meta.attr.25.stream.DURATION.markup">01:56:26.064000000</property>
  <property name="meta.media.26.codec.name">pgssub</property>
  <property name="meta.media.26.codec.long_name">HDMV Presentation Graphic Stream subtitles</property>
  <property name="meta.media.26.codec.bit_rate">0</property>
  <property name="meta.attr.26.stream.DURATION.markup">01:56:26.064000000</property>
  <property name="meta.media.27.codec.name">pgssub</property>
  <property name="meta.media.27.codec.long_name">HDMV Presentation Graphic Stream subtitles</property>
  <property name="meta.media.27.codec.bit_rate">0</property>
  <property name="meta.attr.27.stream.DURATION.markup">01:56:26.064000000</property>
  <property name="meta.media.28.codec.name">pgssub</property>
  <property name="meta.media.28.codec.long_name">HDMV Presentation Graphic Stream subtitles</property>
  <property name="meta.media.28.codec.bit_rate">0</property>
  <property name="meta.attr.28.stream.DURATION.markup">01:50:30.000000000</property>
  <property name="meta.media.29.codec.name">pgssub</property>
  <property name="meta.media.29.codec.long_name">HDMV Presentation Graphic Stream subtitles</property>
  <property name="meta.media.29.codec.bit_rate">0</property>
  <property name="meta.attr.29.stream.DURATION.markup">01:56:26.064000000</property>
  <property name="meta.media.30.codec.name">pgssub</property>
  <property name="meta.media.30.codec.long_name">HDMV Presentation Graphic Stream subtitles</property>
  <property name="meta.media.30.codec.bit_rate">0</property>
  <property name="meta.attr.30.stream.DURATION.markup">01:56:26.064000000</property>
  <property name="meta.attr.ENCODER.markup">Lavf58.43.100</property>
  <property name="seekable">1</property>
  <property name="meta.media.sample_aspect_num">1</property>
  <property name="meta.media.sample_aspect_den">1</property>
  <property name="audio_index">1</property>
  <property name="video_index">0</property>
  <property name="vstream">0</property>
  <property name="meta.media.frame_rate_num">24000</property>
  <property name="meta.media.frame_rate_den">1001</property>
  <property name="meta.media.colorspace">709</property>
  <property name="meta.media.color_trc">2</property>
  <property name="meta.media.has_b_frames">2</property>
  <property name="meta.media.width">3840</property>
  <property name="meta.media.height">2160</property>
  <property name="meta.media.aspect_ratio">1</property>
  <property name="meta.media.color_range">mpeg</property>
  <property name="astream">0</property>
  <property name="meta.media.top_field_first">0</property>
  <property name="meta.media.progressive">1</property>
  <property name="kdenlive:control_uuid">{f9f6007e-8e24-413c-a48a-093c5dbed24d}</property>
  <property name="kdenlive:proxy">-</property>
  <property name="kdenlive:originalurl">N:/Videos/Horror and SciFi/War of the Worlds/War.Of.The.Worlds.2005.2160p.4K.BluRay.x265.10bit.AAC5.1-[YTS.MX].mkv</property>
  <property name="kdenlive:id">4</property>
  <property name="mute_on_pause">0</property>
  <property name="kdenlive:clip_type">0</property>
  <property name="kdenlive:file_size">6113614378</property>
  <property name="kdenlive:file_hash">5fdc105d4eb78cce2fc0dd9269c83ad1</property>
  <property name="kdenlive:folderid">-1</property>
 </chain>
 <chain id="chain8" out="00:09:07.674">
  <property name="length">13132</property>
  <property name="eof">pause</property>
  <property name="resource">ost/01 - Jeff Wayne - The Eve Of The War.mp3</property>
  <property name="mlt_service">avformat</property>
  <property name="meta.media.nb_streams">2</property>
  <property name="meta.media.0.stream.type">audio</property>
  <property name="meta.media.0.codec.sample_fmt">fltp</property>
  <property name="meta.media.0.codec.sample_rate">44100</property>
  <property name="meta.media.0.codec.channels">2</property>
  <property name="meta.media.0.codec.layout">stereo</property>
  <property name="meta.media.0.codec.name">mp3float</property>
  <property name="meta.media.0.codec.long_name">MP3 (MPEG audio layer 3)</property>
  <property name="meta.media.0.codec.bit_rate">320000</property>
  <property name="meta.attr.0.stream.encoder.markup">LAME3.98 </property>
  <property name="meta.attr.major_brand.markup">dash</property>
  <property name="meta.attr.minor_version.markup">0</property>
  <property name="meta.attr.compatible_brands.markup">iso6mp41</property>
  <property name="meta.attr.encoder.markup">Lavf58.29.100</property>
  <property name="seekable">1</property>
  <property name="audio_index">0</property>
  <property name="video_index">-1</property>
  <property name="astream">0</property>
  <property name="kdenlive:folderid">-1</property>
  <property name="kdenlive:id">5</property>
  <property name="kdenlive:control_uuid">{454df43c-5141-4036-ad52-1c6d80ab35c2}</property>
  <property name="kdenlive:clip_type">1</property>
  <property name="kdenlive:file_size">21921725</property>
  <property name="meta.media.1.stream.type">video</property>
  <property name="meta.media.1.stream.frame_rate">90000</property>
  <property name="meta.media.1.stream.sample_aspect_ratio">0</property>
  <property name="meta.media.1.codec.width">450</property>
  <property name="meta.media.1.codec.height">445</property>
  <property name="meta.media.1.codec.rotate">0</property>
  <property name="meta.media.1.codec.pix_fmt">yuvj420p</property>
  <property name="meta.media.1.codec.sample_aspect_ratio">1</property>
  <property name="meta.media.1.codec.colorspace">601</property>
  <property name="meta.media.1.codec.name">mjpeg</property>
  <property name="meta.media.1.codec.long_name">MJPEG (Motion JPEG)</property>
  <property name="meta.media.1.codec.bit_rate">0</property>
  <property name="meta.attr.1.stream.comment.markup">Cover (front)</property>
  <property name="meta.attr.album.markup">The War Of The Worlds  (Disc 1)</property>
  <property name="meta.attr.date.markup">1996</property>
  <property name="meta.attr.track.markup">1</property>
  <property name="meta.attr.disc.markup">1/2</property>
  <property name="meta.attr.comment.markup">Enjoy..(oan) SEED ON</property>
  <property name="meta.attr.title.markup">The Eve Of The War</property>
  <property name="meta.attr.publisher.markup">Sony Music Distribution</property>
  <property name="meta.attr.genre.markup">Electronic, Rock</property>
  <property name="meta.attr.album_artist.markup">Jeff Wayne</property>
  <property name="meta.attr.composer.markup">Jeff Wayne</property>
  <property name="meta.attr.artist.markup">Jeff Wayne</property>
  <property name="meta.attr.id3v2_priv.WM/MediaClassPrimaryID.markup">\xbc}`\xd1#\xe3\xe2K\x86\xa1H\xa4*(D\x1e</property>
  <property name="meta.attr.id3v2_priv.WM/MediaClassSecondaryID.markup">\x00\x00\x00\x00\x00\x00\x00\x00\x00\x00\x00\x00\x00\x00\x00\x00</property>
  <property name="meta.attr.id3v2_priv.WM/WMContentID.markup">u\xbdO}/\xf8\x98B\x92\xe6%\xb4\xc8\xb6\xdec</property>
  <property name="meta.attr.id3v2_priv.WM/UniqueFileIdentifier.markup">A\x00M\x00G\x00a\x00_\x00i\x00d\x00=\x00R\x00 \x00 \x00 \x002\x000\x003\x005\x002\x002\x00;\x00A\x00M\x00G\x00p\x00_\x00i\x00d\x00=\x00P\x00 \x00 \x00 \x00 \x002\x001\x003\x004\x005\x00;\x00A\x00M\x00G\x00t\x00_\x00i\x00d\x00=\x00T\x00 \x00 \x001\x005\x004\x002\x008\x003\x000\x00\x00\x00</property>
  <property name="meta.attr.id3v2_priv.WM/WMCollectionID.markup">%\xf7|\x14O\x18\x9dG\xad\x1dZ|#\xa0X\xd7</property>
  <property name="meta.attr.id3v2_priv.WM/WMCollectionGroupID.markup">%\xf7|\x14O\x18\x9dG\xad\x1dZ|#\xa0X\xd7</property>
  <property name="meta.attr.id3v2_priv.WM/Provider.markup">A\x00M\x00G\x00\x00\x00</property>
  <property name="meta.media.sample_aspect_num">200</property>
  <property name="meta.media.sample_aspect_den">200</property>
  <property name="kdenlive:file_hash">8b1397f3279d1e04f13321368ce4215b</property>
 </chain>
 <chain id="chain11" out="00:05:52.052">
  <property name="length">8441</property>
  <property name="eof">pause</property>
  <property name="resource">ost/The Red Weed (Instrumental).mp3</property>
  <property name="mlt_service">avformat</property>
  <property name="meta.media.nb_streams">1</property>
  <property name="meta.media.0.stream.type">audio</property>
  <property name="meta.media.0.codec.sample_fmt">fltp</property>
  <property name="meta.media.0.codec.sample_rate">44100</property>
  <property name="meta.media.0.codec.channels">2</property>
  <property name="meta.media.0.codec.layout">stereo</property>
  <property name="meta.media.0.codec.name">mp3float</property>
  <property name="meta.media.0.codec.long_name">MP3 (MPEG audio layer 3)</property>
  <property name="meta.media.0.codec.bit_rate">192000</property>
  <property name="meta.attr.0.stream.encoder.markup">Lavc60.31</property>
  <property name="meta.attr.major_brand.markup">dash</property>
  <property name="meta.attr.minor_version.markup">0</property>
  <property name="meta.attr.compatible_brands.markup">iso6mp41</property>
  <property name="meta.attr.encoder.markup">Lavf60.16.100</property>
  <property name="seekable">1</property>
  <property name="audio_index">0</property>
  <property name="video_index">-1</property>
  <property name="astream">0</property>
  <property name="kdenlive:folderid">-1</property>
  <property name="kdenlive:id">6</property>
  <property name="kdenlive:control_uuid">{477cb701-e3f9-4995-908e-06a273f63479}</property>
  <property name="kdenlive:clip_type">1</property>
  <property name="kdenlive:file_size">8450017</property>
  <property name="kdenlive:file_hash">a8d3387448db3d2cd41abfdf3a997806</property>
  <property name="kdenlive:monitorPosition">0</property>
 </chain>
 <chain id="chain12" out="00:02:42.626">
  <property name="length">3900</property>
  <property name="eof">pause</property>
  <property name="resource">ost/06 - Jeff Wayne - Epilogue (Part 1).mp3</property>
  <property name="mlt_service">avformat-novalidate</property>
  <property name="meta.media.nb_streams">2</property>
  <property name="meta.media.0.stream.type">audio</property>
  <property name="meta.media.0.codec.sample_fmt">fltp</property>
  <property name="meta.media.0.codec.sample_rate">44100</property>
  <property name="meta.media.0.codec.channels">2</property>
  <property name="meta.media.0.codec.layout">stereo</property>
  <property name="meta.media.0.codec.name">mp3float</property>
  <property name="meta.media.0.codec.long_name">MP3 (MPEG audio layer 3)</property>
  <property name="meta.media.0.codec.bit_rate">320000</property>
  <property name="meta.attr.0.stream.encoder.markup">LAME3.98 </property>
  <property name="meta.media.1.stream.type">video</property>
  <property name="meta.media.1.stream.frame_rate">90000</property>
  <property name="meta.media.1.stream.sample_aspect_ratio">0</property>
  <property name="meta.media.1.codec.width">450</property>
  <property name="meta.media.1.codec.height">445</property>
  <property name="meta.media.1.codec.rotate">0</property>
  <property name="meta.media.1.codec.pix_fmt">yuvj420p</property>
  <property name="meta.media.1.codec.sample_aspect_ratio">1</property>
  <property name="meta.media.1.codec.colorspace">601</property>
  <property name="meta.media.1.codec.name">mjpeg</property>
  <property name="meta.media.1.codec.long_name">MJPEG (Motion JPEG)</property>
  <property name="meta.media.1.codec.bit_rate">0</property>
  <property name="meta.attr.1.stream.comment.markup">Cover (front)</property>
  <property name="meta.attr.album_artist.markup">Jeff Wayne</property>
  <property name="meta.attr.title.markup">Epilogue (Part 1)</property>
  <property name="meta.attr.artist.markup">Jeff Wayne</property>
  <property name="meta.attr.album.markup">The War Of The Worlds  (Disc 2)</property>
  <property name="meta.attr.encoded_by.markup">(oan)</property>
  <property name="meta.attr.comment.markup">Enjoy..(oan) SEED ON</property>
  <property name="meta.attr.genre.markup">Electronic, Rock</property>
  <property name="meta.attr.track.markup">06/11</property>
  <property name="meta.attr.disc.markup">2/2</property>
  <property name="meta.attr.date.markup">1996</property>
  <property name="seekable">1</property>
  <property name="meta.media.sample_aspect_num">200</property>
  <property name="meta.media.sample_aspect_den">200</property>
  <property name="audio_index">0</property>
  <property name="video_index">1</property>
  <property name="vstream">0</property>
  <property name="meta.media.frame_rate_num">90000</property>
  <property name="meta.media.frame_rate_den">1</property>
  <property name="meta.media.colorspace">601</property>
  <property name="meta.media.color_trc">2</property>
  <property name="meta.media.has_b_frames">0</property>
  <property name="meta.media.width">450</property>
  <property name="meta.media.height">445</property>
  <property name="meta.media.aspect_ratio">1</property>
  <property name="meta.media.color_range">full</property>
  <property name="astream">0</property>
  <property name="meta.media.top_field_first">0</property>
  <property name="meta.media.progressive">1</property>
  <property name="kdenlive:folderid">-1</property>
  <property name="kdenlive:id">7</property>
  <property name="kdenlive:control_uuid">{cf534966-17b0-4ca4-bf23-6d0e14b17341}</property>
  <property name="mute_on_pause">0</property>
  <property name="kdenlive:clip_type">0</property>
  <property name="kdenlive:coverartstream">1</property>
  <property name="kdenlive:file_size">6559263</property>
  <property name="kdenlive:file_hash">6ec098315f11a692a35d747d9fc4cb7a</property>
  <property name="kdenlive:monitorPosition">0</property>
 </chain>
 <producer id="producer1" in="00:00:00.000" out="00:00:30.906">
  <property name="length">742</property>
  <property name="eof">pause</property>
  <property name="resource">ost/album-cover.webp</property>
  <property name="ttl">25</property>
  <property name="aspect_ratio">1</property>
  <property name="meta.media.progressive">1</property>
  <property name="seekable">1</property>
  <property name="format">1</property>
  <property name="meta.media.width">1080</property>
  <property name="meta.media.height">554</property>
  <property name="mlt_service">qimage</property>
  <property name="kdenlive:duration">00:00:12;00</property>
  <property name="xml">was here</property>
  <property name="kdenlive:folderid">-1</property>
  <property name="kdenlive:id">8</property>
  <property name="kdenlive:control_uuid">{745ae6f7-4c18-4e37-a567-dfc3bbc86c08}</property>
  <property name="kdenlive:clip_type">2</property>
  <property name="kdenlive:file_size">109406</property>
  <property name="kdenlive:file_hash">bc776d24c211b30ea6287cdd3ef088c9</property>
 </producer>
 <chain id="chain13" out="00:57:02.211">
  <property name="length">82052</property>
  <property name="eof">pause</property>
  <property name="resource">ost/Orson Welles - War Of The Worlds - Radio Broadcast 1938 - Complete Broadcast..mp3</property>
  <property name="mlt_service">avformat</property>
  <property name="meta.media.nb_streams">1</property>
  <property name="meta.media.0.stream.type">audio</property>
  <property name="meta.media.0.codec.sample_fmt">fltp</property>
  <property name="meta.media.0.codec.sample_rate">44100</property>
  <property name="meta.media.0.codec.channels">2</property>
  <property name="meta.media.0.codec.layout">stereo</property>
  <property name="meta.media.0.codec.name">mp3float</property>
  <property name="meta.media.0.codec.long_name">MP3 (MPEG audio layer 3)</property>
  <property name="meta.media.0.codec.bit_rate">128000</property>
  <property name="meta.attr.0.stream.encoder.markup">Lavc58.13</property>
  <property name="meta.attr.major_brand.markup">dash</property>
  <property name="meta.attr.minor_version.markup">0</property>
  <property name="meta.attr.compatible_brands.markup">iso6mp41</property>
  <property name="meta.attr.encoder.markup">Lavf58.76.100</property>
  <property name="seekable">1</property>
  <property name="audio_index">0</property>
  <property name="video_index">-1</property>
  <property name="astream">0</property>
  <property name="kdenlive:folderid">-1</property>
  <property name="kdenlive:id">9</property>
  <property name="kdenlive:control_uuid">{8f69a7fe-d74a-4e54-bc63-134c3f048a42}</property>
  <property name="kdenlive:clip_type">1</property>
  <property name="kdenlive:file_size">54756551</property>
  <property name="kdenlive:file_hash">dd7ddec6100f5ac9d896b1adeb445d04</property>
  <property name="kdenlive:monitorPosition">0</property>
 </chain>
 <producer id="producer0" in="00:00:00.000" out="01:29:05.714">
  <property name="length">2147483647</property>
  <property name="eof">continue</property>
  <property name="resource">black</property>
  <property name="aspect_ratio">1</property>
  <property name="mlt_service">color</property>
  <property name="kdenlive:playlistid">black_track</property>
  <property name="mlt_image_format">rgba</property>
  <property name="set.test_audio">0</property>
 </producer>
 <chain id="chain0" out="00:57:02.211">
  <property name="length">82052</property>
  <property name="eof">pause</property>
  <property name="resource">ost/Orson Welles - War Of The Worlds - Radio Broadcast 1938 - Complete Broadcast..mp3</property>
  <property name="mlt_service">avformat-novalidate</property>
  <property name="seekable">1</property>
  <property name="audio_index">0</property>
  <property name="video_index">-1</property>
  <property name="astream">0</property>
  <property name="kdenlive:folderid">-1</property>
  <property name="kdenlive:id">9</property>
  <property name="kdenlive:control_uuid">{8f69a7fe-d74a-4e54-bc63-134c3f048a42}</property>
  <property name="kdenlive:clip_type">1</property>
  <property name="kdenlive:file_size">54756551</property>
  <property name="kdenlive:file_hash">dd7ddec6100f5ac9d896b1adeb445d04</property>
  <property name="kdenlive:monitorPosition">0</property>
  <property name="meta.media.nb_streams">1</property>
  <property name="meta.media.0.stream.type">audio</property>
  <property name="meta.media.0.codec.sample_fmt">fltp</property>
  <property name="meta.media.0.codec.sample_rate">44100</property>
  <property name="meta.media.0.codec.channels">2</property>
  <property name="meta.media.0.codec.layout">stereo</property>
  <property name="meta.media.0.codec.name">mp3float</property>
  <property name="meta.media.0.codec.long_name">MP3 (MPEG audio layer 3)</property>
  <property name="meta.media.0.codec.bit_rate">128000</property>
  <property name="meta.attr.0.stream.encoder.markup">Lavc58.13</property>
  <property name="meta.attr.major_brand.markup">dash</property>
  <property name="meta.attr.minor_version.markup">0</property>
  <property name="meta.attr.compatible_brands.markup">iso6mp41</property>
  <property name="meta.attr.encoder.markup">Lavf58.76.100</property>
  <property name="xml">was here</property>
  <property name="mute_on_pause">0</property>
  <property name="set.test_audio">0</property>
  <property name="set.test_image">1</property>
 </chain>
 <playlist id="playlist0">
  <property name="kdenlive:audio_track">1</property>
  <blank length="00:28:01.210"/>
  <entry in="00:18:10.093" out="00:18:24.858" producer="chain0">
   <property name="kdenlive:id">9</property>
   <filter id="filter0" in="00:18:10.093" out="00:18:24.900">
    <property name="window">75</property>
    <property name="max_gain">20dB</property>
    <property name="mlt_service">volume</property>
    <property name="kdenlive_id">fadein</property>
    <property name="gain">0</property>
    <property name="end">1</property>
    <property name="kdenlive:collapsed">0</property>
   </filter>
  </entry>
  <entry in="00:18:24.900" out="00:18:35.410" producer="chain0">
   <property name="kdenlive:id">9</property>
   <filter id="filter1">
    <property name="window">75</property>
    <property name="max_gain">20dB</property>
    <property name="level">00:18:24.900=-25</property>
    <property name="mlt_service">volume</property>
    <property name="kdenlive_id">volume</property>
    <property name="kdenlive:collapsed">0</property>
   </filter>
   <filter id="filter2" in="00:18:34.201" out="00:18:35.410">
    <property name="window">75</property>
    <property name="max_gain">20dB</property>
    <property name="mlt_service">volume</property>
    <property name="kdenlive_id">fadeout</property>
    <property name="gain">1</property>
    <property name="end">0</property>
    <property name="kdenlive:collapsed">0</property>
   </filter>
  </entry>
  <blank length="00:00:01.627"/>
  <entry in="00:18:41.583" out="00:19:01.043" producer="chain0">
   <property name="kdenlive:id">9</property>
   <filter id="filter3">
    <property name="window">75</property>
    <property name="max_gain">20dB</property>
    <property name="level">00:18:41.583=-15</property>
    <property name="mlt_service">volume</property>
    <property name="kdenlive_id">volume</property>
    <property name="kdenlive:collapsed">0</property>
   </filter>
   <filter id="filter4" in="00:18:41.583" out="00:18:44.544">
    <property name="window">75</property>
    <property name="max_gain">20dB</property>
    <property name="mlt_service">volume</property>
    <property name="kdenlive_id">fadein</property>
    <property name="gain">0</property>
    <property name="end">1</property>
    <property name="kdenlive:collapsed">0</property>
   </filter>
  </entry>
  <blank length="00:00:12.804"/>
  <entry in="00:19:03.170" out="00:19:35.744" producer="chain0">
   <property name="kdenlive:id">9</property>
   <filter id="filter5">
    <property name="window">75</property>
    <property name="max_gain">20dB</property>
    <property name="level">00:19:03.170=-10</property>
    <property name="mlt_service">volume</property>
    <property name="kdenlive_id">volume</property>
    <property name="kdenlive:collapsed">0</property>
   </filter>
   <filter id="filter6" in="00:19:23.815" out="00:19:35.744">
    <property name="window">75</property>
    <property name="max_gain">20dB</property>
    <property name="mlt_service">volume</property>
    <property name="kdenlive_id">fadeout</property>
    <property name="gain">1</property>
    <property name="end">0</property>
    <property name="kdenlive:collapsed">0</property>
   </filter>
  </entry>
 </playlist>
 <playlist id="playlist1">
  <property name="kdenlive:audio_track">1</property>
 </playlist>
 <tractor id="tractor0" in="00:00:00.000" out="00:29:33.033">
  <property name="kdenlive:audio_track">1</property>
  <property name="kdenlive:trackheight">84</property>
  <property name="kdenlive:timeline_active">1</property>
  <property name="kdenlive:collapsed">0</property>
  <property name="kdenlive:thumbs_format"/>
  <property name="kdenlive:audio_rec"/>
  <track hide="video" producer="playlist0"/>
  <track hide="video" producer="playlist1"/>
  <filter id="filter7">
   <property name="window">75</property>
   <property name="max_gain">20dB</property>
   <property name="mlt_service">volume</property>
   <property name="internal_added">237</property>
   <property name="disable">1</property>
  </filter>
  <filter id="filter8">
   <property name="channel">-1</property>
   <property name="mlt_service">panner</property>
   <property name="internal_added">237</property>
   <property name="start">0.81</property>
   <property name="disable">0</property>
  </filter>
  <filter id="filter9">
   <property name="iec_scale">0</property>
   <property name="mlt_service">audiolevel</property>
   <property name="dbpeak">1</property>
   <property name="disable">1</property>
  </filter>
 </tractor>
 <chain id="chain1" out="00:09:07.674">
  <property name="length">13132</property>
  <property name="eof">pause</property>
  <property name="resource">ost/01 - Jeff Wayne - The Eve Of The War.mp3</property>
  <property name="mlt_service">avformat-novalidate</property>
  <property name="seekable">1</property>
  <property name="audio_index">0</property>
  <property name="video_index">-1</property>
  <property name="astream">0</property>
  <property name="kdenlive:folderid">-1</property>
  <property name="kdenlive:id">5</property>
  <property name="kdenlive:control_uuid">{454df43c-5141-4036-ad52-1c6d80ab35c2}</property>
  <property name="kdenlive:clip_type">1</property>
  <property name="kdenlive:file_size">13145789</property>
  <property name="kdenlive:file_hash">d0cf1c7176316f74262d8648d499afea</property>
  <property name="meta.media.nb_streams">2</property>
  <property name="meta.media.0.stream.type">audio</property>
  <property name="meta.media.0.codec.sample_fmt">fltp</property>
  <property name="meta.media.0.codec.sample_rate">44100</property>
  <property name="meta.media.0.codec.channels">2</property>
  <property name="meta.media.0.codec.layout">stereo</property>
  <property name="meta.media.0.codec.name">mp3float</property>
  <property name="meta.media.0.codec.long_name">MP3 (MPEG audio layer 3)</property>
  <property name="meta.media.0.codec.bit_rate">320000</property>
  <property name="meta.attr.0.stream.encoder.markup">LAME3.98 </property>
  <property name="meta.attr.major_brand.markup">dash</property>
  <property name="meta.attr.minor_version.markup">0</property>
  <property name="meta.attr.compatible_brands.markup">iso6mp41</property>
  <property name="meta.attr.encoder.markup">Lavf58.29.100</property>
  <property name="xml">was here</property>
  <property name="mute_on_pause">0</property>
  <property name="set.test_audio">0</property>
  <property name="set.test_image">1</property>
  <property name="meta.media.1.stream.type">video</property>
  <property name="meta.media.1.stream.frame_rate">90000</property>
  <property name="meta.media.1.stream.sample_aspect_ratio">0</property>
  <property name="meta.media.1.codec.width">450</property>
  <property name="meta.media.1.codec.height">445</property>
  <property name="meta.media.1.codec.rotate">0</property>
  <property name="meta.media.1.codec.pix_fmt">yuvj420p</property>
  <property name="meta.media.1.codec.sample_aspect_ratio">1</property>
  <property name="meta.media.1.codec.colorspace">601</property>
  <property name="meta.media.1.codec.name">mjpeg</property>
  <property name="meta.media.1.codec.long_name">MJPEG (Motion JPEG)</property>
  <property name="meta.media.1.codec.bit_rate">0</property>
  <property name="meta.attr.1.stream.comment.markup">Cover (front)</property>
  <property name="meta.attr.album.markup">The War Of The Worlds  (Disc 1)</property>
  <property name="meta.attr.date.markup">1996</property>
  <property name="meta.attr.track.markup">1</property>
  <property name="meta.attr.disc.markup">1/2</property>
  <property name="meta.attr.comment.markup">Enjoy..(oan) SEED ON</property>
  <property name="meta.attr.title.markup">The Eve Of The War</property>
  <property name="meta.attr.publisher.markup">Sony Music Distribution</property>
  <property name="meta.attr.genre.markup">Electronic, Rock</property>
  <property name="meta.attr.album_artist.markup">Jeff Wayne</property>
  <property name="meta.attr.composer.markup">Jeff Wayne</property>
  <property name="meta.attr.artist.markup">Jeff Wayne</property>
  <property name="meta.attr.id3v2_priv.WM/MediaClassPrimaryID.markup">\xbc}`\xd1#\xe3\xe2K\x86\xa1H\xa4*(D\x1e</property>
  <property name="meta.attr.id3v2_priv.WM/MediaClassSecondaryID.markup">\x00\x00\x00\x00\x00\x00\x00\x00\x00\x00\x00\x00\x00\x00\x00\x00</property>
  <property name="meta.attr.id3v2_priv.WM/WMContentID.markup">u\xbdO}/\xf8\x98B\x92\xe6%\xb4\xc8\xb6\xdec</property>
  <property name="meta.attr.id3v2_priv.WM/UniqueFileIdentifier.markup">A\x00M\x00G\x00a\x00_\x00i\x00d\x00=\x00R\x00 \x00 \x00 \x002\x000\x003\x005\x002\x002\x00;\x00A\x00M\x00G\x00p\x00_\x00i\x00d\x00=\x00P\x00 \x00 \x00 \x00 \x002\x001\x003\x004\x005\x00;\x00A\x00M\x00G\x00t\x00_\x00i\x00d\x00=\x00T\x00 \x00 \x001\x005\x004\x002\x008\x003\x000\x00\x00\x00</property>
  <property name="meta.attr.id3v2_priv.WM/WMCollectionID.markup">%\xf7|\x14O\x18\x9dG\xad\x1dZ|#\xa0X\xd7</property>
  <property name="meta.attr.id3v2_priv.WM/WMCollectionGroupID.markup">%\xf7|\x14O\x18\x9dG\xad\x1dZ|#\xa0X\xd7</property>
  <property name="meta.attr.id3v2_priv.WM/Provider.markup">A\x00M\x00G\x00\x00\x00</property>
  <property name="meta.media.sample_aspect_num">200</property>
  <property name="meta.media.sample_aspect_den">200</property>
  <property name="vstream">-1</property>
 </chain>
 <chain id="chain2" out="00:05:52.052">
  <property name="length">8441</property>
  <property name="eof">pause</property>
  <property name="resource">ost/The Red Weed (Instrumental).mp3</property>
  <property name="mlt_service">avformat-novalidate</property>
  <property name="seekable">1</property>
  <property name="audio_index">0</property>
  <property name="video_index">-1</property>
  <property name="astream">0</property>
  <property name="kdenlive:folderid">-1</property>
  <property name="kdenlive:id">6</property>
  <property name="kdenlive:control_uuid">{477cb701-e3f9-4995-908e-06a273f63479}</property>
  <property name="kdenlive:clip_type">1</property>
  <property name="kdenlive:file_size">8450017</property>
  <property name="kdenlive:file_hash">a8d3387448db3d2cd41abfdf3a997806</property>
  <property name="meta.media.nb_streams">1</property>
  <property name="meta.media.0.stream.type">audio</property>
  <property name="meta.media.0.codec.sample_fmt">fltp</property>
  <property name="meta.media.0.codec.sample_rate">44100</property>
  <property name="meta.media.0.codec.channels">2</property>
  <property name="meta.media.0.codec.layout">stereo</property>
  <property name="meta.media.0.codec.name">mp3float</property>
  <property name="meta.media.0.codec.long_name">MP3 (MPEG audio layer 3)</property>
  <property name="meta.media.0.codec.bit_rate">192000</property>
  <property name="meta.attr.0.stream.encoder.markup">Lavc60.31</property>
  <property name="meta.attr.major_brand.markup">dash</property>
  <property name="meta.attr.minor_version.markup">0</property>
  <property name="meta.attr.compatible_brands.markup">iso6mp41</property>
  <property name="meta.attr.encoder.markup">Lavf60.16.100</property>
  <property name="xml">was here</property>
  <property name="mute_on_pause">0</property>
  <property name="set.test_audio">0</property>
  <property name="set.test_image">1</property>
 </chain>
 <chain id="chain3" out="00:02:42.626">
  <property name="length">3900</property>
  <property name="eof">pause</property>
  <property name="resource">ost/06 - Jeff Wayne - Epilogue (Part 1).mp3</property>
  <property name="mlt_service">avformat-novalidate</property>
  <property name="seekable">1</property>
  <property name="audio_index">0</property>
  <property name="video_index">1</property>
  <property name="vstream">0</property>
  <property name="astream">0</property>
  <property name="kdenlive:folderid">-1</property>
  <property name="kdenlive:id">7</property>
  <property name="kdenlive:control_uuid">{cf534966-17b0-4ca4-bf23-6d0e14b17341}</property>
  <property name="mute_on_pause">0</property>
  <property name="kdenlive:clip_type">0</property>
  <property name="kdenlive:coverartstream">1</property>
  <property name="kdenlive:file_size">6559263</property>
  <property name="kdenlive:file_hash">6ec098315f11a692a35d747d9fc4cb7a</property>
  <property name="kdenlive:monitorPosition">0</property>
  <property name="meta.media.nb_streams">2</property>
  <property name="meta.media.0.stream.type">audio</property>
  <property name="meta.media.0.codec.sample_fmt">fltp</property>
  <property name="meta.media.0.codec.sample_rate">44100</property>
  <property name="meta.media.0.codec.channels">2</property>
  <property name="meta.media.0.codec.layout">stereo</property>
  <property name="meta.media.0.codec.name">mp3float</property>
  <property name="meta.media.0.codec.long_name">MP3 (MPEG audio layer 3)</property>
  <property name="meta.media.0.codec.bit_rate">320000</property>
  <property name="meta.attr.0.stream.encoder.markup">LAME3.98 </property>
  <property name="meta.media.1.stream.type">video</property>
  <property name="meta.media.1.stream.frame_rate">90000</property>
  <property name="meta.media.1.stream.sample_aspect_ratio">0</property>
  <property name="meta.media.1.codec.width">450</property>
  <property name="meta.media.1.codec.height">445</property>
  <property name="meta.media.1.codec.rotate">0</property>
  <property name="meta.media.1.codec.pix_fmt">yuvj420p</property>
  <property name="meta.media.1.codec.sample_aspect_ratio">1</property>
  <property name="meta.media.1.codec.colorspace">601</property>
  <property name="meta.media.1.codec.name">mjpeg</property>
  <property name="meta.media.1.codec.long_name">MJPEG (Motion JPEG)</property>
  <property name="meta.media.1.codec.bit_rate">0</property>
  <property name="meta.attr.1.stream.comment.markup">Cover (front)</property>
  <property name="meta.attr.album_artist.markup">Jeff Wayne</property>
  <property name="meta.attr.title.markup">Epilogue (Part 1)</property>
  <property name="meta.attr.artist.markup">Jeff Wayne</property>
  <property name="meta.attr.album.markup">The War Of The Worlds  (Disc 2)</property>
  <property name="meta.attr.encoded_by.markup">(oan)</property>
  <property name="meta.attr.comment.markup">Enjoy..(oan) SEED ON</property>
  <property name="meta.attr.genre.markup">Electronic, Rock</property>
  <property name="meta.attr.track.markup">06/11</property>
  <property name="meta.attr.disc.markup">2/2</property>
  <property name="meta.attr.date.markup">1996</property>
  <property name="meta.media.sample_aspect_num">200</property>
  <property name="meta.media.sample_aspect_den">200</property>
  <property name="meta.media.frame_rate_num">90000</property>
  <property name="meta.media.frame_rate_den">1</property>
  <property name="meta.media.colorspace">601</property>
  <property name="meta.media.color_trc">2</property>
  <property name="meta.media.has_b_frames">0</property>
  <property name="meta.media.width">450</property>
  <property name="meta.media.height">445</property>
  <property name="meta.media.aspect_ratio">1</property>
  <property name="meta.media.color_range">full</property>
  <property name="xml">was here</property>
  <property name="meta.media.top_field_first">0</property>
  <property name="meta.media.progressive">1</property>
  <property name="set.test_audio">0</property>
  <property name="set.test_image">1</property>
 </chain>
 <playlist id="playlist2">
  <property name="kdenlive:audio_track">1</property>
  <blank length="00:00:47.256"/>
  <entry in="00:00:00.000" out="00:00:37.746" producer="chain1">
   <property name="kdenlive:id">5</property>
  </entry>
  <blank length="01:15:05.297"/>
  <entry in="00:00:06.590" out="00:05:49.091" producer="chain2">
   <property name="kdenlive:id">6</property>
   <filter id="filter10" in="00:00:06.590" out="00:00:31.281">
    <property name="window">75</property>
    <property name="max_gain">20dB</property>
    <property name="mlt_service">volume</property>
    <property name="kdenlive_id">fadein</property>
    <property name="gain">0</property>
    <property name="end">1</property>
    <property name="kdenlive:collapsed">0</property>
   </filter>
   <filter id="filter11" in="00:05:48.674" out="00:05:49.091">
    <property name="window">75</property>
    <property name="max_gain">20dB</property>
    <property name="mlt_service">volume</property>
    <property name="kdenlive_id">fadeout</property>
    <property name="gain">1</property>
    <property name="end">0</property>
   </filter>
  </entry>
  <blank length="00:00:51.051"/>
  <entry in="00:01:40.874" out="00:02:42.626" producer="chain3">
   <property name="kdenlive:id">7</property>
   <filter id="filter12" in="00:02:16.850" out="00:02:42.626">
    <property name="window">75</property>
    <property name="max_gain">20dB</property>
    <property name="mlt_service">volume</property>
    <property name="kdenlive_id">fadeout</property>
    <property name="gain">1</property>
    <property name="end">0</property>
   </filter>
  </entry>
 </playlist>
 <chain id="chain4" out="00:02:42.626">
  <property name="length">3900</property>
  <property name="eof">pause</property>
  <property name="resource">ost/06 - Jeff Wayne - Epilogue (Part 1).mp3</property>
  <property name="mlt_service">avformat-novalidate</property>
  <property name="seekable">1</property>
  <property name="audio_index">0</property>
  <property name="video_index">1</property>
  <property name="vstream">0</property>
  <property name="astream">0</property>
  <property name="kdenlive:folderid">-1</property>
  <property name="kdenlive:id">7</property>
  <property name="kdenlive:control_uuid">{cf534966-17b0-4ca4-bf23-6d0e14b17341}</property>
  <property name="mute_on_pause">0</property>
  <property name="kdenlive:clip_type">0</property>
  <property name="kdenlive:coverartstream">1</property>
  <property name="kdenlive:file_size">6559263</property>
  <property name="kdenlive:file_hash">6ec098315f11a692a35d747d9fc4cb7a</property>
  <property name="kdenlive:monitorPosition">0</property>
  <property name="meta.media.nb_streams">2</property>
  <property name="meta.media.0.stream.type">audio</property>
  <property name="meta.media.0.codec.sample_fmt">fltp</property>
  <property name="meta.media.0.codec.sample_rate">44100</property>
  <property name="meta.media.0.codec.channels">2</property>
  <property name="meta.media.0.codec.layout">stereo</property>
  <property name="meta.media.0.codec.name">mp3float</property>
  <property name="meta.media.0.codec.long_name">MP3 (MPEG audio layer 3)</property>
  <property name="meta.media.0.codec.bit_rate">320000</property>
  <property name="meta.attr.0.stream.encoder.markup">LAME3.98 </property>
  <property name="meta.media.1.stream.type">video</property>
  <property name="meta.media.1.stream.frame_rate">90000</property>
  <property name="meta.media.1.stream.sample_aspect_ratio">0</property>
  <property name="meta.media.1.codec.width">450</property>
  <property name="meta.media.1.codec.height">445</property>
  <property name="meta.media.1.codec.rotate">0</property>
  <property name="meta.media.1.codec.pix_fmt">yuvj420p</property>
  <property name="meta.media.1.codec.sample_aspect_ratio">1</property>
  <property name="meta.media.1.codec.colorspace">601</property>
  <property name="meta.media.1.codec.name">mjpeg</property>
  <property name="meta.media.1.codec.long_name">MJPEG (Motion JPEG)</property>
  <property name="meta.media.1.codec.bit_rate">0</property>
  <property name="meta.attr.1.stream.comment.markup">Cover (front)</property>
  <property name="meta.attr.album_artist.markup">Jeff Wayne</property>
  <property name="meta.attr.title.markup">Epilogue (Part 1)</property>
  <property name="meta.attr.artist.markup">Jeff Wayne</property>
  <property name="meta.attr.album.markup">The War Of The Worlds  (Disc 2)</property>
  <property name="meta.attr.encoded_by.markup">(oan)</property>
  <property name="meta.attr.comment.markup">Enjoy..(oan) SEED ON</property>
  <property name="meta.attr.genre.markup">Electronic, Rock</property>
  <property name="meta.attr.track.markup">06/11</property>
  <property name="meta.attr.disc.markup">2/2</property>
  <property name="meta.attr.date.markup">1996</property>
  <property name="meta.media.sample_aspect_num">200</property>
  <property name="meta.media.sample_aspect_den">200</property>
  <property name="meta.media.frame_rate_num">90000</property>
  <property name="meta.media.frame_rate_den">1</property>
  <property name="meta.media.colorspace">601</property>
  <property name="meta.media.color_trc">2</property>
  <property name="meta.media.has_b_frames">0</property>
  <property name="meta.media.width">450</property>
  <property name="meta.media.height">445</property>
  <property name="meta.media.aspect_ratio">1</property>
  <property name="meta.media.color_range">full</property>
  <property name="xml">was here</property>
  <property name="meta.media.top_field_first">0</property>
  <property name="meta.media.progressive">1</property>
  <property name="set.test_audio">0</property>
  <property name="set.test_image">1</property>
 </chain>
 <playlist id="playlist3">
  <property name="kdenlive:audio_track">1</property>
  <blank length="01:22:12.596"/>
  <entry in="00:00:00.000" out="00:00:51.426" producer="chain4">
   <property name="kdenlive:id">7</property>
   <filter id="filter13" out="00:00:00.042">
    <property name="window">75</property>
    <property name="max_gain">20dB</property>
    <property name="mlt_service">volume</property>
    <property name="kdenlive_id">fadein</property>
    <property name="gain">0</property>
    <property name="end">1</property>
    <property name="kdenlive:collapsed">0</property>
   </filter>
  </entry>
 </playlist>
 <tractor id="tractor1" in="00:00:00.000" out="01:24:05.672">
  <property name="kdenlive:audio_track">1</property>
  <property name="kdenlive:trackheight">84</property>
  <property name="kdenlive:timeline_active">1</property>
  <property name="kdenlive:collapsed">0</property>
  <property name="kdenlive:thumbs_format"/>
  <property name="kdenlive:audio_rec"/>
  <track hide="video" producer="playlist2"/>
  <track hide="video" producer="playlist3"/>
  <transition id="transition1" in="01:23:03.921" out="01:23:04.087">
   <property name="a_track">0</property>
   <property name="b_track">1</property>
   <property name="mlt_service">mix</property>
   <property name="kdenlive_id">mix</property>
   <property name="kdenlive:mixcut">2</property>
   <property name="start">-1</property>
   <property name="accepts_blanks">1</property>
   <property name="reverse">1</property>
  </transition>
  <transition id="transition0" in="01:22:12.596" out="01:22:12.846">
   <property name="a_track">0</property>
   <property name="b_track">1</property>
   <property name="mlt_service">mix</property>
   <property name="kdenlive_id">mix</property>
   <property name="kdenlive:mixcut">2</property>
   <property name="start">-1</property>
   <property name="accepts_blanks">1</property>
   <property name="reverse">0</property>
  </transition>
  <filter id="filter14">
   <property name="window">75</property>
   <property name="max_gain">20dB</property>
   <property name="level">0</property>
   <property name="mlt_service">volume</property>
   <property name="internal_added">237</property>
   <property name="disable">0</property>
  </filter>
  <filter id="filter15">
   <property name="channel">-1</property>
   <property name="mlt_service">panner</property>
   <property name="internal_added">237</property>
   <property name="start">0.5</property>
   <property name="disable">1</property>
  </filter>
  <filter id="filter16">
   <property name="iec_scale">0</property>
   <property name="mlt_service">audiolevel</property>
   <property name="dbpeak">1</property>
   <property name="disable">1</property>
  </filter>
 </tractor>
 <chain id="chain5" out="01:56:31.823">
  <property name="length">167636</property>
  <property name="eof">pause</property>
  <property name="resource">N:/Videos/Horror and SciFi/War of the Worlds/War.Of.The.Worlds.2005.2160p.4K.BluRay.x265.10bit.AAC5.1-[YTS.MX].mkv</property>
  <property name="mlt_service">avformat-novalidate</property>
  <property name="seekable">1</property>
  <property name="audio_index">1</property>
  <property name="video_index">0</property>
  <property name="vstream">0</property>
  <property name="astream">0</property>
  <property name="kdenlive:control_uuid">{f9f6007e-8e24-413c-a48a-093c5dbed24d}</property>
  <property name="kdenlive:proxy">-</property>
  <property name="kdenlive:originalurl">N:/Videos/Horror and SciFi/War of the Worlds/War.Of.The.Worlds.2005.2160p.4K.BluRay.x265.10bit.AAC5.1-[YTS.MX].mkv</property>
  <property name="kdenlive:id">4</property>
  <property name="mute_on_pause">0</property>
  <property name="kdenlive:clip_type">0</property>
  <property name="kdenlive:file_size">6113614378</property>
  <property name="kdenlive:file_hash">5fdc105d4eb78cce2fc0dd9269c83ad1</property>
  <property name="kdenlive:folderid">-1</property>
  <property name="meta.media.nb_streams">31</property>
  <property name="meta.media.0.stream.type">video</property>
  <property name="meta.media.0.stream.frame_rate">23.976</property>
  <property name="meta.media.0.stream.sample_aspect_ratio">1</property>
  <property name="meta.media.0.codec.width">3840</property>
  <property name="meta.media.0.codec.height">2160</property>
  <property name="meta.media.0.codec.rotate">0</property>
  <property name="meta.media.0.codec.pix_fmt">yuv420p10le</property>
  <property name="meta.media.0.codec.sample_aspect_ratio">1</property>
  <property name="meta.media.0.codec.colorspace">709</property>
  <property name="meta.media.0.codec.name">hevc</property>
  <property name="meta.media.0.codec.long_name">HEVC (High Efficiency Video Coding)</property>
  <property name="meta.media.0.codec.bit_rate">0</property>
  <property name="meta.attr.0.stream.ENCODER.markup">Lavc58.84.100 libx265</property>
  <property name="meta.attr.0.stream.DURATION.markup">01:56:31.820000000</property>
  <property name="meta.media.1.stream.type">audio</property>
  <property name="meta.media.1.codec.sample_fmt">fltp</property>
  <property name="meta.media.1.codec.sample_rate">48000</property>
  <property name="meta.media.1.codec.channels">6</property>
  <property name="meta.media.1.codec.layout">5.1</property>
  <property name="meta.media.1.codec.name">aac</property>
  <property name="meta.media.1.codec.long_name">AAC (Advanced Audio Coding)</property>
  <property name="meta.media.1.codec.bit_rate">0</property>
  <property name="meta.attr.1.stream.ENCODER.markup">Lavc58.84.100 libfdk_aac</property>
  <property name="meta.attr.1.stream.DURATION.markup">01:56:31.820000000</property>
  <property name="meta.media.2.codec.name">srt</property>
  <property name="meta.media.2.codec.long_name">SubRip subtitle</property>
  <property name="meta.media.2.codec.bit_rate">0</property>
  <property name="meta.attr.2.stream.language.markup">eng</property>
  <property name="meta.attr.2.stream.title.markup">English-SRT</property>
  <property name="meta.attr.2.stream.BPS-eng.markup">46</property>
  <property name="meta.attr.2.stream.DURATION-eng.markup">01:48:15.482000000</property>
  <property name="meta.attr.2.stream.NUMBER_OF_FRAMES-eng.markup">1117</property>
  <property name="meta.attr.2.stream.NUMBER_OF_BYTES-eng.markup">37959</property>
  <property name="meta.attr.2.stream._STATISTICS_TAGS-eng.markup">BPS DURATION NUMBER_OF_FRAMES NUMBER_OF_BYTES</property>
  <property name="meta.attr.2.stream.DURATION.markup">01:49:38.942000000</property>
  <property name="meta.media.3.codec.name">pgssub</property>
  <property name="meta.media.3.codec.long_name">HDMV Presentation Graphic Stream subtitles</property>
  <property name="meta.media.3.codec.bit_rate">0</property>
  <property name="meta.attr.3.stream.DURATION.markup">01:49:38.949000000</property>
  <property name="meta.media.4.codec.name">pgssub</property>
  <property name="meta.media.4.codec.long_name">HDMV Presentation Graphic Stream subtitles</property>
  <property name="meta.media.4.codec.bit_rate">0</property>
  <property name="meta.attr.4.stream.DURATION.markup">01:49:38.949000000</property>
  <property name="meta.media.5.codec.name">pgssub</property>
  <property name="meta.media.5.codec.long_name">HDMV Presentation Graphic Stream subtitles</property>
  <property name="meta.media.5.codec.bit_rate">0</property>
  <property name="meta.attr.5.stream.DURATION.markup">01:56:26.064000000</property>
  <property name="meta.media.6.codec.name">pgssub</property>
  <property name="meta.media.6.codec.long_name">HDMV Presentation Graphic Stream subtitles</property>
  <property name="meta.media.6.codec.bit_rate">0</property>
  <property name="meta.attr.6.stream.DURATION.markup">01:56:26.064000000</property>
  <property name="meta.media.7.codec.name">pgssub</property>
  <property name="meta.media.7.codec.long_name">HDMV Presentation Graphic Stream subtitles</property>
  <property name="meta.media.7.codec.bit_rate">0</property>
  <property name="meta.attr.7.stream.DURATION.markup">01:56:26.064000000</property>
  <property name="meta.media.8.codec.name">pgssub</property>
  <property name="meta.media.8.codec.long_name">HDMV Presentation Graphic Stream subtitles</property>
  <property name="meta.media.8.codec.bit_rate">0</property>
  <property name="meta.attr.8.stream.DURATION.markup">01:56:26.064000000</property>
  <property name="meta.media.9.codec.name">pgssub</property>
  <property name="meta.media.9.codec.long_name">HDMV Presentation Graphic Stream subtitles</property>
  <property name="meta.media.9.codec.bit_rate">0</property>
  <property name="meta.attr.9.stream.DURATION.markup">01:56:26.064000000</property>
  <property name="meta.media.10.codec.name">pgssub</property>
  <property name="meta.media.10.codec.long_name">HDMV Presentation Graphic Stream subtitles</property>
  <property name="meta.media.10.codec.bit_rate">0</property>
  <property name="meta.attr.10.stream.DURATION.markup">01:56:26.064000000</property>
  <property name="meta.media.11.codec.name">pgssub</property>
  <property name="meta.media.11.codec.long_name">HDMV Presentation Graphic Stream subtitles</property>
  <property name="meta.media.11.codec.bit_rate">0</property>
  <property name="meta.attr.11.stream.DURATION.markup">01:56:26.064000000</property>
  <property name="meta.media.12.codec.name">pgssub</property>
  <property name="meta.media.12.codec.long_name">HDMV Presentation Graphic Stream subtitles</property>
  <property name="meta.media.12.codec.bit_rate">0</property>
  <property name="meta.attr.12.stream.DURATION.markup">01:49:38.991000000</property>
  <property name="meta.media.13.codec.name">pgssub</property>
  <property name="meta.media.13.codec.long_name">HDMV Presentation Graphic Stream subtitles</property>
  <property name="meta.media.13.codec.bit_rate">0</property>
  <property name="meta.attr.13.stream.DURATION.markup">01:56:26.064000000</property>
  <property name="meta.media.14.codec.name">pgssub</property>
  <property name="meta.media.14.codec.long_name">HDMV Presentation Graphic Stream subtitles</property>
  <property name="meta.media.14.codec.bit_rate">0</property>
  <property name="meta.attr.14.stream.DURATION.markup">01:56:26.064000000</property>
  <property name="meta.media.15.codec.name">pgssub</property>
  <property name="meta.media.15.codec.long_name">HDMV Presentation Graphic Stream subtitles</property>
  <property name="meta.media.15.codec.bit_rate">0</property>
  <property name="meta.attr.15.stream.DURATION.markup">01:56:26.064000000</property>
  <property name="meta.media.16.codec.name">pgssub</property>
  <property name="meta.media.16.codec.long_name">HDMV Presentation Graphic Stream subtitles</property>
  <property name="meta.media.16.codec.bit_rate">0</property>
  <property name="meta.attr.16.stream.DURATION.markup">01:56:26.064000000</property>
  <property name="meta.media.17.codec.name">pgssub</property>
  <property name="meta.media.17.codec.long_name">HDMV Presentation Graphic Stream subtitles</property>
  <property name="meta.media.17.codec.bit_rate">0</property>
  <property name="meta.attr.17.stream.DURATION.markup">01:56:26.064000000</property>
  <property name="meta.media.18.codec.name">pgssub</property>
  <property name="meta.media.18.codec.long_name">HDMV Presentation Graphic Stream subtitles</property>
  <property name="meta.media.18.codec.bit_rate">0</property>
  <property name="meta.attr.18.stream.DURATION.markup">01:56:26.064000000</property>
  <property name="meta.media.19.codec.name">pgssub</property>
  <property name="meta.media.19.codec.long_name">HDMV Presentation Graphic Stream subtitles</property>
  <property name="meta.media.19.codec.bit_rate">0</property>
  <property name="meta.attr.19.stream.DURATION.markup">01:49:38.991000000</property>
  <property name="meta.media.20.codec.name">pgssub</property>
  <property name="meta.media.20.codec.long_name">HDMV Presentation Graphic Stream subtitles</property>
  <property name="meta.media.20.codec.bit_rate">0</property>
  <property name="meta.attr.20.stream.DURATION.markup">01:56:26.064000000</property>
  <property name="meta.media.21.codec.name">pgssub</property>
  <property name="meta.media.21.codec.long_name">HDMV Presentation Graphic Stream subtitles</property>
  <property name="meta.media.21.codec.bit_rate">0</property>
  <property name="meta.attr.21.stream.DURATION.markup">01:56:26.064000000</property>
  <property name="meta.media.22.codec.name">pgssub</property>
  <property name="meta.media.22.codec.long_name">HDMV Presentation Graphic Stream subtitles</property>
  <property name="meta.media.22.codec.bit_rate">0</property>
  <property name="meta.attr.22.stream.DURATION.markup">01:56:26.064000000</property>
  <property name="meta.media.23.codec.name">pgssub</property>
  <property name="meta.media.23.codec.long_name">HDMV Presentation Graphic Stream subtitles</property>
  <property name="meta.media.23.codec.bit_rate">0</property>
  <property name="meta.attr.23.stream.DURATION.markup">01:56:26.064000000</property>
  <property name="meta.media.24.codec.name">pgssub</property>
  <property name="meta.media.24.codec.long_name">HDMV Presentation Graphic Stream subtitles</property>
  <property name="meta.media.24.codec.bit_rate">0</property>
  <property name="meta.attr.24.stream.DURATION.markup">01:50:30.251000000</property>
  <property name="meta.media.25.codec.name">pgssub</property>
  <property name="meta.media.25.codec.long_name">HDMV Presentation Graphic Stream subtitles</property>
  <property name="meta.media.25.codec.bit_rate">0</property>
  <property name="meta.attr.25.stream.DURATION.markup">01:56:26.064000000</property>
  <property name="meta.media.26.codec.name">pgssub</property>
  <property name="meta.media.26.codec.long_name">HDMV Presentation Graphic Stream subtitles</property>
  <property name="meta.media.26.codec.bit_rate">0</property>
  <property name="meta.attr.26.stream.DURATION.markup">01:56:26.064000000</property>
  <property name="meta.media.27.codec.name">pgssub</property>
  <property name="meta.media.27.codec.long_name">HDMV Presentation Graphic Stream subtitles</property>
  <property name="meta.media.27.codec.bit_rate">0</property>
  <property name="meta.attr.27.stream.DURATION.markup">01:56:26.064000000</property>
  <property name="meta.media.28.codec.name">pgssub</property>
  <property name="meta.media.28.codec.long_name">HDMV Presentation Graphic Stream subtitles</property>
  <property name="meta.media.28.codec.bit_rate">0</property>
  <property name="meta.attr.28.stream.DURATION.markup">01:50:30.000000000</property>
  <property name="meta.media.29.codec.name">pgssub</property>
  <property name="meta.media.29.codec.long_name">HDMV Presentation Graphic Stream subtitles</property>
  <property name="meta.media.29.codec.bit_rate">0</property>
  <property name="meta.attr.29.stream.DURATION.markup">01:56:26.064000000</property>
  <property name="meta.media.30.codec.name">pgssub</property>
  <property name="meta.media.30.codec.long_name">HDMV Presentation Graphic Stream subtitles</property>
  <property name="meta.media.30.codec.bit_rate">0</property>
  <property name="meta.attr.30.stream.DURATION.markup">01:56:26.064000000</property>
  <property name="meta.attr.ENCODER.markup">Lavf58.43.100</property>
  <property name="meta.media.sample_aspect_num">1</property>
  <property name="meta.media.sample_aspect_den">1</property>
  <property name="meta.media.frame_rate_num">24000</property>
  <property name="meta.media.frame_rate_den">1001</property>
  <property name="meta.media.colorspace">709</property>
  <property name="meta.media.color_trc">2</property>
  <property name="meta.media.has_b_frames">2</property>
  <property name="meta.media.width">3840</property>
  <property name="meta.media.height">2160</property>
  <property name="meta.media.aspect_ratio">1</property>
  <property name="meta.media.color_range">mpeg</property>
  <property name="xml">was here</property>
  <property name="meta.media.top_field_first">0</property>
  <property name="meta.media.progressive">1</property>
  <property name="set.test_audio">0</property>
  <property name="set.test_image">1</property>
 </chain>
 <playlist id="playlist4">
  <property name="kdenlive:audio_track">1</property>
  <blank length="00:00:23.690"/>
  <entry in="00:00:00.000" out="00:01:09.551" producer="chain5">
   <property name="kdenlive:id">4</property>
   <filter id="filter17" in="00:01:01.668" out="00:01:09.551">
    <property name="window">75</property>
    <property name="max_gain">20dB</property>
    <property name="mlt_service">volume</property>
    <property name="kdenlive_id">fadeout</property>
    <property name="gain">1</property>
    <property name="end">0</property>
    <property name="kdenlive:collapsed">0</property>
   </filter>
   <filter id="filter18" out="00:00:04.922">
    <property name="window">75</property>
    <property name="max_gain">20dB</property>
    <property name="mlt_service">volume</property>
    <property name="kdenlive_id">fadein</property>
    <property name="gain">0</property>
    <property name="end">1</property>
    <property name="kdenlive:collapsed">0</property>
   </filter>
  </entry>
  <blank length="00:21:17.100"/>
  <entry in="00:39:51.843" out="00:40:07.299" producer="chain5">
   <property name="kdenlive:id">4</property>
   <filter id="filter19" in="00:39:51.843" out="00:40:07.341">
    <property name="window">75</property>
    <property name="max_gain">20dB</property>
    <property name="mlt_service">volume</property>
    <property name="kdenlive_id">fadein</property>
    <property name="gain">0</property>
    <property name="end">1</property>
    <property name="kdenlive:collapsed">0</property>
   </filter>
   <filter id="filter20" in="00:40:06.340" out="00:40:07.299">
    <property name="window">75</property>
    <property name="max_gain">20dB</property>
    <property name="mlt_service">volume</property>
    <property name="kdenlive_id">fadeout</property>
    <property name="gain">1</property>
    <property name="end">0</property>
   </filter>
  </entry>
  <blank length="00:05:18.227"/>
  <entry in="00:50:33.492" out="00:50:43.126" producer="chain5">
   <property name="kdenlive:id">4</property>
   <filter id="filter21" in="00:50:33.492" out="00:50:43.085">
    <property name="window">75</property>
    <property name="max_gain">20dB</property>
    <property name="mlt_service">volume</property>
    <property name="kdenlive_id">fadein</property>
    <property name="gain">0</property>
    <property name="end">1</property>
    <property name="kdenlive:collapsed">0</property>
   </filter>
  </entry>
  <blank length="00:14:24.441"/>
  <entry in="01:06:23.023" out="01:06:31.156" producer="chain5">
   <property name="kdenlive:id">4</property>
   <filter id="filter22" in="01:06:23.023" out="01:06:23.565">
    <property name="window">75</property>
    <property name="max_gain">20dB</property>
    <property name="mlt_service">volume</property>
    <property name="kdenlive_id">fadein</property>
    <property name="gain">0</property>
    <property name="end">1</property>
    <property name="kdenlive:collapsed">0</property>
   </filter>
  </entry>
  <blank length="00:17:50.759"/>
  <entry in="01:28:25.317" out="01:28:50.217" producer="chain5">
   <property name="kdenlive:id">4</property>
   <filter id="filter23" in="01:28:44.711" out="01:28:50.217">
    <property name="window">75</property>
    <property name="max_gain">20dB</property>
    <property name="mlt_service">volume</property>
    <property name="kdenlive_id">fadeout</property>
    <property name="gain">1</property>
    <property name="end">0</property>
    <property name="kdenlive:collapsed">0</property>
   </filter>
  </entry>
  <blank length="00:14:38.372"/>
  <entry in="00:00:04.713" out="00:00:57.015" producer="chain5">
   <property name="kdenlive:id">4</property>
   <filter id="filter24" in="00:00:49.132" out="00:00:57.015">
    <property name="window">75</property>
    <property name="max_gain">20dB</property>
    <property name="mlt_service">volume</property>
    <property name="kdenlive_id">fadeout</property>
    <property name="gain">1</property>
    <property name="end">0</property>
    <property name="kdenlive:collapsed">0</property>
   </filter>
   <filter id="filter25" in="00:00:04.713" out="00:00:09.635">
    <property name="window">75</property>
    <property name="max_gain">20dB</property>
    <property name="mlt_service">volume</property>
    <property name="kdenlive_id">fadein</property>
    <property name="gain">0</property>
    <property name="end">1</property>
    <property name="kdenlive:collapsed">0</property>
   </filter>
  </entry>
 </playlist>
 <playlist id="playlist5">
  <property name="kdenlive:audio_track">1</property>
 </playlist>
 <tractor id="tractor2" in="00:00:00.000" out="01:16:52.678">
  <property name="kdenlive:audio_track">1</property>
  <property name="kdenlive:trackheight">84</property>
  <property name="kdenlive:timeline_active">1</property>
  <property name="kdenlive:collapsed">0</property>
  <property name="kdenlive:thumbs_format"/>
  <property name="kdenlive:audio_rec"/>
  <track hide="video" producer="playlist4"/>
  <track hide="video" producer="playlist5"/>
  <filter id="filter26">
   <property name="window">75</property>
   <property name="max_gain">20dB</property>
   <property name="level">0.0234783</property>
   <property name="mlt_service">volume</property>
   <property name="internal_added">237</property>
   <property name="disable">0</property>
  </filter>
  <filter id="filter27">
   <property name="channel">-1</property>
   <property name="mlt_service">panner</property>
   <property name="internal_added">237</property>
   <property name="start">0.5</property>
   <property name="disable">1</property>
  </filter>
  <filter id="filter28">
   <property name="iec_scale">0</property>
   <property name="mlt_service">audiolevel</property>
   <property name="dbpeak">1</property>
   <property name="disable">1</property>
  </filter>
 </tractor>
 <chain id="chain6" out="01:56:31.823">
  <property name="length">167636</property>
  <property name="eof">pause</property>
  <property name="resource">N:/Videos/Horror and SciFi/War of the Worlds/War.Of.The.Worlds.2005.2160p.4K.BluRay.x265.10bit.AAC5.1-[YTS.MX].mkv</property>
  <property name="mlt_service">avformat-novalidate</property>
  <property name="seekable">1</property>
  <property name="audio_index">1</property>
  <property name="video_index">0</property>
  <property name="vstream">0</property>
  <property name="astream">0</property>
  <property name="kdenlive:control_uuid">{f9f6007e-8e24-413c-a48a-093c5dbed24d}</property>
  <property name="kdenlive:proxy">-</property>
  <property name="kdenlive:originalurl">N:/Videos/Horror and SciFi/War of the Worlds/War.Of.The.Worlds.2005.2160p.4K.BluRay.x265.10bit.AAC5.1-[YTS.MX].mkv</property>
  <property name="kdenlive:id">4</property>
  <property name="mute_on_pause">0</property>
  <property name="kdenlive:clip_type">0</property>
  <property name="kdenlive:file_size">6113614378</property>
  <property name="kdenlive:file_hash">5fdc105d4eb78cce2fc0dd9269c83ad1</property>
  <property name="kdenlive:folderid">-1</property>
  <property name="meta.media.nb_streams">31</property>
  <property name="meta.media.0.stream.type">video</property>
  <property name="meta.media.0.stream.frame_rate">23.976</property>
  <property name="meta.media.0.stream.sample_aspect_ratio">1</property>
  <property name="meta.media.0.codec.width">3840</property>
  <property name="meta.media.0.codec.height">2160</property>
  <property name="meta.media.0.codec.rotate">0</property>
  <property name="meta.media.0.codec.pix_fmt">yuv420p10le</property>
  <property name="meta.media.0.codec.sample_aspect_ratio">1</property>
  <property name="meta.media.0.codec.colorspace">709</property>
  <property name="meta.media.0.codec.name">hevc</property>
  <property name="meta.media.0.codec.long_name">HEVC (High Efficiency Video Coding)</property>
  <property name="meta.media.0.codec.bit_rate">0</property>
  <property name="meta.attr.0.stream.ENCODER.markup">Lavc58.84.100 libx265</property>
  <property name="meta.attr.0.stream.DURATION.markup">01:56:31.820000000</property>
  <property name="meta.media.1.stream.type">audio</property>
  <property name="meta.media.1.codec.sample_fmt">fltp</property>
  <property name="meta.media.1.codec.sample_rate">48000</property>
  <property name="meta.media.1.codec.channels">6</property>
  <property name="meta.media.1.codec.layout">5.1</property>
  <property name="meta.media.1.codec.name">aac</property>
  <property name="meta.media.1.codec.long_name">AAC (Advanced Audio Coding)</property>
  <property name="meta.media.1.codec.bit_rate">0</property>
  <property name="meta.attr.1.stream.ENCODER.markup">Lavc58.84.100 libfdk_aac</property>
  <property name="meta.attr.1.stream.DURATION.markup">01:56:31.820000000</property>
  <property name="meta.media.2.codec.name">srt</property>
  <property name="meta.media.2.codec.long_name">SubRip subtitle</property>
  <property name="meta.media.2.codec.bit_rate">0</property>
  <property name="meta.attr.2.stream.language.markup">eng</property>
  <property name="meta.attr.2.stream.title.markup">English-SRT</property>
  <property name="meta.attr.2.stream.BPS-eng.markup">46</property>
  <property name="meta.attr.2.stream.DURATION-eng.markup">01:48:15.482000000</property>
  <property name="meta.attr.2.stream.NUMBER_OF_FRAMES-eng.markup">1117</property>
  <property name="meta.attr.2.stream.NUMBER_OF_BYTES-eng.markup">37959</property>
  <property name="meta.attr.2.stream._STATISTICS_TAGS-eng.markup">BPS DURATION NUMBER_OF_FRAMES NUMBER_OF_BYTES</property>
  <property name="meta.attr.2.stream.DURATION.markup">01:49:38.942000000</property>
  <property name="meta.media.3.codec.name">pgssub</property>
  <property name="meta.media.3.codec.long_name">HDMV Presentation Graphic Stream subtitles</property>
  <property name="meta.media.3.codec.bit_rate">0</property>
  <property name="meta.attr.3.stream.DURATION.markup">01:49:38.949000000</property>
  <property name="meta.media.4.codec.name">pgssub</property>
  <property name="meta.media.4.codec.long_name">HDMV Presentation Graphic Stream subtitles</property>
  <property name="meta.media.4.codec.bit_rate">0</property>
  <property name="meta.attr.4.stream.DURATION.markup">01:49:38.949000000</property>
  <property name="meta.media.5.codec.name">pgssub</property>
  <property name="meta.media.5.codec.long_name">HDMV Presentation Graphic Stream subtitles</property>
  <property name="meta.media.5.codec.bit_rate">0</property>
  <property name="meta.attr.5.stream.DURATION.markup">01:56:26.064000000</property>
  <property name="meta.media.6.codec.name">pgssub</property>
  <property name="meta.media.6.codec.long_name">HDMV Presentation Graphic Stream subtitles</property>
  <property name="meta.media.6.codec.bit_rate">0</property>
  <property name="meta.attr.6.stream.DURATION.markup">01:56:26.064000000</property>
  <property name="meta.media.7.codec.name">pgssub</property>
  <property name="meta.media.7.codec.long_name">HDMV Presentation Graphic Stream subtitles</property>
  <property name="meta.media.7.codec.bit_rate">0</property>
  <property name="meta.attr.7.stream.DURATION.markup">01:56:26.064000000</property>
  <property name="meta.media.8.codec.name">pgssub</property>
  <property name="meta.media.8.codec.long_name">HDMV Presentation Graphic Stream subtitles</property>
  <property name="meta.media.8.codec.bit_rate">0</property>
  <property name="meta.attr.8.stream.DURATION.markup">01:56:26.064000000</property>
  <property name="meta.media.9.codec.name">pgssub</property>
  <property name="meta.media.9.codec.long_name">HDMV Presentation Graphic Stream subtitles</property>
  <property name="meta.media.9.codec.bit_rate">0</property>
  <property name="meta.attr.9.stream.DURATION.markup">01:56:26.064000000</property>
  <property name="meta.media.10.codec.name">pgssub</property>
  <property name="meta.media.10.codec.long_name">HDMV Presentation Graphic Stream subtitles</property>
  <property name="meta.media.10.codec.bit_rate">0</property>
  <property name="meta.attr.10.stream.DURATION.markup">01:56:26.064000000</property>
  <property name="meta.media.11.codec.name">pgssub</property>
  <property name="meta.media.11.codec.long_name">HDMV Presentation Graphic Stream subtitles</property>
  <property name="meta.media.11.codec.bit_rate">0</property>
  <property name="meta.attr.11.stream.DURATION.markup">01:56:26.064000000</property>
  <property name="meta.media.12.codec.name">pgssub</property>
  <property name="meta.media.12.codec.long_name">HDMV Presentation Graphic Stream subtitles</property>
  <property name="meta.media.12.codec.bit_rate">0</property>
  <property name="meta.attr.12.stream.DURATION.markup">01:49:38.991000000</property>
  <property name="meta.media.13.codec.name">pgssub</property>
  <property name="meta.media.13.codec.long_name">HDMV Presentation Graphic Stream subtitles</property>
  <property name="meta.media.13.codec.bit_rate">0</property>
  <property name="meta.attr.13.stream.DURATION.markup">01:56:26.064000000</property>
  <property name="meta.media.14.codec.name">pgssub</property>
  <property name="meta.media.14.codec.long_name">HDMV Presentation Graphic Stream subtitles</property>
  <property name="meta.media.14.codec.bit_rate">0</property>
  <property name="meta.attr.14.stream.DURATION.markup">01:56:26.064000000</property>
  <property name="meta.media.15.codec.name">pgssub</property>
  <property name="meta.media.15.codec.long_name">HDMV Presentation Graphic Stream subtitles</property>
  <property name="meta.media.15.codec.bit_rate">0</property>
  <property name="meta.attr.15.stream.DURATION.markup">01:56:26.064000000</property>
  <property name="meta.media.16.codec.name">pgssub</property>
  <property name="meta.media.16.codec.long_name">HDMV Presentation Graphic Stream subtitles</property>
  <property name="meta.media.16.codec.bit_rate">0</property>
  <property name="meta.attr.16.stream.DURATION.markup">01:56:26.064000000</property>
  <property name="meta.media.17.codec.name">pgssub</property>
  <property name="meta.media.17.codec.long_name">HDMV Presentation Graphic Stream subtitles</property>
  <property name="meta.media.17.codec.bit_rate">0</property>
  <property name="meta.attr.17.stream.DURATION.markup">01:56:26.064000000</property>
  <property name="meta.media.18.codec.name">pgssub</property>
  <property name="meta.media.18.codec.long_name">HDMV Presentation Graphic Stream subtitles</property>
  <property name="meta.media.18.codec.bit_rate">0</property>
  <property name="meta.attr.18.stream.DURATION.markup">01:56:26.064000000</property>
  <property name="meta.media.19.codec.name">pgssub</property>
  <property name="meta.media.19.codec.long_name">HDMV Presentation Graphic Stream subtitles</property>
  <property name="meta.media.19.codec.bit_rate">0</property>
  <property name="meta.attr.19.stream.DURATION.markup">01:49:38.991000000</property>
  <property name="meta.media.20.codec.name">pgssub</property>
  <property name="meta.media.20.codec.long_name">HDMV Presentation Graphic Stream subtitles</property>
  <property name="meta.media.20.codec.bit_rate">0</property>
  <property name="meta.attr.20.stream.DURATION.markup">01:56:26.064000000</property>
  <property name="meta.media.21.codec.name">pgssub</property>
  <property name="meta.media.21.codec.long_name">HDMV Presentation Graphic Stream subtitles</property>
  <property name="meta.media.21.codec.bit_rate">0</property>
  <property name="meta.attr.21.stream.DURATION.markup">01:56:26.064000000</property>
  <property name="meta.media.22.codec.name">pgssub</property>
  <property name="meta.media.22.codec.long_name">HDMV Presentation Graphic Stream subtitles</property>
  <property name="meta.media.22.codec.bit_rate">0</property>
  <property name="meta.attr.22.stream.DURATION.markup">01:56:26.064000000</property>
  <property name="meta.media.23.codec.name">pgssub</property>
  <property name="meta.media.23.codec.long_name">HDMV Presentation Graphic Stream subtitles</property>
  <property name="meta.media.23.codec.bit_rate">0</property>
  <property name="meta.attr.23.stream.DURATION.markup">01:56:26.064000000</property>
  <property name="meta.media.24.codec.name">pgssub</property>
  <property name="meta.media.24.codec.long_name">HDMV Presentation Graphic Stream subtitles</property>
  <property name="meta.media.24.codec.bit_rate">0</property>
  <property name="meta.attr.24.stream.DURATION.markup">01:50:30.251000000</property>
  <property name="meta.media.25.codec.name">pgssub</property>
  <property name="meta.media.25.codec.long_name">HDMV Presentation Graphic Stream subtitles</property>
  <property name="meta.media.25.codec.bit_rate">0</property>
  <property name="meta.attr.25.stream.DURATION.markup">01:56:26.064000000</property>
  <property name="meta.media.26.codec.name">pgssub</property>
  <property name="meta.media.26.codec.long_name">HDMV Presentation Graphic Stream subtitles</property>
  <property name="meta.media.26.codec.bit_rate">0</property>
  <property name="meta.attr.26.stream.DURATION.markup">01:56:26.064000000</property>
  <property name="meta.media.27.codec.name">pgssub</property>
  <property name="meta.media.27.codec.long_name">HDMV Presentation Graphic Stream subtitles</property>
  <property name="meta.media.27.codec.bit_rate">0</property>
  <property name="meta.attr.27.stream.DURATION.markup">01:56:26.064000000</property>
  <property name="meta.media.28.codec.name">pgssub</property>
  <property name="meta.media.28.codec.long_name">HDMV Presentation Graphic Stream subtitles</property>
  <property name="meta.media.28.codec.bit_rate">0</property>
  <property name="meta.attr.28.stream.DURATION.markup">01:50:30.000000000</property>
  <property name="meta.media.29.codec.name">pgssub</property>
  <property name="meta.media.29.codec.long_name">HDMV Presentation Graphic Stream subtitles</property>
  <property name="meta.media.29.codec.bit_rate">0</property>
  <property name="meta.attr.29.stream.DURATION.markup">01:56:26.064000000</property>
  <property name="meta.media.30.codec.name">pgssub</property>
  <property name="meta.media.30.codec.long_name">HDMV Presentation Graphic Stream subtitles</property>
  <property name="meta.media.30.codec.bit_rate">0</property>
  <property name="meta.attr.30.stream.DURATION.markup">01:56:26.064000000</property>
  <property name="meta.attr.ENCODER.markup">Lavf58.43.100</property>
  <property name="meta.media.sample_aspect_num">1</property>
  <property name="meta.media.sample_aspect_den">1</property>
  <property name="meta.media.frame_rate_num">24000</property>
  <property name="meta.media.frame_rate_den">1001</property>
  <property name="meta.media.colorspace">709</property>
  <property name="meta.media.color_trc">2</property>
  <property name="meta.media.has_b_frames">2</property>
  <property name="meta.media.width">3840</property>
  <property name="meta.media.height">2160</property>
  <property name="meta.media.aspect_ratio">1</property>
  <property name="meta.media.color_range">mpeg</property>
  <property name="xml">was here</property>
  <property name="meta.media.top_field_first">0</property>
  <property name="meta.media.progressive">1</property>
  <property name="set.test_audio">0</property>
  <property name="set.test_image">1</property>
 </chain>
 <playlist id="playlist6">
  <property name="kdenlive:audio_track">1</property>
  <blank length="00:01:23.982"/>
  <entry in="00:02:31.114" out="00:02:53.053" producer="chain6">
   <property name="kdenlive:id">4</property>
   <filter id="filter29" in="00:02:31.114" out="00:02:33.867">
    <property name="window">75</property>
    <property name="max_gain">20dB</property>
    <property name="mlt_service">volume</property>
    <property name="kdenlive_id">fadein</property>
    <property name="gain">0</property>
    <property name="end">1</property>
    <property name="kdenlive:collapsed">0</property>
   </filter>
  </entry>
  <entry in="00:02:53.095" out="00:04:28.111" producer="chain6">
   <property name="kdenlive:id">4</property>
  </entry>
  <blank length="00:00:00.667"/>
  <entry in="00:10:51.635" out="00:11:16.516" producer="chain6">
   <property name="kdenlive:id">4</property>
  </entry>
  <entry in="00:13:17.434" out="00:19:39.373" producer="chain6">
   <property name="kdenlive:id">4</property>
  </entry>
  <entry in="00:19:39.414" out="00:19:43.335" producer="chain6">
   <property name="kdenlive:id">4</property>
  </entry>
  <blank length="00:00:05.422"/>
  <entry in="00:20:15.724" out="00:26:45.337" producer="chain6">
   <property name="kdenlive:id">4</property>
  </entry>
  <entry in="00:26:45.379" out="00:26:59.559" producer="chain6">
   <property name="kdenlive:id">4</property>
   <filter id="filter30" in="00:26:58.433" out="00:26:59.559">
    <property name="window">75</property>
    <property name="max_gain">20dB</property>
    <property name="mlt_service">volume</property>
    <property name="kdenlive_id">fadeout</property>
    <property name="gain">1</property>
    <property name="end">0</property>
    <property name="kdenlive:collapsed">0</property>
   </filter>
  </entry>
  <blank length="00:00:01.710"/>
  <entry in="00:27:20.854" out="00:27:53.804" producer="chain6">
   <property name="kdenlive:id">4</property>
  </entry>
  <blank length="00:00:45.087"/>
  <entry in="00:30:30.864" out="00:30:40.999" producer="chain6">
   <property name="kdenlive:id">4</property>
  </entry>
  <blank length="00:00:10.928"/>
  <entry in="00:31:27.736" out="00:31:33.367" producer="chain6">
   <property name="kdenlive:id">4</property>
  </entry>
  <blank length="00:00:33.158"/>
  <entry in="00:32:51.218" out="00:33:03.837" producer="chain6">
   <property name="kdenlive:id">4</property>
  </entry>
  <blank length="00:00:38.247"/>
  <entry in="00:33:51.468" out="00:33:55.180" producer="chain6">
   <property name="kdenlive:id">4</property>
  </entry>
  <blank length="00:00:09.635"/>
  <entry in="00:34:44.544" out="00:35:37.037" producer="chain6">
   <property name="kdenlive:id">4</property>
  </entry>
  <entry in="00:35:37.079" out="00:35:39.331" producer="chain6">
   <property name="kdenlive:id">4</property>
  </entry>
  <blank length="00:00:02.461"/>
  <entry in="00:37:53.345" out="00:38:00.584" producer="chain6">
   <property name="kdenlive:id">4</property>
  </entry>
  <blank length="00:00:04.087"/>
  <entry in="00:38:29.821" out="00:39:46.838" producer="chain6">
   <property name="kdenlive:id">4</property>
  </entry>
  <entry in="00:39:46.880" out="00:39:46.880" producer="chain6">
   <property name="kdenlive:id">4</property>
  </entry>
  <entry in="00:39:46.880" out="00:39:46.880" producer="chain6">
   <property name="kdenlive:id">4</property>
  </entry>
  <blank length="00:00:13.055"/>
  <entry in="00:40:08.258" out="00:40:11.929" producer="chain6">
   <property name="kdenlive:id">4</property>
   <filter id="filter31" in="00:40:08.258" out="00:40:09.259">
    <property name="window">75</property>
    <property name="max_gain">20dB</property>
    <property name="mlt_service">volume</property>
    <property name="kdenlive_id">fadein</property>
    <property name="gain">0</property>
    <property name="end">1</property>
    <property name="kdenlive:collapsed">0</property>
   </filter>
  </entry>
  <blank length="00:00:10.969"/>
  <entry in="00:40:31.615" out="00:40:38.664" producer="chain6">
   <property name="kdenlive:id">4</property>
  </entry>
  <entry in="00:40:38.705" out="00:40:49.258" producer="chain6">
   <property name="kdenlive:id">4</property>
   <filter id="filter32" in="00:40:41.917" out="00:40:49.258">
    <property name="window">75</property>
    <property name="max_gain">20dB</property>
    <property name="mlt_service">volume</property>
    <property name="kdenlive_id">fadeout</property>
    <property name="gain">1</property>
    <property name="end">0</property>
    <property name="kdenlive:collapsed">0</property>
   </filter>
  </entry>
  <entry in="00:40:54.930" out="00:43:59.810" producer="chain6">
   <property name="kdenlive:id">4</property>
  </entry>
  <entry in="00:43:59.851" out="00:44:20.520" producer="chain6">
   <property name="kdenlive:id">4</property>
  </entry>
  <entry in="00:44:20.562" out="00:44:22.356" producer="chain6">
   <property name="kdenlive:id">4</property>
  </entry>
  <blank length="00:00:22.814"/>
  <entry in="00:45:44.086" out="00:46:04.796" producer="chain6">
   <property name="kdenlive:id">4</property>
  </entry>
  <entry in="00:46:04.838" out="00:46:08.508" producer="chain6">
   <property name="kdenlive:id">4</property>
  </entry>
  <blank length="00:00:41.959"/>
  <entry in="00:50:43.168" out="00:52:18.977" producer="chain6">
   <property name="kdenlive:id">4</property>
  </entry>
  <entry in="00:52:34.826" out="00:53:04.838" producer="chain6">
   <property name="kdenlive:id">4</property>
  </entry>
  <blank length="00:01:29.363"/>
  <entry in="00:54:41.083" out="01:01:43.502" producer="chain6">
   <property name="kdenlive:id">4</property>
  </entry>
  <blank length="00:03:50.842"/>
  <entry in="01:07:24.608" out="01:07:28.487" producer="chain6">
   <property name="kdenlive:id">4</property>
   <filter id="filter33" in="01:07:24.608" out="01:07:28.195">
    <property name="window">75</property>
    <property name="max_gain">20dB</property>
    <property name="mlt_service">volume</property>
    <property name="kdenlive_id">fadein</property>
    <property name="gain">0</property>
    <property name="end">1</property>
    <property name="kdenlive:collapsed">0</property>
   </filter>
  </entry>
  <entry in="01:07:28.528" out="01:08:27.069" producer="chain6">
   <property name="kdenlive:id">4</property>
  </entry>
  <entry in="01:08:27.110" out="01:08:34.159" producer="chain6">
   <property name="kdenlive:id">4</property>
  </entry>
  <blank length="00:00:01.210"/>
  <entry in="01:08:43.585" out="01:08:47.256" producer="chain6">
   <property name="kdenlive:id">4</property>
  </entry>
  <blank length="00:00:02.753"/>
  <entry in="01:09:08.759" out="01:10:02.628" producer="chain6">
   <property name="kdenlive:id">4</property>
  </entry>
  <entry in="01:10:02.669" out="01:12:29.863" producer="chain6">
   <property name="kdenlive:id">4</property>
  </entry>
  <entry in="01:13:49.049" out="01:20:44.586" producer="chain6">
   <property name="kdenlive:id">4</property>
  </entry>
  <entry in="01:20:46.129" out="01:26:55.430" producer="chain6">
   <property name="kdenlive:id">4</property>
  </entry>
  <entry in="01:26:55.472" out="01:27:09.760" producer="chain6">
   <property name="kdenlive:id">4</property>
  </entry>
  <blank length="00:00:10.344"/>
  <entry in="01:29:04.046" out="01:32:38.413" producer="chain6">
   <property name="kdenlive:id">4</property>
  </entry>
  <entry in="01:33:07.382" out="01:33:11.553" producer="chain6">
   <property name="kdenlive:id">4</property>
  </entry>
  <entry in="01:33:11.595" out="01:38:21.104" producer="chain6">
   <property name="kdenlive:id">4</property>
  </entry>
  <blank length="00:04:52.970"/>
  <entry in="01:43:21.021" out="01:43:38.247" producer="chain6">
   <property name="kdenlive:id">4</property>
  </entry>
  <blank length="00:01:10.260"/>
  <entry in="01:45:21.605" out="01:45:39.122" producer="chain6">
   <property name="kdenlive:id">4</property>
   <filter id="filter34" in="01:45:21.563" out="01:45:39.122">
    <property name="window">75</property>
    <property name="max_gain">20dB</property>
    <property name="mlt_service">volume</property>
    <property name="kdenlive_id">fadeout</property>
    <property name="gain">1</property>
    <property name="end">0</property>
    <property name="kdenlive:collapsed">0</property>
   </filter>
  </entry>
 </playlist>
 <chain id="chain7" out="01:56:31.823">
  <property name="length">167636</property>
  <property name="eof">pause</property>
  <property name="resource">N:/Videos/Horror and SciFi/War of the Worlds/War.Of.The.Worlds.2005.2160p.4K.BluRay.x265.10bit.AAC5.1-[YTS.MX].mkv</property>
  <property name="mlt_service">avformat-novalidate</property>
  <property name="seekable">1</property>
  <property name="audio_index">1</property>
  <property name="video_index">0</property>
  <property name="vstream">0</property>
  <property name="astream">0</property>
  <property name="kdenlive:control_uuid">{f9f6007e-8e24-413c-a48a-093c5dbed24d}</property>
  <property name="kdenlive:proxy">-</property>
  <property name="kdenlive:originalurl">N:/Videos/Horror and SciFi/War of the Worlds/War.Of.The.Worlds.2005.2160p.4K.BluRay.x265.10bit.AAC5.1-[YTS.MX].mkv</property>
  <property name="kdenlive:id">4</property>
  <property name="mute_on_pause">0</property>
  <property name="kdenlive:clip_type">0</property>
  <property name="kdenlive:file_size">6113614378</property>
  <property name="kdenlive:file_hash">5fdc105d4eb78cce2fc0dd9269c83ad1</property>
  <property name="kdenlive:folderid">-1</property>
  <property name="meta.media.nb_streams">31</property>
  <property name="meta.media.0.stream.type">video</property>
  <property name="meta.media.0.stream.frame_rate">23.976</property>
  <property name="meta.media.0.stream.sample_aspect_ratio">1</property>
  <property name="meta.media.0.codec.width">3840</property>
  <property name="meta.media.0.codec.height">2160</property>
  <property name="meta.media.0.codec.rotate">0</property>
  <property name="meta.media.0.codec.pix_fmt">yuv420p10le</property>
  <property name="meta.media.0.codec.sample_aspect_ratio">1</property>
  <property name="meta.media.0.codec.colorspace">709</property>
  <property name="meta.media.0.codec.name">hevc</property>
  <property name="meta.media.0.codec.long_name">HEVC (High Efficiency Video Coding)</property>
  <property name="meta.media.0.codec.bit_rate">0</property>
  <property name="meta.attr.0.stream.ENCODER.markup">Lavc58.84.100 libx265</property>
  <property name="meta.attr.0.stream.DURATION.markup">01:56:31.820000000</property>
  <property name="meta.media.1.stream.type">audio</property>
  <property name="meta.media.1.codec.sample_fmt">fltp</property>
  <property name="meta.media.1.codec.sample_rate">48000</property>
  <property name="meta.media.1.codec.channels">6</property>
  <property name="meta.media.1.codec.layout">5.1</property>
  <property name="meta.media.1.codec.name">aac</property>
  <property name="meta.media.1.codec.long_name">AAC (Advanced Audio Coding)</property>
  <property name="meta.media.1.codec.bit_rate">0</property>
  <property name="meta.attr.1.stream.ENCODER.markup">Lavc58.84.100 libfdk_aac</property>
  <property name="meta.attr.1.stream.DURATION.markup">01:56:31.820000000</property>
  <property name="meta.media.2.codec.name">srt</property>
  <property name="meta.media.2.codec.long_name">SubRip subtitle</property>
  <property name="meta.media.2.codec.bit_rate">0</property>
  <property name="meta.attr.2.stream.language.markup">eng</property>
  <property name="meta.attr.2.stream.title.markup">English-SRT</property>
  <property name="meta.attr.2.stream.BPS-eng.markup">46</property>
  <property name="meta.attr.2.stream.DURATION-eng.markup">01:48:15.482000000</property>
  <property name="meta.attr.2.stream.NUMBER_OF_FRAMES-eng.markup">1117</property>
  <property name="meta.attr.2.stream.NUMBER_OF_BYTES-eng.markup">37959</property>
  <property name="meta.attr.2.stream._STATISTICS_TAGS-eng.markup">BPS DURATION NUMBER_OF_FRAMES NUMBER_OF_BYTES</property>
  <property name="meta.attr.2.stream.DURATION.markup">01:49:38.942000000</property>
  <property name="meta.media.3.codec.name">pgssub</property>
  <property name="meta.media.3.codec.long_name">HDMV Presentation Graphic Stream subtitles</property>
  <property name="meta.media.3.codec.bit_rate">0</property>
  <property name="meta.attr.3.stream.DURATION.markup">01:49:38.949000000</property>
  <property name="meta.media.4.codec.name">pgssub</property>
  <property name="meta.media.4.codec.long_name">HDMV Presentation Graphic Stream subtitles</property>
  <property name="meta.media.4.codec.bit_rate">0</property>
  <property name="meta.attr.4.stream.DURATION.markup">01:49:38.949000000</property>
  <property name="meta.media.5.codec.name">pgssub</property>
  <property name="meta.media.5.codec.long_name">HDMV Presentation Graphic Stream subtitles</property>
  <property name="meta.media.5.codec.bit_rate">0</property>
  <property name="meta.attr.5.stream.DURATION.markup">01:56:26.064000000</property>
  <property name="meta.media.6.codec.name">pgssub</property>
  <property name="meta.media.6.codec.long_name">HDMV Presentation Graphic Stream subtitles</property>
  <property name="meta.media.6.codec.bit_rate">0</property>
  <property name="meta.attr.6.stream.DURATION.markup">01:56:26.064000000</property>
  <property name="meta.media.7.codec.name">pgssub</property>
  <property name="meta.media.7.codec.long_name">HDMV Presentation Graphic Stream subtitles</property>
  <property name="meta.media.7.codec.bit_rate">0</property>
  <property name="meta.attr.7.stream.DURATION.markup">01:56:26.064000000</property>
  <property name="meta.media.8.codec.name">pgssub</property>
  <property name="meta.media.8.codec.long_name">HDMV Presentation Graphic Stream subtitles</property>
  <property name="meta.media.8.codec.bit_rate">0</property>
  <property name="meta.attr.8.stream.DURATION.markup">01:56:26.064000000</property>
  <property name="meta.media.9.codec.name">pgssub</property>
  <property name="meta.media.9.codec.long_name">HDMV Presentation Graphic Stream subtitles</property>
  <property name="meta.media.9.codec.bit_rate">0</property>
  <property name="meta.attr.9.stream.DURATION.markup">01:56:26.064000000</property>
  <property name="meta.media.10.codec.name">pgssub</property>
  <property name="meta.media.10.codec.long_name">HDMV Presentation Graphic Stream subtitles</property>
  <property name="meta.media.10.codec.bit_rate">0</property>
  <property name="meta.attr.10.stream.DURATION.markup">01:56:26.064000000</property>
  <property name="meta.media.11.codec.name">pgssub</property>
  <property name="meta.media.11.codec.long_name">HDMV Presentation Graphic Stream subtitles</property>
  <property name="meta.media.11.codec.bit_rate">0</property>
  <property name="meta.attr.11.stream.DURATION.markup">01:56:26.064000000</property>
  <property name="meta.media.12.codec.name">pgssub</property>
  <property name="meta.media.12.codec.long_name">HDMV Presentation Graphic Stream subtitles</property>
  <property name="meta.media.12.codec.bit_rate">0</property>
  <property name="meta.attr.12.stream.DURATION.markup">01:49:38.991000000</property>
  <property name="meta.media.13.codec.name">pgssub</property>
  <property name="meta.media.13.codec.long_name">HDMV Presentation Graphic Stream subtitles</property>
  <property name="meta.media.13.codec.bit_rate">0</property>
  <property name="meta.attr.13.stream.DURATION.markup">01:56:26.064000000</property>
  <property name="meta.media.14.codec.name">pgssub</property>
  <property name="meta.media.14.codec.long_name">HDMV Presentation Graphic Stream subtitles</property>
  <property name="meta.media.14.codec.bit_rate">0</property>
  <property name="meta.attr.14.stream.DURATION.markup">01:56:26.064000000</property>
  <property name="meta.media.15.codec.name">pgssub</property>
  <property name="meta.media.15.codec.long_name">HDMV Presentation Graphic Stream subtitles</property>
  <property name="meta.media.15.codec.bit_rate">0</property>
  <property name="meta.attr.15.stream.DURATION.markup">01:56:26.064000000</property>
  <property name="meta.media.16.codec.name">pgssub</property>
  <property name="meta.media.16.codec.long_name">HDMV Presentation Graphic Stream subtitles</property>
  <property name="meta.media.16.codec.bit_rate">0</property>
  <property name="meta.attr.16.stream.DURATION.markup">01:56:26.064000000</property>
  <property name="meta.media.17.codec.name">pgssub</property>
  <property name="meta.media.17.codec.long_name">HDMV Presentation Graphic Stream subtitles</property>
  <property name="meta.media.17.codec.bit_rate">0</property>
  <property name="meta.attr.17.stream.DURATION.markup">01:56:26.064000000</property>
  <property name="meta.media.18.codec.name">pgssub</property>
  <property name="meta.media.18.codec.long_name">HDMV Presentation Graphic Stream subtitles</property>
  <property name="meta.media.18.codec.bit_rate">0</property>
  <property name="meta.attr.18.stream.DURATION.markup">01:56:26.064000000</property>
  <property name="meta.media.19.codec.name">pgssub</property>
  <property name="meta.media.19.codec.long_name">HDMV Presentation Graphic Stream subtitles</property>
  <property name="meta.media.19.codec.bit_rate">0</property>
  <property name="meta.attr.19.stream.DURATION.markup">01:49:38.991000000</property>
  <property name="meta.media.20.codec.name">pgssub</property>
  <property name="meta.media.20.codec.long_name">HDMV Presentation Graphic Stream subtitles</property>
  <property name="meta.media.20.codec.bit_rate">0</property>
  <property name="meta.attr.20.stream.DURATION.markup">01:56:26.064000000</property>
  <property name="meta.media.21.codec.name">pgssub</property>
  <property name="meta.media.21.codec.long_name">HDMV Presentation Graphic Stream subtitles</property>
  <property name="meta.media.21.codec.bit_rate">0</property>
  <property name="meta.attr.21.stream.DURATION.markup">01:56:26.064000000</property>
  <property name="meta.media.22.codec.name">pgssub</property>
  <property name="meta.media.22.codec.long_name">HDMV Presentation Graphic Stream subtitles</property>
  <property name="meta.media.22.codec.bit_rate">0</property>
  <property name="meta.attr.22.stream.DURATION.markup">01:56:26.064000000</property>
  <property name="meta.media.23.codec.name">pgssub</property>
  <property name="meta.media.23.codec.long_name">HDMV Presentation Graphic Stream subtitles</property>
  <property name="meta.media.23.codec.bit_rate">0</property>
  <property name="meta.attr.23.stream.DURATION.markup">01:56:26.064000000</property>
  <property name="meta.media.24.codec.name">pgssub</property>
  <property name="meta.media.24.codec.long_name">HDMV Presentation Graphic Stream subtitles</property>
  <property name="meta.media.24.codec.bit_rate">0</property>
  <property name="meta.attr.24.stream.DURATION.markup">01:50:30.251000000</property>
  <property name="meta.media.25.codec.name">pgssub</property>
  <property name="meta.media.25.codec.long_name">HDMV Presentation Graphic Stream subtitles</property>
  <property name="meta.media.25.codec.bit_rate">0</property>
  <property name="meta.attr.25.stream.DURATION.markup">01:56:26.064000000</property>
  <property name="meta.media.26.codec.name">pgssub</property>
  <property name="meta.media.26.codec.long_name">HDMV Presentation Graphic Stream subtitles</property>
  <property name="meta.media.26.codec.bit_rate">0</property>
  <property name="meta.attr.26.stream.DURATION.markup">01:56:26.064000000</property>
  <property name="meta.media.27.codec.name">pgssub</property>
  <property name="meta.media.27.codec.long_name">HDMV Presentation Graphic Stream subtitles</property>
  <property name="meta.media.27.codec.bit_rate">0</property>
  <property name="meta.attr.27.stream.DURATION.markup">01:56:26.064000000</property>
  <property name="meta.media.28.codec.name">pgssub</property>
  <property name="meta.media.28.codec.long_name">HDMV Presentation Graphic Stream subtitles</property>
  <property name="meta.media.28.codec.bit_rate">0</property>
  <property name="meta.attr.28.stream.DURATION.markup">01:50:30.000000000</property>
  <property name="meta.media.29.codec.name">pgssub</property>
  <property name="meta.media.29.codec.long_name">HDMV Presentation Graphic Stream subtitles</property>
  <property name="meta.media.29.codec.bit_rate">0</property>
  <property name="meta.attr.29.stream.DURATION.markup">01:56:26.064000000</property>
  <property name="meta.media.30.codec.name">pgssub</property>
  <property name="meta.media.30.codec.long_name">HDMV Presentation Graphic Stream subtitles</property>
  <property name="meta.media.30.codec.bit_rate">0</property>
  <property name="meta.attr.30.stream.DURATION.markup">01:56:26.064000000</property>
  <property name="meta.attr.ENCODER.markup">Lavf58.43.100</property>
  <property name="meta.media.sample_aspect_num">1</property>
  <property name="meta.media.sample_aspect_den">1</property>
  <property name="meta.media.frame_rate_num">24000</property>
  <property name="meta.media.frame_rate_den">1001</property>
  <property name="meta.media.colorspace">709</property>
  <property name="meta.media.color_trc">2</property>
  <property name="meta.media.has_b_frames">2</property>
  <property name="meta.media.width">3840</property>
  <property name="meta.media.height">2160</property>
  <property name="meta.media.aspect_ratio">1</property>
  <property name="meta.media.color_range">mpeg</property>
  <property name="xml">was here</property>
  <property name="meta.media.top_field_first">0</property>
  <property name="meta.media.progressive">1</property>
  <property name="set.test_audio">0</property>
  <property name="set.test_image">1</property>
 </chain>
 <playlist id="playlist7">
  <property name="kdenlive:audio_track">1</property>
  <blank length="00:03:20.020"/>
  <entry in="00:10:49.967" out="00:10:51.593" producer="chain7">
   <property name="kdenlive:id">4</property>
  </entry>
  <blank length="00:06:49.883"/>
  <entry in="00:20:09.301" out="00:20:15.682" producer="chain7">
   <property name="kdenlive:id">4</property>
  </entry>
  <blank length="00:06:42.876"/>
  <entry in="00:27:18.143" out="00:27:20.812" producer="chain7">
   <property name="kdenlive:id">4</property>
  </entry>
  <blank length="00:00:31.990"/>
  <entry in="00:29:44.753" out="00:30:30.822" producer="chain7">
   <property name="kdenlive:id">4</property>
  </entry>
  <blank length="00:00:09.176"/>
  <entry in="00:31:12.554" out="00:31:26.860" producer="chain7">
   <property name="kdenlive:id">4</property>
  </entry>
  <blank length="00:00:02.836"/>
  <entry in="00:31:35.661" out="00:32:10.886" producer="chain7">
   <property name="kdenlive:id">4</property>
  </entry>
  <blank length="00:00:10.010"/>
  <entry in="00:33:12.221" out="00:33:51.426" producer="chain7">
   <property name="kdenlive:id">4</property>
  </entry>
  <blank length="00:00:02.753"/>
  <entry in="00:34:23.398" out="00:34:27.069" producer="chain7">
   <property name="kdenlive:id">4</property>
  </entry>
  <entry in="00:34:27.110" out="00:34:37.871" producer="chain7">
   <property name="kdenlive:id">4</property>
  </entry>
  <blank length="00:00:50.676"/>
  <entry in="00:37:50.634" out="00:37:53.303" producer="chain7">
   <property name="kdenlive:id">4</property>
  </entry>
  <blank length="00:00:06.298"/>
  <entry in="00:38:24.733" out="00:38:29.780" producer="chain7">
   <property name="kdenlive:id">4</property>
  </entry>
  <blank length="00:01:33.909"/>
  <entry in="00:40:11.970" out="00:40:24.900" producer="chain7">
   <property name="kdenlive:id">4</property>
  </entry>
  <blank length="00:03:42.251"/>
  <entry in="00:45:05.547" out="00:45:08.091" producer="chain7">
   <property name="kdenlive:id">4</property>
   <filter id="filter35" in="00:45:05.547" out="00:45:06.298">
    <property name="window">75</property>
    <property name="max_gain">20dB</property>
    <property name="mlt_service">volume</property>
    <property name="kdenlive_id">fadein</property>
    <property name="gain">0</property>
    <property name="end">1</property>
    <property name="kdenlive:collapsed">0</property>
   </filter>
  </entry>
  <entry in="00:45:08.133" out="00:45:30.239" producer="chain7">
   <property name="kdenlive:id">4</property>
  </entry>
  <blank length="00:00:22.481"/>
  <entry in="00:46:12.679" out="00:46:50.050" producer="chain7">
   <property name="kdenlive:id">4</property>
   <filter id="filter36" in="00:46:49.216" out="00:46:50.050">
    <property name="window">75</property>
    <property name="max_gain">20dB</property>
    <property name="mlt_service">volume</property>
    <property name="kdenlive_id">fadeout</property>
    <property name="gain">1</property>
    <property name="end">0</property>
    <property name="kdenlive:collapsed">0</property>
   </filter>
  </entry>
  <blank length="00:02:10.385"/>
  <entry in="00:53:08.050" out="00:54:39.331" producer="chain7">
   <property name="kdenlive:id">4</property>
  </entry>
  <blank length="00:07:00.417"/>
  <entry in="01:02:35.535" out="01:06:24.024" producer="chain7">
   <property name="kdenlive:id">4</property>
   <filter id="filter37" in="01:06:23.357" out="01:06:24.024">
    <property name="window">75</property>
    <property name="max_gain">20dB</property>
    <property name="mlt_service">volume</property>
    <property name="kdenlive_id">fadeout</property>
    <property name="gain">1</property>
    <property name="end">0</property>
   </filter>
  </entry>
  <blank length="00:01:08.842"/>
  <entry in="01:08:38.247" out="01:08:43.543" producer="chain7">
   <property name="kdenlive:id">4</property>
  </entry>
  <blank length="00:00:02.711"/>
  <entry in="01:09:05.005" out="01:09:08.717" producer="chain7">
   <property name="kdenlive:id">4</property>
  </entry>
  <blank length="00:25:37.871"/>
  <entry in="01:38:27.069" out="01:43:20.979" producer="chain7">
   <property name="kdenlive:id">4</property>
  </entry>
  <blank length="00:00:12.304"/>
  <entry in="01:44:06.423" out="01:45:21.563" producer="chain7">
   <property name="kdenlive:id">4</property>
   <filter id="filter38" in="01:44:06.423" out="01:44:07.841">
    <property name="window">75</property>
    <property name="max_gain">20dB</property>
    <property name="mlt_service">volume</property>
    <property name="kdenlive_id">fadein</property>
    <property name="gain">0</property>
    <property name="end">1</property>
    <property name="kdenlive:collapsed">0</property>
   </filter>
  </entry>
 </playlist>
 <tractor id="tractor3" in="00:00:00.000" out="01:16:36.370">
  <property name="kdenlive:audio_track">1</property>
  <property name="kdenlive:trackheight">84</property>
  <property name="kdenlive:timeline_active">1</property>
  <property name="kdenlive:collapsed">0</property>
  <property name="kdenlive:thumbs_format"/>
  <property name="kdenlive:audio_rec"/>
  <track hide="video" producer="playlist6"/>
  <track hide="video" producer="playlist7"/>
  <transition id="transition25" in="01:15:03.629" out="01:15:08.592">
   <property name="a_track">0</property>
   <property name="b_track">1</property>
   <property name="mlt_service">mix</property>
   <property name="kdenlive_id">mix</property>
   <property name="kdenlive:mixcut">12</property>
   <property name="start">-1</property>
   <property name="accepts_blanks">1</property>
   <property name="reverse">0</property>
  </transition>
  <transition id="transition21" in="00:03:20.020" out="00:03:21.021">
   <property name="a_track">0</property>
   <property name="b_track">1</property>
   <property name="mlt_service">mix</property>
   <property name="kdenlive_id">mix</property>
   <property name="kdenlive:mixcut">12</property>
   <property name="start">-1</property>
   <property name="accepts_blanks">1</property>
   <property name="reverse">0</property>
  </transition>
  <transition id="transition18" in="00:17:35.535" out="00:17:36.536">
   <property name="a_track">0</property>
   <property name="b_track">1</property>
   <property name="mlt_service">mix</property>
   <property name="kdenlive_id">mix</property>
   <property name="kdenlive:mixcut">12</property>
   <property name="start">-1</property>
   <property name="accepts_blanks">1</property>
   <property name="reverse">0</property>
  </transition>
  <transition id="transition2" in="00:18:30.781" out="00:18:31.782">
   <property name="a_track">0</property>
   <property name="b_track">1</property>
   <property name="mlt_service">mix</property>
   <property name="kdenlive_id">mix</property>
   <property name="kdenlive:mixcut">12</property>
   <property name="start">-1</property>
   <property name="accepts_blanks">1</property>
   <property name="reverse">0</property>
  </transition>
  <transition id="transition3" in="00:18:42.709" out="00:18:45.128">
   <property name="a_track">0</property>
   <property name="b_track">1</property>
   <property name="mlt_service">mix</property>
   <property name="kdenlive_id">mix</property>
   <property name="kdenlive:mixcut">58</property>
   <property name="start">-1</property>
   <property name="accepts_blanks">1</property>
   <property name="reverse">1</property>
  </transition>
  <transition id="transition4" in="00:18:47.965" out="00:18:48.382">
   <property name="a_track">0</property>
   <property name="b_track">1</property>
   <property name="mlt_service">mix</property>
   <property name="kdenlive_id">mix</property>
   <property name="kdenlive:mixcut">5</property>
   <property name="reverse">0</property>
  </transition>
  <transition id="transition5" in="00:19:21.563" out="00:19:23.232">
   <property name="a_track">0</property>
   <property name="b_track">1</property>
   <property name="mlt_service">mix</property>
   <property name="kdenlive_id">mix</property>
   <property name="kdenlive:mixcut">31</property>
   <property name="start">-1</property>
   <property name="accepts_blanks">1</property>
   <property name="reverse">1</property>
  </transition>
  <transition id="transition6" in="00:19:33.242" out="00:19:34.243">
   <property name="a_track">0</property>
   <property name="b_track">1</property>
   <property name="mlt_service">mix</property>
   <property name="kdenlive_id">mix</property>
   <property name="kdenlive:mixcut">12</property>
   <property name="start">-1</property>
   <property name="accepts_blanks">1</property>
   <property name="reverse">0</property>
  </transition>
  <transition id="transition7" in="00:10:11.553" out="00:10:12.554">
   <property name="a_track">0</property>
   <property name="b_track">1</property>
   <property name="mlt_service">mix</property>
   <property name="kdenlive_id">mix</property>
   <property name="kdenlive:mixcut">12</property>
   <property name="start">-1</property>
   <property name="accepts_blanks">1</property>
   <property name="reverse">0</property>
  </transition>
  <transition id="transition8" in="00:17:00.834" out="00:17:01.835">
   <property name="a_track">0</property>
   <property name="b_track">1</property>
   <property name="mlt_service">mix</property>
   <property name="kdenlive_id">mix</property>
   <property name="kdenlive:mixcut">24</property>
   <property name="start">-1</property>
   <property name="accepts_blanks">1</property>
   <property name="reverse">0</property>
  </transition>
  <transition id="transition13" in="00:32:08.967" out="00:32:09.968">
   <property name="a_track">1</property>
   <property name="b_track">0</property>
   <property name="mlt_service">mix</property>
   <property name="kdenlive_id">mix</property>
   <property name="kdenlive:mixcut">12</property>
   <property name="start">-1</property>
   <property name="accepts_blanks">1</property>
   <property name="reverse">0</property>
  </transition>
  <transition id="transition12" in="00:30:38.622" out="00:30:39.623">
   <property name="a_track">0</property>
   <property name="b_track">1</property>
   <property name="mlt_service">mix</property>
   <property name="kdenlive_id">mix</property>
   <property name="kdenlive:mixcut">12</property>
   <property name="start">-1</property>
   <property name="accepts_blanks">1</property>
   <property name="reverse">0</property>
  </transition>
  <transition id="transition14" in="00:39:10.344" out="00:39:11.386">
   <property name="a_track">0</property>
   <property name="b_track">1</property>
   <property name="mlt_service">mix</property>
   <property name="kdenlive_id">mix</property>
   <property name="kdenlive:mixcut">0</property>
   <property name="start">-1</property>
   <property name="accepts_blanks">1</property>
   <property name="reverse">0</property>
  </transition>
  <transition id="transition11" in="00:27:50.801" out="00:27:51.760">
   <property name="a_track">0</property>
   <property name="b_track">1</property>
   <property name="mlt_service">mix</property>
   <property name="kdenlive_id">mix</property>
   <property name="kdenlive:mixcut">23</property>
   <property name="start">-1</property>
   <property name="accepts_blanks">1</property>
   <property name="reverse">0</property>
  </transition>
  <transition id="transition9" in="00:21:20.437" out="00:21:20.687">
   <property name="a_track">0</property>
   <property name="b_track">1</property>
   <property name="mlt_service">mix</property>
   <property name="kdenlive_id">mix</property>
   <property name="kdenlive:mixcut">1</property>
   <property name="start">-1</property>
   <property name="accepts_blanks">1</property>
   <property name="reverse">0</property>
  </transition>
  <transition id="transition10" in="00:20:25.859" out="00:20:29.738">
   <property name="a_track">1</property>
   <property name="b_track">0</property>
   <property name="mlt_service">mix</property>
   <property name="kdenlive_id">mix</property>
   <property name="kdenlive:mixcut">12</property>
   <property name="start">-1</property>
   <property name="accepts_blanks">1</property>
   <property name="reverse">0</property>
  </transition>
  <transition id="transition15" in="00:20:15.224" out="00:20:16.225">
   <property name="a_track">0</property>
   <property name="b_track">1</property>
   <property name="mlt_service">mix</property>
   <property name="kdenlive_id">mix</property>
   <property name="kdenlive:mixcut">12</property>
   <property name="start">-1</property>
   <property name="accepts_blanks">1</property>
   <property name="reverse">0</property>
  </transition>
  <transition id="transition16" in="00:21:29.446" out="00:21:30.447">
   <property name="a_track">0</property>
   <property name="b_track">1</property>
   <property name="mlt_service">mix</property>
   <property name="kdenlive_id">mix</property>
   <property name="kdenlive:mixcut">0</property>
   <property name="start">-1</property>
   <property name="accepts_blanks">1</property>
   <property name="reverse">0</property>
  </transition>
  <transition id="transition17" in="00:23:19.394" out="00:23:21.396">
   <property name="a_track">0</property>
   <property name="b_track">1</property>
   <property name="mlt_service">mix</property>
   <property name="kdenlive_id">mix</property>
   <property name="kdenlive:mixcut">0</property>
   <property name="start">-1</property>
   <property name="accepts_blanks">1</property>
   <property name="reverse">1</property>
  </transition>
  <transition id="transition19" in="00:27:27.319" out="00:27:28.320">
   <property name="a_track">1</property>
   <property name="b_track">0</property>
   <property name="mlt_service">mix</property>
   <property name="kdenlive_id">mix</property>
   <property name="kdenlive:mixcut">12</property>
   <property name="reverse">0</property>
  </transition>
  <transition id="transition20" in="00:27:03.587" out="00:27:04.504">
   <property name="a_track">0</property>
   <property name="b_track">1</property>
   <property name="mlt_service">mix</property>
   <property name="kdenlive_id">mix</property>
   <property name="kdenlive:mixcut">22</property>
   <property name="start">-1</property>
   <property name="accepts_blanks">1</property>
   <property name="reverse">0</property>
  </transition>
  <transition id="transition23" in="00:44:07.674" out="00:44:11.803">
   <property name="a_track">0</property>
   <property name="b_track">1</property>
   <property name="mlt_service">mix</property>
   <property name="kdenlive_id">mix</property>
   <property name="kdenlive:mixcut">12</property>
   <property name="start">-1</property>
   <property name="accepts_blanks">1</property>
   <property name="reverse">0</property>
  </transition>
  <transition id="transition24" in="00:44:15.724" out="00:44:16.725">
   <property name="a_track">0</property>
   <property name="b_track">1</property>
   <property name="mlt_service">mix</property>
   <property name="kdenlive_id">mix</property>
   <property name="kdenlive:mixcut">12</property>
   <property name="start">-1</property>
   <property name="accepts_blanks">1</property>
   <property name="reverse">0</property>
  </transition>
  <transition id="transition22" in="01:09:57.349" out="01:09:58.350">
   <property name="a_track">0</property>
   <property name="b_track">1</property>
   <property name="mlt_service">mix</property>
   <property name="kdenlive_id">mix</property>
   <property name="kdenlive:mixcut">12</property>
   <property name="start">-1</property>
   <property name="accepts_blanks">1</property>
   <property name="reverse">0</property>
  </transition>
  <filter id="filter39">
   <property name="window">75</property>
   <property name="max_gain">20dB</property>
   <property name="mlt_service">volume</property>
   <property name="internal_added">237</property>
   <property name="disable">1</property>
  </filter>
  <filter id="filter40">
   <property name="channel">-1</property>
   <property name="mlt_service">panner</property>
   <property name="internal_added">237</property>
   <property name="start">0.5</property>
   <property name="disable">1</property>
  </filter>
  <filter id="filter41">
   <property name="iec_scale">0</property>
   <property name="mlt_service">audiolevel</property>
   <property name="dbpeak">1</property>
   <property name="disable">1</property>
  </filter>
 </tractor>
 <chain id="chain9" out="01:56:31.823">
  <property name="length">167636</property>
  <property name="eof">pause</property>
  <property name="resource">N:/Videos/Horror and SciFi/War of the Worlds/War.Of.The.Worlds.2005.2160p.4K.BluRay.x265.10bit.AAC5.1-[YTS.MX].mkv</property>
  <property name="mlt_service">avformat-novalidate</property>
  <property name="seekable">1</property>
  <property name="audio_index">1</property>
  <property name="video_index">0</property>
  <property name="vstream">0</property>
  <property name="astream">0</property>
  <property name="kdenlive:control_uuid">{f9f6007e-8e24-413c-a48a-093c5dbed24d}</property>
  <property name="kdenlive:proxy">-</property>
  <property name="kdenlive:originalurl">N:/Videos/Horror and SciFi/War of the Worlds/War.Of.The.Worlds.2005.2160p.4K.BluRay.x265.10bit.AAC5.1-[YTS.MX].mkv</property>
  <property name="kdenlive:id">4</property>
  <property name="mute_on_pause">0</property>
  <property name="kdenlive:clip_type">0</property>
  <property name="kdenlive:file_size">6113614378</property>
  <property name="kdenlive:file_hash">5fdc105d4eb78cce2fc0dd9269c83ad1</property>
  <property name="kdenlive:folderid">-1</property>
  <property name="meta.media.nb_streams">31</property>
  <property name="meta.media.0.stream.type">video</property>
  <property name="meta.media.0.stream.frame_rate">23.976</property>
  <property name="meta.media.0.stream.sample_aspect_ratio">1</property>
  <property name="meta.media.0.codec.width">3840</property>
  <property name="meta.media.0.codec.height">2160</property>
  <property name="meta.media.0.codec.rotate">0</property>
  <property name="meta.media.0.codec.pix_fmt">yuv420p10le</property>
  <property name="meta.media.0.codec.sample_aspect_ratio">1</property>
  <property name="meta.media.0.codec.colorspace">709</property>
  <property name="meta.media.0.codec.name">hevc</property>
  <property name="meta.media.0.codec.long_name">HEVC (High Efficiency Video Coding)</property>
  <property name="meta.media.0.codec.bit_rate">0</property>
  <property name="meta.attr.0.stream.ENCODER.markup">Lavc58.84.100 libx265</property>
  <property name="meta.attr.0.stream.DURATION.markup">01:56:31.820000000</property>
  <property name="meta.media.1.stream.type">audio</property>
  <property name="meta.media.1.codec.sample_fmt">fltp</property>
  <property name="meta.media.1.codec.sample_rate">48000</property>
  <property name="meta.media.1.codec.channels">6</property>
  <property name="meta.media.1.codec.layout">5.1</property>
  <property name="meta.media.1.codec.name">aac</property>
  <property name="meta.media.1.codec.long_name">AAC (Advanced Audio Coding)</property>
  <property name="meta.media.1.codec.bit_rate">0</property>
  <property name="meta.attr.1.stream.ENCODER.markup">Lavc58.84.100 libfdk_aac</property>
  <property name="meta.attr.1.stream.DURATION.markup">01:56:31.820000000</property>
  <property name="meta.media.2.codec.name">srt</property>
  <property name="meta.media.2.codec.long_name">SubRip subtitle</property>
  <property name="meta.media.2.codec.bit_rate">0</property>
  <property name="meta.attr.2.stream.language.markup">eng</property>
  <property name="meta.attr.2.stream.title.markup">English-SRT</property>
  <property name="meta.attr.2.stream.BPS-eng.markup">46</property>
  <property name="meta.attr.2.stream.DURATION-eng.markup">01:48:15.482000000</property>
  <property name="meta.attr.2.stream.NUMBER_OF_FRAMES-eng.markup">1117</property>
  <property name="meta.attr.2.stream.NUMBER_OF_BYTES-eng.markup">37959</property>
  <property name="meta.attr.2.stream._STATISTICS_TAGS-eng.markup">BPS DURATION NUMBER_OF_FRAMES NUMBER_OF_BYTES</property>
  <property name="meta.attr.2.stream.DURATION.markup">01:49:38.942000000</property>
  <property name="meta.media.3.codec.name">pgssub</property>
  <property name="meta.media.3.codec.long_name">HDMV Presentation Graphic Stream subtitles</property>
  <property name="meta.media.3.codec.bit_rate">0</property>
  <property name="meta.attr.3.stream.DURATION.markup">01:49:38.949000000</property>
  <property name="meta.media.4.codec.name">pgssub</property>
  <property name="meta.media.4.codec.long_name">HDMV Presentation Graphic Stream subtitles</property>
  <property name="meta.media.4.codec.bit_rate">0</property>
  <property name="meta.attr.4.stream.DURATION.markup">01:49:38.949000000</property>
  <property name="meta.media.5.codec.name">pgssub</property>
  <property name="meta.media.5.codec.long_name">HDMV Presentation Graphic Stream subtitles</property>
  <property name="meta.media.5.codec.bit_rate">0</property>
  <property name="meta.attr.5.stream.DURATION.markup">01:56:26.064000000</property>
  <property name="meta.media.6.codec.name">pgssub</property>
  <property name="meta.media.6.codec.long_name">HDMV Presentation Graphic Stream subtitles</property>
  <property name="meta.media.6.codec.bit_rate">0</property>
  <property name="meta.attr.6.stream.DURATION.markup">01:56:26.064000000</property>
  <property name="meta.media.7.codec.name">pgssub</property>
  <property name="meta.media.7.codec.long_name">HDMV Presentation Graphic Stream subtitles</property>
  <property name="meta.media.7.codec.bit_rate">0</property>
  <property name="meta.attr.7.stream.DURATION.markup">01:56:26.064000000</property>
  <property name="meta.media.8.codec.name">pgssub</property>
  <property name="meta.media.8.codec.long_name">HDMV Presentation Graphic Stream subtitles</property>
  <property name="meta.media.8.codec.bit_rate">0</property>
  <property name="meta.attr.8.stream.DURATION.markup">01:56:26.064000000</property>
  <property name="meta.media.9.codec.name">pgssub</property>
  <property name="meta.media.9.codec.long_name">HDMV Presentation Graphic Stream subtitles</property>
  <property name="meta.media.9.codec.bit_rate">0</property>
  <property name="meta.attr.9.stream.DURATION.markup">01:56:26.064000000</property>
  <property name="meta.media.10.codec.name">pgssub</property>
  <property name="meta.media.10.codec.long_name">HDMV Presentation Graphic Stream subtitles</property>
  <property name="meta.media.10.codec.bit_rate">0</property>
  <property name="meta.attr.10.stream.DURATION.markup">01:56:26.064000000</property>
  <property name="meta.media.11.codec.name">pgssub</property>
  <property name="meta.media.11.codec.long_name">HDMV Presentation Graphic Stream subtitles</property>
  <property name="meta.media.11.codec.bit_rate">0</property>
  <property name="meta.attr.11.stream.DURATION.markup">01:56:26.064000000</property>
  <property name="meta.media.12.codec.name">pgssub</property>
  <property name="meta.media.12.codec.long_name">HDMV Presentation Graphic Stream subtitles</property>
  <property name="meta.media.12.codec.bit_rate">0</property>
  <property name="meta.attr.12.stream.DURATION.markup">01:49:38.991000000</property>
  <property name="meta.media.13.codec.name">pgssub</property>
  <property name="meta.media.13.codec.long_name">HDMV Presentation Graphic Stream subtitles</property>
  <property name="meta.media.13.codec.bit_rate">0</property>
  <property name="meta.attr.13.stream.DURATION.markup">01:56:26.064000000</property>
  <property name="meta.media.14.codec.name">pgssub</property>
  <property name="meta.media.14.codec.long_name">HDMV Presentation Graphic Stream subtitles</property>
  <property name="meta.media.14.codec.bit_rate">0</property>
  <property name="meta.attr.14.stream.DURATION.markup">01:56:26.064000000</property>
  <property name="meta.media.15.codec.name">pgssub</property>
  <property name="meta.media.15.codec.long_name">HDMV Presentation Graphic Stream subtitles</property>
  <property name="meta.media.15.codec.bit_rate">0</property>
  <property name="meta.attr.15.stream.DURATION.markup">01:56:26.064000000</property>
  <property name="meta.media.16.codec.name">pgssub</property>
  <property name="meta.media.16.codec.long_name">HDMV Presentation Graphic Stream subtitles</property>
  <property name="meta.media.16.codec.bit_rate">0</property>
  <property name="meta.attr.16.stream.DURATION.markup">01:56:26.064000000</property>
  <property name="meta.media.17.codec.name">pgssub</property>
  <property name="meta.media.17.codec.long_name">HDMV Presentation Graphic Stream subtitles</property>
  <property name="meta.media.17.codec.bit_rate">0</property>
  <property name="meta.attr.17.stream.DURATION.markup">01:56:26.064000000</property>
  <property name="meta.media.18.codec.name">pgssub</property>
  <property name="meta.media.18.codec.long_name">HDMV Presentation Graphic Stream subtitles</property>
  <property name="meta.media.18.codec.bit_rate">0</property>
  <property name="meta.attr.18.stream.DURATION.markup">01:56:26.064000000</property>
  <property name="meta.media.19.codec.name">pgssub</property>
  <property name="meta.media.19.codec.long_name">HDMV Presentation Graphic Stream subtitles</property>
  <property name="meta.media.19.codec.bit_rate">0</property>
  <property name="meta.attr.19.stream.DURATION.markup">01:49:38.991000000</property>
  <property name="meta.media.20.codec.name">pgssub</property>
  <property name="meta.media.20.codec.long_name">HDMV Presentation Graphic Stream subtitles</property>
  <property name="meta.media.20.codec.bit_rate">0</property>
  <property name="meta.attr.20.stream.DURATION.markup">01:56:26.064000000</property>
  <property name="meta.media.21.codec.name">pgssub</property>
  <property name="meta.media.21.codec.long_name">HDMV Presentation Graphic Stream subtitles</property>
  <property name="meta.media.21.codec.bit_rate">0</property>
  <property name="meta.attr.21.stream.DURATION.markup">01:56:26.064000000</property>
  <property name="meta.media.22.codec.name">pgssub</property>
  <property name="meta.media.22.codec.long_name">HDMV Presentation Graphic Stream subtitles</property>
  <property name="meta.media.22.codec.bit_rate">0</property>
  <property name="meta.attr.22.stream.DURATION.markup">01:56:26.064000000</property>
  <property name="meta.media.23.codec.name">pgssub</property>
  <property name="meta.media.23.codec.long_name">HDMV Presentation Graphic Stream subtitles</property>
  <property name="meta.media.23.codec.bit_rate">0</property>
  <property name="meta.attr.23.stream.DURATION.markup">01:56:26.064000000</property>
  <property name="meta.media.24.codec.name">pgssub</property>
  <property name="meta.media.24.codec.long_name">HDMV Presentation Graphic Stream subtitles</property>
  <property name="meta.media.24.codec.bit_rate">0</property>
  <property name="meta.attr.24.stream.DURATION.markup">01:50:30.251000000</property>
  <property name="meta.media.25.codec.name">pgssub</property>
  <property name="meta.media.25.codec.long_name">HDMV Presentation Graphic Stream subtitles</property>
  <property name="meta.media.25.codec.bit_rate">0</property>
  <property name="meta.attr.25.stream.DURATION.markup">01:56:26.064000000</property>
  <property name="meta.media.26.codec.name">pgssub</property>
  <property name="meta.media.26.codec.long_name">HDMV Presentation Graphic Stream subtitles</property>
  <property name="meta.media.26.codec.bit_rate">0</property>
  <property name="meta.attr.26.stream.DURATION.markup">01:56:26.064000000</property>
  <property name="meta.media.27.codec.name">pgssub</property>
  <property name="meta.media.27.codec.long_name">HDMV Presentation Graphic Stream subtitles</property>
  <property name="meta.media.27.codec.bit_rate">0</property>
  <property name="meta.attr.27.stream.DURATION.markup">01:56:26.064000000</property>
  <property name="meta.media.28.codec.name">pgssub</property>
  <property name="meta.media.28.codec.long_name">HDMV Presentation Graphic Stream subtitles</property>
  <property name="meta.media.28.codec.bit_rate">0</property>
  <property name="meta.attr.28.stream.DURATION.markup">01:50:30.000000000</property>
  <property name="meta.media.29.codec.name">pgssub</property>
  <property name="meta.media.29.codec.long_name">HDMV Presentation Graphic Stream subtitles</property>
  <property name="meta.media.29.codec.bit_rate">0</property>
  <property name="meta.attr.29.stream.DURATION.markup">01:56:26.064000000</property>
  <property name="meta.media.30.codec.name">pgssub</property>
  <property name="meta.media.30.codec.long_name">HDMV Presentation Graphic Stream subtitles</property>
  <property name="meta.media.30.codec.bit_rate">0</property>
  <property name="meta.attr.30.stream.DURATION.markup">01:56:26.064000000</property>
  <property name="meta.attr.ENCODER.markup">Lavf58.43.100</property>
  <property name="meta.media.sample_aspect_num">1</property>
  <property name="meta.media.sample_aspect_den">1</property>
  <property name="meta.media.frame_rate_num">24000</property>
  <property name="meta.media.frame_rate_den">1001</property>
  <property name="meta.media.colorspace">709</property>
  <property name="meta.media.color_trc">2</property>
  <property name="meta.media.has_b_frames">2</property>
  <property name="meta.media.width">3840</property>
  <property name="meta.media.height">2160</property>
  <property name="meta.media.aspect_ratio">1</property>
  <property name="meta.media.color_range">mpeg</property>
  <property name="xml">was here</property>
  <property name="meta.media.top_field_first">0</property>
  <property name="meta.media.progressive">1</property>
  <property name="set.test_audio">1</property>
  <property name="set.test_image">0</property>
 </chain>
 <playlist id="playlist8">
  <entry in="00:00:00.000" out="00:00:39.331" producer="chain9">
   <property name="kdenlive:id">4</property>
  </entry>
  <entry in="00:01:32.282" out="00:01:56.014" producer="chain9">
   <property name="kdenlive:id">4</property>
   <filter id="filter42" in="00:01:32.282" out="00:01:33.367">
    <property name="start">1</property>
    <property name="level">1</property>
    <property name="mlt_service">brightness</property>
    <property name="kdenlive_id">fade_from_black</property>
    <property name="alpha">00:00:00.000=0;00:00:01.084=1</property>
   </filter>
  </entry>
  <entry in="00:02:10.302" out="00:02:42.459" producer="chain9">
   <property name="kdenlive:id">4</property>
  </entry>
  <entry in="00:02:42.501" out="00:02:53.053" producer="chain9">
   <property name="kdenlive:id">4</property>
  </entry>
  <entry in="00:02:53.095" out="00:04:27.653" producer="chain9">
   <property name="kdenlive:id">4</property>
  </entry>
  <entry in="00:10:50.509" out="00:10:51.593" producer="chain9">
   <property name="kdenlive:id">4</property>
  </entry>
  <entry in="00:10:51.635" out="00:11:16.516" producer="chain9">
   <property name="kdenlive:id">4</property>
  </entry>
  <entry in="00:13:17.434" out="00:19:39.373" producer="chain9">
   <property name="kdenlive:id">4</property>
  </entry>
  <entry in="00:19:39.414" out="00:19:43.001" producer="chain9">
   <property name="kdenlive:id">4</property>
  </entry>
  <entry in="00:20:09.968" out="00:20:15.682" producer="chain9">
   <property name="kdenlive:id">4</property>
  </entry>
  <entry in="00:20:15.724" out="00:26:45.337" producer="chain9">
   <property name="kdenlive:id">4</property>
  </entry>
  <entry in="00:26:45.379" out="00:26:53.262" producer="chain9">
   <property name="kdenlive:id">4</property>
  </entry>
  <entry in="00:27:12.846" out="00:27:20.812" producer="chain9">
   <property name="kdenlive:id">4</property>
  </entry>
  <entry in="00:27:20.854" out="00:27:53.345" producer="chain9">
   <property name="kdenlive:id">4</property>
  </entry>
  <entry in="00:29:45.295" out="00:30:30.822" producer="chain9">
   <property name="kdenlive:id">4</property>
  </entry>
  <entry in="00:30:30.864" out="00:30:40.540" producer="chain9">
   <property name="kdenlive:id">4</property>
  </entry>
  <entry in="00:31:13.096" out="00:31:24.441" producer="chain9">
   <property name="kdenlive:id">4</property>
  </entry>
  <entry in="00:31:27.736" out="00:31:33.158" producer="chain9">
   <property name="kdenlive:id">4</property>
  </entry>
  <entry in="00:31:35.869" out="00:32:09.760" producer="chain9">
   <property name="kdenlive:id">4</property>
  </entry>
  <blank length="00:00:11.470"/>
  <entry in="00:33:12.554" out="00:33:51.426" producer="chain9">
   <property name="kdenlive:id">4</property>
  </entry>
  <entry in="00:33:51.468" out="00:33:54.179" producer="chain9">
   <property name="kdenlive:id">4</property>
  </entry>
  <entry in="00:33:54.221" out="00:33:55.597" producer="chain9">
   <property name="kdenlive:id">4</property>
  </entry>
  <blank length="00:00:12.221"/>
  <entry in="00:34:47.547" out="00:35:37.037" producer="chain9">
   <property name="kdenlive:id">4</property>
  </entry>
  <entry in="00:35:37.079" out="00:35:38.538" producer="chain9">
   <property name="kdenlive:id">4</property>
  </entry>
  <blank length="00:00:00.167"/>
  <entry in="00:37:50.259" out="00:37:53.303" producer="chain9">
   <property name="kdenlive:id">4</property>
   <filter id="filter43" in="00:37:50.259" out="00:37:50.842">
    <property name="start">1</property>
    <property name="level">1</property>
    <property name="mlt_service">brightness</property>
    <property name="kdenlive_id">fade_from_black</property>
    <property name="alpha">00:00:00.000=0;00:00:00.584=1</property>
   </filter>
  </entry>
  <entry in="00:37:53.345" out="00:38:00.626" producer="chain9">
   <property name="kdenlive:id">4</property>
  </entry>
  <blank length="00:00:04.046"/>
  <entry in="00:38:29.821" out="00:39:46.838" producer="chain9">
   <property name="kdenlive:id">4</property>
  </entry>
  <entry in="00:39:46.880" out="00:39:46.880" producer="chain9">
   <property name="kdenlive:id">4</property>
  </entry>
  <entry in="00:39:46.880" out="00:39:46.880" producer="chain9">
   <property name="kdenlive:id">4</property>
  </entry>
  <entry in="00:39:53.136" out="00:40:06.965" producer="chain9">
   <property name="kdenlive:id">4</property>
  </entry>
  <entry in="00:40:09.092" out="00:40:11.929" producer="chain9">
   <property name="kdenlive:id">4</property>
  </entry>
  <entry in="00:40:11.970" out="00:40:24.900" producer="chain9">
   <property name="kdenlive:id">4</property>
  </entry>
  <entry in="00:40:33.617" out="00:40:38.664" producer="chain9">
   <property name="kdenlive:id">4</property>
  </entry>
  <entry in="00:40:38.705" out="00:40:49.258" producer="chain9">
   <property name="kdenlive:id">4</property>
  </entry>
  <entry in="00:40:54.930" out="00:43:59.810" producer="chain9">
   <property name="kdenlive:id">4</property>
  </entry>
  <entry in="00:43:59.851" out="00:44:20.520" producer="chain9">
   <property name="kdenlive:id">4</property>
  </entry>
  <entry in="00:44:20.562" out="00:44:22.105" producer="chain9">
   <property name="kdenlive:id">4</property>
  </entry>
  <entry in="00:45:06.215" out="00:45:08.091" producer="chain9">
   <property name="kdenlive:id">4</property>
  </entry>
  <entry in="00:45:08.133" out="00:45:29.738" producer="chain9">
   <property name="kdenlive:id">4</property>
  </entry>
  <entry in="00:45:44.586" out="00:46:04.796" producer="chain9">
   <property name="kdenlive:id">4</property>
   <filter id="filter44" in="00:45:44.586" out="00:45:46.421">
    <property name="start">1</property>
    <property name="level">1</property>
    <property name="mlt_service">brightness</property>
    <property name="kdenlive_id">fade_from_black</property>
    <property name="alpha">00:00:00.000=0;00:00:01.835=1</property>
    <property name="kdenlive:collapsed">0</property>
   </filter>
  </entry>
  <entry in="00:46:04.838" out="00:46:07.549" producer="chain9">
   <property name="kdenlive:id">4</property>
  </entry>
  <entry in="00:46:12.679" out="00:46:50.050" producer="chain9">
   <property name="kdenlive:id">4</property>
  </entry>
  <entry in="00:50:37.663" out="00:50:43.126" producer="chain9">
   <property name="kdenlive:id">4</property>
   <filter id="filter45" in="00:50:37.663" out="00:50:40.123">
    <property name="start">1</property>
    <property name="level">1</property>
    <property name="mlt_service">brightness</property>
    <property name="kdenlive_id">fade_from_black</property>
    <property name="alpha">00:00:00.000=0;00:00:02.461=1</property>
   </filter>
  </entry>
  <entry in="00:50:43.168" out="00:52:18.977" producer="chain9">
   <property name="kdenlive:id">4</property>
  </entry>
  <entry in="00:52:34.826" out="00:53:04.338" producer="chain9">
   <property name="kdenlive:id">4</property>
  </entry>
  <entry in="00:53:08.550" out="00:54:38.830" producer="chain9">
   <property name="kdenlive:id">4</property>
  </entry>
  <entry in="00:54:41.583" out="01:01:43.502" producer="chain9">
   <property name="kdenlive:id">4</property>
  </entry>
  <entry in="01:02:36.578" out="01:06:24.024" producer="chain9">
   <property name="kdenlive:id">4</property>
  </entry>
  <entry in="01:06:24.066" out="01:06:27.194" producer="chain9">
   <property name="kdenlive:id">4</property>
  </entry>
  <blank length="00:00:00.834"/>
  <entry in="01:07:25.275" out="01:07:28.487" producer="chain9">
   <property name="kdenlive:id">4</property>
  </entry>
  <entry in="01:07:28.528" out="01:08:27.069" producer="chain9">
   <property name="kdenlive:id">4</property>
  </entry>
  <entry in="01:08:27.110" out="01:08:31.865" producer="chain9">
   <property name="kdenlive:id">4</property>
  </entry>
  <blank length="00:00:01.793"/>
  <entry in="01:08:41.875" out="01:08:43.543" producer="chain9">
   <property name="kdenlive:id">4</property>
  </entry>
  <entry in="01:08:43.585" out="01:08:46.797" producer="chain9">
   <property name="kdenlive:id">4</property>
  </entry>
  <entry in="01:09:05.547" out="01:09:08.717" producer="chain9">
   <property name="kdenlive:id">4</property>
  </entry>
  <entry in="01:09:08.759" out="01:10:02.628" producer="chain9">
   <property name="kdenlive:id">4</property>
  </entry>
  <entry in="01:10:02.669" out="01:12:29.863" producer="chain9">
   <property name="kdenlive:id">4</property>
  </entry>
  <entry in="01:13:49.049" out="01:20:44.586" producer="chain9">
   <property name="kdenlive:id">4</property>
  </entry>
  <entry in="01:20:46.129" out="01:26:55.430" producer="chain9">
   <property name="kdenlive:id">4</property>
  </entry>
  <entry in="01:26:55.472" out="01:27:09.760" producer="chain9">
   <property name="kdenlive:id">4</property>
  </entry>
  <entry in="01:28:28.111" out="01:28:38.413" producer="chain9">
   <property name="kdenlive:id">4</property>
  </entry>
  <entry in="01:29:04.046" out="01:32:38.413" producer="chain9">
   <property name="kdenlive:id">4</property>
  </entry>
  <blank length="00:00:01.001"/>
  <entry in="01:33:08.383" out="01:33:11.553" producer="chain9">
   <property name="kdenlive:id">4</property>
   <filter id="filter46" in="01:33:08.383" out="01:33:10.469">
    <property name="start">1</property>
    <property name="level">1</property>
    <property name="mlt_service">brightness</property>
    <property name="kdenlive_id">fade_from_black</property>
    <property name="alpha">00:00:00.000=0;00:00:02.085=1</property>
   </filter>
  </entry>
  <entry in="01:33:11.595" out="01:38:20.604" producer="chain9">
   <property name="kdenlive:id">4</property>
  </entry>
  <entry in="01:38:27.569" out="01:43:20.979" producer="chain9">
   <property name="kdenlive:id">4</property>
  </entry>
  <entry in="01:43:21.021" out="01:43:44.127" producer="chain9">
   <property name="kdenlive:id">4</property>
  </entry>
  <entry in="01:44:17.267" out="01:45:21.563" producer="chain9">
   <property name="kdenlive:id">4</property>
  </entry>
  <entry in="01:45:21.605" out="01:45:42.251" producer="chain9">
   <property name="kdenlive:id">4</property>
   <filter id="filter47" in="01:45:32.199" out="01:45:42.251">
    <property name="start">1</property>
    <property name="level">1</property>
    <property name="mlt_service">brightness</property>
    <property name="kdenlive_id">fade_to_black</property>
    <property name="alpha">00:00:00.000=1;00:00:10.052=0</property>
    <property name="kdenlive:collapsed">0</property>
   </filter>
  </entry>
  <blank length="00:00:04.713"/>
  <entry in="01:46:48.215" out="01:47:42.584" producer="chain9">
   <property name="kdenlive:id">4</property>
   <filter id="filter48" in="01:46:48.215" out="01:46:55.264">
    <property name="start">1</property>
    <property name="level">1</property>
    <property name="mlt_service">brightness</property>
    <property name="kdenlive_id">fade_from_black</property>
    <property name="alpha">00:00:00.000=0;00:00:07.049=1</property>
    <property name="kdenlive:collapsed">0</property>
   </filter>
  </entry>
  <entry in="01:47:51.218" out="01:48:14.181" producer="chain9">
   <property name="kdenlive:id">4</property>
  </entry>
  <entry in="01:48:20.771" out="01:48:37.329" producer="chain9">
   <property name="kdenlive:id">4</property>
  </entry>
  <entry in="01:48:37.371" out="01:48:50.842" producer="chain9">
   <property name="kdenlive:id">4</property>
   <filter id="filter49" in="01:48:46.797" out="01:48:50.842">
    <property name="start">1</property>
    <property name="level">1</property>
    <property name="mlt_service">brightness</property>
    <property name="kdenlive_id">fade_to_black</property>
    <property name="alpha">00:00:00.000=1;00:00:04.046=0</property>
   </filter>
  </entry>
  <entry in="01:50:58.642" out="01:56:05.172" producer="chain9">
   <property name="kdenlive:id">4</property>
   <filter id="filter50" in="01:50:58.642" out="01:51:00.626">
    <property name="start">1</property>
    <property name="level">1</property>
    <property name="mlt_service">brightness</property>
    <property name="kdenlive_id">fade_from_black</property>
    <property name="alpha">00:00:00.000=0;00:00:01.960=1</property>
    <property name="kdenlive:collapsed">0</property>
   </filter>
  </entry>
 </playlist>
 <chain id="chain10" out="01:56:31.823">
  <property name="length">167636</property>
  <property name="eof">pause</property>
  <property name="resource">N:/Videos/Horror and SciFi/War of the Worlds/War.Of.The.Worlds.2005.2160p.4K.BluRay.x265.10bit.AAC5.1-[YTS.MX].mkv</property>
  <property name="mlt_service">avformat-novalidate</property>
  <property name="seekable">1</property>
  <property name="audio_index">1</property>
  <property name="video_index">0</property>
  <property name="vstream">0</property>
  <property name="astream">0</property>
  <property name="kdenlive:control_uuid">{f9f6007e-8e24-413c-a48a-093c5dbed24d}</property>
  <property name="kdenlive:proxy">-</property>
  <property name="kdenlive:originalurl">N:/Videos/Horror and SciFi/War of the Worlds/War.Of.The.Worlds.2005.2160p.4K.BluRay.x265.10bit.AAC5.1-[YTS.MX].mkv</property>
  <property name="kdenlive:id">4</property>
  <property name="mute_on_pause">0</property>
  <property name="kdenlive:clip_type">0</property>
  <property name="kdenlive:file_size">6113614378</property>
  <property name="kdenlive:file_hash">5fdc105d4eb78cce2fc0dd9269c83ad1</property>
  <property name="kdenlive:folderid">-1</property>
  <property name="meta.media.nb_streams">31</property>
  <property name="meta.media.0.stream.type">video</property>
  <property name="meta.media.0.stream.frame_rate">23.976</property>
  <property name="meta.media.0.stream.sample_aspect_ratio">1</property>
  <property name="meta.media.0.codec.width">3840</property>
  <property name="meta.media.0.codec.height">2160</property>
  <property name="meta.media.0.codec.rotate">0</property>
  <property name="meta.media.0.codec.pix_fmt">yuv420p10le</property>
  <property name="meta.media.0.codec.sample_aspect_ratio">1</property>
  <property name="meta.media.0.codec.colorspace">709</property>
  <property name="meta.media.0.codec.name">hevc</property>
  <property name="meta.media.0.codec.long_name">HEVC (High Efficiency Video Coding)</property>
  <property name="meta.media.0.codec.bit_rate">0</property>
  <property name="meta.attr.0.stream.ENCODER.markup">Lavc58.84.100 libx265</property>
  <property name="meta.attr.0.stream.DURATION.markup">01:56:31.820000000</property>
  <property name="meta.media.1.stream.type">audio</property>
  <property name="meta.media.1.codec.sample_fmt">fltp</property>
  <property name="meta.media.1.codec.sample_rate">48000</property>
  <property name="meta.media.1.codec.channels">6</property>
  <property name="meta.media.1.codec.layout">5.1</property>
  <property name="meta.media.1.codec.name">aac</property>
  <property name="meta.media.1.codec.long_name">AAC (Advanced Audio Coding)</property>
  <property name="meta.media.1.codec.bit_rate">0</property>
  <property name="meta.attr.1.stream.ENCODER.markup">Lavc58.84.100 libfdk_aac</property>
  <property name="meta.attr.1.stream.DURATION.markup">01:56:31.820000000</property>
  <property name="meta.media.2.codec.name">srt</property>
  <property name="meta.media.2.codec.long_name">SubRip subtitle</property>
  <property name="meta.media.2.codec.bit_rate">0</property>
  <property name="meta.attr.2.stream.language.markup">eng</property>
  <property name="meta.attr.2.stream.title.markup">English-SRT</property>
  <property name="meta.attr.2.stream.BPS-eng.markup">46</property>
  <property name="meta.attr.2.stream.DURATION-eng.markup">01:48:15.482000000</property>
  <property name="meta.attr.2.stream.NUMBER_OF_FRAMES-eng.markup">1117</property>
  <property name="meta.attr.2.stream.NUMBER_OF_BYTES-eng.markup">37959</property>
  <property name="meta.attr.2.stream._STATISTICS_TAGS-eng.markup">BPS DURATION NUMBER_OF_FRAMES NUMBER_OF_BYTES</property>
  <property name="meta.attr.2.stream.DURATION.markup">01:49:38.942000000</property>
  <property name="meta.media.3.codec.name">pgssub</property>
  <property name="meta.media.3.codec.long_name">HDMV Presentation Graphic Stream subtitles</property>
  <property name="meta.media.3.codec.bit_rate">0</property>
  <property name="meta.attr.3.stream.DURATION.markup">01:49:38.949000000</property>
  <property name="meta.media.4.codec.name">pgssub</property>
  <property name="meta.media.4.codec.long_name">HDMV Presentation Graphic Stream subtitles</property>
  <property name="meta.media.4.codec.bit_rate">0</property>
  <property name="meta.attr.4.stream.DURATION.markup">01:49:38.949000000</property>
  <property name="meta.media.5.codec.name">pgssub</property>
  <property name="meta.media.5.codec.long_name">HDMV Presentation Graphic Stream subtitles</property>
  <property name="meta.media.5.codec.bit_rate">0</property>
  <property name="meta.attr.5.stream.DURATION.markup">01:56:26.064000000</property>
  <property name="meta.media.6.codec.name">pgssub</property>
  <property name="meta.media.6.codec.long_name">HDMV Presentation Graphic Stream subtitles</property>
  <property name="meta.media.6.codec.bit_rate">0</property>
  <property name="meta.attr.6.stream.DURATION.markup">01:56:26.064000000</property>
  <property name="meta.media.7.codec.name">pgssub</property>
  <property name="meta.media.7.codec.long_name">HDMV Presentation Graphic Stream subtitles</property>
  <property name="meta.media.7.codec.bit_rate">0</property>
  <property name="meta.attr.7.stream.DURATION.markup">01:56:26.064000000</property>
  <property name="meta.media.8.codec.name">pgssub</property>
  <property name="meta.media.8.codec.long_name">HDMV Presentation Graphic Stream subtitles</property>
  <property name="meta.media.8.codec.bit_rate">0</property>
  <property name="meta.attr.8.stream.DURATION.markup">01:56:26.064000000</property>
  <property name="meta.media.9.codec.name">pgssub</property>
  <property name="meta.media.9.codec.long_name">HDMV Presentation Graphic Stream subtitles</property>
  <property name="meta.media.9.codec.bit_rate">0</property>
  <property name="meta.attr.9.stream.DURATION.markup">01:56:26.064000000</property>
  <property name="meta.media.10.codec.name">pgssub</property>
  <property name="meta.media.10.codec.long_name">HDMV Presentation Graphic Stream subtitles</property>
  <property name="meta.media.10.codec.bit_rate">0</property>
  <property name="meta.attr.10.stream.DURATION.markup">01:56:26.064000000</property>
  <property name="meta.media.11.codec.name">pgssub</property>
  <property name="meta.media.11.codec.long_name">HDMV Presentation Graphic Stream subtitles</property>
  <property name="meta.media.11.codec.bit_rate">0</property>
  <property name="meta.attr.11.stream.DURATION.markup">01:56:26.064000000</property>
  <property name="meta.media.12.codec.name">pgssub</property>
  <property name="meta.media.12.codec.long_name">HDMV Presentation Graphic Stream subtitles</property>
  <property name="meta.media.12.codec.bit_rate">0</property>
  <property name="meta.attr.12.stream.DURATION.markup">01:49:38.991000000</property>
  <property name="meta.media.13.codec.name">pgssub</property>
  <property name="meta.media.13.codec.long_name">HDMV Presentation Graphic Stream subtitles</property>
  <property name="meta.media.13.codec.bit_rate">0</property>
  <property name="meta.attr.13.stream.DURATION.markup">01:56:26.064000000</property>
  <property name="meta.media.14.codec.name">pgssub</property>
  <property name="meta.media.14.codec.long_name">HDMV Presentation Graphic Stream subtitles</property>
  <property name="meta.media.14.codec.bit_rate">0</property>
  <property name="meta.attr.14.stream.DURATION.markup">01:56:26.064000000</property>
  <property name="meta.media.15.codec.name">pgssub</property>
  <property name="meta.media.15.codec.long_name">HDMV Presentation Graphic Stream subtitles</property>
  <property name="meta.media.15.codec.bit_rate">0</property>
  <property name="meta.attr.15.stream.DURATION.markup">01:56:26.064000000</property>
  <property name="meta.media.16.codec.name">pgssub</property>
  <property name="meta.media.16.codec.long_name">HDMV Presentation Graphic Stream subtitles</property>
  <property name="meta.media.16.codec.bit_rate">0</property>
  <property name="meta.attr.16.stream.DURATION.markup">01:56:26.064000000</property>
  <property name="meta.media.17.codec.name">pgssub</property>
  <property name="meta.media.17.codec.long_name">HDMV Presentation Graphic Stream subtitles</property>
  <property name="meta.media.17.codec.bit_rate">0</property>
  <property name="meta.attr.17.stream.DURATION.markup">01:56:26.064000000</property>
  <property name="meta.media.18.codec.name">pgssub</property>
  <property name="meta.media.18.codec.long_name">HDMV Presentation Graphic Stream subtitles</property>
  <property name="meta.media.18.codec.bit_rate">0</property>
  <property name="meta.attr.18.stream.DURATION.markup">01:56:26.064000000</property>
  <property name="meta.media.19.codec.name">pgssub</property>
  <property name="meta.media.19.codec.long_name">HDMV Presentation Graphic Stream subtitles</property>
  <property name="meta.media.19.codec.bit_rate">0</property>
  <property name="meta.attr.19.stream.DURATION.markup">01:49:38.991000000</property>
  <property name="meta.media.20.codec.name">pgssub</property>
  <property name="meta.media.20.codec.long_name">HDMV Presentation Graphic Stream subtitles</property>
  <property name="meta.media.20.codec.bit_rate">0</property>
  <property name="meta.attr.20.stream.DURATION.markup">01:56:26.064000000</property>
  <property name="meta.media.21.codec.name">pgssub</property>
  <property name="meta.media.21.codec.long_name">HDMV Presentation Graphic Stream subtitles</property>
  <property name="meta.media.21.codec.bit_rate">0</property>
  <property name="meta.attr.21.stream.DURATION.markup">01:56:26.064000000</property>
  <property name="meta.media.22.codec.name">pgssub</property>
  <property name="meta.media.22.codec.long_name">HDMV Presentation Graphic Stream subtitles</property>
  <property name="meta.media.22.codec.bit_rate">0</property>
  <property name="meta.attr.22.stream.DURATION.markup">01:56:26.064000000</property>
  <property name="meta.media.23.codec.name">pgssub</property>
  <property name="meta.media.23.codec.long_name">HDMV Presentation Graphic Stream subtitles</property>
  <property name="meta.media.23.codec.bit_rate">0</property>
  <property name="meta.attr.23.stream.DURATION.markup">01:56:26.064000000</property>
  <property name="meta.media.24.codec.name">pgssub</property>
  <property name="meta.media.24.codec.long_name">HDMV Presentation Graphic Stream subtitles</property>
  <property name="meta.media.24.codec.bit_rate">0</property>
  <property name="meta.attr.24.stream.DURATION.markup">01:50:30.251000000</property>
  <property name="meta.media.25.codec.name">pgssub</property>
  <property name="meta.media.25.codec.long_name">HDMV Presentation Graphic Stream subtitles</property>
  <property name="meta.media.25.codec.bit_rate">0</property>
  <property name="meta.attr.25.stream.DURATION.markup">01:56:26.064000000</property>
  <property name="meta.media.26.codec.name">pgssub</property>
  <property name="meta.media.26.codec.long_name">HDMV Presentation Graphic Stream subtitles</property>
  <property name="meta.media.26.codec.bit_rate">0</property>
  <property name="meta.attr.26.stream.DURATION.markup">01:56:26.064000000</property>
  <property name="meta.media.27.codec.name">pgssub</property>
  <property name="meta.media.27.codec.long_name">HDMV Presentation Graphic Stream subtitles</property>
  <property name="meta.media.27.codec.bit_rate">0</property>
  <property name="meta.attr.27.stream.DURATION.markup">01:56:26.064000000</property>
  <property name="meta.media.28.codec.name">pgssub</property>
  <property name="meta.media.28.codec.long_name">HDMV Presentation Graphic Stream subtitles</property>
  <property name="meta.media.28.codec.bit_rate">0</property>
  <property name="meta.attr.28.stream.DURATION.markup">01:50:30.000000000</property>
  <property name="meta.media.29.codec.name">pgssub</property>
  <property name="meta.media.29.codec.long_name">HDMV Presentation Graphic Stream subtitles</property>
  <property name="meta.media.29.codec.bit_rate">0</property>
  <property name="meta.attr.29.stream.DURATION.markup">01:56:26.064000000</property>
  <property name="meta.media.30.codec.name">pgssub</property>
  <property name="meta.media.30.codec.long_name">HDMV Presentation Graphic Stream subtitles</property>
  <property name="meta.media.30.codec.bit_rate">0</property>
  <property name="meta.attr.30.stream.DURATION.markup">01:56:26.064000000</property>
  <property name="meta.attr.ENCODER.markup">Lavf58.43.100</property>
  <property name="meta.media.sample_aspect_num">1</property>
  <property name="meta.media.sample_aspect_den">1</property>
  <property name="meta.media.frame_rate_num">24000</property>
  <property name="meta.media.frame_rate_den">1001</property>
  <property name="meta.media.colorspace">709</property>
  <property name="meta.media.color_trc">2</property>
  <property name="meta.media.has_b_frames">2</property>
  <property name="meta.media.width">3840</property>
  <property name="meta.media.height">2160</property>
  <property name="meta.media.aspect_ratio">1</property>
  <property name="meta.media.color_range">mpeg</property>
  <property name="xml">was here</property>
  <property name="meta.media.top_field_first">0</property>
  <property name="meta.media.progressive">1</property>
  <property name="set.test_audio">1</property>
  <property name="set.test_image">0</property>
 </chain>
 <playlist id="playlist9">
  <blank length="00:19:21.772"/>
  <entry in="00:32:51.426" out="00:33:03.503" producer="chain10">
   <property name="kdenlive:id">4</property>
  </entry>
  <blank length="00:00:41.750"/>
  <entry in="00:34:23.815" out="00:34:27.069" producer="chain10">
   <property name="kdenlive:id">4</property>
  </entry>
  <entry in="00:34:27.110" out="00:34:37.412" producer="chain10">
   <property name="kdenlive:id">4</property>
  </entry>
  <blank length="00:01:01.126"/>
  <entry in="00:38:25.692" out="00:38:29.780" producer="chain10">
   <property name="kdenlive:id">4</property>
  </entry>
  <blank length="00:21:26.526"/>
  <entry in="01:07:23.440" out="01:07:25.234" producer="chain10">
   <property name="kdenlive:id">4</property>
  </entry>
  <blank length="00:01:06.506"/>
  <entry in="01:08:39.915" out="01:08:41.833" producer="chain10">
   <property name="kdenlive:id">4</property>
  </entry>
 </playlist>
 <tractor id="tractor4" in="00:00:00.000" out="01:23:38.288">
  <property name="kdenlive:trackheight">84</property>
  <property name="kdenlive:timeline_active">1</property>
  <property name="kdenlive:collapsed">0</property>
  <property name="kdenlive:thumbs_format"/>
  <property name="kdenlive:audio_rec"/>
  <track hide="audio" producer="playlist8"/>
  <track hide="audio" producer="playlist9"/>
  <transition id="transition32" in="00:19:21.772" out="00:19:22.105">
   <property name="a_track">0</property>
   <property name="b_track">1</property>
   <property name="factory">loader</property>
   <property name="resource">luma01.pgm</property>
   <property name="mlt_service">luma</property>
   <property name="kdenlive_id">luma</property>
   <property name="kdenlive:mixcut">4</property>
   <property name="softness">1</property>
   <property name="alpha_over">1</property>
   <property name="fix_background_alpha">1</property>
   <property name="invert">1</property>
   <property name="reverse">0</property>
  </transition>
  <transition id="transition26" in="00:19:33.575" out="00:19:33.909">
   <property name="a_track">1</property>
   <property name="b_track">0</property>
   <property name="factory">loader</property>
   <property name="resource">luma01.pgm</property>
   <property name="mlt_service">luma</property>
   <property name="kdenlive_id">luma</property>
   <property name="kdenlive:mixcut">4</property>
   <property name="softness">0.78</property>
   <property name="alpha_over">1</property>
   <property name="fix_background_alpha">1</property>
   <property name="invert">1</property>
   <property name="reverse">0</property>
  </transition>
  <transition id="transition27" in="00:20:28.862" out="00:20:29.279">
   <property name="a_track">1</property>
   <property name="b_track">0</property>
   <property name="factory">loader</property>
   <property name="resource"/>
   <property name="mlt_service">luma</property>
   <property name="kdenlive_id">luma</property>
   <property name="kdenlive:mixcut">1</property>
   <property name="softness">0</property>
   <property name="alpha_over">1</property>
   <property name="fix_background_alpha">1</property>
   <property name="invert">0</property>
   <property name="reverse">0</property>
  </transition>
  <transition id="transition28" in="00:20:15.641" out="00:20:16.642">
   <property name="a_track">0</property>
   <property name="b_track">1</property>
   <property name="factory">loader</property>
   <property name="resource">luma01.pgm</property>
   <property name="mlt_service">luma</property>
   <property name="kdenlive_id">luma</property>
   <property name="kdenlive:mixcut">12</property>
   <property name="softness">0.79</property>
   <property name="alpha_over">1</property>
   <property name="fix_background_alpha">1</property>
   <property name="invert">1</property>
   <property name="reverse">0</property>
  </transition>
  <transition id="transition29" in="00:21:30.405" out="00:21:30.489">
   <property name="a_track">0</property>
   <property name="b_track">1</property>
   <property name="factory">loader</property>
   <property name="resource"/>
   <property name="mlt_service">luma</property>
   <property name="kdenlive_id">luma</property>
   <property name="kdenlive:mixcut">1</property>
   <property name="softness">0</property>
   <property name="alpha_over">1</property>
   <property name="fix_background_alpha">1</property>
   <property name="invert">0</property>
   <property name="reverse">0</property>
  </transition>
  <transition id="transition30" in="00:43:01.001" out="00:43:02.002">
   <property name="a_track">0</property>
   <property name="b_track">1</property>
   <property name="factory">loader</property>
   <property name="resource"/>
   <property name="mlt_service">luma</property>
   <property name="kdenlive_id">luma</property>
   <property name="kdenlive:mixcut">8</property>
   <property name="softness">0</property>
   <property name="alpha_over">1</property>
   <property name="fix_background_alpha">1</property>
   <property name="invert">0</property>
   <property name="reverse">0</property>
  </transition>
  <transition id="transition31" in="00:44:09.343" out="00:44:09.509">
   <property name="a_track">0</property>
   <property name="b_track">1</property>
   <property name="factory">loader</property>
   <property name="resource"/>
   <property name="mlt_service">luma</property>
   <property name="kdenlive_id">luma</property>
   <property name="kdenlive:mixcut">2</property>
   <property name="softness">0</property>
   <property name="alpha_over">1</property>
   <property name="fix_background_alpha">1</property>
   <property name="invert">0</property>
   <property name="reverse">0</property>
  </transition>
 </tractor>
 <playlist id="playlist10">
  <blank length="01:23:42.000"/>
  <entry in="00:00:00.000" out="00:00:16.725" producer="producer1">
   <property name="kdenlive:id">8</property>
   <property name="kdenlive:activeeffect">1</property>
   <filter id="filter51" out="00:00:06.256">
    <property name="start">1</property>
    <property name="level">1</property>
    <property name="mlt_service">brightness</property>
    <property name="kdenlive_id">fade_from_black</property>
    <property name="alpha">00:00:00.000=0;00:00:06.256=1</property>
    <property name="kdenlive:collapsed">0</property>
   </filter>
   <filter id="filter52" in="00:00:10.636" out="00:00:16.725">
    <property name="start">1</property>
    <property name="level">1</property>
    <property name="mlt_service">brightness</property>
    <property name="kdenlive_id">fade_to_black</property>
    <property name="alpha">00:00:00.000=1;00:00:06.089=0</property>
    <property name="kdenlive:collapsed">0</property>
   </filter>
  </entry>
 </playlist>
 <playlist id="playlist11"/>
 <tractor id="tractor5" in="00:00:00.000" out="01:23:58.725">
  <property name="kdenlive:trackheight">84</property>
  <property name="kdenlive:timeline_active">1</property>
  <property name="kdenlive:collapsed">0</property>
  <property name="kdenlive:thumbs_format"/>
  <property name="kdenlive:audio_rec"/>
  <track hide="audio" producer="playlist10"/>
  <track hide="audio" producer="playlist11"/>
 </tractor>
 <tractor id="tractor6" in="00:00:00.000" out="01:24:05.672">
  <property name="kdenlive:duration">01:24:05.714</property>
  <property name="kdenlive:maxduration">120975</property>
  <property name="kdenlive:clipname">Sequence 1</property>
  <property name="kdenlive:description"/>
  <property name="kdenlive:uuid">{335a7faf-9e03-43df-9f34-7ec415a253af}</property>
  <property name="kdenlive:producer_type">17</property>
  <property name="kdenlive:control_uuid">{335a7faf-9e03-43df-9f34-7ec415a253af}</property>
  <property name="kdenlive:id">3</property>
  <property name="kdenlive:clip_type">0</property>
  <property name="kdenlive:file_hash">10dfbfb59c365f4c281e306d58838b2a</property>
  <property name="kdenlive:folderid">2</property>
  <property name="kdenlive:sequenceproperties.activeTrack">0</property>
  <property name="kdenlive:sequenceproperties.audioTarget">1</property>
  <property name="kdenlive:sequenceproperties.disablepreview">0</property>
  <property name="kdenlive:sequenceproperties.documentuuid">{335a7faf-9e03-43df-9f34-7ec415a253af}</property>
  <property name="kdenlive:sequenceproperties.globalSubtitleStyles">[
]
</property>
  <property name="kdenlive:sequenceproperties.hasAudio">1</property>
  <property name="kdenlive:sequenceproperties.hasVideo">1</property>
  <property name="kdenlive:sequenceproperties.hidesubtitle">0</property>
  <property name="kdenlive:sequenceproperties.position">106770</property>
  <property name="kdenlive:sequenceproperties.scrollPos">3299</property>
  <property name="kdenlive:sequenceproperties.subtitlesList">[
    {
        "file": "C:/Users/kado/Videos/FanEdits/FanMixes/War of the Worlds (2005) - Family Therapy/AppData/Local/Temp/1751492183169-{2a3de343-714d-4058-a74b-e61f52c03d19}.ass",
        "id": 0,
        "name": "Subtitles"
    }
]
</property>
  <property name="kdenlive:sequenceproperties.tracks">4</property>
  <property name="kdenlive:sequenceproperties.tracksCount">6</property>
  <property name="kdenlive:sequenceproperties.verticalzoom">1</property>
  <property name="kdenlive:sequenceproperties.videoTarget">2</property>
  <property name="kdenlive:sequenceproperties.zonein">63523</property>
  <property name="kdenlive:sequenceproperties.zoneout">63530</property>
  <property name="kdenlive:sequenceproperties.zoom">15</property>
  <property name="kdenlive:sequenceproperties.groups">[
    {
        "children": [
            {
                "data": "4:24540:-1",
                "leaf": "clip",
                "type": "Leaf"
            },
            {
                "data": "3:24540:-1",
                "leaf": "clip",
                "type": "Leaf"
            }
        ],
        "type": "AVSplit"
    },
    {
        "children": [
            {
                "data": "4:32884:-1",
                "leaf": "clip",
                "type": "Leaf"
            },
            {
                "data": "3:32884:-1",
                "leaf": "clip",
                "type": "Leaf"
            }
        ],
        "type": "AVSplit"
    },
    {
        "children": [
            {
                "data": "3:41088:-1",
                "leaf": "clip",
                "type": "Leaf"
            },
            {
                "data": "4:41088:-1",
                "leaf": "clip",
                "type": "Leaf"
            }
        ],
        "type": "AVSplit"
    },
    {
        "children": [
            {
                "data": "3:4835:-1",
                "leaf": "clip",
                "type": "Leaf"
            },
            {
                "data": "4:4835:-1",
                "leaf": "clip",
                "type": "Leaf"
            }
        ],
        "type": "AVSplit"
    },
    {
        "children": [
            {
                "data": "4:29463:-1",
                "leaf": "clip",
                "type": "Leaf"
            },
            {
                "data": "3:29391:-1",
                "leaf": "clip",
                "type": "Leaf"
            }
        ],
        "type": "AVSplit"
    },
    {
        "children": [
            {
                "data": "4:14816:-1",
                "leaf": "clip",
                "type": "Leaf"
            },
            {
                "data": "3:14816:-1",
                "leaf": "clip",
                "type": "Leaf"
            }
        ],
        "type": "AVSplit"
    },
    {
        "children": [
            {
                "data": "4:32885:-1",
                "leaf": "clip",
                "type": "Leaf"
            },
            {
                "data": "3:32885:-1",
                "leaf": "clip",
                "type": "Leaf"
            }
        ],
        "type": "AVSplit"
    },
    {
        "children": [
            {
                "data": "3:14591:-1",
                "leaf": "clip",
                "type": "Leaf"
            },
            {
                "data": "4:14591:-1",
                "leaf": "clip",
                "type": "Leaf"
            }
        ],
        "type": "AVSplit"
    },
    {
        "children": [
            {
                "data": "4:14678:-1",
                "leaf": "clip",
                "type": "Leaf"
            },
            {
                "data": "3:14662:-1",
                "leaf": "clip",
                "type": "Leaf"
            }
        ],
        "type": "AVSplit"
    },
    {
        "children": [
            {
                "data": "4:2540:-1",
                "leaf": "clip",
                "type": "Leaf"
            },
            {
                "data": "3:2540:-1",
                "leaf": "clip",
                "type": "Leaf"
            }
        ],
        "type": "AVSplit"
    },
    {
        "children": [
            {
                "data": "4:39993:-1",
                "leaf": "clip",
                "type": "Leaf"
            },
            {
                "data": "3:39993:-1",
                "leaf": "clip",
                "type": "Leaf"
            }
        ],
        "type": "AVSplit"
    },
    {
        "children": [
            {
                "data": "4:93237:-1",
                "leaf": "clip",
                "type": "Leaf"
            },
            {
                "data": "3:93237:-1",
                "leaf": "clip",
                "type": "Leaf"
            }
        ],
        "type": "AVSplit"
    },
    {
        "children": [
            {
                "data": "4:43386:-1",
                "leaf": "clip",
                "type": "Leaf"
            },
            {
                "data": "3:43386:-1",
                "leaf": "clip",
                "type": "Leaf"
            }
        ],
        "type": "AVSplit"
    },
    {
        "children": [
            {
                "data": "3:27849:-1",
                "leaf": "clip",
                "type": "Leaf"
            },
            {
                "data": "4:27854:-1",
                "leaf": "clip",
                "type": "Leaf"
            }
        ],
        "type": "AVSplit"
    },
    {
        "children": [
            {
                "data": "3:30764:-1",
                "leaf": "clip",
                "type": "Leaf"
            },
            {
                "data": "4:30764:-1",
                "leaf": "clip",
                "type": "Leaf"
            }
        ],
        "type": "AVSplit"
    },
    {
        "children": [
            {
                "data": "4:33599:-1",
                "leaf": "clip",
                "type": "Leaf"
            },
            {
                "data": "3:33551:-1",
                "leaf": "clip",
                "type": "Leaf"
            }
        ],
        "type": "AVSplit"
    },
    {
        "children": [
            {
                "data": "3:87996:-1",
                "leaf": "clip",
                "type": "Leaf"
            },
            {
                "data": "4:87996:-1",
                "leaf": "clip",
                "type": "Leaf"
            }
        ],
        "type": "AVSplit"
    },
    {
        "children": [
            {
                "data": "4:63567:-1",
                "leaf": "clip",
                "type": "Leaf"
            },
            {
                "data": "3:63480:-1",
                "leaf": "clip",
                "type": "Leaf"
            }
        ],
        "type": "AVSplit"
    },
    {
        "children": [
            {
                "data": "3:26918:-1",
                "leaf": "clip",
                "type": "Leaf"
            },
            {
                "data": "4:26918:-1",
                "leaf": "clip",
                "type": "Leaf"
            }
        ],
        "type": "AVSplit"
    },
    {
        "children": [
            {
                "data": "4:28137:-1",
                "leaf": "clip",
                "type": "Leaf"
            },
            {
                "data": "3:28129:-1",
                "leaf": "clip",
                "type": "Leaf"
            }
        ],
        "type": "AVSplit"
    },
    {
        "children": [
            {
                "data": "4:63608:-1",
                "leaf": "clip",
                "type": "Leaf"
            },
            {
                "data": "3:63608:-1",
                "leaf": "clip",
                "type": "Leaf"
            }
        ],
        "type": "AVSplit"
    },
    {
        "children": [
            {
                "data": "3:44082:-1",
                "leaf": "clip",
                "type": "Leaf"
            },
            {
                "data": "4:44094:-1",
                "leaf": "clip",
                "type": "Leaf"
            }
        ],
        "type": "AVSplit"
    },
    {
        "children": [
            {
                "data": "4:46260:-1",
                "leaf": "clip",
                "type": "Leaf"
            },
            {
                "data": "3:46248:-1",
                "leaf": "clip",
                "type": "Leaf"
            }
        ],
        "type": "AVSplit"
    },
    {
        "children": [
            {
                "data": "3:33288:-1",
                "leaf": "clip",
                "type": "Leaf"
            },
            {
                "data": "4:33288:-1",
                "leaf": "clip",
                "type": "Leaf"
            }
        ],
        "type": "AVSplit"
    },
    {
        "children": [
            {
                "data": "4:33721:-1",
                "leaf": "clip",
                "type": "Leaf"
            },
            {
                "data": "3:33721:-1",
                "leaf": "clip",
                "type": "Leaf"
            }
        ],
        "type": "AVSplit"
    },
    {
        "children": [
            {
                "data": "4:39508:-1",
                "leaf": "clip",
                "type": "Leaf"
            },
            {
                "data": "3:39496:-1",
                "leaf": "clip",
                "type": "Leaf"
            }
        ],
        "type": "AVSplit"
    },
    {
        "children": [
            {
                "data": "3:63673:-1",
                "leaf": "clip",
                "type": "Leaf"
            },
            {
                "data": "4:63686:-1",
                "leaf": "clip",
                "type": "Leaf"
            }
        ],
        "type": "AVSplit"
    },
    {
        "children": [
            {
                "data": "4:68585:-1",
                "leaf": "clip",
                "type": "Leaf"
            },
            {
                "data": "3:68585:-1",
                "leaf": "clip",
                "type": "Leaf"
            }
        ],
        "type": "AVSplit"
    },
    {
        "children": [
            {
                "data": "3:26412:-1",
                "leaf": "clip",
                "type": "Leaf"
            },
            {
                "data": "4:26412:-1",
                "leaf": "clip",
                "type": "Leaf"
            }
        ],
        "type": "AVSplit"
    },
    {
        "children": [
            {
                "data": "3:63763:-1",
                "leaf": "clip",
                "type": "Leaf"
            },
            {
                "data": "4:63763:-1",
                "leaf": "clip",
                "type": "Leaf"
            }
        ],
        "type": "AVSplit"
    },
    {
        "children": [
            {
                "data": "3:27044:-1",
                "leaf": "clip",
                "type": "Leaf"
            },
            {
                "data": "4:27049:-1",
                "leaf": "clip",
                "type": "Leaf"
            }
        ],
        "type": "AVSplit"
    },
    {
        "children": [
            {
                "data": "3:56351:-1",
                "leaf": "clip",
                "type": "Leaf"
            },
            {
                "data": "4:56376:-1",
                "leaf": "clip",
                "type": "Leaf"
            }
        ],
        "type": "AVSplit"
    },
    {
        "children": [
            {
                "data": "4:78549:-1",
                "leaf": "clip",
                "type": "Leaf"
            },
            {
                "data": "3:78549:-1",
                "leaf": "clip",
                "type": "Leaf"
            }
        ],
        "type": "AVSplit"
    },
    {
        "children": [
            {
                "data": "4:25320:-1",
                "leaf": "clip",
                "type": "Leaf"
            },
            {
                "data": "3:25307:-1",
                "leaf": "clip",
                "type": "Leaf"
            }
        ],
        "type": "AVSplit"
    },
    {
        "children": [
            {
                "data": "4:31037:-1",
                "leaf": "clip",
                "type": "Leaf"
            },
            {
                "data": "3:31037:-1",
                "leaf": "clip",
                "type": "Leaf"
            }
        ],
        "type": "AVSplit"
    },
    {
        "children": [
            {
                "data": "3:38927:-1",
                "leaf": "clip",
                "type": "Leaf"
            },
            {
                "data": "4:38943:-1",
                "leaf": "clip",
                "type": "Leaf"
            }
        ],
        "type": "Normal"
    },
    {
        "children": [
            {
                "data": "4:38409:-1",
                "leaf": "clip",
                "type": "Leaf"
            },
            {
                "data": "3:38409:-1",
                "leaf": "clip",
                "type": "Leaf"
            }
        ],
        "type": "AVSplit"
    },
    {
        "children": [
            {
                "data": "4:65055:-1",
                "leaf": "clip",
                "type": "Leaf"
            },
            {
                "data": "3:65055:-1",
                "leaf": "clip",
                "type": "Leaf"
            }
        ],
        "type": "AVSplit"
    },
    {
        "children": [
            {
                "data": "3:5433:-1",
                "leaf": "clip",
                "type": "Leaf"
            },
            {
                "data": "4:5433:-1",
                "leaf": "clip",
                "type": "Leaf"
            }
        ],
        "type": "AVSplit"
    },
    {
        "children": [
            {
                "data": "4:30938:-1",
                "leaf": "clip",
                "type": "Leaf"
            },
            {
                "data": "3:30915:-1",
                "leaf": "clip",
                "type": "Leaf"
            }
        ],
        "type": "AVSplit"
    },
    {
        "children": [
            {
                "data": "3:62004:-1",
                "leaf": "clip",
                "type": "Leaf"
            },
            {
                "data": "4:62004:-1",
                "leaf": "clip",
                "type": "Leaf"
            }
        ],
        "type": "AVSplit"
    },
    {
        "children": [
            {
                "data": "3:26632:-1",
                "leaf": "clip",
                "type": "Leaf"
            },
            {
                "data": "4:26645:-1",
                "leaf": "clip",
                "type": "Leaf"
            }
        ],
        "type": "AVSplit"
    },
    {
        "children": [
            {
                "data": "4:4808:-1",
                "leaf": "clip",
                "type": "Leaf"
            },
            {
                "data": "3:4795:-1",
                "leaf": "clip",
                "type": "Leaf"
            }
        ],
        "type": "AVSplit"
    },
    {
        "children": [
            {
                "data": "4:40059:-1",
                "leaf": "clip",
                "type": "Leaf"
            },
            {
                "data": "3:40059:-1",
                "leaf": "clip",
                "type": "Leaf"
            }
        ],
        "type": "AVSplit"
    },
    {
        "children": [
            {
                "data": "3:33975:-1",
                "leaf": "clip",
                "type": "Leaf"
            },
            {
                "data": "4:33975:-1",
                "leaf": "clip",
                "type": "Leaf"
            }
        ],
        "type": "AVSplit"
    },
    {
        "children": [
            {
                "data": "3:100635:-1",
                "leaf": "clip",
                "type": "Leaf"
            },
            {
                "data": "4:100647:-1",
                "leaf": "clip",
                "type": "Leaf"
            }
        ],
        "type": "AVSplit"
    },
    {
        "children": [
            {
                "data": "3:29225:-1",
                "leaf": "clip",
                "type": "Leaf"
            },
            {
                "data": "4:29225:-1",
                "leaf": "clip",
                "type": "Leaf"
            }
        ],
        "type": "AVSplit"
    }
]
</property>
  <property name="kdenlive:sequenceproperties.guides">[
]
</property>
  <track producer="producer0"/>
  <track producer="tractor0"/>
  <track producer="tractor1"/>
  <track producer="tractor2"/>
  <track producer="tractor3"/>
  <track producer="tractor4"/>
  <track producer="tractor5"/>
  <transition id="transition33">
   <property name="a_track">0</property>
   <property name="b_track">1</property>
   <property name="mlt_service">mix</property>
   <property name="kdenlive_id">mix</property>
   <property name="internal_added">237</property>
   <property name="always_active">1</property>
   <property name="accepts_blanks">1</property>
   <property name="sum">1</property>
  </transition>
  <transition id="transition34">
   <property name="a_track">0</property>
   <property name="b_track">2</property>
   <property name="mlt_service">mix</property>
   <property name="kdenlive_id">mix</property>
   <property name="internal_added">237</property>
   <property name="always_active">1</property>
   <property name="accepts_blanks">1</property>
   <property name="sum">1</property>
  </transition>
  <transition id="transition35">
   <property name="a_track">0</property>
   <property name="b_track">3</property>
   <property name="mlt_service">mix</property>
   <property name="kdenlive_id">mix</property>
   <property name="internal_added">237</property>
   <property name="always_active">1</property>
   <property name="accepts_blanks">1</property>
   <property name="sum">1</property>
  </transition>
  <transition id="transition36">
   <property name="a_track">0</property>
   <property name="b_track">4</property>
   <property name="mlt_service">mix</property>
   <property name="kdenlive_id">mix</property>
   <property name="internal_added">237</property>
   <property name="always_active">1</property>
   <property name="accepts_blanks">1</property>
   <property name="sum">1</property>
  </transition>
  <transition id="transition37">
   <property name="a_track">0</property>
   <property name="b_track">5</property>
   <property name="compositing">0</property>
   <property name="distort">0</property>
   <property name="rotate_center">0</property>
   <property name="mlt_service">qtblend</property>
   <property name="kdenlive_id">qtblend</property>
   <property name="internal_added">237</property>
   <property name="always_active">1</property>
  </transition>
  <transition id="transition38">
   <property name="a_track">0</property>
   <property name="b_track">6</property>
   <property name="compositing">0</property>
   <property name="distort">0</property>
   <property name="rotate_center">0</property>
   <property name="mlt_service">qtblend</property>
   <property name="kdenlive_id">qtblend</property>
   <property name="internal_added">237</property>
   <property name="always_active">1</property>
  </transition>
  <filter id="filter53">
   <property name="window">75</property>
   <property name="max_gain">20dB</property>
   <property name="mlt_service">volume</property>
   <property name="internal_added">237</property>
   <property name="disable">1</property>
  </filter>
  <filter id="filter54">
   <property name="channel">-1</property>
   <property name="mlt_service">panner</property>
   <property name="internal_added">237</property>
   <property name="start">0.5</property>
   <property name="disable">1</property>
  </filter>
  <filter id="filter55">
   <property name="mlt_service">avfilter.subtitles</property>
   <property name="av.alpha">1</property>
   <property name="internal_added">237</property>
   <property name="av.filename">War of the Worlds (2005) - Family Therapy.kdenlive.ass</property>
   <property name="disable">1</property>
  </filter>
 </tractor>
 <playlist id="main_bin">
  <property name="kdenlive:folder.-1.2">Sequences</property>
  <property name="kdenlive:sequenceFolder">2</property>
  <property name="kdenlive:docproperties.activetimeline">{335a7faf-9e03-43df-9f34-7ec415a253af}</property>
  <property name="kdenlive:docproperties.audioChannels">2</property>
  <property name="kdenlive:docproperties.binsort">0</property>
  <property name="kdenlive:docproperties.browserurl">/</property>
  <property name="kdenlive:docproperties.documentid">1751492183169</property>
  <property name="kdenlive:docproperties.enableTimelineZone">0</property>
  <property name="kdenlive:docproperties.enableexternalproxy">0</property>
  <property name="kdenlive:docproperties.enableproxy">0</property>
  <property name="kdenlive:docproperties.externalproxyparams">./;;.LRV;./;;.MP4</property>
  <property name="kdenlive:docproperties.generateimageproxy">0</property>
  <property name="kdenlive:docproperties.generateproxy">0</property>
  <property name="kdenlive:docproperties.guidesCategories">[
    {
        "color": "#9b59b6",
        "comment": "Category 1",
        "index": 0
    },
    {
        "color": "#3daee9",
        "comment": "Category 2",
        "index": 1
    },
    {
        "color": "#1abc9c",
        "comment": "Category 3",
        "index": 2
    },
    {
        "color": "#1cdc9a",
        "comment": "Category 4",
        "index": 3
    },
    {
        "color": "#c9ce3b",
        "comment": "Category 5",
        "index": 4
    },
    {
        "color": "#fdbc4b",
        "comment": "Category 6",
        "index": 5
    },
    {
        "color": "#f39c1f",
        "comment": "Category 7",
        "index": 6
    },
    {
        "color": "#f47750",
        "comment": "Category 8",
        "index": 7
    },
    {
        "color": "#da4453",
        "comment": "Category 9",
        "index": 8
    }
]
</property>
  <property name="kdenlive:docproperties.kdenliveversion">25.04.2</property>
  <property name="kdenlive:docproperties.opensequences">{335a7faf-9e03-43df-9f34-7ec415a253af}</property>
  <property name="kdenlive:docproperties.previewextension"/>
  <property name="kdenlive:docproperties.previewparameters"/>
  <property name="kdenlive:docproperties.profile">C:/Users/kado/AppData/Roaming/kdenlive/profiles/customprofile8</property>
  <property name="kdenlive:docproperties.proxyextension"/>
  <property name="kdenlive:docproperties.proxyimageminsize">2000</property>
  <property name="kdenlive:docproperties.proxyimagesize">800</property>
  <property name="kdenlive:docproperties.proxyminsize">1000</property>
  <property name="kdenlive:docproperties.proxyparams"/>
  <property name="kdenlive:docproperties.proxyresize">640</property>
  <property name="kdenlive:docproperties.rendercategory">Generic (HD for web, mobile devices...)</property>
  <property name="kdenlive:docproperties.rendercustomquality">-1</property>
  <property name="kdenlive:docproperties.renderendguide">-1</property>
  <property name="kdenlive:docproperties.renderexportaudio">0</property>
  <property name="kdenlive:docproperties.renderfullcolorrange">0</property>
  <property name="kdenlive:docproperties.rendermode">0</property>
  <property name="kdenlive:docproperties.renderplay">0</property>
  <property name="kdenlive:docproperties.renderpreview">0</property>
  <property name="kdenlive:docproperties.renderprofile">Matroska-H264/AAC</property>
  <property name="kdenlive:docproperties.renderrescale">0</property>
  <property name="kdenlive:docproperties.renderrescaleheight">520</property>
  <property name="kdenlive:docproperties.renderrescalewidth">960</property>
  <property name="kdenlive:docproperties.renderspeed">6</property>
  <property name="kdenlive:docproperties.renderstartguide">-1</property>
  <property name="kdenlive:docproperties.rendertcoverlay">0</property>
  <property name="kdenlive:docproperties.rendertctype">-1</property>
  <property name="kdenlive:docproperties.rendertwopass">0</property>
  <property name="kdenlive:docproperties.renderurl">War of the Worlds - Family Therapy Edition.mkv</property>
  <property name="kdenlive:docproperties.seekOffset">30000</property>
  <property name="kdenlive:docproperties.sessionid">{1b674927-fb24-4069-a912-afaa25a353fd}</property>
  <property name="kdenlive:docproperties.uuid">{335a7faf-9e03-43df-9f34-7ec415a253af}</property>
  <property name="kdenlive:docproperties.version">1.1</property>
  <property name="kdenlive:expandedFolders"/>
  <property name="kdenlive:binZoom">4</property>
  <property name="kdenlive:extraBins">project_bin:-1:0</property>
  <property name="kdenlive:documentnotes">&lt;!DOCTYPE HTML PUBLIC "-//W3C//DTD HTML 4.0//EN" "http://www.w3.org/TR/REC-html40/strict.dtd">
&lt;html>&lt;head>&lt;meta name="qrichtext" content="1" />&lt;meta charset="utf-8" />&lt;style type="text/css">
p, li { white-space: pre-wrap; }
hr { height: 1px; border-width: 0; }
li.unchecked::marker { content: "\2610"; }
li.checked::marker { content: "\2612"; }
&lt;/style>&lt;/head>&lt;body style=" font-family:'Segoe UI'; font-size:9pt; font-weight:400; font-style:normal;">
&lt;p style=" margin-top:0px; margin-bottom:0px; margin-left:0px; margin-right:0px; -qt-block-indent:0; text-indent:0px;">Errors found when opening project file (Sat Jul 5 18:17:27 2025)&lt;br />&lt;a href="{335a7faf-9e03-43df-9f34-7ec415a253af}!5432?3">&lt;span style=" text-decoration: underline; color:#1d99f3;">A1 00:03:46:14&lt;/span>&lt;/a> Clip (chain6) on incorrect subtrack found and fixed / 684&lt;br />&lt;a href="{335a7faf-9e03-43df-9f34-7ec415a253af}!14815?3">&lt;span style=" text-decoration: underline; color:#1d99f3;">A1 00:10:17:22&lt;/span>&lt;/a> Clip (chain6) on incorrect subtrack found and fixed / 684&lt;br />&lt;a href="{335a7faf-9e03-43df-9f34-7ec415a253af}!31037?3">&lt;span style=" text-decoration: underline; color:#1d99f3;">A1 00:21:34:12&lt;/span>&lt;/a> Clip (chain6) on incorrect subtrack found and fixed / 684&lt;br />&lt;a href="{335a7faf-9e03-43df-9f34-7ec415a253af}!33199?3">&lt;span style=" text-decoration: underline; color:#1d99f3;">A1 00:23:04:17&lt;/span>&lt;/a> Clip (chain6) on incorrect subtrack found and fixed / 684&lt;br />&lt;a href="{335a7faf-9e03-43df-9f34-7ec415a253af}!33721?3">&lt;span style=" text-decoration: underline; color:#1d99f3;">A1 00:23:26:11&lt;/span>&lt;/a> Clip (chain6) on incorrect subtrack found and fixed / 684&lt;br />&lt;a href="{335a7faf-9e03-43df-9f34-7ec415a253af}!33975?3">&lt;span style=" text-decoration: underline; color:#1d99f3;">A1 00:23:37:01&lt;/span>&lt;/a> Clip (chain6) on incorrect subtrack found and fixed / 684&lt;br />&lt;a href="{335a7faf-9e03-43df-9f34-7ec415a253af}!61871?3">&lt;span style=" text-decoration: underline; color:#1d99f3;">A1 00:43:00:13&lt;/span>&lt;/a> Clip (chain6) on incorrect subtrack found and fixed / 684&lt;br />&lt;a href="{335a7faf-9e03-43df-9f34-7ec415a253af}!62004?3">&lt;span style=" text-decoration: underline; color:#1d99f3;">A1 00:43:06:02&lt;/span>&lt;/a> Clip (chain6) on incorrect subtrack found and fixed / 684&lt;br />&lt;a href="{335a7faf-9e03-43df-9f34-7ec415a253af}!101090?3">&lt;span style=" text-decoration: underline; color:#1d99f3;">A1 01:10:16:08&lt;/span>&lt;/a> Clip (chain6) with missing mix found and resized&lt;br />Incorrect Mix, clip War.of.the.Worlds.2005.1080p.BluRay.x264.mp4 was removed at &lt;a href="{335a7faf-9e03-43df-9f34-7ec415a253af}!101066?3">&lt;span style=" text-decoration: underline; color:#1d99f3;">A1 01:10:16:08&lt;/span>&lt;/a>.&lt;br />&lt;a href="{335a7faf-9e03-43df-9f34-7ec415a253af}!61926?4">&lt;span style=" text-decoration: underline; color:#1d99f3;">V1 00:43:02:20&lt;/span>&lt;/a> Clip (chain10) on incorrect subtrack found and fixed / 745Errors found when opening project file (Tue Jul 8 10:37:02 2025)&lt;br />&lt;a href="{335a7faf-9e03-43df-9f34-7ec415a253af}!1979?3">&lt;span style=" text-decoration: underline; color:#1d99f3;">A1 00:01:22:13&lt;/span>&lt;/a> Clip (chain6) on incorrect subtrack found and fixed / 684&lt;/p>&lt;/body>&lt;/html></property>
  <property name="kdenlive:documentnotesversion">2</property>
  <property name="xml_retain">1</property>
  <entry in="00:00:00.000" out="01:56:31.823" producer="chain14"/>
  <entry in="00:00:00.000" out="00:09:07.674" producer="chain8"/>
  <entry in="00:00:00.000" out="00:05:52.052" producer="chain11"/>
  <entry in="00:00:00.000" out="00:02:42.626" producer="chain12"/>
  <entry in="00:00:00.000" out="00:00:30.906" producer="producer1"/>
  <entry in="00:00:00.000" out="00:57:02.211" producer="chain13"/>
  <entry in="00:00:00.000" out="01:24:05.672" producer="tractor6"/>
 </playlist>
 <tractor id="tractor7" in="00:00:00.000" out="01:24:05.672">
  <property name="kdenlive:projectTractor">1</property>
  <track in="00:00:00.000" out="01:24:05.672" producer="tractor6"/>
 </tractor>
</mlt>
