<?xml version='1.0' encoding='utf-8'?>
<mlt LC_NUMERIC="en_US.UTF-8" producer="main_bin" root="C:/Users/kado/Videos/FanEdits/FanMixes/Sonic - DeSchwartzed" version="7.33.0">
 <profile colorspace="709" description="3840x1606 23.98fps" display_aspect_den="803" display_aspect_num="1920" frame_rate_den="1001" frame_rate_num="24000" height="1606" progressive="1" sample_aspect_den="1" sample_aspect_num="1" width="3840"/>
 <chain id="chain4" out="02:04:23.941">
  <property name="length">178956</property>
  <property name="eof">pause</property>
  <property name="resource">N:/Videos/Kids Movies/Sonic/Sonic 2022/Sonic 2 Il Film (2023) 2160p 4K H265 10 Bit WEB-DL iTA ENG AC3 5.1 Sub Ita Eng - iDN_CreW.mkv</property>
  <property name="mlt_service">avformat-novalidate</property>
  <property name="meta.media.nb_streams">7</property>
  <property name="meta.media.0.stream.type">video</property>
  <property name="meta.media.0.stream.frame_rate">23.976</property>
  <property name="meta.media.0.stream.sample_aspect_ratio">1</property>
  <property name="meta.media.0.codec.width">3840</property>
  <property name="meta.media.0.codec.height">1606</property>
  <property name="meta.media.0.codec.rotate">0</property>
  <property name="meta.media.0.codec.pix_fmt">yuv420p10le</property>
  <property name="meta.media.0.codec.sample_aspect_ratio">1</property>
  <property name="meta.media.0.codec.colorspace">709</property>
  <property name="meta.media.0.codec.color_trc">1</property>
  <property name="meta.media.0.codec.name">hevc</property>
  <property name="meta.media.0.codec.long_name">HEVC (High Efficiency Video Coding)</property>
  <property name="meta.media.0.codec.bit_rate">0</property>
  <property name="meta.attr.0.stream.BPS-eng.markup">6000404</property>
  <property name="meta.attr.0.stream.DURATION-eng.markup">02:02:18.123000000</property>
  <property name="meta.attr.0.stream.NUMBER_OF_FRAMES-eng.markup">175939</property>
  <property name="meta.attr.0.stream.NUMBER_OF_BYTES-eng.markup">5503962903</property>
  <property name="meta.attr.0.stream._STATISTICS_WRITING_APP-eng.markup">mkvmerge v49.0.0 ('Sick Of Losing Soulmates') 64-bit</property>
  <property name="meta.attr.0.stream._STATISTICS_WRITING_DATE_UTC-eng.markup">2022-05-31 19:08:19</property>
  <property name="meta.attr.0.stream._STATISTICS_TAGS-eng.markup">BPS DURATION NUMBER_OF_FRAMES NUMBER_OF_BYTES</property>
  <property name="meta.media.1.stream.type">audio</property>
  <property name="meta.media.1.codec.sample_fmt">fltp</property>
  <property name="meta.media.1.codec.sample_rate">48000</property>
  <property name="meta.media.1.codec.channels">6</property>
  <property name="meta.media.1.codec.layout">5.1(side)</property>
  <property name="meta.media.1.codec.name">ac3</property>
  <property name="meta.media.1.codec.long_name">ATSC A/52A (AC-3)</property>
  <property name="meta.media.1.codec.bit_rate">640000</property>
  <property name="meta.attr.1.stream.language.markup">ita</property>
  <property name="meta.attr.1.stream.title.markup">AC3 iTA</property>
  <property name="meta.attr.1.stream.BPS-eng.markup">640000</property>
  <property name="meta.attr.1.stream.DURATION-eng.markup">02:04:23.968000000</property>
  <property name="meta.attr.1.stream.NUMBER_OF_FRAMES-eng.markup">233249</property>
  <property name="meta.attr.1.stream.NUMBER_OF_BYTES-eng.markup">597117440</property>
  <property name="meta.attr.1.stream._STATISTICS_WRITING_APP-eng.markup">mkvmerge v49.0.0 ('Sick Of Losing Soulmates') 64-bit</property>
  <property name="meta.attr.1.stream._STATISTICS_WRITING_DATE_UTC-eng.markup">2022-05-31 19:08:19</property>
  <property name="meta.attr.1.stream._STATISTICS_TAGS-eng.markup">BPS DURATION NUMBER_OF_FRAMES NUMBER_OF_BYTES</property>
  <property name="meta.media.2.stream.type">audio</property>
  <property name="meta.media.2.codec.sample_fmt">fltp</property>
  <property name="meta.media.2.codec.sample_rate">48000</property>
  <property name="meta.media.2.codec.channels">6</property>
  <property name="meta.media.2.codec.layout">5.1(side)</property>
  <property name="meta.media.2.codec.name">ac3</property>
  <property name="meta.media.2.codec.long_name">ATSC A/52A (AC-3)</property>
  <property name="meta.media.2.codec.bit_rate">384000</property>
  <property name="meta.attr.2.stream.language.markup">eng</property>
  <property name="meta.attr.2.stream.title.markup">AC3 Eng</property>
  <property name="meta.attr.2.stream.BPS-eng.markup">384000</property>
  <property name="meta.attr.2.stream.DURATION-eng.markup">02:02:18.304000000</property>
  <property name="meta.attr.2.stream.NUMBER_OF_FRAMES-eng.markup">229322</property>
  <property name="meta.attr.2.stream.NUMBER_OF_BYTES-eng.markup">352238592</property>
  <property name="meta.attr.2.stream._STATISTICS_WRITING_APP-eng.markup">mkvmerge v49.0.0 ('Sick Of Losing Soulmates') 64-bit</property>
  <property name="meta.attr.2.stream._STATISTICS_WRITING_DATE_UTC-eng.markup">2022-05-31 19:08:19</property>
  <property name="meta.attr.2.stream._STATISTICS_TAGS-eng.markup">BPS DURATION NUMBER_OF_FRAMES NUMBER_OF_BYTES</property>
  <property name="meta.media.3.codec.name">srt</property>
  <property name="meta.media.3.codec.long_name">SubRip subtitle</property>
  <property name="meta.media.3.codec.bit_rate">0</property>
  <property name="meta.attr.3.stream.language.markup">ita</property>
  <property name="meta.attr.3.stream.title.markup">Forced</property>
  <property name="meta.attr.3.stream.BPS-eng.markup">0</property>
  <property name="meta.attr.3.stream.DURATION-eng.markup">02:01:21.816000000</property>
  <property name="meta.attr.3.stream.NUMBER_OF_FRAMES-eng.markup">25</property>
  <property name="meta.attr.3.stream.NUMBER_OF_BYTES-eng.markup">600</property>
  <property name="meta.attr.3.stream._STATISTICS_WRITING_APP-eng.markup">mkvmerge v49.0.0 ('Sick Of Losing Soulmates') 64-bit</property>
  <property name="meta.attr.3.stream._STATISTICS_WRITING_DATE_UTC-eng.markup">2022-05-31 19:08:19</property>
  <property name="meta.attr.3.stream._STATISTICS_TAGS-eng.markup">BPS DURATION NUMBER_OF_FRAMES NUMBER_OF_BYTES</property>
  <property name="meta.media.4.codec.name">srt</property>
  <property name="meta.media.4.codec.long_name">SubRip subtitle</property>
  <property name="meta.media.4.codec.bit_rate">0</property>
  <property name="meta.attr.4.stream.language.markup">ita</property>
  <property name="meta.attr.4.stream.title.markup">Regular</property>
  <property name="meta.attr.4.stream.BPS-eng.markup">45</property>
  <property name="meta.attr.4.stream.DURATION-eng.markup">02:01:21.816000000</property>
  <property name="meta.attr.4.stream.NUMBER_OF_FRAMES-eng.markup">1376</property>
  <property name="meta.attr.4.stream.NUMBER_OF_BYTES-eng.markup">41271</property>
  <property name="meta.attr.4.stream._STATISTICS_WRITING_APP-eng.markup">mkvmerge v49.0.0 ('Sick Of Losing Soulmates') 64-bit</property>
  <property name="meta.attr.4.stream._STATISTICS_WRITING_DATE_UTC-eng.markup">2022-05-31 19:08:19</property>
  <property name="meta.attr.4.stream._STATISTICS_TAGS-eng.markup">BPS DURATION NUMBER_OF_FRAMES NUMBER_OF_BYTES</property>
  <property name="meta.media.5.codec.name">srt</property>
  <property name="meta.media.5.codec.long_name">SubRip subtitle</property>
  <property name="meta.media.5.codec.bit_rate">0</property>
  <property name="meta.attr.5.stream.language.markup">eng</property>
  <property name="meta.attr.5.stream.title.markup">Forced</property>
  <property name="meta.attr.5.stream.BPS-eng.markup">0</property>
  <property name="meta.attr.5.stream.DURATION-eng.markup">00:42:25.379000000</property>
  <property name="meta.attr.5.stream.NUMBER_OF_FRAMES-eng.markup">7</property>
  <property name="meta.attr.5.stream.NUMBER_OF_BYTES-eng.markup">170</property>
  <property name="meta.attr.5.stream._STATISTICS_WRITING_APP-eng.markup">mkvmerge v49.0.0 ('Sick Of Losing Soulmates') 64-bit</property>
  <property name="meta.attr.5.stream._STATISTICS_WRITING_DATE_UTC-eng.markup">2022-05-31 19:08:19</property>
  <property name="meta.attr.5.stream._STATISTICS_TAGS-eng.markup">BPS DURATION NUMBER_OF_FRAMES NUMBER_OF_BYTES</property>
  <property name="meta.media.6.codec.name">srt</property>
  <property name="meta.media.6.codec.long_name">SubRip subtitle</property>
  <property name="meta.media.6.codec.bit_rate">0</property>
  <property name="meta.attr.6.stream.language.markup">eng</property>
  <property name="meta.attr.6.stream.title.markup">Regular</property>
  <property name="meta.attr.6.stream.BPS-eng.markup">60</property>
  <property name="meta.attr.6.stream.DURATION-eng.markup">01:52:04.859000000</property>
  <property name="meta.attr.6.stream.NUMBER_OF_FRAMES-eng.markup">1647</property>
  <property name="meta.attr.6.stream.NUMBER_OF_BYTES-eng.markup">50781</property>
  <property name="meta.attr.6.stream._STATISTICS_WRITING_APP-eng.markup">mkvmerge v49.0.0 ('Sick Of Losing Soulmates') 64-bit</property>
  <property name="meta.attr.6.stream._STATISTICS_WRITING_DATE_UTC-eng.markup">2022-05-31 19:08:19</property>
  <property name="meta.attr.6.stream._STATISTICS_TAGS-eng.markup">BPS DURATION NUMBER_OF_FRAMES NUMBER_OF_BYTES</property>
  <property name="meta.attr.title.markup">UHD 4K - iDN_CreW</property>
  <property name="meta.attr.encoder.markup">libebml v1.4.0 + libmatroska v1.6.1</property>
  <property name="meta.attr.creation_time.markup">2022-05-31T19:08:19.000000Z</property>
  <property name="seekable">1</property>
  <property name="meta.media.sample_aspect_num">1</property>
  <property name="meta.media.sample_aspect_den">1</property>
  <property name="audio_index">1</property>
  <property name="video_index">0</property>
  <property name="vstream">0</property>
  <property name="meta.media.frame_rate_num">24000</property>
  <property name="meta.media.frame_rate_den">1001</property>
  <property name="meta.media.colorspace">709</property>
  <property name="meta.media.color_trc">1</property>
  <property name="meta.media.has_b_frames">2</property>
  <property name="meta.media.width">3840</property>
  <property name="meta.media.height">1606</property>
  <property name="meta.media.aspect_ratio">1</property>
  <property name="meta.media.color_range">mpeg</property>
  <property name="astream">0</property>
  <property name="meta.media.top_field_first">0</property>
  <property name="meta.media.progressive">1</property>
  <property name="kdenlive:control_uuid">{8662ceb9-f96f-4607-812c-ea78d123d3ef}</property>
  <property name="kdenlive:id">4</property>
  <property name="kdenlive:clip_type">0</property>
  <property name="kdenlive:file_size">6455506204</property>
  <property name="kdenlive:file_hash">c805e36cb967f0098696aec55aa79048</property>
  <property name="kdenlive:folderid">-1</property>
  <property name="kdenlive:monitorPosition">2741</property>
  <property name="kdenlive:markers">[
]
</property>
  <property name="mute_on_pause">0</property>
  <property name="kdenlive:active_streams">1;2</property>
 </chain>
 <chain id="chain2" out="00:02:05.839">
  <property name="length">3018</property>
  <property name="eof">pause</property>
  <property name="resource">N:/Videos/FanEdits/FanMixes/Sonic - DeSchwartzed/ost2/Sonic_the_Hedgehog_2_Bluest_Sky_OC_ReMix.mp3</property>
  <property name="mlt_service">avformat-novalidate</property>
  <property name="meta.media.nb_streams">2</property>
  <property name="meta.media.0.stream.type">audio</property>
  <property name="meta.media.0.codec.sample_fmt">fltp</property>
  <property name="meta.media.0.codec.sample_rate">44100</property>
  <property name="meta.media.0.codec.channels">2</property>
  <property name="meta.media.0.codec.layout">stereo</property>
  <property name="meta.media.0.codec.name">mp3float</property>
  <property name="meta.media.0.codec.long_name">MP3 (MPEG audio layer 3)</property>
  <property name="meta.media.0.codec.bit_rate">192000</property>
  <property name="meta.media.1.stream.type">video</property>
  <property name="meta.media.1.stream.frame_rate">90000</property>
  <property name="meta.media.1.stream.sample_aspect_ratio">0</property>
  <property name="meta.media.1.codec.width">700</property>
  <property name="meta.media.1.codec.height">700</property>
  <property name="meta.media.1.codec.rotate">0</property>
  <property name="meta.media.1.codec.pix_fmt">yuvj444p</property>
  <property name="meta.media.1.codec.sample_aspect_ratio">0</property>
  <property name="meta.media.1.codec.colorspace">601</property>
  <property name="meta.media.1.codec.name">mjpeg</property>
  <property name="meta.media.1.codec.long_name">MJPEG (Motion JPEG)</property>
  <property name="meta.media.1.codec.bit_rate">0</property>
  <property name="meta.attr.1.stream.comment.markup">Cover (front)</property>
  <property name="meta.attr.album.markup">ocremix.org</property>
  <property name="meta.attr.artist.markup">Tim Sheehy</property>
  <property name="meta.attr.album_artist.markup">OverClocked ReMix</property>
  <property name="meta.attr.comment.markup">"Sky Chase Zone" from Sonic the Hedgehog 2 for the Sega Genesis/Mega Drive game console. Always loved this one ^^&#xd;
&#xd;
Tim Sheehy&#xd;
tim@timsheehy.com&#xd;
http://timsheehy.com</property>
  <property name="meta.attr.composer.markup">Masato Nakamura</property>
  <property name="meta.attr.grouping.markup">Sonic the Hedgehog 2</property>
  <property name="meta.attr.copyright.markup">Sega</property>
  <property name="meta.attr.encoded_by.markup">Tim Sheehy (tim@timsheehy.com)</property>
  <property name="meta.attr.genre.markup">Game</property>
  <property name="meta.attr.compilation.markup">1</property>
  <property name="meta.attr.TOPE.markup">Sega Genesis</property>
  <property name="meta.attr.publisher.markup">OverClocked ReMix</property>
  <property name="meta.attr.SETSUBTITLE.markup">OCR00337</property>
  <property name="meta.attr.TIT3.markup">Bluest Sky</property>
  <property name="meta.attr.title.markup">Sonic the Hedgehog 2 "Bluest Sky" OC ReMix</property>
  <property name="meta.attr.track.markup">337</property>
  <property name="meta.attr.date.markup">2001</property>
  <property name="seekable">1</property>
  <property name="meta.media.sample_aspect_num">1</property>
  <property name="meta.media.sample_aspect_den">1</property>
  <property name="audio_index">0</property>
  <property name="video_index">1</property>
  <property name="vstream">0</property>
  <property name="meta.media.frame_rate_num">90000</property>
  <property name="meta.media.frame_rate_den">1</property>
  <property name="meta.media.colorspace">601</property>
  <property name="meta.media.color_trc">2</property>
  <property name="meta.media.has_b_frames">0</property>
  <property name="meta.media.width">700</property>
  <property name="meta.media.height">700</property>
  <property name="meta.media.aspect_ratio">1</property>
  <property name="meta.media.color_range">full</property>
  <property name="astream">0</property>
  <property name="meta.media.top_field_first">0</property>
  <property name="meta.media.progressive">1</property>
  <property name="kdenlive:folderid">12</property>
  <property name="kdenlive:id">5</property>
  <property name="kdenlive:control_uuid">{6ed7488d-c853-49ad-8914-bc6f655495c3}</property>
  <property name="mute_on_pause">0</property>
  <property name="kdenlive:clip_type">0</property>
  <property name="kdenlive:coverartstream">1</property>
  <property name="kdenlive:file_size">3108600</property>
  <property name="kdenlive:file_hash">9e39754832bc3be94f9d0f80a60c6450</property>
  <property name="kdenlive:monitorPosition">99</property>
 </chain>
 <chain id="chain6" out="00:03:35.077">
  <property name="length">5157</property>
  <property name="eof">pause</property>
  <property name="resource">N:/Videos/FanEdits/FanMixes/Sonic - DeSchwartzed/ost2/Sonic_the_Hedgehog_2_Chemical_Blip_OC_ReMix.mp3</property>
  <property name="mlt_service">avformat-novalidate</property>
  <property name="meta.media.nb_streams">2</property>
  <property name="meta.media.0.stream.type">audio</property>
  <property name="meta.media.0.codec.sample_fmt">fltp</property>
  <property name="meta.media.0.codec.sample_rate">44100</property>
  <property name="meta.media.0.codec.channels">2</property>
  <property name="meta.media.0.codec.layout">stereo</property>
  <property name="meta.media.0.codec.name">mp3float</property>
  <property name="meta.media.0.codec.long_name">MP3 (MPEG audio layer 3)</property>
  <property name="meta.media.0.codec.bit_rate">192000</property>
  <property name="meta.media.1.stream.type">video</property>
  <property name="meta.media.1.stream.frame_rate">90000</property>
  <property name="meta.media.1.stream.sample_aspect_ratio">0</property>
  <property name="meta.media.1.codec.width">700</property>
  <property name="meta.media.1.codec.height">700</property>
  <property name="meta.media.1.codec.rotate">0</property>
  <property name="meta.media.1.codec.pix_fmt">yuvj444p</property>
  <property name="meta.media.1.codec.sample_aspect_ratio">0</property>
  <property name="meta.media.1.codec.colorspace">601</property>
  <property name="meta.media.1.codec.name">mjpeg</property>
  <property name="meta.media.1.codec.long_name">MJPEG (Motion JPEG)</property>
  <property name="meta.media.1.codec.bit_rate">0</property>
  <property name="meta.attr.1.stream.comment.markup">Cover (front)</property>
  <property name="meta.attr.album.markup">ocremix.org</property>
  <property name="meta.attr.artist.markup">Anti-Syne</property>
  <property name="meta.attr.album_artist.markup">OverClocked ReMix</property>
  <property name="meta.attr.comment.markup">So this ReMix was a bit of a wonderful accident. It started life as an original track until, whilst playing 'round with it, I accidentally played those first two chords of "Chemical Plant Zone." Out of curiosity, I played the "Chemical" melody into my original and it just seemed to work. This is my first ReMix to really offer a major tonality change from the source, and I'm extremely pleased with how it turned out. Out of interest, it's called "Chemical Blip" not in reference to the blippy, glitchy part, but in reference to a little blip sound that I couldn't seem to stop in early versions of this ReMix. Blip is now gone, but hopefully not forgotten. Enjoy!&#xd;
&#xd;
Jack Lewis&#xd;
jack_lewis13@hotmail.com&#xd;
https://soundcloud.com/jack-lewis</property>
  <property name="meta.attr.composer.markup">Masato Nakamura</property>
  <property name="meta.attr.grouping.markup">Sonic the Hedgehog 2</property>
  <property name="meta.attr.copyright.markup">Sega</property>
  <property name="meta.attr.encoded_by.markup">Jack Lewis (jack_lewis13@hotmail.com)</property>
  <property name="meta.attr.genre.markup">Game</property>
  <property name="meta.attr.compilation.markup">1</property>
  <property name="meta.attr.TOPE.markup">Sega Genesis</property>
  <property name="meta.attr.publisher.markup">OverClocked ReMix</property>
  <property name="meta.attr.setsubtitle.markup">OCR02337</property>
  <property name="meta.attr.TIT3.markup">Chemical Blip</property>
  <property name="meta.attr.title.markup">Sonic the Hedgehog 2 "Chemical Blip" OC ReMix</property>
  <property name="meta.attr.track.markup">2337</property>
  <property name="meta.attr.date.markup">2011</property>
  <property name="seekable">1</property>
  <property name="meta.media.sample_aspect_num">1</property>
  <property name="meta.media.sample_aspect_den">1</property>
  <property name="audio_index">0</property>
  <property name="video_index">1</property>
  <property name="vstream">0</property>
  <property name="meta.media.frame_rate_num">90000</property>
  <property name="meta.media.frame_rate_den">1</property>
  <property name="meta.media.colorspace">601</property>
  <property name="meta.media.color_trc">2</property>
  <property name="meta.media.has_b_frames">0</property>
  <property name="meta.media.width">700</property>
  <property name="meta.media.height">700</property>
  <property name="meta.media.aspect_ratio">1</property>
  <property name="meta.media.color_range">full</property>
  <property name="astream">0</property>
  <property name="meta.media.top_field_first">0</property>
  <property name="meta.media.progressive">1</property>
  <property name="kdenlive:folderid">12</property>
  <property name="kdenlive:id">7</property>
  <property name="kdenlive:control_uuid">{ea76cd46-2956-4881-81d6-896b8f059165}</property>
  <property name="mute_on_pause">0</property>
  <property name="kdenlive:clip_type">0</property>
  <property name="kdenlive:coverartstream">1</property>
  <property name="kdenlive:file_size">5251163</property>
  <property name="kdenlive:file_hash">f3a97edae151d9f4f2613f27bb8801d2</property>
  <property name="kdenlive:monitorPosition">3924</property>
 </chain>
 <chain id="chain8" out="00:03:25.525">
  <property name="length">4928</property>
  <property name="eof">pause</property>
  <property name="resource">N:/Videos/FanEdits/FanMixes/Sonic - DeSchwartzed/ost2/Sonic_the_Hedgehog_2_Oil_Ocean_(WT-40_Mix)_OC_ReMix.mp3</property>
  <property name="mlt_service">avformat-novalidate</property>
  <property name="meta.media.nb_streams">2</property>
  <property name="meta.media.0.stream.type">audio</property>
  <property name="meta.media.0.codec.sample_fmt">fltp</property>
  <property name="meta.media.0.codec.sample_rate">44100</property>
  <property name="meta.media.0.codec.channels">2</property>
  <property name="meta.media.0.codec.layout">stereo</property>
  <property name="meta.media.0.codec.name">mp3float</property>
  <property name="meta.media.0.codec.long_name">MP3 (MPEG audio layer 3)</property>
  <property name="meta.media.0.codec.bit_rate">192072</property>
  <property name="meta.attr.0.stream.encoder.markup">LAME3.97 </property>
  <property name="meta.media.1.stream.type">video</property>
  <property name="meta.media.1.stream.frame_rate">90000</property>
  <property name="meta.media.1.stream.sample_aspect_ratio">0</property>
  <property name="meta.media.1.codec.width">700</property>
  <property name="meta.media.1.codec.height">700</property>
  <property name="meta.media.1.codec.rotate">0</property>
  <property name="meta.media.1.codec.pix_fmt">yuvj444p</property>
  <property name="meta.media.1.codec.sample_aspect_ratio">0</property>
  <property name="meta.media.1.codec.colorspace">601</property>
  <property name="meta.media.1.codec.name">mjpeg</property>
  <property name="meta.media.1.codec.long_name">MJPEG (Motion JPEG)</property>
  <property name="meta.media.1.codec.bit_rate">0</property>
  <property name="meta.attr.1.stream.comment.markup">Cover (front)</property>
  <property name="meta.attr.album.markup">ocremix.org</property>
  <property name="meta.attr.artist.markup">PlanetSkill</property>
  <property name="meta.attr.album_artist.markup">OverClocked ReMix</property>
  <property name="meta.attr.comment.markup">A_Rival, Digimatic, RansomRath, tumult&#xd;
http://planetskill.com&#xd;
&#xd;
Lyrics:&#xd;
&#xd;
You're looking like ya think that I don't know&#xd;
Thinking that the signs of a lie don't show&#xd;
Little by little, you rhyme or so&#xd;
I'mma give ya something so ya don't try no more&#xd;
&#xd;
Oh my lord, what ya gonna say next?&#xd;
Do anything for a little paycheck&#xd;
I'mma tell ya short, simple, and basic&#xd;
It really doesn't look like you're gonna make it&#xd;
&#xd;
[Chorus]&#xd;
You make me sick, with all your tricks&#xd;
You just might slip, your feet lose grip&#xd;
You're not that slick, I'm much too quick&#xd;
You've broken something that you just can't fix&#xd;
You know that oil and water don't mix&#xd;
&#xd;
I'm only trying to make things run smooth&#xd;
But now I gotta worry 'bout whatchu gon' do&#xd;
You shoulda came to me to tell me whatcha goin' through&#xd;
But now you're on the wrong team, gotta own you&#xd;
&#xd;
Don't you ever think about how they all say&#xd;
Everything that you do comes back always&#xd;
You made a big leak, and your ship might sink&#xd;
I woulda thought you woulda thought, but I guess you don't think&#xd;
&#xd;
[Chorus]&#xd;
&#xd;
Open the floodgates!&#xd;
Get ready for the flow!</property>
  <property name="meta.attr.composer.markup">Masato Nakamura</property>
  <property name="meta.attr.grouping.markup">Sonic the Hedgehog 2</property>
  <property name="meta.attr.copyright.markup">Sega</property>
  <property name="meta.attr.encoded_by.markup">Luke Esquivel (supersquaremusic@gmail.com)</property>
  <property name="meta.attr.genre.markup">Game</property>
  <property name="meta.attr.compilation.markup">1</property>
  <property name="meta.attr.TEXT.markup">A_Rival</property>
  <property name="meta.attr.TOPE.markup">Sega Genesis</property>
  <property name="meta.attr.publisher.markup">OverClocked ReMix</property>
  <property name="meta.attr.SETSUBTITLE.markup">OCR01600</property>
  <property name="meta.attr.TIT3.markup">Oil Ocean (WT-40 Mix)</property>
  <property name="meta.attr.title.markup">Sonic the Hedgehog 2 "Oil Ocean (WT-40 Mix)" OC ReMix</property>
  <property name="meta.attr.track.markup">1600</property>
  <property name="meta.attr.lyrics-eng.markup">You're looking like ya think that I don't know&#xd;
Thinking that the signs of a lie don't show&#xd;
Little by little, you rhyme or so&#xd;
I'mma give ya something so ya don't try no more&#xd;
&#xd;
Oh my lord, what ya gonna say next?&#xd;
Do anything for a little paycheck&#xd;
I'mma tell ya short, simple, and basic&#xd;
It really doesn't look like you're gonna make it&#xd;
&#xd;
[Chorus]&#xd;
You make me sick, with all your tricks&#xd;
You just might slip, your feet lose grip&#xd;
You're not that slick, I'm much too quick&#xd;
You've broken something that you just can't fix&#xd;
You know that oil and water don't mix&#xd;
&#xd;
I'm only trying to make things run smooth&#xd;
But now I gotta worry 'bout whatchu gon' do&#xd;
You shoulda came to me to tell me whatcha goin' through&#xd;
But now you're on the wrong team, gotta own you&#xd;
&#xd;
Don't you ever think about how they all say&#xd;
Everything that you do comes back always&#xd;
You made a big leak, and your ship might sink&#xd;
I woulda thought you woulda thought, but I guess you don't think&#xd;
&#xd;
[Chorus]&#xd;
&#xd;
Open the floodgates!&#xd;
Get ready for the flow!</property>
  <property name="meta.attr.date.markup">2007</property>
  <property name="seekable">1</property>
  <property name="meta.media.sample_aspect_num">1</property>
  <property name="meta.media.sample_aspect_den">1</property>
  <property name="audio_index">0</property>
  <property name="video_index">1</property>
  <property name="vstream">0</property>
  <property name="meta.media.frame_rate_num">90000</property>
  <property name="meta.media.frame_rate_den">1</property>
  <property name="meta.media.colorspace">601</property>
  <property name="meta.media.color_trc">2</property>
  <property name="meta.media.has_b_frames">0</property>
  <property name="meta.media.width">700</property>
  <property name="meta.media.height">700</property>
  <property name="meta.media.aspect_ratio">1</property>
  <property name="meta.media.color_range">full</property>
  <property name="astream">0</property>
  <property name="meta.media.top_field_first">0</property>
  <property name="meta.media.progressive">1</property>
  <property name="kdenlive:folderid">12</property>
  <property name="kdenlive:id">9</property>
  <property name="kdenlive:control_uuid">{47f1a427-b4c4-4abf-b3ac-5c02c23f5acd}</property>
  <property name="mute_on_pause">0</property>
  <property name="kdenlive:clip_type">0</property>
  <property name="kdenlive:coverartstream">1</property>
  <property name="kdenlive:file_size">5025972</property>
  <property name="kdenlive:file_hash">abe0098423569abecf1ada84794d8439</property>
  <property name="kdenlive:monitorPosition">1613</property>
 </chain>
 <chain id="chain13" out="00:03:35.661">
  <property name="length">5171</property>
  <property name="eof">pause</property>
  <property name="resource">N:/Videos/FanEdits/FanMixes/Sonic - DeSchwartzed/ost2/Sonic_the_Hedgehog_2_Welcome_to_the_Metropolis_OC_ReMix.mp3</property>
  <property name="mlt_service">avformat-novalidate</property>
  <property name="meta.media.nb_streams">2</property>
  <property name="meta.media.0.stream.type">audio</property>
  <property name="meta.media.0.codec.sample_fmt">fltp</property>
  <property name="meta.media.0.codec.sample_rate">44100</property>
  <property name="meta.media.0.codec.channels">2</property>
  <property name="meta.media.0.codec.layout">stereo</property>
  <property name="meta.media.0.codec.name">mp3float</property>
  <property name="meta.media.0.codec.long_name">MP3 (MPEG audio layer 3)</property>
  <property name="meta.media.0.codec.bit_rate">155676</property>
  <property name="meta.media.1.stream.type">video</property>
  <property name="meta.media.1.stream.frame_rate">90000</property>
  <property name="meta.media.1.stream.sample_aspect_ratio">0</property>
  <property name="meta.media.1.codec.width">700</property>
  <property name="meta.media.1.codec.height">700</property>
  <property name="meta.media.1.codec.rotate">0</property>
  <property name="meta.media.1.codec.pix_fmt">yuvj444p</property>
  <property name="meta.media.1.codec.sample_aspect_ratio">0</property>
  <property name="meta.media.1.codec.colorspace">601</property>
  <property name="meta.media.1.codec.name">mjpeg</property>
  <property name="meta.media.1.codec.long_name">MJPEG (Motion JPEG)</property>
  <property name="meta.media.1.codec.bit_rate">0</property>
  <property name="meta.attr.1.stream.comment.markup">Cover (front)</property>
  <property name="meta.attr.album.markup">ocremix.org</property>
  <property name="meta.attr.artist.markup">Sir_NutS</property>
  <property name="meta.attr.album_artist.markup">OverClocked ReMix</property>
  <property name="meta.attr.comment.markup">Well, this was a remix I made for IMC12, the Metropolis Zone - Sonic the Hedgehog 2. It got good reviews and I think it sounds good too. Though I have better songs than this now. Anyways, I used lots of effects for this, filtering, gating, panning, flange. This was made with FruityLoops 3.5, 3xOSC, tst404 and, umm, some drum samples, it's fast, as Sonic would be, and well I like it a lot, and I hope that you and all the OCR listeners will too.&#xd;
&#xd;
Paul Michael Molina&#xd;
pmmolinar@yahoo.com&#xd;
http://sirnuts.blogspot.com</property>
  <property name="meta.attr.composer.markup">Masato Nakamura</property>
  <property name="meta.attr.grouping.markup">Sonic the Hedgehog 2</property>
  <property name="meta.attr.copyright.markup">Sega</property>
  <property name="meta.attr.encoded_by.markup">Michael Molina (pmmolinar@yahoo.com)</property>
  <property name="meta.attr.genre.markup">Game</property>
  <property name="meta.attr.compilation.markup">1</property>
  <property name="meta.attr.TOPE.markup">Sega Genesis</property>
  <property name="meta.attr.publisher.markup">OverClocked ReMix</property>
  <property name="meta.attr.SETSUBTITLE.markup">OCR00968</property>
  <property name="meta.attr.TIT3.markup">Welcome to the Metropolis</property>
  <property name="meta.attr.title.markup">Sonic the Hedgehog 2 "Welcome to the Metropolis" OC ReMix</property>
  <property name="meta.attr.track.markup">968</property>
  <property name="meta.attr.date.markup">2003</property>
  <property name="seekable">1</property>
  <property name="meta.media.sample_aspect_num">1</property>
  <property name="meta.media.sample_aspect_den">1</property>
  <property name="audio_index">0</property>
  <property name="video_index">1</property>
  <property name="vstream">0</property>
  <property name="meta.media.frame_rate_num">90000</property>
  <property name="meta.media.frame_rate_den">1</property>
  <property name="meta.media.colorspace">601</property>
  <property name="meta.media.color_trc">2</property>
  <property name="meta.media.has_b_frames">0</property>
  <property name="meta.media.width">700</property>
  <property name="meta.media.height">700</property>
  <property name="meta.media.aspect_ratio">1</property>
  <property name="meta.media.color_range">full</property>
  <property name="astream">0</property>
  <property name="meta.media.top_field_first">0</property>
  <property name="meta.media.progressive">1</property>
  <property name="kdenlive:folderid">12</property>
  <property name="kdenlive:id">13</property>
  <property name="kdenlive:control_uuid">{9c1092af-6ac8-482e-ad1f-77493be82ce9}</property>
  <property name="mute_on_pause">0</property>
  <property name="kdenlive:clip_type">0</property>
  <property name="kdenlive:coverartstream">1</property>
  <property name="kdenlive:file_size">4284915</property>
  <property name="kdenlive:file_hash">831b88e6bd93d08da51968114b8a42be</property>
  <property name="kdenlive:monitorPosition">2661</property>
 </chain>
 <producer id="producer0" in="00:00:00.000" out="01:16:29.154">
  <property name="length">2147483647</property>
  <property name="eof">continue</property>
  <property name="resource">black</property>
  <property name="aspect_ratio">1</property>
  <property name="mlt_service">color</property>
  <property name="kdenlive:playlistid">black_track</property>
  <property name="mlt_image_format">rgba</property>
  <property name="set.test_audio">0</property>
 </producer>
 <chain id="chain0" out="00:03:35.077">
  <property name="length">5157</property>
  <property name="eof">pause</property>
  <property name="resource">N:/Videos/FanEdits/FanMixes/Sonic - DeSchwartzed/ost2/Sonic_the_Hedgehog_2_Chemical_Blip_OC_ReMix.mp3</property>
  <property name="mlt_service">avformat-novalidate</property>
  <property name="seekable">1</property>
  <property name="audio_index">0</property>
  <property name="video_index">1</property>
  <property name="vstream">0</property>
  <property name="astream">0</property>
  <property name="kdenlive:folderid">12</property>
  <property name="kdenlive:id">7</property>
  <property name="kdenlive:control_uuid">{ea76cd46-2956-4881-81d6-896b8f059165}</property>
  <property name="mute_on_pause">0</property>
  <property name="kdenlive:clip_type">0</property>
  <property name="kdenlive:coverartstream">1</property>
  <property name="kdenlive:file_size">5251163</property>
  <property name="kdenlive:file_hash">f3a97edae151d9f4f2613f27bb8801d2</property>
  <property name="kdenlive:monitorPosition">67</property>
  <property name="meta.media.nb_streams">2</property>
  <property name="meta.media.0.stream.type">audio</property>
  <property name="meta.media.0.codec.sample_fmt">fltp</property>
  <property name="meta.media.0.codec.sample_rate">44100</property>
  <property name="meta.media.0.codec.channels">2</property>
  <property name="meta.media.0.codec.layout">stereo</property>
  <property name="meta.media.0.codec.name">mp3float</property>
  <property name="meta.media.0.codec.long_name">MP3 (MPEG audio layer 3)</property>
  <property name="meta.media.0.codec.bit_rate">192000</property>
  <property name="meta.media.1.stream.type">video</property>
  <property name="meta.media.1.stream.frame_rate">90000</property>
  <property name="meta.media.1.stream.sample_aspect_ratio">0</property>
  <property name="meta.media.1.codec.width">700</property>
  <property name="meta.media.1.codec.height">700</property>
  <property name="meta.media.1.codec.rotate">0</property>
  <property name="meta.media.1.codec.pix_fmt">yuvj444p</property>
  <property name="meta.media.1.codec.sample_aspect_ratio">0</property>
  <property name="meta.media.1.codec.colorspace">601</property>
  <property name="meta.media.1.codec.name">mjpeg</property>
  <property name="meta.media.1.codec.long_name">MJPEG (Motion JPEG)</property>
  <property name="meta.media.1.codec.bit_rate">0</property>
  <property name="meta.attr.1.stream.comment.markup">Cover (front)</property>
  <property name="meta.attr.album.markup">ocremix.org</property>
  <property name="meta.attr.artist.markup">Anti-Syne</property>
  <property name="meta.attr.album_artist.markup">OverClocked ReMix</property>
  <property name="meta.attr.comment.markup">So this ReMix was a bit of a wonderful accident. It started life as an original track until, whilst playing 'round with it, I accidentally played those first two chords of "Chemical Plant Zone." Out of curiosity, I played the "Chemical" melody into my original and it just seemed to work. This is my first ReMix to really offer a major tonality change from the source, and I'm extremely pleased with how it turned out. Out of interest, it's called "Chemical Blip" not in reference to the blippy, glitchy part, but in reference to a little blip sound that I couldn't seem to stop in early versions of this ReMix. Blip is now gone, but hopefully not forgotten. Enjoy!&#xd;
&#xd;
Jack Lewis&#xd;
jack_lewis13@hotmail.com&#xd;
https://soundcloud.com/jack-lewis</property>
  <property name="meta.attr.composer.markup">Masato Nakamura</property>
  <property name="meta.attr.grouping.markup">Sonic the Hedgehog 2</property>
  <property name="meta.attr.copyright.markup">Sega</property>
  <property name="meta.attr.encoded_by.markup">Jack Lewis (jack_lewis13@hotmail.com)</property>
  <property name="meta.attr.genre.markup">Game</property>
  <property name="meta.attr.compilation.markup">1</property>
  <property name="meta.attr.TOPE.markup">Sega Genesis</property>
  <property name="meta.attr.publisher.markup">OverClocked ReMix</property>
  <property name="meta.attr.setsubtitle.markup">OCR02337</property>
  <property name="meta.attr.TIT3.markup">Chemical Blip</property>
  <property name="meta.attr.title.markup">Sonic the Hedgehog 2 "Chemical Blip" OC ReMix</property>
  <property name="meta.attr.track.markup">2337</property>
  <property name="meta.attr.date.markup">2011</property>
  <property name="meta.media.sample_aspect_num">1</property>
  <property name="meta.media.sample_aspect_den">1</property>
  <property name="meta.media.frame_rate_num">90000</property>
  <property name="meta.media.frame_rate_den">1</property>
  <property name="meta.media.colorspace">601</property>
  <property name="meta.media.color_trc">2</property>
  <property name="meta.media.has_b_frames">0</property>
  <property name="meta.media.width">700</property>
  <property name="meta.media.height">700</property>
  <property name="meta.media.aspect_ratio">1</property>
  <property name="meta.media.color_range">full</property>
  <property name="xml">was here</property>
  <property name="meta.media.top_field_first">0</property>
  <property name="meta.media.progressive">1</property>
  <property name="set.test_audio">0</property>
  <property name="set.test_image">1</property>
 </chain>
 <chain id="chain1" out="00:03:35.661">
  <property name="length">5171</property>
  <property name="eof">pause</property>
  <property name="resource">N:/Videos/FanEdits/FanMixes/Sonic - DeSchwartzed/ost2/Sonic_the_Hedgehog_2_Welcome_to_the_Metropolis_OC_ReMix.mp3</property>
  <property name="mlt_service">avformat-novalidate</property>
  <property name="seekable">1</property>
  <property name="audio_index">0</property>
  <property name="video_index">1</property>
  <property name="vstream">0</property>
  <property name="astream">0</property>
  <property name="kdenlive:folderid">12</property>
  <property name="kdenlive:id">13</property>
  <property name="kdenlive:control_uuid">{9c1092af-6ac8-482e-ad1f-77493be82ce9}</property>
  <property name="mute_on_pause">0</property>
  <property name="kdenlive:clip_type">0</property>
  <property name="kdenlive:coverartstream">1</property>
  <property name="kdenlive:file_size">4284915</property>
  <property name="kdenlive:file_hash">831b88e6bd93d08da51968114b8a42be</property>
  <property name="kdenlive:monitorPosition">90</property>
  <property name="meta.media.nb_streams">2</property>
  <property name="meta.media.0.stream.type">audio</property>
  <property name="meta.media.0.codec.sample_fmt">fltp</property>
  <property name="meta.media.0.codec.sample_rate">44100</property>
  <property name="meta.media.0.codec.channels">2</property>
  <property name="meta.media.0.codec.layout">stereo</property>
  <property name="meta.media.0.codec.name">mp3float</property>
  <property name="meta.media.0.codec.long_name">MP3 (MPEG audio layer 3)</property>
  <property name="meta.media.0.codec.bit_rate">155676</property>
  <property name="meta.media.1.stream.type">video</property>
  <property name="meta.media.1.stream.frame_rate">90000</property>
  <property name="meta.media.1.stream.sample_aspect_ratio">0</property>
  <property name="meta.media.1.codec.width">700</property>
  <property name="meta.media.1.codec.height">700</property>
  <property name="meta.media.1.codec.rotate">0</property>
  <property name="meta.media.1.codec.pix_fmt">yuvj444p</property>
  <property name="meta.media.1.codec.sample_aspect_ratio">0</property>
  <property name="meta.media.1.codec.colorspace">601</property>
  <property name="meta.media.1.codec.name">mjpeg</property>
  <property name="meta.media.1.codec.long_name">MJPEG (Motion JPEG)</property>
  <property name="meta.media.1.codec.bit_rate">0</property>
  <property name="meta.attr.1.stream.comment.markup">Cover (front)</property>
  <property name="meta.attr.album.markup">ocremix.org</property>
  <property name="meta.attr.artist.markup">Sir_NutS</property>
  <property name="meta.attr.album_artist.markup">OverClocked ReMix</property>
  <property name="meta.attr.comment.markup">Well, this was a remix I made for IMC12, the Metropolis Zone - Sonic the Hedgehog 2. It got good reviews and I think it sounds good too. Though I have better songs than this now. Anyways, I used lots of effects for this, filtering, gating, panning, flange. This was made with FruityLoops 3.5, 3xOSC, tst404 and, umm, some drum samples, it's fast, as Sonic would be, and well I like it a lot, and I hope that you and all the OCR listeners will too.&#xd;
&#xd;
Paul Michael Molina&#xd;
pmmolinar@yahoo.com&#xd;
http://sirnuts.blogspot.com</property>
  <property name="meta.attr.composer.markup">Masato Nakamura</property>
  <property name="meta.attr.grouping.markup">Sonic the Hedgehog 2</property>
  <property name="meta.attr.copyright.markup">Sega</property>
  <property name="meta.attr.encoded_by.markup">Michael Molina (pmmolinar@yahoo.com)</property>
  <property name="meta.attr.genre.markup">Game</property>
  <property name="meta.attr.compilation.markup">1</property>
  <property name="meta.attr.TOPE.markup">Sega Genesis</property>
  <property name="meta.attr.publisher.markup">OverClocked ReMix</property>
  <property name="meta.attr.SETSUBTITLE.markup">OCR00968</property>
  <property name="meta.attr.TIT3.markup">Welcome to the Metropolis</property>
  <property name="meta.attr.title.markup">Sonic the Hedgehog 2 "Welcome to the Metropolis" OC ReMix</property>
  <property name="meta.attr.track.markup">968</property>
  <property name="meta.attr.date.markup">2003</property>
  <property name="meta.media.sample_aspect_num">1</property>
  <property name="meta.media.sample_aspect_den">1</property>
  <property name="meta.media.frame_rate_num">90000</property>
  <property name="meta.media.frame_rate_den">1</property>
  <property name="meta.media.colorspace">601</property>
  <property name="meta.media.color_trc">2</property>
  <property name="meta.media.has_b_frames">0</property>
  <property name="meta.media.width">700</property>
  <property name="meta.media.height">700</property>
  <property name="meta.media.aspect_ratio">1</property>
  <property name="meta.media.color_range">full</property>
  <property name="xml">was here</property>
  <property name="meta.media.top_field_first">0</property>
  <property name="meta.media.progressive">1</property>
  <property name="set.test_audio">0</property>
  <property name="set.test_image">1</property>
 </chain>
 <playlist id="playlist0">
  <property name="kdenlive:audio_track">1</property>
  <blank length="01:00:55.305"/>
  <entry in="00:00:37.913" out="00:01:48.924" producer="chain0">
   <property name="kdenlive:id">7</property>
   <filter id="filter0" in="00:00:37.913" out="00:00:39.790">
    <property name="window">75</property>
    <property name="max_gain">20dB</property>
    <property name="mlt_service">volume</property>
    <property name="kdenlive_id">fadein</property>
    <property name="gain">0</property>
    <property name="end">1</property>
    <property name="kdenlive:collapsed">0</property>
   </filter>
   <filter id="filter1">
    <property name="window">75</property>
    <property name="max_gain">20dB</property>
    <property name="level">00:00:37.913=-6</property>
    <property name="mlt_service">volume</property>
    <property name="kdenlive_id">volume</property>
    <property name="kdenlive:collapsed">0</property>
   </filter>
  </entry>
  <entry in="00:03:05.881" out="00:03:35.077" producer="chain0">
   <property name="kdenlive:id">7</property>
   <filter id="filter2">
    <property name="window">75</property>
    <property name="max_gain">20dB</property>
    <property name="level">00:03:05.881=-6</property>
    <property name="mlt_service">volume</property>
    <property name="kdenlive_id">volume</property>
    <property name="kdenlive:collapsed">0</property>
   </filter>
  </entry>
  <blank length="00:03:13.972"/>
  <entry in="00:00:00.000" out="00:03:35.661" producer="chain1">
   <property name="kdenlive:id">13</property>
   <filter id="filter3">
    <property name="window">75</property>
    <property name="max_gain">20dB</property>
    <property name="level">00:00:00.000=-9</property>
    <property name="mlt_service">volume</property>
    <property name="kdenlive_id">volume</property>
    <property name="kdenlive:collapsed">0</property>
   </filter>
  </entry>
 </playlist>
 <playlist id="playlist1">
  <property name="kdenlive:audio_track">1</property>
 </playlist>
 <tractor id="tractor0" in="00:00:00.000" out="01:09:25.150">
  <property name="kdenlive:audio_track">1</property>
  <property name="kdenlive:trackheight">84</property>
  <property name="kdenlive:timeline_active">1</property>
  <property name="kdenlive:collapsed">0</property>
  <property name="kdenlive:thumbs_format"/>
  <property name="kdenlive:audio_rec"/>
  <track hide="video" producer="playlist0"/>
  <track hide="video" producer="playlist1"/>
  <filter id="filter5">
   <property name="channel">-1</property>
   <property name="mlt_service">panner</property>
   <property name="internal_added">237</property>
   <property name="start">0.5</property>
   <property name="disable">1</property>
  </filter>
  <filter id="filter6">
   <property name="window">75</property>
   <property name="max_gain">20dB</property>
   <property name="mlt_service">volume</property>
   <property name="internal_added">237</property>
   <property name="disable">1</property>
  </filter>
  <filter id="filter4">
   <property name="iec_scale">0</property>
   <property name="mlt_service">audiolevel</property>
   <property name="dbpeak">1</property>
   <property name="disable">1</property>
  </filter>
 </tractor>
 <chain id="chain3" out="00:03:25.525">
  <property name="length">4928</property>
  <property name="eof">pause</property>
  <property name="resource">N:/Videos/FanEdits/FanMixes/Sonic - DeSchwartzed/ost2/Sonic_the_Hedgehog_2_Oil_Ocean_(WT-40_Mix)_OC_ReMix.mp3</property>
  <property name="mlt_service">avformat-novalidate</property>
  <property name="seekable">1</property>
  <property name="audio_index">0</property>
  <property name="video_index">1</property>
  <property name="vstream">0</property>
  <property name="astream">0</property>
  <property name="kdenlive:folderid">12</property>
  <property name="kdenlive:id">9</property>
  <property name="kdenlive:control_uuid">{47f1a427-b4c4-4abf-b3ac-5c02c23f5acd}</property>
  <property name="mute_on_pause">0</property>
  <property name="kdenlive:clip_type">0</property>
  <property name="kdenlive:coverartstream">1</property>
  <property name="kdenlive:file_size">5025972</property>
  <property name="kdenlive:file_hash">abe0098423569abecf1ada84794d8439</property>
  <property name="kdenlive:monitorPosition">1414</property>
  <property name="meta.media.nb_streams">2</property>
  <property name="meta.media.0.stream.type">audio</property>
  <property name="meta.media.0.codec.sample_fmt">fltp</property>
  <property name="meta.media.0.codec.sample_rate">44100</property>
  <property name="meta.media.0.codec.channels">2</property>
  <property name="meta.media.0.codec.layout">stereo</property>
  <property name="meta.media.0.codec.name">mp3float</property>
  <property name="meta.media.0.codec.long_name">MP3 (MPEG audio layer 3)</property>
  <property name="meta.media.0.codec.bit_rate">192072</property>
  <property name="meta.attr.0.stream.encoder.markup">LAME3.97 </property>
  <property name="meta.media.1.stream.type">video</property>
  <property name="meta.media.1.stream.frame_rate">90000</property>
  <property name="meta.media.1.stream.sample_aspect_ratio">0</property>
  <property name="meta.media.1.codec.width">700</property>
  <property name="meta.media.1.codec.height">700</property>
  <property name="meta.media.1.codec.rotate">0</property>
  <property name="meta.media.1.codec.pix_fmt">yuvj444p</property>
  <property name="meta.media.1.codec.sample_aspect_ratio">0</property>
  <property name="meta.media.1.codec.colorspace">601</property>
  <property name="meta.media.1.codec.name">mjpeg</property>
  <property name="meta.media.1.codec.long_name">MJPEG (Motion JPEG)</property>
  <property name="meta.media.1.codec.bit_rate">0</property>
  <property name="meta.attr.1.stream.comment.markup">Cover (front)</property>
  <property name="meta.attr.album.markup">ocremix.org</property>
  <property name="meta.attr.artist.markup">PlanetSkill</property>
  <property name="meta.attr.album_artist.markup">OverClocked ReMix</property>
  <property name="meta.attr.comment.markup">A_Rival, Digimatic, RansomRath, tumult&#xd;
http://planetskill.com&#xd;
&#xd;
Lyrics:&#xd;
&#xd;
You're looking like ya think that I don't know&#xd;
Thinking that the signs of a lie don't show&#xd;
Little by little, you rhyme or so&#xd;
I'mma give ya something so ya don't try no more&#xd;
&#xd;
Oh my lord, what ya gonna say next?&#xd;
Do anything for a little paycheck&#xd;
I'mma tell ya short, simple, and basic&#xd;
It really doesn't look like you're gonna make it&#xd;
&#xd;
[Chorus]&#xd;
You make me sick, with all your tricks&#xd;
You just might slip, your feet lose grip&#xd;
You're not that slick, I'm much too quick&#xd;
You've broken something that you just can't fix&#xd;
You know that oil and water don't mix&#xd;
&#xd;
I'm only trying to make things run smooth&#xd;
But now I gotta worry 'bout whatchu gon' do&#xd;
You shoulda came to me to tell me whatcha goin' through&#xd;
But now you're on the wrong team, gotta own you&#xd;
&#xd;
Don't you ever think about how they all say&#xd;
Everything that you do comes back always&#xd;
You made a big leak, and your ship might sink&#xd;
I woulda thought you woulda thought, but I guess you don't think&#xd;
&#xd;
[Chorus]&#xd;
&#xd;
Open the floodgates!&#xd;
Get ready for the flow!</property>
  <property name="meta.attr.composer.markup">Masato Nakamura</property>
  <property name="meta.attr.grouping.markup">Sonic the Hedgehog 2</property>
  <property name="meta.attr.copyright.markup">Sega</property>
  <property name="meta.attr.encoded_by.markup">Luke Esquivel (supersquaremusic@gmail.com)</property>
  <property name="meta.attr.genre.markup">Game</property>
  <property name="meta.attr.compilation.markup">1</property>
  <property name="meta.attr.TEXT.markup">A_Rival</property>
  <property name="meta.attr.TOPE.markup">Sega Genesis</property>
  <property name="meta.attr.publisher.markup">OverClocked ReMix</property>
  <property name="meta.attr.SETSUBTITLE.markup">OCR01600</property>
  <property name="meta.attr.TIT3.markup">Oil Ocean (WT-40 Mix)</property>
  <property name="meta.attr.title.markup">Sonic the Hedgehog 2 "Oil Ocean (WT-40 Mix)" OC ReMix</property>
  <property name="meta.attr.track.markup">1600</property>
  <property name="meta.attr.lyrics-eng.markup">You're looking like ya think that I don't know&#xd;
Thinking that the signs of a lie don't show&#xd;
Little by little, you rhyme or so&#xd;
I'mma give ya something so ya don't try no more&#xd;
&#xd;
Oh my lord, what ya gonna say next?&#xd;
Do anything for a little paycheck&#xd;
I'mma tell ya short, simple, and basic&#xd;
It really doesn't look like you're gonna make it&#xd;
&#xd;
[Chorus]&#xd;
You make me sick, with all your tricks&#xd;
You just might slip, your feet lose grip&#xd;
You're not that slick, I'm much too quick&#xd;
You've broken something that you just can't fix&#xd;
You know that oil and water don't mix&#xd;
&#xd;
I'm only trying to make things run smooth&#xd;
But now I gotta worry 'bout whatchu gon' do&#xd;
You shoulda came to me to tell me whatcha goin' through&#xd;
But now you're on the wrong team, gotta own you&#xd;
&#xd;
Don't you ever think about how they all say&#xd;
Everything that you do comes back always&#xd;
You made a big leak, and your ship might sink&#xd;
I woulda thought you woulda thought, but I guess you don't think&#xd;
&#xd;
[Chorus]&#xd;
&#xd;
Open the floodgates!&#xd;
Get ready for the flow!</property>
  <property name="meta.attr.date.markup">2007</property>
  <property name="meta.media.sample_aspect_num">1</property>
  <property name="meta.media.sample_aspect_den">1</property>
  <property name="meta.media.frame_rate_num">90000</property>
  <property name="meta.media.frame_rate_den">1</property>
  <property name="meta.media.colorspace">601</property>
  <property name="meta.media.color_trc">2</property>
  <property name="meta.media.has_b_frames">0</property>
  <property name="meta.media.width">700</property>
  <property name="meta.media.height">700</property>
  <property name="meta.media.aspect_ratio">1</property>
  <property name="meta.media.color_range">full</property>
  <property name="xml">was here</property>
  <property name="meta.media.top_field_first">0</property>
  <property name="meta.media.progressive">1</property>
  <property name="set.test_audio">0</property>
  <property name="set.test_image">1</property>
 </chain>
 <playlist id="playlist2">
  <property name="kdenlive:audio_track">1</property>
  <blank length="01:03:21.230"/>
  <entry in="00:00:53.136" out="00:03:25.525" producer="chain3">
   <property name="kdenlive:id">9</property>
   <filter id="filter7">
    <property name="window">75</property>
    <property name="max_gain">20dB</property>
    <property name="level">00:00:53.136=-8</property>
    <property name="mlt_service">volume</property>
    <property name="kdenlive_id">volume</property>
    <property name="kdenlive:collapsed">0</property>
   </filter>
   <filter id="filter8" in="00:00:53.136" out="00:00:55.305">
    <property name="window">75</property>
    <property name="max_gain">20dB</property>
    <property name="mlt_service">volume</property>
    <property name="kdenlive_id">fadein</property>
    <property name="gain">0</property>
    <property name="end">1</property>
    <property name="kdenlive:collapsed">0</property>
   </filter>
  </entry>
 </playlist>
 <playlist id="playlist3">
  <property name="kdenlive:audio_track">1</property>
 </playlist>
 <tractor id="tractor1" in="00:00:00.000" out="01:05:53.595">
  <property name="kdenlive:audio_track">1</property>
  <property name="kdenlive:trackheight">84</property>
  <property name="kdenlive:timeline_active">1</property>
  <property name="kdenlive:collapsed">0</property>
  <property name="kdenlive:thumbs_format"/>
  <property name="kdenlive:audio_rec"/>
  <track hide="video" producer="playlist2"/>
  <track hide="video" producer="playlist3"/>
  <filter id="filter9">
   <property name="window">75</property>
   <property name="max_gain">20dB</property>
   <property name="mlt_service">volume</property>
   <property name="internal_added">237</property>
   <property name="disable">1</property>
  </filter>
  <filter id="filter10">
   <property name="channel">-1</property>
   <property name="mlt_service">panner</property>
   <property name="internal_added">237</property>
   <property name="start">0.5</property>
   <property name="disable">1</property>
  </filter>
  <filter id="filter11">
   <property name="iec_scale">0</property>
   <property name="mlt_service">audiolevel</property>
   <property name="dbpeak">1</property>
   <property name="disable">1</property>
  </filter>
 </tractor>
 <chain id="chain11" out="02:04:23.941">
  <property name="length">178956</property>
  <property name="eof">pause</property>
  <property name="resource">N:/Videos/Kids Movies/Sonic/Sonic 2022/Sonic 2 Il Film (2023) 2160p 4K H265 10 Bit WEB-DL iTA ENG AC3 5.1 Sub Ita Eng - iDN_CreW.mkv</property>
  <property name="mlt_service">avformat-novalidate</property>
  <property name="seekable">1</property>
  <property name="audio_index">2</property>
  <property name="video_index">0</property>
  <property name="vstream">0</property>
  <property name="astream">1</property>
  <property name="kdenlive:control_uuid">{8662ceb9-f96f-4607-812c-ea78d123d3ef}</property>
  <property name="kdenlive:id">4</property>
  <property name="kdenlive:clip_type">0</property>
  <property name="kdenlive:file_size">6455506204</property>
  <property name="kdenlive:file_hash">c805e36cb967f0098696aec55aa79048</property>
  <property name="kdenlive:folderid">-1</property>
  <property name="meta.media.nb_streams">7</property>
  <property name="meta.media.0.stream.type">video</property>
  <property name="meta.media.0.stream.frame_rate">23.976</property>
  <property name="meta.media.0.stream.sample_aspect_ratio">1</property>
  <property name="meta.media.0.codec.width">3840</property>
  <property name="meta.media.0.codec.height">1606</property>
  <property name="meta.media.0.codec.rotate">0</property>
  <property name="meta.media.0.codec.pix_fmt">yuv420p10le</property>
  <property name="meta.media.0.codec.sample_aspect_ratio">1</property>
  <property name="meta.media.0.codec.colorspace">709</property>
  <property name="meta.media.0.codec.color_trc">1</property>
  <property name="meta.media.0.codec.name">hevc</property>
  <property name="meta.media.0.codec.long_name">HEVC (High Efficiency Video Coding)</property>
  <property name="meta.media.0.codec.bit_rate">0</property>
  <property name="meta.attr.0.stream.BPS-eng.markup">6000404</property>
  <property name="meta.attr.0.stream.DURATION-eng.markup">02:02:18.123000000</property>
  <property name="meta.attr.0.stream.NUMBER_OF_FRAMES-eng.markup">175939</property>
  <property name="meta.attr.0.stream.NUMBER_OF_BYTES-eng.markup">5503962903</property>
  <property name="meta.attr.0.stream._STATISTICS_WRITING_APP-eng.markup">mkvmerge v49.0.0 ('Sick Of Losing Soulmates') 64-bit</property>
  <property name="meta.attr.0.stream._STATISTICS_WRITING_DATE_UTC-eng.markup">2022-05-31 19:08:19</property>
  <property name="meta.attr.0.stream._STATISTICS_TAGS-eng.markup">BPS DURATION NUMBER_OF_FRAMES NUMBER_OF_BYTES</property>
  <property name="meta.media.1.stream.type">audio</property>
  <property name="meta.media.1.codec.sample_fmt">fltp</property>
  <property name="meta.media.1.codec.sample_rate">48000</property>
  <property name="meta.media.1.codec.channels">6</property>
  <property name="meta.media.1.codec.layout">5.1(side)</property>
  <property name="meta.media.1.codec.name">ac3</property>
  <property name="meta.media.1.codec.long_name">ATSC A/52A (AC-3)</property>
  <property name="meta.media.1.codec.bit_rate">640000</property>
  <property name="meta.attr.1.stream.language.markup">ita</property>
  <property name="meta.attr.1.stream.title.markup">AC3 iTA</property>
  <property name="meta.attr.1.stream.BPS-eng.markup">640000</property>
  <property name="meta.attr.1.stream.DURATION-eng.markup">02:04:23.968000000</property>
  <property name="meta.attr.1.stream.NUMBER_OF_FRAMES-eng.markup">233249</property>
  <property name="meta.attr.1.stream.NUMBER_OF_BYTES-eng.markup">597117440</property>
  <property name="meta.attr.1.stream._STATISTICS_WRITING_APP-eng.markup">mkvmerge v49.0.0 ('Sick Of Losing Soulmates') 64-bit</property>
  <property name="meta.attr.1.stream._STATISTICS_WRITING_DATE_UTC-eng.markup">2022-05-31 19:08:19</property>
  <property name="meta.attr.1.stream._STATISTICS_TAGS-eng.markup">BPS DURATION NUMBER_OF_FRAMES NUMBER_OF_BYTES</property>
  <property name="meta.media.2.stream.type">audio</property>
  <property name="meta.media.2.codec.sample_fmt">fltp</property>
  <property name="meta.media.2.codec.sample_rate">48000</property>
  <property name="meta.media.2.codec.channels">6</property>
  <property name="meta.media.2.codec.layout">5.1(side)</property>
  <property name="meta.media.2.codec.name">ac3</property>
  <property name="meta.media.2.codec.long_name">ATSC A/52A (AC-3)</property>
  <property name="meta.media.2.codec.bit_rate">384000</property>
  <property name="meta.attr.2.stream.language.markup">eng</property>
  <property name="meta.attr.2.stream.title.markup">AC3 Eng</property>
  <property name="meta.attr.2.stream.BPS-eng.markup">384000</property>
  <property name="meta.attr.2.stream.DURATION-eng.markup">02:02:18.304000000</property>
  <property name="meta.attr.2.stream.NUMBER_OF_FRAMES-eng.markup">229322</property>
  <property name="meta.attr.2.stream.NUMBER_OF_BYTES-eng.markup">352238592</property>
  <property name="meta.attr.2.stream._STATISTICS_WRITING_APP-eng.markup">mkvmerge v49.0.0 ('Sick Of Losing Soulmates') 64-bit</property>
  <property name="meta.attr.2.stream._STATISTICS_WRITING_DATE_UTC-eng.markup">2022-05-31 19:08:19</property>
  <property name="meta.attr.2.stream._STATISTICS_TAGS-eng.markup">BPS DURATION NUMBER_OF_FRAMES NUMBER_OF_BYTES</property>
  <property name="meta.media.3.codec.name">srt</property>
  <property name="meta.media.3.codec.long_name">SubRip subtitle</property>
  <property name="meta.media.3.codec.bit_rate">0</property>
  <property name="meta.attr.3.stream.language.markup">ita</property>
  <property name="meta.attr.3.stream.title.markup">Forced</property>
  <property name="meta.attr.3.stream.BPS-eng.markup">0</property>
  <property name="meta.attr.3.stream.DURATION-eng.markup">02:01:21.816000000</property>
  <property name="meta.attr.3.stream.NUMBER_OF_FRAMES-eng.markup">25</property>
  <property name="meta.attr.3.stream.NUMBER_OF_BYTES-eng.markup">600</property>
  <property name="meta.attr.3.stream._STATISTICS_WRITING_APP-eng.markup">mkvmerge v49.0.0 ('Sick Of Losing Soulmates') 64-bit</property>
  <property name="meta.attr.3.stream._STATISTICS_WRITING_DATE_UTC-eng.markup">2022-05-31 19:08:19</property>
  <property name="meta.attr.3.stream._STATISTICS_TAGS-eng.markup">BPS DURATION NUMBER_OF_FRAMES NUMBER_OF_BYTES</property>
  <property name="meta.media.4.codec.name">srt</property>
  <property name="meta.media.4.codec.long_name">SubRip subtitle</property>
  <property name="meta.media.4.codec.bit_rate">0</property>
  <property name="meta.attr.4.stream.language.markup">ita</property>
  <property name="meta.attr.4.stream.title.markup">Regular</property>
  <property name="meta.attr.4.stream.BPS-eng.markup">45</property>
  <property name="meta.attr.4.stream.DURATION-eng.markup">02:01:21.816000000</property>
  <property name="meta.attr.4.stream.NUMBER_OF_FRAMES-eng.markup">1376</property>
  <property name="meta.attr.4.stream.NUMBER_OF_BYTES-eng.markup">41271</property>
  <property name="meta.attr.4.stream._STATISTICS_WRITING_APP-eng.markup">mkvmerge v49.0.0 ('Sick Of Losing Soulmates') 64-bit</property>
  <property name="meta.attr.4.stream._STATISTICS_WRITING_DATE_UTC-eng.markup">2022-05-31 19:08:19</property>
  <property name="meta.attr.4.stream._STATISTICS_TAGS-eng.markup">BPS DURATION NUMBER_OF_FRAMES NUMBER_OF_BYTES</property>
  <property name="meta.media.5.codec.name">srt</property>
  <property name="meta.media.5.codec.long_name">SubRip subtitle</property>
  <property name="meta.media.5.codec.bit_rate">0</property>
  <property name="meta.attr.5.stream.language.markup">eng</property>
  <property name="meta.attr.5.stream.title.markup">Forced</property>
  <property name="meta.attr.5.stream.BPS-eng.markup">0</property>
  <property name="meta.attr.5.stream.DURATION-eng.markup">00:42:25.379000000</property>
  <property name="meta.attr.5.stream.NUMBER_OF_FRAMES-eng.markup">7</property>
  <property name="meta.attr.5.stream.NUMBER_OF_BYTES-eng.markup">170</property>
  <property name="meta.attr.5.stream._STATISTICS_WRITING_APP-eng.markup">mkvmerge v49.0.0 ('Sick Of Losing Soulmates') 64-bit</property>
  <property name="meta.attr.5.stream._STATISTICS_WRITING_DATE_UTC-eng.markup">2022-05-31 19:08:19</property>
  <property name="meta.attr.5.stream._STATISTICS_TAGS-eng.markup">BPS DURATION NUMBER_OF_FRAMES NUMBER_OF_BYTES</property>
  <property name="meta.media.6.codec.name">srt</property>
  <property name="meta.media.6.codec.long_name">SubRip subtitle</property>
  <property name="meta.media.6.codec.bit_rate">0</property>
  <property name="meta.attr.6.stream.language.markup">eng</property>
  <property name="meta.attr.6.stream.title.markup">Regular</property>
  <property name="meta.attr.6.stream.BPS-eng.markup">60</property>
  <property name="meta.attr.6.stream.DURATION-eng.markup">01:52:04.859000000</property>
  <property name="meta.attr.6.stream.NUMBER_OF_FRAMES-eng.markup">1647</property>
  <property name="meta.attr.6.stream.NUMBER_OF_BYTES-eng.markup">50781</property>
  <property name="meta.attr.6.stream._STATISTICS_WRITING_APP-eng.markup">mkvmerge v49.0.0 ('Sick Of Losing Soulmates') 64-bit</property>
  <property name="meta.attr.6.stream._STATISTICS_WRITING_DATE_UTC-eng.markup">2022-05-31 19:08:19</property>
  <property name="meta.attr.6.stream._STATISTICS_TAGS-eng.markup">BPS DURATION NUMBER_OF_FRAMES NUMBER_OF_BYTES</property>
  <property name="meta.attr.title.markup">UHD 4K - iDN_CreW</property>
  <property name="meta.attr.encoder.markup">libebml v1.4.0 + libmatroska v1.6.1</property>
  <property name="meta.attr.creation_time.markup">2022-05-31T19:08:19.000000Z</property>
  <property name="meta.media.sample_aspect_num">1</property>
  <property name="meta.media.sample_aspect_den">1</property>
  <property name="meta.media.frame_rate_num">24000</property>
  <property name="meta.media.frame_rate_den">1001</property>
  <property name="meta.media.colorspace">709</property>
  <property name="meta.media.color_trc">1</property>
  <property name="meta.media.has_b_frames">2</property>
  <property name="meta.media.width">3840</property>
  <property name="meta.media.height">1606</property>
  <property name="meta.media.aspect_ratio">1</property>
  <property name="meta.media.color_range">mpeg</property>
  <property name="xml">was here</property>
  <property name="mute_on_pause">0</property>
  <property name="meta.media.top_field_first">0</property>
  <property name="meta.media.progressive">1</property>
  <property name="set.test_audio">0</property>
  <property name="set.test_image">1</property>
 </chain>
 <chain id="chain15" out="00:02:05.839">
  <property name="length">3018</property>
  <property name="eof">pause</property>
  <property name="resource">N:/Videos/FanEdits/FanMixes/Sonic - DeSchwartzed/ost2/Sonic_the_Hedgehog_2_Bluest_Sky_OC_ReMix.mp3</property>
  <property name="mlt_service">avformat-novalidate</property>
  <property name="seekable">1</property>
  <property name="audio_index">0</property>
  <property name="video_index">1</property>
  <property name="vstream">0</property>
  <property name="astream">0</property>
  <property name="kdenlive:folderid">12</property>
  <property name="kdenlive:id">5</property>
  <property name="kdenlive:control_uuid">{6ed7488d-c853-49ad-8914-bc6f655495c3}</property>
  <property name="mute_on_pause">0</property>
  <property name="kdenlive:clip_type">0</property>
  <property name="kdenlive:coverartstream">1</property>
  <property name="kdenlive:file_size">3108600</property>
  <property name="kdenlive:file_hash">9e39754832bc3be94f9d0f80a60c6450</property>
  <property name="kdenlive:monitorPosition">65</property>
  <property name="meta.media.nb_streams">2</property>
  <property name="meta.media.0.stream.type">audio</property>
  <property name="meta.media.0.codec.sample_fmt">fltp</property>
  <property name="meta.media.0.codec.sample_rate">44100</property>
  <property name="meta.media.0.codec.channels">2</property>
  <property name="meta.media.0.codec.layout">stereo</property>
  <property name="meta.media.0.codec.name">mp3float</property>
  <property name="meta.media.0.codec.long_name">MP3 (MPEG audio layer 3)</property>
  <property name="meta.media.0.codec.bit_rate">192000</property>
  <property name="meta.media.1.stream.type">video</property>
  <property name="meta.media.1.stream.frame_rate">90000</property>
  <property name="meta.media.1.stream.sample_aspect_ratio">0</property>
  <property name="meta.media.1.codec.width">700</property>
  <property name="meta.media.1.codec.height">700</property>
  <property name="meta.media.1.codec.rotate">0</property>
  <property name="meta.media.1.codec.pix_fmt">yuvj444p</property>
  <property name="meta.media.1.codec.sample_aspect_ratio">0</property>
  <property name="meta.media.1.codec.colorspace">601</property>
  <property name="meta.media.1.codec.name">mjpeg</property>
  <property name="meta.media.1.codec.long_name">MJPEG (Motion JPEG)</property>
  <property name="meta.media.1.codec.bit_rate">0</property>
  <property name="meta.attr.1.stream.comment.markup">Cover (front)</property>
  <property name="meta.attr.album.markup">ocremix.org</property>
  <property name="meta.attr.artist.markup">Tim Sheehy</property>
  <property name="meta.attr.album_artist.markup">OverClocked ReMix</property>
  <property name="meta.attr.comment.markup">"Sky Chase Zone" from Sonic the Hedgehog 2 for the Sega Genesis/Mega Drive game console. Always loved this one ^^&#xd;
&#xd;
Tim Sheehy&#xd;
tim@timsheehy.com&#xd;
http://timsheehy.com</property>
  <property name="meta.attr.composer.markup">Masato Nakamura</property>
  <property name="meta.attr.grouping.markup">Sonic the Hedgehog 2</property>
  <property name="meta.attr.copyright.markup">Sega</property>
  <property name="meta.attr.encoded_by.markup">Tim Sheehy (tim@timsheehy.com)</property>
  <property name="meta.attr.genre.markup">Game</property>
  <property name="meta.attr.compilation.markup">1</property>
  <property name="meta.attr.TOPE.markup">Sega Genesis</property>
  <property name="meta.attr.publisher.markup">OverClocked ReMix</property>
  <property name="meta.attr.SETSUBTITLE.markup">OCR00337</property>
  <property name="meta.attr.TIT3.markup">Bluest Sky</property>
  <property name="meta.attr.title.markup">Sonic the Hedgehog 2 "Bluest Sky" OC ReMix</property>
  <property name="meta.attr.track.markup">337</property>
  <property name="meta.attr.date.markup">2001</property>
  <property name="meta.media.sample_aspect_num">1</property>
  <property name="meta.media.sample_aspect_den">1</property>
  <property name="meta.media.frame_rate_num">90000</property>
  <property name="meta.media.frame_rate_den">1</property>
  <property name="meta.media.colorspace">601</property>
  <property name="meta.media.color_trc">2</property>
  <property name="meta.media.has_b_frames">0</property>
  <property name="meta.media.width">700</property>
  <property name="meta.media.height">700</property>
  <property name="meta.media.aspect_ratio">1</property>
  <property name="meta.media.color_range">full</property>
  <property name="xml">was here</property>
  <property name="meta.media.top_field_first">0</property>
  <property name="meta.media.progressive">1</property>
  <property name="set.test_audio">0</property>
  <property name="set.test_image">1</property>
 </chain>
 <playlist id="playlist4">
  <property name="kdenlive:audio_track">1</property>
  <entry in="00:00:00.000" out="00:05:50.342" producer="chain11">
   <property name="kdenlive:id">4</property>
  </entry>
  <blank length="00:00:15.432"/>
  <entry in="00:15:39.581" out="00:15:45.963" producer="chain11">
   <property name="kdenlive:id">4</property>
  </entry>
  <blank length="00:00:04.087"/>
  <entry in="00:16:12.262" out="00:16:17.476" producer="chain11">
   <property name="kdenlive:id">4</property>
  </entry>
  <blank length="00:00:15.140"/>
  <entry in="00:17:18.268" out="00:18:55.347" producer="chain11">
   <property name="kdenlive:id">4</property>
  </entry>
  <entry in="00:19:41.625" out="00:19:48.090" producer="chain11">
   <property name="kdenlive:id">4</property>
  </entry>
  <blank length="00:00:09.092"/>
  <entry in="00:21:06.006" out="00:21:29.571" producer="chain11">
   <property name="kdenlive:id">4</property>
  </entry>
  <blank length="00:02:11.470"/>
  <entry in="00:23:55.681" out="00:24:46.088" producer="chain11">
   <property name="kdenlive:id">4</property>
  </entry>
  <blank length="00:00:23.023"/>
  <entry in="00:25:36.662" out="00:25:49.841" producer="chain11">
   <property name="kdenlive:id">4</property>
  </entry>
  <blank length="00:00:31.406"/>
  <entry in="00:26:39.289" out="00:26:47.422" producer="chain11">
   <property name="kdenlive:id">4</property>
  </entry>
  <blank length="00:00:04.630"/>
  <entry in="00:26:59.476" out="00:27:15.766" producer="chain11">
   <property name="kdenlive:id">4</property>
  </entry>
  <blank length="00:00:01.293"/>
  <entry in="00:27:32.115" out="00:30:49.591" producer="chain11">
   <property name="kdenlive:id">4</property>
  </entry>
  <entry in="00:30:49.633" out="00:30:51.677" producer="chain11">
   <property name="kdenlive:id">4</property>
  </entry>
  <blank length="00:01:17.351"/>
  <entry in="00:34:13.847" out="00:34:23.440" producer="chain11">
   <property name="kdenlive:id">4</property>
  </entry>
  <blank length="00:00:01.919"/>
  <entry in="00:34:59.768" out="00:35:50.592" producer="chain11">
   <property name="kdenlive:id">4</property>
  </entry>
  <blank length="00:00:25.108"/>
  <entry in="00:40:34.201" out="00:40:39.373" producer="chain11">
   <property name="kdenlive:id">4</property>
  </entry>
  <entry in="00:40:45.921" out="00:40:46.088" producer="chain11">
   <property name="kdenlive:id">4</property>
  </entry>
  <entry in="00:40:46.129" out="00:42:07.174" producer="chain11">
   <property name="kdenlive:id">4</property>
  </entry>
  <blank length="00:00:04.504"/>
  <entry in="00:50:16.767" out="00:50:39.748" producer="chain11">
   <property name="kdenlive:id">4</property>
  </entry>
  <blank length="00:00:54.680"/>
  <entry in="00:51:48.966" out="00:51:53.553" producer="chain11">
   <property name="kdenlive:id">4</property>
  </entry>
  <blank length="00:01:27.110"/>
  <entry in="00:53:40.749" out="00:54:15.390" producer="chain11">
   <property name="kdenlive:id">4</property>
  </entry>
  <blank length="00:00:14.723"/>
  <entry in="00:54:33.242" out="00:55:13.138" producer="chain11">
   <property name="kdenlive:id">4</property>
  </entry>
  <blank length="00:00:00.834"/>
  <entry in="00:55:47.798" out="00:55:48.924" producer="chain11">
   <property name="kdenlive:id">4</property>
  </entry>
  <entry in="00:55:48.966" out="00:55:55.347" producer="chain11">
   <property name="kdenlive:id">4</property>
  </entry>
  <blank length="00:00:02.920"/>
  <entry in="00:56:09.259" out="00:56:33.367" producer="chain11">
   <property name="kdenlive:id">4</property>
  </entry>
  <blank length="00:00:03.587"/>
  <entry in="00:57:18.685" out="00:57:20.354" producer="chain11">
   <property name="kdenlive:id">4</property>
  </entry>
  <blank length="00:01:29.196"/>
  <entry in="00:59:29.696" out="00:59:31.281" producer="chain11">
   <property name="kdenlive:id">4</property>
  </entry>
  <entry in="00:59:31.323" out="00:59:33.200" producer="chain11">
   <property name="kdenlive:id">4</property>
  </entry>
  <entry in="00:59:34.159" out="00:59:37.704" producer="chain11">
   <property name="kdenlive:id">4</property>
  </entry>
  <blank length="00:00:38.205"/>
  <entry in="01:00:25.859" out="01:00:45.796" producer="chain11">
   <property name="kdenlive:id">4</property>
  </entry>
  <blank length="00:00:00.667"/>
  <entry in="01:01:03.045" out="01:02:09.176" producer="chain11">
   <property name="kdenlive:id">4</property>
  </entry>
  <blank length="00:00:11.803"/>
  <entry in="01:02:27.778" out="01:02:28.820" producer="chain11">
   <property name="kdenlive:id">4</property>
  </entry>
  <entry in="01:04:19.561" out="01:04:24.274" producer="chain11">
   <property name="kdenlive:id">4</property>
  </entry>
  <blank length="00:00:06.465"/>
  <entry in="01:04:36.078" out="01:05:03.962" producer="chain11">
   <property name="kdenlive:id">4</property>
  </entry>
  <blank length="00:00:05.839"/>
  <entry in="01:06:00.042" out="01:06:03.462" producer="chain11">
   <property name="kdenlive:id">4</property>
  </entry>
  <blank length="00:00:36.745"/>
  <entry in="01:10:43.335" out="01:11:06.715" producer="chain11">
   <property name="kdenlive:id">4</property>
  </entry>
  <blank length="00:01:15.557"/>
  <entry in="01:12:27.653" out="01:12:40.165" producer="chain11">
   <property name="kdenlive:id">4</property>
  </entry>
  <entry in="01:12:40.207" out="01:12:44.795" producer="chain11">
   <property name="kdenlive:id">4</property>
  </entry>
  <blank length="00:00:25.067"/>
  <entry in="01:14:56.098" out="01:21:39.039" producer="chain11">
   <property name="kdenlive:id">4</property>
  </entry>
  <entry in="01:21:48.674" out="01:22:19.645" producer="chain11">
   <property name="kdenlive:id">4</property>
  </entry>
  <blank length="00:01:26.693"/>
  <entry in="01:23:52.886" out="01:23:55.264" producer="chain11">
   <property name="kdenlive:id">4</property>
  </entry>
  <blank length="00:00:03.045"/>
  <entry in="01:26:03.503" out="01:26:06.006" producer="chain11">
   <property name="kdenlive:id">4</property>
  </entry>
  <blank length="00:00:04.254"/>
  <entry in="01:27:26.526" out="01:28:05.505" producer="chain11">
   <property name="kdenlive:id">4</property>
  </entry>
  <blank length="00:00:26.735"/>
  <entry in="01:28:38.413" out="01:29:05.464" producer="chain11">
   <property name="kdenlive:id">4</property>
  </entry>
  <blank length="00:00:34.618"/>
  <entry in="01:29:49.091" out="01:32:02.044" producer="chain11">
   <property name="kdenlive:id">4</property>
  </entry>
  <blank length="00:00:46.088"/>
  <entry in="01:33:18.393" out="01:33:42.751" producer="chain11">
   <property name="kdenlive:id">4</property>
  </entry>
  <blank length="00:00:06.089"/>
  <entry in="01:34:08.884" out="01:34:33.075" producer="chain11">
   <property name="kdenlive:id">4</property>
  </entry>
  <blank length="00:01:28.570"/>
  <entry in="01:36:35.619" out="01:36:46.838" producer="chain11">
   <property name="kdenlive:id">4</property>
  </entry>
  <blank length="00:00:01.293"/>
  <entry in="01:37:03.587" out="01:37:09.801" producer="chain11">
   <property name="kdenlive:id">4</property>
  </entry>
  <blank length="00:00:02.252"/>
  <entry in="01:37:36.370" out="01:37:38.747" producer="chain11">
   <property name="kdenlive:id">4</property>
  </entry>
  <blank length="00:00:05.714"/>
  <entry in="01:37:42.834" out="01:37:53.804" producer="chain11">
   <property name="kdenlive:id">4</property>
  </entry>
  <blank length="00:00:01.251"/>
  <entry in="01:38:04.796" out="01:38:59.059" producer="chain11">
   <property name="kdenlive:id">4</property>
  </entry>
  <blank length="00:01:00.542"/>
  <entry in="01:40:07.424" out="01:40:54.888" producer="chain11">
   <property name="kdenlive:id">4</property>
  </entry>
  <blank length="00:00:05.547"/>
  <entry in="01:41:13.764" out="01:42:35.410" producer="chain11">
   <property name="kdenlive:id">4</property>
  </entry>
  <blank length="00:00:04.546"/>
  <entry in="01:42:34.243" out="01:42:39.456" producer="chain11">
   <property name="kdenlive:id">4</property>
  </entry>
  <blank length="00:02:36.828"/>
  <entry in="01:45:50.759" out="01:46:12.054" producer="chain11">
   <property name="kdenlive:id">4</property>
  </entry>
  <blank length="00:00:17.851"/>
  <entry in="01:47:12.763" out="01:47:29.279" producer="chain11">
   <property name="kdenlive:id">4</property>
  </entry>
  <blank length="00:00:04.296"/>
  <entry in="01:47:56.431" out="01:48:38.872" producer="chain11">
   <property name="kdenlive:id">4</property>
  </entry>
  <blank length="00:00:03.754"/>
  <entry in="01:49:19.353" out="01:49:47.214" producer="chain11">
   <property name="kdenlive:id">4</property>
  </entry>
  <blank length="00:00:25.025"/>
  <entry in="01:50:32.407" out="01:50:43.085" producer="chain11">
   <property name="kdenlive:id">4</property>
  </entry>
  <entry in="01:50:43.126" out="01:51:01.210" producer="chain11">
   <property name="kdenlive:id">4</property>
   <filter id="filter12" in="01:51:00.834" out="01:51:01.210">
    <property name="window">75</property>
    <property name="max_gain">20dB</property>
    <property name="mlt_service">volume</property>
    <property name="kdenlive_id">fadeout</property>
    <property name="gain">1</property>
    <property name="end">0</property>
   </filter>
  </entry>
  <blank length="00:01:38.372"/>
  <entry in="01:53:04.129" out="01:53:50.717" producer="chain11">
   <property name="kdenlive:id">4</property>
  </entry>
  <blank length="00:06:01.251"/>
  <entry in="00:00:00.000" out="00:02:05.839" producer="chain15">
   <property name="kdenlive:id">5</property>
  </entry>
 </playlist>
 <chain id="chain16" out="02:04:23.941">
  <property name="length">178956</property>
  <property name="eof">pause</property>
  <property name="resource">N:/Videos/Kids Movies/Sonic/Sonic 2022/Sonic 2 Il Film (2023) 2160p 4K H265 10 Bit WEB-DL iTA ENG AC3 5.1 Sub Ita Eng - iDN_CreW.mkv</property>
  <property name="mlt_service">avformat-novalidate</property>
  <property name="seekable">1</property>
  <property name="audio_index">2</property>
  <property name="video_index">0</property>
  <property name="vstream">0</property>
  <property name="astream">1</property>
  <property name="kdenlive:control_uuid">{8662ceb9-f96f-4607-812c-ea78d123d3ef}</property>
  <property name="kdenlive:id">4</property>
  <property name="kdenlive:clip_type">0</property>
  <property name="kdenlive:file_size">6455506204</property>
  <property name="kdenlive:file_hash">c805e36cb967f0098696aec55aa79048</property>
  <property name="kdenlive:folderid">-1</property>
  <property name="meta.media.nb_streams">7</property>
  <property name="meta.media.0.stream.type">video</property>
  <property name="meta.media.0.stream.frame_rate">23.976</property>
  <property name="meta.media.0.stream.sample_aspect_ratio">1</property>
  <property name="meta.media.0.codec.width">3840</property>
  <property name="meta.media.0.codec.height">1606</property>
  <property name="meta.media.0.codec.rotate">0</property>
  <property name="meta.media.0.codec.pix_fmt">yuv420p10le</property>
  <property name="meta.media.0.codec.sample_aspect_ratio">1</property>
  <property name="meta.media.0.codec.colorspace">709</property>
  <property name="meta.media.0.codec.color_trc">1</property>
  <property name="meta.media.0.codec.name">hevc</property>
  <property name="meta.media.0.codec.long_name">HEVC (High Efficiency Video Coding)</property>
  <property name="meta.media.0.codec.bit_rate">0</property>
  <property name="meta.attr.0.stream.BPS-eng.markup">6000404</property>
  <property name="meta.attr.0.stream.DURATION-eng.markup">02:02:18.123000000</property>
  <property name="meta.attr.0.stream.NUMBER_OF_FRAMES-eng.markup">175939</property>
  <property name="meta.attr.0.stream.NUMBER_OF_BYTES-eng.markup">5503962903</property>
  <property name="meta.attr.0.stream._STATISTICS_WRITING_APP-eng.markup">mkvmerge v49.0.0 ('Sick Of Losing Soulmates') 64-bit</property>
  <property name="meta.attr.0.stream._STATISTICS_WRITING_DATE_UTC-eng.markup">2022-05-31 19:08:19</property>
  <property name="meta.attr.0.stream._STATISTICS_TAGS-eng.markup">BPS DURATION NUMBER_OF_FRAMES NUMBER_OF_BYTES</property>
  <property name="meta.media.1.stream.type">audio</property>
  <property name="meta.media.1.codec.sample_fmt">fltp</property>
  <property name="meta.media.1.codec.sample_rate">48000</property>
  <property name="meta.media.1.codec.channels">6</property>
  <property name="meta.media.1.codec.layout">5.1(side)</property>
  <property name="meta.media.1.codec.name">ac3</property>
  <property name="meta.media.1.codec.long_name">ATSC A/52A (AC-3)</property>
  <property name="meta.media.1.codec.bit_rate">640000</property>
  <property name="meta.attr.1.stream.language.markup">ita</property>
  <property name="meta.attr.1.stream.title.markup">AC3 iTA</property>
  <property name="meta.attr.1.stream.BPS-eng.markup">640000</property>
  <property name="meta.attr.1.stream.DURATION-eng.markup">02:04:23.968000000</property>
  <property name="meta.attr.1.stream.NUMBER_OF_FRAMES-eng.markup">233249</property>
  <property name="meta.attr.1.stream.NUMBER_OF_BYTES-eng.markup">597117440</property>
  <property name="meta.attr.1.stream._STATISTICS_WRITING_APP-eng.markup">mkvmerge v49.0.0 ('Sick Of Losing Soulmates') 64-bit</property>
  <property name="meta.attr.1.stream._STATISTICS_WRITING_DATE_UTC-eng.markup">2022-05-31 19:08:19</property>
  <property name="meta.attr.1.stream._STATISTICS_TAGS-eng.markup">BPS DURATION NUMBER_OF_FRAMES NUMBER_OF_BYTES</property>
  <property name="meta.media.2.stream.type">audio</property>
  <property name="meta.media.2.codec.sample_fmt">fltp</property>
  <property name="meta.media.2.codec.sample_rate">48000</property>
  <property name="meta.media.2.codec.channels">6</property>
  <property name="meta.media.2.codec.layout">5.1(side)</property>
  <property name="meta.media.2.codec.name">ac3</property>
  <property name="meta.media.2.codec.long_name">ATSC A/52A (AC-3)</property>
  <property name="meta.media.2.codec.bit_rate">384000</property>
  <property name="meta.attr.2.stream.language.markup">eng</property>
  <property name="meta.attr.2.stream.title.markup">AC3 Eng</property>
  <property name="meta.attr.2.stream.BPS-eng.markup">384000</property>
  <property name="meta.attr.2.stream.DURATION-eng.markup">02:02:18.304000000</property>
  <property name="meta.attr.2.stream.NUMBER_OF_FRAMES-eng.markup">229322</property>
  <property name="meta.attr.2.stream.NUMBER_OF_BYTES-eng.markup">352238592</property>
  <property name="meta.attr.2.stream._STATISTICS_WRITING_APP-eng.markup">mkvmerge v49.0.0 ('Sick Of Losing Soulmates') 64-bit</property>
  <property name="meta.attr.2.stream._STATISTICS_WRITING_DATE_UTC-eng.markup">2022-05-31 19:08:19</property>
  <property name="meta.attr.2.stream._STATISTICS_TAGS-eng.markup">BPS DURATION NUMBER_OF_FRAMES NUMBER_OF_BYTES</property>
  <property name="meta.media.3.codec.name">srt</property>
  <property name="meta.media.3.codec.long_name">SubRip subtitle</property>
  <property name="meta.media.3.codec.bit_rate">0</property>
  <property name="meta.attr.3.stream.language.markup">ita</property>
  <property name="meta.attr.3.stream.title.markup">Forced</property>
  <property name="meta.attr.3.stream.BPS-eng.markup">0</property>
  <property name="meta.attr.3.stream.DURATION-eng.markup">02:01:21.816000000</property>
  <property name="meta.attr.3.stream.NUMBER_OF_FRAMES-eng.markup">25</property>
  <property name="meta.attr.3.stream.NUMBER_OF_BYTES-eng.markup">600</property>
  <property name="meta.attr.3.stream._STATISTICS_WRITING_APP-eng.markup">mkvmerge v49.0.0 ('Sick Of Losing Soulmates') 64-bit</property>
  <property name="meta.attr.3.stream._STATISTICS_WRITING_DATE_UTC-eng.markup">2022-05-31 19:08:19</property>
  <property name="meta.attr.3.stream._STATISTICS_TAGS-eng.markup">BPS DURATION NUMBER_OF_FRAMES NUMBER_OF_BYTES</property>
  <property name="meta.media.4.codec.name">srt</property>
  <property name="meta.media.4.codec.long_name">SubRip subtitle</property>
  <property name="meta.media.4.codec.bit_rate">0</property>
  <property name="meta.attr.4.stream.language.markup">ita</property>
  <property name="meta.attr.4.stream.title.markup">Regular</property>
  <property name="meta.attr.4.stream.BPS-eng.markup">45</property>
  <property name="meta.attr.4.stream.DURATION-eng.markup">02:01:21.816000000</property>
  <property name="meta.attr.4.stream.NUMBER_OF_FRAMES-eng.markup">1376</property>
  <property name="meta.attr.4.stream.NUMBER_OF_BYTES-eng.markup">41271</property>
  <property name="meta.attr.4.stream._STATISTICS_WRITING_APP-eng.markup">mkvmerge v49.0.0 ('Sick Of Losing Soulmates') 64-bit</property>
  <property name="meta.attr.4.stream._STATISTICS_WRITING_DATE_UTC-eng.markup">2022-05-31 19:08:19</property>
  <property name="meta.attr.4.stream._STATISTICS_TAGS-eng.markup">BPS DURATION NUMBER_OF_FRAMES NUMBER_OF_BYTES</property>
  <property name="meta.media.5.codec.name">srt</property>
  <property name="meta.media.5.codec.long_name">SubRip subtitle</property>
  <property name="meta.media.5.codec.bit_rate">0</property>
  <property name="meta.attr.5.stream.language.markup">eng</property>
  <property name="meta.attr.5.stream.title.markup">Forced</property>
  <property name="meta.attr.5.stream.BPS-eng.markup">0</property>
  <property name="meta.attr.5.stream.DURATION-eng.markup">00:42:25.379000000</property>
  <property name="meta.attr.5.stream.NUMBER_OF_FRAMES-eng.markup">7</property>
  <property name="meta.attr.5.stream.NUMBER_OF_BYTES-eng.markup">170</property>
  <property name="meta.attr.5.stream._STATISTICS_WRITING_APP-eng.markup">mkvmerge v49.0.0 ('Sick Of Losing Soulmates') 64-bit</property>
  <property name="meta.attr.5.stream._STATISTICS_WRITING_DATE_UTC-eng.markup">2022-05-31 19:08:19</property>
  <property name="meta.attr.5.stream._STATISTICS_TAGS-eng.markup">BPS DURATION NUMBER_OF_FRAMES NUMBER_OF_BYTES</property>
  <property name="meta.media.6.codec.name">srt</property>
  <property name="meta.media.6.codec.long_name">SubRip subtitle</property>
  <property name="meta.media.6.codec.bit_rate">0</property>
  <property name="meta.attr.6.stream.language.markup">eng</property>
  <property name="meta.attr.6.stream.title.markup">Regular</property>
  <property name="meta.attr.6.stream.BPS-eng.markup">60</property>
  <property name="meta.attr.6.stream.DURATION-eng.markup">01:52:04.859000000</property>
  <property name="meta.attr.6.stream.NUMBER_OF_FRAMES-eng.markup">1647</property>
  <property name="meta.attr.6.stream.NUMBER_OF_BYTES-eng.markup">50781</property>
  <property name="meta.attr.6.stream._STATISTICS_WRITING_APP-eng.markup">mkvmerge v49.0.0 ('Sick Of Losing Soulmates') 64-bit</property>
  <property name="meta.attr.6.stream._STATISTICS_WRITING_DATE_UTC-eng.markup">2022-05-31 19:08:19</property>
  <property name="meta.attr.6.stream._STATISTICS_TAGS-eng.markup">BPS DURATION NUMBER_OF_FRAMES NUMBER_OF_BYTES</property>
  <property name="meta.attr.title.markup">UHD 4K - iDN_CreW</property>
  <property name="meta.attr.encoder.markup">libebml v1.4.0 + libmatroska v1.6.1</property>
  <property name="meta.attr.creation_time.markup">2022-05-31T19:08:19.000000Z</property>
  <property name="meta.media.sample_aspect_num">1</property>
  <property name="meta.media.sample_aspect_den">1</property>
  <property name="meta.media.frame_rate_num">24000</property>
  <property name="meta.media.frame_rate_den">1001</property>
  <property name="meta.media.colorspace">709</property>
  <property name="meta.media.color_trc">1</property>
  <property name="meta.media.has_b_frames">2</property>
  <property name="meta.media.width">3840</property>
  <property name="meta.media.height">1606</property>
  <property name="meta.media.aspect_ratio">1</property>
  <property name="meta.media.color_range">mpeg</property>
  <property name="xml">was here</property>
  <property name="mute_on_pause">0</property>
  <property name="meta.media.top_field_first">0</property>
  <property name="meta.media.progressive">1</property>
  <property name="set.test_audio">0</property>
  <property name="set.test_image">1</property>
 </chain>
 <playlist id="playlist5">
  <property name="kdenlive:audio_track">1</property>
  <blank length="00:05:46.380"/>
  <entry in="00:14:59.434" out="00:15:19.811" producer="chain16">
   <property name="kdenlive:id">4</property>
  </entry>
  <blank length="00:00:04.421"/>
  <entry in="00:16:01.001" out="00:16:06.882" producer="chain16">
   <property name="kdenlive:id">4</property>
  </entry>
  <blank length="00:00:03.420"/>
  <entry in="00:16:23.774" out="00:16:40.874" producer="chain16">
   <property name="kdenlive:id">4</property>
  </entry>
  <blank length="00:01:41.667"/>
  <entry in="00:20:52.803" out="00:21:02.878" producer="chain16">
   <property name="kdenlive:id">4</property>
  </entry>
  <blank length="00:00:22.773"/>
  <entry in="00:21:39.456" out="00:23:52.719" producer="chain16">
   <property name="kdenlive:id">4</property>
  </entry>
  <blank length="00:00:49.049"/>
  <entry in="00:24:59.977" out="00:25:24.358" producer="chain16">
   <property name="kdenlive:id">4</property>
  </entry>
  <blank length="00:00:12.054"/>
  <entry in="00:26:04.046" out="00:26:35.994" producer="chain16">
   <property name="kdenlive:id">4</property>
  </entry>
  <blank length="00:00:07.341"/>
  <entry in="00:26:49.591" out="00:26:55.597" producer="chain16">
   <property name="kdenlive:id">4</property>
  </entry>
  <blank length="00:00:14.348"/>
  <entry in="00:27:18.727" out="00:27:21.980" producer="chain16">
   <property name="kdenlive:id">4</property>
  </entry>
  <blank length="00:03:18.602"/>
  <entry in="00:30:55.430" out="00:32:13.722" producer="chain16">
   <property name="kdenlive:id">4</property>
  </entry>
  <blank length="00:00:08.217"/>
  <entry in="00:34:35.244" out="00:34:38.538" producer="chain16">
   <property name="kdenlive:id">4</property>
  </entry>
  <blank length="00:00:49.424"/>
  <entry in="00:35:59.142" out="00:36:25.609" producer="chain16">
   <property name="kdenlive:id">4</property>
  </entry>
  <blank length="00:01:24.524"/>
  <entry in="00:50:03.795" out="00:50:09.676" producer="chain16">
   <property name="kdenlive:id">4</property>
  </entry>
  <blank length="00:00:21.605"/>
  <entry in="00:50:45.545" out="00:51:42.209" producer="chain16">
   <property name="kdenlive:id">4</property>
  </entry>
  <blank length="00:00:02.628"/>
  <entry in="00:51:56.974" out="00:53:26.026" producer="chain16">
   <property name="kdenlive:id">4</property>
  </entry>
  <blank length="00:00:33.283"/>
  <entry in="00:54:16.725" out="00:54:32.241" producer="chain16">
   <property name="kdenlive:id">4</property>
  </entry>
  <blank length="00:00:38.497"/>
  <entry in="00:55:44.253" out="00:55:46.255" producer="chain16">
   <property name="kdenlive:id">4</property>
  </entry>
  <blank length="00:00:06.965"/>
  <entry in="00:55:57.933" out="00:56:01.460" producer="chain16">
   <property name="kdenlive:id">4</property>
  </entry>
  <blank length="00:00:23.482"/>
  <entry in="00:57:14.681" out="00:57:18.644" producer="chain16">
   <property name="kdenlive:id">4</property>
  </entry>
  <blank length="00:00:01.335"/>
  <entry in="00:57:23.440" out="00:58:52.970" producer="chain16">
   <property name="kdenlive:id">4</property>
  </entry>
  <blank length="00:00:06.715"/>
  <entry in="00:59:41.959" out="01:00:20.729" producer="chain16">
   <property name="kdenlive:id">4</property>
  </entry>
  <blank length="00:00:19.394"/>
  <entry in="01:00:59.309" out="01:01:00.792" producer="chain16">
   <property name="kdenlive:id">4</property>
  </entry>
  <blank length="00:01:04.963"/>
  <entry in="01:02:16.183" out="01:02:28.779" producer="chain16">
   <property name="kdenlive:id">4</property>
  </entry>
  <blank length="00:00:05.839"/>
  <entry in="01:04:24.316" out="01:04:31.740" producer="chain16">
   <property name="kdenlive:id">4</property>
  </entry>
  <blank length="00:00:23.899"/>
  <entry in="01:05:39.623" out="01:05:49.424" producer="chain16">
   <property name="kdenlive:id">4</property>
  </entry>
  <blank length="00:00:01.835"/>
  <entry in="01:06:30.948" out="01:07:09.301" producer="chain16">
   <property name="kdenlive:id">4</property>
  </entry>
  <blank length="00:00:22.022"/>
  <entry in="01:11:09.968" out="01:12:26.902" producer="chain16">
   <property name="kdenlive:id">4</property>
  </entry>
  <blank length="00:00:15.766"/>
  <entry in="01:13:07.466" out="01:13:33.909" producer="chain16">
   <property name="kdenlive:id">4</property>
  </entry>
  <blank length="00:07:12.054"/>
  <entry in="01:22:23.357" out="01:23:52.010" producer="chain16">
   <property name="kdenlive:id">4</property>
  </entry>
  <blank length="00:00:00.417"/>
  <entry in="01:25:06.465" out="01:25:11.220" producer="chain16">
   <property name="kdenlive:id">4</property>
  </entry>
  <blank length="00:00:00.792"/>
  <entry in="01:26:11.887" out="01:26:17.768" producer="chain16">
   <property name="kdenlive:id">4</property>
  </entry>
  <blank length="00:00:37.329"/>
  <entry in="01:28:07.966" out="01:28:36.662" producer="chain16">
   <property name="kdenlive:id">4</property>
  </entry>
  <blank length="00:00:25.108"/>
  <entry in="01:29:05.756" out="01:29:42.167" producer="chain16">
   <property name="kdenlive:id">4</property>
  </entry>
  <blank length="00:02:11.720"/>
  <entry in="01:32:26.276" out="01:33:13.722" producer="chain16">
   <property name="kdenlive:id">4</property>
  </entry>
  <blank length="00:00:22.981"/>
  <entry in="01:33:56.807" out="01:34:04.254" producer="chain16">
   <property name="kdenlive:id">4</property>
  </entry>
  <blank length="00:00:22.231"/>
  <entry in="01:34:36.995" out="01:36:07.507" producer="chain16">
   <property name="kdenlive:id">4</property>
  </entry>
  <blank length="00:00:09.843"/>
  <entry in="01:36:52.594" out="01:36:55.097" producer="chain16">
   <property name="kdenlive:id">4</property>
  </entry>
  <blank length="00:00:05.005"/>
  <entry in="01:37:13.847" out="01:37:16.892" producer="chain16">
   <property name="kdenlive:id">4</property>
  </entry>
  <blank length="00:00:01.001"/>
  <entry in="01:37:35.035" out="01:37:41.875" producer="chain16">
   <property name="kdenlive:id">4</property>
  </entry>
  <blank length="00:00:09.843"/>
  <entry in="01:37:56.223" out="01:37:58.850" producer="chain16">
   <property name="kdenlive:id">4</property>
  </entry>
  <blank length="00:00:53.470"/>
  <entry in="01:39:00.918" out="01:40:02.794" producer="chain16">
   <property name="kdenlive:id">4</property>
  </entry>
  <blank length="00:00:45.671"/>
  <entry in="01:41:03.921" out="01:41:11.261" producer="chain16">
   <property name="kdenlive:id">4</property>
  </entry>
  <blank length="00:01:20.270"/>
  <entry in="01:42:39.289" out="01:42:45.212" producer="chain16">
   <property name="kdenlive:id">4</property>
  </entry>
  <blank length="00:00:03.253"/>
  <entry in="01:43:01.168" out="01:45:39.957" producer="chain16">
   <property name="kdenlive:id">4</property>
  </entry>
  <blank length="00:00:19.311"/>
  <entry in="01:46:21.605" out="01:46:41.416" producer="chain16">
   <property name="kdenlive:id">4</property>
  </entry>
  <blank length="00:00:15.432"/>
  <entry in="01:47:47.381" out="01:47:52.594" producer="chain16">
   <property name="kdenlive:id">4</property>
  </entry>
  <blank length="00:00:40.624"/>
  <entry in="01:49:13.096" out="01:49:17.976" producer="chain16">
   <property name="kdenlive:id">4</property>
  </entry>
  <blank length="00:00:26.735"/>
  <entry in="01:49:58.767" out="01:50:27.736" producer="chain16">
   <property name="kdenlive:id">4</property>
  </entry>
 </playlist>
 <tractor id="tractor2" in="00:00:00.000" out="01:11:29.071">
  <property name="kdenlive:audio_track">1</property>
  <property name="kdenlive:trackheight">84</property>
  <property name="kdenlive:timeline_active">1</property>
  <property name="kdenlive:collapsed">0</property>
  <property name="kdenlive:thumbs_format"/>
  <property name="kdenlive:audio_rec"/>
  <track hide="video" producer="playlist4"/>
  <track hide="video" producer="playlist5"/>
  <transition id="transition89" in="00:55:11.220" out="00:55:12.221">
   <property name="a_track">0</property>
   <property name="b_track">1</property>
   <property name="mlt_service">mix</property>
   <property name="kdenlive_id">mix</property>
   <property name="kdenlive:mixcut">0</property>
   <property name="start">-1</property>
   <property name="accepts_blanks">1</property>
   <property name="reverse">0</property>
  </transition>
  <transition id="transition88" in="00:55:06.965" out="00:55:07.966">
   <property name="a_track">0</property>
   <property name="b_track">1</property>
   <property name="mlt_service">mix</property>
   <property name="kdenlive_id">mix</property>
   <property name="kdenlive:mixcut">0</property>
   <property name="start">-1</property>
   <property name="accepts_blanks">1</property>
   <property name="reverse">1</property>
  </transition>
  <transition id="transition87" in="00:55:02.002" out="00:55:02.419">
   <property name="a_track">0</property>
   <property name="b_track">1</property>
   <property name="mlt_service">mix</property>
   <property name="kdenlive_id">mix</property>
   <property name="kdenlive:mixcut">5</property>
   <property name="start">-1</property>
   <property name="accepts_blanks">1</property>
   <property name="reverse">0</property>
  </transition>
  <transition id="transition86" in="00:53:34.368" out="00:53:35.202">
   <property name="a_track">0</property>
   <property name="b_track">1</property>
   <property name="mlt_service">mix</property>
   <property name="kdenlive_id">mix</property>
   <property name="kdenlive:mixcut">10</property>
   <property name="reverse">0</property>
  </transition>
  <transition id="transition85" in="00:53:40.749" out="00:53:41.750">
   <property name="a_track">0</property>
   <property name="b_track">1</property>
   <property name="mlt_service">mix</property>
   <property name="kdenlive_id">mix</property>
   <property name="kdenlive:mixcut">12</property>
   <property name="reverse">1</property>
  </transition>
  <transition id="transition84" in="00:50:52.844" out="00:50:53.262">
   <property name="a_track">0</property>
   <property name="b_track">1</property>
   <property name="mlt_service">mix</property>
   <property name="kdenlive_id">mix</property>
   <property name="kdenlive:mixcut">5</property>
   <property name="reverse">1</property>
  </transition>
  <transition id="transition83" in="00:51:46.755" out="00:51:47.172">
   <property name="a_track">0</property>
   <property name="b_track">1</property>
   <property name="mlt_service">mix</property>
   <property name="kdenlive_id">mix</property>
   <property name="kdenlive:mixcut">5</property>
   <property name="reverse">0</property>
  </transition>
  <transition id="transition82" in="00:52:47.673" out="00:52:48.674">
   <property name="a_track">0</property>
   <property name="b_track">1</property>
   <property name="mlt_service">mix</property>
   <property name="kdenlive_id">mix</property>
   <property name="kdenlive:mixcut">0</property>
   <property name="reverse">1</property>
  </transition>
  <transition id="transition81" in="00:42:36.370" out="00:42:37.371">
   <property name="a_track">0</property>
   <property name="b_track">1</property>
   <property name="mlt_service">mix</property>
   <property name="kdenlive_id">mix</property>
   <property name="kdenlive:mixcut">12</property>
   <property name="start">-1</property>
   <property name="accepts_blanks">1</property>
   <property name="reverse">0</property>
  </transition>
  <transition id="transition80" in="00:31:50.467" out="00:31:50.884">
   <property name="a_track">0</property>
   <property name="b_track">1</property>
   <property name="mlt_service">mix</property>
   <property name="kdenlive_id">mix</property>
   <property name="kdenlive:mixcut">10</property>
   <property name="start">-1</property>
   <property name="accepts_blanks">1</property>
   <property name="reverse">0</property>
  </transition>
  <transition id="transition79" in="00:29:48.548" out="00:29:49.383">
   <property name="a_track">0</property>
   <property name="b_track">1</property>
   <property name="mlt_service">mix</property>
   <property name="kdenlive_id">mix</property>
   <property name="kdenlive:mixcut">0</property>
   <property name="start">-1</property>
   <property name="accepts_blanks">1</property>
   <property name="reverse">0</property>
  </transition>
  <transition id="transition78" in="00:41:01.668" out="00:41:02.669">
   <property name="a_track">0</property>
   <property name="b_track">1</property>
   <property name="mlt_service">mix</property>
   <property name="kdenlive_id">mix</property>
   <property name="kdenlive:mixcut">0</property>
   <property name="reverse">0</property>
  </transition>
  <transition id="transition77" in="00:42:29.363" out="00:42:30.364">
   <property name="a_track">0</property>
   <property name="b_track">1</property>
   <property name="mlt_service">mix</property>
   <property name="kdenlive_id">mix</property>
   <property name="kdenlive:mixcut">24</property>
   <property name="reverse">1</property>
  </transition>
  <transition id="transition76" in="00:47:01.627" out="00:47:02.044">
   <property name="a_track">0</property>
   <property name="b_track">1</property>
   <property name="mlt_service">mix</property>
   <property name="kdenlive_id">mix</property>
   <property name="kdenlive:mixcut">10</property>
   <property name="reverse">0</property>
  </transition>
  <transition id="transition75" in="00:47:48.131" out="00:47:49.132">
   <property name="a_track">0</property>
   <property name="b_track">1</property>
   <property name="mlt_service">mix</property>
   <property name="kdenlive_id">mix</property>
   <property name="kdenlive:mixcut">12</property>
   <property name="reverse">1</property>
  </transition>
  <transition id="transition74" in="01:00:02.169" out="01:00:03.170">
   <property name="a_track">0</property>
   <property name="b_track">1</property>
   <property name="mlt_service">mix</property>
   <property name="kdenlive_id">mix</property>
   <property name="kdenlive:mixcut">12</property>
   <property name="reverse">0</property>
  </transition>
  <transition id="transition73" in="01:00:28.195" out="01:00:31.198">
   <property name="a_track">0</property>
   <property name="b_track">1</property>
   <property name="mlt_service">mix</property>
   <property name="kdenlive_id">mix</property>
   <property name="kdenlive:mixcut">36</property>
   <property name="reverse">1</property>
  </transition>
  <transition id="transition72" in="00:44:13.472" out="00:44:14.473">
   <property name="a_track">0</property>
   <property name="b_track">1</property>
   <property name="mlt_service">mix</property>
   <property name="kdenlive_id">mix</property>
   <property name="kdenlive:mixcut">12</property>
   <property name="reverse">0</property>
  </transition>
  <transition id="transition71" in="00:44:49.091" out="00:44:49.925">
   <property name="a_track">0</property>
   <property name="b_track">1</property>
   <property name="mlt_service">mix</property>
   <property name="kdenlive_id">mix</property>
   <property name="kdenlive:mixcut">15</property>
   <property name="reverse">1</property>
  </transition>
  <transition id="transition70" in="00:42:30.781" out="00:42:31.782">
   <property name="a_track">0</property>
   <property name="b_track">1</property>
   <property name="mlt_service">mix</property>
   <property name="kdenlive_id">mix</property>
   <property name="kdenlive:mixcut">12</property>
   <property name="reverse">0</property>
  </transition>
  <transition id="transition69" in="00:42:34.826" out="00:42:35.577">
   <property name="a_track">0</property>
   <property name="b_track">1</property>
   <property name="mlt_service">mix</property>
   <property name="kdenlive_id">mix</property>
   <property name="kdenlive:mixcut">18</property>
   <property name="reverse">1</property>
  </transition>
  <transition id="transition68" in="00:43:19.603" out="00:43:20.604">
   <property name="a_track">0</property>
   <property name="b_track">1</property>
   <property name="mlt_service">mix</property>
   <property name="kdenlive_id">mix</property>
   <property name="kdenlive:mixcut">12</property>
   <property name="reverse">0</property>
  </transition>
  <transition id="transition67" in="00:43:47.339" out="00:43:48.340">
   <property name="a_track">0</property>
   <property name="b_track">1</property>
   <property name="mlt_service">mix</property>
   <property name="kdenlive_id">mix</property>
   <property name="kdenlive:mixcut">12</property>
   <property name="reverse">1</property>
  </transition>
  <transition id="transition66" in="00:33:48.674" out="00:33:49.675">
   <property name="a_track">0</property>
   <property name="b_track">1</property>
   <property name="mlt_service">mix</property>
   <property name="kdenlive_id">mix</property>
   <property name="kdenlive:mixcut">12</property>
   <property name="reverse">1</property>
  </transition>
  <transition id="transition57" in="00:30:47.256" out="00:30:48.257">
   <property name="a_track">0</property>
   <property name="b_track">1</property>
   <property name="mlt_service">mix</property>
   <property name="kdenlive_id">mix</property>
   <property name="kdenlive:mixcut">24</property>
   <property name="reverse">1</property>
  </transition>
  <transition id="transition56" in="00:30:50.092" out="00:30:50.717">
   <property name="a_track">0</property>
   <property name="b_track">1</property>
   <property name="mlt_service">mix</property>
   <property name="kdenlive_id">mix</property>
   <property name="kdenlive:mixcut">15</property>
   <property name="reverse">0</property>
  </transition>
  <transition id="transition55" in="00:31:27.444" out="00:31:28.445">
   <property name="a_track">0</property>
   <property name="b_track">1</property>
   <property name="mlt_service">mix</property>
   <property name="kdenlive_id">mix</property>
   <property name="kdenlive:mixcut">12</property>
   <property name="reverse">1</property>
  </transition>
  <transition id="transition52" in="00:42:41.625" out="00:42:42.292">
   <property name="a_track">0</property>
   <property name="b_track">1</property>
   <property name="mlt_service">mix</property>
   <property name="kdenlive_id">mix</property>
   <property name="kdenlive:mixcut">0</property>
   <property name="reverse">1</property>
  </transition>
  <transition id="transition51" in="00:30:13.513" out="00:30:14.514">
   <property name="a_track">0</property>
   <property name="b_track">1</property>
   <property name="mlt_service">mix</property>
   <property name="kdenlive_id">mix</property>
   <property name="kdenlive:mixcut">0</property>
   <property name="reverse">1</property>
  </transition>
  <transition id="transition50" in="00:33:23.190" out="00:33:23.607">
   <property name="a_track">0</property>
   <property name="b_track">1</property>
   <property name="mlt_service">mix</property>
   <property name="kdenlive_id">mix</property>
   <property name="kdenlive:mixcut">0</property>
   <property name="reverse">0</property>
  </transition>
  <transition id="transition49" in="00:48:12.137" out="00:48:12.554">
   <property name="a_track">0</property>
   <property name="b_track">1</property>
   <property name="mlt_service">mix</property>
   <property name="kdenlive_id">mix</property>
   <property name="kdenlive:mixcut">5</property>
   <property name="reverse">0</property>
  </transition>
  <transition id="transition48" in="00:50:22.231" out="00:50:22.648">
   <property name="a_track">0</property>
   <property name="b_track">1</property>
   <property name="mlt_service">mix</property>
   <property name="kdenlive_id">mix</property>
   <property name="kdenlive:mixcut">0</property>
   <property name="reverse">0</property>
  </transition>
  <transition id="transition47" in="00:50:23.941" out="00:50:24.775">
   <property name="a_track">0</property>
   <property name="b_track">1</property>
   <property name="mlt_service">mix</property>
   <property name="kdenlive_id">mix</property>
   <property name="kdenlive:mixcut">4</property>
   <property name="reverse">1</property>
  </transition>
  <transition id="transition46" in="00:30:38.413" out="00:30:41.416">
   <property name="a_track">0</property>
   <property name="b_track">1</property>
   <property name="mlt_service">mix</property>
   <property name="kdenlive_id">mix</property>
   <property name="kdenlive:mixcut">36</property>
   <property name="reverse">0</property>
  </transition>
  <transition id="transition41" in="00:48:41.875" out="00:48:42.876">
   <property name="a_track">0</property>
   <property name="b_track">1</property>
   <property name="mlt_service">mix</property>
   <property name="kdenlive_id">mix</property>
   <property name="kdenlive:mixcut">12</property>
   <property name="reverse">0</property>
  </transition>
  <transition id="transition40" in="00:50:11.386" out="00:50:12.387">
   <property name="a_track">0</property>
   <property name="b_track">1</property>
   <property name="mlt_service">mix</property>
   <property name="kdenlive_id">mix</property>
   <property name="kdenlive:mixcut">0</property>
   <property name="reverse">1</property>
  </transition>
  <transition id="transition37" in="00:48:18.644" out="00:48:19.645">
   <property name="a_track">0</property>
   <property name="b_track">1</property>
   <property name="mlt_service">mix</property>
   <property name="kdenlive_id">mix</property>
   <property name="kdenlive:mixcut">0</property>
   <property name="reverse">1</property>
  </transition>
  <transition id="transition36" in="00:50:29.780" out="00:50:30.197">
   <property name="a_track">0</property>
   <property name="b_track">1</property>
   <property name="mlt_service">mix</property>
   <property name="kdenlive_id">mix</property>
   <property name="kdenlive:mixcut">5</property>
   <property name="reverse">0</property>
  </transition>
  <transition id="transition35" in="00:50:32.449" out="00:50:32.866">
   <property name="a_track">0</property>
   <property name="b_track">1</property>
   <property name="mlt_service">mix</property>
   <property name="kdenlive_id">mix</property>
   <property name="kdenlive:mixcut">0</property>
   <property name="reverse">1</property>
  </transition>
  <transition id="transition34" in="00:33:06.423" out="00:33:07.424">
   <property name="a_track">0</property>
   <property name="b_track">1</property>
   <property name="mlt_service">mix</property>
   <property name="kdenlive_id">mix</property>
   <property name="kdenlive:mixcut">12</property>
   <property name="reverse">1</property>
  </transition>
  <transition id="transition33" in="00:50:40.582" out="00:50:40.749">
   <property name="a_track">0</property>
   <property name="b_track">1</property>
   <property name="mlt_service">mix</property>
   <property name="kdenlive_id">mix</property>
   <property name="kdenlive:mixcut">2</property>
   <property name="reverse">1</property>
  </transition>
  <transition id="transition32" in="00:50:50.592" out="00:50:51.593">
   <property name="a_track">0</property>
   <property name="b_track">1</property>
   <property name="mlt_service">mix</property>
   <property name="kdenlive_id">mix</property>
   <property name="kdenlive:mixcut">0</property>
   <property name="reverse">0</property>
  </transition>
  <transition id="transition30" in="00:59:35.244" out="00:59:35.410">
   <property name="a_track">0</property>
   <property name="b_track">1</property>
   <property name="mlt_service">mix</property>
   <property name="kdenlive_id">mix</property>
   <property name="kdenlive:mixcut">4</property>
   <property name="reverse">1</property>
  </transition>
  <transition id="transition27" in="00:58:09.343" out="00:58:10.344">
   <property name="a_track">0</property>
   <property name="b_track">1</property>
   <property name="mlt_service">mix</property>
   <property name="kdenlive_id">mix</property>
   <property name="kdenlive:mixcut">12</property>
   <property name="reverse">0</property>
  </transition>
  <transition id="transition22" in="00:58:28.195" out="00:58:29.196">
   <property name="a_track">0</property>
   <property name="b_track">1</property>
   <property name="mlt_service">mix</property>
   <property name="kdenlive_id">mix</property>
   <property name="kdenlive:mixcut">0</property>
   <property name="reverse">1</property>
  </transition>
  <transition id="transition21" in="00:50:33.867" out="00:50:34.868">
   <property name="a_track">0</property>
   <property name="b_track">1</property>
   <property name="mlt_service">mix</property>
   <property name="kdenlive_id">mix</property>
   <property name="kdenlive:mixcut">12</property>
   <property name="reverse">0</property>
  </transition>
  <transition id="transition20" in="00:57:49.007" out="00:57:50.008">
   <property name="a_track">0</property>
   <property name="b_track">1</property>
   <property name="mlt_service">mix</property>
   <property name="kdenlive_id">mix</property>
   <property name="kdenlive:mixcut">12</property>
   <property name="reverse">1</property>
  </transition>
  <transition id="transition18" in="00:59:30.489" out="00:59:31.490">
   <property name="a_track">0</property>
   <property name="b_track">1</property>
   <property name="mlt_service">mix</property>
   <property name="kdenlive_id">mix</property>
   <property name="kdenlive:mixcut">24</property>
   <property name="reverse">0</property>
  </transition>
  <transition id="transition17" in="00:58:44.628" out="00:58:44.753">
   <property name="a_track">0</property>
   <property name="b_track">1</property>
   <property name="mlt_service">mix</property>
   <property name="kdenlive_id">mix</property>
   <property name="kdenlive:mixcut">3</property>
   <property name="reverse">0</property>
  </transition>
  <transition id="transition16" in="00:58:49.049" out="00:58:49.883">
   <property name="a_track">0</property>
   <property name="b_track">1</property>
   <property name="mlt_service">mix</property>
   <property name="kdenlive_id">mix</property>
   <property name="kdenlive:mixcut">10</property>
   <property name="reverse">1</property>
  </transition>
  <transition id="transition6" in="00:28:43.210" out="00:28:43.627">
   <property name="a_track">0</property>
   <property name="b_track">1</property>
   <property name="mlt_service">mix</property>
   <property name="kdenlive_id">mix</property>
   <property name="kdenlive:mixcut">10</property>
   <property name="start">-1</property>
   <property name="accepts_blanks">1</property>
   <property name="reverse">1</property>
  </transition>
  <transition id="transition0" in="00:06:20.562" out="00:06:21.563">
   <property name="a_track">0</property>
   <property name="b_track">1</property>
   <property name="mlt_service">mix</property>
   <property name="kdenlive_id">mix</property>
   <property name="kdenlive:mixcut">12</property>
   <property name="reverse">0</property>
  </transition>
  <transition id="transition1" in="00:28:22.564" out="00:28:22.731">
   <property name="a_track">0</property>
   <property name="b_track">1</property>
   <property name="mlt_service">mix</property>
   <property name="kdenlive_id">mix</property>
   <property name="kdenlive:mixcut">0</property>
   <property name="reverse">1</property>
  </transition>
  <transition id="transition2" in="00:24:47.339" out="00:24:47.756">
   <property name="a_track">0</property>
   <property name="b_track">1</property>
   <property name="mlt_service">mix</property>
   <property name="kdenlive_id">mix</property>
   <property name="kdenlive:mixcut">5</property>
   <property name="reverse">1</property>
  </transition>
  <transition id="transition3" in="00:06:05.797" out="00:06:06.798">
   <property name="a_track">0</property>
   <property name="b_track">1</property>
   <property name="mlt_service">mix</property>
   <property name="kdenlive_id">mix</property>
   <property name="kdenlive:mixcut">12</property>
   <property name="reverse">1</property>
  </transition>
  <transition id="transition4" in="00:05:46.380" out="00:05:50.384">
   <property name="a_track">0</property>
   <property name="b_track">1</property>
   <property name="mlt_service">mix</property>
   <property name="kdenlive_id">mix</property>
   <property name="kdenlive:mixcut">48</property>
   <property name="reverse">0</property>
  </transition>
  <transition id="transition5" in="00:25:26.235" out="00:25:27.236">
   <property name="a_track">0</property>
   <property name="b_track">1</property>
   <property name="mlt_service">mix</property>
   <property name="kdenlive_id">mix</property>
   <property name="kdenlive:mixcut">12</property>
   <property name="reverse">0</property>
  </transition>
  <transition id="transition7" in="00:06:16.308" out="00:06:17.142">
   <property name="a_track">0</property>
   <property name="b_track">1</property>
   <property name="mlt_service">mix</property>
   <property name="kdenlive_id">mix</property>
   <property name="kdenlive:mixcut">10</property>
   <property name="reverse">1</property>
  </transition>
  <transition id="transition8" in="00:06:11.220" out="00:06:12.221">
   <property name="a_track">0</property>
   <property name="b_track">1</property>
   <property name="mlt_service">mix</property>
   <property name="kdenlive_id">mix</property>
   <property name="kdenlive:mixcut">12</property>
   <property name="reverse">0</property>
  </transition>
  <transition id="transition9" in="00:27:43.919" out="00:27:44.336">
   <property name="a_track">0</property>
   <property name="b_track">1</property>
   <property name="mlt_service">mix</property>
   <property name="kdenlive_id">mix</property>
   <property name="kdenlive:mixcut">5</property>
   <property name="reverse">0</property>
  </transition>
  <transition id="transition10" in="00:13:33.075" out="00:13:34.076">
   <property name="a_track">0</property>
   <property name="b_track">1</property>
   <property name="mlt_service">mix</property>
   <property name="kdenlive_id">mix</property>
   <property name="kdenlive:mixcut">0</property>
   <property name="reverse">1</property>
  </transition>
  <transition id="transition11" in="00:22:29.821" out="00:22:30.822">
   <property name="a_track">0</property>
   <property name="b_track">1</property>
   <property name="mlt_service">mix</property>
   <property name="kdenlive_id">mix</property>
   <property name="kdenlive:mixcut">12</property>
   <property name="reverse">0</property>
  </transition>
  <transition id="transition12" in="00:11:04.504" out="00:11:05.505">
   <property name="a_track">0</property>
   <property name="b_track">1</property>
   <property name="mlt_service">mix</property>
   <property name="kdenlive_id">mix</property>
   <property name="kdenlive:mixcut">24</property>
   <property name="reverse">1</property>
  </transition>
  <transition id="transition13" in="00:18:09.968" out="00:18:10.969">
   <property name="a_track">0</property>
   <property name="b_track">1</property>
   <property name="mlt_service">mix</property>
   <property name="kdenlive_id">mix</property>
   <property name="kdenlive:mixcut">12</property>
   <property name="reverse">1</property>
  </transition>
  <transition id="transition14" in="00:11:54.554" out="00:11:54.972">
   <property name="a_track">0</property>
   <property name="b_track">1</property>
   <property name="mlt_service">mix</property>
   <property name="kdenlive_id">mix</property>
   <property name="kdenlive:mixcut">5</property>
   <property name="reverse">0</property>
  </transition>
  <transition id="transition15" in="00:26:02.336" out="00:26:02.753">
   <property name="a_track">0</property>
   <property name="b_track">1</property>
   <property name="mlt_service">mix</property>
   <property name="kdenlive_id">mix</property>
   <property name="kdenlive:mixcut">10</property>
   <property name="reverse">0</property>
  </transition>
  <transition id="transition19" in="00:06:36.703" out="00:06:37.704">
   <property name="a_track">0</property>
   <property name="b_track">1</property>
   <property name="mlt_service">mix</property>
   <property name="kdenlive_id">mix</property>
   <property name="kdenlive:mixcut">12</property>
   <property name="reverse">1</property>
  </transition>
  <transition id="transition23" in="00:28:42.125" out="00:28:42.542">
   <property name="a_track">0</property>
   <property name="b_track">1</property>
   <property name="mlt_service">mix</property>
   <property name="kdenlive_id">mix</property>
   <property name="kdenlive:mixcut">5</property>
   <property name="reverse">0</property>
  </transition>
  <transition id="transition24" in="00:26:07.674" out="00:26:08.050">
   <property name="a_track">0</property>
   <property name="b_track">1</property>
   <property name="mlt_service">mix</property>
   <property name="kdenlive_id">mix</property>
   <property name="kdenlive:mixcut">9</property>
   <property name="reverse">0</property>
  </transition>
  <transition id="transition25" in="00:13:10.385" out="00:13:10.802">
   <property name="a_track">0</property>
   <property name="b_track">1</property>
   <property name="mlt_service">mix</property>
   <property name="kdenlive_id">mix</property>
   <property name="kdenlive:mixcut">0</property>
   <property name="reverse">0</property>
  </transition>
  <transition id="transition26" in="00:13:02.628" out="00:13:03.045">
   <property name="a_track">0</property>
   <property name="b_track">1</property>
   <property name="mlt_service">mix</property>
   <property name="kdenlive_id">mix</property>
   <property name="kdenlive:mixcut">5</property>
   <property name="reverse">1</property>
  </transition>
  <transition id="transition28" in="00:12:31.073" out="00:12:31.240">
   <property name="a_track">0</property>
   <property name="b_track">1</property>
   <property name="mlt_service">mix</property>
   <property name="kdenlive_id">mix</property>
   <property name="kdenlive:mixcut">2</property>
   <property name="reverse">0</property>
  </transition>
  <transition id="transition29" in="00:12:18.018" out="00:12:19.019">
   <property name="a_track">0</property>
   <property name="b_track">1</property>
   <property name="mlt_service">mix</property>
   <property name="kdenlive_id">mix</property>
   <property name="kdenlive:mixcut">12</property>
   <property name="reverse">1</property>
  </transition>
  <transition id="transition31" in="00:08:52.219" out="00:08:53.053">
   <property name="a_track">0</property>
   <property name="b_track">1</property>
   <property name="mlt_service">mix</property>
   <property name="kdenlive_id">mix</property>
   <property name="kdenlive:mixcut">0</property>
   <property name="reverse">0</property>
  </transition>
  <transition id="transition38" in="00:18:21.521" out="00:18:22.522">
   <property name="a_track">0</property>
   <property name="b_track">1</property>
   <property name="mlt_service">mix</property>
   <property name="kdenlive_id">mix</property>
   <property name="kdenlive:mixcut">0</property>
   <property name="reverse">1</property>
  </transition>
  <transition id="transition39" in="00:18:19.186" out="00:18:19.603">
   <property name="a_track">0</property>
   <property name="b_track">1</property>
   <property name="mlt_service">mix</property>
   <property name="kdenlive_id">mix</property>
   <property name="kdenlive:mixcut">5</property>
   <property name="reverse">0</property>
  </transition>
  <transition id="transition42" in="00:19:37.496" out="00:19:38.497">
   <property name="a_track">0</property>
   <property name="b_track">1</property>
   <property name="mlt_service">mix</property>
   <property name="kdenlive_id">mix</property>
   <property name="kdenlive:mixcut">24</property>
   <property name="reverse">1</property>
  </transition>
  <transition id="transition43" in="00:19:11.970" out="00:19:12.387">
   <property name="a_track">0</property>
   <property name="b_track">1</property>
   <property name="mlt_service">mix</property>
   <property name="kdenlive_id">mix</property>
   <property name="kdenlive:mixcut">5</property>
   <property name="reverse">0</property>
  </transition>
  <transition id="transition44" in="00:21:08.508" out="00:21:08.926">
   <property name="a_track">0</property>
   <property name="b_track">1</property>
   <property name="mlt_service">mix</property>
   <property name="kdenlive_id">mix</property>
   <property name="kdenlive:mixcut">5</property>
   <property name="reverse">1</property>
  </transition>
  <transition id="transition45" in="00:21:03.003" out="00:21:04.004">
   <property name="a_track">0</property>
   <property name="b_track">1</property>
   <property name="mlt_service">mix</property>
   <property name="kdenlive_id">mix</property>
   <property name="kdenlive:mixcut">12</property>
   <property name="reverse">0</property>
  </transition>
  <transition id="transition53" in="00:22:26.193" out="00:22:27.194">
   <property name="a_track">0</property>
   <property name="b_track">1</property>
   <property name="mlt_service">mix</property>
   <property name="kdenlive_id">mix</property>
   <property name="kdenlive:mixcut">12</property>
   <property name="reverse">1</property>
  </transition>
  <transition id="transition54" in="00:21:30.530" out="00:21:31.531">
   <property name="a_track">0</property>
   <property name="b_track">1</property>
   <property name="mlt_service">mix</property>
   <property name="kdenlive_id">mix</property>
   <property name="kdenlive:mixcut">20</property>
   <property name="reverse">0</property>
  </transition>
  <transition id="transition58" in="00:25:28.070" out="00:25:28.278">
   <property name="a_track">0</property>
   <property name="b_track">1</property>
   <property name="mlt_service">mix</property>
   <property name="kdenlive_id">mix</property>
   <property name="kdenlive:mixcut">5</property>
   <property name="reverse">1</property>
  </transition>
  <transition id="transition59" in="00:24:32.199" out="00:24:32.616">
   <property name="a_track">0</property>
   <property name="b_track">1</property>
   <property name="mlt_service">mix</property>
   <property name="kdenlive_id">mix</property>
   <property name="kdenlive:mixcut">5</property>
   <property name="reverse">0</property>
  </transition>
  <transition id="transition60" in="00:23:57.933" out="00:23:58.934">
   <property name="a_track">0</property>
   <property name="b_track">1</property>
   <property name="mlt_service">mix</property>
   <property name="kdenlive_id">mix</property>
   <property name="kdenlive:mixcut">12</property>
   <property name="reverse">1</property>
  </transition>
  <transition id="transition61" in="00:13:30.781" out="00:13:31.782">
   <property name="a_track">0</property>
   <property name="b_track">1</property>
   <property name="mlt_service">mix</property>
   <property name="kdenlive_id">mix</property>
   <property name="kdenlive:mixcut">0</property>
   <property name="reverse">0</property>
  </transition>
  <transition id="transition62" in="00:13:15.432" out="00:13:16.433">
   <property name="a_track">0</property>
   <property name="b_track">1</property>
   <property name="mlt_service">mix</property>
   <property name="kdenlive_id">mix</property>
   <property name="kdenlive:mixcut">12</property>
   <property name="reverse">1</property>
  </transition>
  <transition id="transition63" in="00:08:19.353" out="00:08:20.354">
   <property name="a_track">0</property>
   <property name="b_track">1</property>
   <property name="mlt_service">mix</property>
   <property name="kdenlive_id">mix</property>
   <property name="kdenlive:mixcut">12</property>
   <property name="reverse">0</property>
  </transition>
  <transition id="transition64" in="00:25:38.580" out="00:25:38.830">
   <property name="a_track">0</property>
   <property name="b_track">1</property>
   <property name="mlt_service">mix</property>
   <property name="kdenlive_id">mix</property>
   <property name="kdenlive:mixcut">0</property>
   <property name="reverse">1</property>
  </transition>
  <transition id="transition65" in="00:25:35.244" out="00:25:35.661">
   <property name="a_track">0</property>
   <property name="b_track">1</property>
   <property name="mlt_service">mix</property>
   <property name="kdenlive_id">mix</property>
   <property name="kdenlive:mixcut">5</property>
   <property name="reverse">0</property>
  </transition>
  <filter id="filter13">
   <property name="window">75</property>
   <property name="max_gain">20dB</property>
   <property name="mlt_service">volume</property>
   <property name="internal_added">237</property>
   <property name="disable">1</property>
  </filter>
  <filter id="filter14">
   <property name="channel">-1</property>
   <property name="mlt_service">panner</property>
   <property name="internal_added">237</property>
   <property name="start">0.5</property>
   <property name="disable">1</property>
  </filter>
  <filter id="filter15">
   <property name="iec_scale">0</property>
   <property name="mlt_service">audiolevel</property>
   <property name="dbpeak">1</property>
   <property name="disable">1</property>
  </filter>
 </tractor>
 <chain id="chain18" out="02:04:23.941">
  <property name="length">178956</property>
  <property name="eof">pause</property>
  <property name="resource">N:/Videos/Kids Movies/Sonic/Sonic 2022/Sonic 2 Il Film (2023) 2160p 4K H265 10 Bit WEB-DL iTA ENG AC3 5.1 Sub Ita Eng - iDN_CreW.mkv</property>
  <property name="mlt_service">avformat-novalidate</property>
  <property name="seekable">1</property>
  <property name="audio_index">1</property>
  <property name="video_index">0</property>
  <property name="vstream">0</property>
  <property name="astream">0</property>
  <property name="kdenlive:control_uuid">{8662ceb9-f96f-4607-812c-ea78d123d3ef}</property>
  <property name="kdenlive:id">4</property>
  <property name="kdenlive:clip_type">0</property>
  <property name="kdenlive:file_size">6455506204</property>
  <property name="kdenlive:file_hash">c805e36cb967f0098696aec55aa79048</property>
  <property name="kdenlive:folderid">-1</property>
  <property name="kdenlive:monitorPosition">2741</property>
  <property name="kdenlive:markers">[
]
</property>
  <property name="mute_on_pause">0</property>
  <property name="kdenlive:active_streams">1;2</property>
  <property name="meta.media.nb_streams">7</property>
  <property name="meta.media.0.stream.type">video</property>
  <property name="meta.media.0.stream.frame_rate">23.976</property>
  <property name="meta.media.0.stream.sample_aspect_ratio">1</property>
  <property name="meta.media.0.codec.width">3840</property>
  <property name="meta.media.0.codec.height">1606</property>
  <property name="meta.media.0.codec.rotate">0</property>
  <property name="meta.media.0.codec.pix_fmt">yuv420p10le</property>
  <property name="meta.media.0.codec.sample_aspect_ratio">1</property>
  <property name="meta.media.0.codec.colorspace">709</property>
  <property name="meta.media.0.codec.color_trc">1</property>
  <property name="meta.media.0.codec.name">hevc</property>
  <property name="meta.media.0.codec.long_name">HEVC (High Efficiency Video Coding)</property>
  <property name="meta.media.0.codec.bit_rate">0</property>
  <property name="meta.attr.0.stream.BPS-eng.markup">6000404</property>
  <property name="meta.attr.0.stream.DURATION-eng.markup">02:02:18.123000000</property>
  <property name="meta.attr.0.stream.NUMBER_OF_FRAMES-eng.markup">175939</property>
  <property name="meta.attr.0.stream.NUMBER_OF_BYTES-eng.markup">5503962903</property>
  <property name="meta.attr.0.stream._STATISTICS_WRITING_APP-eng.markup">mkvmerge v49.0.0 ('Sick Of Losing Soulmates') 64-bit</property>
  <property name="meta.attr.0.stream._STATISTICS_WRITING_DATE_UTC-eng.markup">2022-05-31 19:08:19</property>
  <property name="meta.attr.0.stream._STATISTICS_TAGS-eng.markup">BPS DURATION NUMBER_OF_FRAMES NUMBER_OF_BYTES</property>
  <property name="meta.media.1.stream.type">audio</property>
  <property name="meta.media.1.codec.sample_fmt">fltp</property>
  <property name="meta.media.1.codec.sample_rate">48000</property>
  <property name="meta.media.1.codec.channels">6</property>
  <property name="meta.media.1.codec.layout">5.1(side)</property>
  <property name="meta.media.1.codec.name">ac3</property>
  <property name="meta.media.1.codec.long_name">ATSC A/52A (AC-3)</property>
  <property name="meta.media.1.codec.bit_rate">640000</property>
  <property name="meta.attr.1.stream.language.markup">ita</property>
  <property name="meta.attr.1.stream.title.markup">AC3 iTA</property>
  <property name="meta.attr.1.stream.BPS-eng.markup">640000</property>
  <property name="meta.attr.1.stream.DURATION-eng.markup">02:04:23.968000000</property>
  <property name="meta.attr.1.stream.NUMBER_OF_FRAMES-eng.markup">233249</property>
  <property name="meta.attr.1.stream.NUMBER_OF_BYTES-eng.markup">597117440</property>
  <property name="meta.attr.1.stream._STATISTICS_WRITING_APP-eng.markup">mkvmerge v49.0.0 ('Sick Of Losing Soulmates') 64-bit</property>
  <property name="meta.attr.1.stream._STATISTICS_WRITING_DATE_UTC-eng.markup">2022-05-31 19:08:19</property>
  <property name="meta.attr.1.stream._STATISTICS_TAGS-eng.markup">BPS DURATION NUMBER_OF_FRAMES NUMBER_OF_BYTES</property>
  <property name="meta.media.2.stream.type">audio</property>
  <property name="meta.media.2.codec.sample_fmt">fltp</property>
  <property name="meta.media.2.codec.sample_rate">48000</property>
  <property name="meta.media.2.codec.channels">6</property>
  <property name="meta.media.2.codec.layout">5.1(side)</property>
  <property name="meta.media.2.codec.name">ac3</property>
  <property name="meta.media.2.codec.long_name">ATSC A/52A (AC-3)</property>
  <property name="meta.media.2.codec.bit_rate">384000</property>
  <property name="meta.attr.2.stream.language.markup">eng</property>
  <property name="meta.attr.2.stream.title.markup">AC3 Eng</property>
  <property name="meta.attr.2.stream.BPS-eng.markup">384000</property>
  <property name="meta.attr.2.stream.DURATION-eng.markup">02:02:18.304000000</property>
  <property name="meta.attr.2.stream.NUMBER_OF_FRAMES-eng.markup">229322</property>
  <property name="meta.attr.2.stream.NUMBER_OF_BYTES-eng.markup">352238592</property>
  <property name="meta.attr.2.stream._STATISTICS_WRITING_APP-eng.markup">mkvmerge v49.0.0 ('Sick Of Losing Soulmates') 64-bit</property>
  <property name="meta.attr.2.stream._STATISTICS_WRITING_DATE_UTC-eng.markup">2022-05-31 19:08:19</property>
  <property name="meta.attr.2.stream._STATISTICS_TAGS-eng.markup">BPS DURATION NUMBER_OF_FRAMES NUMBER_OF_BYTES</property>
  <property name="meta.media.3.codec.name">srt</property>
  <property name="meta.media.3.codec.long_name">SubRip subtitle</property>
  <property name="meta.media.3.codec.bit_rate">0</property>
  <property name="meta.attr.3.stream.language.markup">ita</property>
  <property name="meta.attr.3.stream.title.markup">Forced</property>
  <property name="meta.attr.3.stream.BPS-eng.markup">0</property>
  <property name="meta.attr.3.stream.DURATION-eng.markup">02:01:21.816000000</property>
  <property name="meta.attr.3.stream.NUMBER_OF_FRAMES-eng.markup">25</property>
  <property name="meta.attr.3.stream.NUMBER_OF_BYTES-eng.markup">600</property>
  <property name="meta.attr.3.stream._STATISTICS_WRITING_APP-eng.markup">mkvmerge v49.0.0 ('Sick Of Losing Soulmates') 64-bit</property>
  <property name="meta.attr.3.stream._STATISTICS_WRITING_DATE_UTC-eng.markup">2022-05-31 19:08:19</property>
  <property name="meta.attr.3.stream._STATISTICS_TAGS-eng.markup">BPS DURATION NUMBER_OF_FRAMES NUMBER_OF_BYTES</property>
  <property name="meta.media.4.codec.name">srt</property>
  <property name="meta.media.4.codec.long_name">SubRip subtitle</property>
  <property name="meta.media.4.codec.bit_rate">0</property>
  <property name="meta.attr.4.stream.language.markup">ita</property>
  <property name="meta.attr.4.stream.title.markup">Regular</property>
  <property name="meta.attr.4.stream.BPS-eng.markup">45</property>
  <property name="meta.attr.4.stream.DURATION-eng.markup">02:01:21.816000000</property>
  <property name="meta.attr.4.stream.NUMBER_OF_FRAMES-eng.markup">1376</property>
  <property name="meta.attr.4.stream.NUMBER_OF_BYTES-eng.markup">41271</property>
  <property name="meta.attr.4.stream._STATISTICS_WRITING_APP-eng.markup">mkvmerge v49.0.0 ('Sick Of Losing Soulmates') 64-bit</property>
  <property name="meta.attr.4.stream._STATISTICS_WRITING_DATE_UTC-eng.markup">2022-05-31 19:08:19</property>
  <property name="meta.attr.4.stream._STATISTICS_TAGS-eng.markup">BPS DURATION NUMBER_OF_FRAMES NUMBER_OF_BYTES</property>
  <property name="meta.media.5.codec.name">srt</property>
  <property name="meta.media.5.codec.long_name">SubRip subtitle</property>
  <property name="meta.media.5.codec.bit_rate">0</property>
  <property name="meta.attr.5.stream.language.markup">eng</property>
  <property name="meta.attr.5.stream.title.markup">Forced</property>
  <property name="meta.attr.5.stream.BPS-eng.markup">0</property>
  <property name="meta.attr.5.stream.DURATION-eng.markup">00:42:25.379000000</property>
  <property name="meta.attr.5.stream.NUMBER_OF_FRAMES-eng.markup">7</property>
  <property name="meta.attr.5.stream.NUMBER_OF_BYTES-eng.markup">170</property>
  <property name="meta.attr.5.stream._STATISTICS_WRITING_APP-eng.markup">mkvmerge v49.0.0 ('Sick Of Losing Soulmates') 64-bit</property>
  <property name="meta.attr.5.stream._STATISTICS_WRITING_DATE_UTC-eng.markup">2022-05-31 19:08:19</property>
  <property name="meta.attr.5.stream._STATISTICS_TAGS-eng.markup">BPS DURATION NUMBER_OF_FRAMES NUMBER_OF_BYTES</property>
  <property name="meta.media.6.codec.name">srt</property>
  <property name="meta.media.6.codec.long_name">SubRip subtitle</property>
  <property name="meta.media.6.codec.bit_rate">0</property>
  <property name="meta.attr.6.stream.language.markup">eng</property>
  <property name="meta.attr.6.stream.title.markup">Regular</property>
  <property name="meta.attr.6.stream.BPS-eng.markup">60</property>
  <property name="meta.attr.6.stream.DURATION-eng.markup">01:52:04.859000000</property>
  <property name="meta.attr.6.stream.NUMBER_OF_FRAMES-eng.markup">1647</property>
  <property name="meta.attr.6.stream.NUMBER_OF_BYTES-eng.markup">50781</property>
  <property name="meta.attr.6.stream._STATISTICS_WRITING_APP-eng.markup">mkvmerge v49.0.0 ('Sick Of Losing Soulmates') 64-bit</property>
  <property name="meta.attr.6.stream._STATISTICS_WRITING_DATE_UTC-eng.markup">2022-05-31 19:08:19</property>
  <property name="meta.attr.6.stream._STATISTICS_TAGS-eng.markup">BPS DURATION NUMBER_OF_FRAMES NUMBER_OF_BYTES</property>
  <property name="meta.attr.title.markup">UHD 4K - iDN_CreW</property>
  <property name="meta.attr.encoder.markup">libebml v1.4.0 + libmatroska v1.6.1</property>
  <property name="meta.attr.creation_time.markup">2022-05-31T19:08:19.000000Z</property>
  <property name="meta.media.sample_aspect_num">1</property>
  <property name="meta.media.sample_aspect_den">1</property>
  <property name="meta.media.frame_rate_num">24000</property>
  <property name="meta.media.frame_rate_den">1001</property>
  <property name="meta.media.colorspace">709</property>
  <property name="meta.media.color_trc">1</property>
  <property name="meta.media.has_b_frames">2</property>
  <property name="meta.media.width">3840</property>
  <property name="meta.media.height">1606</property>
  <property name="meta.media.aspect_ratio">1</property>
  <property name="meta.media.color_range">mpeg</property>
  <property name="xml">was here</property>
  <property name="meta.media.top_field_first">0</property>
  <property name="meta.media.progressive">1</property>
  <property name="set.test_audio">0</property>
  <property name="set.test_image">1</property>
 </chain>
 <playlist id="playlist6">
  <property name="kdenlive:audio_track">1</property>
  <entry in="00:00:00.000" out="00:05:48.340" producer="chain18">
   <property name="kdenlive:id">4</property>
  </entry>
  <entry in="00:15:01.418" out="00:15:19.311" producer="chain18">
   <property name="kdenlive:id">4</property>
  </entry>
  <entry in="00:15:40.082" out="00:15:45.462" producer="chain18">
   <property name="kdenlive:id">4</property>
  </entry>
  <entry in="00:16:01.501" out="00:16:06.465" producer="chain18">
   <property name="kdenlive:id">4</property>
  </entry>
  <entry in="00:16:12.679" out="00:16:16.975" producer="chain18">
   <property name="kdenlive:id">4</property>
  </entry>
  <entry in="00:16:24.274" out="00:16:40.374" producer="chain18">
   <property name="kdenlive:id">4</property>
  </entry>
  <entry in="00:17:18.769" out="00:18:55.347" producer="chain18">
   <property name="kdenlive:id">4</property>
  </entry>
  <entry in="00:19:41.625" out="00:19:47.589" producer="chain18">
   <property name="kdenlive:id">4</property>
  </entry>
  <entry in="00:20:53.303" out="00:21:02.878" producer="chain18">
   <property name="kdenlive:id">4</property>
  </entry>
  <entry in="00:21:06.006" out="00:21:29.571" producer="chain18">
   <property name="kdenlive:id">4</property>
  </entry>
  <entry in="00:21:40.290" out="00:23:51.718" producer="chain18">
   <property name="kdenlive:id">4</property>
  </entry>
  <entry in="00:23:55.681" out="00:24:45.879" producer="chain18">
   <property name="kdenlive:id">4</property>
  </entry>
  <entry in="00:25:00.167" out="00:25:23.857" producer="chain18">
   <property name="kdenlive:id">4</property>
  </entry>
  <entry in="00:25:37.162" out="00:25:49.758" producer="chain18">
   <property name="kdenlive:id">4</property>
  </entry>
  <entry in="00:26:04.129" out="00:26:35.786" producer="chain18">
   <property name="kdenlive:id">4</property>
  </entry>
  <entry in="00:26:39.498" out="00:26:47.422" producer="chain18">
   <property name="kdenlive:id">4</property>
  </entry>
  <entry in="00:26:50.008" out="00:26:55.097" producer="chain18">
   <property name="kdenlive:id">4</property>
  </entry>
  <entry in="00:26:59.977" out="00:27:15.766" producer="chain18">
   <property name="kdenlive:id">4</property>
  </entry>
  <entry in="00:27:19.728" out="00:27:21.980" producer="chain18">
   <property name="kdenlive:id">4</property>
  </entry>
  <entry in="00:27:33.116" out="00:30:49.591" producer="chain18">
   <property name="kdenlive:id">4</property>
  </entry>
  <entry in="00:30:49.633" out="00:30:51.677" producer="chain18">
   <property name="kdenlive:id">4</property>
  </entry>
  <entry in="00:30:55.430" out="00:32:13.222" producer="chain18">
   <property name="kdenlive:id">4</property>
  </entry>
  <entry in="00:34:14.348" out="00:34:23.232" producer="chain18">
   <property name="kdenlive:id">4</property>
  </entry>
  <entry in="00:34:35.452" out="00:34:38.538" producer="chain18">
   <property name="kdenlive:id">4</property>
  </entry>
  <entry in="00:35:00.792" out="00:35:50.384" producer="chain18">
   <property name="kdenlive:id">4</property>
  </entry>
  <entry in="00:35:59.351" out="00:36:24.608" producer="chain18">
   <property name="kdenlive:id">4</property>
  </entry>
  <entry in="00:40:34.201" out="00:40:39.373" producer="chain18">
   <property name="kdenlive:id">4</property>
  </entry>
  <entry in="00:40:45.921" out="00:40:46.088" producer="chain18">
   <property name="kdenlive:id">4</property>
  </entry>
  <entry in="00:40:46.129" out="00:42:06.673" producer="chain18">
   <property name="kdenlive:id">4</property>
  </entry>
  <entry in="00:50:04.296" out="00:50:09.468" producer="chain18">
   <property name="kdenlive:id">4</property>
  </entry>
  <entry in="00:50:16.975" out="00:50:38.914" producer="chain18">
   <property name="kdenlive:id">4</property>
  </entry>
  <entry in="00:50:45.712" out="00:51:41.708" producer="chain18">
   <property name="kdenlive:id">4</property>
  </entry>
  <entry in="00:51:49.466" out="00:51:53.053" producer="chain18">
   <property name="kdenlive:id">4</property>
  </entry>
  <entry in="00:51:57.474" out="00:53:25.525" producer="chain18">
   <property name="kdenlive:id">4</property>
  </entry>
  <entry in="00:53:41.250" out="00:54:15.182" producer="chain18">
   <property name="kdenlive:id">4</property>
  </entry>
  <entry in="00:54:16.934" out="00:54:32.032" producer="chain18">
   <property name="kdenlive:id">4</property>
  </entry>
  <entry in="00:54:33.450" out="00:55:12.638" producer="chain18">
   <property name="kdenlive:id">4</property>
  </entry>
  <entry in="00:55:44.753" out="00:55:46.046" producer="chain18">
   <property name="kdenlive:id">4</property>
  </entry>
  <entry in="00:55:47.798" out="00:55:48.924" producer="chain18">
   <property name="kdenlive:id">4</property>
  </entry>
  <entry in="00:55:48.966" out="00:55:55.138" producer="chain18">
   <property name="kdenlive:id">4</property>
  </entry>
  <entry in="00:55:58.141" out="00:56:01.460" producer="chain18">
   <property name="kdenlive:id">4</property>
  </entry>
  <entry in="00:56:09.509" out="00:56:32.950" producer="chain18">
   <property name="kdenlive:id">4</property>
  </entry>
  <entry in="00:57:14.681" out="00:57:18.644" producer="chain18">
   <property name="kdenlive:id">4</property>
  </entry>
  <entry in="00:57:18.685" out="00:57:19.978" producer="chain18">
   <property name="kdenlive:id">4</property>
  </entry>
  <entry in="00:57:23.440" out="00:58:52.970" producer="chain18">
   <property name="kdenlive:id">4</property>
  </entry>
  <entry in="00:59:29.696" out="00:59:31.281" producer="chain18">
   <property name="kdenlive:id">4</property>
  </entry>
  <entry in="00:59:31.323" out="00:59:33.200" producer="chain18">
   <property name="kdenlive:id">4</property>
  </entry>
  <entry in="00:59:34.159" out="00:59:37.496" producer="chain18">
   <property name="kdenlive:id">4</property>
  </entry>
  <entry in="00:59:42.167" out="01:00:20.729" producer="chain18">
   <property name="kdenlive:id">4</property>
  </entry>
  <entry in="01:00:26.026" out="01:00:45.587" producer="chain18">
   <property name="kdenlive:id">4</property>
  </entry>
  <entry in="01:00:59.518" out="01:01:00.375" producer="chain18">
   <property name="kdenlive:id">4</property>
  </entry>
  <entry in="01:01:03.045" out="01:02:09.176" producer="chain18">
   <property name="kdenlive:id">4</property>
  </entry>
  <entry in="01:02:17.017" out="01:02:28.779" producer="chain18">
   <property name="kdenlive:id">4</property>
  </entry>
  <blank length="00:00:00.125"/>
  <entry in="01:02:28.946" out="01:02:30.364" producer="chain18">
   <property name="kdenlive:id">4</property>
  </entry>
  <entry in="01:04:20.062" out="01:04:24.274" producer="chain18">
   <property name="kdenlive:id">4</property>
  </entry>
  <entry in="01:04:24.316" out="01:04:31.740" producer="chain18">
   <property name="kdenlive:id">4</property>
  </entry>
  <entry in="01:04:37.079" out="01:05:02.461" producer="chain18">
   <property name="kdenlive:id">4</property>
  </entry>
  <entry in="01:05:41.124" out="01:05:48.423" producer="chain18">
   <property name="kdenlive:id">4</property>
  </entry>
  <entry in="01:06:00.042" out="01:06:02.836" producer="chain18">
   <property name="kdenlive:id">4</property>
  </entry>
  <entry in="01:06:30.948" out="01:07:08.800" producer="chain18">
   <property name="kdenlive:id">4</property>
  </entry>
  <entry in="01:10:43.835" out="01:11:06.298" producer="chain18">
   <property name="kdenlive:id">4</property>
  </entry>
  <entry in="01:11:09.968" out="01:12:26.401" producer="chain18">
   <property name="kdenlive:id">4</property>
  </entry>
  <entry in="01:12:28.153" out="01:12:40.165" producer="chain18">
   <property name="kdenlive:id">4</property>
  </entry>
  <entry in="01:12:40.207" out="01:12:44.795" producer="chain18">
   <property name="kdenlive:id">4</property>
  </entry>
  <entry in="01:13:07.883" out="01:13:33.408" producer="chain18">
   <property name="kdenlive:id">4</property>
  </entry>
  <entry in="01:14:56.598" out="01:21:39.039" producer="chain18">
   <property name="kdenlive:id">4</property>
  </entry>
  <entry in="01:21:48.674" out="01:22:19.645" producer="chain18">
   <property name="kdenlive:id">4</property>
  </entry>
  <entry in="01:22:24.358" out="01:23:51.009" producer="chain18">
   <property name="kdenlive:id">4</property>
  </entry>
  <entry in="01:23:52.886" out="01:23:54.763" producer="chain18">
   <property name="kdenlive:id">4</property>
  </entry>
  <entry in="01:25:06.965" out="01:25:10.469" producer="chain18">
   <property name="kdenlive:id">4</property>
  </entry>
  <entry in="01:26:03.503" out="01:26:05.505" producer="chain18">
   <property name="kdenlive:id">4</property>
  </entry>
  <entry in="01:26:12.387" out="01:26:17.768" producer="chain18">
   <property name="kdenlive:id">4</property>
  </entry>
  <entry in="01:27:27.194" out="01:28:05.005" producer="chain18">
   <property name="kdenlive:id">4</property>
  </entry>
  <entry in="01:28:08.467" out="01:28:36.161" producer="chain18">
   <property name="kdenlive:id">4</property>
  </entry>
  <entry in="01:28:38.914" out="01:29:04.963" producer="chain18">
   <property name="kdenlive:id">4</property>
  </entry>
  <entry in="01:29:06.256" out="01:29:41.541" producer="chain18">
   <property name="kdenlive:id">4</property>
  </entry>
  <entry in="01:29:49.299" out="01:32:01.627" producer="chain18">
   <property name="kdenlive:id">4</property>
  </entry>
  <entry in="01:32:26.276" out="01:33:13.222" producer="chain18">
   <property name="kdenlive:id">4</property>
  </entry>
  <entry in="01:33:18.894" out="01:33:42.542" producer="chain18">
   <property name="kdenlive:id">4</property>
  </entry>
  <entry in="01:33:57.015" out="01:34:04.254" producer="chain18">
   <property name="kdenlive:id">4</property>
  </entry>
  <entry in="01:34:09.885" out="01:34:32.574" producer="chain18">
   <property name="kdenlive:id">4</property>
  </entry>
  <entry in="01:34:37.496" out="01:36:07.507" producer="chain18">
   <property name="kdenlive:id">4</property>
  </entry>
  <entry in="01:36:36.620" out="01:36:46.838" producer="chain18">
   <property name="kdenlive:id">4</property>
  </entry>
  <entry in="01:36:53.011" out="01:36:54.930" producer="chain18">
   <property name="kdenlive:id">4</property>
  </entry>
  <entry in="01:37:04.254" out="01:37:09.593" producer="chain18">
   <property name="kdenlive:id">4</property>
  </entry>
  <entry in="01:37:14.056" out="01:37:16.892" producer="chain18">
   <property name="kdenlive:id">4</property>
  </entry>
  <entry in="01:37:16.934" out="01:37:17.392" producer="chain18">
   <property name="kdenlive:id">4</property>
  </entry>
  <entry in="01:37:37.287" out="01:37:37.329" producer="chain18">
   <property name="kdenlive:id">4</property>
  </entry>
  <entry in="01:37:41.833" out="01:37:42.709" producer="chain18">
   <property name="kdenlive:id">4</property>
  </entry>
  <entry in="01:37:35.535" out="01:37:41.792" producer="chain18">
   <property name="kdenlive:id">4</property>
  </entry>
  <entry in="01:37:42.918" out="01:37:53.804" producer="chain18">
   <property name="kdenlive:id">4</property>
  </entry>
  <entry in="01:37:57.224" out="01:37:58.642" producer="chain18">
   <property name="kdenlive:id">4</property>
  </entry>
  <entry in="01:38:05.005" out="01:38:58.850" producer="chain18">
   <property name="kdenlive:id">4</property>
  </entry>
  <entry in="01:39:01.126" out="01:40:02.794" producer="chain18">
   <property name="kdenlive:id">4</property>
  </entry>
  <entry in="01:40:08.425" out="01:40:54.471" producer="chain18">
   <property name="kdenlive:id">4</property>
  </entry>
  <entry in="01:41:04.338" out="01:41:10.761" producer="chain18">
   <property name="kdenlive:id">4</property>
  </entry>
  <entry in="01:41:14.264" out="01:42:35.202" producer="chain18">
   <property name="kdenlive:id">4</property>
  </entry>
  <entry in="01:42:39.498" out="01:42:45.212" producer="chain18">
   <property name="kdenlive:id">4</property>
  </entry>
  <entry in="01:42:35.244" out="01:42:39.456" producer="chain18">
   <property name="kdenlive:id">4</property>
  </entry>
  <entry in="01:43:02.169" out="01:45:39.456" producer="chain18">
   <property name="kdenlive:id">4</property>
  </entry>
  <entry in="01:45:51.260" out="01:46:11.553" producer="chain18">
   <property name="kdenlive:id">4</property>
  </entry>
  <entry in="01:46:22.105" out="01:46:41.416" producer="chain18">
   <property name="kdenlive:id">4</property>
  </entry>
  <entry in="01:47:13.764" out="01:47:29.154" producer="chain18">
   <property name="kdenlive:id">4</property>
  </entry>
  <entry in="01:47:47.381" out="01:47:52.177" producer="chain18">
   <property name="kdenlive:id">4</property>
  </entry>
  <entry in="01:47:56.848" out="01:48:37.871" producer="chain18">
   <property name="kdenlive:id">4</property>
  </entry>
  <entry in="01:49:13.096" out="01:49:17.809" producer="chain18">
   <property name="kdenlive:id">4</property>
  </entry>
  <entry in="01:49:19.353" out="01:49:46.713" producer="chain18">
   <property name="kdenlive:id">4</property>
  </entry>
  <entry in="01:49:59.268" out="01:50:26.235" producer="chain18">
   <property name="kdenlive:id">4</property>
  </entry>
  <entry in="01:50:33.909" out="01:50:43.085" producer="chain18">
   <property name="kdenlive:id">4</property>
  </entry>
  <entry in="01:50:43.126" out="01:51:01.210" producer="chain18">
   <property name="kdenlive:id">4</property>
  </entry>
  <blank length="00:01:38.372"/>
  <entry in="01:53:04.129" out="01:53:50.717" producer="chain18">
   <property name="kdenlive:id">4</property>
  </entry>
 </playlist>
 <playlist id="playlist7">
  <property name="kdenlive:audio_track">1</property>
 </playlist>
 <tractor id="tractor3" in="00:00:00.000" out="01:03:21.980">
  <property name="kdenlive:audio_track">1</property>
  <property name="kdenlive:trackheight">84</property>
  <property name="kdenlive:timeline_active">1</property>
  <property name="kdenlive:collapsed">32</property>
  <property name="kdenlive:thumbs_format"/>
  <property name="kdenlive:audio_rec"/>
  <track hide="both" producer="playlist6"/>
  <track hide="both" producer="playlist7"/>
  <filter id="filter16">
   <property name="window">75</property>
   <property name="max_gain">20dB</property>
   <property name="mlt_service">volume</property>
   <property name="internal_added">237</property>
   <property name="disable">1</property>
  </filter>
  <filter id="filter17">
   <property name="channel">-1</property>
   <property name="mlt_service">panner</property>
   <property name="internal_added">237</property>
   <property name="start">0.5</property>
   <property name="disable">1</property>
  </filter>
  <filter id="filter18">
   <property name="iec_scale">0</property>
   <property name="mlt_service">audiolevel</property>
   <property name="dbpeak">1</property>
   <property name="disable">1</property>
  </filter>
 </tractor>
 <chain id="chain20" out="02:04:23.941">
  <property name="length">178956</property>
  <property name="eof">pause</property>
  <property name="resource">N:/Videos/Kids Movies/Sonic/Sonic 2022/Sonic 2 Il Film (2023) 2160p 4K H265 10 Bit WEB-DL iTA ENG AC3 5.1 Sub Ita Eng - iDN_CreW.mkv</property>
  <property name="mlt_service">avformat-novalidate</property>
  <property name="seekable">1</property>
  <property name="audio_index">1</property>
  <property name="video_index">0</property>
  <property name="vstream">0</property>
  <property name="astream">0</property>
  <property name="kdenlive:control_uuid">{8662ceb9-f96f-4607-812c-ea78d123d3ef}</property>
  <property name="kdenlive:id">4</property>
  <property name="kdenlive:clip_type">0</property>
  <property name="kdenlive:file_size">6455506204</property>
  <property name="kdenlive:file_hash">c805e36cb967f0098696aec55aa79048</property>
  <property name="kdenlive:folderid">-1</property>
  <property name="meta.media.nb_streams">7</property>
  <property name="meta.media.0.stream.type">video</property>
  <property name="meta.media.0.stream.frame_rate">23.976</property>
  <property name="meta.media.0.stream.sample_aspect_ratio">1</property>
  <property name="meta.media.0.codec.width">3840</property>
  <property name="meta.media.0.codec.height">1606</property>
  <property name="meta.media.0.codec.rotate">0</property>
  <property name="meta.media.0.codec.pix_fmt">yuv420p10le</property>
  <property name="meta.media.0.codec.sample_aspect_ratio">1</property>
  <property name="meta.media.0.codec.colorspace">709</property>
  <property name="meta.media.0.codec.color_trc">1</property>
  <property name="meta.media.0.codec.name">hevc</property>
  <property name="meta.media.0.codec.long_name">HEVC (High Efficiency Video Coding)</property>
  <property name="meta.media.0.codec.bit_rate">0</property>
  <property name="meta.attr.0.stream.BPS-eng.markup">6000404</property>
  <property name="meta.attr.0.stream.DURATION-eng.markup">02:02:18.123000000</property>
  <property name="meta.attr.0.stream.NUMBER_OF_FRAMES-eng.markup">175939</property>
  <property name="meta.attr.0.stream.NUMBER_OF_BYTES-eng.markup">5503962903</property>
  <property name="meta.attr.0.stream._STATISTICS_WRITING_APP-eng.markup">mkvmerge v49.0.0 ('Sick Of Losing Soulmates') 64-bit</property>
  <property name="meta.attr.0.stream._STATISTICS_WRITING_DATE_UTC-eng.markup">2022-05-31 19:08:19</property>
  <property name="meta.attr.0.stream._STATISTICS_TAGS-eng.markup">BPS DURATION NUMBER_OF_FRAMES NUMBER_OF_BYTES</property>
  <property name="meta.media.1.stream.type">audio</property>
  <property name="meta.media.1.codec.sample_fmt">fltp</property>
  <property name="meta.media.1.codec.sample_rate">48000</property>
  <property name="meta.media.1.codec.channels">6</property>
  <property name="meta.media.1.codec.layout">5.1(side)</property>
  <property name="meta.media.1.codec.name">ac3</property>
  <property name="meta.media.1.codec.long_name">ATSC A/52A (AC-3)</property>
  <property name="meta.media.1.codec.bit_rate">640000</property>
  <property name="meta.attr.1.stream.language.markup">ita</property>
  <property name="meta.attr.1.stream.title.markup">AC3 iTA</property>
  <property name="meta.attr.1.stream.BPS-eng.markup">640000</property>
  <property name="meta.attr.1.stream.DURATION-eng.markup">02:04:23.968000000</property>
  <property name="meta.attr.1.stream.NUMBER_OF_FRAMES-eng.markup">233249</property>
  <property name="meta.attr.1.stream.NUMBER_OF_BYTES-eng.markup">597117440</property>
  <property name="meta.attr.1.stream._STATISTICS_WRITING_APP-eng.markup">mkvmerge v49.0.0 ('Sick Of Losing Soulmates') 64-bit</property>
  <property name="meta.attr.1.stream._STATISTICS_WRITING_DATE_UTC-eng.markup">2022-05-31 19:08:19</property>
  <property name="meta.attr.1.stream._STATISTICS_TAGS-eng.markup">BPS DURATION NUMBER_OF_FRAMES NUMBER_OF_BYTES</property>
  <property name="meta.media.2.stream.type">audio</property>
  <property name="meta.media.2.codec.sample_fmt">fltp</property>
  <property name="meta.media.2.codec.sample_rate">48000</property>
  <property name="meta.media.2.codec.channels">6</property>
  <property name="meta.media.2.codec.layout">5.1(side)</property>
  <property name="meta.media.2.codec.name">ac3</property>
  <property name="meta.media.2.codec.long_name">ATSC A/52A (AC-3)</property>
  <property name="meta.media.2.codec.bit_rate">384000</property>
  <property name="meta.attr.2.stream.language.markup">eng</property>
  <property name="meta.attr.2.stream.title.markup">AC3 Eng</property>
  <property name="meta.attr.2.stream.BPS-eng.markup">384000</property>
  <property name="meta.attr.2.stream.DURATION-eng.markup">02:02:18.304000000</property>
  <property name="meta.attr.2.stream.NUMBER_OF_FRAMES-eng.markup">229322</property>
  <property name="meta.attr.2.stream.NUMBER_OF_BYTES-eng.markup">352238592</property>
  <property name="meta.attr.2.stream._STATISTICS_WRITING_APP-eng.markup">mkvmerge v49.0.0 ('Sick Of Losing Soulmates') 64-bit</property>
  <property name="meta.attr.2.stream._STATISTICS_WRITING_DATE_UTC-eng.markup">2022-05-31 19:08:19</property>
  <property name="meta.attr.2.stream._STATISTICS_TAGS-eng.markup">BPS DURATION NUMBER_OF_FRAMES NUMBER_OF_BYTES</property>
  <property name="meta.media.3.codec.name">srt</property>
  <property name="meta.media.3.codec.long_name">SubRip subtitle</property>
  <property name="meta.media.3.codec.bit_rate">0</property>
  <property name="meta.attr.3.stream.language.markup">ita</property>
  <property name="meta.attr.3.stream.title.markup">Forced</property>
  <property name="meta.attr.3.stream.BPS-eng.markup">0</property>
  <property name="meta.attr.3.stream.DURATION-eng.markup">02:01:21.816000000</property>
  <property name="meta.attr.3.stream.NUMBER_OF_FRAMES-eng.markup">25</property>
  <property name="meta.attr.3.stream.NUMBER_OF_BYTES-eng.markup">600</property>
  <property name="meta.attr.3.stream._STATISTICS_WRITING_APP-eng.markup">mkvmerge v49.0.0 ('Sick Of Losing Soulmates') 64-bit</property>
  <property name="meta.attr.3.stream._STATISTICS_WRITING_DATE_UTC-eng.markup">2022-05-31 19:08:19</property>
  <property name="meta.attr.3.stream._STATISTICS_TAGS-eng.markup">BPS DURATION NUMBER_OF_FRAMES NUMBER_OF_BYTES</property>
  <property name="meta.media.4.codec.name">srt</property>
  <property name="meta.media.4.codec.long_name">SubRip subtitle</property>
  <property name="meta.media.4.codec.bit_rate">0</property>
  <property name="meta.attr.4.stream.language.markup">ita</property>
  <property name="meta.attr.4.stream.title.markup">Regular</property>
  <property name="meta.attr.4.stream.BPS-eng.markup">45</property>
  <property name="meta.attr.4.stream.DURATION-eng.markup">02:01:21.816000000</property>
  <property name="meta.attr.4.stream.NUMBER_OF_FRAMES-eng.markup">1376</property>
  <property name="meta.attr.4.stream.NUMBER_OF_BYTES-eng.markup">41271</property>
  <property name="meta.attr.4.stream._STATISTICS_WRITING_APP-eng.markup">mkvmerge v49.0.0 ('Sick Of Losing Soulmates') 64-bit</property>
  <property name="meta.attr.4.stream._STATISTICS_WRITING_DATE_UTC-eng.markup">2022-05-31 19:08:19</property>
  <property name="meta.attr.4.stream._STATISTICS_TAGS-eng.markup">BPS DURATION NUMBER_OF_FRAMES NUMBER_OF_BYTES</property>
  <property name="meta.media.5.codec.name">srt</property>
  <property name="meta.media.5.codec.long_name">SubRip subtitle</property>
  <property name="meta.media.5.codec.bit_rate">0</property>
  <property name="meta.attr.5.stream.language.markup">eng</property>
  <property name="meta.attr.5.stream.title.markup">Forced</property>
  <property name="meta.attr.5.stream.BPS-eng.markup">0</property>
  <property name="meta.attr.5.stream.DURATION-eng.markup">00:42:25.379000000</property>
  <property name="meta.attr.5.stream.NUMBER_OF_FRAMES-eng.markup">7</property>
  <property name="meta.attr.5.stream.NUMBER_OF_BYTES-eng.markup">170</property>
  <property name="meta.attr.5.stream._STATISTICS_WRITING_APP-eng.markup">mkvmerge v49.0.0 ('Sick Of Losing Soulmates') 64-bit</property>
  <property name="meta.attr.5.stream._STATISTICS_WRITING_DATE_UTC-eng.markup">2022-05-31 19:08:19</property>
  <property name="meta.attr.5.stream._STATISTICS_TAGS-eng.markup">BPS DURATION NUMBER_OF_FRAMES NUMBER_OF_BYTES</property>
  <property name="meta.media.6.codec.name">srt</property>
  <property name="meta.media.6.codec.long_name">SubRip subtitle</property>
  <property name="meta.media.6.codec.bit_rate">0</property>
  <property name="meta.attr.6.stream.language.markup">eng</property>
  <property name="meta.attr.6.stream.title.markup">Regular</property>
  <property name="meta.attr.6.stream.BPS-eng.markup">60</property>
  <property name="meta.attr.6.stream.DURATION-eng.markup">01:52:04.859000000</property>
  <property name="meta.attr.6.stream.NUMBER_OF_FRAMES-eng.markup">1647</property>
  <property name="meta.attr.6.stream.NUMBER_OF_BYTES-eng.markup">50781</property>
  <property name="meta.attr.6.stream._STATISTICS_WRITING_APP-eng.markup">mkvmerge v49.0.0 ('Sick Of Losing Soulmates') 64-bit</property>
  <property name="meta.attr.6.stream._STATISTICS_WRITING_DATE_UTC-eng.markup">2022-05-31 19:08:19</property>
  <property name="meta.attr.6.stream._STATISTICS_TAGS-eng.markup">BPS DURATION NUMBER_OF_FRAMES NUMBER_OF_BYTES</property>
  <property name="meta.attr.title.markup">UHD 4K - iDN_CreW</property>
  <property name="meta.attr.encoder.markup">libebml v1.4.0 + libmatroska v1.6.1</property>
  <property name="meta.attr.creation_time.markup">2022-05-31T19:08:19.000000Z</property>
  <property name="meta.media.sample_aspect_num">1</property>
  <property name="meta.media.sample_aspect_den">1</property>
  <property name="meta.media.frame_rate_num">24000</property>
  <property name="meta.media.frame_rate_den">1001</property>
  <property name="meta.media.colorspace">709</property>
  <property name="meta.media.color_trc">1</property>
  <property name="meta.media.has_b_frames">2</property>
  <property name="meta.media.width">3840</property>
  <property name="meta.media.height">1606</property>
  <property name="meta.media.aspect_ratio">1</property>
  <property name="meta.media.color_range">mpeg</property>
  <property name="xml">was here</property>
  <property name="mute_on_pause">0</property>
  <property name="meta.media.top_field_first">0</property>
  <property name="meta.media.progressive">1</property>
  <property name="set.test_audio">1</property>
  <property name="set.test_image">0</property>
 </chain>
 <producer id="producer1" in="00:00:00.000" out="01:45:25.108">
  <property name="length">151658</property>
  <property name="eof">pause</property>
  <property name="resource">1.180000:N:/Videos/Kids Movies/Sonic/Sonic 2022/Sonic 2 Il Film (2023) 2160p 4K H265 10 Bit WEB-DL iTA ENG AC3 5.1 Sub Ita Eng - iDN_CreW.mkv</property>
  <property name="aspect_ratio">1</property>
  <property name="meta.media.nb_streams">7</property>
  <property name="meta.media.0.stream.type">video</property>
  <property name="meta.media.0.stream.frame_rate">23.976</property>
  <property name="meta.media.0.stream.sample_aspect_ratio">1</property>
  <property name="meta.media.0.codec.width">3840</property>
  <property name="meta.media.0.codec.height">1606</property>
  <property name="meta.media.0.codec.rotate">0</property>
  <property name="meta.media.0.codec.pix_fmt">yuv420p10le</property>
  <property name="meta.media.0.codec.sample_aspect_ratio">1</property>
  <property name="meta.media.0.codec.colorspace">709</property>
  <property name="meta.media.0.codec.color_trc">1</property>
  <property name="meta.media.0.codec.name">hevc</property>
  <property name="meta.media.0.codec.long_name">HEVC (High Efficiency Video Coding)</property>
  <property name="meta.media.0.codec.bit_rate">0</property>
  <property name="meta.attr.0.stream.BPS-eng.markup">6000404</property>
  <property name="meta.attr.0.stream.DURATION-eng.markup">02:02:18.123000000</property>
  <property name="meta.attr.0.stream.NUMBER_OF_FRAMES-eng.markup">175939</property>
  <property name="meta.attr.0.stream.NUMBER_OF_BYTES-eng.markup">5503962903</property>
  <property name="meta.attr.0.stream._STATISTICS_WRITING_APP-eng.markup">mkvmerge v49.0.0 ('Sick Of Losing Soulmates') 64-bit</property>
  <property name="meta.attr.0.stream._STATISTICS_WRITING_DATE_UTC-eng.markup">2022-05-31 19:08:19</property>
  <property name="meta.attr.0.stream._STATISTICS_TAGS-eng.markup">BPS DURATION NUMBER_OF_FRAMES NUMBER_OF_BYTES</property>
  <property name="meta.media.1.stream.type">audio</property>
  <property name="meta.media.1.codec.sample_fmt">fltp</property>
  <property name="meta.media.1.codec.sample_rate">48000</property>
  <property name="meta.media.1.codec.channels">6</property>
  <property name="meta.media.1.codec.layout">5.1(side)</property>
  <property name="meta.media.1.codec.name">ac3</property>
  <property name="meta.media.1.codec.long_name">ATSC A/52A (AC-3)</property>
  <property name="meta.media.1.codec.bit_rate">640000</property>
  <property name="meta.attr.1.stream.language.markup">ita</property>
  <property name="meta.attr.1.stream.title.markup">AC3 iTA</property>
  <property name="meta.attr.1.stream.BPS-eng.markup">640000</property>
  <property name="meta.attr.1.stream.DURATION-eng.markup">02:04:23.968000000</property>
  <property name="meta.attr.1.stream.NUMBER_OF_FRAMES-eng.markup">233249</property>
  <property name="meta.attr.1.stream.NUMBER_OF_BYTES-eng.markup">597117440</property>
  <property name="meta.attr.1.stream._STATISTICS_WRITING_APP-eng.markup">mkvmerge v49.0.0 ('Sick Of Losing Soulmates') 64-bit</property>
  <property name="meta.attr.1.stream._STATISTICS_WRITING_DATE_UTC-eng.markup">2022-05-31 19:08:19</property>
  <property name="meta.attr.1.stream._STATISTICS_TAGS-eng.markup">BPS DURATION NUMBER_OF_FRAMES NUMBER_OF_BYTES</property>
  <property name="meta.media.2.stream.type">audio</property>
  <property name="meta.media.2.codec.sample_fmt">fltp</property>
  <property name="meta.media.2.codec.sample_rate">48000</property>
  <property name="meta.media.2.codec.channels">6</property>
  <property name="meta.media.2.codec.layout">5.1(side)</property>
  <property name="meta.media.2.codec.name">ac3</property>
  <property name="meta.media.2.codec.long_name">ATSC A/52A (AC-3)</property>
  <property name="meta.media.2.codec.bit_rate">384000</property>
  <property name="meta.attr.2.stream.language.markup">eng</property>
  <property name="meta.attr.2.stream.title.markup">AC3 Eng</property>
  <property name="meta.attr.2.stream.BPS-eng.markup">384000</property>
  <property name="meta.attr.2.stream.DURATION-eng.markup">02:02:18.304000000</property>
  <property name="meta.attr.2.stream.NUMBER_OF_FRAMES-eng.markup">229322</property>
  <property name="meta.attr.2.stream.NUMBER_OF_BYTES-eng.markup">352238592</property>
  <property name="meta.attr.2.stream._STATISTICS_WRITING_APP-eng.markup">mkvmerge v49.0.0 ('Sick Of Losing Soulmates') 64-bit</property>
  <property name="meta.attr.2.stream._STATISTICS_WRITING_DATE_UTC-eng.markup">2022-05-31 19:08:19</property>
  <property name="meta.attr.2.stream._STATISTICS_TAGS-eng.markup">BPS DURATION NUMBER_OF_FRAMES NUMBER_OF_BYTES</property>
  <property name="meta.media.3.codec.name">srt</property>
  <property name="meta.media.3.codec.long_name">SubRip subtitle</property>
  <property name="meta.media.3.codec.bit_rate">0</property>
  <property name="meta.attr.3.stream.language.markup">ita</property>
  <property name="meta.attr.3.stream.title.markup">Forced</property>
  <property name="meta.attr.3.stream.BPS-eng.markup">0</property>
  <property name="meta.attr.3.stream.DURATION-eng.markup">02:01:21.816000000</property>
  <property name="meta.attr.3.stream.NUMBER_OF_FRAMES-eng.markup">25</property>
  <property name="meta.attr.3.stream.NUMBER_OF_BYTES-eng.markup">600</property>
  <property name="meta.attr.3.stream._STATISTICS_WRITING_APP-eng.markup">mkvmerge v49.0.0 ('Sick Of Losing Soulmates') 64-bit</property>
  <property name="meta.attr.3.stream._STATISTICS_WRITING_DATE_UTC-eng.markup">2022-05-31 19:08:19</property>
  <property name="meta.attr.3.stream._STATISTICS_TAGS-eng.markup">BPS DURATION NUMBER_OF_FRAMES NUMBER_OF_BYTES</property>
  <property name="meta.media.4.codec.name">srt</property>
  <property name="meta.media.4.codec.long_name">SubRip subtitle</property>
  <property name="meta.media.4.codec.bit_rate">0</property>
  <property name="meta.attr.4.stream.language.markup">ita</property>
  <property name="meta.attr.4.stream.title.markup">Regular</property>
  <property name="meta.attr.4.stream.BPS-eng.markup">45</property>
  <property name="meta.attr.4.stream.DURATION-eng.markup">02:01:21.816000000</property>
  <property name="meta.attr.4.stream.NUMBER_OF_FRAMES-eng.markup">1376</property>
  <property name="meta.attr.4.stream.NUMBER_OF_BYTES-eng.markup">41271</property>
  <property name="meta.attr.4.stream._STATISTICS_WRITING_APP-eng.markup">mkvmerge v49.0.0 ('Sick Of Losing Soulmates') 64-bit</property>
  <property name="meta.attr.4.stream._STATISTICS_WRITING_DATE_UTC-eng.markup">2022-05-31 19:08:19</property>
  <property name="meta.attr.4.stream._STATISTICS_TAGS-eng.markup">BPS DURATION NUMBER_OF_FRAMES NUMBER_OF_BYTES</property>
  <property name="meta.media.5.codec.name">srt</property>
  <property name="meta.media.5.codec.long_name">SubRip subtitle</property>
  <property name="meta.media.5.codec.bit_rate">0</property>
  <property name="meta.attr.5.stream.language.markup">eng</property>
  <property name="meta.attr.5.stream.title.markup">Forced</property>
  <property name="meta.attr.5.stream.BPS-eng.markup">0</property>
  <property name="meta.attr.5.stream.DURATION-eng.markup">00:42:25.379000000</property>
  <property name="meta.attr.5.stream.NUMBER_OF_FRAMES-eng.markup">7</property>
  <property name="meta.attr.5.stream.NUMBER_OF_BYTES-eng.markup">170</property>
  <property name="meta.attr.5.stream._STATISTICS_WRITING_APP-eng.markup">mkvmerge v49.0.0 ('Sick Of Losing Soulmates') 64-bit</property>
  <property name="meta.attr.5.stream._STATISTICS_WRITING_DATE_UTC-eng.markup">2022-05-31 19:08:19</property>
  <property name="meta.attr.5.stream._STATISTICS_TAGS-eng.markup">BPS DURATION NUMBER_OF_FRAMES NUMBER_OF_BYTES</property>
  <property name="meta.media.6.codec.name">srt</property>
  <property name="meta.media.6.codec.long_name">SubRip subtitle</property>
  <property name="meta.media.6.codec.bit_rate">0</property>
  <property name="meta.attr.6.stream.language.markup">eng</property>
  <property name="meta.attr.6.stream.title.markup">Regular</property>
  <property name="meta.attr.6.stream.BPS-eng.markup">60</property>
  <property name="meta.attr.6.stream.DURATION-eng.markup">01:52:04.859000000</property>
  <property name="meta.attr.6.stream.NUMBER_OF_FRAMES-eng.markup">1647</property>
  <property name="meta.attr.6.stream.NUMBER_OF_BYTES-eng.markup">50781</property>
  <property name="meta.attr.6.stream._STATISTICS_WRITING_APP-eng.markup">mkvmerge v49.0.0 ('Sick Of Losing Soulmates') 64-bit</property>
  <property name="meta.attr.6.stream._STATISTICS_WRITING_DATE_UTC-eng.markup">2022-05-31 19:08:19</property>
  <property name="meta.attr.6.stream._STATISTICS_TAGS-eng.markup">BPS DURATION NUMBER_OF_FRAMES NUMBER_OF_BYTES</property>
  <property name="meta.attr.title.markup">UHD 4K - iDN_CreW</property>
  <property name="meta.attr.encoder.markup">libebml v1.4.0 + libmatroska v1.6.1</property>
  <property name="meta.attr.creation_time.markup">2022-05-31T19:08:19.000000Z</property>
  <property name="seekable">1</property>
  <property name="meta.media.sample_aspect_num">1</property>
  <property name="meta.media.sample_aspect_den">1</property>
  <property name="audio_index">1</property>
  <property name="video_index">0</property>
  <property name="warp_speed">1.18</property>
  <property name="warp_resource">N:/Videos/Kids Movies/Sonic/Sonic 2022/Sonic 2 Il Film (2023) 2160p 4K H265 10 Bit WEB-DL iTA ENG AC3 5.1 Sub Ita Eng - iDN_CreW.mkv</property>
  <property name="mlt_service">timewarp</property>
  <property name="kdenlive:control_uuid">{8662ceb9-f96f-4607-812c-ea78d123d3ef}</property>
  <property name="vstream">0</property>
  <property name="astream">0</property>
  <property name="kdenlive:markers">[
]
</property>
  <property name="set.test_audio">1</property>
  <property name="set.test_image">0</property>
  <property name="kdenlive:id">4</property>
  <property name="warp_pitch">0</property>
  <property name="meta.media.frame_rate_num">24000</property>
  <property name="meta.media.frame_rate_den">1001</property>
  <property name="meta.media.colorspace">709</property>
  <property name="meta.media.color_trc">1</property>
  <property name="meta.media.has_b_frames">2</property>
  <property name="meta.media.width">3840</property>
  <property name="meta.media.height">1606</property>
  <property name="meta.media.aspect_ratio">1</property>
  <property name="meta.media.color_range">mpeg</property>
  <property name="meta.media.top_field_first">0</property>
  <property name="meta.media.progressive">1</property>
 </producer>
 <producer id="producer2" in="00:00:00.000" out="01:59:36.578">
  <property name="length">172073</property>
  <property name="eof">pause</property>
  <property name="resource">1.040000:N:/Videos/Kids Movies/Sonic/Sonic 2022/Sonic 2 Il Film (2023) 2160p 4K H265 10 Bit WEB-DL iTA ENG AC3 5.1 Sub Ita Eng - iDN_CreW.mkv</property>
  <property name="aspect_ratio">1</property>
  <property name="meta.media.nb_streams">7</property>
  <property name="meta.media.0.stream.type">video</property>
  <property name="meta.media.0.stream.frame_rate">23.976</property>
  <property name="meta.media.0.stream.sample_aspect_ratio">1</property>
  <property name="meta.media.0.codec.width">3840</property>
  <property name="meta.media.0.codec.height">1606</property>
  <property name="meta.media.0.codec.rotate">0</property>
  <property name="meta.media.0.codec.pix_fmt">yuv420p10le</property>
  <property name="meta.media.0.codec.sample_aspect_ratio">1</property>
  <property name="meta.media.0.codec.colorspace">709</property>
  <property name="meta.media.0.codec.color_trc">1</property>
  <property name="meta.media.0.codec.name">hevc</property>
  <property name="meta.media.0.codec.long_name">HEVC (High Efficiency Video Coding)</property>
  <property name="meta.media.0.codec.bit_rate">0</property>
  <property name="meta.attr.0.stream.BPS-eng.markup">6000404</property>
  <property name="meta.attr.0.stream.DURATION-eng.markup">02:02:18.123000000</property>
  <property name="meta.attr.0.stream.NUMBER_OF_FRAMES-eng.markup">175939</property>
  <property name="meta.attr.0.stream.NUMBER_OF_BYTES-eng.markup">5503962903</property>
  <property name="meta.attr.0.stream._STATISTICS_WRITING_APP-eng.markup">mkvmerge v49.0.0 ('Sick Of Losing Soulmates') 64-bit</property>
  <property name="meta.attr.0.stream._STATISTICS_WRITING_DATE_UTC-eng.markup">2022-05-31 19:08:19</property>
  <property name="meta.attr.0.stream._STATISTICS_TAGS-eng.markup">BPS DURATION NUMBER_OF_FRAMES NUMBER_OF_BYTES</property>
  <property name="meta.media.1.stream.type">audio</property>
  <property name="meta.media.1.codec.sample_fmt">fltp</property>
  <property name="meta.media.1.codec.sample_rate">48000</property>
  <property name="meta.media.1.codec.channels">6</property>
  <property name="meta.media.1.codec.layout">5.1(side)</property>
  <property name="meta.media.1.codec.name">ac3</property>
  <property name="meta.media.1.codec.long_name">ATSC A/52A (AC-3)</property>
  <property name="meta.media.1.codec.bit_rate">640000</property>
  <property name="meta.attr.1.stream.language.markup">ita</property>
  <property name="meta.attr.1.stream.title.markup">AC3 iTA</property>
  <property name="meta.attr.1.stream.BPS-eng.markup">640000</property>
  <property name="meta.attr.1.stream.DURATION-eng.markup">02:04:23.968000000</property>
  <property name="meta.attr.1.stream.NUMBER_OF_FRAMES-eng.markup">233249</property>
  <property name="meta.attr.1.stream.NUMBER_OF_BYTES-eng.markup">597117440</property>
  <property name="meta.attr.1.stream._STATISTICS_WRITING_APP-eng.markup">mkvmerge v49.0.0 ('Sick Of Losing Soulmates') 64-bit</property>
  <property name="meta.attr.1.stream._STATISTICS_WRITING_DATE_UTC-eng.markup">2022-05-31 19:08:19</property>
  <property name="meta.attr.1.stream._STATISTICS_TAGS-eng.markup">BPS DURATION NUMBER_OF_FRAMES NUMBER_OF_BYTES</property>
  <property name="meta.media.2.stream.type">audio</property>
  <property name="meta.media.2.codec.sample_fmt">fltp</property>
  <property name="meta.media.2.codec.sample_rate">48000</property>
  <property name="meta.media.2.codec.channels">6</property>
  <property name="meta.media.2.codec.layout">5.1(side)</property>
  <property name="meta.media.2.codec.name">ac3</property>
  <property name="meta.media.2.codec.long_name">ATSC A/52A (AC-3)</property>
  <property name="meta.media.2.codec.bit_rate">384000</property>
  <property name="meta.attr.2.stream.language.markup">eng</property>
  <property name="meta.attr.2.stream.title.markup">AC3 Eng</property>
  <property name="meta.attr.2.stream.BPS-eng.markup">384000</property>
  <property name="meta.attr.2.stream.DURATION-eng.markup">02:02:18.304000000</property>
  <property name="meta.attr.2.stream.NUMBER_OF_FRAMES-eng.markup">229322</property>
  <property name="meta.attr.2.stream.NUMBER_OF_BYTES-eng.markup">352238592</property>
  <property name="meta.attr.2.stream._STATISTICS_WRITING_APP-eng.markup">mkvmerge v49.0.0 ('Sick Of Losing Soulmates') 64-bit</property>
  <property name="meta.attr.2.stream._STATISTICS_WRITING_DATE_UTC-eng.markup">2022-05-31 19:08:19</property>
  <property name="meta.attr.2.stream._STATISTICS_TAGS-eng.markup">BPS DURATION NUMBER_OF_FRAMES NUMBER_OF_BYTES</property>
  <property name="meta.media.3.codec.name">srt</property>
  <property name="meta.media.3.codec.long_name">SubRip subtitle</property>
  <property name="meta.media.3.codec.bit_rate">0</property>
  <property name="meta.attr.3.stream.language.markup">ita</property>
  <property name="meta.attr.3.stream.title.markup">Forced</property>
  <property name="meta.attr.3.stream.BPS-eng.markup">0</property>
  <property name="meta.attr.3.stream.DURATION-eng.markup">02:01:21.816000000</property>
  <property name="meta.attr.3.stream.NUMBER_OF_FRAMES-eng.markup">25</property>
  <property name="meta.attr.3.stream.NUMBER_OF_BYTES-eng.markup">600</property>
  <property name="meta.attr.3.stream._STATISTICS_WRITING_APP-eng.markup">mkvmerge v49.0.0 ('Sick Of Losing Soulmates') 64-bit</property>
  <property name="meta.attr.3.stream._STATISTICS_WRITING_DATE_UTC-eng.markup">2022-05-31 19:08:19</property>
  <property name="meta.attr.3.stream._STATISTICS_TAGS-eng.markup">BPS DURATION NUMBER_OF_FRAMES NUMBER_OF_BYTES</property>
  <property name="meta.media.4.codec.name">srt</property>
  <property name="meta.media.4.codec.long_name">SubRip subtitle</property>
  <property name="meta.media.4.codec.bit_rate">0</property>
  <property name="meta.attr.4.stream.language.markup">ita</property>
  <property name="meta.attr.4.stream.title.markup">Regular</property>
  <property name="meta.attr.4.stream.BPS-eng.markup">45</property>
  <property name="meta.attr.4.stream.DURATION-eng.markup">02:01:21.816000000</property>
  <property name="meta.attr.4.stream.NUMBER_OF_FRAMES-eng.markup">1376</property>
  <property name="meta.attr.4.stream.NUMBER_OF_BYTES-eng.markup">41271</property>
  <property name="meta.attr.4.stream._STATISTICS_WRITING_APP-eng.markup">mkvmerge v49.0.0 ('Sick Of Losing Soulmates') 64-bit</property>
  <property name="meta.attr.4.stream._STATISTICS_WRITING_DATE_UTC-eng.markup">2022-05-31 19:08:19</property>
  <property name="meta.attr.4.stream._STATISTICS_TAGS-eng.markup">BPS DURATION NUMBER_OF_FRAMES NUMBER_OF_BYTES</property>
  <property name="meta.media.5.codec.name">srt</property>
  <property name="meta.media.5.codec.long_name">SubRip subtitle</property>
  <property name="meta.media.5.codec.bit_rate">0</property>
  <property name="meta.attr.5.stream.language.markup">eng</property>
  <property name="meta.attr.5.stream.title.markup">Forced</property>
  <property name="meta.attr.5.stream.BPS-eng.markup">0</property>
  <property name="meta.attr.5.stream.DURATION-eng.markup">00:42:25.379000000</property>
  <property name="meta.attr.5.stream.NUMBER_OF_FRAMES-eng.markup">7</property>
  <property name="meta.attr.5.stream.NUMBER_OF_BYTES-eng.markup">170</property>
  <property name="meta.attr.5.stream._STATISTICS_WRITING_APP-eng.markup">mkvmerge v49.0.0 ('Sick Of Losing Soulmates') 64-bit</property>
  <property name="meta.attr.5.stream._STATISTICS_WRITING_DATE_UTC-eng.markup">2022-05-31 19:08:19</property>
  <property name="meta.attr.5.stream._STATISTICS_TAGS-eng.markup">BPS DURATION NUMBER_OF_FRAMES NUMBER_OF_BYTES</property>
  <property name="meta.media.6.codec.name">srt</property>
  <property name="meta.media.6.codec.long_name">SubRip subtitle</property>
  <property name="meta.media.6.codec.bit_rate">0</property>
  <property name="meta.attr.6.stream.language.markup">eng</property>
  <property name="meta.attr.6.stream.title.markup">Regular</property>
  <property name="meta.attr.6.stream.BPS-eng.markup">60</property>
  <property name="meta.attr.6.stream.DURATION-eng.markup">01:52:04.859000000</property>
  <property name="meta.attr.6.stream.NUMBER_OF_FRAMES-eng.markup">1647</property>
  <property name="meta.attr.6.stream.NUMBER_OF_BYTES-eng.markup">50781</property>
  <property name="meta.attr.6.stream._STATISTICS_WRITING_APP-eng.markup">mkvmerge v49.0.0 ('Sick Of Losing Soulmates') 64-bit</property>
  <property name="meta.attr.6.stream._STATISTICS_WRITING_DATE_UTC-eng.markup">2022-05-31 19:08:19</property>
  <property name="meta.attr.6.stream._STATISTICS_TAGS-eng.markup">BPS DURATION NUMBER_OF_FRAMES NUMBER_OF_BYTES</property>
  <property name="meta.attr.title.markup">UHD 4K - iDN_CreW</property>
  <property name="meta.attr.encoder.markup">libebml v1.4.0 + libmatroska v1.6.1</property>
  <property name="meta.attr.creation_time.markup">2022-05-31T19:08:19.000000Z</property>
  <property name="seekable">1</property>
  <property name="meta.media.sample_aspect_num">1</property>
  <property name="meta.media.sample_aspect_den">1</property>
  <property name="audio_index">1</property>
  <property name="video_index">0</property>
  <property name="warp_speed">1.04</property>
  <property name="warp_resource">N:/Videos/Kids Movies/Sonic/Sonic 2022/Sonic 2 Il Film (2023) 2160p 4K H265 10 Bit WEB-DL iTA ENG AC3 5.1 Sub Ita Eng - iDN_CreW.mkv</property>
  <property name="mlt_service">timewarp</property>
  <property name="kdenlive:control_uuid">{8662ceb9-f96f-4607-812c-ea78d123d3ef}</property>
  <property name="vstream">0</property>
  <property name="astream">0</property>
  <property name="kdenlive:markers">[
]
</property>
  <property name="set.test_audio">1</property>
  <property name="set.test_image">0</property>
  <property name="kdenlive:id">4</property>
  <property name="warp_pitch">0</property>
  <property name="meta.media.frame_rate_num">24000</property>
  <property name="meta.media.frame_rate_den">1001</property>
  <property name="meta.media.colorspace">709</property>
  <property name="meta.media.color_trc">1</property>
  <property name="meta.media.has_b_frames">2</property>
  <property name="meta.media.width">3840</property>
  <property name="meta.media.height">1606</property>
  <property name="meta.media.aspect_ratio">1</property>
  <property name="meta.media.color_range">mpeg</property>
  <property name="meta.media.top_field_first">0</property>
  <property name="meta.media.progressive">1</property>
 </producer>
 <playlist id="playlist8">
  <entry in="00:00:00.000" out="00:05:48.340" producer="chain20">
   <property name="kdenlive:id">4</property>
  </entry>
  <entry in="00:15:01.418" out="00:15:19.311" producer="chain20">
   <property name="kdenlive:id">4</property>
   <filter id="filter19" in="00:15:01.418" out="00:15:04.129">
    <property name="start">1</property>
    <property name="level">1</property>
    <property name="mlt_service">brightness</property>
    <property name="kdenlive_id">fade_from_black</property>
    <property name="alpha">00:00:00.000=0;00:00:02.711=1</property>
    <property name="kdenlive:collapsed">0</property>
   </filter>
  </entry>
  <entry in="00:15:40.082" out="00:15:45.462" producer="chain20">
   <property name="kdenlive:id">4</property>
  </entry>
  <entry in="00:16:01.501" out="00:16:06.465" producer="chain20">
   <property name="kdenlive:id">4</property>
  </entry>
  <entry in="00:16:12.679" out="00:16:16.975" producer="chain20">
   <property name="kdenlive:id">4</property>
  </entry>
  <entry in="00:16:24.274" out="00:16:40.374" producer="chain20">
   <property name="kdenlive:id">4</property>
  </entry>
  <entry in="00:17:18.769" out="00:18:55.347" producer="chain20">
   <property name="kdenlive:id">4</property>
  </entry>
  <entry in="00:19:41.625" out="00:19:47.589" producer="chain20">
   <property name="kdenlive:id">4</property>
  </entry>
  <entry in="00:20:53.303" out="00:21:02.878" producer="chain20">
   <property name="kdenlive:id">4</property>
  </entry>
  <entry in="00:21:06.006" out="00:21:29.571" producer="chain20">
   <property name="kdenlive:id">4</property>
  </entry>
  <entry in="00:21:40.290" out="00:23:51.718" producer="chain20">
   <property name="kdenlive:id">4</property>
  </entry>
  <entry in="00:23:55.681" out="00:24:45.879" producer="chain20">
   <property name="kdenlive:id">4</property>
  </entry>
  <entry in="00:25:00.167" out="00:25:23.857" producer="chain20">
   <property name="kdenlive:id">4</property>
  </entry>
  <entry in="00:25:37.162" out="00:25:49.758" producer="chain20">
   <property name="kdenlive:id">4</property>
  </entry>
  <entry in="00:26:04.129" out="00:26:35.786" producer="chain20">
   <property name="kdenlive:id">4</property>
  </entry>
  <entry in="00:26:39.498" out="00:26:47.422" producer="chain20">
   <property name="kdenlive:id">4</property>
  </entry>
  <entry in="00:26:50.008" out="00:26:55.097" producer="chain20">
   <property name="kdenlive:id">4</property>
  </entry>
  <entry in="00:26:59.977" out="00:27:15.766" producer="chain20">
   <property name="kdenlive:id">4</property>
  </entry>
  <entry in="00:27:19.728" out="00:27:21.980" producer="chain20">
   <property name="kdenlive:id">4</property>
  </entry>
  <entry in="00:27:33.116" out="00:30:49.591" producer="chain20">
   <property name="kdenlive:id">4</property>
  </entry>
  <entry in="00:30:49.633" out="00:30:51.677" producer="chain20">
   <property name="kdenlive:id">4</property>
   <filter id="filter20">
    <property name="background">colour:0</property>
    <property name="mlt_service">affine</property>
    <property name="kdenlive_id">pan_zoom</property>
    <property name="transition.rect">00:30:49.633=-1118 -12 6594 2757</property>
    <property name="transition.distort">0</property>
    <property name="use_normalised">0</property>
    <property name="producer.resource">0x00000000</property>
    <property name="transition.repeat_off">1</property>
    <property name="transition.mirror_off">1</property>
    <property name="kdenlive:collapsed">0</property>
   </filter>
  </entry>
  <entry in="00:30:55.430" out="00:32:13.222" producer="chain20">
   <property name="kdenlive:id">4</property>
  </entry>
  <entry in="00:34:14.348" out="00:34:23.232" producer="chain20">
   <property name="kdenlive:id">4</property>
  </entry>
  <entry in="00:34:35.452" out="00:34:38.538" producer="chain20">
   <property name="kdenlive:id">4</property>
  </entry>
  <entry in="00:35:00.792" out="00:35:50.384" producer="chain20">
   <property name="kdenlive:id">4</property>
   <filter id="filter21" in="00:35:00.792" out="00:35:02.211">
    <property name="start">1</property>
    <property name="level">1</property>
    <property name="mlt_service">brightness</property>
    <property name="kdenlive_id">fade_from_black</property>
    <property name="alpha">00:00:00.000=0;00:00:01.418=1</property>
   </filter>
  </entry>
  <entry in="00:35:59.351" out="00:36:24.608" producer="chain20">
   <property name="kdenlive:id">4</property>
  </entry>
  <entry in="00:40:34.201" out="00:40:39.373" producer="chain20">
   <property name="kdenlive:id">4</property>
   <filter id="filter22">
    <property name="background">colour:0</property>
    <property name="mlt_service">affine</property>
    <property name="kdenlive_id">pan_zoom</property>
    <property name="transition.rect">00:40:34.201=-287 -9 4422 1849;00:40:39.373=-758 4 5366 2244</property>
    <property name="transition.distort">0</property>
    <property name="use_normalised">0</property>
    <property name="producer.resource">0x00000000</property>
    <property name="transition.repeat_off">1</property>
    <property name="transition.mirror_off">1</property>
    <property name="kdenlive:collapsed">0</property>
   </filter>
  </entry>
  <entry in="00:40:45.921" out="00:40:46.088" producer="chain20">
   <property name="kdenlive:id">4</property>
   <filter id="filter23">
    <property name="background">colour:0</property>
    <property name="mlt_service">affine</property>
    <property name="kdenlive_id">pan_zoom</property>
    <property name="transition.rect">00:40:45.921=-1922 -483 7680 3212;00:40:46.088=0 0 3840 1606</property>
    <property name="transition.distort">0</property>
    <property name="use_normalised">0</property>
    <property name="producer.resource">0x00000000</property>
    <property name="transition.repeat_off">1</property>
    <property name="transition.mirror_off">1</property>
    <property name="kdenlive:collapsed">1</property>
   </filter>
   <filter id="filter24">
    <property name="hradius">00:40:45.921=30;00:40:46.088=10</property>
    <property name="vradius">00:40:45.921=1;00:40:46.088=1</property>
    <property name="mlt_service">box_blur</property>
    <property name="kdenlive_id">box_blur</property>
    <property name="preserve_alpha">0</property>
    <property name="kdenlive:collapsed">0</property>
   </filter>
  </entry>
  <entry in="00:40:46.129" out="00:42:06.673" producer="chain20">
   <property name="kdenlive:id">4</property>
  </entry>
  <entry in="00:50:04.296" out="00:50:09.468" producer="chain20">
   <property name="kdenlive:id">4</property>
  </entry>
  <entry in="00:50:16.975" out="00:50:38.914" producer="chain20">
   <property name="kdenlive:id">4</property>
  </entry>
  <entry in="00:50:45.712" out="00:51:41.708" producer="chain20">
   <property name="kdenlive:id">4</property>
  </entry>
  <entry in="00:51:49.466" out="00:51:53.053" producer="chain20">
   <property name="kdenlive:id">4</property>
  </entry>
  <entry in="00:51:57.474" out="00:53:25.525" producer="chain20">
   <property name="kdenlive:id">4</property>
  </entry>
  <entry in="00:53:41.250" out="00:54:15.182" producer="chain20">
   <property name="kdenlive:id">4</property>
  </entry>
  <entry in="00:54:16.934" out="00:54:32.032" producer="chain20">
   <property name="kdenlive:id">4</property>
  </entry>
  <entry in="00:54:33.450" out="00:55:12.638" producer="chain20">
   <property name="kdenlive:id">4</property>
  </entry>
  <entry in="00:55:44.753" out="00:55:46.046" producer="chain20">
   <property name="kdenlive:id">4</property>
  </entry>
  <entry in="00:55:47.798" out="00:55:48.924" producer="chain20">
   <property name="kdenlive:id">4</property>
  </entry>
  <entry in="00:55:48.966" out="00:55:55.138" producer="chain20">
   <property name="kdenlive:id">4</property>
  </entry>
  <entry in="00:55:58.141" out="00:56:01.460" producer="chain20">
   <property name="kdenlive:id">4</property>
  </entry>
  <entry in="00:56:09.509" out="00:56:32.950" producer="chain20">
   <property name="kdenlive:id">4</property>
  </entry>
  <entry in="00:57:14.681" out="00:57:18.644" producer="chain20">
   <property name="kdenlive:id">4</property>
  </entry>
  <entry in="00:57:18.685" out="00:57:19.978" producer="chain20">
   <property name="kdenlive:id">4</property>
  </entry>
  <entry in="00:57:23.440" out="00:58:52.970" producer="chain20">
   <property name="kdenlive:id">4</property>
  </entry>
  <entry in="00:59:29.696" out="00:59:31.281" producer="chain20">
   <property name="kdenlive:id">4</property>
  </entry>
  <entry in="00:59:31.323" out="00:59:33.200" producer="chain20">
   <property name="kdenlive:id">4</property>
  </entry>
  <entry in="00:59:34.159" out="00:59:37.496" producer="chain20">
   <property name="kdenlive:id">4</property>
  </entry>
  <entry in="00:59:42.167" out="01:00:20.729" producer="chain20">
   <property name="kdenlive:id">4</property>
  </entry>
  <entry in="01:00:26.026" out="01:00:45.587" producer="chain20">
   <property name="kdenlive:id">4</property>
  </entry>
  <entry in="01:00:59.518" out="01:01:00.375" producer="chain20">
   <property name="kdenlive:id">4</property>
  </entry>
  <entry in="01:01:03.045" out="01:02:09.176" producer="chain20">
   <property name="kdenlive:id">4</property>
  </entry>
  <entry in="01:02:17.017" out="01:02:28.779" producer="chain20">
   <property name="kdenlive:id">4</property>
  </entry>
  <entry in="01:02:28.820" out="01:02:30.364" producer="chain20">
   <property name="kdenlive:id">4</property>
  </entry>
  <entry in="01:04:20.062" out="01:04:24.274" producer="chain20">
   <property name="kdenlive:id">4</property>
  </entry>
  <entry in="01:04:24.316" out="01:04:31.740" producer="chain20">
   <property name="kdenlive:id">4</property>
  </entry>
  <entry in="01:04:37.079" out="01:05:02.461" producer="chain20">
   <property name="kdenlive:id">4</property>
  </entry>
  <entry in="01:05:41.124" out="01:05:48.423" producer="chain20">
   <property name="kdenlive:id">4</property>
  </entry>
  <entry in="01:06:00.042" out="01:06:02.836" producer="chain20">
   <property name="kdenlive:id">4</property>
  </entry>
  <entry in="01:06:30.948" out="01:07:08.800" producer="chain20">
   <property name="kdenlive:id">4</property>
  </entry>
  <entry in="01:10:43.835" out="01:11:06.298" producer="chain20">
   <property name="kdenlive:id">4</property>
  </entry>
  <entry in="01:11:09.968" out="01:12:26.401" producer="chain20">
   <property name="kdenlive:id">4</property>
  </entry>
  <entry in="01:12:28.153" out="01:12:40.165" producer="chain20">
   <property name="kdenlive:id">4</property>
  </entry>
  <entry in="01:12:40.207" out="01:12:44.795" producer="chain20">
   <property name="kdenlive:id">4</property>
  </entry>
  <entry in="01:13:07.883" out="01:13:33.408" producer="chain20">
   <property name="kdenlive:id">4</property>
  </entry>
  <entry in="01:14:56.598" out="01:21:39.039" producer="chain20">
   <property name="kdenlive:id">4</property>
  </entry>
  <entry in="01:21:48.674" out="01:22:19.645" producer="chain20">
   <property name="kdenlive:id">4</property>
  </entry>
  <entry in="01:22:24.358" out="01:23:51.009" producer="chain20">
   <property name="kdenlive:id">4</property>
  </entry>
  <entry in="01:23:52.886" out="01:23:54.763" producer="chain20">
   <property name="kdenlive:id">4</property>
  </entry>
  <entry in="01:25:06.965" out="01:25:10.469" producer="chain20">
   <property name="kdenlive:id">4</property>
  </entry>
  <entry in="01:26:03.503" out="01:26:05.505" producer="chain20">
   <property name="kdenlive:id">4</property>
  </entry>
  <entry in="01:26:12.387" out="01:26:17.768" producer="chain20">
   <property name="kdenlive:id">4</property>
  </entry>
  <entry in="01:27:27.194" out="01:28:05.005" producer="chain20">
   <property name="kdenlive:id">4</property>
  </entry>
  <entry in="01:28:08.467" out="01:28:36.161" producer="chain20">
   <property name="kdenlive:id">4</property>
  </entry>
  <entry in="01:28:38.914" out="01:29:04.963" producer="chain20">
   <property name="kdenlive:id">4</property>
  </entry>
  <entry in="01:29:06.256" out="01:29:41.541" producer="chain20">
   <property name="kdenlive:id">4</property>
  </entry>
  <entry in="01:29:49.299" out="01:32:01.627" producer="chain20">
   <property name="kdenlive:id">4</property>
  </entry>
  <entry in="01:32:26.276" out="01:33:13.222" producer="chain20">
   <property name="kdenlive:id">4</property>
  </entry>
  <entry in="01:33:18.894" out="01:33:42.542" producer="chain20">
   <property name="kdenlive:id">4</property>
  </entry>
  <entry in="01:33:57.015" out="01:34:04.254" producer="chain20">
   <property name="kdenlive:id">4</property>
  </entry>
  <entry in="01:34:09.885" out="01:34:32.574" producer="chain20">
   <property name="kdenlive:id">4</property>
  </entry>
  <entry in="01:34:37.496" out="01:36:07.507" producer="chain20">
   <property name="kdenlive:id">4</property>
  </entry>
  <entry in="01:36:36.620" out="01:36:46.838" producer="chain20">
   <property name="kdenlive:id">4</property>
  </entry>
  <entry in="01:36:53.011" out="01:36:54.930" producer="chain20">
   <property name="kdenlive:id">4</property>
  </entry>
  <entry in="01:37:04.254" out="01:37:09.593" producer="chain20">
   <property name="kdenlive:id">4</property>
  </entry>
  <entry in="01:37:14.056" out="01:37:16.892" producer="chain20">
   <property name="kdenlive:id">4</property>
  </entry>
  <entry in="01:37:16.934" out="01:37:17.476" producer="chain20">
   <property name="kdenlive:id">4</property>
  </entry>
  <entry in="01:37:41.833" out="01:37:42.709" producer="chain20">
   <property name="kdenlive:id">4</property>
  </entry>
  <entry in="01:37:35.535" out="01:37:41.792" producer="chain20">
   <property name="kdenlive:id">4</property>
  </entry>
  <entry in="01:37:42.918" out="01:37:53.804" producer="chain20">
   <property name="kdenlive:id">4</property>
  </entry>
  <entry in="01:37:57.224" out="01:37:58.642" producer="chain20">
   <property name="kdenlive:id">4</property>
  </entry>
  <entry in="01:38:05.005" out="01:38:58.850" producer="chain20">
   <property name="kdenlive:id">4</property>
  </entry>
  <entry in="01:39:01.126" out="01:40:02.794" producer="chain20">
   <property name="kdenlive:id">4</property>
  </entry>
  <entry in="01:40:08.425" out="01:40:54.471" producer="chain20">
   <property name="kdenlive:id">4</property>
  </entry>
  <entry in="01:41:04.338" out="01:41:10.761" producer="chain20">
   <property name="kdenlive:id">4</property>
  </entry>
  <entry in="01:41:14.264" out="01:42:35.202" producer="chain20">
   <property name="kdenlive:id">4</property>
  </entry>
  <entry in="01:42:39.498" out="01:42:45.212" producer="chain20">
   <property name="kdenlive:id">4</property>
  </entry>
  <entry in="01:42:35.244" out="01:42:39.456" producer="chain20">
   <property name="kdenlive:id">4</property>
  </entry>
  <entry in="01:43:02.169" out="01:45:39.456" producer="chain20">
   <property name="kdenlive:id">4</property>
  </entry>
  <entry in="01:45:51.260" out="01:46:11.553" producer="chain20">
   <property name="kdenlive:id">4</property>
  </entry>
  <entry in="01:46:22.105" out="01:46:41.416" producer="chain20">
   <property name="kdenlive:id">4</property>
  </entry>
  <entry in="01:47:13.764" out="01:47:29.154" producer="chain20">
   <property name="kdenlive:id">4</property>
  </entry>
  <entry in="01:47:47.381" out="01:47:52.177" producer="chain20">
   <property name="kdenlive:id">4</property>
  </entry>
  <entry in="01:47:56.848" out="01:48:37.871" producer="chain20">
   <property name="kdenlive:id">4</property>
  </entry>
  <entry in="01:49:13.096" out="01:49:17.809" producer="chain20">
   <property name="kdenlive:id">4</property>
  </entry>
  <entry in="01:49:19.353" out="01:49:46.713" producer="chain20">
   <property name="kdenlive:id">4</property>
  </entry>
  <entry in="01:49:59.268" out="01:50:26.235" producer="chain20">
   <property name="kdenlive:id">4</property>
  </entry>
  <entry in="01:50:33.909" out="01:50:43.085" producer="chain20">
   <property name="kdenlive:id">4</property>
  </entry>
  <entry in="01:50:43.126" out="01:51:01.210" producer="chain20">
   <property name="kdenlive:id">4</property>
   <filter id="filter25" in="01:50:54.888" out="01:51:01.210">
    <property name="start">1</property>
    <property name="level">1</property>
    <property name="mlt_service">brightness</property>
    <property name="kdenlive_id">fade_to_black</property>
    <property name="alpha">00:00:00.000=1;00:00:06.298=0</property>
   </filter>
  </entry>
  <entry in="01:34:10.677" out="01:35:49.007" producer="producer1">
   <property name="kdenlive:id">4</property>
  </entry>
  <entry in="01:53:04.129" out="01:53:50.467" producer="chain20">
   <property name="kdenlive:id">4</property>
  </entry>
  <entry in="01:49:27.694" out="01:57:34.993" producer="producer2">
   <property name="kdenlive:id">4</property>
  </entry>
 </playlist>
 <playlist id="playlist9"/>
 <tractor id="tractor4" in="00:00:00.000" out="01:11:29.071">
  <property name="kdenlive:trackheight">84</property>
  <property name="kdenlive:timeline_active">0</property>
  <property name="kdenlive:collapsed">0</property>
  <property name="kdenlive:thumbs_format"/>
  <property name="kdenlive:audio_rec"/>
  <track hide="audio" producer="playlist8"/>
  <track hide="audio" producer="playlist9"/>
 </tractor>
 <playlist id="playlist10"/>
 <playlist id="playlist11"/>
 <tractor id="tractor5" in="00:00:00.000">
  <property name="kdenlive:trackheight">84</property>
  <property name="kdenlive:timeline_active">1</property>
  <property name="kdenlive:collapsed">32</property>
  <property name="kdenlive:thumbs_format"/>
  <property name="kdenlive:audio_rec"/>
  <track hide="both" producer="playlist10"/>
  <track hide="both" producer="playlist11"/>
 </tractor>
 <tractor id="tractor6" in="00:00:00.000" out="01:11:29.071">
  <property name="kdenlive:duration">01:11:29.112</property>
  <property name="kdenlive:maxduration">102835</property>
  <property name="kdenlive:clipname">Sequence 1</property>
  <property name="kdenlive:description"/>
  <property name="kdenlive:uuid">{a1c6ff07-0e79-459a-9520-a33d3eb81031}</property>
  <property name="kdenlive:producer_type">17</property>
  <property name="kdenlive:control_uuid">{a1c6ff07-0e79-459a-9520-a33d3eb81031}</property>
  <property name="kdenlive:id">3</property>
  <property name="kdenlive:clip_type">0</property>
  <property name="kdenlive:file_hash">313fd5f3f1ee7049fba4a7f871c01cd5</property>
  <property name="kdenlive:folderid">2</property>
  <property name="kdenlive:sequenceproperties.activeTrack">-2</property>
  <property name="kdenlive:sequenceproperties.audioTarget">1</property>
  <property name="kdenlive:sequenceproperties.disablepreview">0</property>
  <property name="kdenlive:sequenceproperties.documentuuid">{a1c6ff07-0e79-459a-9520-a33d3eb81031}</property>
  <property name="kdenlive:sequenceproperties.globalSubtitleStyles">[
]
</property>
  <property name="kdenlive:sequenceproperties.hasAudio">1</property>
  <property name="kdenlive:sequenceproperties.hasVideo">1</property>
  <property name="kdenlive:sequenceproperties.hidesubtitle">0</property>
  <property name="kdenlive:sequenceproperties.position">101729</property>
  <property name="kdenlive:sequenceproperties.scrollPos">12989</property>
  <property name="kdenlive:sequenceproperties.subtitlesList">[
    {
        "file": "C:/Users/kado/Videos/FanEdits/FanMixes/Sonic - DeSchwartzed/Sonic - DeSchwartzed 2022.kdenlive.ass",
        "id": 0,
        "name": "Subtitles"
    }
]
</property>
  <property name="kdenlive:sequenceproperties.tracks">4</property>
  <property name="kdenlive:sequenceproperties.tracksCount">6</property>
  <property name="kdenlive:sequenceproperties.verticalzoom">1</property>
  <property name="kdenlive:sequenceproperties.videoTarget">2</property>
  <property name="kdenlive:sequenceproperties.zonein">73160</property>
  <property name="kdenlive:sequenceproperties.zoneout">73332</property>
  <property name="kdenlive:sequenceproperties.zoom">12</property>
  <property name="kdenlive:sequenceproperties.groups">[
    {
        "children": [
            {
                "data": "3:9523:-1",
                "leaf": "clip",
                "type": "Leaf"
            },
            {
                "data": "2:9511:-1",
                "leaf": "clip",
                "type": "Leaf"
            },
            {
                "data": "4:9523:-1",
                "leaf": "clip",
                "type": "Leaf"
            }
        ],
        "type": "AVSplit"
    },
    {
        "children": [
            {
                "data": "3:63005:-1",
                "leaf": "clip",
                "type": "Leaf"
            },
            {
                "data": "2:62993:-1",
                "leaf": "clip",
                "type": "Leaf"
            },
            {
                "data": "4:63005:-1",
                "leaf": "clip",
                "type": "Leaf"
            }
        ],
        "type": "AVSplit"
    },
    {
        "children": [
            {
                "data": "4:26145:-1",
                "leaf": "clip",
                "type": "Leaf"
            },
            {
                "data": "3:26145:-1",
                "leaf": "clip",
                "type": "Leaf"
            },
            {
                "data": "2:26133:-1",
                "leaf": "clip",
                "type": "Leaf"
            }
        ],
        "type": "AVSplit"
    },
    {
        "children": [
            {
                "data": "3:70066:-1",
                "leaf": "clip",
                "type": "Leaf"
            },
            {
                "data": "4:70066:-1",
                "leaf": "clip",
                "type": "Leaf"
            },
            {
                "data": "2:70054:-1",
                "leaf": "clip",
                "type": "Leaf"
            }
        ],
        "type": "AVSplit"
    },
    {
        "children": [
            {
                "data": "4:39772:-1",
                "leaf": "clip",
                "type": "Leaf"
            },
            {
                "data": "3:39772:-1",
                "leaf": "clip",
                "type": "Leaf"
            },
            {
                "data": "2:39772:-1",
                "leaf": "clip",
                "type": "Leaf"
            }
        ],
        "type": "AVSplit"
    },
    {
        "children": [
            {
                "data": "4:72647:-1",
                "leaf": "clip",
                "type": "Leaf"
            },
            {
                "data": "2:72642:-1",
                "leaf": "clip",
                "type": "Leaf"
            },
            {
                "data": "3:72647:-1",
                "leaf": "clip",
                "type": "Leaf"
            }
        ],
        "type": "AVSplit"
    },
    {
        "children": [
            {
                "data": "3:32375:-1",
                "leaf": "clip",
                "type": "Leaf"
            },
            {
                "data": "2:32363:-1",
                "leaf": "clip",
                "type": "Leaf"
            },
            {
                "data": "4:32375:-1",
                "leaf": "clip",
                "type": "Leaf"
            }
        ],
        "type": "AVSplit"
    },
    {
        "children": [
            {
                "data": "4:72518:-1",
                "leaf": "clip",
                "type": "Leaf"
            },
            {
                "data": "2:72502:-1",
                "leaf": "clip",
                "type": "Leaf"
            },
            {
                "data": "3:72518:-1",
                "leaf": "clip",
                "type": "Leaf"
            }
        ],
        "type": "AVSplit"
    },
    {
        "children": [
            {
                "data": "3:28231:-1",
                "leaf": "clip",
                "type": "Leaf"
            },
            {
                "data": "4:28231:-1",
                "leaf": "clip",
                "type": "Leaf"
            },
            {
                "data": "2:28231:-1",
                "leaf": "clip",
                "type": "Leaf"
            }
        ],
        "type": "AVSplit"
    },
    {
        "children": [
            {
                "data": "2:61291:-1",
                "leaf": "clip",
                "type": "Leaf"
            },
            {
                "data": "4:61303:-1",
                "leaf": "clip",
                "type": "Leaf"
            },
            {
                "data": "3:61303:-1",
                "leaf": "clip",
                "type": "Leaf"
            }
        ],
        "type": "AVSplit"
    },
    {
        "children": [
            {
                "data": "2:36593:-1",
                "leaf": "clip",
                "type": "Leaf"
            },
            {
                "data": "4:36605:-1",
                "leaf": "clip",
                "type": "Leaf"
            },
            {
                "data": "3:36605:-1",
                "leaf": "clip",
                "type": "Leaf"
            }
        ],
        "type": "AVSplit"
    },
    {
        "children": [
            {
                "data": "4:73165:-1",
                "leaf": "clip",
                "type": "Leaf"
            },
            {
                "data": "2:73141:-1",
                "leaf": "clip",
                "type": "Leaf"
            },
            {
                "data": "3:73165:-1",
                "leaf": "clip",
                "type": "Leaf"
            }
        ],
        "type": "AVSplit"
    },
    {
        "children": [
            {
                "data": "2:30413:-1",
                "leaf": "clip",
                "type": "Leaf"
            },
            {
                "data": "4:30418:-1",
                "leaf": "clip",
                "type": "Leaf"
            },
            {
                "data": "3:30418:-1",
                "leaf": "clip",
                "type": "Leaf"
            }
        ],
        "type": "AVSplit"
    },
    {
        "children": [
            {
                "data": "3:72471:-1",
                "leaf": "clip",
                "type": "Leaf"
            },
            {
                "data": "4:72471:-1",
                "leaf": "clip",
                "type": "Leaf"
            },
            {
                "data": "2:72461:-1",
                "leaf": "clip",
                "type": "Leaf"
            }
        ],
        "type": "AVSplit"
    },
    {
        "children": [
            {
                "data": "2:41315:-1",
                "leaf": "clip",
                "type": "Leaf"
            },
            {
                "data": "4:41315:-1",
                "leaf": "clip",
                "type": "Leaf"
            },
            {
                "data": "3:41315:-1",
                "leaf": "clip",
                "type": "Leaf"
            }
        ],
        "type": "AVSplit"
    },
    {
        "children": [
            {
                "data": "4:72903:-1",
                "leaf": "clip",
                "type": "Leaf"
            },
            {
                "data": "2:72901:-1",
                "leaf": "clip",
                "type": "Leaf"
            },
            {
                "data": "3:72903:-1",
                "leaf": "clip",
                "type": "Leaf"
            }
        ],
        "type": "AVSplit"
    },
    {
        "children": [
            {
                "data": "3:30293:-1",
                "leaf": "clip",
                "type": "Leaf"
            },
            {
                "data": "2:30281:-1",
                "leaf": "clip",
                "type": "Leaf"
            },
            {
                "data": "4:30293:-1",
                "leaf": "clip",
                "type": "Leaf"
            }
        ],
        "type": "AVSplit"
    },
    {
        "children": [
            {
                "data": "4:39733:-1",
                "leaf": "clip",
                "type": "Leaf"
            },
            {
                "data": "2:39733:-1",
                "leaf": "clip",
                "type": "Leaf"
            },
            {
                "data": "3:39733:-1",
                "leaf": "clip",
                "type": "Leaf"
            }
        ],
        "type": "AVSplit"
    },
    {
        "children": [
            {
                "data": "3:32288:-1",
                "leaf": "clip",
                "type": "Leaf"
            },
            {
                "data": "2:32276:-1",
                "leaf": "clip",
                "type": "Leaf"
            },
            {
                "data": "4:32288:-1",
                "leaf": "clip",
                "type": "Leaf"
            }
        ],
        "type": "AVSplit"
    },
    {
        "children": [
            {
                "data": "3:41294:-1",
                "leaf": "clip",
                "type": "Leaf"
            },
            {
                "data": "2:41289:-1",
                "leaf": "clip",
                "type": "Leaf"
            },
            {
                "data": "4:41294:-1",
                "leaf": "clip",
                "type": "Leaf"
            }
        ],
        "type": "AVSplit"
    },
    {
        "children": [
            {
                "data": "4:26359:-1",
                "leaf": "clip",
                "type": "Leaf"
            },
            {
                "data": "2:26354:-1",
                "leaf": "clip",
                "type": "Leaf"
            },
            {
                "data": "3:26359:-1",
                "leaf": "clip",
                "type": "Leaf"
            }
        ],
        "type": "AVSplit"
    },
    {
        "children": [
            {
                "data": "4:19463:-1",
                "leaf": "clip",
                "type": "Leaf"
            },
            {
                "data": "3:19463:-1",
                "leaf": "clip",
                "type": "Leaf"
            },
            {
                "data": "2:19439:-1",
                "leaf": "clip",
                "type": "Leaf"
            }
        ],
        "type": "AVSplit"
    },
    {
        "children": [
            {
                "data": "4:0:-1",
                "leaf": "clip",
                "type": "Leaf"
            },
            {
                "data": "3:0:-1",
                "leaf": "clip",
                "type": "Leaf"
            },
            {
                "data": "2:0:-1",
                "leaf": "clip",
                "type": "Leaf"
            }
        ],
        "type": "AVSplit"
    },
    {
        "children": [
            {
                "data": "4:9032:-1",
                "leaf": "clip",
                "type": "Leaf"
            },
            {
                "data": "3:9032:-1",
                "leaf": "clip",
                "type": "Leaf"
            },
            {
                "data": "2:9022:-1",
                "leaf": "clip",
                "type": "Leaf"
            }
        ],
        "type": "AVSplit"
    },
    {
        "children": [
            {
                "data": "4:26434:-1",
                "leaf": "clip",
                "type": "Leaf"
            },
            {
                "data": "2:26410:-1",
                "leaf": "clip",
                "type": "Leaf"
            },
            {
                "data": "3:26434:-1",
                "leaf": "clip",
                "type": "Leaf"
            }
        ],
        "type": "AVSplit"
    },
    {
        "children": [
            {
                "data": "4:9136:-1",
                "leaf": "clip",
                "type": "Leaf"
            },
            {
                "data": "2:9124:-1",
                "leaf": "clip",
                "type": "Leaf"
            },
            {
                "data": "3:9136:-1",
                "leaf": "clip",
                "type": "Leaf"
            }
        ],
        "type": "AVSplit"
    },
    {
        "children": [
            {
                "data": "3:11984:-1",
                "leaf": "clip",
                "type": "Leaf"
            },
            {
                "data": "2:11972:-1",
                "leaf": "clip",
                "type": "Leaf"
            },
            {
                "data": "4:11984:-1",
                "leaf": "clip",
                "type": "Leaf"
            }
        ],
        "type": "AVSplit"
    },
    {
        "children": [
            {
                "data": "3:11840:-1",
                "leaf": "clip",
                "type": "Leaf"
            },
            {
                "data": "4:11840:-1",
                "leaf": "clip",
                "type": "Leaf"
            },
            {
                "data": "2:11840:-1",
                "leaf": "clip",
                "type": "Leaf"
            }
        ],
        "type": "AVSplit"
    },
    {
        "children": [
            {
                "data": "4:18009:-1",
                "leaf": "clip",
                "type": "Leaf"
            },
            {
                "data": "2:18007:-1",
                "leaf": "clip",
                "type": "Leaf"
            },
            {
                "data": "3:18009:-1",
                "leaf": "clip",
                "type": "Leaf"
            }
        ],
        "type": "AVSplit"
    },
    {
        "children": [
            {
                "data": "3:47927:-1",
                "leaf": "clip",
                "type": "Leaf"
            },
            {
                "data": "2:47927:-1",
                "leaf": "clip",
                "type": "Leaf"
            },
            {
                "data": "4:47927:-1",
                "leaf": "clip",
                "type": "Leaf"
            }
        ],
        "type": "AVSplit"
    },
    {
        "children": [
            {
                "data": "4:37586:-1",
                "leaf": "clip",
                "type": "Leaf"
            },
            {
                "data": "3:37586:-1",
                "leaf": "clip",
                "type": "Leaf"
            },
            {
                "data": "2:37586:-1",
                "leaf": "clip",
                "type": "Leaf"
            }
        ],
        "type": "AVSplit"
    },
    {
        "children": [
            {
                "data": "3:74492:-1",
                "leaf": "clip",
                "type": "Leaf"
            },
            {
                "data": "2:74487:-1",
                "leaf": "clip",
                "type": "Leaf"
            },
            {
                "data": "4:74492:-1",
                "leaf": "clip",
                "type": "Leaf"
            }
        ],
        "type": "AVSplit"
    },
    {
        "children": [
            {
                "data": "2:19494:-1",
                "leaf": "clip",
                "type": "Leaf"
            },
            {
                "data": "3:19518:-1",
                "leaf": "clip",
                "type": "Leaf"
            },
            {
                "data": "4:19518:-1",
                "leaf": "clip",
                "type": "Leaf"
            }
        ],
        "type": "AVSplit"
    },
    {
        "children": [
            {
                "data": "3:79311:-1",
                "leaf": "clip",
                "type": "Leaf"
            },
            {
                "data": "2:79287:-1",
                "leaf": "clip",
                "type": "Leaf"
            },
            {
                "data": "4:79311:-1",
                "leaf": "clip",
                "type": "Leaf"
            }
        ],
        "type": "AVSplit"
    },
    {
        "children": [
            {
                "data": "2:36889:-1",
                "leaf": "clip",
                "type": "Leaf"
            },
            {
                "data": "4:36895:-1",
                "leaf": "clip",
                "type": "Leaf"
            },
            {
                "data": "3:36895:-1",
                "leaf": "clip",
                "type": "Leaf"
            }
        ],
        "type": "AVSplit"
    },
    {
        "children": [
            {
                "data": "4:67651:-1",
                "leaf": "clip",
                "type": "Leaf"
            },
            {
                "data": "2:67651:-1",
                "leaf": "clip",
                "type": "Leaf"
            },
            {
                "data": "3:67651:-1",
                "leaf": "clip",
                "type": "Leaf"
            }
        ],
        "type": "AVSplit"
    },
    {
        "children": [
            {
                "data": "3:44289:-1",
                "leaf": "clip",
                "type": "Leaf"
            },
            {
                "data": "2:44289:-1",
                "leaf": "clip",
                "type": "Leaf"
            },
            {
                "data": "4:44289:-1",
                "leaf": "clip",
                "type": "Leaf"
            }
        ],
        "type": "AVSplit"
    },
    {
        "children": [
            {
                "data": "3:64478:-1",
                "leaf": "clip",
                "type": "Leaf"
            },
            {
                "data": "4:64478:-1",
                "leaf": "clip",
                "type": "Leaf"
            },
            {
                "data": "2:64473:-1",
                "leaf": "clip",
                "type": "Leaf"
            }
        ],
        "type": "AVSplit"
    },
    {
        "children": [
            {
                "data": "3:43504:-1",
                "leaf": "clip",
                "type": "Leaf"
            },
            {
                "data": "2:43480:-1",
                "leaf": "clip",
                "type": "Leaf"
            },
            {
                "data": "4:43504:-1",
                "leaf": "clip",
                "type": "Leaf"
            }
        ],
        "type": "AVSplit"
    },
    {
        "children": [
            {
                "data": "4:69521:-1",
                "leaf": "clip",
                "type": "Leaf"
            },
            {
                "data": "2:69497:-1",
                "leaf": "clip",
                "type": "Leaf"
            },
            {
                "data": "3:69521:-1",
                "leaf": "clip",
                "type": "Leaf"
            }
        ],
        "type": "AVSplit"
    },
    {
        "children": [
            {
                "data": "3:42902:-1",
                "leaf": "clip",
                "type": "Leaf"
            },
            {
                "data": "2:42882:-1",
                "leaf": "clip",
                "type": "Leaf"
            },
            {
                "data": "4:42902:-1",
                "leaf": "clip",
                "type": "Leaf"
            }
        ],
        "type": "AVSplit"
    },
    {
        "children": [
            {
                "data": "3:68778:-1",
                "leaf": "clip",
                "type": "Leaf"
            },
            {
                "data": "4:68778:-1",
                "leaf": "clip",
                "type": "Leaf"
            },
            {
                "data": "2:68766:-1",
                "leaf": "clip",
                "type": "Leaf"
            }
        ],
        "type": "AVSplit"
    },
    {
        "children": [
            {
                "data": "2:43325:-1",
                "leaf": "clip",
                "type": "Leaf"
            },
            {
                "data": "4:43325:-1",
                "leaf": "clip",
                "type": "Leaf"
            },
            {
                "data": "3:43325:-1",
                "leaf": "clip",
                "type": "Leaf"
            }
        ],
        "type": "AVSplit"
    },
    {
        "children": [
            {
                "data": "3:77232:-1",
                "leaf": "clip",
                "type": "Leaf"
            },
            {
                "data": "4:77232:-1",
                "leaf": "clip",
                "type": "Leaf"
            },
            {
                "data": "2:77220:-1",
                "leaf": "clip",
                "type": "Leaf"
            }
        ],
        "type": "AVSplit"
    },
    {
        "children": [
            {
                "data": "3:15932:-1",
                "leaf": "clip",
                "type": "Leaf"
            },
            {
                "data": "2:15932:-1",
                "leaf": "clip",
                "type": "Leaf"
            },
            {
                "data": "4:15932:-1",
                "leaf": "clip",
                "type": "Leaf"
            }
        ],
        "type": "AVSplit"
    },
    {
        "children": [
            {
                "data": "2:77067:-1",
                "leaf": "clip",
                "type": "Leaf"
            },
            {
                "data": "3:77077:-1",
                "leaf": "clip",
                "type": "Leaf"
            },
            {
                "data": "4:77077:-1",
                "leaf": "clip",
                "type": "Leaf"
            }
        ],
        "type": "AVSplit"
    },
    {
        "children": [
            {
                "data": "3:27624:-1",
                "leaf": "clip",
                "type": "Leaf"
            },
            {
                "data": "4:27624:-1",
                "leaf": "clip",
                "type": "Leaf"
            },
            {
                "data": "2:27619:-1",
                "leaf": "clip",
                "type": "Leaf"
            }
        ],
        "type": "AVSplit"
    },
    {
        "children": [
            {
                "data": "4:84136:-1",
                "leaf": "clip",
                "type": "Leaf"
            },
            {
                "data": "2:84112:-1",
                "leaf": "clip",
                "type": "Leaf"
            },
            {
                "data": "3:84136:-1",
                "leaf": "clip",
                "type": "Leaf"
            }
        ],
        "type": "AVSplit"
    },
    {
        "children": [
            {
                "data": "3:24229:-1",
                "leaf": "clip",
                "type": "Leaf"
            },
            {
                "data": "2:24229:-1",
                "leaf": "clip",
                "type": "Leaf"
            },
            {
                "data": "4:24229:-1",
                "leaf": "clip",
                "type": "Leaf"
            }
        ],
        "type": "AVSplit"
    },
    {
        "children": [
            {
                "data": "4:83672:-1",
                "leaf": "clip",
                "type": "Leaf"
            },
            {
                "data": "3:83672:-1",
                "leaf": "clip",
                "type": "Leaf"
            },
            {
                "data": "2:83660:-1",
                "leaf": "clip",
                "type": "Leaf"
            }
        ],
        "type": "AVSplit"
    },
    {
        "children": [
            {
                "data": "4:30945:-1",
                "leaf": "clip",
                "type": "Leaf"
            },
            {
                "data": "2:30941:-1",
                "leaf": "clip",
                "type": "Leaf"
            },
            {
                "data": "3:30945:-1",
                "leaf": "clip",
                "type": "Leaf"
            }
        ],
        "type": "AVSplit"
    },
    {
        "children": [
            {
                "data": "3:85606:-1",
                "leaf": "clip",
                "type": "Leaf"
            },
            {
                "data": "2:85606:-1",
                "leaf": "clip",
                "type": "Leaf"
            },
            {
                "data": "4:85606:-1",
                "leaf": "clip",
                "type": "Leaf"
            }
        ],
        "type": "AVSplit"
    },
    {
        "children": [
            {
                "data": "3:17137:-1",
                "leaf": "clip",
                "type": "Leaf"
            },
            {
                "data": "2:17132:-1",
                "leaf": "clip",
                "type": "Leaf"
            },
            {
                "data": "4:17137:-1",
                "leaf": "clip",
                "type": "Leaf"
            }
        ],
        "type": "AVSplit"
    },
    {
        "children": [
            {
                "data": "3:86377:-1",
                "leaf": "clip",
                "type": "Leaf"
            },
            {
                "data": "4:86377:-1",
                "leaf": "clip",
                "type": "Leaf"
            },
            {
                "data": "2:86365:-1",
                "leaf": "clip",
                "type": "Leaf"
            }
        ],
        "type": "AVSplit"
    },
    {
        "children": [
            {
                "data": "2:39818:-1",
                "leaf": "clip",
                "type": "Leaf"
            },
            {
                "data": "4:39818:-1",
                "leaf": "clip",
                "type": "Leaf"
            },
            {
                "data": "3:39818:-1",
                "leaf": "clip",
                "type": "Leaf"
            }
        ],
        "type": "AVSplit"
    },
    {
        "children": [
            {
                "data": "3:84622:-1",
                "leaf": "clip",
                "type": "Leaf"
            },
            {
                "data": "2:84612:-1",
                "leaf": "clip",
                "type": "Leaf"
            },
            {
                "data": "4:84622:-1",
                "leaf": "clip",
                "type": "Leaf"
            }
        ],
        "type": "AVSplit"
    },
    {
        "children": [
            {
                "data": "2:8304:-1",
                "leaf": "clip",
                "type": "Leaf"
            },
            {
                "data": "4:8352:-1",
                "leaf": "clip",
                "type": "Leaf"
            },
            {
                "data": "3:8352:-1",
                "leaf": "clip",
                "type": "Leaf"
            }
        ],
        "type": "AVSplit"
    },
    {
        "children": [
            {
                "data": "3:87025:-1",
                "leaf": "clip",
                "type": "Leaf"
            },
            {
                "data": "2:86989:-1",
                "leaf": "clip",
                "type": "Leaf"
            },
            {
                "data": "4:87025:-1",
                "leaf": "clip",
                "type": "Leaf"
            }
        ],
        "type": "AVSplit"
    },
    {
        "children": [
            {
                "data": "3:36637:-1",
                "leaf": "clip",
                "type": "Leaf"
            },
            {
                "data": "4:36637:-1",
                "leaf": "clip",
                "type": "Leaf"
            },
            {
                "data": "2:36637:-1",
                "leaf": "clip",
                "type": "Leaf"
            }
        ],
        "type": "AVSplit"
    },
    {
        "children": [
            {
                "data": "4:85720:-1",
                "leaf": "clip",
                "type": "Leaf"
            },
            {
                "data": "2:85720:-1",
                "leaf": "clip",
                "type": "Leaf"
            },
            {
                "data": "3:85720:-1",
                "leaf": "clip",
                "type": "Leaf"
            }
        ],
        "type": "AVSplit"
    },
    {
        "children": [
            {
                "data": "4:37554:-1",
                "leaf": "clip",
                "type": "Leaf"
            },
            {
                "data": "3:37554:-1",
                "leaf": "clip",
                "type": "Leaf"
            },
            {
                "data": "2:37554:-1",
                "leaf": "clip",
                "type": "Leaf"
            }
        ],
        "type": "AVSplit"
    },
    {
        "children": [
            {
                "data": "4:84506:-1",
                "leaf": "clip",
                "type": "Leaf"
            },
            {
                "data": "2:84506:-1",
                "leaf": "clip",
                "type": "Leaf"
            },
            {
                "data": "3:84506:-1",
                "leaf": "clip",
                "type": "Leaf"
            }
        ],
        "type": "AVSplit"
    },
    {
        "children": [
            {
                "data": "2:12760:-1",
                "leaf": "clip",
                "type": "Leaf"
            },
            {
                "data": "3:12780:-1",
                "leaf": "clip",
                "type": "Leaf"
            },
            {
                "data": "4:12780:-1",
                "leaf": "clip",
                "type": "Leaf"
            }
        ],
        "type": "AVSplit"
    },
    {
        "children": [
            {
                "data": "3:79413:-1",
                "leaf": "clip",
                "type": "Leaf"
            },
            {
                "data": "2:79389:-1",
                "leaf": "clip",
                "type": "Leaf"
            },
            {
                "data": "4:79413:-1",
                "leaf": "clip",
                "type": "Leaf"
            }
        ],
        "type": "AVSplit"
    },
    {
        "children": [
            {
                "data": "3:34487:-1",
                "leaf": "clip",
                "type": "Leaf"
            },
            {
                "data": "4:34487:-1",
                "leaf": "clip",
                "type": "Leaf"
            },
            {
                "data": "2:34475:-1",
                "leaf": "clip",
                "type": "Leaf"
            }
        ],
        "type": "AVSplit"
    },
    {
        "children": [
            {
                "data": "2:83173:-1",
                "leaf": "clip",
                "type": "Leaf"
            },
            {
                "data": "4:83185:-1",
                "leaf": "clip",
                "type": "Leaf"
            },
            {
                "data": "3:83185:-1",
                "leaf": "clip",
                "type": "Leaf"
            }
        ],
        "type": "AVSplit"
    },
    {
        "children": [
            {
                "data": "4:8912:-1",
                "leaf": "clip",
                "type": "Leaf"
            },
            {
                "data": "2:8900:-1",
                "leaf": "clip",
                "type": "Leaf"
            },
            {
                "data": "3:8912:-1",
                "leaf": "clip",
                "type": "Leaf"
            }
        ],
        "type": "AVSplit"
    },
    {
        "children": [
            {
                "data": "2:87246:-1",
                "leaf": "clip",
                "type": "Leaf"
            },
            {
                "data": "3:87246:-1",
                "leaf": "clip",
                "type": "Leaf"
            },
            {
                "data": "4:87246:-1",
                "leaf": "clip",
                "type": "Leaf"
            }
        ],
        "type": "AVSplit"
    },
    {
        "children": [
            {
                "data": "4:17706:-1",
                "leaf": "clip",
                "type": "Leaf"
            },
            {
                "data": "2:17694:-1",
                "leaf": "clip",
                "type": "Leaf"
            },
            {
                "data": "3:17706:-1",
                "leaf": "clip",
                "type": "Leaf"
            }
        ],
        "type": "AVSplit"
    },
    {
        "children": [
            {
                "data": "2:79168:-1",
                "leaf": "clip",
                "type": "Leaf"
            },
            {
                "data": "3:79173:-1",
                "leaf": "clip",
                "type": "Leaf"
            },
            {
                "data": "4:79173:-1",
                "leaf": "clip",
                "type": "Leaf"
            }
        ],
        "type": "AVSplit"
    },
    {
        "children": [
            {
                "data": "3:28361:-1",
                "leaf": "clip",
                "type": "Leaf"
            },
            {
                "data": "2:28361:-1",
                "leaf": "clip",
                "type": "Leaf"
            },
            {
                "data": "4:28361:-1",
                "leaf": "clip",
                "type": "Leaf"
            }
        ],
        "type": "AVSplit"
    },
    {
        "children": [
            {
                "data": "2:73195:-1",
                "leaf": "clip",
                "type": "Leaf"
            },
            {
                "data": "4:73200:-1",
                "leaf": "clip",
                "type": "Leaf"
            },
            {
                "data": "3:73200:-1",
                "leaf": "clip",
                "type": "Leaf"
            }
        ],
        "type": "AVSplit"
    },
    {
        "children": [
            {
                "data": "2:69341:-1",
                "leaf": "clip",
                "type": "Leaf"
            },
            {
                "data": "4:69346:-1",
                "leaf": "clip",
                "type": "Leaf"
            },
            {
                "data": "3:69346:-1",
                "leaf": "clip",
                "type": "Leaf"
            }
        ],
        "type": "AVSplit"
    },
    {
        "children": [
            {
                "data": "4:19083:-1",
                "leaf": "clip",
                "type": "Leaf"
            },
            {
                "data": "2:19071:-1",
                "leaf": "clip",
                "type": "Leaf"
            },
            {
                "data": "3:19083:-1",
                "leaf": "clip",
                "type": "Leaf"
            }
        ],
        "type": "AVSplit"
    },
    {
        "children": [
            {
                "data": "4:72225:-1",
                "leaf": "clip",
                "type": "Leaf"
            },
            {
                "data": "2:72201:-1",
                "leaf": "clip",
                "type": "Leaf"
            },
            {
                "data": "3:72225:-1",
                "leaf": "clip",
                "type": "Leaf"
            }
        ],
        "type": "AVSplit"
    },
    {
        "children": [
            {
                "data": "2:45253:-1",
                "leaf": "clip",
                "type": "Leaf"
            },
            {
                "data": "3:45265:-1",
                "leaf": "clip",
                "type": "Leaf"
            },
            {
                "data": "4:45265:-1",
                "leaf": "clip",
                "type": "Leaf"
            }
        ],
        "type": "AVSplit"
    },
    {
        "children": [
            {
                "data": "3:72752:-1",
                "leaf": "clip",
                "type": "Leaf"
            },
            {
                "data": "4:72752:-1",
                "leaf": "clip",
                "type": "Leaf"
            },
            {
                "data": "2:72740:-1",
                "leaf": "clip",
                "type": "Leaf"
            }
        ],
        "type": "AVSplit"
    },
    {
        "children": [
            {
                "data": "3:44357:-1",
                "leaf": "clip",
                "type": "Leaf"
            },
            {
                "data": "4:44357:-1",
                "leaf": "clip",
                "type": "Leaf"
            },
            {
                "data": "2:44357:-1",
                "leaf": "clip",
                "type": "Leaf"
            }
        ],
        "type": "AVSplit"
    },
    {
        "children": [
            {
                "data": "4:62340:-1",
                "leaf": "clip",
                "type": "Leaf"
            },
            {
                "data": "3:62340:-1",
                "leaf": "clip",
                "type": "Leaf"
            },
            {
                "data": "2:62328:-1",
                "leaf": "clip",
                "type": "Leaf"
            }
        ],
        "type": "AVSplit"
    },
    {
        "children": [
            {
                "data": "2:44077:-1",
                "leaf": "clip",
                "type": "Leaf"
            },
            {
                "data": "3:44113:-1",
                "leaf": "clip",
                "type": "Leaf"
            },
            {
                "data": "4:44113:-1",
                "leaf": "clip",
                "type": "Leaf"
            }
        ],
        "type": "AVSplit"
    },
    {
        "children": [
            {
                "data": "3:63631:-1",
                "leaf": "clip",
                "type": "Leaf"
            },
            {
                "data": "4:63631:-1",
                "leaf": "clip",
                "type": "Leaf"
            },
            {
                "data": "2:63619:-1",
                "leaf": "clip",
                "type": "Leaf"
            }
        ],
        "type": "AVSplit"
    },
    {
        "children": [
            {
                "data": "2:36665:-1",
                "leaf": "clip",
                "type": "Leaf"
            },
            {
                "data": "4:36665:-1",
                "leaf": "clip",
                "type": "Leaf"
            },
            {
                "data": "3:36665:-1",
                "leaf": "clip",
                "type": "Leaf"
            }
        ],
        "type": "AVSplit"
    },
    {
        "children": [
            {
                "data": "4:48651:-1",
                "leaf": "clip",
                "type": "Leaf"
            },
            {
                "data": "3:48651:-1",
                "leaf": "clip",
                "type": "Leaf"
            },
            {
                "data": "2:48639:-1",
                "leaf": "clip",
                "type": "Leaf"
            }
        ],
        "type": "AVSplit"
    },
    {
        "children": [
            {
                "data": "4:39899:-1",
                "leaf": "clip",
                "type": "Leaf"
            },
            {
                "data": "2:39894:-1",
                "leaf": "clip",
                "type": "Leaf"
            },
            {
                "data": "3:39899:-1",
                "leaf": "clip",
                "type": "Leaf"
            }
        ],
        "type": "AVSplit"
    },
    {
        "children": [
            {
                "data": "3:47638:-1",
                "leaf": "clip",
                "type": "Leaf"
            },
            {
                "data": "2:47626:-1",
                "leaf": "clip",
                "type": "Leaf"
            },
            {
                "data": "4:47638:-1",
                "leaf": "clip",
                "type": "Leaf"
            }
        ],
        "type": "AVSplit"
    },
    {
        "children": [
            {
                "data": "3:28356:-1",
                "leaf": "clip",
                "type": "Leaf"
            },
            {
                "data": "4:28356:-1",
                "leaf": "clip",
                "type": "Leaf"
            },
            {
                "data": "2:28356:-1",
                "leaf": "clip",
                "type": "Leaf"
            }
        ],
        "type": "AVSplit"
    },
    {
        "children": [
            {
                "data": "3:61169:-1",
                "leaf": "clip",
                "type": "Leaf"
            },
            {
                "data": "4:61169:-1",
                "leaf": "clip",
                "type": "Leaf"
            },
            {
                "data": "2:61157:-1",
                "leaf": "clip",
                "type": "Leaf"
            }
        ],
        "type": "AVSplit"
    },
    {
        "children": [
            {
                "data": "3:8782:-1",
                "leaf": "clip",
                "type": "Leaf"
            },
            {
                "data": "4:8782:-1",
                "leaf": "clip",
                "type": "Leaf"
            },
            {
                "data": "2:8770:-1",
                "leaf": "clip",
                "type": "Leaf"
            }
        ],
        "type": "AVSplit"
    },
    {
        "children": [
            {
                "data": "2:35297:-1",
                "leaf": "clip",
                "type": "Leaf"
            },
            {
                "data": "3:35302:-1",
                "leaf": "clip",
                "type": "Leaf"
            },
            {
                "data": "4:35302:-1",
                "leaf": "clip",
                "type": "Leaf"
            }
        ],
        "type": "AVSplit"
    },
    {
        "children": [
            {
                "data": "3:75972:-1",
                "leaf": "clip",
                "type": "Leaf"
            },
            {
                "data": "2:75948:-1",
                "leaf": "clip",
                "type": "Leaf"
            },
            {
                "data": "4:75972:-1",
                "leaf": "clip",
                "type": "Leaf"
            }
        ],
        "type": "AVSplit"
    },
    {
        "children": [
            {
                "data": "2:48028:-1",
                "leaf": "clip",
                "type": "Leaf"
            },
            {
                "data": "3:48038:-1",
                "leaf": "clip",
                "type": "Leaf"
            },
            {
                "data": "4:48038:-1",
                "leaf": "clip",
                "type": "Leaf"
            }
        ],
        "type": "AVSplit"
    },
    {
        "children": [
            {
                "data": "4:40824:-1",
                "leaf": "clip",
                "type": "Leaf"
            },
            {
                "data": "2:40820:-1",
                "leaf": "clip",
                "type": "Leaf"
            },
            {
                "data": "3:40824:-1",
                "leaf": "clip",
                "type": "Leaf"
            }
        ],
        "type": "AVSplit"
    },
    {
        "children": [
            {
                "data": "3:61254:-1",
                "leaf": "clip",
                "type": "Leaf"
            },
            {
                "data": "4:61254:-1",
                "leaf": "clip",
                "type": "Leaf"
            },
            {
                "data": "2:61254:-1",
                "leaf": "clip",
                "type": "Leaf"
            }
        ],
        "type": "AVSplit"
    },
    {
        "children": [
            {
                "data": "3:12214:-1",
                "leaf": "clip",
                "type": "Leaf"
            },
            {
                "data": "2:12214:-1",
                "leaf": "clip",
                "type": "Leaf"
            },
            {
                "data": "4:12214:-1",
                "leaf": "clip",
                "type": "Leaf"
            }
        ],
        "type": "AVSplit"
    },
    {
        "children": [
            {
                "data": "2:61123:-1",
                "leaf": "clip",
                "type": "Leaf"
            },
            {
                "data": "4:61123:-1",
                "leaf": "clip",
                "type": "Leaf"
            },
            {
                "data": "3:61123:-1",
                "leaf": "clip",
                "type": "Leaf"
            }
        ],
        "type": "AVSplit"
    },
    {
        "children": [
            {
                "data": "4:24279:-1",
                "leaf": "clip",
                "type": "Leaf"
            },
            {
                "data": "3:24279:-1",
                "leaf": "clip",
                "type": "Leaf"
            },
            {
                "data": "2:24279:-1",
                "leaf": "clip",
                "type": "Leaf"
            }
        ],
        "type": "AVSplit"
    },
    {
        "children": [
            {
                "data": "2:58301:-1",
                "leaf": "clip",
                "type": "Leaf"
            },
            {
                "data": "3:58301:-1",
                "leaf": "clip",
                "type": "Leaf"
            },
            {
                "data": "4:58301:-1",
                "leaf": "clip",
                "type": "Leaf"
            }
        ],
        "type": "AVSplit"
    },
    {
        "children": [
            {
                "data": "3:35665:-1",
                "leaf": "clip",
                "type": "Leaf"
            },
            {
                "data": "2:35660:-1",
                "leaf": "clip",
                "type": "Leaf"
            },
            {
                "data": "4:35665:-1",
                "leaf": "clip",
                "type": "Leaf"
            }
        ],
        "type": "AVSplit"
    },
    {
        "children": [
            {
                "data": "3:59045:-1",
                "leaf": "clip",
                "type": "Leaf"
            },
            {
                "data": "4:59045:-1",
                "leaf": "clip",
                "type": "Leaf"
            },
            {
                "data": "2:59021:-1",
                "leaf": "clip",
                "type": "Leaf"
            }
        ],
        "type": "AVSplit"
    },
    {
        "children": [
            {
                "data": "2:36809:-1",
                "leaf": "clip",
                "type": "Leaf"
            },
            {
                "data": "4:36814:-1",
                "leaf": "clip",
                "type": "Leaf"
            },
            {
                "data": "3:36814:-1",
                "leaf": "clip",
                "type": "Leaf"
            }
        ],
        "type": "AVSplit"
    },
    {
        "children": [
            {
                "data": "4:45805:-1",
                "leaf": "clip",
                "type": "Leaf"
            },
            {
                "data": "3:45805:-1",
                "leaf": "clip",
                "type": "Leaf"
            },
            {
                "data": "2:45805:-1",
                "leaf": "clip",
                "type": "Leaf"
            }
        ],
        "type": "AVSplit"
    },
    {
        "children": [
            {
                "data": "2:37458:-1",
                "leaf": "clip",
                "type": "Leaf"
            },
            {
                "data": "4:37458:-1",
                "leaf": "clip",
                "type": "Leaf"
            },
            {
                "data": "3:37458:-1",
                "leaf": "clip",
                "type": "Leaf"
            }
        ],
        "type": "AVSplit"
    },
    {
        "children": [
            {
                "data": "3:61433:-1",
                "leaf": "clip",
                "type": "Leaf"
            },
            {
                "data": "4:61433:-1",
                "leaf": "clip",
                "type": "Leaf"
            },
            {
                "data": "2:61417:-1",
                "leaf": "clip",
                "type": "Leaf"
            }
        ],
        "type": "AVSplit"
    }
]
</property>
  <property name="kdenlive:sequenceproperties.guides">[
]
</property>
  <track producer="producer0"/>
  <track producer="tractor0"/>
  <track producer="tractor1"/>
  <track producer="tractor2"/>
  <track producer="tractor3"/>
  <track producer="tractor4"/>
  <track producer="tractor5"/>
  <transition id="transition90">
   <property name="a_track">0</property>
   <property name="b_track">1</property>
   <property name="mlt_service">mix</property>
   <property name="kdenlive_id">mix</property>
   <property name="internal_added">237</property>
   <property name="always_active">1</property>
   <property name="accepts_blanks">1</property>
   <property name="sum">1</property>
  </transition>
  <transition id="transition91">
   <property name="a_track">0</property>
   <property name="b_track">2</property>
   <property name="mlt_service">mix</property>
   <property name="kdenlive_id">mix</property>
   <property name="internal_added">237</property>
   <property name="always_active">1</property>
   <property name="accepts_blanks">1</property>
   <property name="sum">1</property>
  </transition>
  <transition id="transition92">
   <property name="a_track">0</property>
   <property name="b_track">3</property>
   <property name="mlt_service">mix</property>
   <property name="kdenlive_id">mix</property>
   <property name="internal_added">237</property>
   <property name="always_active">1</property>
   <property name="accepts_blanks">1</property>
   <property name="sum">1</property>
  </transition>
  <transition id="transition93">
   <property name="a_track">0</property>
   <property name="b_track">4</property>
   <property name="mlt_service">mix</property>
   <property name="kdenlive_id">mix</property>
   <property name="internal_added">237</property>
   <property name="always_active">1</property>
   <property name="accepts_blanks">1</property>
   <property name="sum">1</property>
  </transition>
  <transition id="transition94">
   <property name="a_track">0</property>
   <property name="b_track">5</property>
   <property name="compositing">0</property>
   <property name="distort">0</property>
   <property name="rotate_center">0</property>
   <property name="mlt_service">qtblend</property>
   <property name="kdenlive_id">qtblend</property>
   <property name="internal_added">237</property>
   <property name="always_active">1</property>
  </transition>
  <transition id="transition95">
   <property name="a_track">0</property>
   <property name="b_track">6</property>
   <property name="compositing">0</property>
   <property name="distort">0</property>
   <property name="rotate_center">0</property>
   <property name="mlt_service">qtblend</property>
   <property name="kdenlive_id">qtblend</property>
   <property name="internal_added">237</property>
   <property name="always_active">1</property>
  </transition>
  <filter id="filter26">
   <property name="window">75</property>
   <property name="max_gain">20dB</property>
   <property name="mlt_service">volume</property>
   <property name="internal_added">237</property>
   <property name="disable">1</property>
  </filter>
  <filter id="filter27">
   <property name="channel">-1</property>
   <property name="mlt_service">panner</property>
   <property name="internal_added">237</property>
   <property name="start">0.5</property>
   <property name="disable">1</property>
  </filter>
  <filter id="filter28">
   <property name="mlt_service">avfilter.subtitles</property>
   <property name="av.alpha">1</property>
   <property name="internal_added">237</property>
   <property name="av.filename">Sonic 2 (2022) - DeSchwartzed Edition.kdenlive.ass</property>
   <property name="disable">1</property>
  </filter>
 </tractor>
 <playlist id="main_bin">
  <property name="kdenlive:folder.-1.2">Sequences</property>
  <property name="kdenlive:folder.-1.12">ost2</property>
  <property name="kdenlive:sequenceFolder">2</property>
  <property name="kdenlive:docproperties.activetimeline">{a1c6ff07-0e79-459a-9520-a33d3eb81031}</property>
  <property name="kdenlive:docproperties.audioChannels">2</property>
  <property name="kdenlive:docproperties.binsort">0</property>
  <property name="kdenlive:docproperties.browserurl">N:/Videos/General Movies/</property>
  <property name="kdenlive:docproperties.documentid">1755349010297</property>
  <property name="kdenlive:docproperties.enableTimelineZone">0</property>
  <property name="kdenlive:docproperties.enableexternalproxy">0</property>
  <property name="kdenlive:docproperties.enableproxy">0</property>
  <property name="kdenlive:docproperties.externalproxyparams">./;;.LRV;./;;.MP4</property>
  <property name="kdenlive:docproperties.generateimageproxy">0</property>
  <property name="kdenlive:docproperties.generateproxy">0</property>
  <property name="kdenlive:docproperties.guidesCategories">[
    {
        "color": "#9b59b6",
        "comment": "Category 1",
        "index": 0
    },
    {
        "color": "#3daee9",
        "comment": "Category 2",
        "index": 1
    },
    {
        "color": "#1abc9c",
        "comment": "Category 3",
        "index": 2
    },
    {
        "color": "#1cdc9a",
        "comment": "Category 4",
        "index": 3
    },
    {
        "color": "#c9ce3b",
        "comment": "Category 5",
        "index": 4
    },
    {
        "color": "#fdbc4b",
        "comment": "Category 6",
        "index": 5
    },
    {
        "color": "#f39c1f",
        "comment": "Category 7",
        "index": 6
    },
    {
        "color": "#f47750",
        "comment": "Category 8",
        "index": 7
    },
    {
        "color": "#da4453",
        "comment": "Category 9",
        "index": 8
    }
]
</property>
  <property name="kdenlive:docproperties.kdenliveversion">25.04.2</property>
  <property name="kdenlive:docproperties.opensequences">{a1c6ff07-0e79-459a-9520-a33d3eb81031}</property>
  <property name="kdenlive:docproperties.previewextension"/>
  <property name="kdenlive:docproperties.previewparameters"/>
  <property name="kdenlive:docproperties.profile">C:/Users/kado/AppData/Roaming/kdenlive/profiles/customprofile22</property>
  <property name="kdenlive:docproperties.proxyextension"/>
  <property name="kdenlive:docproperties.proxyimageminsize">2000</property>
  <property name="kdenlive:docproperties.proxyimagesize">800</property>
  <property name="kdenlive:docproperties.proxyminsize">1000</property>
  <property name="kdenlive:docproperties.proxyparams"/>
  <property name="kdenlive:docproperties.proxyresize">640</property>
  <property name="kdenlive:docproperties.rendercategory">Ultra-High Definition (4K)</property>
  <property name="kdenlive:docproperties.rendercustomquality">-1</property>
  <property name="kdenlive:docproperties.renderendguide">-1</property>
  <property name="kdenlive:docproperties.renderexportaudio">0</property>
  <property name="kdenlive:docproperties.renderfullcolorrange">0</property>
  <property name="kdenlive:docproperties.rendermode">0</property>
  <property name="kdenlive:docproperties.renderplay">0</property>
  <property name="kdenlive:docproperties.renderpreview">0</property>
  <property name="kdenlive:docproperties.renderprofile">MKV-H265 (HEVC)</property>
  <property name="kdenlive:docproperties.renderrescale">0</property>
  <property name="kdenlive:docproperties.renderrescaleheight">803</property>
  <property name="kdenlive:docproperties.renderrescalewidth">1920</property>
  <property name="kdenlive:docproperties.renderspeed">6</property>
  <property name="kdenlive:docproperties.renderstartguide">-1</property>
  <property name="kdenlive:docproperties.rendertcoverlay">0</property>
  <property name="kdenlive:docproperties.rendertctype">-1</property>
  <property name="kdenlive:docproperties.rendertwopass">0</property>
  <property name="kdenlive:docproperties.renderurl">C:/Users/ari/Videos/Sonic 2 (2022) - DeSchwartzed Edition2.mkv</property>
  <property name="kdenlive:docproperties.seekOffset">7193</property>
  <property name="kdenlive:docproperties.sessionid">{d991b774-63c4-41ae-9299-cef7f4c3f1a6}</property>
  <property name="kdenlive:docproperties.uuid">{a1c6ff07-0e79-459a-9520-a33d3eb81031}</property>
  <property name="kdenlive:docproperties.version">1.1</property>
  <property name="kdenlive:expandedFolders">12</property>
  <property name="kdenlive:binZoom">4</property>
  <property name="kdenlive:extraBins">project_bin:-1:0</property>
  <property name="kdenlive:documentnotes">&lt;!DOCTYPE HTML PUBLIC "-//W3C//DTD HTML 4.0//EN" "http://www.w3.org/TR/REC-html40/strict.dtd">
&lt;html>&lt;head>&lt;meta name="qrichtext" content="1" />&lt;meta charset="utf-8" />&lt;style type="text/css">
p, li { white-space: pre-wrap; }
hr { height: 1px; border-width: 0; }
li.unchecked::marker { content: "\2610"; }
li.checked::marker { content: "\2612"; }
&lt;/style>&lt;/head>&lt;body style=" font-family:'Segoe UI'; font-size:9pt; font-weight:400; font-style:normal;">
&lt;p style=" margin-top:0px; margin-bottom:0px; margin-left:0px; margin-right:0px; -qt-block-indent:0; text-indent:0px;">Errors found when opening project file (Sat Aug 16 22:53:08 2025)&lt;br />&lt;a href="{a1c6ff07-0e79-459a-9520-a33d3eb81031}!133770?1">&lt;span style=" text-decoration: underline; color:#1d99f3;">A2 01:32:59:09&lt;/span>&lt;/a> Clip (chain2) with missing mix found and resized&lt;/p>&lt;/body>&lt;/html></property>
  <property name="kdenlive:documentnotesversion">2</property>
  <property name="xml_retain">1</property>
  <entry in="00:00:00.000" out="02:04:23.941" producer="chain4"/>
  <entry in="00:00:00.000" out="00:02:05.839" producer="chain2"/>
  <entry in="00:00:00.000" out="00:03:35.077" producer="chain6"/>
  <entry in="00:00:00.000" out="00:03:25.525" producer="chain8"/>
  <entry in="00:00:00.000" out="00:03:35.661" producer="chain13"/>
  <entry in="00:00:00.000" out="01:11:29.071" producer="tractor6"/>
 </playlist>
 <tractor id="tractor7" in="00:00:00.000" out="01:11:29.071">
  <property name="kdenlive:projectTractor">1</property>
  <track in="00:00:00.000" out="01:11:29.071" producer="tractor6"/>
 </tractor>
</mlt>
