<?xml version='1.0' encoding='utf-8'?>
<mlt LC_NUMERIC="en_US.UTF-8" producer="main_bin" root="/FanEdits/FanMixes/Matrix Reloaded (2003) - Unlinked Edition" version="7.33.0">
 <profile colorspace="2020" description="3840x1600 23.98fps" display_aspect_den="5" display_aspect_num="12" frame_rate_den="1001" frame_rate_num="24000" height="1600" progressive="1" sample_aspect_den="1" sample_aspect_num="1" width="3840"/>
 <chain id="chain2" out="02:09:11.929">
  <property name="length">185861</property>
  <property name="eof">pause</property>
  <property name="resource">/Horror and SciFi/The Matrix Trilogy Complete (1999-2003) 720p 5.1 BRRiP x264 AAC/The.Matrix.Revolutions.2003/The.Matrix.Revolutions.2003.2160p.mp4</property>
  <property name="mlt_service">avformat-novalidate</property>
  <property name="meta.media.nb_streams">13</property>
  <property name="meta.media.0.stream.type">video</property>
  <property name="meta.media.0.stream.frame_rate">23.976</property>
  <property name="meta.media.0.stream.sample_aspect_ratio">1</property>
  <property name="meta.media.0.codec.width">3840</property>
  <property name="meta.media.0.codec.height">1600</property>
  <property name="meta.media.0.codec.rotate">0</property>
  <property name="meta.media.0.codec.pix_fmt">yuv420p10le</property>
  <property name="meta.media.0.codec.sample_aspect_ratio">1</property>
  <property name="meta.media.0.codec.colorspace">9</property>
  <property name="meta.media.0.codec.color_trc">16</property>
  <property name="meta.media.0.codec.name">hevc</property>
  <property name="meta.media.0.codec.long_name">HEVC (High Efficiency Video Coding)</property>
  <property name="meta.media.0.codec.bit_rate">21220041</property>
  <property name="meta.attr.0.stream.creation_time.markup">2024-07-03T03:30:44.000000Z</property>
  <property name="meta.attr.0.stream.language.markup">eng</property>
  <property name="meta.attr.0.stream.handler_name.markup">VideoHandler</property>
  <property name="meta.attr.0.stream.vendor_id.markup">[0][0][0][0]</property>
  <property name="meta.media.1.stream.type">audio</property>
  <property name="meta.media.1.codec.sample_fmt">fltp</property>
  <property name="meta.media.1.codec.sample_rate">48000</property>
  <property name="meta.media.1.codec.channels">6</property>
  <property name="meta.media.1.codec.layout">5.1(side)</property>
  <property name="meta.media.1.codec.name">eac3</property>
  <property name="meta.media.1.codec.long_name">ATSC A/52B (AC-3, E-AC-3)</property>
  <property name="meta.media.1.codec.bit_rate">640000</property>
  <property name="meta.attr.1.stream.language.markup">eng</property>
  <property name="meta.attr.1.stream.handler_name.markup">SoundHandler</property>
  <property name="meta.attr.1.stream.vendor_id.markup">[0][0][0][0]</property>
  <property name="meta.media.2.stream.type">audio</property>
  <property name="meta.media.2.codec.sample_fmt">fltp</property>
  <property name="meta.media.2.codec.sample_rate">48000</property>
  <property name="meta.media.2.codec.channels">6</property>
  <property name="meta.media.2.codec.layout">5.1(side)</property>
  <property name="meta.media.2.codec.name">eac3</property>
  <property name="meta.media.2.codec.long_name">ATSC A/52B (AC-3, E-AC-3)</property>
  <property name="meta.media.2.codec.bit_rate">640000</property>
  <property name="meta.attr.2.stream.language.markup">spa</property>
  <property name="meta.attr.2.stream.handler_name.markup">SoundHandler</property>
  <property name="meta.attr.2.stream.vendor_id.markup">[0][0][0][0]</property>
  <property name="meta.media.3.stream.type">audio</property>
  <property name="meta.media.3.codec.sample_fmt">fltp</property>
  <property name="meta.media.3.codec.sample_rate">48000</property>
  <property name="meta.media.3.codec.channels">6</property>
  <property name="meta.media.3.codec.layout">5.1(side)</property>
  <property name="meta.media.3.codec.name">eac3</property>
  <property name="meta.media.3.codec.long_name">ATSC A/52B (AC-3, E-AC-3)</property>
  <property name="meta.media.3.codec.bit_rate">256000</property>
  <property name="meta.attr.3.stream.language.markup">spa</property>
  <property name="meta.attr.3.stream.handler_name.markup">SoundHandler</property>
  <property name="meta.attr.3.stream.vendor_id.markup">[0][0][0][0]</property>
  <property name="meta.media.4.stream.type">audio</property>
  <property name="meta.media.4.codec.sample_fmt">fltp</property>
  <property name="meta.media.4.codec.sample_rate">48000</property>
  <property name="meta.media.4.codec.channels">6</property>
  <property name="meta.media.4.codec.layout">5.1(side)</property>
  <property name="meta.media.4.codec.name">eac3</property>
  <property name="meta.media.4.codec.long_name">ATSC A/52B (AC-3, E-AC-3)</property>
  <property name="meta.media.4.codec.bit_rate">640000</property>
  <property name="meta.attr.4.stream.language.markup">eng</property>
  <property name="meta.attr.4.stream.handler_name.markup">SoundHandler</property>
  <property name="meta.attr.4.stream.vendor_id.markup">[0][0][0][0]</property>
  <property name="meta.media.5.stream.type">audio</property>
  <property name="meta.media.5.codec.sample_fmt">fltp</property>
  <property name="meta.media.5.codec.sample_rate">48000</property>
  <property name="meta.media.5.codec.channels">6</property>
  <property name="meta.media.5.codec.layout">5.1(side)</property>
  <property name="meta.media.5.codec.name">eac3</property>
  <property name="meta.media.5.codec.long_name">ATSC A/52B (AC-3, E-AC-3)</property>
  <property name="meta.media.5.codec.bit_rate">640000</property>
  <property name="meta.attr.5.stream.language.markup">hin</property>
  <property name="meta.attr.5.stream.handler_name.markup">SoundHandler</property>
  <property name="meta.attr.5.stream.vendor_id.markup">[0][0][0][0]</property>
  <property name="meta.media.6.stream.type">audio</property>
  <property name="meta.media.6.codec.sample_fmt">fltp</property>
  <property name="meta.media.6.codec.sample_rate">48000</property>
  <property name="meta.media.6.codec.channels">6</property>
  <property name="meta.media.6.codec.layout">5.1(side)</property>
  <property name="meta.media.6.codec.name">eac3</property>
  <property name="meta.media.6.codec.long_name">ATSC A/52B (AC-3, E-AC-3)</property>
  <property name="meta.media.6.codec.bit_rate">640000</property>
  <property name="meta.attr.6.stream.language.markup">ita</property>
  <property name="meta.attr.6.stream.handler_name.markup">SoundHandler</property>
  <property name="meta.attr.6.stream.vendor_id.markup">[0][0][0][0]</property>
  <property name="meta.media.7.stream.type">audio</property>
  <property name="meta.media.7.codec.sample_fmt">fltp</property>
  <property name="meta.media.7.codec.sample_rate">48000</property>
  <property name="meta.media.7.codec.channels">6</property>
  <property name="meta.media.7.codec.layout">5.1(side)</property>
  <property name="meta.media.7.codec.name">eac3</property>
  <property name="meta.media.7.codec.long_name">ATSC A/52B (AC-3, E-AC-3)</property>
  <property name="meta.media.7.codec.bit_rate">640000</property>
  <property name="meta.attr.7.stream.language.markup">por</property>
  <property name="meta.attr.7.stream.handler_name.markup">SoundHandler</property>
  <property name="meta.attr.7.stream.vendor_id.markup">[0][0][0][0]</property>
  <property name="meta.media.8.codec.name">mov_text</property>
  <property name="meta.media.8.codec.long_name">3GPP Timed Text subtitle</property>
  <property name="meta.media.8.codec.bit_rate">47</property>
  <property name="meta.attr.8.stream.language.markup">eng</property>
  <property name="meta.attr.8.stream.handler_name.markup">SubtitleHandler</property>
  <property name="meta.media.9.codec.name">mov_text</property>
  <property name="meta.media.9.codec.long_name">3GPP Timed Text subtitle</property>
  <property name="meta.media.9.codec.bit_rate">42</property>
  <property name="meta.attr.9.stream.language.markup">spa</property>
  <property name="meta.attr.9.stream.handler_name.markup">SubtitleHandler</property>
  <property name="meta.media.10.codec.name">mov_text</property>
  <property name="meta.media.10.codec.long_name">3GPP Timed Text subtitle</property>
  <property name="meta.media.10.codec.bit_rate">41</property>
  <property name="meta.attr.10.stream.language.markup">spa</property>
  <property name="meta.attr.10.stream.handler_name.markup">SubtitleHandler</property>
  <property name="meta.media.11.codec.name">mov_text</property>
  <property name="meta.media.11.codec.long_name">3GPP Timed Text subtitle</property>
  <property name="meta.media.11.codec.bit_rate">45</property>
  <property name="meta.attr.11.stream.language.markup">por</property>
  <property name="meta.attr.11.stream.handler_name.markup">SubtitleHandler</property>
  <property name="meta.media.12.stream.type">video</property>
  <property name="meta.media.12.stream.frame_rate">90000</property>
  <property name="meta.media.12.stream.sample_aspect_ratio">0</property>
  <property name="meta.media.12.codec.width">600</property>
  <property name="meta.media.12.codec.height">900</property>
  <property name="meta.media.12.codec.rotate">0</property>
  <property name="meta.media.12.codec.pix_fmt">yuvj444p</property>
  <property name="meta.media.12.codec.sample_aspect_ratio">1</property>
  <property name="meta.media.12.codec.colorspace">601</property>
  <property name="meta.media.12.codec.name">mjpeg</property>
  <property name="meta.media.12.codec.long_name">MJPEG (Motion JPEG)</property>
  <property name="meta.media.12.codec.bit_rate">0</property>
  <property name="meta.attr.major_brand.markup">isom</property>
  <property name="meta.attr.minor_version.markup">512</property>
  <property name="meta.attr.compatible_brands.markup">isomdby1iso2mp41</property>
  <property name="meta.attr.title.markup">The.Matrix.Revolutions.2003.2160p.MAX.DV.HDR[Ben The Men]</property>
  <property name="meta.attr.encoder.markup">Lavf60.3.100</property>
  <property name="seekable">1</property>
  <property name="meta.media.sample_aspect_num">1</property>
  <property name="meta.media.sample_aspect_den">1</property>
  <property name="audio_index">1</property>
  <property name="video_index">0</property>
  <property name="vstream">0</property>
  <property name="meta.media.frame_rate_num">24000</property>
  <property name="meta.media.frame_rate_den">1001</property>
  <property name="meta.media.colorspace">2020</property>
  <property name="meta.media.color_trc">16</property>
  <property name="meta.media.has_b_frames">2</property>
  <property name="meta.media.width">3840</property>
  <property name="meta.media.height">1600</property>
  <property name="meta.media.aspect_ratio">1</property>
  <property name="meta.media.color_range">mpeg</property>
  <property name="astream">0</property>
  <property name="meta.media.top_field_first">0</property>
  <property name="meta.media.progressive">1</property>
  <property name="kdenlive:control_uuid">{7cb6d440-dd44-4b3b-9578-193561e848ff}</property>
  <property name="kdenlive:id">4</property>
  <property name="kdenlive:clip_type">0</property>
  <property name="kdenlive:file_size">24566050278</property>
  <property name="kdenlive:file_hash">698ee326a3513ad73311ffb38a03626e</property>
  <property name="kdenlive:folderid">-1</property>
  <property name="mute_on_pause">0</property>
  <property name="kdenlive:active_streams">1;2;3;4;5;6;7</property>
 </chain>
 <producer id="producer0" in="00:00:00.000" out="02:11:10.928">
  <property name="length">2147483647</property>
  <property name="eof">continue</property>
  <property name="resource">black</property>
  <property name="aspect_ratio">1</property>
  <property name="mlt_service">color</property>
  <property name="kdenlive:playlistid">black_track</property>
  <property name="mlt_image_format">rgba</property>
  <property name="set.test_audio">0</property>
 </producer>
 <playlist id="playlist0">
  <property name="kdenlive:audio_track">1</property>
 </playlist>
 <playlist id="playlist1">
  <property name="kdenlive:audio_track">1</property>
 </playlist>
 <tractor id="tractor0" in="00:00:00.000">
  <property name="kdenlive:audio_track">1</property>
  <property name="kdenlive:trackheight">84</property>
  <property name="kdenlive:timeline_active">1</property>
  <property name="kdenlive:collapsed">0</property>
  <property name="kdenlive:thumbs_format"/>
  <property name="kdenlive:audio_rec"/>
  <track hide="video" producer="playlist0"/>
  <track hide="video" producer="playlist1"/>
  <filter id="filter0">
   <property name="window">75</property>
   <property name="max_gain">20dB</property>
   <property name="mlt_service">volume</property>
   <property name="internal_added">237</property>
   <property name="disable">1</property>
  </filter>
  <filter id="filter1">
   <property name="channel">-1</property>
   <property name="mlt_service">panner</property>
   <property name="internal_added">237</property>
   <property name="start">0.5</property>
   <property name="disable">1</property>
  </filter>
  <filter id="filter2">
   <property name="iec_scale">0</property>
   <property name="mlt_service">audiolevel</property>
   <property name="dbpeak">1</property>
   <property name="disable">1</property>
  </filter>
 </tractor>
 <playlist id="playlist2">
  <property name="kdenlive:audio_track">1</property>
 </playlist>
 <playlist id="playlist3">
  <property name="kdenlive:audio_track">1</property>
 </playlist>
 <tractor id="tractor1" in="00:00:00.000">
  <property name="kdenlive:audio_track">1</property>
  <property name="kdenlive:trackheight">84</property>
  <property name="kdenlive:timeline_active">1</property>
  <property name="kdenlive:collapsed">0</property>
  <property name="kdenlive:thumbs_format"/>
  <property name="kdenlive:audio_rec"/>
  <track hide="video" producer="playlist2"/>
  <track hide="video" producer="playlist3"/>
  <filter id="filter3">
   <property name="window">75</property>
   <property name="max_gain">20dB</property>
   <property name="mlt_service">volume</property>
   <property name="internal_added">237</property>
   <property name="disable">1</property>
  </filter>
  <filter id="filter4">
   <property name="channel">-1</property>
   <property name="mlt_service">panner</property>
   <property name="internal_added">237</property>
   <property name="start">0.5</property>
   <property name="disable">1</property>
  </filter>
  <filter id="filter5">
   <property name="iec_scale">0</property>
   <property name="mlt_service">audiolevel</property>
   <property name="dbpeak">1</property>
   <property name="disable">1</property>
  </filter>
 </tractor>
 <playlist id="playlist4">
  <property name="kdenlive:audio_track">1</property>
 </playlist>
 <playlist id="playlist5">
  <property name="kdenlive:audio_track">1</property>
 </playlist>
 <tractor id="tractor2" in="00:00:00.000">
  <property name="kdenlive:audio_track">1</property>
  <property name="kdenlive:trackheight">84</property>
  <property name="kdenlive:timeline_active">1</property>
  <property name="kdenlive:collapsed">0</property>
  <property name="kdenlive:thumbs_format"/>
  <property name="kdenlive:audio_rec"/>
  <track hide="video" producer="playlist4"/>
  <track hide="video" producer="playlist5"/>
  <filter id="filter6">
   <property name="window">75</property>
   <property name="max_gain">20dB</property>
   <property name="mlt_service">volume</property>
   <property name="internal_added">237</property>
   <property name="disable">1</property>
  </filter>
  <filter id="filter7">
   <property name="channel">-1</property>
   <property name="mlt_service">panner</property>
   <property name="internal_added">237</property>
   <property name="start">0.5</property>
   <property name="disable">1</property>
  </filter>
  <filter id="filter8">
   <property name="iec_scale">0</property>
   <property name="mlt_service">audiolevel</property>
   <property name="dbpeak">1</property>
   <property name="disable">1</property>
  </filter>
 </tractor>
 <playlist id="playlist6">
  <property name="kdenlive:audio_track">1</property>
 </playlist>
 <playlist id="playlist7">
  <property name="kdenlive:audio_track">1</property>
 </playlist>
 <tractor id="tractor3" in="00:00:00.000">
  <property name="kdenlive:audio_track">1</property>
  <property name="kdenlive:trackheight">84</property>
  <property name="kdenlive:timeline_active">1</property>
  <property name="kdenlive:collapsed">0</property>
  <property name="kdenlive:thumbs_format"/>
  <property name="kdenlive:audio_rec"/>
  <track hide="video" producer="playlist6"/>
  <track hide="video" producer="playlist7"/>
  <filter id="filter9">
   <property name="window">75</property>
   <property name="max_gain">20dB</property>
   <property name="mlt_service">volume</property>
   <property name="internal_added">237</property>
   <property name="disable">1</property>
  </filter>
  <filter id="filter10">
   <property name="channel">-1</property>
   <property name="mlt_service">panner</property>
   <property name="internal_added">237</property>
   <property name="start">0.5</property>
   <property name="disable">1</property>
  </filter>
  <filter id="filter11">
   <property name="iec_scale">0</property>
   <property name="mlt_service">audiolevel</property>
   <property name="dbpeak">1</property>
   <property name="disable">1</property>
  </filter>
 </tractor>
 <playlist id="playlist8">
  <property name="kdenlive:audio_track">1</property>
 </playlist>
 <playlist id="playlist9">
  <property name="kdenlive:audio_track">1</property>
 </playlist>
 <tractor id="tractor4" in="00:00:00.000">
  <property name="kdenlive:audio_track">1</property>
  <property name="kdenlive:trackheight">84</property>
  <property name="kdenlive:timeline_active">1</property>
  <property name="kdenlive:collapsed">0</property>
  <property name="kdenlive:thumbs_format"/>
  <property name="kdenlive:audio_rec"/>
  <track hide="video" producer="playlist8"/>
  <track hide="video" producer="playlist9"/>
  <filter id="filter12">
   <property name="window">75</property>
   <property name="max_gain">20dB</property>
   <property name="mlt_service">volume</property>
   <property name="internal_added">237</property>
   <property name="disable">1</property>
  </filter>
  <filter id="filter13">
   <property name="channel">-1</property>
   <property name="mlt_service">panner</property>
   <property name="internal_added">237</property>
   <property name="start">0.5</property>
   <property name="disable">1</property>
  </filter>
  <filter id="filter14">
   <property name="iec_scale">0</property>
   <property name="mlt_service">audiolevel</property>
   <property name="dbpeak">1</property>
   <property name="disable">1</property>
  </filter>
 </tractor>
 <playlist id="playlist10">
  <property name="kdenlive:audio_track">1</property>
 </playlist>
 <playlist id="playlist11">
  <property name="kdenlive:audio_track">1</property>
 </playlist>
 <tractor id="tractor5" in="00:00:00.000">
  <property name="kdenlive:audio_track">1</property>
  <property name="kdenlive:trackheight">84</property>
  <property name="kdenlive:timeline_active">1</property>
  <property name="kdenlive:collapsed">0</property>
  <property name="kdenlive:thumbs_format"/>
  <property name="kdenlive:audio_rec"/>
  <track hide="video" producer="playlist10"/>
  <track hide="video" producer="playlist11"/>
  <filter id="filter15">
   <property name="window">75</property>
   <property name="max_gain">20dB</property>
   <property name="mlt_service">volume</property>
   <property name="internal_added">237</property>
   <property name="disable">1</property>
  </filter>
  <filter id="filter16">
   <property name="channel">-1</property>
   <property name="mlt_service">panner</property>
   <property name="internal_added">237</property>
   <property name="start">0.5</property>
   <property name="disable">1</property>
  </filter>
  <filter id="filter17">
   <property name="iec_scale">0</property>
   <property name="mlt_service">audiolevel</property>
   <property name="dbpeak">1</property>
   <property name="disable">1</property>
  </filter>
 </tractor>
 <chain id="chain0" out="02:09:11.929">
  <property name="length">185861</property>
  <property name="eof">pause</property>
  <property name="resource">/Horror and SciFi/The Matrix Trilogy Complete (1999-2003) 720p 5.1 BRRiP x264 AAC/The.Matrix.Revolutions.2003/The.Matrix.Revolutions.2003.2160p.mp4</property>
  <property name="mlt_service">avformat-novalidate</property>
  <property name="seekable">1</property>
  <property name="audio_index">1</property>
  <property name="video_index">0</property>
  <property name="vstream">0</property>
  <property name="astream">0</property>
  <property name="kdenlive:control_uuid">{7cb6d440-dd44-4b3b-9578-193561e848ff}</property>
  <property name="kdenlive:id">4</property>
  <property name="kdenlive:clip_type">0</property>
  <property name="kdenlive:file_size">24566050278</property>
  <property name="kdenlive:file_hash">698ee326a3513ad73311ffb38a03626e</property>
  <property name="kdenlive:folderid">-1</property>
  <property name="meta.media.nb_streams">13</property>
  <property name="meta.media.0.stream.type">video</property>
  <property name="meta.media.0.stream.frame_rate">23.976</property>
  <property name="meta.media.0.stream.sample_aspect_ratio">1</property>
  <property name="meta.media.0.codec.width">3840</property>
  <property name="meta.media.0.codec.height">1600</property>
  <property name="meta.media.0.codec.rotate">0</property>
  <property name="meta.media.0.codec.pix_fmt">yuv420p10le</property>
  <property name="meta.media.0.codec.sample_aspect_ratio">1</property>
  <property name="meta.media.0.codec.colorspace">9</property>
  <property name="meta.media.0.codec.color_trc">16</property>
  <property name="meta.media.0.codec.name">hevc</property>
  <property name="meta.media.0.codec.long_name">HEVC (High Efficiency Video Coding)</property>
  <property name="meta.media.0.codec.bit_rate">21220041</property>
  <property name="meta.attr.0.stream.creation_time.markup">2024-07-03T03:30:44.000000Z</property>
  <property name="meta.attr.0.stream.language.markup">eng</property>
  <property name="meta.attr.0.stream.handler_name.markup">VideoHandler</property>
  <property name="meta.attr.0.stream.vendor_id.markup">[0][0][0][0]</property>
  <property name="meta.media.1.stream.type">audio</property>
  <property name="meta.media.1.codec.sample_fmt">fltp</property>
  <property name="meta.media.1.codec.sample_rate">48000</property>
  <property name="meta.media.1.codec.channels">6</property>
  <property name="meta.media.1.codec.layout">5.1(side)</property>
  <property name="meta.media.1.codec.name">eac3</property>
  <property name="meta.media.1.codec.long_name">ATSC A/52B (AC-3, E-AC-3)</property>
  <property name="meta.media.1.codec.bit_rate">640000</property>
  <property name="meta.attr.1.stream.language.markup">eng</property>
  <property name="meta.attr.1.stream.handler_name.markup">SoundHandler</property>
  <property name="meta.attr.1.stream.vendor_id.markup">[0][0][0][0]</property>
  <property name="meta.media.2.stream.type">audio</property>
  <property name="meta.media.2.codec.sample_fmt">fltp</property>
  <property name="meta.media.2.codec.sample_rate">48000</property>
  <property name="meta.media.2.codec.channels">6</property>
  <property name="meta.media.2.codec.layout">5.1(side)</property>
  <property name="meta.media.2.codec.name">eac3</property>
  <property name="meta.media.2.codec.long_name">ATSC A/52B (AC-3, E-AC-3)</property>
  <property name="meta.media.2.codec.bit_rate">640000</property>
  <property name="meta.attr.2.stream.language.markup">spa</property>
  <property name="meta.attr.2.stream.handler_name.markup">SoundHandler</property>
  <property name="meta.attr.2.stream.vendor_id.markup">[0][0][0][0]</property>
  <property name="meta.media.3.stream.type">audio</property>
  <property name="meta.media.3.codec.sample_fmt">fltp</property>
  <property name="meta.media.3.codec.sample_rate">48000</property>
  <property name="meta.media.3.codec.channels">6</property>
  <property name="meta.media.3.codec.layout">5.1(side)</property>
  <property name="meta.media.3.codec.name">eac3</property>
  <property name="meta.media.3.codec.long_name">ATSC A/52B (AC-3, E-AC-3)</property>
  <property name="meta.media.3.codec.bit_rate">256000</property>
  <property name="meta.attr.3.stream.language.markup">spa</property>
  <property name="meta.attr.3.stream.handler_name.markup">SoundHandler</property>
  <property name="meta.attr.3.stream.vendor_id.markup">[0][0][0][0]</property>
  <property name="meta.media.4.stream.type">audio</property>
  <property name="meta.media.4.codec.sample_fmt">fltp</property>
  <property name="meta.media.4.codec.sample_rate">48000</property>
  <property name="meta.media.4.codec.channels">6</property>
  <property name="meta.media.4.codec.layout">5.1(side)</property>
  <property name="meta.media.4.codec.name">eac3</property>
  <property name="meta.media.4.codec.long_name">ATSC A/52B (AC-3, E-AC-3)</property>
  <property name="meta.media.4.codec.bit_rate">640000</property>
  <property name="meta.attr.4.stream.language.markup">eng</property>
  <property name="meta.attr.4.stream.handler_name.markup">SoundHandler</property>
  <property name="meta.attr.4.stream.vendor_id.markup">[0][0][0][0]</property>
  <property name="meta.media.5.stream.type">audio</property>
  <property name="meta.media.5.codec.sample_fmt">fltp</property>
  <property name="meta.media.5.codec.sample_rate">48000</property>
  <property name="meta.media.5.codec.channels">6</property>
  <property name="meta.media.5.codec.layout">5.1(side)</property>
  <property name="meta.media.5.codec.name">eac3</property>
  <property name="meta.media.5.codec.long_name">ATSC A/52B (AC-3, E-AC-3)</property>
  <property name="meta.media.5.codec.bit_rate">640000</property>
  <property name="meta.attr.5.stream.language.markup">hin</property>
  <property name="meta.attr.5.stream.handler_name.markup">SoundHandler</property>
  <property name="meta.attr.5.stream.vendor_id.markup">[0][0][0][0]</property>
  <property name="meta.media.6.stream.type">audio</property>
  <property name="meta.media.6.codec.sample_fmt">fltp</property>
  <property name="meta.media.6.codec.sample_rate">48000</property>
  <property name="meta.media.6.codec.channels">6</property>
  <property name="meta.media.6.codec.layout">5.1(side)</property>
  <property name="meta.media.6.codec.name">eac3</property>
  <property name="meta.media.6.codec.long_name">ATSC A/52B (AC-3, E-AC-3)</property>
  <property name="meta.media.6.codec.bit_rate">640000</property>
  <property name="meta.attr.6.stream.language.markup">ita</property>
  <property name="meta.attr.6.stream.handler_name.markup">SoundHandler</property>
  <property name="meta.attr.6.stream.vendor_id.markup">[0][0][0][0]</property>
  <property name="meta.media.7.stream.type">audio</property>
  <property name="meta.media.7.codec.sample_fmt">fltp</property>
  <property name="meta.media.7.codec.sample_rate">48000</property>
  <property name="meta.media.7.codec.channels">6</property>
  <property name="meta.media.7.codec.layout">5.1(side)</property>
  <property name="meta.media.7.codec.name">eac3</property>
  <property name="meta.media.7.codec.long_name">ATSC A/52B (AC-3, E-AC-3)</property>
  <property name="meta.media.7.codec.bit_rate">640000</property>
  <property name="meta.attr.7.stream.language.markup">por</property>
  <property name="meta.attr.7.stream.handler_name.markup">SoundHandler</property>
  <property name="meta.attr.7.stream.vendor_id.markup">[0][0][0][0]</property>
  <property name="meta.media.8.codec.name">mov_text</property>
  <property name="meta.media.8.codec.long_name">3GPP Timed Text subtitle</property>
  <property name="meta.media.8.codec.bit_rate">47</property>
  <property name="meta.attr.8.stream.language.markup">eng</property>
  <property name="meta.attr.8.stream.handler_name.markup">SubtitleHandler</property>
  <property name="meta.media.9.codec.name">mov_text</property>
  <property name="meta.media.9.codec.long_name">3GPP Timed Text subtitle</property>
  <property name="meta.media.9.codec.bit_rate">42</property>
  <property name="meta.attr.9.stream.language.markup">spa</property>
  <property name="meta.attr.9.stream.handler_name.markup">SubtitleHandler</property>
  <property name="meta.media.10.codec.name">mov_text</property>
  <property name="meta.media.10.codec.long_name">3GPP Timed Text subtitle</property>
  <property name="meta.media.10.codec.bit_rate">41</property>
  <property name="meta.attr.10.stream.language.markup">spa</property>
  <property name="meta.attr.10.stream.handler_name.markup">SubtitleHandler</property>
  <property name="meta.media.11.codec.name">mov_text</property>
  <property name="meta.media.11.codec.long_name">3GPP Timed Text subtitle</property>
  <property name="meta.media.11.codec.bit_rate">45</property>
  <property name="meta.attr.11.stream.language.markup">por</property>
  <property name="meta.attr.11.stream.handler_name.markup">SubtitleHandler</property>
  <property name="meta.media.12.stream.type">video</property>
  <property name="meta.media.12.stream.frame_rate">90000</property>
  <property name="meta.media.12.stream.sample_aspect_ratio">0</property>
  <property name="meta.media.12.codec.width">600</property>
  <property name="meta.media.12.codec.height">900</property>
  <property name="meta.media.12.codec.rotate">0</property>
  <property name="meta.media.12.codec.pix_fmt">yuvj444p</property>
  <property name="meta.media.12.codec.sample_aspect_ratio">1</property>
  <property name="meta.media.12.codec.colorspace">601</property>
  <property name="meta.media.12.codec.name">mjpeg</property>
  <property name="meta.media.12.codec.long_name">MJPEG (Motion JPEG)</property>
  <property name="meta.media.12.codec.bit_rate">0</property>
  <property name="meta.attr.major_brand.markup">isom</property>
  <property name="meta.attr.minor_version.markup">512</property>
  <property name="meta.attr.compatible_brands.markup">isomdby1iso2mp41</property>
  <property name="meta.attr.title.markup">The.Matrix.Revolutions.2003.2160p.MAX.DV.HDR[Ben The Men]</property>
  <property name="meta.attr.encoder.markup">Lavf60.3.100</property>
  <property name="meta.media.sample_aspect_num">1</property>
  <property name="meta.media.sample_aspect_den">1</property>
  <property name="meta.media.frame_rate_num">24000</property>
  <property name="meta.media.frame_rate_den">1001</property>
  <property name="meta.media.colorspace">2020</property>
  <property name="meta.media.color_trc">16</property>
  <property name="meta.media.has_b_frames">2</property>
  <property name="meta.media.width">3840</property>
  <property name="meta.media.height">1600</property>
  <property name="meta.media.aspect_ratio">1</property>
  <property name="meta.media.color_range">mpeg</property>
  <property name="xml">was here</property>
  <property name="mute_on_pause">0</property>
  <property name="meta.media.top_field_first">0</property>
  <property name="meta.media.progressive">1</property>
  <property name="set.test_audio">0</property>
  <property name="set.test_image">1</property>
 </chain>
 <playlist id="playlist12">
  <property name="kdenlive:audio_track">1</property>
  <entry in="00:00:00.000" out="00:04:06.340" producer="chain0">
   <property name="kdenlive:id">4</property>
  </entry>
  <blank length="00:09:30.280"/>
  <entry in="00:13:56.807" out="00:40:52.261" producer="chain0">
   <property name="kdenlive:id">4</property>
  </entry>
  <blank length="00:09:00.500"/>
  <entry in="00:51:27.903" out="00:51:28.862" producer="chain0">
   <property name="kdenlive:id">4</property>
  </entry>
  <entry in="00:51:28.904" out="00:51:29.071" producer="chain0">
   <property name="kdenlive:id">4</property>
  </entry>
  <entry in="00:51:29.112" out="00:54:07.507" producer="chain0">
   <property name="kdenlive:id">4</property>
  </entry>
  <blank length="00:06:43.126"/>
  <entry in="01:01:25.525" out="01:18:01.793" producer="chain0">
   <property name="kdenlive:id">4</property>
  </entry>
  <blank length="00:03:55.722"/>
  <entry in="01:22:18.810" out="01:22:49.591" producer="chain0">
   <property name="kdenlive:id">4</property>
  </entry>
  <entry in="01:22:49.633" out="01:22:52.844" producer="chain0">
   <property name="kdenlive:id">4</property>
  </entry>
  <entry in="01:22:52.886" out="01:22:55.889" producer="chain0">
   <property name="kdenlive:id">4</property>
  </entry>
  <blank length="00:32:45.545"/>
  <entry in="01:55:51.176" out="02:09:11.929" producer="chain0">
   <property name="kdenlive:id">4</property>
  </entry>
 </playlist>
 <chain id="chain1" out="02:09:11.929">
  <property name="length">185861</property>
  <property name="eof">pause</property>
  <property name="resource">/Horror and SciFi/The Matrix Trilogy Complete (1999-2003) 720p 5.1 BRRiP x264 AAC/The.Matrix.Revolutions.2003/The.Matrix.Revolutions.2003.2160p.mp4</property>
  <property name="mlt_service">avformat-novalidate</property>
  <property name="seekable">1</property>
  <property name="audio_index">1</property>
  <property name="video_index">0</property>
  <property name="vstream">0</property>
  <property name="astream">0</property>
  <property name="kdenlive:control_uuid">{7cb6d440-dd44-4b3b-9578-193561e848ff}</property>
  <property name="kdenlive:id">4</property>
  <property name="kdenlive:clip_type">0</property>
  <property name="kdenlive:file_size">24566050278</property>
  <property name="kdenlive:file_hash">698ee326a3513ad73311ffb38a03626e</property>
  <property name="kdenlive:folderid">-1</property>
  <property name="mute_on_pause">0</property>
  <property name="kdenlive:active_streams">1;2;3;4;5;6;7</property>
  <property name="meta.media.nb_streams">13</property>
  <property name="meta.media.0.stream.type">video</property>
  <property name="meta.media.0.stream.frame_rate">23.976</property>
  <property name="meta.media.0.stream.sample_aspect_ratio">1</property>
  <property name="meta.media.0.codec.width">3840</property>
  <property name="meta.media.0.codec.height">1600</property>
  <property name="meta.media.0.codec.rotate">0</property>
  <property name="meta.media.0.codec.pix_fmt">yuv420p10le</property>
  <property name="meta.media.0.codec.sample_aspect_ratio">1</property>
  <property name="meta.media.0.codec.colorspace">9</property>
  <property name="meta.media.0.codec.color_trc">16</property>
  <property name="meta.media.0.codec.name">hevc</property>
  <property name="meta.media.0.codec.long_name">HEVC (High Efficiency Video Coding)</property>
  <property name="meta.media.0.codec.bit_rate">21220041</property>
  <property name="meta.attr.0.stream.creation_time.markup">2024-07-03T03:30:44.000000Z</property>
  <property name="meta.attr.0.stream.language.markup">eng</property>
  <property name="meta.attr.0.stream.handler_name.markup">VideoHandler</property>
  <property name="meta.attr.0.stream.vendor_id.markup">[0][0][0][0]</property>
  <property name="meta.media.1.stream.type">audio</property>
  <property name="meta.media.1.codec.sample_fmt">fltp</property>
  <property name="meta.media.1.codec.sample_rate">48000</property>
  <property name="meta.media.1.codec.channels">6</property>
  <property name="meta.media.1.codec.layout">5.1(side)</property>
  <property name="meta.media.1.codec.name">eac3</property>
  <property name="meta.media.1.codec.long_name">ATSC A/52B (AC-3, E-AC-3)</property>
  <property name="meta.media.1.codec.bit_rate">640000</property>
  <property name="meta.attr.1.stream.language.markup">eng</property>
  <property name="meta.attr.1.stream.handler_name.markup">SoundHandler</property>
  <property name="meta.attr.1.stream.vendor_id.markup">[0][0][0][0]</property>
  <property name="meta.media.2.stream.type">audio</property>
  <property name="meta.media.2.codec.sample_fmt">fltp</property>
  <property name="meta.media.2.codec.sample_rate">48000</property>
  <property name="meta.media.2.codec.channels">6</property>
  <property name="meta.media.2.codec.layout">5.1(side)</property>
  <property name="meta.media.2.codec.name">eac3</property>
  <property name="meta.media.2.codec.long_name">ATSC A/52B (AC-3, E-AC-3)</property>
  <property name="meta.media.2.codec.bit_rate">640000</property>
  <property name="meta.attr.2.stream.language.markup">spa</property>
  <property name="meta.attr.2.stream.handler_name.markup">SoundHandler</property>
  <property name="meta.attr.2.stream.vendor_id.markup">[0][0][0][0]</property>
  <property name="meta.media.3.stream.type">audio</property>
  <property name="meta.media.3.codec.sample_fmt">fltp</property>
  <property name="meta.media.3.codec.sample_rate">48000</property>
  <property name="meta.media.3.codec.channels">6</property>
  <property name="meta.media.3.codec.layout">5.1(side)</property>
  <property name="meta.media.3.codec.name">eac3</property>
  <property name="meta.media.3.codec.long_name">ATSC A/52B (AC-3, E-AC-3)</property>
  <property name="meta.media.3.codec.bit_rate">256000</property>
  <property name="meta.attr.3.stream.language.markup">spa</property>
  <property name="meta.attr.3.stream.handler_name.markup">SoundHandler</property>
  <property name="meta.attr.3.stream.vendor_id.markup">[0][0][0][0]</property>
  <property name="meta.media.4.stream.type">audio</property>
  <property name="meta.media.4.codec.sample_fmt">fltp</property>
  <property name="meta.media.4.codec.sample_rate">48000</property>
  <property name="meta.media.4.codec.channels">6</property>
  <property name="meta.media.4.codec.layout">5.1(side)</property>
  <property name="meta.media.4.codec.name">eac3</property>
  <property name="meta.media.4.codec.long_name">ATSC A/52B (AC-3, E-AC-3)</property>
  <property name="meta.media.4.codec.bit_rate">640000</property>
  <property name="meta.attr.4.stream.language.markup">eng</property>
  <property name="meta.attr.4.stream.handler_name.markup">SoundHandler</property>
  <property name="meta.attr.4.stream.vendor_id.markup">[0][0][0][0]</property>
  <property name="meta.media.5.stream.type">audio</property>
  <property name="meta.media.5.codec.sample_fmt">fltp</property>
  <property name="meta.media.5.codec.sample_rate">48000</property>
  <property name="meta.media.5.codec.channels">6</property>
  <property name="meta.media.5.codec.layout">5.1(side)</property>
  <property name="meta.media.5.codec.name">eac3</property>
  <property name="meta.media.5.codec.long_name">ATSC A/52B (AC-3, E-AC-3)</property>
  <property name="meta.media.5.codec.bit_rate">640000</property>
  <property name="meta.attr.5.stream.language.markup">hin</property>
  <property name="meta.attr.5.stream.handler_name.markup">SoundHandler</property>
  <property name="meta.attr.5.stream.vendor_id.markup">[0][0][0][0]</property>
  <property name="meta.media.6.stream.type">audio</property>
  <property name="meta.media.6.codec.sample_fmt">fltp</property>
  <property name="meta.media.6.codec.sample_rate">48000</property>
  <property name="meta.media.6.codec.channels">6</property>
  <property name="meta.media.6.codec.layout">5.1(side)</property>
  <property name="meta.media.6.codec.name">eac3</property>
  <property name="meta.media.6.codec.long_name">ATSC A/52B (AC-3, E-AC-3)</property>
  <property name="meta.media.6.codec.bit_rate">640000</property>
  <property name="meta.attr.6.stream.language.markup">ita</property>
  <property name="meta.attr.6.stream.handler_name.markup">SoundHandler</property>
  <property name="meta.attr.6.stream.vendor_id.markup">[0][0][0][0]</property>
  <property name="meta.media.7.stream.type">audio</property>
  <property name="meta.media.7.codec.sample_fmt">fltp</property>
  <property name="meta.media.7.codec.sample_rate">48000</property>
  <property name="meta.media.7.codec.channels">6</property>
  <property name="meta.media.7.codec.layout">5.1(side)</property>
  <property name="meta.media.7.codec.name">eac3</property>
  <property name="meta.media.7.codec.long_name">ATSC A/52B (AC-3, E-AC-3)</property>
  <property name="meta.media.7.codec.bit_rate">640000</property>
  <property name="meta.attr.7.stream.language.markup">por</property>
  <property name="meta.attr.7.stream.handler_name.markup">SoundHandler</property>
  <property name="meta.attr.7.stream.vendor_id.markup">[0][0][0][0]</property>
  <property name="meta.media.8.codec.name">mov_text</property>
  <property name="meta.media.8.codec.long_name">3GPP Timed Text subtitle</property>
  <property name="meta.media.8.codec.bit_rate">47</property>
  <property name="meta.attr.8.stream.language.markup">eng</property>
  <property name="meta.attr.8.stream.handler_name.markup">SubtitleHandler</property>
  <property name="meta.media.9.codec.name">mov_text</property>
  <property name="meta.media.9.codec.long_name">3GPP Timed Text subtitle</property>
  <property name="meta.media.9.codec.bit_rate">42</property>
  <property name="meta.attr.9.stream.language.markup">spa</property>
  <property name="meta.attr.9.stream.handler_name.markup">SubtitleHandler</property>
  <property name="meta.media.10.codec.name">mov_text</property>
  <property name="meta.media.10.codec.long_name">3GPP Timed Text subtitle</property>
  <property name="meta.media.10.codec.bit_rate">41</property>
  <property name="meta.attr.10.stream.language.markup">spa</property>
  <property name="meta.attr.10.stream.handler_name.markup">SubtitleHandler</property>
  <property name="meta.media.11.codec.name">mov_text</property>
  <property name="meta.media.11.codec.long_name">3GPP Timed Text subtitle</property>
  <property name="meta.media.11.codec.bit_rate">45</property>
  <property name="meta.attr.11.stream.language.markup">por</property>
  <property name="meta.attr.11.stream.handler_name.markup">SubtitleHandler</property>
  <property name="meta.media.12.stream.type">video</property>
  <property name="meta.media.12.stream.frame_rate">90000</property>
  <property name="meta.media.12.stream.sample_aspect_ratio">0</property>
  <property name="meta.media.12.codec.width">600</property>
  <property name="meta.media.12.codec.height">900</property>
  <property name="meta.media.12.codec.rotate">0</property>
  <property name="meta.media.12.codec.pix_fmt">yuvj444p</property>
  <property name="meta.media.12.codec.sample_aspect_ratio">1</property>
  <property name="meta.media.12.codec.colorspace">601</property>
  <property name="meta.media.12.codec.name">mjpeg</property>
  <property name="meta.media.12.codec.long_name">MJPEG (Motion JPEG)</property>
  <property name="meta.media.12.codec.bit_rate">0</property>
  <property name="meta.attr.major_brand.markup">isom</property>
  <property name="meta.attr.minor_version.markup">512</property>
  <property name="meta.attr.compatible_brands.markup">isomdby1iso2mp41</property>
  <property name="meta.attr.title.markup">The.Matrix.Revolutions.2003.2160p.MAX.DV.HDR[Ben The Men]</property>
  <property name="meta.attr.encoder.markup">Lavf60.3.100</property>
  <property name="meta.media.sample_aspect_num">1</property>
  <property name="meta.media.sample_aspect_den">1</property>
  <property name="meta.media.frame_rate_num">24000</property>
  <property name="meta.media.frame_rate_den">1001</property>
  <property name="meta.media.colorspace">2020</property>
  <property name="meta.media.color_trc">16</property>
  <property name="meta.media.has_b_frames">2</property>
  <property name="meta.media.width">3840</property>
  <property name="meta.media.height">1600</property>
  <property name="meta.media.aspect_ratio">1</property>
  <property name="meta.media.color_range">mpeg</property>
  <property name="xml">was here</property>
  <property name="meta.media.top_field_first">0</property>
  <property name="meta.media.progressive">1</property>
  <property name="set.test_audio">0</property>
  <property name="set.test_image">1</property>
 </chain>
 <playlist id="playlist13">
  <property name="kdenlive:audio_track">1</property>
  <blank length="00:04:03.378"/>
  <entry in="00:04:19.770" out="00:13:54.012" producer="chain1">
   <property name="kdenlive:id">4</property>
  </entry>
  <blank length="00:26:53.512"/>
  <entry in="00:41:59.268" out="00:51:01.752" producer="chain1">
   <property name="kdenlive:id">4</property>
  </entry>
  <blank length="00:02:35.661"/>
  <entry in="00:54:35.160" out="01:01:23.273" producer="chain1">
   <property name="kdenlive:id">4</property>
  </entry>
  <blank length="00:16:33.367"/>
  <entry in="01:18:11.178" out="01:22:08.842" producer="chain1">
   <property name="kdenlive:id">4</property>
  </entry>
  <blank length="00:00:35.118"/>
  <entry in="01:23:02.085" out="01:55:48.966" producer="chain1">
   <property name="kdenlive:id">4</property>
  </entry>
 </playlist>
 <tractor id="tractor6" in="00:00:00.000" out="02:06:10.886">
  <property name="kdenlive:audio_track">1</property>
  <property name="kdenlive:trackheight">84</property>
  <property name="kdenlive:timeline_active">1</property>
  <property name="kdenlive:collapsed">0</property>
  <property name="kdenlive:thumbs_format"/>
  <property name="kdenlive:audio_rec"/>
  <track hide="video" producer="playlist12"/>
  <track hide="video" producer="playlist13"/>
  <transition id="transition9" in="01:52:50.092" out="01:52:50.509">
   <property name="a_track">0</property>
   <property name="b_track">1</property>
   <property name="mlt_service">mix</property>
   <property name="kdenlive_id">mix</property>
   <property name="kdenlive:mixcut">5</property>
   <property name="start">-1</property>
   <property name="accepts_blanks">1</property>
   <property name="reverse">1</property>
  </transition>
  <transition id="transition8" in="01:20:03.587" out="01:20:04.588">
   <property name="a_track">0</property>
   <property name="b_track">1</property>
   <property name="mlt_service">mix</property>
   <property name="kdenlive_id">mix</property>
   <property name="kdenlive:mixcut">12</property>
   <property name="start">-1</property>
   <property name="accepts_blanks">1</property>
   <property name="reverse">0</property>
  </transition>
  <transition id="transition7" in="01:19:27.486" out="01:19:28.487">
   <property name="a_track">0</property>
   <property name="b_track">1</property>
   <property name="mlt_service">mix</property>
   <property name="kdenlive_id">mix</property>
   <property name="kdenlive:mixcut">12</property>
   <property name="start">-1</property>
   <property name="accepts_blanks">1</property>
   <property name="reverse">1</property>
  </transition>
  <transition id="transition6" in="01:15:30.781" out="01:15:31.782">
   <property name="a_track">0</property>
   <property name="b_track">1</property>
   <property name="mlt_service">mix</property>
   <property name="kdenlive_id">mix</property>
   <property name="kdenlive:mixcut">12</property>
   <property name="start">-1</property>
   <property name="accepts_blanks">1</property>
   <property name="reverse">0</property>
  </transition>
  <transition id="transition5" in="00:58:55.430" out="00:58:57.432">
   <property name="a_track">0</property>
   <property name="b_track">1</property>
   <property name="mlt_service">mix</property>
   <property name="kdenlive_id">mix</property>
   <property name="kdenlive:mixcut">24</property>
   <property name="start">-1</property>
   <property name="accepts_blanks">1</property>
   <property name="reverse">1</property>
  </transition>
  <transition id="transition4" in="00:52:09.301" out="00:52:12.304">
   <property name="a_track">0</property>
   <property name="b_track">1</property>
   <property name="mlt_service">mix</property>
   <property name="kdenlive_id">mix</property>
   <property name="kdenlive:mixcut">8</property>
   <property name="start">-1</property>
   <property name="accepts_blanks">1</property>
   <property name="reverse">0</property>
  </transition>
  <transition id="transition3" in="00:49:32.658" out="00:49:33.659">
   <property name="a_track">0</property>
   <property name="b_track">1</property>
   <property name="mlt_service">mix</property>
   <property name="kdenlive_id">mix</property>
   <property name="kdenlive:mixcut">4</property>
   <property name="start">-1</property>
   <property name="accepts_blanks">1</property>
   <property name="reverse">1</property>
  </transition>
  <transition id="transition2" in="00:40:31.156" out="00:40:32.157">
   <property name="a_track">0</property>
   <property name="b_track">1</property>
   <property name="mlt_service">mix</property>
   <property name="kdenlive_id">mix</property>
   <property name="kdenlive:mixcut">12</property>
   <property name="start">-1</property>
   <property name="accepts_blanks">1</property>
   <property name="reverse">0</property>
  </transition>
  <transition id="transition1" in="00:13:36.662" out="00:13:37.663">
   <property name="a_track">0</property>
   <property name="b_track">1</property>
   <property name="mlt_service">mix</property>
   <property name="kdenlive_id">mix</property>
   <property name="kdenlive:mixcut">12</property>
   <property name="start">-1</property>
   <property name="accepts_blanks">1</property>
   <property name="reverse">1</property>
  </transition>
  <transition id="transition0" in="00:04:03.378" out="00:04:06.381">
   <property name="a_track">0</property>
   <property name="b_track">1</property>
   <property name="mlt_service">mix</property>
   <property name="kdenlive_id">mix</property>
   <property name="kdenlive:mixcut">72</property>
   <property name="start">-1</property>
   <property name="accepts_blanks">1</property>
   <property name="reverse">0</property>
  </transition>
  <filter id="filter18">
   <property name="window">75</property>
   <property name="max_gain">20dB</property>
   <property name="mlt_service">volume</property>
   <property name="internal_added">237</property>
   <property name="disable">1</property>
  </filter>
  <filter id="filter19">
   <property name="channel">-1</property>
   <property name="mlt_service">panner</property>
   <property name="internal_added">237</property>
   <property name="start">0.5</property>
   <property name="disable">1</property>
  </filter>
  <filter id="filter20">
   <property name="iec_scale">0</property>
   <property name="mlt_service">audiolevel</property>
   <property name="dbpeak">1</property>
   <property name="disable">1</property>
  </filter>
 </tractor>
 <chain id="chain3" out="02:09:11.929">
  <property name="length">185861</property>
  <property name="eof">pause</property>
  <property name="resource">/Horror and SciFi/The Matrix Trilogy Complete (1999-2003) 720p 5.1 BRRiP x264 AAC/The.Matrix.Revolutions.2003/The.Matrix.Revolutions.2003.2160p.mp4</property>
  <property name="mlt_service">avformat-novalidate</property>
  <property name="seekable">1</property>
  <property name="audio_index">1</property>
  <property name="video_index">0</property>
  <property name="vstream">0</property>
  <property name="astream">0</property>
  <property name="kdenlive:control_uuid">{7cb6d440-dd44-4b3b-9578-193561e848ff}</property>
  <property name="kdenlive:id">4</property>
  <property name="kdenlive:clip_type">0</property>
  <property name="kdenlive:file_size">24566050278</property>
  <property name="kdenlive:file_hash">698ee326a3513ad73311ffb38a03626e</property>
  <property name="kdenlive:folderid">-1</property>
  <property name="meta.media.nb_streams">13</property>
  <property name="meta.media.0.stream.type">video</property>
  <property name="meta.media.0.stream.frame_rate">23.976</property>
  <property name="meta.media.0.stream.sample_aspect_ratio">1</property>
  <property name="meta.media.0.codec.width">3840</property>
  <property name="meta.media.0.codec.height">1600</property>
  <property name="meta.media.0.codec.rotate">0</property>
  <property name="meta.media.0.codec.pix_fmt">yuv420p10le</property>
  <property name="meta.media.0.codec.sample_aspect_ratio">1</property>
  <property name="meta.media.0.codec.colorspace">9</property>
  <property name="meta.media.0.codec.color_trc">16</property>
  <property name="meta.media.0.codec.name">hevc</property>
  <property name="meta.media.0.codec.long_name">HEVC (High Efficiency Video Coding)</property>
  <property name="meta.media.0.codec.bit_rate">21220041</property>
  <property name="meta.attr.0.stream.creation_time.markup">2024-07-03T03:30:44.000000Z</property>
  <property name="meta.attr.0.stream.language.markup">eng</property>
  <property name="meta.attr.0.stream.handler_name.markup">VideoHandler</property>
  <property name="meta.attr.0.stream.vendor_id.markup">[0][0][0][0]</property>
  <property name="meta.media.1.stream.type">audio</property>
  <property name="meta.media.1.codec.sample_fmt">fltp</property>
  <property name="meta.media.1.codec.sample_rate">48000</property>
  <property name="meta.media.1.codec.channels">6</property>
  <property name="meta.media.1.codec.layout">5.1(side)</property>
  <property name="meta.media.1.codec.name">eac3</property>
  <property name="meta.media.1.codec.long_name">ATSC A/52B (AC-3, E-AC-3)</property>
  <property name="meta.media.1.codec.bit_rate">640000</property>
  <property name="meta.attr.1.stream.language.markup">eng</property>
  <property name="meta.attr.1.stream.handler_name.markup">SoundHandler</property>
  <property name="meta.attr.1.stream.vendor_id.markup">[0][0][0][0]</property>
  <property name="meta.media.2.stream.type">audio</property>
  <property name="meta.media.2.codec.sample_fmt">fltp</property>
  <property name="meta.media.2.codec.sample_rate">48000</property>
  <property name="meta.media.2.codec.channels">6</property>
  <property name="meta.media.2.codec.layout">5.1(side)</property>
  <property name="meta.media.2.codec.name">eac3</property>
  <property name="meta.media.2.codec.long_name">ATSC A/52B (AC-3, E-AC-3)</property>
  <property name="meta.media.2.codec.bit_rate">640000</property>
  <property name="meta.attr.2.stream.language.markup">spa</property>
  <property name="meta.attr.2.stream.handler_name.markup">SoundHandler</property>
  <property name="meta.attr.2.stream.vendor_id.markup">[0][0][0][0]</property>
  <property name="meta.media.3.stream.type">audio</property>
  <property name="meta.media.3.codec.sample_fmt">fltp</property>
  <property name="meta.media.3.codec.sample_rate">48000</property>
  <property name="meta.media.3.codec.channels">6</property>
  <property name="meta.media.3.codec.layout">5.1(side)</property>
  <property name="meta.media.3.codec.name">eac3</property>
  <property name="meta.media.3.codec.long_name">ATSC A/52B (AC-3, E-AC-3)</property>
  <property name="meta.media.3.codec.bit_rate">256000</property>
  <property name="meta.attr.3.stream.language.markup">spa</property>
  <property name="meta.attr.3.stream.handler_name.markup">SoundHandler</property>
  <property name="meta.attr.3.stream.vendor_id.markup">[0][0][0][0]</property>
  <property name="meta.media.4.stream.type">audio</property>
  <property name="meta.media.4.codec.sample_fmt">fltp</property>
  <property name="meta.media.4.codec.sample_rate">48000</property>
  <property name="meta.media.4.codec.channels">6</property>
  <property name="meta.media.4.codec.layout">5.1(side)</property>
  <property name="meta.media.4.codec.name">eac3</property>
  <property name="meta.media.4.codec.long_name">ATSC A/52B (AC-3, E-AC-3)</property>
  <property name="meta.media.4.codec.bit_rate">640000</property>
  <property name="meta.attr.4.stream.language.markup">eng</property>
  <property name="meta.attr.4.stream.handler_name.markup">SoundHandler</property>
  <property name="meta.attr.4.stream.vendor_id.markup">[0][0][0][0]</property>
  <property name="meta.media.5.stream.type">audio</property>
  <property name="meta.media.5.codec.sample_fmt">fltp</property>
  <property name="meta.media.5.codec.sample_rate">48000</property>
  <property name="meta.media.5.codec.channels">6</property>
  <property name="meta.media.5.codec.layout">5.1(side)</property>
  <property name="meta.media.5.codec.name">eac3</property>
  <property name="meta.media.5.codec.long_name">ATSC A/52B (AC-3, E-AC-3)</property>
  <property name="meta.media.5.codec.bit_rate">640000</property>
  <property name="meta.attr.5.stream.language.markup">hin</property>
  <property name="meta.attr.5.stream.handler_name.markup">SoundHandler</property>
  <property name="meta.attr.5.stream.vendor_id.markup">[0][0][0][0]</property>
  <property name="meta.media.6.stream.type">audio</property>
  <property name="meta.media.6.codec.sample_fmt">fltp</property>
  <property name="meta.media.6.codec.sample_rate">48000</property>
  <property name="meta.media.6.codec.channels">6</property>
  <property name="meta.media.6.codec.layout">5.1(side)</property>
  <property name="meta.media.6.codec.name">eac3</property>
  <property name="meta.media.6.codec.long_name">ATSC A/52B (AC-3, E-AC-3)</property>
  <property name="meta.media.6.codec.bit_rate">640000</property>
  <property name="meta.attr.6.stream.language.markup">ita</property>
  <property name="meta.attr.6.stream.handler_name.markup">SoundHandler</property>
  <property name="meta.attr.6.stream.vendor_id.markup">[0][0][0][0]</property>
  <property name="meta.media.7.stream.type">audio</property>
  <property name="meta.media.7.codec.sample_fmt">fltp</property>
  <property name="meta.media.7.codec.sample_rate">48000</property>
  <property name="meta.media.7.codec.channels">6</property>
  <property name="meta.media.7.codec.layout">5.1(side)</property>
  <property name="meta.media.7.codec.name">eac3</property>
  <property name="meta.media.7.codec.long_name">ATSC A/52B (AC-3, E-AC-3)</property>
  <property name="meta.media.7.codec.bit_rate">640000</property>
  <property name="meta.attr.7.stream.language.markup">por</property>
  <property name="meta.attr.7.stream.handler_name.markup">SoundHandler</property>
  <property name="meta.attr.7.stream.vendor_id.markup">[0][0][0][0]</property>
  <property name="meta.media.8.codec.name">mov_text</property>
  <property name="meta.media.8.codec.long_name">3GPP Timed Text subtitle</property>
  <property name="meta.media.8.codec.bit_rate">47</property>
  <property name="meta.attr.8.stream.language.markup">eng</property>
  <property name="meta.attr.8.stream.handler_name.markup">SubtitleHandler</property>
  <property name="meta.media.9.codec.name">mov_text</property>
  <property name="meta.media.9.codec.long_name">3GPP Timed Text subtitle</property>
  <property name="meta.media.9.codec.bit_rate">42</property>
  <property name="meta.attr.9.stream.language.markup">spa</property>
  <property name="meta.attr.9.stream.handler_name.markup">SubtitleHandler</property>
  <property name="meta.media.10.codec.name">mov_text</property>
  <property name="meta.media.10.codec.long_name">3GPP Timed Text subtitle</property>
  <property name="meta.media.10.codec.bit_rate">41</property>
  <property name="meta.attr.10.stream.language.markup">spa</property>
  <property name="meta.attr.10.stream.handler_name.markup">SubtitleHandler</property>
  <property name="meta.media.11.codec.name">mov_text</property>
  <property name="meta.media.11.codec.long_name">3GPP Timed Text subtitle</property>
  <property name="meta.media.11.codec.bit_rate">45</property>
  <property name="meta.attr.11.stream.language.markup">por</property>
  <property name="meta.attr.11.stream.handler_name.markup">SubtitleHandler</property>
  <property name="meta.media.12.stream.type">video</property>
  <property name="meta.media.12.stream.frame_rate">90000</property>
  <property name="meta.media.12.stream.sample_aspect_ratio">0</property>
  <property name="meta.media.12.codec.width">600</property>
  <property name="meta.media.12.codec.height">900</property>
  <property name="meta.media.12.codec.rotate">0</property>
  <property name="meta.media.12.codec.pix_fmt">yuvj444p</property>
  <property name="meta.media.12.codec.sample_aspect_ratio">1</property>
  <property name="meta.media.12.codec.colorspace">601</property>
  <property name="meta.media.12.codec.name">mjpeg</property>
  <property name="meta.media.12.codec.long_name">MJPEG (Motion JPEG)</property>
  <property name="meta.media.12.codec.bit_rate">0</property>
  <property name="meta.attr.major_brand.markup">isom</property>
  <property name="meta.attr.minor_version.markup">512</property>
  <property name="meta.attr.compatible_brands.markup">isomdby1iso2mp41</property>
  <property name="meta.attr.title.markup">The.Matrix.Revolutions.2003.2160p.MAX.DV.HDR[Ben The Men]</property>
  <property name="meta.attr.encoder.markup">Lavf60.3.100</property>
  <property name="meta.media.sample_aspect_num">1</property>
  <property name="meta.media.sample_aspect_den">1</property>
  <property name="meta.media.frame_rate_num">24000</property>
  <property name="meta.media.frame_rate_den">1001</property>
  <property name="meta.media.colorspace">2020</property>
  <property name="meta.media.color_trc">16</property>
  <property name="meta.media.has_b_frames">2</property>
  <property name="meta.media.width">3840</property>
  <property name="meta.media.height">1600</property>
  <property name="meta.media.aspect_ratio">1</property>
  <property name="meta.media.color_range">mpeg</property>
  <property name="xml">was here</property>
  <property name="mute_on_pause">0</property>
  <property name="meta.media.top_field_first">0</property>
  <property name="meta.media.progressive">1</property>
  <property name="set.test_audio">1</property>
  <property name="set.test_image">0</property>
 </chain>
 <playlist id="playlist14">
  <entry in="00:00:00.000" out="00:04:03.337" producer="chain3">
   <property name="kdenlive:id">4</property>
  </entry>
  <entry in="00:04:19.770" out="00:13:53.512" producer="chain3">
   <property name="kdenlive:id">4</property>
  </entry>
  <entry in="00:13:57.307" out="00:40:51.760" producer="chain3">
   <property name="kdenlive:id">4</property>
  </entry>
  <entry in="00:41:59.768" out="00:51:01.585" producer="chain3">
   <property name="kdenlive:id">4</property>
  </entry>
  <entry in="00:51:28.737" out="00:51:28.862" producer="chain3">
   <property name="kdenlive:id">4</property>
  </entry>
  <entry in="00:51:28.904" out="00:51:29.071" producer="chain3">
   <property name="kdenlive:id">4</property>
  </entry>
  <entry in="00:51:29.112" out="00:54:07.174" producer="chain3">
   <property name="kdenlive:id">4</property>
  </entry>
  <entry in="00:54:37.829" out="01:01:22.272" producer="chain3">
   <property name="kdenlive:id">4</property>
  </entry>
  <entry in="01:01:26.526" out="01:18:01.293" producer="chain3">
   <property name="kdenlive:id">4</property>
  </entry>
  <entry in="01:18:11.678" out="01:22:08.342" producer="chain3">
   <property name="kdenlive:id">4</property>
  </entry>
  <entry in="01:22:19.311" out="01:22:49.591" producer="chain3">
   <property name="kdenlive:id">4</property>
  </entry>
  <entry in="01:22:49.633" out="01:22:52.844" producer="chain3">
   <property name="kdenlive:id">4</property>
  </entry>
  <entry in="01:22:52.886" out="01:22:55.389" producer="chain3">
   <property name="kdenlive:id">4</property>
  </entry>
  <entry in="01:23:02.586" out="01:55:48.757" producer="chain3">
   <property name="kdenlive:id">4</property>
  </entry>
  <entry in="01:55:51.385" out="02:09:11.929" producer="chain3">
   <property name="kdenlive:id">4</property>
  </entry>
 </playlist>
 <playlist id="playlist15"/>
 <tractor id="tractor7" in="00:00:00.000" out="02:06:10.886">
  <property name="kdenlive:trackheight">84</property>
  <property name="kdenlive:timeline_active">1</property>
  <property name="kdenlive:collapsed">0</property>
  <property name="kdenlive:thumbs_format"/>
  <property name="kdenlive:audio_rec"/>
  <track hide="audio" producer="playlist14"/>
  <track hide="audio" producer="playlist15"/>
 </tractor>
 <playlist id="playlist16"/>
 <playlist id="playlist17"/>
 <tractor id="tractor8" in="00:00:00.000">
  <property name="kdenlive:trackheight">84</property>
  <property name="kdenlive:timeline_active">1</property>
  <property name="kdenlive:collapsed">0</property>
  <property name="kdenlive:thumbs_format"/>
  <property name="kdenlive:audio_rec"/>
  <track hide="audio" producer="playlist16"/>
  <track hide="audio" producer="playlist17"/>
 </tractor>
 <tractor id="tractor9" in="00:00:00.000" out="02:06:10.886">
  <property name="kdenlive:duration">02:06:10.928</property>
  <property name="kdenlive:maxduration">181520</property>
  <property name="kdenlive:clipname">Sequence 1</property>
  <property name="kdenlive:description"/>
  <property name="kdenlive:uuid">{2f22aef7-6ac1-4e11-8364-15dfa6b9d756}</property>
  <property name="kdenlive:producer_type">17</property>
  <property name="kdenlive:control_uuid">{2f22aef7-6ac1-4e11-8364-15dfa6b9d756}</property>
  <property name="kdenlive:id">3</property>
  <property name="kdenlive:clip_type">0</property>
  <property name="kdenlive:file_hash">f03de89fef7a071514436d0c7bae1293</property>
  <property name="kdenlive:folderid">2</property>
  <property name="kdenlive:sequenceproperties.activeTrack">7</property>
  <property name="kdenlive:sequenceproperties.audioTarget">1</property>
  <property name="kdenlive:sequenceproperties.disablepreview">0</property>
  <property name="kdenlive:sequenceproperties.documentuuid">{2f22aef7-6ac1-4e11-8364-15dfa6b9d756}</property>
  <property name="kdenlive:sequenceproperties.globalSubtitleStyles">[
]
</property>
  <property name="kdenlive:sequenceproperties.hasAudio">1</property>
  <property name="kdenlive:sequenceproperties.hasVideo">1</property>
  <property name="kdenlive:sequenceproperties.hidesubtitle">0</property>
  <property name="kdenlive:sequenceproperties.position">168184</property>
  <property name="kdenlive:sequenceproperties.scrollPos">9699</property>
  <property name="kdenlive:sequenceproperties.subtitlesList">[
    {
        "file": "AppData/Local/Temp/1754139357211-{5a6a68cc-80bc-47e3-b4af-58ad91ba1914}.ass",
        "id": 0,
        "name": "Subtitles"
    }
]
</property>
  <property name="kdenlive:sequenceproperties.tracks">4</property>
  <property name="kdenlive:sequenceproperties.tracksCount">9</property>
  <property name="kdenlive:sequenceproperties.verticalzoom">1</property>
  <property name="kdenlive:sequenceproperties.videoTarget">2</property>
  <property name="kdenlive:sequenceproperties.zonein">162252</property>
  <property name="kdenlive:sequenceproperties.zoneout">162435</property>
  <property name="kdenlive:sequenceproperties.zoom">14</property>
  <property name="kdenlive:sequenceproperties.groups">[
    {
        "children": [
            {
                "data": "7:84789:-1",
                "leaf": "clip",
                "type": "Leaf"
            },
            {
                "data": "6:84765:-1",
                "leaf": "clip",
                "type": "Leaf"
            }
        ],
        "type": "AVSplit"
    },
    {
        "children": [
            {
                "data": "6:71272:-1",
                "leaf": "clip",
                "type": "Leaf"
            },
            {
                "data": "7:71292:-1",
                "leaf": "clip",
                "type": "Leaf"
            }
        ],
        "type": "AVSplit"
    },
    {
        "children": [
            {
                "data": "7:114316:-1",
                "leaf": "clip",
                "type": "Leaf"
            },
            {
                "data": "6:114304:-1",
                "leaf": "clip",
                "type": "Leaf"
            }
        ],
        "type": "AVSplit"
    },
    {
        "children": [
            {
                "data": "6:115170:-1",
                "leaf": "clip",
                "type": "Leaf"
            },
            {
                "data": "7:115182:-1",
                "leaf": "clip",
                "type": "Leaf"
            }
        ],
        "type": "AVSplit"
    },
    {
        "children": [
            {
                "data": "7:75092:-1",
                "leaf": "clip",
                "type": "Leaf"
            },
            {
                "data": "6:75028:-1",
                "leaf": "clip",
                "type": "Leaf"
            }
        ],
        "type": "AVSplit"
    },
    {
        "children": [
            {
                "data": "7:115043:-1",
                "leaf": "clip",
                "type": "Leaf"
            },
            {
                "data": "6:115043:-1",
                "leaf": "clip",
                "type": "Leaf"
            }
        ],
        "type": "AVSplit"
    },
    {
        "children": [
            {
                "data": "6:71296:-1",
                "leaf": "clip",
                "type": "Leaf"
            },
            {
                "data": "7:71296:-1",
                "leaf": "clip",
                "type": "Leaf"
            }
        ],
        "type": "AVSplit"
    },
    {
        "children": [
            {
                "data": "7:108641:-1",
                "leaf": "clip",
                "type": "Leaf"
            },
            {
                "data": "6:108629:-1",
                "leaf": "clip",
                "type": "Leaf"
            }
        ],
        "type": "AVSplit"
    },
    {
        "children": [
            {
                "data": "6:19580:-1",
                "leaf": "clip",
                "type": "Leaf"
            },
            {
                "data": "7:19592:-1",
                "leaf": "clip",
                "type": "Leaf"
            }
        ],
        "type": "AVSplit"
    },
    {
        "children": [
            {
                "data": "6:58289:-1",
                "leaf": "clip",
                "type": "Leaf"
            },
            {
                "data": "7:58301:-1",
                "leaf": "clip",
                "type": "Leaf"
            }
        ],
        "type": "AVSplit"
    },
    {
        "children": [
            {
                "data": "7:162324:-1",
                "leaf": "clip",
                "type": "Leaf"
            },
            {
                "data": "6:162319:-1",
                "leaf": "clip",
                "type": "Leaf"
            }
        ],
        "type": "AVSplit"
    },
    {
        "children": [
            {
                "data": "7:5835:-1",
                "leaf": "clip",
                "type": "Leaf"
            },
            {
                "data": "6:5835:-1",
                "leaf": "clip",
                "type": "Leaf"
            }
        ],
        "type": "AVSplit"
    },
    {
        "children": [
            {
                "data": "7:115121:-1",
                "leaf": "clip",
                "type": "Leaf"
            },
            {
                "data": "6:115121:-1",
                "leaf": "clip",
                "type": "Leaf"
            }
        ],
        "type": "AVSplit"
    },
    {
        "children": [
            {
                "data": "7:0:-1",
                "leaf": "clip",
                "type": "Leaf"
            },
            {
                "data": "6:0:-1",
                "leaf": "clip",
                "type": "Leaf"
            }
        ],
        "type": "AVSplit"
    },
    {
        "children": [
            {
                "data": "7:71301:-1",
                "leaf": "clip",
                "type": "Leaf"
            },
            {
                "data": "6:71301:-1",
                "leaf": "clip",
                "type": "Leaf"
            }
        ],
        "type": "AVSplit"
    }
]
</property>
  <property name="kdenlive:sequenceproperties.guides">[
]
</property>
  <track producer="producer0"/>
  <track producer="tractor0"/>
  <track producer="tractor1"/>
  <track producer="tractor2"/>
  <track producer="tractor3"/>
  <track producer="tractor4"/>
  <track producer="tractor5"/>
  <track producer="tractor6"/>
  <track producer="tractor7"/>
  <track producer="tractor8"/>
  <transition id="transition10">
   <property name="a_track">0</property>
   <property name="b_track">1</property>
   <property name="mlt_service">mix</property>
   <property name="kdenlive_id">mix</property>
   <property name="internal_added">237</property>
   <property name="always_active">1</property>
   <property name="accepts_blanks">1</property>
   <property name="sum">1</property>
  </transition>
  <transition id="transition11">
   <property name="a_track">0</property>
   <property name="b_track">2</property>
   <property name="mlt_service">mix</property>
   <property name="kdenlive_id">mix</property>
   <property name="internal_added">237</property>
   <property name="always_active">1</property>
   <property name="accepts_blanks">1</property>
   <property name="sum">1</property>
  </transition>
  <transition id="transition12">
   <property name="a_track">0</property>
   <property name="b_track">3</property>
   <property name="mlt_service">mix</property>
   <property name="kdenlive_id">mix</property>
   <property name="internal_added">237</property>
   <property name="always_active">1</property>
   <property name="accepts_blanks">1</property>
   <property name="sum">1</property>
  </transition>
  <transition id="transition13">
   <property name="a_track">0</property>
   <property name="b_track">4</property>
   <property name="mlt_service">mix</property>
   <property name="kdenlive_id">mix</property>
   <property name="internal_added">237</property>
   <property name="always_active">1</property>
   <property name="accepts_blanks">1</property>
   <property name="sum">1</property>
  </transition>
  <transition id="transition14">
   <property name="a_track">0</property>
   <property name="b_track">5</property>
   <property name="mlt_service">mix</property>
   <property name="kdenlive_id">mix</property>
   <property name="internal_added">237</property>
   <property name="always_active">1</property>
   <property name="accepts_blanks">1</property>
   <property name="sum">1</property>
  </transition>
  <transition id="transition15">
   <property name="a_track">0</property>
   <property name="b_track">6</property>
   <property name="mlt_service">mix</property>
   <property name="kdenlive_id">mix</property>
   <property name="internal_added">237</property>
   <property name="always_active">1</property>
   <property name="accepts_blanks">1</property>
   <property name="sum">1</property>
  </transition>
  <transition id="transition16">
   <property name="a_track">0</property>
   <property name="b_track">7</property>
   <property name="mlt_service">mix</property>
   <property name="kdenlive_id">mix</property>
   <property name="internal_added">237</property>
   <property name="always_active">1</property>
   <property name="accepts_blanks">1</property>
   <property name="sum">1</property>
  </transition>
  <transition id="transition17">
   <property name="a_track">0</property>
   <property name="b_track">8</property>
   <property name="compositing">0</property>
   <property name="distort">0</property>
   <property name="rotate_center">0</property>
   <property name="mlt_service">qtblend</property>
   <property name="kdenlive_id">qtblend</property>
   <property name="internal_added">237</property>
   <property name="always_active">1</property>
  </transition>
  <transition id="transition18">
   <property name="a_track">0</property>
   <property name="b_track">9</property>
   <property name="compositing">0</property>
   <property name="distort">0</property>
   <property name="rotate_center">0</property>
   <property name="mlt_service">qtblend</property>
   <property name="kdenlive_id">qtblend</property>
   <property name="internal_added">237</property>
   <property name="always_active">1</property>
  </transition>
  <filter id="filter21">
   <property name="window">75</property>
   <property name="max_gain">20dB</property>
   <property name="level">0</property>
   <property name="mlt_service">volume</property>
   <property name="internal_added">237</property>
   <property name="disable">0</property>
  </filter>
  <filter id="filter22">
   <property name="channel">-1</property>
   <property name="mlt_service">panner</property>
   <property name="internal_added">237</property>
   <property name="start">0.5</property>
   <property name="disable">1</property>
  </filter>
  <filter id="filter23">
   <property name="mlt_service">avfilter.subtitles</property>
   <property name="av.alpha">1</property>
   <property name="internal_added">237</property>
   <property name="av.filename">Matrix Revolutions (2003) - Unlinked Edition.kdenlive.ass</property>
  </filter>
 </tractor>
 <playlist id="main_bin">
  <property name="kdenlive:folder.-1.2">Sequences</property>
  <property name="kdenlive:sequenceFolder">2</property>
  <property name="kdenlive:docproperties.activetimeline">{2f22aef7-6ac1-4e11-8364-15dfa6b9d756}</property>
  <property name="kdenlive:docproperties.audioChannels">2</property>
  <property name="kdenlive:docproperties.binsort">0</property>
  <property name="kdenlive:docproperties.browserurl">/FanEdits/FanMixes/Final Fantasy (2001) - The Phantom Menace/</property>
  <property name="kdenlive:docproperties.documentid">1754139357211</property>
  <property name="kdenlive:docproperties.enableTimelineZone">0</property>
  <property name="kdenlive:docproperties.enableexternalproxy">0</property>
  <property name="kdenlive:docproperties.enableproxy">0</property>
  <property name="kdenlive:docproperties.externalproxyparams">./;;.LRV;./;;.MP4</property>
  <property name="kdenlive:docproperties.generateimageproxy">0</property>
  <property name="kdenlive:docproperties.generateproxy">0</property>
  <property name="kdenlive:docproperties.guidesCategories">[
    {
        "color": "#9b59b6",
        "comment": "Category 1",
        "index": 0
    },
    {
        "color": "#3daee9",
        "comment": "Category 2",
        "index": 1
    },
    {
        "color": "#1abc9c",
        "comment": "Category 3",
        "index": 2
    },
    {
        "color": "#1cdc9a",
        "comment": "Category 4",
        "index": 3
    },
    {
        "color": "#c9ce3b",
        "comment": "Category 5",
        "index": 4
    },
    {
        "color": "#fdbc4b",
        "comment": "Category 6",
        "index": 5
    },
    {
        "color": "#f39c1f",
        "comment": "Category 7",
        "index": 6
    },
    {
        "color": "#f47750",
        "comment": "Category 8",
        "index": 7
    },
    {
        "color": "#da4453",
        "comment": "Category 9",
        "index": 8
    }
]
</property>
  <property name="kdenlive:docproperties.kdenliveversion">25.04.2</property>
  <property name="kdenlive:docproperties.opensequences">{2f22aef7-6ac1-4e11-8364-15dfa6b9d756}</property>
  <property name="kdenlive:docproperties.previewextension"/>
  <property name="kdenlive:docproperties.previewparameters"/>
  <property name="kdenlive:docproperties.profile">AppData/Roaming/kdenlive/profiles/customprofile16</property>
  <property name="kdenlive:docproperties.proxyextension"/>
  <property name="kdenlive:docproperties.proxyimageminsize">2000</property>
  <property name="kdenlive:docproperties.proxyimagesize">800</property>
  <property name="kdenlive:docproperties.proxyminsize">1000</property>
  <property name="kdenlive:docproperties.proxyparams"/>
  <property name="kdenlive:docproperties.proxyresize">640</property>
  <property name="kdenlive:docproperties.rendercategory">Ultra-High Definition (4K)</property>
  <property name="kdenlive:docproperties.rendercustomquality">-1</property>
  <property name="kdenlive:docproperties.renderendguide">-1</property>
  <property name="kdenlive:docproperties.renderexportaudio">0</property>
  <property name="kdenlive:docproperties.renderfullcolorrange">0</property>
  <property name="kdenlive:docproperties.rendermode">0</property>
  <property name="kdenlive:docproperties.renderplay">0</property>
  <property name="kdenlive:docproperties.renderpreview">0</property>
  <property name="kdenlive:docproperties.renderprofile">MKV-H265 (HEVC)</property>
  <property name="kdenlive:docproperties.renderrescale">0</property>
  <property name="kdenlive:docproperties.renderrescaleheight">800</property>
  <property name="kdenlive:docproperties.renderrescalewidth">1920</property>
  <property name="kdenlive:docproperties.renderspeed">6</property>
  <property name="kdenlive:docproperties.renderstartguide">-1</property>
  <property name="kdenlive:docproperties.rendertcoverlay">0</property>
  <property name="kdenlive:docproperties.rendertctype">-1</property>
  <property name="kdenlive:docproperties.rendertwopass">0</property>
  <property name="kdenlive:docproperties.renderurl">/Matrix Revolutions (2003) - Unlinked Edition.mkv</property>
  <property name="kdenlive:docproperties.seekOffset">30000</property>
  <property name="kdenlive:docproperties.sessionid">{09fcd3f1-8efd-4ede-b388-31317de1e35a}</property>
  <property name="kdenlive:docproperties.uuid">{2f22aef7-6ac1-4e11-8364-15dfa6b9d756}</property>
  <property name="kdenlive:docproperties.version">1.1</property>
  <property name="kdenlive:expandedFolders"/>
  <property name="kdenlive:binZoom">4</property>
  <property name="kdenlive:extraBins">project_bin:-1:0</property>
  <property name="kdenlive:documentnotes"/>
  <property name="kdenlive:documentnotesversion">2</property>
  <property name="xml_retain">1</property>
  <entry in="00:00:00.000" out="02:09:11.929" producer="chain2"/>
  <entry in="00:00:00.000" out="02:06:10.886" producer="tractor9"/>
 </playlist>
 <tractor id="tractor10" in="00:00:00.000" out="02:06:10.886">
  <property name="kdenlive:projectTractor">1</property>
  <track in="00:00:00.000" out="02:06:10.886" producer="tractor9"/>
 </tractor>
</mlt>
